<?xml version="1.0" encoding="UTF-8" standalone="no"?>
<!DOCTYPE svg PUBLIC "-//W3C//DTD SVG 1.1//EN"
 "http://www.w3.org/Graphics/SVG/1.1/DTD/svg11.dtd">
<!-- Generated by graphviz version 2.40.1 (20161225.0304)
 -->
<!-- Title: orphans Pages: 1 -->
<svg width="371pt" height="1276pt"
 viewBox="0.00 0.00 371.00 1276.00" xmlns="http://www.w3.org/2000/svg" xmlns:xlink="http://www.w3.org/1999/xlink">
<g id="graph0" class="graph" transform="scale(1 1) rotate(0) translate(4 1272)">
<title>orphans</title>
<polygon fill="#ffffff" stroke="transparent" points="-4,4 -4,-1272 367,-1272 367,4 -4,4"/>
<!-- keyworker_entry -->
<g id="node1" class="node">
<title>keyworker_entry</title>
<g id="a_node1"><a xlink:href="../../tables/keyworker_entry.html" xlink:title="keyworker_entry" target="_top">
<polygon fill="#ffffff" stroke="transparent" points="60,-4 60,-270 303,-270 303,-4 60,-4"/>
<polygon fill="#f5f5f5" stroke="transparent" points="62.5,-245 62.5,-268 301.5,-268 301.5,-245 62.5,-245"/>
<polygon fill="none" stroke="#000000" points="62.5,-245 62.5,-268 301.5,-268 301.5,-245 62.5,-245"/>
<text text-anchor="start" x="67.5" y="-253.6" font-family="Helvetica,sans-Serif" font-weight="bold" font-size="11.00" fill="#000000">keyworker_entry</text>
<text text-anchor="start" x="266.5437" y="-253.1" font-family="Helvetica,sans-Serif" font-size="11.00" fill="#000000">[table]</text>
<polygon fill="none" stroke="#000000" points="62.5,-223 62.5,-245 207.5,-245 207.5,-223 62.5,-223"/>
<image xlink:href="../../images/primaryKeys.png" width="11px" height="12px" preserveAspectRatio="xMinYMin meet" x="67.5" y="-240"/>
<text text-anchor="start" x="82.5" y="-230.1" font-family="Helvetica,sans-Serif" font-size="11.00" fill="#000000">id</text>
<polygon fill="none" stroke="#000000" points="207.5,-223 207.5,-245 301.5,-245 301.5,-223 207.5,-223"/>
<text text-anchor="start" x="210.4758" y="-230.7" font-family="Helvetica,sans-Serif" font-size="11.00" fill="#000000">uuid[2147483647]</text>
<polygon fill="#ffffff" stroke="transparent" points="62.5,-201 62.5,-223 207.5,-223 207.5,-201 62.5,-201"/>
<polygon fill="none" stroke="#000000" points="62.5,-201 62.5,-223 207.5,-223 207.5,-201 62.5,-201"/>
<text text-anchor="start" x="82.5" y="-208.1" font-family="Helvetica,sans-Serif" font-size="11.00" fill="#000000">occurred_at</text>
<polygon fill="none" stroke="#000000" points="207.5,-201 207.5,-223 301.5,-223 301.5,-201 207.5,-201"/>
<text text-anchor="start" x="210.5" y="-208.7" font-family="Helvetica,sans-Serif" font-size="11.00" fill="#000000">timestamp[29,6]</text>
<polygon fill="#ffffff" stroke="transparent" points="62.5,-179 62.5,-201 207.5,-201 207.5,-179 62.5,-179"/>
<polygon fill="none" stroke="#000000" points="62.5,-179 62.5,-201 207.5,-201 207.5,-179 62.5,-179"/>
<text text-anchor="start" x="82.5" y="-186.1" font-family="Helvetica,sans-Serif" font-size="11.00" fill="#000000">person_identifier</text>
<polygon fill="none" stroke="#000000" points="207.5,-179 207.5,-201 301.5,-201 301.5,-179 207.5,-179"/>
<text text-anchor="start" x="210.5" y="-186.7" font-family="Helvetica,sans-Serif" font-size="11.00" fill="#000000">varchar[7]</text>
<polygon fill="#ffffff" stroke="transparent" points="62.5,-157 62.5,-179 207.5,-179 207.5,-157 62.5,-157"/>
<polygon fill="none" stroke="#000000" points="62.5,-157 62.5,-179 207.5,-179 207.5,-157 62.5,-157"/>
<text text-anchor="start" x="82.5" y="-164.1" font-family="Helvetica,sans-Serif" font-size="11.00" fill="#000000">staff_id</text>
<polygon fill="none" stroke="#000000" points="207.5,-157 207.5,-179 301.5,-179 301.5,-157 207.5,-157"/>
<text text-anchor="start" x="210.5" y="-164.7" font-family="Helvetica,sans-Serif" font-size="11.00" fill="#000000">int8[19]</text>
<polygon fill="none" stroke="#000000" points="62.5,-135 62.5,-157 207.5,-157 207.5,-135 62.5,-135"/>
<text text-anchor="start" x="82.5" y="-142.1" font-family="Helvetica,sans-Serif" font-size="11.00" fill="#000000">staff_username</text>
<polygon fill="none" stroke="#000000" points="207.5,-135 207.5,-157 301.5,-157 301.5,-135 207.5,-135"/>
<text text-anchor="start" x="210.5" y="-142.7" font-family="Helvetica,sans-Serif" font-size="11.00" fill="#000000">varchar[64]</text>
<polygon fill="#ffffff" stroke="transparent" points="62.5,-113 62.5,-135 207.5,-135 207.5,-113 62.5,-113"/>
<polygon fill="none" stroke="#000000" points="62.5,-113 62.5,-135 207.5,-135 207.5,-113 62.5,-113"/>
<image xlink:href="../../images/foreignKeys.png" width="11px" height="12px" preserveAspectRatio="xMinYMin meet" x="67.5" y="-130"/>
<text text-anchor="start" x="82.5" y="-120.1" font-family="Helvetica,sans-Serif" font-size="11.00" fill="#000000">prison_code</text>
<polygon fill="none" stroke="#000000" points="207.5,-113 207.5,-135 301.5,-135 301.5,-113 207.5,-113"/>
<text text-anchor="start" x="210.5" y="-120.7" font-family="Helvetica,sans-Serif" font-size="11.00" fill="#000000">varchar[6]</text>
<polygon fill="none" stroke="#000000" points="62.5,-91 62.5,-113 207.5,-113 207.5,-91 62.5,-91"/>
<text text-anchor="start" x="82.5" y="-98.1" font-family="Helvetica,sans-Serif" font-size="11.00" fill="#000000">created_at</text>
<polygon fill="none" stroke="#000000" points="207.5,-91 207.5,-113 301.5,-113 301.5,-91 207.5,-91"/>
<text text-anchor="start" x="210.5" y="-98.7" font-family="Helvetica,sans-Serif" font-size="11.00" fill="#000000">timestamp[29,6]</text>
<polygon fill="none" stroke="#000000" points="62.5,-69 62.5,-91 207.5,-91 207.5,-69 62.5,-69"/>
<text text-anchor="start" x="82.5" y="-76.1" font-family="Helvetica,sans-Serif" font-size="11.00" fill="#000000">version</text>
<polygon fill="none" stroke="#000000" points="207.5,-69 207.5,-91 301.5,-91 301.5,-69 207.5,-69"/>
<text text-anchor="start" x="210.5" y="-76.7" font-family="Helvetica,sans-Serif" font-size="11.00" fill="#000000">int4[10]</text>
<polygon fill="none" stroke="#000000" points="62.5,-47 62.5,-69 207.5,-69 207.5,-47 62.5,-47"/>
<text text-anchor="start" x="82.5" y="-54.1" font-family="Helvetica,sans-Serif" font-size="11.00" fill="#000000">text_length</text>
<polygon fill="none" stroke="#000000" points="207.5,-47 207.5,-69 301.5,-69 301.5,-47 207.5,-47"/>
<text text-anchor="start" x="210.5" y="-54.7" font-family="Helvetica,sans-Serif" font-size="11.00" fill="#000000">int4[10]</text>
<polygon fill="none" stroke="#000000" points="62.5,-25 62.5,-47 207.5,-47 207.5,-25 62.5,-25"/>
<text text-anchor="start" x="82.5" y="-32.1" font-family="Helvetica,sans-Serif" font-size="11.00" fill="#000000">amendment_count</text>
<polygon fill="none" stroke="#000000" points="207.5,-25 207.5,-47 301.5,-47 301.5,-25 207.5,-25"/>
<text text-anchor="start" x="210.5" y="-32.7" font-family="Helvetica,sans-Serif" font-size="11.00" fill="#000000">int4[10]</text>
<polygon fill="#ffffff" stroke="transparent" points="62.5,-6 62.5,-25 139.5,-25 139.5,-6 62.5,-6"/>
<polygon fill="none" stroke="#000000" points="62.5,-6 62.5,-25 139.5,-25 139.5,-6 62.5,-6"/>
<text text-anchor="start" x="65.5" y="-12.1" font-family="Helvetica,sans-Serif" font-size="11.00" fill="#000000">&lt; 0</text>
<polygon fill="#ffffff" stroke="transparent" points="139.5,-6 139.5,-25 207.5,-25 207.5,-6 139.5,-6"/>
<polygon fill="none" stroke="#000000" points="139.5,-6 139.5,-25 207.5,-25 207.5,-6 139.5,-6"/>
<text text-anchor="start" x="198.3862" y="-12.1" font-family="Helvetica,sans-Serif" font-size="11.00" fill="#000000"> &#160;</text>
<polygon fill="#ffffff" stroke="transparent" points="207.5,-6 207.5,-25 301.5,-25 301.5,-6 207.5,-6"/>
<polygon fill="none" stroke="#000000" points="207.5,-6 207.5,-25 301.5,-25 301.5,-6 207.5,-6"/>
<text text-anchor="start" x="282.9053" y="-12.1" font-family="Helvetica,sans-Serif" font-size="11.00" fill="#000000">0 &gt;</text>
<polygon fill="none" stroke="#000000" stroke-width="2" points="61,-5 61,-269 302,-269 302,-5 61,-5"/>
</a>
</g>
</g>
<!-- keyworker_session -->
<g id="node2" class="node">
<title>keyworker_session</title>
<g id="a_node2"><a xlink:href="../../tables/keyworker_session.html" xlink:title="keyworker_session" target="_top">
<polygon fill="#ffffff" stroke="transparent" points="58.5,-291 58.5,-557 304.5,-557 304.5,-291 58.5,-291"/>
<polygon fill="#f5f5f5" stroke="transparent" points="60.5,-532 60.5,-555 302.5,-555 302.5,-532 60.5,-532"/>
<polygon fill="none" stroke="#000000" points="60.5,-532 60.5,-555 302.5,-555 302.5,-532 60.5,-532"/>
<text text-anchor="start" x="65.5" y="-540.6" font-family="Helvetica,sans-Serif" font-weight="bold" font-size="11.00" fill="#000000">keyworker_session</text>
<text text-anchor="start" x="267.5437" y="-540.1" font-family="Helvetica,sans-Serif" font-size="11.00" fill="#000000">[table]</text>
<polygon fill="none" stroke="#000000" points="60.5,-510 60.5,-532 208.5,-532 208.5,-510 60.5,-510"/>
<image xlink:href="../../images/primaryKeys.png" width="11px" height="12px" preserveAspectRatio="xMinYMin meet" x="65.5" y="-527"/>
<text text-anchor="start" x="80.5" y="-517.1" font-family="Helvetica,sans-Serif" font-size="11.00" fill="#000000">id</text>
<polygon fill="none" stroke="#000000" points="208.5,-510 208.5,-532 302.5,-532 302.5,-510 208.5,-510"/>
<text text-anchor="start" x="211.4758" y="-517.7" font-family="Helvetica,sans-Serif" font-size="11.00" fill="#000000">uuid[2147483647]</text>
<polygon fill="#ffffff" stroke="transparent" points="60.5,-488 60.5,-510 208.5,-510 208.5,-488 60.5,-488"/>
<polygon fill="none" stroke="#000000" points="60.5,-488 60.5,-510 208.5,-510 208.5,-488 60.5,-488"/>
<text text-anchor="start" x="80.5" y="-495.1" font-family="Helvetica,sans-Serif" font-size="11.00" fill="#000000">occurred_at</text>
<polygon fill="none" stroke="#000000" points="208.5,-488 208.5,-510 302.5,-510 302.5,-488 208.5,-488"/>
<text text-anchor="start" x="211.5" y="-495.7" font-family="Helvetica,sans-Serif" font-size="11.00" fill="#000000">timestamp[29,6]</text>
<polygon fill="#ffffff" stroke="transparent" points="60.5,-466 60.5,-488 208.5,-488 208.5,-466 60.5,-466"/>
<polygon fill="none" stroke="#000000" points="60.5,-466 60.5,-488 208.5,-488 208.5,-466 60.5,-466"/>
<text text-anchor="start" x="80.5" y="-473.1" font-family="Helvetica,sans-Serif" font-size="11.00" fill="#000000">person_identifier</text>
<polygon fill="none" stroke="#000000" points="208.5,-466 208.5,-488 302.5,-488 302.5,-466 208.5,-466"/>
<text text-anchor="start" x="211.5" y="-473.7" font-family="Helvetica,sans-Serif" font-size="11.00" fill="#000000">varchar[7]</text>
<polygon fill="#ffffff" stroke="transparent" points="60.5,-444 60.5,-466 208.5,-466 208.5,-444 60.5,-444"/>
<polygon fill="none" stroke="#000000" points="60.5,-444 60.5,-466 208.5,-466 208.5,-444 60.5,-444"/>
<text text-anchor="start" x="80.5" y="-451.1" font-family="Helvetica,sans-Serif" font-size="11.00" fill="#000000">staff_id</text>
<polygon fill="none" stroke="#000000" points="208.5,-444 208.5,-466 302.5,-466 302.5,-444 208.5,-444"/>
<text text-anchor="start" x="211.5" y="-451.7" font-family="Helvetica,sans-Serif" font-size="11.00" fill="#000000">int8[19]</text>
<polygon fill="none" stroke="#000000" points="60.5,-422 60.5,-444 208.5,-444 208.5,-422 60.5,-422"/>
<text text-anchor="start" x="80.5" y="-429.1" font-family="Helvetica,sans-Serif" font-size="11.00" fill="#000000">staff_username</text>
<polygon fill="none" stroke="#000000" points="208.5,-422 208.5,-444 302.5,-444 302.5,-422 208.5,-422"/>
<text text-anchor="start" x="211.5" y="-429.7" font-family="Helvetica,sans-Serif" font-size="11.00" fill="#000000">varchar[64]</text>
<polygon fill="#ffffff" stroke="transparent" points="60.5,-400 60.5,-422 208.5,-422 208.5,-400 60.5,-400"/>
<polygon fill="none" stroke="#000000" points="60.5,-400 60.5,-422 208.5,-422 208.5,-400 60.5,-400"/>
<image xlink:href="../../images/foreignKeys.png" width="11px" height="12px" preserveAspectRatio="xMinYMin meet" x="65.5" y="-417"/>
<text text-anchor="start" x="80.5" y="-407.1" font-family="Helvetica,sans-Serif" font-size="11.00" fill="#000000">prison_code</text>
<polygon fill="none" stroke="#000000" points="208.5,-400 208.5,-422 302.5,-422 302.5,-400 208.5,-400"/>
<text text-anchor="start" x="211.5" y="-407.7" font-family="Helvetica,sans-Serif" font-size="11.00" fill="#000000">varchar[6]</text>
<polygon fill="none" stroke="#000000" points="60.5,-378 60.5,-400 208.5,-400 208.5,-378 60.5,-378"/>
<text text-anchor="start" x="80.5" y="-385.1" font-family="Helvetica,sans-Serif" font-size="11.00" fill="#000000">created_at</text>
<polygon fill="none" stroke="#000000" points="208.5,-378 208.5,-400 302.5,-400 302.5,-378 208.5,-378"/>
<text text-anchor="start" x="211.5" y="-385.7" font-family="Helvetica,sans-Serif" font-size="11.00" fill="#000000">timestamp[29,6]</text>
<polygon fill="none" stroke="#000000" points="60.5,-356 60.5,-378 208.5,-378 208.5,-356 60.5,-356"/>
<text text-anchor="start" x="80.5" y="-363.1" font-family="Helvetica,sans-Serif" font-size="11.00" fill="#000000">version</text>
<polygon fill="none" stroke="#000000" points="208.5,-356 208.5,-378 302.5,-378 302.5,-356 208.5,-356"/>
<text text-anchor="start" x="211.5" y="-363.7" font-family="Helvetica,sans-Serif" font-size="11.00" fill="#000000">int4[10]</text>
<polygon fill="none" stroke="#000000" points="60.5,-334 60.5,-356 208.5,-356 208.5,-334 60.5,-334"/>
<text text-anchor="start" x="80.5" y="-341.1" font-family="Helvetica,sans-Serif" font-size="11.00" fill="#000000">text_length</text>
<polygon fill="none" stroke="#000000" points="208.5,-334 208.5,-356 302.5,-356 302.5,-334 208.5,-334"/>
<text text-anchor="start" x="211.5" y="-341.7" font-family="Helvetica,sans-Serif" font-size="11.00" fill="#000000">int4[10]</text>
<polygon fill="none" stroke="#000000" points="60.5,-312 60.5,-334 208.5,-334 208.5,-312 60.5,-312"/>
<text text-anchor="start" x="80.5" y="-319.1" font-family="Helvetica,sans-Serif" font-size="11.00" fill="#000000">amendment_count</text>
<polygon fill="none" stroke="#000000" points="208.5,-312 208.5,-334 302.5,-334 302.5,-312 208.5,-312"/>
<text text-anchor="start" x="211.5" y="-319.7" font-family="Helvetica,sans-Serif" font-size="11.00" fill="#000000">int4[10]</text>
<polygon fill="#ffffff" stroke="transparent" points="60.5,-293 60.5,-312 138.5,-312 138.5,-293 60.5,-293"/>
<polygon fill="none" stroke="#000000" points="60.5,-293 60.5,-312 138.5,-312 138.5,-293 60.5,-293"/>
<text text-anchor="start" x="63.5" y="-299.1" font-family="Helvetica,sans-Serif" font-size="11.00" fill="#000000">&lt; 0</text>
<polygon fill="#ffffff" stroke="transparent" points="138.5,-293 138.5,-312 208.5,-312 208.5,-293 138.5,-293"/>
<polygon fill="none" stroke="#000000" points="138.5,-293 138.5,-312 208.5,-312 208.5,-293 138.5,-293"/>
<text text-anchor="start" x="199.3862" y="-299.1" font-family="Helvetica,sans-Serif" font-size="11.00" fill="#000000"> &#160;</text>
<polygon fill="#ffffff" stroke="transparent" points="208.5,-293 208.5,-312 302.5,-312 302.5,-293 208.5,-293"/>
<polygon fill="none" stroke="#000000" points="208.5,-293 208.5,-312 302.5,-312 302.5,-293 208.5,-293"/>
<text text-anchor="start" x="283.9053" y="-299.1" font-family="Helvetica,sans-Serif" font-size="11.00" fill="#000000">0 &gt;</text>
<polygon fill="none" stroke="#000000" stroke-width="2" points="59.5,-292 59.5,-556 303.5,-556 303.5,-292 59.5,-292"/>
</a>
</g>
</g>
<!-- keyworker_stats -->
<g id="node3" class="node">
<title>keyworker_stats</title>
<g id="a_node3"><a xlink:href="../../tables/keyworker_stats.html" xlink:title="keyworker_stats" target="_top">
<polygon fill="#ffffff" stroke="transparent" points="8,-578 8,-888 355,-888 355,-578 8,-578"/>
<polygon fill="#f5f5f5" stroke="transparent" points="10.5,-863 10.5,-886 353.5,-886 353.5,-863 10.5,-863"/>
<polygon fill="none" stroke="#000000" points="10.5,-863 10.5,-886 353.5,-886 353.5,-863 10.5,-863"/>
<text text-anchor="start" x="15.5" y="-871.6" font-family="Helvetica,sans-Serif" font-weight="bold" font-size="11.00" fill="#000000">keyworker_stats</text>
<text text-anchor="start" x="318.5437" y="-871.1" font-family="Helvetica,sans-Serif" font-size="11.00" fill="#000000">[table]</text>
<polygon fill="none" stroke="#000000" points="10.5,-841 10.5,-863 269.5,-863 269.5,-841 10.5,-841"/>
<image xlink:href="../../images/primaryKeys.png" width="11px" height="12px" preserveAspectRatio="xMinYMin meet" x="15.5" y="-858"/>
<text text-anchor="start" x="30.5" y="-848.1" font-family="Helvetica,sans-Serif" font-size="11.00" fill="#000000">keyworker_stats_id</text>
<polygon fill="none" stroke="#000000" points="269.5,-841 269.5,-863 353.5,-863 353.5,-841 269.5,-841"/>
<text text-anchor="start" x="272.5" y="-848.7" font-family="Helvetica,sans-Serif" font-size="11.00" fill="#000000">bigserial[19]</text>
<polygon fill="#ffffff" stroke="transparent" points="10.5,-819 10.5,-841 269.5,-841 269.5,-819 10.5,-819"/>
<polygon fill="none" stroke="#000000" points="10.5,-819 10.5,-841 269.5,-841 269.5,-819 10.5,-819"/>
<text text-anchor="start" x="30.5" y="-826.1" font-family="Helvetica,sans-Serif" font-size="11.00" fill="#000000">prison_id</text>
<polygon fill="none" stroke="#000000" points="269.5,-819 269.5,-841 353.5,-841 353.5,-819 269.5,-819"/>
<text text-anchor="start" x="272.5" y="-826.7" font-family="Helvetica,sans-Serif" font-size="11.00" fill="#000000">varchar[6]</text>
<polygon fill="#ffffff" stroke="transparent" points="10.5,-797 10.5,-819 269.5,-819 269.5,-797 10.5,-797"/>
<polygon fill="none" stroke="#000000" points="10.5,-797 10.5,-819 269.5,-819 269.5,-797 10.5,-797"/>
<text text-anchor="start" x="30.5" y="-804.1" font-family="Helvetica,sans-Serif" font-size="11.00" fill="#000000">snapshot_date</text>
<polygon fill="none" stroke="#000000" points="269.5,-797 269.5,-819 353.5,-819 353.5,-797 269.5,-797"/>
<text text-anchor="start" x="272.3807" y="-804.7" font-family="Helvetica,sans-Serif" font-size="11.00" fill="#000000">timestamp[29,6]</text>
<polygon fill="none" stroke="#000000" points="10.5,-775 10.5,-797 269.5,-797 269.5,-775 10.5,-775"/>
<text text-anchor="start" x="30.5" y="-782.1" font-family="Helvetica,sans-Serif" font-size="11.00" fill="#000000">num_prisoners_assigned_kw</text>
<polygon fill="none" stroke="#000000" points="269.5,-775 269.5,-797 353.5,-797 353.5,-775 269.5,-775"/>
<text text-anchor="start" x="272.5" y="-782.7" font-family="Helvetica,sans-Serif" font-size="11.00" fill="#000000">int4[10]</text>
<polygon fill="none" stroke="#000000" points="10.5,-753 10.5,-775 269.5,-775 269.5,-753 10.5,-753"/>
<text text-anchor="start" x="30.5" y="-760.1" font-family="Helvetica,sans-Serif" font-size="11.00" fill="#000000">total_num_prisoners</text>
<polygon fill="none" stroke="#000000" points="269.5,-753 269.5,-775 353.5,-775 353.5,-753 269.5,-753"/>
<text text-anchor="start" x="272.5" y="-760.7" font-family="Helvetica,sans-Serif" font-size="11.00" fill="#000000">int4[10]</text>
<polygon fill="none" stroke="#000000" points="10.5,-731 10.5,-753 269.5,-753 269.5,-731 10.5,-731"/>
<text text-anchor="start" x="30.5" y="-738.1" font-family="Helvetica,sans-Serif" font-size="11.00" fill="#000000">num_kw_sessions</text>
<polygon fill="none" stroke="#000000" points="269.5,-731 269.5,-753 353.5,-753 353.5,-731 269.5,-731"/>
<text text-anchor="start" x="272.5" y="-738.7" font-family="Helvetica,sans-Serif" font-size="11.00" fill="#000000">int4[10]</text>
<polygon fill="none" stroke="#000000" points="10.5,-709 10.5,-731 269.5,-731 269.5,-709 10.5,-709"/>
<text text-anchor="start" x="30.5" y="-716.1" font-family="Helvetica,sans-Serif" font-size="11.00" fill="#000000">num_kw_entries</text>
<polygon fill="none" stroke="#000000" points="269.5,-709 269.5,-731 353.5,-731 353.5,-709 269.5,-709"/>
<text text-anchor="start" x="272.5" y="-716.7" font-family="Helvetica,sans-Serif" font-size="11.00" fill="#000000">int4[10]</text>
<polygon fill="none" stroke="#000000" points="10.5,-687 10.5,-709 269.5,-709 269.5,-687 10.5,-687"/>
<text text-anchor="start" x="30.5" y="-694.1" font-family="Helvetica,sans-Serif" font-size="11.00" fill="#000000">num_active_keyworkers</text>
<polygon fill="none" stroke="#000000" points="269.5,-687 269.5,-709 353.5,-709 353.5,-687 269.5,-687"/>
<text text-anchor="start" x="272.5" y="-694.7" font-family="Helvetica,sans-Serif" font-size="11.00" fill="#000000">int4[10]</text>
<polygon fill="none" stroke="#000000" points="10.5,-665 10.5,-687 269.5,-687 269.5,-665 10.5,-665"/>
<text text-anchor="start" x="30.5" y="-672.1" font-family="Helvetica,sans-Serif" font-size="11.00" fill="#000000">recpt_to_alloc_days</text>
<polygon fill="none" stroke="#000000" points="269.5,-665 269.5,-687 353.5,-687 353.5,-665 269.5,-665"/>
<text text-anchor="start" x="272.5" y="-672.7" font-family="Helvetica,sans-Serif" font-size="11.00" fill="#000000">int4[10]</text>
<polygon fill="none" stroke="#000000" points="10.5,-643 10.5,-665 269.5,-665 269.5,-643 10.5,-643"/>
<text text-anchor="start" x="30.5" y="-650.1" font-family="Helvetica,sans-Serif" font-size="11.00" fill="#000000">recpt_to_kw_session_days</text>
<polygon fill="none" stroke="#000000" points="269.5,-643 269.5,-665 353.5,-665 353.5,-643 269.5,-643"/>
<text text-anchor="start" x="272.5" y="-650.7" font-family="Helvetica,sans-Serif" font-size="11.00" fill="#000000">int4[10]</text>
<polygon fill="none" stroke="#000000" points="10.5,-621 10.5,-643 269.5,-643 269.5,-621 10.5,-621"/>
<text text-anchor="start" x="30.5" y="-628.1" font-family="Helvetica,sans-Serif" font-size="11.00" fill="#000000">total_num_eligible_prisoners</text>
<polygon fill="none" stroke="#000000" points="269.5,-621 269.5,-643 353.5,-643 353.5,-621 269.5,-621"/>
<text text-anchor="start" x="272.5" y="-628.7" font-family="Helvetica,sans-Serif" font-size="11.00" fill="#000000">int4[10]</text>
<polygon fill="none" stroke="#000000" points="10.5,-599 10.5,-621 269.5,-621 269.5,-599 10.5,-599"/>
<text text-anchor="start" x="30.5" y="-606.1" font-family="Helvetica,sans-Serif" font-size="11.00" fill="#000000">high_complexity_of_need_prisoners</text>
<polygon fill="none" stroke="#000000" points="269.5,-599 269.5,-621 353.5,-621 353.5,-599 269.5,-599"/>
<text text-anchor="start" x="272.5" y="-606.7" font-family="Helvetica,sans-Serif" font-size="11.00" fill="#000000">int4[10]</text>
<polygon fill="#ffffff" stroke="transparent" points="10.5,-580 10.5,-599 144.5,-599 144.5,-580 10.5,-580"/>
<polygon fill="none" stroke="#000000" points="10.5,-580 10.5,-599 144.5,-599 144.5,-580 10.5,-580"/>
<text text-anchor="start" x="13.5" y="-586.1" font-family="Helvetica,sans-Serif" font-size="11.00" fill="#000000">&lt; 0</text>
<polygon fill="#ffffff" stroke="transparent" points="144.5,-580 144.5,-599 269.5,-599 269.5,-580 144.5,-580"/>
<polygon fill="none" stroke="#000000" points="144.5,-580 144.5,-599 269.5,-599 269.5,-580 144.5,-580"/>
<text text-anchor="start" x="260.3862" y="-586.1" font-family="Helvetica,sans-Serif" font-size="11.00" fill="#000000"> &#160;</text>
<polygon fill="#ffffff" stroke="transparent" points="269.5,-580 269.5,-599 353.5,-599 353.5,-580 269.5,-580"/>
<polygon fill="none" stroke="#000000" points="269.5,-580 269.5,-599 353.5,-599 353.5,-580 269.5,-580"/>
<text text-anchor="start" x="334.9053" y="-586.1" font-family="Helvetica,sans-Serif" font-size="11.00" fill="#000000">0 &gt;</text>
<polygon fill="none" stroke="#000000" stroke-width="2" points="9,-579 9,-887 354,-887 354,-579 9,-579"/>
</a>
</g>
</g>
<!-- prison_migration_date_history -->
<g id="node4" class="node">
<title>prison_migration_date_history</title>
<g id="a_node4"><a xlink:href="../../tables/prison_migration_date_history.html" xlink:title="prison_migration_date_history" target="_top">
<polygon fill="#ffffff" stroke="transparent" points="25,-909 25,-999 338,-999 338,-909 25,-909"/>
<polygon fill="#f5f5f5" stroke="transparent" points="27.5,-974 27.5,-997 336.5,-997 336.5,-974 27.5,-974"/>
<polygon fill="none" stroke="#000000" points="27.5,-974 27.5,-997 336.5,-997 336.5,-974 27.5,-974"/>
<text text-anchor="start" x="32.5" y="-982.6" font-family="Helvetica,sans-Serif" font-weight="bold" font-size="11.00" fill="#000000">prison_migration_date_history</text>
<text text-anchor="start" x="301.5437" y="-982.1" font-family="Helvetica,sans-Serif" font-size="11.00" fill="#000000">[table]</text>
<polygon fill="none" stroke="#000000" points="27.5,-952 27.5,-974 252.5,-974 252.5,-952 27.5,-952"/>
<image xlink:href="../../images/primaryKeys.png" width="11px" height="12px" preserveAspectRatio="xMinYMin meet" x="32.5" y="-969"/>
<text text-anchor="start" x="47.5" y="-959.1" font-family="Helvetica,sans-Serif" font-size="11.00" fill="#000000">prison_code</text>
<polygon fill="none" stroke="#000000" points="252.5,-952 252.5,-974 336.5,-974 336.5,-952 252.5,-952"/>
<text text-anchor="start" x="255.5" y="-959.7" font-family="Helvetica,sans-Serif" font-size="11.00" fill="#000000">varchar[6]</text>
<polygon fill="none" stroke="#000000" points="27.5,-930 27.5,-952 252.5,-952 252.5,-930 27.5,-930"/>
<text text-anchor="start" x="47.5" y="-937.1" font-family="Helvetica,sans-Serif" font-size="11.00" fill="#000000">migration_date</text>
<polygon fill="none" stroke="#000000" points="252.5,-930 252.5,-952 336.5,-952 336.5,-930 252.5,-930"/>
<text text-anchor="start" x="255.3807" y="-937.7" font-family="Helvetica,sans-Serif" font-size="11.00" fill="#000000">timestamp[29,6]</text>
<polygon fill="#ffffff" stroke="transparent" points="27.5,-911 27.5,-930 144.5,-930 144.5,-911 27.5,-911"/>
<polygon fill="none" stroke="#000000" points="27.5,-911 27.5,-930 144.5,-930 144.5,-911 27.5,-911"/>
<text text-anchor="start" x="30.5" y="-917.1" font-family="Helvetica,sans-Serif" font-size="11.00" fill="#000000">&lt; 0</text>
<polygon fill="#ffffff" stroke="transparent" points="144.5,-911 144.5,-930 252.5,-930 252.5,-911 144.5,-911"/>
<polygon fill="none" stroke="#000000" points="144.5,-911 144.5,-930 252.5,-930 252.5,-911 144.5,-911"/>
<text text-anchor="start" x="243.3862" y="-917.1" font-family="Helvetica,sans-Serif" font-size="11.00" fill="#000000"> &#160;</text>
<polygon fill="#ffffff" stroke="transparent" points="252.5,-911 252.5,-930 336.5,-930 336.5,-911 252.5,-911"/>
<polygon fill="none" stroke="#000000" points="252.5,-911 252.5,-930 336.5,-930 336.5,-911 252.5,-911"/>
<text text-anchor="start" x="317.9053" y="-917.1" font-family="Helvetica,sans-Serif" font-size="11.00" fill="#000000">0 &gt;</text>
<polygon fill="none" stroke="#000000" stroke-width="2" points="26,-910 26,-998 337,-998 337,-910 26,-910"/>
</a>
</g>
</g>
<!-- staff_role -->
<g id="node5" class="node">
<title>staff_role</title>
<g id="a_node5"><a xlink:href="../../tables/staff_role.html" xlink:title="staff_role" target="_top">
<polygon fill="#ffffff" stroke="transparent" points="64.5,-1020 64.5,-1264 298.5,-1264 298.5,-1020 64.5,-1020"/>
<polygon fill="#f5f5f5" stroke="transparent" points="66.5,-1239 66.5,-1262 296.5,-1262 296.5,-1239 66.5,-1239"/>
<polygon fill="none" stroke="#000000" points="66.5,-1239 66.5,-1262 296.5,-1262 296.5,-1239 66.5,-1239"/>
<text text-anchor="start" x="71.5" y="-1247.6" font-family="Helvetica,sans-Serif" font-weight="bold" font-size="11.00" fill="#000000">staff_role</text>
<text text-anchor="start" x="261.5437" y="-1247.1" font-family="Helvetica,sans-Serif" font-size="11.00" fill="#000000">[table]</text>
<polygon fill="none" stroke="#000000" points="66.5,-1217 66.5,-1239 202.5,-1239 202.5,-1217 66.5,-1217"/>
<image xlink:href="../../images/primaryKeys.png" width="11px" height="12px" preserveAspectRatio="xMinYMin meet" x="71.5" y="-1234"/>
<text text-anchor="start" x="86.5" y="-1224.1" font-family="Helvetica,sans-Serif" font-size="11.00" fill="#000000">id</text>
<polygon fill="none" stroke="#000000" points="202.5,-1217 202.5,-1239 296.5,-1239 296.5,-1217 202.5,-1217"/>
<text text-anchor="start" x="205.4758" y="-1224.7" font-family="Helvetica,sans-Serif" font-size="11.00" fill="#000000">uuid[2147483647]</text>
<polygon fill="#ffffff" stroke="transparent" points="66.5,-1195 66.5,-1217 202.5,-1217 202.5,-1195 66.5,-1195"/>
<polygon fill="none" stroke="#000000" points="66.5,-1195 66.5,-1217 202.5,-1217 202.5,-1195 66.5,-1195"/>
<image xlink:href="../../images/foreignKeys.png" width="11px" height="12px" preserveAspectRatio="xMinYMin meet" x="71.5" y="-1212"/>
<text text-anchor="start" x="86.5" y="-1202.1" font-family="Helvetica,sans-Serif" font-size="11.00" fill="#000000">policy_code</text>
<polygon fill="none" stroke="#000000" points="202.5,-1195 202.5,-1217 296.5,-1217 296.5,-1195 202.5,-1195"/>
<text text-anchor="start" x="205.5" y="-1202.7" font-family="Helvetica,sans-Serif" font-size="11.00" fill="#000000">varchar[16]</text>
<polygon fill="#ffffff" stroke="transparent" points="66.5,-1173 66.5,-1195 202.5,-1195 202.5,-1173 66.5,-1173"/>
<polygon fill="none" stroke="#000000" points="66.5,-1173 66.5,-1195 202.5,-1195 202.5,-1173 66.5,-1173"/>
<image xlink:href="../../images/foreignKeys.png" width="11px" height="12px" preserveAspectRatio="xMinYMin meet" x="71.5" y="-1190"/>
<text text-anchor="start" x="86.5" y="-1180.1" font-family="Helvetica,sans-Serif" font-size="11.00" fill="#000000">prison_code</text>
<polygon fill="none" stroke="#000000" points="202.5,-1173 202.5,-1195 296.5,-1195 296.5,-1173 202.5,-1173"/>
<text text-anchor="start" x="205.5" y="-1180.7" font-family="Helvetica,sans-Serif" font-size="11.00" fill="#000000">varchar[6]</text>
<polygon fill="#ffffff" stroke="transparent" points="66.5,-1151 66.5,-1173 202.5,-1173 202.5,-1151 66.5,-1151"/>
<polygon fill="none" stroke="#000000" points="66.5,-1151 66.5,-1173 202.5,-1173 202.5,-1151 66.5,-1151"/>
<text text-anchor="start" x="86.5" y="-1158.1" font-family="Helvetica,sans-Serif" font-size="11.00" fill="#000000">staff_id</text>
<polygon fill="none" stroke="#000000" points="202.5,-1151 202.5,-1173 296.5,-1173 296.5,-1151 202.5,-1151"/>
<text text-anchor="start" x="205.5" y="-1158.7" font-family="Helvetica,sans-Serif" font-size="11.00" fill="#000000">int8[19]</text>
<polygon fill="none" stroke="#000000" points="66.5,-1129 66.5,-1151 202.5,-1151 202.5,-1129 66.5,-1129"/>
<text text-anchor="start" x="86.5" y="-1136.1" font-family="Helvetica,sans-Serif" font-size="11.00" fill="#000000">position_id</text>
<polygon fill="none" stroke="#000000" points="202.5,-1129 202.5,-1151 296.5,-1151 296.5,-1129 202.5,-1129"/>
<text text-anchor="start" x="205.5" y="-1136.7" font-family="Helvetica,sans-Serif" font-size="11.00" fill="#000000">int8[19]</text>
<polygon fill="none" stroke="#000000" points="66.5,-1107 66.5,-1129 202.5,-1129 202.5,-1107 66.5,-1107"/>
<text text-anchor="start" x="86.5" y="-1114.1" font-family="Helvetica,sans-Serif" font-size="11.00" fill="#000000">schedule_type_id</text>
<polygon fill="none" stroke="#000000" points="202.5,-1107 202.5,-1129 296.5,-1129 296.5,-1107 202.5,-1107"/>
<text text-anchor="start" x="205.5" y="-1114.7" font-family="Helvetica,sans-Serif" font-size="11.00" fill="#000000">int8[19]</text>
<polygon fill="none" stroke="#000000" points="66.5,-1085 66.5,-1107 202.5,-1107 202.5,-1085 66.5,-1085"/>
<text text-anchor="start" x="86.5" y="-1092.1" font-family="Helvetica,sans-Serif" font-size="11.00" fill="#000000">hours_per_week</text>
<polygon fill="none" stroke="#000000" points="202.5,-1085 202.5,-1107 296.5,-1107 296.5,-1085 202.5,-1085"/>
<text text-anchor="start" x="205.5" y="-1092.7" font-family="Helvetica,sans-Serif" font-size="11.00" fill="#000000">numeric[0]</text>
<polygon fill="none" stroke="#000000" points="66.5,-1063 66.5,-1085 202.5,-1085 202.5,-1063 66.5,-1063"/>
<text text-anchor="start" x="86.5" y="-1070.1" font-family="Helvetica,sans-Serif" font-size="11.00" fill="#000000">from_date</text>
<polygon fill="none" stroke="#000000" points="202.5,-1063 202.5,-1085 296.5,-1085 296.5,-1063 202.5,-1063"/>
<text text-anchor="start" x="205.5" y="-1070.7" font-family="Helvetica,sans-Serif" font-size="11.00" fill="#000000">date[13]</text>
<polygon fill="none" stroke="#000000" points="66.5,-1041 66.5,-1063 202.5,-1063 202.5,-1041 66.5,-1041"/>
<text text-anchor="start" x="86.5" y="-1048.1" font-family="Helvetica,sans-Serif" font-size="11.00" fill="#000000">to_date</text>
<polygon fill="none" stroke="#000000" points="202.5,-1041 202.5,-1063 296.5,-1063 296.5,-1041 202.5,-1041"/>
<text text-anchor="start" x="205.5" y="-1048.7" font-family="Helvetica,sans-Serif" font-size="11.00" fill="#000000">date[13]</text>
<polygon fill="#ffffff" stroke="transparent" points="66.5,-1022 66.5,-1041 138.5,-1041 138.5,-1022 66.5,-1022"/>
<polygon fill="none" stroke="#000000" points="66.5,-1022 66.5,-1041 138.5,-1041 138.5,-1022 66.5,-1022"/>
<text text-anchor="start" x="69.5" y="-1028.1" font-family="Helvetica,sans-Serif" font-size="11.00" fill="#000000">&lt; 0</text>
<polygon fill="#ffffff" stroke="transparent" points="138.5,-1022 138.5,-1041 202.5,-1041 202.5,-1022 138.5,-1022"/>
<polygon fill="none" stroke="#000000" points="138.5,-1022 138.5,-1041 202.5,-1041 202.5,-1022 138.5,-1022"/>
<text text-anchor="start" x="193.3862" y="-1028.1" font-family="Helvetica,sans-Serif" font-size="11.00" fill="#000000"> &#160;</text>
<polygon fill="#ffffff" stroke="transparent" points="202.5,-1022 202.5,-1041 296.5,-1041 296.5,-1022 202.5,-1022"/>
<polygon fill="none" stroke="#000000" points="202.5,-1022 202.5,-1041 296.5,-1041 296.5,-1022 202.5,-1022"/>
<text text-anchor="start" x="277.9053" y="-1028.1" font-family="Helvetica,sans-Serif" font-size="11.00" fill="#000000">0 &gt;</text>
<polygon fill="none" stroke="#000000" stroke-width="2" points="65.5,-1021 65.5,-1263 297.5,-1263 297.5,-1021 65.5,-1021"/>
</a>
</g>
</g>
</g>
</svg>
