<?xml version="1.0" encoding="UTF-8" standalone="no"?>
<!DOCTYPE svg PUBLIC "-//W3C//DTD SVG 1.1//EN"
 "http://www.w3.org/Graphics/SVG/1.1/DTD/svg11.dtd">
<!-- Generated by graphviz version 2.40.1 (20161225.0304)
 -->
<!-- Title: orphans Pages: 1 -->
<svg width="337pt" height="636pt"
 viewBox="0.00 0.00 337.00 636.00" xmlns="http://www.w3.org/2000/svg" xmlns:xlink="http://www.w3.org/1999/xlink">
<g id="graph0" class="graph" transform="scale(1 1) rotate(0) translate(4 632)">
<title>orphans</title>
<polygon fill="#ffffff" stroke="transparent" points="-4,4 -4,-632 333,-632 333,4 -4,4"/>
<!-- allocation_case_note -->
<g id="node1" class="node">
<title>allocation_case_note</title>
<g id="a_node1"><a xlink:href="../../tables/allocation_case_note.html" xlink:title="allocation_case_note" target="_top">
<polygon fill="#ffffff" stroke="transparent" points="35.5,-4 35.5,-248 293.5,-248 293.5,-4 35.5,-4"/>
<polygon fill="#f5f5f5" stroke="transparent" points="37.5,-223 37.5,-246 291.5,-246 291.5,-223 37.5,-223"/>
<polygon fill="none" stroke="#000000" points="37.5,-223 37.5,-246 291.5,-246 291.5,-223 37.5,-223"/>
<text text-anchor="start" x="42.5" y="-231.6" font-family="Helvetica,sans-Serif" font-weight="bold" font-size="11.00" fill="#000000">allocation_case_note</text>
<text text-anchor="start" x="256.5437" y="-231.1" font-family="Helvetica,sans-Serif" font-size="11.00" fill="#000000">[table]</text>
<polygon fill="none" stroke="#000000" points="37.5,-201 37.5,-223 197.5,-223 197.5,-201 37.5,-201"/>
<image xlink:href="../../images/primaryKeys.png" width="11px" height="12px" preserveAspectRatio="xMinYMin meet" x="42.5" y="-218"/>
<text text-anchor="start" x="57.5" y="-208.1" font-family="Helvetica,sans-Serif" font-size="11.00" fill="#000000">id</text>
<polygon fill="none" stroke="#000000" points="197.5,-201 197.5,-223 291.5,-223 291.5,-201 197.5,-201"/>
<text text-anchor="start" x="200.4758" y="-208.7" font-family="Helvetica,sans-Serif" font-size="11.00" fill="#000000">uuid[2147483647]</text>
<polygon fill="#ffffff" stroke="transparent" points="37.5,-179 37.5,-201 197.5,-201 197.5,-179 37.5,-179"/>
<polygon fill="none" stroke="#000000" points="37.5,-179 37.5,-201 197.5,-201 197.5,-179 37.5,-179"/>
<image xlink:href="../../images/foreignKeys.png" width="11px" height="12px" preserveAspectRatio="xMinYMin meet" x="42.5" y="-196"/>
<text text-anchor="start" x="57.5" y="-186.1" font-family="Helvetica,sans-Serif" font-size="11.00" fill="#000000">prison_code</text>
<polygon fill="none" stroke="#000000" points="197.5,-179 197.5,-201 291.5,-201 291.5,-179 197.5,-179"/>
<text text-anchor="start" x="200.5" y="-186.7" font-family="Helvetica,sans-Serif" font-size="11.00" fill="#000000">varchar[6]</text>
<polygon fill="#ffffff" stroke="transparent" points="37.5,-157 37.5,-179 197.5,-179 197.5,-157 37.5,-157"/>
<polygon fill="none" stroke="#000000" points="37.5,-157 37.5,-179 197.5,-179 197.5,-157 37.5,-157"/>
<text text-anchor="start" x="57.5" y="-164.1" font-family="Helvetica,sans-Serif" font-size="11.00" fill="#000000">person_identifier</text>
<polygon fill="none" stroke="#000000" points="197.5,-157 197.5,-179 291.5,-179 291.5,-157 197.5,-157"/>
<text text-anchor="start" x="200.5" y="-164.7" font-family="Helvetica,sans-Serif" font-size="11.00" fill="#000000">varchar[7]</text>
<polygon fill="#ffffff" stroke="transparent" points="37.5,-135 37.5,-157 197.5,-157 197.5,-135 37.5,-135"/>
<polygon fill="none" stroke="#000000" points="37.5,-135 37.5,-157 197.5,-157 197.5,-135 37.5,-135"/>
<text text-anchor="start" x="57.5" y="-142.1" font-family="Helvetica,sans-Serif" font-size="11.00" fill="#000000">staff_id</text>
<polygon fill="none" stroke="#000000" points="197.5,-135 197.5,-157 291.5,-157 291.5,-135 197.5,-135"/>
<text text-anchor="start" x="200.5" y="-142.7" font-family="Helvetica,sans-Serif" font-size="11.00" fill="#000000">int8[19]</text>
<polygon fill="none" stroke="#000000" points="37.5,-113 37.5,-135 197.5,-135 197.5,-113 37.5,-113"/>
<text text-anchor="start" x="57.5" y="-120.1" font-family="Helvetica,sans-Serif" font-size="11.00" fill="#000000">username</text>
<polygon fill="none" stroke="#000000" points="197.5,-113 197.5,-135 291.5,-135 291.5,-113 197.5,-113"/>
<text text-anchor="start" x="200.5" y="-120.7" font-family="Helvetica,sans-Serif" font-size="11.00" fill="#000000">varchar[64]</text>
<polygon fill="#ffffff" stroke="transparent" points="37.5,-91 37.5,-113 197.5,-113 197.5,-91 37.5,-91"/>
<polygon fill="none" stroke="#000000" points="37.5,-91 37.5,-113 197.5,-113 197.5,-91 37.5,-91"/>
<text text-anchor="start" x="57.5" y="-98.1" font-family="Helvetica,sans-Serif" font-size="11.00" fill="#000000">type</text>
<polygon fill="none" stroke="#000000" points="197.5,-91 197.5,-113 291.5,-113 291.5,-91 197.5,-91"/>
<text text-anchor="start" x="200.5" y="-98.7" font-family="Helvetica,sans-Serif" font-size="11.00" fill="#000000">varchar[12]</text>
<polygon fill="#ffffff" stroke="transparent" points="37.5,-69 37.5,-91 197.5,-91 197.5,-69 37.5,-69"/>
<polygon fill="none" stroke="#000000" points="37.5,-69 37.5,-91 197.5,-91 197.5,-69 37.5,-69"/>
<text text-anchor="start" x="57.5" y="-76.1" font-family="Helvetica,sans-Serif" font-size="11.00" fill="#000000">sub_type</text>
<polygon fill="none" stroke="#000000" points="197.5,-69 197.5,-91 291.5,-91 291.5,-69 197.5,-69"/>
<text text-anchor="start" x="200.5" y="-76.7" font-family="Helvetica,sans-Serif" font-size="11.00" fill="#000000">varchar[12]</text>
<polygon fill="#ffffff" stroke="transparent" points="37.5,-47 37.5,-69 197.5,-69 197.5,-47 37.5,-47"/>
<polygon fill="none" stroke="#000000" points="37.5,-47 37.5,-69 197.5,-69 197.5,-47 37.5,-47"/>
<text text-anchor="start" x="57.5" y="-54.1" font-family="Helvetica,sans-Serif" font-size="11.00" fill="#000000">occurred_at</text>
<polygon fill="none" stroke="#000000" points="197.5,-47 197.5,-69 291.5,-69 291.5,-47 197.5,-47"/>
<text text-anchor="start" x="200.5" y="-54.7" font-family="Helvetica,sans-Serif" font-size="11.00" fill="#000000">timestamp[29,6]</text>
<polygon fill="none" stroke="#000000" points="37.5,-25 37.5,-47 197.5,-47 197.5,-25 37.5,-25"/>
<text text-anchor="start" x="57.5" y="-32.1" font-family="Helvetica,sans-Serif" font-size="11.00" fill="#000000">version</text>
<polygon fill="none" stroke="#000000" points="197.5,-25 197.5,-47 291.5,-47 291.5,-25 197.5,-25"/>
<text text-anchor="start" x="200.5" y="-32.7" font-family="Helvetica,sans-Serif" font-size="11.00" fill="#000000">int4[10]</text>
<polygon fill="#ffffff" stroke="transparent" points="37.5,-6 37.5,-25 121.5,-25 121.5,-6 37.5,-6"/>
<polygon fill="none" stroke="#000000" points="37.5,-6 37.5,-25 121.5,-25 121.5,-6 37.5,-6"/>
<text text-anchor="start" x="40.5" y="-12.1" font-family="Helvetica,sans-Serif" font-size="11.00" fill="#000000">&lt; 0</text>
<polygon fill="#ffffff" stroke="transparent" points="121.5,-6 121.5,-25 197.5,-25 197.5,-6 121.5,-6"/>
<polygon fill="none" stroke="#000000" points="121.5,-6 121.5,-25 197.5,-25 197.5,-6 121.5,-6"/>
<text text-anchor="start" x="188.3862" y="-12.1" font-family="Helvetica,sans-Serif" font-size="11.00" fill="#000000"> &#160;</text>
<polygon fill="#ffffff" stroke="transparent" points="197.5,-6 197.5,-25 291.5,-25 291.5,-6 197.5,-6"/>
<polygon fill="none" stroke="#000000" points="197.5,-6 197.5,-25 291.5,-25 291.5,-6 197.5,-6"/>
<text text-anchor="start" x="272.9053" y="-12.1" font-family="Helvetica,sans-Serif" font-size="11.00" fill="#000000">0 &gt;</text>
<polygon fill="none" stroke="#000000" stroke-width="2" points="36.5,-5 36.5,-247 292.5,-247 292.5,-5 36.5,-5"/>
</a>
</g>
</g>
<!-- prison_migration_date_history -->
<g id="node2" class="node">
<title>prison_migration_date_history</title>
<g id="a_node2"><a xlink:href="../../tables/prison_migration_date_history.html" xlink:title="prison_migration_date_history" target="_top">
<polygon fill="#ffffff" stroke="transparent" points="8,-269 8,-359 321,-359 321,-269 8,-269"/>
<polygon fill="#f5f5f5" stroke="transparent" points="10.5,-334 10.5,-357 319.5,-357 319.5,-334 10.5,-334"/>
<polygon fill="none" stroke="#000000" points="10.5,-334 10.5,-357 319.5,-357 319.5,-334 10.5,-334"/>
<text text-anchor="start" x="15.5" y="-342.6" font-family="Helvetica,sans-Serif" font-weight="bold" font-size="11.00" fill="#000000">prison_migration_date_history</text>
<text text-anchor="start" x="284.5437" y="-342.1" font-family="Helvetica,sans-Serif" font-size="11.00" fill="#000000">[table]</text>
<polygon fill="none" stroke="#000000" points="10.5,-312 10.5,-334 235.5,-334 235.5,-312 10.5,-312"/>
<image xlink:href="../../images/primaryKeys.png" width="11px" height="12px" preserveAspectRatio="xMinYMin meet" x="15.5" y="-329"/>
<text text-anchor="start" x="30.5" y="-319.1" font-family="Helvetica,sans-Serif" font-size="11.00" fill="#000000">prison_code</text>
<polygon fill="none" stroke="#000000" points="235.5,-312 235.5,-334 319.5,-334 319.5,-312 235.5,-312"/>
<text text-anchor="start" x="238.5" y="-319.7" font-family="Helvetica,sans-Serif" font-size="11.00" fill="#000000">varchar[6]</text>
<polygon fill="none" stroke="#000000" points="10.5,-290 10.5,-312 235.5,-312 235.5,-290 10.5,-290"/>
<text text-anchor="start" x="30.5" y="-297.1" font-family="Helvetica,sans-Serif" font-size="11.00" fill="#000000">migration_date</text>
<polygon fill="none" stroke="#000000" points="235.5,-290 235.5,-312 319.5,-312 319.5,-290 235.5,-290"/>
<text text-anchor="start" x="238.3807" y="-297.7" font-family="Helvetica,sans-Serif" font-size="11.00" fill="#000000">timestamp[29,6]</text>
<polygon fill="#ffffff" stroke="transparent" points="10.5,-271 10.5,-290 127.5,-290 127.5,-271 10.5,-271"/>
<polygon fill="none" stroke="#000000" points="10.5,-271 10.5,-290 127.5,-290 127.5,-271 10.5,-271"/>
<text text-anchor="start" x="13.5" y="-277.1" font-family="Helvetica,sans-Serif" font-size="11.00" fill="#000000">&lt; 0</text>
<polygon fill="#ffffff" stroke="transparent" points="127.5,-271 127.5,-290 235.5,-290 235.5,-271 127.5,-271"/>
<polygon fill="none" stroke="#000000" points="127.5,-271 127.5,-290 235.5,-290 235.5,-271 127.5,-271"/>
<text text-anchor="start" x="226.3862" y="-277.1" font-family="Helvetica,sans-Serif" font-size="11.00" fill="#000000"> &#160;</text>
<polygon fill="#ffffff" stroke="transparent" points="235.5,-271 235.5,-290 319.5,-290 319.5,-271 235.5,-271"/>
<polygon fill="none" stroke="#000000" points="235.5,-271 235.5,-290 319.5,-290 319.5,-271 235.5,-271"/>
<text text-anchor="start" x="300.9053" y="-277.1" font-family="Helvetica,sans-Serif" font-size="11.00" fill="#000000">0 &gt;</text>
<polygon fill="none" stroke="#000000" stroke-width="2" points="9,-270 9,-358 320,-358 320,-270 9,-270"/>
</a>
</g>
</g>
<!-- staff_role -->
<g id="node3" class="node">
<title>staff_role</title>
<g id="a_node3"><a xlink:href="../../tables/staff_role.html" xlink:title="staff_role" target="_top">
<polygon fill="#ffffff" stroke="transparent" points="47.5,-380 47.5,-624 281.5,-624 281.5,-380 47.5,-380"/>
<polygon fill="#f5f5f5" stroke="transparent" points="49.5,-599 49.5,-622 279.5,-622 279.5,-599 49.5,-599"/>
<polygon fill="none" stroke="#000000" points="49.5,-599 49.5,-622 279.5,-622 279.5,-599 49.5,-599"/>
<text text-anchor="start" x="54.5" y="-607.6" font-family="Helvetica,sans-Serif" font-weight="bold" font-size="11.00" fill="#000000">staff_role</text>
<text text-anchor="start" x="244.5437" y="-607.1" font-family="Helvetica,sans-Serif" font-size="11.00" fill="#000000">[table]</text>
<polygon fill="none" stroke="#000000" points="49.5,-577 49.5,-599 185.5,-599 185.5,-577 49.5,-577"/>
<image xlink:href="../../images/primaryKeys.png" width="11px" height="12px" preserveAspectRatio="xMinYMin meet" x="54.5" y="-594"/>
<text text-anchor="start" x="69.5" y="-584.1" font-family="Helvetica,sans-Serif" font-size="11.00" fill="#000000">id</text>
<polygon fill="none" stroke="#000000" points="185.5,-577 185.5,-599 279.5,-599 279.5,-577 185.5,-577"/>
<text text-anchor="start" x="188.4758" y="-584.7" font-family="Helvetica,sans-Serif" font-size="11.00" fill="#000000">uuid[2147483647]</text>
<polygon fill="#ffffff" stroke="transparent" points="49.5,-555 49.5,-577 185.5,-577 185.5,-555 49.5,-555"/>
<polygon fill="none" stroke="#000000" points="49.5,-555 49.5,-577 185.5,-577 185.5,-555 49.5,-555"/>
<image xlink:href="../../images/foreignKeys.png" width="11px" height="12px" preserveAspectRatio="xMinYMin meet" x="54.5" y="-572"/>
<text text-anchor="start" x="69.5" y="-562.1" font-family="Helvetica,sans-Serif" font-size="11.00" fill="#000000">policy_code</text>
<polygon fill="none" stroke="#000000" points="185.5,-555 185.5,-577 279.5,-577 279.5,-555 185.5,-555"/>
<text text-anchor="start" x="188.5" y="-562.7" font-family="Helvetica,sans-Serif" font-size="11.00" fill="#000000">varchar[16]</text>
<polygon fill="#ffffff" stroke="transparent" points="49.5,-533 49.5,-555 185.5,-555 185.5,-533 49.5,-533"/>
<polygon fill="none" stroke="#000000" points="49.5,-533 49.5,-555 185.5,-555 185.5,-533 49.5,-533"/>
<image xlink:href="../../images/foreignKeys.png" width="11px" height="12px" preserveAspectRatio="xMinYMin meet" x="54.5" y="-550"/>
<text text-anchor="start" x="69.5" y="-540.1" font-family="Helvetica,sans-Serif" font-size="11.00" fill="#000000">prison_code</text>
<polygon fill="none" stroke="#000000" points="185.5,-533 185.5,-555 279.5,-555 279.5,-533 185.5,-533"/>
<text text-anchor="start" x="188.5" y="-540.7" font-family="Helvetica,sans-Serif" font-size="11.00" fill="#000000">varchar[6]</text>
<polygon fill="#ffffff" stroke="transparent" points="49.5,-511 49.5,-533 185.5,-533 185.5,-511 49.5,-511"/>
<polygon fill="none" stroke="#000000" points="49.5,-511 49.5,-533 185.5,-533 185.5,-511 49.5,-511"/>
<text text-anchor="start" x="69.5" y="-518.1" font-family="Helvetica,sans-Serif" font-size="11.00" fill="#000000">staff_id</text>
<polygon fill="none" stroke="#000000" points="185.5,-511 185.5,-533 279.5,-533 279.5,-511 185.5,-511"/>
<text text-anchor="start" x="188.5" y="-518.7" font-family="Helvetica,sans-Serif" font-size="11.00" fill="#000000">int8[19]</text>
<polygon fill="none" stroke="#000000" points="49.5,-489 49.5,-511 185.5,-511 185.5,-489 49.5,-489"/>
<text text-anchor="start" x="69.5" y="-496.1" font-family="Helvetica,sans-Serif" font-size="11.00" fill="#000000">position_id</text>
<polygon fill="none" stroke="#000000" points="185.5,-489 185.5,-511 279.5,-511 279.5,-489 185.5,-489"/>
<text text-anchor="start" x="188.5" y="-496.7" font-family="Helvetica,sans-Serif" font-size="11.00" fill="#000000">int8[19]</text>
<polygon fill="none" stroke="#000000" points="49.5,-467 49.5,-489 185.5,-489 185.5,-467 49.5,-467"/>
<text text-anchor="start" x="69.5" y="-474.1" font-family="Helvetica,sans-Serif" font-size="11.00" fill="#000000">schedule_type_id</text>
<polygon fill="none" stroke="#000000" points="185.5,-467 185.5,-489 279.5,-489 279.5,-467 185.5,-467"/>
<text text-anchor="start" x="188.5" y="-474.7" font-family="Helvetica,sans-Serif" font-size="11.00" fill="#000000">int8[19]</text>
<polygon fill="none" stroke="#000000" points="49.5,-445 49.5,-467 185.5,-467 185.5,-445 49.5,-445"/>
<text text-anchor="start" x="69.5" y="-452.1" font-family="Helvetica,sans-Serif" font-size="11.00" fill="#000000">hours_per_week</text>
<polygon fill="none" stroke="#000000" points="185.5,-445 185.5,-467 279.5,-467 279.5,-445 185.5,-445"/>
<text text-anchor="start" x="188.5" y="-452.7" font-family="Helvetica,sans-Serif" font-size="11.00" fill="#000000">numeric[0]</text>
<polygon fill="none" stroke="#000000" points="49.5,-423 49.5,-445 185.5,-445 185.5,-423 49.5,-423"/>
<text text-anchor="start" x="69.5" y="-430.1" font-family="Helvetica,sans-Serif" font-size="11.00" fill="#000000">from_date</text>
<polygon fill="none" stroke="#000000" points="185.5,-423 185.5,-445 279.5,-445 279.5,-423 185.5,-423"/>
<text text-anchor="start" x="188.5" y="-430.7" font-family="Helvetica,sans-Serif" font-size="11.00" fill="#000000">date[13]</text>
<polygon fill="none" stroke="#000000" points="49.5,-401 49.5,-423 185.5,-423 185.5,-401 49.5,-401"/>
<text text-anchor="start" x="69.5" y="-408.1" font-family="Helvetica,sans-Serif" font-size="11.00" fill="#000000">to_date</text>
<polygon fill="none" stroke="#000000" points="185.5,-401 185.5,-423 279.5,-423 279.5,-401 185.5,-401"/>
<text text-anchor="start" x="188.5" y="-408.7" font-family="Helvetica,sans-Serif" font-size="11.00" fill="#000000">date[13]</text>
<polygon fill="#ffffff" stroke="transparent" points="49.5,-382 49.5,-401 121.5,-401 121.5,-382 49.5,-382"/>
<polygon fill="none" stroke="#000000" points="49.5,-382 49.5,-401 121.5,-401 121.5,-382 49.5,-382"/>
<text text-anchor="start" x="52.5" y="-388.1" font-family="Helvetica,sans-Serif" font-size="11.00" fill="#000000">&lt; 0</text>
<polygon fill="#ffffff" stroke="transparent" points="121.5,-382 121.5,-401 185.5,-401 185.5,-382 121.5,-382"/>
<polygon fill="none" stroke="#000000" points="121.5,-382 121.5,-401 185.5,-401 185.5,-382 121.5,-382"/>
<text text-anchor="start" x="176.3862" y="-388.1" font-family="Helvetica,sans-Serif" font-size="11.00" fill="#000000"> &#160;</text>
<polygon fill="#ffffff" stroke="transparent" points="185.5,-382 185.5,-401 279.5,-401 279.5,-382 185.5,-382"/>
<polygon fill="none" stroke="#000000" points="185.5,-382 185.5,-401 279.5,-401 279.5,-382 185.5,-382"/>
<text text-anchor="start" x="260.9053" y="-388.1" font-family="Helvetica,sans-Serif" font-size="11.00" fill="#000000">0 &gt;</text>
<polygon fill="none" stroke="#000000" stroke-width="2" points="48.5,-381 48.5,-623 280.5,-623 280.5,-381 48.5,-381"/>
</a>
</g>
</g>
</g>
</svg>
