<?xml version="1.0" encoding="UTF-8" standalone="no"?>
<!DOCTYPE svg PUBLIC "-//W3C//DTD SVG 1.1//EN"
 "http://www.w3.org/Graphics/SVG/1.1/DTD/svg11.dtd">
<!-- Generated by graphviz version 2.40.1 (20161225.0304)
 -->
<!-- Title: orphans Pages: 1 -->
<svg width="364pt" height="548pt"
 viewBox="0.00 0.00 364.00 548.00" xmlns="http://www.w3.org/2000/svg" xmlns:xlink="http://www.w3.org/1999/xlink">
<g id="graph0" class="graph" transform="scale(1 1) rotate(0) translate(4 544)">
<title>orphans</title>
<polygon fill="#ffffff" stroke="transparent" points="-4,4 -4,-544 360,-544 360,4 -4,4"/>
<!-- case_note_type_recorded_event_type -->
<g id="node1" class="node">
<title>case_note_type_recorded_event_type</title>
<g id="a_node1"><a xlink:href="../../tables/case_note_type_recorded_event_type.html" xlink:title="case_note_type_recorded_event_type" target="_top">
<polygon fill="#ffffff" stroke="transparent" points="8,-4 8,-160 348,-160 348,-4 8,-4"/>
<polygon fill="#f5f5f5" stroke="transparent" points="10,-135 10,-158 346,-158 346,-135 10,-135"/>
<polygon fill="none" stroke="#000000" points="10,-135 10,-158 346,-158 346,-135 10,-135"/>
<text text-anchor="start" x="15" y="-143.6" font-family="Helvetica,sans-Serif" font-weight="bold" font-size="11.00" fill="#000000">case_note_type_recorded_event_type</text>
<text text-anchor="start" x="311.0437" y="-143.1" font-family="Helvetica,sans-Serif" font-size="11.00" fill="#000000">[table]</text>
<polygon fill="none" stroke="#000000" points="10,-113 10,-135 281,-135 281,-113 10,-113"/>
<image xlink:href="../../images/primaryKeys.png" width="11px" height="12px" preserveAspectRatio="xMinYMin meet" x="15" y="-130"/>
<text text-anchor="start" x="30" y="-120.1" font-family="Helvetica,sans-Serif" font-size="11.00" fill="#000000">id</text>
<polygon fill="none" stroke="#000000" points="281,-113 281,-135 346,-135 346,-113 281,-113"/>
<text text-anchor="start" x="283.8561" y="-120.7" font-family="Helvetica,sans-Serif" font-size="11.00" fill="#000000">bigserial[19]</text>
<polygon fill="#ffffff" stroke="transparent" points="10,-91 10,-113 281,-113 281,-91 10,-91"/>
<polygon fill="none" stroke="#000000" points="10,-91 10,-113 281,-113 281,-91 10,-91"/>
<text text-anchor="start" x="30" y="-98.1" font-family="Helvetica,sans-Serif" font-size="11.00" fill="#000000">cn_type</text>
<polygon fill="none" stroke="#000000" points="281,-91 281,-113 346,-113 346,-91 281,-91"/>
<text text-anchor="start" x="284" y="-98.7" font-family="Helvetica,sans-Serif" font-size="11.00" fill="#000000">varchar[32]</text>
<polygon fill="#ffffff" stroke="transparent" points="10,-69 10,-91 281,-91 281,-69 10,-69"/>
<polygon fill="none" stroke="#000000" points="10,-69 10,-91 281,-91 281,-69 10,-69"/>
<text text-anchor="start" x="30" y="-76.1" font-family="Helvetica,sans-Serif" font-size="11.00" fill="#000000">cn_sub_type</text>
<polygon fill="none" stroke="#000000" points="281,-69 281,-91 346,-91 346,-69 281,-69"/>
<text text-anchor="start" x="284" y="-76.7" font-family="Helvetica,sans-Serif" font-size="11.00" fill="#000000">varchar[32]</text>
<polygon fill="none" stroke="#000000" points="10,-47 10,-69 281,-69 281,-47 10,-47"/>
<image xlink:href="../../images/foreignKeys.png" width="11px" height="12px" preserveAspectRatio="xMinYMin meet" x="15" y="-64"/>
<text text-anchor="start" x="30" y="-54.1" font-family="Helvetica,sans-Serif" font-size="11.00" fill="#000000">policy_code</text>
<polygon fill="none" stroke="#000000" points="281,-47 281,-69 346,-69 346,-47 281,-47"/>
<text text-anchor="start" x="284" y="-54.7" font-family="Helvetica,sans-Serif" font-size="11.00" fill="#000000">varchar[16]</text>
<polygon fill="none" stroke="#000000" points="10,-25 10,-47 281,-47 281,-25 10,-25"/>
<text text-anchor="start" x="30" y="-32.1" font-family="Helvetica,sans-Serif" font-size="11.00" fill="#000000">recorded_event_type_id</text>
<polygon fill="none" stroke="#000000" points="281,-25 281,-47 346,-47 346,-25 281,-25"/>
<text text-anchor="start" x="284" y="-32.7" font-family="Helvetica,sans-Serif" font-size="11.00" fill="#000000">int8[19]</text>
<polygon fill="#ffffff" stroke="transparent" points="10,-6 10,-25 150,-25 150,-6 10,-6"/>
<polygon fill="none" stroke="#000000" points="10,-6 10,-25 150,-25 150,-6 10,-6"/>
<text text-anchor="start" x="13" y="-12.1" font-family="Helvetica,sans-Serif" font-size="11.00" fill="#000000">&lt; 0</text>
<polygon fill="#ffffff" stroke="transparent" points="150,-6 150,-25 281,-25 281,-6 150,-6"/>
<polygon fill="none" stroke="#000000" points="150,-6 150,-25 281,-25 281,-6 150,-6"/>
<text text-anchor="start" x="271.8862" y="-12.1" font-family="Helvetica,sans-Serif" font-size="11.00" fill="#000000"> &#160;</text>
<polygon fill="#ffffff" stroke="transparent" points="281,-6 281,-25 346,-25 346,-6 281,-6"/>
<polygon fill="none" stroke="#000000" points="281,-6 281,-25 346,-25 346,-6 281,-6"/>
<text text-anchor="start" x="327.4053" y="-12.1" font-family="Helvetica,sans-Serif" font-size="11.00" fill="#000000">0 &gt;</text>
<polygon fill="none" stroke="#000000" stroke-width="2" points="9,-5 9,-159 347,-159 347,-5 9,-5"/>
</a>
</g>
</g>
<!-- prison_migration_date_history -->
<g id="node2" class="node">
<title>prison_migration_date_history</title>
<g id="a_node2"><a xlink:href="../../tables/prison_migration_date_history.html" xlink:title="prison_migration_date_history" target="_top">
<polygon fill="#ffffff" stroke="transparent" points="21.5,-181 21.5,-271 334.5,-271 334.5,-181 21.5,-181"/>
<polygon fill="#f5f5f5" stroke="transparent" points="24,-246 24,-269 333,-269 333,-246 24,-246"/>
<polygon fill="none" stroke="#000000" points="24,-246 24,-269 333,-269 333,-246 24,-246"/>
<text text-anchor="start" x="29" y="-254.6" font-family="Helvetica,sans-Serif" font-weight="bold" font-size="11.00" fill="#000000">prison_migration_date_history</text>
<text text-anchor="start" x="298.0437" y="-254.1" font-family="Helvetica,sans-Serif" font-size="11.00" fill="#000000">[table]</text>
<polygon fill="none" stroke="#000000" points="24,-224 24,-246 249,-246 249,-224 24,-224"/>
<image xlink:href="../../images/primaryKeys.png" width="11px" height="12px" preserveAspectRatio="xMinYMin meet" x="29" y="-241"/>
<text text-anchor="start" x="44" y="-231.1" font-family="Helvetica,sans-Serif" font-size="11.00" fill="#000000">prison_code</text>
<polygon fill="none" stroke="#000000" points="249,-224 249,-246 333,-246 333,-224 249,-224"/>
<text text-anchor="start" x="252" y="-231.7" font-family="Helvetica,sans-Serif" font-size="11.00" fill="#000000">varchar[6]</text>
<polygon fill="none" stroke="#000000" points="24,-202 24,-224 249,-224 249,-202 24,-202"/>
<text text-anchor="start" x="44" y="-209.1" font-family="Helvetica,sans-Serif" font-size="11.00" fill="#000000">migration_date</text>
<polygon fill="none" stroke="#000000" points="249,-202 249,-224 333,-224 333,-202 249,-202"/>
<text text-anchor="start" x="251.8807" y="-209.7" font-family="Helvetica,sans-Serif" font-size="11.00" fill="#000000">timestamp[29,6]</text>
<polygon fill="#ffffff" stroke="transparent" points="24,-183 24,-202 141,-202 141,-183 24,-183"/>
<polygon fill="none" stroke="#000000" points="24,-183 24,-202 141,-202 141,-183 24,-183"/>
<text text-anchor="start" x="27" y="-189.1" font-family="Helvetica,sans-Serif" font-size="11.00" fill="#000000">&lt; 0</text>
<polygon fill="#ffffff" stroke="transparent" points="141,-183 141,-202 249,-202 249,-183 141,-183"/>
<polygon fill="none" stroke="#000000" points="141,-183 141,-202 249,-202 249,-183 141,-183"/>
<text text-anchor="start" x="239.8862" y="-189.1" font-family="Helvetica,sans-Serif" font-size="11.00" fill="#000000"> &#160;</text>
<polygon fill="#ffffff" stroke="transparent" points="249,-183 249,-202 333,-202 333,-183 249,-183"/>
<polygon fill="none" stroke="#000000" points="249,-183 249,-202 333,-202 333,-183 249,-183"/>
<text text-anchor="start" x="314.4053" y="-189.1" font-family="Helvetica,sans-Serif" font-size="11.00" fill="#000000">0 &gt;</text>
<polygon fill="none" stroke="#000000" stroke-width="2" points="22.5,-182 22.5,-270 333.5,-270 333.5,-182 22.5,-182"/>
</a>
</g>
</g>
<!-- staff_role -->
<g id="node3" class="node">
<title>staff_role</title>
<g id="a_node3"><a xlink:href="../../tables/staff_role.html" xlink:title="staff_role" target="_top">
<polygon fill="#ffffff" stroke="transparent" points="61,-292 61,-536 295,-536 295,-292 61,-292"/>
<polygon fill="#f5f5f5" stroke="transparent" points="63,-511 63,-534 293,-534 293,-511 63,-511"/>
<polygon fill="none" stroke="#000000" points="63,-511 63,-534 293,-534 293,-511 63,-511"/>
<text text-anchor="start" x="68" y="-519.6" font-family="Helvetica,sans-Serif" font-weight="bold" font-size="11.00" fill="#000000">staff_role</text>
<text text-anchor="start" x="258.0437" y="-519.1" font-family="Helvetica,sans-Serif" font-size="11.00" fill="#000000">[table]</text>
<polygon fill="none" stroke="#000000" points="63,-489 63,-511 199,-511 199,-489 63,-489"/>
<image xlink:href="../../images/primaryKeys.png" width="11px" height="12px" preserveAspectRatio="xMinYMin meet" x="68" y="-506"/>
<text text-anchor="start" x="83" y="-496.1" font-family="Helvetica,sans-Serif" font-size="11.00" fill="#000000">id</text>
<polygon fill="none" stroke="#000000" points="199,-489 199,-511 293,-511 293,-489 199,-489"/>
<text text-anchor="start" x="201.9758" y="-496.7" font-family="Helvetica,sans-Serif" font-size="11.00" fill="#000000">uuid[2147483647]</text>
<polygon fill="#ffffff" stroke="transparent" points="63,-467 63,-489 199,-489 199,-467 63,-467"/>
<polygon fill="none" stroke="#000000" points="63,-467 63,-489 199,-489 199,-467 63,-467"/>
<image xlink:href="../../images/foreignKeys.png" width="11px" height="12px" preserveAspectRatio="xMinYMin meet" x="68" y="-484"/>
<text text-anchor="start" x="83" y="-474.1" font-family="Helvetica,sans-Serif" font-size="11.00" fill="#000000">policy_code</text>
<polygon fill="none" stroke="#000000" points="199,-467 199,-489 293,-489 293,-467 199,-467"/>
<text text-anchor="start" x="202" y="-474.7" font-family="Helvetica,sans-Serif" font-size="11.00" fill="#000000">varchar[16]</text>
<polygon fill="#ffffff" stroke="transparent" points="63,-445 63,-467 199,-467 199,-445 63,-445"/>
<polygon fill="none" stroke="#000000" points="63,-445 63,-467 199,-467 199,-445 63,-445"/>
<image xlink:href="../../images/foreignKeys.png" width="11px" height="12px" preserveAspectRatio="xMinYMin meet" x="68" y="-462"/>
<text text-anchor="start" x="83" y="-452.1" font-family="Helvetica,sans-Serif" font-size="11.00" fill="#000000">prison_code</text>
<polygon fill="none" stroke="#000000" points="199,-445 199,-467 293,-467 293,-445 199,-445"/>
<text text-anchor="start" x="202" y="-452.7" font-family="Helvetica,sans-Serif" font-size="11.00" fill="#000000">varchar[6]</text>
<polygon fill="#ffffff" stroke="transparent" points="63,-423 63,-445 199,-445 199,-423 63,-423"/>
<polygon fill="none" stroke="#000000" points="63,-423 63,-445 199,-445 199,-423 63,-423"/>
<text text-anchor="start" x="83" y="-430.1" font-family="Helvetica,sans-Serif" font-size="11.00" fill="#000000">staff_id</text>
<polygon fill="none" stroke="#000000" points="199,-423 199,-445 293,-445 293,-423 199,-423"/>
<text text-anchor="start" x="202" y="-430.7" font-family="Helvetica,sans-Serif" font-size="11.00" fill="#000000">int8[19]</text>
<polygon fill="none" stroke="#000000" points="63,-401 63,-423 199,-423 199,-401 63,-401"/>
<text text-anchor="start" x="83" y="-408.1" font-family="Helvetica,sans-Serif" font-size="11.00" fill="#000000">position_id</text>
<polygon fill="none" stroke="#000000" points="199,-401 199,-423 293,-423 293,-401 199,-401"/>
<text text-anchor="start" x="202" y="-408.7" font-family="Helvetica,sans-Serif" font-size="11.00" fill="#000000">int8[19]</text>
<polygon fill="none" stroke="#000000" points="63,-379 63,-401 199,-401 199,-379 63,-379"/>
<text text-anchor="start" x="83" y="-386.1" font-family="Helvetica,sans-Serif" font-size="11.00" fill="#000000">schedule_type_id</text>
<polygon fill="none" stroke="#000000" points="199,-379 199,-401 293,-401 293,-379 199,-379"/>
<text text-anchor="start" x="202" y="-386.7" font-family="Helvetica,sans-Serif" font-size="11.00" fill="#000000">int8[19]</text>
<polygon fill="none" stroke="#000000" points="63,-357 63,-379 199,-379 199,-357 63,-357"/>
<text text-anchor="start" x="83" y="-364.1" font-family="Helvetica,sans-Serif" font-size="11.00" fill="#000000">hours_per_week</text>
<polygon fill="none" stroke="#000000" points="199,-357 199,-379 293,-379 293,-357 199,-357"/>
<text text-anchor="start" x="202" y="-364.7" font-family="Helvetica,sans-Serif" font-size="11.00" fill="#000000">numeric[0]</text>
<polygon fill="none" stroke="#000000" points="63,-335 63,-357 199,-357 199,-335 63,-335"/>
<text text-anchor="start" x="83" y="-342.1" font-family="Helvetica,sans-Serif" font-size="11.00" fill="#000000">from_date</text>
<polygon fill="none" stroke="#000000" points="199,-335 199,-357 293,-357 293,-335 199,-335"/>
<text text-anchor="start" x="202" y="-342.7" font-family="Helvetica,sans-Serif" font-size="11.00" fill="#000000">date[13]</text>
<polygon fill="none" stroke="#000000" points="63,-313 63,-335 199,-335 199,-313 63,-313"/>
<text text-anchor="start" x="83" y="-320.1" font-family="Helvetica,sans-Serif" font-size="11.00" fill="#000000">to_date</text>
<polygon fill="none" stroke="#000000" points="199,-313 199,-335 293,-335 293,-313 199,-313"/>
<text text-anchor="start" x="202" y="-320.7" font-family="Helvetica,sans-Serif" font-size="11.00" fill="#000000">date[13]</text>
<polygon fill="#ffffff" stroke="transparent" points="63,-294 63,-313 135,-313 135,-294 63,-294"/>
<polygon fill="none" stroke="#000000" points="63,-294 63,-313 135,-313 135,-294 63,-294"/>
<text text-anchor="start" x="66" y="-300.1" font-family="Helvetica,sans-Serif" font-size="11.00" fill="#000000">&lt; 0</text>
<polygon fill="#ffffff" stroke="transparent" points="135,-294 135,-313 199,-313 199,-294 135,-294"/>
<polygon fill="none" stroke="#000000" points="135,-294 135,-313 199,-313 199,-294 135,-294"/>
<text text-anchor="start" x="189.8862" y="-300.1" font-family="Helvetica,sans-Serif" font-size="11.00" fill="#000000"> &#160;</text>
<polygon fill="#ffffff" stroke="transparent" points="199,-294 199,-313 293,-313 293,-294 199,-294"/>
<polygon fill="none" stroke="#000000" points="199,-294 199,-313 293,-313 293,-294 199,-294"/>
<text text-anchor="start" x="274.4053" y="-300.1" font-family="Helvetica,sans-Serif" font-size="11.00" fill="#000000">0 &gt;</text>
<polygon fill="none" stroke="#000000" stroke-width="2" points="62,-293 62,-535 294,-535 294,-293 62,-293"/>
</a>
</g>
</g>
</g>
</svg>
