<?xml version="1.0" encoding="UTF-8" standalone="no"?>
<!DOCTYPE svg PUBLIC "-//W3C//DTD SVG 1.1//EN"
 "http://www.w3.org/Graphics/SVG/1.1/DTD/svg11.dtd">
<!-- Generated by graphviz version 2.40.1 (20161225.0304)
 -->
<!-- Title: orphans Pages: 1 -->
<svg width="371pt" height="967pt"
 viewBox="0.00 0.00 371.00 967.00" xmlns="http://www.w3.org/2000/svg" xmlns:xlink="http://www.w3.org/1999/xlink">
<g id="graph0" class="graph" transform="scale(1 1) rotate(0) translate(4 963)">
<title>orphans</title>
<polygon fill="#ffffff" stroke="transparent" points="-4,4 -4,-963 367,-963 367,4 -4,4"/>
<!-- allocation_case_note -->
<g id="node1" class="node">
<title>allocation_case_note</title>
<g id="a_node1"><a xlink:href="../../tables/allocation_case_note.html" xlink:title="allocation_case_note" target="_top">
<polygon fill="#ffffff" stroke="transparent" points="52.5,-4 52.5,-248 310.5,-248 310.5,-4 52.5,-4"/>
<polygon fill="#f5f5f5" stroke="transparent" points="54.5,-223 54.5,-246 308.5,-246 308.5,-223 54.5,-223"/>
<polygon fill="none" stroke="#000000" points="54.5,-223 54.5,-246 308.5,-246 308.5,-223 54.5,-223"/>
<text text-anchor="start" x="59.5" y="-231.6" font-family="Helvetica,sans-Serif" font-weight="bold" font-size="11.00" fill="#000000">allocation_case_note</text>
<text text-anchor="start" x="273.5437" y="-231.1" font-family="Helvetica,sans-Serif" font-size="11.00" fill="#000000">[table]</text>
<polygon fill="none" stroke="#000000" points="54.5,-201 54.5,-223 214.5,-223 214.5,-201 54.5,-201"/>
<image xlink:href="../../images/primaryKeys.png" width="11px" height="12px" preserveAspectRatio="xMinYMin meet" x="59.5" y="-218"/>
<text text-anchor="start" x="74.5" y="-208.1" font-family="Helvetica,sans-Serif" font-size="11.00" fill="#000000">id</text>
<polygon fill="none" stroke="#000000" points="214.5,-201 214.5,-223 308.5,-223 308.5,-201 214.5,-201"/>
<text text-anchor="start" x="217.4758" y="-208.7" font-family="Helvetica,sans-Serif" font-size="11.00" fill="#000000">uuid[2147483647]</text>
<polygon fill="none" stroke="#000000" points="54.5,-179 54.5,-201 214.5,-201 214.5,-179 54.5,-179"/>
<image xlink:href="../../images/foreignKeys.png" width="11px" height="12px" preserveAspectRatio="xMinYMin meet" x="59.5" y="-196"/>
<text text-anchor="start" x="74.5" y="-186.1" font-family="Helvetica,sans-Serif" font-size="11.00" fill="#000000">prison_code</text>
<polygon fill="none" stroke="#000000" points="214.5,-179 214.5,-201 308.5,-201 308.5,-179 214.5,-179"/>
<text text-anchor="start" x="217.5" y="-186.7" font-family="Helvetica,sans-Serif" font-size="11.00" fill="#000000">varchar[6]</text>
<polygon fill="#ffffff" stroke="transparent" points="54.5,-157 54.5,-179 214.5,-179 214.5,-157 54.5,-157"/>
<polygon fill="none" stroke="#000000" points="54.5,-157 54.5,-179 214.5,-179 214.5,-157 54.5,-157"/>
<text text-anchor="start" x="74.5" y="-164.1" font-family="Helvetica,sans-Serif" font-size="11.00" fill="#000000">person_identifier</text>
<polygon fill="none" stroke="#000000" points="214.5,-157 214.5,-179 308.5,-179 308.5,-157 214.5,-157"/>
<text text-anchor="start" x="217.5" y="-164.7" font-family="Helvetica,sans-Serif" font-size="11.00" fill="#000000">varchar[7]</text>
<polygon fill="none" stroke="#000000" points="54.5,-135 54.5,-157 214.5,-157 214.5,-135 54.5,-135"/>
<text text-anchor="start" x="74.5" y="-142.1" font-family="Helvetica,sans-Serif" font-size="11.00" fill="#000000">staff_id</text>
<polygon fill="none" stroke="#000000" points="214.5,-135 214.5,-157 308.5,-157 308.5,-135 214.5,-135"/>
<text text-anchor="start" x="217.5" y="-142.7" font-family="Helvetica,sans-Serif" font-size="11.00" fill="#000000">int8[19]</text>
<polygon fill="none" stroke="#000000" points="54.5,-113 54.5,-135 214.5,-135 214.5,-113 54.5,-113"/>
<text text-anchor="start" x="74.5" y="-120.1" font-family="Helvetica,sans-Serif" font-size="11.00" fill="#000000">username</text>
<polygon fill="none" stroke="#000000" points="214.5,-113 214.5,-135 308.5,-135 308.5,-113 214.5,-113"/>
<text text-anchor="start" x="217.5" y="-120.7" font-family="Helvetica,sans-Serif" font-size="11.00" fill="#000000">varchar[64]</text>
<polygon fill="none" stroke="#000000" points="54.5,-91 54.5,-113 214.5,-113 214.5,-91 54.5,-91"/>
<text text-anchor="start" x="74.5" y="-98.1" font-family="Helvetica,sans-Serif" font-size="11.00" fill="#000000">type</text>
<polygon fill="none" stroke="#000000" points="214.5,-91 214.5,-113 308.5,-113 308.5,-91 214.5,-91"/>
<text text-anchor="start" x="217.5" y="-98.7" font-family="Helvetica,sans-Serif" font-size="11.00" fill="#000000">varchar[12]</text>
<polygon fill="none" stroke="#000000" points="54.5,-69 54.5,-91 214.5,-91 214.5,-69 54.5,-69"/>
<text text-anchor="start" x="74.5" y="-76.1" font-family="Helvetica,sans-Serif" font-size="11.00" fill="#000000">sub_type</text>
<polygon fill="none" stroke="#000000" points="214.5,-69 214.5,-91 308.5,-91 308.5,-69 214.5,-69"/>
<text text-anchor="start" x="217.5" y="-76.7" font-family="Helvetica,sans-Serif" font-size="11.00" fill="#000000">varchar[12]</text>
<polygon fill="none" stroke="#000000" points="54.5,-47 54.5,-69 214.5,-69 214.5,-47 54.5,-47"/>
<text text-anchor="start" x="74.5" y="-54.1" font-family="Helvetica,sans-Serif" font-size="11.00" fill="#000000">occurred_at</text>
<polygon fill="none" stroke="#000000" points="214.5,-47 214.5,-69 308.5,-69 308.5,-47 214.5,-47"/>
<text text-anchor="start" x="217.5" y="-54.7" font-family="Helvetica,sans-Serif" font-size="11.00" fill="#000000">timestamp[29,6]</text>
<polygon fill="none" stroke="#000000" points="54.5,-25 54.5,-47 214.5,-47 214.5,-25 54.5,-25"/>
<text text-anchor="start" x="74.5" y="-32.1" font-family="Helvetica,sans-Serif" font-size="11.00" fill="#000000">version</text>
<polygon fill="none" stroke="#000000" points="214.5,-25 214.5,-47 308.5,-47 308.5,-25 214.5,-25"/>
<text text-anchor="start" x="217.5" y="-32.7" font-family="Helvetica,sans-Serif" font-size="11.00" fill="#000000">int4[10]</text>
<polygon fill="#ffffff" stroke="transparent" points="54.5,-6 54.5,-25 138.5,-25 138.5,-6 54.5,-6"/>
<polygon fill="none" stroke="#000000" points="54.5,-6 54.5,-25 138.5,-25 138.5,-6 54.5,-6"/>
<text text-anchor="start" x="57.5" y="-12.1" font-family="Helvetica,sans-Serif" font-size="11.00" fill="#000000">&lt; 0</text>
<polygon fill="#ffffff" stroke="transparent" points="138.5,-6 138.5,-25 214.5,-25 214.5,-6 138.5,-6"/>
<polygon fill="none" stroke="#000000" points="138.5,-6 138.5,-25 214.5,-25 214.5,-6 138.5,-6"/>
<text text-anchor="start" x="205.3862" y="-12.1" font-family="Helvetica,sans-Serif" font-size="11.00" fill="#000000"> &#160;</text>
<polygon fill="#ffffff" stroke="transparent" points="214.5,-6 214.5,-25 308.5,-25 308.5,-6 214.5,-6"/>
<polygon fill="none" stroke="#000000" points="214.5,-6 214.5,-25 308.5,-25 308.5,-6 214.5,-6"/>
<text text-anchor="start" x="289.9053" y="-12.1" font-family="Helvetica,sans-Serif" font-size="11.00" fill="#000000">0 &gt;</text>
<polygon fill="none" stroke="#000000" stroke-width="2" points="53.5,-5 53.5,-247 309.5,-247 309.5,-5 53.5,-5"/>
</a>
</g>
</g>
<!-- keyworker_stats -->
<g id="node2" class="node">
<title>keyworker_stats</title>
<g id="a_node2"><a xlink:href="../../tables/keyworker_stats.html" xlink:title="keyworker_stats" target="_top">
<polygon fill="#ffffff" stroke="transparent" points="8,-269 8,-579 355,-579 355,-269 8,-269"/>
<polygon fill="#f5f5f5" stroke="transparent" points="10.5,-554 10.5,-577 353.5,-577 353.5,-554 10.5,-554"/>
<polygon fill="none" stroke="#000000" points="10.5,-554 10.5,-577 353.5,-577 353.5,-554 10.5,-554"/>
<text text-anchor="start" x="15.5" y="-562.6" font-family="Helvetica,sans-Serif" font-weight="bold" font-size="11.00" fill="#000000">keyworker_stats</text>
<text text-anchor="start" x="318.5437" y="-562.1" font-family="Helvetica,sans-Serif" font-size="11.00" fill="#000000">[table]</text>
<polygon fill="none" stroke="#000000" points="10.5,-532 10.5,-554 269.5,-554 269.5,-532 10.5,-532"/>
<image xlink:href="../../images/primaryKeys.png" width="11px" height="12px" preserveAspectRatio="xMinYMin meet" x="15.5" y="-549"/>
<text text-anchor="start" x="30.5" y="-539.1" font-family="Helvetica,sans-Serif" font-size="11.00" fill="#000000">keyworker_stats_id</text>
<polygon fill="none" stroke="#000000" points="269.5,-532 269.5,-554 353.5,-554 353.5,-532 269.5,-532"/>
<text text-anchor="start" x="272.5" y="-539.7" font-family="Helvetica,sans-Serif" font-size="11.00" fill="#000000">bigserial[19]</text>
<polygon fill="#ffffff" stroke="transparent" points="10.5,-510 10.5,-532 269.5,-532 269.5,-510 10.5,-510"/>
<polygon fill="none" stroke="#000000" points="10.5,-510 10.5,-532 269.5,-532 269.5,-510 10.5,-510"/>
<text text-anchor="start" x="30.5" y="-517.1" font-family="Helvetica,sans-Serif" font-size="11.00" fill="#000000">prison_id</text>
<polygon fill="none" stroke="#000000" points="269.5,-510 269.5,-532 353.5,-532 353.5,-510 269.5,-510"/>
<text text-anchor="start" x="272.5" y="-517.7" font-family="Helvetica,sans-Serif" font-size="11.00" fill="#000000">varchar[6]</text>
<polygon fill="#ffffff" stroke="transparent" points="10.5,-488 10.5,-510 269.5,-510 269.5,-488 10.5,-488"/>
<polygon fill="none" stroke="#000000" points="10.5,-488 10.5,-510 269.5,-510 269.5,-488 10.5,-488"/>
<text text-anchor="start" x="30.5" y="-495.1" font-family="Helvetica,sans-Serif" font-size="11.00" fill="#000000">snapshot_date</text>
<polygon fill="none" stroke="#000000" points="269.5,-488 269.5,-510 353.5,-510 353.5,-488 269.5,-488"/>
<text text-anchor="start" x="272.3807" y="-495.7" font-family="Helvetica,sans-Serif" font-size="11.00" fill="#000000">timestamp[29,6]</text>
<polygon fill="none" stroke="#000000" points="10.5,-466 10.5,-488 269.5,-488 269.5,-466 10.5,-466"/>
<text text-anchor="start" x="30.5" y="-473.1" font-family="Helvetica,sans-Serif" font-size="11.00" fill="#000000">num_prisoners_assigned_kw</text>
<polygon fill="none" stroke="#000000" points="269.5,-466 269.5,-488 353.5,-488 353.5,-466 269.5,-466"/>
<text text-anchor="start" x="272.5" y="-473.7" font-family="Helvetica,sans-Serif" font-size="11.00" fill="#000000">int4[10]</text>
<polygon fill="none" stroke="#000000" points="10.5,-444 10.5,-466 269.5,-466 269.5,-444 10.5,-444"/>
<text text-anchor="start" x="30.5" y="-451.1" font-family="Helvetica,sans-Serif" font-size="11.00" fill="#000000">total_num_prisoners</text>
<polygon fill="none" stroke="#000000" points="269.5,-444 269.5,-466 353.5,-466 353.5,-444 269.5,-444"/>
<text text-anchor="start" x="272.5" y="-451.7" font-family="Helvetica,sans-Serif" font-size="11.00" fill="#000000">int4[10]</text>
<polygon fill="none" stroke="#000000" points="10.5,-422 10.5,-444 269.5,-444 269.5,-422 10.5,-422"/>
<text text-anchor="start" x="30.5" y="-429.1" font-family="Helvetica,sans-Serif" font-size="11.00" fill="#000000">num_kw_sessions</text>
<polygon fill="none" stroke="#000000" points="269.5,-422 269.5,-444 353.5,-444 353.5,-422 269.5,-422"/>
<text text-anchor="start" x="272.5" y="-429.7" font-family="Helvetica,sans-Serif" font-size="11.00" fill="#000000">int4[10]</text>
<polygon fill="none" stroke="#000000" points="10.5,-400 10.5,-422 269.5,-422 269.5,-400 10.5,-400"/>
<text text-anchor="start" x="30.5" y="-407.1" font-family="Helvetica,sans-Serif" font-size="11.00" fill="#000000">num_kw_entries</text>
<polygon fill="none" stroke="#000000" points="269.5,-400 269.5,-422 353.5,-422 353.5,-400 269.5,-400"/>
<text text-anchor="start" x="272.5" y="-407.7" font-family="Helvetica,sans-Serif" font-size="11.00" fill="#000000">int4[10]</text>
<polygon fill="none" stroke="#000000" points="10.5,-378 10.5,-400 269.5,-400 269.5,-378 10.5,-378"/>
<text text-anchor="start" x="30.5" y="-385.1" font-family="Helvetica,sans-Serif" font-size="11.00" fill="#000000">num_active_keyworkers</text>
<polygon fill="none" stroke="#000000" points="269.5,-378 269.5,-400 353.5,-400 353.5,-378 269.5,-378"/>
<text text-anchor="start" x="272.5" y="-385.7" font-family="Helvetica,sans-Serif" font-size="11.00" fill="#000000">int4[10]</text>
<polygon fill="none" stroke="#000000" points="10.5,-356 10.5,-378 269.5,-378 269.5,-356 10.5,-356"/>
<text text-anchor="start" x="30.5" y="-363.1" font-family="Helvetica,sans-Serif" font-size="11.00" fill="#000000">recpt_to_alloc_days</text>
<polygon fill="none" stroke="#000000" points="269.5,-356 269.5,-378 353.5,-378 353.5,-356 269.5,-356"/>
<text text-anchor="start" x="272.5" y="-363.7" font-family="Helvetica,sans-Serif" font-size="11.00" fill="#000000">int4[10]</text>
<polygon fill="none" stroke="#000000" points="10.5,-334 10.5,-356 269.5,-356 269.5,-334 10.5,-334"/>
<text text-anchor="start" x="30.5" y="-341.1" font-family="Helvetica,sans-Serif" font-size="11.00" fill="#000000">recpt_to_kw_session_days</text>
<polygon fill="none" stroke="#000000" points="269.5,-334 269.5,-356 353.5,-356 353.5,-334 269.5,-334"/>
<text text-anchor="start" x="272.5" y="-341.7" font-family="Helvetica,sans-Serif" font-size="11.00" fill="#000000">int4[10]</text>
<polygon fill="none" stroke="#000000" points="10.5,-312 10.5,-334 269.5,-334 269.5,-312 10.5,-312"/>
<text text-anchor="start" x="30.5" y="-319.1" font-family="Helvetica,sans-Serif" font-size="11.00" fill="#000000">total_num_eligible_prisoners</text>
<polygon fill="none" stroke="#000000" points="269.5,-312 269.5,-334 353.5,-334 353.5,-312 269.5,-312"/>
<text text-anchor="start" x="272.5" y="-319.7" font-family="Helvetica,sans-Serif" font-size="11.00" fill="#000000">int4[10]</text>
<polygon fill="none" stroke="#000000" points="10.5,-290 10.5,-312 269.5,-312 269.5,-290 10.5,-290"/>
<text text-anchor="start" x="30.5" y="-297.1" font-family="Helvetica,sans-Serif" font-size="11.00" fill="#000000">high_complexity_of_need_prisoners</text>
<polygon fill="none" stroke="#000000" points="269.5,-290 269.5,-312 353.5,-312 353.5,-290 269.5,-290"/>
<text text-anchor="start" x="272.5" y="-297.7" font-family="Helvetica,sans-Serif" font-size="11.00" fill="#000000">int4[10]</text>
<polygon fill="#ffffff" stroke="transparent" points="10.5,-271 10.5,-290 144.5,-290 144.5,-271 10.5,-271"/>
<polygon fill="none" stroke="#000000" points="10.5,-271 10.5,-290 144.5,-290 144.5,-271 10.5,-271"/>
<text text-anchor="start" x="13.5" y="-277.1" font-family="Helvetica,sans-Serif" font-size="11.00" fill="#000000">&lt; 0</text>
<polygon fill="#ffffff" stroke="transparent" points="144.5,-271 144.5,-290 269.5,-290 269.5,-271 144.5,-271"/>
<polygon fill="none" stroke="#000000" points="144.5,-271 144.5,-290 269.5,-290 269.5,-271 144.5,-271"/>
<text text-anchor="start" x="260.3862" y="-277.1" font-family="Helvetica,sans-Serif" font-size="11.00" fill="#000000"> &#160;</text>
<polygon fill="#ffffff" stroke="transparent" points="269.5,-271 269.5,-290 353.5,-290 353.5,-271 269.5,-271"/>
<polygon fill="none" stroke="#000000" points="269.5,-271 269.5,-290 353.5,-290 353.5,-271 269.5,-271"/>
<text text-anchor="start" x="334.9053" y="-277.1" font-family="Helvetica,sans-Serif" font-size="11.00" fill="#000000">0 &gt;</text>
<polygon fill="none" stroke="#000000" stroke-width="2" points="9,-270 9,-578 354,-578 354,-270 9,-270"/>
</a>
</g>
</g>
<!-- prison_migration_date_history -->
<g id="node3" class="node">
<title>prison_migration_date_history</title>
<g id="a_node3"><a xlink:href="../../tables/prison_migration_date_history.html" xlink:title="prison_migration_date_history" target="_top">
<polygon fill="#ffffff" stroke="transparent" points="25,-600 25,-690 338,-690 338,-600 25,-600"/>
<polygon fill="#f5f5f5" stroke="transparent" points="27.5,-665 27.5,-688 336.5,-688 336.5,-665 27.5,-665"/>
<polygon fill="none" stroke="#000000" points="27.5,-665 27.5,-688 336.5,-688 336.5,-665 27.5,-665"/>
<text text-anchor="start" x="32.5" y="-673.6" font-family="Helvetica,sans-Serif" font-weight="bold" font-size="11.00" fill="#000000">prison_migration_date_history</text>
<text text-anchor="start" x="301.5437" y="-673.1" font-family="Helvetica,sans-Serif" font-size="11.00" fill="#000000">[table]</text>
<polygon fill="none" stroke="#000000" points="27.5,-643 27.5,-665 252.5,-665 252.5,-643 27.5,-643"/>
<image xlink:href="../../images/primaryKeys.png" width="11px" height="12px" preserveAspectRatio="xMinYMin meet" x="32.5" y="-660"/>
<text text-anchor="start" x="47.5" y="-650.1" font-family="Helvetica,sans-Serif" font-size="11.00" fill="#000000">prison_code</text>
<polygon fill="none" stroke="#000000" points="252.5,-643 252.5,-665 336.5,-665 336.5,-643 252.5,-643"/>
<text text-anchor="start" x="255.5" y="-650.7" font-family="Helvetica,sans-Serif" font-size="11.00" fill="#000000">varchar[6]</text>
<polygon fill="none" stroke="#000000" points="27.5,-621 27.5,-643 252.5,-643 252.5,-621 27.5,-621"/>
<text text-anchor="start" x="47.5" y="-628.1" font-family="Helvetica,sans-Serif" font-size="11.00" fill="#000000">migration_date</text>
<polygon fill="none" stroke="#000000" points="252.5,-621 252.5,-643 336.5,-643 336.5,-621 252.5,-621"/>
<text text-anchor="start" x="255.3807" y="-628.7" font-family="Helvetica,sans-Serif" font-size="11.00" fill="#000000">timestamp[29,6]</text>
<polygon fill="#ffffff" stroke="transparent" points="27.5,-602 27.5,-621 144.5,-621 144.5,-602 27.5,-602"/>
<polygon fill="none" stroke="#000000" points="27.5,-602 27.5,-621 144.5,-621 144.5,-602 27.5,-602"/>
<text text-anchor="start" x="30.5" y="-608.1" font-family="Helvetica,sans-Serif" font-size="11.00" fill="#000000">&lt; 0</text>
<polygon fill="#ffffff" stroke="transparent" points="144.5,-602 144.5,-621 252.5,-621 252.5,-602 144.5,-602"/>
<polygon fill="none" stroke="#000000" points="144.5,-602 144.5,-621 252.5,-621 252.5,-602 144.5,-602"/>
<text text-anchor="start" x="243.3862" y="-608.1" font-family="Helvetica,sans-Serif" font-size="11.00" fill="#000000"> &#160;</text>
<polygon fill="#ffffff" stroke="transparent" points="252.5,-602 252.5,-621 336.5,-621 336.5,-602 252.5,-602"/>
<polygon fill="none" stroke="#000000" points="252.5,-602 252.5,-621 336.5,-621 336.5,-602 252.5,-602"/>
<text text-anchor="start" x="317.9053" y="-608.1" font-family="Helvetica,sans-Serif" font-size="11.00" fill="#000000">0 &gt;</text>
<polygon fill="none" stroke="#000000" stroke-width="2" points="26,-601 26,-689 337,-689 337,-601 26,-601"/>
</a>
</g>
</g>
<!-- staff_role -->
<g id="node4" class="node">
<title>staff_role</title>
<g id="a_node4"><a xlink:href="../../tables/staff_role.html" xlink:title="staff_role" target="_top">
<polygon fill="#ffffff" stroke="transparent" points="64.5,-711 64.5,-955 298.5,-955 298.5,-711 64.5,-711"/>
<polygon fill="#f5f5f5" stroke="transparent" points="66.5,-930 66.5,-953 296.5,-953 296.5,-930 66.5,-930"/>
<polygon fill="none" stroke="#000000" points="66.5,-930 66.5,-953 296.5,-953 296.5,-930 66.5,-930"/>
<text text-anchor="start" x="71.5" y="-938.6" font-family="Helvetica,sans-Serif" font-weight="bold" font-size="11.00" fill="#000000">staff_role</text>
<text text-anchor="start" x="261.5437" y="-938.1" font-family="Helvetica,sans-Serif" font-size="11.00" fill="#000000">[table]</text>
<polygon fill="none" stroke="#000000" points="66.5,-908 66.5,-930 202.5,-930 202.5,-908 66.5,-908"/>
<image xlink:href="../../images/primaryKeys.png" width="11px" height="12px" preserveAspectRatio="xMinYMin meet" x="71.5" y="-925"/>
<text text-anchor="start" x="86.5" y="-915.1" font-family="Helvetica,sans-Serif" font-size="11.00" fill="#000000">id</text>
<polygon fill="none" stroke="#000000" points="202.5,-908 202.5,-930 296.5,-930 296.5,-908 202.5,-908"/>
<text text-anchor="start" x="205.4758" y="-915.7" font-family="Helvetica,sans-Serif" font-size="11.00" fill="#000000">uuid[2147483647]</text>
<polygon fill="#ffffff" stroke="transparent" points="66.5,-886 66.5,-908 202.5,-908 202.5,-886 66.5,-886"/>
<polygon fill="none" stroke="#000000" points="66.5,-886 66.5,-908 202.5,-908 202.5,-886 66.5,-886"/>
<image xlink:href="../../images/foreignKeys.png" width="11px" height="12px" preserveAspectRatio="xMinYMin meet" x="71.5" y="-903"/>
<text text-anchor="start" x="86.5" y="-893.1" font-family="Helvetica,sans-Serif" font-size="11.00" fill="#000000">policy_code</text>
<polygon fill="none" stroke="#000000" points="202.5,-886 202.5,-908 296.5,-908 296.5,-886 202.5,-886"/>
<text text-anchor="start" x="205.5" y="-893.7" font-family="Helvetica,sans-Serif" font-size="11.00" fill="#000000">varchar[16]</text>
<polygon fill="#ffffff" stroke="transparent" points="66.5,-864 66.5,-886 202.5,-886 202.5,-864 66.5,-864"/>
<polygon fill="none" stroke="#000000" points="66.5,-864 66.5,-886 202.5,-886 202.5,-864 66.5,-864"/>
<image xlink:href="../../images/foreignKeys.png" width="11px" height="12px" preserveAspectRatio="xMinYMin meet" x="71.5" y="-881"/>
<text text-anchor="start" x="86.5" y="-871.1" font-family="Helvetica,sans-Serif" font-size="11.00" fill="#000000">prison_code</text>
<polygon fill="none" stroke="#000000" points="202.5,-864 202.5,-886 296.5,-886 296.5,-864 202.5,-864"/>
<text text-anchor="start" x="205.5" y="-871.7" font-family="Helvetica,sans-Serif" font-size="11.00" fill="#000000">varchar[6]</text>
<polygon fill="#ffffff" stroke="transparent" points="66.5,-842 66.5,-864 202.5,-864 202.5,-842 66.5,-842"/>
<polygon fill="none" stroke="#000000" points="66.5,-842 66.5,-864 202.5,-864 202.5,-842 66.5,-842"/>
<text text-anchor="start" x="86.5" y="-849.1" font-family="Helvetica,sans-Serif" font-size="11.00" fill="#000000">staff_id</text>
<polygon fill="none" stroke="#000000" points="202.5,-842 202.5,-864 296.5,-864 296.5,-842 202.5,-842"/>
<text text-anchor="start" x="205.5" y="-849.7" font-family="Helvetica,sans-Serif" font-size="11.00" fill="#000000">int8[19]</text>
<polygon fill="none" stroke="#000000" points="66.5,-820 66.5,-842 202.5,-842 202.5,-820 66.5,-820"/>
<text text-anchor="start" x="86.5" y="-827.1" font-family="Helvetica,sans-Serif" font-size="11.00" fill="#000000">position_id</text>
<polygon fill="none" stroke="#000000" points="202.5,-820 202.5,-842 296.5,-842 296.5,-820 202.5,-820"/>
<text text-anchor="start" x="205.5" y="-827.7" font-family="Helvetica,sans-Serif" font-size="11.00" fill="#000000">int8[19]</text>
<polygon fill="none" stroke="#000000" points="66.5,-798 66.5,-820 202.5,-820 202.5,-798 66.5,-798"/>
<text text-anchor="start" x="86.5" y="-805.1" font-family="Helvetica,sans-Serif" font-size="11.00" fill="#000000">schedule_type_id</text>
<polygon fill="none" stroke="#000000" points="202.5,-798 202.5,-820 296.5,-820 296.5,-798 202.5,-798"/>
<text text-anchor="start" x="205.5" y="-805.7" font-family="Helvetica,sans-Serif" font-size="11.00" fill="#000000">int8[19]</text>
<polygon fill="none" stroke="#000000" points="66.5,-776 66.5,-798 202.5,-798 202.5,-776 66.5,-776"/>
<text text-anchor="start" x="86.5" y="-783.1" font-family="Helvetica,sans-Serif" font-size="11.00" fill="#000000">hours_per_week</text>
<polygon fill="none" stroke="#000000" points="202.5,-776 202.5,-798 296.5,-798 296.5,-776 202.5,-776"/>
<text text-anchor="start" x="205.5" y="-783.7" font-family="Helvetica,sans-Serif" font-size="11.00" fill="#000000">numeric[0]</text>
<polygon fill="none" stroke="#000000" points="66.5,-754 66.5,-776 202.5,-776 202.5,-754 66.5,-754"/>
<text text-anchor="start" x="86.5" y="-761.1" font-family="Helvetica,sans-Serif" font-size="11.00" fill="#000000">from_date</text>
<polygon fill="none" stroke="#000000" points="202.5,-754 202.5,-776 296.5,-776 296.5,-754 202.5,-754"/>
<text text-anchor="start" x="205.5" y="-761.7" font-family="Helvetica,sans-Serif" font-size="11.00" fill="#000000">date[13]</text>
<polygon fill="none" stroke="#000000" points="66.5,-732 66.5,-754 202.5,-754 202.5,-732 66.5,-732"/>
<text text-anchor="start" x="86.5" y="-739.1" font-family="Helvetica,sans-Serif" font-size="11.00" fill="#000000">to_date</text>
<polygon fill="none" stroke="#000000" points="202.5,-732 202.5,-754 296.5,-754 296.5,-732 202.5,-732"/>
<text text-anchor="start" x="205.5" y="-739.7" font-family="Helvetica,sans-Serif" font-size="11.00" fill="#000000">date[13]</text>
<polygon fill="#ffffff" stroke="transparent" points="66.5,-713 66.5,-732 138.5,-732 138.5,-713 66.5,-713"/>
<polygon fill="none" stroke="#000000" points="66.5,-713 66.5,-732 138.5,-732 138.5,-713 66.5,-713"/>
<text text-anchor="start" x="69.5" y="-719.1" font-family="Helvetica,sans-Serif" font-size="11.00" fill="#000000">&lt; 0</text>
<polygon fill="#ffffff" stroke="transparent" points="138.5,-713 138.5,-732 202.5,-732 202.5,-713 138.5,-713"/>
<polygon fill="none" stroke="#000000" points="138.5,-713 138.5,-732 202.5,-732 202.5,-713 138.5,-713"/>
<text text-anchor="start" x="193.3862" y="-719.1" font-family="Helvetica,sans-Serif" font-size="11.00" fill="#000000"> &#160;</text>
<polygon fill="#ffffff" stroke="transparent" points="202.5,-713 202.5,-732 296.5,-732 296.5,-713 202.5,-713"/>
<polygon fill="none" stroke="#000000" points="202.5,-713 202.5,-732 296.5,-732 296.5,-713 202.5,-713"/>
<text text-anchor="start" x="277.9053" y="-719.1" font-family="Helvetica,sans-Serif" font-size="11.00" fill="#000000">0 &gt;</text>
<polygon fill="none" stroke="#000000" stroke-width="2" points="65.5,-712 65.5,-954 297.5,-954 297.5,-712 65.5,-712"/>
</a>
</g>
</g>
</g>
</svg>
