<?xml version="1.0" encoding="UTF-8" standalone="no"?>
<!DOCTYPE svg PUBLIC "-//W3C//DTD SVG 1.1//EN"
 "http://www.w3.org/Graphics/SVG/1.1/DTD/svg11.dtd">
<!-- Generated by graphviz version 2.40.1 (20161225.0304)
 -->
<!-- Title: largeImpliedRelationshipsDiagram Pages: 1 -->
<svg width="599pt" height="1205pt"
 viewBox="0.00 0.00 599.00 1205.20" xmlns="http://www.w3.org/2000/svg" xmlns:xlink="http://www.w3.org/1999/xlink">
<g id="graph0" class="graph" transform="scale(1 1) rotate(0) translate(4 1201.2)">
<title>largeImpliedRelationshipsDiagram</title>
<polygon fill="#ffffff" stroke="transparent" points="-4,4 -4,-1201.2 595,-1201.2 595,4 -4,4"/>
<text text-anchor="middle" x="72.4936" y="-7.3" font-family="Helvetica,sans-Serif" font-size="11.00" fill="#000000">Generated by SchemaSpy</text>
<!-- keyworker_session -->
<g id="node1" class="node">
<title>keyworker_session</title>
<g id="a_node1"><a xlink:href="../../tables/keyworker_session.html" xlink:title="keyworker_session" target="_top">
<polygon fill="#ffffff" stroke="transparent" points="393,-975.2 393,-1193.2 559,-1193.2 559,-975.2 393,-975.2"/>
<polygon fill="#f5f5f5" stroke="transparent" points="393,-1170.2 393,-1193.2 559,-1193.2 559,-1170.2 393,-1170.2"/>
<polygon fill="none" stroke="#000000" points="393,-1170.2 393,-1193.2 559,-1193.2 559,-1170.2 393,-1170.2"/>
<text text-anchor="start" x="398" y="-1178.8" font-family="Helvetica,sans-Serif" font-weight="bold" font-size="11.00" fill="#000000">keyworker_session</text>
<text text-anchor="start" x="524.5219" y="-1178.3" font-family="Helvetica,sans-Serif" font-size="11.00" fill="#000000">[table]</text>
<polygon fill="none" stroke="#000000" points="393,-1148.2 393,-1170.2 559,-1170.2 559,-1148.2 393,-1148.2"/>
<image xlink:href="../../images/primaryKeys.png" width="11px" height="12px" preserveAspectRatio="xMinYMin meet" x="398" y="-1165.2"/>
<text text-anchor="start" x="422" y="-1155.3" font-family="Helvetica,sans-Serif" font-size="11.00" fill="#000000">id</text>
<polygon fill="#ffffff" stroke="transparent" points="393,-1126.2 393,-1148.2 559,-1148.2 559,-1126.2 393,-1126.2"/>
<polygon fill="none" stroke="#000000" points="393,-1126.2 393,-1148.2 559,-1148.2 559,-1126.2 393,-1126.2"/>
<text text-anchor="start" x="422" y="-1133.3" font-family="Helvetica,sans-Serif" font-size="11.00" fill="#000000">occurred_at</text>
<polygon fill="#ffffff" stroke="transparent" points="393,-1104.2 393,-1126.2 559,-1126.2 559,-1104.2 393,-1104.2"/>
<polygon fill="none" stroke="#000000" points="393,-1104.2 393,-1126.2 559,-1126.2 559,-1104.2 393,-1104.2"/>
<text text-anchor="start" x="422" y="-1111.3" font-family="Helvetica,sans-Serif" font-size="11.00" fill="#000000">person_identifier</text>
<polygon fill="#ffffff" stroke="transparent" points="393,-1082.2 393,-1104.2 559,-1104.2 559,-1082.2 393,-1082.2"/>
<polygon fill="none" stroke="#000000" points="393,-1082.2 393,-1104.2 559,-1104.2 559,-1082.2 393,-1082.2"/>
<image xlink:href="../../images/foreignKeys.png" width="11px" height="12px" preserveAspectRatio="xMinYMin meet" x="398" y="-1099.2"/>
<text text-anchor="start" x="422" y="-1089.3" font-family="Helvetica,sans-Serif" font-size="11.00" fill="#000000">staff_id</text>
<polygon fill="none" stroke="#000000" points="393,-1060.2 393,-1082.2 559,-1082.2 559,-1060.2 393,-1060.2"/>
<text text-anchor="start" x="422" y="-1067.3" font-family="Helvetica,sans-Serif" font-size="11.00" fill="#000000">staff_username</text>
<polygon fill="#ffffff" stroke="transparent" points="393,-1038.2 393,-1060.2 559,-1060.2 559,-1038.2 393,-1038.2"/>
<polygon fill="none" stroke="#000000" points="393,-1038.2 393,-1060.2 559,-1060.2 559,-1038.2 393,-1038.2"/>
<text text-anchor="start" x="422" y="-1045.3" font-family="Helvetica,sans-Serif" font-size="11.00" fill="#000000">prison_code</text>
<polygon fill="none" stroke="#000000" points="393,-1016.2 393,-1038.2 559,-1038.2 559,-1016.2 393,-1016.2"/>
<text text-anchor="start" x="422" y="-1023.3" font-family="Helvetica,sans-Serif" font-size="11.00" fill="#000000">created_at</text>
<polygon fill="none" stroke="#000000" points="393,-994.2 393,-1016.2 559,-1016.2 559,-994.2 393,-994.2"/>
<text text-anchor="start" x="422" y="-1001.3" font-family="Helvetica,sans-Serif" font-size="11.00" fill="#000000">version</text>
<polygon fill="#ffffff" stroke="transparent" points="393,-975.2 393,-994.2 470,-994.2 470,-975.2 393,-975.2"/>
<polygon fill="none" stroke="#000000" points="393,-975.2 393,-994.2 470,-994.2 470,-975.2 393,-975.2"/>
<text text-anchor="start" x="396" y="-981.3" font-family="Helvetica,sans-Serif" font-size="11.00" fill="#000000"> &#160;</text>
<polygon fill="#ffffff" stroke="transparent" points="470,-975.2 470,-994.2 514,-994.2 514,-975.2 470,-975.2"/>
<polygon fill="none" stroke="#000000" points="470,-975.2 470,-994.2 514,-994.2 514,-975.2 470,-975.2"/>
<text text-anchor="start" x="504.8862" y="-981.3" font-family="Helvetica,sans-Serif" font-size="11.00" fill="#000000"> &#160;</text>
<polygon fill="#ffffff" stroke="transparent" points="514,-975.2 514,-994.2 559,-994.2 559,-975.2 514,-975.2"/>
<polygon fill="none" stroke="#000000" points="514,-975.2 514,-994.2 559,-994.2 559,-975.2 514,-975.2"/>
<text text-anchor="start" x="549.8862" y="-981.3" font-family="Helvetica,sans-Serif" font-size="11.00" fill="#000000"> &#160;</text>
</a>
</g>
</g>
<!-- key_worker -->
<g id="node4" class="node">
<title>key_worker</title>
<g id="a_node4"><a xlink:href="../../tables/key_worker.html" xlink:title="key_worker" target="_top">
<polygon fill="#ffffff" stroke="transparent" points="86,-736.2 86,-888.2 242,-888.2 242,-736.2 86,-736.2"/>
<polygon fill="#f5f5f5" stroke="transparent" points="86,-865.2 86,-888.2 242,-888.2 242,-865.2 86,-865.2"/>
<polygon fill="none" stroke="#000000" points="86,-865.2 86,-888.2 242,-888.2 242,-865.2 86,-865.2"/>
<text text-anchor="start" x="91" y="-873.8" font-family="Helvetica,sans-Serif" font-weight="bold" font-size="11.00" fill="#000000">key_worker</text>
<text text-anchor="start" x="207.0437" y="-873.3" font-family="Helvetica,sans-Serif" font-size="11.00" fill="#000000">[table]</text>
<polygon fill="none" stroke="#000000" points="86,-843.2 86,-865.2 242,-865.2 242,-843.2 86,-843.2"/>
<image xlink:href="../../images/primaryKeys.png" width="11px" height="12px" preserveAspectRatio="xMinYMin meet" x="91" y="-860.2"/>
<text text-anchor="start" x="106" y="-850.3" font-family="Helvetica,sans-Serif" font-size="11.00" fill="#000000">staff_id</text>
<polygon fill="none" stroke="#000000" points="86,-821.2 86,-843.2 242,-843.2 242,-821.2 86,-821.2"/>
<text text-anchor="start" x="106" y="-828.3" font-family="Helvetica,sans-Serif" font-size="11.00" fill="#000000">status</text>
<polygon fill="none" stroke="#000000" points="86,-799.2 86,-821.2 242,-821.2 242,-799.2 86,-799.2"/>
<text text-anchor="start" x="106" y="-806.3" font-family="Helvetica,sans-Serif" font-size="11.00" fill="#000000">capacity</text>
<polygon fill="none" stroke="#000000" points="86,-777.2 86,-799.2 242,-799.2 242,-777.2 86,-777.2"/>
<text text-anchor="start" x="106" y="-784.3" font-family="Helvetica,sans-Serif" font-size="11.00" fill="#000000">auto_allocation_flag</text>
<polygon fill="none" stroke="#000000" points="86,-755.2 86,-777.2 242,-777.2 242,-755.2 86,-755.2"/>
<text text-anchor="start" x="106" y="-762.3" font-family="Helvetica,sans-Serif" font-size="11.00" fill="#000000">active_date</text>
<polygon fill="#ffffff" stroke="transparent" points="86,-736.2 86,-755.2 158,-755.2 158,-736.2 86,-736.2"/>
<polygon fill="none" stroke="#000000" points="86,-736.2 86,-755.2 158,-755.2 158,-736.2 86,-736.2"/>
<text text-anchor="start" x="89" y="-742.3" font-family="Helvetica,sans-Serif" font-size="11.00" fill="#000000"> &#160;</text>
<polygon fill="#ffffff" stroke="transparent" points="158,-736.2 158,-755.2 200,-755.2 200,-736.2 158,-736.2"/>
<polygon fill="none" stroke="#000000" points="158,-736.2 158,-755.2 200,-755.2 200,-736.2 158,-736.2"/>
<text text-anchor="start" x="190.8862" y="-742.3" font-family="Helvetica,sans-Serif" font-size="11.00" fill="#000000"> &#160;</text>
<polygon fill="#ffffff" stroke="transparent" points="200,-736.2 200,-755.2 242,-755.2 242,-736.2 200,-736.2"/>
<polygon fill="none" stroke="#000000" points="200,-736.2 200,-755.2 242,-755.2 242,-736.2 200,-736.2"/>
<text text-anchor="start" x="232.8862" y="-742.3" font-family="Helvetica,sans-Serif" font-size="11.00" fill="#000000"> &#160;</text>
</a>
</g>
</g>
<!-- keyworker_session&#45;&gt;key_worker -->
<g id="edge2" class="edge">
<title>keyworker_session:w&#45;&gt;key_worker:e</title>
<path fill="none" stroke="#000000" stroke-dasharray="5,2" d="M378.3332,-1091.9711C275.3781,-1073.5492 362.3704,-854.2 242,-854.2"/>
<polygon fill="#000000" stroke="#000000" points="385.0279,-1092.532 392.6994,-1096.7874 389.014,-1092.866 393,-1093.2 393,-1093.2 393,-1093.2 389.014,-1092.866 393.3006,-1089.6126 385.0279,-1092.532 385.0279,-1092.532"/>
<ellipse fill="none" stroke="#000000" cx="381.8391" cy="-1092.2648" rx="3.2" ry="3.2"/>
</g>
<!-- prison_supported -->
<g id="node2" class="node">
<title>prison_supported</title>
<g id="a_node2"><a xlink:href="../../tables/prison_supported.html" xlink:title="prison_supported" target="_top">
<polygon fill="#ffffff" stroke="transparent" points="8,-201.2 8,-419.2 320,-419.2 320,-201.2 8,-201.2"/>
<polygon fill="#f5f5f5" stroke="transparent" points="8,-396.2 8,-419.2 320,-419.2 320,-396.2 8,-396.2"/>
<polygon fill="none" stroke="#000000" points="8,-396.2 8,-419.2 320,-419.2 320,-396.2 8,-396.2"/>
<text text-anchor="start" x="13" y="-404.8" font-family="Helvetica,sans-Serif" font-weight="bold" font-size="11.00" fill="#000000">prison_supported</text>
<text text-anchor="start" x="285.0437" y="-404.3" font-family="Helvetica,sans-Serif" font-size="11.00" fill="#000000">[table]</text>
<polygon fill="none" stroke="#000000" points="8,-374.2 8,-396.2 320,-396.2 320,-374.2 8,-374.2"/>
<image xlink:href="../../images/primaryKeys.png" width="11px" height="12px" preserveAspectRatio="xMinYMin meet" x="13" y="-391.2"/>
<text text-anchor="start" x="28" y="-381.3" font-family="Helvetica,sans-Serif" font-size="11.00" fill="#000000">prison_id</text>
<polygon fill="none" stroke="#000000" points="8,-352.2 8,-374.2 320,-374.2 320,-352.2 8,-352.2"/>
<text text-anchor="start" x="28" y="-359.3" font-family="Helvetica,sans-Serif" font-size="11.00" fill="#000000">auto_allocate</text>
<polygon fill="none" stroke="#000000" points="8,-330.2 8,-352.2 320,-352.2 320,-330.2 8,-330.2"/>
<text text-anchor="start" x="28" y="-337.3" font-family="Helvetica,sans-Serif" font-size="11.00" fill="#000000">migrated</text>
<polygon fill="none" stroke="#000000" points="8,-308.2 8,-330.2 320,-330.2 320,-308.2 8,-308.2"/>
<text text-anchor="start" x="28" y="-315.3" font-family="Helvetica,sans-Serif" font-size="11.00" fill="#000000">migrated_date_time</text>
<polygon fill="none" stroke="#000000" points="8,-286.2 8,-308.2 320,-308.2 320,-286.2 8,-286.2"/>
<text text-anchor="start" x="28" y="-293.3" font-family="Helvetica,sans-Serif" font-size="11.00" fill="#000000">capacity_tier_1</text>
<polygon fill="none" stroke="#000000" points="8,-264.2 8,-286.2 320,-286.2 320,-264.2 8,-264.2"/>
<text text-anchor="start" x="28" y="-271.3" font-family="Helvetica,sans-Serif" font-size="11.00" fill="#000000">capacity_tier_2</text>
<polygon fill="none" stroke="#000000" points="8,-242.2 8,-264.2 320,-264.2 320,-242.2 8,-242.2"/>
<text text-anchor="start" x="28" y="-249.3" font-family="Helvetica,sans-Serif" font-size="11.00" fill="#000000">kw_session_freq_weeks</text>
<polygon fill="none" stroke="#000000" points="8,-220.2 8,-242.2 320,-242.2 320,-220.2 8,-220.2"/>
<text text-anchor="start" x="28" y="-227.3" font-family="Helvetica,sans-Serif" font-size="11.00" fill="#000000">has_prisoners_with_high_complexity_needs</text>
<polygon fill="#ffffff" stroke="transparent" points="8,-201.2 8,-220.2 158,-220.2 158,-201.2 8,-201.2"/>
<polygon fill="none" stroke="#000000" points="8,-201.2 8,-220.2 158,-220.2 158,-201.2 8,-201.2"/>
<text text-anchor="start" x="11" y="-207.3" font-family="Helvetica,sans-Serif" font-size="11.00" fill="#000000"> &#160;</text>
<polygon fill="#ffffff" stroke="transparent" points="158,-201.2 158,-220.2 239,-220.2 239,-201.2 158,-201.2"/>
<polygon fill="none" stroke="#000000" points="158,-201.2 158,-220.2 239,-220.2 239,-201.2 158,-201.2"/>
<text text-anchor="start" x="229.8862" y="-207.3" font-family="Helvetica,sans-Serif" font-size="11.00" fill="#000000"> &#160;</text>
<polygon fill="#ffffff" stroke="transparent" points="239,-201.2 239,-220.2 320,-220.2 320,-201.2 239,-201.2"/>
<polygon fill="none" stroke="#000000" points="239,-201.2 239,-220.2 320,-220.2 320,-201.2 239,-201.2"/>
<text text-anchor="start" x="310.8862" y="-207.3" font-family="Helvetica,sans-Serif" font-size="11.00" fill="#000000"> &#160;</text>
</a>
</g>
</g>
<!-- keyworker_stats -->
<g id="node3" class="node">
<title>keyworker_stats</title>
<g id="a_node3"><a xlink:href="../../tables/keyworker_stats.html" xlink:title="keyworker_stats" target="_top">
<polygon fill="#ffffff" stroke="transparent" points="369,-38.2 369,-322.2 583,-322.2 583,-38.2 369,-38.2"/>
<polygon fill="#f5f5f5" stroke="transparent" points="369,-299.2 369,-322.2 583,-322.2 583,-299.2 369,-299.2"/>
<polygon fill="none" stroke="#000000" points="369,-299.2 369,-322.2 583,-322.2 583,-299.2 369,-299.2"/>
<text text-anchor="start" x="374" y="-307.8" font-family="Helvetica,sans-Serif" font-weight="bold" font-size="11.00" fill="#000000">keyworker_stats</text>
<text text-anchor="start" x="548.0437" y="-307.3" font-family="Helvetica,sans-Serif" font-size="11.00" fill="#000000">[table]</text>
<polygon fill="none" stroke="#000000" points="369,-277.2 369,-299.2 583,-299.2 583,-277.2 369,-277.2"/>
<image xlink:href="../../images/primaryKeys.png" width="11px" height="12px" preserveAspectRatio="xMinYMin meet" x="374" y="-294.2"/>
<text text-anchor="start" x="389" y="-284.3" font-family="Helvetica,sans-Serif" font-size="11.00" fill="#000000">keyworker_stats_id</text>
<polygon fill="#ffffff" stroke="transparent" points="369,-255.2 369,-277.2 583,-277.2 583,-255.2 369,-255.2"/>
<polygon fill="none" stroke="#000000" points="369,-255.2 369,-277.2 583,-277.2 583,-255.2 369,-255.2"/>
<image xlink:href="../../images/foreignKeys.png" width="11px" height="12px" preserveAspectRatio="xMinYMin meet" x="374" y="-272.2"/>
<text text-anchor="start" x="389" y="-262.3" font-family="Helvetica,sans-Serif" font-size="11.00" fill="#000000">prison_id</text>
<polygon fill="#ffffff" stroke="transparent" points="369,-233.2 369,-255.2 583,-255.2 583,-233.2 369,-233.2"/>
<polygon fill="none" stroke="#000000" points="369,-233.2 369,-255.2 583,-255.2 583,-233.2 369,-233.2"/>
<text text-anchor="start" x="389" y="-240.3" font-family="Helvetica,sans-Serif" font-size="11.00" fill="#000000">snapshot_date</text>
<polygon fill="none" stroke="#000000" points="369,-211.2 369,-233.2 583,-233.2 583,-211.2 369,-211.2"/>
<text text-anchor="start" x="389" y="-218.3" font-family="Helvetica,sans-Serif" font-size="11.00" fill="#000000">num_prisoners_assigned_kw</text>
<polygon fill="none" stroke="#000000" points="369,-189.2 369,-211.2 583,-211.2 583,-189.2 369,-189.2"/>
<text text-anchor="start" x="389" y="-196.3" font-family="Helvetica,sans-Serif" font-size="11.00" fill="#000000">total_num_prisoners</text>
<polygon fill="none" stroke="#000000" points="369,-167.2 369,-189.2 583,-189.2 583,-167.2 369,-167.2"/>
<text text-anchor="start" x="389" y="-174.3" font-family="Helvetica,sans-Serif" font-size="11.00" fill="#000000">num_kw_sessions</text>
<polygon fill="none" stroke="#000000" points="369,-145.2 369,-167.2 583,-167.2 583,-145.2 369,-145.2"/>
<text text-anchor="start" x="389" y="-152.3" font-family="Helvetica,sans-Serif" font-size="11.00" fill="#000000">num_kw_entries</text>
<polygon fill="none" stroke="#000000" points="369,-123.2 369,-145.2 583,-145.2 583,-123.2 369,-123.2"/>
<text text-anchor="start" x="389" y="-130.3" font-family="Helvetica,sans-Serif" font-size="11.00" fill="#000000">num_active_keyworkers</text>
<polygon fill="none" stroke="#000000" points="369,-101.2 369,-123.2 583,-123.2 583,-101.2 369,-101.2"/>
<text text-anchor="start" x="389" y="-108.3" font-family="Helvetica,sans-Serif" font-size="11.00" fill="#000000">recpt_to_alloc_days</text>
<polygon fill="none" stroke="#000000" points="369,-79.2 369,-101.2 583,-101.2 583,-79.2 369,-79.2"/>
<text text-anchor="start" x="389" y="-86.3" font-family="Helvetica,sans-Serif" font-size="11.00" fill="#000000">recpt_to_kw_session_days</text>
<polygon fill="none" stroke="#000000" points="369,-57.2 369,-79.2 583,-79.2 583,-57.2 369,-57.2"/>
<text text-anchor="start" x="389" y="-64.3" font-family="Helvetica,sans-Serif" font-size="11.00" fill="#000000">total_num_eligible_prisoners</text>
<polygon fill="#ffffff" stroke="transparent" points="369,-38.2 369,-57.2 470,-57.2 470,-38.2 369,-38.2"/>
<polygon fill="none" stroke="#000000" points="369,-38.2 369,-57.2 470,-57.2 470,-38.2 369,-38.2"/>
<text text-anchor="start" x="372" y="-44.3" font-family="Helvetica,sans-Serif" font-size="11.00" fill="#000000"> &#160;</text>
<polygon fill="#ffffff" stroke="transparent" points="470,-38.2 470,-57.2 526,-57.2 526,-38.2 470,-38.2"/>
<polygon fill="none" stroke="#000000" points="470,-38.2 470,-57.2 526,-57.2 526,-38.2 470,-38.2"/>
<text text-anchor="start" x="516.8862" y="-44.3" font-family="Helvetica,sans-Serif" font-size="11.00" fill="#000000"> &#160;</text>
<polygon fill="#ffffff" stroke="transparent" points="526,-38.2 526,-57.2 583,-57.2 583,-38.2 526,-38.2"/>
<polygon fill="none" stroke="#000000" points="526,-38.2 526,-57.2 583,-57.2 583,-38.2 526,-38.2"/>
<text text-anchor="start" x="573.8862" y="-44.3" font-family="Helvetica,sans-Serif" font-size="11.00" fill="#000000"> &#160;</text>
</a>
</g>
</g>
<!-- keyworker_stats&#45;&gt;prison_supported -->
<g id="edge3" class="edge">
<title>keyworker_stats:w&#45;&gt;prison_supported:e</title>
<path fill="none" stroke="#000000" stroke-dasharray="5,2" d="M354.7058,-269.8919C324.2333,-289.9778 371.1646,-385.2 320,-385.2"/>
<polygon fill="#000000" stroke="#000000" points="361.2542,-268.2006 369.9003,-269.6856 365.1271,-267.2003 369,-266.2 369,-266.2 369,-266.2 365.1271,-267.2003 368.0997,-262.7144 361.2542,-268.2006 361.2542,-268.2006"/>
<ellipse fill="none" stroke="#000000" cx="358.1559" cy="-269.0009" rx="3.2" ry="3.2"/>
</g>
<!-- offender_key_worker -->
<g id="node5" class="node">
<title>offender_key_worker</title>
<g id="a_node5"><a xlink:href="../../tables/offender_key_worker.html" xlink:title="offender_key_worker" target="_top">
<polygon fill="#ffffff" stroke="transparent" points="386,-343.2 386,-715.2 566,-715.2 566,-343.2 386,-343.2"/>
<polygon fill="#f5f5f5" stroke="transparent" points="386,-692.2 386,-715.2 566,-715.2 566,-692.2 386,-692.2"/>
<polygon fill="none" stroke="#000000" points="386,-692.2 386,-715.2 566,-715.2 566,-692.2 386,-692.2"/>
<text text-anchor="start" x="391" y="-700.8" font-family="Helvetica,sans-Serif" font-weight="bold" font-size="11.00" fill="#000000">offender_key_worker</text>
<text text-anchor="start" x="531.5219" y="-700.3" font-family="Helvetica,sans-Serif" font-size="11.00" fill="#000000">[table]</text>
<polygon fill="none" stroke="#000000" points="386,-670.2 386,-692.2 566,-692.2 566,-670.2 386,-670.2"/>
<image xlink:href="../../images/primaryKeys.png" width="11px" height="12px" preserveAspectRatio="xMinYMin meet" x="391" y="-687.2"/>
<text text-anchor="start" x="409" y="-677.3" font-family="Helvetica,sans-Serif" font-size="11.00" fill="#000000">offender_keyworker_id</text>
<polygon fill="#ffffff" stroke="transparent" points="386,-648.2 386,-670.2 566,-670.2 566,-648.2 386,-648.2"/>
<polygon fill="none" stroke="#000000" points="386,-648.2 386,-670.2 566,-670.2 566,-648.2 386,-648.2"/>
<text text-anchor="start" x="409" y="-655.3" font-family="Helvetica,sans-Serif" font-size="11.00" fill="#000000">offender_no</text>
<polygon fill="#ffffff" stroke="transparent" points="386,-626.2 386,-648.2 566,-648.2 566,-626.2 386,-626.2"/>
<polygon fill="none" stroke="#000000" points="386,-626.2 386,-648.2 566,-648.2 566,-626.2 386,-626.2"/>
<image xlink:href="../../images/foreignKeys.png" width="11px" height="12px" preserveAspectRatio="xMinYMin meet" x="391" y="-643.2"/>
<text text-anchor="start" x="409" y="-633.3" font-family="Helvetica,sans-Serif" font-size="11.00" fill="#000000">staff_id</text>
<polygon fill="#ffffff" stroke="transparent" points="386,-604.2 386,-626.2 566,-626.2 566,-604.2 386,-604.2"/>
<polygon fill="none" stroke="#000000" points="386,-604.2 386,-626.2 566,-626.2 566,-604.2 386,-604.2"/>
<text text-anchor="start" x="409" y="-611.3" font-family="Helvetica,sans-Serif" font-size="11.00" fill="#000000">assigned_date_time</text>
<polygon fill="none" stroke="#000000" points="386,-582.2 386,-604.2 566,-604.2 566,-582.2 386,-582.2"/>
<text text-anchor="start" x="409" y="-589.3" font-family="Helvetica,sans-Serif" font-size="11.00" fill="#000000">active_flag</text>
<polygon fill="none" stroke="#000000" points="386,-560.2 386,-582.2 566,-582.2 566,-560.2 386,-560.2"/>
<text text-anchor="start" x="409" y="-567.3" font-family="Helvetica,sans-Serif" font-size="11.00" fill="#000000">alloc_reason</text>
<polygon fill="none" stroke="#000000" points="386,-538.2 386,-560.2 566,-560.2 566,-538.2 386,-538.2"/>
<text text-anchor="start" x="409" y="-545.3" font-family="Helvetica,sans-Serif" font-size="11.00" fill="#000000">alloc_type</text>
<polygon fill="none" stroke="#000000" points="386,-516.2 386,-538.2 566,-538.2 566,-516.2 386,-516.2"/>
<text text-anchor="start" x="409" y="-523.3" font-family="Helvetica,sans-Serif" font-size="11.00" fill="#000000">user_id</text>
<polygon fill="#ffffff" stroke="transparent" points="386,-494.2 386,-516.2 566,-516.2 566,-494.2 386,-494.2"/>
<polygon fill="none" stroke="#000000" points="386,-494.2 386,-516.2 566,-516.2 566,-494.2 386,-494.2"/>
<image xlink:href="../../images/foreignKeys.png" width="11px" height="12px" preserveAspectRatio="xMinYMin meet" x="391" y="-511.2"/>
<text text-anchor="start" x="409" y="-501.3" font-family="Helvetica,sans-Serif" font-size="11.00" fill="#000000">prison_id</text>
<polygon fill="none" stroke="#000000" points="386,-472.2 386,-494.2 566,-494.2 566,-472.2 386,-472.2"/>
<text text-anchor="start" x="409" y="-479.3" font-family="Helvetica,sans-Serif" font-size="11.00" fill="#000000">expiry_date_time</text>
<polygon fill="none" stroke="#000000" points="386,-450.2 386,-472.2 566,-472.2 566,-450.2 386,-450.2"/>
<text text-anchor="start" x="409" y="-457.3" font-family="Helvetica,sans-Serif" font-size="11.00" fill="#000000">dealloc_reason</text>
<polygon fill="none" stroke="#000000" points="386,-428.2 386,-450.2 566,-450.2 566,-428.2 386,-428.2"/>
<text text-anchor="start" x="409" y="-435.3" font-family="Helvetica,sans-Serif" font-size="11.00" fill="#000000">create_datetime</text>
<polygon fill="none" stroke="#000000" points="386,-406.2 386,-428.2 566,-428.2 566,-406.2 386,-406.2"/>
<text text-anchor="start" x="409" y="-413.3" font-family="Helvetica,sans-Serif" font-size="11.00" fill="#000000">create_user_id</text>
<polygon fill="none" stroke="#000000" points="386,-384.2 386,-406.2 566,-406.2 566,-384.2 386,-384.2"/>
<text text-anchor="start" x="409" y="-391.3" font-family="Helvetica,sans-Serif" font-size="11.00" fill="#000000">modify_datetime</text>
<polygon fill="none" stroke="#000000" points="386,-362.2 386,-384.2 566,-384.2 566,-362.2 386,-362.2"/>
<text text-anchor="start" x="409" y="-369.3" font-family="Helvetica,sans-Serif" font-size="11.00" fill="#000000">modify_user_id</text>
<polygon fill="#ffffff" stroke="transparent" points="386,-343.2 386,-362.2 470,-362.2 470,-343.2 386,-343.2"/>
<polygon fill="none" stroke="#000000" points="386,-343.2 386,-362.2 470,-362.2 470,-343.2 386,-343.2"/>
<text text-anchor="start" x="389" y="-349.3" font-family="Helvetica,sans-Serif" font-size="11.00" fill="#000000"> &#160;</text>
<polygon fill="#ffffff" stroke="transparent" points="470,-343.2 470,-362.2 518,-362.2 518,-343.2 470,-343.2"/>
<polygon fill="none" stroke="#000000" points="470,-343.2 470,-362.2 518,-362.2 518,-343.2 470,-343.2"/>
<text text-anchor="start" x="508.8862" y="-349.3" font-family="Helvetica,sans-Serif" font-size="11.00" fill="#000000"> &#160;</text>
<polygon fill="#ffffff" stroke="transparent" points="518,-343.2 518,-362.2 566,-362.2 566,-343.2 518,-343.2"/>
<polygon fill="none" stroke="#000000" points="518,-343.2 518,-362.2 566,-362.2 566,-343.2 518,-343.2"/>
<text text-anchor="start" x="556.8862" y="-349.3" font-family="Helvetica,sans-Serif" font-size="11.00" fill="#000000"> &#160;</text>
</a>
</g>
</g>
<!-- offender_key_worker&#45;&gt;prison_supported -->
<g id="edge4" class="edge">
<title>offender_key_worker:w&#45;&gt;prison_supported:e</title>
<path fill="none" stroke="#000000" stroke-dasharray="5,2" d="M371.7633,-502.2337C334.5578,-483.7547 375.1614,-385.2 320,-385.2"/>
<polygon fill="#000000" stroke="#000000" points="378.1682,-503.5682 385.2657,-508.7243 382.0841,-504.3841 386,-505.2 386,-505.2 386,-505.2 382.0841,-504.3841 386.7343,-501.6757 378.1682,-503.5682 378.1682,-503.5682"/>
<ellipse fill="none" stroke="#000000" cx="375.0355" cy="-502.9154" rx="3.2" ry="3.2"/>
</g>
<!-- offender_key_worker&#45;&gt;key_worker -->
<g id="edge5" class="edge">
<title>offender_key_worker:w&#45;&gt;key_worker:e</title>
<path fill="none" stroke="#000000" stroke-dasharray="5,2" d="M371.5948,-638.4744C277.7031,-656.2582 352.5481,-854.2 242,-854.2"/>
<polygon fill="#000000" stroke="#000000" points="378.0311,-637.905 386.3173,-640.786 382.0156,-637.5525 386,-637.2 386,-637.2 386,-637.2 382.0156,-637.5525 385.6827,-633.614 378.0311,-637.905 378.0311,-637.905"/>
<ellipse fill="none" stroke="#000000" cx="374.8436" cy="-638.187" rx="3.2" ry="3.2"/>
</g>
<!-- keyworker_entry -->
<g id="node6" class="node">
<title>keyworker_entry</title>
<g id="a_node6"><a xlink:href="../../tables/keyworker_entry.html" xlink:title="keyworker_entry" target="_top">
<polygon fill="#ffffff" stroke="transparent" points="400,-736.2 400,-954.2 552,-954.2 552,-736.2 400,-736.2"/>
<polygon fill="#f5f5f5" stroke="transparent" points="400,-931.2 400,-954.2 552,-954.2 552,-931.2 400,-931.2"/>
<polygon fill="none" stroke="#000000" points="400,-931.2 400,-954.2 552,-954.2 552,-931.2 400,-931.2"/>
<text text-anchor="start" x="405" y="-939.8" font-family="Helvetica,sans-Serif" font-weight="bold" font-size="11.00" fill="#000000">keyworker_entry</text>
<text text-anchor="start" x="517.5219" y="-939.3" font-family="Helvetica,sans-Serif" font-size="11.00" fill="#000000">[table]</text>
<polygon fill="none" stroke="#000000" points="400,-909.2 400,-931.2 552,-931.2 552,-909.2 400,-909.2"/>
<image xlink:href="../../images/primaryKeys.png" width="11px" height="12px" preserveAspectRatio="xMinYMin meet" x="405" y="-926.2"/>
<text text-anchor="start" x="428" y="-916.3" font-family="Helvetica,sans-Serif" font-size="11.00" fill="#000000">id</text>
<polygon fill="#ffffff" stroke="transparent" points="400,-887.2 400,-909.2 552,-909.2 552,-887.2 400,-887.2"/>
<polygon fill="none" stroke="#000000" points="400,-887.2 400,-909.2 552,-909.2 552,-887.2 400,-887.2"/>
<text text-anchor="start" x="428" y="-894.3" font-family="Helvetica,sans-Serif" font-size="11.00" fill="#000000">occurred_at</text>
<polygon fill="#ffffff" stroke="transparent" points="400,-865.2 400,-887.2 552,-887.2 552,-865.2 400,-865.2"/>
<polygon fill="none" stroke="#000000" points="400,-865.2 400,-887.2 552,-887.2 552,-865.2 400,-865.2"/>
<text text-anchor="start" x="428" y="-872.3" font-family="Helvetica,sans-Serif" font-size="11.00" fill="#000000">person_identifier</text>
<polygon fill="#ffffff" stroke="transparent" points="400,-843.2 400,-865.2 552,-865.2 552,-843.2 400,-843.2"/>
<polygon fill="none" stroke="#000000" points="400,-843.2 400,-865.2 552,-865.2 552,-843.2 400,-843.2"/>
<image xlink:href="../../images/foreignKeys.png" width="11px" height="12px" preserveAspectRatio="xMinYMin meet" x="405" y="-860.2"/>
<text text-anchor="start" x="428" y="-850.3" font-family="Helvetica,sans-Serif" font-size="11.00" fill="#000000">staff_id</text>
<polygon fill="none" stroke="#000000" points="400,-821.2 400,-843.2 552,-843.2 552,-821.2 400,-821.2"/>
<text text-anchor="start" x="428" y="-828.3" font-family="Helvetica,sans-Serif" font-size="11.00" fill="#000000">staff_username</text>
<polygon fill="#ffffff" stroke="transparent" points="400,-799.2 400,-821.2 552,-821.2 552,-799.2 400,-799.2"/>
<polygon fill="none" stroke="#000000" points="400,-799.2 400,-821.2 552,-821.2 552,-799.2 400,-799.2"/>
<text text-anchor="start" x="428" y="-806.3" font-family="Helvetica,sans-Serif" font-size="11.00" fill="#000000">prison_code</text>
<polygon fill="none" stroke="#000000" points="400,-777.2 400,-799.2 552,-799.2 552,-777.2 400,-777.2"/>
<text text-anchor="start" x="428" y="-784.3" font-family="Helvetica,sans-Serif" font-size="11.00" fill="#000000">created_at</text>
<polygon fill="none" stroke="#000000" points="400,-755.2 400,-777.2 552,-777.2 552,-755.2 400,-755.2"/>
<text text-anchor="start" x="428" y="-762.3" font-family="Helvetica,sans-Serif" font-size="11.00" fill="#000000">version</text>
<polygon fill="#ffffff" stroke="transparent" points="400,-736.2 400,-755.2 470,-755.2 470,-736.2 400,-736.2"/>
<polygon fill="none" stroke="#000000" points="400,-736.2 400,-755.2 470,-755.2 470,-736.2 400,-736.2"/>
<text text-anchor="start" x="403" y="-742.3" font-family="Helvetica,sans-Serif" font-size="11.00" fill="#000000"> &#160;</text>
<polygon fill="#ffffff" stroke="transparent" points="470,-736.2 470,-755.2 511,-755.2 511,-736.2 470,-736.2"/>
<polygon fill="none" stroke="#000000" points="470,-736.2 470,-755.2 511,-755.2 511,-736.2 470,-736.2"/>
<text text-anchor="start" x="501.8862" y="-742.3" font-family="Helvetica,sans-Serif" font-size="11.00" fill="#000000"> &#160;</text>
<polygon fill="#ffffff" stroke="transparent" points="511,-736.2 511,-755.2 552,-755.2 552,-736.2 511,-736.2"/>
<polygon fill="none" stroke="#000000" points="511,-736.2 511,-755.2 552,-755.2 552,-736.2 511,-736.2"/>
<text text-anchor="start" x="542.8862" y="-742.3" font-family="Helvetica,sans-Serif" font-size="11.00" fill="#000000"> &#160;</text>
</a>
</g>
</g>
<!-- keyworker_entry&#45;&gt;key_worker -->
<g id="edge1" class="edge">
<title>keyworker_entry:w&#45;&gt;key_worker:e</title>
<path fill="none" stroke="#000000" stroke-dasharray="5,2" d="M385.5614,-854.2C326.9654,-854.2 307.1476,-854.2 242,-854.2"/>
<polygon fill="#000000" stroke="#000000" points="392,-854.2001 400,-857.8 396,-854.2 400,-854.2 400,-854.2 400,-854.2 396,-854.2 400,-850.6 392,-854.2001 392,-854.2001"/>
<ellipse fill="none" stroke="#000000" cx="388.8" cy="-854.2001" rx="3.2" ry="3.2"/>
</g>
</g>
</svg>
