<?xml version="1.0" encoding="UTF-8" standalone="no"?>
<!DOCTYPE svg PUBLIC "-//W3C//DTD SVG 1.1//EN"
 "http://www.w3.org/Graphics/SVG/1.1/DTD/svg11.dtd">
<!-- Generated by graphviz version 2.40.1 (20161225.0304)
 -->
<!-- Title: largeRelationshipsDiagram Pages: 1 -->
<svg width="593pt" height="1598pt"
 viewBox="0.00 0.00 593.00 1598.20" xmlns="http://www.w3.org/2000/svg" xmlns:xlink="http://www.w3.org/1999/xlink">
<g id="graph0" class="graph" transform="scale(1 1) rotate(0) translate(4 1594.2)">
<title>largeRelationshipsDiagram</title>
<polygon fill="#ffffff" stroke="transparent" points="-4,4 -4,-1594.2 589,-1594.2 589,4 -4,4"/>
<text text-anchor="middle" x="72.4936" y="-7.3" font-family="Helvetica,sans-Serif" font-size="11.00" fill="#000000">Generated by SchemaSpy</text>
<!-- prison_configuration_audit -->
<g id="node1" class="node">
<title>prison_configuration_audit</title>
<g id="a_node1"><a xlink:href="../../tables/prison_configuration_audit.html" xlink:title="prison_configuration_audit" target="_top">
<polygon fill="#ffffff" stroke="transparent" points="200,-343.2 200,-759.2 577,-759.2 577,-343.2 200,-343.2"/>
<polygon fill="#f5f5f5" stroke="transparent" points="200.5,-736.2 200.5,-759.2 577.5,-759.2 577.5,-736.2 200.5,-736.2"/>
<polygon fill="none" stroke="#000000" points="200.5,-736.2 200.5,-759.2 577.5,-759.2 577.5,-736.2 200.5,-736.2"/>
<text text-anchor="start" x="205.5" y="-744.8" font-family="Helvetica,sans-Serif" font-weight="bold" font-size="11.00" fill="#000000">prison_configuration_audit</text>
<text text-anchor="start" x="542.5437" y="-744.3" font-family="Helvetica,sans-Serif" font-size="11.00" fill="#000000">[table]</text>
<polygon fill="none" stroke="#000000" points="200.5,-714.2 200.5,-736.2 577.5,-736.2 577.5,-714.2 200.5,-714.2"/>
<image xlink:href="../../images/primaryKeys.png" width="11px" height="12px" preserveAspectRatio="xMinYMin meet" x="205.5" y="-731.2"/>
<text text-anchor="start" x="220.5" y="-721.3" font-family="Helvetica,sans-Serif" font-size="11.00" fill="#000000">rev_id</text>
<polygon fill="none" stroke="#000000" points="200.5,-692.2 200.5,-714.2 577.5,-714.2 577.5,-692.2 200.5,-692.2"/>
<text text-anchor="start" x="220.5" y="-699.3" font-family="Helvetica,sans-Serif" font-size="11.00" fill="#000000">rev_type</text>
<polygon fill="none" stroke="#000000" points="200.5,-670.2 200.5,-692.2 577.5,-692.2 577.5,-670.2 200.5,-670.2"/>
<image xlink:href="../../images/primaryKeys.png" width="11px" height="12px" preserveAspectRatio="xMinYMin meet" x="205.5" y="-687.2"/>
<text text-anchor="start" x="220.5" y="-677.3" font-family="Helvetica,sans-Serif" font-size="11.00" fill="#000000">id</text>
<polygon fill="none" stroke="#000000" points="200.5,-648.2 200.5,-670.2 577.5,-670.2 577.5,-648.2 200.5,-648.2"/>
<image xlink:href="../../images/foreignKeys.png" width="11px" height="12px" preserveAspectRatio="xMinYMin meet" x="205.5" y="-665.2"/>
<text text-anchor="start" x="220.5" y="-655.3" font-family="Helvetica,sans-Serif" font-size="11.00" fill="#000000">prison_code</text>
<polygon fill="none" stroke="#000000" points="200.5,-626.2 200.5,-648.2 577.5,-648.2 577.5,-626.2 200.5,-626.2"/>
<text text-anchor="start" x="220.5" y="-633.3" font-family="Helvetica,sans-Serif" font-size="11.00" fill="#000000">is_enabled</text>
<polygon fill="none" stroke="#000000" points="200.5,-604.2 200.5,-626.2 577.5,-626.2 577.5,-604.2 200.5,-604.2"/>
<text text-anchor="start" x="220.5" y="-611.3" font-family="Helvetica,sans-Serif" font-size="11.00" fill="#000000">capacity</text>
<polygon fill="none" stroke="#000000" points="200.5,-582.2 200.5,-604.2 577.5,-604.2 577.5,-582.2 200.5,-582.2"/>
<text text-anchor="start" x="220.5" y="-589.3" font-family="Helvetica,sans-Serif" font-size="11.00" fill="#000000">maximum_capacity</text>
<polygon fill="none" stroke="#000000" points="200.5,-560.2 200.5,-582.2 577.5,-582.2 577.5,-560.2 200.5,-560.2"/>
<text text-anchor="start" x="220.5" y="-567.3" font-family="Helvetica,sans-Serif" font-size="11.00" fill="#000000">allow_auto_allocation</text>
<polygon fill="none" stroke="#000000" points="200.5,-538.2 200.5,-560.2 577.5,-560.2 577.5,-538.2 200.5,-538.2"/>
<text text-anchor="start" x="220.5" y="-545.3" font-family="Helvetica,sans-Serif" font-size="11.00" fill="#000000">frequency_in_weeks</text>
<polygon fill="none" stroke="#000000" points="200.5,-516.2 200.5,-538.2 577.5,-538.2 577.5,-516.2 200.5,-516.2"/>
<text text-anchor="start" x="220.5" y="-523.3" font-family="Helvetica,sans-Serif" font-size="11.00" fill="#000000">has_prisoners_with_high_complexity_needs</text>
<polygon fill="none" stroke="#000000" points="200.5,-494.2 200.5,-516.2 577.5,-516.2 577.5,-494.2 200.5,-494.2"/>
<image xlink:href="../../images/foreignKeys.png" width="11px" height="12px" preserveAspectRatio="xMinYMin meet" x="205.5" y="-511.2"/>
<text text-anchor="start" x="220.5" y="-501.3" font-family="Helvetica,sans-Serif" font-size="11.00" fill="#000000">policy_code</text>
<polygon fill="none" stroke="#000000" points="200.5,-472.2 200.5,-494.2 577.5,-494.2 577.5,-472.2 200.5,-472.2"/>
<text text-anchor="start" x="220.5" y="-479.3" font-family="Helvetica,sans-Serif" font-size="11.00" fill="#000000">is_enabled_modified</text>
<polygon fill="none" stroke="#000000" points="200.5,-450.2 200.5,-472.2 577.5,-472.2 577.5,-450.2 200.5,-450.2"/>
<text text-anchor="start" x="220.5" y="-457.3" font-family="Helvetica,sans-Serif" font-size="11.00" fill="#000000">capacity_modified</text>
<polygon fill="none" stroke="#000000" points="200.5,-428.2 200.5,-450.2 577.5,-450.2 577.5,-428.2 200.5,-428.2"/>
<text text-anchor="start" x="220.5" y="-435.3" font-family="Helvetica,sans-Serif" font-size="11.00" fill="#000000">maximum_capacity_modified</text>
<polygon fill="none" stroke="#000000" points="200.5,-406.2 200.5,-428.2 577.5,-428.2 577.5,-406.2 200.5,-406.2"/>
<text text-anchor="start" x="220.5" y="-413.3" font-family="Helvetica,sans-Serif" font-size="11.00" fill="#000000">allow_auto_allocation_modified</text>
<polygon fill="none" stroke="#000000" points="200.5,-384.2 200.5,-406.2 577.5,-406.2 577.5,-384.2 200.5,-384.2"/>
<text text-anchor="start" x="220.5" y="-391.3" font-family="Helvetica,sans-Serif" font-size="11.00" fill="#000000">frequency_in_weeks_modified</text>
<polygon fill="none" stroke="#000000" points="200.5,-362.2 200.5,-384.2 577.5,-384.2 577.5,-362.2 200.5,-362.2"/>
<text text-anchor="start" x="220.5" y="-369.3" font-family="Helvetica,sans-Serif" font-size="11.00" fill="#000000">has_prisoners_with_high_complexity_needs_modified</text>
<polygon fill="#ffffff" stroke="transparent" points="200.5,-343.2 200.5,-362.2 387.5,-362.2 387.5,-343.2 200.5,-343.2"/>
<polygon fill="none" stroke="#000000" points="200.5,-343.2 200.5,-362.2 387.5,-362.2 387.5,-343.2 200.5,-343.2"/>
<text text-anchor="start" x="203.5" y="-349.3" font-family="Helvetica,sans-Serif" font-size="11.00" fill="#000000">&lt; 1</text>
<polygon fill="#ffffff" stroke="transparent" points="387.5,-343.2 387.5,-362.2 482.5,-362.2 482.5,-343.2 387.5,-343.2"/>
<polygon fill="none" stroke="#000000" points="387.5,-343.2 387.5,-362.2 482.5,-362.2 482.5,-343.2 387.5,-343.2"/>
<text text-anchor="start" x="473.3862" y="-349.3" font-family="Helvetica,sans-Serif" font-size="11.00" fill="#000000"> &#160;</text>
<polygon fill="#ffffff" stroke="transparent" points="482.5,-343.2 482.5,-362.2 577.5,-362.2 577.5,-343.2 482.5,-343.2"/>
<polygon fill="none" stroke="#000000" points="482.5,-343.2 482.5,-362.2 577.5,-362.2 577.5,-343.2 482.5,-343.2"/>
<text text-anchor="start" x="568.3862" y="-349.3" font-family="Helvetica,sans-Serif" font-size="11.00" fill="#000000"> &#160;</text>
</a>
</g>
</g>
<!-- audit_revision -->
<g id="node4" class="node">
<title>audit_revision</title>
<g id="a_node4"><a xlink:href="../../tables/audit_revision.html" xlink:title="audit_revision" target="_top">
<polygon fill="#ffffff" stroke="transparent" points="12.5,-388.2 12.5,-540.2 146.5,-540.2 146.5,-388.2 12.5,-388.2"/>
<polygon fill="#f5f5f5" stroke="transparent" points="12.5,-517.2 12.5,-540.2 146.5,-540.2 146.5,-517.2 12.5,-517.2"/>
<polygon fill="none" stroke="#000000" points="12.5,-517.2 12.5,-540.2 146.5,-540.2 146.5,-517.2 12.5,-517.2"/>
<text text-anchor="start" x="17.5" y="-525.8" font-family="Helvetica,sans-Serif" font-weight="bold" font-size="11.00" fill="#000000">audit_revision</text>
<text text-anchor="start" x="112.0219" y="-525.3" font-family="Helvetica,sans-Serif" font-size="11.00" fill="#000000">[table]</text>
<polygon fill="none" stroke="#000000" points="12.5,-495.2 12.5,-517.2 146.5,-517.2 146.5,-495.2 12.5,-495.2"/>
<image xlink:href="../../images/primaryKeys.png" width="11px" height="12px" preserveAspectRatio="xMinYMin meet" x="17.5" y="-512.2"/>
<text text-anchor="start" x="32.5" y="-502.3" font-family="Helvetica,sans-Serif" font-size="11.00" fill="#000000">id</text>
<polygon fill="none" stroke="#000000" points="12.5,-473.2 12.5,-495.2 146.5,-495.2 146.5,-473.2 12.5,-473.2"/>
<text text-anchor="start" x="32.5" y="-480.3" font-family="Helvetica,sans-Serif" font-size="11.00" fill="#000000">timestamp</text>
<polygon fill="none" stroke="#000000" points="12.5,-451.2 12.5,-473.2 146.5,-473.2 146.5,-451.2 12.5,-451.2"/>
<text text-anchor="start" x="32.5" y="-458.3" font-family="Helvetica,sans-Serif" font-size="11.00" fill="#000000">username</text>
<polygon fill="none" stroke="#000000" points="12.5,-429.2 12.5,-451.2 146.5,-451.2 146.5,-429.2 12.5,-429.2"/>
<text text-anchor="start" x="32.5" y="-436.3" font-family="Helvetica,sans-Serif" font-size="11.00" fill="#000000">caseload_id</text>
<polygon fill="none" stroke="#000000" points="12.5,-407.2 12.5,-429.2 146.5,-429.2 146.5,-407.2 12.5,-407.2"/>
<text text-anchor="start" x="32.5" y="-414.3" font-family="Helvetica,sans-Serif" font-size="11.00" fill="#000000">affected_entities</text>
<polygon fill="#ffffff" stroke="transparent" points="12.5,-388.2 12.5,-407.2 68.5,-407.2 68.5,-388.2 12.5,-388.2"/>
<polygon fill="none" stroke="#000000" points="12.5,-388.2 12.5,-407.2 68.5,-407.2 68.5,-388.2 12.5,-388.2"/>
<text text-anchor="start" x="15.5" y="-394.3" font-family="Helvetica,sans-Serif" font-size="11.00" fill="#000000"> &#160;</text>
<polygon fill="#ffffff" stroke="transparent" points="68.5,-388.2 68.5,-407.2 102.5,-407.2 102.5,-388.2 68.5,-388.2"/>
<polygon fill="none" stroke="#000000" points="68.5,-388.2 68.5,-407.2 102.5,-407.2 102.5,-388.2 68.5,-388.2"/>
<text text-anchor="start" x="93.3862" y="-394.3" font-family="Helvetica,sans-Serif" font-size="11.00" fill="#000000"> &#160;</text>
<polygon fill="#ffffff" stroke="transparent" points="102.5,-388.2 102.5,-407.2 146.5,-407.2 146.5,-388.2 102.5,-388.2"/>
<polygon fill="none" stroke="#000000" points="102.5,-388.2 102.5,-407.2 146.5,-407.2 146.5,-388.2 102.5,-388.2"/>
<text text-anchor="start" x="127.9053" y="-394.3" font-family="Helvetica,sans-Serif" font-size="11.00" fill="#000000">2 &gt;</text>
</a>
</g>
</g>
<!-- prison_configuration_audit&#45;&gt;audit_revision -->
<g id="edge6" class="edge">
<title>prison_configuration_audit:w&#45;&gt;audit_revision:e</title>
<path fill="none" stroke="#000000" d="M186.1861,-723.3067C115.5366,-701.9018 241.2662,-506.2 146.5,-506.2"/>
<polygon fill="#000000" stroke="#000000" points="192.5691,-724.1509 200.0279,-728.7689 196.5345,-724.6755 200.5,-725.2 200.5,-725.2 200.5,-725.2 196.5345,-724.6755 200.9721,-721.6311 192.5691,-724.1509 192.5691,-724.1509"/>
<ellipse fill="none" stroke="#000000" cx="189.3967" cy="-723.7313" rx="3.2" ry="3.2"/>
</g>
<!-- keyworker_configuration_audit -->
<g id="node2" class="node">
<title>keyworker_configuration_audit</title>
<g id="a_node2"><a xlink:href="../../tables/keyworker_configuration_audit.html" xlink:title="keyworker_configuration_audit" target="_top">
<polygon fill="#ffffff" stroke="transparent" points="264.5,-38.2 264.5,-322.2 512.5,-322.2 512.5,-38.2 264.5,-38.2"/>
<polygon fill="#f5f5f5" stroke="transparent" points="264.5,-299.2 264.5,-322.2 512.5,-322.2 512.5,-299.2 264.5,-299.2"/>
<polygon fill="none" stroke="#000000" points="264.5,-299.2 264.5,-322.2 512.5,-322.2 512.5,-299.2 264.5,-299.2"/>
<text text-anchor="start" x="269.5" y="-307.8" font-family="Helvetica,sans-Serif" font-weight="bold" font-size="11.00" fill="#000000">keyworker_configuration_audit</text>
<text text-anchor="start" x="478.0219" y="-307.3" font-family="Helvetica,sans-Serif" font-size="11.00" fill="#000000">[table]</text>
<polygon fill="none" stroke="#000000" points="264.5,-277.2 264.5,-299.2 512.5,-299.2 512.5,-277.2 264.5,-277.2"/>
<image xlink:href="../../images/primaryKeys.png" width="11px" height="12px" preserveAspectRatio="xMinYMin meet" x="269.5" y="-294.2"/>
<text text-anchor="start" x="293.5" y="-284.3" font-family="Helvetica,sans-Serif" font-size="11.00" fill="#000000">rev_id</text>
<polygon fill="none" stroke="#000000" points="264.5,-255.2 264.5,-277.2 512.5,-277.2 512.5,-255.2 264.5,-255.2"/>
<text text-anchor="start" x="293.5" y="-262.3" font-family="Helvetica,sans-Serif" font-size="11.00" fill="#000000">rev_type</text>
<polygon fill="none" stroke="#000000" points="264.5,-233.2 264.5,-255.2 512.5,-255.2 512.5,-233.2 264.5,-233.2"/>
<image xlink:href="../../images/primaryKeys.png" width="11px" height="12px" preserveAspectRatio="xMinYMin meet" x="269.5" y="-250.2"/>
<text text-anchor="start" x="293.5" y="-240.3" font-family="Helvetica,sans-Serif" font-size="11.00" fill="#000000">staff_id</text>
<polygon fill="none" stroke="#000000" points="264.5,-211.2 264.5,-233.2 512.5,-233.2 512.5,-211.2 264.5,-211.2"/>
<text text-anchor="start" x="293.5" y="-218.3" font-family="Helvetica,sans-Serif" font-size="11.00" fill="#000000">capacity</text>
<polygon fill="none" stroke="#000000" points="264.5,-189.2 264.5,-211.2 512.5,-211.2 512.5,-189.2 264.5,-189.2"/>
<text text-anchor="start" x="293.5" y="-196.3" font-family="Helvetica,sans-Serif" font-size="11.00" fill="#000000">reactivate_on</text>
<polygon fill="none" stroke="#000000" points="264.5,-167.2 264.5,-189.2 512.5,-189.2 512.5,-167.2 264.5,-167.2"/>
<text text-anchor="start" x="293.5" y="-174.3" font-family="Helvetica,sans-Serif" font-size="11.00" fill="#000000">status_id</text>
<polygon fill="none" stroke="#000000" points="264.5,-145.2 264.5,-167.2 512.5,-167.2 512.5,-145.2 264.5,-145.2"/>
<text text-anchor="start" x="293.5" y="-152.3" font-family="Helvetica,sans-Serif" font-size="11.00" fill="#000000">allow_auto_allocation</text>
<polygon fill="none" stroke="#000000" points="264.5,-123.2 264.5,-145.2 512.5,-145.2 512.5,-123.2 264.5,-123.2"/>
<text text-anchor="start" x="293.5" y="-130.3" font-family="Helvetica,sans-Serif" font-size="11.00" fill="#000000">capacity_modified</text>
<polygon fill="none" stroke="#000000" points="264.5,-101.2 264.5,-123.2 512.5,-123.2 512.5,-101.2 264.5,-101.2"/>
<text text-anchor="start" x="293.5" y="-108.3" font-family="Helvetica,sans-Serif" font-size="11.00" fill="#000000">reactivate_on_modified</text>
<polygon fill="none" stroke="#000000" points="264.5,-79.2 264.5,-101.2 512.5,-101.2 512.5,-79.2 264.5,-79.2"/>
<text text-anchor="start" x="293.5" y="-86.3" font-family="Helvetica,sans-Serif" font-size="11.00" fill="#000000">status_modified</text>
<polygon fill="none" stroke="#000000" points="264.5,-57.2 264.5,-79.2 512.5,-79.2 512.5,-57.2 264.5,-57.2"/>
<text text-anchor="start" x="293.5" y="-64.3" font-family="Helvetica,sans-Serif" font-size="11.00" fill="#000000">allow_auto_allocation_modified</text>
<polygon fill="#ffffff" stroke="transparent" points="264.5,-38.2 264.5,-57.2 386.5,-57.2 386.5,-38.2 264.5,-38.2"/>
<polygon fill="none" stroke="#000000" points="264.5,-38.2 264.5,-57.2 386.5,-57.2 386.5,-38.2 264.5,-38.2"/>
<text text-anchor="start" x="267.5" y="-44.3" font-family="Helvetica,sans-Serif" font-size="11.00" fill="#000000">&lt; 1</text>
<polygon fill="#ffffff" stroke="transparent" points="386.5,-38.2 386.5,-57.2 449.5,-57.2 449.5,-38.2 386.5,-38.2"/>
<polygon fill="none" stroke="#000000" points="386.5,-38.2 386.5,-57.2 449.5,-57.2 449.5,-38.2 386.5,-38.2"/>
<text text-anchor="start" x="440.3862" y="-44.3" font-family="Helvetica,sans-Serif" font-size="11.00" fill="#000000"> &#160;</text>
<polygon fill="#ffffff" stroke="transparent" points="449.5,-38.2 449.5,-57.2 512.5,-57.2 512.5,-38.2 449.5,-38.2"/>
<polygon fill="none" stroke="#000000" points="449.5,-38.2 449.5,-57.2 512.5,-57.2 512.5,-38.2 449.5,-38.2"/>
<text text-anchor="start" x="503.3862" y="-44.3" font-family="Helvetica,sans-Serif" font-size="11.00" fill="#000000"> &#160;</text>
</a>
</g>
</g>
<!-- keyworker_configuration_audit&#45;&gt;audit_revision -->
<g id="edge2" class="edge">
<title>keyworker_configuration_audit:w&#45;&gt;audit_revision:e</title>
<path fill="none" stroke="#000000" d="M250.007,-289.0249C223.1511,-292.4006 211.3583,-306.2294 192,-332.2 144.2291,-396.2884 226.4336,-506.2 146.5,-506.2"/>
<polygon fill="#000000" stroke="#000000" points="256.5129,-288.6546 264.7046,-291.7942 260.5065,-288.4273 264.5,-288.2 264.5,-288.2 264.5,-288.2 260.5065,-288.4273 264.2954,-284.6058 256.5129,-288.6546 256.5129,-288.6546"/>
<ellipse fill="none" stroke="#000000" cx="253.3181" cy="-288.8365" rx="3.2" ry="3.2"/>
</g>
<!-- prison_configuration -->
<g id="node3" class="node">
<title>prison_configuration</title>
<g id="a_node3"><a xlink:href="../../tables/prison_configuration.html" xlink:title="prison_configuration" target="_top">
<polygon fill="#ffffff" stroke="transparent" points="232.5,-780.2 232.5,-1020.2 544.5,-1020.2 544.5,-780.2 232.5,-780.2"/>
<polygon fill="#f5f5f5" stroke="transparent" points="232.5,-997.2 232.5,-1020.2 544.5,-1020.2 544.5,-997.2 232.5,-997.2"/>
<polygon fill="none" stroke="#000000" points="232.5,-997.2 232.5,-1020.2 544.5,-1020.2 544.5,-997.2 232.5,-997.2"/>
<text text-anchor="start" x="237.5" y="-1005.8" font-family="Helvetica,sans-Serif" font-weight="bold" font-size="11.00" fill="#000000">prison_configuration</text>
<text text-anchor="start" x="509.5437" y="-1005.3" font-family="Helvetica,sans-Serif" font-size="11.00" fill="#000000">[table]</text>
<polygon fill="#ffffff" stroke="transparent" points="232.5,-975.2 232.5,-997.2 544.5,-997.2 544.5,-975.2 232.5,-975.2"/>
<polygon fill="none" stroke="#000000" points="232.5,-975.2 232.5,-997.2 544.5,-997.2 544.5,-975.2 232.5,-975.2"/>
<image xlink:href="../../images/foreignKeys.png" width="11px" height="12px" preserveAspectRatio="xMinYMin meet" x="237.5" y="-992.2"/>
<text text-anchor="start" x="252.5" y="-982.3" font-family="Helvetica,sans-Serif" font-size="11.00" fill="#000000">prison_code</text>
<polygon fill="none" stroke="#000000" points="232.5,-953.2 232.5,-975.2 544.5,-975.2 544.5,-953.2 232.5,-953.2"/>
<text text-anchor="start" x="252.5" y="-960.3" font-family="Helvetica,sans-Serif" font-size="11.00" fill="#000000">allow_auto_allocation</text>
<polygon fill="none" stroke="#000000" points="232.5,-931.2 232.5,-953.2 544.5,-953.2 544.5,-931.2 232.5,-931.2"/>
<text text-anchor="start" x="252.5" y="-938.3" font-family="Helvetica,sans-Serif" font-size="11.00" fill="#000000">is_enabled</text>
<polygon fill="none" stroke="#000000" points="232.5,-909.2 232.5,-931.2 544.5,-931.2 544.5,-909.2 232.5,-909.2"/>
<text text-anchor="start" x="252.5" y="-916.3" font-family="Helvetica,sans-Serif" font-size="11.00" fill="#000000">capacity</text>
<polygon fill="none" stroke="#000000" points="232.5,-887.2 232.5,-909.2 544.5,-909.2 544.5,-887.2 232.5,-887.2"/>
<text text-anchor="start" x="252.5" y="-894.3" font-family="Helvetica,sans-Serif" font-size="11.00" fill="#000000">maximum_capacity</text>
<polygon fill="none" stroke="#000000" points="232.5,-865.2 232.5,-887.2 544.5,-887.2 544.5,-865.2 232.5,-865.2"/>
<text text-anchor="start" x="252.5" y="-872.3" font-family="Helvetica,sans-Serif" font-size="11.00" fill="#000000">frequency_in_weeks</text>
<polygon fill="none" stroke="#000000" points="232.5,-843.2 232.5,-865.2 544.5,-865.2 544.5,-843.2 232.5,-843.2"/>
<text text-anchor="start" x="252.5" y="-850.3" font-family="Helvetica,sans-Serif" font-size="11.00" fill="#000000">has_prisoners_with_high_complexity_needs</text>
<polygon fill="#ffffff" stroke="transparent" points="232.5,-821.2 232.5,-843.2 544.5,-843.2 544.5,-821.2 232.5,-821.2"/>
<polygon fill="none" stroke="#000000" points="232.5,-821.2 232.5,-843.2 544.5,-843.2 544.5,-821.2 232.5,-821.2"/>
<image xlink:href="../../images/foreignKeys.png" width="11px" height="12px" preserveAspectRatio="xMinYMin meet" x="237.5" y="-838.2"/>
<text text-anchor="start" x="252.5" y="-828.3" font-family="Helvetica,sans-Serif" font-size="11.00" fill="#000000">policy_code</text>
<polygon fill="none" stroke="#000000" points="232.5,-799.2 232.5,-821.2 544.5,-821.2 544.5,-799.2 232.5,-799.2"/>
<image xlink:href="../../images/primaryKeys.png" width="11px" height="12px" preserveAspectRatio="xMinYMin meet" x="237.5" y="-816.2"/>
<text text-anchor="start" x="252.5" y="-806.3" font-family="Helvetica,sans-Serif" font-size="11.00" fill="#000000">id</text>
<polygon fill="#ffffff" stroke="transparent" points="232.5,-780.2 232.5,-799.2 370.5,-799.2 370.5,-780.2 232.5,-780.2"/>
<polygon fill="none" stroke="#000000" points="232.5,-780.2 232.5,-799.2 370.5,-799.2 370.5,-780.2 232.5,-780.2"/>
<text text-anchor="start" x="235.5" y="-786.3" font-family="Helvetica,sans-Serif" font-size="11.00" fill="#000000">&lt; 1</text>
<polygon fill="#ffffff" stroke="transparent" points="370.5,-780.2 370.5,-799.2 473.5,-799.2 473.5,-780.2 370.5,-780.2"/>
<polygon fill="none" stroke="#000000" points="370.5,-780.2 370.5,-799.2 473.5,-799.2 473.5,-780.2 370.5,-780.2"/>
<text text-anchor="start" x="431.9956" y="-786.3" font-family="Helvetica,sans-Serif" font-size="11.00" fill="#000000">12 rows</text>
<polygon fill="#ffffff" stroke="transparent" points="473.5,-780.2 473.5,-799.2 544.5,-799.2 544.5,-780.2 473.5,-780.2"/>
<polygon fill="none" stroke="#000000" points="473.5,-780.2 473.5,-799.2 544.5,-799.2 544.5,-780.2 473.5,-780.2"/>
<text text-anchor="start" x="535.3862" y="-786.3" font-family="Helvetica,sans-Serif" font-size="11.00" fill="#000000"> &#160;</text>
</a>
</g>
</g>
<!-- policy -->
<g id="node5" class="node">
<title>policy</title>
<g id="a_node5"><a xlink:href="../../tables/policy.html" xlink:title="policy" target="_top">
<polygon fill="#ffffff" stroke="transparent" points="31,-780.2 31,-866.2 128,-866.2 128,-780.2 31,-780.2"/>
<polygon fill="#f5f5f5" stroke="transparent" points="31.5,-843.2 31.5,-866.2 128.5,-866.2 128.5,-843.2 31.5,-843.2"/>
<polygon fill="none" stroke="#000000" points="31.5,-843.2 31.5,-866.2 128.5,-866.2 128.5,-843.2 31.5,-843.2"/>
<text text-anchor="start" x="36.5" y="-851.8" font-family="Helvetica,sans-Serif" font-weight="bold" font-size="11.00" fill="#000000">policy</text>
<text text-anchor="start" x="93.5437" y="-851.3" font-family="Helvetica,sans-Serif" font-size="11.00" fill="#000000">[table]</text>
<polygon fill="none" stroke="#000000" points="31.5,-821.2 31.5,-843.2 128.5,-843.2 128.5,-821.2 31.5,-821.2"/>
<image xlink:href="../../images/primaryKeys.png" width="11px" height="12px" preserveAspectRatio="xMinYMin meet" x="36.5" y="-838.2"/>
<text text-anchor="start" x="51.5" y="-828.3" font-family="Helvetica,sans-Serif" font-size="11.00" fill="#000000">code</text>
<polygon fill="none" stroke="#000000" points="31.5,-799.2 31.5,-821.2 128.5,-821.2 128.5,-799.2 31.5,-799.2"/>
<text text-anchor="start" x="51.5" y="-806.3" font-family="Helvetica,sans-Serif" font-size="11.00" fill="#000000">description</text>
<polygon fill="#ffffff" stroke="transparent" points="31.5,-780.2 31.5,-799.2 69.5,-799.2 69.5,-780.2 31.5,-780.2"/>
<polygon fill="none" stroke="#000000" points="31.5,-780.2 31.5,-799.2 69.5,-799.2 69.5,-780.2 31.5,-780.2"/>
<text text-anchor="start" x="34.5" y="-786.3" font-family="Helvetica,sans-Serif" font-size="11.00" fill="#000000"> &#160;</text>
<polygon fill="#ffffff" stroke="transparent" points="69.5,-780.2 69.5,-799.2 94.5,-799.2 94.5,-780.2 69.5,-780.2"/>
<polygon fill="none" stroke="#000000" points="69.5,-780.2 69.5,-799.2 94.5,-799.2 94.5,-780.2 69.5,-780.2"/>
<text text-anchor="start" x="85.3862" y="-786.3" font-family="Helvetica,sans-Serif" font-size="11.00" fill="#000000"> &#160;</text>
<polygon fill="#ffffff" stroke="transparent" points="94.5,-780.2 94.5,-799.2 128.5,-799.2 128.5,-780.2 94.5,-780.2"/>
<polygon fill="none" stroke="#000000" points="94.5,-780.2 94.5,-799.2 128.5,-799.2 128.5,-780.2 94.5,-780.2"/>
<text text-anchor="start" x="109.9053" y="-786.3" font-family="Helvetica,sans-Serif" font-size="11.00" fill="#000000">1 &gt;</text>
</a>
</g>
</g>
<!-- prison_configuration&#45;&gt;policy -->
<g id="edge5" class="edge">
<title>prison_configuration:w&#45;&gt;policy:e</title>
<path fill="none" stroke="#000000" d="M218.0255,-832.2C183.2149,-832.2 169.4861,-832.2 128.5,-832.2"/>
<polygon fill="#000000" stroke="#000000" points="224.5,-832.2001 232.5,-835.8 228.5,-832.2 232.5,-832.2 232.5,-832.2 232.5,-832.2 228.5,-832.2 232.5,-828.6 224.5,-832.2001 224.5,-832.2001"/>
<ellipse fill="none" stroke="#000000" cx="221.3" cy="-832.2001" rx="3.2" ry="3.2"/>
</g>
<!-- offender_key_worker -->
<g id="node6" class="node">
<title>offender_key_worker</title>
<g id="a_node6"><a xlink:href="../../tables/offender_key_worker.html" xlink:title="offender_key_worker" target="_top">
<polygon fill="#ffffff" stroke="transparent" points="298.5,-1214.2 298.5,-1586.2 478.5,-1586.2 478.5,-1214.2 298.5,-1214.2"/>
<polygon fill="#f5f5f5" stroke="transparent" points="298.5,-1563.2 298.5,-1586.2 478.5,-1586.2 478.5,-1563.2 298.5,-1563.2"/>
<polygon fill="none" stroke="#000000" points="298.5,-1563.2 298.5,-1586.2 478.5,-1586.2 478.5,-1563.2 298.5,-1563.2"/>
<text text-anchor="start" x="303.5" y="-1571.8" font-family="Helvetica,sans-Serif" font-weight="bold" font-size="11.00" fill="#000000">offender_key_worker</text>
<text text-anchor="start" x="444.0219" y="-1571.3" font-family="Helvetica,sans-Serif" font-size="11.00" fill="#000000">[table]</text>
<polygon fill="none" stroke="#000000" points="298.5,-1541.2 298.5,-1563.2 478.5,-1563.2 478.5,-1541.2 298.5,-1541.2"/>
<image xlink:href="../../images/primaryKeys.png" width="11px" height="12px" preserveAspectRatio="xMinYMin meet" x="303.5" y="-1558.2"/>
<text text-anchor="start" x="321.5" y="-1548.3" font-family="Helvetica,sans-Serif" font-size="11.00" fill="#000000">offender_keyworker_id</text>
<polygon fill="#ffffff" stroke="transparent" points="298.5,-1519.2 298.5,-1541.2 478.5,-1541.2 478.5,-1519.2 298.5,-1519.2"/>
<polygon fill="none" stroke="#000000" points="298.5,-1519.2 298.5,-1541.2 478.5,-1541.2 478.5,-1519.2 298.5,-1519.2"/>
<text text-anchor="start" x="321.5" y="-1526.3" font-family="Helvetica,sans-Serif" font-size="11.00" fill="#000000">offender_no</text>
<polygon fill="#ffffff" stroke="transparent" points="298.5,-1497.2 298.5,-1519.2 478.5,-1519.2 478.5,-1497.2 298.5,-1497.2"/>
<polygon fill="none" stroke="#000000" points="298.5,-1497.2 298.5,-1519.2 478.5,-1519.2 478.5,-1497.2 298.5,-1497.2"/>
<text text-anchor="start" x="321.5" y="-1504.3" font-family="Helvetica,sans-Serif" font-size="11.00" fill="#000000">staff_id</text>
<polygon fill="#ffffff" stroke="transparent" points="298.5,-1475.2 298.5,-1497.2 478.5,-1497.2 478.5,-1475.2 298.5,-1475.2"/>
<polygon fill="none" stroke="#000000" points="298.5,-1475.2 298.5,-1497.2 478.5,-1497.2 478.5,-1475.2 298.5,-1475.2"/>
<text text-anchor="start" x="321.5" y="-1482.3" font-family="Helvetica,sans-Serif" font-size="11.00" fill="#000000">assigned_date_time</text>
<polygon fill="none" stroke="#000000" points="298.5,-1453.2 298.5,-1475.2 478.5,-1475.2 478.5,-1453.2 298.5,-1453.2"/>
<text text-anchor="start" x="321.5" y="-1460.3" font-family="Helvetica,sans-Serif" font-size="11.00" fill="#000000">active_flag</text>
<polygon fill="none" stroke="#000000" points="298.5,-1431.2 298.5,-1453.2 478.5,-1453.2 478.5,-1431.2 298.5,-1431.2"/>
<text text-anchor="start" x="321.5" y="-1438.3" font-family="Helvetica,sans-Serif" font-size="11.00" fill="#000000">alloc_type</text>
<polygon fill="none" stroke="#000000" points="298.5,-1409.2 298.5,-1431.2 478.5,-1431.2 478.5,-1409.2 298.5,-1409.2"/>
<text text-anchor="start" x="321.5" y="-1416.3" font-family="Helvetica,sans-Serif" font-size="11.00" fill="#000000">user_id</text>
<polygon fill="#ffffff" stroke="transparent" points="298.5,-1387.2 298.5,-1409.2 478.5,-1409.2 478.5,-1387.2 298.5,-1387.2"/>
<polygon fill="none" stroke="#000000" points="298.5,-1387.2 298.5,-1409.2 478.5,-1409.2 478.5,-1387.2 298.5,-1387.2"/>
<text text-anchor="start" x="321.5" y="-1394.3" font-family="Helvetica,sans-Serif" font-size="11.00" fill="#000000">prison_id</text>
<polygon fill="none" stroke="#000000" points="298.5,-1365.2 298.5,-1387.2 478.5,-1387.2 478.5,-1365.2 298.5,-1365.2"/>
<text text-anchor="start" x="321.5" y="-1372.3" font-family="Helvetica,sans-Serif" font-size="11.00" fill="#000000">expiry_date_time</text>
<polygon fill="none" stroke="#000000" points="298.5,-1343.2 298.5,-1365.2 478.5,-1365.2 478.5,-1343.2 298.5,-1343.2"/>
<text text-anchor="start" x="321.5" y="-1350.3" font-family="Helvetica,sans-Serif" font-size="11.00" fill="#000000">create_datetime</text>
<polygon fill="none" stroke="#000000" points="298.5,-1321.2 298.5,-1343.2 478.5,-1343.2 478.5,-1321.2 298.5,-1321.2"/>
<text text-anchor="start" x="321.5" y="-1328.3" font-family="Helvetica,sans-Serif" font-size="11.00" fill="#000000">create_user_id</text>
<polygon fill="none" stroke="#000000" points="298.5,-1299.2 298.5,-1321.2 478.5,-1321.2 478.5,-1299.2 298.5,-1299.2"/>
<text text-anchor="start" x="321.5" y="-1306.3" font-family="Helvetica,sans-Serif" font-size="11.00" fill="#000000">modify_datetime</text>
<polygon fill="none" stroke="#000000" points="298.5,-1277.2 298.5,-1299.2 478.5,-1299.2 478.5,-1277.2 298.5,-1277.2"/>
<text text-anchor="start" x="321.5" y="-1284.3" font-family="Helvetica,sans-Serif" font-size="11.00" fill="#000000">modify_user_id</text>
<polygon fill="none" stroke="#000000" points="298.5,-1255.2 298.5,-1277.2 478.5,-1277.2 478.5,-1255.2 298.5,-1255.2"/>
<image xlink:href="../../images/foreignKeys.png" width="11px" height="12px" preserveAspectRatio="xMinYMin meet" x="303.5" y="-1272.2"/>
<text text-anchor="start" x="321.5" y="-1262.3" font-family="Helvetica,sans-Serif" font-size="11.00" fill="#000000">allocation_reason_id</text>
<polygon fill="none" stroke="#000000" points="298.5,-1233.2 298.5,-1255.2 478.5,-1255.2 478.5,-1233.2 298.5,-1233.2"/>
<image xlink:href="../../images/foreignKeys.png" width="11px" height="12px" preserveAspectRatio="xMinYMin meet" x="303.5" y="-1250.2"/>
<text text-anchor="start" x="321.5" y="-1240.3" font-family="Helvetica,sans-Serif" font-size="11.00" fill="#000000">deallocation_reason_id</text>
<polygon fill="#ffffff" stroke="transparent" points="298.5,-1214.2 298.5,-1233.2 386.5,-1233.2 386.5,-1214.2 298.5,-1214.2"/>
<polygon fill="none" stroke="#000000" points="298.5,-1214.2 298.5,-1233.2 386.5,-1233.2 386.5,-1214.2 298.5,-1214.2"/>
<text text-anchor="start" x="301.5" y="-1220.3" font-family="Helvetica,sans-Serif" font-size="11.00" fill="#000000">&lt; 2</text>
<polygon fill="#ffffff" stroke="transparent" points="386.5,-1214.2 386.5,-1233.2 432.5,-1233.2 432.5,-1214.2 386.5,-1214.2"/>
<polygon fill="none" stroke="#000000" points="386.5,-1214.2 386.5,-1233.2 432.5,-1233.2 432.5,-1214.2 386.5,-1214.2"/>
<text text-anchor="start" x="423.3862" y="-1220.3" font-family="Helvetica,sans-Serif" font-size="11.00" fill="#000000"> &#160;</text>
<polygon fill="#ffffff" stroke="transparent" points="432.5,-1214.2 432.5,-1233.2 478.5,-1233.2 478.5,-1214.2 432.5,-1214.2"/>
<polygon fill="none" stroke="#000000" points="432.5,-1214.2 432.5,-1233.2 478.5,-1233.2 478.5,-1214.2 432.5,-1214.2"/>
<text text-anchor="start" x="469.3862" y="-1220.3" font-family="Helvetica,sans-Serif" font-size="11.00" fill="#000000"> &#160;</text>
</a>
</g>
</g>
<!-- reference_data -->
<g id="node8" class="node">
<title>reference_data</title>
<g id="a_node8"><a xlink:href="../../tables/reference_data.html" xlink:title="reference_data" target="_top">
<polygon fill="#ffffff" stroke="transparent" points="8,-1126.2 8,-1278.2 151,-1278.2 151,-1126.2 8,-1126.2"/>
<polygon fill="#f5f5f5" stroke="transparent" points="8.5,-1255.2 8.5,-1278.2 151.5,-1278.2 151.5,-1255.2 8.5,-1255.2"/>
<polygon fill="none" stroke="#000000" points="8.5,-1255.2 8.5,-1278.2 151.5,-1278.2 151.5,-1255.2 8.5,-1255.2"/>
<text text-anchor="start" x="13.5" y="-1263.8" font-family="Helvetica,sans-Serif" font-weight="bold" font-size="11.00" fill="#000000">reference_data</text>
<text text-anchor="start" x="116.5437" y="-1263.3" font-family="Helvetica,sans-Serif" font-size="11.00" fill="#000000">[table]</text>
<polygon fill="none" stroke="#000000" points="8.5,-1233.2 8.5,-1255.2 151.5,-1255.2 151.5,-1233.2 8.5,-1233.2"/>
<image xlink:href="../../images/primaryKeys.png" width="11px" height="12px" preserveAspectRatio="xMinYMin meet" x="13.5" y="-1250.2"/>
<text text-anchor="start" x="28.5" y="-1240.3" font-family="Helvetica,sans-Serif" font-size="11.00" fill="#000000">id</text>
<polygon fill="#ffffff" stroke="transparent" points="8.5,-1211.2 8.5,-1233.2 151.5,-1233.2 151.5,-1211.2 8.5,-1211.2"/>
<polygon fill="none" stroke="#000000" points="8.5,-1211.2 8.5,-1233.2 151.5,-1233.2 151.5,-1211.2 8.5,-1211.2"/>
<text text-anchor="start" x="28.5" y="-1218.3" font-family="Helvetica,sans-Serif" font-size="11.00" fill="#000000">domain</text>
<polygon fill="#ffffff" stroke="transparent" points="8.5,-1189.2 8.5,-1211.2 151.5,-1211.2 151.5,-1189.2 8.5,-1189.2"/>
<polygon fill="none" stroke="#000000" points="8.5,-1189.2 8.5,-1211.2 151.5,-1211.2 151.5,-1189.2 8.5,-1189.2"/>
<text text-anchor="start" x="28.5" y="-1196.3" font-family="Helvetica,sans-Serif" font-size="11.00" fill="#000000">code</text>
<polygon fill="none" stroke="#000000" points="8.5,-1167.2 8.5,-1189.2 151.5,-1189.2 151.5,-1167.2 8.5,-1167.2"/>
<text text-anchor="start" x="28.5" y="-1174.3" font-family="Helvetica,sans-Serif" font-size="11.00" fill="#000000">description</text>
<polygon fill="#ffffff" stroke="transparent" points="8.5,-1145.2 8.5,-1167.2 151.5,-1167.2 151.5,-1145.2 8.5,-1145.2"/>
<polygon fill="none" stroke="#000000" points="8.5,-1145.2 8.5,-1167.2 151.5,-1167.2 151.5,-1145.2 8.5,-1145.2"/>
<text text-anchor="start" x="28.5" y="-1152.3" font-family="Helvetica,sans-Serif" font-size="11.00" fill="#000000">sequence_number</text>
<polygon fill="#ffffff" stroke="transparent" points="8.5,-1126.2 8.5,-1145.2 69.5,-1145.2 69.5,-1126.2 8.5,-1126.2"/>
<polygon fill="none" stroke="#000000" points="8.5,-1126.2 8.5,-1145.2 69.5,-1145.2 69.5,-1126.2 8.5,-1126.2"/>
<text text-anchor="start" x="11.5" y="-1132.3" font-family="Helvetica,sans-Serif" font-size="11.00" fill="#000000"> &#160;</text>
<polygon fill="#ffffff" stroke="transparent" points="69.5,-1126.2 69.5,-1145.2 105.5,-1145.2 105.5,-1126.2 69.5,-1126.2"/>
<polygon fill="none" stroke="#000000" points="69.5,-1126.2 69.5,-1145.2 105.5,-1145.2 105.5,-1126.2 69.5,-1126.2"/>
<text text-anchor="start" x="96.3862" y="-1132.3" font-family="Helvetica,sans-Serif" font-size="11.00" fill="#000000"> &#160;</text>
<polygon fill="#ffffff" stroke="transparent" points="105.5,-1126.2 105.5,-1145.2 151.5,-1145.2 151.5,-1126.2 105.5,-1126.2"/>
<polygon fill="none" stroke="#000000" points="105.5,-1126.2 105.5,-1145.2 151.5,-1145.2 151.5,-1126.2 105.5,-1126.2"/>
<text text-anchor="start" x="132.9053" y="-1132.3" font-family="Helvetica,sans-Serif" font-size="11.00" fill="#000000">3 &gt;</text>
</a>
</g>
</g>
<!-- offender_key_worker&#45;&gt;reference_data -->
<g id="edge3" class="edge">
<title>offender_key_worker:w&#45;&gt;reference_data:e</title>
<path fill="none" stroke="#000000" d="M283.9053,-1265.8181C229.802,-1262.8968 212.3999,-1244.2 151.5,-1244.2"/>
<polygon fill="#000000" stroke="#000000" points="290.5027,-1265.9907 298.4058,-1269.7988 294.5014,-1266.0954 298.5,-1266.2 298.5,-1266.2 298.5,-1266.2 294.5014,-1266.0954 298.5942,-1262.6012 290.5027,-1265.9907 290.5027,-1265.9907"/>
<ellipse fill="none" stroke="#000000" cx="287.3038" cy="-1265.907" rx="3.2" ry="3.2"/>
</g>
<!-- offender_key_worker&#45;&gt;reference_data -->
<g id="edge4" class="edge">
<title>offender_key_worker:w&#45;&gt;reference_data:e</title>
<path fill="none" stroke="#000000" d="M284.038,-1244.2C230.3155,-1244.2 211.7292,-1244.2 151.5,-1244.2"/>
<polygon fill="#000000" stroke="#000000" points="290.5,-1244.2001 298.5,-1247.8 294.5,-1244.2 298.5,-1244.2 298.5,-1244.2 298.5,-1244.2 294.5,-1244.2 298.5,-1240.6 290.5,-1244.2001 290.5,-1244.2001"/>
<ellipse fill="none" stroke="#000000" cx="287.3" cy="-1244.2001" rx="3.2" ry="3.2"/>
</g>
<!-- keyworker_configuration -->
<g id="node7" class="node">
<title>keyworker_configuration</title>
<g id="a_node7"><a xlink:href="../../tables/keyworker_configuration.html" xlink:title="keyworker_configuration" target="_top">
<polygon fill="#ffffff" stroke="transparent" points="285,-1041.2 285,-1193.2 492,-1193.2 492,-1041.2 285,-1041.2"/>
<polygon fill="#f5f5f5" stroke="transparent" points="285.5,-1170.2 285.5,-1193.2 492.5,-1193.2 492.5,-1170.2 285.5,-1170.2"/>
<polygon fill="none" stroke="#000000" points="285.5,-1170.2 285.5,-1193.2 492.5,-1193.2 492.5,-1170.2 285.5,-1170.2"/>
<text text-anchor="start" x="290.5" y="-1178.8" font-family="Helvetica,sans-Serif" font-weight="bold" font-size="11.00" fill="#000000">keyworker_configuration</text>
<text text-anchor="start" x="458.0219" y="-1178.3" font-family="Helvetica,sans-Serif" font-size="11.00" fill="#000000">[table]</text>
<polygon fill="none" stroke="#000000" points="285.5,-1148.2 285.5,-1170.2 492.5,-1170.2 492.5,-1148.2 285.5,-1148.2"/>
<image xlink:href="../../images/primaryKeys.png" width="11px" height="12px" preserveAspectRatio="xMinYMin meet" x="290.5" y="-1165.2"/>
<text text-anchor="start" x="314.5" y="-1155.3" font-family="Helvetica,sans-Serif" font-size="11.00" fill="#000000">staff_id</text>
<polygon fill="none" stroke="#000000" points="285.5,-1126.2 285.5,-1148.2 492.5,-1148.2 492.5,-1126.2 285.5,-1126.2"/>
<text text-anchor="start" x="314.5" y="-1133.3" font-family="Helvetica,sans-Serif" font-size="11.00" fill="#000000">capacity</text>
<polygon fill="none" stroke="#000000" points="285.5,-1104.2 285.5,-1126.2 492.5,-1126.2 492.5,-1104.2 285.5,-1104.2"/>
<image xlink:href="../../images/foreignKeys.png" width="11px" height="12px" preserveAspectRatio="xMinYMin meet" x="290.5" y="-1121.2"/>
<text text-anchor="start" x="314.5" y="-1111.3" font-family="Helvetica,sans-Serif" font-size="11.00" fill="#000000">status_id</text>
<polygon fill="none" stroke="#000000" points="285.5,-1082.2 285.5,-1104.2 492.5,-1104.2 492.5,-1082.2 285.5,-1082.2"/>
<text text-anchor="start" x="314.5" y="-1089.3" font-family="Helvetica,sans-Serif" font-size="11.00" fill="#000000">allow_auto_allocation</text>
<polygon fill="none" stroke="#000000" points="285.5,-1060.2 285.5,-1082.2 492.5,-1082.2 492.5,-1060.2 285.5,-1060.2"/>
<text text-anchor="start" x="314.5" y="-1067.3" font-family="Helvetica,sans-Serif" font-size="11.00" fill="#000000">reactivate_on</text>
<polygon fill="#ffffff" stroke="transparent" points="285.5,-1041.2 285.5,-1060.2 387.5,-1060.2 387.5,-1041.2 285.5,-1041.2"/>
<polygon fill="none" stroke="#000000" points="285.5,-1041.2 285.5,-1060.2 387.5,-1060.2 387.5,-1041.2 285.5,-1041.2"/>
<text text-anchor="start" x="288.5" y="-1047.3" font-family="Helvetica,sans-Serif" font-size="11.00" fill="#000000">&lt; 1</text>
<polygon fill="#ffffff" stroke="transparent" points="387.5,-1041.2 387.5,-1060.2 439.5,-1060.2 439.5,-1041.2 387.5,-1041.2"/>
<polygon fill="none" stroke="#000000" points="387.5,-1041.2 387.5,-1060.2 439.5,-1060.2 439.5,-1041.2 387.5,-1041.2"/>
<text text-anchor="start" x="430.3862" y="-1047.3" font-family="Helvetica,sans-Serif" font-size="11.00" fill="#000000"> &#160;</text>
<polygon fill="#ffffff" stroke="transparent" points="439.5,-1041.2 439.5,-1060.2 492.5,-1060.2 492.5,-1041.2 439.5,-1041.2"/>
<polygon fill="none" stroke="#000000" points="439.5,-1041.2 439.5,-1060.2 492.5,-1060.2 492.5,-1041.2 439.5,-1041.2"/>
<text text-anchor="start" x="483.3862" y="-1047.3" font-family="Helvetica,sans-Serif" font-size="11.00" fill="#000000"> &#160;</text>
</a>
</g>
</g>
<!-- keyworker_configuration&#45;&gt;reference_data -->
<g id="edge1" class="edge">
<title>keyworker_configuration:w&#45;&gt;reference_data:e</title>
<path fill="none" stroke="#000000" d="M270.9208,-1116.4457C228.6707,-1124.3191 229.3276,-1168.0071 192,-1204.2 173.8368,-1221.8111 176.7992,-1244.2 151.5,-1244.2"/>
<polygon fill="#000000" stroke="#000000" points="277.529,-1115.8811 285.8065,-1118.7869 281.5145,-1115.5406 285.5,-1115.2 285.5,-1115.2 285.5,-1115.2 281.5145,-1115.5406 285.1935,-1111.6131 277.529,-1115.8811 277.529,-1115.8811"/>
<ellipse fill="none" stroke="#000000" cx="274.3407" cy="-1116.1536" rx="3.2" ry="3.2"/>
</g>
</g>
</svg>
