<?xml version="1.0" encoding="UTF-8" standalone="no"?>
<!DOCTYPE svg PUBLIC "-//W3C//DTD SVG 1.1//EN"
 "http://www.w3.org/Graphics/SVG/1.1/DTD/svg11.dtd">
<!-- Generated by graphviz version 2.40.1 (20161225.0304)
 -->
<!-- Title: compactImpliedRelationshipsDiagram Pages: 1 -->
<svg width="599pt" height="369pt"
 viewBox="0.00 0.00 599.00 369.20" xmlns="http://www.w3.org/2000/svg" xmlns:xlink="http://www.w3.org/1999/xlink">
<g id="graph0" class="graph" transform="scale(1 1) rotate(0) translate(4 365.2)">
<title>compactImpliedRelationshipsDiagram</title>
<polygon fill="#ffffff" stroke="transparent" points="-4,4 -4,-365.2 595,-365.2 595,4 -4,4"/>
<text text-anchor="middle" x="72.4936" y="-7.3" font-family="Helvetica,sans-Serif" font-size="11.00" fill="#000000">Generated by SchemaSpy</text>
<!-- prison_supported -->
<g id="node1" class="node">
<title>prison_supported</title>
<g id="a_node1"><a xlink:href="../../tables/prison_supported.html" xlink:title="prison_supported" target="_top">
<polygon fill="#ffffff" stroke="transparent" points="8,-93.2 8,-176.2 320,-176.2 320,-93.2 8,-93.2"/>
<polygon fill="#f5f5f5" stroke="transparent" points="8,-152.7 8,-175.7 320,-175.7 320,-152.7 8,-152.7"/>
<polygon fill="none" stroke="#000000" points="8,-152.7 8,-175.7 320,-175.7 320,-152.7 8,-152.7"/>
<text text-anchor="start" x="13" y="-161.3" font-family="Helvetica,sans-Serif" font-weight="bold" font-size="11.00" fill="#000000">prison_supported</text>
<text text-anchor="start" x="285.0437" y="-160.8" font-family="Helvetica,sans-Serif" font-size="11.00" fill="#000000">[table]</text>
<polygon fill="none" stroke="#000000" points="8,-130.7 8,-152.7 320,-152.7 320,-130.7 8,-130.7"/>
<image xlink:href="../../images/primaryKeys.png" width="11px" height="12px" preserveAspectRatio="xMinYMin meet" x="13" y="-147.7"/>
<text text-anchor="start" x="28" y="-137.8" font-family="Helvetica,sans-Serif" font-size="11.00" fill="#000000">prison_id</text>
<polygon fill="none" stroke="#000000" points="8,-111.7 8,-130.7 320,-130.7 320,-111.7 8,-111.7"/>
<text text-anchor="start" x="11" y="-117.8" font-family="Helvetica,sans-Serif" font-size="11.00" fill="#000000">...</text>
<polygon fill="#ffffff" stroke="transparent" points="8,-92.7 8,-111.7 158,-111.7 158,-92.7 8,-92.7"/>
<polygon fill="none" stroke="#000000" points="8,-92.7 8,-111.7 158,-111.7 158,-92.7 8,-92.7"/>
<text text-anchor="start" x="11" y="-98.8" font-family="Helvetica,sans-Serif" font-size="11.00" fill="#000000"> &#160;</text>
<polygon fill="#ffffff" stroke="transparent" points="158,-92.7 158,-111.7 239,-111.7 239,-92.7 158,-92.7"/>
<polygon fill="none" stroke="#000000" points="158,-92.7 158,-111.7 239,-111.7 239,-92.7 158,-92.7"/>
<text text-anchor="start" x="229.8862" y="-98.8" font-family="Helvetica,sans-Serif" font-size="11.00" fill="#000000"> &#160;</text>
<polygon fill="#ffffff" stroke="transparent" points="239,-92.7 239,-111.7 320,-111.7 320,-92.7 239,-92.7"/>
<polygon fill="none" stroke="#000000" points="239,-92.7 239,-111.7 320,-111.7 320,-92.7 239,-92.7"/>
<text text-anchor="start" x="310.8862" y="-98.8" font-family="Helvetica,sans-Serif" font-size="11.00" fill="#000000"> &#160;</text>
</a>
</g>
</g>
<!-- keyworker_stats -->
<g id="node2" class="node">
<title>keyworker_stats</title>
<g id="a_node2"><a xlink:href="../../tables/keyworker_stats.html" xlink:title="keyworker_stats" target="_top">
<polygon fill="#ffffff" stroke="transparent" points="369,-38.2 369,-165.2 583,-165.2 583,-38.2 369,-38.2"/>
<polygon fill="#f5f5f5" stroke="transparent" points="369,-141.7 369,-164.7 583,-164.7 583,-141.7 369,-141.7"/>
<polygon fill="none" stroke="#000000" points="369,-141.7 369,-164.7 583,-164.7 583,-141.7 369,-141.7"/>
<text text-anchor="start" x="374" y="-150.3" font-family="Helvetica,sans-Serif" font-weight="bold" font-size="11.00" fill="#000000">keyworker_stats</text>
<text text-anchor="start" x="548.0437" y="-149.8" font-family="Helvetica,sans-Serif" font-size="11.00" fill="#000000">[table]</text>
<polygon fill="none" stroke="#000000" points="369,-119.7 369,-141.7 583,-141.7 583,-119.7 369,-119.7"/>
<image xlink:href="../../images/primaryKeys.png" width="11px" height="12px" preserveAspectRatio="xMinYMin meet" x="374" y="-136.7"/>
<text text-anchor="start" x="389" y="-126.8" font-family="Helvetica,sans-Serif" font-size="11.00" fill="#000000">keyworker_stats_id</text>
<polygon fill="#ffffff" stroke="transparent" points="369,-97.7 369,-119.7 583,-119.7 583,-97.7 369,-97.7"/>
<polygon fill="none" stroke="#000000" points="369,-97.7 369,-119.7 583,-119.7 583,-97.7 369,-97.7"/>
<image xlink:href="../../images/foreignKeys.png" width="11px" height="12px" preserveAspectRatio="xMinYMin meet" x="374" y="-114.7"/>
<text text-anchor="start" x="389" y="-104.8" font-family="Helvetica,sans-Serif" font-size="11.00" fill="#000000">prison_id</text>
<polygon fill="#ffffff" stroke="transparent" points="369,-75.7 369,-97.7 583,-97.7 583,-75.7 369,-75.7"/>
<polygon fill="none" stroke="#000000" points="369,-75.7 369,-97.7 583,-97.7 583,-75.7 369,-75.7"/>
<text text-anchor="start" x="389" y="-82.8" font-family="Helvetica,sans-Serif" font-size="11.00" fill="#000000">snapshot_date</text>
<polygon fill="none" stroke="#000000" points="369,-56.7 369,-75.7 583,-75.7 583,-56.7 369,-56.7"/>
<text text-anchor="start" x="372" y="-62.8" font-family="Helvetica,sans-Serif" font-size="11.00" fill="#000000">...</text>
<polygon fill="#ffffff" stroke="transparent" points="369,-37.7 369,-56.7 470,-56.7 470,-37.7 369,-37.7"/>
<polygon fill="none" stroke="#000000" points="369,-37.7 369,-56.7 470,-56.7 470,-37.7 369,-37.7"/>
<text text-anchor="start" x="372" y="-43.8" font-family="Helvetica,sans-Serif" font-size="11.00" fill="#000000"> &#160;</text>
<polygon fill="#ffffff" stroke="transparent" points="470,-37.7 470,-56.7 526,-56.7 526,-37.7 470,-37.7"/>
<polygon fill="none" stroke="#000000" points="470,-37.7 470,-56.7 526,-56.7 526,-37.7 470,-37.7"/>
<text text-anchor="start" x="516.8862" y="-43.8" font-family="Helvetica,sans-Serif" font-size="11.00" fill="#000000"> &#160;</text>
<polygon fill="#ffffff" stroke="transparent" points="526,-37.7 526,-56.7 583,-56.7 583,-37.7 526,-37.7"/>
<polygon fill="none" stroke="#000000" points="526,-37.7 526,-56.7 583,-56.7 583,-37.7 526,-37.7"/>
<text text-anchor="start" x="573.8862" y="-43.8" font-family="Helvetica,sans-Serif" font-size="11.00" fill="#000000"> &#160;</text>
</a>
</g>
</g>
<!-- keyworker_stats&#45;&gt;prison_supported -->
<g id="edge1" class="edge">
<title>keyworker_stats:w&#45;&gt;prison_supported:e</title>
<path fill="none" stroke="#000000" stroke-dasharray="5,2" d="M355.0457,-113.0142C342.8073,-121.9592 340.3075,-141.7 320,-141.7"/>
<polygon fill="#000000" stroke="#000000" points="361.3569,-111.063 370.0634,-112.1394 365.1785,-109.8815 369,-108.7 369,-108.7 369,-108.7 365.1785,-109.8815 367.9366,-105.2606 361.3569,-111.063 361.3569,-111.063"/>
<ellipse fill="none" stroke="#000000" cx="358.2997" cy="-112.0082" rx="3.2" ry="3.2"/>
</g>
<!-- key_worker -->
<g id="node3" class="node">
<title>key_worker</title>
<g id="a_node3"><a xlink:href="../../tables/key_worker.html" xlink:title="key_worker" target="_top">
<polygon fill="#ffffff" stroke="transparent" points="86,-230.2 86,-313.2 242,-313.2 242,-230.2 86,-230.2"/>
<polygon fill="#f5f5f5" stroke="transparent" points="86,-289.7 86,-312.7 242,-312.7 242,-289.7 86,-289.7"/>
<polygon fill="none" stroke="#000000" points="86,-289.7 86,-312.7 242,-312.7 242,-289.7 86,-289.7"/>
<text text-anchor="start" x="91" y="-298.3" font-family="Helvetica,sans-Serif" font-weight="bold" font-size="11.00" fill="#000000">key_worker</text>
<text text-anchor="start" x="207.0437" y="-297.8" font-family="Helvetica,sans-Serif" font-size="11.00" fill="#000000">[table]</text>
<polygon fill="none" stroke="#000000" points="86,-267.7 86,-289.7 242,-289.7 242,-267.7 86,-267.7"/>
<image xlink:href="../../images/primaryKeys.png" width="11px" height="12px" preserveAspectRatio="xMinYMin meet" x="91" y="-284.7"/>
<text text-anchor="start" x="106" y="-274.8" font-family="Helvetica,sans-Serif" font-size="11.00" fill="#000000">staff_id</text>
<polygon fill="none" stroke="#000000" points="86,-248.7 86,-267.7 242,-267.7 242,-248.7 86,-248.7"/>
<text text-anchor="start" x="89" y="-254.8" font-family="Helvetica,sans-Serif" font-size="11.00" fill="#000000">...</text>
<polygon fill="#ffffff" stroke="transparent" points="86,-229.7 86,-248.7 158,-248.7 158,-229.7 86,-229.7"/>
<polygon fill="none" stroke="#000000" points="86,-229.7 86,-248.7 158,-248.7 158,-229.7 86,-229.7"/>
<text text-anchor="start" x="89" y="-235.8" font-family="Helvetica,sans-Serif" font-size="11.00" fill="#000000"> &#160;</text>
<polygon fill="#ffffff" stroke="transparent" points="158,-229.7 158,-248.7 200,-248.7 200,-229.7 158,-229.7"/>
<polygon fill="none" stroke="#000000" points="158,-229.7 158,-248.7 200,-248.7 200,-229.7 158,-229.7"/>
<text text-anchor="start" x="190.8862" y="-235.8" font-family="Helvetica,sans-Serif" font-size="11.00" fill="#000000"> &#160;</text>
<polygon fill="#ffffff" stroke="transparent" points="200,-229.7 200,-248.7 242,-248.7 242,-229.7 200,-229.7"/>
<polygon fill="none" stroke="#000000" points="200,-229.7 200,-248.7 242,-248.7 242,-229.7 200,-229.7"/>
<text text-anchor="start" x="232.8862" y="-235.8" font-family="Helvetica,sans-Serif" font-size="11.00" fill="#000000"> &#160;</text>
</a>
</g>
</g>
<!-- offender_key_worker -->
<g id="node4" class="node">
<title>offender_key_worker</title>
<g id="a_node4"><a xlink:href="../../tables/offender_key_worker.html" xlink:title="offender_key_worker" target="_top">
<polygon fill="#ffffff" stroke="transparent" points="386,-186.2 386,-357.2 566,-357.2 566,-186.2 386,-186.2"/>
<polygon fill="#f5f5f5" stroke="transparent" points="386,-333.7 386,-356.7 566,-356.7 566,-333.7 386,-333.7"/>
<polygon fill="none" stroke="#000000" points="386,-333.7 386,-356.7 566,-356.7 566,-333.7 386,-333.7"/>
<text text-anchor="start" x="391" y="-342.3" font-family="Helvetica,sans-Serif" font-weight="bold" font-size="11.00" fill="#000000">offender_key_worker</text>
<text text-anchor="start" x="531.5219" y="-341.8" font-family="Helvetica,sans-Serif" font-size="11.00" fill="#000000">[table]</text>
<polygon fill="none" stroke="#000000" points="386,-311.7 386,-333.7 566,-333.7 566,-311.7 386,-311.7"/>
<image xlink:href="../../images/primaryKeys.png" width="11px" height="12px" preserveAspectRatio="xMinYMin meet" x="391" y="-328.7"/>
<text text-anchor="start" x="409" y="-318.8" font-family="Helvetica,sans-Serif" font-size="11.00" fill="#000000">offender_keyworker_id</text>
<polygon fill="#ffffff" stroke="transparent" points="386,-289.7 386,-311.7 566,-311.7 566,-289.7 386,-289.7"/>
<polygon fill="none" stroke="#000000" points="386,-289.7 386,-311.7 566,-311.7 566,-289.7 386,-289.7"/>
<text text-anchor="start" x="409" y="-296.8" font-family="Helvetica,sans-Serif" font-size="11.00" fill="#000000">offender_no</text>
<polygon fill="#ffffff" stroke="transparent" points="386,-267.7 386,-289.7 566,-289.7 566,-267.7 386,-267.7"/>
<polygon fill="none" stroke="#000000" points="386,-267.7 386,-289.7 566,-289.7 566,-267.7 386,-267.7"/>
<image xlink:href="../../images/foreignKeys.png" width="11px" height="12px" preserveAspectRatio="xMinYMin meet" x="391" y="-284.7"/>
<text text-anchor="start" x="409" y="-274.8" font-family="Helvetica,sans-Serif" font-size="11.00" fill="#000000">staff_id</text>
<polygon fill="#ffffff" stroke="transparent" points="386,-245.7 386,-267.7 566,-267.7 566,-245.7 386,-245.7"/>
<polygon fill="none" stroke="#000000" points="386,-245.7 386,-267.7 566,-267.7 566,-245.7 386,-245.7"/>
<text text-anchor="start" x="409" y="-252.8" font-family="Helvetica,sans-Serif" font-size="11.00" fill="#000000">assigned_date_time</text>
<polygon fill="#ffffff" stroke="transparent" points="386,-223.7 386,-245.7 566,-245.7 566,-223.7 386,-223.7"/>
<polygon fill="none" stroke="#000000" points="386,-223.7 386,-245.7 566,-245.7 566,-223.7 386,-223.7"/>
<image xlink:href="../../images/foreignKeys.png" width="11px" height="12px" preserveAspectRatio="xMinYMin meet" x="391" y="-240.7"/>
<text text-anchor="start" x="409" y="-230.8" font-family="Helvetica,sans-Serif" font-size="11.00" fill="#000000">prison_id</text>
<polygon fill="none" stroke="#000000" points="386,-204.7 386,-223.7 566,-223.7 566,-204.7 386,-204.7"/>
<text text-anchor="start" x="389" y="-210.8" font-family="Helvetica,sans-Serif" font-size="11.00" fill="#000000">...</text>
<polygon fill="#ffffff" stroke="transparent" points="386,-185.7 386,-204.7 470,-204.7 470,-185.7 386,-185.7"/>
<polygon fill="none" stroke="#000000" points="386,-185.7 386,-204.7 470,-204.7 470,-185.7 386,-185.7"/>
<text text-anchor="start" x="389" y="-191.8" font-family="Helvetica,sans-Serif" font-size="11.00" fill="#000000"> &#160;</text>
<polygon fill="#ffffff" stroke="transparent" points="470,-185.7 470,-204.7 518,-204.7 518,-185.7 470,-185.7"/>
<polygon fill="none" stroke="#000000" points="470,-185.7 470,-204.7 518,-204.7 518,-185.7 470,-185.7"/>
<text text-anchor="start" x="508.8862" y="-191.8" font-family="Helvetica,sans-Serif" font-size="11.00" fill="#000000"> &#160;</text>
<polygon fill="#ffffff" stroke="transparent" points="518,-185.7 518,-204.7 566,-204.7 566,-185.7 518,-185.7"/>
<polygon fill="none" stroke="#000000" points="518,-185.7 518,-204.7 566,-204.7 566,-185.7 518,-185.7"/>
<text text-anchor="start" x="556.8862" y="-191.8" font-family="Helvetica,sans-Serif" font-size="11.00" fill="#000000"> &#160;</text>
</a>
</g>
</g>
<!-- offender_key_worker&#45;&gt;prison_supported -->
<g id="edge2" class="edge">
<title>offender_key_worker:w&#45;&gt;prison_supported:e</title>
<path fill="none" stroke="#000000" stroke-dasharray="5,2" d="M371.8379,-231.3901C342.2247,-214.8231 364.9426,-141.7 320,-141.7"/>
<polygon fill="#000000" stroke="#000000" points="378.2099,-232.8793 385.1807,-238.2055 382.105,-233.7896 386,-234.7 386,-234.7 386,-234.7 382.105,-233.7896 386.8193,-231.1945 378.2099,-232.8793 378.2099,-232.8793"/>
<ellipse fill="none" stroke="#000000" cx="375.0939" cy="-232.151" rx="3.2" ry="3.2"/>
</g>
<!-- offender_key_worker&#45;&gt;key_worker -->
<g id="edge3" class="edge">
<title>offender_key_worker:w&#45;&gt;key_worker:e</title>
<path fill="none" stroke="#000000" stroke-dasharray="5,2" d="M371.4991,-278.7C319.1297,-278.7 300.875,-278.7 242,-278.7"/>
<polygon fill="#000000" stroke="#000000" points="378,-278.7001 386,-282.3 382,-278.7 386,-278.7 386,-278.7 386,-278.7 382,-278.7 386,-275.1 378,-278.7001 378,-278.7001"/>
<ellipse fill="none" stroke="#000000" cx="374.8" cy="-278.7001" rx="3.2" ry="3.2"/>
</g>
</g>
</svg>
