<?xml version="1.0" encoding="UTF-8" standalone="no"?>
<!DOCTYPE svg PUBLIC "-//W3C//DTD SVG 1.1//EN"
 "http://www.w3.org/Graphics/SVG/1.1/DTD/svg11.dtd">
<!-- Generated by graphviz version 2.40.1 (20161225.0304)
 -->
<!-- Title: compactRelationshipsDiagram Pages: 1 -->
<svg width="593pt" height="1521pt"
 viewBox="0.00 0.00 593.00 1521.20" xmlns="http://www.w3.org/2000/svg" xmlns:xlink="http://www.w3.org/1999/xlink">
<g id="graph0" class="graph" transform="scale(1 1) rotate(0) translate(4 1517.2)">
<title>compactRelationshipsDiagram</title>
<polygon fill="#ffffff" stroke="transparent" points="-4,4 -4,-1517.2 589,-1517.2 589,4 -4,4"/>
<text text-anchor="middle" x="72.4936" y="-7.3" font-family="Helvetica,sans-Serif" font-size="11.00" fill="#000000">Generated by SchemaSpy</text>
<!-- prison_configuration_audit -->
<g id="node1" class="node">
<title>prison_configuration_audit</title>
<g id="a_node1"><a xlink:href="../../tables/prison_configuration_audit.html" xlink:title="prison_configuration_audit" target="_top">
<polygon fill="#ffffff" stroke="transparent" points="200,-526.2 200,-675.2 577,-675.2 577,-526.2 200,-526.2"/>
<polygon fill="#f5f5f5" stroke="transparent" points="200.5,-651.7 200.5,-674.7 577.5,-674.7 577.5,-651.7 200.5,-651.7"/>
<polygon fill="none" stroke="#000000" points="200.5,-651.7 200.5,-674.7 577.5,-674.7 577.5,-651.7 200.5,-651.7"/>
<text text-anchor="start" x="205.5" y="-660.3" font-family="Helvetica,sans-Serif" font-weight="bold" font-size="11.00" fill="#000000">prison_configuration_audit</text>
<text text-anchor="start" x="542.5437" y="-659.8" font-family="Helvetica,sans-Serif" font-size="11.00" fill="#000000">[table]</text>
<polygon fill="none" stroke="#000000" points="200.5,-629.7 200.5,-651.7 577.5,-651.7 577.5,-629.7 200.5,-629.7"/>
<image xlink:href="../../images/primaryKeys.png" width="11px" height="12px" preserveAspectRatio="xMinYMin meet" x="205.5" y="-646.7"/>
<text text-anchor="start" x="220.5" y="-636.8" font-family="Helvetica,sans-Serif" font-size="11.00" fill="#000000">rev_id</text>
<polygon fill="none" stroke="#000000" points="200.5,-607.7 200.5,-629.7 577.5,-629.7 577.5,-607.7 200.5,-607.7"/>
<image xlink:href="../../images/primaryKeys.png" width="11px" height="12px" preserveAspectRatio="xMinYMin meet" x="205.5" y="-624.7"/>
<text text-anchor="start" x="220.5" y="-614.8" font-family="Helvetica,sans-Serif" font-size="11.00" fill="#000000">id</text>
<polygon fill="none" stroke="#000000" points="200.5,-585.7 200.5,-607.7 577.5,-607.7 577.5,-585.7 200.5,-585.7"/>
<image xlink:href="../../images/foreignKeys.png" width="11px" height="12px" preserveAspectRatio="xMinYMin meet" x="205.5" y="-602.7"/>
<text text-anchor="start" x="220.5" y="-592.8" font-family="Helvetica,sans-Serif" font-size="11.00" fill="#000000">prison_code</text>
<polygon fill="none" stroke="#000000" points="200.5,-563.7 200.5,-585.7 577.5,-585.7 577.5,-563.7 200.5,-563.7"/>
<image xlink:href="../../images/foreignKeys.png" width="11px" height="12px" preserveAspectRatio="xMinYMin meet" x="205.5" y="-580.7"/>
<text text-anchor="start" x="220.5" y="-570.8" font-family="Helvetica,sans-Serif" font-size="11.00" fill="#000000">policy_code</text>
<polygon fill="none" stroke="#000000" points="200.5,-544.7 200.5,-563.7 577.5,-563.7 577.5,-544.7 200.5,-544.7"/>
<text text-anchor="start" x="203.5" y="-550.8" font-family="Helvetica,sans-Serif" font-size="11.00" fill="#000000">...</text>
<polygon fill="#ffffff" stroke="transparent" points="200.5,-525.7 200.5,-544.7 387.5,-544.7 387.5,-525.7 200.5,-525.7"/>
<polygon fill="none" stroke="#000000" points="200.5,-525.7 200.5,-544.7 387.5,-544.7 387.5,-525.7 200.5,-525.7"/>
<text text-anchor="start" x="203.5" y="-531.8" font-family="Helvetica,sans-Serif" font-size="11.00" fill="#000000">&lt; 1</text>
<polygon fill="#ffffff" stroke="transparent" points="387.5,-525.7 387.5,-544.7 482.5,-544.7 482.5,-525.7 387.5,-525.7"/>
<polygon fill="none" stroke="#000000" points="387.5,-525.7 387.5,-544.7 482.5,-544.7 482.5,-525.7 387.5,-525.7"/>
<text text-anchor="start" x="473.3862" y="-531.8" font-family="Helvetica,sans-Serif" font-size="11.00" fill="#000000"> &#160;</text>
<polygon fill="#ffffff" stroke="transparent" points="482.5,-525.7 482.5,-544.7 577.5,-544.7 577.5,-525.7 482.5,-525.7"/>
<polygon fill="none" stroke="#000000" points="482.5,-525.7 482.5,-544.7 577.5,-544.7 577.5,-525.7 482.5,-525.7"/>
<text text-anchor="start" x="568.3862" y="-531.8" font-family="Helvetica,sans-Serif" font-size="11.00" fill="#000000"> &#160;</text>
</a>
</g>
</g>
<!-- audit_revision -->
<g id="node6" class="node">
<title>audit_revision</title>
<g id="a_node6"><a xlink:href="../../tables/audit_revision.html" xlink:title="audit_revision" target="_top">
<polygon fill="#ffffff" stroke="transparent" points="12.5,-337.2 12.5,-420.2 146.5,-420.2 146.5,-337.2 12.5,-337.2"/>
<polygon fill="#f5f5f5" stroke="transparent" points="12.5,-396.7 12.5,-419.7 146.5,-419.7 146.5,-396.7 12.5,-396.7"/>
<polygon fill="none" stroke="#000000" points="12.5,-396.7 12.5,-419.7 146.5,-419.7 146.5,-396.7 12.5,-396.7"/>
<text text-anchor="start" x="17.5" y="-405.3" font-family="Helvetica,sans-Serif" font-weight="bold" font-size="11.00" fill="#000000">audit_revision</text>
<text text-anchor="start" x="112.0219" y="-404.8" font-family="Helvetica,sans-Serif" font-size="11.00" fill="#000000">[table]</text>
<polygon fill="none" stroke="#000000" points="12.5,-374.7 12.5,-396.7 146.5,-396.7 146.5,-374.7 12.5,-374.7"/>
<image xlink:href="../../images/primaryKeys.png" width="11px" height="12px" preserveAspectRatio="xMinYMin meet" x="17.5" y="-391.7"/>
<text text-anchor="start" x="32.5" y="-381.8" font-family="Helvetica,sans-Serif" font-size="11.00" fill="#000000">id</text>
<polygon fill="none" stroke="#000000" points="12.5,-355.7 12.5,-374.7 146.5,-374.7 146.5,-355.7 12.5,-355.7"/>
<text text-anchor="start" x="15.5" y="-361.8" font-family="Helvetica,sans-Serif" font-size="11.00" fill="#000000">...</text>
<polygon fill="#ffffff" stroke="transparent" points="12.5,-336.7 12.5,-355.7 68.5,-355.7 68.5,-336.7 12.5,-336.7"/>
<polygon fill="none" stroke="#000000" points="12.5,-336.7 12.5,-355.7 68.5,-355.7 68.5,-336.7 12.5,-336.7"/>
<text text-anchor="start" x="15.5" y="-342.8" font-family="Helvetica,sans-Serif" font-size="11.00" fill="#000000"> &#160;</text>
<polygon fill="#ffffff" stroke="transparent" points="68.5,-336.7 68.5,-355.7 102.5,-355.7 102.5,-336.7 68.5,-336.7"/>
<polygon fill="none" stroke="#000000" points="68.5,-336.7 68.5,-355.7 102.5,-355.7 102.5,-336.7 68.5,-336.7"/>
<text text-anchor="start" x="93.3862" y="-342.8" font-family="Helvetica,sans-Serif" font-size="11.00" fill="#000000"> &#160;</text>
<polygon fill="#ffffff" stroke="transparent" points="102.5,-336.7 102.5,-355.7 146.5,-355.7 146.5,-336.7 102.5,-336.7"/>
<polygon fill="none" stroke="#000000" points="102.5,-336.7 102.5,-355.7 146.5,-355.7 146.5,-336.7 102.5,-336.7"/>
<text text-anchor="start" x="127.9053" y="-342.8" font-family="Helvetica,sans-Serif" font-size="11.00" fill="#000000">4 &gt;</text>
</a>
</g>
</g>
<!-- prison_configuration_audit&#45;&gt;audit_revision -->
<g id="edge8" class="edge">
<title>prison_configuration_audit:w&#45;&gt;audit_revision:e</title>
<path fill="none" stroke="#000000" d="M186.0836,-639.0716C100.6671,-617.3541 256.9163,-385.7 146.5,-385.7"/>
<polygon fill="#000000" stroke="#000000" points="192.5505,-639.802 200.0959,-644.2773 196.5253,-640.251 200.5,-640.7 200.5,-640.7 200.5,-640.7 196.5253,-640.251 200.9041,-637.1227 192.5505,-639.802 192.5505,-639.802"/>
<ellipse fill="none" stroke="#000000" cx="189.3708" cy="-639.4429" rx="3.2" ry="3.2"/>
</g>
<!-- allocation_audit -->
<g id="node2" class="node">
<title>allocation_audit</title>
<g id="a_node2"><a xlink:href="../../tables/allocation_audit.html" xlink:title="allocation_audit" target="_top">
<polygon fill="#ffffff" stroke="transparent" points="278,-356.2 278,-505.2 499,-505.2 499,-356.2 278,-356.2"/>
<polygon fill="#f5f5f5" stroke="transparent" points="278.5,-481.7 278.5,-504.7 499.5,-504.7 499.5,-481.7 278.5,-481.7"/>
<polygon fill="none" stroke="#000000" points="278.5,-481.7 278.5,-504.7 499.5,-504.7 499.5,-481.7 278.5,-481.7"/>
<text text-anchor="start" x="283.5" y="-490.3" font-family="Helvetica,sans-Serif" font-weight="bold" font-size="11.00" fill="#000000">allocation_audit</text>
<text text-anchor="start" x="464.5437" y="-489.8" font-family="Helvetica,sans-Serif" font-size="11.00" fill="#000000">[table]</text>
<polygon fill="none" stroke="#000000" points="278.5,-459.7 278.5,-481.7 499.5,-481.7 499.5,-459.7 278.5,-459.7"/>
<image xlink:href="../../images/primaryKeys.png" width="11px" height="12px" preserveAspectRatio="xMinYMin meet" x="283.5" y="-476.7"/>
<text text-anchor="start" x="298.5" y="-466.8" font-family="Helvetica,sans-Serif" font-size="11.00" fill="#000000">rev_id</text>
<polygon fill="none" stroke="#000000" points="278.5,-437.7 278.5,-459.7 499.5,-459.7 499.5,-437.7 278.5,-437.7"/>
<image xlink:href="../../images/primaryKeys.png" width="11px" height="12px" preserveAspectRatio="xMinYMin meet" x="283.5" y="-454.7"/>
<text text-anchor="start" x="298.5" y="-444.8" font-family="Helvetica,sans-Serif" font-size="11.00" fill="#000000">id</text>
<polygon fill="none" stroke="#000000" points="278.5,-415.7 278.5,-437.7 499.5,-437.7 499.5,-415.7 278.5,-415.7"/>
<image xlink:href="../../images/foreignKeys.png" width="11px" height="12px" preserveAspectRatio="xMinYMin meet" x="283.5" y="-432.7"/>
<text text-anchor="start" x="298.5" y="-422.8" font-family="Helvetica,sans-Serif" font-size="11.00" fill="#000000">prison_code</text>
<polygon fill="none" stroke="#000000" points="278.5,-393.7 278.5,-415.7 499.5,-415.7 499.5,-393.7 278.5,-393.7"/>
<image xlink:href="../../images/foreignKeys.png" width="11px" height="12px" preserveAspectRatio="xMinYMin meet" x="283.5" y="-410.7"/>
<text text-anchor="start" x="298.5" y="-400.8" font-family="Helvetica,sans-Serif" font-size="11.00" fill="#000000">policy_code</text>
<polygon fill="none" stroke="#000000" points="278.5,-374.7 278.5,-393.7 499.5,-393.7 499.5,-374.7 278.5,-374.7"/>
<text text-anchor="start" x="281.5" y="-380.8" font-family="Helvetica,sans-Serif" font-size="11.00" fill="#000000">...</text>
<polygon fill="#ffffff" stroke="transparent" points="278.5,-355.7 278.5,-374.7 387.5,-374.7 387.5,-355.7 278.5,-355.7"/>
<polygon fill="none" stroke="#000000" points="278.5,-355.7 278.5,-374.7 387.5,-374.7 387.5,-355.7 278.5,-355.7"/>
<text text-anchor="start" x="281.5" y="-361.8" font-family="Helvetica,sans-Serif" font-size="11.00" fill="#000000">&lt; 1</text>
<polygon fill="#ffffff" stroke="transparent" points="387.5,-355.7 387.5,-374.7 443.5,-374.7 443.5,-355.7 387.5,-355.7"/>
<polygon fill="none" stroke="#000000" points="387.5,-355.7 387.5,-374.7 443.5,-374.7 443.5,-355.7 387.5,-355.7"/>
<text text-anchor="start" x="434.3862" y="-361.8" font-family="Helvetica,sans-Serif" font-size="11.00" fill="#000000"> &#160;</text>
<polygon fill="#ffffff" stroke="transparent" points="443.5,-355.7 443.5,-374.7 499.5,-374.7 499.5,-355.7 443.5,-355.7"/>
<polygon fill="none" stroke="#000000" points="443.5,-355.7 443.5,-374.7 499.5,-374.7 499.5,-355.7 443.5,-355.7"/>
<text text-anchor="start" x="490.3862" y="-361.8" font-family="Helvetica,sans-Serif" font-size="11.00" fill="#000000"> &#160;</text>
</a>
</g>
</g>
<!-- allocation_audit&#45;&gt;audit_revision -->
<g id="edge4" class="edge">
<title>allocation_audit:w&#45;&gt;audit_revision:e</title>
<path fill="none" stroke="#000000" d="M263.8324,-469.2956C209.4246,-458.244 210.9627,-385.7 146.5,-385.7"/>
<polygon fill="#000000" stroke="#000000" points="270.5364,-469.9374 278.1568,-474.2836 274.5182,-470.3187 278.5,-470.7 278.5,-470.7 278.5,-470.7 274.5182,-470.3187 278.8432,-467.1164 270.5364,-469.9374 270.5364,-469.9374"/>
<ellipse fill="none" stroke="#000000" cx="267.351" cy="-469.6324" rx="3.2" ry="3.2"/>
</g>
<!-- staff_configuration -->
<g id="node3" class="node">
<title>staff_configuration</title>
<g id="a_node3"><a xlink:href="../../tables/staff_configuration.html" xlink:title="staff_configuration" target="_top">
<polygon fill="#ffffff" stroke="transparent" points="305,-1212.2 305,-1361.2 472,-1361.2 472,-1212.2 305,-1212.2"/>
<polygon fill="#f5f5f5" stroke="transparent" points="305.5,-1337.7 305.5,-1360.7 472.5,-1360.7 472.5,-1337.7 305.5,-1337.7"/>
<polygon fill="none" stroke="#000000" points="305.5,-1337.7 305.5,-1360.7 472.5,-1360.7 472.5,-1337.7 305.5,-1337.7"/>
<text text-anchor="start" x="310.5" y="-1346.3" font-family="Helvetica,sans-Serif" font-weight="bold" font-size="11.00" fill="#000000">staff_configuration</text>
<text text-anchor="start" x="438.0219" y="-1345.8" font-family="Helvetica,sans-Serif" font-size="11.00" fill="#000000">[table]</text>
<polygon fill="#ffffff" stroke="transparent" points="305.5,-1315.7 305.5,-1337.7 472.5,-1337.7 472.5,-1315.7 305.5,-1315.7"/>
<polygon fill="none" stroke="#000000" points="305.5,-1315.7 305.5,-1337.7 472.5,-1337.7 472.5,-1315.7 305.5,-1315.7"/>
<text text-anchor="start" x="326.5" y="-1322.8" font-family="Helvetica,sans-Serif" font-size="11.00" fill="#000000">staff_id</text>
<polygon fill="none" stroke="#000000" points="305.5,-1293.7 305.5,-1315.7 472.5,-1315.7 472.5,-1293.7 305.5,-1293.7"/>
<image xlink:href="../../images/foreignKeys.png" width="11px" height="12px" preserveAspectRatio="xMinYMin meet" x="310.5" y="-1310.7"/>
<text text-anchor="start" x="326.5" y="-1300.8" font-family="Helvetica,sans-Serif" font-size="11.00" fill="#000000">status_id</text>
<polygon fill="#ffffff" stroke="transparent" points="305.5,-1271.7 305.5,-1293.7 472.5,-1293.7 472.5,-1271.7 305.5,-1271.7"/>
<polygon fill="none" stroke="#000000" points="305.5,-1271.7 305.5,-1293.7 472.5,-1293.7 472.5,-1271.7 305.5,-1271.7"/>
<image xlink:href="../../images/foreignKeys.png" width="11px" height="12px" preserveAspectRatio="xMinYMin meet" x="310.5" y="-1288.7"/>
<text text-anchor="start" x="326.5" y="-1278.8" font-family="Helvetica,sans-Serif" font-size="11.00" fill="#000000">policy_code</text>
<polygon fill="none" stroke="#000000" points="305.5,-1249.7 305.5,-1271.7 472.5,-1271.7 472.5,-1249.7 305.5,-1249.7"/>
<image xlink:href="../../images/primaryKeys.png" width="11px" height="12px" preserveAspectRatio="xMinYMin meet" x="310.5" y="-1266.7"/>
<text text-anchor="start" x="326.5" y="-1256.8" font-family="Helvetica,sans-Serif" font-size="11.00" fill="#000000">id</text>
<polygon fill="none" stroke="#000000" points="305.5,-1230.7 305.5,-1249.7 472.5,-1249.7 472.5,-1230.7 305.5,-1230.7"/>
<text text-anchor="start" x="308.5" y="-1236.8" font-family="Helvetica,sans-Serif" font-size="11.00" fill="#000000">...</text>
<polygon fill="#ffffff" stroke="transparent" points="305.5,-1211.7 305.5,-1230.7 387.5,-1230.7 387.5,-1211.7 305.5,-1211.7"/>
<polygon fill="none" stroke="#000000" points="305.5,-1211.7 305.5,-1230.7 387.5,-1230.7 387.5,-1211.7 305.5,-1211.7"/>
<text text-anchor="start" x="308.5" y="-1217.8" font-family="Helvetica,sans-Serif" font-size="11.00" fill="#000000">&lt; 2</text>
<polygon fill="#ffffff" stroke="transparent" points="387.5,-1211.7 387.5,-1230.7 429.5,-1230.7 429.5,-1211.7 387.5,-1211.7"/>
<polygon fill="none" stroke="#000000" points="387.5,-1211.7 387.5,-1230.7 429.5,-1230.7 429.5,-1211.7 387.5,-1211.7"/>
<text text-anchor="start" x="420.3862" y="-1217.8" font-family="Helvetica,sans-Serif" font-size="11.00" fill="#000000"> &#160;</text>
<polygon fill="#ffffff" stroke="transparent" points="429.5,-1211.7 429.5,-1230.7 472.5,-1230.7 472.5,-1211.7 429.5,-1211.7"/>
<polygon fill="none" stroke="#000000" points="429.5,-1211.7 429.5,-1230.7 472.5,-1230.7 472.5,-1211.7 429.5,-1211.7"/>
<text text-anchor="start" x="463.3862" y="-1217.8" font-family="Helvetica,sans-Serif" font-size="11.00" fill="#000000"> &#160;</text>
</a>
</g>
</g>
<!-- policy -->
<g id="node8" class="node">
<title>policy</title>
<g id="a_node8"><a xlink:href="../../tables/policy.html" xlink:title="policy" target="_top">
<polygon fill="#ffffff" stroke="transparent" points="31,-1234.2 31,-1317.2 128,-1317.2 128,-1234.2 31,-1234.2"/>
<polygon fill="#f5f5f5" stroke="transparent" points="31.5,-1293.7 31.5,-1316.7 128.5,-1316.7 128.5,-1293.7 31.5,-1293.7"/>
<polygon fill="none" stroke="#000000" points="31.5,-1293.7 31.5,-1316.7 128.5,-1316.7 128.5,-1293.7 31.5,-1293.7"/>
<text text-anchor="start" x="36.5" y="-1302.3" font-family="Helvetica,sans-Serif" font-weight="bold" font-size="11.00" fill="#000000">policy</text>
<text text-anchor="start" x="93.5437" y="-1301.8" font-family="Helvetica,sans-Serif" font-size="11.00" fill="#000000">[table]</text>
<polygon fill="none" stroke="#000000" points="31.5,-1271.7 31.5,-1293.7 128.5,-1293.7 128.5,-1271.7 31.5,-1271.7"/>
<image xlink:href="../../images/primaryKeys.png" width="11px" height="12px" preserveAspectRatio="xMinYMin meet" x="36.5" y="-1288.7"/>
<text text-anchor="start" x="51.5" y="-1278.8" font-family="Helvetica,sans-Serif" font-size="11.00" fill="#000000">code</text>
<polygon fill="none" stroke="#000000" points="31.5,-1252.7 31.5,-1271.7 128.5,-1271.7 128.5,-1252.7 31.5,-1252.7"/>
<text text-anchor="start" x="34.5" y="-1258.8" font-family="Helvetica,sans-Serif" font-size="11.00" fill="#000000">...</text>
<polygon fill="#ffffff" stroke="transparent" points="31.5,-1233.7 31.5,-1252.7 69.5,-1252.7 69.5,-1233.7 31.5,-1233.7"/>
<polygon fill="none" stroke="#000000" points="31.5,-1233.7 31.5,-1252.7 69.5,-1252.7 69.5,-1233.7 31.5,-1233.7"/>
<text text-anchor="start" x="34.5" y="-1239.8" font-family="Helvetica,sans-Serif" font-size="11.00" fill="#000000"> &#160;</text>
<polygon fill="#ffffff" stroke="transparent" points="69.5,-1233.7 69.5,-1252.7 94.5,-1252.7 94.5,-1233.7 69.5,-1233.7"/>
<polygon fill="none" stroke="#000000" points="69.5,-1233.7 69.5,-1252.7 94.5,-1252.7 94.5,-1233.7 69.5,-1233.7"/>
<text text-anchor="start" x="85.3862" y="-1239.8" font-family="Helvetica,sans-Serif" font-size="11.00" fill="#000000"> &#160;</text>
<polygon fill="#ffffff" stroke="transparent" points="94.5,-1233.7 94.5,-1252.7 128.5,-1252.7 128.5,-1233.7 94.5,-1233.7"/>
<polygon fill="none" stroke="#000000" points="94.5,-1233.7 94.5,-1252.7 128.5,-1252.7 128.5,-1233.7 94.5,-1233.7"/>
<text text-anchor="start" x="109.9053" y="-1239.8" font-family="Helvetica,sans-Serif" font-size="11.00" fill="#000000">3 &gt;</text>
</a>
</g>
</g>
<!-- staff_configuration&#45;&gt;policy -->
<g id="edge9" class="edge">
<title>staff_configuration:w&#45;&gt;policy:e</title>
<path fill="none" stroke="#000000" d="M290.9928,-1282.7C224.0531,-1282.7 202.0964,-1282.7 128.5,-1282.7"/>
<polygon fill="#000000" stroke="#000000" points="297.5,-1282.7001 305.5,-1286.3 301.5,-1282.7 305.5,-1282.7 305.5,-1282.7 305.5,-1282.7 301.5,-1282.7 305.5,-1279.1 297.5,-1282.7001 297.5,-1282.7001"/>
<ellipse fill="none" stroke="#000000" cx="294.3" cy="-1282.7001" rx="3.2" ry="3.2"/>
</g>
<!-- reference_data -->
<g id="node11" class="node">
<title>reference_data</title>
<g id="a_node11"><a xlink:href="../../tables/reference_data.html" xlink:title="reference_data" target="_top">
<polygon fill="#ffffff" stroke="transparent" points="8,-910.2 8,-1059.2 151,-1059.2 151,-910.2 8,-910.2"/>
<polygon fill="#f5f5f5" stroke="transparent" points="8.5,-1035.7 8.5,-1058.7 151.5,-1058.7 151.5,-1035.7 8.5,-1035.7"/>
<polygon fill="none" stroke="#000000" points="8.5,-1035.7 8.5,-1058.7 151.5,-1058.7 151.5,-1035.7 8.5,-1035.7"/>
<text text-anchor="start" x="13.5" y="-1044.3" font-family="Helvetica,sans-Serif" font-weight="bold" font-size="11.00" fill="#000000">reference_data</text>
<text text-anchor="start" x="116.5437" y="-1043.8" font-family="Helvetica,sans-Serif" font-size="11.00" fill="#000000">[table]</text>
<polygon fill="none" stroke="#000000" points="8.5,-1013.7 8.5,-1035.7 151.5,-1035.7 151.5,-1013.7 8.5,-1013.7"/>
<image xlink:href="../../images/primaryKeys.png" width="11px" height="12px" preserveAspectRatio="xMinYMin meet" x="13.5" y="-1030.7"/>
<text text-anchor="start" x="28.5" y="-1020.8" font-family="Helvetica,sans-Serif" font-size="11.00" fill="#000000">id</text>
<polygon fill="#ffffff" stroke="transparent" points="8.5,-991.7 8.5,-1013.7 151.5,-1013.7 151.5,-991.7 8.5,-991.7"/>
<polygon fill="none" stroke="#000000" points="8.5,-991.7 8.5,-1013.7 151.5,-1013.7 151.5,-991.7 8.5,-991.7"/>
<text text-anchor="start" x="28.5" y="-998.8" font-family="Helvetica,sans-Serif" font-size="11.00" fill="#000000">domain</text>
<polygon fill="#ffffff" stroke="transparent" points="8.5,-969.7 8.5,-991.7 151.5,-991.7 151.5,-969.7 8.5,-969.7"/>
<polygon fill="none" stroke="#000000" points="8.5,-969.7 8.5,-991.7 151.5,-991.7 151.5,-969.7 8.5,-969.7"/>
<text text-anchor="start" x="28.5" y="-976.8" font-family="Helvetica,sans-Serif" font-size="11.00" fill="#000000">code</text>
<polygon fill="#ffffff" stroke="transparent" points="8.5,-947.7 8.5,-969.7 151.5,-969.7 151.5,-947.7 8.5,-947.7"/>
<polygon fill="none" stroke="#000000" points="8.5,-947.7 8.5,-969.7 151.5,-969.7 151.5,-947.7 8.5,-947.7"/>
<text text-anchor="start" x="28.5" y="-954.8" font-family="Helvetica,sans-Serif" font-size="11.00" fill="#000000">sequence_number</text>
<polygon fill="none" stroke="#000000" points="8.5,-928.7 8.5,-947.7 151.5,-947.7 151.5,-928.7 8.5,-928.7"/>
<text text-anchor="start" x="11.5" y="-934.8" font-family="Helvetica,sans-Serif" font-size="11.00" fill="#000000">...</text>
<polygon fill="#ffffff" stroke="transparent" points="8.5,-909.7 8.5,-928.7 69.5,-928.7 69.5,-909.7 8.5,-909.7"/>
<polygon fill="none" stroke="#000000" points="8.5,-909.7 8.5,-928.7 69.5,-928.7 69.5,-909.7 8.5,-909.7"/>
<text text-anchor="start" x="11.5" y="-915.8" font-family="Helvetica,sans-Serif" font-size="11.00" fill="#000000"> &#160;</text>
<polygon fill="#ffffff" stroke="transparent" points="69.5,-909.7 69.5,-928.7 105.5,-928.7 105.5,-909.7 69.5,-909.7"/>
<polygon fill="none" stroke="#000000" points="69.5,-909.7 69.5,-928.7 105.5,-928.7 105.5,-909.7 69.5,-909.7"/>
<text text-anchor="start" x="96.3862" y="-915.8" font-family="Helvetica,sans-Serif" font-size="11.00" fill="#000000"> &#160;</text>
<polygon fill="#ffffff" stroke="transparent" points="105.5,-909.7 105.5,-928.7 151.5,-928.7 151.5,-909.7 105.5,-909.7"/>
<polygon fill="none" stroke="#000000" points="105.5,-909.7 105.5,-928.7 151.5,-928.7 151.5,-909.7 105.5,-909.7"/>
<text text-anchor="start" x="132.9053" y="-915.8" font-family="Helvetica,sans-Serif" font-size="11.00" fill="#000000">5 &gt;</text>
</a>
</g>
</g>
<!-- staff_configuration&#45;&gt;reference_data -->
<g id="edge10" class="edge">
<title>staff_configuration:w&#45;&gt;reference_data:e</title>
<path fill="none" stroke="#000000" d="M290.8927,-1303.9436C235.5721,-1297.8809 223.7809,-1256.016 192,-1201.7 151.2454,-1132.0473 232.1997,-1024.7 151.5,-1024.7"/>
<polygon fill="#000000" stroke="#000000" points="297.5107,-1304.2863 305.3138,-1308.2952 301.5054,-1304.4931 305.5,-1304.7 305.5,-1304.7 305.5,-1304.7 301.5054,-1304.4931 305.6862,-1301.1048 297.5107,-1304.2863 297.5107,-1304.2863"/>
<ellipse fill="none" stroke="#000000" cx="294.315" cy="-1304.1208" rx="3.2" ry="3.2"/>
</g>
<!-- allocation -->
<g id="node4" class="node">
<title>allocation</title>
<g id="a_node4"><a xlink:href="../../tables/allocation.html" xlink:title="allocation" target="_top">
<polygon fill="#ffffff" stroke="transparent" points="301.5,-932.2 301.5,-1191.2 475.5,-1191.2 475.5,-932.2 301.5,-932.2"/>
<polygon fill="#f5f5f5" stroke="transparent" points="301.5,-1167.7 301.5,-1190.7 475.5,-1190.7 475.5,-1167.7 301.5,-1167.7"/>
<polygon fill="none" stroke="#000000" points="301.5,-1167.7 301.5,-1190.7 475.5,-1190.7 475.5,-1167.7 301.5,-1167.7"/>
<text text-anchor="start" x="306.5" y="-1176.3" font-family="Helvetica,sans-Serif" font-weight="bold" font-size="11.00" fill="#000000">allocation</text>
<text text-anchor="start" x="440.5437" y="-1175.8" font-family="Helvetica,sans-Serif" font-size="11.00" fill="#000000">[table]</text>
<polygon fill="none" stroke="#000000" points="301.5,-1145.7 301.5,-1167.7 475.5,-1167.7 475.5,-1145.7 301.5,-1145.7"/>
<image xlink:href="../../images/primaryKeys.png" width="11px" height="12px" preserveAspectRatio="xMinYMin meet" x="306.5" y="-1162.7"/>
<text text-anchor="start" x="321.5" y="-1152.8" font-family="Helvetica,sans-Serif" font-size="11.00" fill="#000000">id</text>
<polygon fill="#ffffff" stroke="transparent" points="301.5,-1123.7 301.5,-1145.7 475.5,-1145.7 475.5,-1123.7 301.5,-1123.7"/>
<polygon fill="none" stroke="#000000" points="301.5,-1123.7 301.5,-1145.7 475.5,-1145.7 475.5,-1123.7 301.5,-1123.7"/>
<image xlink:href="../../images/foreignKeys.png" width="11px" height="12px" preserveAspectRatio="xMinYMin meet" x="306.5" y="-1140.7"/>
<text text-anchor="start" x="321.5" y="-1130.8" font-family="Helvetica,sans-Serif" font-size="11.00" fill="#000000">prison_code</text>
<polygon fill="#ffffff" stroke="transparent" points="301.5,-1101.7 301.5,-1123.7 475.5,-1123.7 475.5,-1101.7 301.5,-1101.7"/>
<polygon fill="none" stroke="#000000" points="301.5,-1101.7 301.5,-1123.7 475.5,-1123.7 475.5,-1101.7 301.5,-1101.7"/>
<text text-anchor="start" x="321.5" y="-1108.8" font-family="Helvetica,sans-Serif" font-size="11.00" fill="#000000">staff_id</text>
<polygon fill="#ffffff" stroke="transparent" points="301.5,-1079.7 301.5,-1101.7 475.5,-1101.7 475.5,-1079.7 301.5,-1079.7"/>
<polygon fill="none" stroke="#000000" points="301.5,-1079.7 301.5,-1101.7 475.5,-1101.7 475.5,-1079.7 301.5,-1079.7"/>
<text text-anchor="start" x="321.5" y="-1086.8" font-family="Helvetica,sans-Serif" font-size="11.00" fill="#000000">person_identifier</text>
<polygon fill="#ffffff" stroke="transparent" points="301.5,-1057.7 301.5,-1079.7 475.5,-1079.7 475.5,-1057.7 301.5,-1057.7"/>
<polygon fill="none" stroke="#000000" points="301.5,-1057.7 301.5,-1079.7 475.5,-1079.7 475.5,-1057.7 301.5,-1057.7"/>
<text text-anchor="start" x="321.5" y="-1064.8" font-family="Helvetica,sans-Serif" font-size="11.00" fill="#000000">allocated_at</text>
<polygon fill="none" stroke="#000000" points="301.5,-1035.7 301.5,-1057.7 475.5,-1057.7 475.5,-1035.7 301.5,-1035.7"/>
<image xlink:href="../../images/foreignKeys.png" width="11px" height="12px" preserveAspectRatio="xMinYMin meet" x="306.5" y="-1052.7"/>
<text text-anchor="start" x="321.5" y="-1042.8" font-family="Helvetica,sans-Serif" font-size="11.00" fill="#000000">allocation_reason_id</text>
<polygon fill="none" stroke="#000000" points="301.5,-1013.7 301.5,-1035.7 475.5,-1035.7 475.5,-1013.7 301.5,-1013.7"/>
<image xlink:href="../../images/foreignKeys.png" width="11px" height="12px" preserveAspectRatio="xMinYMin meet" x="306.5" y="-1030.7"/>
<text text-anchor="start" x="321.5" y="-1020.8" font-family="Helvetica,sans-Serif" font-size="11.00" fill="#000000">deallocation_reason_id</text>
<polygon fill="#ffffff" stroke="transparent" points="301.5,-991.7 301.5,-1013.7 475.5,-1013.7 475.5,-991.7 301.5,-991.7"/>
<polygon fill="none" stroke="#000000" points="301.5,-991.7 301.5,-1013.7 475.5,-1013.7 475.5,-991.7 301.5,-991.7"/>
<image xlink:href="../../images/foreignKeys.png" width="11px" height="12px" preserveAspectRatio="xMinYMin meet" x="306.5" y="-1008.7"/>
<text text-anchor="start" x="321.5" y="-998.8" font-family="Helvetica,sans-Serif" font-size="11.00" fill="#000000">policy_code</text>
<polygon fill="#ffffff" stroke="transparent" points="301.5,-969.7 301.5,-991.7 475.5,-991.7 475.5,-969.7 301.5,-969.7"/>
<polygon fill="none" stroke="#000000" points="301.5,-969.7 301.5,-991.7 475.5,-991.7 475.5,-969.7 301.5,-969.7"/>
<text text-anchor="start" x="321.5" y="-976.8" font-family="Helvetica,sans-Serif" font-size="11.00" fill="#000000">legacy_id</text>
<polygon fill="none" stroke="#000000" points="301.5,-950.7 301.5,-969.7 475.5,-969.7 475.5,-950.7 301.5,-950.7"/>
<text text-anchor="start" x="304.5" y="-956.8" font-family="Helvetica,sans-Serif" font-size="11.00" fill="#000000">...</text>
<polygon fill="#ffffff" stroke="transparent" points="301.5,-931.7 301.5,-950.7 386.5,-950.7 386.5,-931.7 301.5,-931.7"/>
<polygon fill="none" stroke="#000000" points="301.5,-931.7 301.5,-950.7 386.5,-950.7 386.5,-931.7 301.5,-931.7"/>
<text text-anchor="start" x="304.5" y="-937.8" font-family="Helvetica,sans-Serif" font-size="11.00" fill="#000000">&lt; 3</text>
<polygon fill="#ffffff" stroke="transparent" points="386.5,-931.7 386.5,-950.7 430.5,-950.7 430.5,-931.7 386.5,-931.7"/>
<polygon fill="none" stroke="#000000" points="386.5,-931.7 386.5,-950.7 430.5,-950.7 430.5,-931.7 386.5,-931.7"/>
<text text-anchor="start" x="421.3862" y="-937.8" font-family="Helvetica,sans-Serif" font-size="11.00" fill="#000000"> &#160;</text>
<polygon fill="#ffffff" stroke="transparent" points="430.5,-931.7 430.5,-950.7 475.5,-950.7 475.5,-931.7 430.5,-931.7"/>
<polygon fill="none" stroke="#000000" points="430.5,-931.7 430.5,-950.7 475.5,-950.7 475.5,-931.7 430.5,-931.7"/>
<text text-anchor="start" x="466.3862" y="-937.8" font-family="Helvetica,sans-Serif" font-size="11.00" fill="#000000"> &#160;</text>
</a>
</g>
</g>
<!-- allocation&#45;&gt;policy -->
<g id="edge3" class="edge">
<title>allocation:w&#45;&gt;policy:e</title>
<path fill="none" stroke="#000000" d="M289.0932,-1010.1893C246.0294,-1054.7172 161.4991,-1282.7 128.5,-1282.7"/>
<polygon fill="#000000" stroke="#000000" points="294.6511,-1006.8343 303.3605,-1005.782 298.0755,-1004.7672 301.5,-1002.7 301.5,-1002.7 301.5,-1002.7 298.0755,-1004.7672 299.6395,-999.618 294.6511,-1006.8343 294.6511,-1006.8343"/>
<ellipse fill="none" stroke="#000000" cx="291.9115" cy="-1008.4881" rx="3.2" ry="3.2"/>
</g>
<!-- allocation&#45;&gt;reference_data -->
<g id="edge1" class="edge">
<title>allocation:w&#45;&gt;reference_data:e</title>
<path fill="none" stroke="#000000" d="M286.9641,-1046.3365C231.4958,-1043.4761 213.7474,-1024.7 151.5,-1024.7"/>
<polygon fill="#000000" stroke="#000000" points="293.5025,-1046.5 301.41,-1050.2989 297.5013,-1046.6 301.5,-1046.7 301.5,-1046.7 301.5,-1046.7 297.5013,-1046.6 301.59,-1043.1011 293.5025,-1046.5 293.5025,-1046.5"/>
<ellipse fill="none" stroke="#000000" cx="290.3035" cy="-1046.4199" rx="3.2" ry="3.2"/>
</g>
<!-- allocation&#45;&gt;reference_data -->
<g id="edge2" class="edge">
<title>allocation:w&#45;&gt;reference_data:e</title>
<path fill="none" stroke="#000000" d="M287.0918,-1024.7C232.0042,-1024.7 213.0885,-1024.7 151.5,-1024.7"/>
<polygon fill="#000000" stroke="#000000" points="293.5,-1024.7001 301.5,-1028.3 297.5,-1024.7 301.5,-1024.7 301.5,-1024.7 301.5,-1024.7 297.5,-1024.7 301.5,-1021.1 293.5,-1024.7001 293.5,-1024.7001"/>
<ellipse fill="none" stroke="#000000" cx="290.3" cy="-1024.7001" rx="3.2" ry="3.2"/>
</g>
<!-- prison_configuration -->
<g id="node5" class="node">
<title>prison_configuration</title>
<g id="a_node5"><a xlink:href="../../tables/prison_configuration.html" xlink:title="prison_configuration" target="_top">
<polygon fill="#ffffff" stroke="transparent" points="232.5,-1382.2 232.5,-1509.2 544.5,-1509.2 544.5,-1382.2 232.5,-1382.2"/>
<polygon fill="#f5f5f5" stroke="transparent" points="232.5,-1485.7 232.5,-1508.7 544.5,-1508.7 544.5,-1485.7 232.5,-1485.7"/>
<polygon fill="none" stroke="#000000" points="232.5,-1485.7 232.5,-1508.7 544.5,-1508.7 544.5,-1485.7 232.5,-1485.7"/>
<text text-anchor="start" x="237.5" y="-1494.3" font-family="Helvetica,sans-Serif" font-weight="bold" font-size="11.00" fill="#000000">prison_configuration</text>
<text text-anchor="start" x="509.5437" y="-1493.8" font-family="Helvetica,sans-Serif" font-size="11.00" fill="#000000">[table]</text>
<polygon fill="#ffffff" stroke="transparent" points="232.5,-1463.7 232.5,-1485.7 544.5,-1485.7 544.5,-1463.7 232.5,-1463.7"/>
<polygon fill="none" stroke="#000000" points="232.5,-1463.7 232.5,-1485.7 544.5,-1485.7 544.5,-1463.7 232.5,-1463.7"/>
<image xlink:href="../../images/foreignKeys.png" width="11px" height="12px" preserveAspectRatio="xMinYMin meet" x="237.5" y="-1480.7"/>
<text text-anchor="start" x="252.5" y="-1470.8" font-family="Helvetica,sans-Serif" font-size="11.00" fill="#000000">prison_code</text>
<polygon fill="#ffffff" stroke="transparent" points="232.5,-1441.7 232.5,-1463.7 544.5,-1463.7 544.5,-1441.7 232.5,-1441.7"/>
<polygon fill="none" stroke="#000000" points="232.5,-1441.7 232.5,-1463.7 544.5,-1463.7 544.5,-1441.7 232.5,-1441.7"/>
<image xlink:href="../../images/foreignKeys.png" width="11px" height="12px" preserveAspectRatio="xMinYMin meet" x="237.5" y="-1458.7"/>
<text text-anchor="start" x="252.5" y="-1448.8" font-family="Helvetica,sans-Serif" font-size="11.00" fill="#000000">policy_code</text>
<polygon fill="none" stroke="#000000" points="232.5,-1419.7 232.5,-1441.7 544.5,-1441.7 544.5,-1419.7 232.5,-1419.7"/>
<image xlink:href="../../images/primaryKeys.png" width="11px" height="12px" preserveAspectRatio="xMinYMin meet" x="237.5" y="-1436.7"/>
<text text-anchor="start" x="252.5" y="-1426.8" font-family="Helvetica,sans-Serif" font-size="11.00" fill="#000000">id</text>
<polygon fill="none" stroke="#000000" points="232.5,-1400.7 232.5,-1419.7 544.5,-1419.7 544.5,-1400.7 232.5,-1400.7"/>
<text text-anchor="start" x="235.5" y="-1406.8" font-family="Helvetica,sans-Serif" font-size="11.00" fill="#000000">...</text>
<polygon fill="#ffffff" stroke="transparent" points="232.5,-1381.7 232.5,-1400.7 370.5,-1400.7 370.5,-1381.7 232.5,-1381.7"/>
<polygon fill="none" stroke="#000000" points="232.5,-1381.7 232.5,-1400.7 370.5,-1400.7 370.5,-1381.7 232.5,-1381.7"/>
<text text-anchor="start" x="235.5" y="-1387.8" font-family="Helvetica,sans-Serif" font-size="11.00" fill="#000000">&lt; 1</text>
<polygon fill="#ffffff" stroke="transparent" points="370.5,-1381.7 370.5,-1400.7 473.5,-1400.7 473.5,-1381.7 370.5,-1381.7"/>
<polygon fill="none" stroke="#000000" points="370.5,-1381.7 370.5,-1400.7 473.5,-1400.7 473.5,-1381.7 370.5,-1381.7"/>
<text text-anchor="start" x="431.9956" y="-1387.8" font-family="Helvetica,sans-Serif" font-size="11.00" fill="#000000">12 rows</text>
<polygon fill="#ffffff" stroke="transparent" points="473.5,-1381.7 473.5,-1400.7 544.5,-1400.7 544.5,-1381.7 473.5,-1381.7"/>
<polygon fill="none" stroke="#000000" points="473.5,-1381.7 473.5,-1400.7 544.5,-1400.7 544.5,-1381.7 473.5,-1381.7"/>
<text text-anchor="start" x="535.3862" y="-1387.8" font-family="Helvetica,sans-Serif" font-size="11.00" fill="#000000"> &#160;</text>
</a>
</g>
</g>
<!-- prison_configuration&#45;&gt;policy -->
<g id="edge7" class="edge">
<title>prison_configuration:w&#45;&gt;policy:e</title>
<path fill="none" stroke="#000000" d="M218.1183,-1450.9058C152.1918,-1432.7373 211.71,-1282.7 128.5,-1282.7"/>
<polygon fill="#000000" stroke="#000000" points="224.5615,-1451.7096 232.0543,-1456.2723 228.5308,-1452.2048 232.5,-1452.7 232.5,-1452.7 232.5,-1452.7 228.5308,-1452.2048 232.9457,-1449.1277 224.5615,-1451.7096 224.5615,-1451.7096"/>
<ellipse fill="none" stroke="#000000" cx="221.3861" cy="-1451.3134" rx="3.2" ry="3.2"/>
</g>
<!-- staff_configuration_audit -->
<g id="node7" class="node">
<title>staff_configuration_audit</title>
<g id="a_node7"><a xlink:href="../../tables/staff_configuration_audit.html" xlink:title="staff_configuration_audit" target="_top">
<polygon fill="#ffffff" stroke="transparent" points="273,-208.2 273,-335.2 504,-335.2 504,-208.2 273,-208.2"/>
<polygon fill="#f5f5f5" stroke="transparent" points="273.5,-311.7 273.5,-334.7 504.5,-334.7 504.5,-311.7 273.5,-311.7"/>
<polygon fill="none" stroke="#000000" points="273.5,-311.7 273.5,-334.7 504.5,-334.7 504.5,-311.7 273.5,-311.7"/>
<text text-anchor="start" x="278.5" y="-320.3" font-family="Helvetica,sans-Serif" font-weight="bold" font-size="11.00" fill="#000000">staff_configuration_audit</text>
<text text-anchor="start" x="469.5437" y="-319.8" font-family="Helvetica,sans-Serif" font-size="11.00" fill="#000000">[table]</text>
<polygon fill="none" stroke="#000000" points="273.5,-289.7 273.5,-311.7 504.5,-311.7 504.5,-289.7 273.5,-289.7"/>
<image xlink:href="../../images/primaryKeys.png" width="11px" height="12px" preserveAspectRatio="xMinYMin meet" x="278.5" y="-306.7"/>
<text text-anchor="start" x="293.5" y="-296.8" font-family="Helvetica,sans-Serif" font-size="11.00" fill="#000000">rev_id</text>
<polygon fill="none" stroke="#000000" points="273.5,-267.7 273.5,-289.7 504.5,-289.7 504.5,-267.7 273.5,-267.7"/>
<image xlink:href="../../images/primaryKeys.png" width="11px" height="12px" preserveAspectRatio="xMinYMin meet" x="278.5" y="-284.7"/>
<text text-anchor="start" x="293.5" y="-274.8" font-family="Helvetica,sans-Serif" font-size="11.00" fill="#000000">id</text>
<polygon fill="none" stroke="#000000" points="273.5,-245.7 273.5,-267.7 504.5,-267.7 504.5,-245.7 273.5,-245.7"/>
<image xlink:href="../../images/foreignKeys.png" width="11px" height="12px" preserveAspectRatio="xMinYMin meet" x="278.5" y="-262.7"/>
<text text-anchor="start" x="293.5" y="-252.8" font-family="Helvetica,sans-Serif" font-size="11.00" fill="#000000">policy_code</text>
<polygon fill="none" stroke="#000000" points="273.5,-226.7 273.5,-245.7 504.5,-245.7 504.5,-226.7 273.5,-226.7"/>
<text text-anchor="start" x="276.5" y="-232.8" font-family="Helvetica,sans-Serif" font-size="11.00" fill="#000000">...</text>
<polygon fill="#ffffff" stroke="transparent" points="273.5,-207.7 273.5,-226.7 387.5,-226.7 387.5,-207.7 273.5,-207.7"/>
<polygon fill="none" stroke="#000000" points="273.5,-207.7 273.5,-226.7 387.5,-226.7 387.5,-207.7 273.5,-207.7"/>
<text text-anchor="start" x="276.5" y="-213.8" font-family="Helvetica,sans-Serif" font-size="11.00" fill="#000000">&lt; 1</text>
<polygon fill="#ffffff" stroke="transparent" points="387.5,-207.7 387.5,-226.7 445.5,-226.7 445.5,-207.7 387.5,-207.7"/>
<polygon fill="none" stroke="#000000" points="387.5,-207.7 387.5,-226.7 445.5,-226.7 445.5,-207.7 387.5,-207.7"/>
<text text-anchor="start" x="436.3862" y="-213.8" font-family="Helvetica,sans-Serif" font-size="11.00" fill="#000000"> &#160;</text>
<polygon fill="#ffffff" stroke="transparent" points="445.5,-207.7 445.5,-226.7 504.5,-226.7 504.5,-207.7 445.5,-207.7"/>
<polygon fill="none" stroke="#000000" points="445.5,-207.7 445.5,-226.7 504.5,-226.7 504.5,-207.7 445.5,-207.7"/>
<text text-anchor="start" x="495.3862" y="-213.8" font-family="Helvetica,sans-Serif" font-size="11.00" fill="#000000"> &#160;</text>
</a>
</g>
</g>
<!-- staff_configuration_audit&#45;&gt;audit_revision -->
<g id="edge11" class="edge">
<title>staff_configuration_audit:w&#45;&gt;audit_revision:e</title>
<path fill="none" stroke="#000000" d="M259.1143,-301.717C230.047,-306.209 221.4843,-324.9687 192,-345.7 169.9741,-361.1871 173.4256,-385.7 146.5,-385.7"/>
<polygon fill="#000000" stroke="#000000" points="265.5199,-301.2642 273.7539,-304.291 269.51,-300.9821 273.5,-300.7 273.5,-300.7 273.5,-300.7 269.51,-300.9821 273.2461,-297.109 265.5199,-301.2642 265.5199,-301.2642"/>
<ellipse fill="none" stroke="#000000" cx="262.3279" cy="-301.4899" rx="3.2" ry="3.2"/>
</g>
<!-- staff_role_audit -->
<g id="node9" class="node">
<title>staff_role_audit</title>
<g id="a_node9"><a xlink:href="../../tables/staff_role_audit.html" xlink:title="staff_role_audit" target="_top">
<polygon fill="#ffffff" stroke="transparent" points="291.5,-38.2 291.5,-187.2 485.5,-187.2 485.5,-38.2 291.5,-38.2"/>
<polygon fill="#f5f5f5" stroke="transparent" points="291.5,-163.7 291.5,-186.7 485.5,-186.7 485.5,-163.7 291.5,-163.7"/>
<polygon fill="none" stroke="#000000" points="291.5,-163.7 291.5,-186.7 485.5,-186.7 485.5,-163.7 291.5,-163.7"/>
<text text-anchor="start" x="296.5" y="-172.3" font-family="Helvetica,sans-Serif" font-weight="bold" font-size="11.00" fill="#000000">staff_role_audit</text>
<text text-anchor="start" x="450.5437" y="-171.8" font-family="Helvetica,sans-Serif" font-size="11.00" fill="#000000">[table]</text>
<polygon fill="none" stroke="#000000" points="291.5,-141.7 291.5,-163.7 485.5,-163.7 485.5,-141.7 291.5,-141.7"/>
<image xlink:href="../../images/primaryKeys.png" width="11px" height="12px" preserveAspectRatio="xMinYMin meet" x="296.5" y="-158.7"/>
<text text-anchor="start" x="311.5" y="-148.8" font-family="Helvetica,sans-Serif" font-size="11.00" fill="#000000">rev_id</text>
<polygon fill="none" stroke="#000000" points="291.5,-119.7 291.5,-141.7 485.5,-141.7 485.5,-119.7 291.5,-119.7"/>
<image xlink:href="../../images/primaryKeys.png" width="11px" height="12px" preserveAspectRatio="xMinYMin meet" x="296.5" y="-136.7"/>
<text text-anchor="start" x="311.5" y="-126.8" font-family="Helvetica,sans-Serif" font-size="11.00" fill="#000000">id</text>
<polygon fill="none" stroke="#000000" points="291.5,-97.7 291.5,-119.7 485.5,-119.7 485.5,-97.7 291.5,-97.7"/>
<image xlink:href="../../images/foreignKeys.png" width="11px" height="12px" preserveAspectRatio="xMinYMin meet" x="296.5" y="-114.7"/>
<text text-anchor="start" x="311.5" y="-104.8" font-family="Helvetica,sans-Serif" font-size="11.00" fill="#000000">policy_code</text>
<polygon fill="none" stroke="#000000" points="291.5,-75.7 291.5,-97.7 485.5,-97.7 485.5,-75.7 291.5,-75.7"/>
<image xlink:href="../../images/foreignKeys.png" width="11px" height="12px" preserveAspectRatio="xMinYMin meet" x="296.5" y="-92.7"/>
<text text-anchor="start" x="311.5" y="-82.8" font-family="Helvetica,sans-Serif" font-size="11.00" fill="#000000">prison_code</text>
<polygon fill="none" stroke="#000000" points="291.5,-56.7 291.5,-75.7 485.5,-75.7 485.5,-56.7 291.5,-56.7"/>
<text text-anchor="start" x="294.5" y="-62.8" font-family="Helvetica,sans-Serif" font-size="11.00" fill="#000000">...</text>
<polygon fill="#ffffff" stroke="transparent" points="291.5,-37.7 291.5,-56.7 386.5,-56.7 386.5,-37.7 291.5,-37.7"/>
<polygon fill="none" stroke="#000000" points="291.5,-37.7 291.5,-56.7 386.5,-56.7 386.5,-37.7 291.5,-37.7"/>
<text text-anchor="start" x="294.5" y="-43.8" font-family="Helvetica,sans-Serif" font-size="11.00" fill="#000000">&lt; 1</text>
<polygon fill="#ffffff" stroke="transparent" points="386.5,-37.7 386.5,-56.7 435.5,-56.7 435.5,-37.7 386.5,-37.7"/>
<polygon fill="none" stroke="#000000" points="386.5,-37.7 386.5,-56.7 435.5,-56.7 435.5,-37.7 386.5,-37.7"/>
<text text-anchor="start" x="426.3862" y="-43.8" font-family="Helvetica,sans-Serif" font-size="11.00" fill="#000000"> &#160;</text>
<polygon fill="#ffffff" stroke="transparent" points="435.5,-37.7 435.5,-56.7 485.5,-56.7 485.5,-37.7 435.5,-37.7"/>
<polygon fill="none" stroke="#000000" points="435.5,-37.7 435.5,-56.7 485.5,-56.7 485.5,-37.7 435.5,-37.7"/>
<text text-anchor="start" x="476.3862" y="-43.8" font-family="Helvetica,sans-Serif" font-size="11.00" fill="#000000"> &#160;</text>
</a>
</g>
</g>
<!-- staff_role_audit&#45;&gt;audit_revision -->
<g id="edge12" class="edge">
<title>staff_role_audit:w&#45;&gt;audit_revision:e</title>
<path fill="none" stroke="#000000" d="M277.0491,-152.9803C238.6237,-154.6388 219.6946,-164.2645 192,-197.7 137.1617,-263.906 232.4678,-385.7 146.5,-385.7"/>
<polygon fill="#000000" stroke="#000000" points="283.5015,-152.8552 291.5698,-156.2993 287.5008,-152.7776 291.5,-152.7 291.5,-152.7 291.5,-152.7 287.5008,-152.7776 291.4302,-149.1007 283.5015,-152.8552 283.5015,-152.8552"/>
<ellipse fill="none" stroke="#000000" cx="280.3021" cy="-152.9173" rx="3.2" ry="3.2"/>
</g>
<!-- offender_key_worker -->
<g id="node10" class="node">
<title>offender_key_worker</title>
<g id="a_node10"><a xlink:href="../../tables/offender_key_worker.html" xlink:title="offender_key_worker" target="_top">
<polygon fill="#ffffff" stroke="transparent" points="298.5,-696.2 298.5,-911.2 478.5,-911.2 478.5,-696.2 298.5,-696.2"/>
<polygon fill="#f5f5f5" stroke="transparent" points="298.5,-887.7 298.5,-910.7 478.5,-910.7 478.5,-887.7 298.5,-887.7"/>
<polygon fill="none" stroke="#000000" points="298.5,-887.7 298.5,-910.7 478.5,-910.7 478.5,-887.7 298.5,-887.7"/>
<text text-anchor="start" x="303.5" y="-896.3" font-family="Helvetica,sans-Serif" font-weight="bold" font-size="11.00" fill="#000000">offender_key_worker</text>
<text text-anchor="start" x="444.0219" y="-895.8" font-family="Helvetica,sans-Serif" font-size="11.00" fill="#000000">[table]</text>
<polygon fill="none" stroke="#000000" points="298.5,-865.7 298.5,-887.7 478.5,-887.7 478.5,-865.7 298.5,-865.7"/>
<image xlink:href="../../images/primaryKeys.png" width="11px" height="12px" preserveAspectRatio="xMinYMin meet" x="303.5" y="-882.7"/>
<text text-anchor="start" x="321.5" y="-872.8" font-family="Helvetica,sans-Serif" font-size="11.00" fill="#000000">offender_keyworker_id</text>
<polygon fill="#ffffff" stroke="transparent" points="298.5,-843.7 298.5,-865.7 478.5,-865.7 478.5,-843.7 298.5,-843.7"/>
<polygon fill="none" stroke="#000000" points="298.5,-843.7 298.5,-865.7 478.5,-865.7 478.5,-843.7 298.5,-843.7"/>
<text text-anchor="start" x="321.5" y="-850.8" font-family="Helvetica,sans-Serif" font-size="11.00" fill="#000000">offender_no</text>
<polygon fill="#ffffff" stroke="transparent" points="298.5,-821.7 298.5,-843.7 478.5,-843.7 478.5,-821.7 298.5,-821.7"/>
<polygon fill="none" stroke="#000000" points="298.5,-821.7 298.5,-843.7 478.5,-843.7 478.5,-821.7 298.5,-821.7"/>
<text text-anchor="start" x="321.5" y="-828.8" font-family="Helvetica,sans-Serif" font-size="11.00" fill="#000000">staff_id</text>
<polygon fill="#ffffff" stroke="transparent" points="298.5,-799.7 298.5,-821.7 478.5,-821.7 478.5,-799.7 298.5,-799.7"/>
<polygon fill="none" stroke="#000000" points="298.5,-799.7 298.5,-821.7 478.5,-821.7 478.5,-799.7 298.5,-799.7"/>
<text text-anchor="start" x="321.5" y="-806.8" font-family="Helvetica,sans-Serif" font-size="11.00" fill="#000000">assigned_date_time</text>
<polygon fill="#ffffff" stroke="transparent" points="298.5,-777.7 298.5,-799.7 478.5,-799.7 478.5,-777.7 298.5,-777.7"/>
<polygon fill="none" stroke="#000000" points="298.5,-777.7 298.5,-799.7 478.5,-799.7 478.5,-777.7 298.5,-777.7"/>
<text text-anchor="start" x="321.5" y="-784.8" font-family="Helvetica,sans-Serif" font-size="11.00" fill="#000000">prison_id</text>
<polygon fill="none" stroke="#000000" points="298.5,-755.7 298.5,-777.7 478.5,-777.7 478.5,-755.7 298.5,-755.7"/>
<image xlink:href="../../images/foreignKeys.png" width="11px" height="12px" preserveAspectRatio="xMinYMin meet" x="303.5" y="-772.7"/>
<text text-anchor="start" x="321.5" y="-762.8" font-family="Helvetica,sans-Serif" font-size="11.00" fill="#000000">allocation_reason_id</text>
<polygon fill="none" stroke="#000000" points="298.5,-733.7 298.5,-755.7 478.5,-755.7 478.5,-733.7 298.5,-733.7"/>
<image xlink:href="../../images/foreignKeys.png" width="11px" height="12px" preserveAspectRatio="xMinYMin meet" x="303.5" y="-750.7"/>
<text text-anchor="start" x="321.5" y="-740.8" font-family="Helvetica,sans-Serif" font-size="11.00" fill="#000000">deallocation_reason_id</text>
<polygon fill="none" stroke="#000000" points="298.5,-714.7 298.5,-733.7 478.5,-733.7 478.5,-714.7 298.5,-714.7"/>
<text text-anchor="start" x="301.5" y="-720.8" font-family="Helvetica,sans-Serif" font-size="11.00" fill="#000000">...</text>
<polygon fill="#ffffff" stroke="transparent" points="298.5,-695.7 298.5,-714.7 386.5,-714.7 386.5,-695.7 298.5,-695.7"/>
<polygon fill="none" stroke="#000000" points="298.5,-695.7 298.5,-714.7 386.5,-714.7 386.5,-695.7 298.5,-695.7"/>
<text text-anchor="start" x="301.5" y="-701.8" font-family="Helvetica,sans-Serif" font-size="11.00" fill="#000000">&lt; 2</text>
<polygon fill="#ffffff" stroke="transparent" points="386.5,-695.7 386.5,-714.7 432.5,-714.7 432.5,-695.7 386.5,-695.7"/>
<polygon fill="none" stroke="#000000" points="386.5,-695.7 386.5,-714.7 432.5,-714.7 432.5,-695.7 386.5,-695.7"/>
<text text-anchor="start" x="423.3862" y="-701.8" font-family="Helvetica,sans-Serif" font-size="11.00" fill="#000000"> &#160;</text>
<polygon fill="#ffffff" stroke="transparent" points="432.5,-695.7 432.5,-714.7 478.5,-714.7 478.5,-695.7 432.5,-695.7"/>
<polygon fill="none" stroke="#000000" points="432.5,-695.7 432.5,-714.7 478.5,-714.7 478.5,-695.7 432.5,-695.7"/>
<text text-anchor="start" x="469.3862" y="-701.8" font-family="Helvetica,sans-Serif" font-size="11.00" fill="#000000"> &#160;</text>
</a>
</g>
</g>
<!-- offender_key_worker&#45;&gt;reference_data -->
<g id="edge5" class="edge">
<title>offender_key_worker:w&#45;&gt;reference_data:e</title>
<path fill="none" stroke="#000000" d="M283.9607,-767.6298C216.7371,-776.8195 228.7619,-852.4995 192,-921.7 168.9229,-965.1402 200.6895,-1024.7 151.5,-1024.7"/>
<polygon fill="#000000" stroke="#000000" points="290.5163,-767.2106 298.7298,-770.2927 294.5082,-766.9553 298.5,-766.7 298.5,-766.7 298.5,-766.7 294.5082,-766.9553 298.2702,-763.1073 290.5163,-767.2106 290.5163,-767.2106"/>
<ellipse fill="none" stroke="#000000" cx="287.3228" cy="-767.4148" rx="3.2" ry="3.2"/>
</g>
<!-- offender_key_worker&#45;&gt;reference_data -->
<g id="edge6" class="edge">
<title>offender_key_worker:w&#45;&gt;reference_data:e</title>
<path fill="none" stroke="#000000" d="M283.9992,-745.5916C209.4133,-755.3836 230.3062,-844.0229 192,-921.7 170.244,-965.8167 200.6895,-1024.7 151.5,-1024.7"/>
<polygon fill="#000000" stroke="#000000" points="290.5151,-745.191 298.721,-748.2932 294.5075,-744.9455 298.5,-744.7 298.5,-744.7 298.5,-744.7 294.5075,-744.9455 298.279,-741.1068 290.5151,-745.191 290.5151,-745.191"/>
<ellipse fill="none" stroke="#000000" cx="287.3211" cy="-745.3874" rx="3.2" ry="3.2"/>
</g>
</g>
</svg>
