<?xml version="1.0" encoding="UTF-8" standalone="no"?>
<!DOCTYPE svg PUBLIC "-//W3C//DTD SVG 1.1//EN"
 "http://www.w3.org/Graphics/SVG/1.1/DTD/svg11.dtd">
<!-- Generated by graphviz version 2.40.1 (20161225.0304)
 -->
<!-- Title: largeImpliedRelationshipsDiagram Pages: 1 -->
<svg width="644pt" height="922pt"
 viewBox="0.00 0.00 644.00 922.20" xmlns="http://www.w3.org/2000/svg" xmlns:xlink="http://www.w3.org/1999/xlink">
<g id="graph0" class="graph" transform="scale(1 1) rotate(0) translate(4 918.2)">
<title>largeImpliedRelationshipsDiagram</title>
<polygon fill="#ffffff" stroke="transparent" points="-4,4 -4,-918.2 640,-918.2 640,4 -4,4"/>
<text text-anchor="middle" x="72.4936" y="-7.3" font-family="Helvetica,sans-Serif" font-size="11.00" fill="#000000">Generated by SchemaSpy</text>
<!-- prison_supported -->
<g id="node1" class="node">
<title>prison_supported</title>
<g id="a_node1"><a xlink:href="../../tables/prison_supported.html" xlink:title="prison_supported" target="_top">
<polygon fill="#ffffff" stroke="transparent" points="8,-483.2 8,-701.2 320,-701.2 320,-483.2 8,-483.2"/>
<polygon fill="#f5f5f5" stroke="transparent" points="8,-678.2 8,-701.2 320,-701.2 320,-678.2 8,-678.2"/>
<polygon fill="none" stroke="#000000" points="8,-678.2 8,-701.2 320,-701.2 320,-678.2 8,-678.2"/>
<text text-anchor="start" x="13" y="-686.8" font-family="Helvetica,sans-Serif" font-weight="bold" font-size="11.00" fill="#000000">prison_supported</text>
<text text-anchor="start" x="285.0437" y="-686.3" font-family="Helvetica,sans-Serif" font-size="11.00" fill="#000000">[table]</text>
<polygon fill="none" stroke="#000000" points="8,-656.2 8,-678.2 320,-678.2 320,-656.2 8,-656.2"/>
<image xlink:href="../../images/primaryKeys.png" width="11px" height="12px" preserveAspectRatio="xMinYMin meet" x="13" y="-673.2"/>
<text text-anchor="start" x="28" y="-663.3" font-family="Helvetica,sans-Serif" font-size="11.00" fill="#000000">prison_id</text>
<polygon fill="none" stroke="#000000" points="8,-634.2 8,-656.2 320,-656.2 320,-634.2 8,-634.2"/>
<text text-anchor="start" x="28" y="-641.3" font-family="Helvetica,sans-Serif" font-size="11.00" fill="#000000">auto_allocate</text>
<polygon fill="none" stroke="#000000" points="8,-612.2 8,-634.2 320,-634.2 320,-612.2 8,-612.2"/>
<text text-anchor="start" x="28" y="-619.3" font-family="Helvetica,sans-Serif" font-size="11.00" fill="#000000">migrated</text>
<polygon fill="none" stroke="#000000" points="8,-590.2 8,-612.2 320,-612.2 320,-590.2 8,-590.2"/>
<text text-anchor="start" x="28" y="-597.3" font-family="Helvetica,sans-Serif" font-size="11.00" fill="#000000">migrated_date_time</text>
<polygon fill="none" stroke="#000000" points="8,-568.2 8,-590.2 320,-590.2 320,-568.2 8,-568.2"/>
<text text-anchor="start" x="28" y="-575.3" font-family="Helvetica,sans-Serif" font-size="11.00" fill="#000000">capacity_tier_1</text>
<polygon fill="none" stroke="#000000" points="8,-546.2 8,-568.2 320,-568.2 320,-546.2 8,-546.2"/>
<text text-anchor="start" x="28" y="-553.3" font-family="Helvetica,sans-Serif" font-size="11.00" fill="#000000">capacity_tier_2</text>
<polygon fill="none" stroke="#000000" points="8,-524.2 8,-546.2 320,-546.2 320,-524.2 8,-524.2"/>
<text text-anchor="start" x="28" y="-531.3" font-family="Helvetica,sans-Serif" font-size="11.00" fill="#000000">kw_session_freq_weeks</text>
<polygon fill="none" stroke="#000000" points="8,-502.2 8,-524.2 320,-524.2 320,-502.2 8,-502.2"/>
<text text-anchor="start" x="28" y="-509.3" font-family="Helvetica,sans-Serif" font-size="11.00" fill="#000000">has_prisoners_with_high_complexity_needs</text>
<polygon fill="#ffffff" stroke="transparent" points="8,-483.2 8,-502.2 158,-502.2 158,-483.2 8,-483.2"/>
<polygon fill="none" stroke="#000000" points="8,-483.2 8,-502.2 158,-502.2 158,-483.2 8,-483.2"/>
<text text-anchor="start" x="11" y="-489.3" font-family="Helvetica,sans-Serif" font-size="11.00" fill="#000000"> &#160;</text>
<polygon fill="#ffffff" stroke="transparent" points="158,-483.2 158,-502.2 239,-502.2 239,-483.2 158,-483.2"/>
<polygon fill="none" stroke="#000000" points="158,-483.2 158,-502.2 239,-502.2 239,-483.2 158,-483.2"/>
<text text-anchor="start" x="229.8862" y="-489.3" font-family="Helvetica,sans-Serif" font-size="11.00" fill="#000000"> &#160;</text>
<polygon fill="#ffffff" stroke="transparent" points="239,-483.2 239,-502.2 320,-502.2 320,-483.2 239,-483.2"/>
<polygon fill="none" stroke="#000000" points="239,-483.2 239,-502.2 320,-502.2 320,-483.2 239,-483.2"/>
<text text-anchor="start" x="310.8862" y="-489.3" font-family="Helvetica,sans-Serif" font-size="11.00" fill="#000000"> &#160;</text>
</a>
</g>
</g>
<!-- keyworker_stats -->
<g id="node2" class="node">
<title>keyworker_stats</title>
<g id="a_node2"><a xlink:href="../../tables/keyworker_stats.html" xlink:title="keyworker_stats" target="_top">
<polygon fill="#ffffff" stroke="transparent" points="369,-604.2 369,-910.2 628,-910.2 628,-604.2 369,-604.2"/>
<polygon fill="#f5f5f5" stroke="transparent" points="369.5,-887.2 369.5,-910.2 628.5,-910.2 628.5,-887.2 369.5,-887.2"/>
<polygon fill="none" stroke="#000000" points="369.5,-887.2 369.5,-910.2 628.5,-910.2 628.5,-887.2 369.5,-887.2"/>
<text text-anchor="start" x="374.5" y="-895.8" font-family="Helvetica,sans-Serif" font-weight="bold" font-size="11.00" fill="#000000">keyworker_stats</text>
<text text-anchor="start" x="593.5437" y="-895.3" font-family="Helvetica,sans-Serif" font-size="11.00" fill="#000000">[table]</text>
<polygon fill="none" stroke="#000000" points="369.5,-865.2 369.5,-887.2 628.5,-887.2 628.5,-865.2 369.5,-865.2"/>
<image xlink:href="../../images/primaryKeys.png" width="11px" height="12px" preserveAspectRatio="xMinYMin meet" x="374.5" y="-882.2"/>
<text text-anchor="start" x="389.5" y="-872.3" font-family="Helvetica,sans-Serif" font-size="11.00" fill="#000000">keyworker_stats_id</text>
<polygon fill="#ffffff" stroke="transparent" points="369.5,-843.2 369.5,-865.2 628.5,-865.2 628.5,-843.2 369.5,-843.2"/>
<polygon fill="none" stroke="#000000" points="369.5,-843.2 369.5,-865.2 628.5,-865.2 628.5,-843.2 369.5,-843.2"/>
<image xlink:href="../../images/foreignKeys.png" width="11px" height="12px" preserveAspectRatio="xMinYMin meet" x="374.5" y="-860.2"/>
<text text-anchor="start" x="389.5" y="-850.3" font-family="Helvetica,sans-Serif" font-size="11.00" fill="#000000">prison_id</text>
<polygon fill="#ffffff" stroke="transparent" points="369.5,-821.2 369.5,-843.2 628.5,-843.2 628.5,-821.2 369.5,-821.2"/>
<polygon fill="none" stroke="#000000" points="369.5,-821.2 369.5,-843.2 628.5,-843.2 628.5,-821.2 369.5,-821.2"/>
<text text-anchor="start" x="389.5" y="-828.3" font-family="Helvetica,sans-Serif" font-size="11.00" fill="#000000">snapshot_date</text>
<polygon fill="none" stroke="#000000" points="369.5,-799.2 369.5,-821.2 628.5,-821.2 628.5,-799.2 369.5,-799.2"/>
<text text-anchor="start" x="389.5" y="-806.3" font-family="Helvetica,sans-Serif" font-size="11.00" fill="#000000">num_prisoners_assigned_kw</text>
<polygon fill="none" stroke="#000000" points="369.5,-777.2 369.5,-799.2 628.5,-799.2 628.5,-777.2 369.5,-777.2"/>
<text text-anchor="start" x="389.5" y="-784.3" font-family="Helvetica,sans-Serif" font-size="11.00" fill="#000000">total_num_prisoners</text>
<polygon fill="none" stroke="#000000" points="369.5,-755.2 369.5,-777.2 628.5,-777.2 628.5,-755.2 369.5,-755.2"/>
<text text-anchor="start" x="389.5" y="-762.3" font-family="Helvetica,sans-Serif" font-size="11.00" fill="#000000">num_kw_sessions</text>
<polygon fill="none" stroke="#000000" points="369.5,-733.2 369.5,-755.2 628.5,-755.2 628.5,-733.2 369.5,-733.2"/>
<text text-anchor="start" x="389.5" y="-740.3" font-family="Helvetica,sans-Serif" font-size="11.00" fill="#000000">num_kw_entries</text>
<polygon fill="none" stroke="#000000" points="369.5,-711.2 369.5,-733.2 628.5,-733.2 628.5,-711.2 369.5,-711.2"/>
<text text-anchor="start" x="389.5" y="-718.3" font-family="Helvetica,sans-Serif" font-size="11.00" fill="#000000">num_active_keyworkers</text>
<polygon fill="none" stroke="#000000" points="369.5,-689.2 369.5,-711.2 628.5,-711.2 628.5,-689.2 369.5,-689.2"/>
<text text-anchor="start" x="389.5" y="-696.3" font-family="Helvetica,sans-Serif" font-size="11.00" fill="#000000">recpt_to_alloc_days</text>
<polygon fill="none" stroke="#000000" points="369.5,-667.2 369.5,-689.2 628.5,-689.2 628.5,-667.2 369.5,-667.2"/>
<text text-anchor="start" x="389.5" y="-674.3" font-family="Helvetica,sans-Serif" font-size="11.00" fill="#000000">recpt_to_kw_session_days</text>
<polygon fill="none" stroke="#000000" points="369.5,-645.2 369.5,-667.2 628.5,-667.2 628.5,-645.2 369.5,-645.2"/>
<text text-anchor="start" x="389.5" y="-652.3" font-family="Helvetica,sans-Serif" font-size="11.00" fill="#000000">total_num_eligible_prisoners</text>
<polygon fill="none" stroke="#000000" points="369.5,-623.2 369.5,-645.2 628.5,-645.2 628.5,-623.2 369.5,-623.2"/>
<text text-anchor="start" x="389.5" y="-630.3" font-family="Helvetica,sans-Serif" font-size="11.00" fill="#000000">high_complexity_of_need_prisoners</text>
<polygon fill="#ffffff" stroke="transparent" points="369.5,-604.2 369.5,-623.2 492.5,-623.2 492.5,-604.2 369.5,-604.2"/>
<polygon fill="none" stroke="#000000" points="369.5,-604.2 369.5,-623.2 492.5,-623.2 492.5,-604.2 369.5,-604.2"/>
<text text-anchor="start" x="372.5" y="-610.3" font-family="Helvetica,sans-Serif" font-size="11.00" fill="#000000"> &#160;</text>
<polygon fill="#ffffff" stroke="transparent" points="492.5,-604.2 492.5,-623.2 560.5,-623.2 560.5,-604.2 492.5,-604.2"/>
<polygon fill="none" stroke="#000000" points="492.5,-604.2 492.5,-623.2 560.5,-623.2 560.5,-604.2 492.5,-604.2"/>
<text text-anchor="start" x="551.3862" y="-610.3" font-family="Helvetica,sans-Serif" font-size="11.00" fill="#000000"> &#160;</text>
<polygon fill="#ffffff" stroke="transparent" points="560.5,-604.2 560.5,-623.2 628.5,-623.2 628.5,-604.2 560.5,-604.2"/>
<polygon fill="none" stroke="#000000" points="560.5,-604.2 560.5,-623.2 628.5,-623.2 628.5,-604.2 560.5,-604.2"/>
<text text-anchor="start" x="619.3862" y="-610.3" font-family="Helvetica,sans-Serif" font-size="11.00" fill="#000000"> &#160;</text>
</a>
</g>
</g>
<!-- keyworker_stats&#45;&gt;prison_supported -->
<g id="edge2" class="edge">
<title>keyworker_stats:w&#45;&gt;prison_supported:e</title>
<path fill="none" stroke="#000000" stroke-dasharray="5,2" d="M355.0077,-851.8356C298.8698,-830.1887 400.2644,-667.2 320,-667.2"/>
<polygon fill="#000000" stroke="#000000" points="361.6044,-852.9118 368.9203,-857.753 365.5522,-853.5559 369.5,-854.2 369.5,-854.2 369.5,-854.2 365.5522,-853.5559 370.0797,-850.647 361.6044,-852.9118 361.6044,-852.9118"/>
<ellipse fill="none" stroke="#000000" cx="358.4461" cy="-852.3965" rx="3.2" ry="3.2"/>
</g>
<!-- key_worker -->
<g id="node3" class="node">
<title>key_worker</title>
<g id="a_node3"><a xlink:href="../../tables/key_worker.html" xlink:title="key_worker" target="_top">
<polygon fill="#ffffff" stroke="transparent" points="420.5,-38.2 420.5,-190.2 576.5,-190.2 576.5,-38.2 420.5,-38.2"/>
<polygon fill="#f5f5f5" stroke="transparent" points="420.5,-167.2 420.5,-190.2 576.5,-190.2 576.5,-167.2 420.5,-167.2"/>
<polygon fill="none" stroke="#000000" points="420.5,-167.2 420.5,-190.2 576.5,-190.2 576.5,-167.2 420.5,-167.2"/>
<text text-anchor="start" x="425.5" y="-175.8" font-family="Helvetica,sans-Serif" font-weight="bold" font-size="11.00" fill="#000000">key_worker</text>
<text text-anchor="start" x="541.5437" y="-175.3" font-family="Helvetica,sans-Serif" font-size="11.00" fill="#000000">[table]</text>
<polygon fill="none" stroke="#000000" points="420.5,-145.2 420.5,-167.2 576.5,-167.2 576.5,-145.2 420.5,-145.2"/>
<image xlink:href="../../images/primaryKeys.png" width="11px" height="12px" preserveAspectRatio="xMinYMin meet" x="425.5" y="-162.2"/>
<text text-anchor="start" x="440.5" y="-152.3" font-family="Helvetica,sans-Serif" font-size="11.00" fill="#000000">staff_id</text>
<polygon fill="none" stroke="#000000" points="420.5,-123.2 420.5,-145.2 576.5,-145.2 576.5,-123.2 420.5,-123.2"/>
<text text-anchor="start" x="440.5" y="-130.3" font-family="Helvetica,sans-Serif" font-size="11.00" fill="#000000">capacity</text>
<polygon fill="none" stroke="#000000" points="420.5,-101.2 420.5,-123.2 576.5,-123.2 576.5,-101.2 420.5,-101.2"/>
<text text-anchor="start" x="440.5" y="-108.3" font-family="Helvetica,sans-Serif" font-size="11.00" fill="#000000">auto_allocation_flag</text>
<polygon fill="none" stroke="#000000" points="420.5,-79.2 420.5,-101.2 576.5,-101.2 576.5,-79.2 420.5,-79.2"/>
<text text-anchor="start" x="440.5" y="-86.3" font-family="Helvetica,sans-Serif" font-size="11.00" fill="#000000">active_date</text>
<polygon fill="none" stroke="#000000" points="420.5,-57.2 420.5,-79.2 576.5,-79.2 576.5,-57.2 420.5,-57.2"/>
<image xlink:href="../../images/foreignKeys.png" width="11px" height="12px" preserveAspectRatio="xMinYMin meet" x="425.5" y="-74.2"/>
<text text-anchor="start" x="440.5" y="-64.3" font-family="Helvetica,sans-Serif" font-size="11.00" fill="#000000">status_id</text>
<polygon fill="#ffffff" stroke="transparent" points="420.5,-38.2 420.5,-57.2 496.5,-57.2 496.5,-38.2 420.5,-38.2"/>
<polygon fill="none" stroke="#000000" points="420.5,-38.2 420.5,-57.2 496.5,-57.2 496.5,-38.2 420.5,-38.2"/>
<text text-anchor="start" x="423.5" y="-44.3" font-family="Helvetica,sans-Serif" font-size="11.00" fill="#000000">&lt; 1</text>
<polygon fill="#ffffff" stroke="transparent" points="496.5,-38.2 496.5,-57.2 536.5,-57.2 536.5,-38.2 496.5,-38.2"/>
<polygon fill="none" stroke="#000000" points="496.5,-38.2 496.5,-57.2 536.5,-57.2 536.5,-38.2 496.5,-38.2"/>
<text text-anchor="start" x="527.3862" y="-44.3" font-family="Helvetica,sans-Serif" font-size="11.00" fill="#000000"> &#160;</text>
<polygon fill="#ffffff" stroke="transparent" points="536.5,-38.2 536.5,-57.2 576.5,-57.2 576.5,-38.2 536.5,-38.2"/>
<polygon fill="none" stroke="#000000" points="536.5,-38.2 536.5,-57.2 576.5,-57.2 576.5,-38.2 536.5,-38.2"/>
<text text-anchor="start" x="567.3862" y="-44.3" font-family="Helvetica,sans-Serif" font-size="11.00" fill="#000000"> &#160;</text>
</a>
</g>
</g>
<!-- reference_data -->
<g id="node5" class="node">
<title>reference_data</title>
<g id="a_node5"><a xlink:href="../../tables/reference_data.html" xlink:title="reference_data" target="_top">
<polygon fill="#ffffff" stroke="transparent" points="92.5,-123.2 92.5,-275.2 235.5,-275.2 235.5,-123.2 92.5,-123.2"/>
<polygon fill="#f5f5f5" stroke="transparent" points="93,-252.2 93,-275.2 236,-275.2 236,-252.2 93,-252.2"/>
<polygon fill="none" stroke="#000000" points="93,-252.2 93,-275.2 236,-275.2 236,-252.2 93,-252.2"/>
<text text-anchor="start" x="98" y="-260.8" font-family="Helvetica,sans-Serif" font-weight="bold" font-size="11.00" fill="#000000">reference_data</text>
<text text-anchor="start" x="201.0437" y="-260.3" font-family="Helvetica,sans-Serif" font-size="11.00" fill="#000000">[table]</text>
<polygon fill="none" stroke="#000000" points="93,-230.2 93,-252.2 236,-252.2 236,-230.2 93,-230.2"/>
<image xlink:href="../../images/primaryKeys.png" width="11px" height="12px" preserveAspectRatio="xMinYMin meet" x="98" y="-247.2"/>
<text text-anchor="start" x="113" y="-237.3" font-family="Helvetica,sans-Serif" font-size="11.00" fill="#000000">id</text>
<polygon fill="#ffffff" stroke="transparent" points="93,-208.2 93,-230.2 236,-230.2 236,-208.2 93,-208.2"/>
<polygon fill="none" stroke="#000000" points="93,-208.2 93,-230.2 236,-230.2 236,-208.2 93,-208.2"/>
<text text-anchor="start" x="113" y="-215.3" font-family="Helvetica,sans-Serif" font-size="11.00" fill="#000000">domain</text>
<polygon fill="#ffffff" stroke="transparent" points="93,-186.2 93,-208.2 236,-208.2 236,-186.2 93,-186.2"/>
<polygon fill="none" stroke="#000000" points="93,-186.2 93,-208.2 236,-208.2 236,-186.2 93,-186.2"/>
<text text-anchor="start" x="113" y="-193.3" font-family="Helvetica,sans-Serif" font-size="11.00" fill="#000000">code</text>
<polygon fill="none" stroke="#000000" points="93,-164.2 93,-186.2 236,-186.2 236,-164.2 93,-164.2"/>
<text text-anchor="start" x="113" y="-171.3" font-family="Helvetica,sans-Serif" font-size="11.00" fill="#000000">description</text>
<polygon fill="#ffffff" stroke="transparent" points="93,-142.2 93,-164.2 236,-164.2 236,-142.2 93,-142.2"/>
<polygon fill="none" stroke="#000000" points="93,-142.2 93,-164.2 236,-164.2 236,-142.2 93,-142.2"/>
<text text-anchor="start" x="113" y="-149.3" font-family="Helvetica,sans-Serif" font-size="11.00" fill="#000000">sequence_number</text>
<polygon fill="#ffffff" stroke="transparent" points="93,-123.2 93,-142.2 154,-142.2 154,-123.2 93,-123.2"/>
<polygon fill="none" stroke="#000000" points="93,-123.2 93,-142.2 154,-142.2 154,-123.2 93,-123.2"/>
<text text-anchor="start" x="96" y="-129.3" font-family="Helvetica,sans-Serif" font-size="11.00" fill="#000000"> &#160;</text>
<polygon fill="#ffffff" stroke="transparent" points="154,-123.2 154,-142.2 190,-142.2 190,-123.2 154,-123.2"/>
<polygon fill="none" stroke="#000000" points="154,-123.2 154,-142.2 190,-142.2 190,-123.2 154,-123.2"/>
<text text-anchor="start" x="180.8862" y="-129.3" font-family="Helvetica,sans-Serif" font-size="11.00" fill="#000000"> &#160;</text>
<polygon fill="#ffffff" stroke="transparent" points="190,-123.2 190,-142.2 236,-142.2 236,-123.2 190,-123.2"/>
<polygon fill="none" stroke="#000000" points="190,-123.2 190,-142.2 236,-142.2 236,-123.2 190,-123.2"/>
<text text-anchor="start" x="217.4053" y="-129.3" font-family="Helvetica,sans-Serif" font-size="11.00" fill="#000000">3 &gt;</text>
</a>
</g>
</g>
<!-- key_worker&#45;&gt;reference_data -->
<g id="edge1" class="edge">
<title>key_worker:w&#45;&gt;reference_data:e</title>
<path fill="none" stroke="#000000" d="M405.9574,-69.2599C311.4699,-83.7164 343.2501,-241.2 236,-241.2"/>
<polygon fill="#000000" stroke="#000000" points="412.5212,-68.7816 420.7617,-71.7905 416.5106,-68.4908 420.5,-68.2 420.5,-68.2 420.5,-68.2 416.5106,-68.4908 420.2383,-64.6095 412.5212,-68.7816 412.5212,-68.7816"/>
<ellipse fill="none" stroke="#000000" cx="409.3296" cy="-69.0142" rx="3.2" ry="3.2"/>
</g>
<!-- offender_key_worker -->
<g id="node4" class="node">
<title>offender_key_worker</title>
<g id="a_node4"><a xlink:href="../../tables/offender_key_worker.html" xlink:title="offender_key_worker" target="_top">
<polygon fill="#ffffff" stroke="transparent" points="408.5,-211.2 408.5,-583.2 588.5,-583.2 588.5,-211.2 408.5,-211.2"/>
<polygon fill="#f5f5f5" stroke="transparent" points="408.5,-560.2 408.5,-583.2 588.5,-583.2 588.5,-560.2 408.5,-560.2"/>
<polygon fill="none" stroke="#000000" points="408.5,-560.2 408.5,-583.2 588.5,-583.2 588.5,-560.2 408.5,-560.2"/>
<text text-anchor="start" x="413.5" y="-568.8" font-family="Helvetica,sans-Serif" font-weight="bold" font-size="11.00" fill="#000000">offender_key_worker</text>
<text text-anchor="start" x="554.0219" y="-568.3" font-family="Helvetica,sans-Serif" font-size="11.00" fill="#000000">[table]</text>
<polygon fill="none" stroke="#000000" points="408.5,-538.2 408.5,-560.2 588.5,-560.2 588.5,-538.2 408.5,-538.2"/>
<image xlink:href="../../images/primaryKeys.png" width="11px" height="12px" preserveAspectRatio="xMinYMin meet" x="413.5" y="-555.2"/>
<text text-anchor="start" x="431.5" y="-545.3" font-family="Helvetica,sans-Serif" font-size="11.00" fill="#000000">offender_keyworker_id</text>
<polygon fill="#ffffff" stroke="transparent" points="408.5,-516.2 408.5,-538.2 588.5,-538.2 588.5,-516.2 408.5,-516.2"/>
<polygon fill="none" stroke="#000000" points="408.5,-516.2 408.5,-538.2 588.5,-538.2 588.5,-516.2 408.5,-516.2"/>
<text text-anchor="start" x="431.5" y="-523.3" font-family="Helvetica,sans-Serif" font-size="11.00" fill="#000000">offender_no</text>
<polygon fill="#ffffff" stroke="transparent" points="408.5,-494.2 408.5,-516.2 588.5,-516.2 588.5,-494.2 408.5,-494.2"/>
<polygon fill="none" stroke="#000000" points="408.5,-494.2 408.5,-516.2 588.5,-516.2 588.5,-494.2 408.5,-494.2"/>
<text text-anchor="start" x="431.5" y="-501.3" font-family="Helvetica,sans-Serif" font-size="11.00" fill="#000000">staff_id</text>
<polygon fill="#ffffff" stroke="transparent" points="408.5,-472.2 408.5,-494.2 588.5,-494.2 588.5,-472.2 408.5,-472.2"/>
<polygon fill="none" stroke="#000000" points="408.5,-472.2 408.5,-494.2 588.5,-494.2 588.5,-472.2 408.5,-472.2"/>
<text text-anchor="start" x="431.5" y="-479.3" font-family="Helvetica,sans-Serif" font-size="11.00" fill="#000000">assigned_date_time</text>
<polygon fill="none" stroke="#000000" points="408.5,-450.2 408.5,-472.2 588.5,-472.2 588.5,-450.2 408.5,-450.2"/>
<text text-anchor="start" x="431.5" y="-457.3" font-family="Helvetica,sans-Serif" font-size="11.00" fill="#000000">active_flag</text>
<polygon fill="none" stroke="#000000" points="408.5,-428.2 408.5,-450.2 588.5,-450.2 588.5,-428.2 408.5,-428.2"/>
<text text-anchor="start" x="431.5" y="-435.3" font-family="Helvetica,sans-Serif" font-size="11.00" fill="#000000">alloc_type</text>
<polygon fill="none" stroke="#000000" points="408.5,-406.2 408.5,-428.2 588.5,-428.2 588.5,-406.2 408.5,-406.2"/>
<text text-anchor="start" x="431.5" y="-413.3" font-family="Helvetica,sans-Serif" font-size="11.00" fill="#000000">user_id</text>
<polygon fill="#ffffff" stroke="transparent" points="408.5,-384.2 408.5,-406.2 588.5,-406.2 588.5,-384.2 408.5,-384.2"/>
<polygon fill="none" stroke="#000000" points="408.5,-384.2 408.5,-406.2 588.5,-406.2 588.5,-384.2 408.5,-384.2"/>
<image xlink:href="../../images/foreignKeys.png" width="11px" height="12px" preserveAspectRatio="xMinYMin meet" x="413.5" y="-401.2"/>
<text text-anchor="start" x="431.5" y="-391.3" font-family="Helvetica,sans-Serif" font-size="11.00" fill="#000000">prison_id</text>
<polygon fill="none" stroke="#000000" points="408.5,-362.2 408.5,-384.2 588.5,-384.2 588.5,-362.2 408.5,-362.2"/>
<text text-anchor="start" x="431.5" y="-369.3" font-family="Helvetica,sans-Serif" font-size="11.00" fill="#000000">expiry_date_time</text>
<polygon fill="none" stroke="#000000" points="408.5,-340.2 408.5,-362.2 588.5,-362.2 588.5,-340.2 408.5,-340.2"/>
<text text-anchor="start" x="431.5" y="-347.3" font-family="Helvetica,sans-Serif" font-size="11.00" fill="#000000">create_datetime</text>
<polygon fill="none" stroke="#000000" points="408.5,-318.2 408.5,-340.2 588.5,-340.2 588.5,-318.2 408.5,-318.2"/>
<text text-anchor="start" x="431.5" y="-325.3" font-family="Helvetica,sans-Serif" font-size="11.00" fill="#000000">create_user_id</text>
<polygon fill="none" stroke="#000000" points="408.5,-296.2 408.5,-318.2 588.5,-318.2 588.5,-296.2 408.5,-296.2"/>
<text text-anchor="start" x="431.5" y="-303.3" font-family="Helvetica,sans-Serif" font-size="11.00" fill="#000000">modify_datetime</text>
<polygon fill="none" stroke="#000000" points="408.5,-274.2 408.5,-296.2 588.5,-296.2 588.5,-274.2 408.5,-274.2"/>
<text text-anchor="start" x="431.5" y="-281.3" font-family="Helvetica,sans-Serif" font-size="11.00" fill="#000000">modify_user_id</text>
<polygon fill="none" stroke="#000000" points="408.5,-252.2 408.5,-274.2 588.5,-274.2 588.5,-252.2 408.5,-252.2"/>
<image xlink:href="../../images/foreignKeys.png" width="11px" height="12px" preserveAspectRatio="xMinYMin meet" x="413.5" y="-269.2"/>
<text text-anchor="start" x="431.5" y="-259.3" font-family="Helvetica,sans-Serif" font-size="11.00" fill="#000000">allocation_reason_id</text>
<polygon fill="none" stroke="#000000" points="408.5,-230.2 408.5,-252.2 588.5,-252.2 588.5,-230.2 408.5,-230.2"/>
<image xlink:href="../../images/foreignKeys.png" width="11px" height="12px" preserveAspectRatio="xMinYMin meet" x="413.5" y="-247.2"/>
<text text-anchor="start" x="431.5" y="-237.3" font-family="Helvetica,sans-Serif" font-size="11.00" fill="#000000">deallocation_reason_id</text>
<polygon fill="#ffffff" stroke="transparent" points="408.5,-211.2 408.5,-230.2 496.5,-230.2 496.5,-211.2 408.5,-211.2"/>
<polygon fill="none" stroke="#000000" points="408.5,-211.2 408.5,-230.2 496.5,-230.2 496.5,-211.2 408.5,-211.2"/>
<text text-anchor="start" x="411.5" y="-217.3" font-family="Helvetica,sans-Serif" font-size="11.00" fill="#000000">&lt; 2</text>
<polygon fill="#ffffff" stroke="transparent" points="496.5,-211.2 496.5,-230.2 542.5,-230.2 542.5,-211.2 496.5,-211.2"/>
<polygon fill="none" stroke="#000000" points="496.5,-211.2 496.5,-230.2 542.5,-230.2 542.5,-211.2 496.5,-211.2"/>
<text text-anchor="start" x="533.3862" y="-217.3" font-family="Helvetica,sans-Serif" font-size="11.00" fill="#000000"> &#160;</text>
<polygon fill="#ffffff" stroke="transparent" points="542.5,-211.2 542.5,-230.2 588.5,-230.2 588.5,-211.2 542.5,-211.2"/>
<polygon fill="none" stroke="#000000" points="542.5,-211.2 542.5,-230.2 588.5,-230.2 588.5,-211.2 542.5,-211.2"/>
<text text-anchor="start" x="579.3862" y="-217.3" font-family="Helvetica,sans-Serif" font-size="11.00" fill="#000000"> &#160;</text>
</a>
</g>
</g>
<!-- offender_key_worker&#45;&gt;prison_supported -->
<g id="edge5" class="edge">
<title>offender_key_worker:w&#45;&gt;prison_supported:e</title>
<path fill="none" stroke="#000000" stroke-dasharray="5,2" d="M394.8076,-400.3907C350.5861,-437.9947 378.3492,-667.2 320,-667.2"/>
<polygon fill="#000000" stroke="#000000" points="401.0195,-398.0358 409.7761,-398.5662 404.7597,-396.6179 408.5,-395.2 408.5,-395.2 408.5,-395.2 404.7597,-396.6179 407.2239,-391.8338 401.0195,-398.0358 401.0195,-398.0358"/>
<ellipse fill="none" stroke="#000000" cx="398.0273" cy="-399.1702" rx="3.2" ry="3.2"/>
</g>
<!-- offender_key_worker&#45;&gt;reference_data -->
<g id="edge3" class="edge">
<title>offender_key_worker:w&#45;&gt;reference_data:e</title>
<path fill="none" stroke="#000000" d="M393.8534,-262.9218C328.5699,-260.3751 308.1553,-241.2 236,-241.2"/>
<polygon fill="#000000" stroke="#000000" points="400.5014,-263.048 408.4316,-266.7994 404.5007,-263.124 408.5,-263.2 408.5,-263.2 408.5,-263.2 404.5007,-263.124 408.5684,-259.6006 400.5014,-263.048 400.5014,-263.048"/>
<ellipse fill="none" stroke="#000000" cx="397.302" cy="-262.9873" rx="3.2" ry="3.2"/>
</g>
<!-- offender_key_worker&#45;&gt;reference_data -->
<g id="edge4" class="edge">
<title>offender_key_worker:w&#45;&gt;reference_data:e</title>
<path fill="none" stroke="#000000" d="M393.9536,-241.2C329.0342,-241.2 307.5755,-241.2 236,-241.2"/>
<polygon fill="#000000" stroke="#000000" points="400.5,-241.2001 408.5,-244.8 404.5,-241.2 408.5,-241.2 408.5,-241.2 408.5,-241.2 404.5,-241.2 408.5,-237.6 400.5,-241.2001 400.5,-241.2001"/>
<ellipse fill="none" stroke="#000000" cx="397.3" cy="-241.2001" rx="3.2" ry="3.2"/>
</g>
</g>
</svg>
