<?xml version="1.0" encoding="UTF-8" standalone="no"?>
<!DOCTYPE svg PUBLIC "-//W3C//DTD SVG 1.1//EN"
 "http://www.w3.org/Graphics/SVG/1.1/DTD/svg11.dtd">
<!-- Generated by graphviz version 2.40.1 (20161225.0304)
 -->
<!-- Title: compactImpliedRelationshipsDiagram Pages: 1 -->
<svg width="644pt" height="665pt"
 viewBox="0.00 0.00 644.00 665.20" xmlns="http://www.w3.org/2000/svg" xmlns:xlink="http://www.w3.org/1999/xlink">
<g id="graph0" class="graph" transform="scale(1 1) rotate(0) translate(4 661.2)">
<title>compactImpliedRelationshipsDiagram</title>
<polygon fill="#ffffff" stroke="transparent" points="-4,4 -4,-661.2 640,-661.2 640,4 -4,4"/>
<text text-anchor="middle" x="72.4936" y="-7.3" font-family="Helvetica,sans-Serif" font-size="11.00" fill="#000000">Generated by SchemaSpy</text>
<!-- keyworker_configuration_audit -->
<g id="node1" class="node">
<title>keyworker_configuration_audit</title>
<g id="a_node1"><a xlink:href="../../tables/keyworker_configuration_audit.html" xlink:title="keyworker_configuration_audit" target="_top">
<polygon fill="#ffffff" stroke="transparent" points="374.5,-38.2 374.5,-143.2 622.5,-143.2 622.5,-38.2 374.5,-38.2"/>
<polygon fill="#f5f5f5" stroke="transparent" points="374.5,-119.7 374.5,-142.7 622.5,-142.7 622.5,-119.7 374.5,-119.7"/>
<polygon fill="none" stroke="#000000" points="374.5,-119.7 374.5,-142.7 622.5,-142.7 622.5,-119.7 374.5,-119.7"/>
<text text-anchor="start" x="379.5" y="-128.3" font-family="Helvetica,sans-Serif" font-weight="bold" font-size="11.00" fill="#000000">keyworker_configuration_audit</text>
<text text-anchor="start" x="588.0219" y="-127.8" font-family="Helvetica,sans-Serif" font-size="11.00" fill="#000000">[table]</text>
<polygon fill="none" stroke="#000000" points="374.5,-97.7 374.5,-119.7 622.5,-119.7 622.5,-97.7 374.5,-97.7"/>
<image xlink:href="../../images/primaryKeys.png" width="11px" height="12px" preserveAspectRatio="xMinYMin meet" x="379.5" y="-114.7"/>
<text text-anchor="start" x="403.5" y="-104.8" font-family="Helvetica,sans-Serif" font-size="11.00" fill="#000000">rev_id</text>
<polygon fill="none" stroke="#000000" points="374.5,-75.7 374.5,-97.7 622.5,-97.7 622.5,-75.7 374.5,-75.7"/>
<image xlink:href="../../images/primaryKeys.png" width="11px" height="12px" preserveAspectRatio="xMinYMin meet" x="379.5" y="-92.7"/>
<text text-anchor="start" x="403.5" y="-82.8" font-family="Helvetica,sans-Serif" font-size="11.00" fill="#000000">staff_id</text>
<polygon fill="none" stroke="#000000" points="374.5,-56.7 374.5,-75.7 622.5,-75.7 622.5,-56.7 374.5,-56.7"/>
<text text-anchor="start" x="377.5" y="-62.8" font-family="Helvetica,sans-Serif" font-size="11.00" fill="#000000">...</text>
<polygon fill="#ffffff" stroke="transparent" points="374.5,-37.7 374.5,-56.7 496.5,-56.7 496.5,-37.7 374.5,-37.7"/>
<polygon fill="none" stroke="#000000" points="374.5,-37.7 374.5,-56.7 496.5,-56.7 496.5,-37.7 374.5,-37.7"/>
<text text-anchor="start" x="377.5" y="-43.8" font-family="Helvetica,sans-Serif" font-size="11.00" fill="#000000">&lt; 1</text>
<polygon fill="#ffffff" stroke="transparent" points="496.5,-37.7 496.5,-56.7 559.5,-56.7 559.5,-37.7 496.5,-37.7"/>
<polygon fill="none" stroke="#000000" points="496.5,-37.7 496.5,-56.7 559.5,-56.7 559.5,-37.7 496.5,-37.7"/>
<text text-anchor="start" x="550.3862" y="-43.8" font-family="Helvetica,sans-Serif" font-size="11.00" fill="#000000"> &#160;</text>
<polygon fill="#ffffff" stroke="transparent" points="559.5,-37.7 559.5,-56.7 622.5,-56.7 622.5,-37.7 559.5,-37.7"/>
<polygon fill="none" stroke="#000000" points="559.5,-37.7 559.5,-56.7 622.5,-56.7 622.5,-37.7 559.5,-37.7"/>
<text text-anchor="start" x="613.3862" y="-43.8" font-family="Helvetica,sans-Serif" font-size="11.00" fill="#000000"> &#160;</text>
</a>
</g>
</g>
<!-- audit_revision -->
<g id="node5" class="node">
<title>audit_revision</title>
<g id="a_node5"><a xlink:href="../../tables/audit_revision.html" xlink:title="audit_revision" target="_top">
<polygon fill="#ffffff" stroke="transparent" points="97,-60.2 97,-143.2 231,-143.2 231,-60.2 97,-60.2"/>
<polygon fill="#f5f5f5" stroke="transparent" points="97,-119.7 97,-142.7 231,-142.7 231,-119.7 97,-119.7"/>
<polygon fill="none" stroke="#000000" points="97,-119.7 97,-142.7 231,-142.7 231,-119.7 97,-119.7"/>
<text text-anchor="start" x="102" y="-128.3" font-family="Helvetica,sans-Serif" font-weight="bold" font-size="11.00" fill="#000000">audit_revision</text>
<text text-anchor="start" x="196.5219" y="-127.8" font-family="Helvetica,sans-Serif" font-size="11.00" fill="#000000">[table]</text>
<polygon fill="none" stroke="#000000" points="97,-97.7 97,-119.7 231,-119.7 231,-97.7 97,-97.7"/>
<image xlink:href="../../images/primaryKeys.png" width="11px" height="12px" preserveAspectRatio="xMinYMin meet" x="102" y="-114.7"/>
<text text-anchor="start" x="117" y="-104.8" font-family="Helvetica,sans-Serif" font-size="11.00" fill="#000000">id</text>
<polygon fill="none" stroke="#000000" points="97,-78.7 97,-97.7 231,-97.7 231,-78.7 97,-78.7"/>
<text text-anchor="start" x="100" y="-84.8" font-family="Helvetica,sans-Serif" font-size="11.00" fill="#000000">...</text>
<polygon fill="#ffffff" stroke="transparent" points="97,-59.7 97,-78.7 153,-78.7 153,-59.7 97,-59.7"/>
<polygon fill="none" stroke="#000000" points="97,-59.7 97,-78.7 153,-78.7 153,-59.7 97,-59.7"/>
<text text-anchor="start" x="100" y="-65.8" font-family="Helvetica,sans-Serif" font-size="11.00" fill="#000000"> &#160;</text>
<polygon fill="#ffffff" stroke="transparent" points="153,-59.7 153,-78.7 187,-78.7 187,-59.7 153,-59.7"/>
<polygon fill="none" stroke="#000000" points="153,-59.7 153,-78.7 187,-78.7 187,-59.7 153,-59.7"/>
<text text-anchor="start" x="177.8862" y="-65.8" font-family="Helvetica,sans-Serif" font-size="11.00" fill="#000000"> &#160;</text>
<polygon fill="#ffffff" stroke="transparent" points="187,-59.7 187,-78.7 231,-78.7 231,-59.7 187,-59.7"/>
<polygon fill="none" stroke="#000000" points="187,-59.7 187,-78.7 231,-78.7 231,-59.7 187,-59.7"/>
<text text-anchor="start" x="212.4053" y="-65.8" font-family="Helvetica,sans-Serif" font-size="11.00" fill="#000000">1 &gt;</text>
</a>
</g>
</g>
<!-- keyworker_configuration_audit&#45;&gt;audit_revision -->
<g id="edge2" class="edge">
<title>keyworker_configuration_audit:w&#45;&gt;audit_revision:e</title>
<path fill="none" stroke="#000000" d="M360.0495,-108.7C307.8619,-108.7 289.6706,-108.7 231,-108.7"/>
<polygon fill="#000000" stroke="#000000" points="366.5,-108.7001 374.5,-112.3 370.5,-108.7 374.5,-108.7 374.5,-108.7 374.5,-108.7 370.5,-108.7 374.5,-105.1 366.5,-108.7001 366.5,-108.7001"/>
<ellipse fill="none" stroke="#000000" cx="363.3" cy="-108.7001" rx="3.2" ry="3.2"/>
</g>
<!-- prison_supported -->
<g id="node2" class="node">
<title>prison_supported</title>
<g id="a_node2"><a xlink:href="../../tables/prison_supported.html" xlink:title="prison_supported" target="_top">
<polygon fill="#ffffff" stroke="transparent" points="8,-471.2 8,-554.2 320,-554.2 320,-471.2 8,-471.2"/>
<polygon fill="#f5f5f5" stroke="transparent" points="8,-530.7 8,-553.7 320,-553.7 320,-530.7 8,-530.7"/>
<polygon fill="none" stroke="#000000" points="8,-530.7 8,-553.7 320,-553.7 320,-530.7 8,-530.7"/>
<text text-anchor="start" x="13" y="-539.3" font-family="Helvetica,sans-Serif" font-weight="bold" font-size="11.00" fill="#000000">prison_supported</text>
<text text-anchor="start" x="285.0437" y="-538.8" font-family="Helvetica,sans-Serif" font-size="11.00" fill="#000000">[table]</text>
<polygon fill="none" stroke="#000000" points="8,-508.7 8,-530.7 320,-530.7 320,-508.7 8,-508.7"/>
<image xlink:href="../../images/primaryKeys.png" width="11px" height="12px" preserveAspectRatio="xMinYMin meet" x="13" y="-525.7"/>
<text text-anchor="start" x="28" y="-515.8" font-family="Helvetica,sans-Serif" font-size="11.00" fill="#000000">prison_id</text>
<polygon fill="none" stroke="#000000" points="8,-489.7 8,-508.7 320,-508.7 320,-489.7 8,-489.7"/>
<text text-anchor="start" x="11" y="-495.8" font-family="Helvetica,sans-Serif" font-size="11.00" fill="#000000">...</text>
<polygon fill="#ffffff" stroke="transparent" points="8,-470.7 8,-489.7 158,-489.7 158,-470.7 8,-470.7"/>
<polygon fill="none" stroke="#000000" points="8,-470.7 8,-489.7 158,-489.7 158,-470.7 8,-470.7"/>
<text text-anchor="start" x="11" y="-476.8" font-family="Helvetica,sans-Serif" font-size="11.00" fill="#000000"> &#160;</text>
<polygon fill="#ffffff" stroke="transparent" points="158,-470.7 158,-489.7 239,-489.7 239,-470.7 158,-470.7"/>
<polygon fill="none" stroke="#000000" points="158,-470.7 158,-489.7 239,-489.7 239,-470.7 158,-470.7"/>
<text text-anchor="start" x="229.8862" y="-476.8" font-family="Helvetica,sans-Serif" font-size="11.00" fill="#000000"> &#160;</text>
<polygon fill="#ffffff" stroke="transparent" points="239,-470.7 239,-489.7 320,-489.7 320,-470.7 239,-470.7"/>
<polygon fill="none" stroke="#000000" points="239,-470.7 239,-489.7 320,-489.7 320,-470.7 239,-470.7"/>
<text text-anchor="start" x="310.8862" y="-476.8" font-family="Helvetica,sans-Serif" font-size="11.00" fill="#000000"> &#160;</text>
</a>
</g>
</g>
<!-- keyworker_stats -->
<g id="node3" class="node">
<title>keyworker_stats</title>
<g id="a_node3"><a xlink:href="../../tables/keyworker_stats.html" xlink:title="keyworker_stats" target="_top">
<polygon fill="#ffffff" stroke="transparent" points="369,-526.2 369,-653.2 628,-653.2 628,-526.2 369,-526.2"/>
<polygon fill="#f5f5f5" stroke="transparent" points="369.5,-629.7 369.5,-652.7 628.5,-652.7 628.5,-629.7 369.5,-629.7"/>
<polygon fill="none" stroke="#000000" points="369.5,-629.7 369.5,-652.7 628.5,-652.7 628.5,-629.7 369.5,-629.7"/>
<text text-anchor="start" x="374.5" y="-638.3" font-family="Helvetica,sans-Serif" font-weight="bold" font-size="11.00" fill="#000000">keyworker_stats</text>
<text text-anchor="start" x="593.5437" y="-637.8" font-family="Helvetica,sans-Serif" font-size="11.00" fill="#000000">[table]</text>
<polygon fill="none" stroke="#000000" points="369.5,-607.7 369.5,-629.7 628.5,-629.7 628.5,-607.7 369.5,-607.7"/>
<image xlink:href="../../images/primaryKeys.png" width="11px" height="12px" preserveAspectRatio="xMinYMin meet" x="374.5" y="-624.7"/>
<text text-anchor="start" x="389.5" y="-614.8" font-family="Helvetica,sans-Serif" font-size="11.00" fill="#000000">keyworker_stats_id</text>
<polygon fill="#ffffff" stroke="transparent" points="369.5,-585.7 369.5,-607.7 628.5,-607.7 628.5,-585.7 369.5,-585.7"/>
<polygon fill="none" stroke="#000000" points="369.5,-585.7 369.5,-607.7 628.5,-607.7 628.5,-585.7 369.5,-585.7"/>
<image xlink:href="../../images/foreignKeys.png" width="11px" height="12px" preserveAspectRatio="xMinYMin meet" x="374.5" y="-602.7"/>
<text text-anchor="start" x="389.5" y="-592.8" font-family="Helvetica,sans-Serif" font-size="11.00" fill="#000000">prison_id</text>
<polygon fill="#ffffff" stroke="transparent" points="369.5,-563.7 369.5,-585.7 628.5,-585.7 628.5,-563.7 369.5,-563.7"/>
<polygon fill="none" stroke="#000000" points="369.5,-563.7 369.5,-585.7 628.5,-585.7 628.5,-563.7 369.5,-563.7"/>
<text text-anchor="start" x="389.5" y="-570.8" font-family="Helvetica,sans-Serif" font-size="11.00" fill="#000000">snapshot_date</text>
<polygon fill="none" stroke="#000000" points="369.5,-544.7 369.5,-563.7 628.5,-563.7 628.5,-544.7 369.5,-544.7"/>
<text text-anchor="start" x="372.5" y="-550.8" font-family="Helvetica,sans-Serif" font-size="11.00" fill="#000000">...</text>
<polygon fill="#ffffff" stroke="transparent" points="369.5,-525.7 369.5,-544.7 492.5,-544.7 492.5,-525.7 369.5,-525.7"/>
<polygon fill="none" stroke="#000000" points="369.5,-525.7 369.5,-544.7 492.5,-544.7 492.5,-525.7 369.5,-525.7"/>
<text text-anchor="start" x="372.5" y="-531.8" font-family="Helvetica,sans-Serif" font-size="11.00" fill="#000000"> &#160;</text>
<polygon fill="#ffffff" stroke="transparent" points="492.5,-525.7 492.5,-544.7 560.5,-544.7 560.5,-525.7 492.5,-525.7"/>
<polygon fill="none" stroke="#000000" points="492.5,-525.7 492.5,-544.7 560.5,-544.7 560.5,-525.7 492.5,-525.7"/>
<text text-anchor="start" x="551.3862" y="-531.8" font-family="Helvetica,sans-Serif" font-size="11.00" fill="#000000"> &#160;</text>
<polygon fill="#ffffff" stroke="transparent" points="560.5,-525.7 560.5,-544.7 628.5,-544.7 628.5,-525.7 560.5,-525.7"/>
<polygon fill="none" stroke="#000000" points="560.5,-525.7 560.5,-544.7 628.5,-544.7 628.5,-525.7 560.5,-525.7"/>
<text text-anchor="start" x="619.3862" y="-531.8" font-family="Helvetica,sans-Serif" font-size="11.00" fill="#000000"> &#160;</text>
</a>
</g>
</g>
<!-- keyworker_stats&#45;&gt;prison_supported -->
<g id="edge3" class="edge">
<title>keyworker_stats:w&#45;&gt;prison_supported:e</title>
<path fill="none" stroke="#000000" stroke-dasharray="5,2" d="M355.7042,-592.1139C336.6784,-575.5372 354.6447,-519.7 320,-519.7"/>
<polygon fill="#000000" stroke="#000000" points="361.9085,-594.1763 368.3643,-600.1162 365.7042,-595.4382 369.5,-596.7 369.5,-596.7 369.5,-596.7 365.7042,-595.4382 370.6357,-593.2838 361.9085,-594.1763 361.9085,-594.1763"/>
<ellipse fill="none" stroke="#000000" cx="358.8719" cy="-593.1669" rx="3.2" ry="3.2"/>
</g>
<!-- offender_key_worker -->
<g id="node4" class="node">
<title>offender_key_worker</title>
<g id="a_node4"><a xlink:href="../../tables/offender_key_worker.html" xlink:title="offender_key_worker" target="_top">
<polygon fill="#ffffff" stroke="transparent" points="408.5,-290.2 408.5,-505.2 588.5,-505.2 588.5,-290.2 408.5,-290.2"/>
<polygon fill="#f5f5f5" stroke="transparent" points="408.5,-481.7 408.5,-504.7 588.5,-504.7 588.5,-481.7 408.5,-481.7"/>
<polygon fill="none" stroke="#000000" points="408.5,-481.7 408.5,-504.7 588.5,-504.7 588.5,-481.7 408.5,-481.7"/>
<text text-anchor="start" x="413.5" y="-490.3" font-family="Helvetica,sans-Serif" font-weight="bold" font-size="11.00" fill="#000000">offender_key_worker</text>
<text text-anchor="start" x="554.0219" y="-489.8" font-family="Helvetica,sans-Serif" font-size="11.00" fill="#000000">[table]</text>
<polygon fill="none" stroke="#000000" points="408.5,-459.7 408.5,-481.7 588.5,-481.7 588.5,-459.7 408.5,-459.7"/>
<image xlink:href="../../images/primaryKeys.png" width="11px" height="12px" preserveAspectRatio="xMinYMin meet" x="413.5" y="-476.7"/>
<text text-anchor="start" x="431.5" y="-466.8" font-family="Helvetica,sans-Serif" font-size="11.00" fill="#000000">offender_keyworker_id</text>
<polygon fill="#ffffff" stroke="transparent" points="408.5,-437.7 408.5,-459.7 588.5,-459.7 588.5,-437.7 408.5,-437.7"/>
<polygon fill="none" stroke="#000000" points="408.5,-437.7 408.5,-459.7 588.5,-459.7 588.5,-437.7 408.5,-437.7"/>
<text text-anchor="start" x="431.5" y="-444.8" font-family="Helvetica,sans-Serif" font-size="11.00" fill="#000000">offender_no</text>
<polygon fill="#ffffff" stroke="transparent" points="408.5,-415.7 408.5,-437.7 588.5,-437.7 588.5,-415.7 408.5,-415.7"/>
<polygon fill="none" stroke="#000000" points="408.5,-415.7 408.5,-437.7 588.5,-437.7 588.5,-415.7 408.5,-415.7"/>
<text text-anchor="start" x="431.5" y="-422.8" font-family="Helvetica,sans-Serif" font-size="11.00" fill="#000000">staff_id</text>
<polygon fill="#ffffff" stroke="transparent" points="408.5,-393.7 408.5,-415.7 588.5,-415.7 588.5,-393.7 408.5,-393.7"/>
<polygon fill="none" stroke="#000000" points="408.5,-393.7 408.5,-415.7 588.5,-415.7 588.5,-393.7 408.5,-393.7"/>
<text text-anchor="start" x="431.5" y="-400.8" font-family="Helvetica,sans-Serif" font-size="11.00" fill="#000000">assigned_date_time</text>
<polygon fill="#ffffff" stroke="transparent" points="408.5,-371.7 408.5,-393.7 588.5,-393.7 588.5,-371.7 408.5,-371.7"/>
<polygon fill="none" stroke="#000000" points="408.5,-371.7 408.5,-393.7 588.5,-393.7 588.5,-371.7 408.5,-371.7"/>
<image xlink:href="../../images/foreignKeys.png" width="11px" height="12px" preserveAspectRatio="xMinYMin meet" x="413.5" y="-388.7"/>
<text text-anchor="start" x="431.5" y="-378.8" font-family="Helvetica,sans-Serif" font-size="11.00" fill="#000000">prison_id</text>
<polygon fill="none" stroke="#000000" points="408.5,-349.7 408.5,-371.7 588.5,-371.7 588.5,-349.7 408.5,-349.7"/>
<image xlink:href="../../images/foreignKeys.png" width="11px" height="12px" preserveAspectRatio="xMinYMin meet" x="413.5" y="-366.7"/>
<text text-anchor="start" x="431.5" y="-356.8" font-family="Helvetica,sans-Serif" font-size="11.00" fill="#000000">allocation_reason_id</text>
<polygon fill="none" stroke="#000000" points="408.5,-327.7 408.5,-349.7 588.5,-349.7 588.5,-327.7 408.5,-327.7"/>
<image xlink:href="../../images/foreignKeys.png" width="11px" height="12px" preserveAspectRatio="xMinYMin meet" x="413.5" y="-344.7"/>
<text text-anchor="start" x="431.5" y="-334.8" font-family="Helvetica,sans-Serif" font-size="11.00" fill="#000000">deallocation_reason_id</text>
<polygon fill="none" stroke="#000000" points="408.5,-308.7 408.5,-327.7 588.5,-327.7 588.5,-308.7 408.5,-308.7"/>
<text text-anchor="start" x="411.5" y="-314.8" font-family="Helvetica,sans-Serif" font-size="11.00" fill="#000000">...</text>
<polygon fill="#ffffff" stroke="transparent" points="408.5,-289.7 408.5,-308.7 496.5,-308.7 496.5,-289.7 408.5,-289.7"/>
<polygon fill="none" stroke="#000000" points="408.5,-289.7 408.5,-308.7 496.5,-308.7 496.5,-289.7 408.5,-289.7"/>
<text text-anchor="start" x="411.5" y="-295.8" font-family="Helvetica,sans-Serif" font-size="11.00" fill="#000000">&lt; 2</text>
<polygon fill="#ffffff" stroke="transparent" points="496.5,-289.7 496.5,-308.7 542.5,-308.7 542.5,-289.7 496.5,-289.7"/>
<polygon fill="none" stroke="#000000" points="496.5,-289.7 496.5,-308.7 542.5,-308.7 542.5,-289.7 496.5,-289.7"/>
<text text-anchor="start" x="533.3862" y="-295.8" font-family="Helvetica,sans-Serif" font-size="11.00" fill="#000000"> &#160;</text>
<polygon fill="#ffffff" stroke="transparent" points="542.5,-289.7 542.5,-308.7 588.5,-308.7 588.5,-289.7 542.5,-289.7"/>
<polygon fill="none" stroke="#000000" points="542.5,-289.7 542.5,-308.7 588.5,-308.7 588.5,-289.7 542.5,-289.7"/>
<text text-anchor="start" x="579.3862" y="-295.8" font-family="Helvetica,sans-Serif" font-size="11.00" fill="#000000"> &#160;</text>
</a>
</g>
</g>
<!-- offender_key_worker&#45;&gt;prison_supported -->
<g id="edge6" class="edge">
<title>offender_key_worker:w&#45;&gt;prison_supported:e</title>
<path fill="none" stroke="#000000" stroke-dasharray="5,2" d="M394.0661,-384.9636C343.8672,-402.7762 386.9668,-519.7 320,-519.7"/>
<polygon fill="#000000" stroke="#000000" points="400.5966,-383.9395 409.0578,-386.2565 404.5483,-383.3197 408.5,-382.7 408.5,-382.7 408.5,-382.7 404.5483,-383.3197 407.9422,-379.1435 400.5966,-383.9395 400.5966,-383.9395"/>
<ellipse fill="none" stroke="#000000" cx="397.4352" cy="-384.4353" rx="3.2" ry="3.2"/>
</g>
<!-- reference_data -->
<g id="node7" class="node">
<title>reference_data</title>
<g id="a_node7"><a xlink:href="../../tables/reference_data.html" xlink:title="reference_data" target="_top">
<polygon fill="#ffffff" stroke="transparent" points="92.5,-224.2 92.5,-373.2 235.5,-373.2 235.5,-224.2 92.5,-224.2"/>
<polygon fill="#f5f5f5" stroke="transparent" points="93,-349.7 93,-372.7 236,-372.7 236,-349.7 93,-349.7"/>
<polygon fill="none" stroke="#000000" points="93,-349.7 93,-372.7 236,-372.7 236,-349.7 93,-349.7"/>
<text text-anchor="start" x="98" y="-358.3" font-family="Helvetica,sans-Serif" font-weight="bold" font-size="11.00" fill="#000000">reference_data</text>
<text text-anchor="start" x="201.0437" y="-357.8" font-family="Helvetica,sans-Serif" font-size="11.00" fill="#000000">[table]</text>
<polygon fill="none" stroke="#000000" points="93,-327.7 93,-349.7 236,-349.7 236,-327.7 93,-327.7"/>
<image xlink:href="../../images/primaryKeys.png" width="11px" height="12px" preserveAspectRatio="xMinYMin meet" x="98" y="-344.7"/>
<text text-anchor="start" x="113" y="-334.8" font-family="Helvetica,sans-Serif" font-size="11.00" fill="#000000">id</text>
<polygon fill="#ffffff" stroke="transparent" points="93,-305.7 93,-327.7 236,-327.7 236,-305.7 93,-305.7"/>
<polygon fill="none" stroke="#000000" points="93,-305.7 93,-327.7 236,-327.7 236,-305.7 93,-305.7"/>
<text text-anchor="start" x="113" y="-312.8" font-family="Helvetica,sans-Serif" font-size="11.00" fill="#000000">domain</text>
<polygon fill="#ffffff" stroke="transparent" points="93,-283.7 93,-305.7 236,-305.7 236,-283.7 93,-283.7"/>
<polygon fill="none" stroke="#000000" points="93,-283.7 93,-305.7 236,-305.7 236,-283.7 93,-283.7"/>
<text text-anchor="start" x="113" y="-290.8" font-family="Helvetica,sans-Serif" font-size="11.00" fill="#000000">code</text>
<polygon fill="#ffffff" stroke="transparent" points="93,-261.7 93,-283.7 236,-283.7 236,-261.7 93,-261.7"/>
<polygon fill="none" stroke="#000000" points="93,-261.7 93,-283.7 236,-283.7 236,-261.7 93,-261.7"/>
<text text-anchor="start" x="113" y="-268.8" font-family="Helvetica,sans-Serif" font-size="11.00" fill="#000000">sequence_number</text>
<polygon fill="none" stroke="#000000" points="93,-242.7 93,-261.7 236,-261.7 236,-242.7 93,-242.7"/>
<text text-anchor="start" x="96" y="-248.8" font-family="Helvetica,sans-Serif" font-size="11.00" fill="#000000">...</text>
<polygon fill="#ffffff" stroke="transparent" points="93,-223.7 93,-242.7 154,-242.7 154,-223.7 93,-223.7"/>
<polygon fill="none" stroke="#000000" points="93,-223.7 93,-242.7 154,-242.7 154,-223.7 93,-223.7"/>
<text text-anchor="start" x="96" y="-229.8" font-family="Helvetica,sans-Serif" font-size="11.00" fill="#000000"> &#160;</text>
<polygon fill="#ffffff" stroke="transparent" points="154,-223.7 154,-242.7 190,-242.7 190,-223.7 154,-223.7"/>
<polygon fill="none" stroke="#000000" points="154,-223.7 154,-242.7 190,-242.7 190,-223.7 154,-223.7"/>
<text text-anchor="start" x="180.8862" y="-229.8" font-family="Helvetica,sans-Serif" font-size="11.00" fill="#000000"> &#160;</text>
<polygon fill="#ffffff" stroke="transparent" points="190,-223.7 190,-242.7 236,-242.7 236,-223.7 190,-223.7"/>
<polygon fill="none" stroke="#000000" points="190,-223.7 190,-242.7 236,-242.7 236,-223.7 190,-223.7"/>
<text text-anchor="start" x="217.4053" y="-229.8" font-family="Helvetica,sans-Serif" font-size="11.00" fill="#000000">3 &gt;</text>
</a>
</g>
</g>
<!-- offender_key_worker&#45;&gt;reference_data -->
<g id="edge4" class="edge">
<title>offender_key_worker:w&#45;&gt;reference_data:e</title>
<path fill="none" stroke="#000000" d="M393.8534,-360.4218C328.5699,-357.8751 308.1553,-338.7 236,-338.7"/>
<polygon fill="#000000" stroke="#000000" points="400.5014,-360.548 408.4316,-364.2994 404.5007,-360.624 408.5,-360.7 408.5,-360.7 408.5,-360.7 404.5007,-360.624 408.5684,-357.1006 400.5014,-360.548 400.5014,-360.548"/>
<ellipse fill="none" stroke="#000000" cx="397.302" cy="-360.4873" rx="3.2" ry="3.2"/>
</g>
<!-- offender_key_worker&#45;&gt;reference_data -->
<g id="edge5" class="edge">
<title>offender_key_worker:w&#45;&gt;reference_data:e</title>
<path fill="none" stroke="#000000" d="M393.9536,-338.7C329.0342,-338.7 307.5755,-338.7 236,-338.7"/>
<polygon fill="#000000" stroke="#000000" points="400.5,-338.7001 408.5,-342.3 404.5,-338.7 408.5,-338.7 408.5,-338.7 408.5,-338.7 404.5,-338.7 408.5,-335.1 400.5,-338.7001 400.5,-338.7001"/>
<ellipse fill="none" stroke="#000000" cx="397.3" cy="-338.7001" rx="3.2" ry="3.2"/>
</g>
<!-- keyworker_configuration -->
<g id="node6" class="node">
<title>keyworker_configuration</title>
<g id="a_node6"><a xlink:href="../../tables/keyworker_configuration.html" xlink:title="keyworker_configuration" target="_top">
<polygon fill="#ffffff" stroke="transparent" points="395,-164.2 395,-269.2 602,-269.2 602,-164.2 395,-164.2"/>
<polygon fill="#f5f5f5" stroke="transparent" points="395.5,-245.7 395.5,-268.7 602.5,-268.7 602.5,-245.7 395.5,-245.7"/>
<polygon fill="none" stroke="#000000" points="395.5,-245.7 395.5,-268.7 602.5,-268.7 602.5,-245.7 395.5,-245.7"/>
<text text-anchor="start" x="400.5" y="-254.3" font-family="Helvetica,sans-Serif" font-weight="bold" font-size="11.00" fill="#000000">keyworker_configuration</text>
<text text-anchor="start" x="568.0219" y="-253.8" font-family="Helvetica,sans-Serif" font-size="11.00" fill="#000000">[table]</text>
<polygon fill="none" stroke="#000000" points="395.5,-223.7 395.5,-245.7 602.5,-245.7 602.5,-223.7 395.5,-223.7"/>
<image xlink:href="../../images/primaryKeys.png" width="11px" height="12px" preserveAspectRatio="xMinYMin meet" x="400.5" y="-240.7"/>
<text text-anchor="start" x="424.5" y="-230.8" font-family="Helvetica,sans-Serif" font-size="11.00" fill="#000000">staff_id</text>
<polygon fill="none" stroke="#000000" points="395.5,-201.7 395.5,-223.7 602.5,-223.7 602.5,-201.7 395.5,-201.7"/>
<image xlink:href="../../images/foreignKeys.png" width="11px" height="12px" preserveAspectRatio="xMinYMin meet" x="400.5" y="-218.7"/>
<text text-anchor="start" x="424.5" y="-208.8" font-family="Helvetica,sans-Serif" font-size="11.00" fill="#000000">status_id</text>
<polygon fill="none" stroke="#000000" points="395.5,-182.7 395.5,-201.7 602.5,-201.7 602.5,-182.7 395.5,-182.7"/>
<text text-anchor="start" x="398.5" y="-188.8" font-family="Helvetica,sans-Serif" font-size="11.00" fill="#000000">...</text>
<polygon fill="#ffffff" stroke="transparent" points="395.5,-163.7 395.5,-182.7 497.5,-182.7 497.5,-163.7 395.5,-163.7"/>
<polygon fill="none" stroke="#000000" points="395.5,-163.7 395.5,-182.7 497.5,-182.7 497.5,-163.7 395.5,-163.7"/>
<text text-anchor="start" x="398.5" y="-169.8" font-family="Helvetica,sans-Serif" font-size="11.00" fill="#000000">&lt; 1</text>
<polygon fill="#ffffff" stroke="transparent" points="497.5,-163.7 497.5,-182.7 549.5,-182.7 549.5,-163.7 497.5,-163.7"/>
<polygon fill="none" stroke="#000000" points="497.5,-163.7 497.5,-182.7 549.5,-182.7 549.5,-163.7 497.5,-163.7"/>
<text text-anchor="start" x="540.3862" y="-169.8" font-family="Helvetica,sans-Serif" font-size="11.00" fill="#000000"> &#160;</text>
<polygon fill="#ffffff" stroke="transparent" points="549.5,-163.7 549.5,-182.7 602.5,-182.7 602.5,-163.7 549.5,-163.7"/>
<polygon fill="none" stroke="#000000" points="549.5,-163.7 549.5,-182.7 602.5,-182.7 602.5,-163.7 549.5,-163.7"/>
<text text-anchor="start" x="593.3862" y="-169.8" font-family="Helvetica,sans-Serif" font-size="11.00" fill="#000000"> &#160;</text>
</a>
</g>
</g>
<!-- keyworker_configuration&#45;&gt;reference_data -->
<g id="edge1" class="edge">
<title>keyworker_configuration:w&#45;&gt;reference_data:e</title>
<path fill="none" stroke="#000000" d="M380.7237,-213.9471C307.2595,-227.033 321.0462,-338.7 236,-338.7"/>
<polygon fill="#000000" stroke="#000000" points="387.5283,-213.3728 395.8028,-216.2872 391.5142,-213.0364 395.5,-212.7 395.5,-212.7 395.5,-212.7 391.5142,-213.0364 395.1972,-209.1128 387.5283,-213.3728 387.5283,-213.3728"/>
<ellipse fill="none" stroke="#000000" cx="384.3397" cy="-213.642" rx="3.2" ry="3.2"/>
</g>
</g>
</svg>
