<?xml version="1.0" encoding="UTF-8" standalone="no"?>
<!DOCTYPE svg PUBLIC "-//W3C//DTD SVG 1.1//EN"
 "http://www.w3.org/Graphics/SVG/1.1/DTD/svg11.dtd">
<!-- Generated by graphviz version 2.40.1 (20161225.0304)
 -->
<!-- Title: largeImpliedRelationshipsDiagram Pages: 1 -->
<svg width="644pt" height="1227pt"
 viewBox="0.00 0.00 644.00 1227.20" xmlns="http://www.w3.org/2000/svg" xmlns:xlink="http://www.w3.org/1999/xlink">
<g id="graph0" class="graph" transform="scale(1 1) rotate(0) translate(4 1223.2)">
<title>largeImpliedRelationshipsDiagram</title>
<polygon fill="#ffffff" stroke="transparent" points="-4,4 -4,-1223.2 640,-1223.2 640,4 -4,4"/>
<text text-anchor="middle" x="72.4936" y="-7.3" font-family="Helvetica,sans-Serif" font-size="11.00" fill="#000000">Generated by SchemaSpy</text>
<!-- keyworker_configuration_audit -->
<g id="node1" class="node">
<title>keyworker_configuration_audit</title>
<g id="a_node1"><a xlink:href="../../tables/keyworker_configuration_audit.html" xlink:title="keyworker_configuration_audit" target="_top">
<polygon fill="#ffffff" stroke="transparent" points="374.5,-38.2 374.5,-322.2 622.5,-322.2 622.5,-38.2 374.5,-38.2"/>
<polygon fill="#f5f5f5" stroke="transparent" points="374.5,-299.2 374.5,-322.2 622.5,-322.2 622.5,-299.2 374.5,-299.2"/>
<polygon fill="none" stroke="#000000" points="374.5,-299.2 374.5,-322.2 622.5,-322.2 622.5,-299.2 374.5,-299.2"/>
<text text-anchor="start" x="379.5" y="-307.8" font-family="Helvetica,sans-Serif" font-weight="bold" font-size="11.00" fill="#000000">keyworker_configuration_audit</text>
<text text-anchor="start" x="588.0219" y="-307.3" font-family="Helvetica,sans-Serif" font-size="11.00" fill="#000000">[table]</text>
<polygon fill="none" stroke="#000000" points="374.5,-277.2 374.5,-299.2 622.5,-299.2 622.5,-277.2 374.5,-277.2"/>
<image xlink:href="../../images/primaryKeys.png" width="11px" height="12px" preserveAspectRatio="xMinYMin meet" x="379.5" y="-294.2"/>
<text text-anchor="start" x="403.5" y="-284.3" font-family="Helvetica,sans-Serif" font-size="11.00" fill="#000000">rev_id</text>
<polygon fill="none" stroke="#000000" points="374.5,-255.2 374.5,-277.2 622.5,-277.2 622.5,-255.2 374.5,-255.2"/>
<text text-anchor="start" x="403.5" y="-262.3" font-family="Helvetica,sans-Serif" font-size="11.00" fill="#000000">rev_type</text>
<polygon fill="none" stroke="#000000" points="374.5,-233.2 374.5,-255.2 622.5,-255.2 622.5,-233.2 374.5,-233.2"/>
<image xlink:href="../../images/primaryKeys.png" width="11px" height="12px" preserveAspectRatio="xMinYMin meet" x="379.5" y="-250.2"/>
<text text-anchor="start" x="403.5" y="-240.3" font-family="Helvetica,sans-Serif" font-size="11.00" fill="#000000">staff_id</text>
<polygon fill="none" stroke="#000000" points="374.5,-211.2 374.5,-233.2 622.5,-233.2 622.5,-211.2 374.5,-211.2"/>
<text text-anchor="start" x="403.5" y="-218.3" font-family="Helvetica,sans-Serif" font-size="11.00" fill="#000000">capacity</text>
<polygon fill="none" stroke="#000000" points="374.5,-189.2 374.5,-211.2 622.5,-211.2 622.5,-189.2 374.5,-189.2"/>
<text text-anchor="start" x="403.5" y="-196.3" font-family="Helvetica,sans-Serif" font-size="11.00" fill="#000000">reactivate_on</text>
<polygon fill="none" stroke="#000000" points="374.5,-167.2 374.5,-189.2 622.5,-189.2 622.5,-167.2 374.5,-167.2"/>
<text text-anchor="start" x="403.5" y="-174.3" font-family="Helvetica,sans-Serif" font-size="11.00" fill="#000000">status_id</text>
<polygon fill="none" stroke="#000000" points="374.5,-145.2 374.5,-167.2 622.5,-167.2 622.5,-145.2 374.5,-145.2"/>
<text text-anchor="start" x="403.5" y="-152.3" font-family="Helvetica,sans-Serif" font-size="11.00" fill="#000000">allow_auto_allocation</text>
<polygon fill="none" stroke="#000000" points="374.5,-123.2 374.5,-145.2 622.5,-145.2 622.5,-123.2 374.5,-123.2"/>
<text text-anchor="start" x="403.5" y="-130.3" font-family="Helvetica,sans-Serif" font-size="11.00" fill="#000000">capacity_modified</text>
<polygon fill="none" stroke="#000000" points="374.5,-101.2 374.5,-123.2 622.5,-123.2 622.5,-101.2 374.5,-101.2"/>
<text text-anchor="start" x="403.5" y="-108.3" font-family="Helvetica,sans-Serif" font-size="11.00" fill="#000000">reactivate_on_modified</text>
<polygon fill="none" stroke="#000000" points="374.5,-79.2 374.5,-101.2 622.5,-101.2 622.5,-79.2 374.5,-79.2"/>
<text text-anchor="start" x="403.5" y="-86.3" font-family="Helvetica,sans-Serif" font-size="11.00" fill="#000000">status_modified</text>
<polygon fill="none" stroke="#000000" points="374.5,-57.2 374.5,-79.2 622.5,-79.2 622.5,-57.2 374.5,-57.2"/>
<text text-anchor="start" x="403.5" y="-64.3" font-family="Helvetica,sans-Serif" font-size="11.00" fill="#000000">allow_auto_allocation_modified</text>
<polygon fill="#ffffff" stroke="transparent" points="374.5,-38.2 374.5,-57.2 496.5,-57.2 496.5,-38.2 374.5,-38.2"/>
<polygon fill="none" stroke="#000000" points="374.5,-38.2 374.5,-57.2 496.5,-57.2 496.5,-38.2 374.5,-38.2"/>
<text text-anchor="start" x="377.5" y="-44.3" font-family="Helvetica,sans-Serif" font-size="11.00" fill="#000000">&lt; 1</text>
<polygon fill="#ffffff" stroke="transparent" points="496.5,-38.2 496.5,-57.2 559.5,-57.2 559.5,-38.2 496.5,-38.2"/>
<polygon fill="none" stroke="#000000" points="496.5,-38.2 496.5,-57.2 559.5,-57.2 559.5,-38.2 496.5,-38.2"/>
<text text-anchor="start" x="550.3862" y="-44.3" font-family="Helvetica,sans-Serif" font-size="11.00" fill="#000000"> &#160;</text>
<polygon fill="#ffffff" stroke="transparent" points="559.5,-38.2 559.5,-57.2 622.5,-57.2 622.5,-38.2 559.5,-38.2"/>
<polygon fill="none" stroke="#000000" points="559.5,-38.2 559.5,-57.2 622.5,-57.2 622.5,-38.2 559.5,-38.2"/>
<text text-anchor="start" x="613.3862" y="-44.3" font-family="Helvetica,sans-Serif" font-size="11.00" fill="#000000"> &#160;</text>
</a>
</g>
</g>
<!-- audit_revision -->
<g id="node5" class="node">
<title>audit_revision</title>
<g id="a_node5"><a xlink:href="../../tables/audit_revision.html" xlink:title="audit_revision" target="_top">
<polygon fill="#ffffff" stroke="transparent" points="97,-170.2 97,-322.2 231,-322.2 231,-170.2 97,-170.2"/>
<polygon fill="#f5f5f5" stroke="transparent" points="97,-299.2 97,-322.2 231,-322.2 231,-299.2 97,-299.2"/>
<polygon fill="none" stroke="#000000" points="97,-299.2 97,-322.2 231,-322.2 231,-299.2 97,-299.2"/>
<text text-anchor="start" x="102" y="-307.8" font-family="Helvetica,sans-Serif" font-weight="bold" font-size="11.00" fill="#000000">audit_revision</text>
<text text-anchor="start" x="196.5219" y="-307.3" font-family="Helvetica,sans-Serif" font-size="11.00" fill="#000000">[table]</text>
<polygon fill="none" stroke="#000000" points="97,-277.2 97,-299.2 231,-299.2 231,-277.2 97,-277.2"/>
<image xlink:href="../../images/primaryKeys.png" width="11px" height="12px" preserveAspectRatio="xMinYMin meet" x="102" y="-294.2"/>
<text text-anchor="start" x="117" y="-284.3" font-family="Helvetica,sans-Serif" font-size="11.00" fill="#000000">id</text>
<polygon fill="none" stroke="#000000" points="97,-255.2 97,-277.2 231,-277.2 231,-255.2 97,-255.2"/>
<text text-anchor="start" x="117" y="-262.3" font-family="Helvetica,sans-Serif" font-size="11.00" fill="#000000">timestamp</text>
<polygon fill="none" stroke="#000000" points="97,-233.2 97,-255.2 231,-255.2 231,-233.2 97,-233.2"/>
<text text-anchor="start" x="117" y="-240.3" font-family="Helvetica,sans-Serif" font-size="11.00" fill="#000000">username</text>
<polygon fill="none" stroke="#000000" points="97,-211.2 97,-233.2 231,-233.2 231,-211.2 97,-211.2"/>
<text text-anchor="start" x="117" y="-218.3" font-family="Helvetica,sans-Serif" font-size="11.00" fill="#000000">caseload_id</text>
<polygon fill="none" stroke="#000000" points="97,-189.2 97,-211.2 231,-211.2 231,-189.2 97,-189.2"/>
<text text-anchor="start" x="117" y="-196.3" font-family="Helvetica,sans-Serif" font-size="11.00" fill="#000000">affected_entities</text>
<polygon fill="#ffffff" stroke="transparent" points="97,-170.2 97,-189.2 153,-189.2 153,-170.2 97,-170.2"/>
<polygon fill="none" stroke="#000000" points="97,-170.2 97,-189.2 153,-189.2 153,-170.2 97,-170.2"/>
<text text-anchor="start" x="100" y="-176.3" font-family="Helvetica,sans-Serif" font-size="11.00" fill="#000000"> &#160;</text>
<polygon fill="#ffffff" stroke="transparent" points="153,-170.2 153,-189.2 187,-189.2 187,-170.2 153,-170.2"/>
<polygon fill="none" stroke="#000000" points="153,-170.2 153,-189.2 187,-189.2 187,-170.2 153,-170.2"/>
<text text-anchor="start" x="177.8862" y="-176.3" font-family="Helvetica,sans-Serif" font-size="11.00" fill="#000000"> &#160;</text>
<polygon fill="#ffffff" stroke="transparent" points="187,-170.2 187,-189.2 231,-189.2 231,-170.2 187,-170.2"/>
<polygon fill="none" stroke="#000000" points="187,-170.2 187,-189.2 231,-189.2 231,-170.2 187,-170.2"/>
<text text-anchor="start" x="212.4053" y="-176.3" font-family="Helvetica,sans-Serif" font-size="11.00" fill="#000000">1 &gt;</text>
</a>
</g>
</g>
<!-- keyworker_configuration_audit&#45;&gt;audit_revision -->
<g id="edge2" class="edge">
<title>keyworker_configuration_audit:w&#45;&gt;audit_revision:e</title>
<path fill="none" stroke="#000000" d="M360.0495,-288.2C307.8619,-288.2 289.6706,-288.2 231,-288.2"/>
<polygon fill="#000000" stroke="#000000" points="366.5,-288.2001 374.5,-291.8 370.5,-288.2 374.5,-288.2 374.5,-288.2 374.5,-288.2 370.5,-288.2 374.5,-284.6 366.5,-288.2001 366.5,-288.2001"/>
<ellipse fill="none" stroke="#000000" cx="363.3" cy="-288.2001" rx="3.2" ry="3.2"/>
</g>
<!-- prison_supported -->
<g id="node2" class="node">
<title>prison_supported</title>
<g id="a_node2"><a xlink:href="../../tables/prison_supported.html" xlink:title="prison_supported" target="_top">
<polygon fill="#ffffff" stroke="transparent" points="8,-788.2 8,-1006.2 320,-1006.2 320,-788.2 8,-788.2"/>
<polygon fill="#f5f5f5" stroke="transparent" points="8,-983.2 8,-1006.2 320,-1006.2 320,-983.2 8,-983.2"/>
<polygon fill="none" stroke="#000000" points="8,-983.2 8,-1006.2 320,-1006.2 320,-983.2 8,-983.2"/>
<text text-anchor="start" x="13" y="-991.8" font-family="Helvetica,sans-Serif" font-weight="bold" font-size="11.00" fill="#000000">prison_supported</text>
<text text-anchor="start" x="285.0437" y="-991.3" font-family="Helvetica,sans-Serif" font-size="11.00" fill="#000000">[table]</text>
<polygon fill="none" stroke="#000000" points="8,-961.2 8,-983.2 320,-983.2 320,-961.2 8,-961.2"/>
<image xlink:href="../../images/primaryKeys.png" width="11px" height="12px" preserveAspectRatio="xMinYMin meet" x="13" y="-978.2"/>
<text text-anchor="start" x="28" y="-968.3" font-family="Helvetica,sans-Serif" font-size="11.00" fill="#000000">prison_id</text>
<polygon fill="none" stroke="#000000" points="8,-939.2 8,-961.2 320,-961.2 320,-939.2 8,-939.2"/>
<text text-anchor="start" x="28" y="-946.3" font-family="Helvetica,sans-Serif" font-size="11.00" fill="#000000">auto_allocate</text>
<polygon fill="none" stroke="#000000" points="8,-917.2 8,-939.2 320,-939.2 320,-917.2 8,-917.2"/>
<text text-anchor="start" x="28" y="-924.3" font-family="Helvetica,sans-Serif" font-size="11.00" fill="#000000">migrated</text>
<polygon fill="none" stroke="#000000" points="8,-895.2 8,-917.2 320,-917.2 320,-895.2 8,-895.2"/>
<text text-anchor="start" x="28" y="-902.3" font-family="Helvetica,sans-Serif" font-size="11.00" fill="#000000">migrated_date_time</text>
<polygon fill="none" stroke="#000000" points="8,-873.2 8,-895.2 320,-895.2 320,-873.2 8,-873.2"/>
<text text-anchor="start" x="28" y="-880.3" font-family="Helvetica,sans-Serif" font-size="11.00" fill="#000000">capacity_tier_1</text>
<polygon fill="none" stroke="#000000" points="8,-851.2 8,-873.2 320,-873.2 320,-851.2 8,-851.2"/>
<text text-anchor="start" x="28" y="-858.3" font-family="Helvetica,sans-Serif" font-size="11.00" fill="#000000">capacity_tier_2</text>
<polygon fill="none" stroke="#000000" points="8,-829.2 8,-851.2 320,-851.2 320,-829.2 8,-829.2"/>
<text text-anchor="start" x="28" y="-836.3" font-family="Helvetica,sans-Serif" font-size="11.00" fill="#000000">kw_session_freq_weeks</text>
<polygon fill="none" stroke="#000000" points="8,-807.2 8,-829.2 320,-829.2 320,-807.2 8,-807.2"/>
<text text-anchor="start" x="28" y="-814.3" font-family="Helvetica,sans-Serif" font-size="11.00" fill="#000000">has_prisoners_with_high_complexity_needs</text>
<polygon fill="#ffffff" stroke="transparent" points="8,-788.2 8,-807.2 158,-807.2 158,-788.2 8,-788.2"/>
<polygon fill="none" stroke="#000000" points="8,-788.2 8,-807.2 158,-807.2 158,-788.2 8,-788.2"/>
<text text-anchor="start" x="11" y="-794.3" font-family="Helvetica,sans-Serif" font-size="11.00" fill="#000000"> &#160;</text>
<polygon fill="#ffffff" stroke="transparent" points="158,-788.2 158,-807.2 239,-807.2 239,-788.2 158,-788.2"/>
<polygon fill="none" stroke="#000000" points="158,-788.2 158,-807.2 239,-807.2 239,-788.2 158,-788.2"/>
<text text-anchor="start" x="229.8862" y="-794.3" font-family="Helvetica,sans-Serif" font-size="11.00" fill="#000000"> &#160;</text>
<polygon fill="#ffffff" stroke="transparent" points="239,-788.2 239,-807.2 320,-807.2 320,-788.2 239,-788.2"/>
<polygon fill="none" stroke="#000000" points="239,-788.2 239,-807.2 320,-807.2 320,-788.2 239,-788.2"/>
<text text-anchor="start" x="310.8862" y="-794.3" font-family="Helvetica,sans-Serif" font-size="11.00" fill="#000000"> &#160;</text>
</a>
</g>
</g>
<!-- keyworker_stats -->
<g id="node3" class="node">
<title>keyworker_stats</title>
<g id="a_node3"><a xlink:href="../../tables/keyworker_stats.html" xlink:title="keyworker_stats" target="_top">
<polygon fill="#ffffff" stroke="transparent" points="369,-909.2 369,-1215.2 628,-1215.2 628,-909.2 369,-909.2"/>
<polygon fill="#f5f5f5" stroke="transparent" points="369.5,-1192.2 369.5,-1215.2 628.5,-1215.2 628.5,-1192.2 369.5,-1192.2"/>
<polygon fill="none" stroke="#000000" points="369.5,-1192.2 369.5,-1215.2 628.5,-1215.2 628.5,-1192.2 369.5,-1192.2"/>
<text text-anchor="start" x="374.5" y="-1200.8" font-family="Helvetica,sans-Serif" font-weight="bold" font-size="11.00" fill="#000000">keyworker_stats</text>
<text text-anchor="start" x="593.5437" y="-1200.3" font-family="Helvetica,sans-Serif" font-size="11.00" fill="#000000">[table]</text>
<polygon fill="none" stroke="#000000" points="369.5,-1170.2 369.5,-1192.2 628.5,-1192.2 628.5,-1170.2 369.5,-1170.2"/>
<image xlink:href="../../images/primaryKeys.png" width="11px" height="12px" preserveAspectRatio="xMinYMin meet" x="374.5" y="-1187.2"/>
<text text-anchor="start" x="389.5" y="-1177.3" font-family="Helvetica,sans-Serif" font-size="11.00" fill="#000000">keyworker_stats_id</text>
<polygon fill="#ffffff" stroke="transparent" points="369.5,-1148.2 369.5,-1170.2 628.5,-1170.2 628.5,-1148.2 369.5,-1148.2"/>
<polygon fill="none" stroke="#000000" points="369.5,-1148.2 369.5,-1170.2 628.5,-1170.2 628.5,-1148.2 369.5,-1148.2"/>
<image xlink:href="../../images/foreignKeys.png" width="11px" height="12px" preserveAspectRatio="xMinYMin meet" x="374.5" y="-1165.2"/>
<text text-anchor="start" x="389.5" y="-1155.3" font-family="Helvetica,sans-Serif" font-size="11.00" fill="#000000">prison_id</text>
<polygon fill="#ffffff" stroke="transparent" points="369.5,-1126.2 369.5,-1148.2 628.5,-1148.2 628.5,-1126.2 369.5,-1126.2"/>
<polygon fill="none" stroke="#000000" points="369.5,-1126.2 369.5,-1148.2 628.5,-1148.2 628.5,-1126.2 369.5,-1126.2"/>
<text text-anchor="start" x="389.5" y="-1133.3" font-family="Helvetica,sans-Serif" font-size="11.00" fill="#000000">snapshot_date</text>
<polygon fill="none" stroke="#000000" points="369.5,-1104.2 369.5,-1126.2 628.5,-1126.2 628.5,-1104.2 369.5,-1104.2"/>
<text text-anchor="start" x="389.5" y="-1111.3" font-family="Helvetica,sans-Serif" font-size="11.00" fill="#000000">num_prisoners_assigned_kw</text>
<polygon fill="none" stroke="#000000" points="369.5,-1082.2 369.5,-1104.2 628.5,-1104.2 628.5,-1082.2 369.5,-1082.2"/>
<text text-anchor="start" x="389.5" y="-1089.3" font-family="Helvetica,sans-Serif" font-size="11.00" fill="#000000">total_num_prisoners</text>
<polygon fill="none" stroke="#000000" points="369.5,-1060.2 369.5,-1082.2 628.5,-1082.2 628.5,-1060.2 369.5,-1060.2"/>
<text text-anchor="start" x="389.5" y="-1067.3" font-family="Helvetica,sans-Serif" font-size="11.00" fill="#000000">num_kw_sessions</text>
<polygon fill="none" stroke="#000000" points="369.5,-1038.2 369.5,-1060.2 628.5,-1060.2 628.5,-1038.2 369.5,-1038.2"/>
<text text-anchor="start" x="389.5" y="-1045.3" font-family="Helvetica,sans-Serif" font-size="11.00" fill="#000000">num_kw_entries</text>
<polygon fill="none" stroke="#000000" points="369.5,-1016.2 369.5,-1038.2 628.5,-1038.2 628.5,-1016.2 369.5,-1016.2"/>
<text text-anchor="start" x="389.5" y="-1023.3" font-family="Helvetica,sans-Serif" font-size="11.00" fill="#000000">num_active_keyworkers</text>
<polygon fill="none" stroke="#000000" points="369.5,-994.2 369.5,-1016.2 628.5,-1016.2 628.5,-994.2 369.5,-994.2"/>
<text text-anchor="start" x="389.5" y="-1001.3" font-family="Helvetica,sans-Serif" font-size="11.00" fill="#000000">recpt_to_alloc_days</text>
<polygon fill="none" stroke="#000000" points="369.5,-972.2 369.5,-994.2 628.5,-994.2 628.5,-972.2 369.5,-972.2"/>
<text text-anchor="start" x="389.5" y="-979.3" font-family="Helvetica,sans-Serif" font-size="11.00" fill="#000000">recpt_to_kw_session_days</text>
<polygon fill="none" stroke="#000000" points="369.5,-950.2 369.5,-972.2 628.5,-972.2 628.5,-950.2 369.5,-950.2"/>
<text text-anchor="start" x="389.5" y="-957.3" font-family="Helvetica,sans-Serif" font-size="11.00" fill="#000000">total_num_eligible_prisoners</text>
<polygon fill="none" stroke="#000000" points="369.5,-928.2 369.5,-950.2 628.5,-950.2 628.5,-928.2 369.5,-928.2"/>
<text text-anchor="start" x="389.5" y="-935.3" font-family="Helvetica,sans-Serif" font-size="11.00" fill="#000000">high_complexity_of_need_prisoners</text>
<polygon fill="#ffffff" stroke="transparent" points="369.5,-909.2 369.5,-928.2 492.5,-928.2 492.5,-909.2 369.5,-909.2"/>
<polygon fill="none" stroke="#000000" points="369.5,-909.2 369.5,-928.2 492.5,-928.2 492.5,-909.2 369.5,-909.2"/>
<text text-anchor="start" x="372.5" y="-915.3" font-family="Helvetica,sans-Serif" font-size="11.00" fill="#000000"> &#160;</text>
<polygon fill="#ffffff" stroke="transparent" points="492.5,-909.2 492.5,-928.2 560.5,-928.2 560.5,-909.2 492.5,-909.2"/>
<polygon fill="none" stroke="#000000" points="492.5,-909.2 492.5,-928.2 560.5,-928.2 560.5,-909.2 492.5,-909.2"/>
<text text-anchor="start" x="551.3862" y="-915.3" font-family="Helvetica,sans-Serif" font-size="11.00" fill="#000000"> &#160;</text>
<polygon fill="#ffffff" stroke="transparent" points="560.5,-909.2 560.5,-928.2 628.5,-928.2 628.5,-909.2 560.5,-909.2"/>
<polygon fill="none" stroke="#000000" points="560.5,-909.2 560.5,-928.2 628.5,-928.2 628.5,-909.2 560.5,-909.2"/>
<text text-anchor="start" x="619.3862" y="-915.3" font-family="Helvetica,sans-Serif" font-size="11.00" fill="#000000"> &#160;</text>
</a>
</g>
</g>
<!-- keyworker_stats&#45;&gt;prison_supported -->
<g id="edge3" class="edge">
<title>keyworker_stats:w&#45;&gt;prison_supported:e</title>
<path fill="none" stroke="#000000" stroke-dasharray="5,2" d="M355.0077,-1156.8356C298.8698,-1135.1887 400.2644,-972.2 320,-972.2"/>
<polygon fill="#000000" stroke="#000000" points="361.6044,-1157.9118 368.9203,-1162.753 365.5522,-1158.5559 369.5,-1159.2 369.5,-1159.2 369.5,-1159.2 365.5522,-1158.5559 370.0797,-1155.647 361.6044,-1157.9118 361.6044,-1157.9118"/>
<ellipse fill="none" stroke="#000000" cx="358.4461" cy="-1157.3965" rx="3.2" ry="3.2"/>
</g>
<!-- offender_key_worker -->
<g id="node4" class="node">
<title>offender_key_worker</title>
<g id="a_node4"><a xlink:href="../../tables/offender_key_worker.html" xlink:title="offender_key_worker" target="_top">
<polygon fill="#ffffff" stroke="transparent" points="408.5,-516.2 408.5,-888.2 588.5,-888.2 588.5,-516.2 408.5,-516.2"/>
<polygon fill="#f5f5f5" stroke="transparent" points="408.5,-865.2 408.5,-888.2 588.5,-888.2 588.5,-865.2 408.5,-865.2"/>
<polygon fill="none" stroke="#000000" points="408.5,-865.2 408.5,-888.2 588.5,-888.2 588.5,-865.2 408.5,-865.2"/>
<text text-anchor="start" x="413.5" y="-873.8" font-family="Helvetica,sans-Serif" font-weight="bold" font-size="11.00" fill="#000000">offender_key_worker</text>
<text text-anchor="start" x="554.0219" y="-873.3" font-family="Helvetica,sans-Serif" font-size="11.00" fill="#000000">[table]</text>
<polygon fill="none" stroke="#000000" points="408.5,-843.2 408.5,-865.2 588.5,-865.2 588.5,-843.2 408.5,-843.2"/>
<image xlink:href="../../images/primaryKeys.png" width="11px" height="12px" preserveAspectRatio="xMinYMin meet" x="413.5" y="-860.2"/>
<text text-anchor="start" x="431.5" y="-850.3" font-family="Helvetica,sans-Serif" font-size="11.00" fill="#000000">offender_keyworker_id</text>
<polygon fill="#ffffff" stroke="transparent" points="408.5,-821.2 408.5,-843.2 588.5,-843.2 588.5,-821.2 408.5,-821.2"/>
<polygon fill="none" stroke="#000000" points="408.5,-821.2 408.5,-843.2 588.5,-843.2 588.5,-821.2 408.5,-821.2"/>
<text text-anchor="start" x="431.5" y="-828.3" font-family="Helvetica,sans-Serif" font-size="11.00" fill="#000000">offender_no</text>
<polygon fill="#ffffff" stroke="transparent" points="408.5,-799.2 408.5,-821.2 588.5,-821.2 588.5,-799.2 408.5,-799.2"/>
<polygon fill="none" stroke="#000000" points="408.5,-799.2 408.5,-821.2 588.5,-821.2 588.5,-799.2 408.5,-799.2"/>
<text text-anchor="start" x="431.5" y="-806.3" font-family="Helvetica,sans-Serif" font-size="11.00" fill="#000000">staff_id</text>
<polygon fill="#ffffff" stroke="transparent" points="408.5,-777.2 408.5,-799.2 588.5,-799.2 588.5,-777.2 408.5,-777.2"/>
<polygon fill="none" stroke="#000000" points="408.5,-777.2 408.5,-799.2 588.5,-799.2 588.5,-777.2 408.5,-777.2"/>
<text text-anchor="start" x="431.5" y="-784.3" font-family="Helvetica,sans-Serif" font-size="11.00" fill="#000000">assigned_date_time</text>
<polygon fill="none" stroke="#000000" points="408.5,-755.2 408.5,-777.2 588.5,-777.2 588.5,-755.2 408.5,-755.2"/>
<text text-anchor="start" x="431.5" y="-762.3" font-family="Helvetica,sans-Serif" font-size="11.00" fill="#000000">active_flag</text>
<polygon fill="none" stroke="#000000" points="408.5,-733.2 408.5,-755.2 588.5,-755.2 588.5,-733.2 408.5,-733.2"/>
<text text-anchor="start" x="431.5" y="-740.3" font-family="Helvetica,sans-Serif" font-size="11.00" fill="#000000">alloc_type</text>
<polygon fill="none" stroke="#000000" points="408.5,-711.2 408.5,-733.2 588.5,-733.2 588.5,-711.2 408.5,-711.2"/>
<text text-anchor="start" x="431.5" y="-718.3" font-family="Helvetica,sans-Serif" font-size="11.00" fill="#000000">user_id</text>
<polygon fill="#ffffff" stroke="transparent" points="408.5,-689.2 408.5,-711.2 588.5,-711.2 588.5,-689.2 408.5,-689.2"/>
<polygon fill="none" stroke="#000000" points="408.5,-689.2 408.5,-711.2 588.5,-711.2 588.5,-689.2 408.5,-689.2"/>
<image xlink:href="../../images/foreignKeys.png" width="11px" height="12px" preserveAspectRatio="xMinYMin meet" x="413.5" y="-706.2"/>
<text text-anchor="start" x="431.5" y="-696.3" font-family="Helvetica,sans-Serif" font-size="11.00" fill="#000000">prison_id</text>
<polygon fill="none" stroke="#000000" points="408.5,-667.2 408.5,-689.2 588.5,-689.2 588.5,-667.2 408.5,-667.2"/>
<text text-anchor="start" x="431.5" y="-674.3" font-family="Helvetica,sans-Serif" font-size="11.00" fill="#000000">expiry_date_time</text>
<polygon fill="none" stroke="#000000" points="408.5,-645.2 408.5,-667.2 588.5,-667.2 588.5,-645.2 408.5,-645.2"/>
<text text-anchor="start" x="431.5" y="-652.3" font-family="Helvetica,sans-Serif" font-size="11.00" fill="#000000">create_datetime</text>
<polygon fill="none" stroke="#000000" points="408.5,-623.2 408.5,-645.2 588.5,-645.2 588.5,-623.2 408.5,-623.2"/>
<text text-anchor="start" x="431.5" y="-630.3" font-family="Helvetica,sans-Serif" font-size="11.00" fill="#000000">create_user_id</text>
<polygon fill="none" stroke="#000000" points="408.5,-601.2 408.5,-623.2 588.5,-623.2 588.5,-601.2 408.5,-601.2"/>
<text text-anchor="start" x="431.5" y="-608.3" font-family="Helvetica,sans-Serif" font-size="11.00" fill="#000000">modify_datetime</text>
<polygon fill="none" stroke="#000000" points="408.5,-579.2 408.5,-601.2 588.5,-601.2 588.5,-579.2 408.5,-579.2"/>
<text text-anchor="start" x="431.5" y="-586.3" font-family="Helvetica,sans-Serif" font-size="11.00" fill="#000000">modify_user_id</text>
<polygon fill="none" stroke="#000000" points="408.5,-557.2 408.5,-579.2 588.5,-579.2 588.5,-557.2 408.5,-557.2"/>
<image xlink:href="../../images/foreignKeys.png" width="11px" height="12px" preserveAspectRatio="xMinYMin meet" x="413.5" y="-574.2"/>
<text text-anchor="start" x="431.5" y="-564.3" font-family="Helvetica,sans-Serif" font-size="11.00" fill="#000000">allocation_reason_id</text>
<polygon fill="none" stroke="#000000" points="408.5,-535.2 408.5,-557.2 588.5,-557.2 588.5,-535.2 408.5,-535.2"/>
<image xlink:href="../../images/foreignKeys.png" width="11px" height="12px" preserveAspectRatio="xMinYMin meet" x="413.5" y="-552.2"/>
<text text-anchor="start" x="431.5" y="-542.3" font-family="Helvetica,sans-Serif" font-size="11.00" fill="#000000">deallocation_reason_id</text>
<polygon fill="#ffffff" stroke="transparent" points="408.5,-516.2 408.5,-535.2 496.5,-535.2 496.5,-516.2 408.5,-516.2"/>
<polygon fill="none" stroke="#000000" points="408.5,-516.2 408.5,-535.2 496.5,-535.2 496.5,-516.2 408.5,-516.2"/>
<text text-anchor="start" x="411.5" y="-522.3" font-family="Helvetica,sans-Serif" font-size="11.00" fill="#000000">&lt; 2</text>
<polygon fill="#ffffff" stroke="transparent" points="496.5,-516.2 496.5,-535.2 542.5,-535.2 542.5,-516.2 496.5,-516.2"/>
<polygon fill="none" stroke="#000000" points="496.5,-516.2 496.5,-535.2 542.5,-535.2 542.5,-516.2 496.5,-516.2"/>
<text text-anchor="start" x="533.3862" y="-522.3" font-family="Helvetica,sans-Serif" font-size="11.00" fill="#000000"> &#160;</text>
<polygon fill="#ffffff" stroke="transparent" points="542.5,-516.2 542.5,-535.2 588.5,-535.2 588.5,-516.2 542.5,-516.2"/>
<polygon fill="none" stroke="#000000" points="542.5,-516.2 542.5,-535.2 588.5,-535.2 588.5,-516.2 542.5,-516.2"/>
<text text-anchor="start" x="579.3862" y="-522.3" font-family="Helvetica,sans-Serif" font-size="11.00" fill="#000000"> &#160;</text>
</a>
</g>
</g>
<!-- offender_key_worker&#45;&gt;prison_supported -->
<g id="edge6" class="edge">
<title>offender_key_worker:w&#45;&gt;prison_supported:e</title>
<path fill="none" stroke="#000000" stroke-dasharray="5,2" d="M394.8076,-705.3907C350.5861,-742.9947 378.3492,-972.2 320,-972.2"/>
<polygon fill="#000000" stroke="#000000" points="401.0195,-703.0358 409.7761,-703.5662 404.7597,-701.6179 408.5,-700.2 408.5,-700.2 408.5,-700.2 404.7597,-701.6179 407.2239,-696.8338 401.0195,-703.0358 401.0195,-703.0358"/>
<ellipse fill="none" stroke="#000000" cx="398.0273" cy="-704.1702" rx="3.2" ry="3.2"/>
</g>
<!-- reference_data -->
<g id="node7" class="node">
<title>reference_data</title>
<g id="a_node7"><a xlink:href="../../tables/reference_data.html" xlink:title="reference_data" target="_top">
<polygon fill="#ffffff" stroke="transparent" points="92.5,-428.2 92.5,-580.2 235.5,-580.2 235.5,-428.2 92.5,-428.2"/>
<polygon fill="#f5f5f5" stroke="transparent" points="93,-557.2 93,-580.2 236,-580.2 236,-557.2 93,-557.2"/>
<polygon fill="none" stroke="#000000" points="93,-557.2 93,-580.2 236,-580.2 236,-557.2 93,-557.2"/>
<text text-anchor="start" x="98" y="-565.8" font-family="Helvetica,sans-Serif" font-weight="bold" font-size="11.00" fill="#000000">reference_data</text>
<text text-anchor="start" x="201.0437" y="-565.3" font-family="Helvetica,sans-Serif" font-size="11.00" fill="#000000">[table]</text>
<polygon fill="none" stroke="#000000" points="93,-535.2 93,-557.2 236,-557.2 236,-535.2 93,-535.2"/>
<image xlink:href="../../images/primaryKeys.png" width="11px" height="12px" preserveAspectRatio="xMinYMin meet" x="98" y="-552.2"/>
<text text-anchor="start" x="113" y="-542.3" font-family="Helvetica,sans-Serif" font-size="11.00" fill="#000000">id</text>
<polygon fill="#ffffff" stroke="transparent" points="93,-513.2 93,-535.2 236,-535.2 236,-513.2 93,-513.2"/>
<polygon fill="none" stroke="#000000" points="93,-513.2 93,-535.2 236,-535.2 236,-513.2 93,-513.2"/>
<text text-anchor="start" x="113" y="-520.3" font-family="Helvetica,sans-Serif" font-size="11.00" fill="#000000">domain</text>
<polygon fill="#ffffff" stroke="transparent" points="93,-491.2 93,-513.2 236,-513.2 236,-491.2 93,-491.2"/>
<polygon fill="none" stroke="#000000" points="93,-491.2 93,-513.2 236,-513.2 236,-491.2 93,-491.2"/>
<text text-anchor="start" x="113" y="-498.3" font-family="Helvetica,sans-Serif" font-size="11.00" fill="#000000">code</text>
<polygon fill="none" stroke="#000000" points="93,-469.2 93,-491.2 236,-491.2 236,-469.2 93,-469.2"/>
<text text-anchor="start" x="113" y="-476.3" font-family="Helvetica,sans-Serif" font-size="11.00" fill="#000000">description</text>
<polygon fill="#ffffff" stroke="transparent" points="93,-447.2 93,-469.2 236,-469.2 236,-447.2 93,-447.2"/>
<polygon fill="none" stroke="#000000" points="93,-447.2 93,-469.2 236,-469.2 236,-447.2 93,-447.2"/>
<text text-anchor="start" x="113" y="-454.3" font-family="Helvetica,sans-Serif" font-size="11.00" fill="#000000">sequence_number</text>
<polygon fill="#ffffff" stroke="transparent" points="93,-428.2 93,-447.2 154,-447.2 154,-428.2 93,-428.2"/>
<polygon fill="none" stroke="#000000" points="93,-428.2 93,-447.2 154,-447.2 154,-428.2 93,-428.2"/>
<text text-anchor="start" x="96" y="-434.3" font-family="Helvetica,sans-Serif" font-size="11.00" fill="#000000"> &#160;</text>
<polygon fill="#ffffff" stroke="transparent" points="154,-428.2 154,-447.2 190,-447.2 190,-428.2 154,-428.2"/>
<polygon fill="none" stroke="#000000" points="154,-428.2 154,-447.2 190,-447.2 190,-428.2 154,-428.2"/>
<text text-anchor="start" x="180.8862" y="-434.3" font-family="Helvetica,sans-Serif" font-size="11.00" fill="#000000"> &#160;</text>
<polygon fill="#ffffff" stroke="transparent" points="190,-428.2 190,-447.2 236,-447.2 236,-428.2 190,-428.2"/>
<polygon fill="none" stroke="#000000" points="190,-428.2 190,-447.2 236,-447.2 236,-428.2 190,-428.2"/>
<text text-anchor="start" x="217.4053" y="-434.3" font-family="Helvetica,sans-Serif" font-size="11.00" fill="#000000">3 &gt;</text>
</a>
</g>
</g>
<!-- offender_key_worker&#45;&gt;reference_data -->
<g id="edge4" class="edge">
<title>offender_key_worker:w&#45;&gt;reference_data:e</title>
<path fill="none" stroke="#000000" d="M393.8534,-567.9218C328.5699,-565.3751 308.1553,-546.2 236,-546.2"/>
<polygon fill="#000000" stroke="#000000" points="400.5014,-568.048 408.4316,-571.7994 404.5007,-568.124 408.5,-568.2 408.5,-568.2 408.5,-568.2 404.5007,-568.124 408.5684,-564.6006 400.5014,-568.048 400.5014,-568.048"/>
<ellipse fill="none" stroke="#000000" cx="397.302" cy="-567.9873" rx="3.2" ry="3.2"/>
</g>
<!-- offender_key_worker&#45;&gt;reference_data -->
<g id="edge5" class="edge">
<title>offender_key_worker:w&#45;&gt;reference_data:e</title>
<path fill="none" stroke="#000000" d="M393.9536,-546.2C329.0342,-546.2 307.5755,-546.2 236,-546.2"/>
<polygon fill="#000000" stroke="#000000" points="400.5,-546.2001 408.5,-549.8 404.5,-546.2 408.5,-546.2 408.5,-546.2 408.5,-546.2 404.5,-546.2 408.5,-542.6 400.5,-546.2001 400.5,-546.2001"/>
<ellipse fill="none" stroke="#000000" cx="397.3" cy="-546.2001" rx="3.2" ry="3.2"/>
</g>
<!-- keyworker_configuration -->
<g id="node6" class="node">
<title>keyworker_configuration</title>
<g id="a_node6"><a xlink:href="../../tables/keyworker_configuration.html" xlink:title="keyworker_configuration" target="_top">
<polygon fill="#ffffff" stroke="transparent" points="395,-343.2 395,-495.2 602,-495.2 602,-343.2 395,-343.2"/>
<polygon fill="#f5f5f5" stroke="transparent" points="395.5,-472.2 395.5,-495.2 602.5,-495.2 602.5,-472.2 395.5,-472.2"/>
<polygon fill="none" stroke="#000000" points="395.5,-472.2 395.5,-495.2 602.5,-495.2 602.5,-472.2 395.5,-472.2"/>
<text text-anchor="start" x="400.5" y="-480.8" font-family="Helvetica,sans-Serif" font-weight="bold" font-size="11.00" fill="#000000">keyworker_configuration</text>
<text text-anchor="start" x="568.0219" y="-480.3" font-family="Helvetica,sans-Serif" font-size="11.00" fill="#000000">[table]</text>
<polygon fill="none" stroke="#000000" points="395.5,-450.2 395.5,-472.2 602.5,-472.2 602.5,-450.2 395.5,-450.2"/>
<image xlink:href="../../images/primaryKeys.png" width="11px" height="12px" preserveAspectRatio="xMinYMin meet" x="400.5" y="-467.2"/>
<text text-anchor="start" x="424.5" y="-457.3" font-family="Helvetica,sans-Serif" font-size="11.00" fill="#000000">staff_id</text>
<polygon fill="none" stroke="#000000" points="395.5,-428.2 395.5,-450.2 602.5,-450.2 602.5,-428.2 395.5,-428.2"/>
<text text-anchor="start" x="424.5" y="-435.3" font-family="Helvetica,sans-Serif" font-size="11.00" fill="#000000">capacity</text>
<polygon fill="none" stroke="#000000" points="395.5,-406.2 395.5,-428.2 602.5,-428.2 602.5,-406.2 395.5,-406.2"/>
<image xlink:href="../../images/foreignKeys.png" width="11px" height="12px" preserveAspectRatio="xMinYMin meet" x="400.5" y="-423.2"/>
<text text-anchor="start" x="424.5" y="-413.3" font-family="Helvetica,sans-Serif" font-size="11.00" fill="#000000">status_id</text>
<polygon fill="none" stroke="#000000" points="395.5,-384.2 395.5,-406.2 602.5,-406.2 602.5,-384.2 395.5,-384.2"/>
<text text-anchor="start" x="424.5" y="-391.3" font-family="Helvetica,sans-Serif" font-size="11.00" fill="#000000">allow_auto_allocation</text>
<polygon fill="none" stroke="#000000" points="395.5,-362.2 395.5,-384.2 602.5,-384.2 602.5,-362.2 395.5,-362.2"/>
<text text-anchor="start" x="424.5" y="-369.3" font-family="Helvetica,sans-Serif" font-size="11.00" fill="#000000">reactivate_on</text>
<polygon fill="#ffffff" stroke="transparent" points="395.5,-343.2 395.5,-362.2 497.5,-362.2 497.5,-343.2 395.5,-343.2"/>
<polygon fill="none" stroke="#000000" points="395.5,-343.2 395.5,-362.2 497.5,-362.2 497.5,-343.2 395.5,-343.2"/>
<text text-anchor="start" x="398.5" y="-349.3" font-family="Helvetica,sans-Serif" font-size="11.00" fill="#000000">&lt; 1</text>
<polygon fill="#ffffff" stroke="transparent" points="497.5,-343.2 497.5,-362.2 549.5,-362.2 549.5,-343.2 497.5,-343.2"/>
<polygon fill="none" stroke="#000000" points="497.5,-343.2 497.5,-362.2 549.5,-362.2 549.5,-343.2 497.5,-343.2"/>
<text text-anchor="start" x="540.3862" y="-349.3" font-family="Helvetica,sans-Serif" font-size="11.00" fill="#000000"> &#160;</text>
<polygon fill="#ffffff" stroke="transparent" points="549.5,-343.2 549.5,-362.2 602.5,-362.2 602.5,-343.2 549.5,-343.2"/>
<polygon fill="none" stroke="#000000" points="549.5,-343.2 549.5,-362.2 602.5,-362.2 602.5,-343.2 549.5,-343.2"/>
<text text-anchor="start" x="593.3862" y="-349.3" font-family="Helvetica,sans-Serif" font-size="11.00" fill="#000000"> &#160;</text>
</a>
</g>
</g>
<!-- keyworker_configuration&#45;&gt;reference_data -->
<g id="edge1" class="edge">
<title>keyworker_configuration:w&#45;&gt;reference_data:e</title>
<path fill="none" stroke="#000000" d="M381.0638,-418.3947C306.55,-431.3994 322.008,-546.2 236,-546.2"/>
<polygon fill="#000000" stroke="#000000" points="387.5273,-417.8598 395.7969,-420.7877 391.5136,-417.5299 395.5,-417.2 395.5,-417.2 395.5,-417.2 391.5136,-417.5299 395.2031,-413.6123 387.5273,-417.8598 387.5273,-417.8598"/>
<ellipse fill="none" stroke="#000000" cx="384.3382" cy="-418.1238" rx="3.2" ry="3.2"/>
</g>
</g>
</svg>
