<?xml version="1.0" encoding="UTF-8" standalone="no"?>
<!DOCTYPE svg PUBLIC "-//W3C//DTD SVG 1.1//EN"
 "http://www.w3.org/Graphics/SVG/1.1/DTD/svg11.dtd">
<!-- Generated by graphviz version 2.40.1 (20161225.0304)
 -->
<!-- Title: largeImpliedRelationshipsDiagram Pages: 1 -->
<svg width="599pt" height="727pt"
 viewBox="0.00 0.00 599.00 727.20" xmlns="http://www.w3.org/2000/svg" xmlns:xlink="http://www.w3.org/1999/xlink">
<g id="graph0" class="graph" transform="scale(1 1) rotate(0) translate(4 723.2)">
<title>largeImpliedRelationshipsDiagram</title>
<polygon fill="#ffffff" stroke="transparent" points="-4,4 -4,-723.2 595,-723.2 595,4 -4,4"/>
<text text-anchor="middle" x="72.4936" y="-7.3" font-family="Helvetica,sans-Serif" font-size="11.00" fill="#000000">Generated by SchemaSpy</text>
<!-- prison_supported -->
<g id="node1" class="node">
<title>prison_supported</title>
<g id="a_node1"><a xlink:href="../../tables/prison_supported.html" xlink:title="prison_supported" target="_top">
<polygon fill="#ffffff" stroke="transparent" points="8,-181.2 8,-399.2 320,-399.2 320,-181.2 8,-181.2"/>
<polygon fill="#f5f5f5" stroke="transparent" points="8,-376.2 8,-399.2 320,-399.2 320,-376.2 8,-376.2"/>
<polygon fill="none" stroke="#000000" points="8,-376.2 8,-399.2 320,-399.2 320,-376.2 8,-376.2"/>
<text text-anchor="start" x="13" y="-384.8" font-family="Helvetica,sans-Serif" font-weight="bold" font-size="11.00" fill="#000000">prison_supported</text>
<text text-anchor="start" x="285.0437" y="-384.3" font-family="Helvetica,sans-Serif" font-size="11.00" fill="#000000">[table]</text>
<polygon fill="none" stroke="#000000" points="8,-354.2 8,-376.2 320,-376.2 320,-354.2 8,-354.2"/>
<image xlink:href="../../images/primaryKeys.png" width="11px" height="12px" preserveAspectRatio="xMinYMin meet" x="13" y="-371.2"/>
<text text-anchor="start" x="28" y="-361.3" font-family="Helvetica,sans-Serif" font-size="11.00" fill="#000000">prison_id</text>
<polygon fill="none" stroke="#000000" points="8,-332.2 8,-354.2 320,-354.2 320,-332.2 8,-332.2"/>
<text text-anchor="start" x="28" y="-339.3" font-family="Helvetica,sans-Serif" font-size="11.00" fill="#000000">auto_allocate</text>
<polygon fill="none" stroke="#000000" points="8,-310.2 8,-332.2 320,-332.2 320,-310.2 8,-310.2"/>
<text text-anchor="start" x="28" y="-317.3" font-family="Helvetica,sans-Serif" font-size="11.00" fill="#000000">migrated</text>
<polygon fill="none" stroke="#000000" points="8,-288.2 8,-310.2 320,-310.2 320,-288.2 8,-288.2"/>
<text text-anchor="start" x="28" y="-295.3" font-family="Helvetica,sans-Serif" font-size="11.00" fill="#000000">migrated_date_time</text>
<polygon fill="none" stroke="#000000" points="8,-266.2 8,-288.2 320,-288.2 320,-266.2 8,-266.2"/>
<text text-anchor="start" x="28" y="-273.3" font-family="Helvetica,sans-Serif" font-size="11.00" fill="#000000">capacity_tier_1</text>
<polygon fill="none" stroke="#000000" points="8,-244.2 8,-266.2 320,-266.2 320,-244.2 8,-244.2"/>
<text text-anchor="start" x="28" y="-251.3" font-family="Helvetica,sans-Serif" font-size="11.00" fill="#000000">capacity_tier_2</text>
<polygon fill="none" stroke="#000000" points="8,-222.2 8,-244.2 320,-244.2 320,-222.2 8,-222.2"/>
<text text-anchor="start" x="28" y="-229.3" font-family="Helvetica,sans-Serif" font-size="11.00" fill="#000000">kw_session_freq_weeks</text>
<polygon fill="none" stroke="#000000" points="8,-200.2 8,-222.2 320,-222.2 320,-200.2 8,-200.2"/>
<text text-anchor="start" x="28" y="-207.3" font-family="Helvetica,sans-Serif" font-size="11.00" fill="#000000">has_prisoners_with_high_complexity_needs</text>
<polygon fill="#ffffff" stroke="transparent" points="8,-181.2 8,-200.2 158,-200.2 158,-181.2 8,-181.2"/>
<polygon fill="none" stroke="#000000" points="8,-181.2 8,-200.2 158,-200.2 158,-181.2 8,-181.2"/>
<text text-anchor="start" x="11" y="-187.3" font-family="Helvetica,sans-Serif" font-size="11.00" fill="#000000"> &#160;</text>
<polygon fill="#ffffff" stroke="transparent" points="158,-181.2 158,-200.2 239,-200.2 239,-181.2 158,-181.2"/>
<polygon fill="none" stroke="#000000" points="158,-181.2 158,-200.2 239,-200.2 239,-181.2 158,-181.2"/>
<text text-anchor="start" x="229.8862" y="-187.3" font-family="Helvetica,sans-Serif" font-size="11.00" fill="#000000"> &#160;</text>
<polygon fill="#ffffff" stroke="transparent" points="239,-181.2 239,-200.2 320,-200.2 320,-181.2 239,-181.2"/>
<polygon fill="none" stroke="#000000" points="239,-181.2 239,-200.2 320,-200.2 320,-181.2 239,-181.2"/>
<text text-anchor="start" x="310.8862" y="-187.3" font-family="Helvetica,sans-Serif" font-size="11.00" fill="#000000"> &#160;</text>
</a>
</g>
</g>
<!-- keyworker_stats -->
<g id="node2" class="node">
<title>keyworker_stats</title>
<g id="a_node2"><a xlink:href="../../tables/keyworker_stats.html" xlink:title="keyworker_stats" target="_top">
<polygon fill="#ffffff" stroke="transparent" points="369,-38.2 369,-322.2 583,-322.2 583,-38.2 369,-38.2"/>
<polygon fill="#f5f5f5" stroke="transparent" points="369,-299.2 369,-322.2 583,-322.2 583,-299.2 369,-299.2"/>
<polygon fill="none" stroke="#000000" points="369,-299.2 369,-322.2 583,-322.2 583,-299.2 369,-299.2"/>
<text text-anchor="start" x="374" y="-307.8" font-family="Helvetica,sans-Serif" font-weight="bold" font-size="11.00" fill="#000000">keyworker_stats</text>
<text text-anchor="start" x="548.0437" y="-307.3" font-family="Helvetica,sans-Serif" font-size="11.00" fill="#000000">[table]</text>
<polygon fill="none" stroke="#000000" points="369,-277.2 369,-299.2 583,-299.2 583,-277.2 369,-277.2"/>
<image xlink:href="../../images/primaryKeys.png" width="11px" height="12px" preserveAspectRatio="xMinYMin meet" x="374" y="-294.2"/>
<text text-anchor="start" x="389" y="-284.3" font-family="Helvetica,sans-Serif" font-size="11.00" fill="#000000">keyworker_stats_id</text>
<polygon fill="#ffffff" stroke="transparent" points="369,-255.2 369,-277.2 583,-277.2 583,-255.2 369,-255.2"/>
<polygon fill="none" stroke="#000000" points="369,-255.2 369,-277.2 583,-277.2 583,-255.2 369,-255.2"/>
<image xlink:href="../../images/foreignKeys.png" width="11px" height="12px" preserveAspectRatio="xMinYMin meet" x="374" y="-272.2"/>
<text text-anchor="start" x="389" y="-262.3" font-family="Helvetica,sans-Serif" font-size="11.00" fill="#000000">prison_id</text>
<polygon fill="#ffffff" stroke="transparent" points="369,-233.2 369,-255.2 583,-255.2 583,-233.2 369,-233.2"/>
<polygon fill="none" stroke="#000000" points="369,-233.2 369,-255.2 583,-255.2 583,-233.2 369,-233.2"/>
<text text-anchor="start" x="389" y="-240.3" font-family="Helvetica,sans-Serif" font-size="11.00" fill="#000000">snapshot_date</text>
<polygon fill="none" stroke="#000000" points="369,-211.2 369,-233.2 583,-233.2 583,-211.2 369,-211.2"/>
<text text-anchor="start" x="389" y="-218.3" font-family="Helvetica,sans-Serif" font-size="11.00" fill="#000000">num_prisoners_assigned_kw</text>
<polygon fill="none" stroke="#000000" points="369,-189.2 369,-211.2 583,-211.2 583,-189.2 369,-189.2"/>
<text text-anchor="start" x="389" y="-196.3" font-family="Helvetica,sans-Serif" font-size="11.00" fill="#000000">total_num_prisoners</text>
<polygon fill="none" stroke="#000000" points="369,-167.2 369,-189.2 583,-189.2 583,-167.2 369,-167.2"/>
<text text-anchor="start" x="389" y="-174.3" font-family="Helvetica,sans-Serif" font-size="11.00" fill="#000000">num_kw_sessions</text>
<polygon fill="none" stroke="#000000" points="369,-145.2 369,-167.2 583,-167.2 583,-145.2 369,-145.2"/>
<text text-anchor="start" x="389" y="-152.3" font-family="Helvetica,sans-Serif" font-size="11.00" fill="#000000">num_kw_entries</text>
<polygon fill="none" stroke="#000000" points="369,-123.2 369,-145.2 583,-145.2 583,-123.2 369,-123.2"/>
<text text-anchor="start" x="389" y="-130.3" font-family="Helvetica,sans-Serif" font-size="11.00" fill="#000000">num_active_keyworkers</text>
<polygon fill="none" stroke="#000000" points="369,-101.2 369,-123.2 583,-123.2 583,-101.2 369,-101.2"/>
<text text-anchor="start" x="389" y="-108.3" font-family="Helvetica,sans-Serif" font-size="11.00" fill="#000000">recpt_to_alloc_days</text>
<polygon fill="none" stroke="#000000" points="369,-79.2 369,-101.2 583,-101.2 583,-79.2 369,-79.2"/>
<text text-anchor="start" x="389" y="-86.3" font-family="Helvetica,sans-Serif" font-size="11.00" fill="#000000">recpt_to_kw_session_days</text>
<polygon fill="none" stroke="#000000" points="369,-57.2 369,-79.2 583,-79.2 583,-57.2 369,-57.2"/>
<text text-anchor="start" x="389" y="-64.3" font-family="Helvetica,sans-Serif" font-size="11.00" fill="#000000">total_num_eligible_prisoners</text>
<polygon fill="#ffffff" stroke="transparent" points="369,-38.2 369,-57.2 470,-57.2 470,-38.2 369,-38.2"/>
<polygon fill="none" stroke="#000000" points="369,-38.2 369,-57.2 470,-57.2 470,-38.2 369,-38.2"/>
<text text-anchor="start" x="372" y="-44.3" font-family="Helvetica,sans-Serif" font-size="11.00" fill="#000000"> &#160;</text>
<polygon fill="#ffffff" stroke="transparent" points="470,-38.2 470,-57.2 526,-57.2 526,-38.2 470,-38.2"/>
<polygon fill="none" stroke="#000000" points="470,-38.2 470,-57.2 526,-57.2 526,-38.2 470,-38.2"/>
<text text-anchor="start" x="516.8862" y="-44.3" font-family="Helvetica,sans-Serif" font-size="11.00" fill="#000000"> &#160;</text>
<polygon fill="#ffffff" stroke="transparent" points="526,-38.2 526,-57.2 583,-57.2 583,-38.2 526,-38.2"/>
<polygon fill="none" stroke="#000000" points="526,-38.2 526,-57.2 583,-57.2 583,-38.2 526,-38.2"/>
<text text-anchor="start" x="573.8862" y="-44.3" font-family="Helvetica,sans-Serif" font-size="11.00" fill="#000000"> &#160;</text>
</a>
</g>
</g>
<!-- keyworker_stats&#45;&gt;prison_supported -->
<g id="edge1" class="edge">
<title>keyworker_stats:w&#45;&gt;prison_supported:e</title>
<path fill="none" stroke="#000000" stroke-dasharray="5,2" d="M355.1394,-270.2035C330.3773,-288.7249 363.1495,-365.2 320,-365.2"/>
<polygon fill="#000000" stroke="#000000" points="361.3142,-268.42 369.999,-269.6586 365.1571,-267.31 369,-266.2 369,-266.2 369,-266.2 365.1571,-267.31 368.001,-262.7414 361.3142,-268.42 361.3142,-268.42"/>
<ellipse fill="none" stroke="#000000" cx="358.2399" cy="-269.308" rx="3.2" ry="3.2"/>
</g>
<!-- key_worker -->
<g id="node3" class="node">
<title>key_worker</title>
<g id="a_node3"><a xlink:href="../../tables/key_worker.html" xlink:title="key_worker" target="_top">
<polygon fill="#ffffff" stroke="transparent" points="86,-519.2 86,-671.2 242,-671.2 242,-519.2 86,-519.2"/>
<polygon fill="#f5f5f5" stroke="transparent" points="86,-648.2 86,-671.2 242,-671.2 242,-648.2 86,-648.2"/>
<polygon fill="none" stroke="#000000" points="86,-648.2 86,-671.2 242,-671.2 242,-648.2 86,-648.2"/>
<text text-anchor="start" x="91" y="-656.8" font-family="Helvetica,sans-Serif" font-weight="bold" font-size="11.00" fill="#000000">key_worker</text>
<text text-anchor="start" x="207.0437" y="-656.3" font-family="Helvetica,sans-Serif" font-size="11.00" fill="#000000">[table]</text>
<polygon fill="none" stroke="#000000" points="86,-626.2 86,-648.2 242,-648.2 242,-626.2 86,-626.2"/>
<image xlink:href="../../images/primaryKeys.png" width="11px" height="12px" preserveAspectRatio="xMinYMin meet" x="91" y="-643.2"/>
<text text-anchor="start" x="106" y="-633.3" font-family="Helvetica,sans-Serif" font-size="11.00" fill="#000000">staff_id</text>
<polygon fill="none" stroke="#000000" points="86,-604.2 86,-626.2 242,-626.2 242,-604.2 86,-604.2"/>
<text text-anchor="start" x="106" y="-611.3" font-family="Helvetica,sans-Serif" font-size="11.00" fill="#000000">status</text>
<polygon fill="none" stroke="#000000" points="86,-582.2 86,-604.2 242,-604.2 242,-582.2 86,-582.2"/>
<text text-anchor="start" x="106" y="-589.3" font-family="Helvetica,sans-Serif" font-size="11.00" fill="#000000">capacity</text>
<polygon fill="none" stroke="#000000" points="86,-560.2 86,-582.2 242,-582.2 242,-560.2 86,-560.2"/>
<text text-anchor="start" x="106" y="-567.3" font-family="Helvetica,sans-Serif" font-size="11.00" fill="#000000">auto_allocation_flag</text>
<polygon fill="none" stroke="#000000" points="86,-538.2 86,-560.2 242,-560.2 242,-538.2 86,-538.2"/>
<text text-anchor="start" x="106" y="-545.3" font-family="Helvetica,sans-Serif" font-size="11.00" fill="#000000">active_date</text>
<polygon fill="#ffffff" stroke="transparent" points="86,-519.2 86,-538.2 158,-538.2 158,-519.2 86,-519.2"/>
<polygon fill="none" stroke="#000000" points="86,-519.2 86,-538.2 158,-538.2 158,-519.2 86,-519.2"/>
<text text-anchor="start" x="89" y="-525.3" font-family="Helvetica,sans-Serif" font-size="11.00" fill="#000000"> &#160;</text>
<polygon fill="#ffffff" stroke="transparent" points="158,-519.2 158,-538.2 200,-538.2 200,-519.2 158,-519.2"/>
<polygon fill="none" stroke="#000000" points="158,-519.2 158,-538.2 200,-538.2 200,-519.2 158,-519.2"/>
<text text-anchor="start" x="190.8862" y="-525.3" font-family="Helvetica,sans-Serif" font-size="11.00" fill="#000000"> &#160;</text>
<polygon fill="#ffffff" stroke="transparent" points="200,-519.2 200,-538.2 242,-538.2 242,-519.2 200,-519.2"/>
<polygon fill="none" stroke="#000000" points="200,-519.2 200,-538.2 242,-538.2 242,-519.2 200,-519.2"/>
<text text-anchor="start" x="232.8862" y="-525.3" font-family="Helvetica,sans-Serif" font-size="11.00" fill="#000000"> &#160;</text>
</a>
</g>
</g>
<!-- offender_key_worker -->
<g id="node4" class="node">
<title>offender_key_worker</title>
<g id="a_node4"><a xlink:href="../../tables/offender_key_worker.html" xlink:title="offender_key_worker" target="_top">
<polygon fill="#ffffff" stroke="transparent" points="386,-343.2 386,-715.2 566,-715.2 566,-343.2 386,-343.2"/>
<polygon fill="#f5f5f5" stroke="transparent" points="386,-692.2 386,-715.2 566,-715.2 566,-692.2 386,-692.2"/>
<polygon fill="none" stroke="#000000" points="386,-692.2 386,-715.2 566,-715.2 566,-692.2 386,-692.2"/>
<text text-anchor="start" x="391" y="-700.8" font-family="Helvetica,sans-Serif" font-weight="bold" font-size="11.00" fill="#000000">offender_key_worker</text>
<text text-anchor="start" x="531.5219" y="-700.3" font-family="Helvetica,sans-Serif" font-size="11.00" fill="#000000">[table]</text>
<polygon fill="none" stroke="#000000" points="386,-670.2 386,-692.2 566,-692.2 566,-670.2 386,-670.2"/>
<image xlink:href="../../images/primaryKeys.png" width="11px" height="12px" preserveAspectRatio="xMinYMin meet" x="391" y="-687.2"/>
<text text-anchor="start" x="409" y="-677.3" font-family="Helvetica,sans-Serif" font-size="11.00" fill="#000000">offender_keyworker_id</text>
<polygon fill="#ffffff" stroke="transparent" points="386,-648.2 386,-670.2 566,-670.2 566,-648.2 386,-648.2"/>
<polygon fill="none" stroke="#000000" points="386,-648.2 386,-670.2 566,-670.2 566,-648.2 386,-648.2"/>
<text text-anchor="start" x="409" y="-655.3" font-family="Helvetica,sans-Serif" font-size="11.00" fill="#000000">offender_no</text>
<polygon fill="#ffffff" stroke="transparent" points="386,-626.2 386,-648.2 566,-648.2 566,-626.2 386,-626.2"/>
<polygon fill="none" stroke="#000000" points="386,-626.2 386,-648.2 566,-648.2 566,-626.2 386,-626.2"/>
<image xlink:href="../../images/foreignKeys.png" width="11px" height="12px" preserveAspectRatio="xMinYMin meet" x="391" y="-643.2"/>
<text text-anchor="start" x="409" y="-633.3" font-family="Helvetica,sans-Serif" font-size="11.00" fill="#000000">staff_id</text>
<polygon fill="#ffffff" stroke="transparent" points="386,-604.2 386,-626.2 566,-626.2 566,-604.2 386,-604.2"/>
<polygon fill="none" stroke="#000000" points="386,-604.2 386,-626.2 566,-626.2 566,-604.2 386,-604.2"/>
<text text-anchor="start" x="409" y="-611.3" font-family="Helvetica,sans-Serif" font-size="11.00" fill="#000000">assigned_date_time</text>
<polygon fill="none" stroke="#000000" points="386,-582.2 386,-604.2 566,-604.2 566,-582.2 386,-582.2"/>
<text text-anchor="start" x="409" y="-589.3" font-family="Helvetica,sans-Serif" font-size="11.00" fill="#000000">active_flag</text>
<polygon fill="none" stroke="#000000" points="386,-560.2 386,-582.2 566,-582.2 566,-560.2 386,-560.2"/>
<text text-anchor="start" x="409" y="-567.3" font-family="Helvetica,sans-Serif" font-size="11.00" fill="#000000">alloc_reason</text>
<polygon fill="none" stroke="#000000" points="386,-538.2 386,-560.2 566,-560.2 566,-538.2 386,-538.2"/>
<text text-anchor="start" x="409" y="-545.3" font-family="Helvetica,sans-Serif" font-size="11.00" fill="#000000">alloc_type</text>
<polygon fill="none" stroke="#000000" points="386,-516.2 386,-538.2 566,-538.2 566,-516.2 386,-516.2"/>
<text text-anchor="start" x="409" y="-523.3" font-family="Helvetica,sans-Serif" font-size="11.00" fill="#000000">user_id</text>
<polygon fill="#ffffff" stroke="transparent" points="386,-494.2 386,-516.2 566,-516.2 566,-494.2 386,-494.2"/>
<polygon fill="none" stroke="#000000" points="386,-494.2 386,-516.2 566,-516.2 566,-494.2 386,-494.2"/>
<image xlink:href="../../images/foreignKeys.png" width="11px" height="12px" preserveAspectRatio="xMinYMin meet" x="391" y="-511.2"/>
<text text-anchor="start" x="409" y="-501.3" font-family="Helvetica,sans-Serif" font-size="11.00" fill="#000000">prison_id</text>
<polygon fill="none" stroke="#000000" points="386,-472.2 386,-494.2 566,-494.2 566,-472.2 386,-472.2"/>
<text text-anchor="start" x="409" y="-479.3" font-family="Helvetica,sans-Serif" font-size="11.00" fill="#000000">expiry_date_time</text>
<polygon fill="none" stroke="#000000" points="386,-450.2 386,-472.2 566,-472.2 566,-450.2 386,-450.2"/>
<text text-anchor="start" x="409" y="-457.3" font-family="Helvetica,sans-Serif" font-size="11.00" fill="#000000">dealloc_reason</text>
<polygon fill="none" stroke="#000000" points="386,-428.2 386,-450.2 566,-450.2 566,-428.2 386,-428.2"/>
<text text-anchor="start" x="409" y="-435.3" font-family="Helvetica,sans-Serif" font-size="11.00" fill="#000000">create_datetime</text>
<polygon fill="none" stroke="#000000" points="386,-406.2 386,-428.2 566,-428.2 566,-406.2 386,-406.2"/>
<text text-anchor="start" x="409" y="-413.3" font-family="Helvetica,sans-Serif" font-size="11.00" fill="#000000">create_user_id</text>
<polygon fill="none" stroke="#000000" points="386,-384.2 386,-406.2 566,-406.2 566,-384.2 386,-384.2"/>
<text text-anchor="start" x="409" y="-391.3" font-family="Helvetica,sans-Serif" font-size="11.00" fill="#000000">modify_datetime</text>
<polygon fill="none" stroke="#000000" points="386,-362.2 386,-384.2 566,-384.2 566,-362.2 386,-362.2"/>
<text text-anchor="start" x="409" y="-369.3" font-family="Helvetica,sans-Serif" font-size="11.00" fill="#000000">modify_user_id</text>
<polygon fill="#ffffff" stroke="transparent" points="386,-343.2 386,-362.2 470,-362.2 470,-343.2 386,-343.2"/>
<polygon fill="none" stroke="#000000" points="386,-343.2 386,-362.2 470,-362.2 470,-343.2 386,-343.2"/>
<text text-anchor="start" x="389" y="-349.3" font-family="Helvetica,sans-Serif" font-size="11.00" fill="#000000"> &#160;</text>
<polygon fill="#ffffff" stroke="transparent" points="470,-343.2 470,-362.2 518,-362.2 518,-343.2 470,-343.2"/>
<polygon fill="none" stroke="#000000" points="470,-343.2 470,-362.2 518,-362.2 518,-343.2 470,-343.2"/>
<text text-anchor="start" x="508.8862" y="-349.3" font-family="Helvetica,sans-Serif" font-size="11.00" fill="#000000"> &#160;</text>
<polygon fill="#ffffff" stroke="transparent" points="518,-343.2 518,-362.2 566,-362.2 566,-343.2 518,-343.2"/>
<polygon fill="none" stroke="#000000" points="518,-343.2 518,-362.2 566,-362.2 566,-343.2 518,-343.2"/>
<text text-anchor="start" x="556.8862" y="-349.3" font-family="Helvetica,sans-Serif" font-size="11.00" fill="#000000"> &#160;</text>
</a>
</g>
</g>
<!-- offender_key_worker&#45;&gt;prison_supported -->
<g id="edge2" class="edge">
<title>offender_key_worker:w&#45;&gt;prison_supported:e</title>
<path fill="none" stroke="#000000" stroke-dasharray="5,2" d="M371.75,-502.5283C328.0091,-483.1733 383.147,-365.2 320,-365.2"/>
<polygon fill="#000000" stroke="#000000" points="378.137,-503.7258 385.3366,-508.7383 382.0685,-504.4629 386,-505.2 386,-505.2 386,-505.2 382.0685,-504.4629 386.6634,-501.6617 378.137,-503.7258 378.137,-503.7258"/>
<ellipse fill="none" stroke="#000000" cx="374.9918" cy="-503.1361" rx="3.2" ry="3.2"/>
</g>
<!-- offender_key_worker&#45;&gt;key_worker -->
<g id="edge3" class="edge">
<title>offender_key_worker:w&#45;&gt;key_worker:e</title>
<path fill="none" stroke="#000000" stroke-dasharray="5,2" d="M371.4991,-637.2C319.1297,-637.2 300.875,-637.2 242,-637.2"/>
<polygon fill="#000000" stroke="#000000" points="378,-637.2001 386,-640.8 382,-637.2 386,-637.2 386,-637.2 386,-637.2 382,-637.2 386,-633.6 378,-637.2001 378,-637.2001"/>
<ellipse fill="none" stroke="#000000" cx="374.8" cy="-637.2001" rx="3.2" ry="3.2"/>
</g>
</g>
</svg>
