<?xml version="1.0" encoding="UTF-8" standalone="no"?>
<!DOCTYPE svg PUBLIC "-//W3C//DTD SVG 1.1//EN"
 "http://www.w3.org/Graphics/SVG/1.1/DTD/svg11.dtd">
<!-- Generated by graphviz version 2.40.1 (20161225.0304)
 -->
<!-- Title: compactRelationshipsDiagram Pages: 1 -->
<svg width="396pt" height="435pt"
 viewBox="0.00 0.00 396.00 435.20" xmlns="http://www.w3.org/2000/svg" xmlns:xlink="http://www.w3.org/1999/xlink">
<g id="graph0" class="graph" transform="scale(1 1) rotate(0) translate(4 431.2)">
<title>compactRelationshipsDiagram</title>
<polygon fill="#ffffff" stroke="transparent" points="-4,4 -4,-431.2 392,-431.2 392,4 -4,4"/>
<text text-anchor="middle" x="72.4936" y="-7.3" font-family="Helvetica,sans-Serif" font-size="11.00" fill="#000000">Generated by SchemaSpy</text>
<!-- key_worker -->
<g id="node1" class="node">
<title>key_worker</title>
<g id="a_node1"><a xlink:href="../../tables/key_worker.html" xlink:title="key_worker" target="_top">
<polygon fill="#ffffff" stroke="transparent" points="212,-318.2 212,-423.2 368,-423.2 368,-318.2 212,-318.2"/>
<polygon fill="#f5f5f5" stroke="transparent" points="212,-399.7 212,-422.7 368,-422.7 368,-399.7 212,-399.7"/>
<polygon fill="none" stroke="#000000" points="212,-399.7 212,-422.7 368,-422.7 368,-399.7 212,-399.7"/>
<text text-anchor="start" x="217" y="-408.3" font-family="Helvetica,sans-Serif" font-weight="bold" font-size="11.00" fill="#000000">key_worker</text>
<text text-anchor="start" x="333.0437" y="-407.8" font-family="Helvetica,sans-Serif" font-size="11.00" fill="#000000">[table]</text>
<polygon fill="none" stroke="#000000" points="212,-377.7 212,-399.7 368,-399.7 368,-377.7 212,-377.7"/>
<image xlink:href="../../images/primaryKeys.png" width="11px" height="12px" preserveAspectRatio="xMinYMin meet" x="217" y="-394.7"/>
<text text-anchor="start" x="232" y="-384.8" font-family="Helvetica,sans-Serif" font-size="11.00" fill="#000000">staff_id</text>
<polygon fill="none" stroke="#000000" points="212,-355.7 212,-377.7 368,-377.7 368,-355.7 212,-355.7"/>
<image xlink:href="../../images/foreignKeys.png" width="11px" height="12px" preserveAspectRatio="xMinYMin meet" x="217" y="-372.7"/>
<text text-anchor="start" x="232" y="-362.8" font-family="Helvetica,sans-Serif" font-size="11.00" fill="#000000">status_id</text>
<polygon fill="none" stroke="#000000" points="212,-336.7 212,-355.7 368,-355.7 368,-336.7 212,-336.7"/>
<text text-anchor="start" x="215" y="-342.8" font-family="Helvetica,sans-Serif" font-size="11.00" fill="#000000">...</text>
<polygon fill="#ffffff" stroke="transparent" points="212,-317.7 212,-336.7 288,-336.7 288,-317.7 212,-317.7"/>
<polygon fill="none" stroke="#000000" points="212,-317.7 212,-336.7 288,-336.7 288,-317.7 212,-317.7"/>
<text text-anchor="start" x="215" y="-323.8" font-family="Helvetica,sans-Serif" font-size="11.00" fill="#000000">&lt; 1</text>
<polygon fill="#ffffff" stroke="transparent" points="288,-317.7 288,-336.7 328,-336.7 328,-317.7 288,-317.7"/>
<polygon fill="none" stroke="#000000" points="288,-317.7 288,-336.7 328,-336.7 328,-317.7 288,-317.7"/>
<text text-anchor="start" x="318.8862" y="-323.8" font-family="Helvetica,sans-Serif" font-size="11.00" fill="#000000"> &#160;</text>
<polygon fill="#ffffff" stroke="transparent" points="328,-317.7 328,-336.7 368,-336.7 368,-317.7 328,-317.7"/>
<polygon fill="none" stroke="#000000" points="328,-317.7 328,-336.7 368,-336.7 368,-317.7 328,-317.7"/>
<text text-anchor="start" x="358.8862" y="-323.8" font-family="Helvetica,sans-Serif" font-size="11.00" fill="#000000"> &#160;</text>
</a>
</g>
</g>
<!-- reference_data -->
<g id="node3" class="node">
<title>reference_data</title>
<g id="a_node3"><a xlink:href="../../tables/reference_data.html" xlink:title="reference_data" target="_top">
<polygon fill="#ffffff" stroke="transparent" points="8,-38.2 8,-187.2 151,-187.2 151,-38.2 8,-38.2"/>
<polygon fill="#f5f5f5" stroke="transparent" points="8.5,-163.7 8.5,-186.7 151.5,-186.7 151.5,-163.7 8.5,-163.7"/>
<polygon fill="none" stroke="#000000" points="8.5,-163.7 8.5,-186.7 151.5,-186.7 151.5,-163.7 8.5,-163.7"/>
<text text-anchor="start" x="13.5" y="-172.3" font-family="Helvetica,sans-Serif" font-weight="bold" font-size="11.00" fill="#000000">reference_data</text>
<text text-anchor="start" x="116.5437" y="-171.8" font-family="Helvetica,sans-Serif" font-size="11.00" fill="#000000">[table]</text>
<polygon fill="none" stroke="#000000" points="8.5,-141.7 8.5,-163.7 151.5,-163.7 151.5,-141.7 8.5,-141.7"/>
<image xlink:href="../../images/primaryKeys.png" width="11px" height="12px" preserveAspectRatio="xMinYMin meet" x="13.5" y="-158.7"/>
<text text-anchor="start" x="28.5" y="-148.8" font-family="Helvetica,sans-Serif" font-size="11.00" fill="#000000">id</text>
<polygon fill="#ffffff" stroke="transparent" points="8.5,-119.7 8.5,-141.7 151.5,-141.7 151.5,-119.7 8.5,-119.7"/>
<polygon fill="none" stroke="#000000" points="8.5,-119.7 8.5,-141.7 151.5,-141.7 151.5,-119.7 8.5,-119.7"/>
<text text-anchor="start" x="28.5" y="-126.8" font-family="Helvetica,sans-Serif" font-size="11.00" fill="#000000">domain</text>
<polygon fill="#ffffff" stroke="transparent" points="8.5,-97.7 8.5,-119.7 151.5,-119.7 151.5,-97.7 8.5,-97.7"/>
<polygon fill="none" stroke="#000000" points="8.5,-97.7 8.5,-119.7 151.5,-119.7 151.5,-97.7 8.5,-97.7"/>
<text text-anchor="start" x="28.5" y="-104.8" font-family="Helvetica,sans-Serif" font-size="11.00" fill="#000000">code</text>
<polygon fill="#ffffff" stroke="transparent" points="8.5,-75.7 8.5,-97.7 151.5,-97.7 151.5,-75.7 8.5,-75.7"/>
<polygon fill="none" stroke="#000000" points="8.5,-75.7 8.5,-97.7 151.5,-97.7 151.5,-75.7 8.5,-75.7"/>
<text text-anchor="start" x="28.5" y="-82.8" font-family="Helvetica,sans-Serif" font-size="11.00" fill="#000000">sequence_number</text>
<polygon fill="none" stroke="#000000" points="8.5,-56.7 8.5,-75.7 151.5,-75.7 151.5,-56.7 8.5,-56.7"/>
<text text-anchor="start" x="11.5" y="-62.8" font-family="Helvetica,sans-Serif" font-size="11.00" fill="#000000">...</text>
<polygon fill="#ffffff" stroke="transparent" points="8.5,-37.7 8.5,-56.7 69.5,-56.7 69.5,-37.7 8.5,-37.7"/>
<polygon fill="none" stroke="#000000" points="8.5,-37.7 8.5,-56.7 69.5,-56.7 69.5,-37.7 8.5,-37.7"/>
<text text-anchor="start" x="11.5" y="-43.8" font-family="Helvetica,sans-Serif" font-size="11.00" fill="#000000"> &#160;</text>
<polygon fill="#ffffff" stroke="transparent" points="69.5,-37.7 69.5,-56.7 105.5,-56.7 105.5,-37.7 69.5,-37.7"/>
<polygon fill="none" stroke="#000000" points="69.5,-37.7 69.5,-56.7 105.5,-56.7 105.5,-37.7 69.5,-37.7"/>
<text text-anchor="start" x="96.3862" y="-43.8" font-family="Helvetica,sans-Serif" font-size="11.00" fill="#000000"> &#160;</text>
<polygon fill="#ffffff" stroke="transparent" points="105.5,-37.7 105.5,-56.7 151.5,-56.7 151.5,-37.7 105.5,-37.7"/>
<polygon fill="none" stroke="#000000" points="105.5,-37.7 105.5,-56.7 151.5,-56.7 151.5,-37.7 105.5,-37.7"/>
<text text-anchor="start" x="132.9053" y="-43.8" font-family="Helvetica,sans-Serif" font-size="11.00" fill="#000000">3 &gt;</text>
</a>
</g>
</g>
<!-- key_worker&#45;&gt;reference_data -->
<g id="edge1" class="edge">
<title>key_worker:w&#45;&gt;reference_data:e</title>
<path fill="none" stroke="#000000" d="M197.3909,-364.7181C127.9436,-343.1444 244.7406,-152.7 151.5,-152.7"/>
<polygon fill="#000000" stroke="#000000" points="204.0726,-365.6245 211.516,-370.2673 208.0363,-366.1623 212,-366.7 212,-366.7 212,-366.7 208.0363,-366.1623 212.484,-363.1327 204.0726,-365.6245 204.0726,-365.6245"/>
<ellipse fill="none" stroke="#000000" cx="200.9017" cy="-365.1943" rx="3.2" ry="3.2"/>
</g>
<!-- offender_key_worker -->
<g id="node2" class="node">
<title>offender_key_worker</title>
<g id="a_node2"><a xlink:href="../../tables/offender_key_worker.html" xlink:title="offender_key_worker" target="_top">
<polygon fill="#ffffff" stroke="transparent" points="200,-82.2 200,-297.2 380,-297.2 380,-82.2 200,-82.2"/>
<polygon fill="#f5f5f5" stroke="transparent" points="200,-273.7 200,-296.7 380,-296.7 380,-273.7 200,-273.7"/>
<polygon fill="none" stroke="#000000" points="200,-273.7 200,-296.7 380,-296.7 380,-273.7 200,-273.7"/>
<text text-anchor="start" x="205" y="-282.3" font-family="Helvetica,sans-Serif" font-weight="bold" font-size="11.00" fill="#000000">offender_key_worker</text>
<text text-anchor="start" x="345.5219" y="-281.8" font-family="Helvetica,sans-Serif" font-size="11.00" fill="#000000">[table]</text>
<polygon fill="none" stroke="#000000" points="200,-251.7 200,-273.7 380,-273.7 380,-251.7 200,-251.7"/>
<image xlink:href="../../images/primaryKeys.png" width="11px" height="12px" preserveAspectRatio="xMinYMin meet" x="205" y="-268.7"/>
<text text-anchor="start" x="223" y="-258.8" font-family="Helvetica,sans-Serif" font-size="11.00" fill="#000000">offender_keyworker_id</text>
<polygon fill="#ffffff" stroke="transparent" points="200,-229.7 200,-251.7 380,-251.7 380,-229.7 200,-229.7"/>
<polygon fill="none" stroke="#000000" points="200,-229.7 200,-251.7 380,-251.7 380,-229.7 200,-229.7"/>
<text text-anchor="start" x="223" y="-236.8" font-family="Helvetica,sans-Serif" font-size="11.00" fill="#000000">offender_no</text>
<polygon fill="#ffffff" stroke="transparent" points="200,-207.7 200,-229.7 380,-229.7 380,-207.7 200,-207.7"/>
<polygon fill="none" stroke="#000000" points="200,-207.7 200,-229.7 380,-229.7 380,-207.7 200,-207.7"/>
<text text-anchor="start" x="223" y="-214.8" font-family="Helvetica,sans-Serif" font-size="11.00" fill="#000000">staff_id</text>
<polygon fill="#ffffff" stroke="transparent" points="200,-185.7 200,-207.7 380,-207.7 380,-185.7 200,-185.7"/>
<polygon fill="none" stroke="#000000" points="200,-185.7 200,-207.7 380,-207.7 380,-185.7 200,-185.7"/>
<text text-anchor="start" x="223" y="-192.8" font-family="Helvetica,sans-Serif" font-size="11.00" fill="#000000">assigned_date_time</text>
<polygon fill="#ffffff" stroke="transparent" points="200,-163.7 200,-185.7 380,-185.7 380,-163.7 200,-163.7"/>
<polygon fill="none" stroke="#000000" points="200,-163.7 200,-185.7 380,-185.7 380,-163.7 200,-163.7"/>
<image xlink:href="../../images/foreignKeys.png" width="11px" height="12px" preserveAspectRatio="xMinYMin meet" x="205" y="-180.7"/>
<text text-anchor="start" x="223" y="-170.8" font-family="Helvetica,sans-Serif" font-size="11.00" fill="#000000">prison_id</text>
<polygon fill="none" stroke="#000000" points="200,-141.7 200,-163.7 380,-163.7 380,-141.7 200,-141.7"/>
<image xlink:href="../../images/foreignKeys.png" width="11px" height="12px" preserveAspectRatio="xMinYMin meet" x="205" y="-158.7"/>
<text text-anchor="start" x="223" y="-148.8" font-family="Helvetica,sans-Serif" font-size="11.00" fill="#000000">allocation_reason_id</text>
<polygon fill="none" stroke="#000000" points="200,-119.7 200,-141.7 380,-141.7 380,-119.7 200,-119.7"/>
<image xlink:href="../../images/foreignKeys.png" width="11px" height="12px" preserveAspectRatio="xMinYMin meet" x="205" y="-136.7"/>
<text text-anchor="start" x="223" y="-126.8" font-family="Helvetica,sans-Serif" font-size="11.00" fill="#000000">deallocation_reason_id</text>
<polygon fill="none" stroke="#000000" points="200,-100.7 200,-119.7 380,-119.7 380,-100.7 200,-100.7"/>
<text text-anchor="start" x="203" y="-106.8" font-family="Helvetica,sans-Serif" font-size="11.00" fill="#000000">...</text>
<polygon fill="#ffffff" stroke="transparent" points="200,-81.7 200,-100.7 288,-100.7 288,-81.7 200,-81.7"/>
<polygon fill="none" stroke="#000000" points="200,-81.7 200,-100.7 288,-100.7 288,-81.7 200,-81.7"/>
<text text-anchor="start" x="203" y="-87.8" font-family="Helvetica,sans-Serif" font-size="11.00" fill="#000000">&lt; 2</text>
<polygon fill="#ffffff" stroke="transparent" points="288,-81.7 288,-100.7 334,-100.7 334,-81.7 288,-81.7"/>
<polygon fill="none" stroke="#000000" points="288,-81.7 288,-100.7 334,-100.7 334,-81.7 288,-81.7"/>
<text text-anchor="start" x="324.8862" y="-87.8" font-family="Helvetica,sans-Serif" font-size="11.00" fill="#000000"> &#160;</text>
<polygon fill="#ffffff" stroke="transparent" points="334,-81.7 334,-100.7 380,-100.7 380,-81.7 334,-81.7"/>
<polygon fill="none" stroke="#000000" points="334,-81.7 334,-100.7 380,-100.7 380,-81.7 334,-81.7"/>
<text text-anchor="start" x="370.8862" y="-87.8" font-family="Helvetica,sans-Serif" font-size="11.00" fill="#000000"> &#160;</text>
</a>
</g>
</g>
<!-- offender_key_worker&#45;&gt;reference_data -->
<g id="edge2" class="edge">
<title>offender_key_worker:w&#45;&gt;reference_data:e</title>
<path fill="none" stroke="#000000" d="M185.2829,-152.7C174.2886,-152.7 167.1615,-152.7 151.5,-152.7"/>
<polygon fill="#000000" stroke="#000000" points="192,-152.7001 200,-156.3 196,-152.7 200,-152.7 200,-152.7 200,-152.7 196,-152.7 200,-149.1 192,-152.7001 192,-152.7001"/>
<ellipse fill="none" stroke="#000000" cx="188.8" cy="-152.7001" rx="3.2" ry="3.2"/>
</g>
<!-- offender_key_worker&#45;&gt;reference_data -->
<g id="edge3" class="edge">
<title>offender_key_worker:w&#45;&gt;reference_data:e</title>
<path fill="none" stroke="#000000" d="M185.7648,-134.1375C174.3432,-140.325 169.2522,-152.7 151.5,-152.7"/>
<polygon fill="#000000" stroke="#000000" points="192.2235,-132.5779 200.8451,-134.1994 196.1118,-131.6389 200,-130.7 200,-130.7 200,-130.7 196.1118,-131.6389 199.1549,-127.2006 192.2235,-132.5779 192.2235,-132.5779"/>
<ellipse fill="none" stroke="#000000" cx="189.1129" cy="-133.3291" rx="3.2" ry="3.2"/>
</g>
</g>
</svg>
