<?xml version="1.0" encoding="UTF-8" standalone="no"?>
<!DOCTYPE svg PUBLIC "-//W3C//DTD SVG 1.1//EN"
 "http://www.w3.org/Graphics/SVG/1.1/DTD/svg11.dtd">
<!-- Generated by graphviz version 2.40.1 (20161225.0304)
 -->
<!-- Title: largeRelationshipsDiagram Pages: 1 -->
<svg width="464pt" height="900pt"
 viewBox="0.00 0.00 464.00 900.20" xmlns="http://www.w3.org/2000/svg" xmlns:xlink="http://www.w3.org/1999/xlink">
<g id="graph0" class="graph" transform="scale(1 1) rotate(0) translate(4 896.2)">
<title>largeRelationshipsDiagram</title>
<polygon fill="#ffffff" stroke="transparent" points="-4,4 -4,-896.2 460,-896.2 460,4 -4,4"/>
<text text-anchor="middle" x="72.4936" y="-7.3" font-family="Helvetica,sans-Serif" font-size="11.00" fill="#000000">Generated by SchemaSpy</text>
<!-- keyworker_configuration_audit -->
<g id="node1" class="node">
<title>keyworker_configuration_audit</title>
<g id="a_node1"><a xlink:href="../../tables/keyworker_configuration_audit.html" xlink:title="keyworker_configuration_audit" target="_top">
<polygon fill="#ffffff" stroke="transparent" points="200,-38.2 200,-322.2 448,-322.2 448,-38.2 200,-38.2"/>
<polygon fill="#f5f5f5" stroke="transparent" points="200,-299.2 200,-322.2 448,-322.2 448,-299.2 200,-299.2"/>
<polygon fill="none" stroke="#000000" points="200,-299.2 200,-322.2 448,-322.2 448,-299.2 200,-299.2"/>
<text text-anchor="start" x="205" y="-307.8" font-family="Helvetica,sans-Serif" font-weight="bold" font-size="11.00" fill="#000000">keyworker_configuration_audit</text>
<text text-anchor="start" x="413.5219" y="-307.3" font-family="Helvetica,sans-Serif" font-size="11.00" fill="#000000">[table]</text>
<polygon fill="none" stroke="#000000" points="200,-277.2 200,-299.2 448,-299.2 448,-277.2 200,-277.2"/>
<image xlink:href="../../images/primaryKeys.png" width="11px" height="12px" preserveAspectRatio="xMinYMin meet" x="205" y="-294.2"/>
<text text-anchor="start" x="229" y="-284.3" font-family="Helvetica,sans-Serif" font-size="11.00" fill="#000000">rev_id</text>
<polygon fill="none" stroke="#000000" points="200,-255.2 200,-277.2 448,-277.2 448,-255.2 200,-255.2"/>
<text text-anchor="start" x="229" y="-262.3" font-family="Helvetica,sans-Serif" font-size="11.00" fill="#000000">rev_type</text>
<polygon fill="none" stroke="#000000" points="200,-233.2 200,-255.2 448,-255.2 448,-233.2 200,-233.2"/>
<image xlink:href="../../images/primaryKeys.png" width="11px" height="12px" preserveAspectRatio="xMinYMin meet" x="205" y="-250.2"/>
<text text-anchor="start" x="229" y="-240.3" font-family="Helvetica,sans-Serif" font-size="11.00" fill="#000000">staff_id</text>
<polygon fill="none" stroke="#000000" points="200,-211.2 200,-233.2 448,-233.2 448,-211.2 200,-211.2"/>
<text text-anchor="start" x="229" y="-218.3" font-family="Helvetica,sans-Serif" font-size="11.00" fill="#000000">capacity</text>
<polygon fill="none" stroke="#000000" points="200,-189.2 200,-211.2 448,-211.2 448,-189.2 200,-189.2"/>
<text text-anchor="start" x="229" y="-196.3" font-family="Helvetica,sans-Serif" font-size="11.00" fill="#000000">reactivate_on</text>
<polygon fill="none" stroke="#000000" points="200,-167.2 200,-189.2 448,-189.2 448,-167.2 200,-167.2"/>
<text text-anchor="start" x="229" y="-174.3" font-family="Helvetica,sans-Serif" font-size="11.00" fill="#000000">status_id</text>
<polygon fill="none" stroke="#000000" points="200,-145.2 200,-167.2 448,-167.2 448,-145.2 200,-145.2"/>
<text text-anchor="start" x="229" y="-152.3" font-family="Helvetica,sans-Serif" font-size="11.00" fill="#000000">allow_auto_allocation</text>
<polygon fill="none" stroke="#000000" points="200,-123.2 200,-145.2 448,-145.2 448,-123.2 200,-123.2"/>
<text text-anchor="start" x="229" y="-130.3" font-family="Helvetica,sans-Serif" font-size="11.00" fill="#000000">capacity_modified</text>
<polygon fill="none" stroke="#000000" points="200,-101.2 200,-123.2 448,-123.2 448,-101.2 200,-101.2"/>
<text text-anchor="start" x="229" y="-108.3" font-family="Helvetica,sans-Serif" font-size="11.00" fill="#000000">reactivate_on_modified</text>
<polygon fill="none" stroke="#000000" points="200,-79.2 200,-101.2 448,-101.2 448,-79.2 200,-79.2"/>
<text text-anchor="start" x="229" y="-86.3" font-family="Helvetica,sans-Serif" font-size="11.00" fill="#000000">status_modified</text>
<polygon fill="none" stroke="#000000" points="200,-57.2 200,-79.2 448,-79.2 448,-57.2 200,-57.2"/>
<text text-anchor="start" x="229" y="-64.3" font-family="Helvetica,sans-Serif" font-size="11.00" fill="#000000">allow_auto_allocation_modified</text>
<polygon fill="#ffffff" stroke="transparent" points="200,-38.2 200,-57.2 322,-57.2 322,-38.2 200,-38.2"/>
<polygon fill="none" stroke="#000000" points="200,-38.2 200,-57.2 322,-57.2 322,-38.2 200,-38.2"/>
<text text-anchor="start" x="203" y="-44.3" font-family="Helvetica,sans-Serif" font-size="11.00" fill="#000000">&lt; 1</text>
<polygon fill="#ffffff" stroke="transparent" points="322,-38.2 322,-57.2 385,-57.2 385,-38.2 322,-38.2"/>
<polygon fill="none" stroke="#000000" points="322,-38.2 322,-57.2 385,-57.2 385,-38.2 322,-38.2"/>
<text text-anchor="start" x="375.8862" y="-44.3" font-family="Helvetica,sans-Serif" font-size="11.00" fill="#000000"> &#160;</text>
<polygon fill="#ffffff" stroke="transparent" points="385,-38.2 385,-57.2 448,-57.2 448,-38.2 385,-38.2"/>
<polygon fill="none" stroke="#000000" points="385,-38.2 385,-57.2 448,-57.2 448,-38.2 385,-38.2"/>
<text text-anchor="start" x="438.8862" y="-44.3" font-family="Helvetica,sans-Serif" font-size="11.00" fill="#000000"> &#160;</text>
</a>
</g>
</g>
<!-- audit_revision -->
<g id="node3" class="node">
<title>audit_revision</title>
<g id="a_node3"><a xlink:href="../../tables/audit_revision.html" xlink:title="audit_revision" target="_top">
<polygon fill="#ffffff" stroke="transparent" points="12.5,-170.2 12.5,-322.2 146.5,-322.2 146.5,-170.2 12.5,-170.2"/>
<polygon fill="#f5f5f5" stroke="transparent" points="12.5,-299.2 12.5,-322.2 146.5,-322.2 146.5,-299.2 12.5,-299.2"/>
<polygon fill="none" stroke="#000000" points="12.5,-299.2 12.5,-322.2 146.5,-322.2 146.5,-299.2 12.5,-299.2"/>
<text text-anchor="start" x="17.5" y="-307.8" font-family="Helvetica,sans-Serif" font-weight="bold" font-size="11.00" fill="#000000">audit_revision</text>
<text text-anchor="start" x="112.0219" y="-307.3" font-family="Helvetica,sans-Serif" font-size="11.00" fill="#000000">[table]</text>
<polygon fill="none" stroke="#000000" points="12.5,-277.2 12.5,-299.2 146.5,-299.2 146.5,-277.2 12.5,-277.2"/>
<image xlink:href="../../images/primaryKeys.png" width="11px" height="12px" preserveAspectRatio="xMinYMin meet" x="17.5" y="-294.2"/>
<text text-anchor="start" x="32.5" y="-284.3" font-family="Helvetica,sans-Serif" font-size="11.00" fill="#000000">id</text>
<polygon fill="none" stroke="#000000" points="12.5,-255.2 12.5,-277.2 146.5,-277.2 146.5,-255.2 12.5,-255.2"/>
<text text-anchor="start" x="32.5" y="-262.3" font-family="Helvetica,sans-Serif" font-size="11.00" fill="#000000">timestamp</text>
<polygon fill="none" stroke="#000000" points="12.5,-233.2 12.5,-255.2 146.5,-255.2 146.5,-233.2 12.5,-233.2"/>
<text text-anchor="start" x="32.5" y="-240.3" font-family="Helvetica,sans-Serif" font-size="11.00" fill="#000000">username</text>
<polygon fill="none" stroke="#000000" points="12.5,-211.2 12.5,-233.2 146.5,-233.2 146.5,-211.2 12.5,-211.2"/>
<text text-anchor="start" x="32.5" y="-218.3" font-family="Helvetica,sans-Serif" font-size="11.00" fill="#000000">caseload_id</text>
<polygon fill="none" stroke="#000000" points="12.5,-189.2 12.5,-211.2 146.5,-211.2 146.5,-189.2 12.5,-189.2"/>
<text text-anchor="start" x="32.5" y="-196.3" font-family="Helvetica,sans-Serif" font-size="11.00" fill="#000000">affected_entities</text>
<polygon fill="#ffffff" stroke="transparent" points="12.5,-170.2 12.5,-189.2 68.5,-189.2 68.5,-170.2 12.5,-170.2"/>
<polygon fill="none" stroke="#000000" points="12.5,-170.2 12.5,-189.2 68.5,-189.2 68.5,-170.2 12.5,-170.2"/>
<text text-anchor="start" x="15.5" y="-176.3" font-family="Helvetica,sans-Serif" font-size="11.00" fill="#000000"> &#160;</text>
<polygon fill="#ffffff" stroke="transparent" points="68.5,-170.2 68.5,-189.2 102.5,-189.2 102.5,-170.2 68.5,-170.2"/>
<polygon fill="none" stroke="#000000" points="68.5,-170.2 68.5,-189.2 102.5,-189.2 102.5,-170.2 68.5,-170.2"/>
<text text-anchor="start" x="93.3862" y="-176.3" font-family="Helvetica,sans-Serif" font-size="11.00" fill="#000000"> &#160;</text>
<polygon fill="#ffffff" stroke="transparent" points="102.5,-170.2 102.5,-189.2 146.5,-189.2 146.5,-170.2 102.5,-170.2"/>
<polygon fill="none" stroke="#000000" points="102.5,-170.2 102.5,-189.2 146.5,-189.2 146.5,-170.2 102.5,-170.2"/>
<text text-anchor="start" x="127.9053" y="-176.3" font-family="Helvetica,sans-Serif" font-size="11.00" fill="#000000">1 &gt;</text>
</a>
</g>
</g>
<!-- keyworker_configuration_audit&#45;&gt;audit_revision -->
<g id="edge2" class="edge">
<title>keyworker_configuration_audit:w&#45;&gt;audit_revision:e</title>
<path fill="none" stroke="#000000" d="M185.3553,-288.2C172.2969,-288.2 164.5191,-288.2 146.5,-288.2"/>
<polygon fill="#000000" stroke="#000000" points="192,-288.2001 200,-291.8 196,-288.2 200,-288.2 200,-288.2 200,-288.2 196,-288.2 200,-284.6 192,-288.2001 192,-288.2001"/>
<ellipse fill="none" stroke="#000000" cx="188.8" cy="-288.2001" rx="3.2" ry="3.2"/>
</g>
<!-- offender_key_worker -->
<g id="node2" class="node">
<title>offender_key_worker</title>
<g id="a_node2"><a xlink:href="../../tables/offender_key_worker.html" xlink:title="offender_key_worker" target="_top">
<polygon fill="#ffffff" stroke="transparent" points="234,-516.2 234,-888.2 414,-888.2 414,-516.2 234,-516.2"/>
<polygon fill="#f5f5f5" stroke="transparent" points="234,-865.2 234,-888.2 414,-888.2 414,-865.2 234,-865.2"/>
<polygon fill="none" stroke="#000000" points="234,-865.2 234,-888.2 414,-888.2 414,-865.2 234,-865.2"/>
<text text-anchor="start" x="239" y="-873.8" font-family="Helvetica,sans-Serif" font-weight="bold" font-size="11.00" fill="#000000">offender_key_worker</text>
<text text-anchor="start" x="379.5219" y="-873.3" font-family="Helvetica,sans-Serif" font-size="11.00" fill="#000000">[table]</text>
<polygon fill="none" stroke="#000000" points="234,-843.2 234,-865.2 414,-865.2 414,-843.2 234,-843.2"/>
<image xlink:href="../../images/primaryKeys.png" width="11px" height="12px" preserveAspectRatio="xMinYMin meet" x="239" y="-860.2"/>
<text text-anchor="start" x="257" y="-850.3" font-family="Helvetica,sans-Serif" font-size="11.00" fill="#000000">offender_keyworker_id</text>
<polygon fill="#ffffff" stroke="transparent" points="234,-821.2 234,-843.2 414,-843.2 414,-821.2 234,-821.2"/>
<polygon fill="none" stroke="#000000" points="234,-821.2 234,-843.2 414,-843.2 414,-821.2 234,-821.2"/>
<text text-anchor="start" x="257" y="-828.3" font-family="Helvetica,sans-Serif" font-size="11.00" fill="#000000">offender_no</text>
<polygon fill="#ffffff" stroke="transparent" points="234,-799.2 234,-821.2 414,-821.2 414,-799.2 234,-799.2"/>
<polygon fill="none" stroke="#000000" points="234,-799.2 234,-821.2 414,-821.2 414,-799.2 234,-799.2"/>
<text text-anchor="start" x="257" y="-806.3" font-family="Helvetica,sans-Serif" font-size="11.00" fill="#000000">staff_id</text>
<polygon fill="#ffffff" stroke="transparent" points="234,-777.2 234,-799.2 414,-799.2 414,-777.2 234,-777.2"/>
<polygon fill="none" stroke="#000000" points="234,-777.2 234,-799.2 414,-799.2 414,-777.2 234,-777.2"/>
<text text-anchor="start" x="257" y="-784.3" font-family="Helvetica,sans-Serif" font-size="11.00" fill="#000000">assigned_date_time</text>
<polygon fill="none" stroke="#000000" points="234,-755.2 234,-777.2 414,-777.2 414,-755.2 234,-755.2"/>
<text text-anchor="start" x="257" y="-762.3" font-family="Helvetica,sans-Serif" font-size="11.00" fill="#000000">active_flag</text>
<polygon fill="none" stroke="#000000" points="234,-733.2 234,-755.2 414,-755.2 414,-733.2 234,-733.2"/>
<text text-anchor="start" x="257" y="-740.3" font-family="Helvetica,sans-Serif" font-size="11.00" fill="#000000">alloc_type</text>
<polygon fill="none" stroke="#000000" points="234,-711.2 234,-733.2 414,-733.2 414,-711.2 234,-711.2"/>
<text text-anchor="start" x="257" y="-718.3" font-family="Helvetica,sans-Serif" font-size="11.00" fill="#000000">user_id</text>
<polygon fill="#ffffff" stroke="transparent" points="234,-689.2 234,-711.2 414,-711.2 414,-689.2 234,-689.2"/>
<polygon fill="none" stroke="#000000" points="234,-689.2 234,-711.2 414,-711.2 414,-689.2 234,-689.2"/>
<image xlink:href="../../images/foreignKeys.png" width="11px" height="12px" preserveAspectRatio="xMinYMin meet" x="239" y="-706.2"/>
<text text-anchor="start" x="257" y="-696.3" font-family="Helvetica,sans-Serif" font-size="11.00" fill="#000000">prison_id</text>
<polygon fill="none" stroke="#000000" points="234,-667.2 234,-689.2 414,-689.2 414,-667.2 234,-667.2"/>
<text text-anchor="start" x="257" y="-674.3" font-family="Helvetica,sans-Serif" font-size="11.00" fill="#000000">expiry_date_time</text>
<polygon fill="none" stroke="#000000" points="234,-645.2 234,-667.2 414,-667.2 414,-645.2 234,-645.2"/>
<text text-anchor="start" x="257" y="-652.3" font-family="Helvetica,sans-Serif" font-size="11.00" fill="#000000">create_datetime</text>
<polygon fill="none" stroke="#000000" points="234,-623.2 234,-645.2 414,-645.2 414,-623.2 234,-623.2"/>
<text text-anchor="start" x="257" y="-630.3" font-family="Helvetica,sans-Serif" font-size="11.00" fill="#000000">create_user_id</text>
<polygon fill="none" stroke="#000000" points="234,-601.2 234,-623.2 414,-623.2 414,-601.2 234,-601.2"/>
<text text-anchor="start" x="257" y="-608.3" font-family="Helvetica,sans-Serif" font-size="11.00" fill="#000000">modify_datetime</text>
<polygon fill="none" stroke="#000000" points="234,-579.2 234,-601.2 414,-601.2 414,-579.2 234,-579.2"/>
<text text-anchor="start" x="257" y="-586.3" font-family="Helvetica,sans-Serif" font-size="11.00" fill="#000000">modify_user_id</text>
<polygon fill="none" stroke="#000000" points="234,-557.2 234,-579.2 414,-579.2 414,-557.2 234,-557.2"/>
<image xlink:href="../../images/foreignKeys.png" width="11px" height="12px" preserveAspectRatio="xMinYMin meet" x="239" y="-574.2"/>
<text text-anchor="start" x="257" y="-564.3" font-family="Helvetica,sans-Serif" font-size="11.00" fill="#000000">allocation_reason_id</text>
<polygon fill="none" stroke="#000000" points="234,-535.2 234,-557.2 414,-557.2 414,-535.2 234,-535.2"/>
<image xlink:href="../../images/foreignKeys.png" width="11px" height="12px" preserveAspectRatio="xMinYMin meet" x="239" y="-552.2"/>
<text text-anchor="start" x="257" y="-542.3" font-family="Helvetica,sans-Serif" font-size="11.00" fill="#000000">deallocation_reason_id</text>
<polygon fill="#ffffff" stroke="transparent" points="234,-516.2 234,-535.2 322,-535.2 322,-516.2 234,-516.2"/>
<polygon fill="none" stroke="#000000" points="234,-516.2 234,-535.2 322,-535.2 322,-516.2 234,-516.2"/>
<text text-anchor="start" x="237" y="-522.3" font-family="Helvetica,sans-Serif" font-size="11.00" fill="#000000">&lt; 2</text>
<polygon fill="#ffffff" stroke="transparent" points="322,-516.2 322,-535.2 368,-535.2 368,-516.2 322,-516.2"/>
<polygon fill="none" stroke="#000000" points="322,-516.2 322,-535.2 368,-535.2 368,-516.2 322,-516.2"/>
<text text-anchor="start" x="358.8862" y="-522.3" font-family="Helvetica,sans-Serif" font-size="11.00" fill="#000000"> &#160;</text>
<polygon fill="#ffffff" stroke="transparent" points="368,-516.2 368,-535.2 414,-535.2 414,-516.2 368,-516.2"/>
<polygon fill="none" stroke="#000000" points="368,-516.2 368,-535.2 414,-535.2 414,-516.2 368,-516.2"/>
<text text-anchor="start" x="404.8862" y="-522.3" font-family="Helvetica,sans-Serif" font-size="11.00" fill="#000000"> &#160;</text>
</a>
</g>
</g>
<!-- reference_data -->
<g id="node5" class="node">
<title>reference_data</title>
<g id="a_node5"><a xlink:href="../../tables/reference_data.html" xlink:title="reference_data" target="_top">
<polygon fill="#ffffff" stroke="transparent" points="8,-428.2 8,-580.2 151,-580.2 151,-428.2 8,-428.2"/>
<polygon fill="#f5f5f5" stroke="transparent" points="8.5,-557.2 8.5,-580.2 151.5,-580.2 151.5,-557.2 8.5,-557.2"/>
<polygon fill="none" stroke="#000000" points="8.5,-557.2 8.5,-580.2 151.5,-580.2 151.5,-557.2 8.5,-557.2"/>
<text text-anchor="start" x="13.5" y="-565.8" font-family="Helvetica,sans-Serif" font-weight="bold" font-size="11.00" fill="#000000">reference_data</text>
<text text-anchor="start" x="116.5437" y="-565.3" font-family="Helvetica,sans-Serif" font-size="11.00" fill="#000000">[table]</text>
<polygon fill="none" stroke="#000000" points="8.5,-535.2 8.5,-557.2 151.5,-557.2 151.5,-535.2 8.5,-535.2"/>
<image xlink:href="../../images/primaryKeys.png" width="11px" height="12px" preserveAspectRatio="xMinYMin meet" x="13.5" y="-552.2"/>
<text text-anchor="start" x="28.5" y="-542.3" font-family="Helvetica,sans-Serif" font-size="11.00" fill="#000000">id</text>
<polygon fill="#ffffff" stroke="transparent" points="8.5,-513.2 8.5,-535.2 151.5,-535.2 151.5,-513.2 8.5,-513.2"/>
<polygon fill="none" stroke="#000000" points="8.5,-513.2 8.5,-535.2 151.5,-535.2 151.5,-513.2 8.5,-513.2"/>
<text text-anchor="start" x="28.5" y="-520.3" font-family="Helvetica,sans-Serif" font-size="11.00" fill="#000000">domain</text>
<polygon fill="#ffffff" stroke="transparent" points="8.5,-491.2 8.5,-513.2 151.5,-513.2 151.5,-491.2 8.5,-491.2"/>
<polygon fill="none" stroke="#000000" points="8.5,-491.2 8.5,-513.2 151.5,-513.2 151.5,-491.2 8.5,-491.2"/>
<text text-anchor="start" x="28.5" y="-498.3" font-family="Helvetica,sans-Serif" font-size="11.00" fill="#000000">code</text>
<polygon fill="none" stroke="#000000" points="8.5,-469.2 8.5,-491.2 151.5,-491.2 151.5,-469.2 8.5,-469.2"/>
<text text-anchor="start" x="28.5" y="-476.3" font-family="Helvetica,sans-Serif" font-size="11.00" fill="#000000">description</text>
<polygon fill="#ffffff" stroke="transparent" points="8.5,-447.2 8.5,-469.2 151.5,-469.2 151.5,-447.2 8.5,-447.2"/>
<polygon fill="none" stroke="#000000" points="8.5,-447.2 8.5,-469.2 151.5,-469.2 151.5,-447.2 8.5,-447.2"/>
<text text-anchor="start" x="28.5" y="-454.3" font-family="Helvetica,sans-Serif" font-size="11.00" fill="#000000">sequence_number</text>
<polygon fill="#ffffff" stroke="transparent" points="8.5,-428.2 8.5,-447.2 69.5,-447.2 69.5,-428.2 8.5,-428.2"/>
<polygon fill="none" stroke="#000000" points="8.5,-428.2 8.5,-447.2 69.5,-447.2 69.5,-428.2 8.5,-428.2"/>
<text text-anchor="start" x="11.5" y="-434.3" font-family="Helvetica,sans-Serif" font-size="11.00" fill="#000000"> &#160;</text>
<polygon fill="#ffffff" stroke="transparent" points="69.5,-428.2 69.5,-447.2 105.5,-447.2 105.5,-428.2 69.5,-428.2"/>
<polygon fill="none" stroke="#000000" points="69.5,-428.2 69.5,-447.2 105.5,-447.2 105.5,-428.2 69.5,-428.2"/>
<text text-anchor="start" x="96.3862" y="-434.3" font-family="Helvetica,sans-Serif" font-size="11.00" fill="#000000"> &#160;</text>
<polygon fill="#ffffff" stroke="transparent" points="105.5,-428.2 105.5,-447.2 151.5,-447.2 151.5,-428.2 105.5,-428.2"/>
<polygon fill="none" stroke="#000000" points="105.5,-428.2 105.5,-447.2 151.5,-447.2 151.5,-428.2 105.5,-428.2"/>
<text text-anchor="start" x="132.9053" y="-434.3" font-family="Helvetica,sans-Serif" font-size="11.00" fill="#000000">3 &gt;</text>
</a>
</g>
</g>
<!-- offender_key_worker&#45;&gt;reference_data -->
<g id="edge3" class="edge">
<title>offender_key_worker:w&#45;&gt;reference_data:e</title>
<path fill="none" stroke="#000000" d="M219.321,-566.9542C193.4883,-562.3002 183.9633,-546.2 151.5,-546.2"/>
<polygon fill="#000000" stroke="#000000" points="226.0287,-567.5234 233.6955,-571.7871 230.0143,-567.8617 234,-568.2 234,-568.2 234,-568.2 230.0143,-567.8617 234.3045,-564.6129 226.0287,-567.5234 226.0287,-567.5234"/>
<ellipse fill="none" stroke="#000000" cx="222.8401" cy="-567.2528" rx="3.2" ry="3.2"/>
</g>
<!-- offender_key_worker&#45;&gt;reference_data -->
<g id="edge4" class="edge">
<title>offender_key_worker:w&#45;&gt;reference_data:e</title>
<path fill="none" stroke="#000000" d="M219.3098,-546.2C194.0061,-546.2 182.724,-546.2 151.5,-546.2"/>
<polygon fill="#000000" stroke="#000000" points="226,-546.2001 234,-549.8 230,-546.2 234,-546.2 234,-546.2 234,-546.2 230,-546.2 234,-542.6 226,-546.2001 226,-546.2001"/>
<ellipse fill="none" stroke="#000000" cx="222.8" cy="-546.2001" rx="3.2" ry="3.2"/>
</g>
<!-- keyworker_configuration -->
<g id="node4" class="node">
<title>keyworker_configuration</title>
<g id="a_node4"><a xlink:href="../../tables/keyworker_configuration.html" xlink:title="keyworker_configuration" target="_top">
<polygon fill="#ffffff" stroke="transparent" points="220.5,-343.2 220.5,-495.2 427.5,-495.2 427.5,-343.2 220.5,-343.2"/>
<polygon fill="#f5f5f5" stroke="transparent" points="221,-472.2 221,-495.2 428,-495.2 428,-472.2 221,-472.2"/>
<polygon fill="none" stroke="#000000" points="221,-472.2 221,-495.2 428,-495.2 428,-472.2 221,-472.2"/>
<text text-anchor="start" x="226" y="-480.8" font-family="Helvetica,sans-Serif" font-weight="bold" font-size="11.00" fill="#000000">keyworker_configuration</text>
<text text-anchor="start" x="393.5219" y="-480.3" font-family="Helvetica,sans-Serif" font-size="11.00" fill="#000000">[table]</text>
<polygon fill="none" stroke="#000000" points="221,-450.2 221,-472.2 428,-472.2 428,-450.2 221,-450.2"/>
<image xlink:href="../../images/primaryKeys.png" width="11px" height="12px" preserveAspectRatio="xMinYMin meet" x="226" y="-467.2"/>
<text text-anchor="start" x="250" y="-457.3" font-family="Helvetica,sans-Serif" font-size="11.00" fill="#000000">staff_id</text>
<polygon fill="none" stroke="#000000" points="221,-428.2 221,-450.2 428,-450.2 428,-428.2 221,-428.2"/>
<text text-anchor="start" x="250" y="-435.3" font-family="Helvetica,sans-Serif" font-size="11.00" fill="#000000">capacity</text>
<polygon fill="none" stroke="#000000" points="221,-406.2 221,-428.2 428,-428.2 428,-406.2 221,-406.2"/>
<image xlink:href="../../images/foreignKeys.png" width="11px" height="12px" preserveAspectRatio="xMinYMin meet" x="226" y="-423.2"/>
<text text-anchor="start" x="250" y="-413.3" font-family="Helvetica,sans-Serif" font-size="11.00" fill="#000000">status_id</text>
<polygon fill="none" stroke="#000000" points="221,-384.2 221,-406.2 428,-406.2 428,-384.2 221,-384.2"/>
<text text-anchor="start" x="250" y="-391.3" font-family="Helvetica,sans-Serif" font-size="11.00" fill="#000000">allow_auto_allocation</text>
<polygon fill="none" stroke="#000000" points="221,-362.2 221,-384.2 428,-384.2 428,-362.2 221,-362.2"/>
<text text-anchor="start" x="250" y="-369.3" font-family="Helvetica,sans-Serif" font-size="11.00" fill="#000000">reactivate_on</text>
<polygon fill="#ffffff" stroke="transparent" points="221,-343.2 221,-362.2 323,-362.2 323,-343.2 221,-343.2"/>
<polygon fill="none" stroke="#000000" points="221,-343.2 221,-362.2 323,-362.2 323,-343.2 221,-343.2"/>
<text text-anchor="start" x="224" y="-349.3" font-family="Helvetica,sans-Serif" font-size="11.00" fill="#000000">&lt; 1</text>
<polygon fill="#ffffff" stroke="transparent" points="323,-343.2 323,-362.2 375,-362.2 375,-343.2 323,-343.2"/>
<polygon fill="none" stroke="#000000" points="323,-343.2 323,-362.2 375,-362.2 375,-343.2 323,-343.2"/>
<text text-anchor="start" x="365.8862" y="-349.3" font-family="Helvetica,sans-Serif" font-size="11.00" fill="#000000"> &#160;</text>
<polygon fill="#ffffff" stroke="transparent" points="375,-343.2 375,-362.2 428,-362.2 428,-343.2 375,-343.2"/>
<polygon fill="none" stroke="#000000" points="375,-343.2 375,-362.2 428,-362.2 428,-343.2 375,-343.2"/>
<text text-anchor="start" x="418.8862" y="-349.3" font-family="Helvetica,sans-Serif" font-size="11.00" fill="#000000"> &#160;</text>
</a>
</g>
</g>
<!-- keyworker_configuration&#45;&gt;reference_data -->
<g id="edge1" class="edge">
<title>keyworker_configuration:w&#45;&gt;reference_data:e</title>
<path fill="none" stroke="#000000" d="M206.8391,-419.8943C165.3869,-438.4192 211.0281,-546.2 151.5,-546.2"/>
<polygon fill="#000000" stroke="#000000" points="213.141,-418.6954 221.6729,-420.7366 217.0705,-417.9477 221,-417.2 221,-417.2 221,-417.2 217.0705,-417.9477 220.3271,-413.6634 213.141,-418.6954 213.141,-418.6954"/>
<ellipse fill="none" stroke="#000000" cx="209.9974" cy="-419.2935" rx="3.2" ry="3.2"/>
</g>
</g>
</svg>
