<?xml version="1.0" encoding="UTF-8" standalone="no"?>
<!DOCTYPE svg PUBLIC "-//W3C//DTD SVG 1.1//EN"
 "http://www.w3.org/Graphics/SVG/1.1/DTD/svg11.dtd">
<!-- Generated by graphviz version 2.40.1 (20161225.0304)
 -->
<!-- Title: largeRelationshipsDiagram Pages: 1 -->
<svg width="396pt" height="661pt"
 viewBox="0.00 0.00 396.00 661.20" xmlns="http://www.w3.org/2000/svg" xmlns:xlink="http://www.w3.org/1999/xlink">
<g id="graph0" class="graph" transform="scale(1 1) rotate(0) translate(4 657.2)">
<title>largeRelationshipsDiagram</title>
<polygon fill="#ffffff" stroke="transparent" points="-4,4 -4,-657.2 392,-657.2 392,4 -4,4"/>
<text text-anchor="middle" x="72.4936" y="-7.3" font-family="Helvetica,sans-Serif" font-size="11.00" fill="#000000">Generated by SchemaSpy</text>
<!-- key_worker -->
<g id="node1" class="node">
<title>key_worker</title>
<g id="a_node1"><a xlink:href="../../tables/key_worker.html" xlink:title="key_worker" target="_top">
<polygon fill="#ffffff" stroke="transparent" points="212,-497.2 212,-649.2 368,-649.2 368,-497.2 212,-497.2"/>
<polygon fill="#f5f5f5" stroke="transparent" points="212,-626.2 212,-649.2 368,-649.2 368,-626.2 212,-626.2"/>
<polygon fill="none" stroke="#000000" points="212,-626.2 212,-649.2 368,-649.2 368,-626.2 212,-626.2"/>
<text text-anchor="start" x="217" y="-634.8" font-family="Helvetica,sans-Serif" font-weight="bold" font-size="11.00" fill="#000000">key_worker</text>
<text text-anchor="start" x="333.0437" y="-634.3" font-family="Helvetica,sans-Serif" font-size="11.00" fill="#000000">[table]</text>
<polygon fill="none" stroke="#000000" points="212,-604.2 212,-626.2 368,-626.2 368,-604.2 212,-604.2"/>
<image xlink:href="../../images/primaryKeys.png" width="11px" height="12px" preserveAspectRatio="xMinYMin meet" x="217" y="-621.2"/>
<text text-anchor="start" x="232" y="-611.3" font-family="Helvetica,sans-Serif" font-size="11.00" fill="#000000">staff_id</text>
<polygon fill="none" stroke="#000000" points="212,-582.2 212,-604.2 368,-604.2 368,-582.2 212,-582.2"/>
<text text-anchor="start" x="232" y="-589.3" font-family="Helvetica,sans-Serif" font-size="11.00" fill="#000000">capacity</text>
<polygon fill="none" stroke="#000000" points="212,-560.2 212,-582.2 368,-582.2 368,-560.2 212,-560.2"/>
<text text-anchor="start" x="232" y="-567.3" font-family="Helvetica,sans-Serif" font-size="11.00" fill="#000000">auto_allocation_flag</text>
<polygon fill="none" stroke="#000000" points="212,-538.2 212,-560.2 368,-560.2 368,-538.2 212,-538.2"/>
<text text-anchor="start" x="232" y="-545.3" font-family="Helvetica,sans-Serif" font-size="11.00" fill="#000000">active_date</text>
<polygon fill="none" stroke="#000000" points="212,-516.2 212,-538.2 368,-538.2 368,-516.2 212,-516.2"/>
<image xlink:href="../../images/foreignKeys.png" width="11px" height="12px" preserveAspectRatio="xMinYMin meet" x="217" y="-533.2"/>
<text text-anchor="start" x="232" y="-523.3" font-family="Helvetica,sans-Serif" font-size="11.00" fill="#000000">status_id</text>
<polygon fill="#ffffff" stroke="transparent" points="212,-497.2 212,-516.2 288,-516.2 288,-497.2 212,-497.2"/>
<polygon fill="none" stroke="#000000" points="212,-497.2 212,-516.2 288,-516.2 288,-497.2 212,-497.2"/>
<text text-anchor="start" x="215" y="-503.3" font-family="Helvetica,sans-Serif" font-size="11.00" fill="#000000">&lt; 1</text>
<polygon fill="#ffffff" stroke="transparent" points="288,-497.2 288,-516.2 328,-516.2 328,-497.2 288,-497.2"/>
<polygon fill="none" stroke="#000000" points="288,-497.2 288,-516.2 328,-516.2 328,-497.2 288,-497.2"/>
<text text-anchor="start" x="318.8862" y="-503.3" font-family="Helvetica,sans-Serif" font-size="11.00" fill="#000000"> &#160;</text>
<polygon fill="#ffffff" stroke="transparent" points="328,-497.2 328,-516.2 368,-516.2 368,-497.2 328,-497.2"/>
<polygon fill="none" stroke="#000000" points="328,-497.2 328,-516.2 368,-516.2 368,-497.2 328,-497.2"/>
<text text-anchor="start" x="358.8862" y="-503.3" font-family="Helvetica,sans-Serif" font-size="11.00" fill="#000000"> &#160;</text>
</a>
</g>
</g>
<!-- reference_data -->
<g id="node3" class="node">
<title>reference_data</title>
<g id="a_node3"><a xlink:href="../../tables/reference_data.html" xlink:title="reference_data" target="_top">
<polygon fill="#ffffff" stroke="transparent" points="8,-38.2 8,-190.2 151,-190.2 151,-38.2 8,-38.2"/>
<polygon fill="#f5f5f5" stroke="transparent" points="8.5,-167.2 8.5,-190.2 151.5,-190.2 151.5,-167.2 8.5,-167.2"/>
<polygon fill="none" stroke="#000000" points="8.5,-167.2 8.5,-190.2 151.5,-190.2 151.5,-167.2 8.5,-167.2"/>
<text text-anchor="start" x="13.5" y="-175.8" font-family="Helvetica,sans-Serif" font-weight="bold" font-size="11.00" fill="#000000">reference_data</text>
<text text-anchor="start" x="116.5437" y="-175.3" font-family="Helvetica,sans-Serif" font-size="11.00" fill="#000000">[table]</text>
<polygon fill="none" stroke="#000000" points="8.5,-145.2 8.5,-167.2 151.5,-167.2 151.5,-145.2 8.5,-145.2"/>
<image xlink:href="../../images/primaryKeys.png" width="11px" height="12px" preserveAspectRatio="xMinYMin meet" x="13.5" y="-162.2"/>
<text text-anchor="start" x="28.5" y="-152.3" font-family="Helvetica,sans-Serif" font-size="11.00" fill="#000000">id</text>
<polygon fill="#ffffff" stroke="transparent" points="8.5,-123.2 8.5,-145.2 151.5,-145.2 151.5,-123.2 8.5,-123.2"/>
<polygon fill="none" stroke="#000000" points="8.5,-123.2 8.5,-145.2 151.5,-145.2 151.5,-123.2 8.5,-123.2"/>
<text text-anchor="start" x="28.5" y="-130.3" font-family="Helvetica,sans-Serif" font-size="11.00" fill="#000000">domain</text>
<polygon fill="#ffffff" stroke="transparent" points="8.5,-101.2 8.5,-123.2 151.5,-123.2 151.5,-101.2 8.5,-101.2"/>
<polygon fill="none" stroke="#000000" points="8.5,-101.2 8.5,-123.2 151.5,-123.2 151.5,-101.2 8.5,-101.2"/>
<text text-anchor="start" x="28.5" y="-108.3" font-family="Helvetica,sans-Serif" font-size="11.00" fill="#000000">code</text>
<polygon fill="none" stroke="#000000" points="8.5,-79.2 8.5,-101.2 151.5,-101.2 151.5,-79.2 8.5,-79.2"/>
<text text-anchor="start" x="28.5" y="-86.3" font-family="Helvetica,sans-Serif" font-size="11.00" fill="#000000">description</text>
<polygon fill="#ffffff" stroke="transparent" points="8.5,-57.2 8.5,-79.2 151.5,-79.2 151.5,-57.2 8.5,-57.2"/>
<polygon fill="none" stroke="#000000" points="8.5,-57.2 8.5,-79.2 151.5,-79.2 151.5,-57.2 8.5,-57.2"/>
<text text-anchor="start" x="28.5" y="-64.3" font-family="Helvetica,sans-Serif" font-size="11.00" fill="#000000">sequence_number</text>
<polygon fill="#ffffff" stroke="transparent" points="8.5,-38.2 8.5,-57.2 69.5,-57.2 69.5,-38.2 8.5,-38.2"/>
<polygon fill="none" stroke="#000000" points="8.5,-38.2 8.5,-57.2 69.5,-57.2 69.5,-38.2 8.5,-38.2"/>
<text text-anchor="start" x="11.5" y="-44.3" font-family="Helvetica,sans-Serif" font-size="11.00" fill="#000000"> &#160;</text>
<polygon fill="#ffffff" stroke="transparent" points="69.5,-38.2 69.5,-57.2 105.5,-57.2 105.5,-38.2 69.5,-38.2"/>
<polygon fill="none" stroke="#000000" points="69.5,-38.2 69.5,-57.2 105.5,-57.2 105.5,-38.2 69.5,-38.2"/>
<text text-anchor="start" x="96.3862" y="-44.3" font-family="Helvetica,sans-Serif" font-size="11.00" fill="#000000"> &#160;</text>
<polygon fill="#ffffff" stroke="transparent" points="105.5,-38.2 105.5,-57.2 151.5,-57.2 151.5,-38.2 105.5,-38.2"/>
<polygon fill="none" stroke="#000000" points="105.5,-38.2 105.5,-57.2 151.5,-57.2 151.5,-38.2 105.5,-38.2"/>
<text text-anchor="start" x="132.9053" y="-44.3" font-family="Helvetica,sans-Serif" font-size="11.00" fill="#000000">3 &gt;</text>
</a>
</g>
</g>
<!-- key_worker&#45;&gt;reference_data -->
<g id="edge1" class="edge">
<title>key_worker:w&#45;&gt;reference_data:e</title>
<path fill="none" stroke="#000000" d="M198.1154,-522.775C141.414,-480.917 229.6495,-156.2 151.5,-156.2"/>
<polygon fill="#000000" stroke="#000000" points="204.3777,-524.7708 210.9069,-530.63 208.1889,-525.9854 212,-527.2 212,-527.2 212,-527.2 208.1889,-525.9854 213.0931,-523.77 204.3777,-524.7708 204.3777,-524.7708"/>
<ellipse fill="none" stroke="#000000" cx="201.3288" cy="-523.7991" rx="3.2" ry="3.2"/>
</g>
<!-- offender_key_worker -->
<g id="node2" class="node">
<title>offender_key_worker</title>
<g id="a_node2"><a xlink:href="../../tables/offender_key_worker.html" xlink:title="offender_key_worker" target="_top">
<polygon fill="#ffffff" stroke="transparent" points="200,-104.2 200,-476.2 380,-476.2 380,-104.2 200,-104.2"/>
<polygon fill="#f5f5f5" stroke="transparent" points="200,-453.2 200,-476.2 380,-476.2 380,-453.2 200,-453.2"/>
<polygon fill="none" stroke="#000000" points="200,-453.2 200,-476.2 380,-476.2 380,-453.2 200,-453.2"/>
<text text-anchor="start" x="205" y="-461.8" font-family="Helvetica,sans-Serif" font-weight="bold" font-size="11.00" fill="#000000">offender_key_worker</text>
<text text-anchor="start" x="345.5219" y="-461.3" font-family="Helvetica,sans-Serif" font-size="11.00" fill="#000000">[table]</text>
<polygon fill="none" stroke="#000000" points="200,-431.2 200,-453.2 380,-453.2 380,-431.2 200,-431.2"/>
<image xlink:href="../../images/primaryKeys.png" width="11px" height="12px" preserveAspectRatio="xMinYMin meet" x="205" y="-448.2"/>
<text text-anchor="start" x="223" y="-438.3" font-family="Helvetica,sans-Serif" font-size="11.00" fill="#000000">offender_keyworker_id</text>
<polygon fill="#ffffff" stroke="transparent" points="200,-409.2 200,-431.2 380,-431.2 380,-409.2 200,-409.2"/>
<polygon fill="none" stroke="#000000" points="200,-409.2 200,-431.2 380,-431.2 380,-409.2 200,-409.2"/>
<text text-anchor="start" x="223" y="-416.3" font-family="Helvetica,sans-Serif" font-size="11.00" fill="#000000">offender_no</text>
<polygon fill="#ffffff" stroke="transparent" points="200,-387.2 200,-409.2 380,-409.2 380,-387.2 200,-387.2"/>
<polygon fill="none" stroke="#000000" points="200,-387.2 200,-409.2 380,-409.2 380,-387.2 200,-387.2"/>
<text text-anchor="start" x="223" y="-394.3" font-family="Helvetica,sans-Serif" font-size="11.00" fill="#000000">staff_id</text>
<polygon fill="#ffffff" stroke="transparent" points="200,-365.2 200,-387.2 380,-387.2 380,-365.2 200,-365.2"/>
<polygon fill="none" stroke="#000000" points="200,-365.2 200,-387.2 380,-387.2 380,-365.2 200,-365.2"/>
<text text-anchor="start" x="223" y="-372.3" font-family="Helvetica,sans-Serif" font-size="11.00" fill="#000000">assigned_date_time</text>
<polygon fill="none" stroke="#000000" points="200,-343.2 200,-365.2 380,-365.2 380,-343.2 200,-343.2"/>
<text text-anchor="start" x="223" y="-350.3" font-family="Helvetica,sans-Serif" font-size="11.00" fill="#000000">active_flag</text>
<polygon fill="none" stroke="#000000" points="200,-321.2 200,-343.2 380,-343.2 380,-321.2 200,-321.2"/>
<text text-anchor="start" x="223" y="-328.3" font-family="Helvetica,sans-Serif" font-size="11.00" fill="#000000">alloc_type</text>
<polygon fill="none" stroke="#000000" points="200,-299.2 200,-321.2 380,-321.2 380,-299.2 200,-299.2"/>
<text text-anchor="start" x="223" y="-306.3" font-family="Helvetica,sans-Serif" font-size="11.00" fill="#000000">user_id</text>
<polygon fill="#ffffff" stroke="transparent" points="200,-277.2 200,-299.2 380,-299.2 380,-277.2 200,-277.2"/>
<polygon fill="none" stroke="#000000" points="200,-277.2 200,-299.2 380,-299.2 380,-277.2 200,-277.2"/>
<image xlink:href="../../images/foreignKeys.png" width="11px" height="12px" preserveAspectRatio="xMinYMin meet" x="205" y="-294.2"/>
<text text-anchor="start" x="223" y="-284.3" font-family="Helvetica,sans-Serif" font-size="11.00" fill="#000000">prison_id</text>
<polygon fill="none" stroke="#000000" points="200,-255.2 200,-277.2 380,-277.2 380,-255.2 200,-255.2"/>
<text text-anchor="start" x="223" y="-262.3" font-family="Helvetica,sans-Serif" font-size="11.00" fill="#000000">expiry_date_time</text>
<polygon fill="none" stroke="#000000" points="200,-233.2 200,-255.2 380,-255.2 380,-233.2 200,-233.2"/>
<text text-anchor="start" x="223" y="-240.3" font-family="Helvetica,sans-Serif" font-size="11.00" fill="#000000">create_datetime</text>
<polygon fill="none" stroke="#000000" points="200,-211.2 200,-233.2 380,-233.2 380,-211.2 200,-211.2"/>
<text text-anchor="start" x="223" y="-218.3" font-family="Helvetica,sans-Serif" font-size="11.00" fill="#000000">create_user_id</text>
<polygon fill="none" stroke="#000000" points="200,-189.2 200,-211.2 380,-211.2 380,-189.2 200,-189.2"/>
<text text-anchor="start" x="223" y="-196.3" font-family="Helvetica,sans-Serif" font-size="11.00" fill="#000000">modify_datetime</text>
<polygon fill="none" stroke="#000000" points="200,-167.2 200,-189.2 380,-189.2 380,-167.2 200,-167.2"/>
<text text-anchor="start" x="223" y="-174.3" font-family="Helvetica,sans-Serif" font-size="11.00" fill="#000000">modify_user_id</text>
<polygon fill="none" stroke="#000000" points="200,-145.2 200,-167.2 380,-167.2 380,-145.2 200,-145.2"/>
<image xlink:href="../../images/foreignKeys.png" width="11px" height="12px" preserveAspectRatio="xMinYMin meet" x="205" y="-162.2"/>
<text text-anchor="start" x="223" y="-152.3" font-family="Helvetica,sans-Serif" font-size="11.00" fill="#000000">allocation_reason_id</text>
<polygon fill="none" stroke="#000000" points="200,-123.2 200,-145.2 380,-145.2 380,-123.2 200,-123.2"/>
<image xlink:href="../../images/foreignKeys.png" width="11px" height="12px" preserveAspectRatio="xMinYMin meet" x="205" y="-140.2"/>
<text text-anchor="start" x="223" y="-130.3" font-family="Helvetica,sans-Serif" font-size="11.00" fill="#000000">deallocation_reason_id</text>
<polygon fill="#ffffff" stroke="transparent" points="200,-104.2 200,-123.2 288,-123.2 288,-104.2 200,-104.2"/>
<polygon fill="none" stroke="#000000" points="200,-104.2 200,-123.2 288,-123.2 288,-104.2 200,-104.2"/>
<text text-anchor="start" x="203" y="-110.3" font-family="Helvetica,sans-Serif" font-size="11.00" fill="#000000">&lt; 2</text>
<polygon fill="#ffffff" stroke="transparent" points="288,-104.2 288,-123.2 334,-123.2 334,-104.2 288,-104.2"/>
<polygon fill="none" stroke="#000000" points="288,-104.2 288,-123.2 334,-123.2 334,-104.2 288,-104.2"/>
<text text-anchor="start" x="324.8862" y="-110.3" font-family="Helvetica,sans-Serif" font-size="11.00" fill="#000000"> &#160;</text>
<polygon fill="#ffffff" stroke="transparent" points="334,-104.2 334,-123.2 380,-123.2 380,-104.2 334,-104.2"/>
<polygon fill="none" stroke="#000000" points="334,-104.2 334,-123.2 380,-123.2 380,-104.2 334,-104.2"/>
<text text-anchor="start" x="370.8862" y="-110.3" font-family="Helvetica,sans-Serif" font-size="11.00" fill="#000000"> &#160;</text>
</a>
</g>
</g>
<!-- offender_key_worker&#45;&gt;reference_data -->
<g id="edge2" class="edge">
<title>offender_key_worker:w&#45;&gt;reference_data:e</title>
<path fill="none" stroke="#000000" d="M185.2829,-156.2C174.2886,-156.2 167.1615,-156.2 151.5,-156.2"/>
<polygon fill="#000000" stroke="#000000" points="192,-156.2001 200,-159.8 196,-156.2 200,-156.2 200,-156.2 200,-156.2 196,-156.2 200,-152.6 192,-156.2001 192,-156.2001"/>
<ellipse fill="none" stroke="#000000" cx="188.8" cy="-156.2001" rx="3.2" ry="3.2"/>
</g>
<!-- offender_key_worker&#45;&gt;reference_data -->
<g id="edge3" class="edge">
<title>offender_key_worker:w&#45;&gt;reference_data:e</title>
<path fill="none" stroke="#000000" d="M185.7648,-137.6375C174.3432,-143.825 169.2522,-156.2 151.5,-156.2"/>
<polygon fill="#000000" stroke="#000000" points="192.2235,-136.0779 200.8451,-137.6994 196.1118,-135.1389 200,-134.2 200,-134.2 200,-134.2 196.1118,-135.1389 199.1549,-130.7006 192.2235,-136.0779 192.2235,-136.0779"/>
<ellipse fill="none" stroke="#000000" cx="189.1129" cy="-136.8291" rx="3.2" ry="3.2"/>
</g>
</g>
</svg>
