<?xml version="1.0" encoding="UTF-8" standalone="no"?>
<!DOCTYPE svg PUBLIC "-//W3C//DTD SVG 1.1//EN"
 "http://www.w3.org/Graphics/SVG/1.1/DTD/svg11.dtd">
<!-- Generated by graphviz version 2.40.1 (20161225.0304)
 -->
<!-- Title: compactImpliedRelationshipsDiagram Pages: 1 -->
<svg width="644pt" height="539pt"
 viewBox="0.00 0.00 644.00 539.20" xmlns="http://www.w3.org/2000/svg" xmlns:xlink="http://www.w3.org/1999/xlink">
<g id="graph0" class="graph" transform="scale(1 1) rotate(0) translate(4 535.2)">
<title>compactImpliedRelationshipsDiagram</title>
<polygon fill="#ffffff" stroke="transparent" points="-4,4 -4,-535.2 640,-535.2 640,4 -4,4"/>
<text text-anchor="middle" x="72.4936" y="-7.3" font-family="Helvetica,sans-Serif" font-size="11.00" fill="#000000">Generated by SchemaSpy</text>
<!-- prison_supported -->
<g id="node1" class="node">
<title>prison_supported</title>
<g id="a_node1"><a xlink:href="../../tables/prison_supported.html" xlink:title="prison_supported" target="_top">
<polygon fill="#ffffff" stroke="transparent" points="8,-345.2 8,-428.2 320,-428.2 320,-345.2 8,-345.2"/>
<polygon fill="#f5f5f5" stroke="transparent" points="8,-404.7 8,-427.7 320,-427.7 320,-404.7 8,-404.7"/>
<polygon fill="none" stroke="#000000" points="8,-404.7 8,-427.7 320,-427.7 320,-404.7 8,-404.7"/>
<text text-anchor="start" x="13" y="-413.3" font-family="Helvetica,sans-Serif" font-weight="bold" font-size="11.00" fill="#000000">prison_supported</text>
<text text-anchor="start" x="285.0437" y="-412.8" font-family="Helvetica,sans-Serif" font-size="11.00" fill="#000000">[table]</text>
<polygon fill="none" stroke="#000000" points="8,-382.7 8,-404.7 320,-404.7 320,-382.7 8,-382.7"/>
<image xlink:href="../../images/primaryKeys.png" width="11px" height="12px" preserveAspectRatio="xMinYMin meet" x="13" y="-399.7"/>
<text text-anchor="start" x="28" y="-389.8" font-family="Helvetica,sans-Serif" font-size="11.00" fill="#000000">prison_id</text>
<polygon fill="none" stroke="#000000" points="8,-363.7 8,-382.7 320,-382.7 320,-363.7 8,-363.7"/>
<text text-anchor="start" x="11" y="-369.8" font-family="Helvetica,sans-Serif" font-size="11.00" fill="#000000">...</text>
<polygon fill="#ffffff" stroke="transparent" points="8,-344.7 8,-363.7 158,-363.7 158,-344.7 8,-344.7"/>
<polygon fill="none" stroke="#000000" points="8,-344.7 8,-363.7 158,-363.7 158,-344.7 8,-344.7"/>
<text text-anchor="start" x="11" y="-350.8" font-family="Helvetica,sans-Serif" font-size="11.00" fill="#000000"> &#160;</text>
<polygon fill="#ffffff" stroke="transparent" points="158,-344.7 158,-363.7 239,-363.7 239,-344.7 158,-344.7"/>
<polygon fill="none" stroke="#000000" points="158,-344.7 158,-363.7 239,-363.7 239,-344.7 158,-344.7"/>
<text text-anchor="start" x="229.8862" y="-350.8" font-family="Helvetica,sans-Serif" font-size="11.00" fill="#000000"> &#160;</text>
<polygon fill="#ffffff" stroke="transparent" points="239,-344.7 239,-363.7 320,-363.7 320,-344.7 239,-344.7"/>
<polygon fill="none" stroke="#000000" points="239,-344.7 239,-363.7 320,-363.7 320,-344.7 239,-344.7"/>
<text text-anchor="start" x="310.8862" y="-350.8" font-family="Helvetica,sans-Serif" font-size="11.00" fill="#000000"> &#160;</text>
</a>
</g>
</g>
<!-- keyworker_stats -->
<g id="node2" class="node">
<title>keyworker_stats</title>
<g id="a_node2"><a xlink:href="../../tables/keyworker_stats.html" xlink:title="keyworker_stats" target="_top">
<polygon fill="#ffffff" stroke="transparent" points="369,-400.2 369,-527.2 628,-527.2 628,-400.2 369,-400.2"/>
<polygon fill="#f5f5f5" stroke="transparent" points="369.5,-503.7 369.5,-526.7 628.5,-526.7 628.5,-503.7 369.5,-503.7"/>
<polygon fill="none" stroke="#000000" points="369.5,-503.7 369.5,-526.7 628.5,-526.7 628.5,-503.7 369.5,-503.7"/>
<text text-anchor="start" x="374.5" y="-512.3" font-family="Helvetica,sans-Serif" font-weight="bold" font-size="11.00" fill="#000000">keyworker_stats</text>
<text text-anchor="start" x="593.5437" y="-511.8" font-family="Helvetica,sans-Serif" font-size="11.00" fill="#000000">[table]</text>
<polygon fill="none" stroke="#000000" points="369.5,-481.7 369.5,-503.7 628.5,-503.7 628.5,-481.7 369.5,-481.7"/>
<image xlink:href="../../images/primaryKeys.png" width="11px" height="12px" preserveAspectRatio="xMinYMin meet" x="374.5" y="-498.7"/>
<text text-anchor="start" x="389.5" y="-488.8" font-family="Helvetica,sans-Serif" font-size="11.00" fill="#000000">keyworker_stats_id</text>
<polygon fill="#ffffff" stroke="transparent" points="369.5,-459.7 369.5,-481.7 628.5,-481.7 628.5,-459.7 369.5,-459.7"/>
<polygon fill="none" stroke="#000000" points="369.5,-459.7 369.5,-481.7 628.5,-481.7 628.5,-459.7 369.5,-459.7"/>
<image xlink:href="../../images/foreignKeys.png" width="11px" height="12px" preserveAspectRatio="xMinYMin meet" x="374.5" y="-476.7"/>
<text text-anchor="start" x="389.5" y="-466.8" font-family="Helvetica,sans-Serif" font-size="11.00" fill="#000000">prison_id</text>
<polygon fill="#ffffff" stroke="transparent" points="369.5,-437.7 369.5,-459.7 628.5,-459.7 628.5,-437.7 369.5,-437.7"/>
<polygon fill="none" stroke="#000000" points="369.5,-437.7 369.5,-459.7 628.5,-459.7 628.5,-437.7 369.5,-437.7"/>
<text text-anchor="start" x="389.5" y="-444.8" font-family="Helvetica,sans-Serif" font-size="11.00" fill="#000000">snapshot_date</text>
<polygon fill="none" stroke="#000000" points="369.5,-418.7 369.5,-437.7 628.5,-437.7 628.5,-418.7 369.5,-418.7"/>
<text text-anchor="start" x="372.5" y="-424.8" font-family="Helvetica,sans-Serif" font-size="11.00" fill="#000000">...</text>
<polygon fill="#ffffff" stroke="transparent" points="369.5,-399.7 369.5,-418.7 492.5,-418.7 492.5,-399.7 369.5,-399.7"/>
<polygon fill="none" stroke="#000000" points="369.5,-399.7 369.5,-418.7 492.5,-418.7 492.5,-399.7 369.5,-399.7"/>
<text text-anchor="start" x="372.5" y="-405.8" font-family="Helvetica,sans-Serif" font-size="11.00" fill="#000000"> &#160;</text>
<polygon fill="#ffffff" stroke="transparent" points="492.5,-399.7 492.5,-418.7 560.5,-418.7 560.5,-399.7 492.5,-399.7"/>
<polygon fill="none" stroke="#000000" points="492.5,-399.7 492.5,-418.7 560.5,-418.7 560.5,-399.7 492.5,-399.7"/>
<text text-anchor="start" x="551.3862" y="-405.8" font-family="Helvetica,sans-Serif" font-size="11.00" fill="#000000"> &#160;</text>
<polygon fill="#ffffff" stroke="transparent" points="560.5,-399.7 560.5,-418.7 628.5,-418.7 628.5,-399.7 560.5,-399.7"/>
<polygon fill="none" stroke="#000000" points="560.5,-399.7 560.5,-418.7 628.5,-418.7 628.5,-399.7 560.5,-399.7"/>
<text text-anchor="start" x="619.3862" y="-405.8" font-family="Helvetica,sans-Serif" font-size="11.00" fill="#000000"> &#160;</text>
</a>
</g>
</g>
<!-- keyworker_stats&#45;&gt;prison_supported -->
<g id="edge2" class="edge">
<title>keyworker_stats:w&#45;&gt;prison_supported:e</title>
<path fill="none" stroke="#000000" stroke-dasharray="5,2" d="M355.7042,-466.1139C336.6784,-449.5372 354.6447,-393.7 320,-393.7"/>
<polygon fill="#000000" stroke="#000000" points="361.9085,-468.1763 368.3643,-474.1162 365.7042,-469.4382 369.5,-470.7 369.5,-470.7 369.5,-470.7 365.7042,-469.4382 370.6357,-467.2838 361.9085,-468.1763 361.9085,-468.1763"/>
<ellipse fill="none" stroke="#000000" cx="358.8719" cy="-467.1669" rx="3.2" ry="3.2"/>
</g>
<!-- key_worker -->
<g id="node3" class="node">
<title>key_worker</title>
<g id="a_node3"><a xlink:href="../../tables/key_worker.html" xlink:title="key_worker" target="_top">
<polygon fill="#ffffff" stroke="transparent" points="420.5,-38.2 420.5,-143.2 576.5,-143.2 576.5,-38.2 420.5,-38.2"/>
<polygon fill="#f5f5f5" stroke="transparent" points="420.5,-119.7 420.5,-142.7 576.5,-142.7 576.5,-119.7 420.5,-119.7"/>
<polygon fill="none" stroke="#000000" points="420.5,-119.7 420.5,-142.7 576.5,-142.7 576.5,-119.7 420.5,-119.7"/>
<text text-anchor="start" x="425.5" y="-128.3" font-family="Helvetica,sans-Serif" font-weight="bold" font-size="11.00" fill="#000000">key_worker</text>
<text text-anchor="start" x="541.5437" y="-127.8" font-family="Helvetica,sans-Serif" font-size="11.00" fill="#000000">[table]</text>
<polygon fill="none" stroke="#000000" points="420.5,-97.7 420.5,-119.7 576.5,-119.7 576.5,-97.7 420.5,-97.7"/>
<image xlink:href="../../images/primaryKeys.png" width="11px" height="12px" preserveAspectRatio="xMinYMin meet" x="425.5" y="-114.7"/>
<text text-anchor="start" x="440.5" y="-104.8" font-family="Helvetica,sans-Serif" font-size="11.00" fill="#000000">staff_id</text>
<polygon fill="none" stroke="#000000" points="420.5,-75.7 420.5,-97.7 576.5,-97.7 576.5,-75.7 420.5,-75.7"/>
<image xlink:href="../../images/foreignKeys.png" width="11px" height="12px" preserveAspectRatio="xMinYMin meet" x="425.5" y="-92.7"/>
<text text-anchor="start" x="440.5" y="-82.8" font-family="Helvetica,sans-Serif" font-size="11.00" fill="#000000">status_id</text>
<polygon fill="none" stroke="#000000" points="420.5,-56.7 420.5,-75.7 576.5,-75.7 576.5,-56.7 420.5,-56.7"/>
<text text-anchor="start" x="423.5" y="-62.8" font-family="Helvetica,sans-Serif" font-size="11.00" fill="#000000">...</text>
<polygon fill="#ffffff" stroke="transparent" points="420.5,-37.7 420.5,-56.7 496.5,-56.7 496.5,-37.7 420.5,-37.7"/>
<polygon fill="none" stroke="#000000" points="420.5,-37.7 420.5,-56.7 496.5,-56.7 496.5,-37.7 420.5,-37.7"/>
<text text-anchor="start" x="423.5" y="-43.8" font-family="Helvetica,sans-Serif" font-size="11.00" fill="#000000">&lt; 1</text>
<polygon fill="#ffffff" stroke="transparent" points="496.5,-37.7 496.5,-56.7 536.5,-56.7 536.5,-37.7 496.5,-37.7"/>
<polygon fill="none" stroke="#000000" points="496.5,-37.7 496.5,-56.7 536.5,-56.7 536.5,-37.7 496.5,-37.7"/>
<text text-anchor="start" x="527.3862" y="-43.8" font-family="Helvetica,sans-Serif" font-size="11.00" fill="#000000"> &#160;</text>
<polygon fill="#ffffff" stroke="transparent" points="536.5,-37.7 536.5,-56.7 576.5,-56.7 576.5,-37.7 536.5,-37.7"/>
<polygon fill="none" stroke="#000000" points="536.5,-37.7 536.5,-56.7 576.5,-56.7 576.5,-37.7 536.5,-37.7"/>
<text text-anchor="start" x="567.3862" y="-43.8" font-family="Helvetica,sans-Serif" font-size="11.00" fill="#000000"> &#160;</text>
</a>
</g>
</g>
<!-- reference_data -->
<g id="node5" class="node">
<title>reference_data</title>
<g id="a_node5"><a xlink:href="../../tables/reference_data.html" xlink:title="reference_data" target="_top">
<polygon fill="#ffffff" stroke="transparent" points="92.5,-98.2 92.5,-247.2 235.5,-247.2 235.5,-98.2 92.5,-98.2"/>
<polygon fill="#f5f5f5" stroke="transparent" points="93,-223.7 93,-246.7 236,-246.7 236,-223.7 93,-223.7"/>
<polygon fill="none" stroke="#000000" points="93,-223.7 93,-246.7 236,-246.7 236,-223.7 93,-223.7"/>
<text text-anchor="start" x="98" y="-232.3" font-family="Helvetica,sans-Serif" font-weight="bold" font-size="11.00" fill="#000000">reference_data</text>
<text text-anchor="start" x="201.0437" y="-231.8" font-family="Helvetica,sans-Serif" font-size="11.00" fill="#000000">[table]</text>
<polygon fill="none" stroke="#000000" points="93,-201.7 93,-223.7 236,-223.7 236,-201.7 93,-201.7"/>
<image xlink:href="../../images/primaryKeys.png" width="11px" height="12px" preserveAspectRatio="xMinYMin meet" x="98" y="-218.7"/>
<text text-anchor="start" x="113" y="-208.8" font-family="Helvetica,sans-Serif" font-size="11.00" fill="#000000">id</text>
<polygon fill="#ffffff" stroke="transparent" points="93,-179.7 93,-201.7 236,-201.7 236,-179.7 93,-179.7"/>
<polygon fill="none" stroke="#000000" points="93,-179.7 93,-201.7 236,-201.7 236,-179.7 93,-179.7"/>
<text text-anchor="start" x="113" y="-186.8" font-family="Helvetica,sans-Serif" font-size="11.00" fill="#000000">domain</text>
<polygon fill="#ffffff" stroke="transparent" points="93,-157.7 93,-179.7 236,-179.7 236,-157.7 93,-157.7"/>
<polygon fill="none" stroke="#000000" points="93,-157.7 93,-179.7 236,-179.7 236,-157.7 93,-157.7"/>
<text text-anchor="start" x="113" y="-164.8" font-family="Helvetica,sans-Serif" font-size="11.00" fill="#000000">code</text>
<polygon fill="#ffffff" stroke="transparent" points="93,-135.7 93,-157.7 236,-157.7 236,-135.7 93,-135.7"/>
<polygon fill="none" stroke="#000000" points="93,-135.7 93,-157.7 236,-157.7 236,-135.7 93,-135.7"/>
<text text-anchor="start" x="113" y="-142.8" font-family="Helvetica,sans-Serif" font-size="11.00" fill="#000000">sequence_number</text>
<polygon fill="none" stroke="#000000" points="93,-116.7 93,-135.7 236,-135.7 236,-116.7 93,-116.7"/>
<text text-anchor="start" x="96" y="-122.8" font-family="Helvetica,sans-Serif" font-size="11.00" fill="#000000">...</text>
<polygon fill="#ffffff" stroke="transparent" points="93,-97.7 93,-116.7 154,-116.7 154,-97.7 93,-97.7"/>
<polygon fill="none" stroke="#000000" points="93,-97.7 93,-116.7 154,-116.7 154,-97.7 93,-97.7"/>
<text text-anchor="start" x="96" y="-103.8" font-family="Helvetica,sans-Serif" font-size="11.00" fill="#000000"> &#160;</text>
<polygon fill="#ffffff" stroke="transparent" points="154,-97.7 154,-116.7 190,-116.7 190,-97.7 154,-97.7"/>
<polygon fill="none" stroke="#000000" points="154,-97.7 154,-116.7 190,-116.7 190,-97.7 154,-97.7"/>
<text text-anchor="start" x="180.8862" y="-103.8" font-family="Helvetica,sans-Serif" font-size="11.00" fill="#000000"> &#160;</text>
<polygon fill="#ffffff" stroke="transparent" points="190,-97.7 190,-116.7 236,-116.7 236,-97.7 190,-97.7"/>
<polygon fill="none" stroke="#000000" points="190,-97.7 190,-116.7 236,-116.7 236,-97.7 190,-97.7"/>
<text text-anchor="start" x="217.4053" y="-103.8" font-family="Helvetica,sans-Serif" font-size="11.00" fill="#000000">3 &gt;</text>
</a>
</g>
</g>
<!-- key_worker&#45;&gt;reference_data -->
<g id="edge1" class="edge">
<title>key_worker:w&#45;&gt;reference_data:e</title>
<path fill="none" stroke="#000000" d="M405.9616,-87.6777C322.3578,-99.4054 330.1581,-212.7 236,-212.7"/>
<polygon fill="#000000" stroke="#000000" points="412.518,-87.2368 420.7416,-90.2919 416.509,-86.9684 420.5,-86.7 420.5,-86.7 420.5,-86.7 416.509,-86.9684 420.2584,-83.1081 412.518,-87.2368 412.518,-87.2368"/>
<ellipse fill="none" stroke="#000000" cx="409.3252" cy="-87.4515" rx="3.2" ry="3.2"/>
</g>
<!-- offender_key_worker -->
<g id="node4" class="node">
<title>offender_key_worker</title>
<g id="a_node4"><a xlink:href="../../tables/offender_key_worker.html" xlink:title="offender_key_worker" target="_top">
<polygon fill="#ffffff" stroke="transparent" points="408.5,-164.2 408.5,-379.2 588.5,-379.2 588.5,-164.2 408.5,-164.2"/>
<polygon fill="#f5f5f5" stroke="transparent" points="408.5,-355.7 408.5,-378.7 588.5,-378.7 588.5,-355.7 408.5,-355.7"/>
<polygon fill="none" stroke="#000000" points="408.5,-355.7 408.5,-378.7 588.5,-378.7 588.5,-355.7 408.5,-355.7"/>
<text text-anchor="start" x="413.5" y="-364.3" font-family="Helvetica,sans-Serif" font-weight="bold" font-size="11.00" fill="#000000">offender_key_worker</text>
<text text-anchor="start" x="554.0219" y="-363.8" font-family="Helvetica,sans-Serif" font-size="11.00" fill="#000000">[table]</text>
<polygon fill="none" stroke="#000000" points="408.5,-333.7 408.5,-355.7 588.5,-355.7 588.5,-333.7 408.5,-333.7"/>
<image xlink:href="../../images/primaryKeys.png" width="11px" height="12px" preserveAspectRatio="xMinYMin meet" x="413.5" y="-350.7"/>
<text text-anchor="start" x="431.5" y="-340.8" font-family="Helvetica,sans-Serif" font-size="11.00" fill="#000000">offender_keyworker_id</text>
<polygon fill="#ffffff" stroke="transparent" points="408.5,-311.7 408.5,-333.7 588.5,-333.7 588.5,-311.7 408.5,-311.7"/>
<polygon fill="none" stroke="#000000" points="408.5,-311.7 408.5,-333.7 588.5,-333.7 588.5,-311.7 408.5,-311.7"/>
<text text-anchor="start" x="431.5" y="-318.8" font-family="Helvetica,sans-Serif" font-size="11.00" fill="#000000">offender_no</text>
<polygon fill="#ffffff" stroke="transparent" points="408.5,-289.7 408.5,-311.7 588.5,-311.7 588.5,-289.7 408.5,-289.7"/>
<polygon fill="none" stroke="#000000" points="408.5,-289.7 408.5,-311.7 588.5,-311.7 588.5,-289.7 408.5,-289.7"/>
<text text-anchor="start" x="431.5" y="-296.8" font-family="Helvetica,sans-Serif" font-size="11.00" fill="#000000">staff_id</text>
<polygon fill="#ffffff" stroke="transparent" points="408.5,-267.7 408.5,-289.7 588.5,-289.7 588.5,-267.7 408.5,-267.7"/>
<polygon fill="none" stroke="#000000" points="408.5,-267.7 408.5,-289.7 588.5,-289.7 588.5,-267.7 408.5,-267.7"/>
<text text-anchor="start" x="431.5" y="-274.8" font-family="Helvetica,sans-Serif" font-size="11.00" fill="#000000">assigned_date_time</text>
<polygon fill="#ffffff" stroke="transparent" points="408.5,-245.7 408.5,-267.7 588.5,-267.7 588.5,-245.7 408.5,-245.7"/>
<polygon fill="none" stroke="#000000" points="408.5,-245.7 408.5,-267.7 588.5,-267.7 588.5,-245.7 408.5,-245.7"/>
<image xlink:href="../../images/foreignKeys.png" width="11px" height="12px" preserveAspectRatio="xMinYMin meet" x="413.5" y="-262.7"/>
<text text-anchor="start" x="431.5" y="-252.8" font-family="Helvetica,sans-Serif" font-size="11.00" fill="#000000">prison_id</text>
<polygon fill="none" stroke="#000000" points="408.5,-223.7 408.5,-245.7 588.5,-245.7 588.5,-223.7 408.5,-223.7"/>
<image xlink:href="../../images/foreignKeys.png" width="11px" height="12px" preserveAspectRatio="xMinYMin meet" x="413.5" y="-240.7"/>
<text text-anchor="start" x="431.5" y="-230.8" font-family="Helvetica,sans-Serif" font-size="11.00" fill="#000000">allocation_reason_id</text>
<polygon fill="none" stroke="#000000" points="408.5,-201.7 408.5,-223.7 588.5,-223.7 588.5,-201.7 408.5,-201.7"/>
<image xlink:href="../../images/foreignKeys.png" width="11px" height="12px" preserveAspectRatio="xMinYMin meet" x="413.5" y="-218.7"/>
<text text-anchor="start" x="431.5" y="-208.8" font-family="Helvetica,sans-Serif" font-size="11.00" fill="#000000">deallocation_reason_id</text>
<polygon fill="none" stroke="#000000" points="408.5,-182.7 408.5,-201.7 588.5,-201.7 588.5,-182.7 408.5,-182.7"/>
<text text-anchor="start" x="411.5" y="-188.8" font-family="Helvetica,sans-Serif" font-size="11.00" fill="#000000">...</text>
<polygon fill="#ffffff" stroke="transparent" points="408.5,-163.7 408.5,-182.7 496.5,-182.7 496.5,-163.7 408.5,-163.7"/>
<polygon fill="none" stroke="#000000" points="408.5,-163.7 408.5,-182.7 496.5,-182.7 496.5,-163.7 408.5,-163.7"/>
<text text-anchor="start" x="411.5" y="-169.8" font-family="Helvetica,sans-Serif" font-size="11.00" fill="#000000">&lt; 2</text>
<polygon fill="#ffffff" stroke="transparent" points="496.5,-163.7 496.5,-182.7 542.5,-182.7 542.5,-163.7 496.5,-163.7"/>
<polygon fill="none" stroke="#000000" points="496.5,-163.7 496.5,-182.7 542.5,-182.7 542.5,-163.7 496.5,-163.7"/>
<text text-anchor="start" x="533.3862" y="-169.8" font-family="Helvetica,sans-Serif" font-size="11.00" fill="#000000"> &#160;</text>
<polygon fill="#ffffff" stroke="transparent" points="542.5,-163.7 542.5,-182.7 588.5,-182.7 588.5,-163.7 542.5,-163.7"/>
<polygon fill="none" stroke="#000000" points="542.5,-163.7 542.5,-182.7 588.5,-182.7 588.5,-163.7 542.5,-163.7"/>
<text text-anchor="start" x="579.3862" y="-169.8" font-family="Helvetica,sans-Serif" font-size="11.00" fill="#000000"> &#160;</text>
</a>
</g>
</g>
<!-- offender_key_worker&#45;&gt;prison_supported -->
<g id="edge5" class="edge">
<title>offender_key_worker:w&#45;&gt;prison_supported:e</title>
<path fill="none" stroke="#000000" stroke-dasharray="5,2" d="M394.0661,-258.9636C343.8672,-276.7762 386.9668,-393.7 320,-393.7"/>
<polygon fill="#000000" stroke="#000000" points="400.5966,-257.9395 409.0578,-260.2565 404.5483,-257.3197 408.5,-256.7 408.5,-256.7 408.5,-256.7 404.5483,-257.3197 407.9422,-253.1435 400.5966,-257.9395 400.5966,-257.9395"/>
<ellipse fill="none" stroke="#000000" cx="397.4352" cy="-258.4353" rx="3.2" ry="3.2"/>
</g>
<!-- offender_key_worker&#45;&gt;reference_data -->
<g id="edge3" class="edge">
<title>offender_key_worker:w&#45;&gt;reference_data:e</title>
<path fill="none" stroke="#000000" d="M393.8534,-234.4218C328.5699,-231.8751 308.1553,-212.7 236,-212.7"/>
<polygon fill="#000000" stroke="#000000" points="400.5014,-234.548 408.4316,-238.2994 404.5007,-234.624 408.5,-234.7 408.5,-234.7 408.5,-234.7 404.5007,-234.624 408.5684,-231.1006 400.5014,-234.548 400.5014,-234.548"/>
<ellipse fill="none" stroke="#000000" cx="397.302" cy="-234.4873" rx="3.2" ry="3.2"/>
</g>
<!-- offender_key_worker&#45;&gt;reference_data -->
<g id="edge4" class="edge">
<title>offender_key_worker:w&#45;&gt;reference_data:e</title>
<path fill="none" stroke="#000000" d="M393.9536,-212.7C329.0342,-212.7 307.5755,-212.7 236,-212.7"/>
<polygon fill="#000000" stroke="#000000" points="400.5,-212.7001 408.5,-216.3 404.5,-212.7 408.5,-212.7 408.5,-212.7 408.5,-212.7 404.5,-212.7 408.5,-209.1 400.5,-212.7001 400.5,-212.7001"/>
<ellipse fill="none" stroke="#000000" cx="397.3" cy="-212.7001" rx="3.2" ry="3.2"/>
</g>
</g>
</svg>
