<?xml version="1.0" encoding="UTF-8" standalone="no"?>
<!DOCTYPE svg PUBLIC "-//W3C//DTD SVG 1.1//EN"
 "http://www.w3.org/Graphics/SVG/1.1/DTD/svg11.dtd">
<!-- Generated by graphviz version 2.40.1 (20161225.0304)
 -->
<!-- Title: twoDegreesRelationshipsDiagramImplied Pages: 1 -->
<svg width="615pt" height="1077pt"
 viewBox="0.00 0.00 615.00 1077.20" xmlns="http://www.w3.org/2000/svg" xmlns:xlink="http://www.w3.org/1999/xlink">
<g id="graph0" class="graph" transform="scale(1 1) rotate(0) translate(4 1073.2)">
<title>twoDegreesRelationshipsDiagramImplied</title>
<polygon fill="#ffffff" stroke="transparent" points="-4,4 -4,-1073.2 611,-1073.2 611,4 -4,4"/>
<text text-anchor="middle" x="72.4936" y="-7.3" font-family="Helvetica,sans-Serif" font-size="11.00" fill="#000000">Generated by SchemaSpy</text>
<!-- allocation -->
<g id="node1" class="node">
<title>allocation</title>
<g id="a_node1"><a xlink:href="../../tables/allocation.html" xlink:title="allocation" target="_top">
<polygon fill="#ffffff" stroke="transparent" points="397,-366.2 397,-427.2 502,-427.2 502,-366.2 397,-366.2"/>
<polygon fill="#f5f5f5" stroke="transparent" points="397.5,-403.7 397.5,-426.7 502.5,-426.7 502.5,-403.7 397.5,-403.7"/>
<polygon fill="none" stroke="#000000" points="397.5,-403.7 397.5,-426.7 502.5,-426.7 502.5,-403.7 397.5,-403.7"/>
<text text-anchor="start" x="402.5" y="-412.3" font-family="Helvetica,sans-Serif" font-weight="bold" font-size="11.00" fill="#000000">allocation</text>
<text text-anchor="start" x="468.0219" y="-411.8" font-family="Helvetica,sans-Serif" font-size="11.00" fill="#000000">[table]</text>
<polygon fill="none" stroke="#000000" points="397.5,-384.7 397.5,-403.7 502.5,-403.7 502.5,-384.7 397.5,-384.7"/>
<text text-anchor="start" x="400.5" y="-390.8" font-family="Helvetica,sans-Serif" font-size="11.00" fill="#000000">...</text>
<polygon fill="#ffffff" stroke="transparent" points="397.5,-365.7 397.5,-384.7 448.5,-384.7 448.5,-365.7 397.5,-365.7"/>
<polygon fill="none" stroke="#000000" points="397.5,-365.7 397.5,-384.7 448.5,-384.7 448.5,-365.7 397.5,-365.7"/>
<text text-anchor="start" x="400.5" y="-371.8" font-family="Helvetica,sans-Serif" font-size="11.00" fill="#000000">&lt; 4</text>
<polygon fill="#ffffff" stroke="transparent" points="448.5,-365.7 448.5,-384.7 475.5,-384.7 475.5,-365.7 448.5,-365.7"/>
<polygon fill="none" stroke="#000000" points="448.5,-365.7 448.5,-384.7 475.5,-384.7 475.5,-365.7 448.5,-365.7"/>
<text text-anchor="start" x="466.3862" y="-371.8" font-family="Helvetica,sans-Serif" font-size="11.00" fill="#000000"> &#160;</text>
<polygon fill="#ffffff" stroke="transparent" points="475.5,-365.7 475.5,-384.7 502.5,-384.7 502.5,-365.7 475.5,-365.7"/>
<polygon fill="none" stroke="#000000" points="475.5,-365.7 475.5,-384.7 502.5,-384.7 502.5,-365.7 475.5,-365.7"/>
<text text-anchor="start" x="493.3862" y="-371.8" font-family="Helvetica,sans-Serif" font-size="11.00" fill="#000000"> &#160;</text>
</a>
</g>
</g>
<!-- prison_migration_date_history -->
<g id="node2" class="node">
<title>prison_migration_date_history</title>
<g id="a_node2"><a xlink:href="../../tables/prison_migration_date_history.html" xlink:title="prison_migration_date_history" target="_top">
<polygon fill="#ffffff" stroke="transparent" points="8,-345.2 8,-428.2 251,-428.2 251,-345.2 8,-345.2"/>
<polygon fill="#f5f5f5" stroke="transparent" points="8.5,-404.7 8.5,-427.7 251.5,-427.7 251.5,-404.7 8.5,-404.7"/>
<polygon fill="none" stroke="#000000" points="8.5,-404.7 8.5,-427.7 251.5,-427.7 251.5,-404.7 8.5,-404.7"/>
<text text-anchor="start" x="13.5" y="-413.3" font-family="Helvetica,sans-Serif" font-weight="bold" font-size="11.00" fill="#000000">prison_migration_date_history</text>
<text text-anchor="start" x="217.0219" y="-412.8" font-family="Helvetica,sans-Serif" font-size="11.00" fill="#000000">[table]</text>
<polygon fill="none" stroke="#000000" points="8.5,-382.7 8.5,-404.7 251.5,-404.7 251.5,-382.7 8.5,-382.7"/>
<image xlink:href="../../images/primaryKeys.png" width="11px" height="12px" preserveAspectRatio="xMinYMin meet" x="13.5" y="-399.7"/>
<text text-anchor="start" x="37.5" y="-389.8" font-family="Helvetica,sans-Serif" font-size="11.00" fill="#000000">prison_code</text>
<polygon fill="none" stroke="#000000" points="8.5,-363.7 8.5,-382.7 251.5,-382.7 251.5,-363.7 8.5,-363.7"/>
<text text-anchor="start" x="11.5" y="-369.8" font-family="Helvetica,sans-Serif" font-size="11.00" fill="#000000">...</text>
<polygon fill="#ffffff" stroke="transparent" points="8.5,-344.7 8.5,-363.7 119.5,-363.7 119.5,-344.7 8.5,-344.7"/>
<polygon fill="none" stroke="#000000" points="8.5,-344.7 8.5,-363.7 119.5,-363.7 119.5,-344.7 8.5,-344.7"/>
<text text-anchor="start" x="11.5" y="-350.8" font-family="Helvetica,sans-Serif" font-size="11.00" fill="#000000"> &#160;</text>
<polygon fill="#ffffff" stroke="transparent" points="119.5,-344.7 119.5,-363.7 180.5,-363.7 180.5,-344.7 119.5,-344.7"/>
<polygon fill="none" stroke="#000000" points="119.5,-344.7 119.5,-363.7 180.5,-363.7 180.5,-344.7 119.5,-344.7"/>
<text text-anchor="start" x="171.3862" y="-350.8" font-family="Helvetica,sans-Serif" font-size="11.00" fill="#000000"> &#160;</text>
<polygon fill="#ffffff" stroke="transparent" points="180.5,-344.7 180.5,-363.7 251.5,-363.7 251.5,-344.7 180.5,-344.7"/>
<polygon fill="none" stroke="#000000" points="180.5,-344.7 180.5,-363.7 251.5,-363.7 251.5,-344.7 180.5,-344.7"/>
<text text-anchor="start" x="232.9053" y="-350.8" font-family="Helvetica,sans-Serif" font-size="11.00" fill="#000000">9 &gt;</text>
</a>
</g>
</g>
<!-- allocation&#45;&gt;prison_migration_date_history -->
<g id="edge1" class="edge">
<title>allocation:w&#45;&gt;prison_migration_date_history:e</title>
<path fill="none" stroke="#000000" stroke-dasharray="5,2" d="M382.7977,-393.7C329.7009,-393.7 311.1927,-393.7 251.5,-393.7"/>
<polygon fill="#000000" stroke="#000000" points="389.5,-393.7001 397.5,-397.3 393.5,-393.7 397.5,-393.7 397.5,-393.7 397.5,-393.7 393.5,-393.7 397.5,-390.1 389.5,-393.7001 389.5,-393.7001"/>
<ellipse fill="none" stroke="#000000" cx="386.3" cy="-393.7001" rx="3.2" ry="3.2"/>
</g>
<!-- allocation_audit -->
<g id="node3" class="node">
<title>allocation_audit</title>
<g id="a_node3"><a xlink:href="../../tables/allocation_audit.html" xlink:title="allocation_audit" target="_top">
<polygon fill="#ffffff" stroke="transparent" points="376.5,-922.2 376.5,-983.2 522.5,-983.2 522.5,-922.2 376.5,-922.2"/>
<polygon fill="#f5f5f5" stroke="transparent" points="376.5,-959.7 376.5,-982.7 522.5,-982.7 522.5,-959.7 376.5,-959.7"/>
<polygon fill="none" stroke="#000000" points="376.5,-959.7 376.5,-982.7 522.5,-982.7 522.5,-959.7 376.5,-959.7"/>
<text text-anchor="start" x="381.5" y="-968.3" font-family="Helvetica,sans-Serif" font-weight="bold" font-size="11.00" fill="#000000">allocation_audit</text>
<text text-anchor="start" x="488.0219" y="-967.8" font-family="Helvetica,sans-Serif" font-size="11.00" fill="#000000">[table]</text>
<polygon fill="none" stroke="#000000" points="376.5,-940.7 376.5,-959.7 522.5,-959.7 522.5,-940.7 376.5,-940.7"/>
<text text-anchor="start" x="379.5" y="-946.8" font-family="Helvetica,sans-Serif" font-size="11.00" fill="#000000">...</text>
<polygon fill="#ffffff" stroke="transparent" points="376.5,-921.7 376.5,-940.7 447.5,-940.7 447.5,-921.7 376.5,-921.7"/>
<polygon fill="none" stroke="#000000" points="376.5,-921.7 376.5,-940.7 447.5,-940.7 447.5,-921.7 376.5,-921.7"/>
<text text-anchor="start" x="379.5" y="-927.8" font-family="Helvetica,sans-Serif" font-size="11.00" fill="#000000">&lt; 3</text>
<polygon fill="#ffffff" stroke="transparent" points="447.5,-921.7 447.5,-940.7 484.5,-940.7 484.5,-921.7 447.5,-921.7"/>
<polygon fill="none" stroke="#000000" points="447.5,-921.7 447.5,-940.7 484.5,-940.7 484.5,-921.7 447.5,-921.7"/>
<text text-anchor="start" x="475.3862" y="-927.8" font-family="Helvetica,sans-Serif" font-size="11.00" fill="#000000"> &#160;</text>
<polygon fill="#ffffff" stroke="transparent" points="484.5,-921.7 484.5,-940.7 522.5,-940.7 522.5,-921.7 484.5,-921.7"/>
<polygon fill="none" stroke="#000000" points="484.5,-921.7 484.5,-940.7 522.5,-940.7 522.5,-921.7 484.5,-921.7"/>
<text text-anchor="start" x="513.3862" y="-927.8" font-family="Helvetica,sans-Serif" font-size="11.00" fill="#000000"> &#160;</text>
</a>
</g>
</g>
<!-- allocation_audit&#45;&gt;prison_migration_date_history -->
<g id="edge2" class="edge">
<title>allocation_audit:w&#45;&gt;prison_migration_date_history:e</title>
<path fill="none" stroke="#000000" stroke-dasharray="5,2" d="M362.0183,-949.4485C330.3513,-948.1609 312.7327,-941.1685 292,-911.7 258.7808,-864.4837 309.2312,-393.7 251.5,-393.7"/>
<polygon fill="#000000" stroke="#000000" points="368.5012,-949.561 376.4375,-953.2995 372.5006,-949.6305 376.5,-949.7 376.5,-949.7 376.5,-949.7 372.5006,-949.6305 376.5625,-946.1005 368.5012,-949.561 368.5012,-949.561"/>
<ellipse fill="none" stroke="#000000" cx="365.3017" cy="-949.5055" rx="3.2" ry="3.2"/>
</g>
<!-- audit_revision -->
<g id="node4" class="node">
<title>audit_revision</title>
<g id="a_node4"><a xlink:href="../../tables/audit_revision.html" xlink:title="audit_revision" target="_top">
<polygon fill="#ffffff" stroke="transparent" points="62.5,-816.2 62.5,-899.2 196.5,-899.2 196.5,-816.2 62.5,-816.2"/>
<polygon fill="#f5f5f5" stroke="transparent" points="62.5,-875.7 62.5,-898.7 196.5,-898.7 196.5,-875.7 62.5,-875.7"/>
<polygon fill="none" stroke="#000000" points="62.5,-875.7 62.5,-898.7 196.5,-898.7 196.5,-875.7 62.5,-875.7"/>
<text text-anchor="start" x="67.5" y="-884.3" font-family="Helvetica,sans-Serif" font-weight="bold" font-size="11.00" fill="#000000">audit_revision</text>
<text text-anchor="start" x="162.0219" y="-883.8" font-family="Helvetica,sans-Serif" font-size="11.00" fill="#000000">[table]</text>
<polygon fill="none" stroke="#000000" points="62.5,-853.7 62.5,-875.7 196.5,-875.7 196.5,-853.7 62.5,-853.7"/>
<image xlink:href="../../images/primaryKeys.png" width="11px" height="12px" preserveAspectRatio="xMinYMin meet" x="67.5" y="-870.7"/>
<text text-anchor="start" x="82.5" y="-860.8" font-family="Helvetica,sans-Serif" font-size="11.00" fill="#000000">id</text>
<polygon fill="none" stroke="#000000" points="62.5,-834.7 62.5,-853.7 196.5,-853.7 196.5,-834.7 62.5,-834.7"/>
<text text-anchor="start" x="65.5" y="-840.8" font-family="Helvetica,sans-Serif" font-size="11.00" fill="#000000">...</text>
<polygon fill="#ffffff" stroke="transparent" points="62.5,-815.7 62.5,-834.7 118.5,-834.7 118.5,-815.7 62.5,-815.7"/>
<polygon fill="none" stroke="#000000" points="62.5,-815.7 62.5,-834.7 118.5,-834.7 118.5,-815.7 62.5,-815.7"/>
<text text-anchor="start" x="65.5" y="-821.8" font-family="Helvetica,sans-Serif" font-size="11.00" fill="#000000"> &#160;</text>
<polygon fill="#ffffff" stroke="transparent" points="118.5,-815.7 118.5,-834.7 152.5,-834.7 152.5,-815.7 118.5,-815.7"/>
<polygon fill="none" stroke="#000000" points="118.5,-815.7 118.5,-834.7 152.5,-834.7 152.5,-815.7 118.5,-815.7"/>
<text text-anchor="start" x="143.3862" y="-821.8" font-family="Helvetica,sans-Serif" font-size="11.00" fill="#000000"> &#160;</text>
<polygon fill="#ffffff" stroke="transparent" points="152.5,-815.7 152.5,-834.7 196.5,-834.7 196.5,-815.7 152.5,-815.7"/>
<polygon fill="none" stroke="#000000" points="152.5,-815.7 152.5,-834.7 196.5,-834.7 196.5,-815.7 152.5,-815.7"/>
<text text-anchor="start" x="177.9053" y="-821.8" font-family="Helvetica,sans-Serif" font-size="11.00" fill="#000000">5 &gt;</text>
</a>
</g>
</g>
<!-- allocation_audit&#45;&gt;audit_revision -->
<g id="edge3" class="edge">
<title>allocation_audit:w&#45;&gt;audit_revision:e</title>
<path fill="none" stroke="#000000" d="M361.7938,-948.8587C287.3772,-940.0309 279.7874,-864.7 196.5,-864.7"/>
<polygon fill="#000000" stroke="#000000" points="368.5131,-949.2431 376.2944,-953.2941 372.5065,-949.4715 376.5,-949.7 376.5,-949.7 376.5,-949.7 372.5065,-949.4715 376.7056,-946.1059 368.5131,-949.2431 368.5131,-949.2431"/>
<ellipse fill="none" stroke="#000000" cx="365.3183" cy="-949.0603" rx="3.2" ry="3.2"/>
</g>
<!-- allocation_case_note -->
<g id="node5" class="node">
<title>allocation_case_note</title>
<g id="a_node5"><a xlink:href="../../tables/allocation_case_note.html" xlink:title="allocation_case_note" target="_top">
<polygon fill="#ffffff" stroke="transparent" points="360.5,-284.2 360.5,-345.2 538.5,-345.2 538.5,-284.2 360.5,-284.2"/>
<polygon fill="#f5f5f5" stroke="transparent" points="360.5,-321.7 360.5,-344.7 538.5,-344.7 538.5,-321.7 360.5,-321.7"/>
<polygon fill="none" stroke="#000000" points="360.5,-321.7 360.5,-344.7 538.5,-344.7 538.5,-321.7 360.5,-321.7"/>
<text text-anchor="start" x="365.5" y="-330.3" font-family="Helvetica,sans-Serif" font-weight="bold" font-size="11.00" fill="#000000">allocation_case_note</text>
<text text-anchor="start" x="504.0219" y="-329.8" font-family="Helvetica,sans-Serif" font-size="11.00" fill="#000000">[table]</text>
<polygon fill="none" stroke="#000000" points="360.5,-302.7 360.5,-321.7 538.5,-321.7 538.5,-302.7 360.5,-302.7"/>
<text text-anchor="start" x="363.5" y="-308.8" font-family="Helvetica,sans-Serif" font-size="11.00" fill="#000000">...</text>
<polygon fill="#ffffff" stroke="transparent" points="360.5,-283.7 360.5,-302.7 447.5,-302.7 447.5,-283.7 360.5,-283.7"/>
<polygon fill="none" stroke="#000000" points="360.5,-283.7 360.5,-302.7 447.5,-302.7 447.5,-283.7 360.5,-283.7"/>
<text text-anchor="start" x="363.5" y="-289.8" font-family="Helvetica,sans-Serif" font-size="11.00" fill="#000000">&lt; 1</text>
<polygon fill="#ffffff" stroke="transparent" points="447.5,-283.7 447.5,-302.7 492.5,-302.7 492.5,-283.7 447.5,-283.7"/>
<polygon fill="none" stroke="#000000" points="447.5,-283.7 447.5,-302.7 492.5,-302.7 492.5,-283.7 447.5,-283.7"/>
<text text-anchor="start" x="483.3862" y="-289.8" font-family="Helvetica,sans-Serif" font-size="11.00" fill="#000000"> &#160;</text>
<polygon fill="#ffffff" stroke="transparent" points="492.5,-283.7 492.5,-302.7 538.5,-302.7 538.5,-283.7 492.5,-283.7"/>
<polygon fill="none" stroke="#000000" points="492.5,-283.7 492.5,-302.7 538.5,-302.7 538.5,-283.7 492.5,-283.7"/>
<text text-anchor="start" x="529.3862" y="-289.8" font-family="Helvetica,sans-Serif" font-size="11.00" fill="#000000"> &#160;</text>
</a>
</g>
</g>
<!-- allocation_case_note&#45;&gt;prison_migration_date_history -->
<g id="edge4" class="edge">
<title>allocation_case_note:w&#45;&gt;prison_migration_date_history:e</title>
<path fill="none" stroke="#000000" stroke-dasharray="5,2" d="M346.0168,-313.1392C322.5894,-318.3386 316.1877,-336.8399 292,-355.7 272.5352,-370.8775 276.1827,-393.7 251.5,-393.7"/>
<polygon fill="#000000" stroke="#000000" points="352.5392,-312.4911 360.856,-315.2824 356.5196,-312.0956 360.5,-311.7 360.5,-311.7 360.5,-311.7 356.5196,-312.0956 360.144,-308.1176 352.5392,-312.4911 352.5392,-312.4911"/>
<ellipse fill="none" stroke="#000000" cx="349.3549" cy="-312.8076" rx="3.2" ry="3.2"/>
</g>
<!-- allocation_case_note_audit -->
<g id="node6" class="node">
<title>allocation_case_note_audit</title>
<g id="a_node6"><a xlink:href="../../tables/allocation_case_note_audit.html" xlink:title="allocation_case_note_audit" target="_top">
<polygon fill="#ffffff" stroke="transparent" points="300,-612.7 300,-900.7 599,-900.7 599,-612.7 300,-612.7"/>
<polygon fill="#f5f5f5" stroke="transparent" points="302.5,-875.7 302.5,-898.7 597.5,-898.7 597.5,-875.7 302.5,-875.7"/>
<polygon fill="none" stroke="#000000" points="302.5,-875.7 302.5,-898.7 597.5,-898.7 597.5,-875.7 302.5,-875.7"/>
<text text-anchor="start" x="307.5" y="-884.3" font-family="Helvetica,sans-Serif" font-weight="bold" font-size="11.00" fill="#000000">allocation_case_note_audit</text>
<text text-anchor="start" x="562.5437" y="-883.8" font-family="Helvetica,sans-Serif" font-size="11.00" fill="#000000">[table]</text>
<polygon fill="none" stroke="#000000" points="302.5,-853.7 302.5,-875.7 503.5,-875.7 503.5,-853.7 302.5,-853.7"/>
<image xlink:href="../../images/foreignKeys.png" width="11px" height="12px" preserveAspectRatio="xMinYMin meet" x="307.5" y="-870.7"/>
<text text-anchor="start" x="322.5" y="-860.8" font-family="Helvetica,sans-Serif" font-size="11.00" fill="#000000">rev_id</text>
<polygon fill="none" stroke="#000000" points="503.5,-853.7 503.5,-875.7 597.5,-875.7 597.5,-853.7 503.5,-853.7"/>
<text text-anchor="start" x="506.5" y="-861.4" font-family="Helvetica,sans-Serif" font-size="11.00" fill="#000000">int8[19]</text>
<polygon fill="none" stroke="#000000" points="302.5,-831.7 302.5,-853.7 503.5,-853.7 503.5,-831.7 302.5,-831.7"/>
<text text-anchor="start" x="322.5" y="-838.8" font-family="Helvetica,sans-Serif" font-size="11.00" fill="#000000">rev_type</text>
<polygon fill="none" stroke="#000000" points="503.5,-831.7 503.5,-853.7 597.5,-853.7 597.5,-831.7 503.5,-831.7"/>
<text text-anchor="start" x="506.5" y="-839.4" font-family="Helvetica,sans-Serif" font-size="11.00" fill="#000000">int2[5]</text>
<polygon fill="none" stroke="#000000" points="302.5,-809.7 302.5,-831.7 503.5,-831.7 503.5,-809.7 302.5,-809.7"/>
<text text-anchor="start" x="322.5" y="-816.8" font-family="Helvetica,sans-Serif" font-size="11.00" fill="#000000">id</text>
<polygon fill="none" stroke="#000000" points="503.5,-809.7 503.5,-831.7 597.5,-831.7 597.5,-809.7 503.5,-809.7"/>
<text text-anchor="start" x="506.4758" y="-817.4" font-family="Helvetica,sans-Serif" font-size="11.00" fill="#000000">uuid[2147483647]</text>
<polygon fill="none" stroke="#000000" points="302.5,-787.7 302.5,-809.7 503.5,-809.7 503.5,-787.7 302.5,-787.7"/>
<image xlink:href="../../images/foreignKeys.png" width="11px" height="12px" preserveAspectRatio="xMinYMin meet" x="307.5" y="-804.7"/>
<text text-anchor="start" x="322.5" y="-794.8" font-family="Helvetica,sans-Serif" font-size="11.00" fill="#000000">prison_code</text>
<polygon fill="none" stroke="#000000" points="503.5,-787.7 503.5,-809.7 597.5,-809.7 597.5,-787.7 503.5,-787.7"/>
<text text-anchor="start" x="506.5" y="-795.4" font-family="Helvetica,sans-Serif" font-size="11.00" fill="#000000">varchar[6]</text>
<polygon fill="none" stroke="#000000" points="302.5,-765.7 302.5,-787.7 503.5,-787.7 503.5,-765.7 302.5,-765.7"/>
<text text-anchor="start" x="322.5" y="-772.8" font-family="Helvetica,sans-Serif" font-size="11.00" fill="#000000">person_identifier</text>
<polygon fill="none" stroke="#000000" points="503.5,-765.7 503.5,-787.7 597.5,-787.7 597.5,-765.7 503.5,-765.7"/>
<text text-anchor="start" x="506.5" y="-773.4" font-family="Helvetica,sans-Serif" font-size="11.00" fill="#000000">varchar[7]</text>
<polygon fill="none" stroke="#000000" points="302.5,-743.7 302.5,-765.7 503.5,-765.7 503.5,-743.7 302.5,-743.7"/>
<text text-anchor="start" x="322.5" y="-750.8" font-family="Helvetica,sans-Serif" font-size="11.00" fill="#000000">staff_id</text>
<polygon fill="none" stroke="#000000" points="503.5,-743.7 503.5,-765.7 597.5,-765.7 597.5,-743.7 503.5,-743.7"/>
<text text-anchor="start" x="506.5" y="-751.4" font-family="Helvetica,sans-Serif" font-size="11.00" fill="#000000">int8[19]</text>
<polygon fill="none" stroke="#000000" points="302.5,-721.7 302.5,-743.7 503.5,-743.7 503.5,-721.7 302.5,-721.7"/>
<text text-anchor="start" x="322.5" y="-728.8" font-family="Helvetica,sans-Serif" font-size="11.00" fill="#000000">username</text>
<polygon fill="none" stroke="#000000" points="503.5,-721.7 503.5,-743.7 597.5,-743.7 597.5,-721.7 503.5,-721.7"/>
<text text-anchor="start" x="506.5" y="-729.4" font-family="Helvetica,sans-Serif" font-size="11.00" fill="#000000">varchar[64]</text>
<polygon fill="none" stroke="#000000" points="302.5,-699.7 302.5,-721.7 503.5,-721.7 503.5,-699.7 302.5,-699.7"/>
<text text-anchor="start" x="322.5" y="-706.8" font-family="Helvetica,sans-Serif" font-size="11.00" fill="#000000">type</text>
<polygon fill="none" stroke="#000000" points="503.5,-699.7 503.5,-721.7 597.5,-721.7 597.5,-699.7 503.5,-699.7"/>
<text text-anchor="start" x="506.5" y="-707.4" font-family="Helvetica,sans-Serif" font-size="11.00" fill="#000000">varchar[12]</text>
<polygon fill="none" stroke="#000000" points="302.5,-677.7 302.5,-699.7 503.5,-699.7 503.5,-677.7 302.5,-677.7"/>
<text text-anchor="start" x="322.5" y="-684.8" font-family="Helvetica,sans-Serif" font-size="11.00" fill="#000000">sub_type</text>
<polygon fill="none" stroke="#000000" points="503.5,-677.7 503.5,-699.7 597.5,-699.7 597.5,-677.7 503.5,-677.7"/>
<text text-anchor="start" x="506.5" y="-685.4" font-family="Helvetica,sans-Serif" font-size="11.00" fill="#000000">varchar[12]</text>
<polygon fill="none" stroke="#000000" points="302.5,-655.7 302.5,-677.7 503.5,-677.7 503.5,-655.7 302.5,-655.7"/>
<text text-anchor="start" x="322.5" y="-662.8" font-family="Helvetica,sans-Serif" font-size="11.00" fill="#000000">occurred_at</text>
<polygon fill="none" stroke="#000000" points="503.5,-655.7 503.5,-677.7 597.5,-677.7 597.5,-655.7 503.5,-655.7"/>
<text text-anchor="start" x="506.5" y="-663.4" font-family="Helvetica,sans-Serif" font-size="11.00" fill="#000000">timestamp[29,6]</text>
<polygon fill="none" stroke="#000000" points="302.5,-633.7 302.5,-655.7 503.5,-655.7 503.5,-633.7 302.5,-633.7"/>
<text text-anchor="start" x="322.5" y="-640.8" font-family="Helvetica,sans-Serif" font-size="11.00" fill="#000000">created_at</text>
<polygon fill="none" stroke="#000000" points="503.5,-633.7 503.5,-655.7 597.5,-655.7 597.5,-633.7 503.5,-633.7"/>
<text text-anchor="start" x="506.5" y="-641.4" font-family="Helvetica,sans-Serif" font-size="11.00" fill="#000000">timestamp[29,6]</text>
<polygon fill="#ffffff" stroke="transparent" points="302.5,-614.7 302.5,-633.7 407.5,-633.7 407.5,-614.7 302.5,-614.7"/>
<polygon fill="none" stroke="#000000" points="302.5,-614.7 302.5,-633.7 407.5,-633.7 407.5,-614.7 302.5,-614.7"/>
<text text-anchor="start" x="305.5" y="-620.8" font-family="Helvetica,sans-Serif" font-size="11.00" fill="#000000">&lt; 2</text>
<polygon fill="#ffffff" stroke="transparent" points="407.5,-614.7 407.5,-633.7 503.5,-633.7 503.5,-614.7 407.5,-614.7"/>
<polygon fill="none" stroke="#000000" points="407.5,-614.7 407.5,-633.7 503.5,-633.7 503.5,-614.7 407.5,-614.7"/>
<text text-anchor="start" x="494.3862" y="-620.8" font-family="Helvetica,sans-Serif" font-size="11.00" fill="#000000"> &#160;</text>
<polygon fill="#ffffff" stroke="transparent" points="503.5,-614.7 503.5,-633.7 597.5,-633.7 597.5,-614.7 503.5,-614.7"/>
<polygon fill="none" stroke="#000000" points="503.5,-614.7 503.5,-633.7 597.5,-633.7 597.5,-614.7 503.5,-614.7"/>
<text text-anchor="start" x="578.9053" y="-620.8" font-family="Helvetica,sans-Serif" font-size="11.00" fill="#000000">0 &gt;</text>
<polygon fill="none" stroke="#000000" stroke-width="2" points="301,-613.7 301,-899.7 598,-899.7 598,-613.7 301,-613.7"/>
</a>
</g>
</g>
<!-- allocation_case_note_audit&#45;&gt;prison_migration_date_history -->
<g id="edge5" class="edge">
<title>allocation_case_note_audit:w&#45;&gt;prison_migration_date_history:e</title>
<path fill="none" stroke="#000000" stroke-dasharray="5,2" d="M288.357,-794.4257C226.7718,-751.1417 336.7185,-393.7 251.5,-393.7"/>
<polygon fill="#000000" stroke="#000000" points="294.8421,-796.3856 301.4585,-802.1461 298.671,-797.5428 302.5,-798.7 302.5,-798.7 302.5,-798.7 298.671,-797.5428 303.5415,-795.2539 294.8421,-796.3856 294.8421,-796.3856"/>
<ellipse fill="none" stroke="#000000" cx="291.7789" cy="-795.4598" rx="3.2" ry="3.2"/>
</g>
<!-- allocation_case_note_audit&#45;&gt;audit_revision -->
<g id="edge6" class="edge">
<title>allocation_case_note_audit:w&#45;&gt;audit_revision:e</title>
<path fill="none" stroke="#000000" d="M287.7471,-864.7C252.2671,-864.7 238.2743,-864.7 196.5,-864.7"/>
<polygon fill="#000000" stroke="#000000" points="294.5,-864.7001 302.5,-868.3 298.5,-864.7 302.5,-864.7 302.5,-864.7 302.5,-864.7 298.5,-864.7 302.5,-861.1 294.5,-864.7001 294.5,-864.7001"/>
<ellipse fill="none" stroke="#000000" cx="291.3" cy="-864.7001" rx="3.2" ry="3.2"/>
</g>
<!-- prison_configuration -->
<g id="node7" class="node">
<title>prison_configuration</title>
<g id="a_node7"><a xlink:href="../../tables/prison_configuration.html" xlink:title="prison_configuration" target="_top">
<polygon fill="#ffffff" stroke="transparent" points="360.5,-202.2 360.5,-263.2 538.5,-263.2 538.5,-202.2 360.5,-202.2"/>
<polygon fill="#f5f5f5" stroke="transparent" points="360.5,-239.7 360.5,-262.7 538.5,-262.7 538.5,-239.7 360.5,-239.7"/>
<polygon fill="none" stroke="#000000" points="360.5,-239.7 360.5,-262.7 538.5,-262.7 538.5,-239.7 360.5,-239.7"/>
<text text-anchor="start" x="365.5" y="-248.3" font-family="Helvetica,sans-Serif" font-weight="bold" font-size="11.00" fill="#000000">prison_configuration</text>
<text text-anchor="start" x="504.0219" y="-247.8" font-family="Helvetica,sans-Serif" font-size="11.00" fill="#000000">[table]</text>
<polygon fill="none" stroke="#000000" points="360.5,-220.7 360.5,-239.7 538.5,-239.7 538.5,-220.7 360.5,-220.7"/>
<text text-anchor="start" x="363.5" y="-226.8" font-family="Helvetica,sans-Serif" font-size="11.00" fill="#000000">...</text>
<polygon fill="#ffffff" stroke="transparent" points="360.5,-201.7 360.5,-220.7 431.5,-220.7 431.5,-201.7 360.5,-201.7"/>
<polygon fill="none" stroke="#000000" points="360.5,-201.7 360.5,-220.7 431.5,-220.7 431.5,-201.7 360.5,-201.7"/>
<text text-anchor="start" x="363.5" y="-207.8" font-family="Helvetica,sans-Serif" font-size="11.00" fill="#000000">&lt; 2</text>
<polygon fill="#ffffff" stroke="transparent" points="431.5,-201.7 431.5,-220.7 500.5,-220.7 500.5,-201.7 431.5,-201.7"/>
<polygon fill="none" stroke="#000000" points="431.5,-201.7 431.5,-220.7 500.5,-220.7 500.5,-201.7 431.5,-201.7"/>
<text text-anchor="start" x="458.9956" y="-207.8" font-family="Helvetica,sans-Serif" font-size="11.00" fill="#000000">12 rows</text>
<polygon fill="#ffffff" stroke="transparent" points="500.5,-201.7 500.5,-220.7 538.5,-220.7 538.5,-201.7 500.5,-201.7"/>
<polygon fill="none" stroke="#000000" points="500.5,-201.7 500.5,-220.7 538.5,-220.7 538.5,-201.7 500.5,-201.7"/>
<text text-anchor="start" x="529.3862" y="-207.8" font-family="Helvetica,sans-Serif" font-size="11.00" fill="#000000"> &#160;</text>
</a>
</g>
</g>
<!-- prison_configuration&#45;&gt;prison_migration_date_history -->
<g id="edge7" class="edge">
<title>prison_configuration:w&#45;&gt;prison_migration_date_history:e</title>
<path fill="none" stroke="#000000" stroke-dasharray="5,2" d="M345.9886,-230.7149C321.062,-234.5814 310.9567,-249.4084 292,-273.7 257.3701,-318.0758 307.7889,-393.7 251.5,-393.7"/>
<polygon fill="#000000" stroke="#000000" points="352.5195,-230.2582 360.7512,-233.2912 356.5097,-229.9791 360.5,-229.7 360.5,-229.7 360.5,-229.7 356.5097,-229.9791 360.2488,-226.1088 352.5195,-230.2582 352.5195,-230.2582"/>
<ellipse fill="none" stroke="#000000" cx="349.3273" cy="-230.4815" rx="3.2" ry="3.2"/>
</g>
<!-- prison_configuration_audit -->
<g id="node8" class="node">
<title>prison_configuration_audit</title>
<g id="a_node8"><a xlink:href="../../tables/prison_configuration_audit.html" xlink:title="prison_configuration_audit" target="_top">
<polygon fill="#ffffff" stroke="transparent" points="340,-530.2 340,-591.2 559,-591.2 559,-530.2 340,-530.2"/>
<polygon fill="#f5f5f5" stroke="transparent" points="340.5,-567.7 340.5,-590.7 559.5,-590.7 559.5,-567.7 340.5,-567.7"/>
<polygon fill="none" stroke="#000000" points="340.5,-567.7 340.5,-590.7 559.5,-590.7 559.5,-567.7 340.5,-567.7"/>
<text text-anchor="start" x="345.5" y="-576.3" font-family="Helvetica,sans-Serif" font-weight="bold" font-size="11.00" fill="#000000">prison_configuration_audit</text>
<text text-anchor="start" x="525.0219" y="-575.8" font-family="Helvetica,sans-Serif" font-size="11.00" fill="#000000">[table]</text>
<polygon fill="none" stroke="#000000" points="340.5,-548.7 340.5,-567.7 559.5,-567.7 559.5,-548.7 340.5,-548.7"/>
<text text-anchor="start" x="343.5" y="-554.8" font-family="Helvetica,sans-Serif" font-size="11.00" fill="#000000">...</text>
<polygon fill="#ffffff" stroke="transparent" points="340.5,-529.7 340.5,-548.7 448.5,-548.7 448.5,-529.7 340.5,-529.7"/>
<polygon fill="none" stroke="#000000" points="340.5,-529.7 340.5,-548.7 448.5,-548.7 448.5,-529.7 340.5,-529.7"/>
<text text-anchor="start" x="343.5" y="-535.8" font-family="Helvetica,sans-Serif" font-size="11.00" fill="#000000">&lt; 3</text>
<polygon fill="#ffffff" stroke="transparent" points="448.5,-529.7 448.5,-548.7 503.5,-548.7 503.5,-529.7 448.5,-529.7"/>
<polygon fill="none" stroke="#000000" points="448.5,-529.7 448.5,-548.7 503.5,-548.7 503.5,-529.7 448.5,-529.7"/>
<text text-anchor="start" x="494.3862" y="-535.8" font-family="Helvetica,sans-Serif" font-size="11.00" fill="#000000"> &#160;</text>
<polygon fill="#ffffff" stroke="transparent" points="503.5,-529.7 503.5,-548.7 559.5,-548.7 559.5,-529.7 503.5,-529.7"/>
<polygon fill="none" stroke="#000000" points="503.5,-529.7 503.5,-548.7 559.5,-548.7 559.5,-529.7 503.5,-529.7"/>
<text text-anchor="start" x="550.3862" y="-535.8" font-family="Helvetica,sans-Serif" font-size="11.00" fill="#000000"> &#160;</text>
</a>
</g>
</g>
<!-- prison_configuration_audit&#45;&gt;prison_migration_date_history -->
<g id="edge8" class="edge">
<title>prison_configuration_audit:w&#45;&gt;prison_migration_date_history:e</title>
<path fill="none" stroke="#000000" stroke-dasharray="5,2" d="M325.7961,-555.7073C310.3589,-550.8385 304.3534,-537.428 292,-519.7 258.3706,-471.4396 310.3218,-393.7 251.5,-393.7"/>
<polygon fill="#000000" stroke="#000000" points="332.5725,-556.6256 340.0165,-561.2674 336.5362,-557.1628 340.5,-557.7 340.5,-557.7 340.5,-557.7 336.5362,-557.1628 340.9835,-554.1326 332.5725,-556.6256 332.5725,-556.6256"/>
<ellipse fill="none" stroke="#000000" cx="329.4015" cy="-556.1958" rx="3.2" ry="3.2"/>
</g>
<!-- prison_configuration_audit&#45;&gt;audit_revision -->
<g id="edge9" class="edge">
<title>prison_configuration_audit:w&#45;&gt;audit_revision:e</title>
<path fill="none" stroke="#000000" d="M326.1018,-558.7514C200.1924,-578.3277 342.0574,-864.7 196.5,-864.7"/>
<polygon fill="#000000" stroke="#000000" points="332.5212,-558.2827 340.7622,-561.2904 336.5106,-557.9914 340.5,-557.7 340.5,-557.7 340.5,-557.7 336.5106,-557.9914 340.2378,-554.1096 332.5212,-558.2827 332.5212,-558.2827"/>
<ellipse fill="none" stroke="#000000" cx="329.3297" cy="-558.5158" rx="3.2" ry="3.2"/>
</g>
<!-- prison_statistic -->
<g id="node9" class="node">
<title>prison_statistic</title>
<g id="a_node9"><a xlink:href="../../tables/prison_statistic.html" xlink:title="prison_statistic" target="_top">
<polygon fill="#ffffff" stroke="transparent" points="378.5,-120.2 378.5,-181.2 520.5,-181.2 520.5,-120.2 378.5,-120.2"/>
<polygon fill="#f5f5f5" stroke="transparent" points="378.5,-157.7 378.5,-180.7 520.5,-180.7 520.5,-157.7 378.5,-157.7"/>
<polygon fill="none" stroke="#000000" points="378.5,-157.7 378.5,-180.7 520.5,-180.7 520.5,-157.7 378.5,-157.7"/>
<text text-anchor="start" x="383.5" y="-166.3" font-family="Helvetica,sans-Serif" font-weight="bold" font-size="11.00" fill="#000000">prison_statistic</text>
<text text-anchor="start" x="486.0219" y="-165.8" font-family="Helvetica,sans-Serif" font-size="11.00" fill="#000000">[table]</text>
<polygon fill="none" stroke="#000000" points="378.5,-138.7 378.5,-157.7 520.5,-157.7 520.5,-138.7 378.5,-138.7"/>
<text text-anchor="start" x="381.5" y="-144.8" font-family="Helvetica,sans-Serif" font-size="11.00" fill="#000000">...</text>
<polygon fill="#ffffff" stroke="transparent" points="378.5,-119.7 378.5,-138.7 447.5,-138.7 447.5,-119.7 378.5,-119.7"/>
<polygon fill="none" stroke="#000000" points="378.5,-119.7 378.5,-138.7 447.5,-138.7 447.5,-119.7 378.5,-119.7"/>
<text text-anchor="start" x="381.5" y="-125.8" font-family="Helvetica,sans-Serif" font-size="11.00" fill="#000000">&lt; 2</text>
<polygon fill="#ffffff" stroke="transparent" points="447.5,-119.7 447.5,-138.7 483.5,-138.7 483.5,-119.7 447.5,-119.7"/>
<polygon fill="none" stroke="#000000" points="447.5,-119.7 447.5,-138.7 483.5,-138.7 483.5,-119.7 447.5,-119.7"/>
<text text-anchor="start" x="474.3862" y="-125.8" font-family="Helvetica,sans-Serif" font-size="11.00" fill="#000000"> &#160;</text>
<polygon fill="#ffffff" stroke="transparent" points="483.5,-119.7 483.5,-138.7 520.5,-138.7 520.5,-119.7 483.5,-119.7"/>
<polygon fill="none" stroke="#000000" points="483.5,-119.7 483.5,-138.7 520.5,-138.7 520.5,-119.7 483.5,-119.7"/>
<text text-anchor="start" x="511.3862" y="-125.8" font-family="Helvetica,sans-Serif" font-size="11.00" fill="#000000"> &#160;</text>
</a>
</g>
</g>
<!-- prison_statistic&#45;&gt;prison_migration_date_history -->
<g id="edge10" class="edge">
<title>prison_statistic:w&#45;&gt;prison_migration_date_history:e</title>
<path fill="none" stroke="#000000" stroke-dasharray="5,2" d="M363.9059,-148.1508C331.0499,-150.3968 314.9136,-161.4994 292,-191.7 236.6554,-264.6454 343.0645,-393.7 251.5,-393.7"/>
<polygon fill="#000000" stroke="#000000" points="370.5038,-147.947 378.6112,-151.2983 374.5019,-147.8235 378.5,-147.7 378.5,-147.7 378.5,-147.7 374.5019,-147.8235 378.3888,-144.1017 370.5038,-147.947 370.5038,-147.947"/>
<ellipse fill="none" stroke="#000000" cx="367.3053" cy="-148.0459" rx="3.2" ry="3.2"/>
</g>
<!-- staff_configuration_audit -->
<g id="node10" class="node">
<title>staff_configuration_audit</title>
<g id="a_node10"><a xlink:href="../../tables/staff_configuration_audit.html" xlink:title="staff_configuration_audit" target="_top">
<polygon fill="#ffffff" stroke="transparent" points="345.5,-1004.2 345.5,-1065.2 553.5,-1065.2 553.5,-1004.2 345.5,-1004.2"/>
<polygon fill="#f5f5f5" stroke="transparent" points="345.5,-1041.7 345.5,-1064.7 553.5,-1064.7 553.5,-1041.7 345.5,-1041.7"/>
<polygon fill="none" stroke="#000000" points="345.5,-1041.7 345.5,-1064.7 553.5,-1064.7 553.5,-1041.7 345.5,-1041.7"/>
<text text-anchor="start" x="350.5" y="-1050.3" font-family="Helvetica,sans-Serif" font-weight="bold" font-size="11.00" fill="#000000">staff_configuration_audit</text>
<text text-anchor="start" x="519.0219" y="-1049.8" font-family="Helvetica,sans-Serif" font-size="11.00" fill="#000000">[table]</text>
<polygon fill="none" stroke="#000000" points="345.5,-1022.7 345.5,-1041.7 553.5,-1041.7 553.5,-1022.7 345.5,-1022.7"/>
<text text-anchor="start" x="348.5" y="-1028.8" font-family="Helvetica,sans-Serif" font-size="11.00" fill="#000000">...</text>
<polygon fill="#ffffff" stroke="transparent" points="345.5,-1003.7 345.5,-1022.7 447.5,-1022.7 447.5,-1003.7 345.5,-1003.7"/>
<polygon fill="none" stroke="#000000" points="345.5,-1003.7 345.5,-1022.7 447.5,-1022.7 447.5,-1003.7 345.5,-1003.7"/>
<text text-anchor="start" x="348.5" y="-1009.8" font-family="Helvetica,sans-Serif" font-size="11.00" fill="#000000">&lt; 1</text>
<polygon fill="#ffffff" stroke="transparent" points="447.5,-1003.7 447.5,-1022.7 500.5,-1022.7 500.5,-1003.7 447.5,-1003.7"/>
<polygon fill="none" stroke="#000000" points="447.5,-1003.7 447.5,-1022.7 500.5,-1022.7 500.5,-1003.7 447.5,-1003.7"/>
<text text-anchor="start" x="491.3862" y="-1009.8" font-family="Helvetica,sans-Serif" font-size="11.00" fill="#000000"> &#160;</text>
<polygon fill="#ffffff" stroke="transparent" points="500.5,-1003.7 500.5,-1022.7 553.5,-1022.7 553.5,-1003.7 500.5,-1003.7"/>
<polygon fill="none" stroke="#000000" points="500.5,-1003.7 500.5,-1022.7 553.5,-1022.7 553.5,-1003.7 500.5,-1003.7"/>
<text text-anchor="start" x="544.3862" y="-1009.8" font-family="Helvetica,sans-Serif" font-size="11.00" fill="#000000"> &#160;</text>
</a>
</g>
</g>
<!-- staff_configuration_audit&#45;&gt;audit_revision -->
<g id="edge11" class="edge">
<title>staff_configuration_audit:w&#45;&gt;audit_revision:e</title>
<path fill="none" stroke="#000000" d="M330.9662,-1030.3557C250.8815,-1014.5511 290.7247,-864.7 196.5,-864.7"/>
<polygon fill="#000000" stroke="#000000" points="337.534,-1030.9632 345.1684,-1035.2847 341.517,-1031.3316 345.5,-1031.7 345.5,-1031.7 345.5,-1031.7 341.517,-1031.3316 345.8316,-1028.1153 337.534,-1030.9632 337.534,-1030.9632"/>
<ellipse fill="none" stroke="#000000" cx="334.3476" cy="-1030.6684" rx="3.2" ry="3.2"/>
</g>
<!-- staff_role -->
<g id="node11" class="node">
<title>staff_role</title>
<g id="a_node11"><a xlink:href="../../tables/staff_role.html" xlink:title="staff_role" target="_top">
<polygon fill="#ffffff" stroke="transparent" points="398.5,-38.2 398.5,-99.2 500.5,-99.2 500.5,-38.2 398.5,-38.2"/>
<polygon fill="#f5f5f5" stroke="transparent" points="398.5,-75.7 398.5,-98.7 500.5,-98.7 500.5,-75.7 398.5,-75.7"/>
<polygon fill="none" stroke="#000000" points="398.5,-75.7 398.5,-98.7 500.5,-98.7 500.5,-75.7 398.5,-75.7"/>
<text text-anchor="start" x="403.5" y="-84.3" font-family="Helvetica,sans-Serif" font-weight="bold" font-size="11.00" fill="#000000">staff_role</text>
<text text-anchor="start" x="466.0219" y="-83.8" font-family="Helvetica,sans-Serif" font-size="11.00" fill="#000000">[table]</text>
<polygon fill="none" stroke="#000000" points="398.5,-56.7 398.5,-75.7 500.5,-75.7 500.5,-56.7 398.5,-56.7"/>
<text text-anchor="start" x="401.5" y="-62.8" font-family="Helvetica,sans-Serif" font-size="11.00" fill="#000000">...</text>
<polygon fill="#ffffff" stroke="transparent" points="398.5,-37.7 398.5,-56.7 447.5,-56.7 447.5,-37.7 398.5,-37.7"/>
<polygon fill="none" stroke="#000000" points="398.5,-37.7 398.5,-56.7 447.5,-56.7 447.5,-37.7 398.5,-37.7"/>
<text text-anchor="start" x="401.5" y="-43.8" font-family="Helvetica,sans-Serif" font-size="11.00" fill="#000000">&lt; 2</text>
<polygon fill="#ffffff" stroke="transparent" points="447.5,-37.7 447.5,-56.7 473.5,-56.7 473.5,-37.7 447.5,-37.7"/>
<polygon fill="none" stroke="#000000" points="447.5,-37.7 447.5,-56.7 473.5,-56.7 473.5,-37.7 447.5,-37.7"/>
<text text-anchor="start" x="464.3862" y="-43.8" font-family="Helvetica,sans-Serif" font-size="11.00" fill="#000000"> &#160;</text>
<polygon fill="#ffffff" stroke="transparent" points="473.5,-37.7 473.5,-56.7 500.5,-56.7 500.5,-37.7 473.5,-37.7"/>
<polygon fill="none" stroke="#000000" points="473.5,-37.7 473.5,-56.7 500.5,-56.7 500.5,-37.7 473.5,-37.7"/>
<text text-anchor="start" x="491.3862" y="-43.8" font-family="Helvetica,sans-Serif" font-size="11.00" fill="#000000"> &#160;</text>
</a>
</g>
</g>
<!-- staff_role&#45;&gt;prison_migration_date_history -->
<g id="edge12" class="edge">
<title>staff_role:w&#45;&gt;prison_migration_date_history:e</title>
<path fill="none" stroke="#000000" stroke-dasharray="5,2" d="M383.9752,-65.8387C342.4554,-66.7737 320.2844,-73.2808 292,-109.7 252.8974,-160.0488 315.2496,-393.7 251.5,-393.7"/>
<polygon fill="#000000" stroke="#000000" points="390.5004,-65.7764 398.5344,-69.2998 394.5002,-65.7382 398.5,-65.7 398.5,-65.7 398.5,-65.7 394.5002,-65.7382 398.4656,-62.1002 390.5004,-65.7764 390.5004,-65.7764"/>
<ellipse fill="none" stroke="#000000" cx="387.3005" cy="-65.807" rx="3.2" ry="3.2"/>
</g>
<!-- staff_role_audit -->
<g id="node12" class="node">
<title>staff_role_audit</title>
<g id="a_node12"><a xlink:href="../../tables/staff_role_audit.html" xlink:title="staff_role_audit" target="_top">
<polygon fill="#ffffff" stroke="transparent" points="378,-448.2 378,-509.2 521,-509.2 521,-448.2 378,-448.2"/>
<polygon fill="#f5f5f5" stroke="transparent" points="378.5,-485.7 378.5,-508.7 521.5,-508.7 521.5,-485.7 378.5,-485.7"/>
<polygon fill="none" stroke="#000000" points="378.5,-485.7 378.5,-508.7 521.5,-508.7 521.5,-485.7 378.5,-485.7"/>
<text text-anchor="start" x="383.5" y="-494.3" font-family="Helvetica,sans-Serif" font-weight="bold" font-size="11.00" fill="#000000">staff_role_audit</text>
<text text-anchor="start" x="487.0219" y="-493.8" font-family="Helvetica,sans-Serif" font-size="11.00" fill="#000000">[table]</text>
<polygon fill="none" stroke="#000000" points="378.5,-466.7 378.5,-485.7 521.5,-485.7 521.5,-466.7 378.5,-466.7"/>
<text text-anchor="start" x="381.5" y="-472.8" font-family="Helvetica,sans-Serif" font-size="11.00" fill="#000000">...</text>
<polygon fill="#ffffff" stroke="transparent" points="378.5,-447.7 378.5,-466.7 448.5,-466.7 448.5,-447.7 378.5,-447.7"/>
<polygon fill="none" stroke="#000000" points="378.5,-447.7 378.5,-466.7 448.5,-466.7 448.5,-447.7 378.5,-447.7"/>
<text text-anchor="start" x="381.5" y="-453.8" font-family="Helvetica,sans-Serif" font-size="11.00" fill="#000000">&lt; 3</text>
<polygon fill="#ffffff" stroke="transparent" points="448.5,-447.7 448.5,-466.7 484.5,-466.7 484.5,-447.7 448.5,-447.7"/>
<polygon fill="none" stroke="#000000" points="448.5,-447.7 448.5,-466.7 484.5,-466.7 484.5,-447.7 448.5,-447.7"/>
<text text-anchor="start" x="475.3862" y="-453.8" font-family="Helvetica,sans-Serif" font-size="11.00" fill="#000000"> &#160;</text>
<polygon fill="#ffffff" stroke="transparent" points="484.5,-447.7 484.5,-466.7 521.5,-466.7 521.5,-447.7 484.5,-447.7"/>
<polygon fill="none" stroke="#000000" points="484.5,-447.7 484.5,-466.7 521.5,-466.7 521.5,-447.7 484.5,-447.7"/>
<text text-anchor="start" x="512.3862" y="-453.8" font-family="Helvetica,sans-Serif" font-size="11.00" fill="#000000"> &#160;</text>
</a>
</g>
</g>
<!-- staff_role_audit&#45;&gt;prison_migration_date_history -->
<g id="edge13" class="edge">
<title>staff_role_audit:w&#45;&gt;prison_migration_date_history:e</title>
<path fill="none" stroke="#000000" stroke-dasharray="5,2" d="M363.7203,-475.0285C333.447,-472.0166 321.7622,-458.9637 292,-437.7 270.3738,-422.2491 278.0786,-393.7 251.5,-393.7"/>
<polygon fill="#000000" stroke="#000000" points="370.5082,-475.3368 378.3366,-479.2963 374.5041,-475.5184 378.5,-475.7 378.5,-475.7 378.5,-475.7 374.5041,-475.5184 378.6634,-472.1037 370.5082,-475.3368 370.5082,-475.3368"/>
<ellipse fill="none" stroke="#000000" cx="367.3115" cy="-475.1916" rx="3.2" ry="3.2"/>
</g>
<!-- staff_role_audit&#45;&gt;audit_revision -->
<g id="edge14" class="edge">
<title>staff_role_audit:w&#45;&gt;audit_revision:e</title>
<path fill="none" stroke="#000000" d="M363.9532,-476.188C331.3102,-478.6018 315.9884,-490.3458 292,-519.7 191.3244,-642.8953 355.5995,-864.7 196.5,-864.7"/>
<polygon fill="#000000" stroke="#000000" points="370.5045,-475.9683 378.6207,-479.298 374.5022,-475.8341 378.5,-475.7 378.5,-475.7 378.5,-475.7 374.5022,-475.8341 378.3793,-472.102 370.5045,-475.9683 370.5045,-475.9683"/>
<ellipse fill="none" stroke="#000000" cx="367.3063" cy="-476.0756" rx="3.2" ry="3.2"/>
</g>
</g>
</svg>
