<?xml version="1.0" encoding="UTF-8" standalone="no"?>
<!DOCTYPE svg PUBLIC "-//W3C//DTD SVG 1.1//EN"
 "http://www.w3.org/Graphics/SVG/1.1/DTD/svg11.dtd">
<!-- Generated by graphviz version 2.40.1 (20161225.0304)
 -->
<!-- Title: oneDegreeRelationshipsDiagramImplied Pages: 1 -->
<svg width="615pt" height="356pt"
 viewBox="0.00 0.00 615.00 355.70" xmlns="http://www.w3.org/2000/svg" xmlns:xlink="http://www.w3.org/1999/xlink">
<g id="graph0" class="graph" transform="scale(1 1) rotate(0) translate(4 351.7)">
<title>oneDegreeRelationshipsDiagramImplied</title>
<polygon fill="#ffffff" stroke="transparent" points="-4,4 -4,-351.7 611,-351.7 611,4 -4,4"/>
<text text-anchor="middle" x="72.4936" y="-7.3" font-family="Helvetica,sans-Serif" font-size="11.00" fill="#000000">Generated by SchemaSpy</text>
<!-- allocation_case_note_audit -->
<g id="node1" class="node">
<title>allocation_case_note_audit</title>
<g id="a_node1"><a xlink:href="../../tables/allocation_case_note_audit.html" xlink:title="allocation_case_note_audit" target="_top">
<polygon fill="#ffffff" stroke="transparent" points="300,-38.2 300,-326.2 599,-326.2 599,-38.2 300,-38.2"/>
<polygon fill="#f5f5f5" stroke="transparent" points="302.5,-301.2 302.5,-324.2 597.5,-324.2 597.5,-301.2 302.5,-301.2"/>
<polygon fill="none" stroke="#000000" points="302.5,-301.2 302.5,-324.2 597.5,-324.2 597.5,-301.2 302.5,-301.2"/>
<text text-anchor="start" x="307.5" y="-309.8" font-family="Helvetica,sans-Serif" font-weight="bold" font-size="11.00" fill="#000000">allocation_case_note_audit</text>
<text text-anchor="start" x="562.5437" y="-309.3" font-family="Helvetica,sans-Serif" font-size="11.00" fill="#000000">[table]</text>
<polygon fill="none" stroke="#000000" points="302.5,-279.2 302.5,-301.2 503.5,-301.2 503.5,-279.2 302.5,-279.2"/>
<image xlink:href="../../images/foreignKeys.png" width="11px" height="12px" preserveAspectRatio="xMinYMin meet" x="307.5" y="-296.2"/>
<text text-anchor="start" x="322.5" y="-286.3" font-family="Helvetica,sans-Serif" font-size="11.00" fill="#000000">rev_id</text>
<polygon fill="none" stroke="#000000" points="503.5,-279.2 503.5,-301.2 597.5,-301.2 597.5,-279.2 503.5,-279.2"/>
<text text-anchor="start" x="506.5" y="-286.9" font-family="Helvetica,sans-Serif" font-size="11.00" fill="#000000">int8[19]</text>
<polygon fill="none" stroke="#000000" points="302.5,-257.2 302.5,-279.2 503.5,-279.2 503.5,-257.2 302.5,-257.2"/>
<text text-anchor="start" x="322.5" y="-264.3" font-family="Helvetica,sans-Serif" font-size="11.00" fill="#000000">rev_type</text>
<polygon fill="none" stroke="#000000" points="503.5,-257.2 503.5,-279.2 597.5,-279.2 597.5,-257.2 503.5,-257.2"/>
<text text-anchor="start" x="506.5" y="-264.9" font-family="Helvetica,sans-Serif" font-size="11.00" fill="#000000">int2[5]</text>
<polygon fill="none" stroke="#000000" points="302.5,-235.2 302.5,-257.2 503.5,-257.2 503.5,-235.2 302.5,-235.2"/>
<text text-anchor="start" x="322.5" y="-242.3" font-family="Helvetica,sans-Serif" font-size="11.00" fill="#000000">id</text>
<polygon fill="none" stroke="#000000" points="503.5,-235.2 503.5,-257.2 597.5,-257.2 597.5,-235.2 503.5,-235.2"/>
<text text-anchor="start" x="506.4758" y="-242.9" font-family="Helvetica,sans-Serif" font-size="11.00" fill="#000000">uuid[2147483647]</text>
<polygon fill="none" stroke="#000000" points="302.5,-213.2 302.5,-235.2 503.5,-235.2 503.5,-213.2 302.5,-213.2"/>
<image xlink:href="../../images/foreignKeys.png" width="11px" height="12px" preserveAspectRatio="xMinYMin meet" x="307.5" y="-230.2"/>
<text text-anchor="start" x="322.5" y="-220.3" font-family="Helvetica,sans-Serif" font-size="11.00" fill="#000000">prison_code</text>
<polygon fill="none" stroke="#000000" points="503.5,-213.2 503.5,-235.2 597.5,-235.2 597.5,-213.2 503.5,-213.2"/>
<text text-anchor="start" x="506.5" y="-220.9" font-family="Helvetica,sans-Serif" font-size="11.00" fill="#000000">varchar[6]</text>
<polygon fill="none" stroke="#000000" points="302.5,-191.2 302.5,-213.2 503.5,-213.2 503.5,-191.2 302.5,-191.2"/>
<text text-anchor="start" x="322.5" y="-198.3" font-family="Helvetica,sans-Serif" font-size="11.00" fill="#000000">person_identifier</text>
<polygon fill="none" stroke="#000000" points="503.5,-191.2 503.5,-213.2 597.5,-213.2 597.5,-191.2 503.5,-191.2"/>
<text text-anchor="start" x="506.5" y="-198.9" font-family="Helvetica,sans-Serif" font-size="11.00" fill="#000000">varchar[7]</text>
<polygon fill="none" stroke="#000000" points="302.5,-169.2 302.5,-191.2 503.5,-191.2 503.5,-169.2 302.5,-169.2"/>
<text text-anchor="start" x="322.5" y="-176.3" font-family="Helvetica,sans-Serif" font-size="11.00" fill="#000000">staff_id</text>
<polygon fill="none" stroke="#000000" points="503.5,-169.2 503.5,-191.2 597.5,-191.2 597.5,-169.2 503.5,-169.2"/>
<text text-anchor="start" x="506.5" y="-176.9" font-family="Helvetica,sans-Serif" font-size="11.00" fill="#000000">int8[19]</text>
<polygon fill="none" stroke="#000000" points="302.5,-147.2 302.5,-169.2 503.5,-169.2 503.5,-147.2 302.5,-147.2"/>
<text text-anchor="start" x="322.5" y="-154.3" font-family="Helvetica,sans-Serif" font-size="11.00" fill="#000000">username</text>
<polygon fill="none" stroke="#000000" points="503.5,-147.2 503.5,-169.2 597.5,-169.2 597.5,-147.2 503.5,-147.2"/>
<text text-anchor="start" x="506.5" y="-154.9" font-family="Helvetica,sans-Serif" font-size="11.00" fill="#000000">varchar[64]</text>
<polygon fill="none" stroke="#000000" points="302.5,-125.2 302.5,-147.2 503.5,-147.2 503.5,-125.2 302.5,-125.2"/>
<text text-anchor="start" x="322.5" y="-132.3" font-family="Helvetica,sans-Serif" font-size="11.00" fill="#000000">type</text>
<polygon fill="none" stroke="#000000" points="503.5,-125.2 503.5,-147.2 597.5,-147.2 597.5,-125.2 503.5,-125.2"/>
<text text-anchor="start" x="506.5" y="-132.9" font-family="Helvetica,sans-Serif" font-size="11.00" fill="#000000">varchar[12]</text>
<polygon fill="none" stroke="#000000" points="302.5,-103.2 302.5,-125.2 503.5,-125.2 503.5,-103.2 302.5,-103.2"/>
<text text-anchor="start" x="322.5" y="-110.3" font-family="Helvetica,sans-Serif" font-size="11.00" fill="#000000">sub_type</text>
<polygon fill="none" stroke="#000000" points="503.5,-103.2 503.5,-125.2 597.5,-125.2 597.5,-103.2 503.5,-103.2"/>
<text text-anchor="start" x="506.5" y="-110.9" font-family="Helvetica,sans-Serif" font-size="11.00" fill="#000000">varchar[12]</text>
<polygon fill="none" stroke="#000000" points="302.5,-81.2 302.5,-103.2 503.5,-103.2 503.5,-81.2 302.5,-81.2"/>
<text text-anchor="start" x="322.5" y="-88.3" font-family="Helvetica,sans-Serif" font-size="11.00" fill="#000000">occurred_at</text>
<polygon fill="none" stroke="#000000" points="503.5,-81.2 503.5,-103.2 597.5,-103.2 597.5,-81.2 503.5,-81.2"/>
<text text-anchor="start" x="506.5" y="-88.9" font-family="Helvetica,sans-Serif" font-size="11.00" fill="#000000">timestamp[29,6]</text>
<polygon fill="none" stroke="#000000" points="302.5,-59.2 302.5,-81.2 503.5,-81.2 503.5,-59.2 302.5,-59.2"/>
<text text-anchor="start" x="322.5" y="-66.3" font-family="Helvetica,sans-Serif" font-size="11.00" fill="#000000">created_at</text>
<polygon fill="none" stroke="#000000" points="503.5,-59.2 503.5,-81.2 597.5,-81.2 597.5,-59.2 503.5,-59.2"/>
<text text-anchor="start" x="506.5" y="-66.9" font-family="Helvetica,sans-Serif" font-size="11.00" fill="#000000">timestamp[29,6]</text>
<polygon fill="#ffffff" stroke="transparent" points="302.5,-40.2 302.5,-59.2 407.5,-59.2 407.5,-40.2 302.5,-40.2"/>
<polygon fill="none" stroke="#000000" points="302.5,-40.2 302.5,-59.2 407.5,-59.2 407.5,-40.2 302.5,-40.2"/>
<text text-anchor="start" x="305.5" y="-46.3" font-family="Helvetica,sans-Serif" font-size="11.00" fill="#000000">&lt; 2</text>
<polygon fill="#ffffff" stroke="transparent" points="407.5,-40.2 407.5,-59.2 503.5,-59.2 503.5,-40.2 407.5,-40.2"/>
<polygon fill="none" stroke="#000000" points="407.5,-40.2 407.5,-59.2 503.5,-59.2 503.5,-40.2 407.5,-40.2"/>
<text text-anchor="start" x="494.3862" y="-46.3" font-family="Helvetica,sans-Serif" font-size="11.00" fill="#000000"> &#160;</text>
<polygon fill="#ffffff" stroke="transparent" points="503.5,-40.2 503.5,-59.2 597.5,-59.2 597.5,-40.2 503.5,-40.2"/>
<polygon fill="none" stroke="#000000" points="503.5,-40.2 503.5,-59.2 597.5,-59.2 597.5,-40.2 503.5,-40.2"/>
<text text-anchor="start" x="578.9053" y="-46.3" font-family="Helvetica,sans-Serif" font-size="11.00" fill="#000000">0 &gt;</text>
<polygon fill="none" stroke="#000000" stroke-width="2" points="301,-39.2 301,-325.2 598,-325.2 598,-39.2 301,-39.2"/>
</a>
</g>
</g>
<!-- prison_migration_date_history -->
<g id="node2" class="node">
<title>prison_migration_date_history</title>
<g id="a_node2"><a xlink:href="../../tables/prison_migration_date_history.html" xlink:title="prison_migration_date_history" target="_top">
<polygon fill="#ffffff" stroke="transparent" points="8,-156.7 8,-239.7 251,-239.7 251,-156.7 8,-156.7"/>
<polygon fill="#f5f5f5" stroke="transparent" points="8.5,-216.2 8.5,-239.2 251.5,-239.2 251.5,-216.2 8.5,-216.2"/>
<polygon fill="none" stroke="#000000" points="8.5,-216.2 8.5,-239.2 251.5,-239.2 251.5,-216.2 8.5,-216.2"/>
<text text-anchor="start" x="13.5" y="-224.8" font-family="Helvetica,sans-Serif" font-weight="bold" font-size="11.00" fill="#000000">prison_migration_date_history</text>
<text text-anchor="start" x="217.0219" y="-224.3" font-family="Helvetica,sans-Serif" font-size="11.00" fill="#000000">[table]</text>
<polygon fill="none" stroke="#000000" points="8.5,-194.2 8.5,-216.2 251.5,-216.2 251.5,-194.2 8.5,-194.2"/>
<image xlink:href="../../images/primaryKeys.png" width="11px" height="12px" preserveAspectRatio="xMinYMin meet" x="13.5" y="-211.2"/>
<text text-anchor="start" x="37.5" y="-201.3" font-family="Helvetica,sans-Serif" font-size="11.00" fill="#000000">prison_code</text>
<polygon fill="none" stroke="#000000" points="8.5,-175.2 8.5,-194.2 251.5,-194.2 251.5,-175.2 8.5,-175.2"/>
<text text-anchor="start" x="11.5" y="-181.3" font-family="Helvetica,sans-Serif" font-size="11.00" fill="#000000">...</text>
<polygon fill="#ffffff" stroke="transparent" points="8.5,-156.2 8.5,-175.2 119.5,-175.2 119.5,-156.2 8.5,-156.2"/>
<polygon fill="none" stroke="#000000" points="8.5,-156.2 8.5,-175.2 119.5,-175.2 119.5,-156.2 8.5,-156.2"/>
<text text-anchor="start" x="11.5" y="-162.3" font-family="Helvetica,sans-Serif" font-size="11.00" fill="#000000"> &#160;</text>
<polygon fill="#ffffff" stroke="transparent" points="119.5,-156.2 119.5,-175.2 180.5,-175.2 180.5,-156.2 119.5,-156.2"/>
<polygon fill="none" stroke="#000000" points="119.5,-156.2 119.5,-175.2 180.5,-175.2 180.5,-156.2 119.5,-156.2"/>
<text text-anchor="start" x="171.3862" y="-162.3" font-family="Helvetica,sans-Serif" font-size="11.00" fill="#000000"> &#160;</text>
<polygon fill="#ffffff" stroke="transparent" points="180.5,-156.2 180.5,-175.2 251.5,-175.2 251.5,-156.2 180.5,-156.2"/>
<polygon fill="none" stroke="#000000" points="180.5,-156.2 180.5,-175.2 251.5,-175.2 251.5,-156.2 180.5,-156.2"/>
<text text-anchor="start" x="232.9053" y="-162.3" font-family="Helvetica,sans-Serif" font-size="11.00" fill="#000000">9 &gt;</text>
</a>
</g>
</g>
<!-- allocation_case_note_audit&#45;&gt;prison_migration_date_history -->
<g id="edge1" class="edge">
<title>allocation_case_note_audit:w&#45;&gt;prison_migration_date_history:e</title>
<path fill="none" stroke="#000000" stroke-dasharray="5,2" d="M288.1076,-221.3965C275.7761,-216.1113 269.8304,-205.2 251.5,-205.2"/>
<polygon fill="#000000" stroke="#000000" points="294.6476,-222.6704 301.8117,-227.7336 298.5738,-223.4352 302.5,-224.2 302.5,-224.2 302.5,-224.2 298.5738,-223.4352 303.1883,-220.6664 294.6476,-222.6704 294.6476,-222.6704"/>
<ellipse fill="none" stroke="#000000" cx="291.5066" cy="-222.0585" rx="3.2" ry="3.2"/>
</g>
<!-- audit_revision -->
<g id="node3" class="node">
<title>audit_revision</title>
<g id="a_node3"><a xlink:href="../../tables/audit_revision.html" xlink:title="audit_revision" target="_top">
<polygon fill="#ffffff" stroke="transparent" points="62.5,-260.7 62.5,-343.7 196.5,-343.7 196.5,-260.7 62.5,-260.7"/>
<polygon fill="#f5f5f5" stroke="transparent" points="62.5,-320.2 62.5,-343.2 196.5,-343.2 196.5,-320.2 62.5,-320.2"/>
<polygon fill="none" stroke="#000000" points="62.5,-320.2 62.5,-343.2 196.5,-343.2 196.5,-320.2 62.5,-320.2"/>
<text text-anchor="start" x="67.5" y="-328.8" font-family="Helvetica,sans-Serif" font-weight="bold" font-size="11.00" fill="#000000">audit_revision</text>
<text text-anchor="start" x="162.0219" y="-328.3" font-family="Helvetica,sans-Serif" font-size="11.00" fill="#000000">[table]</text>
<polygon fill="none" stroke="#000000" points="62.5,-298.2 62.5,-320.2 196.5,-320.2 196.5,-298.2 62.5,-298.2"/>
<image xlink:href="../../images/primaryKeys.png" width="11px" height="12px" preserveAspectRatio="xMinYMin meet" x="67.5" y="-315.2"/>
<text text-anchor="start" x="82.5" y="-305.3" font-family="Helvetica,sans-Serif" font-size="11.00" fill="#000000">id</text>
<polygon fill="none" stroke="#000000" points="62.5,-279.2 62.5,-298.2 196.5,-298.2 196.5,-279.2 62.5,-279.2"/>
<text text-anchor="start" x="65.5" y="-285.3" font-family="Helvetica,sans-Serif" font-size="11.00" fill="#000000">...</text>
<polygon fill="#ffffff" stroke="transparent" points="62.5,-260.2 62.5,-279.2 118.5,-279.2 118.5,-260.2 62.5,-260.2"/>
<polygon fill="none" stroke="#000000" points="62.5,-260.2 62.5,-279.2 118.5,-279.2 118.5,-260.2 62.5,-260.2"/>
<text text-anchor="start" x="65.5" y="-266.3" font-family="Helvetica,sans-Serif" font-size="11.00" fill="#000000"> &#160;</text>
<polygon fill="#ffffff" stroke="transparent" points="118.5,-260.2 118.5,-279.2 152.5,-279.2 152.5,-260.2 118.5,-260.2"/>
<polygon fill="none" stroke="#000000" points="118.5,-260.2 118.5,-279.2 152.5,-279.2 152.5,-260.2 118.5,-260.2"/>
<text text-anchor="start" x="143.3862" y="-266.3" font-family="Helvetica,sans-Serif" font-size="11.00" fill="#000000"> &#160;</text>
<polygon fill="#ffffff" stroke="transparent" points="152.5,-260.2 152.5,-279.2 196.5,-279.2 196.5,-260.2 152.5,-260.2"/>
<polygon fill="none" stroke="#000000" points="152.5,-260.2 152.5,-279.2 196.5,-279.2 196.5,-260.2 152.5,-260.2"/>
<text text-anchor="start" x="177.9053" y="-266.3" font-family="Helvetica,sans-Serif" font-size="11.00" fill="#000000">5 &gt;</text>
</a>
</g>
</g>
<!-- allocation_case_note_audit&#45;&gt;audit_revision -->
<g id="edge2" class="edge">
<title>allocation_case_note_audit:w&#45;&gt;audit_revision:e</title>
<path fill="none" stroke="#000000" d="M288.0458,-290.8322C251.9405,-294.129 239.127,-309.2 196.5,-309.2"/>
<polygon fill="#000000" stroke="#000000" points="294.5076,-290.5496 302.6573,-293.7966 298.5038,-290.3748 302.5,-290.2 302.5,-290.2 302.5,-290.2 298.5038,-290.3748 302.3427,-286.6034 294.5076,-290.5496 294.5076,-290.5496"/>
<ellipse fill="none" stroke="#000000" cx="291.3107" cy="-290.6894" rx="3.2" ry="3.2"/>
</g>
</g>
</svg>
