<?xml version="1.0" encoding="UTF-8" standalone="no"?>
<!DOCTYPE svg PUBLIC "-//W3C//DTD SVG 1.1//EN"
 "http://www.w3.org/Graphics/SVG/1.1/DTD/svg11.dtd">
<!-- Generated by graphviz version 2.40.1 (20161225.0304)
 -->
<!-- Title: twoDegreesRelationshipsDiagramImplied Pages: 1 -->
<svg width="574pt" height="951pt"
 viewBox="0.00 0.00 574.00 951.20" xmlns="http://www.w3.org/2000/svg" xmlns:xlink="http://www.w3.org/1999/xlink">
<g id="graph0" class="graph" transform="scale(1 1) rotate(0) translate(4 947.2)">
<title>twoDegreesRelationshipsDiagramImplied</title>
<polygon fill="#ffffff" stroke="transparent" points="-4,4 -4,-947.2 570,-947.2 570,4 -4,4"/>
<text text-anchor="middle" x="72.4936" y="-7.3" font-family="Helvetica,sans-Serif" font-size="11.00" fill="#000000">Generated by SchemaSpy</text>
<!-- allocation -->
<g id="node1" class="node">
<title>allocation</title>
<g id="a_node1"><a xlink:href="../../tables/allocation.html" xlink:title="allocation" target="_top">
<polygon fill="#ffffff" stroke="transparent" points="376.5,-878.2 376.5,-939.2 481.5,-939.2 481.5,-878.2 376.5,-878.2"/>
<polygon fill="#f5f5f5" stroke="transparent" points="377,-915.7 377,-938.7 482,-938.7 482,-915.7 377,-915.7"/>
<polygon fill="none" stroke="#000000" points="377,-915.7 377,-938.7 482,-938.7 482,-915.7 377,-915.7"/>
<text text-anchor="start" x="382" y="-924.3" font-family="Helvetica,sans-Serif" font-weight="bold" font-size="11.00" fill="#000000">allocation</text>
<text text-anchor="start" x="447.5219" y="-923.8" font-family="Helvetica,sans-Serif" font-size="11.00" fill="#000000">[table]</text>
<polygon fill="none" stroke="#000000" points="377,-896.7 377,-915.7 482,-915.7 482,-896.7 377,-896.7"/>
<text text-anchor="start" x="380" y="-902.8" font-family="Helvetica,sans-Serif" font-size="11.00" fill="#000000">...</text>
<polygon fill="#ffffff" stroke="transparent" points="377,-877.7 377,-896.7 428,-896.7 428,-877.7 377,-877.7"/>
<polygon fill="none" stroke="#000000" points="377,-877.7 377,-896.7 428,-896.7 428,-877.7 377,-877.7"/>
<text text-anchor="start" x="380" y="-883.8" font-family="Helvetica,sans-Serif" font-size="11.00" fill="#000000">&lt; 4</text>
<polygon fill="#ffffff" stroke="transparent" points="428,-877.7 428,-896.7 455,-896.7 455,-877.7 428,-877.7"/>
<polygon fill="none" stroke="#000000" points="428,-877.7 428,-896.7 455,-896.7 455,-877.7 428,-877.7"/>
<text text-anchor="start" x="445.8862" y="-883.8" font-family="Helvetica,sans-Serif" font-size="11.00" fill="#000000"> &#160;</text>
<polygon fill="#ffffff" stroke="transparent" points="455,-877.7 455,-896.7 482,-896.7 482,-877.7 455,-877.7"/>
<polygon fill="none" stroke="#000000" points="455,-877.7 455,-896.7 482,-896.7 482,-877.7 455,-877.7"/>
<text text-anchor="start" x="472.8862" y="-883.8" font-family="Helvetica,sans-Serif" font-size="11.00" fill="#000000"> &#160;</text>
</a>
</g>
</g>
<!-- prison_migration_date_history -->
<g id="node2" class="node">
<title>prison_migration_date_history</title>
<g id="a_node2"><a xlink:href="../../tables/prison_migration_date_history.html" xlink:title="prison_migration_date_history" target="_top">
<polygon fill="#ffffff" stroke="transparent" points="8,-345.2 8,-428.2 251,-428.2 251,-345.2 8,-345.2"/>
<polygon fill="#f5f5f5" stroke="transparent" points="8.5,-404.7 8.5,-427.7 251.5,-427.7 251.5,-404.7 8.5,-404.7"/>
<polygon fill="none" stroke="#000000" points="8.5,-404.7 8.5,-427.7 251.5,-427.7 251.5,-404.7 8.5,-404.7"/>
<text text-anchor="start" x="13.5" y="-413.3" font-family="Helvetica,sans-Serif" font-weight="bold" font-size="11.00" fill="#000000">prison_migration_date_history</text>
<text text-anchor="start" x="217.0219" y="-412.8" font-family="Helvetica,sans-Serif" font-size="11.00" fill="#000000">[table]</text>
<polygon fill="none" stroke="#000000" points="8.5,-382.7 8.5,-404.7 251.5,-404.7 251.5,-382.7 8.5,-382.7"/>
<image xlink:href="../../images/primaryKeys.png" width="11px" height="12px" preserveAspectRatio="xMinYMin meet" x="13.5" y="-399.7"/>
<text text-anchor="start" x="37.5" y="-389.8" font-family="Helvetica,sans-Serif" font-size="11.00" fill="#000000">prison_code</text>
<polygon fill="none" stroke="#000000" points="8.5,-363.7 8.5,-382.7 251.5,-382.7 251.5,-363.7 8.5,-363.7"/>
<text text-anchor="start" x="11.5" y="-369.8" font-family="Helvetica,sans-Serif" font-size="11.00" fill="#000000">...</text>
<polygon fill="#ffffff" stroke="transparent" points="8.5,-344.7 8.5,-363.7 119.5,-363.7 119.5,-344.7 8.5,-344.7"/>
<polygon fill="none" stroke="#000000" points="8.5,-344.7 8.5,-363.7 119.5,-363.7 119.5,-344.7 8.5,-344.7"/>
<text text-anchor="start" x="11.5" y="-350.8" font-family="Helvetica,sans-Serif" font-size="11.00" fill="#000000"> &#160;</text>
<polygon fill="#ffffff" stroke="transparent" points="119.5,-344.7 119.5,-363.7 180.5,-363.7 180.5,-344.7 119.5,-344.7"/>
<polygon fill="none" stroke="#000000" points="119.5,-344.7 119.5,-363.7 180.5,-363.7 180.5,-344.7 119.5,-344.7"/>
<text text-anchor="start" x="171.3862" y="-350.8" font-family="Helvetica,sans-Serif" font-size="11.00" fill="#000000"> &#160;</text>
<polygon fill="#ffffff" stroke="transparent" points="180.5,-344.7 180.5,-363.7 251.5,-363.7 251.5,-344.7 180.5,-344.7"/>
<polygon fill="none" stroke="#000000" points="180.5,-344.7 180.5,-363.7 251.5,-363.7 251.5,-344.7 180.5,-344.7"/>
<text text-anchor="start" x="232.9053" y="-350.8" font-family="Helvetica,sans-Serif" font-size="11.00" fill="#000000">9 &gt;</text>
</a>
</g>
</g>
<!-- allocation&#45;&gt;prison_migration_date_history -->
<g id="edge1" class="edge">
<title>allocation:w&#45;&gt;prison_migration_date_history:e</title>
<path fill="none" stroke="#000000" stroke-dasharray="5,2" d="M362.4499,-905.4507C330.6392,-904.1726 312.9739,-897.2152 292,-867.7 261.3815,-824.6125 304.3586,-393.7 251.5,-393.7"/>
<polygon fill="#000000" stroke="#000000" points="369.0012,-905.5629 376.9383,-909.2995 373.0006,-905.6315 377,-905.7 377,-905.7 377,-905.7 373.0006,-905.6315 377.0617,-902.1005 369.0012,-905.5629 369.0012,-905.5629"/>
<ellipse fill="none" stroke="#000000" cx="365.8016" cy="-905.5081" rx="3.2" ry="3.2"/>
</g>
<!-- allocation_audit -->
<g id="node3" class="node">
<title>allocation_audit</title>
<g id="a_node3"><a xlink:href="../../tables/allocation_audit.html" xlink:title="allocation_audit" target="_top">
<polygon fill="#ffffff" stroke="transparent" points="356,-796.2 356,-857.2 502,-857.2 502,-796.2 356,-796.2"/>
<polygon fill="#f5f5f5" stroke="transparent" points="356,-833.7 356,-856.7 502,-856.7 502,-833.7 356,-833.7"/>
<polygon fill="none" stroke="#000000" points="356,-833.7 356,-856.7 502,-856.7 502,-833.7 356,-833.7"/>
<text text-anchor="start" x="361" y="-842.3" font-family="Helvetica,sans-Serif" font-weight="bold" font-size="11.00" fill="#000000">allocation_audit</text>
<text text-anchor="start" x="467.5219" y="-841.8" font-family="Helvetica,sans-Serif" font-size="11.00" fill="#000000">[table]</text>
<polygon fill="none" stroke="#000000" points="356,-814.7 356,-833.7 502,-833.7 502,-814.7 356,-814.7"/>
<text text-anchor="start" x="359" y="-820.8" font-family="Helvetica,sans-Serif" font-size="11.00" fill="#000000">...</text>
<polygon fill="#ffffff" stroke="transparent" points="356,-795.7 356,-814.7 427,-814.7 427,-795.7 356,-795.7"/>
<polygon fill="none" stroke="#000000" points="356,-795.7 356,-814.7 427,-814.7 427,-795.7 356,-795.7"/>
<text text-anchor="start" x="359" y="-801.8" font-family="Helvetica,sans-Serif" font-size="11.00" fill="#000000">&lt; 3</text>
<polygon fill="#ffffff" stroke="transparent" points="427,-795.7 427,-814.7 464,-814.7 464,-795.7 427,-795.7"/>
<polygon fill="none" stroke="#000000" points="427,-795.7 427,-814.7 464,-814.7 464,-795.7 427,-795.7"/>
<text text-anchor="start" x="454.8862" y="-801.8" font-family="Helvetica,sans-Serif" font-size="11.00" fill="#000000"> &#160;</text>
<polygon fill="#ffffff" stroke="transparent" points="464,-795.7 464,-814.7 502,-814.7 502,-795.7 464,-795.7"/>
<polygon fill="none" stroke="#000000" points="464,-795.7 464,-814.7 502,-814.7 502,-795.7 464,-795.7"/>
<text text-anchor="start" x="492.8862" y="-801.8" font-family="Helvetica,sans-Serif" font-size="11.00" fill="#000000"> &#160;</text>
</a>
</g>
</g>
<!-- allocation_audit&#45;&gt;prison_migration_date_history -->
<g id="edge2" class="edge">
<title>allocation_audit:w&#45;&gt;prison_migration_date_history:e</title>
<path fill="none" stroke="#000000" stroke-dasharray="5,2" d="M341.5421,-822.8892C318.6032,-819.9999 306.9682,-809.1055 292,-785.7 244.8179,-711.922 339.0748,-393.7 251.5,-393.7"/>
<polygon fill="#000000" stroke="#000000" points="348.0126,-823.252 355.7984,-827.2944 352.0063,-823.476 356,-823.7 356,-823.7 356,-823.7 352.0063,-823.476 356.2016,-820.1056 348.0126,-823.252 348.0126,-823.252"/>
<ellipse fill="none" stroke="#000000" cx="344.8176" cy="-823.0728" rx="3.2" ry="3.2"/>
</g>
<!-- allocation_case_note -->
<g id="node4" class="node">
<title>allocation_case_note</title>
<g id="a_node4"><a xlink:href="../../tables/allocation_case_note.html" xlink:title="allocation_case_note" target="_top">
<polygon fill="#ffffff" stroke="transparent" points="300,-530.7 300,-774.7 558,-774.7 558,-530.7 300,-530.7"/>
<polygon fill="#f5f5f5" stroke="transparent" points="302,-749.7 302,-772.7 556,-772.7 556,-749.7 302,-749.7"/>
<polygon fill="none" stroke="#000000" points="302,-749.7 302,-772.7 556,-772.7 556,-749.7 302,-749.7"/>
<text text-anchor="start" x="307" y="-758.3" font-family="Helvetica,sans-Serif" font-weight="bold" font-size="11.00" fill="#000000">allocation_case_note</text>
<text text-anchor="start" x="521.0437" y="-757.8" font-family="Helvetica,sans-Serif" font-size="11.00" fill="#000000">[table]</text>
<polygon fill="none" stroke="#000000" points="302,-727.7 302,-749.7 462,-749.7 462,-727.7 302,-727.7"/>
<image xlink:href="../../images/primaryKeys.png" width="11px" height="12px" preserveAspectRatio="xMinYMin meet" x="307" y="-744.7"/>
<text text-anchor="start" x="322" y="-734.8" font-family="Helvetica,sans-Serif" font-size="11.00" fill="#000000">id</text>
<polygon fill="none" stroke="#000000" points="462,-727.7 462,-749.7 556,-749.7 556,-727.7 462,-727.7"/>
<text text-anchor="start" x="464.9758" y="-735.4" font-family="Helvetica,sans-Serif" font-size="11.00" fill="#000000">uuid[2147483647]</text>
<polygon fill="#ffffff" stroke="transparent" points="302,-705.7 302,-727.7 462,-727.7 462,-705.7 302,-705.7"/>
<polygon fill="none" stroke="#000000" points="302,-705.7 302,-727.7 462,-727.7 462,-705.7 302,-705.7"/>
<image xlink:href="../../images/foreignKeys.png" width="11px" height="12px" preserveAspectRatio="xMinYMin meet" x="307" y="-722.7"/>
<text text-anchor="start" x="322" y="-712.8" font-family="Helvetica,sans-Serif" font-size="11.00" fill="#000000">prison_code</text>
<polygon fill="none" stroke="#000000" points="462,-705.7 462,-727.7 556,-727.7 556,-705.7 462,-705.7"/>
<text text-anchor="start" x="465" y="-713.4" font-family="Helvetica,sans-Serif" font-size="11.00" fill="#000000">varchar[6]</text>
<polygon fill="#ffffff" stroke="transparent" points="302,-683.7 302,-705.7 462,-705.7 462,-683.7 302,-683.7"/>
<polygon fill="none" stroke="#000000" points="302,-683.7 302,-705.7 462,-705.7 462,-683.7 302,-683.7"/>
<text text-anchor="start" x="322" y="-690.8" font-family="Helvetica,sans-Serif" font-size="11.00" fill="#000000">person_identifier</text>
<polygon fill="none" stroke="#000000" points="462,-683.7 462,-705.7 556,-705.7 556,-683.7 462,-683.7"/>
<text text-anchor="start" x="465" y="-691.4" font-family="Helvetica,sans-Serif" font-size="11.00" fill="#000000">varchar[7]</text>
<polygon fill="#ffffff" stroke="transparent" points="302,-661.7 302,-683.7 462,-683.7 462,-661.7 302,-661.7"/>
<polygon fill="none" stroke="#000000" points="302,-661.7 302,-683.7 462,-683.7 462,-661.7 302,-661.7"/>
<text text-anchor="start" x="322" y="-668.8" font-family="Helvetica,sans-Serif" font-size="11.00" fill="#000000">staff_id</text>
<polygon fill="none" stroke="#000000" points="462,-661.7 462,-683.7 556,-683.7 556,-661.7 462,-661.7"/>
<text text-anchor="start" x="465" y="-669.4" font-family="Helvetica,sans-Serif" font-size="11.00" fill="#000000">int8[19]</text>
<polygon fill="none" stroke="#000000" points="302,-639.7 302,-661.7 462,-661.7 462,-639.7 302,-639.7"/>
<text text-anchor="start" x="322" y="-646.8" font-family="Helvetica,sans-Serif" font-size="11.00" fill="#000000">username</text>
<polygon fill="none" stroke="#000000" points="462,-639.7 462,-661.7 556,-661.7 556,-639.7 462,-639.7"/>
<text text-anchor="start" x="465" y="-647.4" font-family="Helvetica,sans-Serif" font-size="11.00" fill="#000000">varchar[64]</text>
<polygon fill="#ffffff" stroke="transparent" points="302,-617.7 302,-639.7 462,-639.7 462,-617.7 302,-617.7"/>
<polygon fill="none" stroke="#000000" points="302,-617.7 302,-639.7 462,-639.7 462,-617.7 302,-617.7"/>
<text text-anchor="start" x="322" y="-624.8" font-family="Helvetica,sans-Serif" font-size="11.00" fill="#000000">type</text>
<polygon fill="none" stroke="#000000" points="462,-617.7 462,-639.7 556,-639.7 556,-617.7 462,-617.7"/>
<text text-anchor="start" x="465" y="-625.4" font-family="Helvetica,sans-Serif" font-size="11.00" fill="#000000">varchar[12]</text>
<polygon fill="#ffffff" stroke="transparent" points="302,-595.7 302,-617.7 462,-617.7 462,-595.7 302,-595.7"/>
<polygon fill="none" stroke="#000000" points="302,-595.7 302,-617.7 462,-617.7 462,-595.7 302,-595.7"/>
<text text-anchor="start" x="322" y="-602.8" font-family="Helvetica,sans-Serif" font-size="11.00" fill="#000000">sub_type</text>
<polygon fill="none" stroke="#000000" points="462,-595.7 462,-617.7 556,-617.7 556,-595.7 462,-595.7"/>
<text text-anchor="start" x="465" y="-603.4" font-family="Helvetica,sans-Serif" font-size="11.00" fill="#000000">varchar[12]</text>
<polygon fill="#ffffff" stroke="transparent" points="302,-573.7 302,-595.7 462,-595.7 462,-573.7 302,-573.7"/>
<polygon fill="none" stroke="#000000" points="302,-573.7 302,-595.7 462,-595.7 462,-573.7 302,-573.7"/>
<text text-anchor="start" x="322" y="-580.8" font-family="Helvetica,sans-Serif" font-size="11.00" fill="#000000">occurred_at</text>
<polygon fill="none" stroke="#000000" points="462,-573.7 462,-595.7 556,-595.7 556,-573.7 462,-573.7"/>
<text text-anchor="start" x="465" y="-581.4" font-family="Helvetica,sans-Serif" font-size="11.00" fill="#000000">timestamp[29,6]</text>
<polygon fill="none" stroke="#000000" points="302,-551.7 302,-573.7 462,-573.7 462,-551.7 302,-551.7"/>
<text text-anchor="start" x="322" y="-558.8" font-family="Helvetica,sans-Serif" font-size="11.00" fill="#000000">version</text>
<polygon fill="none" stroke="#000000" points="462,-551.7 462,-573.7 556,-573.7 556,-551.7 462,-551.7"/>
<text text-anchor="start" x="465" y="-559.4" font-family="Helvetica,sans-Serif" font-size="11.00" fill="#000000">int4[10]</text>
<polygon fill="#ffffff" stroke="transparent" points="302,-532.7 302,-551.7 386,-551.7 386,-532.7 302,-532.7"/>
<polygon fill="none" stroke="#000000" points="302,-532.7 302,-551.7 386,-551.7 386,-532.7 302,-532.7"/>
<text text-anchor="start" x="305" y="-538.8" font-family="Helvetica,sans-Serif" font-size="11.00" fill="#000000">&lt; 1</text>
<polygon fill="#ffffff" stroke="transparent" points="386,-532.7 386,-551.7 462,-551.7 462,-532.7 386,-532.7"/>
<polygon fill="none" stroke="#000000" points="386,-532.7 386,-551.7 462,-551.7 462,-532.7 386,-532.7"/>
<text text-anchor="start" x="452.8862" y="-538.8" font-family="Helvetica,sans-Serif" font-size="11.00" fill="#000000"> &#160;</text>
<polygon fill="#ffffff" stroke="transparent" points="462,-532.7 462,-551.7 556,-551.7 556,-532.7 462,-532.7"/>
<polygon fill="none" stroke="#000000" points="462,-532.7 462,-551.7 556,-551.7 556,-532.7 462,-532.7"/>
<text text-anchor="start" x="537.4053" y="-538.8" font-family="Helvetica,sans-Serif" font-size="11.00" fill="#000000">0 &gt;</text>
<polygon fill="none" stroke="#000000" stroke-width="2" points="301,-531.7 301,-773.7 557,-773.7 557,-531.7 301,-531.7"/>
</a>
</g>
</g>
<!-- allocation_case_note&#45;&gt;prison_migration_date_history -->
<g id="edge3" class="edge">
<title>allocation_case_note:w&#45;&gt;prison_migration_date_history:e</title>
<path fill="none" stroke="#000000" stroke-dasharray="5,2" d="M288.4543,-711.6264C242.4997,-670.5339 318.7578,-393.7 251.5,-393.7"/>
<polygon fill="#000000" stroke="#000000" points="294.5083,-713.8939 300.7373,-720.0713 298.2541,-715.297 302,-716.7 302,-716.7 302,-716.7 298.2541,-715.297 303.2627,-713.3287 294.5083,-713.8939 294.5083,-713.8939"/>
<ellipse fill="none" stroke="#000000" cx="291.5116" cy="-712.7715" rx="3.2" ry="3.2"/>
</g>
<!-- allocation_case_note_audit -->
<g id="node5" class="node">
<title>allocation_case_note_audit</title>
<g id="a_node5"><a xlink:href="../../tables/allocation_case_note_audit.html" xlink:title="allocation_case_note_audit" target="_top">
<polygon fill="#ffffff" stroke="transparent" points="319.5,-448.2 319.5,-509.2 538.5,-509.2 538.5,-448.2 319.5,-448.2"/>
<polygon fill="#f5f5f5" stroke="transparent" points="320,-485.7 320,-508.7 539,-508.7 539,-485.7 320,-485.7"/>
<polygon fill="none" stroke="#000000" points="320,-485.7 320,-508.7 539,-508.7 539,-485.7 320,-485.7"/>
<text text-anchor="start" x="325" y="-494.3" font-family="Helvetica,sans-Serif" font-weight="bold" font-size="11.00" fill="#000000">allocation_case_note_audit</text>
<text text-anchor="start" x="504.5219" y="-493.8" font-family="Helvetica,sans-Serif" font-size="11.00" fill="#000000">[table]</text>
<polygon fill="none" stroke="#000000" points="320,-466.7 320,-485.7 539,-485.7 539,-466.7 320,-466.7"/>
<text text-anchor="start" x="323" y="-472.8" font-family="Helvetica,sans-Serif" font-size="11.00" fill="#000000">...</text>
<polygon fill="#ffffff" stroke="transparent" points="320,-447.7 320,-466.7 428,-466.7 428,-447.7 320,-447.7"/>
<polygon fill="none" stroke="#000000" points="320,-447.7 320,-466.7 428,-466.7 428,-447.7 320,-447.7"/>
<text text-anchor="start" x="323" y="-453.8" font-family="Helvetica,sans-Serif" font-size="11.00" fill="#000000">&lt; 2</text>
<polygon fill="#ffffff" stroke="transparent" points="428,-447.7 428,-466.7 483,-466.7 483,-447.7 428,-447.7"/>
<polygon fill="none" stroke="#000000" points="428,-447.7 428,-466.7 483,-466.7 483,-447.7 428,-447.7"/>
<text text-anchor="start" x="473.8862" y="-453.8" font-family="Helvetica,sans-Serif" font-size="11.00" fill="#000000"> &#160;</text>
<polygon fill="#ffffff" stroke="transparent" points="483,-447.7 483,-466.7 539,-466.7 539,-447.7 483,-447.7"/>
<polygon fill="none" stroke="#000000" points="483,-447.7 483,-466.7 539,-466.7 539,-447.7 483,-447.7"/>
<text text-anchor="start" x="529.8862" y="-453.8" font-family="Helvetica,sans-Serif" font-size="11.00" fill="#000000"> &#160;</text>
</a>
</g>
</g>
<!-- allocation_case_note_audit&#45;&gt;prison_migration_date_history -->
<g id="edge4" class="edge">
<title>allocation_case_note_audit:w&#45;&gt;prison_migration_date_history:e</title>
<path fill="none" stroke="#000000" stroke-dasharray="5,2" d="M305.7397,-472.3839C277.8399,-457.043 293.2371,-393.7 251.5,-393.7"/>
<polygon fill="#000000" stroke="#000000" points="312.2079,-473.888 319.1846,-479.2064 316.1039,-474.794 320,-475.7 320,-475.7 320,-475.7 316.1039,-474.794 320.8154,-472.1936 312.2079,-473.888 312.2079,-473.888"/>
<ellipse fill="none" stroke="#000000" cx="309.0911" cy="-473.1632" rx="3.2" ry="3.2"/>
</g>
<!-- prison_configuration -->
<g id="node6" class="node">
<title>prison_configuration</title>
<g id="a_node6"><a xlink:href="../../tables/prison_configuration.html" xlink:title="prison_configuration" target="_top">
<polygon fill="#ffffff" stroke="transparent" points="340,-366.2 340,-427.2 518,-427.2 518,-366.2 340,-366.2"/>
<polygon fill="#f5f5f5" stroke="transparent" points="340,-403.7 340,-426.7 518,-426.7 518,-403.7 340,-403.7"/>
<polygon fill="none" stroke="#000000" points="340,-403.7 340,-426.7 518,-426.7 518,-403.7 340,-403.7"/>
<text text-anchor="start" x="345" y="-412.3" font-family="Helvetica,sans-Serif" font-weight="bold" font-size="11.00" fill="#000000">prison_configuration</text>
<text text-anchor="start" x="483.5219" y="-411.8" font-family="Helvetica,sans-Serif" font-size="11.00" fill="#000000">[table]</text>
<polygon fill="none" stroke="#000000" points="340,-384.7 340,-403.7 518,-403.7 518,-384.7 340,-384.7"/>
<text text-anchor="start" x="343" y="-390.8" font-family="Helvetica,sans-Serif" font-size="11.00" fill="#000000">...</text>
<polygon fill="#ffffff" stroke="transparent" points="340,-365.7 340,-384.7 411,-384.7 411,-365.7 340,-365.7"/>
<polygon fill="none" stroke="#000000" points="340,-365.7 340,-384.7 411,-384.7 411,-365.7 340,-365.7"/>
<text text-anchor="start" x="343" y="-371.8" font-family="Helvetica,sans-Serif" font-size="11.00" fill="#000000">&lt; 2</text>
<polygon fill="#ffffff" stroke="transparent" points="411,-365.7 411,-384.7 480,-384.7 480,-365.7 411,-365.7"/>
<polygon fill="none" stroke="#000000" points="411,-365.7 411,-384.7 480,-384.7 480,-365.7 411,-365.7"/>
<text text-anchor="start" x="438.4956" y="-371.8" font-family="Helvetica,sans-Serif" font-size="11.00" fill="#000000">12 rows</text>
<polygon fill="#ffffff" stroke="transparent" points="480,-365.7 480,-384.7 518,-384.7 518,-365.7 480,-365.7"/>
<polygon fill="none" stroke="#000000" points="480,-365.7 480,-384.7 518,-384.7 518,-365.7 480,-365.7"/>
<text text-anchor="start" x="508.8862" y="-371.8" font-family="Helvetica,sans-Serif" font-size="11.00" fill="#000000"> &#160;</text>
</a>
</g>
</g>
<!-- prison_configuration&#45;&gt;prison_migration_date_history -->
<g id="edge5" class="edge">
<title>prison_configuration:w&#45;&gt;prison_migration_date_history:e</title>
<path fill="none" stroke="#000000" stroke-dasharray="5,2" d="M325.3707,-393.7C297.4265,-393.7 285.4557,-393.7 251.5,-393.7"/>
<polygon fill="#000000" stroke="#000000" points="332,-393.7001 340,-397.3 336,-393.7 340,-393.7 340,-393.7 340,-393.7 336,-393.7 340,-390.1 332,-393.7001 332,-393.7001"/>
<ellipse fill="none" stroke="#000000" cx="328.8" cy="-393.7001" rx="3.2" ry="3.2"/>
</g>
<!-- prison_configuration_audit -->
<g id="node7" class="node">
<title>prison_configuration_audit</title>
<g id="a_node7"><a xlink:href="../../tables/prison_configuration_audit.html" xlink:title="prison_configuration_audit" target="_top">
<polygon fill="#ffffff" stroke="transparent" points="319.5,-284.2 319.5,-345.2 538.5,-345.2 538.5,-284.2 319.5,-284.2"/>
<polygon fill="#f5f5f5" stroke="transparent" points="320,-321.7 320,-344.7 539,-344.7 539,-321.7 320,-321.7"/>
<polygon fill="none" stroke="#000000" points="320,-321.7 320,-344.7 539,-344.7 539,-321.7 320,-321.7"/>
<text text-anchor="start" x="325" y="-330.3" font-family="Helvetica,sans-Serif" font-weight="bold" font-size="11.00" fill="#000000">prison_configuration_audit</text>
<text text-anchor="start" x="504.5219" y="-329.8" font-family="Helvetica,sans-Serif" font-size="11.00" fill="#000000">[table]</text>
<polygon fill="none" stroke="#000000" points="320,-302.7 320,-321.7 539,-321.7 539,-302.7 320,-302.7"/>
<text text-anchor="start" x="323" y="-308.8" font-family="Helvetica,sans-Serif" font-size="11.00" fill="#000000">...</text>
<polygon fill="#ffffff" stroke="transparent" points="320,-283.7 320,-302.7 428,-302.7 428,-283.7 320,-283.7"/>
<polygon fill="none" stroke="#000000" points="320,-283.7 320,-302.7 428,-302.7 428,-283.7 320,-283.7"/>
<text text-anchor="start" x="323" y="-289.8" font-family="Helvetica,sans-Serif" font-size="11.00" fill="#000000">&lt; 3</text>
<polygon fill="#ffffff" stroke="transparent" points="428,-283.7 428,-302.7 483,-302.7 483,-283.7 428,-283.7"/>
<polygon fill="none" stroke="#000000" points="428,-283.7 428,-302.7 483,-302.7 483,-283.7 428,-283.7"/>
<text text-anchor="start" x="473.8862" y="-289.8" font-family="Helvetica,sans-Serif" font-size="11.00" fill="#000000"> &#160;</text>
<polygon fill="#ffffff" stroke="transparent" points="483,-283.7 483,-302.7 539,-302.7 539,-283.7 483,-283.7"/>
<polygon fill="none" stroke="#000000" points="483,-283.7 483,-302.7 539,-302.7 539,-283.7 483,-283.7"/>
<text text-anchor="start" x="529.8862" y="-289.8" font-family="Helvetica,sans-Serif" font-size="11.00" fill="#000000"> &#160;</text>
</a>
</g>
</g>
<!-- prison_configuration_audit&#45;&gt;prison_migration_date_history -->
<g id="edge6" class="edge">
<title>prison_configuration_audit:w&#45;&gt;prison_migration_date_history:e</title>
<path fill="none" stroke="#000000" stroke-dasharray="5,2" d="M305.7397,-315.0161C277.8399,-330.357 293.2371,-393.7 251.5,-393.7"/>
<polygon fill="#000000" stroke="#000000" points="312.2079,-313.512 320.8154,-315.2064 316.1039,-312.606 320,-311.7 320,-311.7 320,-311.7 316.1039,-312.606 319.1846,-308.1936 312.2079,-313.512 312.2079,-313.512"/>
<ellipse fill="none" stroke="#000000" cx="309.0911" cy="-314.2368" rx="3.2" ry="3.2"/>
</g>
<!-- prison_statistic -->
<g id="node8" class="node">
<title>prison_statistic</title>
<g id="a_node8"><a xlink:href="../../tables/prison_statistic.html" xlink:title="prison_statistic" target="_top">
<polygon fill="#ffffff" stroke="transparent" points="358,-202.2 358,-263.2 500,-263.2 500,-202.2 358,-202.2"/>
<polygon fill="#f5f5f5" stroke="transparent" points="358,-239.7 358,-262.7 500,-262.7 500,-239.7 358,-239.7"/>
<polygon fill="none" stroke="#000000" points="358,-239.7 358,-262.7 500,-262.7 500,-239.7 358,-239.7"/>
<text text-anchor="start" x="363" y="-248.3" font-family="Helvetica,sans-Serif" font-weight="bold" font-size="11.00" fill="#000000">prison_statistic</text>
<text text-anchor="start" x="465.5219" y="-247.8" font-family="Helvetica,sans-Serif" font-size="11.00" fill="#000000">[table]</text>
<polygon fill="none" stroke="#000000" points="358,-220.7 358,-239.7 500,-239.7 500,-220.7 358,-220.7"/>
<text text-anchor="start" x="361" y="-226.8" font-family="Helvetica,sans-Serif" font-size="11.00" fill="#000000">...</text>
<polygon fill="#ffffff" stroke="transparent" points="358,-201.7 358,-220.7 427,-220.7 427,-201.7 358,-201.7"/>
<polygon fill="none" stroke="#000000" points="358,-201.7 358,-220.7 427,-220.7 427,-201.7 358,-201.7"/>
<text text-anchor="start" x="361" y="-207.8" font-family="Helvetica,sans-Serif" font-size="11.00" fill="#000000">&lt; 2</text>
<polygon fill="#ffffff" stroke="transparent" points="427,-201.7 427,-220.7 463,-220.7 463,-201.7 427,-201.7"/>
<polygon fill="none" stroke="#000000" points="427,-201.7 427,-220.7 463,-220.7 463,-201.7 427,-201.7"/>
<text text-anchor="start" x="453.8862" y="-207.8" font-family="Helvetica,sans-Serif" font-size="11.00" fill="#000000"> &#160;</text>
<polygon fill="#ffffff" stroke="transparent" points="463,-201.7 463,-220.7 500,-220.7 500,-201.7 463,-201.7"/>
<polygon fill="none" stroke="#000000" points="463,-201.7 463,-220.7 500,-220.7 500,-201.7 463,-201.7"/>
<text text-anchor="start" x="490.8862" y="-207.8" font-family="Helvetica,sans-Serif" font-size="11.00" fill="#000000"> &#160;</text>
</a>
</g>
</g>
<!-- prison_statistic&#45;&gt;prison_migration_date_history -->
<g id="edge7" class="edge">
<title>prison_statistic:w&#45;&gt;prison_migration_date_history:e</title>
<path fill="none" stroke="#000000" stroke-dasharray="5,2" d="M343.5604,-230.8012C319.6317,-234.8595 310.1835,-249.9854 292,-273.7 257.7493,-318.3691 307.7889,-393.7 251.5,-393.7"/>
<polygon fill="#000000" stroke="#000000" points="350.0232,-230.3084 358.2738,-233.2896 354.0116,-230.0042 358,-229.7 358,-229.7 358,-229.7 354.0116,-230.0042 357.7262,-226.1104 350.0232,-230.3084 350.0232,-230.3084"/>
<ellipse fill="none" stroke="#000000" cx="346.8324" cy="-230.5518" rx="3.2" ry="3.2"/>
</g>
<!-- staff_role -->
<g id="node9" class="node">
<title>staff_role</title>
<g id="a_node9"><a xlink:href="../../tables/staff_role.html" xlink:title="staff_role" target="_top">
<polygon fill="#ffffff" stroke="transparent" points="378,-120.2 378,-181.2 480,-181.2 480,-120.2 378,-120.2"/>
<polygon fill="#f5f5f5" stroke="transparent" points="378,-157.7 378,-180.7 480,-180.7 480,-157.7 378,-157.7"/>
<polygon fill="none" stroke="#000000" points="378,-157.7 378,-180.7 480,-180.7 480,-157.7 378,-157.7"/>
<text text-anchor="start" x="383" y="-166.3" font-family="Helvetica,sans-Serif" font-weight="bold" font-size="11.00" fill="#000000">staff_role</text>
<text text-anchor="start" x="445.5219" y="-165.8" font-family="Helvetica,sans-Serif" font-size="11.00" fill="#000000">[table]</text>
<polygon fill="none" stroke="#000000" points="378,-138.7 378,-157.7 480,-157.7 480,-138.7 378,-138.7"/>
<text text-anchor="start" x="381" y="-144.8" font-family="Helvetica,sans-Serif" font-size="11.00" fill="#000000">...</text>
<polygon fill="#ffffff" stroke="transparent" points="378,-119.7 378,-138.7 427,-138.7 427,-119.7 378,-119.7"/>
<polygon fill="none" stroke="#000000" points="378,-119.7 378,-138.7 427,-138.7 427,-119.7 378,-119.7"/>
<text text-anchor="start" x="381" y="-125.8" font-family="Helvetica,sans-Serif" font-size="11.00" fill="#000000">&lt; 2</text>
<polygon fill="#ffffff" stroke="transparent" points="427,-119.7 427,-138.7 453,-138.7 453,-119.7 427,-119.7"/>
<polygon fill="none" stroke="#000000" points="427,-119.7 427,-138.7 453,-138.7 453,-119.7 427,-119.7"/>
<text text-anchor="start" x="443.8862" y="-125.8" font-family="Helvetica,sans-Serif" font-size="11.00" fill="#000000"> &#160;</text>
<polygon fill="#ffffff" stroke="transparent" points="453,-119.7 453,-138.7 480,-138.7 480,-119.7 453,-119.7"/>
<polygon fill="none" stroke="#000000" points="453,-119.7 453,-138.7 480,-138.7 480,-119.7 453,-119.7"/>
<text text-anchor="start" x="470.8862" y="-125.8" font-family="Helvetica,sans-Serif" font-size="11.00" fill="#000000"> &#160;</text>
</a>
</g>
</g>
<!-- staff_role&#45;&gt;prison_migration_date_history -->
<g id="edge8" class="edge">
<title>staff_role:w&#45;&gt;prison_migration_date_history:e</title>
<path fill="none" stroke="#000000" stroke-dasharray="5,2" d="M363.4755,-148.1557C330.7826,-150.4239 314.7732,-161.6112 292,-191.7 236.741,-264.7103 343.0645,-393.7 251.5,-393.7"/>
<polygon fill="#000000" stroke="#000000" points="370.0039,-147.9509 378.1129,-151.2982 374.002,-147.8255 378,-147.7 378,-147.7 378,-147.7 374.002,-147.8255 377.8871,-144.1018 370.0039,-147.9509 370.0039,-147.9509"/>
<ellipse fill="none" stroke="#000000" cx="366.8055" cy="-148.0513" rx="3.2" ry="3.2"/>
</g>
<!-- staff_role_audit -->
<g id="node10" class="node">
<title>staff_role_audit</title>
<g id="a_node10"><a xlink:href="../../tables/staff_role_audit.html" xlink:title="staff_role_audit" target="_top">
<polygon fill="#ffffff" stroke="transparent" points="357.5,-38.2 357.5,-99.2 500.5,-99.2 500.5,-38.2 357.5,-38.2"/>
<polygon fill="#f5f5f5" stroke="transparent" points="358,-75.7 358,-98.7 501,-98.7 501,-75.7 358,-75.7"/>
<polygon fill="none" stroke="#000000" points="358,-75.7 358,-98.7 501,-98.7 501,-75.7 358,-75.7"/>
<text text-anchor="start" x="363" y="-84.3" font-family="Helvetica,sans-Serif" font-weight="bold" font-size="11.00" fill="#000000">staff_role_audit</text>
<text text-anchor="start" x="466.5219" y="-83.8" font-family="Helvetica,sans-Serif" font-size="11.00" fill="#000000">[table]</text>
<polygon fill="none" stroke="#000000" points="358,-56.7 358,-75.7 501,-75.7 501,-56.7 358,-56.7"/>
<text text-anchor="start" x="361" y="-62.8" font-family="Helvetica,sans-Serif" font-size="11.00" fill="#000000">...</text>
<polygon fill="#ffffff" stroke="transparent" points="358,-37.7 358,-56.7 428,-56.7 428,-37.7 358,-37.7"/>
<polygon fill="none" stroke="#000000" points="358,-37.7 358,-56.7 428,-56.7 428,-37.7 358,-37.7"/>
<text text-anchor="start" x="361" y="-43.8" font-family="Helvetica,sans-Serif" font-size="11.00" fill="#000000">&lt; 3</text>
<polygon fill="#ffffff" stroke="transparent" points="428,-37.7 428,-56.7 464,-56.7 464,-37.7 428,-37.7"/>
<polygon fill="none" stroke="#000000" points="428,-37.7 428,-56.7 464,-56.7 464,-37.7 428,-37.7"/>
<text text-anchor="start" x="454.8862" y="-43.8" font-family="Helvetica,sans-Serif" font-size="11.00" fill="#000000"> &#160;</text>
<polygon fill="#ffffff" stroke="transparent" points="464,-37.7 464,-56.7 501,-56.7 501,-37.7 464,-37.7"/>
<polygon fill="none" stroke="#000000" points="464,-37.7 464,-56.7 501,-56.7 501,-37.7 464,-37.7"/>
<text text-anchor="start" x="491.8862" y="-43.8" font-family="Helvetica,sans-Serif" font-size="11.00" fill="#000000"> &#160;</text>
</a>
</g>
</g>
<!-- staff_role_audit&#45;&gt;prison_migration_date_history -->
<g id="edge9" class="edge">
<title>staff_role_audit:w&#45;&gt;prison_migration_date_history:e</title>
<path fill="none" stroke="#000000" stroke-dasharray="5,2" d="M343.4035,-66.692C318.9451,-70.3815 307.9299,-84.4164 292,-109.7 258.0171,-163.6368 315.2496,-393.7 251.5,-393.7"/>
<polygon fill="#000000" stroke="#000000" points="350.0184,-66.2425 358.2441,-69.2917 354.0092,-65.9712 358,-65.7 358,-65.7 358,-65.7 354.0092,-65.9712 357.7559,-62.1083 350.0184,-66.2425 350.0184,-66.2425"/>
<ellipse fill="none" stroke="#000000" cx="346.8258" cy="-66.4595" rx="3.2" ry="3.2"/>
</g>
</g>
</svg>
