<?xml version="1.0" encoding="UTF-8" standalone="no"?>
<!DOCTYPE svg PUBLIC "-//W3C//DTD SVG 1.1//EN"
 "http://www.w3.org/Graphics/SVG/1.1/DTD/svg11.dtd">
<!-- Generated by graphviz version 2.40.1 (20161225.0304)
 -->
<!-- Title: twoDegreesRelationshipsDiagram Pages: 1 -->
<svg width="526pt" height="783pt"
 viewBox="0.00 0.00 526.00 782.70" xmlns="http://www.w3.org/2000/svg" xmlns:xlink="http://www.w3.org/1999/xlink">
<g id="graph0" class="graph" transform="scale(1 1) rotate(0) translate(4 778.7)">
<title>twoDegreesRelationshipsDiagram</title>
<polygon fill="#ffffff" stroke="transparent" points="-4,4 -4,-778.7 522,-778.7 522,4 -4,4"/>
<text text-anchor="middle" x="72.4936" y="-7.3" font-family="Helvetica,sans-Serif" font-size="11.00" fill="#000000">Generated by SchemaSpy</text>
<!-- allocation_audit -->
<g id="node1" class="node">
<title>allocation_audit</title>
<g id="a_node1"><a xlink:href="../../tables/allocation_audit.html" xlink:title="allocation_audit" target="_top">
<polygon fill="#ffffff" stroke="transparent" points="191,-284.7 191,-770.7 510,-770.7 510,-284.7 191,-284.7"/>
<polygon fill="#f5f5f5" stroke="transparent" points="193.5,-745.7 193.5,-768.7 508.5,-768.7 508.5,-745.7 193.5,-745.7"/>
<polygon fill="none" stroke="#000000" points="193.5,-745.7 193.5,-768.7 508.5,-768.7 508.5,-745.7 193.5,-745.7"/>
<text text-anchor="start" x="198.5" y="-754.3" font-family="Helvetica,sans-Serif" font-weight="bold" font-size="11.00" fill="#000000">allocation_audit</text>
<text text-anchor="start" x="473.5437" y="-753.8" font-family="Helvetica,sans-Serif" font-size="11.00" fill="#000000">[table]</text>
<polygon fill="none" stroke="#000000" points="193.5,-723.7 193.5,-745.7 414.5,-745.7 414.5,-723.7 193.5,-723.7"/>
<image xlink:href="../../images/primaryKeys.png" width="11px" height="12px" preserveAspectRatio="xMinYMin meet" x="198.5" y="-740.7"/>
<text text-anchor="start" x="213.5" y="-730.8" font-family="Helvetica,sans-Serif" font-size="11.00" fill="#000000">rev_id</text>
<polygon fill="none" stroke="#000000" points="414.5,-723.7 414.5,-745.7 508.5,-745.7 508.5,-723.7 414.5,-723.7"/>
<text text-anchor="start" x="417.5" y="-731.4" font-family="Helvetica,sans-Serif" font-size="11.00" fill="#000000">int8[19]</text>
<polygon fill="none" stroke="#000000" points="193.5,-701.7 193.5,-723.7 414.5,-723.7 414.5,-701.7 193.5,-701.7"/>
<text text-anchor="start" x="213.5" y="-708.8" font-family="Helvetica,sans-Serif" font-size="11.00" fill="#000000">rev_type</text>
<polygon fill="none" stroke="#000000" points="414.5,-701.7 414.5,-723.7 508.5,-723.7 508.5,-701.7 414.5,-701.7"/>
<text text-anchor="start" x="417.5" y="-709.4" font-family="Helvetica,sans-Serif" font-size="11.00" fill="#000000">int2[5]</text>
<polygon fill="none" stroke="#000000" points="193.5,-679.7 193.5,-701.7 414.5,-701.7 414.5,-679.7 193.5,-679.7"/>
<image xlink:href="../../images/primaryKeys.png" width="11px" height="12px" preserveAspectRatio="xMinYMin meet" x="198.5" y="-696.7"/>
<text text-anchor="start" x="213.5" y="-686.8" font-family="Helvetica,sans-Serif" font-size="11.00" fill="#000000">id</text>
<polygon fill="none" stroke="#000000" points="414.5,-679.7 414.5,-701.7 508.5,-701.7 508.5,-679.7 414.5,-679.7"/>
<text text-anchor="start" x="417.4758" y="-687.4" font-family="Helvetica,sans-Serif" font-size="11.00" fill="#000000">uuid[2147483647]</text>
<polygon fill="none" stroke="#000000" points="193.5,-657.7 193.5,-679.7 414.5,-679.7 414.5,-657.7 193.5,-657.7"/>
<image xlink:href="../../images/foreignKeys.png" width="11px" height="12px" preserveAspectRatio="xMinYMin meet" x="198.5" y="-674.7"/>
<text text-anchor="start" x="213.5" y="-664.8" font-family="Helvetica,sans-Serif" font-size="11.00" fill="#000000">prison_code</text>
<polygon fill="none" stroke="#000000" points="414.5,-657.7 414.5,-679.7 508.5,-679.7 508.5,-657.7 414.5,-657.7"/>
<text text-anchor="start" x="417.5" y="-665.4" font-family="Helvetica,sans-Serif" font-size="11.00" fill="#000000">varchar[6]</text>
<polygon fill="none" stroke="#000000" points="193.5,-635.7 193.5,-657.7 414.5,-657.7 414.5,-635.7 193.5,-635.7"/>
<text text-anchor="start" x="213.5" y="-642.8" font-family="Helvetica,sans-Serif" font-size="11.00" fill="#000000">staff_id</text>
<polygon fill="none" stroke="#000000" points="414.5,-635.7 414.5,-657.7 508.5,-657.7 508.5,-635.7 414.5,-635.7"/>
<text text-anchor="start" x="417.5" y="-643.4" font-family="Helvetica,sans-Serif" font-size="11.00" fill="#000000">int8[19]</text>
<polygon fill="none" stroke="#000000" points="193.5,-613.7 193.5,-635.7 414.5,-635.7 414.5,-613.7 193.5,-613.7"/>
<text text-anchor="start" x="213.5" y="-620.8" font-family="Helvetica,sans-Serif" font-size="11.00" fill="#000000">person_identifier</text>
<polygon fill="none" stroke="#000000" points="414.5,-613.7 414.5,-635.7 508.5,-635.7 508.5,-613.7 414.5,-613.7"/>
<text text-anchor="start" x="417.5" y="-621.4" font-family="Helvetica,sans-Serif" font-size="11.00" fill="#000000">varchar[10]</text>
<polygon fill="none" stroke="#000000" points="193.5,-591.7 193.5,-613.7 414.5,-613.7 414.5,-591.7 193.5,-591.7"/>
<text text-anchor="start" x="213.5" y="-598.8" font-family="Helvetica,sans-Serif" font-size="11.00" fill="#000000">allocated_at</text>
<polygon fill="none" stroke="#000000" points="414.5,-591.7 414.5,-613.7 508.5,-613.7 508.5,-591.7 414.5,-591.7"/>
<text text-anchor="start" x="417.5" y="-599.4" font-family="Helvetica,sans-Serif" font-size="11.00" fill="#000000">timestamp[29,6]</text>
<polygon fill="none" stroke="#000000" points="193.5,-569.7 193.5,-591.7 414.5,-591.7 414.5,-569.7 193.5,-569.7"/>
<text text-anchor="start" x="213.5" y="-576.8" font-family="Helvetica,sans-Serif" font-size="11.00" fill="#000000">allocation_type</text>
<polygon fill="none" stroke="#000000" points="414.5,-569.7 414.5,-591.7 508.5,-591.7 508.5,-569.7 414.5,-569.7"/>
<text text-anchor="start" x="417.5" y="-577.4" font-family="Helvetica,sans-Serif" font-size="11.00" fill="#000000">bpchar[1]</text>
<polygon fill="none" stroke="#000000" points="193.5,-547.7 193.5,-569.7 414.5,-569.7 414.5,-547.7 193.5,-547.7"/>
<text text-anchor="start" x="213.5" y="-554.8" font-family="Helvetica,sans-Serif" font-size="11.00" fill="#000000">allocated_by</text>
<polygon fill="none" stroke="#000000" points="414.5,-547.7 414.5,-569.7 508.5,-569.7 508.5,-547.7 414.5,-547.7"/>
<text text-anchor="start" x="417.5" y="-555.4" font-family="Helvetica,sans-Serif" font-size="11.00" fill="#000000">varchar[64]</text>
<polygon fill="none" stroke="#000000" points="193.5,-525.7 193.5,-547.7 414.5,-547.7 414.5,-525.7 193.5,-525.7"/>
<text text-anchor="start" x="213.5" y="-532.8" font-family="Helvetica,sans-Serif" font-size="11.00" fill="#000000">allocation_reason_id</text>
<polygon fill="none" stroke="#000000" points="414.5,-525.7 414.5,-547.7 508.5,-547.7 508.5,-525.7 414.5,-525.7"/>
<text text-anchor="start" x="417.5" y="-533.4" font-family="Helvetica,sans-Serif" font-size="11.00" fill="#000000">int8[19]</text>
<polygon fill="none" stroke="#000000" points="193.5,-503.7 193.5,-525.7 414.5,-525.7 414.5,-503.7 193.5,-503.7"/>
<text text-anchor="start" x="213.5" y="-510.8" font-family="Helvetica,sans-Serif" font-size="11.00" fill="#000000">deallocated_at</text>
<polygon fill="none" stroke="#000000" points="414.5,-503.7 414.5,-525.7 508.5,-525.7 508.5,-503.7 414.5,-503.7"/>
<text text-anchor="start" x="417.5" y="-511.4" font-family="Helvetica,sans-Serif" font-size="11.00" fill="#000000">timestamp[29,6]</text>
<polygon fill="none" stroke="#000000" points="193.5,-481.7 193.5,-503.7 414.5,-503.7 414.5,-481.7 193.5,-481.7"/>
<text text-anchor="start" x="213.5" y="-488.8" font-family="Helvetica,sans-Serif" font-size="11.00" fill="#000000">deallocation_reason_id</text>
<polygon fill="none" stroke="#000000" points="414.5,-481.7 414.5,-503.7 508.5,-503.7 508.5,-481.7 414.5,-481.7"/>
<text text-anchor="start" x="417.5" y="-489.4" font-family="Helvetica,sans-Serif" font-size="11.00" fill="#000000">int8[19]</text>
<polygon fill="none" stroke="#000000" points="193.5,-459.7 193.5,-481.7 414.5,-481.7 414.5,-459.7 193.5,-459.7"/>
<text text-anchor="start" x="213.5" y="-466.8" font-family="Helvetica,sans-Serif" font-size="11.00" fill="#000000">deallocated_by</text>
<polygon fill="none" stroke="#000000" points="414.5,-459.7 414.5,-481.7 508.5,-481.7 508.5,-459.7 414.5,-459.7"/>
<text text-anchor="start" x="417.5" y="-467.4" font-family="Helvetica,sans-Serif" font-size="11.00" fill="#000000">varchar[64]</text>
<polygon fill="none" stroke="#000000" points="193.5,-437.7 193.5,-459.7 414.5,-459.7 414.5,-437.7 193.5,-437.7"/>
<text text-anchor="start" x="213.5" y="-444.8" font-family="Helvetica,sans-Serif" font-size="11.00" fill="#000000">is_active</text>
<polygon fill="none" stroke="#000000" points="414.5,-437.7 414.5,-459.7 508.5,-459.7 508.5,-437.7 414.5,-437.7"/>
<text text-anchor="start" x="417.5" y="-445.4" font-family="Helvetica,sans-Serif" font-size="11.00" fill="#000000">bool[1]</text>
<polygon fill="none" stroke="#000000" points="193.5,-415.7 193.5,-437.7 414.5,-437.7 414.5,-415.7 193.5,-415.7"/>
<image xlink:href="../../images/foreignKeys.png" width="11px" height="12px" preserveAspectRatio="xMinYMin meet" x="198.5" y="-432.7"/>
<text text-anchor="start" x="213.5" y="-422.8" font-family="Helvetica,sans-Serif" font-size="11.00" fill="#000000">policy_code</text>
<polygon fill="none" stroke="#000000" points="414.5,-415.7 414.5,-437.7 508.5,-437.7 508.5,-415.7 414.5,-415.7"/>
<text text-anchor="start" x="417.5" y="-423.4" font-family="Helvetica,sans-Serif" font-size="11.00" fill="#000000">varchar[16]</text>
<polygon fill="none" stroke="#000000" points="193.5,-393.7 193.5,-415.7 414.5,-415.7 414.5,-393.7 193.5,-393.7"/>
<text text-anchor="start" x="213.5" y="-400.8" font-family="Helvetica,sans-Serif" font-size="11.00" fill="#000000">person_identifier_modified</text>
<polygon fill="none" stroke="#000000" points="414.5,-393.7 414.5,-415.7 508.5,-415.7 508.5,-393.7 414.5,-393.7"/>
<text text-anchor="start" x="417.5" y="-401.4" font-family="Helvetica,sans-Serif" font-size="11.00" fill="#000000">bool[1]</text>
<polygon fill="none" stroke="#000000" points="193.5,-371.7 193.5,-393.7 414.5,-393.7 414.5,-371.7 193.5,-371.7"/>
<text text-anchor="start" x="213.5" y="-378.8" font-family="Helvetica,sans-Serif" font-size="11.00" fill="#000000">deallocated_at_modified</text>
<polygon fill="none" stroke="#000000" points="414.5,-371.7 414.5,-393.7 508.5,-393.7 508.5,-371.7 414.5,-371.7"/>
<text text-anchor="start" x="417.5" y="-379.4" font-family="Helvetica,sans-Serif" font-size="11.00" fill="#000000">bool[1]</text>
<polygon fill="none" stroke="#000000" points="193.5,-349.7 193.5,-371.7 414.5,-371.7 414.5,-349.7 193.5,-349.7"/>
<text text-anchor="start" x="213.5" y="-356.8" font-family="Helvetica,sans-Serif" font-size="11.00" fill="#000000">deallocation_reason_modified</text>
<polygon fill="none" stroke="#000000" points="414.5,-349.7 414.5,-371.7 508.5,-371.7 508.5,-349.7 414.5,-349.7"/>
<text text-anchor="start" x="417.5" y="-357.4" font-family="Helvetica,sans-Serif" font-size="11.00" fill="#000000">bool[1]</text>
<polygon fill="none" stroke="#000000" points="193.5,-327.7 193.5,-349.7 414.5,-349.7 414.5,-327.7 193.5,-327.7"/>
<text text-anchor="start" x="213.5" y="-334.8" font-family="Helvetica,sans-Serif" font-size="11.00" fill="#000000">deallocated_by_modified</text>
<polygon fill="none" stroke="#000000" points="414.5,-327.7 414.5,-349.7 508.5,-349.7 508.5,-327.7 414.5,-327.7"/>
<text text-anchor="start" x="417.5" y="-335.4" font-family="Helvetica,sans-Serif" font-size="11.00" fill="#000000">bool[1]</text>
<polygon fill="none" stroke="#000000" points="193.5,-305.7 193.5,-327.7 414.5,-327.7 414.5,-305.7 193.5,-305.7"/>
<text text-anchor="start" x="213.5" y="-312.8" font-family="Helvetica,sans-Serif" font-size="11.00" fill="#000000">is_active_modified</text>
<polygon fill="none" stroke="#000000" points="414.5,-305.7 414.5,-327.7 508.5,-327.7 508.5,-305.7 414.5,-305.7"/>
<text text-anchor="start" x="417.5" y="-313.4" font-family="Helvetica,sans-Serif" font-size="11.00" fill="#000000">bool[1]</text>
<polygon fill="#ffffff" stroke="transparent" points="193.5,-286.7 193.5,-305.7 308.5,-305.7 308.5,-286.7 193.5,-286.7"/>
<polygon fill="none" stroke="#000000" points="193.5,-286.7 193.5,-305.7 308.5,-305.7 308.5,-286.7 193.5,-286.7"/>
<text text-anchor="start" x="196.5" y="-292.8" font-family="Helvetica,sans-Serif" font-size="11.00" fill="#000000">&lt; 1</text>
<polygon fill="#ffffff" stroke="transparent" points="308.5,-286.7 308.5,-305.7 414.5,-305.7 414.5,-286.7 308.5,-286.7"/>
<polygon fill="none" stroke="#000000" points="308.5,-286.7 308.5,-305.7 414.5,-305.7 414.5,-286.7 308.5,-286.7"/>
<text text-anchor="start" x="405.3862" y="-292.8" font-family="Helvetica,sans-Serif" font-size="11.00" fill="#000000"> &#160;</text>
<polygon fill="#ffffff" stroke="transparent" points="414.5,-286.7 414.5,-305.7 508.5,-305.7 508.5,-286.7 414.5,-286.7"/>
<polygon fill="none" stroke="#000000" points="414.5,-286.7 414.5,-305.7 508.5,-305.7 508.5,-286.7 414.5,-286.7"/>
<text text-anchor="start" x="489.9053" y="-292.8" font-family="Helvetica,sans-Serif" font-size="11.00" fill="#000000">0 &gt;</text>
<polygon fill="none" stroke="#000000" stroke-width="2" points="192,-285.7 192,-769.7 509,-769.7 509,-285.7 192,-285.7"/>
</a>
</g>
</g>
<!-- audit_revision -->
<g id="node2" class="node">
<title>audit_revision</title>
<g id="a_node2"><a xlink:href="../../tables/audit_revision.html" xlink:title="audit_revision" target="_top">
<polygon fill="#ffffff" stroke="transparent" points="8,-140.2 8,-223.2 142,-223.2 142,-140.2 8,-140.2"/>
<polygon fill="#f5f5f5" stroke="transparent" points="8,-199.7 8,-222.7 142,-222.7 142,-199.7 8,-199.7"/>
<polygon fill="none" stroke="#000000" points="8,-199.7 8,-222.7 142,-222.7 142,-199.7 8,-199.7"/>
<text text-anchor="start" x="13" y="-208.3" font-family="Helvetica,sans-Serif" font-weight="bold" font-size="11.00" fill="#000000">audit_revision</text>
<text text-anchor="start" x="107.5219" y="-207.8" font-family="Helvetica,sans-Serif" font-size="11.00" fill="#000000">[table]</text>
<polygon fill="none" stroke="#000000" points="8,-177.7 8,-199.7 142,-199.7 142,-177.7 8,-177.7"/>
<image xlink:href="../../images/primaryKeys.png" width="11px" height="12px" preserveAspectRatio="xMinYMin meet" x="13" y="-194.7"/>
<text text-anchor="start" x="28" y="-184.8" font-family="Helvetica,sans-Serif" font-size="11.00" fill="#000000">id</text>
<polygon fill="none" stroke="#000000" points="8,-158.7 8,-177.7 142,-177.7 142,-158.7 8,-158.7"/>
<text text-anchor="start" x="11" y="-164.8" font-family="Helvetica,sans-Serif" font-size="11.00" fill="#000000">...</text>
<polygon fill="#ffffff" stroke="transparent" points="8,-139.7 8,-158.7 64,-158.7 64,-139.7 8,-139.7"/>
<polygon fill="none" stroke="#000000" points="8,-139.7 8,-158.7 64,-158.7 64,-139.7 8,-139.7"/>
<text text-anchor="start" x="11" y="-145.8" font-family="Helvetica,sans-Serif" font-size="11.00" fill="#000000"> &#160;</text>
<polygon fill="#ffffff" stroke="transparent" points="64,-139.7 64,-158.7 98,-158.7 98,-139.7 64,-139.7"/>
<polygon fill="none" stroke="#000000" points="64,-139.7 64,-158.7 98,-158.7 98,-139.7 64,-139.7"/>
<text text-anchor="start" x="88.8862" y="-145.8" font-family="Helvetica,sans-Serif" font-size="11.00" fill="#000000"> &#160;</text>
<polygon fill="#ffffff" stroke="transparent" points="98,-139.7 98,-158.7 142,-158.7 142,-139.7 98,-139.7"/>
<polygon fill="none" stroke="#000000" points="98,-139.7 98,-158.7 142,-158.7 142,-139.7 98,-139.7"/>
<text text-anchor="start" x="123.4053" y="-145.8" font-family="Helvetica,sans-Serif" font-size="11.00" fill="#000000">4 &gt;</text>
</a>
</g>
</g>
<!-- allocation_audit&#45;&gt;audit_revision -->
<g id="edge1" class="edge">
<title>allocation_audit:w&#45;&gt;audit_revision:e</title>
<path fill="none" stroke="#000000" d="M181.7447,-725.6787C142.5229,-654.6883 198.2943,-188.7 142,-188.7"/>
<polygon fill="#000000" stroke="#000000" points="187.1535,-729.8295 191.3083,-737.5559 190.3267,-732.2647 193.5,-734.7 193.5,-734.7 193.5,-734.7 190.3267,-732.2647 195.6917,-731.8441 187.1535,-729.8295 187.1535,-729.8295"/>
<ellipse fill="none" stroke="#000000" cx="184.6149" cy="-727.8813" rx="3.2" ry="3.2"/>
</g>
<!-- prison_configuration_audit -->
<g id="node3" class="node">
<title>prison_configuration_audit</title>
<g id="a_node3"><a xlink:href="../../tables/prison_configuration_audit.html" xlink:title="prison_configuration_audit" target="_top">
<polygon fill="#ffffff" stroke="transparent" points="241,-202.2 241,-263.2 460,-263.2 460,-202.2 241,-202.2"/>
<polygon fill="#f5f5f5" stroke="transparent" points="241.5,-239.7 241.5,-262.7 460.5,-262.7 460.5,-239.7 241.5,-239.7"/>
<polygon fill="none" stroke="#000000" points="241.5,-239.7 241.5,-262.7 460.5,-262.7 460.5,-239.7 241.5,-239.7"/>
<text text-anchor="start" x="246.5" y="-248.3" font-family="Helvetica,sans-Serif" font-weight="bold" font-size="11.00" fill="#000000">prison_configuration_audit</text>
<text text-anchor="start" x="426.0219" y="-247.8" font-family="Helvetica,sans-Serif" font-size="11.00" fill="#000000">[table]</text>
<polygon fill="none" stroke="#000000" points="241.5,-220.7 241.5,-239.7 460.5,-239.7 460.5,-220.7 241.5,-220.7"/>
<text text-anchor="start" x="244.5" y="-226.8" font-family="Helvetica,sans-Serif" font-size="11.00" fill="#000000">...</text>
<polygon fill="#ffffff" stroke="transparent" points="241.5,-201.7 241.5,-220.7 349.5,-220.7 349.5,-201.7 241.5,-201.7"/>
<polygon fill="none" stroke="#000000" points="241.5,-201.7 241.5,-220.7 349.5,-220.7 349.5,-201.7 241.5,-201.7"/>
<text text-anchor="start" x="244.5" y="-207.8" font-family="Helvetica,sans-Serif" font-size="11.00" fill="#000000">&lt; 1</text>
<polygon fill="#ffffff" stroke="transparent" points="349.5,-201.7 349.5,-220.7 404.5,-220.7 404.5,-201.7 349.5,-201.7"/>
<polygon fill="none" stroke="#000000" points="349.5,-201.7 349.5,-220.7 404.5,-220.7 404.5,-201.7 349.5,-201.7"/>
<text text-anchor="start" x="395.3862" y="-207.8" font-family="Helvetica,sans-Serif" font-size="11.00" fill="#000000"> &#160;</text>
<polygon fill="#ffffff" stroke="transparent" points="404.5,-201.7 404.5,-220.7 460.5,-220.7 460.5,-201.7 404.5,-201.7"/>
<polygon fill="none" stroke="#000000" points="404.5,-201.7 404.5,-220.7 460.5,-220.7 460.5,-201.7 404.5,-201.7"/>
<text text-anchor="start" x="451.3862" y="-207.8" font-family="Helvetica,sans-Serif" font-size="11.00" fill="#000000"> &#160;</text>
</a>
</g>
</g>
<!-- prison_configuration_audit&#45;&gt;audit_revision -->
<g id="edge2" class="edge">
<title>prison_configuration_audit:w&#45;&gt;audit_revision:e</title>
<path fill="none" stroke="#000000" d="M226.811,-228.2408C192.2358,-220.9371 184.4113,-188.7 142,-188.7"/>
<polygon fill="#000000" stroke="#000000" points="233.5392,-228.9091 241.1441,-233.2824 237.5196,-229.3046 241.5,-229.7 241.5,-229.7 241.5,-229.7 237.5196,-229.3046 241.8559,-226.1176 233.5392,-228.9091 233.5392,-228.9091"/>
<ellipse fill="none" stroke="#000000" cx="230.3549" cy="-228.5928" rx="3.2" ry="3.2"/>
</g>
<!-- staff_configuration_audit -->
<g id="node4" class="node">
<title>staff_configuration_audit</title>
<g id="a_node4"><a xlink:href="../../tables/staff_configuration_audit.html" xlink:title="staff_configuration_audit" target="_top">
<polygon fill="#ffffff" stroke="transparent" points="246.5,-120.2 246.5,-181.2 454.5,-181.2 454.5,-120.2 246.5,-120.2"/>
<polygon fill="#f5f5f5" stroke="transparent" points="246.5,-157.7 246.5,-180.7 454.5,-180.7 454.5,-157.7 246.5,-157.7"/>
<polygon fill="none" stroke="#000000" points="246.5,-157.7 246.5,-180.7 454.5,-180.7 454.5,-157.7 246.5,-157.7"/>
<text text-anchor="start" x="251.5" y="-166.3" font-family="Helvetica,sans-Serif" font-weight="bold" font-size="11.00" fill="#000000">staff_configuration_audit</text>
<text text-anchor="start" x="420.0219" y="-165.8" font-family="Helvetica,sans-Serif" font-size="11.00" fill="#000000">[table]</text>
<polygon fill="none" stroke="#000000" points="246.5,-138.7 246.5,-157.7 454.5,-157.7 454.5,-138.7 246.5,-138.7"/>
<text text-anchor="start" x="249.5" y="-144.8" font-family="Helvetica,sans-Serif" font-size="11.00" fill="#000000">...</text>
<polygon fill="#ffffff" stroke="transparent" points="246.5,-119.7 246.5,-138.7 348.5,-138.7 348.5,-119.7 246.5,-119.7"/>
<polygon fill="none" stroke="#000000" points="246.5,-119.7 246.5,-138.7 348.5,-138.7 348.5,-119.7 246.5,-119.7"/>
<text text-anchor="start" x="249.5" y="-125.8" font-family="Helvetica,sans-Serif" font-size="11.00" fill="#000000">&lt; 1</text>
<polygon fill="#ffffff" stroke="transparent" points="348.5,-119.7 348.5,-138.7 401.5,-138.7 401.5,-119.7 348.5,-119.7"/>
<polygon fill="none" stroke="#000000" points="348.5,-119.7 348.5,-138.7 401.5,-138.7 401.5,-119.7 348.5,-119.7"/>
<text text-anchor="start" x="392.3862" y="-125.8" font-family="Helvetica,sans-Serif" font-size="11.00" fill="#000000"> &#160;</text>
<polygon fill="#ffffff" stroke="transparent" points="401.5,-119.7 401.5,-138.7 454.5,-138.7 454.5,-119.7 401.5,-119.7"/>
<polygon fill="none" stroke="#000000" points="401.5,-119.7 401.5,-138.7 454.5,-138.7 454.5,-119.7 401.5,-119.7"/>
<text text-anchor="start" x="445.3862" y="-125.8" font-family="Helvetica,sans-Serif" font-size="11.00" fill="#000000"> &#160;</text>
</a>
</g>
</g>
<!-- staff_configuration_audit&#45;&gt;audit_revision -->
<g id="edge3" class="edge">
<title>staff_configuration_audit:w&#45;&gt;audit_revision:e</title>
<path fill="none" stroke="#000000" d="M232.1156,-148.972C195.1112,-155.8924 186.6293,-188.7 142,-188.7"/>
<polygon fill="#000000" stroke="#000000" points="238.5311,-148.4047 246.8171,-151.286 242.5155,-148.0524 246.5,-147.7 246.5,-147.7 246.5,-147.7 242.5155,-148.0524 246.1829,-144.114 238.5311,-148.4047 238.5311,-148.4047"/>
<ellipse fill="none" stroke="#000000" cx="235.3435" cy="-148.6866" rx="3.2" ry="3.2"/>
</g>
<!-- staff_role_audit -->
<g id="node5" class="node">
<title>staff_role_audit</title>
<g id="a_node5"><a xlink:href="../../tables/staff_role_audit.html" xlink:title="staff_role_audit" target="_top">
<polygon fill="#ffffff" stroke="transparent" points="279,-38.2 279,-99.2 422,-99.2 422,-38.2 279,-38.2"/>
<polygon fill="#f5f5f5" stroke="transparent" points="279.5,-75.7 279.5,-98.7 422.5,-98.7 422.5,-75.7 279.5,-75.7"/>
<polygon fill="none" stroke="#000000" points="279.5,-75.7 279.5,-98.7 422.5,-98.7 422.5,-75.7 279.5,-75.7"/>
<text text-anchor="start" x="284.5" y="-84.3" font-family="Helvetica,sans-Serif" font-weight="bold" font-size="11.00" fill="#000000">staff_role_audit</text>
<text text-anchor="start" x="388.0219" y="-83.8" font-family="Helvetica,sans-Serif" font-size="11.00" fill="#000000">[table]</text>
<polygon fill="none" stroke="#000000" points="279.5,-56.7 279.5,-75.7 422.5,-75.7 422.5,-56.7 279.5,-56.7"/>
<text text-anchor="start" x="282.5" y="-62.8" font-family="Helvetica,sans-Serif" font-size="11.00" fill="#000000">...</text>
<polygon fill="#ffffff" stroke="transparent" points="279.5,-37.7 279.5,-56.7 349.5,-56.7 349.5,-37.7 279.5,-37.7"/>
<polygon fill="none" stroke="#000000" points="279.5,-37.7 279.5,-56.7 349.5,-56.7 349.5,-37.7 279.5,-37.7"/>
<text text-anchor="start" x="282.5" y="-43.8" font-family="Helvetica,sans-Serif" font-size="11.00" fill="#000000">&lt; 1</text>
<polygon fill="#ffffff" stroke="transparent" points="349.5,-37.7 349.5,-56.7 385.5,-56.7 385.5,-37.7 349.5,-37.7"/>
<polygon fill="none" stroke="#000000" points="349.5,-37.7 349.5,-56.7 385.5,-56.7 385.5,-37.7 349.5,-37.7"/>
<text text-anchor="start" x="376.3862" y="-43.8" font-family="Helvetica,sans-Serif" font-size="11.00" fill="#000000"> &#160;</text>
<polygon fill="#ffffff" stroke="transparent" points="385.5,-37.7 385.5,-56.7 422.5,-56.7 422.5,-37.7 385.5,-37.7"/>
<polygon fill="none" stroke="#000000" points="385.5,-37.7 385.5,-56.7 422.5,-56.7 422.5,-37.7 385.5,-37.7"/>
<text text-anchor="start" x="413.3862" y="-43.8" font-family="Helvetica,sans-Serif" font-size="11.00" fill="#000000"> &#160;</text>
</a>
</g>
</g>
<!-- staff_role_audit&#45;&gt;audit_revision -->
<g id="edge4" class="edge">
<title>staff_role_audit:w&#45;&gt;audit_revision:e</title>
<path fill="none" stroke="#000000" d="M264.6365,-66.1575C228.6772,-68.5807 213.2979,-80.907 183,-109.7 154.3252,-136.9506 181.5581,-188.7 142,-188.7"/>
<polygon fill="#000000" stroke="#000000" points="271.5038,-65.9462 279.6108,-69.2983 275.5019,-65.8231 279.5,-65.7 279.5,-65.7 279.5,-65.7 275.5019,-65.8231 279.3892,-62.1017 271.5038,-65.9462 271.5038,-65.9462"/>
<ellipse fill="none" stroke="#000000" cx="268.3053" cy="-66.0447" rx="3.2" ry="3.2"/>
</g>
</g>
</svg>
