<?xml version="1.0" encoding="UTF-8" standalone="no"?>
<!DOCTYPE svg PUBLIC "-//W3C//DTD SVG 1.1//EN"
 "http://www.w3.org/Graphics/SVG/1.1/DTD/svg11.dtd">
<!-- Generated by graphviz version 2.40.1 (20161225.0304)
 -->
<!-- Title: oneDegreeRelationshipsDiagram Pages: 1 -->
<svg width="506pt" height="338pt"
 viewBox="0.00 0.00 506.00 338.20" xmlns="http://www.w3.org/2000/svg" xmlns:xlink="http://www.w3.org/1999/xlink">
<g id="graph0" class="graph" transform="scale(1 1) rotate(0) translate(4 334.2)">
<title>oneDegreeRelationshipsDiagram</title>
<polygon fill="#ffffff" stroke="transparent" points="-4,4 -4,-334.2 502,-334.2 502,4 -4,4"/>
<text text-anchor="middle" x="72.4936" y="-7.3" font-family="Helvetica,sans-Serif" font-size="11.00" fill="#000000">Generated by SchemaSpy</text>
<!-- allocation_case_note_audit -->
<g id="node1" class="node">
<title>allocation_case_note_audit</title>
<g id="a_node1"><a xlink:href="../../tables/allocation_case_note_audit.html" xlink:title="allocation_case_note_audit" target="_top">
<polygon fill="#ffffff" stroke="transparent" points="191,-38.2 191,-326.2 490,-326.2 490,-38.2 191,-38.2"/>
<polygon fill="#f5f5f5" stroke="transparent" points="193.5,-301.2 193.5,-324.2 488.5,-324.2 488.5,-301.2 193.5,-301.2"/>
<polygon fill="none" stroke="#000000" points="193.5,-301.2 193.5,-324.2 488.5,-324.2 488.5,-301.2 193.5,-301.2"/>
<text text-anchor="start" x="198.5" y="-309.8" font-family="Helvetica,sans-Serif" font-weight="bold" font-size="11.00" fill="#000000">allocation_case_note_audit</text>
<text text-anchor="start" x="453.5437" y="-309.3" font-family="Helvetica,sans-Serif" font-size="11.00" fill="#000000">[table]</text>
<polygon fill="none" stroke="#000000" points="193.5,-279.2 193.5,-301.2 394.5,-301.2 394.5,-279.2 193.5,-279.2"/>
<image xlink:href="../../images/foreignKeys.png" width="11px" height="12px" preserveAspectRatio="xMinYMin meet" x="198.5" y="-296.2"/>
<text text-anchor="start" x="213.5" y="-286.3" font-family="Helvetica,sans-Serif" font-size="11.00" fill="#000000">rev_id</text>
<polygon fill="none" stroke="#000000" points="394.5,-279.2 394.5,-301.2 488.5,-301.2 488.5,-279.2 394.5,-279.2"/>
<text text-anchor="start" x="397.5" y="-286.9" font-family="Helvetica,sans-Serif" font-size="11.00" fill="#000000">int8[19]</text>
<polygon fill="none" stroke="#000000" points="193.5,-257.2 193.5,-279.2 394.5,-279.2 394.5,-257.2 193.5,-257.2"/>
<text text-anchor="start" x="213.5" y="-264.3" font-family="Helvetica,sans-Serif" font-size="11.00" fill="#000000">rev_type</text>
<polygon fill="none" stroke="#000000" points="394.5,-257.2 394.5,-279.2 488.5,-279.2 488.5,-257.2 394.5,-257.2"/>
<text text-anchor="start" x="397.5" y="-264.9" font-family="Helvetica,sans-Serif" font-size="11.00" fill="#000000">int2[5]</text>
<polygon fill="none" stroke="#000000" points="193.5,-235.2 193.5,-257.2 394.5,-257.2 394.5,-235.2 193.5,-235.2"/>
<text text-anchor="start" x="213.5" y="-242.3" font-family="Helvetica,sans-Serif" font-size="11.00" fill="#000000">id</text>
<polygon fill="none" stroke="#000000" points="394.5,-235.2 394.5,-257.2 488.5,-257.2 488.5,-235.2 394.5,-235.2"/>
<text text-anchor="start" x="397.4758" y="-242.9" font-family="Helvetica,sans-Serif" font-size="11.00" fill="#000000">uuid[2147483647]</text>
<polygon fill="none" stroke="#000000" points="193.5,-213.2 193.5,-235.2 394.5,-235.2 394.5,-213.2 193.5,-213.2"/>
<image xlink:href="../../images/foreignKeys.png" width="11px" height="12px" preserveAspectRatio="xMinYMin meet" x="198.5" y="-230.2"/>
<text text-anchor="start" x="213.5" y="-220.3" font-family="Helvetica,sans-Serif" font-size="11.00" fill="#000000">prison_code</text>
<polygon fill="none" stroke="#000000" points="394.5,-213.2 394.5,-235.2 488.5,-235.2 488.5,-213.2 394.5,-213.2"/>
<text text-anchor="start" x="397.5" y="-220.9" font-family="Helvetica,sans-Serif" font-size="11.00" fill="#000000">varchar[6]</text>
<polygon fill="none" stroke="#000000" points="193.5,-191.2 193.5,-213.2 394.5,-213.2 394.5,-191.2 193.5,-191.2"/>
<text text-anchor="start" x="213.5" y="-198.3" font-family="Helvetica,sans-Serif" font-size="11.00" fill="#000000">person_identifier</text>
<polygon fill="none" stroke="#000000" points="394.5,-191.2 394.5,-213.2 488.5,-213.2 488.5,-191.2 394.5,-191.2"/>
<text text-anchor="start" x="397.5" y="-198.9" font-family="Helvetica,sans-Serif" font-size="11.00" fill="#000000">varchar[7]</text>
<polygon fill="none" stroke="#000000" points="193.5,-169.2 193.5,-191.2 394.5,-191.2 394.5,-169.2 193.5,-169.2"/>
<text text-anchor="start" x="213.5" y="-176.3" font-family="Helvetica,sans-Serif" font-size="11.00" fill="#000000">staff_id</text>
<polygon fill="none" stroke="#000000" points="394.5,-169.2 394.5,-191.2 488.5,-191.2 488.5,-169.2 394.5,-169.2"/>
<text text-anchor="start" x="397.5" y="-176.9" font-family="Helvetica,sans-Serif" font-size="11.00" fill="#000000">int8[19]</text>
<polygon fill="none" stroke="#000000" points="193.5,-147.2 193.5,-169.2 394.5,-169.2 394.5,-147.2 193.5,-147.2"/>
<text text-anchor="start" x="213.5" y="-154.3" font-family="Helvetica,sans-Serif" font-size="11.00" fill="#000000">username</text>
<polygon fill="none" stroke="#000000" points="394.5,-147.2 394.5,-169.2 488.5,-169.2 488.5,-147.2 394.5,-147.2"/>
<text text-anchor="start" x="397.5" y="-154.9" font-family="Helvetica,sans-Serif" font-size="11.00" fill="#000000">varchar[64]</text>
<polygon fill="none" stroke="#000000" points="193.5,-125.2 193.5,-147.2 394.5,-147.2 394.5,-125.2 193.5,-125.2"/>
<text text-anchor="start" x="213.5" y="-132.3" font-family="Helvetica,sans-Serif" font-size="11.00" fill="#000000">type</text>
<polygon fill="none" stroke="#000000" points="394.5,-125.2 394.5,-147.2 488.5,-147.2 488.5,-125.2 394.5,-125.2"/>
<text text-anchor="start" x="397.5" y="-132.9" font-family="Helvetica,sans-Serif" font-size="11.00" fill="#000000">varchar[12]</text>
<polygon fill="none" stroke="#000000" points="193.5,-103.2 193.5,-125.2 394.5,-125.2 394.5,-103.2 193.5,-103.2"/>
<text text-anchor="start" x="213.5" y="-110.3" font-family="Helvetica,sans-Serif" font-size="11.00" fill="#000000">sub_type</text>
<polygon fill="none" stroke="#000000" points="394.5,-103.2 394.5,-125.2 488.5,-125.2 488.5,-103.2 394.5,-103.2"/>
<text text-anchor="start" x="397.5" y="-110.9" font-family="Helvetica,sans-Serif" font-size="11.00" fill="#000000">varchar[12]</text>
<polygon fill="none" stroke="#000000" points="193.5,-81.2 193.5,-103.2 394.5,-103.2 394.5,-81.2 193.5,-81.2"/>
<text text-anchor="start" x="213.5" y="-88.3" font-family="Helvetica,sans-Serif" font-size="11.00" fill="#000000">occurred_at</text>
<polygon fill="none" stroke="#000000" points="394.5,-81.2 394.5,-103.2 488.5,-103.2 488.5,-81.2 394.5,-81.2"/>
<text text-anchor="start" x="397.5" y="-88.9" font-family="Helvetica,sans-Serif" font-size="11.00" fill="#000000">timestamp[29,6]</text>
<polygon fill="none" stroke="#000000" points="193.5,-59.2 193.5,-81.2 394.5,-81.2 394.5,-59.2 193.5,-59.2"/>
<text text-anchor="start" x="213.5" y="-66.3" font-family="Helvetica,sans-Serif" font-size="11.00" fill="#000000">created_at</text>
<polygon fill="none" stroke="#000000" points="394.5,-59.2 394.5,-81.2 488.5,-81.2 488.5,-59.2 394.5,-59.2"/>
<text text-anchor="start" x="397.5" y="-66.9" font-family="Helvetica,sans-Serif" font-size="11.00" fill="#000000">timestamp[29,6]</text>
<polygon fill="#ffffff" stroke="transparent" points="193.5,-40.2 193.5,-59.2 298.5,-59.2 298.5,-40.2 193.5,-40.2"/>
<polygon fill="none" stroke="#000000" points="193.5,-40.2 193.5,-59.2 298.5,-59.2 298.5,-40.2 193.5,-40.2"/>
<text text-anchor="start" x="196.5" y="-46.3" font-family="Helvetica,sans-Serif" font-size="11.00" fill="#000000">&lt; 1</text>
<polygon fill="#ffffff" stroke="transparent" points="298.5,-40.2 298.5,-59.2 394.5,-59.2 394.5,-40.2 298.5,-40.2"/>
<polygon fill="none" stroke="#000000" points="298.5,-40.2 298.5,-59.2 394.5,-59.2 394.5,-40.2 298.5,-40.2"/>
<text text-anchor="start" x="385.3862" y="-46.3" font-family="Helvetica,sans-Serif" font-size="11.00" fill="#000000"> &#160;</text>
<polygon fill="#ffffff" stroke="transparent" points="394.5,-40.2 394.5,-59.2 488.5,-59.2 488.5,-40.2 394.5,-40.2"/>
<polygon fill="none" stroke="#000000" points="394.5,-40.2 394.5,-59.2 488.5,-59.2 488.5,-40.2 394.5,-40.2"/>
<text text-anchor="start" x="469.9053" y="-46.3" font-family="Helvetica,sans-Serif" font-size="11.00" fill="#000000">0 &gt;</text>
<polygon fill="none" stroke="#000000" stroke-width="2" points="192,-39.2 192,-325.2 489,-325.2 489,-39.2 192,-39.2"/>
</a>
</g>
</g>
<!-- audit_revision -->
<g id="node2" class="node">
<title>audit_revision</title>
<g id="a_node2"><a xlink:href="../../tables/audit_revision.html" xlink:title="audit_revision" target="_top">
<polygon fill="#ffffff" stroke="transparent" points="8,-241.7 8,-324.7 142,-324.7 142,-241.7 8,-241.7"/>
<polygon fill="#f5f5f5" stroke="transparent" points="8,-301.2 8,-324.2 142,-324.2 142,-301.2 8,-301.2"/>
<polygon fill="none" stroke="#000000" points="8,-301.2 8,-324.2 142,-324.2 142,-301.2 8,-301.2"/>
<text text-anchor="start" x="13" y="-309.8" font-family="Helvetica,sans-Serif" font-weight="bold" font-size="11.00" fill="#000000">audit_revision</text>
<text text-anchor="start" x="107.5219" y="-309.3" font-family="Helvetica,sans-Serif" font-size="11.00" fill="#000000">[table]</text>
<polygon fill="none" stroke="#000000" points="8,-279.2 8,-301.2 142,-301.2 142,-279.2 8,-279.2"/>
<image xlink:href="../../images/primaryKeys.png" width="11px" height="12px" preserveAspectRatio="xMinYMin meet" x="13" y="-296.2"/>
<text text-anchor="start" x="28" y="-286.3" font-family="Helvetica,sans-Serif" font-size="11.00" fill="#000000">id</text>
<polygon fill="none" stroke="#000000" points="8,-260.2 8,-279.2 142,-279.2 142,-260.2 8,-260.2"/>
<text text-anchor="start" x="11" y="-266.3" font-family="Helvetica,sans-Serif" font-size="11.00" fill="#000000">...</text>
<polygon fill="#ffffff" stroke="transparent" points="8,-241.2 8,-260.2 64,-260.2 64,-241.2 8,-241.2"/>
<polygon fill="none" stroke="#000000" points="8,-241.2 8,-260.2 64,-260.2 64,-241.2 8,-241.2"/>
<text text-anchor="start" x="11" y="-247.3" font-family="Helvetica,sans-Serif" font-size="11.00" fill="#000000"> &#160;</text>
<polygon fill="#ffffff" stroke="transparent" points="64,-241.2 64,-260.2 98,-260.2 98,-241.2 64,-241.2"/>
<polygon fill="none" stroke="#000000" points="64,-241.2 64,-260.2 98,-260.2 98,-241.2 64,-241.2"/>
<text text-anchor="start" x="88.8862" y="-247.3" font-family="Helvetica,sans-Serif" font-size="11.00" fill="#000000"> &#160;</text>
<polygon fill="#ffffff" stroke="transparent" points="98,-241.2 98,-260.2 142,-260.2 142,-241.2 98,-241.2"/>
<polygon fill="none" stroke="#000000" points="98,-241.2 98,-260.2 142,-260.2 142,-241.2 98,-241.2"/>
<text text-anchor="start" x="123.4053" y="-247.3" font-family="Helvetica,sans-Serif" font-size="11.00" fill="#000000">5 &gt;</text>
</a>
</g>
</g>
<!-- allocation_case_note_audit&#45;&gt;audit_revision -->
<g id="edge1" class="edge">
<title>allocation_case_note_audit:w&#45;&gt;audit_revision:e</title>
<path fill="none" stroke="#000000" d="M179.0156,-290.2C166.6771,-290.2 159.1667,-290.2 142,-290.2"/>
<polygon fill="#000000" stroke="#000000" points="185.5,-290.2001 193.5,-293.8 189.5,-290.2 193.5,-290.2 193.5,-290.2 193.5,-290.2 189.5,-290.2 193.5,-286.6 185.5,-290.2001 185.5,-290.2001"/>
<ellipse fill="none" stroke="#000000" cx="182.3" cy="-290.2001" rx="3.2" ry="3.2"/>
</g>
</g>
</svg>
