<?xml version="1.0" encoding="UTF-8" standalone="no"?>
<!DOCTYPE svg PUBLIC "-//W3C//DTD SVG 1.1//EN"
 "http://www.w3.org/Graphics/SVG/1.1/DTD/svg11.dtd">
<!-- Generated by graphviz version 2.40.1 (20161225.0304)
 -->
<!-- Title: twoDegreesRelationshipsDiagram Pages: 1 -->
<svg width="506pt" height="667pt"
 viewBox="0.00 0.00 506.00 667.20" xmlns="http://www.w3.org/2000/svg" xmlns:xlink="http://www.w3.org/1999/xlink">
<g id="graph0" class="graph" transform="scale(1 1) rotate(0) translate(4 663.2)">
<title>twoDegreesRelationshipsDiagram</title>
<polygon fill="#ffffff" stroke="transparent" points="-4,4 -4,-663.2 502,-663.2 502,4 -4,4"/>
<text text-anchor="middle" x="72.4936" y="-7.3" font-family="Helvetica,sans-Serif" font-size="11.00" fill="#000000">Generated by SchemaSpy</text>
<!-- allocation_audit -->
<g id="node1" class="node">
<title>allocation_audit</title>
<g id="a_node1"><a xlink:href="../../tables/allocation_audit.html" xlink:title="allocation_audit" target="_top">
<polygon fill="#ffffff" stroke="transparent" points="267.5,-594.2 267.5,-655.2 413.5,-655.2 413.5,-594.2 267.5,-594.2"/>
<polygon fill="#f5f5f5" stroke="transparent" points="267.5,-631.7 267.5,-654.7 413.5,-654.7 413.5,-631.7 267.5,-631.7"/>
<polygon fill="none" stroke="#000000" points="267.5,-631.7 267.5,-654.7 413.5,-654.7 413.5,-631.7 267.5,-631.7"/>
<text text-anchor="start" x="272.5" y="-640.3" font-family="Helvetica,sans-Serif" font-weight="bold" font-size="11.00" fill="#000000">allocation_audit</text>
<text text-anchor="start" x="379.0219" y="-639.8" font-family="Helvetica,sans-Serif" font-size="11.00" fill="#000000">[table]</text>
<polygon fill="none" stroke="#000000" points="267.5,-612.7 267.5,-631.7 413.5,-631.7 413.5,-612.7 267.5,-612.7"/>
<text text-anchor="start" x="270.5" y="-618.8" font-family="Helvetica,sans-Serif" font-size="11.00" fill="#000000">...</text>
<polygon fill="#ffffff" stroke="transparent" points="267.5,-593.7 267.5,-612.7 338.5,-612.7 338.5,-593.7 267.5,-593.7"/>
<polygon fill="none" stroke="#000000" points="267.5,-593.7 267.5,-612.7 338.5,-612.7 338.5,-593.7 267.5,-593.7"/>
<text text-anchor="start" x="270.5" y="-599.8" font-family="Helvetica,sans-Serif" font-size="11.00" fill="#000000">&lt; 1</text>
<polygon fill="#ffffff" stroke="transparent" points="338.5,-593.7 338.5,-612.7 375.5,-612.7 375.5,-593.7 338.5,-593.7"/>
<polygon fill="none" stroke="#000000" points="338.5,-593.7 338.5,-612.7 375.5,-612.7 375.5,-593.7 338.5,-593.7"/>
<text text-anchor="start" x="366.3862" y="-599.8" font-family="Helvetica,sans-Serif" font-size="11.00" fill="#000000"> &#160;</text>
<polygon fill="#ffffff" stroke="transparent" points="375.5,-593.7 375.5,-612.7 413.5,-612.7 413.5,-593.7 375.5,-593.7"/>
<polygon fill="none" stroke="#000000" points="375.5,-593.7 375.5,-612.7 413.5,-612.7 413.5,-593.7 375.5,-593.7"/>
<text text-anchor="start" x="404.3862" y="-599.8" font-family="Helvetica,sans-Serif" font-size="11.00" fill="#000000"> &#160;</text>
</a>
</g>
</g>
<!-- audit_revision -->
<g id="node2" class="node">
<title>audit_revision</title>
<g id="a_node2"><a xlink:href="../../tables/audit_revision.html" xlink:title="audit_revision" target="_top">
<polygon fill="#ffffff" stroke="transparent" points="8,-181.2 8,-264.2 142,-264.2 142,-181.2 8,-181.2"/>
<polygon fill="#f5f5f5" stroke="transparent" points="8,-240.7 8,-263.7 142,-263.7 142,-240.7 8,-240.7"/>
<polygon fill="none" stroke="#000000" points="8,-240.7 8,-263.7 142,-263.7 142,-240.7 8,-240.7"/>
<text text-anchor="start" x="13" y="-249.3" font-family="Helvetica,sans-Serif" font-weight="bold" font-size="11.00" fill="#000000">audit_revision</text>
<text text-anchor="start" x="107.5219" y="-248.8" font-family="Helvetica,sans-Serif" font-size="11.00" fill="#000000">[table]</text>
<polygon fill="none" stroke="#000000" points="8,-218.7 8,-240.7 142,-240.7 142,-218.7 8,-218.7"/>
<image xlink:href="../../images/primaryKeys.png" width="11px" height="12px" preserveAspectRatio="xMinYMin meet" x="13" y="-235.7"/>
<text text-anchor="start" x="28" y="-225.8" font-family="Helvetica,sans-Serif" font-size="11.00" fill="#000000">id</text>
<polygon fill="none" stroke="#000000" points="8,-199.7 8,-218.7 142,-218.7 142,-199.7 8,-199.7"/>
<text text-anchor="start" x="11" y="-205.8" font-family="Helvetica,sans-Serif" font-size="11.00" fill="#000000">...</text>
<polygon fill="#ffffff" stroke="transparent" points="8,-180.7 8,-199.7 64,-199.7 64,-180.7 8,-180.7"/>
<polygon fill="none" stroke="#000000" points="8,-180.7 8,-199.7 64,-199.7 64,-180.7 8,-180.7"/>
<text text-anchor="start" x="11" y="-186.8" font-family="Helvetica,sans-Serif" font-size="11.00" fill="#000000"> &#160;</text>
<polygon fill="#ffffff" stroke="transparent" points="64,-180.7 64,-199.7 98,-199.7 98,-180.7 64,-180.7"/>
<polygon fill="none" stroke="#000000" points="64,-180.7 64,-199.7 98,-199.7 98,-180.7 64,-180.7"/>
<text text-anchor="start" x="88.8862" y="-186.8" font-family="Helvetica,sans-Serif" font-size="11.00" fill="#000000"> &#160;</text>
<polygon fill="#ffffff" stroke="transparent" points="98,-180.7 98,-199.7 142,-199.7 142,-180.7 98,-180.7"/>
<polygon fill="none" stroke="#000000" points="98,-180.7 98,-199.7 142,-199.7 142,-180.7 98,-180.7"/>
<text text-anchor="start" x="123.4053" y="-186.8" font-family="Helvetica,sans-Serif" font-size="11.00" fill="#000000">5 &gt;</text>
</a>
</g>
</g>
<!-- allocation_audit&#45;&gt;audit_revision -->
<g id="edge1" class="edge">
<title>allocation_audit:w&#45;&gt;audit_revision:e</title>
<path fill="none" stroke="#000000" d="M253.0439,-621.4302C221.4877,-620.063 204.2783,-612.7769 183,-583.7 136.2324,-519.7919 221.1925,-229.7 142,-229.7"/>
<polygon fill="#000000" stroke="#000000" points="259.5014,-621.5506 267.4328,-625.2994 263.5007,-621.6253 267.5,-621.7 267.5,-621.7 267.5,-621.7 263.5007,-621.6253 267.5672,-618.1006 259.5014,-621.5506 259.5014,-621.5506"/>
<ellipse fill="none" stroke="#000000" cx="256.302" cy="-621.4909" rx="3.2" ry="3.2"/>
</g>
<!-- allocation_case_note_audit -->
<g id="node3" class="node">
<title>allocation_case_note_audit</title>
<g id="a_node3"><a xlink:href="../../tables/allocation_case_note_audit.html" xlink:title="allocation_case_note_audit" target="_top">
<polygon fill="#ffffff" stroke="transparent" points="191,-284.7 191,-572.7 490,-572.7 490,-284.7 191,-284.7"/>
<polygon fill="#f5f5f5" stroke="transparent" points="193.5,-547.7 193.5,-570.7 488.5,-570.7 488.5,-547.7 193.5,-547.7"/>
<polygon fill="none" stroke="#000000" points="193.5,-547.7 193.5,-570.7 488.5,-570.7 488.5,-547.7 193.5,-547.7"/>
<text text-anchor="start" x="198.5" y="-556.3" font-family="Helvetica,sans-Serif" font-weight="bold" font-size="11.00" fill="#000000">allocation_case_note_audit</text>
<text text-anchor="start" x="453.5437" y="-555.8" font-family="Helvetica,sans-Serif" font-size="11.00" fill="#000000">[table]</text>
<polygon fill="none" stroke="#000000" points="193.5,-525.7 193.5,-547.7 394.5,-547.7 394.5,-525.7 193.5,-525.7"/>
<image xlink:href="../../images/foreignKeys.png" width="11px" height="12px" preserveAspectRatio="xMinYMin meet" x="198.5" y="-542.7"/>
<text text-anchor="start" x="213.5" y="-532.8" font-family="Helvetica,sans-Serif" font-size="11.00" fill="#000000">rev_id</text>
<polygon fill="none" stroke="#000000" points="394.5,-525.7 394.5,-547.7 488.5,-547.7 488.5,-525.7 394.5,-525.7"/>
<text text-anchor="start" x="397.5" y="-533.4" font-family="Helvetica,sans-Serif" font-size="11.00" fill="#000000">int8[19]</text>
<polygon fill="none" stroke="#000000" points="193.5,-503.7 193.5,-525.7 394.5,-525.7 394.5,-503.7 193.5,-503.7"/>
<text text-anchor="start" x="213.5" y="-510.8" font-family="Helvetica,sans-Serif" font-size="11.00" fill="#000000">rev_type</text>
<polygon fill="none" stroke="#000000" points="394.5,-503.7 394.5,-525.7 488.5,-525.7 488.5,-503.7 394.5,-503.7"/>
<text text-anchor="start" x="397.5" y="-511.4" font-family="Helvetica,sans-Serif" font-size="11.00" fill="#000000">int2[5]</text>
<polygon fill="none" stroke="#000000" points="193.5,-481.7 193.5,-503.7 394.5,-503.7 394.5,-481.7 193.5,-481.7"/>
<text text-anchor="start" x="213.5" y="-488.8" font-family="Helvetica,sans-Serif" font-size="11.00" fill="#000000">id</text>
<polygon fill="none" stroke="#000000" points="394.5,-481.7 394.5,-503.7 488.5,-503.7 488.5,-481.7 394.5,-481.7"/>
<text text-anchor="start" x="397.4758" y="-489.4" font-family="Helvetica,sans-Serif" font-size="11.00" fill="#000000">uuid[2147483647]</text>
<polygon fill="none" stroke="#000000" points="193.5,-459.7 193.5,-481.7 394.5,-481.7 394.5,-459.7 193.5,-459.7"/>
<image xlink:href="../../images/foreignKeys.png" width="11px" height="12px" preserveAspectRatio="xMinYMin meet" x="198.5" y="-476.7"/>
<text text-anchor="start" x="213.5" y="-466.8" font-family="Helvetica,sans-Serif" font-size="11.00" fill="#000000">prison_code</text>
<polygon fill="none" stroke="#000000" points="394.5,-459.7 394.5,-481.7 488.5,-481.7 488.5,-459.7 394.5,-459.7"/>
<text text-anchor="start" x="397.5" y="-467.4" font-family="Helvetica,sans-Serif" font-size="11.00" fill="#000000">varchar[6]</text>
<polygon fill="none" stroke="#000000" points="193.5,-437.7 193.5,-459.7 394.5,-459.7 394.5,-437.7 193.5,-437.7"/>
<text text-anchor="start" x="213.5" y="-444.8" font-family="Helvetica,sans-Serif" font-size="11.00" fill="#000000">person_identifier</text>
<polygon fill="none" stroke="#000000" points="394.5,-437.7 394.5,-459.7 488.5,-459.7 488.5,-437.7 394.5,-437.7"/>
<text text-anchor="start" x="397.5" y="-445.4" font-family="Helvetica,sans-Serif" font-size="11.00" fill="#000000">varchar[7]</text>
<polygon fill="none" stroke="#000000" points="193.5,-415.7 193.5,-437.7 394.5,-437.7 394.5,-415.7 193.5,-415.7"/>
<text text-anchor="start" x="213.5" y="-422.8" font-family="Helvetica,sans-Serif" font-size="11.00" fill="#000000">staff_id</text>
<polygon fill="none" stroke="#000000" points="394.5,-415.7 394.5,-437.7 488.5,-437.7 488.5,-415.7 394.5,-415.7"/>
<text text-anchor="start" x="397.5" y="-423.4" font-family="Helvetica,sans-Serif" font-size="11.00" fill="#000000">int8[19]</text>
<polygon fill="none" stroke="#000000" points="193.5,-393.7 193.5,-415.7 394.5,-415.7 394.5,-393.7 193.5,-393.7"/>
<text text-anchor="start" x="213.5" y="-400.8" font-family="Helvetica,sans-Serif" font-size="11.00" fill="#000000">username</text>
<polygon fill="none" stroke="#000000" points="394.5,-393.7 394.5,-415.7 488.5,-415.7 488.5,-393.7 394.5,-393.7"/>
<text text-anchor="start" x="397.5" y="-401.4" font-family="Helvetica,sans-Serif" font-size="11.00" fill="#000000">varchar[64]</text>
<polygon fill="none" stroke="#000000" points="193.5,-371.7 193.5,-393.7 394.5,-393.7 394.5,-371.7 193.5,-371.7"/>
<text text-anchor="start" x="213.5" y="-378.8" font-family="Helvetica,sans-Serif" font-size="11.00" fill="#000000">type</text>
<polygon fill="none" stroke="#000000" points="394.5,-371.7 394.5,-393.7 488.5,-393.7 488.5,-371.7 394.5,-371.7"/>
<text text-anchor="start" x="397.5" y="-379.4" font-family="Helvetica,sans-Serif" font-size="11.00" fill="#000000">varchar[12]</text>
<polygon fill="none" stroke="#000000" points="193.5,-349.7 193.5,-371.7 394.5,-371.7 394.5,-349.7 193.5,-349.7"/>
<text text-anchor="start" x="213.5" y="-356.8" font-family="Helvetica,sans-Serif" font-size="11.00" fill="#000000">sub_type</text>
<polygon fill="none" stroke="#000000" points="394.5,-349.7 394.5,-371.7 488.5,-371.7 488.5,-349.7 394.5,-349.7"/>
<text text-anchor="start" x="397.5" y="-357.4" font-family="Helvetica,sans-Serif" font-size="11.00" fill="#000000">varchar[12]</text>
<polygon fill="none" stroke="#000000" points="193.5,-327.7 193.5,-349.7 394.5,-349.7 394.5,-327.7 193.5,-327.7"/>
<text text-anchor="start" x="213.5" y="-334.8" font-family="Helvetica,sans-Serif" font-size="11.00" fill="#000000">occurred_at</text>
<polygon fill="none" stroke="#000000" points="394.5,-327.7 394.5,-349.7 488.5,-349.7 488.5,-327.7 394.5,-327.7"/>
<text text-anchor="start" x="397.5" y="-335.4" font-family="Helvetica,sans-Serif" font-size="11.00" fill="#000000">timestamp[29,6]</text>
<polygon fill="none" stroke="#000000" points="193.5,-305.7 193.5,-327.7 394.5,-327.7 394.5,-305.7 193.5,-305.7"/>
<text text-anchor="start" x="213.5" y="-312.8" font-family="Helvetica,sans-Serif" font-size="11.00" fill="#000000">created_at</text>
<polygon fill="none" stroke="#000000" points="394.5,-305.7 394.5,-327.7 488.5,-327.7 488.5,-305.7 394.5,-305.7"/>
<text text-anchor="start" x="397.5" y="-313.4" font-family="Helvetica,sans-Serif" font-size="11.00" fill="#000000">timestamp[29,6]</text>
<polygon fill="#ffffff" stroke="transparent" points="193.5,-286.7 193.5,-305.7 298.5,-305.7 298.5,-286.7 193.5,-286.7"/>
<polygon fill="none" stroke="#000000" points="193.5,-286.7 193.5,-305.7 298.5,-305.7 298.5,-286.7 193.5,-286.7"/>
<text text-anchor="start" x="196.5" y="-292.8" font-family="Helvetica,sans-Serif" font-size="11.00" fill="#000000">&lt; 1</text>
<polygon fill="#ffffff" stroke="transparent" points="298.5,-286.7 298.5,-305.7 394.5,-305.7 394.5,-286.7 298.5,-286.7"/>
<polygon fill="none" stroke="#000000" points="298.5,-286.7 298.5,-305.7 394.5,-305.7 394.5,-286.7 298.5,-286.7"/>
<text text-anchor="start" x="385.3862" y="-292.8" font-family="Helvetica,sans-Serif" font-size="11.00" fill="#000000"> &#160;</text>
<polygon fill="#ffffff" stroke="transparent" points="394.5,-286.7 394.5,-305.7 488.5,-305.7 488.5,-286.7 394.5,-286.7"/>
<polygon fill="none" stroke="#000000" points="394.5,-286.7 394.5,-305.7 488.5,-305.7 488.5,-286.7 394.5,-286.7"/>
<text text-anchor="start" x="469.9053" y="-292.8" font-family="Helvetica,sans-Serif" font-size="11.00" fill="#000000">0 &gt;</text>
<polygon fill="none" stroke="#000000" stroke-width="2" points="192,-285.7 192,-571.7 489,-571.7 489,-285.7 192,-285.7"/>
</a>
</g>
</g>
<!-- allocation_case_note_audit&#45;&gt;audit_revision -->
<g id="edge2" class="edge">
<title>allocation_case_note_audit:w&#45;&gt;audit_revision:e</title>
<path fill="none" stroke="#000000" d="M179.9951,-531.3714C136.9427,-490.605 205.7711,-229.7 142,-229.7"/>
<polygon fill="#000000" stroke="#000000" points="186.0583,-533.7637 192.1787,-540.0488 189.7792,-535.2319 193.5,-536.7 193.5,-536.7 193.5,-536.7 189.7792,-535.2319 194.8213,-533.3512 186.0583,-533.7637 186.0583,-533.7637"/>
<ellipse fill="none" stroke="#000000" cx="183.0816" cy="-532.5892" rx="3.2" ry="3.2"/>
</g>
<!-- prison_configuration_audit -->
<g id="node4" class="node">
<title>prison_configuration_audit</title>
<g id="a_node4"><a xlink:href="../../tables/prison_configuration_audit.html" xlink:title="prison_configuration_audit" target="_top">
<polygon fill="#ffffff" stroke="transparent" points="231,-202.2 231,-263.2 450,-263.2 450,-202.2 231,-202.2"/>
<polygon fill="#f5f5f5" stroke="transparent" points="231.5,-239.7 231.5,-262.7 450.5,-262.7 450.5,-239.7 231.5,-239.7"/>
<polygon fill="none" stroke="#000000" points="231.5,-239.7 231.5,-262.7 450.5,-262.7 450.5,-239.7 231.5,-239.7"/>
<text text-anchor="start" x="236.5" y="-248.3" font-family="Helvetica,sans-Serif" font-weight="bold" font-size="11.00" fill="#000000">prison_configuration_audit</text>
<text text-anchor="start" x="416.0219" y="-247.8" font-family="Helvetica,sans-Serif" font-size="11.00" fill="#000000">[table]</text>
<polygon fill="none" stroke="#000000" points="231.5,-220.7 231.5,-239.7 450.5,-239.7 450.5,-220.7 231.5,-220.7"/>
<text text-anchor="start" x="234.5" y="-226.8" font-family="Helvetica,sans-Serif" font-size="11.00" fill="#000000">...</text>
<polygon fill="#ffffff" stroke="transparent" points="231.5,-201.7 231.5,-220.7 339.5,-220.7 339.5,-201.7 231.5,-201.7"/>
<polygon fill="none" stroke="#000000" points="231.5,-201.7 231.5,-220.7 339.5,-220.7 339.5,-201.7 231.5,-201.7"/>
<text text-anchor="start" x="234.5" y="-207.8" font-family="Helvetica,sans-Serif" font-size="11.00" fill="#000000">&lt; 1</text>
<polygon fill="#ffffff" stroke="transparent" points="339.5,-201.7 339.5,-220.7 394.5,-220.7 394.5,-201.7 339.5,-201.7"/>
<polygon fill="none" stroke="#000000" points="339.5,-201.7 339.5,-220.7 394.5,-220.7 394.5,-201.7 339.5,-201.7"/>
<text text-anchor="start" x="385.3862" y="-207.8" font-family="Helvetica,sans-Serif" font-size="11.00" fill="#000000"> &#160;</text>
<polygon fill="#ffffff" stroke="transparent" points="394.5,-201.7 394.5,-220.7 450.5,-220.7 450.5,-201.7 394.5,-201.7"/>
<polygon fill="none" stroke="#000000" points="394.5,-201.7 394.5,-220.7 450.5,-220.7 450.5,-201.7 394.5,-201.7"/>
<text text-anchor="start" x="441.3862" y="-207.8" font-family="Helvetica,sans-Serif" font-size="11.00" fill="#000000"> &#160;</text>
</a>
</g>
</g>
<!-- prison_configuration_audit&#45;&gt;audit_revision -->
<g id="edge3" class="edge">
<title>prison_configuration_audit:w&#45;&gt;audit_revision:e</title>
<path fill="none" stroke="#000000" d="M217.09,-229.7C188.5545,-229.7 176.4948,-229.7 142,-229.7"/>
<polygon fill="#000000" stroke="#000000" points="223.5,-229.7001 231.5,-233.3 227.5,-229.7 231.5,-229.7 231.5,-229.7 231.5,-229.7 227.5,-229.7 231.5,-226.1 223.5,-229.7001 223.5,-229.7001"/>
<ellipse fill="none" stroke="#000000" cx="220.3" cy="-229.7001" rx="3.2" ry="3.2"/>
</g>
<!-- staff_configuration_audit -->
<g id="node5" class="node">
<title>staff_configuration_audit</title>
<g id="a_node5"><a xlink:href="../../tables/staff_configuration_audit.html" xlink:title="staff_configuration_audit" target="_top">
<polygon fill="#ffffff" stroke="transparent" points="236.5,-120.2 236.5,-181.2 444.5,-181.2 444.5,-120.2 236.5,-120.2"/>
<polygon fill="#f5f5f5" stroke="transparent" points="236.5,-157.7 236.5,-180.7 444.5,-180.7 444.5,-157.7 236.5,-157.7"/>
<polygon fill="none" stroke="#000000" points="236.5,-157.7 236.5,-180.7 444.5,-180.7 444.5,-157.7 236.5,-157.7"/>
<text text-anchor="start" x="241.5" y="-166.3" font-family="Helvetica,sans-Serif" font-weight="bold" font-size="11.00" fill="#000000">staff_configuration_audit</text>
<text text-anchor="start" x="410.0219" y="-165.8" font-family="Helvetica,sans-Serif" font-size="11.00" fill="#000000">[table]</text>
<polygon fill="none" stroke="#000000" points="236.5,-138.7 236.5,-157.7 444.5,-157.7 444.5,-138.7 236.5,-138.7"/>
<text text-anchor="start" x="239.5" y="-144.8" font-family="Helvetica,sans-Serif" font-size="11.00" fill="#000000">...</text>
<polygon fill="#ffffff" stroke="transparent" points="236.5,-119.7 236.5,-138.7 338.5,-138.7 338.5,-119.7 236.5,-119.7"/>
<polygon fill="none" stroke="#000000" points="236.5,-119.7 236.5,-138.7 338.5,-138.7 338.5,-119.7 236.5,-119.7"/>
<text text-anchor="start" x="239.5" y="-125.8" font-family="Helvetica,sans-Serif" font-size="11.00" fill="#000000">&lt; 1</text>
<polygon fill="#ffffff" stroke="transparent" points="338.5,-119.7 338.5,-138.7 391.5,-138.7 391.5,-119.7 338.5,-119.7"/>
<polygon fill="none" stroke="#000000" points="338.5,-119.7 338.5,-138.7 391.5,-138.7 391.5,-119.7 338.5,-119.7"/>
<text text-anchor="start" x="382.3862" y="-125.8" font-family="Helvetica,sans-Serif" font-size="11.00" fill="#000000"> &#160;</text>
<polygon fill="#ffffff" stroke="transparent" points="391.5,-119.7 391.5,-138.7 444.5,-138.7 444.5,-119.7 391.5,-119.7"/>
<polygon fill="none" stroke="#000000" points="391.5,-119.7 391.5,-138.7 444.5,-138.7 444.5,-119.7 391.5,-119.7"/>
<text text-anchor="start" x="435.3862" y="-125.8" font-family="Helvetica,sans-Serif" font-size="11.00" fill="#000000"> &#160;</text>
</a>
</g>
</g>
<!-- staff_configuration_audit&#45;&gt;audit_revision -->
<g id="edge4" class="edge">
<title>staff_configuration_audit:w&#45;&gt;audit_revision:e</title>
<path fill="none" stroke="#000000" d="M222.1177,-150.0252C205.0599,-156.4831 201.841,-175.2466 183,-191.7 164.2861,-208.0424 166.8452,-229.7 142,-229.7"/>
<polygon fill="#000000" stroke="#000000" points="228.6025,-148.9768 237.0746,-151.2539 232.5513,-148.3384 236.5,-147.7 236.5,-147.7 236.5,-147.7 232.5513,-148.3384 235.9254,-144.1461 228.6025,-148.9768 228.6025,-148.9768"/>
<ellipse fill="none" stroke="#000000" cx="225.4436" cy="-149.4876" rx="3.2" ry="3.2"/>
</g>
<!-- staff_role_audit -->
<g id="node6" class="node">
<title>staff_role_audit</title>
<g id="a_node6"><a xlink:href="../../tables/staff_role_audit.html" xlink:title="staff_role_audit" target="_top">
<polygon fill="#ffffff" stroke="transparent" points="269,-38.2 269,-99.2 412,-99.2 412,-38.2 269,-38.2"/>
<polygon fill="#f5f5f5" stroke="transparent" points="269.5,-75.7 269.5,-98.7 412.5,-98.7 412.5,-75.7 269.5,-75.7"/>
<polygon fill="none" stroke="#000000" points="269.5,-75.7 269.5,-98.7 412.5,-98.7 412.5,-75.7 269.5,-75.7"/>
<text text-anchor="start" x="274.5" y="-84.3" font-family="Helvetica,sans-Serif" font-weight="bold" font-size="11.00" fill="#000000">staff_role_audit</text>
<text text-anchor="start" x="378.0219" y="-83.8" font-family="Helvetica,sans-Serif" font-size="11.00" fill="#000000">[table]</text>
<polygon fill="none" stroke="#000000" points="269.5,-56.7 269.5,-75.7 412.5,-75.7 412.5,-56.7 269.5,-56.7"/>
<text text-anchor="start" x="272.5" y="-62.8" font-family="Helvetica,sans-Serif" font-size="11.00" fill="#000000">...</text>
<polygon fill="#ffffff" stroke="transparent" points="269.5,-37.7 269.5,-56.7 339.5,-56.7 339.5,-37.7 269.5,-37.7"/>
<polygon fill="none" stroke="#000000" points="269.5,-37.7 269.5,-56.7 339.5,-56.7 339.5,-37.7 269.5,-37.7"/>
<text text-anchor="start" x="272.5" y="-43.8" font-family="Helvetica,sans-Serif" font-size="11.00" fill="#000000">&lt; 1</text>
<polygon fill="#ffffff" stroke="transparent" points="339.5,-37.7 339.5,-56.7 375.5,-56.7 375.5,-37.7 339.5,-37.7"/>
<polygon fill="none" stroke="#000000" points="339.5,-37.7 339.5,-56.7 375.5,-56.7 375.5,-37.7 339.5,-37.7"/>
<text text-anchor="start" x="366.3862" y="-43.8" font-family="Helvetica,sans-Serif" font-size="11.00" fill="#000000"> &#160;</text>
<polygon fill="#ffffff" stroke="transparent" points="375.5,-37.7 375.5,-56.7 412.5,-56.7 412.5,-37.7 375.5,-37.7"/>
<polygon fill="none" stroke="#000000" points="375.5,-37.7 375.5,-56.7 412.5,-56.7 412.5,-37.7 375.5,-37.7"/>
<text text-anchor="start" x="403.3862" y="-43.8" font-family="Helvetica,sans-Serif" font-size="11.00" fill="#000000"> &#160;</text>
</a>
</g>
</g>
<!-- staff_role_audit&#45;&gt;audit_revision -->
<g id="edge5" class="edge">
<title>staff_role_audit:w&#45;&gt;audit_revision:e</title>
<path fill="none" stroke="#000000" d="M254.9909,-66.2198C222.518,-68.7768 207.8463,-81.0684 183,-109.7 146.0605,-152.2672 198.3604,-229.7 142,-229.7"/>
<polygon fill="#000000" stroke="#000000" points="261.5051,-65.9865 269.6289,-69.2977 265.5026,-65.8432 269.5,-65.7 269.5,-65.7 269.5,-65.7 265.5026,-65.8432 269.3711,-62.1023 261.5051,-65.9865 261.5051,-65.9865"/>
<ellipse fill="none" stroke="#000000" cx="258.3072" cy="-66.1011" rx="3.2" ry="3.2"/>
</g>
</g>
</svg>
