<?xml version="1.0" encoding="UTF-8" standalone="no"?>
<!DOCTYPE svg PUBLIC "-//W3C//DTD SVG 1.1//EN"
 "http://www.w3.org/Graphics/SVG/1.1/DTD/svg11.dtd">
<!-- Generated by graphviz version 2.40.1 (20161225.0304)
 -->
<!-- Title: oneDegreeRelationshipsDiagram Pages: 1 -->
<svg width="526pt" height="514pt"
 viewBox="0.00 0.00 526.00 514.20" xmlns="http://www.w3.org/2000/svg" xmlns:xlink="http://www.w3.org/1999/xlink">
<g id="graph0" class="graph" transform="scale(1 1) rotate(0) translate(4 510.2)">
<title>oneDegreeRelationshipsDiagram</title>
<polygon fill="#ffffff" stroke="transparent" points="-4,4 -4,-510.2 522,-510.2 522,4 -4,4"/>
<text text-anchor="middle" x="72.4936" y="-7.3" font-family="Helvetica,sans-Serif" font-size="11.00" fill="#000000">Generated by SchemaSpy</text>
<!-- allocation_audit -->
<g id="node1" class="node">
<title>allocation_audit</title>
<g id="a_node1"><a xlink:href="../../tables/allocation_audit.html" xlink:title="allocation_audit" target="_top">
<polygon fill="#ffffff" stroke="transparent" points="191,-38.2 191,-502.2 510,-502.2 510,-38.2 191,-38.2"/>
<polygon fill="#f5f5f5" stroke="transparent" points="193.5,-477.2 193.5,-500.2 508.5,-500.2 508.5,-477.2 193.5,-477.2"/>
<polygon fill="none" stroke="#000000" points="193.5,-477.2 193.5,-500.2 508.5,-500.2 508.5,-477.2 193.5,-477.2"/>
<text text-anchor="start" x="198.5" y="-485.8" font-family="Helvetica,sans-Serif" font-weight="bold" font-size="11.00" fill="#000000">allocation_audit</text>
<text text-anchor="start" x="473.5437" y="-485.3" font-family="Helvetica,sans-Serif" font-size="11.00" fill="#000000">[table]</text>
<polygon fill="none" stroke="#000000" points="193.5,-455.2 193.5,-477.2 414.5,-477.2 414.5,-455.2 193.5,-455.2"/>
<image xlink:href="../../images/primaryKeys.png" width="11px" height="12px" preserveAspectRatio="xMinYMin meet" x="198.5" y="-472.2"/>
<text text-anchor="start" x="213.5" y="-462.3" font-family="Helvetica,sans-Serif" font-size="11.00" fill="#000000">rev_id</text>
<polygon fill="none" stroke="#000000" points="414.5,-455.2 414.5,-477.2 508.5,-477.2 508.5,-455.2 414.5,-455.2"/>
<text text-anchor="start" x="417.5" y="-462.9" font-family="Helvetica,sans-Serif" font-size="11.00" fill="#000000">int8[19]</text>
<polygon fill="none" stroke="#000000" points="193.5,-433.2 193.5,-455.2 414.5,-455.2 414.5,-433.2 193.5,-433.2"/>
<text text-anchor="start" x="213.5" y="-440.3" font-family="Helvetica,sans-Serif" font-size="11.00" fill="#000000">rev_type</text>
<polygon fill="none" stroke="#000000" points="414.5,-433.2 414.5,-455.2 508.5,-455.2 508.5,-433.2 414.5,-433.2"/>
<text text-anchor="start" x="417.5" y="-440.9" font-family="Helvetica,sans-Serif" font-size="11.00" fill="#000000">int2[5]</text>
<polygon fill="none" stroke="#000000" points="193.5,-411.2 193.5,-433.2 414.5,-433.2 414.5,-411.2 193.5,-411.2"/>
<image xlink:href="../../images/primaryKeys.png" width="11px" height="12px" preserveAspectRatio="xMinYMin meet" x="198.5" y="-428.2"/>
<text text-anchor="start" x="213.5" y="-418.3" font-family="Helvetica,sans-Serif" font-size="11.00" fill="#000000">id</text>
<polygon fill="none" stroke="#000000" points="414.5,-411.2 414.5,-433.2 508.5,-433.2 508.5,-411.2 414.5,-411.2"/>
<text text-anchor="start" x="417.4758" y="-418.9" font-family="Helvetica,sans-Serif" font-size="11.00" fill="#000000">uuid[2147483647]</text>
<polygon fill="none" stroke="#000000" points="193.5,-389.2 193.5,-411.2 414.5,-411.2 414.5,-389.2 193.5,-389.2"/>
<text text-anchor="start" x="213.5" y="-396.3" font-family="Helvetica,sans-Serif" font-size="11.00" fill="#000000">prison_code</text>
<polygon fill="none" stroke="#000000" points="414.5,-389.2 414.5,-411.2 508.5,-411.2 508.5,-389.2 414.5,-389.2"/>
<text text-anchor="start" x="417.5" y="-396.9" font-family="Helvetica,sans-Serif" font-size="11.00" fill="#000000">varchar[6]</text>
<polygon fill="none" stroke="#000000" points="193.5,-367.2 193.5,-389.2 414.5,-389.2 414.5,-367.2 193.5,-367.2"/>
<text text-anchor="start" x="213.5" y="-374.3" font-family="Helvetica,sans-Serif" font-size="11.00" fill="#000000">staff_id</text>
<polygon fill="none" stroke="#000000" points="414.5,-367.2 414.5,-389.2 508.5,-389.2 508.5,-367.2 414.5,-367.2"/>
<text text-anchor="start" x="417.5" y="-374.9" font-family="Helvetica,sans-Serif" font-size="11.00" fill="#000000">int8[19]</text>
<polygon fill="none" stroke="#000000" points="193.5,-345.2 193.5,-367.2 414.5,-367.2 414.5,-345.2 193.5,-345.2"/>
<text text-anchor="start" x="213.5" y="-352.3" font-family="Helvetica,sans-Serif" font-size="11.00" fill="#000000">person_identifier</text>
<polygon fill="none" stroke="#000000" points="414.5,-345.2 414.5,-367.2 508.5,-367.2 508.5,-345.2 414.5,-345.2"/>
<text text-anchor="start" x="417.5" y="-352.9" font-family="Helvetica,sans-Serif" font-size="11.00" fill="#000000">varchar[10]</text>
<polygon fill="none" stroke="#000000" points="193.5,-323.2 193.5,-345.2 414.5,-345.2 414.5,-323.2 193.5,-323.2"/>
<text text-anchor="start" x="213.5" y="-330.3" font-family="Helvetica,sans-Serif" font-size="11.00" fill="#000000">allocated_at</text>
<polygon fill="none" stroke="#000000" points="414.5,-323.2 414.5,-345.2 508.5,-345.2 508.5,-323.2 414.5,-323.2"/>
<text text-anchor="start" x="417.5" y="-330.9" font-family="Helvetica,sans-Serif" font-size="11.00" fill="#000000">timestamp[29,6]</text>
<polygon fill="none" stroke="#000000" points="193.5,-301.2 193.5,-323.2 414.5,-323.2 414.5,-301.2 193.5,-301.2"/>
<text text-anchor="start" x="213.5" y="-308.3" font-family="Helvetica,sans-Serif" font-size="11.00" fill="#000000">allocated_by</text>
<polygon fill="none" stroke="#000000" points="414.5,-301.2 414.5,-323.2 508.5,-323.2 508.5,-301.2 414.5,-301.2"/>
<text text-anchor="start" x="417.5" y="-308.9" font-family="Helvetica,sans-Serif" font-size="11.00" fill="#000000">varchar[64]</text>
<polygon fill="none" stroke="#000000" points="193.5,-279.2 193.5,-301.2 414.5,-301.2 414.5,-279.2 193.5,-279.2"/>
<text text-anchor="start" x="213.5" y="-286.3" font-family="Helvetica,sans-Serif" font-size="11.00" fill="#000000">allocation_reason_id</text>
<polygon fill="none" stroke="#000000" points="414.5,-279.2 414.5,-301.2 508.5,-301.2 508.5,-279.2 414.5,-279.2"/>
<text text-anchor="start" x="417.5" y="-286.9" font-family="Helvetica,sans-Serif" font-size="11.00" fill="#000000">int8[19]</text>
<polygon fill="none" stroke="#000000" points="193.5,-257.2 193.5,-279.2 414.5,-279.2 414.5,-257.2 193.5,-257.2"/>
<text text-anchor="start" x="213.5" y="-264.3" font-family="Helvetica,sans-Serif" font-size="11.00" fill="#000000">deallocated_at</text>
<polygon fill="none" stroke="#000000" points="414.5,-257.2 414.5,-279.2 508.5,-279.2 508.5,-257.2 414.5,-257.2"/>
<text text-anchor="start" x="417.5" y="-264.9" font-family="Helvetica,sans-Serif" font-size="11.00" fill="#000000">timestamp[29,6]</text>
<polygon fill="none" stroke="#000000" points="193.5,-235.2 193.5,-257.2 414.5,-257.2 414.5,-235.2 193.5,-235.2"/>
<text text-anchor="start" x="213.5" y="-242.3" font-family="Helvetica,sans-Serif" font-size="11.00" fill="#000000">deallocation_reason_id</text>
<polygon fill="none" stroke="#000000" points="414.5,-235.2 414.5,-257.2 508.5,-257.2 508.5,-235.2 414.5,-235.2"/>
<text text-anchor="start" x="417.5" y="-242.9" font-family="Helvetica,sans-Serif" font-size="11.00" fill="#000000">int8[19]</text>
<polygon fill="none" stroke="#000000" points="193.5,-213.2 193.5,-235.2 414.5,-235.2 414.5,-213.2 193.5,-213.2"/>
<text text-anchor="start" x="213.5" y="-220.3" font-family="Helvetica,sans-Serif" font-size="11.00" fill="#000000">deallocated_by</text>
<polygon fill="none" stroke="#000000" points="414.5,-213.2 414.5,-235.2 508.5,-235.2 508.5,-213.2 414.5,-213.2"/>
<text text-anchor="start" x="417.5" y="-220.9" font-family="Helvetica,sans-Serif" font-size="11.00" fill="#000000">varchar[64]</text>
<polygon fill="none" stroke="#000000" points="193.5,-191.2 193.5,-213.2 414.5,-213.2 414.5,-191.2 193.5,-191.2"/>
<text text-anchor="start" x="213.5" y="-198.3" font-family="Helvetica,sans-Serif" font-size="11.00" fill="#000000">is_active</text>
<polygon fill="none" stroke="#000000" points="414.5,-191.2 414.5,-213.2 508.5,-213.2 508.5,-191.2 414.5,-191.2"/>
<text text-anchor="start" x="417.5" y="-198.9" font-family="Helvetica,sans-Serif" font-size="11.00" fill="#000000">bool[1]</text>
<polygon fill="none" stroke="#000000" points="193.5,-169.2 193.5,-191.2 414.5,-191.2 414.5,-169.2 193.5,-169.2"/>
<image xlink:href="../../images/foreignKeys.png" width="11px" height="12px" preserveAspectRatio="xMinYMin meet" x="198.5" y="-186.2"/>
<text text-anchor="start" x="213.5" y="-176.3" font-family="Helvetica,sans-Serif" font-size="11.00" fill="#000000">policy_code</text>
<polygon fill="none" stroke="#000000" points="414.5,-169.2 414.5,-191.2 508.5,-191.2 508.5,-169.2 414.5,-169.2"/>
<text text-anchor="start" x="417.5" y="-176.9" font-family="Helvetica,sans-Serif" font-size="11.00" fill="#000000">varchar[16]</text>
<polygon fill="none" stroke="#000000" points="193.5,-147.2 193.5,-169.2 414.5,-169.2 414.5,-147.2 193.5,-147.2"/>
<text text-anchor="start" x="213.5" y="-154.3" font-family="Helvetica,sans-Serif" font-size="11.00" fill="#000000">person_identifier_modified</text>
<polygon fill="none" stroke="#000000" points="414.5,-147.2 414.5,-169.2 508.5,-169.2 508.5,-147.2 414.5,-147.2"/>
<text text-anchor="start" x="417.5" y="-154.9" font-family="Helvetica,sans-Serif" font-size="11.00" fill="#000000">bool[1]</text>
<polygon fill="none" stroke="#000000" points="193.5,-125.2 193.5,-147.2 414.5,-147.2 414.5,-125.2 193.5,-125.2"/>
<text text-anchor="start" x="213.5" y="-132.3" font-family="Helvetica,sans-Serif" font-size="11.00" fill="#000000">deallocated_at_modified</text>
<polygon fill="none" stroke="#000000" points="414.5,-125.2 414.5,-147.2 508.5,-147.2 508.5,-125.2 414.5,-125.2"/>
<text text-anchor="start" x="417.5" y="-132.9" font-family="Helvetica,sans-Serif" font-size="11.00" fill="#000000">bool[1]</text>
<polygon fill="none" stroke="#000000" points="193.5,-103.2 193.5,-125.2 414.5,-125.2 414.5,-103.2 193.5,-103.2"/>
<text text-anchor="start" x="213.5" y="-110.3" font-family="Helvetica,sans-Serif" font-size="11.00" fill="#000000">deallocation_reason_modified</text>
<polygon fill="none" stroke="#000000" points="414.5,-103.2 414.5,-125.2 508.5,-125.2 508.5,-103.2 414.5,-103.2"/>
<text text-anchor="start" x="417.5" y="-110.9" font-family="Helvetica,sans-Serif" font-size="11.00" fill="#000000">bool[1]</text>
<polygon fill="none" stroke="#000000" points="193.5,-81.2 193.5,-103.2 414.5,-103.2 414.5,-81.2 193.5,-81.2"/>
<text text-anchor="start" x="213.5" y="-88.3" font-family="Helvetica,sans-Serif" font-size="11.00" fill="#000000">deallocated_by_modified</text>
<polygon fill="none" stroke="#000000" points="414.5,-81.2 414.5,-103.2 508.5,-103.2 508.5,-81.2 414.5,-81.2"/>
<text text-anchor="start" x="417.5" y="-88.9" font-family="Helvetica,sans-Serif" font-size="11.00" fill="#000000">bool[1]</text>
<polygon fill="none" stroke="#000000" points="193.5,-59.2 193.5,-81.2 414.5,-81.2 414.5,-59.2 193.5,-59.2"/>
<text text-anchor="start" x="213.5" y="-66.3" font-family="Helvetica,sans-Serif" font-size="11.00" fill="#000000">is_active_modified</text>
<polygon fill="none" stroke="#000000" points="414.5,-59.2 414.5,-81.2 508.5,-81.2 508.5,-59.2 414.5,-59.2"/>
<text text-anchor="start" x="417.5" y="-66.9" font-family="Helvetica,sans-Serif" font-size="11.00" fill="#000000">bool[1]</text>
<polygon fill="#ffffff" stroke="transparent" points="193.5,-40.2 193.5,-59.2 308.5,-59.2 308.5,-40.2 193.5,-40.2"/>
<polygon fill="none" stroke="#000000" points="193.5,-40.2 193.5,-59.2 308.5,-59.2 308.5,-40.2 193.5,-40.2"/>
<text text-anchor="start" x="196.5" y="-46.3" font-family="Helvetica,sans-Serif" font-size="11.00" fill="#000000">&lt; 1</text>
<polygon fill="#ffffff" stroke="transparent" points="308.5,-40.2 308.5,-59.2 414.5,-59.2 414.5,-40.2 308.5,-40.2"/>
<polygon fill="none" stroke="#000000" points="308.5,-40.2 308.5,-59.2 414.5,-59.2 414.5,-40.2 308.5,-40.2"/>
<text text-anchor="start" x="405.3862" y="-46.3" font-family="Helvetica,sans-Serif" font-size="11.00" fill="#000000"> &#160;</text>
<polygon fill="#ffffff" stroke="transparent" points="414.5,-40.2 414.5,-59.2 508.5,-59.2 508.5,-40.2 414.5,-40.2"/>
<polygon fill="none" stroke="#000000" points="414.5,-40.2 414.5,-59.2 508.5,-59.2 508.5,-40.2 414.5,-40.2"/>
<text text-anchor="start" x="489.9053" y="-46.3" font-family="Helvetica,sans-Serif" font-size="11.00" fill="#000000">0 &gt;</text>
<polygon fill="none" stroke="#000000" stroke-width="2" points="192,-39.2 192,-501.2 509,-501.2 509,-39.2 192,-39.2"/>
</a>
</g>
</g>
<!-- audit_revision -->
<g id="node2" class="node">
<title>audit_revision</title>
<g id="a_node2"><a xlink:href="../../tables/audit_revision.html" xlink:title="audit_revision" target="_top">
<polygon fill="#ffffff" stroke="transparent" points="8,-417.7 8,-500.7 142,-500.7 142,-417.7 8,-417.7"/>
<polygon fill="#f5f5f5" stroke="transparent" points="8,-477.2 8,-500.2 142,-500.2 142,-477.2 8,-477.2"/>
<polygon fill="none" stroke="#000000" points="8,-477.2 8,-500.2 142,-500.2 142,-477.2 8,-477.2"/>
<text text-anchor="start" x="13" y="-485.8" font-family="Helvetica,sans-Serif" font-weight="bold" font-size="11.00" fill="#000000">audit_revision</text>
<text text-anchor="start" x="107.5219" y="-485.3" font-family="Helvetica,sans-Serif" font-size="11.00" fill="#000000">[table]</text>
<polygon fill="none" stroke="#000000" points="8,-455.2 8,-477.2 142,-477.2 142,-455.2 8,-455.2"/>
<image xlink:href="../../images/primaryKeys.png" width="11px" height="12px" preserveAspectRatio="xMinYMin meet" x="13" y="-472.2"/>
<text text-anchor="start" x="28" y="-462.3" font-family="Helvetica,sans-Serif" font-size="11.00" fill="#000000">id</text>
<polygon fill="none" stroke="#000000" points="8,-436.2 8,-455.2 142,-455.2 142,-436.2 8,-436.2"/>
<text text-anchor="start" x="11" y="-442.3" font-family="Helvetica,sans-Serif" font-size="11.00" fill="#000000">...</text>
<polygon fill="#ffffff" stroke="transparent" points="8,-417.2 8,-436.2 64,-436.2 64,-417.2 8,-417.2"/>
<polygon fill="none" stroke="#000000" points="8,-417.2 8,-436.2 64,-436.2 64,-417.2 8,-417.2"/>
<text text-anchor="start" x="11" y="-423.3" font-family="Helvetica,sans-Serif" font-size="11.00" fill="#000000"> &#160;</text>
<polygon fill="#ffffff" stroke="transparent" points="64,-417.2 64,-436.2 98,-436.2 98,-417.2 64,-417.2"/>
<polygon fill="none" stroke="#000000" points="64,-417.2 64,-436.2 98,-436.2 98,-417.2 64,-417.2"/>
<text text-anchor="start" x="88.8862" y="-423.3" font-family="Helvetica,sans-Serif" font-size="11.00" fill="#000000"> &#160;</text>
<polygon fill="#ffffff" stroke="transparent" points="98,-417.2 98,-436.2 142,-436.2 142,-417.2 98,-417.2"/>
<polygon fill="none" stroke="#000000" points="98,-417.2 98,-436.2 142,-436.2 142,-417.2 98,-417.2"/>
<text text-anchor="start" x="123.4053" y="-423.3" font-family="Helvetica,sans-Serif" font-size="11.00" fill="#000000">5 &gt;</text>
</a>
</g>
</g>
<!-- allocation_audit&#45;&gt;audit_revision -->
<g id="edge1" class="edge">
<title>allocation_audit:w&#45;&gt;audit_revision:e</title>
<path fill="none" stroke="#000000" d="M179.0156,-466.2C166.6771,-466.2 159.1667,-466.2 142,-466.2"/>
<polygon fill="#000000" stroke="#000000" points="185.5,-466.2001 193.5,-469.8 189.5,-466.2 193.5,-466.2 193.5,-466.2 193.5,-466.2 189.5,-466.2 193.5,-462.6 185.5,-466.2001 185.5,-466.2001"/>
<ellipse fill="none" stroke="#000000" cx="182.3" cy="-466.2001" rx="3.2" ry="3.2"/>
</g>
</g>
</svg>
