<?xml version="1.0" encoding="UTF-8" standalone="no"?>
<!DOCTYPE svg PUBLIC "-//W3C//DTD SVG 1.1//EN"
 "http://www.w3.org/Graphics/SVG/1.1/DTD/svg11.dtd">
<!-- Generated by graphviz version 2.40.1 (20161225.0304)
 -->
<!-- Title: twoDegreesRelationshipsDiagram Pages: 1 -->
<svg width="488pt" height="651pt"
 viewBox="0.00 0.00 488.00 651.20" xmlns="http://www.w3.org/2000/svg" xmlns:xlink="http://www.w3.org/1999/xlink">
<g id="graph0" class="graph" transform="scale(1 1) rotate(0) translate(4 647.2)">
<title>twoDegreesRelationshipsDiagram</title>
<polygon fill="#ffffff" stroke="transparent" points="-4,4 -4,-647.2 484,-647.2 484,4 -4,4"/>
<text text-anchor="middle" x="72.4936" y="-7.3" font-family="Helvetica,sans-Serif" font-size="11.00" fill="#000000">Generated by SchemaSpy</text>
<!-- allocation -->
<g id="node1" class="node">
<title>allocation</title>
<g id="a_node1"><a xlink:href="../../tables/allocation.html" xlink:title="allocation" target="_top">
<polygon fill="#ffffff" stroke="transparent" points="200,-202.7 200,-556.7 472,-556.7 472,-202.7 200,-202.7"/>
<polygon fill="#f5f5f5" stroke="transparent" points="202,-531.7 202,-554.7 470,-554.7 470,-531.7 202,-531.7"/>
<polygon fill="none" stroke="#000000" points="202,-531.7 202,-554.7 470,-554.7 470,-531.7 202,-531.7"/>
<text text-anchor="start" x="207" y="-540.3" font-family="Helvetica,sans-Serif" font-weight="bold" font-size="11.00" fill="#000000">allocation</text>
<text text-anchor="start" x="435.0437" y="-539.8" font-family="Helvetica,sans-Serif" font-size="11.00" fill="#000000">[table]</text>
<polygon fill="none" stroke="#000000" points="202,-509.7 202,-531.7 376,-531.7 376,-509.7 202,-509.7"/>
<image xlink:href="../../images/primaryKeys.png" width="11px" height="12px" preserveAspectRatio="xMinYMin meet" x="207" y="-526.7"/>
<text text-anchor="start" x="222" y="-516.8" font-family="Helvetica,sans-Serif" font-size="11.00" fill="#000000">id</text>
<polygon fill="none" stroke="#000000" points="376,-509.7 376,-531.7 470,-531.7 470,-509.7 376,-509.7"/>
<text text-anchor="start" x="378.9758" y="-517.4" font-family="Helvetica,sans-Serif" font-size="11.00" fill="#000000">uuid[2147483647]</text>
<polygon fill="none" stroke="#000000" points="202,-487.7 202,-509.7 376,-509.7 376,-487.7 202,-487.7"/>
<image xlink:href="../../images/foreignKeys.png" width="11px" height="12px" preserveAspectRatio="xMinYMin meet" x="207" y="-504.7"/>
<text text-anchor="start" x="222" y="-494.8" font-family="Helvetica,sans-Serif" font-size="11.00" fill="#000000">prison_code</text>
<polygon fill="none" stroke="#000000" points="376,-487.7 376,-509.7 470,-509.7 470,-487.7 376,-487.7"/>
<text text-anchor="start" x="379" y="-495.4" font-family="Helvetica,sans-Serif" font-size="11.00" fill="#000000">varchar[6]</text>
<polygon fill="#ffffff" stroke="transparent" points="202,-465.7 202,-487.7 376,-487.7 376,-465.7 202,-465.7"/>
<polygon fill="none" stroke="#000000" points="202,-465.7 202,-487.7 376,-487.7 376,-465.7 202,-465.7"/>
<text text-anchor="start" x="222" y="-472.8" font-family="Helvetica,sans-Serif" font-size="11.00" fill="#000000">staff_id</text>
<polygon fill="none" stroke="#000000" points="376,-465.7 376,-487.7 470,-487.7 470,-465.7 376,-465.7"/>
<text text-anchor="start" x="379" y="-473.4" font-family="Helvetica,sans-Serif" font-size="11.00" fill="#000000">int8[19]</text>
<polygon fill="#ffffff" stroke="transparent" points="202,-443.7 202,-465.7 376,-465.7 376,-443.7 202,-443.7"/>
<polygon fill="none" stroke="#000000" points="202,-443.7 202,-465.7 376,-465.7 376,-443.7 202,-443.7"/>
<text text-anchor="start" x="222" y="-450.8" font-family="Helvetica,sans-Serif" font-size="11.00" fill="#000000">person_identifier</text>
<polygon fill="none" stroke="#000000" points="376,-443.7 376,-465.7 470,-465.7 470,-443.7 376,-443.7"/>
<text text-anchor="start" x="379" y="-451.4" font-family="Helvetica,sans-Serif" font-size="11.00" fill="#000000">varchar[10]</text>
<polygon fill="#ffffff" stroke="transparent" points="202,-421.7 202,-443.7 376,-443.7 376,-421.7 202,-421.7"/>
<polygon fill="none" stroke="#000000" points="202,-421.7 202,-443.7 376,-443.7 376,-421.7 202,-421.7"/>
<text text-anchor="start" x="222" y="-428.8" font-family="Helvetica,sans-Serif" font-size="11.00" fill="#000000">allocated_at</text>
<polygon fill="none" stroke="#000000" points="376,-421.7 376,-443.7 470,-443.7 470,-421.7 376,-421.7"/>
<text text-anchor="start" x="379" y="-429.4" font-family="Helvetica,sans-Serif" font-size="11.00" fill="#000000">timestamp[29,6]</text>
<polygon fill="none" stroke="#000000" points="202,-399.7 202,-421.7 376,-421.7 376,-399.7 202,-399.7"/>
<text text-anchor="start" x="222" y="-406.8" font-family="Helvetica,sans-Serif" font-size="11.00" fill="#000000">allocation_type</text>
<polygon fill="none" stroke="#000000" points="376,-399.7 376,-421.7 470,-421.7 470,-399.7 376,-399.7"/>
<text text-anchor="start" x="379" y="-407.4" font-family="Helvetica,sans-Serif" font-size="11.00" fill="#000000">bpchar[1]</text>
<polygon fill="none" stroke="#000000" points="202,-377.7 202,-399.7 376,-399.7 376,-377.7 202,-377.7"/>
<text text-anchor="start" x="222" y="-384.8" font-family="Helvetica,sans-Serif" font-size="11.00" fill="#000000">allocated_by</text>
<polygon fill="none" stroke="#000000" points="376,-377.7 376,-399.7 470,-399.7 470,-377.7 376,-377.7"/>
<text text-anchor="start" x="379" y="-385.4" font-family="Helvetica,sans-Serif" font-size="11.00" fill="#000000">varchar[64]</text>
<polygon fill="none" stroke="#000000" points="202,-355.7 202,-377.7 376,-377.7 376,-355.7 202,-355.7"/>
<image xlink:href="../../images/foreignKeys.png" width="11px" height="12px" preserveAspectRatio="xMinYMin meet" x="207" y="-372.7"/>
<text text-anchor="start" x="222" y="-362.8" font-family="Helvetica,sans-Serif" font-size="11.00" fill="#000000">allocation_reason_id</text>
<polygon fill="none" stroke="#000000" points="376,-355.7 376,-377.7 470,-377.7 470,-355.7 376,-355.7"/>
<text text-anchor="start" x="379" y="-363.4" font-family="Helvetica,sans-Serif" font-size="11.00" fill="#000000">int8[19]</text>
<polygon fill="none" stroke="#000000" points="202,-333.7 202,-355.7 376,-355.7 376,-333.7 202,-333.7"/>
<text text-anchor="start" x="222" y="-340.8" font-family="Helvetica,sans-Serif" font-size="11.00" fill="#000000">deallocated_at</text>
<polygon fill="none" stroke="#000000" points="376,-333.7 376,-355.7 470,-355.7 470,-333.7 376,-333.7"/>
<text text-anchor="start" x="379" y="-341.4" font-family="Helvetica,sans-Serif" font-size="11.00" fill="#000000">timestamp[29,6]</text>
<polygon fill="none" stroke="#000000" points="202,-311.7 202,-333.7 376,-333.7 376,-311.7 202,-311.7"/>
<image xlink:href="../../images/foreignKeys.png" width="11px" height="12px" preserveAspectRatio="xMinYMin meet" x="207" y="-328.7"/>
<text text-anchor="start" x="222" y="-318.8" font-family="Helvetica,sans-Serif" font-size="11.00" fill="#000000">deallocation_reason_id</text>
<polygon fill="none" stroke="#000000" points="376,-311.7 376,-333.7 470,-333.7 470,-311.7 376,-311.7"/>
<text text-anchor="start" x="379" y="-319.4" font-family="Helvetica,sans-Serif" font-size="11.00" fill="#000000">int8[19]</text>
<polygon fill="none" stroke="#000000" points="202,-289.7 202,-311.7 376,-311.7 376,-289.7 202,-289.7"/>
<text text-anchor="start" x="222" y="-296.8" font-family="Helvetica,sans-Serif" font-size="11.00" fill="#000000">deallocated_by</text>
<polygon fill="none" stroke="#000000" points="376,-289.7 376,-311.7 470,-311.7 470,-289.7 376,-289.7"/>
<text text-anchor="start" x="379" y="-297.4" font-family="Helvetica,sans-Serif" font-size="11.00" fill="#000000">varchar[64]</text>
<polygon fill="none" stroke="#000000" points="202,-267.7 202,-289.7 376,-289.7 376,-267.7 202,-267.7"/>
<text text-anchor="start" x="222" y="-274.8" font-family="Helvetica,sans-Serif" font-size="11.00" fill="#000000">is_active</text>
<polygon fill="none" stroke="#000000" points="376,-267.7 376,-289.7 470,-289.7 470,-267.7 376,-267.7"/>
<text text-anchor="start" x="379" y="-275.4" font-family="Helvetica,sans-Serif" font-size="11.00" fill="#000000">bool[1]</text>
<polygon fill="#ffffff" stroke="transparent" points="202,-245.7 202,-267.7 376,-267.7 376,-245.7 202,-245.7"/>
<polygon fill="none" stroke="#000000" points="202,-245.7 202,-267.7 376,-267.7 376,-245.7 202,-245.7"/>
<image xlink:href="../../images/foreignKeys.png" width="11px" height="12px" preserveAspectRatio="xMinYMin meet" x="207" y="-262.7"/>
<text text-anchor="start" x="222" y="-252.8" font-family="Helvetica,sans-Serif" font-size="11.00" fill="#000000">policy_code</text>
<polygon fill="none" stroke="#000000" points="376,-245.7 376,-267.7 470,-267.7 470,-245.7 376,-245.7"/>
<text text-anchor="start" x="379" y="-253.4" font-family="Helvetica,sans-Serif" font-size="11.00" fill="#000000">varchar[16]</text>
<polygon fill="#ffffff" stroke="transparent" points="202,-223.7 202,-245.7 376,-245.7 376,-223.7 202,-223.7"/>
<polygon fill="none" stroke="#000000" points="202,-223.7 202,-245.7 376,-245.7 376,-223.7 202,-223.7"/>
<text text-anchor="start" x="222" y="-230.8" font-family="Helvetica,sans-Serif" font-size="11.00" fill="#000000">legacy_id</text>
<polygon fill="none" stroke="#000000" points="376,-223.7 376,-245.7 470,-245.7 470,-223.7 376,-223.7"/>
<text text-anchor="start" x="379" y="-231.4" font-family="Helvetica,sans-Serif" font-size="11.00" fill="#000000">int8[19]</text>
<polygon fill="#ffffff" stroke="transparent" points="202,-204.7 202,-223.7 293,-223.7 293,-204.7 202,-204.7"/>
<polygon fill="none" stroke="#000000" points="202,-204.7 202,-223.7 293,-223.7 293,-204.7 202,-204.7"/>
<text text-anchor="start" x="205" y="-210.8" font-family="Helvetica,sans-Serif" font-size="11.00" fill="#000000">&lt; 3</text>
<polygon fill="#ffffff" stroke="transparent" points="293,-204.7 293,-223.7 376,-223.7 376,-204.7 293,-204.7"/>
<polygon fill="none" stroke="#000000" points="293,-204.7 293,-223.7 376,-223.7 376,-204.7 293,-204.7"/>
<text text-anchor="start" x="366.8862" y="-210.8" font-family="Helvetica,sans-Serif" font-size="11.00" fill="#000000"> &#160;</text>
<polygon fill="#ffffff" stroke="transparent" points="376,-204.7 376,-223.7 470,-223.7 470,-204.7 376,-204.7"/>
<polygon fill="none" stroke="#000000" points="376,-204.7 376,-223.7 470,-223.7 470,-204.7 376,-204.7"/>
<text text-anchor="start" x="451.4053" y="-210.8" font-family="Helvetica,sans-Serif" font-size="11.00" fill="#000000">0 &gt;</text>
<polygon fill="none" stroke="#000000" stroke-width="2" points="201,-203.7 201,-555.7 471,-555.7 471,-203.7 201,-203.7"/>
</a>
</g>
</g>
<!-- reference_data -->
<g id="node2" class="node">
<title>reference_data</title>
<g id="a_node2"><a xlink:href="../../tables/reference_data.html" xlink:title="reference_data" target="_top">
<polygon fill="#ffffff" stroke="transparent" points="8,-252.2 8,-401.2 151,-401.2 151,-252.2 8,-252.2"/>
<polygon fill="#f5f5f5" stroke="transparent" points="8.5,-377.7 8.5,-400.7 151.5,-400.7 151.5,-377.7 8.5,-377.7"/>
<polygon fill="none" stroke="#000000" points="8.5,-377.7 8.5,-400.7 151.5,-400.7 151.5,-377.7 8.5,-377.7"/>
<text text-anchor="start" x="13.5" y="-386.3" font-family="Helvetica,sans-Serif" font-weight="bold" font-size="11.00" fill="#000000">reference_data</text>
<text text-anchor="start" x="116.5437" y="-385.8" font-family="Helvetica,sans-Serif" font-size="11.00" fill="#000000">[table]</text>
<polygon fill="none" stroke="#000000" points="8.5,-355.7 8.5,-377.7 151.5,-377.7 151.5,-355.7 8.5,-355.7"/>
<image xlink:href="../../images/primaryKeys.png" width="11px" height="12px" preserveAspectRatio="xMinYMin meet" x="13.5" y="-372.7"/>
<text text-anchor="start" x="28.5" y="-362.8" font-family="Helvetica,sans-Serif" font-size="11.00" fill="#000000">id</text>
<polygon fill="#ffffff" stroke="transparent" points="8.5,-333.7 8.5,-355.7 151.5,-355.7 151.5,-333.7 8.5,-333.7"/>
<polygon fill="none" stroke="#000000" points="8.5,-333.7 8.5,-355.7 151.5,-355.7 151.5,-333.7 8.5,-333.7"/>
<text text-anchor="start" x="28.5" y="-340.8" font-family="Helvetica,sans-Serif" font-size="11.00" fill="#000000">domain</text>
<polygon fill="#ffffff" stroke="transparent" points="8.5,-311.7 8.5,-333.7 151.5,-333.7 151.5,-311.7 8.5,-311.7"/>
<polygon fill="none" stroke="#000000" points="8.5,-311.7 8.5,-333.7 151.5,-333.7 151.5,-311.7 8.5,-311.7"/>
<text text-anchor="start" x="28.5" y="-318.8" font-family="Helvetica,sans-Serif" font-size="11.00" fill="#000000">code</text>
<polygon fill="#ffffff" stroke="transparent" points="8.5,-289.7 8.5,-311.7 151.5,-311.7 151.5,-289.7 8.5,-289.7"/>
<polygon fill="none" stroke="#000000" points="8.5,-289.7 8.5,-311.7 151.5,-311.7 151.5,-289.7 8.5,-289.7"/>
<text text-anchor="start" x="28.5" y="-296.8" font-family="Helvetica,sans-Serif" font-size="11.00" fill="#000000">sequence_number</text>
<polygon fill="none" stroke="#000000" points="8.5,-270.7 8.5,-289.7 151.5,-289.7 151.5,-270.7 8.5,-270.7"/>
<text text-anchor="start" x="11.5" y="-276.8" font-family="Helvetica,sans-Serif" font-size="11.00" fill="#000000">...</text>
<polygon fill="#ffffff" stroke="transparent" points="8.5,-251.7 8.5,-270.7 69.5,-270.7 69.5,-251.7 8.5,-251.7"/>
<polygon fill="none" stroke="#000000" points="8.5,-251.7 8.5,-270.7 69.5,-270.7 69.5,-251.7 8.5,-251.7"/>
<text text-anchor="start" x="11.5" y="-257.8" font-family="Helvetica,sans-Serif" font-size="11.00" fill="#000000"> &#160;</text>
<polygon fill="#ffffff" stroke="transparent" points="69.5,-251.7 69.5,-270.7 105.5,-270.7 105.5,-251.7 69.5,-251.7"/>
<polygon fill="none" stroke="#000000" points="69.5,-251.7 69.5,-270.7 105.5,-270.7 105.5,-251.7 69.5,-251.7"/>
<text text-anchor="start" x="96.3862" y="-257.8" font-family="Helvetica,sans-Serif" font-size="11.00" fill="#000000"> &#160;</text>
<polygon fill="#ffffff" stroke="transparent" points="105.5,-251.7 105.5,-270.7 151.5,-270.7 151.5,-251.7 105.5,-251.7"/>
<polygon fill="none" stroke="#000000" points="105.5,-251.7 105.5,-270.7 151.5,-270.7 151.5,-251.7 105.5,-251.7"/>
<text text-anchor="start" x="132.9053" y="-257.8" font-family="Helvetica,sans-Serif" font-size="11.00" fill="#000000">5 &gt;</text>
</a>
</g>
</g>
<!-- allocation&#45;&gt;reference_data -->
<g id="edge1" class="edge">
<title>allocation:w&#45;&gt;reference_data:e</title>
<path fill="none" stroke="#000000" d="M187.4203,-366.7C175.5435,-366.7 168.158,-366.7 151.5,-366.7"/>
<polygon fill="#000000" stroke="#000000" points="194,-366.7001 202,-370.3 198,-366.7 202,-366.7 202,-366.7 202,-366.7 198,-366.7 202,-363.1 194,-366.7001 194,-366.7001"/>
<ellipse fill="none" stroke="#000000" cx="190.8" cy="-366.7001" rx="3.2" ry="3.2"/>
</g>
<!-- allocation&#45;&gt;reference_data -->
<g id="edge2" class="edge">
<title>allocation:w&#45;&gt;reference_data:e</title>
<path fill="none" stroke="#000000" d="M188.0126,-327.4088C174.3016,-338.7596 175.2219,-366.7 151.5,-366.7"/>
<polygon fill="#000000" stroke="#000000" points="194.4181,-325.2524 203.1486,-326.1119 198.209,-323.9762 202,-322.7 202,-322.7 202,-322.7 198.209,-323.9762 200.8514,-319.2881 194.4181,-325.2524 194.4181,-325.2524"/>
<ellipse fill="none" stroke="#000000" cx="191.3853" cy="-326.2734" rx="3.2" ry="3.2"/>
</g>
<!-- policy -->
<g id="node3" class="node">
<title>policy</title>
<g id="a_node3"><a xlink:href="../../tables/policy.html" xlink:title="policy" target="_top">
<polygon fill="#ffffff" stroke="transparent" points="31,-99.2 31,-182.2 128,-182.2 128,-99.2 31,-99.2"/>
<polygon fill="#f5f5f5" stroke="transparent" points="31.5,-158.7 31.5,-181.7 128.5,-181.7 128.5,-158.7 31.5,-158.7"/>
<polygon fill="none" stroke="#000000" points="31.5,-158.7 31.5,-181.7 128.5,-181.7 128.5,-158.7 31.5,-158.7"/>
<text text-anchor="start" x="36.5" y="-167.3" font-family="Helvetica,sans-Serif" font-weight="bold" font-size="11.00" fill="#000000">policy</text>
<text text-anchor="start" x="93.5437" y="-166.8" font-family="Helvetica,sans-Serif" font-size="11.00" fill="#000000">[table]</text>
<polygon fill="none" stroke="#000000" points="31.5,-136.7 31.5,-158.7 128.5,-158.7 128.5,-136.7 31.5,-136.7"/>
<image xlink:href="../../images/primaryKeys.png" width="11px" height="12px" preserveAspectRatio="xMinYMin meet" x="36.5" y="-153.7"/>
<text text-anchor="start" x="51.5" y="-143.8" font-family="Helvetica,sans-Serif" font-size="11.00" fill="#000000">code</text>
<polygon fill="none" stroke="#000000" points="31.5,-117.7 31.5,-136.7 128.5,-136.7 128.5,-117.7 31.5,-117.7"/>
<text text-anchor="start" x="34.5" y="-123.8" font-family="Helvetica,sans-Serif" font-size="11.00" fill="#000000">...</text>
<polygon fill="#ffffff" stroke="transparent" points="31.5,-98.7 31.5,-117.7 69.5,-117.7 69.5,-98.7 31.5,-98.7"/>
<polygon fill="none" stroke="#000000" points="31.5,-98.7 31.5,-117.7 69.5,-117.7 69.5,-98.7 31.5,-98.7"/>
<text text-anchor="start" x="34.5" y="-104.8" font-family="Helvetica,sans-Serif" font-size="11.00" fill="#000000"> &#160;</text>
<polygon fill="#ffffff" stroke="transparent" points="69.5,-98.7 69.5,-117.7 94.5,-117.7 94.5,-98.7 69.5,-98.7"/>
<polygon fill="none" stroke="#000000" points="69.5,-98.7 69.5,-117.7 94.5,-117.7 94.5,-98.7 69.5,-98.7"/>
<text text-anchor="start" x="85.3862" y="-104.8" font-family="Helvetica,sans-Serif" font-size="11.00" fill="#000000"> &#160;</text>
<polygon fill="#ffffff" stroke="transparent" points="94.5,-98.7 94.5,-117.7 128.5,-117.7 128.5,-98.7 94.5,-98.7"/>
<polygon fill="none" stroke="#000000" points="94.5,-98.7 94.5,-117.7 128.5,-117.7 128.5,-98.7 94.5,-98.7"/>
<text text-anchor="start" x="109.9053" y="-104.8" font-family="Helvetica,sans-Serif" font-size="11.00" fill="#000000">3 &gt;</text>
</a>
</g>
</g>
<!-- allocation&#45;&gt;policy -->
<g id="edge3" class="edge">
<title>allocation:w&#45;&gt;policy:e</title>
<path fill="none" stroke="#000000" d="M187.6046,-253.7845C151.0685,-236.4504 181.2233,-147.7 128.5,-147.7"/>
<polygon fill="#000000" stroke="#000000" points="194.1592,-255.112 201.2854,-260.2284 198.0796,-255.906 202,-256.7 202,-256.7 202,-256.7 198.0796,-255.906 202.7146,-253.1716 194.1592,-255.112 194.1592,-255.112"/>
<ellipse fill="none" stroke="#000000" cx="191.0229" cy="-254.4767" rx="3.2" ry="3.2"/>
</g>
<!-- offender_key_worker -->
<g id="node4" class="node">
<title>offender_key_worker</title>
<g id="a_node4"><a xlink:href="../../tables/offender_key_worker.html" xlink:title="offender_key_worker" target="_top">
<polygon fill="#ffffff" stroke="transparent" points="246,-578.2 246,-639.2 426,-639.2 426,-578.2 246,-578.2"/>
<polygon fill="#f5f5f5" stroke="transparent" points="246,-615.7 246,-638.7 426,-638.7 426,-615.7 246,-615.7"/>
<polygon fill="none" stroke="#000000" points="246,-615.7 246,-638.7 426,-638.7 426,-615.7 246,-615.7"/>
<text text-anchor="start" x="251" y="-624.3" font-family="Helvetica,sans-Serif" font-weight="bold" font-size="11.00" fill="#000000">offender_key_worker</text>
<text text-anchor="start" x="391.5219" y="-623.8" font-family="Helvetica,sans-Serif" font-size="11.00" fill="#000000">[table]</text>
<polygon fill="none" stroke="#000000" points="246,-596.7 246,-615.7 426,-615.7 426,-596.7 246,-596.7"/>
<text text-anchor="start" x="249" y="-602.8" font-family="Helvetica,sans-Serif" font-size="11.00" fill="#000000">...</text>
<polygon fill="#ffffff" stroke="transparent" points="246,-577.7 246,-596.7 334,-596.7 334,-577.7 246,-577.7"/>
<polygon fill="none" stroke="#000000" points="246,-577.7 246,-596.7 334,-596.7 334,-577.7 246,-577.7"/>
<text text-anchor="start" x="249" y="-583.8" font-family="Helvetica,sans-Serif" font-size="11.00" fill="#000000">&lt; 2</text>
<polygon fill="#ffffff" stroke="transparent" points="334,-577.7 334,-596.7 380,-596.7 380,-577.7 334,-577.7"/>
<polygon fill="none" stroke="#000000" points="334,-577.7 334,-596.7 380,-596.7 380,-577.7 334,-577.7"/>
<text text-anchor="start" x="370.8862" y="-583.8" font-family="Helvetica,sans-Serif" font-size="11.00" fill="#000000"> &#160;</text>
<polygon fill="#ffffff" stroke="transparent" points="380,-577.7 380,-596.7 426,-596.7 426,-577.7 380,-577.7"/>
<polygon fill="none" stroke="#000000" points="380,-577.7 380,-596.7 426,-596.7 426,-577.7 380,-577.7"/>
<text text-anchor="start" x="416.8862" y="-583.8" font-family="Helvetica,sans-Serif" font-size="11.00" fill="#000000"> &#160;</text>
</a>
</g>
</g>
<!-- offender_key_worker&#45;&gt;reference_data -->
<g id="edge4" class="edge">
<title>offender_key_worker:w&#45;&gt;reference_data:e</title>
<path fill="none" stroke="#000000" d="M232.0251,-601.7249C213.3177,-594.5158 205.1568,-581.8602 192,-561.7 142.1958,-485.3849 242.6287,-360.7 151.5,-366.7"/>
<polygon fill="#000000" stroke="#000000" points="238.3052,-603.5112 245.0151,-609.1626 242.1526,-604.6056 246,-605.7 246,-605.7 246,-605.7 242.1526,-604.6056 246.9849,-602.2374 238.3052,-603.5112 238.3052,-603.5112"/>
<ellipse fill="none" stroke="#000000" cx="235.2273" cy="-602.6357" rx="3.2" ry="3.2"/>
</g>
<!-- offender_key_worker&#45;&gt;reference_data -->
<g id="edge5" class="edge">
<title>offender_key_worker:w&#45;&gt;reference_data:e</title>
<path fill="none" stroke="#000000" d="M231.4934,-607.5445C213.1618,-607.274 205.0315,-594.6682 192,-574.7 142.1958,-498.3849 242.6287,-373.7 151.5,-366.7"/>
<polygon fill="#000000" stroke="#000000" points="238.0639,-606.7091 246.4541,-609.2712 242.0319,-606.2046 246,-605.7 246,-605.7 246,-605.7 242.0319,-606.2046 245.5459,-602.1288 238.0639,-606.7091 238.0639,-606.7091"/>
<ellipse fill="none" stroke="#000000" cx="234.8895" cy="-607.1128" rx="3.2" ry="3.2"/>
</g>
<!-- prison_configuration -->
<g id="node5" class="node">
<title>prison_configuration</title>
<g id="a_node5"><a xlink:href="../../tables/prison_configuration.html" xlink:title="prison_configuration" target="_top">
<polygon fill="#ffffff" stroke="transparent" points="247,-38.2 247,-99.2 425,-99.2 425,-38.2 247,-38.2"/>
<polygon fill="#f5f5f5" stroke="transparent" points="247,-75.7 247,-98.7 425,-98.7 425,-75.7 247,-75.7"/>
<polygon fill="none" stroke="#000000" points="247,-75.7 247,-98.7 425,-98.7 425,-75.7 247,-75.7"/>
<text text-anchor="start" x="252" y="-84.3" font-family="Helvetica,sans-Serif" font-weight="bold" font-size="11.00" fill="#000000">prison_configuration</text>
<text text-anchor="start" x="390.5219" y="-83.8" font-family="Helvetica,sans-Serif" font-size="11.00" fill="#000000">[table]</text>
<polygon fill="none" stroke="#000000" points="247,-56.7 247,-75.7 425,-75.7 425,-56.7 247,-56.7"/>
<text text-anchor="start" x="250" y="-62.8" font-family="Helvetica,sans-Serif" font-size="11.00" fill="#000000">...</text>
<polygon fill="#ffffff" stroke="transparent" points="247,-37.7 247,-56.7 318,-56.7 318,-37.7 247,-37.7"/>
<polygon fill="none" stroke="#000000" points="247,-37.7 247,-56.7 318,-56.7 318,-37.7 247,-37.7"/>
<text text-anchor="start" x="250" y="-43.8" font-family="Helvetica,sans-Serif" font-size="11.00" fill="#000000">&lt; 1</text>
<polygon fill="#ffffff" stroke="transparent" points="318,-37.7 318,-56.7 387,-56.7 387,-37.7 318,-37.7"/>
<polygon fill="none" stroke="#000000" points="318,-37.7 318,-56.7 387,-56.7 387,-37.7 318,-37.7"/>
<text text-anchor="start" x="345.4956" y="-43.8" font-family="Helvetica,sans-Serif" font-size="11.00" fill="#000000">12 rows</text>
<polygon fill="#ffffff" stroke="transparent" points="387,-37.7 387,-56.7 425,-56.7 425,-37.7 387,-37.7"/>
<polygon fill="none" stroke="#000000" points="387,-37.7 387,-56.7 425,-56.7 425,-37.7 387,-37.7"/>
<text text-anchor="start" x="415.8862" y="-43.8" font-family="Helvetica,sans-Serif" font-size="11.00" fill="#000000"> &#160;</text>
</a>
</g>
</g>
<!-- prison_configuration&#45;&gt;policy -->
<g id="edge6" class="edge">
<title>prison_configuration:w&#45;&gt;policy:e</title>
<path fill="none" stroke="#000000" d="M232.6438,-67.2648C184.0317,-78.6013 187.2928,-147.7 128.5,-147.7"/>
<polygon fill="#000000" stroke="#000000" points="239.0471,-66.5669 247.3901,-69.2788 243.0236,-66.1335 247,-65.7 247,-65.7 247,-65.7 243.0236,-66.1335 246.6099,-62.1212 239.0471,-66.5669 239.0471,-66.5669"/>
<ellipse fill="none" stroke="#000000" cx="235.8659" cy="-66.9137" rx="3.2" ry="3.2"/>
</g>
<!-- staff_configuration -->
<g id="node6" class="node">
<title>staff_configuration</title>
<g id="a_node6"><a xlink:href="../../tables/staff_configuration.html" xlink:title="staff_configuration" target="_top">
<polygon fill="#ffffff" stroke="transparent" points="252.5,-120.2 252.5,-181.2 419.5,-181.2 419.5,-120.2 252.5,-120.2"/>
<polygon fill="#f5f5f5" stroke="transparent" points="253,-157.7 253,-180.7 420,-180.7 420,-157.7 253,-157.7"/>
<polygon fill="none" stroke="#000000" points="253,-157.7 253,-180.7 420,-180.7 420,-157.7 253,-157.7"/>
<text text-anchor="start" x="258" y="-166.3" font-family="Helvetica,sans-Serif" font-weight="bold" font-size="11.00" fill="#000000">staff_configuration</text>
<text text-anchor="start" x="385.5219" y="-165.8" font-family="Helvetica,sans-Serif" font-size="11.00" fill="#000000">[table]</text>
<polygon fill="none" stroke="#000000" points="253,-138.7 253,-157.7 420,-157.7 420,-138.7 253,-138.7"/>
<text text-anchor="start" x="256" y="-144.8" font-family="Helvetica,sans-Serif" font-size="11.00" fill="#000000">...</text>
<polygon fill="#ffffff" stroke="transparent" points="253,-119.7 253,-138.7 335,-138.7 335,-119.7 253,-119.7"/>
<polygon fill="none" stroke="#000000" points="253,-119.7 253,-138.7 335,-138.7 335,-119.7 253,-119.7"/>
<text text-anchor="start" x="256" y="-125.8" font-family="Helvetica,sans-Serif" font-size="11.00" fill="#000000">&lt; 2</text>
<polygon fill="#ffffff" stroke="transparent" points="335,-119.7 335,-138.7 377,-138.7 377,-119.7 335,-119.7"/>
<polygon fill="none" stroke="#000000" points="335,-119.7 335,-138.7 377,-138.7 377,-119.7 335,-119.7"/>
<text text-anchor="start" x="367.8862" y="-125.8" font-family="Helvetica,sans-Serif" font-size="11.00" fill="#000000"> &#160;</text>
<polygon fill="#ffffff" stroke="transparent" points="377,-119.7 377,-138.7 420,-138.7 420,-119.7 377,-119.7"/>
<polygon fill="none" stroke="#000000" points="377,-119.7 377,-138.7 420,-138.7 420,-119.7 377,-119.7"/>
<text text-anchor="start" x="410.8862" y="-125.8" font-family="Helvetica,sans-Serif" font-size="11.00" fill="#000000"> &#160;</text>
</a>
</g>
</g>
<!-- staff_configuration&#45;&gt;reference_data -->
<g id="edge8" class="edge">
<title>staff_configuration:w&#45;&gt;reference_data:e</title>
<path fill="none" stroke="#000000" d="M238.5867,-148.9742C216.2443,-153.3886 207.552,-169.0631 192,-192.7 148.3573,-259.0307 230.9005,-366.7 151.5,-366.7"/>
<polygon fill="#000000" stroke="#000000" points="245.0311,-148.4045 253.317,-151.286 249.0155,-148.0523 253,-147.7 253,-147.7 253,-147.7 249.0155,-148.0523 252.683,-144.114 245.0311,-148.4045 245.0311,-148.4045"/>
<ellipse fill="none" stroke="#000000" cx="241.8435" cy="-148.6863" rx="3.2" ry="3.2"/>
</g>
<!-- staff_configuration&#45;&gt;policy -->
<g id="edge7" class="edge">
<title>staff_configuration:w&#45;&gt;policy:e</title>
<path fill="none" stroke="#000000" d="M238.4633,-147.7C194.7082,-147.7 178.6458,-147.7 128.5,-147.7"/>
<polygon fill="#000000" stroke="#000000" points="245,-147.7001 253,-151.3 249,-147.7 253,-147.7 253,-147.7 253,-147.7 249,-147.7 253,-144.1 245,-147.7001 245,-147.7001"/>
<ellipse fill="none" stroke="#000000" cx="241.8" cy="-147.7001" rx="3.2" ry="3.2"/>
</g>
</g>
</svg>
