<?xml version="1.0" encoding="UTF-8" standalone="no"?>
<!DOCTYPE svg PUBLIC "-//W3C//DTD SVG 1.1//EN"
 "http://www.w3.org/Graphics/SVG/1.1/DTD/svg11.dtd">
<!-- Generated by graphviz version 2.40.1 (20161225.0304)
 -->
<!-- Title: twoDegreesRelationshipsDiagram Pages: 1 -->
<svg width="532pt" height="793pt"
 viewBox="0.00 0.00 532.00 793.20" xmlns="http://www.w3.org/2000/svg" xmlns:xlink="http://www.w3.org/1999/xlink">
<g id="graph0" class="graph" transform="scale(1 1) rotate(0) translate(4 789.2)">
<title>twoDegreesRelationshipsDiagram</title>
<polygon fill="#ffffff" stroke="transparent" points="-4,4 -4,-789.2 528,-789.2 528,4 -4,4"/>
<text text-anchor="middle" x="72.4936" y="-7.3" font-family="Helvetica,sans-Serif" font-size="11.00" fill="#000000">Generated by SchemaSpy</text>
<!-- allocation -->
<g id="node1" class="node">
<title>allocation</title>
<g id="a_node1"><a xlink:href="../../tables/allocation.html" xlink:title="allocation" target="_top">
<polygon fill="#ffffff" stroke="transparent" points="222,-366.7 222,-698.7 494,-698.7 494,-366.7 222,-366.7"/>
<polygon fill="#f5f5f5" stroke="transparent" points="224,-673.7 224,-696.7 492,-696.7 492,-673.7 224,-673.7"/>
<polygon fill="none" stroke="#000000" points="224,-673.7 224,-696.7 492,-696.7 492,-673.7 224,-673.7"/>
<text text-anchor="start" x="229" y="-682.3" font-family="Helvetica,sans-Serif" font-weight="bold" font-size="11.00" fill="#000000">allocation</text>
<text text-anchor="start" x="457.0437" y="-681.8" font-family="Helvetica,sans-Serif" font-size="11.00" fill="#000000">[table]</text>
<polygon fill="none" stroke="#000000" points="224,-651.7 224,-673.7 398,-673.7 398,-651.7 224,-651.7"/>
<image xlink:href="../../images/primaryKeys.png" width="11px" height="12px" preserveAspectRatio="xMinYMin meet" x="229" y="-668.7"/>
<text text-anchor="start" x="244" y="-658.8" font-family="Helvetica,sans-Serif" font-size="11.00" fill="#000000">id</text>
<polygon fill="none" stroke="#000000" points="398,-651.7 398,-673.7 492,-673.7 492,-651.7 398,-651.7"/>
<text text-anchor="start" x="400.9758" y="-659.4" font-family="Helvetica,sans-Serif" font-size="11.00" fill="#000000">uuid[2147483647]</text>
<polygon fill="#ffffff" stroke="transparent" points="224,-629.7 224,-651.7 398,-651.7 398,-629.7 224,-629.7"/>
<polygon fill="none" stroke="#000000" points="224,-629.7 224,-651.7 398,-651.7 398,-629.7 224,-629.7"/>
<image xlink:href="../../images/foreignKeys.png" width="11px" height="12px" preserveAspectRatio="xMinYMin meet" x="229" y="-646.7"/>
<text text-anchor="start" x="244" y="-636.8" font-family="Helvetica,sans-Serif" font-size="11.00" fill="#000000">prison_code</text>
<polygon fill="none" stroke="#000000" points="398,-629.7 398,-651.7 492,-651.7 492,-629.7 398,-629.7"/>
<text text-anchor="start" x="401" y="-637.4" font-family="Helvetica,sans-Serif" font-size="11.00" fill="#000000">varchar[6]</text>
<polygon fill="#ffffff" stroke="transparent" points="224,-607.7 224,-629.7 398,-629.7 398,-607.7 224,-607.7"/>
<polygon fill="none" stroke="#000000" points="224,-607.7 224,-629.7 398,-629.7 398,-607.7 224,-607.7"/>
<text text-anchor="start" x="244" y="-614.8" font-family="Helvetica,sans-Serif" font-size="11.00" fill="#000000">staff_id</text>
<polygon fill="none" stroke="#000000" points="398,-607.7 398,-629.7 492,-629.7 492,-607.7 398,-607.7"/>
<text text-anchor="start" x="401" y="-615.4" font-family="Helvetica,sans-Serif" font-size="11.00" fill="#000000">int8[19]</text>
<polygon fill="#ffffff" stroke="transparent" points="224,-585.7 224,-607.7 398,-607.7 398,-585.7 224,-585.7"/>
<polygon fill="none" stroke="#000000" points="224,-585.7 224,-607.7 398,-607.7 398,-585.7 224,-585.7"/>
<text text-anchor="start" x="244" y="-592.8" font-family="Helvetica,sans-Serif" font-size="11.00" fill="#000000">person_identifier</text>
<polygon fill="none" stroke="#000000" points="398,-585.7 398,-607.7 492,-607.7 492,-585.7 398,-585.7"/>
<text text-anchor="start" x="401" y="-593.4" font-family="Helvetica,sans-Serif" font-size="11.00" fill="#000000">varchar[10]</text>
<polygon fill="#ffffff" stroke="transparent" points="224,-563.7 224,-585.7 398,-585.7 398,-563.7 224,-563.7"/>
<polygon fill="none" stroke="#000000" points="224,-563.7 224,-585.7 398,-585.7 398,-563.7 224,-563.7"/>
<text text-anchor="start" x="244" y="-570.8" font-family="Helvetica,sans-Serif" font-size="11.00" fill="#000000">allocated_at</text>
<polygon fill="none" stroke="#000000" points="398,-563.7 398,-585.7 492,-585.7 492,-563.7 398,-563.7"/>
<text text-anchor="start" x="401" y="-571.4" font-family="Helvetica,sans-Serif" font-size="11.00" fill="#000000">timestamp[29,6]</text>
<polygon fill="none" stroke="#000000" points="224,-541.7 224,-563.7 398,-563.7 398,-541.7 224,-541.7"/>
<text text-anchor="start" x="244" y="-548.8" font-family="Helvetica,sans-Serif" font-size="11.00" fill="#000000">allocation_type</text>
<polygon fill="none" stroke="#000000" points="398,-541.7 398,-563.7 492,-563.7 492,-541.7 398,-541.7"/>
<text text-anchor="start" x="401" y="-549.4" font-family="Helvetica,sans-Serif" font-size="11.00" fill="#000000">bpchar[1]</text>
<polygon fill="none" stroke="#000000" points="224,-519.7 224,-541.7 398,-541.7 398,-519.7 224,-519.7"/>
<text text-anchor="start" x="244" y="-526.8" font-family="Helvetica,sans-Serif" font-size="11.00" fill="#000000">allocated_by</text>
<polygon fill="none" stroke="#000000" points="398,-519.7 398,-541.7 492,-541.7 492,-519.7 398,-519.7"/>
<text text-anchor="start" x="401" y="-527.4" font-family="Helvetica,sans-Serif" font-size="11.00" fill="#000000">varchar[64]</text>
<polygon fill="none" stroke="#000000" points="224,-497.7 224,-519.7 398,-519.7 398,-497.7 224,-497.7"/>
<image xlink:href="../../images/foreignKeys.png" width="11px" height="12px" preserveAspectRatio="xMinYMin meet" x="229" y="-514.7"/>
<text text-anchor="start" x="244" y="-504.8" font-family="Helvetica,sans-Serif" font-size="11.00" fill="#000000">allocation_reason_id</text>
<polygon fill="none" stroke="#000000" points="398,-497.7 398,-519.7 492,-519.7 492,-497.7 398,-497.7"/>
<text text-anchor="start" x="401" y="-505.4" font-family="Helvetica,sans-Serif" font-size="11.00" fill="#000000">int8[19]</text>
<polygon fill="none" stroke="#000000" points="224,-475.7 224,-497.7 398,-497.7 398,-475.7 224,-475.7"/>
<text text-anchor="start" x="244" y="-482.8" font-family="Helvetica,sans-Serif" font-size="11.00" fill="#000000">deallocated_at</text>
<polygon fill="none" stroke="#000000" points="398,-475.7 398,-497.7 492,-497.7 492,-475.7 398,-475.7"/>
<text text-anchor="start" x="401" y="-483.4" font-family="Helvetica,sans-Serif" font-size="11.00" fill="#000000">timestamp[29,6]</text>
<polygon fill="none" stroke="#000000" points="224,-453.7 224,-475.7 398,-475.7 398,-453.7 224,-453.7"/>
<image xlink:href="../../images/foreignKeys.png" width="11px" height="12px" preserveAspectRatio="xMinYMin meet" x="229" y="-470.7"/>
<text text-anchor="start" x="244" y="-460.8" font-family="Helvetica,sans-Serif" font-size="11.00" fill="#000000">deallocation_reason_id</text>
<polygon fill="none" stroke="#000000" points="398,-453.7 398,-475.7 492,-475.7 492,-453.7 398,-453.7"/>
<text text-anchor="start" x="401" y="-461.4" font-family="Helvetica,sans-Serif" font-size="11.00" fill="#000000">int8[19]</text>
<polygon fill="none" stroke="#000000" points="224,-431.7 224,-453.7 398,-453.7 398,-431.7 224,-431.7"/>
<text text-anchor="start" x="244" y="-438.8" font-family="Helvetica,sans-Serif" font-size="11.00" fill="#000000">deallocated_by</text>
<polygon fill="none" stroke="#000000" points="398,-431.7 398,-453.7 492,-453.7 492,-431.7 398,-431.7"/>
<text text-anchor="start" x="401" y="-439.4" font-family="Helvetica,sans-Serif" font-size="11.00" fill="#000000">varchar[64]</text>
<polygon fill="none" stroke="#000000" points="224,-409.7 224,-431.7 398,-431.7 398,-409.7 224,-409.7"/>
<text text-anchor="start" x="244" y="-416.8" font-family="Helvetica,sans-Serif" font-size="11.00" fill="#000000">is_active</text>
<polygon fill="none" stroke="#000000" points="398,-409.7 398,-431.7 492,-431.7 492,-409.7 398,-409.7"/>
<text text-anchor="start" x="401" y="-417.4" font-family="Helvetica,sans-Serif" font-size="11.00" fill="#000000">bool[1]</text>
<polygon fill="#ffffff" stroke="transparent" points="224,-387.7 224,-409.7 398,-409.7 398,-387.7 224,-387.7"/>
<polygon fill="none" stroke="#000000" points="224,-387.7 224,-409.7 398,-409.7 398,-387.7 224,-387.7"/>
<image xlink:href="../../images/foreignKeys.png" width="11px" height="12px" preserveAspectRatio="xMinYMin meet" x="229" y="-404.7"/>
<text text-anchor="start" x="244" y="-394.8" font-family="Helvetica,sans-Serif" font-size="11.00" fill="#000000">policy_code</text>
<polygon fill="none" stroke="#000000" points="398,-387.7 398,-409.7 492,-409.7 492,-387.7 398,-387.7"/>
<text text-anchor="start" x="401" y="-395.4" font-family="Helvetica,sans-Serif" font-size="11.00" fill="#000000">varchar[16]</text>
<polygon fill="#ffffff" stroke="transparent" points="224,-368.7 224,-387.7 315,-387.7 315,-368.7 224,-368.7"/>
<polygon fill="none" stroke="#000000" points="224,-368.7 224,-387.7 315,-387.7 315,-368.7 224,-368.7"/>
<text text-anchor="start" x="227" y="-374.8" font-family="Helvetica,sans-Serif" font-size="11.00" fill="#000000">&lt; 3</text>
<polygon fill="#ffffff" stroke="transparent" points="315,-368.7 315,-387.7 398,-387.7 398,-368.7 315,-368.7"/>
<polygon fill="none" stroke="#000000" points="315,-368.7 315,-387.7 398,-387.7 398,-368.7 315,-368.7"/>
<text text-anchor="start" x="388.8862" y="-374.8" font-family="Helvetica,sans-Serif" font-size="11.00" fill="#000000"> &#160;</text>
<polygon fill="#ffffff" stroke="transparent" points="398,-368.7 398,-387.7 492,-387.7 492,-368.7 398,-368.7"/>
<polygon fill="none" stroke="#000000" points="398,-368.7 398,-387.7 492,-387.7 492,-368.7 398,-368.7"/>
<text text-anchor="start" x="473.4053" y="-374.8" font-family="Helvetica,sans-Serif" font-size="11.00" fill="#000000">0 &gt;</text>
<polygon fill="none" stroke="#000000" stroke-width="2" points="223,-367.7 223,-697.7 493,-697.7 493,-367.7 223,-367.7"/>
</a>
</g>
</g>
<!-- reference_data -->
<g id="node2" class="node">
<title>reference_data</title>
<g id="a_node2"><a xlink:href="../../tables/reference_data.html" xlink:title="reference_data" target="_top">
<polygon fill="#ffffff" stroke="transparent" points="8,-372.2 8,-521.2 151,-521.2 151,-372.2 8,-372.2"/>
<polygon fill="#f5f5f5" stroke="transparent" points="8.5,-497.7 8.5,-520.7 151.5,-520.7 151.5,-497.7 8.5,-497.7"/>
<polygon fill="none" stroke="#000000" points="8.5,-497.7 8.5,-520.7 151.5,-520.7 151.5,-497.7 8.5,-497.7"/>
<text text-anchor="start" x="13.5" y="-506.3" font-family="Helvetica,sans-Serif" font-weight="bold" font-size="11.00" fill="#000000">reference_data</text>
<text text-anchor="start" x="116.5437" y="-505.8" font-family="Helvetica,sans-Serif" font-size="11.00" fill="#000000">[table]</text>
<polygon fill="none" stroke="#000000" points="8.5,-475.7 8.5,-497.7 151.5,-497.7 151.5,-475.7 8.5,-475.7"/>
<image xlink:href="../../images/primaryKeys.png" width="11px" height="12px" preserveAspectRatio="xMinYMin meet" x="13.5" y="-492.7"/>
<text text-anchor="start" x="28.5" y="-482.8" font-family="Helvetica,sans-Serif" font-size="11.00" fill="#000000">id</text>
<polygon fill="#ffffff" stroke="transparent" points="8.5,-453.7 8.5,-475.7 151.5,-475.7 151.5,-453.7 8.5,-453.7"/>
<polygon fill="none" stroke="#000000" points="8.5,-453.7 8.5,-475.7 151.5,-475.7 151.5,-453.7 8.5,-453.7"/>
<text text-anchor="start" x="28.5" y="-460.8" font-family="Helvetica,sans-Serif" font-size="11.00" fill="#000000">domain</text>
<polygon fill="#ffffff" stroke="transparent" points="8.5,-431.7 8.5,-453.7 151.5,-453.7 151.5,-431.7 8.5,-431.7"/>
<polygon fill="none" stroke="#000000" points="8.5,-431.7 8.5,-453.7 151.5,-453.7 151.5,-431.7 8.5,-431.7"/>
<text text-anchor="start" x="28.5" y="-438.8" font-family="Helvetica,sans-Serif" font-size="11.00" fill="#000000">code</text>
<polygon fill="#ffffff" stroke="transparent" points="8.5,-409.7 8.5,-431.7 151.5,-431.7 151.5,-409.7 8.5,-409.7"/>
<polygon fill="none" stroke="#000000" points="8.5,-409.7 8.5,-431.7 151.5,-431.7 151.5,-409.7 8.5,-409.7"/>
<text text-anchor="start" x="28.5" y="-416.8" font-family="Helvetica,sans-Serif" font-size="11.00" fill="#000000">sequence_number</text>
<polygon fill="none" stroke="#000000" points="8.5,-390.7 8.5,-409.7 151.5,-409.7 151.5,-390.7 8.5,-390.7"/>
<text text-anchor="start" x="11.5" y="-396.8" font-family="Helvetica,sans-Serif" font-size="11.00" fill="#000000">...</text>
<polygon fill="#ffffff" stroke="transparent" points="8.5,-371.7 8.5,-390.7 69.5,-390.7 69.5,-371.7 8.5,-371.7"/>
<polygon fill="none" stroke="#000000" points="8.5,-371.7 8.5,-390.7 69.5,-390.7 69.5,-371.7 8.5,-371.7"/>
<text text-anchor="start" x="11.5" y="-377.8" font-family="Helvetica,sans-Serif" font-size="11.00" fill="#000000"> &#160;</text>
<polygon fill="#ffffff" stroke="transparent" points="69.5,-371.7 69.5,-390.7 105.5,-390.7 105.5,-371.7 69.5,-371.7"/>
<polygon fill="none" stroke="#000000" points="69.5,-371.7 69.5,-390.7 105.5,-390.7 105.5,-371.7 69.5,-371.7"/>
<text text-anchor="start" x="96.3862" y="-377.8" font-family="Helvetica,sans-Serif" font-size="11.00" fill="#000000"> &#160;</text>
<polygon fill="#ffffff" stroke="transparent" points="105.5,-371.7 105.5,-390.7 151.5,-390.7 151.5,-371.7 105.5,-371.7"/>
<polygon fill="none" stroke="#000000" points="105.5,-371.7 105.5,-390.7 151.5,-390.7 151.5,-371.7 105.5,-371.7"/>
<text text-anchor="start" x="132.9053" y="-377.8" font-family="Helvetica,sans-Serif" font-size="11.00" fill="#000000">6 &gt;</text>
</a>
</g>
</g>
<!-- allocation&#45;&gt;reference_data -->
<g id="edge1" class="edge">
<title>allocation:w&#45;&gt;reference_data:e</title>
<path fill="none" stroke="#000000" d="M209.4776,-507.1178C187.8682,-502.0734 179.6486,-486.7 151.5,-486.7"/>
<polygon fill="#000000" stroke="#000000" points="216.0471,-507.8335 223.6101,-512.2788 220.0235,-508.2667 224,-508.7 224,-508.7 224,-508.7 220.0235,-508.2667 224.3899,-505.1212 216.0471,-507.8335 216.0471,-507.8335"/>
<ellipse fill="none" stroke="#000000" cx="212.8659" cy="-507.4869" rx="3.2" ry="3.2"/>
</g>
<!-- allocation&#45;&gt;reference_data -->
<g id="edge2" class="edge">
<title>allocation:w&#45;&gt;reference_data:e</title>
<path fill="none" stroke="#000000" d="M209.4776,-466.2822C187.8682,-471.3266 179.6486,-486.7 151.5,-486.7"/>
<polygon fill="#000000" stroke="#000000" points="216.0471,-465.5665 224.3899,-468.2788 220.0235,-465.1333 224,-464.7 224,-464.7 224,-464.7 220.0235,-465.1333 223.6101,-461.1212 216.0471,-465.5665 216.0471,-465.5665"/>
<ellipse fill="none" stroke="#000000" cx="212.8659" cy="-465.9131" rx="3.2" ry="3.2"/>
</g>
<!-- policy -->
<g id="node3" class="node">
<title>policy</title>
<g id="a_node3"><a xlink:href="../../tables/policy.html" xlink:title="policy" target="_top">
<polygon fill="#ffffff" stroke="transparent" points="31,-181.2 31,-264.2 128,-264.2 128,-181.2 31,-181.2"/>
<polygon fill="#f5f5f5" stroke="transparent" points="31.5,-240.7 31.5,-263.7 128.5,-263.7 128.5,-240.7 31.5,-240.7"/>
<polygon fill="none" stroke="#000000" points="31.5,-240.7 31.5,-263.7 128.5,-263.7 128.5,-240.7 31.5,-240.7"/>
<text text-anchor="start" x="36.5" y="-249.3" font-family="Helvetica,sans-Serif" font-weight="bold" font-size="11.00" fill="#000000">policy</text>
<text text-anchor="start" x="93.5437" y="-248.8" font-family="Helvetica,sans-Serif" font-size="11.00" fill="#000000">[table]</text>
<polygon fill="none" stroke="#000000" points="31.5,-218.7 31.5,-240.7 128.5,-240.7 128.5,-218.7 31.5,-218.7"/>
<image xlink:href="../../images/primaryKeys.png" width="11px" height="12px" preserveAspectRatio="xMinYMin meet" x="36.5" y="-235.7"/>
<text text-anchor="start" x="51.5" y="-225.8" font-family="Helvetica,sans-Serif" font-size="11.00" fill="#000000">code</text>
<polygon fill="none" stroke="#000000" points="31.5,-199.7 31.5,-218.7 128.5,-218.7 128.5,-199.7 31.5,-199.7"/>
<text text-anchor="start" x="34.5" y="-205.8" font-family="Helvetica,sans-Serif" font-size="11.00" fill="#000000">...</text>
<polygon fill="#ffffff" stroke="transparent" points="31.5,-180.7 31.5,-199.7 69.5,-199.7 69.5,-180.7 31.5,-180.7"/>
<polygon fill="none" stroke="#000000" points="31.5,-180.7 31.5,-199.7 69.5,-199.7 69.5,-180.7 31.5,-180.7"/>
<text text-anchor="start" x="34.5" y="-186.8" font-family="Helvetica,sans-Serif" font-size="11.00" fill="#000000"> &#160;</text>
<polygon fill="#ffffff" stroke="transparent" points="69.5,-180.7 69.5,-199.7 94.5,-199.7 94.5,-180.7 69.5,-180.7"/>
<polygon fill="none" stroke="#000000" points="69.5,-180.7 69.5,-199.7 94.5,-199.7 94.5,-180.7 69.5,-180.7"/>
<text text-anchor="start" x="85.3862" y="-186.8" font-family="Helvetica,sans-Serif" font-size="11.00" fill="#000000"> &#160;</text>
<polygon fill="#ffffff" stroke="transparent" points="94.5,-180.7 94.5,-199.7 128.5,-199.7 128.5,-180.7 94.5,-180.7"/>
<polygon fill="none" stroke="#000000" points="94.5,-180.7 94.5,-199.7 128.5,-199.7 128.5,-180.7 94.5,-180.7"/>
<text text-anchor="start" x="109.9053" y="-186.8" font-family="Helvetica,sans-Serif" font-size="11.00" fill="#000000">5 &gt;</text>
</a>
</g>
</g>
<!-- allocation&#45;&gt;policy -->
<g id="edge3" class="edge">
<title>allocation:w&#45;&gt;policy:e</title>
<path fill="none" stroke="#000000" d="M209.6578,-396.8021C146.719,-378.2352 209.3819,-229.7 128.5,-229.7"/>
<polygon fill="#000000" stroke="#000000" points="216.0691,-397.6504 223.5277,-402.2689 220.0346,-398.1752 224,-398.7 224,-398.7 224,-398.7 220.0346,-398.1752 224.4723,-395.1311 216.0691,-397.6504 216.0691,-397.6504"/>
<ellipse fill="none" stroke="#000000" cx="212.8968" cy="-397.2306" rx="3.2" ry="3.2"/>
</g>
<!-- prison_configuration -->
<g id="node4" class="node">
<title>prison_configuration</title>
<g id="a_node4"><a xlink:href="../../tables/prison_configuration.html" xlink:title="prison_configuration" target="_top">
<polygon fill="#ffffff" stroke="transparent" points="269,-120.2 269,-181.2 447,-181.2 447,-120.2 269,-120.2"/>
<polygon fill="#f5f5f5" stroke="transparent" points="269,-157.7 269,-180.7 447,-180.7 447,-157.7 269,-157.7"/>
<polygon fill="none" stroke="#000000" points="269,-157.7 269,-180.7 447,-180.7 447,-157.7 269,-157.7"/>
<text text-anchor="start" x="274" y="-166.3" font-family="Helvetica,sans-Serif" font-weight="bold" font-size="11.00" fill="#000000">prison_configuration</text>
<text text-anchor="start" x="412.5219" y="-165.8" font-family="Helvetica,sans-Serif" font-size="11.00" fill="#000000">[table]</text>
<polygon fill="none" stroke="#000000" points="269,-138.7 269,-157.7 447,-157.7 447,-138.7 269,-138.7"/>
<text text-anchor="start" x="272" y="-144.8" font-family="Helvetica,sans-Serif" font-size="11.00" fill="#000000">...</text>
<polygon fill="#ffffff" stroke="transparent" points="269,-119.7 269,-138.7 340,-138.7 340,-119.7 269,-119.7"/>
<polygon fill="none" stroke="#000000" points="269,-119.7 269,-138.7 340,-138.7 340,-119.7 269,-119.7"/>
<text text-anchor="start" x="272" y="-125.8" font-family="Helvetica,sans-Serif" font-size="11.00" fill="#000000">&lt; 1</text>
<polygon fill="#ffffff" stroke="transparent" points="340,-119.7 340,-138.7 409,-138.7 409,-119.7 340,-119.7"/>
<polygon fill="none" stroke="#000000" points="340,-119.7 340,-138.7 409,-138.7 409,-119.7 340,-119.7"/>
<text text-anchor="start" x="367.4956" y="-125.8" font-family="Helvetica,sans-Serif" font-size="11.00" fill="#000000">12 rows</text>
<polygon fill="#ffffff" stroke="transparent" points="409,-119.7 409,-138.7 447,-138.7 447,-119.7 409,-119.7"/>
<polygon fill="none" stroke="#000000" points="409,-119.7 409,-138.7 447,-138.7 447,-119.7 409,-119.7"/>
<text text-anchor="start" x="437.8862" y="-125.8" font-family="Helvetica,sans-Serif" font-size="11.00" fill="#000000"> &#160;</text>
</a>
</g>
</g>
<!-- prison_configuration&#45;&gt;policy -->
<g id="edge4" class="edge">
<title>prison_configuration:w&#45;&gt;policy:e</title>
<path fill="none" stroke="#000000" d="M254.3143,-149.0511C227.9807,-154.3954 221.2392,-174.5995 192,-191.7 163.6094,-208.3042 161.3896,-229.7 128.5,-229.7"/>
<polygon fill="#000000" stroke="#000000" points="261.0336,-148.433 269.3298,-151.2849 265.0168,-148.0665 269,-147.7 269,-147.7 269,-147.7 265.0168,-148.0665 268.6702,-144.1151 261.0336,-148.433 261.0336,-148.433"/>
<ellipse fill="none" stroke="#000000" cx="257.8471" cy="-148.7262" rx="3.2" ry="3.2"/>
</g>
<!-- prison_statistic -->
<g id="node5" class="node">
<title>prison_statistic</title>
<g id="a_node5"><a xlink:href="../../tables/prison_statistic.html" xlink:title="prison_statistic" target="_top">
<polygon fill="#ffffff" stroke="transparent" points="287,-38.2 287,-99.2 429,-99.2 429,-38.2 287,-38.2"/>
<polygon fill="#f5f5f5" stroke="transparent" points="287,-75.7 287,-98.7 429,-98.7 429,-75.7 287,-75.7"/>
<polygon fill="none" stroke="#000000" points="287,-75.7 287,-98.7 429,-98.7 429,-75.7 287,-75.7"/>
<text text-anchor="start" x="292" y="-84.3" font-family="Helvetica,sans-Serif" font-weight="bold" font-size="11.00" fill="#000000">prison_statistic</text>
<text text-anchor="start" x="394.5219" y="-83.8" font-family="Helvetica,sans-Serif" font-size="11.00" fill="#000000">[table]</text>
<polygon fill="none" stroke="#000000" points="287,-56.7 287,-75.7 429,-75.7 429,-56.7 287,-56.7"/>
<text text-anchor="start" x="290" y="-62.8" font-family="Helvetica,sans-Serif" font-size="11.00" fill="#000000">...</text>
<polygon fill="#ffffff" stroke="transparent" points="287,-37.7 287,-56.7 356,-56.7 356,-37.7 287,-37.7"/>
<polygon fill="none" stroke="#000000" points="287,-37.7 287,-56.7 356,-56.7 356,-37.7 287,-37.7"/>
<text text-anchor="start" x="290" y="-43.8" font-family="Helvetica,sans-Serif" font-size="11.00" fill="#000000">&lt; 1</text>
<polygon fill="#ffffff" stroke="transparent" points="356,-37.7 356,-56.7 392,-56.7 392,-37.7 356,-37.7"/>
<polygon fill="none" stroke="#000000" points="356,-37.7 356,-56.7 392,-56.7 392,-37.7 356,-37.7"/>
<text text-anchor="start" x="382.8862" y="-43.8" font-family="Helvetica,sans-Serif" font-size="11.00" fill="#000000"> &#160;</text>
<polygon fill="#ffffff" stroke="transparent" points="392,-37.7 392,-56.7 429,-56.7 429,-37.7 392,-37.7"/>
<polygon fill="none" stroke="#000000" points="392,-37.7 392,-56.7 429,-56.7 429,-37.7 392,-37.7"/>
<text text-anchor="start" x="419.8862" y="-43.8" font-family="Helvetica,sans-Serif" font-size="11.00" fill="#000000"> &#160;</text>
</a>
</g>
</g>
<!-- prison_statistic&#45;&gt;policy -->
<g id="edge5" class="edge">
<title>prison_statistic:w&#45;&gt;policy:e</title>
<path fill="none" stroke="#000000" d="M272.3379,-66.1729C236.8924,-68.6715 221.9375,-81.3076 192,-109.7 148.2182,-151.2222 188.8402,-229.7 128.5,-229.7"/>
<polygon fill="#000000" stroke="#000000" points="279.0042,-65.958 287.1161,-69.2981 283.0021,-65.829 287,-65.7 287,-65.7 287,-65.7 283.0021,-65.829 286.8839,-62.1019 279.0042,-65.958 279.0042,-65.958"/>
<ellipse fill="none" stroke="#000000" cx="275.8058" cy="-66.0611" rx="3.2" ry="3.2"/>
</g>
<!-- reference_data_policy -->
<g id="node6" class="node">
<title>reference_data_policy</title>
<g id="a_node6"><a xlink:href="../../tables/reference_data_policy.html" xlink:title="reference_data_policy" target="_top">
<polygon fill="#ffffff" stroke="transparent" points="265,-284.2 265,-345.2 451,-345.2 451,-284.2 265,-284.2"/>
<polygon fill="#f5f5f5" stroke="transparent" points="265,-321.7 265,-344.7 451,-344.7 451,-321.7 265,-321.7"/>
<polygon fill="none" stroke="#000000" points="265,-321.7 265,-344.7 451,-344.7 451,-321.7 265,-321.7"/>
<text text-anchor="start" x="270" y="-330.3" font-family="Helvetica,sans-Serif" font-weight="bold" font-size="11.00" fill="#000000">reference_data_policy</text>
<text text-anchor="start" x="416.5219" y="-329.8" font-family="Helvetica,sans-Serif" font-size="11.00" fill="#000000">[table]</text>
<polygon fill="none" stroke="#000000" points="265,-302.7 265,-321.7 451,-321.7 451,-302.7 265,-302.7"/>
<text text-anchor="start" x="268" y="-308.8" font-family="Helvetica,sans-Serif" font-size="11.00" fill="#000000">...</text>
<polygon fill="#ffffff" stroke="transparent" points="265,-283.7 265,-302.7 356,-302.7 356,-283.7 265,-283.7"/>
<polygon fill="none" stroke="#000000" points="265,-283.7 265,-302.7 356,-302.7 356,-283.7 265,-283.7"/>
<text text-anchor="start" x="268" y="-289.8" font-family="Helvetica,sans-Serif" font-size="11.00" fill="#000000">&lt; 2</text>
<polygon fill="#ffffff" stroke="transparent" points="356,-283.7 356,-302.7 403,-302.7 403,-283.7 356,-283.7"/>
<polygon fill="none" stroke="#000000" points="356,-283.7 356,-302.7 403,-302.7 403,-283.7 356,-283.7"/>
<text text-anchor="start" x="393.8862" y="-289.8" font-family="Helvetica,sans-Serif" font-size="11.00" fill="#000000"> &#160;</text>
<polygon fill="#ffffff" stroke="transparent" points="403,-283.7 403,-302.7 451,-302.7 451,-283.7 403,-283.7"/>
<polygon fill="none" stroke="#000000" points="403,-283.7 403,-302.7 451,-302.7 451,-283.7 403,-283.7"/>
<text text-anchor="start" x="441.8862" y="-289.8" font-family="Helvetica,sans-Serif" font-size="11.00" fill="#000000"> &#160;</text>
</a>
</g>
</g>
<!-- reference_data_policy&#45;&gt;reference_data -->
<g id="edge6" class="edge">
<title>reference_data_policy:w&#45;&gt;reference_data:e</title>
<path fill="none" stroke="#000000" d="M250.392,-312.5845C223.414,-316.19 212.0869,-330.8286 192,-356.7 154.887,-404.5006 212.0167,-486.7 151.5,-486.7"/>
<polygon fill="#000000" stroke="#000000" points="257.0146,-312.1836 265.2176,-315.2934 261.0073,-311.9418 265,-311.7 265,-311.7 265,-311.7 261.0073,-311.9418 264.7824,-308.1066 257.0146,-312.1836 257.0146,-312.1836"/>
<ellipse fill="none" stroke="#000000" cx="253.8205" cy="-312.377" rx="3.2" ry="3.2"/>
</g>
<!-- reference_data_policy&#45;&gt;policy -->
<g id="edge7" class="edge">
<title>reference_data_policy:w&#45;&gt;policy:e</title>
<path fill="none" stroke="#000000" d="M250.6034,-310.5005C226.3296,-306.0336 218.6682,-289.7929 192,-273.7 162.6026,-255.9601 162.8353,-229.7 128.5,-229.7"/>
<polygon fill="#000000" stroke="#000000" points="257.0276,-311.0357 264.7011,-315.2876 261.0138,-311.3678 265,-311.7 265,-311.7 265,-311.7 261.0138,-311.3678 265.2989,-308.1124 257.0276,-311.0357 257.0276,-311.0357"/>
<ellipse fill="none" stroke="#000000" cx="253.8387" cy="-310.77" rx="3.2" ry="3.2"/>
</g>
<!-- staff_configuration -->
<g id="node7" class="node">
<title>staff_configuration</title>
<g id="a_node7"><a xlink:href="../../tables/staff_configuration.html" xlink:title="staff_configuration" target="_top">
<polygon fill="#ffffff" stroke="transparent" points="274.5,-202.2 274.5,-263.2 441.5,-263.2 441.5,-202.2 274.5,-202.2"/>
<polygon fill="#f5f5f5" stroke="transparent" points="275,-239.7 275,-262.7 442,-262.7 442,-239.7 275,-239.7"/>
<polygon fill="none" stroke="#000000" points="275,-239.7 275,-262.7 442,-262.7 442,-239.7 275,-239.7"/>
<text text-anchor="start" x="280" y="-248.3" font-family="Helvetica,sans-Serif" font-weight="bold" font-size="11.00" fill="#000000">staff_configuration</text>
<text text-anchor="start" x="407.5219" y="-247.8" font-family="Helvetica,sans-Serif" font-size="11.00" fill="#000000">[table]</text>
<polygon fill="none" stroke="#000000" points="275,-220.7 275,-239.7 442,-239.7 442,-220.7 275,-220.7"/>
<text text-anchor="start" x="278" y="-226.8" font-family="Helvetica,sans-Serif" font-size="11.00" fill="#000000">...</text>
<polygon fill="#ffffff" stroke="transparent" points="275,-201.7 275,-220.7 357,-220.7 357,-201.7 275,-201.7"/>
<polygon fill="none" stroke="#000000" points="275,-201.7 275,-220.7 357,-220.7 357,-201.7 275,-201.7"/>
<text text-anchor="start" x="278" y="-207.8" font-family="Helvetica,sans-Serif" font-size="11.00" fill="#000000">&lt; 2</text>
<polygon fill="#ffffff" stroke="transparent" points="357,-201.7 357,-220.7 399,-220.7 399,-201.7 357,-201.7"/>
<polygon fill="none" stroke="#000000" points="357,-201.7 357,-220.7 399,-220.7 399,-201.7 357,-201.7"/>
<text text-anchor="start" x="389.8862" y="-207.8" font-family="Helvetica,sans-Serif" font-size="11.00" fill="#000000"> &#160;</text>
<polygon fill="#ffffff" stroke="transparent" points="399,-201.7 399,-220.7 442,-220.7 442,-201.7 399,-201.7"/>
<polygon fill="none" stroke="#000000" points="399,-201.7 399,-220.7 442,-220.7 442,-201.7 399,-201.7"/>
<text text-anchor="start" x="432.8862" y="-207.8" font-family="Helvetica,sans-Serif" font-size="11.00" fill="#000000"> &#160;</text>
</a>
</g>
</g>
<!-- staff_configuration&#45;&gt;reference_data -->
<g id="edge9" class="edge">
<title>staff_configuration:w&#45;&gt;reference_data:e</title>
<path fill="none" stroke="#000000" d="M260.4629,-230.2126C229.0029,-232.663 213.6887,-244.3019 192,-273.7 163.3958,-312.4717 199.6814,-486.7 151.5,-486.7"/>
<polygon fill="#000000" stroke="#000000" points="267.005,-229.982 275.1269,-233.2978 271.0025,-229.841 275,-229.7 275,-229.7 275,-229.7 271.0025,-229.841 274.8731,-226.1022 267.005,-229.982 267.005,-229.982"/>
<ellipse fill="none" stroke="#000000" cx="263.807" cy="-230.0948" rx="3.2" ry="3.2"/>
</g>
<!-- staff_configuration&#45;&gt;policy -->
<g id="edge8" class="edge">
<title>staff_configuration:w&#45;&gt;policy:e</title>
<path fill="none" stroke="#000000" d="M260.5872,-229.7C207.0474,-229.7 188.5243,-229.7 128.5,-229.7"/>
<polygon fill="#000000" stroke="#000000" points="267,-229.7001 275,-233.3 271,-229.7 275,-229.7 275,-229.7 275,-229.7 271,-229.7 275,-226.1 267,-229.7001 267,-229.7001"/>
<ellipse fill="none" stroke="#000000" cx="263.8" cy="-229.7001" rx="3.2" ry="3.2"/>
</g>
<!-- zz_archived_legacy_keyworker_allocation -->
<g id="node8" class="node">
<title>zz_archived_legacy_keyworker_allocation</title>
<g id="a_node8"><a xlink:href="../../tables/zz_archived_legacy_keyworker_allocation.html" xlink:title="zz_archived_legacy_keyworker_allocation" target="_top">
<polygon fill="#ffffff" stroke="transparent" points="200,-720.2 200,-781.2 516,-781.2 516,-720.2 200,-720.2"/>
<polygon fill="#f5f5f5" stroke="transparent" points="200,-757.7 200,-780.7 516,-780.7 516,-757.7 200,-757.7"/>
<polygon fill="none" stroke="#000000" points="200,-757.7 200,-780.7 516,-780.7 516,-757.7 200,-757.7"/>
<text text-anchor="start" x="205" y="-766.3" font-family="Helvetica,sans-Serif" font-weight="bold" font-size="11.00" fill="#000000">zz_archived_legacy_keyworker_allocation</text>
<text text-anchor="start" x="481.5219" y="-765.8" font-family="Helvetica,sans-Serif" font-size="11.00" fill="#000000">[table]</text>
<polygon fill="none" stroke="#000000" points="200,-738.7 200,-757.7 516,-757.7 516,-738.7 200,-738.7"/>
<text text-anchor="start" x="203" y="-744.8" font-family="Helvetica,sans-Serif" font-size="11.00" fill="#000000">...</text>
<polygon fill="#ffffff" stroke="transparent" points="200,-719.7 200,-738.7 356,-738.7 356,-719.7 200,-719.7"/>
<polygon fill="none" stroke="#000000" points="200,-719.7 200,-738.7 356,-738.7 356,-719.7 200,-719.7"/>
<text text-anchor="start" x="203" y="-725.8" font-family="Helvetica,sans-Serif" font-size="11.00" fill="#000000">&lt; 2</text>
<polygon fill="#ffffff" stroke="transparent" points="356,-719.7 356,-738.7 436,-738.7 436,-719.7 356,-719.7"/>
<polygon fill="none" stroke="#000000" points="356,-719.7 356,-738.7 436,-738.7 436,-719.7 356,-719.7"/>
<text text-anchor="start" x="426.8862" y="-725.8" font-family="Helvetica,sans-Serif" font-size="11.00" fill="#000000"> &#160;</text>
<polygon fill="#ffffff" stroke="transparent" points="436,-719.7 436,-738.7 516,-738.7 516,-719.7 436,-719.7"/>
<polygon fill="none" stroke="#000000" points="436,-719.7 436,-738.7 516,-738.7 516,-719.7 436,-719.7"/>
<text text-anchor="start" x="506.8862" y="-725.8" font-family="Helvetica,sans-Serif" font-size="11.00" fill="#000000"> &#160;</text>
</a>
</g>
</g>
<!-- zz_archived_legacy_keyworker_allocation&#45;&gt;reference_data -->
<g id="edge10" class="edge">
<title>zz_archived_legacy_keyworker_allocation:w&#45;&gt;reference_data:e</title>
<path fill="none" stroke="#000000" d="M187.2482,-740.5629C152.2289,-697.8836 205.308,-481.2273 151.5,-486.7"/>
<polygon fill="#000000" stroke="#000000" points="193.019,-743.7928 198.2418,-750.8414 196.5095,-745.7464 200,-747.7 200,-747.7 200,-747.7 196.5095,-745.7464 201.7582,-744.5586 193.019,-743.7928 193.019,-743.7928"/>
<ellipse fill="none" stroke="#000000" cx="190.2266" cy="-742.2299" rx="3.2" ry="3.2"/>
</g>
<!-- zz_archived_legacy_keyworker_allocation&#45;&gt;reference_data -->
<g id="edge11" class="edge">
<title>zz_archived_legacy_keyworker_allocation:w&#45;&gt;reference_data:e</title>
<path fill="none" stroke="#000000" d="M186.1534,-742.5694C153.3533,-706.1458 204.7319,-493.0164 151.5,-486.7"/>
<polygon fill="#000000" stroke="#000000" points="192.4984,-744.9204 198.7492,-751.0757 196.2492,-746.3102 200,-747.7 200,-747.7 200,-747.7 196.2492,-746.3102 201.2508,-744.3243 192.4984,-744.9204 192.4984,-744.9204"/>
<ellipse fill="none" stroke="#000000" cx="189.4978" cy="-743.8085" rx="3.2" ry="3.2"/>
</g>
</g>
</svg>
