<?xml version="1.0" encoding="UTF-8" standalone="no"?>
<!DOCTYPE svg PUBLIC "-//W3C//DTD SVG 1.1//EN"
 "http://www.w3.org/Graphics/SVG/1.1/DTD/svg11.dtd">
<!-- Generated by graphviz version 2.40.1 (20161225.0304)
 -->
<!-- Title: oneDegreeRelationshipsDiagramImplied Pages: 1 -->
<svg width="574pt" height="294pt"
 viewBox="0.00 0.00 574.00 294.20" xmlns="http://www.w3.org/2000/svg" xmlns:xlink="http://www.w3.org/1999/xlink">
<g id="graph0" class="graph" transform="scale(1 1) rotate(0) translate(4 290.2)">
<title>oneDegreeRelationshipsDiagramImplied</title>
<polygon fill="#ffffff" stroke="transparent" points="-4,4 -4,-290.2 570,-290.2 570,4 -4,4"/>
<text text-anchor="middle" x="72.4936" y="-7.3" font-family="Helvetica,sans-Serif" font-size="11.00" fill="#000000">Generated by SchemaSpy</text>
<!-- allocation_case_note -->
<g id="node1" class="node">
<title>allocation_case_note</title>
<g id="a_node1"><a xlink:href="../../tables/allocation_case_note.html" xlink:title="allocation_case_note" target="_top">
<polygon fill="#ffffff" stroke="transparent" points="300,-38.2 300,-282.2 558,-282.2 558,-38.2 300,-38.2"/>
<polygon fill="#f5f5f5" stroke="transparent" points="302,-257.2 302,-280.2 556,-280.2 556,-257.2 302,-257.2"/>
<polygon fill="none" stroke="#000000" points="302,-257.2 302,-280.2 556,-280.2 556,-257.2 302,-257.2"/>
<text text-anchor="start" x="307" y="-265.8" font-family="Helvetica,sans-Serif" font-weight="bold" font-size="11.00" fill="#000000">allocation_case_note</text>
<text text-anchor="start" x="521.0437" y="-265.3" font-family="Helvetica,sans-Serif" font-size="11.00" fill="#000000">[table]</text>
<polygon fill="none" stroke="#000000" points="302,-235.2 302,-257.2 462,-257.2 462,-235.2 302,-235.2"/>
<image xlink:href="../../images/primaryKeys.png" width="11px" height="12px" preserveAspectRatio="xMinYMin meet" x="307" y="-252.2"/>
<text text-anchor="start" x="322" y="-242.3" font-family="Helvetica,sans-Serif" font-size="11.00" fill="#000000">id</text>
<polygon fill="none" stroke="#000000" points="462,-235.2 462,-257.2 556,-257.2 556,-235.2 462,-235.2"/>
<text text-anchor="start" x="464.9758" y="-242.9" font-family="Helvetica,sans-Serif" font-size="11.00" fill="#000000">uuid[2147483647]</text>
<polygon fill="#ffffff" stroke="transparent" points="302,-213.2 302,-235.2 462,-235.2 462,-213.2 302,-213.2"/>
<polygon fill="none" stroke="#000000" points="302,-213.2 302,-235.2 462,-235.2 462,-213.2 302,-213.2"/>
<image xlink:href="../../images/foreignKeys.png" width="11px" height="12px" preserveAspectRatio="xMinYMin meet" x="307" y="-230.2"/>
<text text-anchor="start" x="322" y="-220.3" font-family="Helvetica,sans-Serif" font-size="11.00" fill="#000000">prison_code</text>
<polygon fill="none" stroke="#000000" points="462,-213.2 462,-235.2 556,-235.2 556,-213.2 462,-213.2"/>
<text text-anchor="start" x="465" y="-220.9" font-family="Helvetica,sans-Serif" font-size="11.00" fill="#000000">varchar[6]</text>
<polygon fill="#ffffff" stroke="transparent" points="302,-191.2 302,-213.2 462,-213.2 462,-191.2 302,-191.2"/>
<polygon fill="none" stroke="#000000" points="302,-191.2 302,-213.2 462,-213.2 462,-191.2 302,-191.2"/>
<text text-anchor="start" x="322" y="-198.3" font-family="Helvetica,sans-Serif" font-size="11.00" fill="#000000">person_identifier</text>
<polygon fill="none" stroke="#000000" points="462,-191.2 462,-213.2 556,-213.2 556,-191.2 462,-191.2"/>
<text text-anchor="start" x="465" y="-198.9" font-family="Helvetica,sans-Serif" font-size="11.00" fill="#000000">varchar[7]</text>
<polygon fill="#ffffff" stroke="transparent" points="302,-169.2 302,-191.2 462,-191.2 462,-169.2 302,-169.2"/>
<polygon fill="none" stroke="#000000" points="302,-169.2 302,-191.2 462,-191.2 462,-169.2 302,-169.2"/>
<text text-anchor="start" x="322" y="-176.3" font-family="Helvetica,sans-Serif" font-size="11.00" fill="#000000">staff_id</text>
<polygon fill="none" stroke="#000000" points="462,-169.2 462,-191.2 556,-191.2 556,-169.2 462,-169.2"/>
<text text-anchor="start" x="465" y="-176.9" font-family="Helvetica,sans-Serif" font-size="11.00" fill="#000000">int8[19]</text>
<polygon fill="none" stroke="#000000" points="302,-147.2 302,-169.2 462,-169.2 462,-147.2 302,-147.2"/>
<text text-anchor="start" x="322" y="-154.3" font-family="Helvetica,sans-Serif" font-size="11.00" fill="#000000">username</text>
<polygon fill="none" stroke="#000000" points="462,-147.2 462,-169.2 556,-169.2 556,-147.2 462,-147.2"/>
<text text-anchor="start" x="465" y="-154.9" font-family="Helvetica,sans-Serif" font-size="11.00" fill="#000000">varchar[64]</text>
<polygon fill="#ffffff" stroke="transparent" points="302,-125.2 302,-147.2 462,-147.2 462,-125.2 302,-125.2"/>
<polygon fill="none" stroke="#000000" points="302,-125.2 302,-147.2 462,-147.2 462,-125.2 302,-125.2"/>
<text text-anchor="start" x="322" y="-132.3" font-family="Helvetica,sans-Serif" font-size="11.00" fill="#000000">type</text>
<polygon fill="none" stroke="#000000" points="462,-125.2 462,-147.2 556,-147.2 556,-125.2 462,-125.2"/>
<text text-anchor="start" x="465" y="-132.9" font-family="Helvetica,sans-Serif" font-size="11.00" fill="#000000">varchar[12]</text>
<polygon fill="#ffffff" stroke="transparent" points="302,-103.2 302,-125.2 462,-125.2 462,-103.2 302,-103.2"/>
<polygon fill="none" stroke="#000000" points="302,-103.2 302,-125.2 462,-125.2 462,-103.2 302,-103.2"/>
<text text-anchor="start" x="322" y="-110.3" font-family="Helvetica,sans-Serif" font-size="11.00" fill="#000000">sub_type</text>
<polygon fill="none" stroke="#000000" points="462,-103.2 462,-125.2 556,-125.2 556,-103.2 462,-103.2"/>
<text text-anchor="start" x="465" y="-110.9" font-family="Helvetica,sans-Serif" font-size="11.00" fill="#000000">varchar[12]</text>
<polygon fill="#ffffff" stroke="transparent" points="302,-81.2 302,-103.2 462,-103.2 462,-81.2 302,-81.2"/>
<polygon fill="none" stroke="#000000" points="302,-81.2 302,-103.2 462,-103.2 462,-81.2 302,-81.2"/>
<text text-anchor="start" x="322" y="-88.3" font-family="Helvetica,sans-Serif" font-size="11.00" fill="#000000">occurred_at</text>
<polygon fill="none" stroke="#000000" points="462,-81.2 462,-103.2 556,-103.2 556,-81.2 462,-81.2"/>
<text text-anchor="start" x="465" y="-88.9" font-family="Helvetica,sans-Serif" font-size="11.00" fill="#000000">timestamp[29,6]</text>
<polygon fill="none" stroke="#000000" points="302,-59.2 302,-81.2 462,-81.2 462,-59.2 302,-59.2"/>
<text text-anchor="start" x="322" y="-66.3" font-family="Helvetica,sans-Serif" font-size="11.00" fill="#000000">version</text>
<polygon fill="none" stroke="#000000" points="462,-59.2 462,-81.2 556,-81.2 556,-59.2 462,-59.2"/>
<text text-anchor="start" x="465" y="-66.9" font-family="Helvetica,sans-Serif" font-size="11.00" fill="#000000">int4[10]</text>
<polygon fill="#ffffff" stroke="transparent" points="302,-40.2 302,-59.2 386,-59.2 386,-40.2 302,-40.2"/>
<polygon fill="none" stroke="#000000" points="302,-40.2 302,-59.2 386,-59.2 386,-40.2 302,-40.2"/>
<text text-anchor="start" x="305" y="-46.3" font-family="Helvetica,sans-Serif" font-size="11.00" fill="#000000">&lt; 1</text>
<polygon fill="#ffffff" stroke="transparent" points="386,-40.2 386,-59.2 462,-59.2 462,-40.2 386,-40.2"/>
<polygon fill="none" stroke="#000000" points="386,-40.2 386,-59.2 462,-59.2 462,-40.2 386,-40.2"/>
<text text-anchor="start" x="452.8862" y="-46.3" font-family="Helvetica,sans-Serif" font-size="11.00" fill="#000000"> &#160;</text>
<polygon fill="#ffffff" stroke="transparent" points="462,-40.2 462,-59.2 556,-59.2 556,-40.2 462,-40.2"/>
<polygon fill="none" stroke="#000000" points="462,-40.2 462,-59.2 556,-59.2 556,-40.2 462,-40.2"/>
<text text-anchor="start" x="537.4053" y="-46.3" font-family="Helvetica,sans-Serif" font-size="11.00" fill="#000000">0 &gt;</text>
<polygon fill="none" stroke="#000000" stroke-width="2" points="301,-39.2 301,-281.2 557,-281.2 557,-39.2 301,-39.2"/>
</a>
</g>
</g>
<!-- prison_migration_date_history -->
<g id="node2" class="node">
<title>prison_migration_date_history</title>
<g id="a_node2"><a xlink:href="../../tables/prison_migration_date_history.html" xlink:title="prison_migration_date_history" target="_top">
<polygon fill="#ffffff" stroke="transparent" points="8,-175.7 8,-258.7 251,-258.7 251,-175.7 8,-175.7"/>
<polygon fill="#f5f5f5" stroke="transparent" points="8.5,-235.2 8.5,-258.2 251.5,-258.2 251.5,-235.2 8.5,-235.2"/>
<polygon fill="none" stroke="#000000" points="8.5,-235.2 8.5,-258.2 251.5,-258.2 251.5,-235.2 8.5,-235.2"/>
<text text-anchor="start" x="13.5" y="-243.8" font-family="Helvetica,sans-Serif" font-weight="bold" font-size="11.00" fill="#000000">prison_migration_date_history</text>
<text text-anchor="start" x="217.0219" y="-243.3" font-family="Helvetica,sans-Serif" font-size="11.00" fill="#000000">[table]</text>
<polygon fill="none" stroke="#000000" points="8.5,-213.2 8.5,-235.2 251.5,-235.2 251.5,-213.2 8.5,-213.2"/>
<image xlink:href="../../images/primaryKeys.png" width="11px" height="12px" preserveAspectRatio="xMinYMin meet" x="13.5" y="-230.2"/>
<text text-anchor="start" x="37.5" y="-220.3" font-family="Helvetica,sans-Serif" font-size="11.00" fill="#000000">prison_code</text>
<polygon fill="none" stroke="#000000" points="8.5,-194.2 8.5,-213.2 251.5,-213.2 251.5,-194.2 8.5,-194.2"/>
<text text-anchor="start" x="11.5" y="-200.3" font-family="Helvetica,sans-Serif" font-size="11.00" fill="#000000">...</text>
<polygon fill="#ffffff" stroke="transparent" points="8.5,-175.2 8.5,-194.2 119.5,-194.2 119.5,-175.2 8.5,-175.2"/>
<polygon fill="none" stroke="#000000" points="8.5,-175.2 8.5,-194.2 119.5,-194.2 119.5,-175.2 8.5,-175.2"/>
<text text-anchor="start" x="11.5" y="-181.3" font-family="Helvetica,sans-Serif" font-size="11.00" fill="#000000"> &#160;</text>
<polygon fill="#ffffff" stroke="transparent" points="119.5,-175.2 119.5,-194.2 180.5,-194.2 180.5,-175.2 119.5,-175.2"/>
<polygon fill="none" stroke="#000000" points="119.5,-175.2 119.5,-194.2 180.5,-194.2 180.5,-175.2 119.5,-175.2"/>
<text text-anchor="start" x="171.3862" y="-181.3" font-family="Helvetica,sans-Serif" font-size="11.00" fill="#000000"> &#160;</text>
<polygon fill="#ffffff" stroke="transparent" points="180.5,-175.2 180.5,-194.2 251.5,-194.2 251.5,-175.2 180.5,-175.2"/>
<polygon fill="none" stroke="#000000" points="180.5,-175.2 180.5,-194.2 251.5,-194.2 251.5,-175.2 180.5,-175.2"/>
<text text-anchor="start" x="232.9053" y="-181.3" font-family="Helvetica,sans-Serif" font-size="11.00" fill="#000000">9 &gt;</text>
</a>
</g>
</g>
<!-- allocation_case_note&#45;&gt;prison_migration_date_history -->
<g id="edge1" class="edge">
<title>allocation_case_note:w&#45;&gt;prison_migration_date_history:e</title>
<path fill="none" stroke="#000000" stroke-dasharray="5,2" d="M287.4203,-224.2C275.5435,-224.2 268.158,-224.2 251.5,-224.2"/>
<polygon fill="#000000" stroke="#000000" points="294,-224.2001 302,-227.8 298,-224.2 302,-224.2 302,-224.2 302,-224.2 298,-224.2 302,-220.6 294,-224.2001 294,-224.2001"/>
<ellipse fill="none" stroke="#000000" cx="290.8" cy="-224.2001" rx="3.2" ry="3.2"/>
</g>
</g>
</svg>
