<?xml version="1.0" encoding="UTF-8" standalone="no"?>
<!DOCTYPE svg PUBLIC "-//W3C//DTD SVG 1.1//EN"
 "http://www.w3.org/Graphics/SVG/1.1/DTD/svg11.dtd">
<!-- Generated by graphviz version 2.40.1 (20161225.0304)
 -->
<!-- Title: oneDegreeRelationshipsDiagramImplied Pages: 1 -->
<svg width="488pt" height="437pt"
 viewBox="0.00 0.00 488.00 436.70" xmlns="http://www.w3.org/2000/svg" xmlns:xlink="http://www.w3.org/1999/xlink">
<g id="graph0" class="graph" transform="scale(1 1) rotate(0) translate(4 432.7)">
<title>oneDegreeRelationshipsDiagramImplied</title>
<polygon fill="#ffffff" stroke="transparent" points="-4,4 -4,-432.7 484,-432.7 484,4 -4,4"/>
<text text-anchor="middle" x="72.4936" y="-7.3" font-family="Helvetica,sans-Serif" font-size="11.00" fill="#000000">Generated by SchemaSpy</text>
<!-- allocation -->
<g id="node1" class="node">
<title>allocation</title>
<g id="a_node1"><a xlink:href="../../tables/allocation.html" xlink:title="allocation" target="_top">
<polygon fill="#ffffff" stroke="transparent" points="200,-114.7 200,-424.7 472,-424.7 472,-114.7 200,-114.7"/>
<polygon fill="#f5f5f5" stroke="transparent" points="202,-399.7 202,-422.7 470,-422.7 470,-399.7 202,-399.7"/>
<polygon fill="none" stroke="#000000" points="202,-399.7 202,-422.7 470,-422.7 470,-399.7 202,-399.7"/>
<text text-anchor="start" x="207" y="-408.3" font-family="Helvetica,sans-Serif" font-weight="bold" font-size="11.00" fill="#000000">allocation</text>
<text text-anchor="start" x="435.0437" y="-407.8" font-family="Helvetica,sans-Serif" font-size="11.00" fill="#000000">[table]</text>
<polygon fill="none" stroke="#000000" points="202,-377.7 202,-399.7 376,-399.7 376,-377.7 202,-377.7"/>
<image xlink:href="../../images/primaryKeys.png" width="11px" height="12px" preserveAspectRatio="xMinYMin meet" x="207" y="-394.7"/>
<text text-anchor="start" x="222" y="-384.8" font-family="Helvetica,sans-Serif" font-size="11.00" fill="#000000">id</text>
<polygon fill="none" stroke="#000000" points="376,-377.7 376,-399.7 470,-399.7 470,-377.7 376,-377.7"/>
<text text-anchor="start" x="378.9758" y="-385.4" font-family="Helvetica,sans-Serif" font-size="11.00" fill="#000000">uuid[2147483647]</text>
<polygon fill="#ffffff" stroke="transparent" points="202,-355.7 202,-377.7 376,-377.7 376,-355.7 202,-355.7"/>
<polygon fill="none" stroke="#000000" points="202,-355.7 202,-377.7 376,-377.7 376,-355.7 202,-355.7"/>
<text text-anchor="start" x="222" y="-362.8" font-family="Helvetica,sans-Serif" font-size="11.00" fill="#000000">prison_code</text>
<polygon fill="none" stroke="#000000" points="376,-355.7 376,-377.7 470,-377.7 470,-355.7 376,-355.7"/>
<text text-anchor="start" x="379" y="-363.4" font-family="Helvetica,sans-Serif" font-size="11.00" fill="#000000">varchar[6]</text>
<polygon fill="#ffffff" stroke="transparent" points="202,-333.7 202,-355.7 376,-355.7 376,-333.7 202,-333.7"/>
<polygon fill="none" stroke="#000000" points="202,-333.7 202,-355.7 376,-355.7 376,-333.7 202,-333.7"/>
<text text-anchor="start" x="222" y="-340.8" font-family="Helvetica,sans-Serif" font-size="11.00" fill="#000000">staff_id</text>
<polygon fill="none" stroke="#000000" points="376,-333.7 376,-355.7 470,-355.7 470,-333.7 376,-333.7"/>
<text text-anchor="start" x="379" y="-341.4" font-family="Helvetica,sans-Serif" font-size="11.00" fill="#000000">int8[19]</text>
<polygon fill="#ffffff" stroke="transparent" points="202,-311.7 202,-333.7 376,-333.7 376,-311.7 202,-311.7"/>
<polygon fill="none" stroke="#000000" points="202,-311.7 202,-333.7 376,-333.7 376,-311.7 202,-311.7"/>
<text text-anchor="start" x="222" y="-318.8" font-family="Helvetica,sans-Serif" font-size="11.00" fill="#000000">person_identifier</text>
<polygon fill="none" stroke="#000000" points="376,-311.7 376,-333.7 470,-333.7 470,-311.7 376,-311.7"/>
<text text-anchor="start" x="379" y="-319.4" font-family="Helvetica,sans-Serif" font-size="11.00" fill="#000000">varchar[10]</text>
<polygon fill="#ffffff" stroke="transparent" points="202,-289.7 202,-311.7 376,-311.7 376,-289.7 202,-289.7"/>
<polygon fill="none" stroke="#000000" points="202,-289.7 202,-311.7 376,-311.7 376,-289.7 202,-289.7"/>
<text text-anchor="start" x="222" y="-296.8" font-family="Helvetica,sans-Serif" font-size="11.00" fill="#000000">allocated_at</text>
<polygon fill="none" stroke="#000000" points="376,-289.7 376,-311.7 470,-311.7 470,-289.7 376,-289.7"/>
<text text-anchor="start" x="379" y="-297.4" font-family="Helvetica,sans-Serif" font-size="11.00" fill="#000000">timestamp[29,6]</text>
<polygon fill="none" stroke="#000000" points="202,-267.7 202,-289.7 376,-289.7 376,-267.7 202,-267.7"/>
<text text-anchor="start" x="222" y="-274.8" font-family="Helvetica,sans-Serif" font-size="11.00" fill="#000000">allocated_by</text>
<polygon fill="none" stroke="#000000" points="376,-267.7 376,-289.7 470,-289.7 470,-267.7 376,-267.7"/>
<text text-anchor="start" x="379" y="-275.4" font-family="Helvetica,sans-Serif" font-size="11.00" fill="#000000">varchar[64]</text>
<polygon fill="none" stroke="#000000" points="202,-245.7 202,-267.7 376,-267.7 376,-245.7 202,-245.7"/>
<image xlink:href="../../images/foreignKeys.png" width="11px" height="12px" preserveAspectRatio="xMinYMin meet" x="207" y="-262.7"/>
<text text-anchor="start" x="222" y="-252.8" font-family="Helvetica,sans-Serif" font-size="11.00" fill="#000000">allocation_reason_id</text>
<polygon fill="none" stroke="#000000" points="376,-245.7 376,-267.7 470,-267.7 470,-245.7 376,-245.7"/>
<text text-anchor="start" x="379" y="-253.4" font-family="Helvetica,sans-Serif" font-size="11.00" fill="#000000">int8[19]</text>
<polygon fill="#ffffff" stroke="transparent" points="202,-223.7 202,-245.7 376,-245.7 376,-223.7 202,-223.7"/>
<polygon fill="none" stroke="#000000" points="202,-223.7 202,-245.7 376,-245.7 376,-223.7 202,-223.7"/>
<text text-anchor="start" x="222" y="-230.8" font-family="Helvetica,sans-Serif" font-size="11.00" fill="#000000">deallocated_at</text>
<polygon fill="none" stroke="#000000" points="376,-223.7 376,-245.7 470,-245.7 470,-223.7 376,-223.7"/>
<text text-anchor="start" x="379" y="-231.4" font-family="Helvetica,sans-Serif" font-size="11.00" fill="#000000">timestamp[29,6]</text>
<polygon fill="none" stroke="#000000" points="202,-201.7 202,-223.7 376,-223.7 376,-201.7 202,-201.7"/>
<image xlink:href="../../images/foreignKeys.png" width="11px" height="12px" preserveAspectRatio="xMinYMin meet" x="207" y="-218.7"/>
<text text-anchor="start" x="222" y="-208.8" font-family="Helvetica,sans-Serif" font-size="11.00" fill="#000000">deallocation_reason_id</text>
<polygon fill="none" stroke="#000000" points="376,-201.7 376,-223.7 470,-223.7 470,-201.7 376,-201.7"/>
<text text-anchor="start" x="379" y="-209.4" font-family="Helvetica,sans-Serif" font-size="11.00" fill="#000000">int8[19]</text>
<polygon fill="none" stroke="#000000" points="202,-179.7 202,-201.7 376,-201.7 376,-179.7 202,-179.7"/>
<text text-anchor="start" x="222" y="-186.8" font-family="Helvetica,sans-Serif" font-size="11.00" fill="#000000">deallocated_by</text>
<polygon fill="none" stroke="#000000" points="376,-179.7 376,-201.7 470,-201.7 470,-179.7 376,-179.7"/>
<text text-anchor="start" x="379" y="-187.4" font-family="Helvetica,sans-Serif" font-size="11.00" fill="#000000">varchar[64]</text>
<polygon fill="none" stroke="#000000" points="202,-157.7 202,-179.7 376,-179.7 376,-157.7 202,-157.7"/>
<text text-anchor="start" x="222" y="-164.8" font-family="Helvetica,sans-Serif" font-size="11.00" fill="#000000">is_active</text>
<polygon fill="none" stroke="#000000" points="376,-157.7 376,-179.7 470,-179.7 470,-157.7 376,-157.7"/>
<text text-anchor="start" x="379" y="-165.4" font-family="Helvetica,sans-Serif" font-size="11.00" fill="#000000">bool[1]</text>
<polygon fill="#ffffff" stroke="transparent" points="202,-135.7 202,-157.7 376,-157.7 376,-135.7 202,-135.7"/>
<polygon fill="none" stroke="#000000" points="202,-135.7 202,-157.7 376,-157.7 376,-135.7 202,-135.7"/>
<image xlink:href="../../images/foreignKeys.png" width="11px" height="12px" preserveAspectRatio="xMinYMin meet" x="207" y="-152.7"/>
<text text-anchor="start" x="222" y="-142.8" font-family="Helvetica,sans-Serif" font-size="11.00" fill="#000000">policy_code</text>
<polygon fill="none" stroke="#000000" points="376,-135.7 376,-157.7 470,-157.7 470,-135.7 376,-135.7"/>
<text text-anchor="start" x="379" y="-143.4" font-family="Helvetica,sans-Serif" font-size="11.00" fill="#000000">varchar[16]</text>
<polygon fill="#ffffff" stroke="transparent" points="202,-116.7 202,-135.7 293,-135.7 293,-116.7 202,-116.7"/>
<polygon fill="none" stroke="#000000" points="202,-116.7 202,-135.7 293,-135.7 293,-116.7 202,-116.7"/>
<text text-anchor="start" x="205" y="-122.8" font-family="Helvetica,sans-Serif" font-size="11.00" fill="#000000">&lt; 3</text>
<polygon fill="#ffffff" stroke="transparent" points="293,-116.7 293,-135.7 376,-135.7 376,-116.7 293,-116.7"/>
<polygon fill="none" stroke="#000000" points="293,-116.7 293,-135.7 376,-135.7 376,-116.7 293,-116.7"/>
<text text-anchor="start" x="366.8862" y="-122.8" font-family="Helvetica,sans-Serif" font-size="11.00" fill="#000000"> &#160;</text>
<polygon fill="#ffffff" stroke="transparent" points="376,-116.7 376,-135.7 470,-135.7 470,-116.7 376,-116.7"/>
<polygon fill="none" stroke="#000000" points="376,-116.7 376,-135.7 470,-135.7 470,-116.7 376,-116.7"/>
<text text-anchor="start" x="451.4053" y="-122.8" font-family="Helvetica,sans-Serif" font-size="11.00" fill="#000000">0 &gt;</text>
<polygon fill="none" stroke="#000000" stroke-width="2" points="201,-115.7 201,-423.7 471,-423.7 471,-115.7 201,-115.7"/>
</a>
</g>
</g>
<!-- reference_data -->
<g id="node2" class="node">
<title>reference_data</title>
<g id="a_node2"><a xlink:href="../../tables/reference_data.html" xlink:title="reference_data" target="_top">
<polygon fill="#ffffff" stroke="transparent" points="8,-142.2 8,-291.2 151,-291.2 151,-142.2 8,-142.2"/>
<polygon fill="#f5f5f5" stroke="transparent" points="8.5,-267.7 8.5,-290.7 151.5,-290.7 151.5,-267.7 8.5,-267.7"/>
<polygon fill="none" stroke="#000000" points="8.5,-267.7 8.5,-290.7 151.5,-290.7 151.5,-267.7 8.5,-267.7"/>
<text text-anchor="start" x="13.5" y="-276.3" font-family="Helvetica,sans-Serif" font-weight="bold" font-size="11.00" fill="#000000">reference_data</text>
<text text-anchor="start" x="116.5437" y="-275.8" font-family="Helvetica,sans-Serif" font-size="11.00" fill="#000000">[table]</text>
<polygon fill="none" stroke="#000000" points="8.5,-245.7 8.5,-267.7 151.5,-267.7 151.5,-245.7 8.5,-245.7"/>
<image xlink:href="../../images/primaryKeys.png" width="11px" height="12px" preserveAspectRatio="xMinYMin meet" x="13.5" y="-262.7"/>
<text text-anchor="start" x="28.5" y="-252.8" font-family="Helvetica,sans-Serif" font-size="11.00" fill="#000000">id</text>
<polygon fill="#ffffff" stroke="transparent" points="8.5,-223.7 8.5,-245.7 151.5,-245.7 151.5,-223.7 8.5,-223.7"/>
<polygon fill="none" stroke="#000000" points="8.5,-223.7 8.5,-245.7 151.5,-245.7 151.5,-223.7 8.5,-223.7"/>
<text text-anchor="start" x="28.5" y="-230.8" font-family="Helvetica,sans-Serif" font-size="11.00" fill="#000000">domain</text>
<polygon fill="#ffffff" stroke="transparent" points="8.5,-201.7 8.5,-223.7 151.5,-223.7 151.5,-201.7 8.5,-201.7"/>
<polygon fill="none" stroke="#000000" points="8.5,-201.7 8.5,-223.7 151.5,-223.7 151.5,-201.7 8.5,-201.7"/>
<text text-anchor="start" x="28.5" y="-208.8" font-family="Helvetica,sans-Serif" font-size="11.00" fill="#000000">code</text>
<polygon fill="#ffffff" stroke="transparent" points="8.5,-179.7 8.5,-201.7 151.5,-201.7 151.5,-179.7 8.5,-179.7"/>
<polygon fill="none" stroke="#000000" points="8.5,-179.7 8.5,-201.7 151.5,-201.7 151.5,-179.7 8.5,-179.7"/>
<text text-anchor="start" x="28.5" y="-186.8" font-family="Helvetica,sans-Serif" font-size="11.00" fill="#000000">sequence_number</text>
<polygon fill="none" stroke="#000000" points="8.5,-160.7 8.5,-179.7 151.5,-179.7 151.5,-160.7 8.5,-160.7"/>
<text text-anchor="start" x="11.5" y="-166.8" font-family="Helvetica,sans-Serif" font-size="11.00" fill="#000000">...</text>
<polygon fill="#ffffff" stroke="transparent" points="8.5,-141.7 8.5,-160.7 69.5,-160.7 69.5,-141.7 8.5,-141.7"/>
<polygon fill="none" stroke="#000000" points="8.5,-141.7 8.5,-160.7 69.5,-160.7 69.5,-141.7 8.5,-141.7"/>
<text text-anchor="start" x="11.5" y="-147.8" font-family="Helvetica,sans-Serif" font-size="11.00" fill="#000000"> &#160;</text>
<polygon fill="#ffffff" stroke="transparent" points="69.5,-141.7 69.5,-160.7 105.5,-160.7 105.5,-141.7 69.5,-141.7"/>
<polygon fill="none" stroke="#000000" points="69.5,-141.7 69.5,-160.7 105.5,-160.7 105.5,-141.7 69.5,-141.7"/>
<text text-anchor="start" x="96.3862" y="-147.8" font-family="Helvetica,sans-Serif" font-size="11.00" fill="#000000"> &#160;</text>
<polygon fill="#ffffff" stroke="transparent" points="105.5,-141.7 105.5,-160.7 151.5,-160.7 151.5,-141.7 105.5,-141.7"/>
<polygon fill="none" stroke="#000000" points="105.5,-141.7 105.5,-160.7 151.5,-160.7 151.5,-141.7 105.5,-141.7"/>
<text text-anchor="start" x="132.9053" y="-147.8" font-family="Helvetica,sans-Serif" font-size="11.00" fill="#000000">5 &gt;</text>
</a>
</g>
</g>
<!-- allocation&#45;&gt;reference_data -->
<g id="edge1" class="edge">
<title>allocation:w&#45;&gt;reference_data:e</title>
<path fill="none" stroke="#000000" d="M187.4203,-256.7C175.5435,-256.7 168.158,-256.7 151.5,-256.7"/>
<polygon fill="#000000" stroke="#000000" points="194,-256.7001 202,-260.3 198,-256.7 202,-256.7 202,-256.7 202,-256.7 198,-256.7 202,-253.1 194,-256.7001 194,-256.7001"/>
<ellipse fill="none" stroke="#000000" cx="190.8" cy="-256.7001" rx="3.2" ry="3.2"/>
</g>
<!-- allocation&#45;&gt;reference_data -->
<g id="edge2" class="edge">
<title>allocation:w&#45;&gt;reference_data:e</title>
<path fill="none" stroke="#000000" d="M188.0126,-217.4088C174.3016,-228.7596 175.2219,-256.7 151.5,-256.7"/>
<polygon fill="#000000" stroke="#000000" points="194.4181,-215.2524 203.1486,-216.1119 198.209,-213.9762 202,-212.7 202,-212.7 202,-212.7 198.209,-213.9762 200.8514,-209.2881 194.4181,-215.2524 194.4181,-215.2524"/>
<ellipse fill="none" stroke="#000000" cx="191.3853" cy="-216.2734" rx="3.2" ry="3.2"/>
</g>
<!-- policy -->
<g id="node3" class="node">
<title>policy</title>
<g id="a_node3"><a xlink:href="../../tables/policy.html" xlink:title="policy" target="_top">
<polygon fill="#ffffff" stroke="transparent" points="31,-38.2 31,-121.2 128,-121.2 128,-38.2 31,-38.2"/>
<polygon fill="#f5f5f5" stroke="transparent" points="31.5,-97.7 31.5,-120.7 128.5,-120.7 128.5,-97.7 31.5,-97.7"/>
<polygon fill="none" stroke="#000000" points="31.5,-97.7 31.5,-120.7 128.5,-120.7 128.5,-97.7 31.5,-97.7"/>
<text text-anchor="start" x="36.5" y="-106.3" font-family="Helvetica,sans-Serif" font-weight="bold" font-size="11.00" fill="#000000">policy</text>
<text text-anchor="start" x="93.5437" y="-105.8" font-family="Helvetica,sans-Serif" font-size="11.00" fill="#000000">[table]</text>
<polygon fill="none" stroke="#000000" points="31.5,-75.7 31.5,-97.7 128.5,-97.7 128.5,-75.7 31.5,-75.7"/>
<image xlink:href="../../images/primaryKeys.png" width="11px" height="12px" preserveAspectRatio="xMinYMin meet" x="36.5" y="-92.7"/>
<text text-anchor="start" x="51.5" y="-82.8" font-family="Helvetica,sans-Serif" font-size="11.00" fill="#000000">code</text>
<polygon fill="none" stroke="#000000" points="31.5,-56.7 31.5,-75.7 128.5,-75.7 128.5,-56.7 31.5,-56.7"/>
<text text-anchor="start" x="34.5" y="-62.8" font-family="Helvetica,sans-Serif" font-size="11.00" fill="#000000">...</text>
<polygon fill="#ffffff" stroke="transparent" points="31.5,-37.7 31.5,-56.7 69.5,-56.7 69.5,-37.7 31.5,-37.7"/>
<polygon fill="none" stroke="#000000" points="31.5,-37.7 31.5,-56.7 69.5,-56.7 69.5,-37.7 31.5,-37.7"/>
<text text-anchor="start" x="34.5" y="-43.8" font-family="Helvetica,sans-Serif" font-size="11.00" fill="#000000"> &#160;</text>
<polygon fill="#ffffff" stroke="transparent" points="69.5,-37.7 69.5,-56.7 94.5,-56.7 94.5,-37.7 69.5,-37.7"/>
<polygon fill="none" stroke="#000000" points="69.5,-37.7 69.5,-56.7 94.5,-56.7 94.5,-37.7 69.5,-37.7"/>
<text text-anchor="start" x="85.3862" y="-43.8" font-family="Helvetica,sans-Serif" font-size="11.00" fill="#000000"> &#160;</text>
<polygon fill="#ffffff" stroke="transparent" points="94.5,-37.7 94.5,-56.7 128.5,-56.7 128.5,-37.7 94.5,-37.7"/>
<polygon fill="none" stroke="#000000" points="94.5,-37.7 94.5,-56.7 128.5,-56.7 128.5,-37.7 94.5,-37.7"/>
<text text-anchor="start" x="109.9053" y="-43.8" font-family="Helvetica,sans-Serif" font-size="11.00" fill="#000000">7 &gt;</text>
</a>
</g>
</g>
<!-- allocation&#45;&gt;policy -->
<g id="edge3" class="edge">
<title>allocation:w&#45;&gt;policy:e</title>
<path fill="none" stroke="#000000" d="M187.7549,-143.8061C161.7749,-131.8208 165.0684,-86.7 128.5,-86.7"/>
<polygon fill="#000000" stroke="#000000" points="194.1601,-145.1073 201.2833,-150.2279 198.0801,-145.9036 202,-146.7 202,-146.7 202,-146.7 198.0801,-145.9036 202.7167,-143.1721 194.1601,-145.1073 194.1601,-145.1073"/>
<ellipse fill="none" stroke="#000000" cx="191.0242" cy="-144.4702" rx="3.2" ry="3.2"/>
</g>
</g>
</svg>
