<?xml version="1.0" encoding="UTF-8" standalone="no"?>
<!DOCTYPE svg PUBLIC "-//W3C//DTD SVG 1.1//EN"
 "http://www.w3.org/Graphics/SVG/1.1/DTD/svg11.dtd">
<!-- Generated by graphviz version 2.40.1 (20161225.0304)
 -->
<!-- Title: twoDegreesRelationshipsDiagram Pages: 1 -->
<svg width="693pt" height="903pt"
 viewBox="0.00 0.00 693.00 902.70" xmlns="http://www.w3.org/2000/svg" xmlns:xlink="http://www.w3.org/1999/xlink">
<g id="graph0" class="graph" transform="scale(1 1) rotate(0) translate(4 898.7)">
<title>twoDegreesRelationshipsDiagram</title>
<polygon fill="#ffffff" stroke="transparent" points="-4,4 -4,-898.7 689,-898.7 689,4 -4,4"/>
<text text-anchor="middle" x="72.4936" y="-7.3" font-family="Helvetica,sans-Serif" font-size="11.00" fill="#000000">Generated by SchemaSpy</text>
<!-- allocation -->
<g id="node1" class="node">
<title>allocation</title>
<g id="a_node1"><a xlink:href="../../tables/allocation.html" xlink:title="allocation" target="_top">
<polygon fill="#ffffff" stroke="transparent" points="200,-558.7 200,-890.7 472,-890.7 472,-558.7 200,-558.7"/>
<polygon fill="#f5f5f5" stroke="transparent" points="202,-865.7 202,-888.7 470,-888.7 470,-865.7 202,-865.7"/>
<polygon fill="none" stroke="#000000" points="202,-865.7 202,-888.7 470,-888.7 470,-865.7 202,-865.7"/>
<text text-anchor="start" x="207" y="-874.3" font-family="Helvetica,sans-Serif" font-weight="bold" font-size="11.00" fill="#000000">allocation</text>
<text text-anchor="start" x="435.0437" y="-873.8" font-family="Helvetica,sans-Serif" font-size="11.00" fill="#000000">[table]</text>
<polygon fill="none" stroke="#000000" points="202,-843.7 202,-865.7 376,-865.7 376,-843.7 202,-843.7"/>
<image xlink:href="../../images/primaryKeys.png" width="11px" height="12px" preserveAspectRatio="xMinYMin meet" x="207" y="-860.7"/>
<text text-anchor="start" x="222" y="-850.8" font-family="Helvetica,sans-Serif" font-size="11.00" fill="#000000">id</text>
<polygon fill="none" stroke="#000000" points="376,-843.7 376,-865.7 470,-865.7 470,-843.7 376,-843.7"/>
<text text-anchor="start" x="378.9758" y="-851.4" font-family="Helvetica,sans-Serif" font-size="11.00" fill="#000000">uuid[2147483647]</text>
<polygon fill="#ffffff" stroke="transparent" points="202,-821.7 202,-843.7 376,-843.7 376,-821.7 202,-821.7"/>
<polygon fill="none" stroke="#000000" points="202,-821.7 202,-843.7 376,-843.7 376,-821.7 202,-821.7"/>
<text text-anchor="start" x="222" y="-828.8" font-family="Helvetica,sans-Serif" font-size="11.00" fill="#000000">prison_code</text>
<polygon fill="none" stroke="#000000" points="376,-821.7 376,-843.7 470,-843.7 470,-821.7 376,-821.7"/>
<text text-anchor="start" x="379" y="-829.4" font-family="Helvetica,sans-Serif" font-size="11.00" fill="#000000">varchar[6]</text>
<polygon fill="#ffffff" stroke="transparent" points="202,-799.7 202,-821.7 376,-821.7 376,-799.7 202,-799.7"/>
<polygon fill="none" stroke="#000000" points="202,-799.7 202,-821.7 376,-821.7 376,-799.7 202,-799.7"/>
<text text-anchor="start" x="222" y="-806.8" font-family="Helvetica,sans-Serif" font-size="11.00" fill="#000000">staff_id</text>
<polygon fill="none" stroke="#000000" points="376,-799.7 376,-821.7 470,-821.7 470,-799.7 376,-799.7"/>
<text text-anchor="start" x="379" y="-807.4" font-family="Helvetica,sans-Serif" font-size="11.00" fill="#000000">int8[19]</text>
<polygon fill="#ffffff" stroke="transparent" points="202,-777.7 202,-799.7 376,-799.7 376,-777.7 202,-777.7"/>
<polygon fill="none" stroke="#000000" points="202,-777.7 202,-799.7 376,-799.7 376,-777.7 202,-777.7"/>
<text text-anchor="start" x="222" y="-784.8" font-family="Helvetica,sans-Serif" font-size="11.00" fill="#000000">person_identifier</text>
<polygon fill="none" stroke="#000000" points="376,-777.7 376,-799.7 470,-799.7 470,-777.7 376,-777.7"/>
<text text-anchor="start" x="379" y="-785.4" font-family="Helvetica,sans-Serif" font-size="11.00" fill="#000000">varchar[10]</text>
<polygon fill="#ffffff" stroke="transparent" points="202,-755.7 202,-777.7 376,-777.7 376,-755.7 202,-755.7"/>
<polygon fill="none" stroke="#000000" points="202,-755.7 202,-777.7 376,-777.7 376,-755.7 202,-755.7"/>
<text text-anchor="start" x="222" y="-762.8" font-family="Helvetica,sans-Serif" font-size="11.00" fill="#000000">allocated_at</text>
<polygon fill="none" stroke="#000000" points="376,-755.7 376,-777.7 470,-777.7 470,-755.7 376,-755.7"/>
<text text-anchor="start" x="379" y="-763.4" font-family="Helvetica,sans-Serif" font-size="11.00" fill="#000000">timestamp[29,6]</text>
<polygon fill="none" stroke="#000000" points="202,-733.7 202,-755.7 376,-755.7 376,-733.7 202,-733.7"/>
<text text-anchor="start" x="222" y="-740.8" font-family="Helvetica,sans-Serif" font-size="11.00" fill="#000000">allocated_by</text>
<polygon fill="none" stroke="#000000" points="376,-733.7 376,-755.7 470,-755.7 470,-733.7 376,-733.7"/>
<text text-anchor="start" x="379" y="-741.4" font-family="Helvetica,sans-Serif" font-size="11.00" fill="#000000">varchar[64]</text>
<polygon fill="none" stroke="#000000" points="202,-711.7 202,-733.7 376,-733.7 376,-711.7 202,-711.7"/>
<image xlink:href="../../images/foreignKeys.png" width="11px" height="12px" preserveAspectRatio="xMinYMin meet" x="207" y="-728.7"/>
<text text-anchor="start" x="222" y="-718.8" font-family="Helvetica,sans-Serif" font-size="11.00" fill="#000000">allocation_reason_id</text>
<polygon fill="none" stroke="#000000" points="376,-711.7 376,-733.7 470,-733.7 470,-711.7 376,-711.7"/>
<text text-anchor="start" x="379" y="-719.4" font-family="Helvetica,sans-Serif" font-size="11.00" fill="#000000">int8[19]</text>
<polygon fill="#ffffff" stroke="transparent" points="202,-689.7 202,-711.7 376,-711.7 376,-689.7 202,-689.7"/>
<polygon fill="none" stroke="#000000" points="202,-689.7 202,-711.7 376,-711.7 376,-689.7 202,-689.7"/>
<text text-anchor="start" x="222" y="-696.8" font-family="Helvetica,sans-Serif" font-size="11.00" fill="#000000">deallocated_at</text>
<polygon fill="none" stroke="#000000" points="376,-689.7 376,-711.7 470,-711.7 470,-689.7 376,-689.7"/>
<text text-anchor="start" x="379" y="-697.4" font-family="Helvetica,sans-Serif" font-size="11.00" fill="#000000">timestamp[29,6]</text>
<polygon fill="none" stroke="#000000" points="202,-667.7 202,-689.7 376,-689.7 376,-667.7 202,-667.7"/>
<image xlink:href="../../images/foreignKeys.png" width="11px" height="12px" preserveAspectRatio="xMinYMin meet" x="207" y="-684.7"/>
<text text-anchor="start" x="222" y="-674.8" font-family="Helvetica,sans-Serif" font-size="11.00" fill="#000000">deallocation_reason_id</text>
<polygon fill="none" stroke="#000000" points="376,-667.7 376,-689.7 470,-689.7 470,-667.7 376,-667.7"/>
<text text-anchor="start" x="379" y="-675.4" font-family="Helvetica,sans-Serif" font-size="11.00" fill="#000000">int8[19]</text>
<polygon fill="none" stroke="#000000" points="202,-645.7 202,-667.7 376,-667.7 376,-645.7 202,-645.7"/>
<text text-anchor="start" x="222" y="-652.8" font-family="Helvetica,sans-Serif" font-size="11.00" fill="#000000">deallocated_by</text>
<polygon fill="none" stroke="#000000" points="376,-645.7 376,-667.7 470,-667.7 470,-645.7 376,-645.7"/>
<text text-anchor="start" x="379" y="-653.4" font-family="Helvetica,sans-Serif" font-size="11.00" fill="#000000">varchar[64]</text>
<polygon fill="none" stroke="#000000" points="202,-623.7 202,-645.7 376,-645.7 376,-623.7 202,-623.7"/>
<text text-anchor="start" x="222" y="-630.8" font-family="Helvetica,sans-Serif" font-size="11.00" fill="#000000">is_active</text>
<polygon fill="none" stroke="#000000" points="376,-623.7 376,-645.7 470,-645.7 470,-623.7 376,-623.7"/>
<text text-anchor="start" x="379" y="-631.4" font-family="Helvetica,sans-Serif" font-size="11.00" fill="#000000">bool[1]</text>
<polygon fill="#ffffff" stroke="transparent" points="202,-601.7 202,-623.7 376,-623.7 376,-601.7 202,-601.7"/>
<polygon fill="none" stroke="#000000" points="202,-601.7 202,-623.7 376,-623.7 376,-601.7 202,-601.7"/>
<image xlink:href="../../images/foreignKeys.png" width="11px" height="12px" preserveAspectRatio="xMinYMin meet" x="207" y="-618.7"/>
<text text-anchor="start" x="222" y="-608.8" font-family="Helvetica,sans-Serif" font-size="11.00" fill="#000000">policy_code</text>
<polygon fill="none" stroke="#000000" points="376,-601.7 376,-623.7 470,-623.7 470,-601.7 376,-601.7"/>
<text text-anchor="start" x="379" y="-609.4" font-family="Helvetica,sans-Serif" font-size="11.00" fill="#000000">varchar[16]</text>
<polygon fill="none" stroke="#000000" points="202,-579.7 202,-601.7 376,-601.7 376,-579.7 202,-579.7"/>
<text text-anchor="start" x="222" y="-586.8" font-family="Helvetica,sans-Serif" font-size="11.00" fill="#000000">version</text>
<polygon fill="none" stroke="#000000" points="376,-579.7 376,-601.7 470,-601.7 470,-579.7 376,-579.7"/>
<text text-anchor="start" x="379" y="-587.4" font-family="Helvetica,sans-Serif" font-size="11.00" fill="#000000">int4[10]</text>
<polygon fill="#ffffff" stroke="transparent" points="202,-560.7 202,-579.7 293,-579.7 293,-560.7 202,-560.7"/>
<polygon fill="none" stroke="#000000" points="202,-560.7 202,-579.7 293,-579.7 293,-560.7 202,-560.7"/>
<text text-anchor="start" x="205" y="-566.8" font-family="Helvetica,sans-Serif" font-size="11.00" fill="#000000">&lt; 3</text>
<polygon fill="#ffffff" stroke="transparent" points="293,-560.7 293,-579.7 376,-579.7 376,-560.7 293,-560.7"/>
<polygon fill="none" stroke="#000000" points="293,-560.7 293,-579.7 376,-579.7 376,-560.7 293,-560.7"/>
<text text-anchor="start" x="366.8862" y="-566.8" font-family="Helvetica,sans-Serif" font-size="11.00" fill="#000000"> &#160;</text>
<polygon fill="#ffffff" stroke="transparent" points="376,-560.7 376,-579.7 470,-579.7 470,-560.7 376,-560.7"/>
<polygon fill="none" stroke="#000000" points="376,-560.7 376,-579.7 470,-579.7 470,-560.7 376,-560.7"/>
<text text-anchor="start" x="451.4053" y="-566.8" font-family="Helvetica,sans-Serif" font-size="11.00" fill="#000000">0 &gt;</text>
<polygon fill="none" stroke="#000000" stroke-width="2" points="201,-559.7 201,-889.7 471,-889.7 471,-559.7 201,-559.7"/>
</a>
</g>
</g>
<!-- reference_data -->
<g id="node2" class="node">
<title>reference_data</title>
<g id="a_node2"><a xlink:href="../../tables/reference_data.html" xlink:title="reference_data" target="_top">
<polygon fill="#ffffff" stroke="transparent" points="8,-389.2 8,-538.2 151,-538.2 151,-389.2 8,-389.2"/>
<polygon fill="#f5f5f5" stroke="transparent" points="8.5,-514.7 8.5,-537.7 151.5,-537.7 151.5,-514.7 8.5,-514.7"/>
<polygon fill="none" stroke="#000000" points="8.5,-514.7 8.5,-537.7 151.5,-537.7 151.5,-514.7 8.5,-514.7"/>
<text text-anchor="start" x="13.5" y="-523.3" font-family="Helvetica,sans-Serif" font-weight="bold" font-size="11.00" fill="#000000">reference_data</text>
<text text-anchor="start" x="116.5437" y="-522.8" font-family="Helvetica,sans-Serif" font-size="11.00" fill="#000000">[table]</text>
<polygon fill="none" stroke="#000000" points="8.5,-492.7 8.5,-514.7 151.5,-514.7 151.5,-492.7 8.5,-492.7"/>
<image xlink:href="../../images/primaryKeys.png" width="11px" height="12px" preserveAspectRatio="xMinYMin meet" x="13.5" y="-509.7"/>
<text text-anchor="start" x="28.5" y="-499.8" font-family="Helvetica,sans-Serif" font-size="11.00" fill="#000000">id</text>
<polygon fill="#ffffff" stroke="transparent" points="8.5,-470.7 8.5,-492.7 151.5,-492.7 151.5,-470.7 8.5,-470.7"/>
<polygon fill="none" stroke="#000000" points="8.5,-470.7 8.5,-492.7 151.5,-492.7 151.5,-470.7 8.5,-470.7"/>
<text text-anchor="start" x="28.5" y="-477.8" font-family="Helvetica,sans-Serif" font-size="11.00" fill="#000000">domain</text>
<polygon fill="#ffffff" stroke="transparent" points="8.5,-448.7 8.5,-470.7 151.5,-470.7 151.5,-448.7 8.5,-448.7"/>
<polygon fill="none" stroke="#000000" points="8.5,-448.7 8.5,-470.7 151.5,-470.7 151.5,-448.7 8.5,-448.7"/>
<text text-anchor="start" x="28.5" y="-455.8" font-family="Helvetica,sans-Serif" font-size="11.00" fill="#000000">code</text>
<polygon fill="#ffffff" stroke="transparent" points="8.5,-426.7 8.5,-448.7 151.5,-448.7 151.5,-426.7 8.5,-426.7"/>
<polygon fill="none" stroke="#000000" points="8.5,-426.7 8.5,-448.7 151.5,-448.7 151.5,-426.7 8.5,-426.7"/>
<text text-anchor="start" x="28.5" y="-433.8" font-family="Helvetica,sans-Serif" font-size="11.00" fill="#000000">sequence_number</text>
<polygon fill="none" stroke="#000000" points="8.5,-407.7 8.5,-426.7 151.5,-426.7 151.5,-407.7 8.5,-407.7"/>
<text text-anchor="start" x="11.5" y="-413.8" font-family="Helvetica,sans-Serif" font-size="11.00" fill="#000000">...</text>
<polygon fill="#ffffff" stroke="transparent" points="8.5,-388.7 8.5,-407.7 69.5,-407.7 69.5,-388.7 8.5,-388.7"/>
<polygon fill="none" stroke="#000000" points="8.5,-388.7 8.5,-407.7 69.5,-407.7 69.5,-388.7 8.5,-388.7"/>
<text text-anchor="start" x="11.5" y="-394.8" font-family="Helvetica,sans-Serif" font-size="11.00" fill="#000000"> &#160;</text>
<polygon fill="#ffffff" stroke="transparent" points="69.5,-388.7 69.5,-407.7 105.5,-407.7 105.5,-388.7 69.5,-388.7"/>
<polygon fill="none" stroke="#000000" points="69.5,-388.7 69.5,-407.7 105.5,-407.7 105.5,-388.7 69.5,-388.7"/>
<text text-anchor="start" x="96.3862" y="-394.8" font-family="Helvetica,sans-Serif" font-size="11.00" fill="#000000"> &#160;</text>
<polygon fill="#ffffff" stroke="transparent" points="105.5,-388.7 105.5,-407.7 151.5,-407.7 151.5,-388.7 105.5,-388.7"/>
<polygon fill="none" stroke="#000000" points="105.5,-388.7 105.5,-407.7 151.5,-407.7 151.5,-388.7 105.5,-388.7"/>
<text text-anchor="start" x="132.9053" y="-394.8" font-family="Helvetica,sans-Serif" font-size="11.00" fill="#000000">5 &gt;</text>
</a>
</g>
</g>
<!-- allocation&#45;&gt;reference_data -->
<g id="edge1" class="edge">
<title>allocation:w&#45;&gt;reference_data:e</title>
<path fill="none" stroke="#000000" d="M187.3344,-720.6718C118.2231,-698.594 245.7299,-503.7 151.5,-503.7"/>
<polygon fill="#000000" stroke="#000000" points="194.0754,-721.604 201.5068,-726.2661 198.0377,-722.152 202,-722.7 202,-722.7 202,-722.7 198.0377,-722.152 202.4932,-719.1339 194.0754,-721.604 194.0754,-721.604"/>
<ellipse fill="none" stroke="#000000" cx="190.9056" cy="-721.1656" rx="3.2" ry="3.2"/>
</g>
<!-- allocation&#45;&gt;reference_data -->
<g id="edge2" class="edge">
<title>allocation:w&#45;&gt;reference_data:e</title>
<path fill="none" stroke="#000000" d="M187.6435,-676.2261C135.7636,-654.9558 226.7595,-503.7 151.5,-503.7"/>
<polygon fill="#000000" stroke="#000000" points="194.1162,-677.3414 201.3887,-682.2477 198.0581,-678.0207 202,-678.7 202,-678.7 202,-678.7 198.0581,-678.0207 202.6113,-675.1523 194.1162,-677.3414 194.1162,-677.3414"/>
<ellipse fill="none" stroke="#000000" cx="190.9627" cy="-676.798" rx="3.2" ry="3.2"/>
</g>
<!-- policy -->
<g id="node3" class="node">
<title>policy</title>
<g id="a_node3"><a xlink:href="../../tables/policy.html" xlink:title="policy" target="_top">
<polygon fill="#ffffff" stroke="transparent" points="31,-247.2 31,-330.2 128,-330.2 128,-247.2 31,-247.2"/>
<polygon fill="#f5f5f5" stroke="transparent" points="31.5,-306.7 31.5,-329.7 128.5,-329.7 128.5,-306.7 31.5,-306.7"/>
<polygon fill="none" stroke="#000000" points="31.5,-306.7 31.5,-329.7 128.5,-329.7 128.5,-306.7 31.5,-306.7"/>
<text text-anchor="start" x="36.5" y="-315.3" font-family="Helvetica,sans-Serif" font-weight="bold" font-size="11.00" fill="#000000">policy</text>
<text text-anchor="start" x="93.5437" y="-314.8" font-family="Helvetica,sans-Serif" font-size="11.00" fill="#000000">[table]</text>
<polygon fill="none" stroke="#000000" points="31.5,-284.7 31.5,-306.7 128.5,-306.7 128.5,-284.7 31.5,-284.7"/>
<image xlink:href="../../images/primaryKeys.png" width="11px" height="12px" preserveAspectRatio="xMinYMin meet" x="36.5" y="-301.7"/>
<text text-anchor="start" x="51.5" y="-291.8" font-family="Helvetica,sans-Serif" font-size="11.00" fill="#000000">code</text>
<polygon fill="none" stroke="#000000" points="31.5,-265.7 31.5,-284.7 128.5,-284.7 128.5,-265.7 31.5,-265.7"/>
<text text-anchor="start" x="34.5" y="-271.8" font-family="Helvetica,sans-Serif" font-size="11.00" fill="#000000">...</text>
<polygon fill="#ffffff" stroke="transparent" points="31.5,-246.7 31.5,-265.7 69.5,-265.7 69.5,-246.7 31.5,-246.7"/>
<polygon fill="none" stroke="#000000" points="31.5,-246.7 31.5,-265.7 69.5,-265.7 69.5,-246.7 31.5,-246.7"/>
<text text-anchor="start" x="34.5" y="-252.8" font-family="Helvetica,sans-Serif" font-size="11.00" fill="#000000"> &#160;</text>
<polygon fill="#ffffff" stroke="transparent" points="69.5,-246.7 69.5,-265.7 94.5,-265.7 94.5,-246.7 69.5,-246.7"/>
<polygon fill="none" stroke="#000000" points="69.5,-246.7 69.5,-265.7 94.5,-265.7 94.5,-246.7 69.5,-246.7"/>
<text text-anchor="start" x="85.3862" y="-252.8" font-family="Helvetica,sans-Serif" font-size="11.00" fill="#000000"> &#160;</text>
<polygon fill="#ffffff" stroke="transparent" points="94.5,-246.7 94.5,-265.7 128.5,-265.7 128.5,-246.7 94.5,-246.7"/>
<polygon fill="none" stroke="#000000" points="94.5,-246.7 94.5,-265.7 128.5,-265.7 128.5,-246.7 94.5,-246.7"/>
<text text-anchor="start" x="109.9053" y="-252.8" font-family="Helvetica,sans-Serif" font-size="11.00" fill="#000000">8 &gt;</text>
</a>
</g>
</g>
<!-- allocation&#45;&gt;policy -->
<g id="edge3" class="edge">
<title>allocation:w&#45;&gt;policy:e</title>
<path fill="none" stroke="#000000" d="M188.1521,-607.7207C139.4545,-567.3915 195.4462,-295.7 128.5,-295.7"/>
<polygon fill="#000000" stroke="#000000" points="194.4719,-609.9931 200.7819,-616.0877 198.2359,-611.3465 202,-612.7 202,-612.7 202,-612.7 198.2359,-611.3465 203.2181,-609.3123 194.4719,-609.9931 194.4719,-609.9931"/>
<ellipse fill="none" stroke="#000000" cx="191.4606" cy="-608.9103" rx="3.2" ry="3.2"/>
</g>
<!-- prison_configuration -->
<g id="node4" class="node">
<title>prison_configuration</title>
<g id="a_node4"><a xlink:href="../../tables/prison_configuration.html" xlink:title="prison_configuration" target="_top">
<polygon fill="#ffffff" stroke="transparent" points="247,-230.2 247,-291.2 425,-291.2 425,-230.2 247,-230.2"/>
<polygon fill="#f5f5f5" stroke="transparent" points="247,-267.7 247,-290.7 425,-290.7 425,-267.7 247,-267.7"/>
<polygon fill="none" stroke="#000000" points="247,-267.7 247,-290.7 425,-290.7 425,-267.7 247,-267.7"/>
<text text-anchor="start" x="252" y="-276.3" font-family="Helvetica,sans-Serif" font-weight="bold" font-size="11.00" fill="#000000">prison_configuration</text>
<text text-anchor="start" x="390.5219" y="-275.8" font-family="Helvetica,sans-Serif" font-size="11.00" fill="#000000">[table]</text>
<polygon fill="none" stroke="#000000" points="247,-248.7 247,-267.7 425,-267.7 425,-248.7 247,-248.7"/>
<text text-anchor="start" x="250" y="-254.8" font-family="Helvetica,sans-Serif" font-size="11.00" fill="#000000">...</text>
<polygon fill="#ffffff" stroke="transparent" points="247,-229.7 247,-248.7 318,-248.7 318,-229.7 247,-229.7"/>
<polygon fill="none" stroke="#000000" points="247,-229.7 247,-248.7 318,-248.7 318,-229.7 247,-229.7"/>
<text text-anchor="start" x="250" y="-235.8" font-family="Helvetica,sans-Serif" font-size="11.00" fill="#000000">&lt; 1</text>
<polygon fill="#ffffff" stroke="transparent" points="318,-229.7 318,-248.7 387,-248.7 387,-229.7 318,-229.7"/>
<polygon fill="none" stroke="#000000" points="318,-229.7 318,-248.7 387,-248.7 387,-229.7 318,-229.7"/>
<text text-anchor="start" x="345.4956" y="-235.8" font-family="Helvetica,sans-Serif" font-size="11.00" fill="#000000">12 rows</text>
<polygon fill="#ffffff" stroke="transparent" points="387,-229.7 387,-248.7 425,-248.7 425,-229.7 387,-229.7"/>
<polygon fill="none" stroke="#000000" points="387,-229.7 387,-248.7 425,-248.7 425,-229.7 387,-229.7"/>
<text text-anchor="start" x="415.8862" y="-235.8" font-family="Helvetica,sans-Serif" font-size="11.00" fill="#000000"> &#160;</text>
</a>
</g>
</g>
<!-- prison_configuration&#45;&gt;policy -->
<g id="edge4" class="edge">
<title>prison_configuration:w&#45;&gt;policy:e</title>
<path fill="none" stroke="#000000" d="M232.6168,-258.6393C189.7967,-264.491 178.6232,-295.7 128.5,-295.7"/>
<polygon fill="#000000" stroke="#000000" points="239.017,-258.2214 247.2346,-261.2923 243.0085,-257.9607 247,-257.7 247,-257.7 247,-257.7 243.0085,-257.9607 246.7654,-254.1077 239.017,-258.2214 239.017,-258.2214"/>
<ellipse fill="none" stroke="#000000" cx="235.8238" cy="-258.43" rx="3.2" ry="3.2"/>
</g>
<!-- prison_statistic -->
<g id="node5" class="node">
<title>prison_statistic</title>
<g id="a_node5"><a xlink:href="../../tables/prison_statistic.html" xlink:title="prison_statistic" target="_top">
<polygon fill="#ffffff" stroke="transparent" points="265,-148.2 265,-209.2 407,-209.2 407,-148.2 265,-148.2"/>
<polygon fill="#f5f5f5" stroke="transparent" points="265,-185.7 265,-208.7 407,-208.7 407,-185.7 265,-185.7"/>
<polygon fill="none" stroke="#000000" points="265,-185.7 265,-208.7 407,-208.7 407,-185.7 265,-185.7"/>
<text text-anchor="start" x="270" y="-194.3" font-family="Helvetica,sans-Serif" font-weight="bold" font-size="11.00" fill="#000000">prison_statistic</text>
<text text-anchor="start" x="372.5219" y="-193.8" font-family="Helvetica,sans-Serif" font-size="11.00" fill="#000000">[table]</text>
<polygon fill="none" stroke="#000000" points="265,-166.7 265,-185.7 407,-185.7 407,-166.7 265,-166.7"/>
<text text-anchor="start" x="268" y="-172.8" font-family="Helvetica,sans-Serif" font-size="11.00" fill="#000000">...</text>
<polygon fill="#ffffff" stroke="transparent" points="265,-147.7 265,-166.7 330,-166.7 330,-147.7 265,-147.7"/>
<polygon fill="none" stroke="#000000" points="265,-147.7 265,-166.7 330,-166.7 330,-147.7 265,-147.7"/>
<text text-anchor="start" x="268" y="-153.8" font-family="Helvetica,sans-Serif" font-size="11.00" fill="#000000">&lt; 1</text>
<polygon fill="#ffffff" stroke="transparent" points="330,-147.7 330,-166.7 364,-166.7 364,-147.7 330,-147.7"/>
<polygon fill="none" stroke="#000000" points="330,-147.7 330,-166.7 364,-166.7 364,-147.7 330,-147.7"/>
<text text-anchor="start" x="354.8862" y="-153.8" font-family="Helvetica,sans-Serif" font-size="11.00" fill="#000000"> &#160;</text>
<polygon fill="#ffffff" stroke="transparent" points="364,-147.7 364,-166.7 407,-166.7 407,-147.7 364,-147.7"/>
<polygon fill="none" stroke="#000000" points="364,-147.7 364,-166.7 407,-166.7 407,-147.7 364,-147.7"/>
<text text-anchor="start" x="388.4053" y="-153.8" font-family="Helvetica,sans-Serif" font-size="11.00" fill="#000000">1 &gt;</text>
</a>
</g>
</g>
<!-- prison_statistic&#45;&gt;policy -->
<g id="edge5" class="edge">
<title>prison_statistic:w&#45;&gt;policy:e</title>
<path fill="none" stroke="#000000" d="M250.3874,-176.8701C224.8128,-181.4034 216.6059,-198.6105 192,-219.7 158.5796,-248.3445 172.5163,-295.7 128.5,-295.7"/>
<polygon fill="#000000" stroke="#000000" points="257.0255,-176.3386 265.2874,-179.2885 261.0128,-176.0193 265,-175.7 265,-175.7 265,-175.7 261.0128,-176.0193 264.7126,-172.1115 257.0255,-176.3386 257.0255,-176.3386"/>
<ellipse fill="none" stroke="#000000" cx="253.8357" cy="-176.594" rx="3.2" ry="3.2"/>
</g>
<!-- prisoner_statistic -->
<g id="node6" class="node">
<title>prisoner_statistic</title>
<g id="a_node6"><a xlink:href="../../tables/prisoner_statistic.html" xlink:title="prisoner_statistic" target="_top">
<polygon fill="#ffffff" stroke="transparent" points="521,-122.2 521,-183.2 677,-183.2 677,-122.2 521,-122.2"/>
<polygon fill="#f5f5f5" stroke="transparent" points="521,-159.7 521,-182.7 677,-182.7 677,-159.7 521,-159.7"/>
<polygon fill="none" stroke="#000000" points="521,-159.7 521,-182.7 677,-182.7 677,-159.7 521,-159.7"/>
<text text-anchor="start" x="526" y="-168.3" font-family="Helvetica,sans-Serif" font-weight="bold" font-size="11.00" fill="#000000">prisoner_statistic</text>
<text text-anchor="start" x="642.5219" y="-167.8" font-family="Helvetica,sans-Serif" font-size="11.00" fill="#000000">[table]</text>
<polygon fill="none" stroke="#000000" points="521,-140.7 521,-159.7 677,-159.7 677,-140.7 521,-140.7"/>
<text text-anchor="start" x="524" y="-146.8" font-family="Helvetica,sans-Serif" font-size="11.00" fill="#000000">...</text>
<polygon fill="#ffffff" stroke="transparent" points="521,-121.7 521,-140.7 597,-140.7 597,-121.7 521,-121.7"/>
<polygon fill="none" stroke="#000000" points="521,-121.7 521,-140.7 597,-140.7 597,-121.7 521,-121.7"/>
<text text-anchor="start" x="524" y="-127.8" font-family="Helvetica,sans-Serif" font-size="11.00" fill="#000000">&lt; 2</text>
<polygon fill="#ffffff" stroke="transparent" points="597,-121.7 597,-140.7 637,-140.7 637,-121.7 597,-121.7"/>
<polygon fill="none" stroke="#000000" points="597,-121.7 597,-140.7 637,-140.7 637,-121.7 597,-121.7"/>
<text text-anchor="start" x="627.8862" y="-127.8" font-family="Helvetica,sans-Serif" font-size="11.00" fill="#000000"> &#160;</text>
<polygon fill="#ffffff" stroke="transparent" points="637,-121.7 637,-140.7 677,-140.7 677,-121.7 637,-121.7"/>
<polygon fill="none" stroke="#000000" points="637,-121.7 637,-140.7 677,-140.7 677,-121.7 637,-121.7"/>
<text text-anchor="start" x="667.8862" y="-127.8" font-family="Helvetica,sans-Serif" font-size="11.00" fill="#000000"> &#160;</text>
</a>
</g>
</g>
<!-- prisoner_statistic&#45;&gt;policy -->
<g id="edge6" class="edge">
<title>prisoner_statistic:w&#45;&gt;policy:e</title>
<path fill="none" stroke="#000000" d="M506.5783,-147.3587C498.3532,-144.4167 492.7744,-139.531 480,-137.7 416.6475,-128.6194 245.0256,-101.8631 192,-137.7 129.2961,-180.0778 204.1813,-295.7 128.5,-295.7"/>
<polygon fill="#000000" stroke="#000000" points="513.1034,-148.418 520.4231,-153.2535 517.0517,-149.059 521,-149.7 521,-149.7 521,-149.7 517.0517,-149.059 521.5769,-146.1465 513.1034,-148.418 513.1034,-148.418"/>
<ellipse fill="none" stroke="#000000" cx="509.9447" cy="-147.9052" rx="3.2" ry="3.2"/>
</g>
<!-- prisoner_statistic&#45;&gt;prison_statistic -->
<g id="edge7" class="edge">
<title>prisoner_statistic:w&#45;&gt;prison_statistic:e</title>
<path fill="none" stroke="#000000" d="M506.375,-150.4501C466.5557,-154.7131 453.6897,-175.7 407,-175.7"/>
<polygon fill="#000000" stroke="#000000" points="513.0105,-150.1098 521.1844,-153.2953 517.0053,-149.9049 521,-149.7 521,-149.7 521,-149.7 517.0053,-149.9049 520.8156,-146.1047 513.0105,-150.1098 513.0105,-150.1098"/>
<ellipse fill="none" stroke="#000000" cx="509.8147" cy="-150.2737" rx="3.2" ry="3.2"/>
</g>
<!-- recorded_event -->
<g id="node7" class="node">
<title>recorded_event</title>
<g id="a_node7"><a xlink:href="../../tables/recorded_event.html" xlink:title="recorded_event" target="_top">
<polygon fill="#ffffff" stroke="transparent" points="264,-476.2 264,-537.2 408,-537.2 408,-476.2 264,-476.2"/>
<polygon fill="#f5f5f5" stroke="transparent" points="264,-513.7 264,-536.7 408,-536.7 408,-513.7 264,-513.7"/>
<polygon fill="none" stroke="#000000" points="264,-513.7 264,-536.7 408,-536.7 408,-513.7 264,-513.7"/>
<text text-anchor="start" x="269" y="-522.3" font-family="Helvetica,sans-Serif" font-weight="bold" font-size="11.00" fill="#000000">recorded_event</text>
<text text-anchor="start" x="373.5219" y="-521.8" font-family="Helvetica,sans-Serif" font-size="11.00" fill="#000000">[table]</text>
<polygon fill="none" stroke="#000000" points="264,-494.7 264,-513.7 408,-513.7 408,-494.7 264,-494.7"/>
<text text-anchor="start" x="267" y="-500.8" font-family="Helvetica,sans-Serif" font-size="11.00" fill="#000000">...</text>
<polygon fill="#ffffff" stroke="transparent" points="264,-475.7 264,-494.7 334,-494.7 334,-475.7 264,-475.7"/>
<polygon fill="none" stroke="#000000" points="264,-475.7 264,-494.7 334,-494.7 334,-475.7 264,-475.7"/>
<text text-anchor="start" x="267" y="-481.8" font-family="Helvetica,sans-Serif" font-size="11.00" fill="#000000">&lt; 2</text>
<polygon fill="#ffffff" stroke="transparent" points="334,-475.7 334,-494.7 371,-494.7 371,-475.7 334,-475.7"/>
<polygon fill="none" stroke="#000000" points="334,-475.7 334,-494.7 371,-494.7 371,-475.7 334,-475.7"/>
<text text-anchor="start" x="361.8862" y="-481.8" font-family="Helvetica,sans-Serif" font-size="11.00" fill="#000000"> &#160;</text>
<polygon fill="#ffffff" stroke="transparent" points="371,-475.7 371,-494.7 408,-494.7 408,-475.7 371,-475.7"/>
<polygon fill="none" stroke="#000000" points="371,-475.7 371,-494.7 408,-494.7 408,-475.7 371,-475.7"/>
<text text-anchor="start" x="398.8862" y="-481.8" font-family="Helvetica,sans-Serif" font-size="11.00" fill="#000000"> &#160;</text>
</a>
</g>
</g>
<!-- recorded_event&#45;&gt;reference_data -->
<g id="edge9" class="edge">
<title>recorded_event:w&#45;&gt;reference_data:e</title>
<path fill="none" stroke="#000000" d="M249.595,-503.7C211.0103,-503.7 196.3242,-503.7 151.5,-503.7"/>
<polygon fill="#000000" stroke="#000000" points="256,-503.7001 264,-507.3 260,-503.7 264,-503.7 264,-503.7 264,-503.7 260,-503.7 264,-500.1 256,-503.7001 256,-503.7001"/>
<ellipse fill="none" stroke="#000000" cx="252.8" cy="-503.7001" rx="3.2" ry="3.2"/>
</g>
<!-- recorded_event&#45;&gt;policy -->
<g id="edge8" class="edge">
<title>recorded_event:w&#45;&gt;policy:e</title>
<path fill="none" stroke="#000000" d="M249.3723,-502.9662C224.0136,-500.1251 212.3479,-488.8379 192,-465.7 138.7373,-405.1342 209.1544,-295.7 128.5,-295.7"/>
<polygon fill="#000000" stroke="#000000" points="256.01,-503.2991 263.8196,-507.2955 260.005,-503.4996 264,-503.7 264,-503.7 264,-503.7 260.005,-503.4996 264.1804,-500.1045 256.01,-503.2991 256.01,-503.2991"/>
<ellipse fill="none" stroke="#000000" cx="252.8141" cy="-503.1388" rx="3.2" ry="3.2"/>
</g>
<!-- recorded_event_audit -->
<g id="node8" class="node">
<title>recorded_event_audit</title>
<g id="a_node8"><a xlink:href="../../tables/recorded_event_audit.html" xlink:title="recorded_event_audit" target="_top">
<polygon fill="#ffffff" stroke="transparent" points="243.5,-38.2 243.5,-99.2 428.5,-99.2 428.5,-38.2 243.5,-38.2"/>
<polygon fill="#f5f5f5" stroke="transparent" points="244,-75.7 244,-98.7 429,-98.7 429,-75.7 244,-75.7"/>
<polygon fill="none" stroke="#000000" points="244,-75.7 244,-98.7 429,-98.7 429,-75.7 244,-75.7"/>
<text text-anchor="start" x="249" y="-84.3" font-family="Helvetica,sans-Serif" font-weight="bold" font-size="11.00" fill="#000000">recorded_event_audit</text>
<text text-anchor="start" x="394.5219" y="-83.8" font-family="Helvetica,sans-Serif" font-size="11.00" fill="#000000">[table]</text>
<polygon fill="none" stroke="#000000" points="244,-56.7 244,-75.7 429,-75.7 429,-56.7 244,-56.7"/>
<text text-anchor="start" x="247" y="-62.8" font-family="Helvetica,sans-Serif" font-size="11.00" fill="#000000">...</text>
<polygon fill="#ffffff" stroke="transparent" points="244,-37.7 244,-56.7 335,-56.7 335,-37.7 244,-37.7"/>
<polygon fill="none" stroke="#000000" points="244,-37.7 244,-56.7 335,-56.7 335,-37.7 244,-37.7"/>
<text text-anchor="start" x="247" y="-43.8" font-family="Helvetica,sans-Serif" font-size="11.00" fill="#000000">&lt; 2</text>
<polygon fill="#ffffff" stroke="transparent" points="335,-37.7 335,-56.7 382,-56.7 382,-37.7 335,-37.7"/>
<polygon fill="none" stroke="#000000" points="335,-37.7 335,-56.7 382,-56.7 382,-37.7 335,-37.7"/>
<text text-anchor="start" x="372.8862" y="-43.8" font-family="Helvetica,sans-Serif" font-size="11.00" fill="#000000"> &#160;</text>
<polygon fill="#ffffff" stroke="transparent" points="382,-37.7 382,-56.7 429,-56.7 429,-37.7 382,-37.7"/>
<polygon fill="none" stroke="#000000" points="382,-37.7 382,-56.7 429,-56.7 429,-37.7 382,-37.7"/>
<text text-anchor="start" x="419.8862" y="-43.8" font-family="Helvetica,sans-Serif" font-size="11.00" fill="#000000"> &#160;</text>
</a>
</g>
</g>
<!-- recorded_event_audit&#45;&gt;policy -->
<g id="edge10" class="edge">
<title>recorded_event_audit:w&#45;&gt;policy:e</title>
<path fill="none" stroke="#000000" d="M229.6442,-67.1091C139.5312,-86.3287 237.6373,-295.7 128.5,-295.7"/>
<polygon fill="#000000" stroke="#000000" points="236.0383,-66.4815 244.3517,-69.2828 240.0191,-66.0908 244,-65.7 244,-65.7 244,-65.7 240.0191,-66.0908 243.6483,-62.1172 236.0383,-66.4815 236.0383,-66.4815"/>
<ellipse fill="none" stroke="#000000" cx="232.8536" cy="-66.7942" rx="3.2" ry="3.2"/>
</g>
<!-- reference_data_policy -->
<g id="node9" class="node">
<title>reference_data_policy</title>
<g id="a_node9"><a xlink:href="../../tables/reference_data_policy.html" xlink:title="reference_data_policy" target="_top">
<polygon fill="#ffffff" stroke="transparent" points="243,-394.2 243,-455.2 429,-455.2 429,-394.2 243,-394.2"/>
<polygon fill="#f5f5f5" stroke="transparent" points="243,-431.7 243,-454.7 429,-454.7 429,-431.7 243,-431.7"/>
<polygon fill="none" stroke="#000000" points="243,-431.7 243,-454.7 429,-454.7 429,-431.7 243,-431.7"/>
<text text-anchor="start" x="248" y="-440.3" font-family="Helvetica,sans-Serif" font-weight="bold" font-size="11.00" fill="#000000">reference_data_policy</text>
<text text-anchor="start" x="394.5219" y="-439.8" font-family="Helvetica,sans-Serif" font-size="11.00" fill="#000000">[table]</text>
<polygon fill="none" stroke="#000000" points="243,-412.7 243,-431.7 429,-431.7 429,-412.7 243,-412.7"/>
<text text-anchor="start" x="246" y="-418.8" font-family="Helvetica,sans-Serif" font-size="11.00" fill="#000000">...</text>
<polygon fill="#ffffff" stroke="transparent" points="243,-393.7 243,-412.7 334,-412.7 334,-393.7 243,-393.7"/>
<polygon fill="none" stroke="#000000" points="243,-393.7 243,-412.7 334,-412.7 334,-393.7 243,-393.7"/>
<text text-anchor="start" x="246" y="-399.8" font-family="Helvetica,sans-Serif" font-size="11.00" fill="#000000">&lt; 2</text>
<polygon fill="#ffffff" stroke="transparent" points="334,-393.7 334,-412.7 381,-412.7 381,-393.7 334,-393.7"/>
<polygon fill="none" stroke="#000000" points="334,-393.7 334,-412.7 381,-412.7 381,-393.7 334,-393.7"/>
<text text-anchor="start" x="371.8862" y="-399.8" font-family="Helvetica,sans-Serif" font-size="11.00" fill="#000000"> &#160;</text>
<polygon fill="#ffffff" stroke="transparent" points="381,-393.7 381,-412.7 429,-412.7 429,-393.7 381,-393.7"/>
<polygon fill="none" stroke="#000000" points="381,-393.7 381,-412.7 429,-412.7 429,-393.7 381,-393.7"/>
<text text-anchor="start" x="419.8862" y="-399.8" font-family="Helvetica,sans-Serif" font-size="11.00" fill="#000000"> &#160;</text>
</a>
</g>
</g>
<!-- reference_data_policy&#45;&gt;reference_data -->
<g id="edge11" class="edge">
<title>reference_data_policy:w&#45;&gt;reference_data:e</title>
<path fill="none" stroke="#000000" d="M228.6147,-424.2358C212.6341,-430.9149 209.9074,-449.5869 192,-465.7 173.6517,-482.2098 176.1827,-503.7 151.5,-503.7"/>
<polygon fill="#000000" stroke="#000000" points="235.1215,-423.0888 243.625,-425.2453 239.0607,-422.3944 243,-421.7 243,-421.7 243,-421.7 239.0607,-422.3944 242.375,-418.1547 235.1215,-423.0888 235.1215,-423.0888"/>
<ellipse fill="none" stroke="#000000" cx="231.9701" cy="-423.6443" rx="3.2" ry="3.2"/>
</g>
<!-- reference_data_policy&#45;&gt;policy -->
<g id="edge12" class="edge">
<title>reference_data_policy:w&#45;&gt;policy:e</title>
<path fill="none" stroke="#000000" d="M228.5604,-419.6199C212.8568,-414.3502 207.8055,-399.7489 192,-383.7 158.1576,-349.3363 176.7304,-295.7 128.5,-295.7"/>
<polygon fill="#000000" stroke="#000000" points="235.0817,-420.5593 242.4867,-425.2632 239.0409,-421.1296 243,-421.7 243,-421.7 243,-421.7 239.0409,-421.1296 243.5133,-418.1368 235.0817,-420.5593 235.0817,-420.5593"/>
<ellipse fill="none" stroke="#000000" cx="231.9144" cy="-420.103" rx="3.2" ry="3.2"/>
</g>
<!-- staff_configuration -->
<g id="node10" class="node">
<title>staff_configuration</title>
<g id="a_node10"><a xlink:href="../../tables/staff_configuration.html" xlink:title="staff_configuration" target="_top">
<polygon fill="#ffffff" stroke="transparent" points="252.5,-312.2 252.5,-373.2 419.5,-373.2 419.5,-312.2 252.5,-312.2"/>
<polygon fill="#f5f5f5" stroke="transparent" points="253,-349.7 253,-372.7 420,-372.7 420,-349.7 253,-349.7"/>
<polygon fill="none" stroke="#000000" points="253,-349.7 253,-372.7 420,-372.7 420,-349.7 253,-349.7"/>
<text text-anchor="start" x="258" y="-358.3" font-family="Helvetica,sans-Serif" font-weight="bold" font-size="11.00" fill="#000000">staff_configuration</text>
<text text-anchor="start" x="385.5219" y="-357.8" font-family="Helvetica,sans-Serif" font-size="11.00" fill="#000000">[table]</text>
<polygon fill="none" stroke="#000000" points="253,-330.7 253,-349.7 420,-349.7 420,-330.7 253,-330.7"/>
<text text-anchor="start" x="256" y="-336.8" font-family="Helvetica,sans-Serif" font-size="11.00" fill="#000000">...</text>
<polygon fill="#ffffff" stroke="transparent" points="253,-311.7 253,-330.7 335,-330.7 335,-311.7 253,-311.7"/>
<polygon fill="none" stroke="#000000" points="253,-311.7 253,-330.7 335,-330.7 335,-311.7 253,-311.7"/>
<text text-anchor="start" x="256" y="-317.8" font-family="Helvetica,sans-Serif" font-size="11.00" fill="#000000">&lt; 2</text>
<polygon fill="#ffffff" stroke="transparent" points="335,-311.7 335,-330.7 377,-330.7 377,-311.7 335,-311.7"/>
<polygon fill="none" stroke="#000000" points="335,-311.7 335,-330.7 377,-330.7 377,-311.7 335,-311.7"/>
<text text-anchor="start" x="367.8862" y="-317.8" font-family="Helvetica,sans-Serif" font-size="11.00" fill="#000000"> &#160;</text>
<polygon fill="#ffffff" stroke="transparent" points="377,-311.7 377,-330.7 420,-330.7 420,-311.7 377,-311.7"/>
<polygon fill="none" stroke="#000000" points="377,-311.7 377,-330.7 420,-330.7 420,-311.7 377,-311.7"/>
<text text-anchor="start" x="410.8862" y="-317.8" font-family="Helvetica,sans-Serif" font-size="11.00" fill="#000000"> &#160;</text>
</a>
</g>
</g>
<!-- staff_configuration&#45;&gt;reference_data -->
<g id="edge14" class="edge">
<title>staff_configuration:w&#45;&gt;reference_data:e</title>
<path fill="none" stroke="#000000" d="M238.4557,-341.0487C216.7111,-345.5753 208.5914,-361.215 192,-383.7 158.5788,-428.9931 207.7889,-503.7 151.5,-503.7"/>
<polygon fill="#000000" stroke="#000000" points="245.0342,-340.4387 253.3324,-343.2846 249.0171,-340.0694 253,-339.7 253,-339.7 253,-339.7 249.0171,-340.0694 252.6676,-336.1154 245.0342,-340.4387 245.0342,-340.4387"/>
<ellipse fill="none" stroke="#000000" cx="241.8478" cy="-340.7342" rx="3.2" ry="3.2"/>
</g>
<!-- staff_configuration&#45;&gt;policy -->
<g id="edge13" class="edge">
<title>staff_configuration:w&#45;&gt;policy:e</title>
<path fill="none" stroke="#000000" d="M238.3558,-338.6983C192.6162,-332.1489 181.9146,-295.7 128.5,-295.7"/>
<polygon fill="#000000" stroke="#000000" points="245.0186,-339.154 252.7543,-343.2916 249.0093,-339.427 253,-339.7 253,-339.7 253,-339.7 249.0093,-339.427 253.2457,-336.1084 245.0186,-339.154 245.0186,-339.154"/>
<ellipse fill="none" stroke="#000000" cx="241.8261" cy="-338.9356" rx="3.2" ry="3.2"/>
</g>
</g>
</svg>
