<?xml version="1.0" encoding="UTF-8" standalone="no"?>
<!DOCTYPE svg PUBLIC "-//W3C//DTD SVG 1.1//EN"
 "http://www.w3.org/Graphics/SVG/1.1/DTD/svg11.dtd">
<!-- Generated by graphviz version 2.40.1 (20161225.0304)
 -->
<!-- Title: twoDegreesRelationshipsDiagram Pages: 1 -->
<svg width="488pt" height="853pt"
 viewBox="0.00 0.00 488.00 852.70" xmlns="http://www.w3.org/2000/svg" xmlns:xlink="http://www.w3.org/1999/xlink">
<g id="graph0" class="graph" transform="scale(1 1) rotate(0) translate(4 848.7)">
<title>twoDegreesRelationshipsDiagram</title>
<polygon fill="#ffffff" stroke="transparent" points="-4,4 -4,-848.7 484,-848.7 484,4 -4,4"/>
<text text-anchor="middle" x="72.4936" y="-7.3" font-family="Helvetica,sans-Serif" font-size="11.00" fill="#000000">Generated by SchemaSpy</text>
<!-- allocation -->
<g id="node1" class="node">
<title>allocation</title>
<g id="a_node1"><a xlink:href="../../tables/allocation.html" xlink:title="allocation" target="_top">
<polygon fill="#ffffff" stroke="transparent" points="200,-530.7 200,-840.7 472,-840.7 472,-530.7 200,-530.7"/>
<polygon fill="#f5f5f5" stroke="transparent" points="202,-815.7 202,-838.7 470,-838.7 470,-815.7 202,-815.7"/>
<polygon fill="none" stroke="#000000" points="202,-815.7 202,-838.7 470,-838.7 470,-815.7 202,-815.7"/>
<text text-anchor="start" x="207" y="-824.3" font-family="Helvetica,sans-Serif" font-weight="bold" font-size="11.00" fill="#000000">allocation</text>
<text text-anchor="start" x="435.0437" y="-823.8" font-family="Helvetica,sans-Serif" font-size="11.00" fill="#000000">[table]</text>
<polygon fill="none" stroke="#000000" points="202,-793.7 202,-815.7 376,-815.7 376,-793.7 202,-793.7"/>
<image xlink:href="../../images/primaryKeys.png" width="11px" height="12px" preserveAspectRatio="xMinYMin meet" x="207" y="-810.7"/>
<text text-anchor="start" x="222" y="-800.8" font-family="Helvetica,sans-Serif" font-size="11.00" fill="#000000">id</text>
<polygon fill="none" stroke="#000000" points="376,-793.7 376,-815.7 470,-815.7 470,-793.7 376,-793.7"/>
<text text-anchor="start" x="378.9758" y="-801.4" font-family="Helvetica,sans-Serif" font-size="11.00" fill="#000000">uuid[2147483647]</text>
<polygon fill="#ffffff" stroke="transparent" points="202,-771.7 202,-793.7 376,-793.7 376,-771.7 202,-771.7"/>
<polygon fill="none" stroke="#000000" points="202,-771.7 202,-793.7 376,-793.7 376,-771.7 202,-771.7"/>
<image xlink:href="../../images/foreignKeys.png" width="11px" height="12px" preserveAspectRatio="xMinYMin meet" x="207" y="-788.7"/>
<text text-anchor="start" x="222" y="-778.8" font-family="Helvetica,sans-Serif" font-size="11.00" fill="#000000">prison_code</text>
<polygon fill="none" stroke="#000000" points="376,-771.7 376,-793.7 470,-793.7 470,-771.7 376,-771.7"/>
<text text-anchor="start" x="379" y="-779.4" font-family="Helvetica,sans-Serif" font-size="11.00" fill="#000000">varchar[6]</text>
<polygon fill="#ffffff" stroke="transparent" points="202,-749.7 202,-771.7 376,-771.7 376,-749.7 202,-749.7"/>
<polygon fill="none" stroke="#000000" points="202,-749.7 202,-771.7 376,-771.7 376,-749.7 202,-749.7"/>
<text text-anchor="start" x="222" y="-756.8" font-family="Helvetica,sans-Serif" font-size="11.00" fill="#000000">staff_id</text>
<polygon fill="none" stroke="#000000" points="376,-749.7 376,-771.7 470,-771.7 470,-749.7 376,-749.7"/>
<text text-anchor="start" x="379" y="-757.4" font-family="Helvetica,sans-Serif" font-size="11.00" fill="#000000">int8[19]</text>
<polygon fill="#ffffff" stroke="transparent" points="202,-727.7 202,-749.7 376,-749.7 376,-727.7 202,-727.7"/>
<polygon fill="none" stroke="#000000" points="202,-727.7 202,-749.7 376,-749.7 376,-727.7 202,-727.7"/>
<text text-anchor="start" x="222" y="-734.8" font-family="Helvetica,sans-Serif" font-size="11.00" fill="#000000">person_identifier</text>
<polygon fill="none" stroke="#000000" points="376,-727.7 376,-749.7 470,-749.7 470,-727.7 376,-727.7"/>
<text text-anchor="start" x="379" y="-735.4" font-family="Helvetica,sans-Serif" font-size="11.00" fill="#000000">varchar[10]</text>
<polygon fill="#ffffff" stroke="transparent" points="202,-705.7 202,-727.7 376,-727.7 376,-705.7 202,-705.7"/>
<polygon fill="none" stroke="#000000" points="202,-705.7 202,-727.7 376,-727.7 376,-705.7 202,-705.7"/>
<text text-anchor="start" x="222" y="-712.8" font-family="Helvetica,sans-Serif" font-size="11.00" fill="#000000">allocated_at</text>
<polygon fill="none" stroke="#000000" points="376,-705.7 376,-727.7 470,-727.7 470,-705.7 376,-705.7"/>
<text text-anchor="start" x="379" y="-713.4" font-family="Helvetica,sans-Serif" font-size="11.00" fill="#000000">timestamp[29,6]</text>
<polygon fill="none" stroke="#000000" points="202,-683.7 202,-705.7 376,-705.7 376,-683.7 202,-683.7"/>
<text text-anchor="start" x="222" y="-690.8" font-family="Helvetica,sans-Serif" font-size="11.00" fill="#000000">allocated_by</text>
<polygon fill="none" stroke="#000000" points="376,-683.7 376,-705.7 470,-705.7 470,-683.7 376,-683.7"/>
<text text-anchor="start" x="379" y="-691.4" font-family="Helvetica,sans-Serif" font-size="11.00" fill="#000000">varchar[64]</text>
<polygon fill="none" stroke="#000000" points="202,-661.7 202,-683.7 376,-683.7 376,-661.7 202,-661.7"/>
<image xlink:href="../../images/foreignKeys.png" width="11px" height="12px" preserveAspectRatio="xMinYMin meet" x="207" y="-678.7"/>
<text text-anchor="start" x="222" y="-668.8" font-family="Helvetica,sans-Serif" font-size="11.00" fill="#000000">allocation_reason_id</text>
<polygon fill="none" stroke="#000000" points="376,-661.7 376,-683.7 470,-683.7 470,-661.7 376,-661.7"/>
<text text-anchor="start" x="379" y="-669.4" font-family="Helvetica,sans-Serif" font-size="11.00" fill="#000000">int8[19]</text>
<polygon fill="#ffffff" stroke="transparent" points="202,-639.7 202,-661.7 376,-661.7 376,-639.7 202,-639.7"/>
<polygon fill="none" stroke="#000000" points="202,-639.7 202,-661.7 376,-661.7 376,-639.7 202,-639.7"/>
<text text-anchor="start" x="222" y="-646.8" font-family="Helvetica,sans-Serif" font-size="11.00" fill="#000000">deallocated_at</text>
<polygon fill="none" stroke="#000000" points="376,-639.7 376,-661.7 470,-661.7 470,-639.7 376,-639.7"/>
<text text-anchor="start" x="379" y="-647.4" font-family="Helvetica,sans-Serif" font-size="11.00" fill="#000000">timestamp[29,6]</text>
<polygon fill="none" stroke="#000000" points="202,-617.7 202,-639.7 376,-639.7 376,-617.7 202,-617.7"/>
<image xlink:href="../../images/foreignKeys.png" width="11px" height="12px" preserveAspectRatio="xMinYMin meet" x="207" y="-634.7"/>
<text text-anchor="start" x="222" y="-624.8" font-family="Helvetica,sans-Serif" font-size="11.00" fill="#000000">deallocation_reason_id</text>
<polygon fill="none" stroke="#000000" points="376,-617.7 376,-639.7 470,-639.7 470,-617.7 376,-617.7"/>
<text text-anchor="start" x="379" y="-625.4" font-family="Helvetica,sans-Serif" font-size="11.00" fill="#000000">int8[19]</text>
<polygon fill="none" stroke="#000000" points="202,-595.7 202,-617.7 376,-617.7 376,-595.7 202,-595.7"/>
<text text-anchor="start" x="222" y="-602.8" font-family="Helvetica,sans-Serif" font-size="11.00" fill="#000000">deallocated_by</text>
<polygon fill="none" stroke="#000000" points="376,-595.7 376,-617.7 470,-617.7 470,-595.7 376,-595.7"/>
<text text-anchor="start" x="379" y="-603.4" font-family="Helvetica,sans-Serif" font-size="11.00" fill="#000000">varchar[64]</text>
<polygon fill="none" stroke="#000000" points="202,-573.7 202,-595.7 376,-595.7 376,-573.7 202,-573.7"/>
<text text-anchor="start" x="222" y="-580.8" font-family="Helvetica,sans-Serif" font-size="11.00" fill="#000000">is_active</text>
<polygon fill="none" stroke="#000000" points="376,-573.7 376,-595.7 470,-595.7 470,-573.7 376,-573.7"/>
<text text-anchor="start" x="379" y="-581.4" font-family="Helvetica,sans-Serif" font-size="11.00" fill="#000000">bool[1]</text>
<polygon fill="#ffffff" stroke="transparent" points="202,-551.7 202,-573.7 376,-573.7 376,-551.7 202,-551.7"/>
<polygon fill="none" stroke="#000000" points="202,-551.7 202,-573.7 376,-573.7 376,-551.7 202,-551.7"/>
<image xlink:href="../../images/foreignKeys.png" width="11px" height="12px" preserveAspectRatio="xMinYMin meet" x="207" y="-568.7"/>
<text text-anchor="start" x="222" y="-558.8" font-family="Helvetica,sans-Serif" font-size="11.00" fill="#000000">policy_code</text>
<polygon fill="none" stroke="#000000" points="376,-551.7 376,-573.7 470,-573.7 470,-551.7 376,-551.7"/>
<text text-anchor="start" x="379" y="-559.4" font-family="Helvetica,sans-Serif" font-size="11.00" fill="#000000">varchar[16]</text>
<polygon fill="#ffffff" stroke="transparent" points="202,-532.7 202,-551.7 293,-551.7 293,-532.7 202,-532.7"/>
<polygon fill="none" stroke="#000000" points="202,-532.7 202,-551.7 293,-551.7 293,-532.7 202,-532.7"/>
<text text-anchor="start" x="205" y="-538.8" font-family="Helvetica,sans-Serif" font-size="11.00" fill="#000000">&lt; 3</text>
<polygon fill="#ffffff" stroke="transparent" points="293,-532.7 293,-551.7 376,-551.7 376,-532.7 293,-532.7"/>
<polygon fill="none" stroke="#000000" points="293,-532.7 293,-551.7 376,-551.7 376,-532.7 293,-532.7"/>
<text text-anchor="start" x="366.8862" y="-538.8" font-family="Helvetica,sans-Serif" font-size="11.00" fill="#000000"> &#160;</text>
<polygon fill="#ffffff" stroke="transparent" points="376,-532.7 376,-551.7 470,-551.7 470,-532.7 376,-532.7"/>
<polygon fill="none" stroke="#000000" points="376,-532.7 376,-551.7 470,-551.7 470,-532.7 376,-532.7"/>
<text text-anchor="start" x="451.4053" y="-538.8" font-family="Helvetica,sans-Serif" font-size="11.00" fill="#000000">0 &gt;</text>
<polygon fill="none" stroke="#000000" stroke-width="2" points="201,-531.7 201,-839.7 471,-839.7 471,-531.7 201,-531.7"/>
</a>
</g>
</g>
<!-- reference_data -->
<g id="node2" class="node">
<title>reference_data</title>
<g id="a_node2"><a xlink:href="../../tables/reference_data.html" xlink:title="reference_data" target="_top">
<polygon fill="#ffffff" stroke="transparent" points="8,-364.2 8,-513.2 151,-513.2 151,-364.2 8,-364.2"/>
<polygon fill="#f5f5f5" stroke="transparent" points="8.5,-489.7 8.5,-512.7 151.5,-512.7 151.5,-489.7 8.5,-489.7"/>
<polygon fill="none" stroke="#000000" points="8.5,-489.7 8.5,-512.7 151.5,-512.7 151.5,-489.7 8.5,-489.7"/>
<text text-anchor="start" x="13.5" y="-498.3" font-family="Helvetica,sans-Serif" font-weight="bold" font-size="11.00" fill="#000000">reference_data</text>
<text text-anchor="start" x="116.5437" y="-497.8" font-family="Helvetica,sans-Serif" font-size="11.00" fill="#000000">[table]</text>
<polygon fill="none" stroke="#000000" points="8.5,-467.7 8.5,-489.7 151.5,-489.7 151.5,-467.7 8.5,-467.7"/>
<image xlink:href="../../images/primaryKeys.png" width="11px" height="12px" preserveAspectRatio="xMinYMin meet" x="13.5" y="-484.7"/>
<text text-anchor="start" x="28.5" y="-474.8" font-family="Helvetica,sans-Serif" font-size="11.00" fill="#000000">id</text>
<polygon fill="#ffffff" stroke="transparent" points="8.5,-445.7 8.5,-467.7 151.5,-467.7 151.5,-445.7 8.5,-445.7"/>
<polygon fill="none" stroke="#000000" points="8.5,-445.7 8.5,-467.7 151.5,-467.7 151.5,-445.7 8.5,-445.7"/>
<text text-anchor="start" x="28.5" y="-452.8" font-family="Helvetica,sans-Serif" font-size="11.00" fill="#000000">domain</text>
<polygon fill="#ffffff" stroke="transparent" points="8.5,-423.7 8.5,-445.7 151.5,-445.7 151.5,-423.7 8.5,-423.7"/>
<polygon fill="none" stroke="#000000" points="8.5,-423.7 8.5,-445.7 151.5,-445.7 151.5,-423.7 8.5,-423.7"/>
<text text-anchor="start" x="28.5" y="-430.8" font-family="Helvetica,sans-Serif" font-size="11.00" fill="#000000">code</text>
<polygon fill="#ffffff" stroke="transparent" points="8.5,-401.7 8.5,-423.7 151.5,-423.7 151.5,-401.7 8.5,-401.7"/>
<polygon fill="none" stroke="#000000" points="8.5,-401.7 8.5,-423.7 151.5,-423.7 151.5,-401.7 8.5,-401.7"/>
<text text-anchor="start" x="28.5" y="-408.8" font-family="Helvetica,sans-Serif" font-size="11.00" fill="#000000">sequence_number</text>
<polygon fill="none" stroke="#000000" points="8.5,-382.7 8.5,-401.7 151.5,-401.7 151.5,-382.7 8.5,-382.7"/>
<text text-anchor="start" x="11.5" y="-388.8" font-family="Helvetica,sans-Serif" font-size="11.00" fill="#000000">...</text>
<polygon fill="#ffffff" stroke="transparent" points="8.5,-363.7 8.5,-382.7 53.5,-382.7 53.5,-363.7 8.5,-363.7"/>
<polygon fill="none" stroke="#000000" points="8.5,-363.7 8.5,-382.7 53.5,-382.7 53.5,-363.7 8.5,-363.7"/>
<text text-anchor="start" x="11.5" y="-369.8" font-family="Helvetica,sans-Serif" font-size="11.00" fill="#000000"> &#160;</text>
<polygon fill="#ffffff" stroke="transparent" points="53.5,-363.7 53.5,-382.7 113.5,-382.7 113.5,-363.7 53.5,-363.7"/>
<polygon fill="none" stroke="#000000" points="53.5,-363.7 53.5,-382.7 113.5,-382.7 113.5,-363.7 53.5,-363.7"/>
<text text-anchor="start" x="71.9956" y="-369.8" font-family="Helvetica,sans-Serif" font-size="11.00" fill="#000000">60 rows</text>
<polygon fill="#ffffff" stroke="transparent" points="113.5,-363.7 113.5,-382.7 151.5,-382.7 151.5,-363.7 113.5,-363.7"/>
<polygon fill="none" stroke="#000000" points="113.5,-363.7 113.5,-382.7 151.5,-382.7 151.5,-363.7 113.5,-363.7"/>
<text text-anchor="start" x="132.9053" y="-369.8" font-family="Helvetica,sans-Serif" font-size="11.00" fill="#000000">5 &gt;</text>
</a>
</g>
</g>
<!-- allocation&#45;&gt;reference_data -->
<g id="edge1" class="edge">
<title>allocation:w&#45;&gt;reference_data:e</title>
<path fill="none" stroke="#000000" d="M187.7292,-670.5213C128.019,-649.2078 235.0271,-478.7 151.5,-478.7"/>
<polygon fill="#000000" stroke="#000000" points="194.0916,-671.4926 201.4567,-676.2588 198.0458,-672.0963 202,-672.7 202,-672.7 202,-672.7 198.0458,-672.0963 202.5433,-669.1412 194.0916,-671.4926 194.0916,-671.4926"/>
<ellipse fill="none" stroke="#000000" cx="190.9283" cy="-671.0096" rx="3.2" ry="3.2"/>
</g>
<!-- allocation&#45;&gt;reference_data -->
<g id="edge2" class="edge">
<title>allocation:w&#45;&gt;reference_data:e</title>
<path fill="none" stroke="#000000" d="M187.7524,-625.8375C145.3726,-605.1 216.0731,-478.7 151.5,-478.7"/>
<polygon fill="#000000" stroke="#000000" points="194.1567,-627.1242 201.2909,-632.2295 198.0784,-627.9121 202,-628.7 202,-628.7 202,-628.7 198.0784,-627.9121 202.7091,-625.1705 194.1567,-627.1242 194.1567,-627.1242"/>
<ellipse fill="none" stroke="#000000" cx="191.0194" cy="-626.4938" rx="3.2" ry="3.2"/>
</g>
<!-- policy -->
<g id="node3" class="node">
<title>policy</title>
<g id="a_node3"><a xlink:href="../../tables/policy.html" xlink:title="policy" target="_top">
<polygon fill="#ffffff" stroke="transparent" points="31,-260.2 31,-343.2 128,-343.2 128,-260.2 31,-260.2"/>
<polygon fill="#f5f5f5" stroke="transparent" points="31.5,-319.7 31.5,-342.7 128.5,-342.7 128.5,-319.7 31.5,-319.7"/>
<polygon fill="none" stroke="#000000" points="31.5,-319.7 31.5,-342.7 128.5,-342.7 128.5,-319.7 31.5,-319.7"/>
<text text-anchor="start" x="36.5" y="-328.3" font-family="Helvetica,sans-Serif" font-weight="bold" font-size="11.00" fill="#000000">policy</text>
<text text-anchor="start" x="93.5437" y="-327.8" font-family="Helvetica,sans-Serif" font-size="11.00" fill="#000000">[table]</text>
<polygon fill="none" stroke="#000000" points="31.5,-297.7 31.5,-319.7 128.5,-319.7 128.5,-297.7 31.5,-297.7"/>
<image xlink:href="../../images/primaryKeys.png" width="11px" height="12px" preserveAspectRatio="xMinYMin meet" x="36.5" y="-314.7"/>
<text text-anchor="start" x="51.5" y="-304.8" font-family="Helvetica,sans-Serif" font-size="11.00" fill="#000000">code</text>
<polygon fill="none" stroke="#000000" points="31.5,-278.7 31.5,-297.7 128.5,-297.7 128.5,-278.7 31.5,-278.7"/>
<text text-anchor="start" x="34.5" y="-284.8" font-family="Helvetica,sans-Serif" font-size="11.00" fill="#000000">...</text>
<polygon fill="#ffffff" stroke="transparent" points="31.5,-259.7 31.5,-278.7 69.5,-278.7 69.5,-259.7 31.5,-259.7"/>
<polygon fill="none" stroke="#000000" points="31.5,-259.7 31.5,-278.7 69.5,-278.7 69.5,-259.7 31.5,-259.7"/>
<text text-anchor="start" x="34.5" y="-265.8" font-family="Helvetica,sans-Serif" font-size="11.00" fill="#000000"> &#160;</text>
<polygon fill="#ffffff" stroke="transparent" points="69.5,-259.7 69.5,-278.7 94.5,-278.7 94.5,-259.7 69.5,-259.7"/>
<polygon fill="none" stroke="#000000" points="69.5,-259.7 69.5,-278.7 94.5,-278.7 94.5,-259.7 69.5,-259.7"/>
<text text-anchor="start" x="85.3862" y="-265.8" font-family="Helvetica,sans-Serif" font-size="11.00" fill="#000000"> &#160;</text>
<polygon fill="#ffffff" stroke="transparent" points="94.5,-259.7 94.5,-278.7 128.5,-278.7 128.5,-259.7 94.5,-259.7"/>
<polygon fill="none" stroke="#000000" points="94.5,-259.7 94.5,-278.7 128.5,-278.7 128.5,-259.7 94.5,-259.7"/>
<text text-anchor="start" x="109.9053" y="-265.8" font-family="Helvetica,sans-Serif" font-size="11.00" fill="#000000">7 &gt;</text>
</a>
</g>
</g>
<!-- allocation&#45;&gt;policy -->
<g id="edge3" class="edge">
<title>allocation:w&#45;&gt;policy:e</title>
<path fill="none" stroke="#000000" d="M191.2001,-553.1558C190.5008,-544.4552 194.4878,-531.2382 192,-519.7 171.3584,-423.9676 226.4325,-308.7 128.5,-308.7"/>
<polygon fill="#000000" stroke="#000000" points="196.0054,-557.4024 199.6161,-565.3976 199.0027,-560.0512 202,-562.7 202,-562.7 202,-562.7 199.0027,-560.0512 204.3839,-560.0024 196.0054,-557.4024 196.0054,-557.4024"/>
<ellipse fill="none" stroke="#000000" cx="193.6075" cy="-555.2833" rx="3.2" ry="3.2"/>
</g>
<!-- prison_configuration -->
<g id="node4" class="node">
<title>prison_configuration</title>
<g id="a_node4"><a xlink:href="../../tables/prison_configuration.html" xlink:title="prison_configuration" target="_top">
<polygon fill="#ffffff" stroke="transparent" points="247,-202.2 247,-263.2 425,-263.2 425,-202.2 247,-202.2"/>
<polygon fill="#f5f5f5" stroke="transparent" points="247,-239.7 247,-262.7 425,-262.7 425,-239.7 247,-239.7"/>
<polygon fill="none" stroke="#000000" points="247,-239.7 247,-262.7 425,-262.7 425,-239.7 247,-239.7"/>
<text text-anchor="start" x="252" y="-248.3" font-family="Helvetica,sans-Serif" font-weight="bold" font-size="11.00" fill="#000000">prison_configuration</text>
<text text-anchor="start" x="390.5219" y="-247.8" font-family="Helvetica,sans-Serif" font-size="11.00" fill="#000000">[table]</text>
<polygon fill="none" stroke="#000000" points="247,-220.7 247,-239.7 425,-239.7 425,-220.7 247,-220.7"/>
<text text-anchor="start" x="250" y="-226.8" font-family="Helvetica,sans-Serif" font-size="11.00" fill="#000000">...</text>
<polygon fill="#ffffff" stroke="transparent" points="247,-201.7 247,-220.7 318,-220.7 318,-201.7 247,-201.7"/>
<polygon fill="none" stroke="#000000" points="247,-201.7 247,-220.7 318,-220.7 318,-201.7 247,-201.7"/>
<text text-anchor="start" x="250" y="-207.8" font-family="Helvetica,sans-Serif" font-size="11.00" fill="#000000">&lt; 1</text>
<polygon fill="#ffffff" stroke="transparent" points="318,-201.7 318,-220.7 387,-220.7 387,-201.7 318,-201.7"/>
<polygon fill="none" stroke="#000000" points="318,-201.7 318,-220.7 387,-220.7 387,-201.7 318,-201.7"/>
<text text-anchor="start" x="345.4956" y="-207.8" font-family="Helvetica,sans-Serif" font-size="11.00" fill="#000000">12 rows</text>
<polygon fill="#ffffff" stroke="transparent" points="387,-201.7 387,-220.7 425,-220.7 425,-201.7 387,-201.7"/>
<polygon fill="none" stroke="#000000" points="387,-201.7 387,-220.7 425,-220.7 425,-201.7 387,-201.7"/>
<text text-anchor="start" x="415.8862" y="-207.8" font-family="Helvetica,sans-Serif" font-size="11.00" fill="#000000"> &#160;</text>
</a>
</g>
</g>
<!-- prison_configuration&#45;&gt;policy -->
<g id="edge4" class="edge">
<title>prison_configuration:w&#45;&gt;policy:e</title>
<path fill="none" stroke="#000000" d="M232.4781,-231.2781C184.5587,-242.4123 186.4815,-308.7 128.5,-308.7"/>
<polygon fill="#000000" stroke="#000000" points="239.0468,-230.5643 247.3889,-233.2789 243.0234,-230.1321 247,-229.7 247,-229.7 247,-229.7 243.0234,-230.1321 246.6111,-226.1211 239.0468,-230.5643 239.0468,-230.5643"/>
<ellipse fill="none" stroke="#000000" cx="235.8655" cy="-230.91" rx="3.2" ry="3.2"/>
</g>
<!-- prison_statistic -->
<g id="node5" class="node">
<title>prison_statistic</title>
<g id="a_node5"><a xlink:href="../../tables/prison_statistic.html" xlink:title="prison_statistic" target="_top">
<polygon fill="#ffffff" stroke="transparent" points="265,-120.2 265,-181.2 407,-181.2 407,-120.2 265,-120.2"/>
<polygon fill="#f5f5f5" stroke="transparent" points="265,-157.7 265,-180.7 407,-180.7 407,-157.7 265,-157.7"/>
<polygon fill="none" stroke="#000000" points="265,-157.7 265,-180.7 407,-180.7 407,-157.7 265,-157.7"/>
<text text-anchor="start" x="270" y="-166.3" font-family="Helvetica,sans-Serif" font-weight="bold" font-size="11.00" fill="#000000">prison_statistic</text>
<text text-anchor="start" x="372.5219" y="-165.8" font-family="Helvetica,sans-Serif" font-size="11.00" fill="#000000">[table]</text>
<polygon fill="none" stroke="#000000" points="265,-138.7 265,-157.7 407,-157.7 407,-138.7 265,-138.7"/>
<text text-anchor="start" x="268" y="-144.8" font-family="Helvetica,sans-Serif" font-size="11.00" fill="#000000">...</text>
<polygon fill="#ffffff" stroke="transparent" points="265,-119.7 265,-138.7 334,-138.7 334,-119.7 265,-119.7"/>
<polygon fill="none" stroke="#000000" points="265,-119.7 265,-138.7 334,-138.7 334,-119.7 265,-119.7"/>
<text text-anchor="start" x="268" y="-125.8" font-family="Helvetica,sans-Serif" font-size="11.00" fill="#000000">&lt; 1</text>
<polygon fill="#ffffff" stroke="transparent" points="334,-119.7 334,-138.7 370,-138.7 370,-119.7 334,-119.7"/>
<polygon fill="none" stroke="#000000" points="334,-119.7 334,-138.7 370,-138.7 370,-119.7 334,-119.7"/>
<text text-anchor="start" x="360.8862" y="-125.8" font-family="Helvetica,sans-Serif" font-size="11.00" fill="#000000"> &#160;</text>
<polygon fill="#ffffff" stroke="transparent" points="370,-119.7 370,-138.7 407,-138.7 407,-119.7 370,-119.7"/>
<polygon fill="none" stroke="#000000" points="370,-119.7 370,-138.7 407,-138.7 407,-119.7 370,-119.7"/>
<text text-anchor="start" x="397.8862" y="-125.8" font-family="Helvetica,sans-Serif" font-size="11.00" fill="#000000"> &#160;</text>
</a>
</g>
</g>
<!-- prison_statistic&#45;&gt;policy -->
<g id="edge5" class="edge">
<title>prison_statistic:w&#45;&gt;policy:e</title>
<path fill="none" stroke="#000000" d="M250.6069,-148.6694C224.2618,-152.5859 214.494,-168.166 192,-191.7 151.1198,-234.4703 187.665,-308.7 128.5,-308.7"/>
<polygon fill="#000000" stroke="#000000" points="257.0181,-148.2377 265.242,-151.2919 261.009,-147.9688 265,-147.7 265,-147.7 265,-147.7 261.009,-147.9688 264.758,-144.1081 257.0181,-148.2377 257.0181,-148.2377"/>
<ellipse fill="none" stroke="#000000" cx="253.8253" cy="-148.4527" rx="3.2" ry="3.2"/>
</g>
<!-- recorded_event -->
<g id="node6" class="node">
<title>recorded_event</title>
<g id="a_node6"><a xlink:href="../../tables/recorded_event.html" xlink:title="recorded_event" target="_top">
<polygon fill="#ffffff" stroke="transparent" points="264,-448.2 264,-509.2 408,-509.2 408,-448.2 264,-448.2"/>
<polygon fill="#f5f5f5" stroke="transparent" points="264,-485.7 264,-508.7 408,-508.7 408,-485.7 264,-485.7"/>
<polygon fill="none" stroke="#000000" points="264,-485.7 264,-508.7 408,-508.7 408,-485.7 264,-485.7"/>
<text text-anchor="start" x="269" y="-494.3" font-family="Helvetica,sans-Serif" font-weight="bold" font-size="11.00" fill="#000000">recorded_event</text>
<text text-anchor="start" x="373.5219" y="-493.8" font-family="Helvetica,sans-Serif" font-size="11.00" fill="#000000">[table]</text>
<polygon fill="none" stroke="#000000" points="264,-466.7 264,-485.7 408,-485.7 408,-466.7 264,-466.7"/>
<text text-anchor="start" x="267" y="-472.8" font-family="Helvetica,sans-Serif" font-size="11.00" fill="#000000">...</text>
<polygon fill="#ffffff" stroke="transparent" points="264,-447.7 264,-466.7 334,-466.7 334,-447.7 264,-447.7"/>
<polygon fill="none" stroke="#000000" points="264,-447.7 264,-466.7 334,-466.7 334,-447.7 264,-447.7"/>
<text text-anchor="start" x="267" y="-453.8" font-family="Helvetica,sans-Serif" font-size="11.00" fill="#000000">&lt; 2</text>
<polygon fill="#ffffff" stroke="transparent" points="334,-447.7 334,-466.7 371,-466.7 371,-447.7 334,-447.7"/>
<polygon fill="none" stroke="#000000" points="334,-447.7 334,-466.7 371,-466.7 371,-447.7 334,-447.7"/>
<text text-anchor="start" x="361.8862" y="-453.8" font-family="Helvetica,sans-Serif" font-size="11.00" fill="#000000"> &#160;</text>
<polygon fill="#ffffff" stroke="transparent" points="371,-447.7 371,-466.7 408,-466.7 408,-447.7 371,-447.7"/>
<polygon fill="none" stroke="#000000" points="371,-447.7 371,-466.7 408,-466.7 408,-447.7 371,-447.7"/>
<text text-anchor="start" x="398.8862" y="-453.8" font-family="Helvetica,sans-Serif" font-size="11.00" fill="#000000"> &#160;</text>
</a>
</g>
</g>
<!-- recorded_event&#45;&gt;reference_data -->
<g id="edge7" class="edge">
<title>recorded_event:w&#45;&gt;reference_data:e</title>
<path fill="none" stroke="#000000" d="M249.591,-475.7898C210.9993,-476.2889 196.3402,-478.7 151.5,-478.7"/>
<polygon fill="#000000" stroke="#000000" points="256.0002,-475.7499 264.0225,-479.2999 260.0001,-475.725 264,-475.7 264,-475.7 264,-475.7 260.0001,-475.725 263.9775,-472.1001 256.0002,-475.7499 256.0002,-475.7499"/>
<ellipse fill="none" stroke="#000000" cx="252.8002" cy="-475.7699" rx="3.2" ry="3.2"/>
</g>
<!-- recorded_event&#45;&gt;policy -->
<g id="edge6" class="edge">
<title>recorded_event:w&#45;&gt;policy:e</title>
<path fill="none" stroke="#000000" d="M249.3851,-474.9548C224.0712,-472.074 212.5422,-460.6657 192,-437.7 149.3967,-390.0706 192.4031,-308.7 128.5,-308.7"/>
<polygon fill="#000000" stroke="#000000" points="256.0104,-475.2926 263.8166,-479.2953 260.0052,-475.4963 264,-475.7 264,-475.7 264,-475.7 260.0052,-475.4963 264.1834,-472.1047 256.0104,-475.2926 256.0104,-475.2926"/>
<ellipse fill="none" stroke="#000000" cx="252.8145" cy="-475.1296" rx="3.2" ry="3.2"/>
</g>
<!-- recorded_event_audit -->
<g id="node7" class="node">
<title>recorded_event_audit</title>
<g id="a_node7"><a xlink:href="../../tables/recorded_event_audit.html" xlink:title="recorded_event_audit" target="_top">
<polygon fill="#ffffff" stroke="transparent" points="243.5,-38.2 243.5,-99.2 428.5,-99.2 428.5,-38.2 243.5,-38.2"/>
<polygon fill="#f5f5f5" stroke="transparent" points="244,-75.7 244,-98.7 429,-98.7 429,-75.7 244,-75.7"/>
<polygon fill="none" stroke="#000000" points="244,-75.7 244,-98.7 429,-98.7 429,-75.7 244,-75.7"/>
<text text-anchor="start" x="249" y="-84.3" font-family="Helvetica,sans-Serif" font-weight="bold" font-size="11.00" fill="#000000">recorded_event_audit</text>
<text text-anchor="start" x="394.5219" y="-83.8" font-family="Helvetica,sans-Serif" font-size="11.00" fill="#000000">[table]</text>
<polygon fill="none" stroke="#000000" points="244,-56.7 244,-75.7 429,-75.7 429,-56.7 244,-56.7"/>
<text text-anchor="start" x="247" y="-62.8" font-family="Helvetica,sans-Serif" font-size="11.00" fill="#000000">...</text>
<polygon fill="#ffffff" stroke="transparent" points="244,-37.7 244,-56.7 335,-56.7 335,-37.7 244,-37.7"/>
<polygon fill="none" stroke="#000000" points="244,-37.7 244,-56.7 335,-56.7 335,-37.7 244,-37.7"/>
<text text-anchor="start" x="247" y="-43.8" font-family="Helvetica,sans-Serif" font-size="11.00" fill="#000000">&lt; 2</text>
<polygon fill="#ffffff" stroke="transparent" points="335,-37.7 335,-56.7 382,-56.7 382,-37.7 335,-37.7"/>
<polygon fill="none" stroke="#000000" points="335,-37.7 335,-56.7 382,-56.7 382,-37.7 335,-37.7"/>
<text text-anchor="start" x="372.8862" y="-43.8" font-family="Helvetica,sans-Serif" font-size="11.00" fill="#000000"> &#160;</text>
<polygon fill="#ffffff" stroke="transparent" points="382,-37.7 382,-56.7 429,-56.7 429,-37.7 382,-37.7"/>
<polygon fill="none" stroke="#000000" points="382,-37.7 382,-56.7 429,-56.7 429,-37.7 382,-37.7"/>
<text text-anchor="start" x="419.8862" y="-43.8" font-family="Helvetica,sans-Serif" font-size="11.00" fill="#000000"> &#160;</text>
</a>
</g>
</g>
<!-- recorded_event_audit&#45;&gt;policy -->
<g id="edge8" class="edge">
<title>recorded_event_audit:w&#45;&gt;policy:e</title>
<path fill="none" stroke="#000000" d="M229.6031,-67.0666C134.8197,-86.5881 242.824,-308.7 128.5,-308.7"/>
<polygon fill="#000000" stroke="#000000" points="236.0358,-66.456 244.3402,-69.2839 240.0179,-66.078 244,-65.7 244,-65.7 244,-65.7 240.0179,-66.078 243.6598,-62.1161 236.0358,-66.456 236.0358,-66.456"/>
<ellipse fill="none" stroke="#000000" cx="232.8501" cy="-66.7584" rx="3.2" ry="3.2"/>
</g>
<!-- reference_data_policy -->
<g id="node8" class="node">
<title>reference_data_policy</title>
<g id="a_node8"><a xlink:href="../../tables/reference_data_policy.html" xlink:title="reference_data_policy" target="_top">
<polygon fill="#ffffff" stroke="transparent" points="243,-366.2 243,-427.2 429,-427.2 429,-366.2 243,-366.2"/>
<polygon fill="#f5f5f5" stroke="transparent" points="243,-403.7 243,-426.7 429,-426.7 429,-403.7 243,-403.7"/>
<polygon fill="none" stroke="#000000" points="243,-403.7 243,-426.7 429,-426.7 429,-403.7 243,-403.7"/>
<text text-anchor="start" x="248" y="-412.3" font-family="Helvetica,sans-Serif" font-weight="bold" font-size="11.00" fill="#000000">reference_data_policy</text>
<text text-anchor="start" x="394.5219" y="-411.8" font-family="Helvetica,sans-Serif" font-size="11.00" fill="#000000">[table]</text>
<polygon fill="none" stroke="#000000" points="243,-384.7 243,-403.7 429,-403.7 429,-384.7 243,-384.7"/>
<text text-anchor="start" x="246" y="-390.8" font-family="Helvetica,sans-Serif" font-size="11.00" fill="#000000">...</text>
<polygon fill="#ffffff" stroke="transparent" points="243,-365.7 243,-384.7 318,-384.7 318,-365.7 243,-365.7"/>
<polygon fill="none" stroke="#000000" points="243,-365.7 243,-384.7 318,-384.7 318,-365.7 243,-365.7"/>
<text text-anchor="start" x="246" y="-371.8" font-family="Helvetica,sans-Serif" font-size="11.00" fill="#000000">&lt; 2</text>
<polygon fill="#ffffff" stroke="transparent" points="318,-365.7 318,-384.7 389,-384.7 389,-365.7 318,-365.7"/>
<polygon fill="none" stroke="#000000" points="318,-365.7 318,-384.7 389,-384.7 389,-365.7 318,-365.7"/>
<text text-anchor="start" x="347.4956" y="-371.8" font-family="Helvetica,sans-Serif" font-size="11.00" fill="#000000">84 rows</text>
<polygon fill="#ffffff" stroke="transparent" points="389,-365.7 389,-384.7 429,-384.7 429,-365.7 389,-365.7"/>
<polygon fill="none" stroke="#000000" points="389,-365.7 389,-384.7 429,-384.7 429,-365.7 389,-365.7"/>
<text text-anchor="start" x="419.8862" y="-371.8" font-family="Helvetica,sans-Serif" font-size="11.00" fill="#000000"> &#160;</text>
</a>
</g>
</g>
<!-- reference_data_policy&#45;&gt;reference_data -->
<g id="edge9" class="edge">
<title>reference_data_policy:w&#45;&gt;reference_data:e</title>
<path fill="none" stroke="#000000" d="M228.5793,-396.1972C212.5134,-402.7832 209.5983,-421.2498 192,-437.7 173.2884,-455.1908 177.1135,-478.7 151.5,-478.7"/>
<polygon fill="#000000" stroke="#000000" points="235.1173,-395.0651 243.6143,-397.2472 239.0587,-394.3825 243,-393.7 243,-393.7 243,-393.7 239.0587,-394.3825 242.3857,-390.1528 235.1173,-395.0651 235.1173,-395.0651"/>
<ellipse fill="none" stroke="#000000" cx="231.9642" cy="-395.6111" rx="3.2" ry="3.2"/>
</g>
<!-- reference_data_policy&#45;&gt;policy -->
<g id="edge10" class="edge">
<title>reference_data_policy:w&#45;&gt;policy:e</title>
<path fill="none" stroke="#000000" d="M228.5424,-392.0021C181.1468,-380.0222 186.5557,-308.7 128.5,-308.7"/>
<polygon fill="#000000" stroke="#000000" points="235.0546,-392.7668 242.5801,-397.2754 239.0273,-393.2334 243,-393.7 243,-393.7 243,-393.7 239.0273,-393.2334 243.4199,-390.1246 235.0546,-392.7668 235.0546,-392.7668"/>
<ellipse fill="none" stroke="#000000" cx="231.8764" cy="-392.3936" rx="3.2" ry="3.2"/>
</g>
<!-- staff_configuration -->
<g id="node9" class="node">
<title>staff_configuration</title>
<g id="a_node9"><a xlink:href="../../tables/staff_configuration.html" xlink:title="staff_configuration" target="_top">
<polygon fill="#ffffff" stroke="transparent" points="252.5,-284.2 252.5,-345.2 419.5,-345.2 419.5,-284.2 252.5,-284.2"/>
<polygon fill="#f5f5f5" stroke="transparent" points="253,-321.7 253,-344.7 420,-344.7 420,-321.7 253,-321.7"/>
<polygon fill="none" stroke="#000000" points="253,-321.7 253,-344.7 420,-344.7 420,-321.7 253,-321.7"/>
<text text-anchor="start" x="258" y="-330.3" font-family="Helvetica,sans-Serif" font-weight="bold" font-size="11.00" fill="#000000">staff_configuration</text>
<text text-anchor="start" x="385.5219" y="-329.8" font-family="Helvetica,sans-Serif" font-size="11.00" fill="#000000">[table]</text>
<polygon fill="none" stroke="#000000" points="253,-302.7 253,-321.7 420,-321.7 420,-302.7 253,-302.7"/>
<text text-anchor="start" x="256" y="-308.8" font-family="Helvetica,sans-Serif" font-size="11.00" fill="#000000">...</text>
<polygon fill="#ffffff" stroke="transparent" points="253,-283.7 253,-302.7 335,-302.7 335,-283.7 253,-283.7"/>
<polygon fill="none" stroke="#000000" points="253,-283.7 253,-302.7 335,-302.7 335,-283.7 253,-283.7"/>
<text text-anchor="start" x="256" y="-289.8" font-family="Helvetica,sans-Serif" font-size="11.00" fill="#000000">&lt; 2</text>
<polygon fill="#ffffff" stroke="transparent" points="335,-283.7 335,-302.7 377,-302.7 377,-283.7 335,-283.7"/>
<polygon fill="none" stroke="#000000" points="335,-283.7 335,-302.7 377,-302.7 377,-283.7 335,-283.7"/>
<text text-anchor="start" x="367.8862" y="-289.8" font-family="Helvetica,sans-Serif" font-size="11.00" fill="#000000"> &#160;</text>
<polygon fill="#ffffff" stroke="transparent" points="377,-283.7 377,-302.7 420,-302.7 420,-283.7 377,-283.7"/>
<polygon fill="none" stroke="#000000" points="377,-283.7 377,-302.7 420,-302.7 420,-283.7 377,-283.7"/>
<text text-anchor="start" x="410.8862" y="-289.8" font-family="Helvetica,sans-Serif" font-size="11.00" fill="#000000"> &#160;</text>
</a>
</g>
</g>
<!-- staff_configuration&#45;&gt;reference_data -->
<g id="edge12" class="edge">
<title>staff_configuration:w&#45;&gt;reference_data:e</title>
<path fill="none" stroke="#000000" d="M238.4489,-313.0438C216.6838,-317.5552 208.508,-333.1536 192,-355.7 157.9996,-402.1372 209.0538,-478.7 151.5,-478.7"/>
<polygon fill="#000000" stroke="#000000" points="245.0339,-312.4357 253.3311,-315.2847 249.0169,-312.0679 253,-311.7 253,-311.7 253,-311.7 249.0169,-312.0679 252.6689,-308.1153 245.0339,-312.4357 245.0339,-312.4357"/>
<ellipse fill="none" stroke="#000000" cx="241.8475" cy="-312.73" rx="3.2" ry="3.2"/>
</g>
<!-- staff_configuration&#45;&gt;policy -->
<g id="edge11" class="edge">
<title>staff_configuration:w&#45;&gt;policy:e</title>
<path fill="none" stroke="#000000" d="M238.46,-311.6258C194.6977,-311.1639 178.6604,-308.7 128.5,-308.7"/>
<polygon fill="#000000" stroke="#000000" points="245.0001,-311.6591 252.9816,-315.3 249.0001,-311.6796 253,-311.7 253,-311.7 253,-311.7 249.0001,-311.6796 253.0184,-308.1 245.0001,-311.6591 245.0001,-311.6591"/>
<ellipse fill="none" stroke="#000000" cx="241.8001" cy="-311.6428" rx="3.2" ry="3.2"/>
</g>
</g>
</svg>
