<?xml version="1.0" encoding="UTF-8" standalone="no"?>
<!DOCTYPE svg PUBLIC "-//W3C//DTD SVG 1.1//EN"
 "http://www.w3.org/Graphics/SVG/1.1/DTD/svg11.dtd">
<!-- Generated by graphviz version 2.40.1 (20161225.0304)
 -->
<!-- Title: oneDegreeRelationshipsDiagramImplied Pages: 1 -->
<svg width="635pt" height="554pt"
 viewBox="0.00 0.00 635.00 553.70" xmlns="http://www.w3.org/2000/svg" xmlns:xlink="http://www.w3.org/1999/xlink">
<g id="graph0" class="graph" transform="scale(1 1) rotate(0) translate(4 549.7)">
<title>oneDegreeRelationshipsDiagramImplied</title>
<polygon fill="#ffffff" stroke="transparent" points="-4,4 -4,-549.7 631,-549.7 631,4 -4,4"/>
<text text-anchor="middle" x="72.4936" y="-7.3" font-family="Helvetica,sans-Serif" font-size="11.00" fill="#000000">Generated by SchemaSpy</text>
<!-- allocation_audit -->
<g id="node1" class="node">
<title>allocation_audit</title>
<g id="a_node1"><a xlink:href="../../tables/allocation_audit.html" xlink:title="allocation_audit" target="_top">
<polygon fill="#ffffff" stroke="transparent" points="300,-38.2 300,-524.2 619,-524.2 619,-38.2 300,-38.2"/>
<polygon fill="#f5f5f5" stroke="transparent" points="302.5,-499.2 302.5,-522.2 617.5,-522.2 617.5,-499.2 302.5,-499.2"/>
<polygon fill="none" stroke="#000000" points="302.5,-499.2 302.5,-522.2 617.5,-522.2 617.5,-499.2 302.5,-499.2"/>
<text text-anchor="start" x="307.5" y="-507.8" font-family="Helvetica,sans-Serif" font-weight="bold" font-size="11.00" fill="#000000">allocation_audit</text>
<text text-anchor="start" x="582.5437" y="-507.3" font-family="Helvetica,sans-Serif" font-size="11.00" fill="#000000">[table]</text>
<polygon fill="none" stroke="#000000" points="302.5,-477.2 302.5,-499.2 523.5,-499.2 523.5,-477.2 302.5,-477.2"/>
<image xlink:href="../../images/primaryKeys.png" width="11px" height="12px" preserveAspectRatio="xMinYMin meet" x="307.5" y="-494.2"/>
<text text-anchor="start" x="322.5" y="-484.3" font-family="Helvetica,sans-Serif" font-size="11.00" fill="#000000">rev_id</text>
<polygon fill="none" stroke="#000000" points="523.5,-477.2 523.5,-499.2 617.5,-499.2 617.5,-477.2 523.5,-477.2"/>
<text text-anchor="start" x="526.5" y="-484.9" font-family="Helvetica,sans-Serif" font-size="11.00" fill="#000000">int8[19]</text>
<polygon fill="none" stroke="#000000" points="302.5,-455.2 302.5,-477.2 523.5,-477.2 523.5,-455.2 302.5,-455.2"/>
<text text-anchor="start" x="322.5" y="-462.3" font-family="Helvetica,sans-Serif" font-size="11.00" fill="#000000">rev_type</text>
<polygon fill="none" stroke="#000000" points="523.5,-455.2 523.5,-477.2 617.5,-477.2 617.5,-455.2 523.5,-455.2"/>
<text text-anchor="start" x="526.5" y="-462.9" font-family="Helvetica,sans-Serif" font-size="11.00" fill="#000000">int2[5]</text>
<polygon fill="none" stroke="#000000" points="302.5,-433.2 302.5,-455.2 523.5,-455.2 523.5,-433.2 302.5,-433.2"/>
<image xlink:href="../../images/primaryKeys.png" width="11px" height="12px" preserveAspectRatio="xMinYMin meet" x="307.5" y="-450.2"/>
<text text-anchor="start" x="322.5" y="-440.3" font-family="Helvetica,sans-Serif" font-size="11.00" fill="#000000">id</text>
<polygon fill="none" stroke="#000000" points="523.5,-433.2 523.5,-455.2 617.5,-455.2 617.5,-433.2 523.5,-433.2"/>
<text text-anchor="start" x="526.4758" y="-440.9" font-family="Helvetica,sans-Serif" font-size="11.00" fill="#000000">uuid[2147483647]</text>
<polygon fill="none" stroke="#000000" points="302.5,-411.2 302.5,-433.2 523.5,-433.2 523.5,-411.2 302.5,-411.2"/>
<image xlink:href="../../images/foreignKeys.png" width="11px" height="12px" preserveAspectRatio="xMinYMin meet" x="307.5" y="-428.2"/>
<text text-anchor="start" x="322.5" y="-418.3" font-family="Helvetica,sans-Serif" font-size="11.00" fill="#000000">prison_code</text>
<polygon fill="none" stroke="#000000" points="523.5,-411.2 523.5,-433.2 617.5,-433.2 617.5,-411.2 523.5,-411.2"/>
<text text-anchor="start" x="526.5" y="-418.9" font-family="Helvetica,sans-Serif" font-size="11.00" fill="#000000">varchar[6]</text>
<polygon fill="none" stroke="#000000" points="302.5,-389.2 302.5,-411.2 523.5,-411.2 523.5,-389.2 302.5,-389.2"/>
<text text-anchor="start" x="322.5" y="-396.3" font-family="Helvetica,sans-Serif" font-size="11.00" fill="#000000">staff_id</text>
<polygon fill="none" stroke="#000000" points="523.5,-389.2 523.5,-411.2 617.5,-411.2 617.5,-389.2 523.5,-389.2"/>
<text text-anchor="start" x="526.5" y="-396.9" font-family="Helvetica,sans-Serif" font-size="11.00" fill="#000000">int8[19]</text>
<polygon fill="none" stroke="#000000" points="302.5,-367.2 302.5,-389.2 523.5,-389.2 523.5,-367.2 302.5,-367.2"/>
<text text-anchor="start" x="322.5" y="-374.3" font-family="Helvetica,sans-Serif" font-size="11.00" fill="#000000">person_identifier</text>
<polygon fill="none" stroke="#000000" points="523.5,-367.2 523.5,-389.2 617.5,-389.2 617.5,-367.2 523.5,-367.2"/>
<text text-anchor="start" x="526.5" y="-374.9" font-family="Helvetica,sans-Serif" font-size="11.00" fill="#000000">varchar[10]</text>
<polygon fill="none" stroke="#000000" points="302.5,-345.2 302.5,-367.2 523.5,-367.2 523.5,-345.2 302.5,-345.2"/>
<text text-anchor="start" x="322.5" y="-352.3" font-family="Helvetica,sans-Serif" font-size="11.00" fill="#000000">allocated_at</text>
<polygon fill="none" stroke="#000000" points="523.5,-345.2 523.5,-367.2 617.5,-367.2 617.5,-345.2 523.5,-345.2"/>
<text text-anchor="start" x="526.5" y="-352.9" font-family="Helvetica,sans-Serif" font-size="11.00" fill="#000000">timestamp[29,6]</text>
<polygon fill="none" stroke="#000000" points="302.5,-323.2 302.5,-345.2 523.5,-345.2 523.5,-323.2 302.5,-323.2"/>
<text text-anchor="start" x="322.5" y="-330.3" font-family="Helvetica,sans-Serif" font-size="11.00" fill="#000000">allocation_type</text>
<polygon fill="none" stroke="#000000" points="523.5,-323.2 523.5,-345.2 617.5,-345.2 617.5,-323.2 523.5,-323.2"/>
<text text-anchor="start" x="526.5" y="-330.9" font-family="Helvetica,sans-Serif" font-size="11.00" fill="#000000">bpchar[1]</text>
<polygon fill="none" stroke="#000000" points="302.5,-301.2 302.5,-323.2 523.5,-323.2 523.5,-301.2 302.5,-301.2"/>
<text text-anchor="start" x="322.5" y="-308.3" font-family="Helvetica,sans-Serif" font-size="11.00" fill="#000000">allocated_by</text>
<polygon fill="none" stroke="#000000" points="523.5,-301.2 523.5,-323.2 617.5,-323.2 617.5,-301.2 523.5,-301.2"/>
<text text-anchor="start" x="526.5" y="-308.9" font-family="Helvetica,sans-Serif" font-size="11.00" fill="#000000">varchar[64]</text>
<polygon fill="none" stroke="#000000" points="302.5,-279.2 302.5,-301.2 523.5,-301.2 523.5,-279.2 302.5,-279.2"/>
<text text-anchor="start" x="322.5" y="-286.3" font-family="Helvetica,sans-Serif" font-size="11.00" fill="#000000">allocation_reason_id</text>
<polygon fill="none" stroke="#000000" points="523.5,-279.2 523.5,-301.2 617.5,-301.2 617.5,-279.2 523.5,-279.2"/>
<text text-anchor="start" x="526.5" y="-286.9" font-family="Helvetica,sans-Serif" font-size="11.00" fill="#000000">int8[19]</text>
<polygon fill="none" stroke="#000000" points="302.5,-257.2 302.5,-279.2 523.5,-279.2 523.5,-257.2 302.5,-257.2"/>
<text text-anchor="start" x="322.5" y="-264.3" font-family="Helvetica,sans-Serif" font-size="11.00" fill="#000000">deallocated_at</text>
<polygon fill="none" stroke="#000000" points="523.5,-257.2 523.5,-279.2 617.5,-279.2 617.5,-257.2 523.5,-257.2"/>
<text text-anchor="start" x="526.5" y="-264.9" font-family="Helvetica,sans-Serif" font-size="11.00" fill="#000000">timestamp[29,6]</text>
<polygon fill="none" stroke="#000000" points="302.5,-235.2 302.5,-257.2 523.5,-257.2 523.5,-235.2 302.5,-235.2"/>
<text text-anchor="start" x="322.5" y="-242.3" font-family="Helvetica,sans-Serif" font-size="11.00" fill="#000000">deallocation_reason_id</text>
<polygon fill="none" stroke="#000000" points="523.5,-235.2 523.5,-257.2 617.5,-257.2 617.5,-235.2 523.5,-235.2"/>
<text text-anchor="start" x="526.5" y="-242.9" font-family="Helvetica,sans-Serif" font-size="11.00" fill="#000000">int8[19]</text>
<polygon fill="none" stroke="#000000" points="302.5,-213.2 302.5,-235.2 523.5,-235.2 523.5,-213.2 302.5,-213.2"/>
<text text-anchor="start" x="322.5" y="-220.3" font-family="Helvetica,sans-Serif" font-size="11.00" fill="#000000">deallocated_by</text>
<polygon fill="none" stroke="#000000" points="523.5,-213.2 523.5,-235.2 617.5,-235.2 617.5,-213.2 523.5,-213.2"/>
<text text-anchor="start" x="526.5" y="-220.9" font-family="Helvetica,sans-Serif" font-size="11.00" fill="#000000">varchar[64]</text>
<polygon fill="none" stroke="#000000" points="302.5,-191.2 302.5,-213.2 523.5,-213.2 523.5,-191.2 302.5,-191.2"/>
<text text-anchor="start" x="322.5" y="-198.3" font-family="Helvetica,sans-Serif" font-size="11.00" fill="#000000">is_active</text>
<polygon fill="none" stroke="#000000" points="523.5,-191.2 523.5,-213.2 617.5,-213.2 617.5,-191.2 523.5,-191.2"/>
<text text-anchor="start" x="526.5" y="-198.9" font-family="Helvetica,sans-Serif" font-size="11.00" fill="#000000">bool[1]</text>
<polygon fill="none" stroke="#000000" points="302.5,-169.2 302.5,-191.2 523.5,-191.2 523.5,-169.2 302.5,-169.2"/>
<image xlink:href="../../images/foreignKeys.png" width="11px" height="12px" preserveAspectRatio="xMinYMin meet" x="307.5" y="-186.2"/>
<text text-anchor="start" x="322.5" y="-176.3" font-family="Helvetica,sans-Serif" font-size="11.00" fill="#000000">policy_code</text>
<polygon fill="none" stroke="#000000" points="523.5,-169.2 523.5,-191.2 617.5,-191.2 617.5,-169.2 523.5,-169.2"/>
<text text-anchor="start" x="526.5" y="-176.9" font-family="Helvetica,sans-Serif" font-size="11.00" fill="#000000">varchar[16]</text>
<polygon fill="none" stroke="#000000" points="302.5,-147.2 302.5,-169.2 523.5,-169.2 523.5,-147.2 302.5,-147.2"/>
<text text-anchor="start" x="322.5" y="-154.3" font-family="Helvetica,sans-Serif" font-size="11.00" fill="#000000">person_identifier_modified</text>
<polygon fill="none" stroke="#000000" points="523.5,-147.2 523.5,-169.2 617.5,-169.2 617.5,-147.2 523.5,-147.2"/>
<text text-anchor="start" x="526.5" y="-154.9" font-family="Helvetica,sans-Serif" font-size="11.00" fill="#000000">bool[1]</text>
<polygon fill="none" stroke="#000000" points="302.5,-125.2 302.5,-147.2 523.5,-147.2 523.5,-125.2 302.5,-125.2"/>
<text text-anchor="start" x="322.5" y="-132.3" font-family="Helvetica,sans-Serif" font-size="11.00" fill="#000000">deallocated_at_modified</text>
<polygon fill="none" stroke="#000000" points="523.5,-125.2 523.5,-147.2 617.5,-147.2 617.5,-125.2 523.5,-125.2"/>
<text text-anchor="start" x="526.5" y="-132.9" font-family="Helvetica,sans-Serif" font-size="11.00" fill="#000000">bool[1]</text>
<polygon fill="none" stroke="#000000" points="302.5,-103.2 302.5,-125.2 523.5,-125.2 523.5,-103.2 302.5,-103.2"/>
<text text-anchor="start" x="322.5" y="-110.3" font-family="Helvetica,sans-Serif" font-size="11.00" fill="#000000">deallocation_reason_modified</text>
<polygon fill="none" stroke="#000000" points="523.5,-103.2 523.5,-125.2 617.5,-125.2 617.5,-103.2 523.5,-103.2"/>
<text text-anchor="start" x="526.5" y="-110.9" font-family="Helvetica,sans-Serif" font-size="11.00" fill="#000000">bool[1]</text>
<polygon fill="none" stroke="#000000" points="302.5,-81.2 302.5,-103.2 523.5,-103.2 523.5,-81.2 302.5,-81.2"/>
<text text-anchor="start" x="322.5" y="-88.3" font-family="Helvetica,sans-Serif" font-size="11.00" fill="#000000">deallocated_by_modified</text>
<polygon fill="none" stroke="#000000" points="523.5,-81.2 523.5,-103.2 617.5,-103.2 617.5,-81.2 523.5,-81.2"/>
<text text-anchor="start" x="526.5" y="-88.9" font-family="Helvetica,sans-Serif" font-size="11.00" fill="#000000">bool[1]</text>
<polygon fill="none" stroke="#000000" points="302.5,-59.2 302.5,-81.2 523.5,-81.2 523.5,-59.2 302.5,-59.2"/>
<text text-anchor="start" x="322.5" y="-66.3" font-family="Helvetica,sans-Serif" font-size="11.00" fill="#000000">is_active_modified</text>
<polygon fill="none" stroke="#000000" points="523.5,-59.2 523.5,-81.2 617.5,-81.2 617.5,-59.2 523.5,-59.2"/>
<text text-anchor="start" x="526.5" y="-66.9" font-family="Helvetica,sans-Serif" font-size="11.00" fill="#000000">bool[1]</text>
<polygon fill="#ffffff" stroke="transparent" points="302.5,-40.2 302.5,-59.2 417.5,-59.2 417.5,-40.2 302.5,-40.2"/>
<polygon fill="none" stroke="#000000" points="302.5,-40.2 302.5,-59.2 417.5,-59.2 417.5,-40.2 302.5,-40.2"/>
<text text-anchor="start" x="305.5" y="-46.3" font-family="Helvetica,sans-Serif" font-size="11.00" fill="#000000">&lt; 3</text>
<polygon fill="#ffffff" stroke="transparent" points="417.5,-40.2 417.5,-59.2 523.5,-59.2 523.5,-40.2 417.5,-40.2"/>
<polygon fill="none" stroke="#000000" points="417.5,-40.2 417.5,-59.2 523.5,-59.2 523.5,-40.2 417.5,-40.2"/>
<text text-anchor="start" x="514.3862" y="-46.3" font-family="Helvetica,sans-Serif" font-size="11.00" fill="#000000"> &#160;</text>
<polygon fill="#ffffff" stroke="transparent" points="523.5,-40.2 523.5,-59.2 617.5,-59.2 617.5,-40.2 523.5,-40.2"/>
<polygon fill="none" stroke="#000000" points="523.5,-40.2 523.5,-59.2 617.5,-59.2 617.5,-40.2 523.5,-40.2"/>
<text text-anchor="start" x="598.9053" y="-46.3" font-family="Helvetica,sans-Serif" font-size="11.00" fill="#000000">0 &gt;</text>
<polygon fill="none" stroke="#000000" stroke-width="2" points="301,-39.2 301,-523.2 618,-523.2 618,-39.2 301,-39.2"/>
</a>
</g>
</g>
<!-- policy -->
<g id="node2" class="node">
<title>policy</title>
<g id="a_node2"><a xlink:href="../../tables/policy.html" xlink:title="policy" target="_top">
<polygon fill="#ffffff" stroke="transparent" points="81,-131.7 81,-214.7 178,-214.7 178,-131.7 81,-131.7"/>
<polygon fill="#f5f5f5" stroke="transparent" points="81.5,-191.2 81.5,-214.2 178.5,-214.2 178.5,-191.2 81.5,-191.2"/>
<polygon fill="none" stroke="#000000" points="81.5,-191.2 81.5,-214.2 178.5,-214.2 178.5,-191.2 81.5,-191.2"/>
<text text-anchor="start" x="86.5" y="-199.8" font-family="Helvetica,sans-Serif" font-weight="bold" font-size="11.00" fill="#000000">policy</text>
<text text-anchor="start" x="143.5437" y="-199.3" font-family="Helvetica,sans-Serif" font-size="11.00" fill="#000000">[table]</text>
<polygon fill="none" stroke="#000000" points="81.5,-169.2 81.5,-191.2 178.5,-191.2 178.5,-169.2 81.5,-169.2"/>
<image xlink:href="../../images/primaryKeys.png" width="11px" height="12px" preserveAspectRatio="xMinYMin meet" x="86.5" y="-186.2"/>
<text text-anchor="start" x="101.5" y="-176.3" font-family="Helvetica,sans-Serif" font-size="11.00" fill="#000000">code</text>
<polygon fill="none" stroke="#000000" points="81.5,-150.2 81.5,-169.2 178.5,-169.2 178.5,-150.2 81.5,-150.2"/>
<text text-anchor="start" x="84.5" y="-156.3" font-family="Helvetica,sans-Serif" font-size="11.00" fill="#000000">...</text>
<polygon fill="#ffffff" stroke="transparent" points="81.5,-131.2 81.5,-150.2 119.5,-150.2 119.5,-131.2 81.5,-131.2"/>
<polygon fill="none" stroke="#000000" points="81.5,-131.2 81.5,-150.2 119.5,-150.2 119.5,-131.2 81.5,-131.2"/>
<text text-anchor="start" x="84.5" y="-137.3" font-family="Helvetica,sans-Serif" font-size="11.00" fill="#000000"> &#160;</text>
<polygon fill="#ffffff" stroke="transparent" points="119.5,-131.2 119.5,-150.2 144.5,-150.2 144.5,-131.2 119.5,-131.2"/>
<polygon fill="none" stroke="#000000" points="119.5,-131.2 119.5,-150.2 144.5,-150.2 144.5,-131.2 119.5,-131.2"/>
<text text-anchor="start" x="135.3862" y="-137.3" font-family="Helvetica,sans-Serif" font-size="11.00" fill="#000000"> &#160;</text>
<polygon fill="#ffffff" stroke="transparent" points="144.5,-131.2 144.5,-150.2 178.5,-150.2 178.5,-131.2 144.5,-131.2"/>
<polygon fill="none" stroke="#000000" points="144.5,-131.2 144.5,-150.2 178.5,-150.2 178.5,-131.2 144.5,-131.2"/>
<text text-anchor="start" x="159.9053" y="-137.3" font-family="Helvetica,sans-Serif" font-size="11.00" fill="#000000">9 &gt;</text>
</a>
</g>
</g>
<!-- allocation_audit&#45;&gt;policy -->
<g id="edge1" class="edge">
<title>allocation_audit:w&#45;&gt;policy:e</title>
<path fill="none" stroke="#000000" stroke-dasharray="5,2" d="M288.0217,-180.2C244.4423,-180.2 228.4444,-180.2 178.5,-180.2"/>
<polygon fill="#000000" stroke="#000000" points="294.5,-180.2001 302.5,-183.8 298.5,-180.2 302.5,-180.2 302.5,-180.2 302.5,-180.2 298.5,-180.2 302.5,-176.6 294.5,-180.2001 294.5,-180.2001"/>
<ellipse fill="none" stroke="#000000" cx="291.3" cy="-180.2001" rx="3.2" ry="3.2"/>
</g>
<!-- prison_migration_date_history -->
<g id="node3" class="node">
<title>prison_migration_date_history</title>
<g id="a_node3"><a xlink:href="../../tables/prison_migration_date_history.html" xlink:title="prison_migration_date_history" target="_top">
<polygon fill="#ffffff" stroke="transparent" points="8,-354.7 8,-437.7 251,-437.7 251,-354.7 8,-354.7"/>
<polygon fill="#f5f5f5" stroke="transparent" points="8.5,-414.2 8.5,-437.2 251.5,-437.2 251.5,-414.2 8.5,-414.2"/>
<polygon fill="none" stroke="#000000" points="8.5,-414.2 8.5,-437.2 251.5,-437.2 251.5,-414.2 8.5,-414.2"/>
<text text-anchor="start" x="13.5" y="-422.8" font-family="Helvetica,sans-Serif" font-weight="bold" font-size="11.00" fill="#000000">prison_migration_date_history</text>
<text text-anchor="start" x="217.0219" y="-422.3" font-family="Helvetica,sans-Serif" font-size="11.00" fill="#000000">[table]</text>
<polygon fill="none" stroke="#000000" points="8.5,-392.2 8.5,-414.2 251.5,-414.2 251.5,-392.2 8.5,-392.2"/>
<image xlink:href="../../images/primaryKeys.png" width="11px" height="12px" preserveAspectRatio="xMinYMin meet" x="13.5" y="-409.2"/>
<text text-anchor="start" x="37.5" y="-399.3" font-family="Helvetica,sans-Serif" font-size="11.00" fill="#000000">prison_code</text>
<polygon fill="none" stroke="#000000" points="8.5,-373.2 8.5,-392.2 251.5,-392.2 251.5,-373.2 8.5,-373.2"/>
<text text-anchor="start" x="11.5" y="-379.3" font-family="Helvetica,sans-Serif" font-size="11.00" fill="#000000">...</text>
<polygon fill="#ffffff" stroke="transparent" points="8.5,-354.2 8.5,-373.2 119.5,-373.2 119.5,-354.2 8.5,-354.2"/>
<polygon fill="none" stroke="#000000" points="8.5,-354.2 8.5,-373.2 119.5,-373.2 119.5,-354.2 8.5,-354.2"/>
<text text-anchor="start" x="11.5" y="-360.3" font-family="Helvetica,sans-Serif" font-size="11.00" fill="#000000"> &#160;</text>
<polygon fill="#ffffff" stroke="transparent" points="119.5,-354.2 119.5,-373.2 180.5,-373.2 180.5,-354.2 119.5,-354.2"/>
<polygon fill="none" stroke="#000000" points="119.5,-354.2 119.5,-373.2 180.5,-373.2 180.5,-354.2 119.5,-354.2"/>
<text text-anchor="start" x="171.3862" y="-360.3" font-family="Helvetica,sans-Serif" font-size="11.00" fill="#000000"> &#160;</text>
<polygon fill="#ffffff" stroke="transparent" points="180.5,-354.2 180.5,-373.2 251.5,-373.2 251.5,-354.2 180.5,-354.2"/>
<polygon fill="none" stroke="#000000" points="180.5,-354.2 180.5,-373.2 251.5,-373.2 251.5,-354.2 180.5,-354.2"/>
<text text-anchor="start" x="232.9053" y="-360.3" font-family="Helvetica,sans-Serif" font-size="11.00" fill="#000000">9 &gt;</text>
</a>
</g>
</g>
<!-- allocation_audit&#45;&gt;prison_migration_date_history -->
<g id="edge2" class="edge">
<title>allocation_audit:w&#45;&gt;prison_migration_date_history:e</title>
<path fill="none" stroke="#000000" stroke-dasharray="5,2" d="M288.1076,-419.3965C275.7761,-414.1113 269.8304,-403.2 251.5,-403.2"/>
<polygon fill="#000000" stroke="#000000" points="294.6476,-420.6704 301.8117,-425.7336 298.5738,-421.4352 302.5,-422.2 302.5,-422.2 302.5,-422.2 298.5738,-421.4352 303.1883,-418.6664 294.6476,-420.6704 294.6476,-420.6704"/>
<ellipse fill="none" stroke="#000000" cx="291.5066" cy="-420.0585" rx="3.2" ry="3.2"/>
</g>
<!-- audit_revision -->
<g id="node4" class="node">
<title>audit_revision</title>
<g id="a_node4"><a xlink:href="../../tables/audit_revision.html" xlink:title="audit_revision" target="_top">
<polygon fill="#ffffff" stroke="transparent" points="62.5,-458.7 62.5,-541.7 196.5,-541.7 196.5,-458.7 62.5,-458.7"/>
<polygon fill="#f5f5f5" stroke="transparent" points="62.5,-518.2 62.5,-541.2 196.5,-541.2 196.5,-518.2 62.5,-518.2"/>
<polygon fill="none" stroke="#000000" points="62.5,-518.2 62.5,-541.2 196.5,-541.2 196.5,-518.2 62.5,-518.2"/>
<text text-anchor="start" x="67.5" y="-526.8" font-family="Helvetica,sans-Serif" font-weight="bold" font-size="11.00" fill="#000000">audit_revision</text>
<text text-anchor="start" x="162.0219" y="-526.3" font-family="Helvetica,sans-Serif" font-size="11.00" fill="#000000">[table]</text>
<polygon fill="none" stroke="#000000" points="62.5,-496.2 62.5,-518.2 196.5,-518.2 196.5,-496.2 62.5,-496.2"/>
<image xlink:href="../../images/primaryKeys.png" width="11px" height="12px" preserveAspectRatio="xMinYMin meet" x="67.5" y="-513.2"/>
<text text-anchor="start" x="82.5" y="-503.3" font-family="Helvetica,sans-Serif" font-size="11.00" fill="#000000">id</text>
<polygon fill="none" stroke="#000000" points="62.5,-477.2 62.5,-496.2 196.5,-496.2 196.5,-477.2 62.5,-477.2"/>
<text text-anchor="start" x="65.5" y="-483.3" font-family="Helvetica,sans-Serif" font-size="11.00" fill="#000000">...</text>
<polygon fill="#ffffff" stroke="transparent" points="62.5,-458.2 62.5,-477.2 118.5,-477.2 118.5,-458.2 62.5,-458.2"/>
<polygon fill="none" stroke="#000000" points="62.5,-458.2 62.5,-477.2 118.5,-477.2 118.5,-458.2 62.5,-458.2"/>
<text text-anchor="start" x="65.5" y="-464.3" font-family="Helvetica,sans-Serif" font-size="11.00" fill="#000000"> &#160;</text>
<polygon fill="#ffffff" stroke="transparent" points="118.5,-458.2 118.5,-477.2 152.5,-477.2 152.5,-458.2 118.5,-458.2"/>
<polygon fill="none" stroke="#000000" points="118.5,-458.2 118.5,-477.2 152.5,-477.2 152.5,-458.2 118.5,-458.2"/>
<text text-anchor="start" x="143.3862" y="-464.3" font-family="Helvetica,sans-Serif" font-size="11.00" fill="#000000"> &#160;</text>
<polygon fill="#ffffff" stroke="transparent" points="152.5,-458.2 152.5,-477.2 196.5,-477.2 196.5,-458.2 152.5,-458.2"/>
<polygon fill="none" stroke="#000000" points="152.5,-458.2 152.5,-477.2 196.5,-477.2 196.5,-458.2 152.5,-458.2"/>
<text text-anchor="start" x="177.9053" y="-464.3" font-family="Helvetica,sans-Serif" font-size="11.00" fill="#000000">5 &gt;</text>
</a>
</g>
</g>
<!-- allocation_audit&#45;&gt;audit_revision -->
<g id="edge3" class="edge">
<title>allocation_audit:w&#45;&gt;audit_revision:e</title>
<path fill="none" stroke="#000000" d="M288.0458,-488.8322C251.9405,-492.129 239.127,-507.2 196.5,-507.2"/>
<polygon fill="#000000" stroke="#000000" points="294.5076,-488.5496 302.6573,-491.7966 298.5038,-488.3748 302.5,-488.2 302.5,-488.2 302.5,-488.2 298.5038,-488.3748 302.3427,-484.6034 294.5076,-488.5496 294.5076,-488.5496"/>
<ellipse fill="none" stroke="#000000" cx="291.3107" cy="-488.6894" rx="3.2" ry="3.2"/>
</g>
</g>
</svg>
