<?xml version="1.0" encoding="UTF-8" standalone="no"?>
<!DOCTYPE svg PUBLIC "-//W3C//DTD SVG 1.1//EN"
 "http://www.w3.org/Graphics/SVG/1.1/DTD/svg11.dtd">
<!-- Generated by graphviz version 2.40.1 (20161225.0304)
 -->
<!-- Title: twoDegreesRelationshipsDiagram Pages: 1 -->
<svg width="704pt" height="835pt"
 viewBox="0.00 0.00 704.00 835.20" xmlns="http://www.w3.org/2000/svg" xmlns:xlink="http://www.w3.org/1999/xlink">
<g id="graph0" class="graph" transform="scale(1 1) rotate(0) translate(4 831.2)">
<title>twoDegreesRelationshipsDiagram</title>
<polygon fill="#ffffff" stroke="transparent" points="-4,4 -4,-831.2 700,-831.2 700,4 -4,4"/>
<text text-anchor="middle" x="72.4936" y="-7.3" font-family="Helvetica,sans-Serif" font-size="11.00" fill="#000000">Generated by SchemaSpy</text>
<!-- allocation_audit -->
<g id="node1" class="node">
<title>allocation_audit</title>
<g id="a_node1"><a xlink:href="../../tables/allocation_audit.html" xlink:title="allocation_audit" target="_top">
<polygon fill="#ffffff" stroke="transparent" points="389,-674.2 389,-823.2 610,-823.2 610,-674.2 389,-674.2"/>
<polygon fill="#f5f5f5" stroke="transparent" points="389.5,-799.7 389.5,-822.7 610.5,-822.7 610.5,-799.7 389.5,-799.7"/>
<polygon fill="none" stroke="#000000" points="389.5,-799.7 389.5,-822.7 610.5,-822.7 610.5,-799.7 389.5,-799.7"/>
<text text-anchor="start" x="394.5" y="-808.3" font-family="Helvetica,sans-Serif" font-weight="bold" font-size="11.00" fill="#000000">allocation_audit</text>
<text text-anchor="start" x="575.5437" y="-807.8" font-family="Helvetica,sans-Serif" font-size="11.00" fill="#000000">[table]</text>
<polygon fill="none" stroke="#000000" points="389.5,-777.7 389.5,-799.7 610.5,-799.7 610.5,-777.7 389.5,-777.7"/>
<image xlink:href="../../images/primaryKeys.png" width="11px" height="12px" preserveAspectRatio="xMinYMin meet" x="394.5" y="-794.7"/>
<text text-anchor="start" x="409.5" y="-784.8" font-family="Helvetica,sans-Serif" font-size="11.00" fill="#000000">rev_id</text>
<polygon fill="none" stroke="#000000" points="389.5,-755.7 389.5,-777.7 610.5,-777.7 610.5,-755.7 389.5,-755.7"/>
<image xlink:href="../../images/primaryKeys.png" width="11px" height="12px" preserveAspectRatio="xMinYMin meet" x="394.5" y="-772.7"/>
<text text-anchor="start" x="409.5" y="-762.8" font-family="Helvetica,sans-Serif" font-size="11.00" fill="#000000">id</text>
<polygon fill="none" stroke="#000000" points="389.5,-733.7 389.5,-755.7 610.5,-755.7 610.5,-733.7 389.5,-733.7"/>
<image xlink:href="../../images/foreignKeys.png" width="11px" height="12px" preserveAspectRatio="xMinYMin meet" x="394.5" y="-750.7"/>
<text text-anchor="start" x="409.5" y="-740.8" font-family="Helvetica,sans-Serif" font-size="11.00" fill="#000000">prison_code</text>
<polygon fill="none" stroke="#000000" points="389.5,-711.7 389.5,-733.7 610.5,-733.7 610.5,-711.7 389.5,-711.7"/>
<image xlink:href="../../images/foreignKeys.png" width="11px" height="12px" preserveAspectRatio="xMinYMin meet" x="394.5" y="-728.7"/>
<text text-anchor="start" x="409.5" y="-718.8" font-family="Helvetica,sans-Serif" font-size="11.00" fill="#000000">policy_code</text>
<polygon fill="none" stroke="#000000" points="389.5,-692.7 389.5,-711.7 610.5,-711.7 610.5,-692.7 389.5,-692.7"/>
<text text-anchor="start" x="392.5" y="-698.8" font-family="Helvetica,sans-Serif" font-size="11.00" fill="#000000">...</text>
<polygon fill="#ffffff" stroke="transparent" points="389.5,-673.7 389.5,-692.7 498.5,-692.7 498.5,-673.7 389.5,-673.7"/>
<polygon fill="none" stroke="#000000" points="389.5,-673.7 389.5,-692.7 498.5,-692.7 498.5,-673.7 389.5,-673.7"/>
<text text-anchor="start" x="392.5" y="-679.8" font-family="Helvetica,sans-Serif" font-size="11.00" fill="#000000">&lt; 1</text>
<polygon fill="#ffffff" stroke="transparent" points="498.5,-673.7 498.5,-692.7 554.5,-692.7 554.5,-673.7 498.5,-673.7"/>
<polygon fill="none" stroke="#000000" points="498.5,-673.7 498.5,-692.7 554.5,-692.7 554.5,-673.7 498.5,-673.7"/>
<text text-anchor="start" x="545.3862" y="-679.8" font-family="Helvetica,sans-Serif" font-size="11.00" fill="#000000"> &#160;</text>
<polygon fill="#ffffff" stroke="transparent" points="554.5,-673.7 554.5,-692.7 610.5,-692.7 610.5,-673.7 554.5,-673.7"/>
<polygon fill="none" stroke="#000000" points="554.5,-673.7 554.5,-692.7 610.5,-692.7 610.5,-673.7 554.5,-673.7"/>
<text text-anchor="start" x="601.3862" y="-679.8" font-family="Helvetica,sans-Serif" font-size="11.00" fill="#000000"> &#160;</text>
</a>
</g>
</g>
<!-- audit_revision -->
<g id="node2" class="node">
<title>audit_revision</title>
<g id="a_node2"><a xlink:href="../../tables/audit_revision.html" xlink:title="audit_revision" target="_top">
<polygon fill="#ffffff" stroke="transparent" points="8,-328.7 8,-484.7 262,-484.7 262,-328.7 8,-328.7"/>
<polygon fill="#f5f5f5" stroke="transparent" points="10,-459.7 10,-482.7 260,-482.7 260,-459.7 10,-459.7"/>
<polygon fill="none" stroke="#000000" points="10,-459.7 10,-482.7 260,-482.7 260,-459.7 10,-459.7"/>
<text text-anchor="start" x="15" y="-468.3" font-family="Helvetica,sans-Serif" font-weight="bold" font-size="11.00" fill="#000000">audit_revision</text>
<text text-anchor="start" x="225.0437" y="-467.8" font-family="Helvetica,sans-Serif" font-size="11.00" fill="#000000">[table]</text>
<polygon fill="none" stroke="#000000" points="10,-437.7 10,-459.7 144,-459.7 144,-437.7 10,-437.7"/>
<image xlink:href="../../images/primaryKeys.png" width="11px" height="12px" preserveAspectRatio="xMinYMin meet" x="15" y="-454.7"/>
<text text-anchor="start" x="30" y="-444.8" font-family="Helvetica,sans-Serif" font-size="11.00" fill="#000000">id</text>
<polygon fill="none" stroke="#000000" points="144,-437.7 144,-459.7 260,-459.7 260,-437.7 144,-437.7"/>
<text text-anchor="start" x="147" y="-445.4" font-family="Helvetica,sans-Serif" font-size="11.00" fill="#000000">bigserial[19]</text>
<polygon fill="none" stroke="#000000" points="10,-415.7 10,-437.7 144,-437.7 144,-415.7 10,-415.7"/>
<text text-anchor="start" x="30" y="-422.8" font-family="Helvetica,sans-Serif" font-size="11.00" fill="#000000">timestamp</text>
<polygon fill="none" stroke="#000000" points="144,-415.7 144,-437.7 260,-437.7 260,-415.7 144,-415.7"/>
<text text-anchor="start" x="147" y="-423.4" font-family="Helvetica,sans-Serif" font-size="11.00" fill="#000000">timestamp[29,6]</text>
<polygon fill="none" stroke="#000000" points="10,-393.7 10,-415.7 144,-415.7 144,-393.7 10,-393.7"/>
<text text-anchor="start" x="30" y="-400.8" font-family="Helvetica,sans-Serif" font-size="11.00" fill="#000000">username</text>
<polygon fill="none" stroke="#000000" points="144,-393.7 144,-415.7 260,-415.7 260,-393.7 144,-393.7"/>
<text text-anchor="start" x="147" y="-401.4" font-family="Helvetica,sans-Serif" font-size="11.00" fill="#000000">varchar[32]</text>
<polygon fill="none" stroke="#000000" points="10,-371.7 10,-393.7 144,-393.7 144,-371.7 10,-371.7"/>
<text text-anchor="start" x="30" y="-378.8" font-family="Helvetica,sans-Serif" font-size="11.00" fill="#000000">caseload_id</text>
<polygon fill="none" stroke="#000000" points="144,-371.7 144,-393.7 260,-393.7 260,-371.7 144,-371.7"/>
<text text-anchor="start" x="147" y="-379.4" font-family="Helvetica,sans-Serif" font-size="11.00" fill="#000000">varchar[10]</text>
<polygon fill="none" stroke="#000000" points="10,-349.7 10,-371.7 144,-371.7 144,-349.7 10,-349.7"/>
<text text-anchor="start" x="30" y="-356.8" font-family="Helvetica,sans-Serif" font-size="11.00" fill="#000000">affected_entities</text>
<polygon fill="none" stroke="#000000" points="144,-349.7 144,-371.7 260,-371.7 260,-349.7 144,-349.7"/>
<text text-anchor="start" x="146.9769" y="-357.4" font-family="Helvetica,sans-Serif" font-size="11.00" fill="#000000">_varchar[2147483647]</text>
<polygon fill="#ffffff" stroke="transparent" points="10,-330.7 10,-349.7 81,-349.7 81,-330.7 10,-330.7"/>
<polygon fill="none" stroke="#000000" points="10,-330.7 10,-349.7 81,-349.7 81,-330.7 10,-330.7"/>
<text text-anchor="start" x="13" y="-336.8" font-family="Helvetica,sans-Serif" font-size="11.00" fill="#000000">&lt; 0</text>
<polygon fill="#ffffff" stroke="transparent" points="81,-330.7 81,-349.7 144,-349.7 144,-330.7 81,-330.7"/>
<polygon fill="none" stroke="#000000" points="81,-330.7 81,-349.7 144,-349.7 144,-330.7 81,-330.7"/>
<text text-anchor="start" x="134.8862" y="-336.8" font-family="Helvetica,sans-Serif" font-size="11.00" fill="#000000"> &#160;</text>
<polygon fill="#ffffff" stroke="transparent" points="144,-330.7 144,-349.7 260,-349.7 260,-330.7 144,-330.7"/>
<polygon fill="none" stroke="#000000" points="144,-330.7 144,-349.7 260,-349.7 260,-330.7 144,-330.7"/>
<text text-anchor="start" x="241.4053" y="-336.8" font-family="Helvetica,sans-Serif" font-size="11.00" fill="#000000">5 &gt;</text>
<polygon fill="none" stroke="#000000" stroke-width="2" points="9,-329.7 9,-483.7 261,-483.7 261,-329.7 9,-329.7"/>
</a>
</g>
</g>
<!-- allocation_audit&#45;&gt;audit_revision -->
<g id="edge1" class="edge">
<title>allocation_audit:w&#45;&gt;audit_revision:e</title>
<path fill="none" stroke="#000000" d="M374.9872,-787.5802C322.8979,-778.8899 327.3322,-721.0325 303,-663.7 283.9647,-618.8482 308.724,-448.7 260,-448.7"/>
<polygon fill="#000000" stroke="#000000" points="381.5237,-788.0845 389.223,-792.2893 385.5119,-788.3922 389.5,-788.7 389.5,-788.7 389.5,-788.7 385.5119,-788.3922 389.777,-785.1107 381.5237,-788.0845 381.5237,-788.0845"/>
<ellipse fill="none" stroke="#000000" cx="378.3332" cy="-787.8383" rx="3.2" ry="3.2"/>
</g>
<!-- prison_configuration_audit -->
<g id="node3" class="node">
<title>prison_configuration_audit</title>
<g id="a_node3"><a xlink:href="../../tables/prison_configuration_audit.html" xlink:title="prison_configuration_audit" target="_top">
<polygon fill="#ffffff" stroke="transparent" points="311,-504.2 311,-653.2 688,-653.2 688,-504.2 311,-504.2"/>
<polygon fill="#f5f5f5" stroke="transparent" points="311.5,-629.7 311.5,-652.7 688.5,-652.7 688.5,-629.7 311.5,-629.7"/>
<polygon fill="none" stroke="#000000" points="311.5,-629.7 311.5,-652.7 688.5,-652.7 688.5,-629.7 311.5,-629.7"/>
<text text-anchor="start" x="316.5" y="-638.3" font-family="Helvetica,sans-Serif" font-weight="bold" font-size="11.00" fill="#000000">prison_configuration_audit</text>
<text text-anchor="start" x="653.5437" y="-637.8" font-family="Helvetica,sans-Serif" font-size="11.00" fill="#000000">[table]</text>
<polygon fill="none" stroke="#000000" points="311.5,-607.7 311.5,-629.7 688.5,-629.7 688.5,-607.7 311.5,-607.7"/>
<image xlink:href="../../images/primaryKeys.png" width="11px" height="12px" preserveAspectRatio="xMinYMin meet" x="316.5" y="-624.7"/>
<text text-anchor="start" x="331.5" y="-614.8" font-family="Helvetica,sans-Serif" font-size="11.00" fill="#000000">rev_id</text>
<polygon fill="none" stroke="#000000" points="311.5,-585.7 311.5,-607.7 688.5,-607.7 688.5,-585.7 311.5,-585.7"/>
<image xlink:href="../../images/primaryKeys.png" width="11px" height="12px" preserveAspectRatio="xMinYMin meet" x="316.5" y="-602.7"/>
<text text-anchor="start" x="331.5" y="-592.8" font-family="Helvetica,sans-Serif" font-size="11.00" fill="#000000">id</text>
<polygon fill="none" stroke="#000000" points="311.5,-563.7 311.5,-585.7 688.5,-585.7 688.5,-563.7 311.5,-563.7"/>
<image xlink:href="../../images/foreignKeys.png" width="11px" height="12px" preserveAspectRatio="xMinYMin meet" x="316.5" y="-580.7"/>
<text text-anchor="start" x="331.5" y="-570.8" font-family="Helvetica,sans-Serif" font-size="11.00" fill="#000000">prison_code</text>
<polygon fill="none" stroke="#000000" points="311.5,-541.7 311.5,-563.7 688.5,-563.7 688.5,-541.7 311.5,-541.7"/>
<image xlink:href="../../images/foreignKeys.png" width="11px" height="12px" preserveAspectRatio="xMinYMin meet" x="316.5" y="-558.7"/>
<text text-anchor="start" x="331.5" y="-548.8" font-family="Helvetica,sans-Serif" font-size="11.00" fill="#000000">policy_code</text>
<polygon fill="none" stroke="#000000" points="311.5,-522.7 311.5,-541.7 688.5,-541.7 688.5,-522.7 311.5,-522.7"/>
<text text-anchor="start" x="314.5" y="-528.8" font-family="Helvetica,sans-Serif" font-size="11.00" fill="#000000">...</text>
<polygon fill="#ffffff" stroke="transparent" points="311.5,-503.7 311.5,-522.7 498.5,-522.7 498.5,-503.7 311.5,-503.7"/>
<polygon fill="none" stroke="#000000" points="311.5,-503.7 311.5,-522.7 498.5,-522.7 498.5,-503.7 311.5,-503.7"/>
<text text-anchor="start" x="314.5" y="-509.8" font-family="Helvetica,sans-Serif" font-size="11.00" fill="#000000">&lt; 1</text>
<polygon fill="#ffffff" stroke="transparent" points="498.5,-503.7 498.5,-522.7 593.5,-522.7 593.5,-503.7 498.5,-503.7"/>
<polygon fill="none" stroke="#000000" points="498.5,-503.7 498.5,-522.7 593.5,-522.7 593.5,-503.7 498.5,-503.7"/>
<text text-anchor="start" x="584.3862" y="-509.8" font-family="Helvetica,sans-Serif" font-size="11.00" fill="#000000"> &#160;</text>
<polygon fill="#ffffff" stroke="transparent" points="593.5,-503.7 593.5,-522.7 688.5,-522.7 688.5,-503.7 593.5,-503.7"/>
<polygon fill="none" stroke="#000000" points="593.5,-503.7 593.5,-522.7 688.5,-522.7 688.5,-503.7 593.5,-503.7"/>
<text text-anchor="start" x="679.3862" y="-509.8" font-family="Helvetica,sans-Serif" font-size="11.00" fill="#000000"> &#160;</text>
</a>
</g>
</g>
<!-- prison_configuration_audit&#45;&gt;audit_revision -->
<g id="edge2" class="edge">
<title>prison_configuration_audit:w&#45;&gt;audit_revision:e</title>
<path fill="none" stroke="#000000" d="M297.1485,-616.1649C246.9627,-595.0175 333.2413,-448.7 260,-448.7"/>
<polygon fill="#000000" stroke="#000000" points="303.622,-617.3084 310.8738,-622.2451 307.561,-618.0042 311.5,-618.7 311.5,-618.7 311.5,-618.7 307.561,-618.0042 312.1262,-615.1549 303.622,-617.3084 303.622,-617.3084"/>
<ellipse fill="none" stroke="#000000" cx="300.4707" cy="-616.7517" rx="3.2" ry="3.2"/>
</g>
<!-- recorded_event_audit -->
<g id="node4" class="node">
<title>recorded_event_audit</title>
<g id="a_node4"><a xlink:href="../../tables/recorded_event_audit.html" xlink:title="recorded_event_audit" target="_top">
<polygon fill="#ffffff" stroke="transparent" points="407,-38.2 407,-165.2 592,-165.2 592,-38.2 407,-38.2"/>
<polygon fill="#f5f5f5" stroke="transparent" points="407.5,-141.7 407.5,-164.7 592.5,-164.7 592.5,-141.7 407.5,-141.7"/>
<polygon fill="none" stroke="#000000" points="407.5,-141.7 407.5,-164.7 592.5,-164.7 592.5,-141.7 407.5,-141.7"/>
<text text-anchor="start" x="412.5" y="-150.3" font-family="Helvetica,sans-Serif" font-weight="bold" font-size="11.00" fill="#000000">recorded_event_audit</text>
<text text-anchor="start" x="558.0219" y="-149.8" font-family="Helvetica,sans-Serif" font-size="11.00" fill="#000000">[table]</text>
<polygon fill="none" stroke="#000000" points="407.5,-119.7 407.5,-141.7 592.5,-141.7 592.5,-119.7 407.5,-119.7"/>
<image xlink:href="../../images/foreignKeys.png" width="11px" height="12px" preserveAspectRatio="xMinYMin meet" x="412.5" y="-136.7"/>
<text text-anchor="start" x="436.5" y="-126.8" font-family="Helvetica,sans-Serif" font-size="11.00" fill="#000000">rev_id</text>
<polygon fill="none" stroke="#000000" points="407.5,-97.7 407.5,-119.7 592.5,-119.7 592.5,-97.7 407.5,-97.7"/>
<image xlink:href="../../images/foreignKeys.png" width="11px" height="12px" preserveAspectRatio="xMinYMin meet" x="412.5" y="-114.7"/>
<text text-anchor="start" x="436.5" y="-104.8" font-family="Helvetica,sans-Serif" font-size="11.00" fill="#000000">prison_code</text>
<polygon fill="none" stroke="#000000" points="407.5,-75.7 407.5,-97.7 592.5,-97.7 592.5,-75.7 407.5,-75.7"/>
<image xlink:href="../../images/foreignKeys.png" width="11px" height="12px" preserveAspectRatio="xMinYMin meet" x="412.5" y="-92.7"/>
<text text-anchor="start" x="436.5" y="-82.8" font-family="Helvetica,sans-Serif" font-size="11.00" fill="#000000">policy_code</text>
<polygon fill="none" stroke="#000000" points="407.5,-56.7 407.5,-75.7 592.5,-75.7 592.5,-56.7 407.5,-56.7"/>
<text text-anchor="start" x="410.5" y="-62.8" font-family="Helvetica,sans-Serif" font-size="11.00" fill="#000000">...</text>
<polygon fill="#ffffff" stroke="transparent" points="407.5,-37.7 407.5,-56.7 498.5,-56.7 498.5,-37.7 407.5,-37.7"/>
<polygon fill="none" stroke="#000000" points="407.5,-37.7 407.5,-56.7 498.5,-56.7 498.5,-37.7 407.5,-37.7"/>
<text text-anchor="start" x="410.5" y="-43.8" font-family="Helvetica,sans-Serif" font-size="11.00" fill="#000000">&lt; 2</text>
<polygon fill="#ffffff" stroke="transparent" points="498.5,-37.7 498.5,-56.7 545.5,-56.7 545.5,-37.7 498.5,-37.7"/>
<polygon fill="none" stroke="#000000" points="498.5,-37.7 498.5,-56.7 545.5,-56.7 545.5,-37.7 498.5,-37.7"/>
<text text-anchor="start" x="536.3862" y="-43.8" font-family="Helvetica,sans-Serif" font-size="11.00" fill="#000000"> &#160;</text>
<polygon fill="#ffffff" stroke="transparent" points="545.5,-37.7 545.5,-56.7 592.5,-56.7 592.5,-37.7 545.5,-37.7"/>
<polygon fill="none" stroke="#000000" points="545.5,-37.7 545.5,-56.7 592.5,-56.7 592.5,-37.7 545.5,-37.7"/>
<text text-anchor="start" x="583.3862" y="-43.8" font-family="Helvetica,sans-Serif" font-size="11.00" fill="#000000"> &#160;</text>
</a>
</g>
</g>
<!-- recorded_event_audit&#45;&gt;audit_revision -->
<g id="edge4" class="edge">
<title>recorded_event_audit:w&#45;&gt;audit_revision:e</title>
<path fill="none" stroke="#000000" d="M392.9108,-130.8878C352.1932,-132.0873 330.8622,-139.8147 303,-175.7 265.336,-224.2095 321.4146,-448.7 260,-448.7"/>
<polygon fill="#000000" stroke="#000000" points="399.5007,-130.803 407.5464,-134.2997 403.5003,-130.7515 407.5,-130.7 407.5,-130.7 407.5,-130.7 403.5003,-130.7515 407.4536,-127.1003 399.5007,-130.803 399.5007,-130.803"/>
<ellipse fill="none" stroke="#000000" cx="396.3009" cy="-130.8442" rx="3.2" ry="3.2"/>
</g>
<!-- policy -->
<g id="node5" class="node">
<title>policy</title>
<g id="a_node5"><a xlink:href="../../tables/policy.html" xlink:title="policy" target="_top">
<polygon fill="#ffffff" stroke="transparent" points="96,-59.2 96,-120.2 174,-120.2 174,-59.2 96,-59.2"/>
<polygon fill="#f5f5f5" stroke="transparent" points="96,-96.7 96,-119.7 174,-119.7 174,-96.7 96,-96.7"/>
<polygon fill="none" stroke="#000000" points="96,-96.7 96,-119.7 174,-119.7 174,-96.7 96,-96.7"/>
<text text-anchor="start" x="101" y="-105.3" font-family="Helvetica,sans-Serif" font-weight="bold" font-size="11.00" fill="#000000">policy</text>
<text text-anchor="start" x="139.5219" y="-104.8" font-family="Helvetica,sans-Serif" font-size="11.00" fill="#000000">[table]</text>
<polygon fill="none" stroke="#000000" points="96,-77.7 96,-96.7 174,-96.7 174,-77.7 96,-77.7"/>
<text text-anchor="start" x="99" y="-83.8" font-family="Helvetica,sans-Serif" font-size="11.00" fill="#000000">...</text>
<polygon fill="#ffffff" stroke="transparent" points="96,-58.7 96,-77.7 124,-77.7 124,-58.7 96,-58.7"/>
<polygon fill="none" stroke="#000000" points="96,-58.7 96,-77.7 124,-77.7 124,-58.7 96,-58.7"/>
<text text-anchor="start" x="99" y="-64.8" font-family="Helvetica,sans-Serif" font-size="11.00" fill="#000000"> &#160;</text>
<polygon fill="#ffffff" stroke="transparent" points="124,-58.7 124,-77.7 144,-77.7 144,-58.7 124,-58.7"/>
<polygon fill="none" stroke="#000000" points="124,-58.7 124,-77.7 144,-77.7 144,-58.7 124,-58.7"/>
<text text-anchor="start" x="134.8862" y="-64.8" font-family="Helvetica,sans-Serif" font-size="11.00" fill="#000000"> &#160;</text>
<polygon fill="#ffffff" stroke="transparent" points="144,-58.7 144,-77.7 174,-77.7 174,-58.7 144,-58.7"/>
<polygon fill="none" stroke="#000000" points="144,-58.7 144,-77.7 174,-77.7 174,-58.7 144,-58.7"/>
<text text-anchor="start" x="155.4053" y="-64.8" font-family="Helvetica,sans-Serif" font-size="11.00" fill="#000000">7 &gt;</text>
</a>
</g>
</g>
<!-- recorded_event_audit&#45;&gt;policy -->
<g id="edge3" class="edge">
<title>recorded_event_audit:w&#45;&gt;policy:e</title>
<path fill="none" stroke="#000000" d="M392.8368,-86.7C301.003,-86.7 272.7105,-86.7 174,-86.7"/>
<polygon fill="#000000" stroke="#000000" points="399.5,-86.7001 407.5,-90.3 403.5,-86.7 407.5,-86.7 407.5,-86.7 407.5,-86.7 403.5,-86.7 407.5,-83.1 399.5,-86.7001 399.5,-86.7001"/>
<ellipse fill="none" stroke="#000000" cx="396.3" cy="-86.7001" rx="3.2" ry="3.2"/>
</g>
<!-- staff_configuration_audit -->
<g id="node6" class="node">
<title>staff_configuration_audit</title>
<g id="a_node6"><a xlink:href="../../tables/staff_configuration_audit.html" xlink:title="staff_configuration_audit" target="_top">
<polygon fill="#ffffff" stroke="transparent" points="384,-356.2 384,-483.2 615,-483.2 615,-356.2 384,-356.2"/>
<polygon fill="#f5f5f5" stroke="transparent" points="384.5,-459.7 384.5,-482.7 615.5,-482.7 615.5,-459.7 384.5,-459.7"/>
<polygon fill="none" stroke="#000000" points="384.5,-459.7 384.5,-482.7 615.5,-482.7 615.5,-459.7 384.5,-459.7"/>
<text text-anchor="start" x="389.5" y="-468.3" font-family="Helvetica,sans-Serif" font-weight="bold" font-size="11.00" fill="#000000">staff_configuration_audit</text>
<text text-anchor="start" x="580.5437" y="-467.8" font-family="Helvetica,sans-Serif" font-size="11.00" fill="#000000">[table]</text>
<polygon fill="none" stroke="#000000" points="384.5,-437.7 384.5,-459.7 615.5,-459.7 615.5,-437.7 384.5,-437.7"/>
<image xlink:href="../../images/primaryKeys.png" width="11px" height="12px" preserveAspectRatio="xMinYMin meet" x="389.5" y="-454.7"/>
<text text-anchor="start" x="404.5" y="-444.8" font-family="Helvetica,sans-Serif" font-size="11.00" fill="#000000">rev_id</text>
<polygon fill="none" stroke="#000000" points="384.5,-415.7 384.5,-437.7 615.5,-437.7 615.5,-415.7 384.5,-415.7"/>
<image xlink:href="../../images/primaryKeys.png" width="11px" height="12px" preserveAspectRatio="xMinYMin meet" x="389.5" y="-432.7"/>
<text text-anchor="start" x="404.5" y="-422.8" font-family="Helvetica,sans-Serif" font-size="11.00" fill="#000000">id</text>
<polygon fill="none" stroke="#000000" points="384.5,-393.7 384.5,-415.7 615.5,-415.7 615.5,-393.7 384.5,-393.7"/>
<image xlink:href="../../images/foreignKeys.png" width="11px" height="12px" preserveAspectRatio="xMinYMin meet" x="389.5" y="-410.7"/>
<text text-anchor="start" x="404.5" y="-400.8" font-family="Helvetica,sans-Serif" font-size="11.00" fill="#000000">policy_code</text>
<polygon fill="none" stroke="#000000" points="384.5,-374.7 384.5,-393.7 615.5,-393.7 615.5,-374.7 384.5,-374.7"/>
<text text-anchor="start" x="387.5" y="-380.8" font-family="Helvetica,sans-Serif" font-size="11.00" fill="#000000">...</text>
<polygon fill="#ffffff" stroke="transparent" points="384.5,-355.7 384.5,-374.7 498.5,-374.7 498.5,-355.7 384.5,-355.7"/>
<polygon fill="none" stroke="#000000" points="384.5,-355.7 384.5,-374.7 498.5,-374.7 498.5,-355.7 384.5,-355.7"/>
<text text-anchor="start" x="387.5" y="-361.8" font-family="Helvetica,sans-Serif" font-size="11.00" fill="#000000">&lt; 1</text>
<polygon fill="#ffffff" stroke="transparent" points="498.5,-355.7 498.5,-374.7 556.5,-374.7 556.5,-355.7 498.5,-355.7"/>
<polygon fill="none" stroke="#000000" points="498.5,-355.7 498.5,-374.7 556.5,-374.7 556.5,-355.7 498.5,-355.7"/>
<text text-anchor="start" x="547.3862" y="-361.8" font-family="Helvetica,sans-Serif" font-size="11.00" fill="#000000"> &#160;</text>
<polygon fill="#ffffff" stroke="transparent" points="556.5,-355.7 556.5,-374.7 615.5,-374.7 615.5,-355.7 556.5,-355.7"/>
<polygon fill="none" stroke="#000000" points="556.5,-355.7 556.5,-374.7 615.5,-374.7 615.5,-355.7 556.5,-355.7"/>
<text text-anchor="start" x="606.3862" y="-361.8" font-family="Helvetica,sans-Serif" font-size="11.00" fill="#000000"> &#160;</text>
</a>
</g>
</g>
<!-- staff_configuration_audit&#45;&gt;audit_revision -->
<g id="edge5" class="edge">
<title>staff_configuration_audit:w&#45;&gt;audit_revision:e</title>
<path fill="none" stroke="#000000" d="M369.9633,-448.7C326.2082,-448.7 310.1458,-448.7 260,-448.7"/>
<polygon fill="#000000" stroke="#000000" points="376.5,-448.7001 384.5,-452.3 380.5,-448.7 384.5,-448.7 384.5,-448.7 384.5,-448.7 380.5,-448.7 384.5,-445.1 376.5,-448.7001 376.5,-448.7001"/>
<ellipse fill="none" stroke="#000000" cx="373.3" cy="-448.7001" rx="3.2" ry="3.2"/>
</g>
<!-- staff_role_audit -->
<g id="node7" class="node">
<title>staff_role_audit</title>
<g id="a_node7"><a xlink:href="../../tables/staff_role_audit.html" xlink:title="staff_role_audit" target="_top">
<polygon fill="#ffffff" stroke="transparent" points="402.5,-186.2 402.5,-335.2 596.5,-335.2 596.5,-186.2 402.5,-186.2"/>
<polygon fill="#f5f5f5" stroke="transparent" points="402.5,-311.7 402.5,-334.7 596.5,-334.7 596.5,-311.7 402.5,-311.7"/>
<polygon fill="none" stroke="#000000" points="402.5,-311.7 402.5,-334.7 596.5,-334.7 596.5,-311.7 402.5,-311.7"/>
<text text-anchor="start" x="407.5" y="-320.3" font-family="Helvetica,sans-Serif" font-weight="bold" font-size="11.00" fill="#000000">staff_role_audit</text>
<text text-anchor="start" x="561.5437" y="-319.8" font-family="Helvetica,sans-Serif" font-size="11.00" fill="#000000">[table]</text>
<polygon fill="none" stroke="#000000" points="402.5,-289.7 402.5,-311.7 596.5,-311.7 596.5,-289.7 402.5,-289.7"/>
<image xlink:href="../../images/primaryKeys.png" width="11px" height="12px" preserveAspectRatio="xMinYMin meet" x="407.5" y="-306.7"/>
<text text-anchor="start" x="422.5" y="-296.8" font-family="Helvetica,sans-Serif" font-size="11.00" fill="#000000">rev_id</text>
<polygon fill="none" stroke="#000000" points="402.5,-267.7 402.5,-289.7 596.5,-289.7 596.5,-267.7 402.5,-267.7"/>
<image xlink:href="../../images/primaryKeys.png" width="11px" height="12px" preserveAspectRatio="xMinYMin meet" x="407.5" y="-284.7"/>
<text text-anchor="start" x="422.5" y="-274.8" font-family="Helvetica,sans-Serif" font-size="11.00" fill="#000000">id</text>
<polygon fill="none" stroke="#000000" points="402.5,-245.7 402.5,-267.7 596.5,-267.7 596.5,-245.7 402.5,-245.7"/>
<image xlink:href="../../images/foreignKeys.png" width="11px" height="12px" preserveAspectRatio="xMinYMin meet" x="407.5" y="-262.7"/>
<text text-anchor="start" x="422.5" y="-252.8" font-family="Helvetica,sans-Serif" font-size="11.00" fill="#000000">policy_code</text>
<polygon fill="none" stroke="#000000" points="402.5,-223.7 402.5,-245.7 596.5,-245.7 596.5,-223.7 402.5,-223.7"/>
<image xlink:href="../../images/foreignKeys.png" width="11px" height="12px" preserveAspectRatio="xMinYMin meet" x="407.5" y="-240.7"/>
<text text-anchor="start" x="422.5" y="-230.8" font-family="Helvetica,sans-Serif" font-size="11.00" fill="#000000">prison_code</text>
<polygon fill="none" stroke="#000000" points="402.5,-204.7 402.5,-223.7 596.5,-223.7 596.5,-204.7 402.5,-204.7"/>
<text text-anchor="start" x="405.5" y="-210.8" font-family="Helvetica,sans-Serif" font-size="11.00" fill="#000000">...</text>
<polygon fill="#ffffff" stroke="transparent" points="402.5,-185.7 402.5,-204.7 497.5,-204.7 497.5,-185.7 402.5,-185.7"/>
<polygon fill="none" stroke="#000000" points="402.5,-185.7 402.5,-204.7 497.5,-204.7 497.5,-185.7 402.5,-185.7"/>
<text text-anchor="start" x="405.5" y="-191.8" font-family="Helvetica,sans-Serif" font-size="11.00" fill="#000000">&lt; 1</text>
<polygon fill="#ffffff" stroke="transparent" points="497.5,-185.7 497.5,-204.7 546.5,-204.7 546.5,-185.7 497.5,-185.7"/>
<polygon fill="none" stroke="#000000" points="497.5,-185.7 497.5,-204.7 546.5,-204.7 546.5,-185.7 497.5,-185.7"/>
<text text-anchor="start" x="537.3862" y="-191.8" font-family="Helvetica,sans-Serif" font-size="11.00" fill="#000000"> &#160;</text>
<polygon fill="#ffffff" stroke="transparent" points="546.5,-185.7 546.5,-204.7 596.5,-204.7 596.5,-185.7 546.5,-185.7"/>
<polygon fill="none" stroke="#000000" points="546.5,-185.7 546.5,-204.7 596.5,-204.7 596.5,-185.7 546.5,-185.7"/>
<text text-anchor="start" x="587.3862" y="-191.8" font-family="Helvetica,sans-Serif" font-size="11.00" fill="#000000"> &#160;</text>
</a>
</g>
</g>
<!-- staff_role_audit&#45;&gt;audit_revision -->
<g id="edge6" class="edge">
<title>staff_role_audit:w&#45;&gt;audit_revision:e</title>
<path fill="none" stroke="#000000" d="M387.638,-301.0843C350.0141,-303.2221 333.1152,-314.6908 303,-345.7 268.4394,-381.2866 309.6068,-448.7 260,-448.7"/>
<polygon fill="#000000" stroke="#000000" points="394.5027,-300.9069 402.5931,-304.2988 398.5013,-300.8034 402.5,-300.7 402.5,-300.7 402.5,-300.7 398.5013,-300.8034 402.4069,-297.1012 394.5027,-300.9069 394.5027,-300.9069"/>
<ellipse fill="none" stroke="#000000" cx="391.3037" cy="-300.9896" rx="3.2" ry="3.2"/>
</g>
</g>
</svg>
