<?xml version="1.0" encoding="UTF-8" standalone="no"?>
<!DOCTYPE svg PUBLIC "-//W3C//DTD SVG 1.1//EN"
 "http://www.w3.org/Graphics/SVG/1.1/DTD/svg11.dtd">
<!-- Generated by graphviz version 2.40.1 (20161225.0304)
 -->
<!-- Title: oneDegreeRelationshipsDiagram Pages: 1 -->
<svg width="575pt" height="206pt"
 viewBox="0.00 0.00 575.00 206.20" xmlns="http://www.w3.org/2000/svg" xmlns:xlink="http://www.w3.org/1999/xlink">
<g id="graph0" class="graph" transform="scale(1 1) rotate(0) translate(4 202.2)">
<title>oneDegreeRelationshipsDiagram</title>
<polygon fill="#ffffff" stroke="transparent" points="-4,4 -4,-202.2 571,-202.2 571,4 -4,4"/>
<text text-anchor="middle" x="72.4936" y="-7.3" font-family="Helvetica,sans-Serif" font-size="11.00" fill="#000000">Generated by SchemaSpy</text>
<!-- keyworker_configuration_audit -->
<g id="node1" class="node">
<title>keyworker_configuration_audit</title>
<g id="a_node1"><a xlink:href="../../tables/keyworker_configuration_audit.html" xlink:title="keyworker_configuration_audit" target="_top">
<polygon fill="#ffffff" stroke="transparent" points="311,-87.7 311,-192.7 559,-192.7 559,-87.7 311,-87.7"/>
<polygon fill="#f5f5f5" stroke="transparent" points="311,-169.2 311,-192.2 559,-192.2 559,-169.2 311,-169.2"/>
<polygon fill="none" stroke="#000000" points="311,-169.2 311,-192.2 559,-192.2 559,-169.2 311,-169.2"/>
<text text-anchor="start" x="316" y="-177.8" font-family="Helvetica,sans-Serif" font-weight="bold" font-size="11.00" fill="#000000">keyworker_configuration_audit</text>
<text text-anchor="start" x="524.5219" y="-177.3" font-family="Helvetica,sans-Serif" font-size="11.00" fill="#000000">[table]</text>
<polygon fill="none" stroke="#000000" points="311,-147.2 311,-169.2 559,-169.2 559,-147.2 311,-147.2"/>
<image xlink:href="../../images/primaryKeys.png" width="11px" height="12px" preserveAspectRatio="xMinYMin meet" x="316" y="-164.2"/>
<text text-anchor="start" x="340" y="-154.3" font-family="Helvetica,sans-Serif" font-size="11.00" fill="#000000">rev_id</text>
<polygon fill="none" stroke="#000000" points="311,-125.2 311,-147.2 559,-147.2 559,-125.2 311,-125.2"/>
<image xlink:href="../../images/primaryKeys.png" width="11px" height="12px" preserveAspectRatio="xMinYMin meet" x="316" y="-142.2"/>
<text text-anchor="start" x="340" y="-132.3" font-family="Helvetica,sans-Serif" font-size="11.00" fill="#000000">staff_id</text>
<polygon fill="none" stroke="#000000" points="311,-106.2 311,-125.2 559,-125.2 559,-106.2 311,-106.2"/>
<text text-anchor="start" x="314" y="-112.3" font-family="Helvetica,sans-Serif" font-size="11.00" fill="#000000">...</text>
<polygon fill="#ffffff" stroke="transparent" points="311,-87.2 311,-106.2 433,-106.2 433,-87.2 311,-87.2"/>
<polygon fill="none" stroke="#000000" points="311,-87.2 311,-106.2 433,-106.2 433,-87.2 311,-87.2"/>
<text text-anchor="start" x="314" y="-93.3" font-family="Helvetica,sans-Serif" font-size="11.00" fill="#000000">&lt; 1</text>
<polygon fill="#ffffff" stroke="transparent" points="433,-87.2 433,-106.2 496,-106.2 496,-87.2 433,-87.2"/>
<polygon fill="none" stroke="#000000" points="433,-87.2 433,-106.2 496,-106.2 496,-87.2 433,-87.2"/>
<text text-anchor="start" x="486.8862" y="-93.3" font-family="Helvetica,sans-Serif" font-size="11.00" fill="#000000"> &#160;</text>
<polygon fill="#ffffff" stroke="transparent" points="496,-87.2 496,-106.2 559,-106.2 559,-87.2 496,-87.2"/>
<polygon fill="none" stroke="#000000" points="496,-87.2 496,-106.2 559,-106.2 559,-87.2 496,-87.2"/>
<text text-anchor="start" x="549.8862" y="-93.3" font-family="Helvetica,sans-Serif" font-size="11.00" fill="#000000"> &#160;</text>
</a>
</g>
</g>
<!-- audit_revision -->
<g id="node2" class="node">
<title>audit_revision</title>
<g id="a_node2"><a xlink:href="../../tables/audit_revision.html" xlink:title="audit_revision" target="_top">
<polygon fill="#ffffff" stroke="transparent" points="8,-38.2 8,-194.2 262,-194.2 262,-38.2 8,-38.2"/>
<polygon fill="#f5f5f5" stroke="transparent" points="10,-169.2 10,-192.2 260,-192.2 260,-169.2 10,-169.2"/>
<polygon fill="none" stroke="#000000" points="10,-169.2 10,-192.2 260,-192.2 260,-169.2 10,-169.2"/>
<text text-anchor="start" x="15" y="-177.8" font-family="Helvetica,sans-Serif" font-weight="bold" font-size="11.00" fill="#000000">audit_revision</text>
<text text-anchor="start" x="225.0437" y="-177.3" font-family="Helvetica,sans-Serif" font-size="11.00" fill="#000000">[table]</text>
<polygon fill="none" stroke="#000000" points="10,-147.2 10,-169.2 144,-169.2 144,-147.2 10,-147.2"/>
<image xlink:href="../../images/primaryKeys.png" width="11px" height="12px" preserveAspectRatio="xMinYMin meet" x="15" y="-164.2"/>
<text text-anchor="start" x="30" y="-154.3" font-family="Helvetica,sans-Serif" font-size="11.00" fill="#000000">id</text>
<polygon fill="none" stroke="#000000" points="144,-147.2 144,-169.2 260,-169.2 260,-147.2 144,-147.2"/>
<text text-anchor="start" x="147" y="-154.9" font-family="Helvetica,sans-Serif" font-size="11.00" fill="#000000">bigserial[19]</text>
<polygon fill="none" stroke="#000000" points="10,-125.2 10,-147.2 144,-147.2 144,-125.2 10,-125.2"/>
<text text-anchor="start" x="30" y="-132.3" font-family="Helvetica,sans-Serif" font-size="11.00" fill="#000000">timestamp</text>
<polygon fill="none" stroke="#000000" points="144,-125.2 144,-147.2 260,-147.2 260,-125.2 144,-125.2"/>
<text text-anchor="start" x="147" y="-132.9" font-family="Helvetica,sans-Serif" font-size="11.00" fill="#000000">timestamp[29,6]</text>
<polygon fill="none" stroke="#000000" points="10,-103.2 10,-125.2 144,-125.2 144,-103.2 10,-103.2"/>
<text text-anchor="start" x="30" y="-110.3" font-family="Helvetica,sans-Serif" font-size="11.00" fill="#000000">username</text>
<polygon fill="none" stroke="#000000" points="144,-103.2 144,-125.2 260,-125.2 260,-103.2 144,-103.2"/>
<text text-anchor="start" x="147" y="-110.9" font-family="Helvetica,sans-Serif" font-size="11.00" fill="#000000">varchar[32]</text>
<polygon fill="none" stroke="#000000" points="10,-81.2 10,-103.2 144,-103.2 144,-81.2 10,-81.2"/>
<text text-anchor="start" x="30" y="-88.3" font-family="Helvetica,sans-Serif" font-size="11.00" fill="#000000">caseload_id</text>
<polygon fill="none" stroke="#000000" points="144,-81.2 144,-103.2 260,-103.2 260,-81.2 144,-81.2"/>
<text text-anchor="start" x="147" y="-88.9" font-family="Helvetica,sans-Serif" font-size="11.00" fill="#000000">varchar[10]</text>
<polygon fill="none" stroke="#000000" points="10,-59.2 10,-81.2 144,-81.2 144,-59.2 10,-59.2"/>
<text text-anchor="start" x="30" y="-66.3" font-family="Helvetica,sans-Serif" font-size="11.00" fill="#000000">affected_entities</text>
<polygon fill="none" stroke="#000000" points="144,-59.2 144,-81.2 260,-81.2 260,-59.2 144,-59.2"/>
<text text-anchor="start" x="146.9769" y="-66.9" font-family="Helvetica,sans-Serif" font-size="11.00" fill="#000000">_varchar[2147483647]</text>
<polygon fill="#ffffff" stroke="transparent" points="10,-40.2 10,-59.2 81,-59.2 81,-40.2 10,-40.2"/>
<polygon fill="none" stroke="#000000" points="10,-40.2 10,-59.2 81,-59.2 81,-40.2 10,-40.2"/>
<text text-anchor="start" x="13" y="-46.3" font-family="Helvetica,sans-Serif" font-size="11.00" fill="#000000">&lt; 0</text>
<polygon fill="#ffffff" stroke="transparent" points="81,-40.2 81,-59.2 144,-59.2 144,-40.2 81,-40.2"/>
<polygon fill="none" stroke="#000000" points="81,-40.2 81,-59.2 144,-59.2 144,-40.2 81,-40.2"/>
<text text-anchor="start" x="134.8862" y="-46.3" font-family="Helvetica,sans-Serif" font-size="11.00" fill="#000000"> &#160;</text>
<polygon fill="#ffffff" stroke="transparent" points="144,-40.2 144,-59.2 260,-59.2 260,-40.2 144,-40.2"/>
<polygon fill="none" stroke="#000000" points="144,-40.2 144,-59.2 260,-59.2 260,-40.2 144,-40.2"/>
<text text-anchor="start" x="241.4053" y="-46.3" font-family="Helvetica,sans-Serif" font-size="11.00" fill="#000000">1 &gt;</text>
<polygon fill="none" stroke="#000000" stroke-width="2" points="9,-39.2 9,-193.2 261,-193.2 261,-39.2 9,-39.2"/>
</a>
</g>
</g>
<!-- keyworker_configuration_audit&#45;&gt;audit_revision -->
<g id="edge1" class="edge">
<title>keyworker_configuration_audit:w&#45;&gt;audit_revision:e</title>
<path fill="none" stroke="#000000" d="M296.276,-158.2C284.2815,-158.2 276.8229,-158.2 260,-158.2"/>
<polygon fill="#000000" stroke="#000000" points="303,-158.2001 311,-161.8 307,-158.2 311,-158.2 311,-158.2 311,-158.2 307,-158.2 311,-154.6 303,-158.2001 303,-158.2001"/>
<ellipse fill="none" stroke="#000000" cx="299.8" cy="-158.2001" rx="3.2" ry="3.2"/>
</g>
</g>
</svg>
