<?xml version="1.0" encoding="UTF-8" standalone="no"?>
<!DOCTYPE svg PUBLIC "-//W3C//DTD SVG 1.1//EN"
 "http://www.w3.org/Graphics/SVG/1.1/DTD/svg11.dtd">
<!-- Generated by graphviz version 2.40.1 (20161225.0304)
 -->
<!-- Title: twoDegreesRelationshipsDiagram Pages: 1 -->
<svg width="704pt" height="857pt"
 viewBox="0.00 0.00 704.00 857.20" xmlns="http://www.w3.org/2000/svg" xmlns:xlink="http://www.w3.org/1999/xlink">
<g id="graph0" class="graph" transform="scale(1 1) rotate(0) translate(4 853.2)">
<title>twoDegreesRelationshipsDiagram</title>
<polygon fill="#ffffff" stroke="transparent" points="-4,4 -4,-853.2 700,-853.2 700,4 -4,4"/>
<text text-anchor="middle" x="72.4936" y="-7.3" font-family="Helvetica,sans-Serif" font-size="11.00" fill="#000000">Generated by SchemaSpy</text>
<!-- allocation_audit -->
<g id="node1" class="node">
<title>allocation_audit</title>
<g id="a_node1"><a xlink:href="../../tables/allocation_audit.html" xlink:title="allocation_audit" target="_top">
<polygon fill="#ffffff" stroke="transparent" points="389,-696.2 389,-845.2 610,-845.2 610,-696.2 389,-696.2"/>
<polygon fill="#f5f5f5" stroke="transparent" points="389.5,-821.7 389.5,-844.7 610.5,-844.7 610.5,-821.7 389.5,-821.7"/>
<polygon fill="none" stroke="#000000" points="389.5,-821.7 389.5,-844.7 610.5,-844.7 610.5,-821.7 389.5,-821.7"/>
<text text-anchor="start" x="394.5" y="-830.3" font-family="Helvetica,sans-Serif" font-weight="bold" font-size="11.00" fill="#000000">allocation_audit</text>
<text text-anchor="start" x="575.5437" y="-829.8" font-family="Helvetica,sans-Serif" font-size="11.00" fill="#000000">[table]</text>
<polygon fill="none" stroke="#000000" points="389.5,-799.7 389.5,-821.7 610.5,-821.7 610.5,-799.7 389.5,-799.7"/>
<image xlink:href="../../images/primaryKeys.png" width="11px" height="12px" preserveAspectRatio="xMinYMin meet" x="394.5" y="-816.7"/>
<text text-anchor="start" x="409.5" y="-806.8" font-family="Helvetica,sans-Serif" font-size="11.00" fill="#000000">rev_id</text>
<polygon fill="none" stroke="#000000" points="389.5,-777.7 389.5,-799.7 610.5,-799.7 610.5,-777.7 389.5,-777.7"/>
<image xlink:href="../../images/primaryKeys.png" width="11px" height="12px" preserveAspectRatio="xMinYMin meet" x="394.5" y="-794.7"/>
<text text-anchor="start" x="409.5" y="-784.8" font-family="Helvetica,sans-Serif" font-size="11.00" fill="#000000">id</text>
<polygon fill="none" stroke="#000000" points="389.5,-755.7 389.5,-777.7 610.5,-777.7 610.5,-755.7 389.5,-755.7"/>
<image xlink:href="../../images/foreignKeys.png" width="11px" height="12px" preserveAspectRatio="xMinYMin meet" x="394.5" y="-772.7"/>
<text text-anchor="start" x="409.5" y="-762.8" font-family="Helvetica,sans-Serif" font-size="11.00" fill="#000000">prison_code</text>
<polygon fill="none" stroke="#000000" points="389.5,-733.7 389.5,-755.7 610.5,-755.7 610.5,-733.7 389.5,-733.7"/>
<image xlink:href="../../images/foreignKeys.png" width="11px" height="12px" preserveAspectRatio="xMinYMin meet" x="394.5" y="-750.7"/>
<text text-anchor="start" x="409.5" y="-740.8" font-family="Helvetica,sans-Serif" font-size="11.00" fill="#000000">policy_code</text>
<polygon fill="none" stroke="#000000" points="389.5,-714.7 389.5,-733.7 610.5,-733.7 610.5,-714.7 389.5,-714.7"/>
<text text-anchor="start" x="392.5" y="-720.8" font-family="Helvetica,sans-Serif" font-size="11.00" fill="#000000">...</text>
<polygon fill="#ffffff" stroke="transparent" points="389.5,-695.7 389.5,-714.7 498.5,-714.7 498.5,-695.7 389.5,-695.7"/>
<polygon fill="none" stroke="#000000" points="389.5,-695.7 389.5,-714.7 498.5,-714.7 498.5,-695.7 389.5,-695.7"/>
<text text-anchor="start" x="392.5" y="-701.8" font-family="Helvetica,sans-Serif" font-size="11.00" fill="#000000">&lt; 1</text>
<polygon fill="#ffffff" stroke="transparent" points="498.5,-695.7 498.5,-714.7 554.5,-714.7 554.5,-695.7 498.5,-695.7"/>
<polygon fill="none" stroke="#000000" points="498.5,-695.7 498.5,-714.7 554.5,-714.7 554.5,-695.7 498.5,-695.7"/>
<text text-anchor="start" x="545.3862" y="-701.8" font-family="Helvetica,sans-Serif" font-size="11.00" fill="#000000"> &#160;</text>
<polygon fill="#ffffff" stroke="transparent" points="554.5,-695.7 554.5,-714.7 610.5,-714.7 610.5,-695.7 554.5,-695.7"/>
<polygon fill="none" stroke="#000000" points="554.5,-695.7 554.5,-714.7 610.5,-714.7 610.5,-695.7 554.5,-695.7"/>
<text text-anchor="start" x="601.3862" y="-701.8" font-family="Helvetica,sans-Serif" font-size="11.00" fill="#000000"> &#160;</text>
</a>
</g>
</g>
<!-- audit_revision -->
<g id="node2" class="node">
<title>audit_revision</title>
<g id="a_node2"><a xlink:href="../../tables/audit_revision.html" xlink:title="audit_revision" target="_top">
<polygon fill="#ffffff" stroke="transparent" points="8,-350.7 8,-506.7 262,-506.7 262,-350.7 8,-350.7"/>
<polygon fill="#f5f5f5" stroke="transparent" points="10,-481.7 10,-504.7 260,-504.7 260,-481.7 10,-481.7"/>
<polygon fill="none" stroke="#000000" points="10,-481.7 10,-504.7 260,-504.7 260,-481.7 10,-481.7"/>
<text text-anchor="start" x="15" y="-490.3" font-family="Helvetica,sans-Serif" font-weight="bold" font-size="11.00" fill="#000000">audit_revision</text>
<text text-anchor="start" x="225.0437" y="-489.8" font-family="Helvetica,sans-Serif" font-size="11.00" fill="#000000">[table]</text>
<polygon fill="none" stroke="#000000" points="10,-459.7 10,-481.7 144,-481.7 144,-459.7 10,-459.7"/>
<image xlink:href="../../images/primaryKeys.png" width="11px" height="12px" preserveAspectRatio="xMinYMin meet" x="15" y="-476.7"/>
<text text-anchor="start" x="30" y="-466.8" font-family="Helvetica,sans-Serif" font-size="11.00" fill="#000000">id</text>
<polygon fill="none" stroke="#000000" points="144,-459.7 144,-481.7 260,-481.7 260,-459.7 144,-459.7"/>
<text text-anchor="start" x="147" y="-467.4" font-family="Helvetica,sans-Serif" font-size="11.00" fill="#000000">bigserial[19]</text>
<polygon fill="none" stroke="#000000" points="10,-437.7 10,-459.7 144,-459.7 144,-437.7 10,-437.7"/>
<text text-anchor="start" x="30" y="-444.8" font-family="Helvetica,sans-Serif" font-size="11.00" fill="#000000">timestamp</text>
<polygon fill="none" stroke="#000000" points="144,-437.7 144,-459.7 260,-459.7 260,-437.7 144,-437.7"/>
<text text-anchor="start" x="147" y="-445.4" font-family="Helvetica,sans-Serif" font-size="11.00" fill="#000000">timestamp[29,6]</text>
<polygon fill="none" stroke="#000000" points="10,-415.7 10,-437.7 144,-437.7 144,-415.7 10,-415.7"/>
<text text-anchor="start" x="30" y="-422.8" font-family="Helvetica,sans-Serif" font-size="11.00" fill="#000000">username</text>
<polygon fill="none" stroke="#000000" points="144,-415.7 144,-437.7 260,-437.7 260,-415.7 144,-415.7"/>
<text text-anchor="start" x="147" y="-423.4" font-family="Helvetica,sans-Serif" font-size="11.00" fill="#000000">varchar[32]</text>
<polygon fill="none" stroke="#000000" points="10,-393.7 10,-415.7 144,-415.7 144,-393.7 10,-393.7"/>
<text text-anchor="start" x="30" y="-400.8" font-family="Helvetica,sans-Serif" font-size="11.00" fill="#000000">caseload_id</text>
<polygon fill="none" stroke="#000000" points="144,-393.7 144,-415.7 260,-415.7 260,-393.7 144,-393.7"/>
<text text-anchor="start" x="147" y="-401.4" font-family="Helvetica,sans-Serif" font-size="11.00" fill="#000000">varchar[10]</text>
<polygon fill="none" stroke="#000000" points="10,-371.7 10,-393.7 144,-393.7 144,-371.7 10,-371.7"/>
<text text-anchor="start" x="30" y="-378.8" font-family="Helvetica,sans-Serif" font-size="11.00" fill="#000000">affected_entities</text>
<polygon fill="none" stroke="#000000" points="144,-371.7 144,-393.7 260,-393.7 260,-371.7 144,-371.7"/>
<text text-anchor="start" x="146.9769" y="-379.4" font-family="Helvetica,sans-Serif" font-size="11.00" fill="#000000">_varchar[2147483647]</text>
<polygon fill="#ffffff" stroke="transparent" points="10,-352.7 10,-371.7 81,-371.7 81,-352.7 10,-352.7"/>
<polygon fill="none" stroke="#000000" points="10,-352.7 10,-371.7 81,-371.7 81,-352.7 10,-352.7"/>
<text text-anchor="start" x="13" y="-358.8" font-family="Helvetica,sans-Serif" font-size="11.00" fill="#000000">&lt; 0</text>
<polygon fill="#ffffff" stroke="transparent" points="81,-352.7 81,-371.7 144,-371.7 144,-352.7 81,-352.7"/>
<polygon fill="none" stroke="#000000" points="81,-352.7 81,-371.7 144,-371.7 144,-352.7 81,-352.7"/>
<text text-anchor="start" x="134.8862" y="-358.8" font-family="Helvetica,sans-Serif" font-size="11.00" fill="#000000"> &#160;</text>
<polygon fill="#ffffff" stroke="transparent" points="144,-352.7 144,-371.7 260,-371.7 260,-352.7 144,-352.7"/>
<polygon fill="none" stroke="#000000" points="144,-352.7 144,-371.7 260,-371.7 260,-352.7 144,-352.7"/>
<text text-anchor="start" x="241.4053" y="-358.8" font-family="Helvetica,sans-Serif" font-size="11.00" fill="#000000">5 &gt;</text>
<polygon fill="none" stroke="#000000" stroke-width="2" points="9,-351.7 9,-505.7 261,-505.7 261,-351.7 9,-351.7"/>
</a>
</g>
</g>
<!-- allocation_audit&#45;&gt;audit_revision -->
<g id="edge1" class="edge">
<title>allocation_audit:w&#45;&gt;audit_revision:e</title>
<path fill="none" stroke="#000000" d="M374.9872,-809.5802C322.8979,-800.8899 327.3322,-743.0325 303,-685.7 283.9647,-640.8482 308.724,-470.7 260,-470.7"/>
<polygon fill="#000000" stroke="#000000" points="381.5237,-810.0845 389.223,-814.2893 385.5119,-810.3922 389.5,-810.7 389.5,-810.7 389.5,-810.7 385.5119,-810.3922 389.777,-807.1107 381.5237,-810.0845 381.5237,-810.0845"/>
<ellipse fill="none" stroke="#000000" cx="378.3332" cy="-809.8383" rx="3.2" ry="3.2"/>
</g>
<!-- prison_configuration_audit -->
<g id="node3" class="node">
<title>prison_configuration_audit</title>
<g id="a_node3"><a xlink:href="../../tables/prison_configuration_audit.html" xlink:title="prison_configuration_audit" target="_top">
<polygon fill="#ffffff" stroke="transparent" points="311,-526.2 311,-675.2 688,-675.2 688,-526.2 311,-526.2"/>
<polygon fill="#f5f5f5" stroke="transparent" points="311.5,-651.7 311.5,-674.7 688.5,-674.7 688.5,-651.7 311.5,-651.7"/>
<polygon fill="none" stroke="#000000" points="311.5,-651.7 311.5,-674.7 688.5,-674.7 688.5,-651.7 311.5,-651.7"/>
<text text-anchor="start" x="316.5" y="-660.3" font-family="Helvetica,sans-Serif" font-weight="bold" font-size="11.00" fill="#000000">prison_configuration_audit</text>
<text text-anchor="start" x="653.5437" y="-659.8" font-family="Helvetica,sans-Serif" font-size="11.00" fill="#000000">[table]</text>
<polygon fill="none" stroke="#000000" points="311.5,-629.7 311.5,-651.7 688.5,-651.7 688.5,-629.7 311.5,-629.7"/>
<image xlink:href="../../images/primaryKeys.png" width="11px" height="12px" preserveAspectRatio="xMinYMin meet" x="316.5" y="-646.7"/>
<text text-anchor="start" x="331.5" y="-636.8" font-family="Helvetica,sans-Serif" font-size="11.00" fill="#000000">rev_id</text>
<polygon fill="none" stroke="#000000" points="311.5,-607.7 311.5,-629.7 688.5,-629.7 688.5,-607.7 311.5,-607.7"/>
<image xlink:href="../../images/primaryKeys.png" width="11px" height="12px" preserveAspectRatio="xMinYMin meet" x="316.5" y="-624.7"/>
<text text-anchor="start" x="331.5" y="-614.8" font-family="Helvetica,sans-Serif" font-size="11.00" fill="#000000">id</text>
<polygon fill="none" stroke="#000000" points="311.5,-585.7 311.5,-607.7 688.5,-607.7 688.5,-585.7 311.5,-585.7"/>
<image xlink:href="../../images/foreignKeys.png" width="11px" height="12px" preserveAspectRatio="xMinYMin meet" x="316.5" y="-602.7"/>
<text text-anchor="start" x="331.5" y="-592.8" font-family="Helvetica,sans-Serif" font-size="11.00" fill="#000000">prison_code</text>
<polygon fill="none" stroke="#000000" points="311.5,-563.7 311.5,-585.7 688.5,-585.7 688.5,-563.7 311.5,-563.7"/>
<image xlink:href="../../images/foreignKeys.png" width="11px" height="12px" preserveAspectRatio="xMinYMin meet" x="316.5" y="-580.7"/>
<text text-anchor="start" x="331.5" y="-570.8" font-family="Helvetica,sans-Serif" font-size="11.00" fill="#000000">policy_code</text>
<polygon fill="none" stroke="#000000" points="311.5,-544.7 311.5,-563.7 688.5,-563.7 688.5,-544.7 311.5,-544.7"/>
<text text-anchor="start" x="314.5" y="-550.8" font-family="Helvetica,sans-Serif" font-size="11.00" fill="#000000">...</text>
<polygon fill="#ffffff" stroke="transparent" points="311.5,-525.7 311.5,-544.7 498.5,-544.7 498.5,-525.7 311.5,-525.7"/>
<polygon fill="none" stroke="#000000" points="311.5,-525.7 311.5,-544.7 498.5,-544.7 498.5,-525.7 311.5,-525.7"/>
<text text-anchor="start" x="314.5" y="-531.8" font-family="Helvetica,sans-Serif" font-size="11.00" fill="#000000">&lt; 1</text>
<polygon fill="#ffffff" stroke="transparent" points="498.5,-525.7 498.5,-544.7 593.5,-544.7 593.5,-525.7 498.5,-525.7"/>
<polygon fill="none" stroke="#000000" points="498.5,-525.7 498.5,-544.7 593.5,-544.7 593.5,-525.7 498.5,-525.7"/>
<text text-anchor="start" x="584.3862" y="-531.8" font-family="Helvetica,sans-Serif" font-size="11.00" fill="#000000"> &#160;</text>
<polygon fill="#ffffff" stroke="transparent" points="593.5,-525.7 593.5,-544.7 688.5,-544.7 688.5,-525.7 593.5,-525.7"/>
<polygon fill="none" stroke="#000000" points="593.5,-525.7 593.5,-544.7 688.5,-544.7 688.5,-525.7 593.5,-525.7"/>
<text text-anchor="start" x="679.3862" y="-531.8" font-family="Helvetica,sans-Serif" font-size="11.00" fill="#000000"> &#160;</text>
</a>
</g>
</g>
<!-- prison_configuration_audit&#45;&gt;audit_revision -->
<g id="edge2" class="edge">
<title>prison_configuration_audit:w&#45;&gt;audit_revision:e</title>
<path fill="none" stroke="#000000" d="M297.1485,-638.1649C246.9627,-617.0175 333.2413,-470.7 260,-470.7"/>
<polygon fill="#000000" stroke="#000000" points="303.622,-639.3084 310.8738,-644.2451 307.561,-640.0042 311.5,-640.7 311.5,-640.7 311.5,-640.7 307.561,-640.0042 312.1262,-637.1549 303.622,-639.3084 303.622,-639.3084"/>
<ellipse fill="none" stroke="#000000" cx="300.4707" cy="-638.7517" rx="3.2" ry="3.2"/>
</g>
<!-- recorded_event_audit -->
<g id="node4" class="node">
<title>recorded_event_audit</title>
<g id="a_node4"><a xlink:href="../../tables/recorded_event_audit.html" xlink:title="recorded_event_audit" target="_top">
<polygon fill="#ffffff" stroke="transparent" points="407,-38.2 407,-187.2 592,-187.2 592,-38.2 407,-38.2"/>
<polygon fill="#f5f5f5" stroke="transparent" points="407.5,-163.7 407.5,-186.7 592.5,-186.7 592.5,-163.7 407.5,-163.7"/>
<polygon fill="none" stroke="#000000" points="407.5,-163.7 407.5,-186.7 592.5,-186.7 592.5,-163.7 407.5,-163.7"/>
<text text-anchor="start" x="412.5" y="-172.3" font-family="Helvetica,sans-Serif" font-weight="bold" font-size="11.00" fill="#000000">recorded_event_audit</text>
<text text-anchor="start" x="558.0219" y="-171.8" font-family="Helvetica,sans-Serif" font-size="11.00" fill="#000000">[table]</text>
<polygon fill="#ffffff" stroke="transparent" points="407.5,-141.7 407.5,-163.7 592.5,-163.7 592.5,-141.7 407.5,-141.7"/>
<polygon fill="none" stroke="#000000" points="407.5,-141.7 407.5,-163.7 592.5,-163.7 592.5,-141.7 407.5,-141.7"/>
<image xlink:href="../../images/foreignKeys.png" width="11px" height="12px" preserveAspectRatio="xMinYMin meet" x="412.5" y="-158.7"/>
<text text-anchor="start" x="436.5" y="-148.8" font-family="Helvetica,sans-Serif" font-size="11.00" fill="#000000">rev_id</text>
<polygon fill="#ffffff" stroke="transparent" points="407.5,-119.7 407.5,-141.7 592.5,-141.7 592.5,-119.7 407.5,-119.7"/>
<polygon fill="none" stroke="#000000" points="407.5,-119.7 407.5,-141.7 592.5,-141.7 592.5,-119.7 407.5,-119.7"/>
<text text-anchor="start" x="436.5" y="-126.8" font-family="Helvetica,sans-Serif" font-size="11.00" fill="#000000">id</text>
<polygon fill="none" stroke="#000000" points="407.5,-97.7 407.5,-119.7 592.5,-119.7 592.5,-97.7 407.5,-97.7"/>
<image xlink:href="../../images/foreignKeys.png" width="11px" height="12px" preserveAspectRatio="xMinYMin meet" x="412.5" y="-114.7"/>
<text text-anchor="start" x="436.5" y="-104.8" font-family="Helvetica,sans-Serif" font-size="11.00" fill="#000000">prison_code</text>
<polygon fill="none" stroke="#000000" points="407.5,-75.7 407.5,-97.7 592.5,-97.7 592.5,-75.7 407.5,-75.7"/>
<image xlink:href="../../images/foreignKeys.png" width="11px" height="12px" preserveAspectRatio="xMinYMin meet" x="412.5" y="-92.7"/>
<text text-anchor="start" x="436.5" y="-82.8" font-family="Helvetica,sans-Serif" font-size="11.00" fill="#000000">policy_code</text>
<polygon fill="none" stroke="#000000" points="407.5,-56.7 407.5,-75.7 592.5,-75.7 592.5,-56.7 407.5,-56.7"/>
<text text-anchor="start" x="410.5" y="-62.8" font-family="Helvetica,sans-Serif" font-size="11.00" fill="#000000">...</text>
<polygon fill="#ffffff" stroke="transparent" points="407.5,-37.7 407.5,-56.7 498.5,-56.7 498.5,-37.7 407.5,-37.7"/>
<polygon fill="none" stroke="#000000" points="407.5,-37.7 407.5,-56.7 498.5,-56.7 498.5,-37.7 407.5,-37.7"/>
<text text-anchor="start" x="410.5" y="-43.8" font-family="Helvetica,sans-Serif" font-size="11.00" fill="#000000">&lt; 2</text>
<polygon fill="#ffffff" stroke="transparent" points="498.5,-37.7 498.5,-56.7 545.5,-56.7 545.5,-37.7 498.5,-37.7"/>
<polygon fill="none" stroke="#000000" points="498.5,-37.7 498.5,-56.7 545.5,-56.7 545.5,-37.7 498.5,-37.7"/>
<text text-anchor="start" x="536.3862" y="-43.8" font-family="Helvetica,sans-Serif" font-size="11.00" fill="#000000"> &#160;</text>
<polygon fill="#ffffff" stroke="transparent" points="545.5,-37.7 545.5,-56.7 592.5,-56.7 592.5,-37.7 545.5,-37.7"/>
<polygon fill="none" stroke="#000000" points="545.5,-37.7 545.5,-56.7 592.5,-56.7 592.5,-37.7 545.5,-37.7"/>
<text text-anchor="start" x="583.3862" y="-43.8" font-family="Helvetica,sans-Serif" font-size="11.00" fill="#000000"> &#160;</text>
</a>
</g>
</g>
<!-- recorded_event_audit&#45;&gt;audit_revision -->
<g id="edge4" class="edge">
<title>recorded_event_audit:w&#45;&gt;audit_revision:e</title>
<path fill="none" stroke="#000000" d="M392.9108,-152.8878C352.1932,-154.0873 330.8622,-161.8147 303,-197.7 265.336,-246.2095 321.4146,-470.7 260,-470.7"/>
<polygon fill="#000000" stroke="#000000" points="399.5007,-152.803 407.5464,-156.2997 403.5003,-152.7515 407.5,-152.7 407.5,-152.7 407.5,-152.7 403.5003,-152.7515 407.4536,-149.1003 399.5007,-152.803 399.5007,-152.803"/>
<ellipse fill="none" stroke="#000000" cx="396.3009" cy="-152.8442" rx="3.2" ry="3.2"/>
</g>
<!-- policy -->
<g id="node5" class="node">
<title>policy</title>
<g id="a_node5"><a xlink:href="../../tables/policy.html" xlink:title="policy" target="_top">
<polygon fill="#ffffff" stroke="transparent" points="96,-59.2 96,-120.2 174,-120.2 174,-59.2 96,-59.2"/>
<polygon fill="#f5f5f5" stroke="transparent" points="96,-96.7 96,-119.7 174,-119.7 174,-96.7 96,-96.7"/>
<polygon fill="none" stroke="#000000" points="96,-96.7 96,-119.7 174,-119.7 174,-96.7 96,-96.7"/>
<text text-anchor="start" x="101" y="-105.3" font-family="Helvetica,sans-Serif" font-weight="bold" font-size="11.00" fill="#000000">policy</text>
<text text-anchor="start" x="139.5219" y="-104.8" font-family="Helvetica,sans-Serif" font-size="11.00" fill="#000000">[table]</text>
<polygon fill="none" stroke="#000000" points="96,-77.7 96,-96.7 174,-96.7 174,-77.7 96,-77.7"/>
<text text-anchor="start" x="99" y="-83.8" font-family="Helvetica,sans-Serif" font-size="11.00" fill="#000000">...</text>
<polygon fill="#ffffff" stroke="transparent" points="96,-58.7 96,-77.7 124,-77.7 124,-58.7 96,-58.7"/>
<polygon fill="none" stroke="#000000" points="96,-58.7 96,-77.7 124,-77.7 124,-58.7 96,-58.7"/>
<text text-anchor="start" x="99" y="-64.8" font-family="Helvetica,sans-Serif" font-size="11.00" fill="#000000"> &#160;</text>
<polygon fill="#ffffff" stroke="transparent" points="124,-58.7 124,-77.7 144,-77.7 144,-58.7 124,-58.7"/>
<polygon fill="none" stroke="#000000" points="124,-58.7 124,-77.7 144,-77.7 144,-58.7 124,-58.7"/>
<text text-anchor="start" x="134.8862" y="-64.8" font-family="Helvetica,sans-Serif" font-size="11.00" fill="#000000"> &#160;</text>
<polygon fill="#ffffff" stroke="transparent" points="144,-58.7 144,-77.7 174,-77.7 174,-58.7 144,-58.7"/>
<polygon fill="none" stroke="#000000" points="144,-58.7 144,-77.7 174,-77.7 174,-58.7 144,-58.7"/>
<text text-anchor="start" x="155.4053" y="-64.8" font-family="Helvetica,sans-Serif" font-size="11.00" fill="#000000">7 &gt;</text>
</a>
</g>
</g>
<!-- recorded_event_audit&#45;&gt;policy -->
<g id="edge3" class="edge">
<title>recorded_event_audit:w&#45;&gt;policy:e</title>
<path fill="none" stroke="#000000" d="M392.8368,-86.7C301.003,-86.7 272.7105,-86.7 174,-86.7"/>
<polygon fill="#000000" stroke="#000000" points="399.5,-86.7001 407.5,-90.3 403.5,-86.7 407.5,-86.7 407.5,-86.7 407.5,-86.7 403.5,-86.7 407.5,-83.1 399.5,-86.7001 399.5,-86.7001"/>
<ellipse fill="none" stroke="#000000" cx="396.3" cy="-86.7001" rx="3.2" ry="3.2"/>
</g>
<!-- staff_configuration_audit -->
<g id="node6" class="node">
<title>staff_configuration_audit</title>
<g id="a_node6"><a xlink:href="../../tables/staff_configuration_audit.html" xlink:title="staff_configuration_audit" target="_top">
<polygon fill="#ffffff" stroke="transparent" points="384,-378.2 384,-505.2 615,-505.2 615,-378.2 384,-378.2"/>
<polygon fill="#f5f5f5" stroke="transparent" points="384.5,-481.7 384.5,-504.7 615.5,-504.7 615.5,-481.7 384.5,-481.7"/>
<polygon fill="none" stroke="#000000" points="384.5,-481.7 384.5,-504.7 615.5,-504.7 615.5,-481.7 384.5,-481.7"/>
<text text-anchor="start" x="389.5" y="-490.3" font-family="Helvetica,sans-Serif" font-weight="bold" font-size="11.00" fill="#000000">staff_configuration_audit</text>
<text text-anchor="start" x="580.5437" y="-489.8" font-family="Helvetica,sans-Serif" font-size="11.00" fill="#000000">[table]</text>
<polygon fill="none" stroke="#000000" points="384.5,-459.7 384.5,-481.7 615.5,-481.7 615.5,-459.7 384.5,-459.7"/>
<image xlink:href="../../images/primaryKeys.png" width="11px" height="12px" preserveAspectRatio="xMinYMin meet" x="389.5" y="-476.7"/>
<text text-anchor="start" x="404.5" y="-466.8" font-family="Helvetica,sans-Serif" font-size="11.00" fill="#000000">rev_id</text>
<polygon fill="none" stroke="#000000" points="384.5,-437.7 384.5,-459.7 615.5,-459.7 615.5,-437.7 384.5,-437.7"/>
<image xlink:href="../../images/primaryKeys.png" width="11px" height="12px" preserveAspectRatio="xMinYMin meet" x="389.5" y="-454.7"/>
<text text-anchor="start" x="404.5" y="-444.8" font-family="Helvetica,sans-Serif" font-size="11.00" fill="#000000">id</text>
<polygon fill="none" stroke="#000000" points="384.5,-415.7 384.5,-437.7 615.5,-437.7 615.5,-415.7 384.5,-415.7"/>
<image xlink:href="../../images/foreignKeys.png" width="11px" height="12px" preserveAspectRatio="xMinYMin meet" x="389.5" y="-432.7"/>
<text text-anchor="start" x="404.5" y="-422.8" font-family="Helvetica,sans-Serif" font-size="11.00" fill="#000000">policy_code</text>
<polygon fill="none" stroke="#000000" points="384.5,-396.7 384.5,-415.7 615.5,-415.7 615.5,-396.7 384.5,-396.7"/>
<text text-anchor="start" x="387.5" y="-402.8" font-family="Helvetica,sans-Serif" font-size="11.00" fill="#000000">...</text>
<polygon fill="#ffffff" stroke="transparent" points="384.5,-377.7 384.5,-396.7 498.5,-396.7 498.5,-377.7 384.5,-377.7"/>
<polygon fill="none" stroke="#000000" points="384.5,-377.7 384.5,-396.7 498.5,-396.7 498.5,-377.7 384.5,-377.7"/>
<text text-anchor="start" x="387.5" y="-383.8" font-family="Helvetica,sans-Serif" font-size="11.00" fill="#000000">&lt; 1</text>
<polygon fill="#ffffff" stroke="transparent" points="498.5,-377.7 498.5,-396.7 556.5,-396.7 556.5,-377.7 498.5,-377.7"/>
<polygon fill="none" stroke="#000000" points="498.5,-377.7 498.5,-396.7 556.5,-396.7 556.5,-377.7 498.5,-377.7"/>
<text text-anchor="start" x="547.3862" y="-383.8" font-family="Helvetica,sans-Serif" font-size="11.00" fill="#000000"> &#160;</text>
<polygon fill="#ffffff" stroke="transparent" points="556.5,-377.7 556.5,-396.7 615.5,-396.7 615.5,-377.7 556.5,-377.7"/>
<polygon fill="none" stroke="#000000" points="556.5,-377.7 556.5,-396.7 615.5,-396.7 615.5,-377.7 556.5,-377.7"/>
<text text-anchor="start" x="606.3862" y="-383.8" font-family="Helvetica,sans-Serif" font-size="11.00" fill="#000000"> &#160;</text>
</a>
</g>
</g>
<!-- staff_configuration_audit&#45;&gt;audit_revision -->
<g id="edge5" class="edge">
<title>staff_configuration_audit:w&#45;&gt;audit_revision:e</title>
<path fill="none" stroke="#000000" d="M369.9633,-470.7C326.2082,-470.7 310.1458,-470.7 260,-470.7"/>
<polygon fill="#000000" stroke="#000000" points="376.5,-470.7001 384.5,-474.3 380.5,-470.7 384.5,-470.7 384.5,-470.7 384.5,-470.7 380.5,-470.7 384.5,-467.1 376.5,-470.7001 376.5,-470.7001"/>
<ellipse fill="none" stroke="#000000" cx="373.3" cy="-470.7001" rx="3.2" ry="3.2"/>
</g>
<!-- staff_role_audit -->
<g id="node7" class="node">
<title>staff_role_audit</title>
<g id="a_node7"><a xlink:href="../../tables/staff_role_audit.html" xlink:title="staff_role_audit" target="_top">
<polygon fill="#ffffff" stroke="transparent" points="402.5,-208.2 402.5,-357.2 596.5,-357.2 596.5,-208.2 402.5,-208.2"/>
<polygon fill="#f5f5f5" stroke="transparent" points="402.5,-333.7 402.5,-356.7 596.5,-356.7 596.5,-333.7 402.5,-333.7"/>
<polygon fill="none" stroke="#000000" points="402.5,-333.7 402.5,-356.7 596.5,-356.7 596.5,-333.7 402.5,-333.7"/>
<text text-anchor="start" x="407.5" y="-342.3" font-family="Helvetica,sans-Serif" font-weight="bold" font-size="11.00" fill="#000000">staff_role_audit</text>
<text text-anchor="start" x="561.5437" y="-341.8" font-family="Helvetica,sans-Serif" font-size="11.00" fill="#000000">[table]</text>
<polygon fill="none" stroke="#000000" points="402.5,-311.7 402.5,-333.7 596.5,-333.7 596.5,-311.7 402.5,-311.7"/>
<image xlink:href="../../images/primaryKeys.png" width="11px" height="12px" preserveAspectRatio="xMinYMin meet" x="407.5" y="-328.7"/>
<text text-anchor="start" x="422.5" y="-318.8" font-family="Helvetica,sans-Serif" font-size="11.00" fill="#000000">rev_id</text>
<polygon fill="none" stroke="#000000" points="402.5,-289.7 402.5,-311.7 596.5,-311.7 596.5,-289.7 402.5,-289.7"/>
<image xlink:href="../../images/primaryKeys.png" width="11px" height="12px" preserveAspectRatio="xMinYMin meet" x="407.5" y="-306.7"/>
<text text-anchor="start" x="422.5" y="-296.8" font-family="Helvetica,sans-Serif" font-size="11.00" fill="#000000">id</text>
<polygon fill="none" stroke="#000000" points="402.5,-267.7 402.5,-289.7 596.5,-289.7 596.5,-267.7 402.5,-267.7"/>
<image xlink:href="../../images/foreignKeys.png" width="11px" height="12px" preserveAspectRatio="xMinYMin meet" x="407.5" y="-284.7"/>
<text text-anchor="start" x="422.5" y="-274.8" font-family="Helvetica,sans-Serif" font-size="11.00" fill="#000000">policy_code</text>
<polygon fill="none" stroke="#000000" points="402.5,-245.7 402.5,-267.7 596.5,-267.7 596.5,-245.7 402.5,-245.7"/>
<image xlink:href="../../images/foreignKeys.png" width="11px" height="12px" preserveAspectRatio="xMinYMin meet" x="407.5" y="-262.7"/>
<text text-anchor="start" x="422.5" y="-252.8" font-family="Helvetica,sans-Serif" font-size="11.00" fill="#000000">prison_code</text>
<polygon fill="none" stroke="#000000" points="402.5,-226.7 402.5,-245.7 596.5,-245.7 596.5,-226.7 402.5,-226.7"/>
<text text-anchor="start" x="405.5" y="-232.8" font-family="Helvetica,sans-Serif" font-size="11.00" fill="#000000">...</text>
<polygon fill="#ffffff" stroke="transparent" points="402.5,-207.7 402.5,-226.7 497.5,-226.7 497.5,-207.7 402.5,-207.7"/>
<polygon fill="none" stroke="#000000" points="402.5,-207.7 402.5,-226.7 497.5,-226.7 497.5,-207.7 402.5,-207.7"/>
<text text-anchor="start" x="405.5" y="-213.8" font-family="Helvetica,sans-Serif" font-size="11.00" fill="#000000">&lt; 1</text>
<polygon fill="#ffffff" stroke="transparent" points="497.5,-207.7 497.5,-226.7 546.5,-226.7 546.5,-207.7 497.5,-207.7"/>
<polygon fill="none" stroke="#000000" points="497.5,-207.7 497.5,-226.7 546.5,-226.7 546.5,-207.7 497.5,-207.7"/>
<text text-anchor="start" x="537.3862" y="-213.8" font-family="Helvetica,sans-Serif" font-size="11.00" fill="#000000"> &#160;</text>
<polygon fill="#ffffff" stroke="transparent" points="546.5,-207.7 546.5,-226.7 596.5,-226.7 596.5,-207.7 546.5,-207.7"/>
<polygon fill="none" stroke="#000000" points="546.5,-207.7 546.5,-226.7 596.5,-226.7 596.5,-207.7 546.5,-207.7"/>
<text text-anchor="start" x="587.3862" y="-213.8" font-family="Helvetica,sans-Serif" font-size="11.00" fill="#000000"> &#160;</text>
</a>
</g>
</g>
<!-- staff_role_audit&#45;&gt;audit_revision -->
<g id="edge6" class="edge">
<title>staff_role_audit:w&#45;&gt;audit_revision:e</title>
<path fill="none" stroke="#000000" d="M387.638,-323.0843C350.0141,-325.2221 333.1152,-336.6908 303,-367.7 268.4394,-403.2866 309.6068,-470.7 260,-470.7"/>
<polygon fill="#000000" stroke="#000000" points="394.5027,-322.9069 402.5931,-326.2988 398.5013,-322.8034 402.5,-322.7 402.5,-322.7 402.5,-322.7 398.5013,-322.8034 402.4069,-319.1012 394.5027,-322.9069 394.5027,-322.9069"/>
<ellipse fill="none" stroke="#000000" cx="391.3037" cy="-322.9896" rx="3.2" ry="3.2"/>
</g>
</g>
</svg>
