<?xml version="1.0" encoding="UTF-8" standalone="no"?>
<!DOCTYPE svg PUBLIC "-//W3C//DTD SVG 1.1//EN"
 "http://www.w3.org/Graphics/SVG/1.1/DTD/svg11.dtd">
<!-- Generated by graphviz version 2.40.1 (20161225.0304)
 -->
<!-- Title: oneDegreeRelationshipsDiagramImplied Pages: 1 -->
<svg width="704pt" height="769pt"
 viewBox="0.00 0.00 704.00 769.20" xmlns="http://www.w3.org/2000/svg" xmlns:xlink="http://www.w3.org/1999/xlink">
<g id="graph0" class="graph" transform="scale(1 1) rotate(0) translate(4 765.2)">
<title>oneDegreeRelationshipsDiagramImplied</title>
<polygon fill="#ffffff" stroke="transparent" points="-4,4 -4,-765.2 700,-765.2 700,4 -4,4"/>
<text text-anchor="middle" x="72.4936" y="-7.3" font-family="Helvetica,sans-Serif" font-size="11.00" fill="#000000">Generated by SchemaSpy</text>
<!-- allocation_audit -->
<g id="node1" class="node">
<title>allocation_audit</title>
<g id="a_node1"><a xlink:href="../../tables/allocation_audit.html" xlink:title="allocation_audit" target="_top">
<polygon fill="#ffffff" stroke="transparent" points="389,-630.2 389,-757.2 610,-757.2 610,-630.2 389,-630.2"/>
<polygon fill="#f5f5f5" stroke="transparent" points="389.5,-733.7 389.5,-756.7 610.5,-756.7 610.5,-733.7 389.5,-733.7"/>
<polygon fill="none" stroke="#000000" points="389.5,-733.7 389.5,-756.7 610.5,-756.7 610.5,-733.7 389.5,-733.7"/>
<text text-anchor="start" x="394.5" y="-742.3" font-family="Helvetica,sans-Serif" font-weight="bold" font-size="11.00" fill="#000000">allocation_audit</text>
<text text-anchor="start" x="575.5437" y="-741.8" font-family="Helvetica,sans-Serif" font-size="11.00" fill="#000000">[table]</text>
<polygon fill="none" stroke="#000000" points="389.5,-711.7 389.5,-733.7 610.5,-733.7 610.5,-711.7 389.5,-711.7"/>
<image xlink:href="../../images/primaryKeys.png" width="11px" height="12px" preserveAspectRatio="xMinYMin meet" x="394.5" y="-728.7"/>
<text text-anchor="start" x="409.5" y="-718.8" font-family="Helvetica,sans-Serif" font-size="11.00" fill="#000000">rev_id</text>
<polygon fill="none" stroke="#000000" points="389.5,-689.7 389.5,-711.7 610.5,-711.7 610.5,-689.7 389.5,-689.7"/>
<image xlink:href="../../images/primaryKeys.png" width="11px" height="12px" preserveAspectRatio="xMinYMin meet" x="394.5" y="-706.7"/>
<text text-anchor="start" x="409.5" y="-696.8" font-family="Helvetica,sans-Serif" font-size="11.00" fill="#000000">id</text>
<polygon fill="none" stroke="#000000" points="389.5,-667.7 389.5,-689.7 610.5,-689.7 610.5,-667.7 389.5,-667.7"/>
<image xlink:href="../../images/foreignKeys.png" width="11px" height="12px" preserveAspectRatio="xMinYMin meet" x="394.5" y="-684.7"/>
<text text-anchor="start" x="409.5" y="-674.8" font-family="Helvetica,sans-Serif" font-size="11.00" fill="#000000">policy_code</text>
<polygon fill="none" stroke="#000000" points="389.5,-648.7 389.5,-667.7 610.5,-667.7 610.5,-648.7 389.5,-648.7"/>
<text text-anchor="start" x="392.5" y="-654.8" font-family="Helvetica,sans-Serif" font-size="11.00" fill="#000000">...</text>
<polygon fill="#ffffff" stroke="transparent" points="389.5,-629.7 389.5,-648.7 498.5,-648.7 498.5,-629.7 389.5,-629.7"/>
<polygon fill="none" stroke="#000000" points="389.5,-629.7 389.5,-648.7 498.5,-648.7 498.5,-629.7 389.5,-629.7"/>
<text text-anchor="start" x="392.5" y="-635.8" font-family="Helvetica,sans-Serif" font-size="11.00" fill="#000000">&lt; 1</text>
<polygon fill="#ffffff" stroke="transparent" points="498.5,-629.7 498.5,-648.7 554.5,-648.7 554.5,-629.7 498.5,-629.7"/>
<polygon fill="none" stroke="#000000" points="498.5,-629.7 498.5,-648.7 554.5,-648.7 554.5,-629.7 498.5,-629.7"/>
<text text-anchor="start" x="545.3862" y="-635.8" font-family="Helvetica,sans-Serif" font-size="11.00" fill="#000000"> &#160;</text>
<polygon fill="#ffffff" stroke="transparent" points="554.5,-629.7 554.5,-648.7 610.5,-648.7 610.5,-629.7 554.5,-629.7"/>
<polygon fill="none" stroke="#000000" points="554.5,-629.7 554.5,-648.7 610.5,-648.7 610.5,-629.7 554.5,-629.7"/>
<text text-anchor="start" x="601.3862" y="-635.8" font-family="Helvetica,sans-Serif" font-size="11.00" fill="#000000"> &#160;</text>
</a>
</g>
</g>
<!-- audit_revision -->
<g id="node2" class="node">
<title>audit_revision</title>
<g id="a_node2"><a xlink:href="../../tables/audit_revision.html" xlink:title="audit_revision" target="_top">
<polygon fill="#ffffff" stroke="transparent" points="8,-306.7 8,-462.7 262,-462.7 262,-306.7 8,-306.7"/>
<polygon fill="#f5f5f5" stroke="transparent" points="10,-437.7 10,-460.7 260,-460.7 260,-437.7 10,-437.7"/>
<polygon fill="none" stroke="#000000" points="10,-437.7 10,-460.7 260,-460.7 260,-437.7 10,-437.7"/>
<text text-anchor="start" x="15" y="-446.3" font-family="Helvetica,sans-Serif" font-weight="bold" font-size="11.00" fill="#000000">audit_revision</text>
<text text-anchor="start" x="225.0437" y="-445.8" font-family="Helvetica,sans-Serif" font-size="11.00" fill="#000000">[table]</text>
<polygon fill="none" stroke="#000000" points="10,-415.7 10,-437.7 144,-437.7 144,-415.7 10,-415.7"/>
<image xlink:href="../../images/primaryKeys.png" width="11px" height="12px" preserveAspectRatio="xMinYMin meet" x="15" y="-432.7"/>
<text text-anchor="start" x="30" y="-422.8" font-family="Helvetica,sans-Serif" font-size="11.00" fill="#000000">id</text>
<polygon fill="none" stroke="#000000" points="144,-415.7 144,-437.7 260,-437.7 260,-415.7 144,-415.7"/>
<text text-anchor="start" x="147" y="-423.4" font-family="Helvetica,sans-Serif" font-size="11.00" fill="#000000">bigserial[19]</text>
<polygon fill="none" stroke="#000000" points="10,-393.7 10,-415.7 144,-415.7 144,-393.7 10,-393.7"/>
<text text-anchor="start" x="30" y="-400.8" font-family="Helvetica,sans-Serif" font-size="11.00" fill="#000000">timestamp</text>
<polygon fill="none" stroke="#000000" points="144,-393.7 144,-415.7 260,-415.7 260,-393.7 144,-393.7"/>
<text text-anchor="start" x="147" y="-401.4" font-family="Helvetica,sans-Serif" font-size="11.00" fill="#000000">timestamp[29,6]</text>
<polygon fill="none" stroke="#000000" points="10,-371.7 10,-393.7 144,-393.7 144,-371.7 10,-371.7"/>
<text text-anchor="start" x="30" y="-378.8" font-family="Helvetica,sans-Serif" font-size="11.00" fill="#000000">username</text>
<polygon fill="none" stroke="#000000" points="144,-371.7 144,-393.7 260,-393.7 260,-371.7 144,-371.7"/>
<text text-anchor="start" x="147" y="-379.4" font-family="Helvetica,sans-Serif" font-size="11.00" fill="#000000">varchar[32]</text>
<polygon fill="none" stroke="#000000" points="10,-349.7 10,-371.7 144,-371.7 144,-349.7 10,-349.7"/>
<text text-anchor="start" x="30" y="-356.8" font-family="Helvetica,sans-Serif" font-size="11.00" fill="#000000">caseload_id</text>
<polygon fill="none" stroke="#000000" points="144,-349.7 144,-371.7 260,-371.7 260,-349.7 144,-349.7"/>
<text text-anchor="start" x="147" y="-357.4" font-family="Helvetica,sans-Serif" font-size="11.00" fill="#000000">varchar[10]</text>
<polygon fill="none" stroke="#000000" points="10,-327.7 10,-349.7 144,-349.7 144,-327.7 10,-327.7"/>
<text text-anchor="start" x="30" y="-334.8" font-family="Helvetica,sans-Serif" font-size="11.00" fill="#000000">affected_entities</text>
<polygon fill="none" stroke="#000000" points="144,-327.7 144,-349.7 260,-349.7 260,-327.7 144,-327.7"/>
<text text-anchor="start" x="146.9769" y="-335.4" font-family="Helvetica,sans-Serif" font-size="11.00" fill="#000000">_varchar[2147483647]</text>
<polygon fill="#ffffff" stroke="transparent" points="10,-308.7 10,-327.7 81,-327.7 81,-308.7 10,-308.7"/>
<polygon fill="none" stroke="#000000" points="10,-308.7 10,-327.7 81,-327.7 81,-308.7 10,-308.7"/>
<text text-anchor="start" x="13" y="-314.8" font-family="Helvetica,sans-Serif" font-size="11.00" fill="#000000">&lt; 0</text>
<polygon fill="#ffffff" stroke="transparent" points="81,-308.7 81,-327.7 144,-327.7 144,-308.7 81,-308.7"/>
<polygon fill="none" stroke="#000000" points="81,-308.7 81,-327.7 144,-327.7 144,-308.7 81,-308.7"/>
<text text-anchor="start" x="134.8862" y="-314.8" font-family="Helvetica,sans-Serif" font-size="11.00" fill="#000000"> &#160;</text>
<polygon fill="#ffffff" stroke="transparent" points="144,-308.7 144,-327.7 260,-327.7 260,-308.7 144,-308.7"/>
<polygon fill="none" stroke="#000000" points="144,-308.7 144,-327.7 260,-327.7 260,-308.7 144,-308.7"/>
<text text-anchor="start" x="241.4053" y="-314.8" font-family="Helvetica,sans-Serif" font-size="11.00" fill="#000000">5 &gt;</text>
<polygon fill="none" stroke="#000000" stroke-width="2" points="9,-307.7 9,-461.7 261,-461.7 261,-307.7 9,-307.7"/>
</a>
</g>
</g>
<!-- allocation_audit&#45;&gt;audit_revision -->
<g id="edge1" class="edge">
<title>allocation_audit:w&#45;&gt;audit_revision:e</title>
<path fill="none" stroke="#000000" d="M375.0594,-721.5858C329.4754,-713.9832 327.1518,-668.5846 303,-619.7 264.0735,-540.9105 347.881,-426.7 260,-426.7"/>
<polygon fill="#000000" stroke="#000000" points="381.5237,-722.0845 389.223,-726.2893 385.5119,-722.3923 389.5,-722.7 389.5,-722.7 389.5,-722.7 385.5119,-722.3923 389.777,-719.1107 381.5237,-722.0845 381.5237,-722.0845"/>
<ellipse fill="none" stroke="#000000" cx="378.3332" cy="-721.8383" rx="3.2" ry="3.2"/>
</g>
<!-- prison_configuration_audit -->
<g id="node3" class="node">
<title>prison_configuration_audit</title>
<g id="a_node3"><a xlink:href="../../tables/prison_configuration_audit.html" xlink:title="prison_configuration_audit" target="_top">
<polygon fill="#ffffff" stroke="transparent" points="311,-482.2 311,-609.2 688,-609.2 688,-482.2 311,-482.2"/>
<polygon fill="#f5f5f5" stroke="transparent" points="311.5,-585.7 311.5,-608.7 688.5,-608.7 688.5,-585.7 311.5,-585.7"/>
<polygon fill="none" stroke="#000000" points="311.5,-585.7 311.5,-608.7 688.5,-608.7 688.5,-585.7 311.5,-585.7"/>
<text text-anchor="start" x="316.5" y="-594.3" font-family="Helvetica,sans-Serif" font-weight="bold" font-size="11.00" fill="#000000">prison_configuration_audit</text>
<text text-anchor="start" x="653.5437" y="-593.8" font-family="Helvetica,sans-Serif" font-size="11.00" fill="#000000">[table]</text>
<polygon fill="none" stroke="#000000" points="311.5,-563.7 311.5,-585.7 688.5,-585.7 688.5,-563.7 311.5,-563.7"/>
<image xlink:href="../../images/primaryKeys.png" width="11px" height="12px" preserveAspectRatio="xMinYMin meet" x="316.5" y="-580.7"/>
<text text-anchor="start" x="331.5" y="-570.8" font-family="Helvetica,sans-Serif" font-size="11.00" fill="#000000">rev_id</text>
<polygon fill="none" stroke="#000000" points="311.5,-541.7 311.5,-563.7 688.5,-563.7 688.5,-541.7 311.5,-541.7"/>
<image xlink:href="../../images/primaryKeys.png" width="11px" height="12px" preserveAspectRatio="xMinYMin meet" x="316.5" y="-558.7"/>
<text text-anchor="start" x="331.5" y="-548.8" font-family="Helvetica,sans-Serif" font-size="11.00" fill="#000000">id</text>
<polygon fill="none" stroke="#000000" points="311.5,-519.7 311.5,-541.7 688.5,-541.7 688.5,-519.7 311.5,-519.7"/>
<image xlink:href="../../images/foreignKeys.png" width="11px" height="12px" preserveAspectRatio="xMinYMin meet" x="316.5" y="-536.7"/>
<text text-anchor="start" x="331.5" y="-526.8" font-family="Helvetica,sans-Serif" font-size="11.00" fill="#000000">policy_code</text>
<polygon fill="none" stroke="#000000" points="311.5,-500.7 311.5,-519.7 688.5,-519.7 688.5,-500.7 311.5,-500.7"/>
<text text-anchor="start" x="314.5" y="-506.8" font-family="Helvetica,sans-Serif" font-size="11.00" fill="#000000">...</text>
<polygon fill="#ffffff" stroke="transparent" points="311.5,-481.7 311.5,-500.7 498.5,-500.7 498.5,-481.7 311.5,-481.7"/>
<polygon fill="none" stroke="#000000" points="311.5,-481.7 311.5,-500.7 498.5,-500.7 498.5,-481.7 311.5,-481.7"/>
<text text-anchor="start" x="314.5" y="-487.8" font-family="Helvetica,sans-Serif" font-size="11.00" fill="#000000">&lt; 1</text>
<polygon fill="#ffffff" stroke="transparent" points="498.5,-481.7 498.5,-500.7 593.5,-500.7 593.5,-481.7 498.5,-481.7"/>
<polygon fill="none" stroke="#000000" points="498.5,-481.7 498.5,-500.7 593.5,-500.7 593.5,-481.7 498.5,-481.7"/>
<text text-anchor="start" x="584.3862" y="-487.8" font-family="Helvetica,sans-Serif" font-size="11.00" fill="#000000"> &#160;</text>
<polygon fill="#ffffff" stroke="transparent" points="593.5,-481.7 593.5,-500.7 688.5,-500.7 688.5,-481.7 593.5,-481.7"/>
<polygon fill="none" stroke="#000000" points="593.5,-481.7 593.5,-500.7 688.5,-500.7 688.5,-481.7 593.5,-481.7"/>
<text text-anchor="start" x="679.3862" y="-487.8" font-family="Helvetica,sans-Serif" font-size="11.00" fill="#000000"> &#160;</text>
</a>
</g>
</g>
<!-- prison_configuration_audit&#45;&gt;audit_revision -->
<g id="edge2" class="edge">
<title>prison_configuration_audit:w&#45;&gt;audit_revision:e</title>
<path fill="none" stroke="#000000" d="M297.3649,-571.8757C255.1977,-551.4147 323.9332,-426.7 260,-426.7"/>
<polygon fill="#000000" stroke="#000000" points="303.6551,-573.1325 310.7946,-578.2302 307.5775,-573.9162 311.5,-574.7 311.5,-574.7 311.5,-574.7 307.5775,-573.9162 312.2054,-571.1698 303.6551,-573.1325 303.6551,-573.1325"/>
<ellipse fill="none" stroke="#000000" cx="300.5171" cy="-572.5054" rx="3.2" ry="3.2"/>
</g>
<!-- recorded_event_audit -->
<g id="node4" class="node">
<title>recorded_event_audit</title>
<g id="a_node4"><a xlink:href="../../tables/recorded_event_audit.html" xlink:title="recorded_event_audit" target="_top">
<polygon fill="#ffffff" stroke="transparent" points="407,-334.2 407,-461.2 592,-461.2 592,-334.2 407,-334.2"/>
<polygon fill="#f5f5f5" stroke="transparent" points="407.5,-437.7 407.5,-460.7 592.5,-460.7 592.5,-437.7 407.5,-437.7"/>
<polygon fill="none" stroke="#000000" points="407.5,-437.7 407.5,-460.7 592.5,-460.7 592.5,-437.7 407.5,-437.7"/>
<text text-anchor="start" x="412.5" y="-446.3" font-family="Helvetica,sans-Serif" font-weight="bold" font-size="11.00" fill="#000000">recorded_event_audit</text>
<text text-anchor="start" x="558.0219" y="-445.8" font-family="Helvetica,sans-Serif" font-size="11.00" fill="#000000">[table]</text>
<polygon fill="#ffffff" stroke="transparent" points="407.5,-415.7 407.5,-437.7 592.5,-437.7 592.5,-415.7 407.5,-415.7"/>
<polygon fill="none" stroke="#000000" points="407.5,-415.7 407.5,-437.7 592.5,-437.7 592.5,-415.7 407.5,-415.7"/>
<image xlink:href="../../images/foreignKeys.png" width="11px" height="12px" preserveAspectRatio="xMinYMin meet" x="412.5" y="-432.7"/>
<text text-anchor="start" x="436.5" y="-422.8" font-family="Helvetica,sans-Serif" font-size="11.00" fill="#000000">rev_id</text>
<polygon fill="#ffffff" stroke="transparent" points="407.5,-393.7 407.5,-415.7 592.5,-415.7 592.5,-393.7 407.5,-393.7"/>
<polygon fill="none" stroke="#000000" points="407.5,-393.7 407.5,-415.7 592.5,-415.7 592.5,-393.7 407.5,-393.7"/>
<text text-anchor="start" x="436.5" y="-400.8" font-family="Helvetica,sans-Serif" font-size="11.00" fill="#000000">id</text>
<polygon fill="none" stroke="#000000" points="407.5,-371.7 407.5,-393.7 592.5,-393.7 592.5,-371.7 407.5,-371.7"/>
<image xlink:href="../../images/foreignKeys.png" width="11px" height="12px" preserveAspectRatio="xMinYMin meet" x="412.5" y="-388.7"/>
<text text-anchor="start" x="436.5" y="-378.8" font-family="Helvetica,sans-Serif" font-size="11.00" fill="#000000">policy_code</text>
<polygon fill="none" stroke="#000000" points="407.5,-352.7 407.5,-371.7 592.5,-371.7 592.5,-352.7 407.5,-352.7"/>
<text text-anchor="start" x="410.5" y="-358.8" font-family="Helvetica,sans-Serif" font-size="11.00" fill="#000000">...</text>
<polygon fill="#ffffff" stroke="transparent" points="407.5,-333.7 407.5,-352.7 498.5,-352.7 498.5,-333.7 407.5,-333.7"/>
<polygon fill="none" stroke="#000000" points="407.5,-333.7 407.5,-352.7 498.5,-352.7 498.5,-333.7 407.5,-333.7"/>
<text text-anchor="start" x="410.5" y="-339.8" font-family="Helvetica,sans-Serif" font-size="11.00" fill="#000000">&lt; 2</text>
<polygon fill="#ffffff" stroke="transparent" points="498.5,-333.7 498.5,-352.7 545.5,-352.7 545.5,-333.7 498.5,-333.7"/>
<polygon fill="none" stroke="#000000" points="498.5,-333.7 498.5,-352.7 545.5,-352.7 545.5,-333.7 498.5,-333.7"/>
<text text-anchor="start" x="536.3862" y="-339.8" font-family="Helvetica,sans-Serif" font-size="11.00" fill="#000000"> &#160;</text>
<polygon fill="#ffffff" stroke="transparent" points="545.5,-333.7 545.5,-352.7 592.5,-352.7 592.5,-333.7 545.5,-333.7"/>
<polygon fill="none" stroke="#000000" points="545.5,-333.7 545.5,-352.7 592.5,-352.7 592.5,-333.7 545.5,-333.7"/>
<text text-anchor="start" x="583.3862" y="-339.8" font-family="Helvetica,sans-Serif" font-size="11.00" fill="#000000"> &#160;</text>
</a>
</g>
</g>
<!-- recorded_event_audit&#45;&gt;audit_revision -->
<g id="edge3" class="edge">
<title>recorded_event_audit:w&#45;&gt;audit_revision:e</title>
<path fill="none" stroke="#000000" d="M392.9888,-426.7C339.0836,-426.7 320.434,-426.7 260,-426.7"/>
<polygon fill="#000000" stroke="#000000" points="399.5,-426.7001 407.5,-430.3 403.5,-426.7 407.5,-426.7 407.5,-426.7 407.5,-426.7 403.5,-426.7 407.5,-423.1 399.5,-426.7001 399.5,-426.7001"/>
<ellipse fill="none" stroke="#000000" cx="396.3" cy="-426.7001" rx="3.2" ry="3.2"/>
</g>
<!-- staff_configuration_audit -->
<g id="node5" class="node">
<title>staff_configuration_audit</title>
<g id="a_node5"><a xlink:href="../../tables/staff_configuration_audit.html" xlink:title="staff_configuration_audit" target="_top">
<polygon fill="#ffffff" stroke="transparent" points="395.5,-186.2 395.5,-313.2 603.5,-313.2 603.5,-186.2 395.5,-186.2"/>
<polygon fill="#f5f5f5" stroke="transparent" points="395.5,-289.7 395.5,-312.7 603.5,-312.7 603.5,-289.7 395.5,-289.7"/>
<polygon fill="none" stroke="#000000" points="395.5,-289.7 395.5,-312.7 603.5,-312.7 603.5,-289.7 395.5,-289.7"/>
<text text-anchor="start" x="400.5" y="-298.3" font-family="Helvetica,sans-Serif" font-weight="bold" font-size="11.00" fill="#000000">staff_configuration_audit</text>
<text text-anchor="start" x="569.0219" y="-297.8" font-family="Helvetica,sans-Serif" font-size="11.00" fill="#000000">[table]</text>
<polygon fill="none" stroke="#000000" points="395.5,-267.7 395.5,-289.7 603.5,-289.7 603.5,-267.7 395.5,-267.7"/>
<image xlink:href="../../images/primaryKeys.png" width="11px" height="12px" preserveAspectRatio="xMinYMin meet" x="400.5" y="-284.7"/>
<text text-anchor="start" x="424.5" y="-274.8" font-family="Helvetica,sans-Serif" font-size="11.00" fill="#000000">rev_id</text>
<polygon fill="none" stroke="#000000" points="395.5,-245.7 395.5,-267.7 603.5,-267.7 603.5,-245.7 395.5,-245.7"/>
<image xlink:href="../../images/primaryKeys.png" width="11px" height="12px" preserveAspectRatio="xMinYMin meet" x="400.5" y="-262.7"/>
<text text-anchor="start" x="424.5" y="-252.8" font-family="Helvetica,sans-Serif" font-size="11.00" fill="#000000">id</text>
<polygon fill="none" stroke="#000000" points="395.5,-223.7 395.5,-245.7 603.5,-245.7 603.5,-223.7 395.5,-223.7"/>
<image xlink:href="../../images/foreignKeys.png" width="11px" height="12px" preserveAspectRatio="xMinYMin meet" x="400.5" y="-240.7"/>
<text text-anchor="start" x="424.5" y="-230.8" font-family="Helvetica,sans-Serif" font-size="11.00" fill="#000000">policy_code</text>
<polygon fill="none" stroke="#000000" points="395.5,-204.7 395.5,-223.7 603.5,-223.7 603.5,-204.7 395.5,-204.7"/>
<text text-anchor="start" x="398.5" y="-210.8" font-family="Helvetica,sans-Serif" font-size="11.00" fill="#000000">...</text>
<polygon fill="#ffffff" stroke="transparent" points="395.5,-185.7 395.5,-204.7 497.5,-204.7 497.5,-185.7 395.5,-185.7"/>
<polygon fill="none" stroke="#000000" points="395.5,-185.7 395.5,-204.7 497.5,-204.7 497.5,-185.7 395.5,-185.7"/>
<text text-anchor="start" x="398.5" y="-191.8" font-family="Helvetica,sans-Serif" font-size="11.00" fill="#000000">&lt; 1</text>
<polygon fill="#ffffff" stroke="transparent" points="497.5,-185.7 497.5,-204.7 550.5,-204.7 550.5,-185.7 497.5,-185.7"/>
<polygon fill="none" stroke="#000000" points="497.5,-185.7 497.5,-204.7 550.5,-204.7 550.5,-185.7 497.5,-185.7"/>
<text text-anchor="start" x="541.3862" y="-191.8" font-family="Helvetica,sans-Serif" font-size="11.00" fill="#000000"> &#160;</text>
<polygon fill="#ffffff" stroke="transparent" points="550.5,-185.7 550.5,-204.7 603.5,-204.7 603.5,-185.7 550.5,-185.7"/>
<polygon fill="none" stroke="#000000" points="550.5,-185.7 550.5,-204.7 603.5,-204.7 603.5,-185.7 550.5,-185.7"/>
<text text-anchor="start" x="594.3862" y="-191.8" font-family="Helvetica,sans-Serif" font-size="11.00" fill="#000000"> &#160;</text>
</a>
</g>
</g>
<!-- staff_configuration_audit&#45;&gt;audit_revision -->
<g id="edge4" class="edge">
<title>staff_configuration_audit:w&#45;&gt;audit_revision:e</title>
<path fill="none" stroke="#000000" d="M381.0631,-279.1669C346.0892,-281.64 330.8324,-294.2253 303,-323.7 268.9419,-359.7677 309.6068,-426.7 260,-426.7"/>
<polygon fill="#000000" stroke="#000000" points="387.5042,-278.9586 395.6164,-282.2981 391.5021,-278.8293 395.5,-278.7 395.5,-278.7 395.5,-278.7 391.5021,-278.8293 395.3836,-275.1019 387.5042,-278.9586 387.5042,-278.9586"/>
<ellipse fill="none" stroke="#000000" cx="384.3059" cy="-279.0621" rx="3.2" ry="3.2"/>
</g>
<!-- staff_role_audit -->
<g id="node6" class="node">
<title>staff_role_audit</title>
<g id="a_node6"><a xlink:href="../../tables/staff_role_audit.html" xlink:title="staff_role_audit" target="_top">
<polygon fill="#ffffff" stroke="transparent" points="402.5,-38.2 402.5,-165.2 596.5,-165.2 596.5,-38.2 402.5,-38.2"/>
<polygon fill="#f5f5f5" stroke="transparent" points="402.5,-141.7 402.5,-164.7 596.5,-164.7 596.5,-141.7 402.5,-141.7"/>
<polygon fill="none" stroke="#000000" points="402.5,-141.7 402.5,-164.7 596.5,-164.7 596.5,-141.7 402.5,-141.7"/>
<text text-anchor="start" x="407.5" y="-150.3" font-family="Helvetica,sans-Serif" font-weight="bold" font-size="11.00" fill="#000000">staff_role_audit</text>
<text text-anchor="start" x="561.5437" y="-149.8" font-family="Helvetica,sans-Serif" font-size="11.00" fill="#000000">[table]</text>
<polygon fill="none" stroke="#000000" points="402.5,-119.7 402.5,-141.7 596.5,-141.7 596.5,-119.7 402.5,-119.7"/>
<image xlink:href="../../images/primaryKeys.png" width="11px" height="12px" preserveAspectRatio="xMinYMin meet" x="407.5" y="-136.7"/>
<text text-anchor="start" x="422.5" y="-126.8" font-family="Helvetica,sans-Serif" font-size="11.00" fill="#000000">rev_id</text>
<polygon fill="none" stroke="#000000" points="402.5,-97.7 402.5,-119.7 596.5,-119.7 596.5,-97.7 402.5,-97.7"/>
<image xlink:href="../../images/primaryKeys.png" width="11px" height="12px" preserveAspectRatio="xMinYMin meet" x="407.5" y="-114.7"/>
<text text-anchor="start" x="422.5" y="-104.8" font-family="Helvetica,sans-Serif" font-size="11.00" fill="#000000">id</text>
<polygon fill="none" stroke="#000000" points="402.5,-75.7 402.5,-97.7 596.5,-97.7 596.5,-75.7 402.5,-75.7"/>
<image xlink:href="../../images/foreignKeys.png" width="11px" height="12px" preserveAspectRatio="xMinYMin meet" x="407.5" y="-92.7"/>
<text text-anchor="start" x="422.5" y="-82.8" font-family="Helvetica,sans-Serif" font-size="11.00" fill="#000000">policy_code</text>
<polygon fill="none" stroke="#000000" points="402.5,-56.7 402.5,-75.7 596.5,-75.7 596.5,-56.7 402.5,-56.7"/>
<text text-anchor="start" x="405.5" y="-62.8" font-family="Helvetica,sans-Serif" font-size="11.00" fill="#000000">...</text>
<polygon fill="#ffffff" stroke="transparent" points="402.5,-37.7 402.5,-56.7 497.5,-56.7 497.5,-37.7 402.5,-37.7"/>
<polygon fill="none" stroke="#000000" points="402.5,-37.7 402.5,-56.7 497.5,-56.7 497.5,-37.7 402.5,-37.7"/>
<text text-anchor="start" x="405.5" y="-43.8" font-family="Helvetica,sans-Serif" font-size="11.00" fill="#000000">&lt; 1</text>
<polygon fill="#ffffff" stroke="transparent" points="497.5,-37.7 497.5,-56.7 546.5,-56.7 546.5,-37.7 497.5,-37.7"/>
<polygon fill="none" stroke="#000000" points="497.5,-37.7 497.5,-56.7 546.5,-56.7 546.5,-37.7 497.5,-37.7"/>
<text text-anchor="start" x="537.3862" y="-43.8" font-family="Helvetica,sans-Serif" font-size="11.00" fill="#000000"> &#160;</text>
<polygon fill="#ffffff" stroke="transparent" points="546.5,-37.7 546.5,-56.7 596.5,-56.7 596.5,-37.7 546.5,-37.7"/>
<polygon fill="none" stroke="#000000" points="546.5,-37.7 546.5,-56.7 596.5,-56.7 596.5,-37.7 546.5,-37.7"/>
<text text-anchor="start" x="587.3862" y="-43.8" font-family="Helvetica,sans-Serif" font-size="11.00" fill="#000000"> &#160;</text>
</a>
</g>
</g>
<!-- staff_role_audit&#45;&gt;audit_revision -->
<g id="edge5" class="edge">
<title>staff_role_audit:w&#45;&gt;audit_revision:e</title>
<path fill="none" stroke="#000000" d="M388.0107,-130.9497C349.3813,-132.4449 329.5456,-141.3452 303,-175.7 268.399,-220.4799 316.5904,-426.7 260,-426.7"/>
<polygon fill="#000000" stroke="#000000" points="394.5012,-130.8379 402.562,-134.2995 398.5006,-130.7689 402.5,-130.7 402.5,-130.7 402.5,-130.7 398.5006,-130.7689 402.438,-127.1005 394.5012,-130.8379 394.5012,-130.8379"/>
<ellipse fill="none" stroke="#000000" cx="391.3017" cy="-130.893" rx="3.2" ry="3.2"/>
</g>
</g>
</svg>
