<?xml version="1.0" encoding="UTF-8" standalone="no"?>
<!DOCTYPE svg PUBLIC "-//W3C//DTD SVG 1.1//EN"
 "http://www.w3.org/Graphics/SVG/1.1/DTD/svg11.dtd">
<!-- Generated by graphviz version 2.40.1 (20161225.0304)
 -->
<!-- Title: oneDegreeRelationshipsDiagram Pages: 1 -->
<svg width="704pt" height="325pt"
 viewBox="0.00 0.00 704.00 325.20" xmlns="http://www.w3.org/2000/svg" xmlns:xlink="http://www.w3.org/1999/xlink">
<g id="graph0" class="graph" transform="scale(1 1) rotate(0) translate(4 321.2)">
<title>oneDegreeRelationshipsDiagram</title>
<polygon fill="#ffffff" stroke="transparent" points="-4,4 -4,-321.2 700,-321.2 700,4 -4,4"/>
<text text-anchor="middle" x="72.4936" y="-7.3" font-family="Helvetica,sans-Serif" font-size="11.00" fill="#000000">Generated by SchemaSpy</text>
<!-- keyworker_configuration_audit -->
<g id="node1" class="node">
<title>keyworker_configuration_audit</title>
<g id="a_node1"><a xlink:href="../../tables/keyworker_configuration_audit.html" xlink:title="keyworker_configuration_audit" target="_top">
<polygon fill="#ffffff" stroke="transparent" points="375.5,-208.2 375.5,-313.2 623.5,-313.2 623.5,-208.2 375.5,-208.2"/>
<polygon fill="#f5f5f5" stroke="transparent" points="375.5,-289.7 375.5,-312.7 623.5,-312.7 623.5,-289.7 375.5,-289.7"/>
<polygon fill="none" stroke="#000000" points="375.5,-289.7 375.5,-312.7 623.5,-312.7 623.5,-289.7 375.5,-289.7"/>
<text text-anchor="start" x="380.5" y="-298.3" font-family="Helvetica,sans-Serif" font-weight="bold" font-size="11.00" fill="#000000">keyworker_configuration_audit</text>
<text text-anchor="start" x="589.0219" y="-297.8" font-family="Helvetica,sans-Serif" font-size="11.00" fill="#000000">[table]</text>
<polygon fill="none" stroke="#000000" points="375.5,-267.7 375.5,-289.7 623.5,-289.7 623.5,-267.7 375.5,-267.7"/>
<image xlink:href="../../images/primaryKeys.png" width="11px" height="12px" preserveAspectRatio="xMinYMin meet" x="380.5" y="-284.7"/>
<text text-anchor="start" x="404.5" y="-274.8" font-family="Helvetica,sans-Serif" font-size="11.00" fill="#000000">rev_id</text>
<polygon fill="none" stroke="#000000" points="375.5,-245.7 375.5,-267.7 623.5,-267.7 623.5,-245.7 375.5,-245.7"/>
<image xlink:href="../../images/primaryKeys.png" width="11px" height="12px" preserveAspectRatio="xMinYMin meet" x="380.5" y="-262.7"/>
<text text-anchor="start" x="404.5" y="-252.8" font-family="Helvetica,sans-Serif" font-size="11.00" fill="#000000">staff_id</text>
<polygon fill="none" stroke="#000000" points="375.5,-226.7 375.5,-245.7 623.5,-245.7 623.5,-226.7 375.5,-226.7"/>
<text text-anchor="start" x="378.5" y="-232.8" font-family="Helvetica,sans-Serif" font-size="11.00" fill="#000000">...</text>
<polygon fill="#ffffff" stroke="transparent" points="375.5,-207.7 375.5,-226.7 497.5,-226.7 497.5,-207.7 375.5,-207.7"/>
<polygon fill="none" stroke="#000000" points="375.5,-207.7 375.5,-226.7 497.5,-226.7 497.5,-207.7 375.5,-207.7"/>
<text text-anchor="start" x="378.5" y="-213.8" font-family="Helvetica,sans-Serif" font-size="11.00" fill="#000000">&lt; 1</text>
<polygon fill="#ffffff" stroke="transparent" points="497.5,-207.7 497.5,-226.7 560.5,-226.7 560.5,-207.7 497.5,-207.7"/>
<polygon fill="none" stroke="#000000" points="497.5,-207.7 497.5,-226.7 560.5,-226.7 560.5,-207.7 497.5,-207.7"/>
<text text-anchor="start" x="551.3862" y="-213.8" font-family="Helvetica,sans-Serif" font-size="11.00" fill="#000000"> &#160;</text>
<polygon fill="#ffffff" stroke="transparent" points="560.5,-207.7 560.5,-226.7 623.5,-226.7 623.5,-207.7 560.5,-207.7"/>
<polygon fill="none" stroke="#000000" points="560.5,-207.7 560.5,-226.7 623.5,-226.7 623.5,-207.7 560.5,-207.7"/>
<text text-anchor="start" x="614.3862" y="-213.8" font-family="Helvetica,sans-Serif" font-size="11.00" fill="#000000"> &#160;</text>
</a>
</g>
</g>
<!-- audit_revision -->
<g id="node2" class="node">
<title>audit_revision</title>
<g id="a_node2"><a xlink:href="../../tables/audit_revision.html" xlink:title="audit_revision" target="_top">
<polygon fill="#ffffff" stroke="transparent" points="8,-95.7 8,-251.7 262,-251.7 262,-95.7 8,-95.7"/>
<polygon fill="#f5f5f5" stroke="transparent" points="10,-226.7 10,-249.7 260,-249.7 260,-226.7 10,-226.7"/>
<polygon fill="none" stroke="#000000" points="10,-226.7 10,-249.7 260,-249.7 260,-226.7 10,-226.7"/>
<text text-anchor="start" x="15" y="-235.3" font-family="Helvetica,sans-Serif" font-weight="bold" font-size="11.00" fill="#000000">audit_revision</text>
<text text-anchor="start" x="225.0437" y="-234.8" font-family="Helvetica,sans-Serif" font-size="11.00" fill="#000000">[table]</text>
<polygon fill="none" stroke="#000000" points="10,-204.7 10,-226.7 144,-226.7 144,-204.7 10,-204.7"/>
<image xlink:href="../../images/primaryKeys.png" width="11px" height="12px" preserveAspectRatio="xMinYMin meet" x="15" y="-221.7"/>
<text text-anchor="start" x="30" y="-211.8" font-family="Helvetica,sans-Serif" font-size="11.00" fill="#000000">id</text>
<polygon fill="none" stroke="#000000" points="144,-204.7 144,-226.7 260,-226.7 260,-204.7 144,-204.7"/>
<text text-anchor="start" x="147" y="-212.4" font-family="Helvetica,sans-Serif" font-size="11.00" fill="#000000">bigserial[19]</text>
<polygon fill="none" stroke="#000000" points="10,-182.7 10,-204.7 144,-204.7 144,-182.7 10,-182.7"/>
<text text-anchor="start" x="30" y="-189.8" font-family="Helvetica,sans-Serif" font-size="11.00" fill="#000000">timestamp</text>
<polygon fill="none" stroke="#000000" points="144,-182.7 144,-204.7 260,-204.7 260,-182.7 144,-182.7"/>
<text text-anchor="start" x="147" y="-190.4" font-family="Helvetica,sans-Serif" font-size="11.00" fill="#000000">timestamp[29,6]</text>
<polygon fill="none" stroke="#000000" points="10,-160.7 10,-182.7 144,-182.7 144,-160.7 10,-160.7"/>
<text text-anchor="start" x="30" y="-167.8" font-family="Helvetica,sans-Serif" font-size="11.00" fill="#000000">username</text>
<polygon fill="none" stroke="#000000" points="144,-160.7 144,-182.7 260,-182.7 260,-160.7 144,-160.7"/>
<text text-anchor="start" x="147" y="-168.4" font-family="Helvetica,sans-Serif" font-size="11.00" fill="#000000">varchar[32]</text>
<polygon fill="none" stroke="#000000" points="10,-138.7 10,-160.7 144,-160.7 144,-138.7 10,-138.7"/>
<text text-anchor="start" x="30" y="-145.8" font-family="Helvetica,sans-Serif" font-size="11.00" fill="#000000">caseload_id</text>
<polygon fill="none" stroke="#000000" points="144,-138.7 144,-160.7 260,-160.7 260,-138.7 144,-138.7"/>
<text text-anchor="start" x="147" y="-146.4" font-family="Helvetica,sans-Serif" font-size="11.00" fill="#000000">varchar[10]</text>
<polygon fill="none" stroke="#000000" points="10,-116.7 10,-138.7 144,-138.7 144,-116.7 10,-116.7"/>
<text text-anchor="start" x="30" y="-123.8" font-family="Helvetica,sans-Serif" font-size="11.00" fill="#000000">affected_entities</text>
<polygon fill="none" stroke="#000000" points="144,-116.7 144,-138.7 260,-138.7 260,-116.7 144,-116.7"/>
<text text-anchor="start" x="146.9769" y="-124.4" font-family="Helvetica,sans-Serif" font-size="11.00" fill="#000000">_varchar[2147483647]</text>
<polygon fill="#ffffff" stroke="transparent" points="10,-97.7 10,-116.7 81,-116.7 81,-97.7 10,-97.7"/>
<polygon fill="none" stroke="#000000" points="10,-97.7 10,-116.7 81,-116.7 81,-97.7 10,-97.7"/>
<text text-anchor="start" x="13" y="-103.8" font-family="Helvetica,sans-Serif" font-size="11.00" fill="#000000">&lt; 0</text>
<polygon fill="#ffffff" stroke="transparent" points="81,-97.7 81,-116.7 144,-116.7 144,-97.7 81,-97.7"/>
<polygon fill="none" stroke="#000000" points="81,-97.7 81,-116.7 144,-116.7 144,-97.7 81,-97.7"/>
<text text-anchor="start" x="134.8862" y="-103.8" font-family="Helvetica,sans-Serif" font-size="11.00" fill="#000000"> &#160;</text>
<polygon fill="#ffffff" stroke="transparent" points="144,-97.7 144,-116.7 260,-116.7 260,-97.7 144,-97.7"/>
<polygon fill="none" stroke="#000000" points="144,-97.7 144,-116.7 260,-116.7 260,-97.7 144,-97.7"/>
<text text-anchor="start" x="241.4053" y="-103.8" font-family="Helvetica,sans-Serif" font-size="11.00" fill="#000000">2 &gt;</text>
<polygon fill="none" stroke="#000000" stroke-width="2" points="9,-96.7 9,-250.7 261,-250.7 261,-96.7 9,-96.7"/>
</a>
</g>
</g>
<!-- keyworker_configuration_audit&#45;&gt;audit_revision -->
<g id="edge1" class="edge">
<title>keyworker_configuration_audit:w&#45;&gt;audit_revision:e</title>
<path fill="none" stroke="#000000" d="M361.1037,-277.2658C316.8031,-267.8882 313.2197,-215.7 260,-215.7"/>
<polygon fill="#000000" stroke="#000000" points="367.5394,-277.9069 375.1431,-282.2823 371.5197,-278.3034 375.5,-278.7 375.5,-278.7 375.5,-278.7 371.5197,-278.3034 375.8569,-275.1177 367.5394,-277.9069 367.5394,-277.9069"/>
<ellipse fill="none" stroke="#000000" cx="364.3552" cy="-277.5896" rx="3.2" ry="3.2"/>
</g>
<!-- prison_configuration_audit -->
<g id="node3" class="node">
<title>prison_configuration_audit</title>
<g id="a_node3"><a xlink:href="../../tables/prison_configuration_audit.html" xlink:title="prison_configuration_audit" target="_top">
<polygon fill="#ffffff" stroke="transparent" points="311,-38.2 311,-187.2 688,-187.2 688,-38.2 311,-38.2"/>
<polygon fill="#f5f5f5" stroke="transparent" points="311.5,-163.7 311.5,-186.7 688.5,-186.7 688.5,-163.7 311.5,-163.7"/>
<polygon fill="none" stroke="#000000" points="311.5,-163.7 311.5,-186.7 688.5,-186.7 688.5,-163.7 311.5,-163.7"/>
<text text-anchor="start" x="316.5" y="-172.3" font-family="Helvetica,sans-Serif" font-weight="bold" font-size="11.00" fill="#000000">prison_configuration_audit</text>
<text text-anchor="start" x="653.5437" y="-171.8" font-family="Helvetica,sans-Serif" font-size="11.00" fill="#000000">[table]</text>
<polygon fill="none" stroke="#000000" points="311.5,-141.7 311.5,-163.7 688.5,-163.7 688.5,-141.7 311.5,-141.7"/>
<image xlink:href="../../images/primaryKeys.png" width="11px" height="12px" preserveAspectRatio="xMinYMin meet" x="316.5" y="-158.7"/>
<text text-anchor="start" x="331.5" y="-148.8" font-family="Helvetica,sans-Serif" font-size="11.00" fill="#000000">rev_id</text>
<polygon fill="none" stroke="#000000" points="311.5,-119.7 311.5,-141.7 688.5,-141.7 688.5,-119.7 311.5,-119.7"/>
<image xlink:href="../../images/primaryKeys.png" width="11px" height="12px" preserveAspectRatio="xMinYMin meet" x="316.5" y="-136.7"/>
<text text-anchor="start" x="331.5" y="-126.8" font-family="Helvetica,sans-Serif" font-size="11.00" fill="#000000">id</text>
<polygon fill="none" stroke="#000000" points="311.5,-97.7 311.5,-119.7 688.5,-119.7 688.5,-97.7 311.5,-97.7"/>
<image xlink:href="../../images/foreignKeys.png" width="11px" height="12px" preserveAspectRatio="xMinYMin meet" x="316.5" y="-114.7"/>
<text text-anchor="start" x="331.5" y="-104.8" font-family="Helvetica,sans-Serif" font-size="11.00" fill="#000000">prison_code</text>
<polygon fill="none" stroke="#000000" points="311.5,-75.7 311.5,-97.7 688.5,-97.7 688.5,-75.7 311.5,-75.7"/>
<image xlink:href="../../images/foreignKeys.png" width="11px" height="12px" preserveAspectRatio="xMinYMin meet" x="316.5" y="-92.7"/>
<text text-anchor="start" x="331.5" y="-82.8" font-family="Helvetica,sans-Serif" font-size="11.00" fill="#000000">policy_code</text>
<polygon fill="none" stroke="#000000" points="311.5,-56.7 311.5,-75.7 688.5,-75.7 688.5,-56.7 311.5,-56.7"/>
<text text-anchor="start" x="314.5" y="-62.8" font-family="Helvetica,sans-Serif" font-size="11.00" fill="#000000">...</text>
<polygon fill="#ffffff" stroke="transparent" points="311.5,-37.7 311.5,-56.7 498.5,-56.7 498.5,-37.7 311.5,-37.7"/>
<polygon fill="none" stroke="#000000" points="311.5,-37.7 311.5,-56.7 498.5,-56.7 498.5,-37.7 311.5,-37.7"/>
<text text-anchor="start" x="314.5" y="-43.8" font-family="Helvetica,sans-Serif" font-size="11.00" fill="#000000">&lt; 1</text>
<polygon fill="#ffffff" stroke="transparent" points="498.5,-37.7 498.5,-56.7 593.5,-56.7 593.5,-37.7 498.5,-37.7"/>
<polygon fill="none" stroke="#000000" points="498.5,-37.7 498.5,-56.7 593.5,-56.7 593.5,-37.7 498.5,-37.7"/>
<text text-anchor="start" x="584.3862" y="-43.8" font-family="Helvetica,sans-Serif" font-size="11.00" fill="#000000"> &#160;</text>
<polygon fill="#ffffff" stroke="transparent" points="593.5,-37.7 593.5,-56.7 688.5,-56.7 688.5,-37.7 593.5,-37.7"/>
<polygon fill="none" stroke="#000000" points="593.5,-37.7 593.5,-56.7 688.5,-56.7 688.5,-37.7 593.5,-37.7"/>
<text text-anchor="start" x="679.3862" y="-43.8" font-family="Helvetica,sans-Serif" font-size="11.00" fill="#000000"> &#160;</text>
</a>
</g>
</g>
<!-- prison_configuration_audit&#45;&gt;audit_revision -->
<g id="edge2" class="edge">
<title>prison_configuration_audit:w&#45;&gt;audit_revision:e</title>
<path fill="none" stroke="#000000" d="M297.799,-157.2308C280.6358,-171.6761 290.2316,-215.7 260,-215.7"/>
<polygon fill="#000000" stroke="#000000" points="303.9045,-155.2118 312.6303,-156.118 307.7023,-153.9559 311.5,-152.7 311.5,-152.7 311.5,-152.7 307.7023,-153.9559 310.3697,-149.282 303.9045,-155.2118 303.9045,-155.2118"/>
<ellipse fill="none" stroke="#000000" cx="300.8663" cy="-156.2165" rx="3.2" ry="3.2"/>
</g>
</g>
</svg>
