<?xml version="1.0" encoding="UTF-8" standalone="no"?>
<!DOCTYPE svg PUBLIC "-//W3C//DTD SVG 1.1//EN"
 "http://www.w3.org/Graphics/SVG/1.1/DTD/svg11.dtd">
<!-- Generated by graphviz version 2.40.1 (20161225.0304)
 -->
<!-- Title: oneDegreeRelationshipsDiagram Pages: 1 -->
<svg width="704pt" height="517pt"
 viewBox="0.00 0.00 704.00 517.20" xmlns="http://www.w3.org/2000/svg" xmlns:xlink="http://www.w3.org/1999/xlink">
<g id="graph0" class="graph" transform="scale(1 1) rotate(0) translate(4 513.2)">
<title>oneDegreeRelationshipsDiagram</title>
<polygon fill="#ffffff" stroke="transparent" points="-4,4 -4,-513.2 700,-513.2 700,4 -4,4"/>
<text text-anchor="middle" x="72.4936" y="-7.3" font-family="Helvetica,sans-Serif" font-size="11.00" fill="#000000">Generated by SchemaSpy</text>
<!-- prison_configuration_audit -->
<g id="node1" class="node">
<title>prison_configuration_audit</title>
<g id="a_node1"><a xlink:href="../../tables/prison_configuration_audit.html" xlink:title="prison_configuration_audit" target="_top">
<polygon fill="#ffffff" stroke="transparent" points="311,-356.2 311,-505.2 688,-505.2 688,-356.2 311,-356.2"/>
<polygon fill="#f5f5f5" stroke="transparent" points="311.5,-481.7 311.5,-504.7 688.5,-504.7 688.5,-481.7 311.5,-481.7"/>
<polygon fill="none" stroke="#000000" points="311.5,-481.7 311.5,-504.7 688.5,-504.7 688.5,-481.7 311.5,-481.7"/>
<text text-anchor="start" x="316.5" y="-490.3" font-family="Helvetica,sans-Serif" font-weight="bold" font-size="11.00" fill="#000000">prison_configuration_audit</text>
<text text-anchor="start" x="653.5437" y="-489.8" font-family="Helvetica,sans-Serif" font-size="11.00" fill="#000000">[table]</text>
<polygon fill="none" stroke="#000000" points="311.5,-459.7 311.5,-481.7 688.5,-481.7 688.5,-459.7 311.5,-459.7"/>
<image xlink:href="../../images/primaryKeys.png" width="11px" height="12px" preserveAspectRatio="xMinYMin meet" x="316.5" y="-476.7"/>
<text text-anchor="start" x="331.5" y="-466.8" font-family="Helvetica,sans-Serif" font-size="11.00" fill="#000000">rev_id</text>
<polygon fill="none" stroke="#000000" points="311.5,-437.7 311.5,-459.7 688.5,-459.7 688.5,-437.7 311.5,-437.7"/>
<image xlink:href="../../images/primaryKeys.png" width="11px" height="12px" preserveAspectRatio="xMinYMin meet" x="316.5" y="-454.7"/>
<text text-anchor="start" x="331.5" y="-444.8" font-family="Helvetica,sans-Serif" font-size="11.00" fill="#000000">id</text>
<polygon fill="none" stroke="#000000" points="311.5,-415.7 311.5,-437.7 688.5,-437.7 688.5,-415.7 311.5,-415.7"/>
<image xlink:href="../../images/foreignKeys.png" width="11px" height="12px" preserveAspectRatio="xMinYMin meet" x="316.5" y="-432.7"/>
<text text-anchor="start" x="331.5" y="-422.8" font-family="Helvetica,sans-Serif" font-size="11.00" fill="#000000">prison_code</text>
<polygon fill="none" stroke="#000000" points="311.5,-393.7 311.5,-415.7 688.5,-415.7 688.5,-393.7 311.5,-393.7"/>
<image xlink:href="../../images/foreignKeys.png" width="11px" height="12px" preserveAspectRatio="xMinYMin meet" x="316.5" y="-410.7"/>
<text text-anchor="start" x="331.5" y="-400.8" font-family="Helvetica,sans-Serif" font-size="11.00" fill="#000000">policy_code</text>
<polygon fill="none" stroke="#000000" points="311.5,-374.7 311.5,-393.7 688.5,-393.7 688.5,-374.7 311.5,-374.7"/>
<text text-anchor="start" x="314.5" y="-380.8" font-family="Helvetica,sans-Serif" font-size="11.00" fill="#000000">...</text>
<polygon fill="#ffffff" stroke="transparent" points="311.5,-355.7 311.5,-374.7 498.5,-374.7 498.5,-355.7 311.5,-355.7"/>
<polygon fill="none" stroke="#000000" points="311.5,-355.7 311.5,-374.7 498.5,-374.7 498.5,-355.7 311.5,-355.7"/>
<text text-anchor="start" x="314.5" y="-361.8" font-family="Helvetica,sans-Serif" font-size="11.00" fill="#000000">&lt; 1</text>
<polygon fill="#ffffff" stroke="transparent" points="498.5,-355.7 498.5,-374.7 593.5,-374.7 593.5,-355.7 498.5,-355.7"/>
<polygon fill="none" stroke="#000000" points="498.5,-355.7 498.5,-374.7 593.5,-374.7 593.5,-355.7 498.5,-355.7"/>
<text text-anchor="start" x="584.3862" y="-361.8" font-family="Helvetica,sans-Serif" font-size="11.00" fill="#000000"> &#160;</text>
<polygon fill="#ffffff" stroke="transparent" points="593.5,-355.7 593.5,-374.7 688.5,-374.7 688.5,-355.7 593.5,-355.7"/>
<polygon fill="none" stroke="#000000" points="593.5,-355.7 593.5,-374.7 688.5,-374.7 688.5,-355.7 593.5,-355.7"/>
<text text-anchor="start" x="679.3862" y="-361.8" font-family="Helvetica,sans-Serif" font-size="11.00" fill="#000000"> &#160;</text>
</a>
</g>
</g>
<!-- audit_revision -->
<g id="node2" class="node">
<title>audit_revision</title>
<g id="a_node2"><a xlink:href="../../tables/audit_revision.html" xlink:title="audit_revision" target="_top">
<polygon fill="#ffffff" stroke="transparent" points="8,-180.7 8,-336.7 262,-336.7 262,-180.7 8,-180.7"/>
<polygon fill="#f5f5f5" stroke="transparent" points="10,-311.7 10,-334.7 260,-334.7 260,-311.7 10,-311.7"/>
<polygon fill="none" stroke="#000000" points="10,-311.7 10,-334.7 260,-334.7 260,-311.7 10,-311.7"/>
<text text-anchor="start" x="15" y="-320.3" font-family="Helvetica,sans-Serif" font-weight="bold" font-size="11.00" fill="#000000">audit_revision</text>
<text text-anchor="start" x="225.0437" y="-319.8" font-family="Helvetica,sans-Serif" font-size="11.00" fill="#000000">[table]</text>
<polygon fill="none" stroke="#000000" points="10,-289.7 10,-311.7 144,-311.7 144,-289.7 10,-289.7"/>
<image xlink:href="../../images/primaryKeys.png" width="11px" height="12px" preserveAspectRatio="xMinYMin meet" x="15" y="-306.7"/>
<text text-anchor="start" x="30" y="-296.8" font-family="Helvetica,sans-Serif" font-size="11.00" fill="#000000">id</text>
<polygon fill="none" stroke="#000000" points="144,-289.7 144,-311.7 260,-311.7 260,-289.7 144,-289.7"/>
<text text-anchor="start" x="147" y="-297.4" font-family="Helvetica,sans-Serif" font-size="11.00" fill="#000000">bigserial[19]</text>
<polygon fill="none" stroke="#000000" points="10,-267.7 10,-289.7 144,-289.7 144,-267.7 10,-267.7"/>
<text text-anchor="start" x="30" y="-274.8" font-family="Helvetica,sans-Serif" font-size="11.00" fill="#000000">timestamp</text>
<polygon fill="none" stroke="#000000" points="144,-267.7 144,-289.7 260,-289.7 260,-267.7 144,-267.7"/>
<text text-anchor="start" x="147" y="-275.4" font-family="Helvetica,sans-Serif" font-size="11.00" fill="#000000">timestamp[29,6]</text>
<polygon fill="none" stroke="#000000" points="10,-245.7 10,-267.7 144,-267.7 144,-245.7 10,-245.7"/>
<text text-anchor="start" x="30" y="-252.8" font-family="Helvetica,sans-Serif" font-size="11.00" fill="#000000">username</text>
<polygon fill="none" stroke="#000000" points="144,-245.7 144,-267.7 260,-267.7 260,-245.7 144,-245.7"/>
<text text-anchor="start" x="147" y="-253.4" font-family="Helvetica,sans-Serif" font-size="11.00" fill="#000000">varchar[32]</text>
<polygon fill="none" stroke="#000000" points="10,-223.7 10,-245.7 144,-245.7 144,-223.7 10,-223.7"/>
<text text-anchor="start" x="30" y="-230.8" font-family="Helvetica,sans-Serif" font-size="11.00" fill="#000000">caseload_id</text>
<polygon fill="none" stroke="#000000" points="144,-223.7 144,-245.7 260,-245.7 260,-223.7 144,-223.7"/>
<text text-anchor="start" x="147" y="-231.4" font-family="Helvetica,sans-Serif" font-size="11.00" fill="#000000">varchar[10]</text>
<polygon fill="none" stroke="#000000" points="10,-201.7 10,-223.7 144,-223.7 144,-201.7 10,-201.7"/>
<text text-anchor="start" x="30" y="-208.8" font-family="Helvetica,sans-Serif" font-size="11.00" fill="#000000">affected_entities</text>
<polygon fill="none" stroke="#000000" points="144,-201.7 144,-223.7 260,-223.7 260,-201.7 144,-201.7"/>
<text text-anchor="start" x="146.9769" y="-209.4" font-family="Helvetica,sans-Serif" font-size="11.00" fill="#000000">_varchar[2147483647]</text>
<polygon fill="#ffffff" stroke="transparent" points="10,-182.7 10,-201.7 81,-201.7 81,-182.7 10,-182.7"/>
<polygon fill="none" stroke="#000000" points="10,-182.7 10,-201.7 81,-201.7 81,-182.7 10,-182.7"/>
<text text-anchor="start" x="13" y="-188.8" font-family="Helvetica,sans-Serif" font-size="11.00" fill="#000000">&lt; 0</text>
<polygon fill="#ffffff" stroke="transparent" points="81,-182.7 81,-201.7 144,-201.7 144,-182.7 81,-182.7"/>
<polygon fill="none" stroke="#000000" points="81,-182.7 81,-201.7 144,-201.7 144,-182.7 81,-182.7"/>
<text text-anchor="start" x="134.8862" y="-188.8" font-family="Helvetica,sans-Serif" font-size="11.00" fill="#000000"> &#160;</text>
<polygon fill="#ffffff" stroke="transparent" points="144,-182.7 144,-201.7 260,-201.7 260,-182.7 144,-182.7"/>
<polygon fill="none" stroke="#000000" points="144,-182.7 144,-201.7 260,-201.7 260,-182.7 144,-182.7"/>
<text text-anchor="start" x="241.4053" y="-188.8" font-family="Helvetica,sans-Serif" font-size="11.00" fill="#000000">3 &gt;</text>
<polygon fill="none" stroke="#000000" stroke-width="2" points="9,-181.7 9,-335.7 261,-335.7 261,-181.7 9,-181.7"/>
</a>
</g>
</g>
<!-- prison_configuration_audit&#45;&gt;audit_revision -->
<g id="edge1" class="edge">
<title>prison_configuration_audit:w&#45;&gt;audit_revision:e</title>
<path fill="none" stroke="#000000" d="M297.1485,-468.1649C246.9627,-447.0175 333.2413,-300.7 260,-300.7"/>
<polygon fill="#000000" stroke="#000000" points="303.622,-469.3084 310.8738,-474.2451 307.561,-470.0042 311.5,-470.7 311.5,-470.7 311.5,-470.7 307.561,-470.0042 312.1262,-467.1549 303.622,-469.3084 303.622,-469.3084"/>
<ellipse fill="none" stroke="#000000" cx="300.4707" cy="-468.7517" rx="3.2" ry="3.2"/>
</g>
<!-- staff_configuration_audit -->
<g id="node3" class="node">
<title>staff_configuration_audit</title>
<g id="a_node3"><a xlink:href="../../tables/staff_configuration_audit.html" xlink:title="staff_configuration_audit" target="_top">
<polygon fill="#ffffff" stroke="transparent" points="384,-208.2 384,-335.2 615,-335.2 615,-208.2 384,-208.2"/>
<polygon fill="#f5f5f5" stroke="transparent" points="384.5,-311.7 384.5,-334.7 615.5,-334.7 615.5,-311.7 384.5,-311.7"/>
<polygon fill="none" stroke="#000000" points="384.5,-311.7 384.5,-334.7 615.5,-334.7 615.5,-311.7 384.5,-311.7"/>
<text text-anchor="start" x="389.5" y="-320.3" font-family="Helvetica,sans-Serif" font-weight="bold" font-size="11.00" fill="#000000">staff_configuration_audit</text>
<text text-anchor="start" x="580.5437" y="-319.8" font-family="Helvetica,sans-Serif" font-size="11.00" fill="#000000">[table]</text>
<polygon fill="none" stroke="#000000" points="384.5,-289.7 384.5,-311.7 615.5,-311.7 615.5,-289.7 384.5,-289.7"/>
<image xlink:href="../../images/primaryKeys.png" width="11px" height="12px" preserveAspectRatio="xMinYMin meet" x="389.5" y="-306.7"/>
<text text-anchor="start" x="404.5" y="-296.8" font-family="Helvetica,sans-Serif" font-size="11.00" fill="#000000">rev_id</text>
<polygon fill="none" stroke="#000000" points="384.5,-267.7 384.5,-289.7 615.5,-289.7 615.5,-267.7 384.5,-267.7"/>
<image xlink:href="../../images/primaryKeys.png" width="11px" height="12px" preserveAspectRatio="xMinYMin meet" x="389.5" y="-284.7"/>
<text text-anchor="start" x="404.5" y="-274.8" font-family="Helvetica,sans-Serif" font-size="11.00" fill="#000000">id</text>
<polygon fill="none" stroke="#000000" points="384.5,-245.7 384.5,-267.7 615.5,-267.7 615.5,-245.7 384.5,-245.7"/>
<image xlink:href="../../images/foreignKeys.png" width="11px" height="12px" preserveAspectRatio="xMinYMin meet" x="389.5" y="-262.7"/>
<text text-anchor="start" x="404.5" y="-252.8" font-family="Helvetica,sans-Serif" font-size="11.00" fill="#000000">policy_code</text>
<polygon fill="none" stroke="#000000" points="384.5,-226.7 384.5,-245.7 615.5,-245.7 615.5,-226.7 384.5,-226.7"/>
<text text-anchor="start" x="387.5" y="-232.8" font-family="Helvetica,sans-Serif" font-size="11.00" fill="#000000">...</text>
<polygon fill="#ffffff" stroke="transparent" points="384.5,-207.7 384.5,-226.7 498.5,-226.7 498.5,-207.7 384.5,-207.7"/>
<polygon fill="none" stroke="#000000" points="384.5,-207.7 384.5,-226.7 498.5,-226.7 498.5,-207.7 384.5,-207.7"/>
<text text-anchor="start" x="387.5" y="-213.8" font-family="Helvetica,sans-Serif" font-size="11.00" fill="#000000">&lt; 1</text>
<polygon fill="#ffffff" stroke="transparent" points="498.5,-207.7 498.5,-226.7 556.5,-226.7 556.5,-207.7 498.5,-207.7"/>
<polygon fill="none" stroke="#000000" points="498.5,-207.7 498.5,-226.7 556.5,-226.7 556.5,-207.7 498.5,-207.7"/>
<text text-anchor="start" x="547.3862" y="-213.8" font-family="Helvetica,sans-Serif" font-size="11.00" fill="#000000"> &#160;</text>
<polygon fill="#ffffff" stroke="transparent" points="556.5,-207.7 556.5,-226.7 615.5,-226.7 615.5,-207.7 556.5,-207.7"/>
<polygon fill="none" stroke="#000000" points="556.5,-207.7 556.5,-226.7 615.5,-226.7 615.5,-207.7 556.5,-207.7"/>
<text text-anchor="start" x="606.3862" y="-213.8" font-family="Helvetica,sans-Serif" font-size="11.00" fill="#000000"> &#160;</text>
</a>
</g>
</g>
<!-- staff_configuration_audit&#45;&gt;audit_revision -->
<g id="edge2" class="edge">
<title>staff_configuration_audit:w&#45;&gt;audit_revision:e</title>
<path fill="none" stroke="#000000" d="M369.9633,-300.7C326.2082,-300.7 310.1458,-300.7 260,-300.7"/>
<polygon fill="#000000" stroke="#000000" points="376.5,-300.7001 384.5,-304.3 380.5,-300.7 384.5,-300.7 384.5,-300.7 384.5,-300.7 380.5,-300.7 384.5,-297.1 376.5,-300.7001 376.5,-300.7001"/>
<ellipse fill="none" stroke="#000000" cx="373.3" cy="-300.7001" rx="3.2" ry="3.2"/>
</g>
<!-- staff_role_audit -->
<g id="node4" class="node">
<title>staff_role_audit</title>
<g id="a_node4"><a xlink:href="../../tables/staff_role_audit.html" xlink:title="staff_role_audit" target="_top">
<polygon fill="#ffffff" stroke="transparent" points="402.5,-38.2 402.5,-187.2 596.5,-187.2 596.5,-38.2 402.5,-38.2"/>
<polygon fill="#f5f5f5" stroke="transparent" points="402.5,-163.7 402.5,-186.7 596.5,-186.7 596.5,-163.7 402.5,-163.7"/>
<polygon fill="none" stroke="#000000" points="402.5,-163.7 402.5,-186.7 596.5,-186.7 596.5,-163.7 402.5,-163.7"/>
<text text-anchor="start" x="407.5" y="-172.3" font-family="Helvetica,sans-Serif" font-weight="bold" font-size="11.00" fill="#000000">staff_role_audit</text>
<text text-anchor="start" x="561.5437" y="-171.8" font-family="Helvetica,sans-Serif" font-size="11.00" fill="#000000">[table]</text>
<polygon fill="none" stroke="#000000" points="402.5,-141.7 402.5,-163.7 596.5,-163.7 596.5,-141.7 402.5,-141.7"/>
<image xlink:href="../../images/primaryKeys.png" width="11px" height="12px" preserveAspectRatio="xMinYMin meet" x="407.5" y="-158.7"/>
<text text-anchor="start" x="422.5" y="-148.8" font-family="Helvetica,sans-Serif" font-size="11.00" fill="#000000">rev_id</text>
<polygon fill="none" stroke="#000000" points="402.5,-119.7 402.5,-141.7 596.5,-141.7 596.5,-119.7 402.5,-119.7"/>
<image xlink:href="../../images/primaryKeys.png" width="11px" height="12px" preserveAspectRatio="xMinYMin meet" x="407.5" y="-136.7"/>
<text text-anchor="start" x="422.5" y="-126.8" font-family="Helvetica,sans-Serif" font-size="11.00" fill="#000000">id</text>
<polygon fill="none" stroke="#000000" points="402.5,-97.7 402.5,-119.7 596.5,-119.7 596.5,-97.7 402.5,-97.7"/>
<image xlink:href="../../images/foreignKeys.png" width="11px" height="12px" preserveAspectRatio="xMinYMin meet" x="407.5" y="-114.7"/>
<text text-anchor="start" x="422.5" y="-104.8" font-family="Helvetica,sans-Serif" font-size="11.00" fill="#000000">policy_code</text>
<polygon fill="none" stroke="#000000" points="402.5,-75.7 402.5,-97.7 596.5,-97.7 596.5,-75.7 402.5,-75.7"/>
<image xlink:href="../../images/foreignKeys.png" width="11px" height="12px" preserveAspectRatio="xMinYMin meet" x="407.5" y="-92.7"/>
<text text-anchor="start" x="422.5" y="-82.8" font-family="Helvetica,sans-Serif" font-size="11.00" fill="#000000">prison_code</text>
<polygon fill="none" stroke="#000000" points="402.5,-56.7 402.5,-75.7 596.5,-75.7 596.5,-56.7 402.5,-56.7"/>
<text text-anchor="start" x="405.5" y="-62.8" font-family="Helvetica,sans-Serif" font-size="11.00" fill="#000000">...</text>
<polygon fill="#ffffff" stroke="transparent" points="402.5,-37.7 402.5,-56.7 497.5,-56.7 497.5,-37.7 402.5,-37.7"/>
<polygon fill="none" stroke="#000000" points="402.5,-37.7 402.5,-56.7 497.5,-56.7 497.5,-37.7 402.5,-37.7"/>
<text text-anchor="start" x="405.5" y="-43.8" font-family="Helvetica,sans-Serif" font-size="11.00" fill="#000000">&lt; 1</text>
<polygon fill="#ffffff" stroke="transparent" points="497.5,-37.7 497.5,-56.7 546.5,-56.7 546.5,-37.7 497.5,-37.7"/>
<polygon fill="none" stroke="#000000" points="497.5,-37.7 497.5,-56.7 546.5,-56.7 546.5,-37.7 497.5,-37.7"/>
<text text-anchor="start" x="537.3862" y="-43.8" font-family="Helvetica,sans-Serif" font-size="11.00" fill="#000000"> &#160;</text>
<polygon fill="#ffffff" stroke="transparent" points="546.5,-37.7 546.5,-56.7 596.5,-56.7 596.5,-37.7 546.5,-37.7"/>
<polygon fill="none" stroke="#000000" points="546.5,-37.7 546.5,-56.7 596.5,-56.7 596.5,-37.7 546.5,-37.7"/>
<text text-anchor="start" x="587.3862" y="-43.8" font-family="Helvetica,sans-Serif" font-size="11.00" fill="#000000"> &#160;</text>
</a>
</g>
</g>
<!-- staff_role_audit&#45;&gt;audit_revision -->
<g id="edge3" class="edge">
<title>staff_role_audit:w&#45;&gt;audit_revision:e</title>
<path fill="none" stroke="#000000" d="M387.638,-153.0843C350.0141,-155.2221 333.1152,-166.6908 303,-197.7 268.4394,-233.2866 309.6068,-300.7 260,-300.7"/>
<polygon fill="#000000" stroke="#000000" points="394.5027,-152.9069 402.5931,-156.2988 398.5013,-152.8034 402.5,-152.7 402.5,-152.7 402.5,-152.7 398.5013,-152.8034 402.4069,-149.1012 394.5027,-152.9069 394.5027,-152.9069"/>
<ellipse fill="none" stroke="#000000" cx="391.3037" cy="-152.9896" rx="3.2" ry="3.2"/>
</g>
</g>
</svg>
