<?xml version="1.0" encoding="UTF-8" standalone="no"?>
<!DOCTYPE svg PUBLIC "-//W3C//DTD SVG 1.1//EN"
 "http://www.w3.org/Graphics/SVG/1.1/DTD/svg11.dtd">
<!-- Generated by graphviz version 2.40.1 (20161225.0304)
 -->
<!-- Title: twoDegreesRelationshipsDiagramImplied Pages: 1 -->
<svg width="704pt" height="517pt"
 viewBox="0.00 0.00 704.00 517.20" xmlns="http://www.w3.org/2000/svg" xmlns:xlink="http://www.w3.org/1999/xlink">
<g id="graph0" class="graph" transform="scale(1 1) rotate(0) translate(4 513.2)">
<title>twoDegreesRelationshipsDiagramImplied</title>
<polygon fill="#ffffff" stroke="transparent" points="-4,4 -4,-513.2 700,-513.2 700,4 -4,4"/>
<text text-anchor="middle" x="72.4936" y="-7.3" font-family="Helvetica,sans-Serif" font-size="11.00" fill="#000000">Generated by SchemaSpy</text>
<!-- prison_configuration_audit -->
<g id="node1" class="node">
<title>prison_configuration_audit</title>
<g id="a_node1"><a xlink:href="../../tables/prison_configuration_audit.html" xlink:title="prison_configuration_audit" target="_top">
<polygon fill="#ffffff" stroke="transparent" points="311,-38.2 311,-187.2 688,-187.2 688,-38.2 311,-38.2"/>
<polygon fill="#f5f5f5" stroke="transparent" points="311.5,-163.7 311.5,-186.7 688.5,-186.7 688.5,-163.7 311.5,-163.7"/>
<polygon fill="none" stroke="#000000" points="311.5,-163.7 311.5,-186.7 688.5,-186.7 688.5,-163.7 311.5,-163.7"/>
<text text-anchor="start" x="316.5" y="-172.3" font-family="Helvetica,sans-Serif" font-weight="bold" font-size="11.00" fill="#000000">prison_configuration_audit</text>
<text text-anchor="start" x="653.5437" y="-171.8" font-family="Helvetica,sans-Serif" font-size="11.00" fill="#000000">[table]</text>
<polygon fill="none" stroke="#000000" points="311.5,-141.7 311.5,-163.7 688.5,-163.7 688.5,-141.7 311.5,-141.7"/>
<image xlink:href="../../images/primaryKeys.png" width="11px" height="12px" preserveAspectRatio="xMinYMin meet" x="316.5" y="-158.7"/>
<text text-anchor="start" x="331.5" y="-148.8" font-family="Helvetica,sans-Serif" font-size="11.00" fill="#000000">rev_id</text>
<polygon fill="none" stroke="#000000" points="311.5,-119.7 311.5,-141.7 688.5,-141.7 688.5,-119.7 311.5,-119.7"/>
<image xlink:href="../../images/primaryKeys.png" width="11px" height="12px" preserveAspectRatio="xMinYMin meet" x="316.5" y="-136.7"/>
<text text-anchor="start" x="331.5" y="-126.8" font-family="Helvetica,sans-Serif" font-size="11.00" fill="#000000">id</text>
<polygon fill="none" stroke="#000000" points="311.5,-97.7 311.5,-119.7 688.5,-119.7 688.5,-97.7 311.5,-97.7"/>
<image xlink:href="../../images/foreignKeys.png" width="11px" height="12px" preserveAspectRatio="xMinYMin meet" x="316.5" y="-114.7"/>
<text text-anchor="start" x="331.5" y="-104.8" font-family="Helvetica,sans-Serif" font-size="11.00" fill="#000000">prison_code</text>
<polygon fill="none" stroke="#000000" points="311.5,-75.7 311.5,-97.7 688.5,-97.7 688.5,-75.7 311.5,-75.7"/>
<image xlink:href="../../images/foreignKeys.png" width="11px" height="12px" preserveAspectRatio="xMinYMin meet" x="316.5" y="-92.7"/>
<text text-anchor="start" x="331.5" y="-82.8" font-family="Helvetica,sans-Serif" font-size="11.00" fill="#000000">policy_code</text>
<polygon fill="none" stroke="#000000" points="311.5,-56.7 311.5,-75.7 688.5,-75.7 688.5,-56.7 311.5,-56.7"/>
<text text-anchor="start" x="314.5" y="-62.8" font-family="Helvetica,sans-Serif" font-size="11.00" fill="#000000">...</text>
<polygon fill="#ffffff" stroke="transparent" points="311.5,-37.7 311.5,-56.7 498.5,-56.7 498.5,-37.7 311.5,-37.7"/>
<polygon fill="none" stroke="#000000" points="311.5,-37.7 311.5,-56.7 498.5,-56.7 498.5,-37.7 311.5,-37.7"/>
<text text-anchor="start" x="314.5" y="-43.8" font-family="Helvetica,sans-Serif" font-size="11.00" fill="#000000">&lt; 3</text>
<polygon fill="#ffffff" stroke="transparent" points="498.5,-37.7 498.5,-56.7 593.5,-56.7 593.5,-37.7 498.5,-37.7"/>
<polygon fill="none" stroke="#000000" points="498.5,-37.7 498.5,-56.7 593.5,-56.7 593.5,-37.7 498.5,-37.7"/>
<text text-anchor="start" x="584.3862" y="-43.8" font-family="Helvetica,sans-Serif" font-size="11.00" fill="#000000"> &#160;</text>
<polygon fill="#ffffff" stroke="transparent" points="593.5,-37.7 593.5,-56.7 688.5,-56.7 688.5,-37.7 593.5,-37.7"/>
<polygon fill="none" stroke="#000000" points="593.5,-37.7 593.5,-56.7 688.5,-56.7 688.5,-37.7 593.5,-37.7"/>
<text text-anchor="start" x="679.3862" y="-43.8" font-family="Helvetica,sans-Serif" font-size="11.00" fill="#000000"> &#160;</text>
</a>
</g>
</g>
<!-- policy -->
<g id="node2" class="node">
<title>policy</title>
<g id="a_node2"><a xlink:href="../../tables/policy.html" xlink:title="policy" target="_top">
<polygon fill="#ffffff" stroke="transparent" points="96,-229.2 96,-290.2 174,-290.2 174,-229.2 96,-229.2"/>
<polygon fill="#f5f5f5" stroke="transparent" points="96,-266.7 96,-289.7 174,-289.7 174,-266.7 96,-266.7"/>
<polygon fill="none" stroke="#000000" points="96,-266.7 96,-289.7 174,-289.7 174,-266.7 96,-266.7"/>
<text text-anchor="start" x="101" y="-275.3" font-family="Helvetica,sans-Serif" font-weight="bold" font-size="11.00" fill="#000000">policy</text>
<text text-anchor="start" x="139.5219" y="-274.8" font-family="Helvetica,sans-Serif" font-size="11.00" fill="#000000">[table]</text>
<polygon fill="none" stroke="#000000" points="96,-247.7 96,-266.7 174,-266.7 174,-247.7 96,-247.7"/>
<text text-anchor="start" x="99" y="-253.8" font-family="Helvetica,sans-Serif" font-size="11.00" fill="#000000">...</text>
<polygon fill="#ffffff" stroke="transparent" points="96,-228.7 96,-247.7 124,-247.7 124,-228.7 96,-228.7"/>
<polygon fill="none" stroke="#000000" points="96,-228.7 96,-247.7 124,-247.7 124,-228.7 96,-228.7"/>
<text text-anchor="start" x="99" y="-234.8" font-family="Helvetica,sans-Serif" font-size="11.00" fill="#000000"> &#160;</text>
<polygon fill="#ffffff" stroke="transparent" points="124,-228.7 124,-247.7 144,-247.7 144,-228.7 124,-228.7"/>
<polygon fill="none" stroke="#000000" points="124,-228.7 124,-247.7 144,-247.7 144,-228.7 124,-228.7"/>
<text text-anchor="start" x="134.8862" y="-234.8" font-family="Helvetica,sans-Serif" font-size="11.00" fill="#000000"> &#160;</text>
<polygon fill="#ffffff" stroke="transparent" points="144,-228.7 144,-247.7 174,-247.7 174,-228.7 144,-228.7"/>
<polygon fill="none" stroke="#000000" points="144,-228.7 144,-247.7 174,-247.7 174,-228.7 144,-228.7"/>
<text text-anchor="start" x="155.4053" y="-234.8" font-family="Helvetica,sans-Serif" font-size="11.00" fill="#000000">6 &gt;</text>
</a>
</g>
</g>
<!-- prison_configuration_audit&#45;&gt;policy -->
<g id="edge1" class="edge">
<title>prison_configuration_audit:w&#45;&gt;policy:e</title>
<path fill="none" stroke="#000000" stroke-dasharray="5,2" d="M297.1912,-89.2353C268.1991,-102.0908 299.3668,-160.8621 270,-196.7 238.1097,-235.6174 224.3146,-256.7 174,-256.7"/>
<polygon fill="#000000" stroke="#000000" points="303.6227,-88.0958 312.1281,-90.2448 307.5613,-87.3979 311.5,-86.7 311.5,-86.7 311.5,-86.7 307.5613,-87.3979 310.8719,-83.1552 303.6227,-88.0958 303.6227,-88.0958"/>
<ellipse fill="none" stroke="#000000" cx="300.4718" cy="-88.6541" rx="3.2" ry="3.2"/>
</g>
<!-- prison_migration_date_history -->
<g id="node3" class="node">
<title>prison_migration_date_history</title>
<g id="a_node3"><a xlink:href="../../tables/prison_migration_date_history.html" xlink:title="prison_migration_date_history" target="_top">
<polygon fill="#ffffff" stroke="transparent" points="13.5,-125.2 13.5,-186.2 256.5,-186.2 256.5,-125.2 13.5,-125.2"/>
<polygon fill="#f5f5f5" stroke="transparent" points="14,-162.7 14,-185.7 257,-185.7 257,-162.7 14,-162.7"/>
<polygon fill="none" stroke="#000000" points="14,-162.7 14,-185.7 257,-185.7 257,-162.7 14,-162.7"/>
<text text-anchor="start" x="19" y="-171.3" font-family="Helvetica,sans-Serif" font-weight="bold" font-size="11.00" fill="#000000">prison_migration_date_history</text>
<text text-anchor="start" x="222.5219" y="-170.8" font-family="Helvetica,sans-Serif" font-size="11.00" fill="#000000">[table]</text>
<polygon fill="none" stroke="#000000" points="14,-143.7 14,-162.7 257,-162.7 257,-143.7 14,-143.7"/>
<text text-anchor="start" x="17" y="-149.8" font-family="Helvetica,sans-Serif" font-size="11.00" fill="#000000">...</text>
<polygon fill="#ffffff" stroke="transparent" points="14,-124.7 14,-143.7 125,-143.7 125,-124.7 14,-124.7"/>
<polygon fill="none" stroke="#000000" points="14,-124.7 14,-143.7 125,-143.7 125,-124.7 14,-124.7"/>
<text text-anchor="start" x="17" y="-130.8" font-family="Helvetica,sans-Serif" font-size="11.00" fill="#000000"> &#160;</text>
<polygon fill="#ffffff" stroke="transparent" points="125,-124.7 125,-143.7 186,-143.7 186,-124.7 125,-124.7"/>
<polygon fill="none" stroke="#000000" points="125,-124.7 125,-143.7 186,-143.7 186,-124.7 125,-124.7"/>
<text text-anchor="start" x="176.8862" y="-130.8" font-family="Helvetica,sans-Serif" font-size="11.00" fill="#000000"> &#160;</text>
<polygon fill="#ffffff" stroke="transparent" points="186,-124.7 186,-143.7 257,-143.7 257,-124.7 186,-124.7"/>
<polygon fill="none" stroke="#000000" points="186,-124.7 186,-143.7 257,-143.7 257,-124.7 186,-124.7"/>
<text text-anchor="start" x="238.4053" y="-130.8" font-family="Helvetica,sans-Serif" font-size="11.00" fill="#000000">6 &gt;</text>
</a>
</g>
</g>
<!-- prison_configuration_audit&#45;&gt;prison_migration_date_history -->
<g id="edge2" class="edge">
<title>prison_configuration_audit:w&#45;&gt;prison_migration_date_history:e</title>
<path fill="none" stroke="#000000" stroke-dasharray="5,2" d="M297.5781,-112.7605C281.9124,-123.6531 282.2939,-152.7 257,-152.7"/>
<polygon fill="#000000" stroke="#000000" points="303.82,-110.94 312.508,-112.156 307.66,-109.82 311.5,-108.7 311.5,-108.7 311.5,-108.7 307.66,-109.82 310.492,-105.244 303.82,-110.94 303.82,-110.94"/>
<ellipse fill="none" stroke="#000000" cx="300.748" cy="-111.836" rx="3.2" ry="3.2"/>
</g>
<!-- audit_revision -->
<g id="node4" class="node">
<title>audit_revision</title>
<g id="a_node4"><a xlink:href="../../tables/audit_revision.html" xlink:title="audit_revision" target="_top">
<polygon fill="#ffffff" stroke="transparent" points="8,-311.7 8,-467.7 262,-467.7 262,-311.7 8,-311.7"/>
<polygon fill="#f5f5f5" stroke="transparent" points="10,-442.7 10,-465.7 260,-465.7 260,-442.7 10,-442.7"/>
<polygon fill="none" stroke="#000000" points="10,-442.7 10,-465.7 260,-465.7 260,-442.7 10,-442.7"/>
<text text-anchor="start" x="15" y="-451.3" font-family="Helvetica,sans-Serif" font-weight="bold" font-size="11.00" fill="#000000">audit_revision</text>
<text text-anchor="start" x="225.0437" y="-450.8" font-family="Helvetica,sans-Serif" font-size="11.00" fill="#000000">[table]</text>
<polygon fill="none" stroke="#000000" points="10,-420.7 10,-442.7 144,-442.7 144,-420.7 10,-420.7"/>
<image xlink:href="../../images/primaryKeys.png" width="11px" height="12px" preserveAspectRatio="xMinYMin meet" x="15" y="-437.7"/>
<text text-anchor="start" x="30" y="-427.8" font-family="Helvetica,sans-Serif" font-size="11.00" fill="#000000">id</text>
<polygon fill="none" stroke="#000000" points="144,-420.7 144,-442.7 260,-442.7 260,-420.7 144,-420.7"/>
<text text-anchor="start" x="147" y="-428.4" font-family="Helvetica,sans-Serif" font-size="11.00" fill="#000000">bigserial[19]</text>
<polygon fill="none" stroke="#000000" points="10,-398.7 10,-420.7 144,-420.7 144,-398.7 10,-398.7"/>
<text text-anchor="start" x="30" y="-405.8" font-family="Helvetica,sans-Serif" font-size="11.00" fill="#000000">timestamp</text>
<polygon fill="none" stroke="#000000" points="144,-398.7 144,-420.7 260,-420.7 260,-398.7 144,-398.7"/>
<text text-anchor="start" x="147" y="-406.4" font-family="Helvetica,sans-Serif" font-size="11.00" fill="#000000">timestamp[29,6]</text>
<polygon fill="none" stroke="#000000" points="10,-376.7 10,-398.7 144,-398.7 144,-376.7 10,-376.7"/>
<text text-anchor="start" x="30" y="-383.8" font-family="Helvetica,sans-Serif" font-size="11.00" fill="#000000">username</text>
<polygon fill="none" stroke="#000000" points="144,-376.7 144,-398.7 260,-398.7 260,-376.7 144,-376.7"/>
<text text-anchor="start" x="147" y="-384.4" font-family="Helvetica,sans-Serif" font-size="11.00" fill="#000000">varchar[32]</text>
<polygon fill="none" stroke="#000000" points="10,-354.7 10,-376.7 144,-376.7 144,-354.7 10,-354.7"/>
<text text-anchor="start" x="30" y="-361.8" font-family="Helvetica,sans-Serif" font-size="11.00" fill="#000000">caseload_id</text>
<polygon fill="none" stroke="#000000" points="144,-354.7 144,-376.7 260,-376.7 260,-354.7 144,-354.7"/>
<text text-anchor="start" x="147" y="-362.4" font-family="Helvetica,sans-Serif" font-size="11.00" fill="#000000">varchar[10]</text>
<polygon fill="none" stroke="#000000" points="10,-332.7 10,-354.7 144,-354.7 144,-332.7 10,-332.7"/>
<text text-anchor="start" x="30" y="-339.8" font-family="Helvetica,sans-Serif" font-size="11.00" fill="#000000">affected_entities</text>
<polygon fill="none" stroke="#000000" points="144,-332.7 144,-354.7 260,-354.7 260,-332.7 144,-332.7"/>
<text text-anchor="start" x="146.9769" y="-340.4" font-family="Helvetica,sans-Serif" font-size="11.00" fill="#000000">_varchar[2147483647]</text>
<polygon fill="#ffffff" stroke="transparent" points="10,-313.7 10,-332.7 81,-332.7 81,-313.7 10,-313.7"/>
<polygon fill="none" stroke="#000000" points="10,-313.7 10,-332.7 81,-332.7 81,-313.7 10,-313.7"/>
<text text-anchor="start" x="13" y="-319.8" font-family="Helvetica,sans-Serif" font-size="11.00" fill="#000000">&lt; 0</text>
<polygon fill="#ffffff" stroke="transparent" points="81,-313.7 81,-332.7 144,-332.7 144,-313.7 81,-313.7"/>
<polygon fill="none" stroke="#000000" points="81,-313.7 81,-332.7 144,-332.7 144,-313.7 81,-313.7"/>
<text text-anchor="start" x="134.8862" y="-319.8" font-family="Helvetica,sans-Serif" font-size="11.00" fill="#000000"> &#160;</text>
<polygon fill="#ffffff" stroke="transparent" points="144,-313.7 144,-332.7 260,-332.7 260,-313.7 144,-313.7"/>
<polygon fill="none" stroke="#000000" points="144,-313.7 144,-332.7 260,-332.7 260,-313.7 144,-313.7"/>
<text text-anchor="start" x="241.4053" y="-319.8" font-family="Helvetica,sans-Serif" font-size="11.00" fill="#000000">3 &gt;</text>
<polygon fill="none" stroke="#000000" stroke-width="2" points="9,-312.7 9,-466.7 261,-466.7 261,-312.7 9,-312.7"/>
</a>
</g>
</g>
<!-- prison_configuration_audit&#45;&gt;audit_revision -->
<g id="edge3" class="edge">
<title>prison_configuration_audit:w&#45;&gt;audit_revision:e</title>
<path fill="none" stroke="#000000" d="M298.1204,-158.5273C260.2571,-198.5926 317.6293,-431.7 260,-431.7"/>
<polygon fill="#000000" stroke="#000000" points="304.1655,-155.8945 312.9375,-156.0005 307.8327,-154.2973 311.5,-152.7 311.5,-152.7 311.5,-152.7 307.8327,-154.2973 310.0625,-149.3995 304.1655,-155.8945 304.1655,-155.8945"/>
<ellipse fill="none" stroke="#000000" cx="301.2316" cy="-157.1723" rx="3.2" ry="3.2"/>
</g>
<!-- staff_configuration_audit -->
<g id="node5" class="node">
<title>staff_configuration_audit</title>
<g id="a_node5"><a xlink:href="../../tables/staff_configuration_audit.html" xlink:title="staff_configuration_audit" target="_top">
<polygon fill="#ffffff" stroke="transparent" points="384,-378.2 384,-505.2 615,-505.2 615,-378.2 384,-378.2"/>
<polygon fill="#f5f5f5" stroke="transparent" points="384.5,-481.7 384.5,-504.7 615.5,-504.7 615.5,-481.7 384.5,-481.7"/>
<polygon fill="none" stroke="#000000" points="384.5,-481.7 384.5,-504.7 615.5,-504.7 615.5,-481.7 384.5,-481.7"/>
<text text-anchor="start" x="389.5" y="-490.3" font-family="Helvetica,sans-Serif" font-weight="bold" font-size="11.00" fill="#000000">staff_configuration_audit</text>
<text text-anchor="start" x="580.5437" y="-489.8" font-family="Helvetica,sans-Serif" font-size="11.00" fill="#000000">[table]</text>
<polygon fill="none" stroke="#000000" points="384.5,-459.7 384.5,-481.7 615.5,-481.7 615.5,-459.7 384.5,-459.7"/>
<image xlink:href="../../images/primaryKeys.png" width="11px" height="12px" preserveAspectRatio="xMinYMin meet" x="389.5" y="-476.7"/>
<text text-anchor="start" x="404.5" y="-466.8" font-family="Helvetica,sans-Serif" font-size="11.00" fill="#000000">rev_id</text>
<polygon fill="none" stroke="#000000" points="384.5,-437.7 384.5,-459.7 615.5,-459.7 615.5,-437.7 384.5,-437.7"/>
<image xlink:href="../../images/primaryKeys.png" width="11px" height="12px" preserveAspectRatio="xMinYMin meet" x="389.5" y="-454.7"/>
<text text-anchor="start" x="404.5" y="-444.8" font-family="Helvetica,sans-Serif" font-size="11.00" fill="#000000">id</text>
<polygon fill="none" stroke="#000000" points="384.5,-415.7 384.5,-437.7 615.5,-437.7 615.5,-415.7 384.5,-415.7"/>
<image xlink:href="../../images/foreignKeys.png" width="11px" height="12px" preserveAspectRatio="xMinYMin meet" x="389.5" y="-432.7"/>
<text text-anchor="start" x="404.5" y="-422.8" font-family="Helvetica,sans-Serif" font-size="11.00" fill="#000000">policy_code</text>
<polygon fill="none" stroke="#000000" points="384.5,-396.7 384.5,-415.7 615.5,-415.7 615.5,-396.7 384.5,-396.7"/>
<text text-anchor="start" x="387.5" y="-402.8" font-family="Helvetica,sans-Serif" font-size="11.00" fill="#000000">...</text>
<polygon fill="#ffffff" stroke="transparent" points="384.5,-377.7 384.5,-396.7 498.5,-396.7 498.5,-377.7 384.5,-377.7"/>
<polygon fill="none" stroke="#000000" points="384.5,-377.7 384.5,-396.7 498.5,-396.7 498.5,-377.7 384.5,-377.7"/>
<text text-anchor="start" x="387.5" y="-383.8" font-family="Helvetica,sans-Serif" font-size="11.00" fill="#000000">&lt; 2</text>
<polygon fill="#ffffff" stroke="transparent" points="498.5,-377.7 498.5,-396.7 556.5,-396.7 556.5,-377.7 498.5,-377.7"/>
<polygon fill="none" stroke="#000000" points="498.5,-377.7 498.5,-396.7 556.5,-396.7 556.5,-377.7 498.5,-377.7"/>
<text text-anchor="start" x="547.3862" y="-383.8" font-family="Helvetica,sans-Serif" font-size="11.00" fill="#000000"> &#160;</text>
<polygon fill="#ffffff" stroke="transparent" points="556.5,-377.7 556.5,-396.7 615.5,-396.7 615.5,-377.7 556.5,-377.7"/>
<polygon fill="none" stroke="#000000" points="556.5,-377.7 556.5,-396.7 615.5,-396.7 615.5,-377.7 556.5,-377.7"/>
<text text-anchor="start" x="606.3862" y="-383.8" font-family="Helvetica,sans-Serif" font-size="11.00" fill="#000000"> &#160;</text>
</a>
</g>
</g>
<!-- staff_configuration_audit&#45;&gt;policy -->
<g id="edge4" class="edge">
<title>staff_configuration_audit:w&#45;&gt;policy:e</title>
<path fill="none" stroke="#000000" stroke-dasharray="5,2" d="M369.7743,-425.6321C337.5741,-420.5322 328.437,-397.6607 303,-367.7 281.7743,-342.6995 293.4817,-324.5947 270,-301.7 236.261,-268.8043 221.1216,-256.7 174,-256.7"/>
<polygon fill="#000000" stroke="#000000" points="376.521,-426.1213 384.2396,-430.2906 380.5105,-426.4106 384.5,-426.7 384.5,-426.7 384.5,-426.7 380.5105,-426.4106 384.7604,-423.1094 376.521,-426.1213 376.521,-426.1213"/>
<ellipse fill="none" stroke="#000000" cx="373.3293" cy="-425.8898" rx="3.2" ry="3.2"/>
</g>
<!-- staff_configuration_audit&#45;&gt;audit_revision -->
<g id="edge5" class="edge">
<title>staff_configuration_audit:w&#45;&gt;audit_revision:e</title>
<path fill="none" stroke="#000000" d="M369.9972,-469.8122C324.5833,-464.007 312.7751,-431.7 260,-431.7"/>
<polygon fill="#000000" stroke="#000000" points="376.5149,-470.2111 384.28,-474.2933 380.5075,-470.4556 384.5,-470.7 384.5,-470.7 384.5,-470.7 380.5075,-470.4556 384.72,-467.1067 376.5149,-470.2111 376.5149,-470.2111"/>
<ellipse fill="none" stroke="#000000" cx="373.3209" cy="-470.0156" rx="3.2" ry="3.2"/>
</g>
<!-- staff_role_audit -->
<g id="node6" class="node">
<title>staff_role_audit</title>
<g id="a_node6"><a xlink:href="../../tables/staff_role_audit.html" xlink:title="staff_role_audit" target="_top">
<polygon fill="#ffffff" stroke="transparent" points="402.5,-208.2 402.5,-357.2 596.5,-357.2 596.5,-208.2 402.5,-208.2"/>
<polygon fill="#f5f5f5" stroke="transparent" points="402.5,-333.7 402.5,-356.7 596.5,-356.7 596.5,-333.7 402.5,-333.7"/>
<polygon fill="none" stroke="#000000" points="402.5,-333.7 402.5,-356.7 596.5,-356.7 596.5,-333.7 402.5,-333.7"/>
<text text-anchor="start" x="407.5" y="-342.3" font-family="Helvetica,sans-Serif" font-weight="bold" font-size="11.00" fill="#000000">staff_role_audit</text>
<text text-anchor="start" x="561.5437" y="-341.8" font-family="Helvetica,sans-Serif" font-size="11.00" fill="#000000">[table]</text>
<polygon fill="none" stroke="#000000" points="402.5,-311.7 402.5,-333.7 596.5,-333.7 596.5,-311.7 402.5,-311.7"/>
<image xlink:href="../../images/primaryKeys.png" width="11px" height="12px" preserveAspectRatio="xMinYMin meet" x="407.5" y="-328.7"/>
<text text-anchor="start" x="422.5" y="-318.8" font-family="Helvetica,sans-Serif" font-size="11.00" fill="#000000">rev_id</text>
<polygon fill="none" stroke="#000000" points="402.5,-289.7 402.5,-311.7 596.5,-311.7 596.5,-289.7 402.5,-289.7"/>
<image xlink:href="../../images/primaryKeys.png" width="11px" height="12px" preserveAspectRatio="xMinYMin meet" x="407.5" y="-306.7"/>
<text text-anchor="start" x="422.5" y="-296.8" font-family="Helvetica,sans-Serif" font-size="11.00" fill="#000000">id</text>
<polygon fill="none" stroke="#000000" points="402.5,-267.7 402.5,-289.7 596.5,-289.7 596.5,-267.7 402.5,-267.7"/>
<image xlink:href="../../images/foreignKeys.png" width="11px" height="12px" preserveAspectRatio="xMinYMin meet" x="407.5" y="-284.7"/>
<text text-anchor="start" x="422.5" y="-274.8" font-family="Helvetica,sans-Serif" font-size="11.00" fill="#000000">policy_code</text>
<polygon fill="none" stroke="#000000" points="402.5,-245.7 402.5,-267.7 596.5,-267.7 596.5,-245.7 402.5,-245.7"/>
<image xlink:href="../../images/foreignKeys.png" width="11px" height="12px" preserveAspectRatio="xMinYMin meet" x="407.5" y="-262.7"/>
<text text-anchor="start" x="422.5" y="-252.8" font-family="Helvetica,sans-Serif" font-size="11.00" fill="#000000">prison_code</text>
<polygon fill="none" stroke="#000000" points="402.5,-226.7 402.5,-245.7 596.5,-245.7 596.5,-226.7 402.5,-226.7"/>
<text text-anchor="start" x="405.5" y="-232.8" font-family="Helvetica,sans-Serif" font-size="11.00" fill="#000000">...</text>
<polygon fill="#ffffff" stroke="transparent" points="402.5,-207.7 402.5,-226.7 497.5,-226.7 497.5,-207.7 402.5,-207.7"/>
<polygon fill="none" stroke="#000000" points="402.5,-207.7 402.5,-226.7 497.5,-226.7 497.5,-207.7 402.5,-207.7"/>
<text text-anchor="start" x="405.5" y="-213.8" font-family="Helvetica,sans-Serif" font-size="11.00" fill="#000000">&lt; 3</text>
<polygon fill="#ffffff" stroke="transparent" points="497.5,-207.7 497.5,-226.7 546.5,-226.7 546.5,-207.7 497.5,-207.7"/>
<polygon fill="none" stroke="#000000" points="497.5,-207.7 497.5,-226.7 546.5,-226.7 546.5,-207.7 497.5,-207.7"/>
<text text-anchor="start" x="537.3862" y="-213.8" font-family="Helvetica,sans-Serif" font-size="11.00" fill="#000000"> &#160;</text>
<polygon fill="#ffffff" stroke="transparent" points="546.5,-207.7 546.5,-226.7 596.5,-226.7 596.5,-207.7 546.5,-207.7"/>
<polygon fill="none" stroke="#000000" points="546.5,-207.7 546.5,-226.7 596.5,-226.7 596.5,-207.7 546.5,-207.7"/>
<text text-anchor="start" x="587.3862" y="-213.8" font-family="Helvetica,sans-Serif" font-size="11.00" fill="#000000"> &#160;</text>
</a>
</g>
</g>
<!-- staff_role_audit&#45;&gt;policy -->
<g id="edge6" class="edge">
<title>staff_role_audit:w&#45;&gt;policy:e</title>
<path fill="none" stroke="#000000" stroke-dasharray="5,2" d="M388.0917,-278.5478C297.9022,-276.604 271.0435,-256.7 174,-256.7"/>
<polygon fill="#000000" stroke="#000000" points="394.5004,-278.6154 402.4619,-282.2998 398.5002,-278.6577 402.5,-278.7 402.5,-278.7 402.5,-278.7 398.5002,-278.6577 402.5381,-275.1002 394.5004,-278.6154 394.5004,-278.6154"/>
<ellipse fill="none" stroke="#000000" cx="391.3006" cy="-278.5816" rx="3.2" ry="3.2"/>
</g>
<!-- staff_role_audit&#45;&gt;prison_migration_date_history -->
<g id="edge7" class="edge">
<title>staff_role_audit:w&#45;&gt;prison_migration_date_history:e</title>
<path fill="none" stroke="#000000" stroke-dasharray="5,2" d="M388.1188,-255.8684C349.2578,-251.0383 339.6364,-225.8308 303,-197.7 280.3155,-180.282 285.6003,-152.7 257,-152.7"/>
<polygon fill="#000000" stroke="#000000" points="394.5133,-256.2381 402.2921,-260.294 398.5067,-256.4691 402.5,-256.7 402.5,-256.7 402.5,-256.7 398.5067,-256.4691 402.7079,-253.106 394.5133,-256.2381 394.5133,-256.2381"/>
<ellipse fill="none" stroke="#000000" cx="391.3187" cy="-256.0533" rx="3.2" ry="3.2"/>
</g>
<!-- staff_role_audit&#45;&gt;audit_revision -->
<g id="edge8" class="edge">
<title>staff_role_audit:w&#45;&gt;audit_revision:e</title>
<path fill="none" stroke="#000000" d="M387.7418,-323.1955C350.6466,-325.8997 336.0064,-339.7881 303,-367.7 276.8335,-389.8277 294.2684,-431.7 260,-431.7"/>
<polygon fill="#000000" stroke="#000000" points="394.5045,-322.9685 402.6208,-326.298 398.5023,-322.8343 402.5,-322.7 402.5,-322.7 402.5,-322.7 398.5023,-322.8343 402.3792,-319.102 394.5045,-322.9685 394.5045,-322.9685"/>
<ellipse fill="none" stroke="#000000" cx="391.3063" cy="-323.0759" rx="3.2" ry="3.2"/>
</g>
</g>
</svg>
