<?xml version="1.0" encoding="UTF-8" standalone="no"?>
<!DOCTYPE svg PUBLIC "-//W3C//DTD SVG 1.1//EN"
 "http://www.w3.org/Graphics/SVG/1.1/DTD/svg11.dtd">
<!-- Generated by graphviz version 2.40.1 (20161225.0304)
 -->
<!-- Title: twoDegreesRelationshipsDiagramImplied Pages: 1 -->
<svg width="704pt" height="835pt"
 viewBox="0.00 0.00 704.00 835.20" xmlns="http://www.w3.org/2000/svg" xmlns:xlink="http://www.w3.org/1999/xlink">
<g id="graph0" class="graph" transform="scale(1 1) rotate(0) translate(4 831.2)">
<title>twoDegreesRelationshipsDiagramImplied</title>
<polygon fill="#ffffff" stroke="transparent" points="-4,4 -4,-831.2 700,-831.2 700,4 -4,4"/>
<text text-anchor="middle" x="72.4936" y="-7.3" font-family="Helvetica,sans-Serif" font-size="11.00" fill="#000000">Generated by SchemaSpy</text>
<!-- allocation_audit -->
<g id="node1" class="node">
<title>allocation_audit</title>
<g id="a_node1"><a xlink:href="../../tables/allocation_audit.html" xlink:title="allocation_audit" target="_top">
<polygon fill="#ffffff" stroke="transparent" points="389,-356.2 389,-505.2 610,-505.2 610,-356.2 389,-356.2"/>
<polygon fill="#f5f5f5" stroke="transparent" points="389.5,-481.7 389.5,-504.7 610.5,-504.7 610.5,-481.7 389.5,-481.7"/>
<polygon fill="none" stroke="#000000" points="389.5,-481.7 389.5,-504.7 610.5,-504.7 610.5,-481.7 389.5,-481.7"/>
<text text-anchor="start" x="394.5" y="-490.3" font-family="Helvetica,sans-Serif" font-weight="bold" font-size="11.00" fill="#000000">allocation_audit</text>
<text text-anchor="start" x="575.5437" y="-489.8" font-family="Helvetica,sans-Serif" font-size="11.00" fill="#000000">[table]</text>
<polygon fill="none" stroke="#000000" points="389.5,-459.7 389.5,-481.7 610.5,-481.7 610.5,-459.7 389.5,-459.7"/>
<image xlink:href="../../images/primaryKeys.png" width="11px" height="12px" preserveAspectRatio="xMinYMin meet" x="394.5" y="-476.7"/>
<text text-anchor="start" x="409.5" y="-466.8" font-family="Helvetica,sans-Serif" font-size="11.00" fill="#000000">rev_id</text>
<polygon fill="none" stroke="#000000" points="389.5,-437.7 389.5,-459.7 610.5,-459.7 610.5,-437.7 389.5,-437.7"/>
<image xlink:href="../../images/primaryKeys.png" width="11px" height="12px" preserveAspectRatio="xMinYMin meet" x="394.5" y="-454.7"/>
<text text-anchor="start" x="409.5" y="-444.8" font-family="Helvetica,sans-Serif" font-size="11.00" fill="#000000">id</text>
<polygon fill="none" stroke="#000000" points="389.5,-415.7 389.5,-437.7 610.5,-437.7 610.5,-415.7 389.5,-415.7"/>
<image xlink:href="../../images/foreignKeys.png" width="11px" height="12px" preserveAspectRatio="xMinYMin meet" x="394.5" y="-432.7"/>
<text text-anchor="start" x="409.5" y="-422.8" font-family="Helvetica,sans-Serif" font-size="11.00" fill="#000000">prison_code</text>
<polygon fill="none" stroke="#000000" points="389.5,-393.7 389.5,-415.7 610.5,-415.7 610.5,-393.7 389.5,-393.7"/>
<image xlink:href="../../images/foreignKeys.png" width="11px" height="12px" preserveAspectRatio="xMinYMin meet" x="394.5" y="-410.7"/>
<text text-anchor="start" x="409.5" y="-400.8" font-family="Helvetica,sans-Serif" font-size="11.00" fill="#000000">policy_code</text>
<polygon fill="none" stroke="#000000" points="389.5,-374.7 389.5,-393.7 610.5,-393.7 610.5,-374.7 389.5,-374.7"/>
<text text-anchor="start" x="392.5" y="-380.8" font-family="Helvetica,sans-Serif" font-size="11.00" fill="#000000">...</text>
<polygon fill="#ffffff" stroke="transparent" points="389.5,-355.7 389.5,-374.7 498.5,-374.7 498.5,-355.7 389.5,-355.7"/>
<polygon fill="none" stroke="#000000" points="389.5,-355.7 389.5,-374.7 498.5,-374.7 498.5,-355.7 389.5,-355.7"/>
<text text-anchor="start" x="392.5" y="-361.8" font-family="Helvetica,sans-Serif" font-size="11.00" fill="#000000">&lt; 3</text>
<polygon fill="#ffffff" stroke="transparent" points="498.5,-355.7 498.5,-374.7 554.5,-374.7 554.5,-355.7 498.5,-355.7"/>
<polygon fill="none" stroke="#000000" points="498.5,-355.7 498.5,-374.7 554.5,-374.7 554.5,-355.7 498.5,-355.7"/>
<text text-anchor="start" x="545.3862" y="-361.8" font-family="Helvetica,sans-Serif" font-size="11.00" fill="#000000"> &#160;</text>
<polygon fill="#ffffff" stroke="transparent" points="554.5,-355.7 554.5,-374.7 610.5,-374.7 610.5,-355.7 554.5,-355.7"/>
<polygon fill="none" stroke="#000000" points="554.5,-355.7 554.5,-374.7 610.5,-374.7 610.5,-355.7 554.5,-355.7"/>
<text text-anchor="start" x="601.3862" y="-361.8" font-family="Helvetica,sans-Serif" font-size="11.00" fill="#000000"> &#160;</text>
</a>
</g>
</g>
<!-- policy -->
<g id="node2" class="node">
<title>policy</title>
<g id="a_node2"><a xlink:href="../../tables/policy.html" xlink:title="policy" target="_top">
<polygon fill="#ffffff" stroke="transparent" points="96,-360.2 96,-421.2 174,-421.2 174,-360.2 96,-360.2"/>
<polygon fill="#f5f5f5" stroke="transparent" points="96,-397.7 96,-420.7 174,-420.7 174,-397.7 96,-397.7"/>
<polygon fill="none" stroke="#000000" points="96,-397.7 96,-420.7 174,-420.7 174,-397.7 96,-397.7"/>
<text text-anchor="start" x="101" y="-406.3" font-family="Helvetica,sans-Serif" font-weight="bold" font-size="11.00" fill="#000000">policy</text>
<text text-anchor="start" x="139.5219" y="-405.8" font-family="Helvetica,sans-Serif" font-size="11.00" fill="#000000">[table]</text>
<polygon fill="none" stroke="#000000" points="96,-378.7 96,-397.7 174,-397.7 174,-378.7 96,-378.7"/>
<text text-anchor="start" x="99" y="-384.8" font-family="Helvetica,sans-Serif" font-size="11.00" fill="#000000">...</text>
<polygon fill="#ffffff" stroke="transparent" points="96,-359.7 96,-378.7 121,-378.7 121,-359.7 96,-359.7"/>
<polygon fill="none" stroke="#000000" points="96,-359.7 96,-378.7 121,-378.7 121,-359.7 96,-359.7"/>
<text text-anchor="start" x="99" y="-365.8" font-family="Helvetica,sans-Serif" font-size="11.00" fill="#000000"> &#160;</text>
<polygon fill="#ffffff" stroke="transparent" points="121,-359.7 121,-378.7 140,-378.7 140,-359.7 121,-359.7"/>
<polygon fill="none" stroke="#000000" points="121,-359.7 121,-378.7 140,-378.7 140,-359.7 121,-359.7"/>
<text text-anchor="start" x="130.8862" y="-365.8" font-family="Helvetica,sans-Serif" font-size="11.00" fill="#000000"> &#160;</text>
<polygon fill="#ffffff" stroke="transparent" points="140,-359.7 140,-378.7 174,-378.7 174,-359.7 140,-359.7"/>
<polygon fill="none" stroke="#000000" points="140,-359.7 140,-378.7 174,-378.7 174,-359.7 140,-359.7"/>
<text text-anchor="start" x="149.2904" y="-365.8" font-family="Helvetica,sans-Serif" font-size="11.00" fill="#000000">13 &gt;</text>
</a>
</g>
</g>
<!-- allocation_audit&#45;&gt;policy -->
<g id="edge1" class="edge">
<title>allocation_audit:w&#45;&gt;policy:e</title>
<path fill="none" stroke="#000000" stroke-dasharray="5,2" d="M374.886,-404.5632C290.7598,-402.9543 265.0089,-387.7 174,-387.7"/>
<polygon fill="#000000" stroke="#000000" points="381.5004,-404.625 389.4663,-408.2998 385.5002,-404.6625 389.5,-404.7 389.5,-404.7 389.5,-404.7 385.5002,-404.6625 389.5337,-401.1002 381.5004,-404.625 381.5004,-404.625"/>
<ellipse fill="none" stroke="#000000" cx="378.3005" cy="-404.5951" rx="3.2" ry="3.2"/>
</g>
<!-- prison_migration_date_history -->
<g id="node3" class="node">
<title>prison_migration_date_history</title>
<g id="a_node3"><a xlink:href="../../tables/prison_migration_date_history.html" xlink:title="prison_migration_date_history" target="_top">
<polygon fill="#ffffff" stroke="transparent" points="13.5,-245.2 13.5,-306.2 256.5,-306.2 256.5,-245.2 13.5,-245.2"/>
<polygon fill="#f5f5f5" stroke="transparent" points="14,-282.7 14,-305.7 257,-305.7 257,-282.7 14,-282.7"/>
<polygon fill="none" stroke="#000000" points="14,-282.7 14,-305.7 257,-305.7 257,-282.7 14,-282.7"/>
<text text-anchor="start" x="19" y="-291.3" font-family="Helvetica,sans-Serif" font-weight="bold" font-size="11.00" fill="#000000">prison_migration_date_history</text>
<text text-anchor="start" x="222.5219" y="-290.8" font-family="Helvetica,sans-Serif" font-size="11.00" fill="#000000">[table]</text>
<polygon fill="none" stroke="#000000" points="14,-263.7 14,-282.7 257,-282.7 257,-263.7 14,-263.7"/>
<text text-anchor="start" x="17" y="-269.8" font-family="Helvetica,sans-Serif" font-size="11.00" fill="#000000">...</text>
<polygon fill="#ffffff" stroke="transparent" points="14,-244.7 14,-263.7 125,-263.7 125,-244.7 14,-244.7"/>
<polygon fill="none" stroke="#000000" points="14,-244.7 14,-263.7 125,-263.7 125,-244.7 14,-244.7"/>
<text text-anchor="start" x="17" y="-250.8" font-family="Helvetica,sans-Serif" font-size="11.00" fill="#000000"> &#160;</text>
<polygon fill="#ffffff" stroke="transparent" points="125,-244.7 125,-263.7 186,-263.7 186,-244.7 125,-244.7"/>
<polygon fill="none" stroke="#000000" points="125,-244.7 125,-263.7 186,-263.7 186,-244.7 125,-244.7"/>
<text text-anchor="start" x="176.8862" y="-250.8" font-family="Helvetica,sans-Serif" font-size="11.00" fill="#000000"> &#160;</text>
<polygon fill="#ffffff" stroke="transparent" points="186,-244.7 186,-263.7 257,-263.7 257,-244.7 186,-244.7"/>
<polygon fill="none" stroke="#000000" points="186,-244.7 186,-263.7 257,-263.7 257,-244.7 186,-244.7"/>
<text text-anchor="start" x="238.4053" y="-250.8" font-family="Helvetica,sans-Serif" font-size="11.00" fill="#000000">9 &gt;</text>
</a>
</g>
</g>
<!-- allocation_audit&#45;&gt;prison_migration_date_history -->
<g id="edge2" class="edge">
<title>allocation_audit:w&#45;&gt;prison_migration_date_history:e</title>
<path fill="none" stroke="#000000" stroke-dasharray="5,2" d="M374.9835,-425.4923C336.4285,-418.4939 333.1298,-382.1873 303,-345.7 278.5822,-316.13 295.3486,-272.7 257,-272.7"/>
<polygon fill="#000000" stroke="#000000" points="381.5275,-426.0367 389.2015,-430.2876 385.5138,-426.3683 389.5,-426.7 389.5,-426.7 389.5,-426.7 385.5138,-426.3683 389.7985,-423.1124 381.5275,-426.0367 381.5275,-426.0367"/>
<ellipse fill="none" stroke="#000000" cx="378.3386" cy="-425.7713" rx="3.2" ry="3.2"/>
</g>
<!-- audit_revision -->
<g id="node4" class="node">
<title>audit_revision</title>
<g id="a_node4"><a xlink:href="../../tables/audit_revision.html" xlink:title="audit_revision" target="_top">
<polygon fill="#ffffff" stroke="transparent" points="8,-442.7 8,-598.7 262,-598.7 262,-442.7 8,-442.7"/>
<polygon fill="#f5f5f5" stroke="transparent" points="10,-573.7 10,-596.7 260,-596.7 260,-573.7 10,-573.7"/>
<polygon fill="none" stroke="#000000" points="10,-573.7 10,-596.7 260,-596.7 260,-573.7 10,-573.7"/>
<text text-anchor="start" x="15" y="-582.3" font-family="Helvetica,sans-Serif" font-weight="bold" font-size="11.00" fill="#000000">audit_revision</text>
<text text-anchor="start" x="225.0437" y="-581.8" font-family="Helvetica,sans-Serif" font-size="11.00" fill="#000000">[table]</text>
<polygon fill="none" stroke="#000000" points="10,-551.7 10,-573.7 144,-573.7 144,-551.7 10,-551.7"/>
<image xlink:href="../../images/primaryKeys.png" width="11px" height="12px" preserveAspectRatio="xMinYMin meet" x="15" y="-568.7"/>
<text text-anchor="start" x="30" y="-558.8" font-family="Helvetica,sans-Serif" font-size="11.00" fill="#000000">id</text>
<polygon fill="none" stroke="#000000" points="144,-551.7 144,-573.7 260,-573.7 260,-551.7 144,-551.7"/>
<text text-anchor="start" x="147" y="-559.4" font-family="Helvetica,sans-Serif" font-size="11.00" fill="#000000">bigserial[19]</text>
<polygon fill="none" stroke="#000000" points="10,-529.7 10,-551.7 144,-551.7 144,-529.7 10,-529.7"/>
<text text-anchor="start" x="30" y="-536.8" font-family="Helvetica,sans-Serif" font-size="11.00" fill="#000000">timestamp</text>
<polygon fill="none" stroke="#000000" points="144,-529.7 144,-551.7 260,-551.7 260,-529.7 144,-529.7"/>
<text text-anchor="start" x="147" y="-537.4" font-family="Helvetica,sans-Serif" font-size="11.00" fill="#000000">timestamp[29,6]</text>
<polygon fill="none" stroke="#000000" points="10,-507.7 10,-529.7 144,-529.7 144,-507.7 10,-507.7"/>
<text text-anchor="start" x="30" y="-514.8" font-family="Helvetica,sans-Serif" font-size="11.00" fill="#000000">username</text>
<polygon fill="none" stroke="#000000" points="144,-507.7 144,-529.7 260,-529.7 260,-507.7 144,-507.7"/>
<text text-anchor="start" x="147" y="-515.4" font-family="Helvetica,sans-Serif" font-size="11.00" fill="#000000">varchar[32]</text>
<polygon fill="none" stroke="#000000" points="10,-485.7 10,-507.7 144,-507.7 144,-485.7 10,-485.7"/>
<text text-anchor="start" x="30" y="-492.8" font-family="Helvetica,sans-Serif" font-size="11.00" fill="#000000">caseload_id</text>
<polygon fill="none" stroke="#000000" points="144,-485.7 144,-507.7 260,-507.7 260,-485.7 144,-485.7"/>
<text text-anchor="start" x="147" y="-493.4" font-family="Helvetica,sans-Serif" font-size="11.00" fill="#000000">varchar[10]</text>
<polygon fill="none" stroke="#000000" points="10,-463.7 10,-485.7 144,-485.7 144,-463.7 10,-463.7"/>
<text text-anchor="start" x="30" y="-470.8" font-family="Helvetica,sans-Serif" font-size="11.00" fill="#000000">affected_entities</text>
<polygon fill="none" stroke="#000000" points="144,-463.7 144,-485.7 260,-485.7 260,-463.7 144,-463.7"/>
<text text-anchor="start" x="146.9769" y="-471.4" font-family="Helvetica,sans-Serif" font-size="11.00" fill="#000000">_varchar[2147483647]</text>
<polygon fill="#ffffff" stroke="transparent" points="10,-444.7 10,-463.7 81,-463.7 81,-444.7 10,-444.7"/>
<polygon fill="none" stroke="#000000" points="10,-444.7 10,-463.7 81,-463.7 81,-444.7 10,-444.7"/>
<text text-anchor="start" x="13" y="-450.8" font-family="Helvetica,sans-Serif" font-size="11.00" fill="#000000">&lt; 0</text>
<polygon fill="#ffffff" stroke="transparent" points="81,-444.7 81,-463.7 144,-463.7 144,-444.7 81,-444.7"/>
<polygon fill="none" stroke="#000000" points="81,-444.7 81,-463.7 144,-463.7 144,-444.7 81,-444.7"/>
<text text-anchor="start" x="134.8862" y="-450.8" font-family="Helvetica,sans-Serif" font-size="11.00" fill="#000000"> &#160;</text>
<polygon fill="#ffffff" stroke="transparent" points="144,-444.7 144,-463.7 260,-463.7 260,-444.7 144,-444.7"/>
<polygon fill="none" stroke="#000000" points="144,-444.7 144,-463.7 260,-463.7 260,-444.7 144,-444.7"/>
<text text-anchor="start" x="241.4053" y="-450.8" font-family="Helvetica,sans-Serif" font-size="11.00" fill="#000000">5 &gt;</text>
<polygon fill="none" stroke="#000000" stroke-width="2" points="9,-443.7 9,-597.7 261,-597.7 261,-443.7 9,-443.7"/>
</a>
</g>
</g>
<!-- allocation_audit&#45;&gt;audit_revision -->
<g id="edge3" class="edge">
<title>allocation_audit:w&#45;&gt;audit_revision:e</title>
<path fill="none" stroke="#000000" d="M374.751,-471.5512C343.567,-475.4741 333.0769,-492.6088 303,-515.7 280.5429,-532.9412 288.3122,-562.7 260,-562.7"/>
<polygon fill="#000000" stroke="#000000" points="381.5133,-471.161 389.7074,-474.294 385.5066,-470.9305 389.5,-470.7 389.5,-470.7 389.5,-470.7 385.5066,-470.9305 389.2926,-467.106 381.5133,-471.161 381.5133,-471.161"/>
<ellipse fill="none" stroke="#000000" cx="378.3186" cy="-471.3454" rx="3.2" ry="3.2"/>
</g>
<!-- prison_configuration_audit -->
<g id="node5" class="node">
<title>prison_configuration_audit</title>
<g id="a_node5"><a xlink:href="../../tables/prison_configuration_audit.html" xlink:title="prison_configuration_audit" target="_top">
<polygon fill="#ffffff" stroke="transparent" points="311,-186.2 311,-335.2 688,-335.2 688,-186.2 311,-186.2"/>
<polygon fill="#f5f5f5" stroke="transparent" points="311.5,-311.7 311.5,-334.7 688.5,-334.7 688.5,-311.7 311.5,-311.7"/>
<polygon fill="none" stroke="#000000" points="311.5,-311.7 311.5,-334.7 688.5,-334.7 688.5,-311.7 311.5,-311.7"/>
<text text-anchor="start" x="316.5" y="-320.3" font-family="Helvetica,sans-Serif" font-weight="bold" font-size="11.00" fill="#000000">prison_configuration_audit</text>
<text text-anchor="start" x="653.5437" y="-319.8" font-family="Helvetica,sans-Serif" font-size="11.00" fill="#000000">[table]</text>
<polygon fill="none" stroke="#000000" points="311.5,-289.7 311.5,-311.7 688.5,-311.7 688.5,-289.7 311.5,-289.7"/>
<image xlink:href="../../images/primaryKeys.png" width="11px" height="12px" preserveAspectRatio="xMinYMin meet" x="316.5" y="-306.7"/>
<text text-anchor="start" x="331.5" y="-296.8" font-family="Helvetica,sans-Serif" font-size="11.00" fill="#000000">rev_id</text>
<polygon fill="none" stroke="#000000" points="311.5,-267.7 311.5,-289.7 688.5,-289.7 688.5,-267.7 311.5,-267.7"/>
<image xlink:href="../../images/primaryKeys.png" width="11px" height="12px" preserveAspectRatio="xMinYMin meet" x="316.5" y="-284.7"/>
<text text-anchor="start" x="331.5" y="-274.8" font-family="Helvetica,sans-Serif" font-size="11.00" fill="#000000">id</text>
<polygon fill="none" stroke="#000000" points="311.5,-245.7 311.5,-267.7 688.5,-267.7 688.5,-245.7 311.5,-245.7"/>
<image xlink:href="../../images/foreignKeys.png" width="11px" height="12px" preserveAspectRatio="xMinYMin meet" x="316.5" y="-262.7"/>
<text text-anchor="start" x="331.5" y="-252.8" font-family="Helvetica,sans-Serif" font-size="11.00" fill="#000000">prison_code</text>
<polygon fill="none" stroke="#000000" points="311.5,-223.7 311.5,-245.7 688.5,-245.7 688.5,-223.7 311.5,-223.7"/>
<image xlink:href="../../images/foreignKeys.png" width="11px" height="12px" preserveAspectRatio="xMinYMin meet" x="316.5" y="-240.7"/>
<text text-anchor="start" x="331.5" y="-230.8" font-family="Helvetica,sans-Serif" font-size="11.00" fill="#000000">policy_code</text>
<polygon fill="none" stroke="#000000" points="311.5,-204.7 311.5,-223.7 688.5,-223.7 688.5,-204.7 311.5,-204.7"/>
<text text-anchor="start" x="314.5" y="-210.8" font-family="Helvetica,sans-Serif" font-size="11.00" fill="#000000">...</text>
<polygon fill="#ffffff" stroke="transparent" points="311.5,-185.7 311.5,-204.7 498.5,-204.7 498.5,-185.7 311.5,-185.7"/>
<polygon fill="none" stroke="#000000" points="311.5,-185.7 311.5,-204.7 498.5,-204.7 498.5,-185.7 311.5,-185.7"/>
<text text-anchor="start" x="314.5" y="-191.8" font-family="Helvetica,sans-Serif" font-size="11.00" fill="#000000">&lt; 3</text>
<polygon fill="#ffffff" stroke="transparent" points="498.5,-185.7 498.5,-204.7 593.5,-204.7 593.5,-185.7 498.5,-185.7"/>
<polygon fill="none" stroke="#000000" points="498.5,-185.7 498.5,-204.7 593.5,-204.7 593.5,-185.7 498.5,-185.7"/>
<text text-anchor="start" x="584.3862" y="-191.8" font-family="Helvetica,sans-Serif" font-size="11.00" fill="#000000"> &#160;</text>
<polygon fill="#ffffff" stroke="transparent" points="593.5,-185.7 593.5,-204.7 688.5,-204.7 688.5,-185.7 593.5,-185.7"/>
<polygon fill="none" stroke="#000000" points="593.5,-185.7 593.5,-204.7 688.5,-204.7 688.5,-185.7 593.5,-185.7"/>
<text text-anchor="start" x="679.3862" y="-191.8" font-family="Helvetica,sans-Serif" font-size="11.00" fill="#000000"> &#160;</text>
</a>
</g>
</g>
<!-- prison_configuration_audit&#45;&gt;policy -->
<g id="edge4" class="edge">
<title>prison_configuration_audit:w&#45;&gt;policy:e</title>
<path fill="none" stroke="#000000" stroke-dasharray="5,2" d="M297.3216,-237.8272C277.1365,-249.3474 292.4411,-290.1247 270,-316.7 235.7619,-357.2456 227.0679,-387.7 174,-387.7"/>
<polygon fill="#000000" stroke="#000000" points="303.6878,-236.4231 312.2754,-238.2155 307.5939,-235.5616 311.5,-234.7 311.5,-234.7 311.5,-234.7 307.5939,-235.5616 310.7246,-231.1845 303.6878,-236.4231 303.6878,-236.4231"/>
<ellipse fill="none" stroke="#000000" cx="300.5629" cy="-237.1124" rx="3.2" ry="3.2"/>
</g>
<!-- prison_configuration_audit&#45;&gt;prison_migration_date_history -->
<g id="edge5" class="edge">
<title>prison_configuration_audit:w&#45;&gt;prison_migration_date_history:e</title>
<path fill="none" stroke="#000000" stroke-dasharray="5,2" d="M297.1175,-258.7917C283.3481,-263.1287 276.525,-272.7 257,-272.7"/>
<polygon fill="#000000" stroke="#000000" points="303.5833,-257.8514 312.0181,-260.2625 307.5416,-257.2757 311.5,-256.7 311.5,-256.7 311.5,-256.7 307.5416,-257.2757 310.9819,-253.1375 303.5833,-257.8514 303.5833,-257.8514"/>
<ellipse fill="none" stroke="#000000" cx="300.4166" cy="-258.312" rx="3.2" ry="3.2"/>
</g>
<!-- prison_configuration_audit&#45;&gt;audit_revision -->
<g id="edge6" class="edge">
<title>prison_configuration_audit:w&#45;&gt;audit_revision:e</title>
<path fill="none" stroke="#000000" d="M298.387,-306.6645C263.2126,-345.6633 314.0054,-562.7 260,-562.7"/>
<polygon fill="#000000" stroke="#000000" points="304.2179,-304.0123 312.9905,-303.9769 307.859,-302.3562 311.5,-300.7 311.5,-300.7 311.5,-300.7 307.859,-302.3562 310.0095,-297.4231 304.2179,-304.0123 304.2179,-304.0123"/>
<ellipse fill="none" stroke="#000000" cx="301.3051" cy="-305.3373" rx="3.2" ry="3.2"/>
</g>
<!-- recorded_event_audit -->
<g id="node6" class="node">
<title>recorded_event_audit</title>
<g id="a_node6"><a xlink:href="../../tables/recorded_event_audit.html" xlink:title="recorded_event_audit" target="_top">
<polygon fill="#ffffff" stroke="transparent" points="407,-38.2 407,-165.2 592,-165.2 592,-38.2 407,-38.2"/>
<polygon fill="#f5f5f5" stroke="transparent" points="407.5,-141.7 407.5,-164.7 592.5,-164.7 592.5,-141.7 407.5,-141.7"/>
<polygon fill="none" stroke="#000000" points="407.5,-141.7 407.5,-164.7 592.5,-164.7 592.5,-141.7 407.5,-141.7"/>
<text text-anchor="start" x="412.5" y="-150.3" font-family="Helvetica,sans-Serif" font-weight="bold" font-size="11.00" fill="#000000">recorded_event_audit</text>
<text text-anchor="start" x="558.0219" y="-149.8" font-family="Helvetica,sans-Serif" font-size="11.00" fill="#000000">[table]</text>
<polygon fill="none" stroke="#000000" points="407.5,-119.7 407.5,-141.7 592.5,-141.7 592.5,-119.7 407.5,-119.7"/>
<image xlink:href="../../images/foreignKeys.png" width="11px" height="12px" preserveAspectRatio="xMinYMin meet" x="412.5" y="-136.7"/>
<text text-anchor="start" x="436.5" y="-126.8" font-family="Helvetica,sans-Serif" font-size="11.00" fill="#000000">rev_id</text>
<polygon fill="none" stroke="#000000" points="407.5,-97.7 407.5,-119.7 592.5,-119.7 592.5,-97.7 407.5,-97.7"/>
<image xlink:href="../../images/foreignKeys.png" width="11px" height="12px" preserveAspectRatio="xMinYMin meet" x="412.5" y="-114.7"/>
<text text-anchor="start" x="436.5" y="-104.8" font-family="Helvetica,sans-Serif" font-size="11.00" fill="#000000">prison_code</text>
<polygon fill="none" stroke="#000000" points="407.5,-75.7 407.5,-97.7 592.5,-97.7 592.5,-75.7 407.5,-75.7"/>
<image xlink:href="../../images/foreignKeys.png" width="11px" height="12px" preserveAspectRatio="xMinYMin meet" x="412.5" y="-92.7"/>
<text text-anchor="start" x="436.5" y="-82.8" font-family="Helvetica,sans-Serif" font-size="11.00" fill="#000000">policy_code</text>
<polygon fill="none" stroke="#000000" points="407.5,-56.7 407.5,-75.7 592.5,-75.7 592.5,-56.7 407.5,-56.7"/>
<text text-anchor="start" x="410.5" y="-62.8" font-family="Helvetica,sans-Serif" font-size="11.00" fill="#000000">...</text>
<polygon fill="#ffffff" stroke="transparent" points="407.5,-37.7 407.5,-56.7 498.5,-56.7 498.5,-37.7 407.5,-37.7"/>
<polygon fill="none" stroke="#000000" points="407.5,-37.7 407.5,-56.7 498.5,-56.7 498.5,-37.7 407.5,-37.7"/>
<text text-anchor="start" x="410.5" y="-43.8" font-family="Helvetica,sans-Serif" font-size="11.00" fill="#000000">&lt; 3</text>
<polygon fill="#ffffff" stroke="transparent" points="498.5,-37.7 498.5,-56.7 545.5,-56.7 545.5,-37.7 498.5,-37.7"/>
<polygon fill="none" stroke="#000000" points="498.5,-37.7 498.5,-56.7 545.5,-56.7 545.5,-37.7 498.5,-37.7"/>
<text text-anchor="start" x="536.3862" y="-43.8" font-family="Helvetica,sans-Serif" font-size="11.00" fill="#000000"> &#160;</text>
<polygon fill="#ffffff" stroke="transparent" points="545.5,-37.7 545.5,-56.7 592.5,-56.7 592.5,-37.7 545.5,-37.7"/>
<polygon fill="none" stroke="#000000" points="545.5,-37.7 545.5,-56.7 592.5,-56.7 592.5,-37.7 545.5,-37.7"/>
<text text-anchor="start" x="583.3862" y="-43.8" font-family="Helvetica,sans-Serif" font-size="11.00" fill="#000000"> &#160;</text>
</a>
</g>
</g>
<!-- recorded_event_audit&#45;&gt;policy -->
<g id="edge7" class="edge">
<title>recorded_event_audit:w&#45;&gt;policy:e</title>
<path fill="none" stroke="#000000" d="M392.8196,-87.5041C344.3298,-93.1568 332.0334,-128.0911 303,-175.7 269.4906,-230.6485 305.3758,-262.9341 270,-316.7 240.831,-361.0325 227.0679,-387.7 174,-387.7"/>
<polygon fill="#000000" stroke="#000000" points="399.512,-87.1376 407.6969,-90.2946 403.506,-86.9188 407.5,-86.7 407.5,-86.7 407.5,-86.7 403.506,-86.9188 407.3031,-83.1054 399.512,-87.1376 399.512,-87.1376"/>
<ellipse fill="none" stroke="#000000" cx="396.3168" cy="-87.3126" rx="3.2" ry="3.2"/>
</g>
<!-- recorded_event_audit&#45;&gt;prison_migration_date_history -->
<g id="edge8" class="edge">
<title>recorded_event_audit:w&#45;&gt;prison_migration_date_history:e</title>
<path fill="none" stroke="#000000" stroke-dasharray="5,2" d="M393.0441,-109.3666C349.7075,-113.6365 336.0337,-138.1684 303,-175.7 271.4762,-211.5161 304.7131,-272.7 257,-272.7"/>
<polygon fill="#000000" stroke="#000000" points="399.5085,-109.0686 407.6658,-112.2962 403.5042,-108.8843 407.5,-108.7 407.5,-108.7 407.5,-108.7 403.5042,-108.8843 407.3342,-105.1038 399.5085,-109.0686 399.5085,-109.0686"/>
<ellipse fill="none" stroke="#000000" cx="396.3119" cy="-109.216" rx="3.2" ry="3.2"/>
</g>
<!-- recorded_event_audit&#45;&gt;audit_revision -->
<g id="edge9" class="edge">
<title>recorded_event_audit:w&#45;&gt;audit_revision:e</title>
<path fill="none" stroke="#000000" d="M392.8852,-130.8684C352.0256,-131.9602 330.0374,-139.1893 303,-175.7 251.5047,-245.2381 346.5292,-562.7 260,-562.7"/>
<polygon fill="#000000" stroke="#000000" points="399.5005,-130.7922 407.5415,-134.2998 403.5003,-130.7461 407.5,-130.7 407.5,-130.7 407.5,-130.7 403.5003,-130.7461 407.4585,-127.1002 399.5005,-130.7922 399.5005,-130.7922"/>
<ellipse fill="none" stroke="#000000" cx="396.3007" cy="-130.8291" rx="3.2" ry="3.2"/>
</g>
<!-- staff_configuration_audit -->
<g id="node7" class="node">
<title>staff_configuration_audit</title>
<g id="a_node7"><a xlink:href="../../tables/staff_configuration_audit.html" xlink:title="staff_configuration_audit" target="_top">
<polygon fill="#ffffff" stroke="transparent" points="384,-696.2 384,-823.2 615,-823.2 615,-696.2 384,-696.2"/>
<polygon fill="#f5f5f5" stroke="transparent" points="384.5,-799.7 384.5,-822.7 615.5,-822.7 615.5,-799.7 384.5,-799.7"/>
<polygon fill="none" stroke="#000000" points="384.5,-799.7 384.5,-822.7 615.5,-822.7 615.5,-799.7 384.5,-799.7"/>
<text text-anchor="start" x="389.5" y="-808.3" font-family="Helvetica,sans-Serif" font-weight="bold" font-size="11.00" fill="#000000">staff_configuration_audit</text>
<text text-anchor="start" x="580.5437" y="-807.8" font-family="Helvetica,sans-Serif" font-size="11.00" fill="#000000">[table]</text>
<polygon fill="none" stroke="#000000" points="384.5,-777.7 384.5,-799.7 615.5,-799.7 615.5,-777.7 384.5,-777.7"/>
<image xlink:href="../../images/primaryKeys.png" width="11px" height="12px" preserveAspectRatio="xMinYMin meet" x="389.5" y="-794.7"/>
<text text-anchor="start" x="404.5" y="-784.8" font-family="Helvetica,sans-Serif" font-size="11.00" fill="#000000">rev_id</text>
<polygon fill="none" stroke="#000000" points="384.5,-755.7 384.5,-777.7 615.5,-777.7 615.5,-755.7 384.5,-755.7"/>
<image xlink:href="../../images/primaryKeys.png" width="11px" height="12px" preserveAspectRatio="xMinYMin meet" x="389.5" y="-772.7"/>
<text text-anchor="start" x="404.5" y="-762.8" font-family="Helvetica,sans-Serif" font-size="11.00" fill="#000000">id</text>
<polygon fill="none" stroke="#000000" points="384.5,-733.7 384.5,-755.7 615.5,-755.7 615.5,-733.7 384.5,-733.7"/>
<image xlink:href="../../images/foreignKeys.png" width="11px" height="12px" preserveAspectRatio="xMinYMin meet" x="389.5" y="-750.7"/>
<text text-anchor="start" x="404.5" y="-740.8" font-family="Helvetica,sans-Serif" font-size="11.00" fill="#000000">policy_code</text>
<polygon fill="none" stroke="#000000" points="384.5,-714.7 384.5,-733.7 615.5,-733.7 615.5,-714.7 384.5,-714.7"/>
<text text-anchor="start" x="387.5" y="-720.8" font-family="Helvetica,sans-Serif" font-size="11.00" fill="#000000">...</text>
<polygon fill="#ffffff" stroke="transparent" points="384.5,-695.7 384.5,-714.7 498.5,-714.7 498.5,-695.7 384.5,-695.7"/>
<polygon fill="none" stroke="#000000" points="384.5,-695.7 384.5,-714.7 498.5,-714.7 498.5,-695.7 384.5,-695.7"/>
<text text-anchor="start" x="387.5" y="-701.8" font-family="Helvetica,sans-Serif" font-size="11.00" fill="#000000">&lt; 2</text>
<polygon fill="#ffffff" stroke="transparent" points="498.5,-695.7 498.5,-714.7 556.5,-714.7 556.5,-695.7 498.5,-695.7"/>
<polygon fill="none" stroke="#000000" points="498.5,-695.7 498.5,-714.7 556.5,-714.7 556.5,-695.7 498.5,-695.7"/>
<text text-anchor="start" x="547.3862" y="-701.8" font-family="Helvetica,sans-Serif" font-size="11.00" fill="#000000"> &#160;</text>
<polygon fill="#ffffff" stroke="transparent" points="556.5,-695.7 556.5,-714.7 615.5,-714.7 615.5,-695.7 556.5,-695.7"/>
<polygon fill="none" stroke="#000000" points="556.5,-695.7 556.5,-714.7 615.5,-714.7 615.5,-695.7 556.5,-695.7"/>
<text text-anchor="start" x="606.3862" y="-701.8" font-family="Helvetica,sans-Serif" font-size="11.00" fill="#000000"> &#160;</text>
</a>
</g>
</g>
<!-- staff_configuration_audit&#45;&gt;policy -->
<g id="edge10" class="edge">
<title>staff_configuration_audit:w&#45;&gt;policy:e</title>
<path fill="none" stroke="#000000" stroke-dasharray="5,2" d="M369.9843,-743.8567C336.3995,-739.6325 323.1932,-719.6217 303,-685.7 244.9957,-588.2609 336.9062,-524.2556 270,-432.7 242.1974,-394.6545 221.1216,-387.7 174,-387.7"/>
<polygon fill="#000000" stroke="#000000" points="376.5135,-744.236 384.2912,-748.2939 380.5067,-744.468 384.5,-744.7 384.5,-744.7 384.5,-744.7 380.5067,-744.468 384.7088,-741.1061 376.5135,-744.236 376.5135,-744.236"/>
<ellipse fill="none" stroke="#000000" cx="373.3189" cy="-744.0504" rx="3.2" ry="3.2"/>
</g>
<!-- staff_configuration_audit&#45;&gt;audit_revision -->
<g id="edge11" class="edge">
<title>staff_configuration_audit:w&#45;&gt;audit_revision:e</title>
<path fill="none" stroke="#000000" d="M369.9517,-787.4299C326.765,-779.1864 328.55,-732.1537 303,-685.7 275.0912,-634.9577 317.911,-562.7 260,-562.7"/>
<polygon fill="#000000" stroke="#000000" points="376.5303,-788.0042 384.1869,-792.2864 380.5152,-788.3521 384.5,-788.7 384.5,-788.7 384.5,-788.7 380.5152,-788.3521 384.8131,-785.1136 376.5303,-788.0042 376.5303,-788.0042"/>
<ellipse fill="none" stroke="#000000" cx="373.3424" cy="-787.7258" rx="3.2" ry="3.2"/>
</g>
<!-- staff_role_audit -->
<g id="node8" class="node">
<title>staff_role_audit</title>
<g id="a_node8"><a xlink:href="../../tables/staff_role_audit.html" xlink:title="staff_role_audit" target="_top">
<polygon fill="#ffffff" stroke="transparent" points="402.5,-526.2 402.5,-675.2 596.5,-675.2 596.5,-526.2 402.5,-526.2"/>
<polygon fill="#f5f5f5" stroke="transparent" points="402.5,-651.7 402.5,-674.7 596.5,-674.7 596.5,-651.7 402.5,-651.7"/>
<polygon fill="none" stroke="#000000" points="402.5,-651.7 402.5,-674.7 596.5,-674.7 596.5,-651.7 402.5,-651.7"/>
<text text-anchor="start" x="407.5" y="-660.3" font-family="Helvetica,sans-Serif" font-weight="bold" font-size="11.00" fill="#000000">staff_role_audit</text>
<text text-anchor="start" x="561.5437" y="-659.8" font-family="Helvetica,sans-Serif" font-size="11.00" fill="#000000">[table]</text>
<polygon fill="none" stroke="#000000" points="402.5,-629.7 402.5,-651.7 596.5,-651.7 596.5,-629.7 402.5,-629.7"/>
<image xlink:href="../../images/primaryKeys.png" width="11px" height="12px" preserveAspectRatio="xMinYMin meet" x="407.5" y="-646.7"/>
<text text-anchor="start" x="422.5" y="-636.8" font-family="Helvetica,sans-Serif" font-size="11.00" fill="#000000">rev_id</text>
<polygon fill="none" stroke="#000000" points="402.5,-607.7 402.5,-629.7 596.5,-629.7 596.5,-607.7 402.5,-607.7"/>
<image xlink:href="../../images/primaryKeys.png" width="11px" height="12px" preserveAspectRatio="xMinYMin meet" x="407.5" y="-624.7"/>
<text text-anchor="start" x="422.5" y="-614.8" font-family="Helvetica,sans-Serif" font-size="11.00" fill="#000000">id</text>
<polygon fill="none" stroke="#000000" points="402.5,-585.7 402.5,-607.7 596.5,-607.7 596.5,-585.7 402.5,-585.7"/>
<image xlink:href="../../images/foreignKeys.png" width="11px" height="12px" preserveAspectRatio="xMinYMin meet" x="407.5" y="-602.7"/>
<text text-anchor="start" x="422.5" y="-592.8" font-family="Helvetica,sans-Serif" font-size="11.00" fill="#000000">policy_code</text>
<polygon fill="none" stroke="#000000" points="402.5,-563.7 402.5,-585.7 596.5,-585.7 596.5,-563.7 402.5,-563.7"/>
<image xlink:href="../../images/foreignKeys.png" width="11px" height="12px" preserveAspectRatio="xMinYMin meet" x="407.5" y="-580.7"/>
<text text-anchor="start" x="422.5" y="-570.8" font-family="Helvetica,sans-Serif" font-size="11.00" fill="#000000">prison_code</text>
<polygon fill="none" stroke="#000000" points="402.5,-544.7 402.5,-563.7 596.5,-563.7 596.5,-544.7 402.5,-544.7"/>
<text text-anchor="start" x="405.5" y="-550.8" font-family="Helvetica,sans-Serif" font-size="11.00" fill="#000000">...</text>
<polygon fill="#ffffff" stroke="transparent" points="402.5,-525.7 402.5,-544.7 497.5,-544.7 497.5,-525.7 402.5,-525.7"/>
<polygon fill="none" stroke="#000000" points="402.5,-525.7 402.5,-544.7 497.5,-544.7 497.5,-525.7 402.5,-525.7"/>
<text text-anchor="start" x="405.5" y="-531.8" font-family="Helvetica,sans-Serif" font-size="11.00" fill="#000000">&lt; 3</text>
<polygon fill="#ffffff" stroke="transparent" points="497.5,-525.7 497.5,-544.7 546.5,-544.7 546.5,-525.7 497.5,-525.7"/>
<polygon fill="none" stroke="#000000" points="497.5,-525.7 497.5,-544.7 546.5,-544.7 546.5,-525.7 497.5,-525.7"/>
<text text-anchor="start" x="537.3862" y="-531.8" font-family="Helvetica,sans-Serif" font-size="11.00" fill="#000000"> &#160;</text>
<polygon fill="#ffffff" stroke="transparent" points="546.5,-525.7 546.5,-544.7 596.5,-544.7 596.5,-525.7 546.5,-525.7"/>
<polygon fill="none" stroke="#000000" points="546.5,-525.7 546.5,-544.7 596.5,-544.7 596.5,-525.7 546.5,-525.7"/>
<text text-anchor="start" x="587.3862" y="-531.8" font-family="Helvetica,sans-Serif" font-size="11.00" fill="#000000"> &#160;</text>
</a>
</g>
</g>
<!-- staff_role_audit&#45;&gt;policy -->
<g id="edge12" class="edge">
<title>staff_role_audit:w&#45;&gt;policy:e</title>
<path fill="none" stroke="#000000" stroke-dasharray="5,2" d="M387.9602,-595.8332C343.661,-590.1775 333.6354,-557.4553 303,-515.7 279.5168,-483.6931 297.2172,-461.5986 270,-432.7 237.6929,-398.397 221.1216,-387.7 174,-387.7"/>
<polygon fill="#000000" stroke="#000000" points="394.5142,-596.2239 402.2857,-600.2936 398.5071,-596.4619 402.5,-596.7 402.5,-596.7 402.5,-596.7 398.5071,-596.4619 402.7143,-593.1064 394.5142,-596.2239 394.5142,-596.2239"/>
<ellipse fill="none" stroke="#000000" cx="391.3198" cy="-596.0334" rx="3.2" ry="3.2"/>
</g>
<!-- staff_role_audit&#45;&gt;prison_migration_date_history -->
<g id="edge13" class="edge">
<title>staff_role_audit:w&#45;&gt;prison_migration_date_history:e</title>
<path fill="none" stroke="#000000" stroke-dasharray="5,2" d="M388.0706,-574.1888C347.278,-571.0833 329.5689,-553.6071 303,-515.7 271.4561,-470.6947 311.959,-272.7 257,-272.7"/>
<polygon fill="#000000" stroke="#000000" points="394.505,-574.4167 402.3725,-578.2977 398.5025,-574.5583 402.5,-574.7 402.5,-574.7 402.5,-574.7 398.5025,-574.5583 402.6275,-571.1023 394.505,-574.4167 394.505,-574.4167"/>
<ellipse fill="none" stroke="#000000" cx="391.307" cy="-574.3034" rx="3.2" ry="3.2"/>
</g>
<!-- staff_role_audit&#45;&gt;audit_revision -->
<g id="edge14" class="edge">
<title>staff_role_audit:w&#45;&gt;audit_revision:e</title>
<path fill="none" stroke="#000000" d="M387.9522,-639.5369C330.1874,-629.8339 326.9827,-562.7 260,-562.7"/>
<polygon fill="#000000" stroke="#000000" points="394.5254,-640.0624 402.2131,-644.2885 398.5127,-640.3812 402.5,-640.7 402.5,-640.7 402.5,-640.7 398.5127,-640.3812 402.7869,-637.1115 394.5254,-640.0624 394.5254,-640.0624"/>
<ellipse fill="none" stroke="#000000" cx="391.3356" cy="-639.8073" rx="3.2" ry="3.2"/>
</g>
</g>
</svg>
