<?xml version="1.0" encoding="UTF-8" standalone="no"?>
<!DOCTYPE svg PUBLIC "-//W3C//DTD SVG 1.1//EN"
 "http://www.w3.org/Graphics/SVG/1.1/DTD/svg11.dtd">
<!-- Generated by graphviz version 2.40.1 (20161225.0304)
 -->
<!-- Title: twoDegreesRelationshipsDiagramImplied Pages: 1 -->
<svg width="510pt" height="1191pt"
 viewBox="0.00 0.00 510.00 1191.20" xmlns="http://www.w3.org/2000/svg" xmlns:xlink="http://www.w3.org/1999/xlink">
<g id="graph0" class="graph" transform="scale(1 1) rotate(0) translate(4 1187.2)">
<title>twoDegreesRelationshipsDiagramImplied</title>
<polygon fill="#ffffff" stroke="transparent" points="-4,4 -4,-1187.2 506,-1187.2 506,4 -4,4"/>
<text text-anchor="middle" x="72.4936" y="-7.3" font-family="Helvetica,sans-Serif" font-size="11.00" fill="#000000">Generated by SchemaSpy</text>
<!-- allocation -->
<g id="node1" class="node">
<title>allocation</title>
<g id="a_node1"><a xlink:href="../../tables/allocation.html" xlink:title="allocation" target="_top">
<polygon fill="#ffffff" stroke="transparent" points="271.5,-1118.2 271.5,-1179.2 376.5,-1179.2 376.5,-1118.2 271.5,-1118.2"/>
<polygon fill="#f5f5f5" stroke="transparent" points="272,-1155.7 272,-1178.7 377,-1178.7 377,-1155.7 272,-1155.7"/>
<polygon fill="none" stroke="#000000" points="272,-1155.7 272,-1178.7 377,-1178.7 377,-1155.7 272,-1155.7"/>
<text text-anchor="start" x="277" y="-1164.3" font-family="Helvetica,sans-Serif" font-weight="bold" font-size="11.00" fill="#000000">allocation</text>
<text text-anchor="start" x="342.5219" y="-1163.8" font-family="Helvetica,sans-Serif" font-size="11.00" fill="#000000">[table]</text>
<polygon fill="none" stroke="#000000" points="272,-1136.7 272,-1155.7 377,-1155.7 377,-1136.7 272,-1136.7"/>
<text text-anchor="start" x="275" y="-1142.8" font-family="Helvetica,sans-Serif" font-size="11.00" fill="#000000">...</text>
<polygon fill="#ffffff" stroke="transparent" points="272,-1117.7 272,-1136.7 323,-1136.7 323,-1117.7 272,-1117.7"/>
<polygon fill="none" stroke="#000000" points="272,-1117.7 272,-1136.7 323,-1136.7 323,-1117.7 272,-1117.7"/>
<text text-anchor="start" x="275" y="-1123.8" font-family="Helvetica,sans-Serif" font-size="11.00" fill="#000000">&lt; 3</text>
<polygon fill="#ffffff" stroke="transparent" points="323,-1117.7 323,-1136.7 350,-1136.7 350,-1117.7 323,-1117.7"/>
<polygon fill="none" stroke="#000000" points="323,-1117.7 323,-1136.7 350,-1136.7 350,-1117.7 323,-1117.7"/>
<text text-anchor="start" x="340.8862" y="-1123.8" font-family="Helvetica,sans-Serif" font-size="11.00" fill="#000000"> &#160;</text>
<polygon fill="#ffffff" stroke="transparent" points="350,-1117.7 350,-1136.7 377,-1136.7 377,-1117.7 350,-1117.7"/>
<polygon fill="none" stroke="#000000" points="350,-1117.7 350,-1136.7 377,-1136.7 377,-1117.7 350,-1117.7"/>
<text text-anchor="start" x="367.8862" y="-1123.8" font-family="Helvetica,sans-Serif" font-size="11.00" fill="#000000"> &#160;</text>
</a>
</g>
</g>
<!-- policy -->
<g id="node2" class="node">
<title>policy</title>
<g id="a_node2"><a xlink:href="../../tables/policy.html" xlink:title="policy" target="_top">
<polygon fill="#ffffff" stroke="transparent" points="8,-509.2 8,-592.2 105,-592.2 105,-509.2 8,-509.2"/>
<polygon fill="#f5f5f5" stroke="transparent" points="8.5,-568.7 8.5,-591.7 105.5,-591.7 105.5,-568.7 8.5,-568.7"/>
<polygon fill="none" stroke="#000000" points="8.5,-568.7 8.5,-591.7 105.5,-591.7 105.5,-568.7 8.5,-568.7"/>
<text text-anchor="start" x="13.5" y="-577.3" font-family="Helvetica,sans-Serif" font-weight="bold" font-size="11.00" fill="#000000">policy</text>
<text text-anchor="start" x="70.5437" y="-576.8" font-family="Helvetica,sans-Serif" font-size="11.00" fill="#000000">[table]</text>
<polygon fill="none" stroke="#000000" points="8.5,-546.7 8.5,-568.7 105.5,-568.7 105.5,-546.7 8.5,-546.7"/>
<image xlink:href="../../images/primaryKeys.png" width="11px" height="12px" preserveAspectRatio="xMinYMin meet" x="13.5" y="-563.7"/>
<text text-anchor="start" x="28.5" y="-553.8" font-family="Helvetica,sans-Serif" font-size="11.00" fill="#000000">code</text>
<polygon fill="none" stroke="#000000" points="8.5,-527.7 8.5,-546.7 105.5,-546.7 105.5,-527.7 8.5,-527.7"/>
<text text-anchor="start" x="11.5" y="-533.8" font-family="Helvetica,sans-Serif" font-size="11.00" fill="#000000">...</text>
<polygon fill="#ffffff" stroke="transparent" points="8.5,-508.7 8.5,-527.7 43.5,-527.7 43.5,-508.7 8.5,-508.7"/>
<polygon fill="none" stroke="#000000" points="8.5,-508.7 8.5,-527.7 43.5,-527.7 43.5,-508.7 8.5,-508.7"/>
<text text-anchor="start" x="11.5" y="-514.8" font-family="Helvetica,sans-Serif" font-size="11.00" fill="#000000"> &#160;</text>
<polygon fill="#ffffff" stroke="transparent" points="43.5,-508.7 43.5,-527.7 66.5,-527.7 66.5,-508.7 43.5,-508.7"/>
<polygon fill="none" stroke="#000000" points="43.5,-508.7 43.5,-527.7 66.5,-527.7 66.5,-508.7 43.5,-508.7"/>
<text text-anchor="start" x="57.3862" y="-514.8" font-family="Helvetica,sans-Serif" font-size="11.00" fill="#000000"> &#160;</text>
<polygon fill="#ffffff" stroke="transparent" points="66.5,-508.7 66.5,-527.7 105.5,-527.7 105.5,-508.7 66.5,-508.7"/>
<polygon fill="none" stroke="#000000" points="66.5,-508.7 66.5,-527.7 105.5,-527.7 105.5,-508.7 66.5,-508.7"/>
<text text-anchor="start" x="80.7904" y="-514.8" font-family="Helvetica,sans-Serif" font-size="11.00" fill="#000000">13 &gt;</text>
</a>
</g>
</g>
<!-- allocation&#45;&gt;policy -->
<g id="edge1" class="edge">
<title>allocation:w&#45;&gt;policy:e</title>
<path fill="none" stroke="#000000" d="M257.5099,-1145.8306C208.1515,-1146.6195 179.4389,-1149.4171 146,-1107.7 107.6753,-1059.8875 166.7766,-557.7 105.5,-557.7"/>
<polygon fill="#000000" stroke="#000000" points="264.0003,-1145.7722 272.0325,-1149.2999 268.0002,-1145.7361 272,-1145.7 272,-1145.7 272,-1145.7 268.0002,-1145.7361 271.9675,-1142.1001 264.0003,-1145.7722 264.0003,-1145.7722"/>
<ellipse fill="none" stroke="#000000" cx="260.8005" cy="-1145.801" rx="3.2" ry="3.2"/>
</g>
<!-- allocation_audit -->
<g id="node3" class="node">
<title>allocation_audit</title>
<g id="a_node3"><a xlink:href="../../tables/allocation_audit.html" xlink:title="allocation_audit" target="_top">
<polygon fill="#ffffff" stroke="transparent" points="251,-1036.2 251,-1097.2 397,-1097.2 397,-1036.2 251,-1036.2"/>
<polygon fill="#f5f5f5" stroke="transparent" points="251,-1073.7 251,-1096.7 397,-1096.7 397,-1073.7 251,-1073.7"/>
<polygon fill="none" stroke="#000000" points="251,-1073.7 251,-1096.7 397,-1096.7 397,-1073.7 251,-1073.7"/>
<text text-anchor="start" x="256" y="-1082.3" font-family="Helvetica,sans-Serif" font-weight="bold" font-size="11.00" fill="#000000">allocation_audit</text>
<text text-anchor="start" x="362.5219" y="-1081.8" font-family="Helvetica,sans-Serif" font-size="11.00" fill="#000000">[table]</text>
<polygon fill="none" stroke="#000000" points="251,-1054.7 251,-1073.7 397,-1073.7 397,-1054.7 251,-1054.7"/>
<text text-anchor="start" x="254" y="-1060.8" font-family="Helvetica,sans-Serif" font-size="11.00" fill="#000000">...</text>
<polygon fill="#ffffff" stroke="transparent" points="251,-1035.7 251,-1054.7 322,-1054.7 322,-1035.7 251,-1035.7"/>
<polygon fill="none" stroke="#000000" points="251,-1035.7 251,-1054.7 322,-1054.7 322,-1035.7 251,-1035.7"/>
<text text-anchor="start" x="254" y="-1041.8" font-family="Helvetica,sans-Serif" font-size="11.00" fill="#000000">&lt; 3</text>
<polygon fill="#ffffff" stroke="transparent" points="322,-1035.7 322,-1054.7 359,-1054.7 359,-1035.7 322,-1035.7"/>
<polygon fill="none" stroke="#000000" points="322,-1035.7 322,-1054.7 359,-1054.7 359,-1035.7 322,-1035.7"/>
<text text-anchor="start" x="349.8862" y="-1041.8" font-family="Helvetica,sans-Serif" font-size="11.00" fill="#000000"> &#160;</text>
<polygon fill="#ffffff" stroke="transparent" points="359,-1035.7 359,-1054.7 397,-1054.7 397,-1035.7 359,-1035.7"/>
<polygon fill="none" stroke="#000000" points="359,-1035.7 359,-1054.7 397,-1054.7 397,-1035.7 359,-1035.7"/>
<text text-anchor="start" x="387.8862" y="-1041.8" font-family="Helvetica,sans-Serif" font-size="11.00" fill="#000000"> &#160;</text>
</a>
</g>
</g>
<!-- allocation_audit&#45;&gt;policy -->
<g id="edge2" class="edge">
<title>allocation_audit:w&#45;&gt;policy:e</title>
<path fill="none" stroke="#000000" stroke-dasharray="5,2" d="M236.3423,-1063.697C196.1116,-1063.5452 173.1002,-1060.9854 146,-1025.7 114.2078,-984.3055 157.6943,-557.7 105.5,-557.7"/>
<polygon fill="#000000" stroke="#000000" points="243,-1063.6983 250.9992,-1067.3 247,-1063.6992 251,-1063.7 251,-1063.7 251,-1063.7 247,-1063.6992 251.0008,-1060.1 243,-1063.6983 243,-1063.6983"/>
<ellipse fill="none" stroke="#000000" cx="239.8" cy="-1063.6977" rx="3.2" ry="3.2"/>
</g>
<!-- case_note_type_recorded_event_type -->
<g id="node4" class="node">
<title>case_note_type_recorded_event_type</title>
<g id="a_node4"><a xlink:href="../../tables/case_note_type_recorded_event_type.html" xlink:title="case_note_type_recorded_event_type" target="_top">
<polygon fill="#ffffff" stroke="transparent" points="154,-858.7 154,-1014.7 494,-1014.7 494,-858.7 154,-858.7"/>
<polygon fill="#f5f5f5" stroke="transparent" points="156,-989.7 156,-1012.7 492,-1012.7 492,-989.7 156,-989.7"/>
<polygon fill="none" stroke="#000000" points="156,-989.7 156,-1012.7 492,-1012.7 492,-989.7 156,-989.7"/>
<text text-anchor="start" x="161" y="-998.3" font-family="Helvetica,sans-Serif" font-weight="bold" font-size="11.00" fill="#000000">case_note_type_recorded_event_type</text>
<text text-anchor="start" x="457.0437" y="-997.8" font-family="Helvetica,sans-Serif" font-size="11.00" fill="#000000">[table]</text>
<polygon fill="none" stroke="#000000" points="156,-967.7 156,-989.7 427,-989.7 427,-967.7 156,-967.7"/>
<image xlink:href="../../images/primaryKeys.png" width="11px" height="12px" preserveAspectRatio="xMinYMin meet" x="161" y="-984.7"/>
<text text-anchor="start" x="176" y="-974.8" font-family="Helvetica,sans-Serif" font-size="11.00" fill="#000000">id</text>
<polygon fill="none" stroke="#000000" points="427,-967.7 427,-989.7 492,-989.7 492,-967.7 427,-967.7"/>
<text text-anchor="start" x="429.8561" y="-975.4" font-family="Helvetica,sans-Serif" font-size="11.00" fill="#000000">bigserial[19]</text>
<polygon fill="#ffffff" stroke="transparent" points="156,-945.7 156,-967.7 427,-967.7 427,-945.7 156,-945.7"/>
<polygon fill="none" stroke="#000000" points="156,-945.7 156,-967.7 427,-967.7 427,-945.7 156,-945.7"/>
<text text-anchor="start" x="176" y="-952.8" font-family="Helvetica,sans-Serif" font-size="11.00" fill="#000000">cn_type</text>
<polygon fill="none" stroke="#000000" points="427,-945.7 427,-967.7 492,-967.7 492,-945.7 427,-945.7"/>
<text text-anchor="start" x="430" y="-953.4" font-family="Helvetica,sans-Serif" font-size="11.00" fill="#000000">varchar[32]</text>
<polygon fill="#ffffff" stroke="transparent" points="156,-923.7 156,-945.7 427,-945.7 427,-923.7 156,-923.7"/>
<polygon fill="none" stroke="#000000" points="156,-923.7 156,-945.7 427,-945.7 427,-923.7 156,-923.7"/>
<text text-anchor="start" x="176" y="-930.8" font-family="Helvetica,sans-Serif" font-size="11.00" fill="#000000">cn_sub_type</text>
<polygon fill="none" stroke="#000000" points="427,-923.7 427,-945.7 492,-945.7 492,-923.7 427,-923.7"/>
<text text-anchor="start" x="430" y="-931.4" font-family="Helvetica,sans-Serif" font-size="11.00" fill="#000000">varchar[32]</text>
<polygon fill="none" stroke="#000000" points="156,-901.7 156,-923.7 427,-923.7 427,-901.7 156,-901.7"/>
<image xlink:href="../../images/foreignKeys.png" width="11px" height="12px" preserveAspectRatio="xMinYMin meet" x="161" y="-918.7"/>
<text text-anchor="start" x="176" y="-908.8" font-family="Helvetica,sans-Serif" font-size="11.00" fill="#000000">policy_code</text>
<polygon fill="none" stroke="#000000" points="427,-901.7 427,-923.7 492,-923.7 492,-901.7 427,-901.7"/>
<text text-anchor="start" x="430" y="-909.4" font-family="Helvetica,sans-Serif" font-size="11.00" fill="#000000">varchar[16]</text>
<polygon fill="none" stroke="#000000" points="156,-879.7 156,-901.7 427,-901.7 427,-879.7 156,-879.7"/>
<text text-anchor="start" x="176" y="-886.8" font-family="Helvetica,sans-Serif" font-size="11.00" fill="#000000">recorded_event_type_id</text>
<polygon fill="none" stroke="#000000" points="427,-879.7 427,-901.7 492,-901.7 492,-879.7 427,-879.7"/>
<text text-anchor="start" x="430" y="-887.4" font-family="Helvetica,sans-Serif" font-size="11.00" fill="#000000">int8[19]</text>
<polygon fill="#ffffff" stroke="transparent" points="156,-860.7 156,-879.7 296,-879.7 296,-860.7 156,-860.7"/>
<polygon fill="none" stroke="#000000" points="156,-860.7 156,-879.7 296,-879.7 296,-860.7 156,-860.7"/>
<text text-anchor="start" x="159" y="-866.8" font-family="Helvetica,sans-Serif" font-size="11.00" fill="#000000">&lt; 1</text>
<polygon fill="#ffffff" stroke="transparent" points="296,-860.7 296,-879.7 427,-879.7 427,-860.7 296,-860.7"/>
<polygon fill="none" stroke="#000000" points="296,-860.7 296,-879.7 427,-879.7 427,-860.7 296,-860.7"/>
<text text-anchor="start" x="417.8862" y="-866.8" font-family="Helvetica,sans-Serif" font-size="11.00" fill="#000000"> &#160;</text>
<polygon fill="#ffffff" stroke="transparent" points="427,-860.7 427,-879.7 492,-879.7 492,-860.7 427,-860.7"/>
<polygon fill="none" stroke="#000000" points="427,-860.7 427,-879.7 492,-879.7 492,-860.7 427,-860.7"/>
<text text-anchor="start" x="473.4053" y="-866.8" font-family="Helvetica,sans-Serif" font-size="11.00" fill="#000000">0 &gt;</text>
<polygon fill="none" stroke="#000000" stroke-width="2" points="155,-859.7 155,-1013.7 493,-1013.7 493,-859.7 155,-859.7"/>
</a>
</g>
</g>
<!-- case_note_type_recorded_event_type&#45;&gt;policy -->
<g id="edge3" class="edge">
<title>case_note_type_recorded_event_type:w&#45;&gt;policy:e</title>
<path fill="none" stroke="#000000" stroke-dasharray="5,2" d="M142.1816,-907.9501C90.3199,-865.8238 179.736,-557.7 105.5,-557.7"/>
<polygon fill="#000000" stroke="#000000" points="148.4345,-910.0994 154.8297,-916.1045 152.2172,-911.3997 156,-912.7 156,-912.7 156,-912.7 152.2172,-911.3997 157.1703,-909.2955 148.4345,-910.0994 148.4345,-910.0994"/>
<ellipse fill="none" stroke="#000000" cx="145.4083" cy="-909.0592" rx="3.2" ry="3.2"/>
</g>
<!-- prison_configuration -->
<g id="node5" class="node">
<title>prison_configuration</title>
<g id="a_node5"><a xlink:href="../../tables/prison_configuration.html" xlink:title="prison_configuration" target="_top">
<polygon fill="#ffffff" stroke="transparent" points="235,-776.2 235,-837.2 413,-837.2 413,-776.2 235,-776.2"/>
<polygon fill="#f5f5f5" stroke="transparent" points="235,-813.7 235,-836.7 413,-836.7 413,-813.7 235,-813.7"/>
<polygon fill="none" stroke="#000000" points="235,-813.7 235,-836.7 413,-836.7 413,-813.7 235,-813.7"/>
<text text-anchor="start" x="240" y="-822.3" font-family="Helvetica,sans-Serif" font-weight="bold" font-size="11.00" fill="#000000">prison_configuration</text>
<text text-anchor="start" x="378.5219" y="-821.8" font-family="Helvetica,sans-Serif" font-size="11.00" fill="#000000">[table]</text>
<polygon fill="none" stroke="#000000" points="235,-794.7 235,-813.7 413,-813.7 413,-794.7 235,-794.7"/>
<text text-anchor="start" x="238" y="-800.8" font-family="Helvetica,sans-Serif" font-size="11.00" fill="#000000">...</text>
<polygon fill="#ffffff" stroke="transparent" points="235,-775.7 235,-794.7 306,-794.7 306,-775.7 235,-775.7"/>
<polygon fill="none" stroke="#000000" points="235,-775.7 235,-794.7 306,-794.7 306,-775.7 235,-775.7"/>
<text text-anchor="start" x="238" y="-781.8" font-family="Helvetica,sans-Serif" font-size="11.00" fill="#000000">&lt; 1</text>
<polygon fill="#ffffff" stroke="transparent" points="306,-775.7 306,-794.7 375,-794.7 375,-775.7 306,-775.7"/>
<polygon fill="none" stroke="#000000" points="306,-775.7 306,-794.7 375,-794.7 375,-775.7 306,-775.7"/>
<text text-anchor="start" x="333.4956" y="-781.8" font-family="Helvetica,sans-Serif" font-size="11.00" fill="#000000">12 rows</text>
<polygon fill="#ffffff" stroke="transparent" points="375,-775.7 375,-794.7 413,-794.7 413,-775.7 375,-775.7"/>
<polygon fill="none" stroke="#000000" points="375,-775.7 375,-794.7 413,-794.7 413,-775.7 375,-775.7"/>
<text text-anchor="start" x="403.8862" y="-781.8" font-family="Helvetica,sans-Serif" font-size="11.00" fill="#000000"> &#160;</text>
</a>
</g>
</g>
<!-- prison_configuration&#45;&gt;policy -->
<g id="edge4" class="edge">
<title>prison_configuration:w&#45;&gt;policy:e</title>
<path fill="none" stroke="#000000" d="M220.3765,-803.4566C187.2812,-802.1741 169.7632,-795.0989 146,-765.7 86.7958,-692.4549 199.6805,-557.7 105.5,-557.7"/>
<polygon fill="#000000" stroke="#000000" points="227.0011,-803.5668 234.9401,-807.2995 231.0006,-803.6334 235,-803.7 235,-803.7 235,-803.7 231.0006,-803.6334 235.0599,-800.1005 227.0011,-803.5668 227.0011,-803.5668"/>
<ellipse fill="none" stroke="#000000" cx="223.8016" cy="-803.5135" rx="3.2" ry="3.2"/>
</g>
<!-- prison_configuration_audit -->
<g id="node6" class="node">
<title>prison_configuration_audit</title>
<g id="a_node6"><a xlink:href="../../tables/prison_configuration_audit.html" xlink:title="prison_configuration_audit" target="_top">
<polygon fill="#ffffff" stroke="transparent" points="214.5,-694.2 214.5,-755.2 433.5,-755.2 433.5,-694.2 214.5,-694.2"/>
<polygon fill="#f5f5f5" stroke="transparent" points="215,-731.7 215,-754.7 434,-754.7 434,-731.7 215,-731.7"/>
<polygon fill="none" stroke="#000000" points="215,-731.7 215,-754.7 434,-754.7 434,-731.7 215,-731.7"/>
<text text-anchor="start" x="220" y="-740.3" font-family="Helvetica,sans-Serif" font-weight="bold" font-size="11.00" fill="#000000">prison_configuration_audit</text>
<text text-anchor="start" x="399.5219" y="-739.8" font-family="Helvetica,sans-Serif" font-size="11.00" fill="#000000">[table]</text>
<polygon fill="none" stroke="#000000" points="215,-712.7 215,-731.7 434,-731.7 434,-712.7 215,-712.7"/>
<text text-anchor="start" x="218" y="-718.8" font-family="Helvetica,sans-Serif" font-size="11.00" fill="#000000">...</text>
<polygon fill="#ffffff" stroke="transparent" points="215,-693.7 215,-712.7 323,-712.7 323,-693.7 215,-693.7"/>
<polygon fill="none" stroke="#000000" points="215,-693.7 215,-712.7 323,-712.7 323,-693.7 215,-693.7"/>
<text text-anchor="start" x="218" y="-699.8" font-family="Helvetica,sans-Serif" font-size="11.00" fill="#000000">&lt; 3</text>
<polygon fill="#ffffff" stroke="transparent" points="323,-693.7 323,-712.7 378,-712.7 378,-693.7 323,-693.7"/>
<polygon fill="none" stroke="#000000" points="323,-693.7 323,-712.7 378,-712.7 378,-693.7 323,-693.7"/>
<text text-anchor="start" x="368.8862" y="-699.8" font-family="Helvetica,sans-Serif" font-size="11.00" fill="#000000"> &#160;</text>
<polygon fill="#ffffff" stroke="transparent" points="378,-693.7 378,-712.7 434,-712.7 434,-693.7 378,-693.7"/>
<polygon fill="none" stroke="#000000" points="378,-693.7 378,-712.7 434,-712.7 434,-693.7 378,-693.7"/>
<text text-anchor="start" x="424.8862" y="-699.8" font-family="Helvetica,sans-Serif" font-size="11.00" fill="#000000"> &#160;</text>
</a>
</g>
</g>
<!-- prison_configuration_audit&#45;&gt;policy -->
<g id="edge5" class="edge">
<title>prison_configuration_audit:w&#45;&gt;policy:e</title>
<path fill="none" stroke="#000000" stroke-dasharray="5,2" d="M200.501,-720.9176C176.1727,-717.982 164.8716,-706.6028 146,-683.7 108.5942,-638.3039 164.3218,-557.7 105.5,-557.7"/>
<polygon fill="#000000" stroke="#000000" points="207.0116,-721.2689 214.806,-725.2948 211.0058,-721.4844 215,-721.7 215,-721.7 215,-721.7 211.0058,-721.4844 215.194,-718.1052 207.0116,-721.2689 207.0116,-721.2689"/>
<ellipse fill="none" stroke="#000000" cx="203.8163" cy="-721.0964" rx="3.2" ry="3.2"/>
</g>
<!-- prison_statistic -->
<g id="node7" class="node">
<title>prison_statistic</title>
<g id="a_node7"><a xlink:href="../../tables/prison_statistic.html" xlink:title="prison_statistic" target="_top">
<polygon fill="#ffffff" stroke="transparent" points="253,-612.2 253,-673.2 395,-673.2 395,-612.2 253,-612.2"/>
<polygon fill="#f5f5f5" stroke="transparent" points="253,-649.7 253,-672.7 395,-672.7 395,-649.7 253,-649.7"/>
<polygon fill="none" stroke="#000000" points="253,-649.7 253,-672.7 395,-672.7 395,-649.7 253,-649.7"/>
<text text-anchor="start" x="258" y="-658.3" font-family="Helvetica,sans-Serif" font-weight="bold" font-size="11.00" fill="#000000">prison_statistic</text>
<text text-anchor="start" x="360.5219" y="-657.8" font-family="Helvetica,sans-Serif" font-size="11.00" fill="#000000">[table]</text>
<polygon fill="none" stroke="#000000" points="253,-630.7 253,-649.7 395,-649.7 395,-630.7 253,-630.7"/>
<text text-anchor="start" x="256" y="-636.8" font-family="Helvetica,sans-Serif" font-size="11.00" fill="#000000">...</text>
<polygon fill="#ffffff" stroke="transparent" points="253,-611.7 253,-630.7 322,-630.7 322,-611.7 253,-611.7"/>
<polygon fill="none" stroke="#000000" points="253,-611.7 253,-630.7 322,-630.7 322,-611.7 253,-611.7"/>
<text text-anchor="start" x="256" y="-617.8" font-family="Helvetica,sans-Serif" font-size="11.00" fill="#000000">&lt; 1</text>
<polygon fill="#ffffff" stroke="transparent" points="322,-611.7 322,-630.7 358,-630.7 358,-611.7 322,-611.7"/>
<polygon fill="none" stroke="#000000" points="322,-611.7 322,-630.7 358,-630.7 358,-611.7 322,-611.7"/>
<text text-anchor="start" x="348.8862" y="-617.8" font-family="Helvetica,sans-Serif" font-size="11.00" fill="#000000"> &#160;</text>
<polygon fill="#ffffff" stroke="transparent" points="358,-611.7 358,-630.7 395,-630.7 395,-611.7 358,-611.7"/>
<polygon fill="none" stroke="#000000" points="358,-611.7 358,-630.7 395,-630.7 395,-611.7 358,-611.7"/>
<text text-anchor="start" x="385.8862" y="-617.8" font-family="Helvetica,sans-Serif" font-size="11.00" fill="#000000"> &#160;</text>
</a>
</g>
</g>
<!-- prison_statistic&#45;&gt;policy -->
<g id="edge6" class="edge">
<title>prison_statistic:w&#45;&gt;policy:e</title>
<path fill="none" stroke="#000000" d="M238.4157,-639.3646C199.2498,-637.4045 183.7429,-626.6454 146,-601.7 123.8268,-587.045 132.0786,-557.7 105.5,-557.7"/>
<polygon fill="#000000" stroke="#000000" points="245.0021,-639.516 252.9172,-643.299 249.0011,-639.608 253,-639.7 253,-639.7 253,-639.7 249.0011,-639.608 253.0828,-636.101 245.0021,-639.516 245.0021,-639.516"/>
<ellipse fill="none" stroke="#000000" cx="241.803" cy="-639.4425" rx="3.2" ry="3.2"/>
</g>
<!-- recorded_event -->
<g id="node8" class="node">
<title>recorded_event</title>
<g id="a_node8"><a xlink:href="../../tables/recorded_event.html" xlink:title="recorded_event" target="_top">
<polygon fill="#ffffff" stroke="transparent" points="252,-530.2 252,-591.2 396,-591.2 396,-530.2 252,-530.2"/>
<polygon fill="#f5f5f5" stroke="transparent" points="252,-567.7 252,-590.7 396,-590.7 396,-567.7 252,-567.7"/>
<polygon fill="none" stroke="#000000" points="252,-567.7 252,-590.7 396,-590.7 396,-567.7 252,-567.7"/>
<text text-anchor="start" x="257" y="-576.3" font-family="Helvetica,sans-Serif" font-weight="bold" font-size="11.00" fill="#000000">recorded_event</text>
<text text-anchor="start" x="361.5219" y="-575.8" font-family="Helvetica,sans-Serif" font-size="11.00" fill="#000000">[table]</text>
<polygon fill="none" stroke="#000000" points="252,-548.7 252,-567.7 396,-567.7 396,-548.7 252,-548.7"/>
<text text-anchor="start" x="255" y="-554.8" font-family="Helvetica,sans-Serif" font-size="11.00" fill="#000000">...</text>
<polygon fill="#ffffff" stroke="transparent" points="252,-529.7 252,-548.7 322,-548.7 322,-529.7 252,-529.7"/>
<polygon fill="none" stroke="#000000" points="252,-529.7 252,-548.7 322,-548.7 322,-529.7 252,-529.7"/>
<text text-anchor="start" x="255" y="-535.8" font-family="Helvetica,sans-Serif" font-size="11.00" fill="#000000">&lt; 2</text>
<polygon fill="#ffffff" stroke="transparent" points="322,-529.7 322,-548.7 359,-548.7 359,-529.7 322,-529.7"/>
<polygon fill="none" stroke="#000000" points="322,-529.7 322,-548.7 359,-548.7 359,-529.7 322,-529.7"/>
<text text-anchor="start" x="349.8862" y="-535.8" font-family="Helvetica,sans-Serif" font-size="11.00" fill="#000000"> &#160;</text>
<polygon fill="#ffffff" stroke="transparent" points="359,-529.7 359,-548.7 396,-548.7 396,-529.7 359,-529.7"/>
<polygon fill="none" stroke="#000000" points="359,-529.7 359,-548.7 396,-548.7 396,-529.7 359,-529.7"/>
<text text-anchor="start" x="386.8862" y="-535.8" font-family="Helvetica,sans-Serif" font-size="11.00" fill="#000000"> &#160;</text>
</a>
</g>
</g>
<!-- recorded_event&#45;&gt;policy -->
<g id="edge7" class="edge">
<title>recorded_event:w&#45;&gt;policy:e</title>
<path fill="none" stroke="#000000" d="M237.5872,-557.7C184.0474,-557.7 165.5243,-557.7 105.5,-557.7"/>
<polygon fill="#000000" stroke="#000000" points="244,-557.7001 252,-561.3 248,-557.7 252,-557.7 252,-557.7 252,-557.7 248,-557.7 252,-554.1 244,-557.7001 244,-557.7001"/>
<ellipse fill="none" stroke="#000000" cx="240.8" cy="-557.7001" rx="3.2" ry="3.2"/>
</g>
<!-- recorded_event_audit -->
<g id="node9" class="node">
<title>recorded_event_audit</title>
<g id="a_node9"><a xlink:href="../../tables/recorded_event_audit.html" xlink:title="recorded_event_audit" target="_top">
<polygon fill="#ffffff" stroke="transparent" points="231.5,-448.2 231.5,-509.2 416.5,-509.2 416.5,-448.2 231.5,-448.2"/>
<polygon fill="#f5f5f5" stroke="transparent" points="232,-485.7 232,-508.7 417,-508.7 417,-485.7 232,-485.7"/>
<polygon fill="none" stroke="#000000" points="232,-485.7 232,-508.7 417,-508.7 417,-485.7 232,-485.7"/>
<text text-anchor="start" x="237" y="-494.3" font-family="Helvetica,sans-Serif" font-weight="bold" font-size="11.00" fill="#000000">recorded_event_audit</text>
<text text-anchor="start" x="382.5219" y="-493.8" font-family="Helvetica,sans-Serif" font-size="11.00" fill="#000000">[table]</text>
<polygon fill="none" stroke="#000000" points="232,-466.7 232,-485.7 417,-485.7 417,-466.7 232,-466.7"/>
<text text-anchor="start" x="235" y="-472.8" font-family="Helvetica,sans-Serif" font-size="11.00" fill="#000000">...</text>
<polygon fill="#ffffff" stroke="transparent" points="232,-447.7 232,-466.7 323,-466.7 323,-447.7 232,-447.7"/>
<polygon fill="none" stroke="#000000" points="232,-447.7 232,-466.7 323,-466.7 323,-447.7 232,-447.7"/>
<text text-anchor="start" x="235" y="-453.8" font-family="Helvetica,sans-Serif" font-size="11.00" fill="#000000">&lt; 2</text>
<polygon fill="#ffffff" stroke="transparent" points="323,-447.7 323,-466.7 370,-466.7 370,-447.7 323,-447.7"/>
<polygon fill="none" stroke="#000000" points="323,-447.7 323,-466.7 370,-466.7 370,-447.7 323,-447.7"/>
<text text-anchor="start" x="360.8862" y="-453.8" font-family="Helvetica,sans-Serif" font-size="11.00" fill="#000000"> &#160;</text>
<polygon fill="#ffffff" stroke="transparent" points="370,-447.7 370,-466.7 417,-466.7 417,-447.7 370,-447.7"/>
<polygon fill="none" stroke="#000000" points="370,-447.7 370,-466.7 417,-466.7 417,-447.7 370,-447.7"/>
<text text-anchor="start" x="407.8862" y="-453.8" font-family="Helvetica,sans-Serif" font-size="11.00" fill="#000000"> &#160;</text>
</a>
</g>
</g>
<!-- recorded_event_audit&#45;&gt;policy -->
<g id="edge8" class="edge">
<title>recorded_event_audit:w&#45;&gt;policy:e</title>
<path fill="none" stroke="#000000" d="M217.4179,-476.5772C186.6527,-480.6073 176.7224,-498.0793 146,-519.7 125.8147,-533.9053 130.1827,-557.7 105.5,-557.7"/>
<polygon fill="#000000" stroke="#000000" points="224.0144,-476.1804 232.2162,-479.2935 228.0072,-475.9402 232,-475.7 232,-475.7 232,-475.7 228.0072,-475.9402 231.7838,-472.1065 224.0144,-476.1804 224.0144,-476.1804"/>
<ellipse fill="none" stroke="#000000" cx="220.8202" cy="-476.3726" rx="3.2" ry="3.2"/>
</g>
<!-- reference_data_policy -->
<g id="node10" class="node">
<title>reference_data_policy</title>
<g id="a_node10"><a xlink:href="../../tables/reference_data_policy.html" xlink:title="reference_data_policy" target="_top">
<polygon fill="#ffffff" stroke="transparent" points="231,-366.2 231,-427.2 417,-427.2 417,-366.2 231,-366.2"/>
<polygon fill="#f5f5f5" stroke="transparent" points="231,-403.7 231,-426.7 417,-426.7 417,-403.7 231,-403.7"/>
<polygon fill="none" stroke="#000000" points="231,-403.7 231,-426.7 417,-426.7 417,-403.7 231,-403.7"/>
<text text-anchor="start" x="236" y="-412.3" font-family="Helvetica,sans-Serif" font-weight="bold" font-size="11.00" fill="#000000">reference_data_policy</text>
<text text-anchor="start" x="382.5219" y="-411.8" font-family="Helvetica,sans-Serif" font-size="11.00" fill="#000000">[table]</text>
<polygon fill="none" stroke="#000000" points="231,-384.7 231,-403.7 417,-403.7 417,-384.7 231,-384.7"/>
<text text-anchor="start" x="234" y="-390.8" font-family="Helvetica,sans-Serif" font-size="11.00" fill="#000000">...</text>
<polygon fill="#ffffff" stroke="transparent" points="231,-365.7 231,-384.7 306,-384.7 306,-365.7 231,-365.7"/>
<polygon fill="none" stroke="#000000" points="231,-365.7 231,-384.7 306,-384.7 306,-365.7 231,-365.7"/>
<text text-anchor="start" x="234" y="-371.8" font-family="Helvetica,sans-Serif" font-size="11.00" fill="#000000">&lt; 2</text>
<polygon fill="#ffffff" stroke="transparent" points="306,-365.7 306,-384.7 377,-384.7 377,-365.7 306,-365.7"/>
<polygon fill="none" stroke="#000000" points="306,-365.7 306,-384.7 377,-384.7 377,-365.7 306,-365.7"/>
<text text-anchor="start" x="335.4956" y="-371.8" font-family="Helvetica,sans-Serif" font-size="11.00" fill="#000000">83 rows</text>
<polygon fill="#ffffff" stroke="transparent" points="377,-365.7 377,-384.7 417,-384.7 417,-365.7 377,-365.7"/>
<polygon fill="none" stroke="#000000" points="377,-365.7 377,-384.7 417,-384.7 417,-365.7 377,-365.7"/>
<text text-anchor="start" x="407.8862" y="-371.8" font-family="Helvetica,sans-Serif" font-size="11.00" fill="#000000"> &#160;</text>
</a>
</g>
</g>
<!-- reference_data_policy&#45;&gt;policy -->
<g id="edge9" class="edge">
<title>reference_data_policy:w&#45;&gt;policy:e</title>
<path fill="none" stroke="#000000" d="M216.2707,-394.2667C184.5698,-396.9514 170.243,-409.4558 146,-437.7 109.3383,-480.4126 161.7889,-557.7 105.5,-557.7"/>
<polygon fill="#000000" stroke="#000000" points="223.0059,-394.0076 231.1384,-397.2973 227.003,-393.8538 231,-393.7 231,-393.7 231,-393.7 227.003,-393.8538 230.8616,-390.1027 223.0059,-394.0076 223.0059,-394.0076"/>
<ellipse fill="none" stroke="#000000" cx="219.8083" cy="-394.1306" rx="3.2" ry="3.2"/>
</g>
<!-- staff_configuration -->
<g id="node11" class="node">
<title>staff_configuration</title>
<g id="a_node11"><a xlink:href="../../tables/staff_configuration.html" xlink:title="staff_configuration" target="_top">
<polygon fill="#ffffff" stroke="transparent" points="240.5,-284.2 240.5,-345.2 407.5,-345.2 407.5,-284.2 240.5,-284.2"/>
<polygon fill="#f5f5f5" stroke="transparent" points="241,-321.7 241,-344.7 408,-344.7 408,-321.7 241,-321.7"/>
<polygon fill="none" stroke="#000000" points="241,-321.7 241,-344.7 408,-344.7 408,-321.7 241,-321.7"/>
<text text-anchor="start" x="246" y="-330.3" font-family="Helvetica,sans-Serif" font-weight="bold" font-size="11.00" fill="#000000">staff_configuration</text>
<text text-anchor="start" x="373.5219" y="-329.8" font-family="Helvetica,sans-Serif" font-size="11.00" fill="#000000">[table]</text>
<polygon fill="none" stroke="#000000" points="241,-302.7 241,-321.7 408,-321.7 408,-302.7 241,-302.7"/>
<text text-anchor="start" x="244" y="-308.8" font-family="Helvetica,sans-Serif" font-size="11.00" fill="#000000">...</text>
<polygon fill="#ffffff" stroke="transparent" points="241,-283.7 241,-302.7 323,-302.7 323,-283.7 241,-283.7"/>
<polygon fill="none" stroke="#000000" points="241,-283.7 241,-302.7 323,-302.7 323,-283.7 241,-283.7"/>
<text text-anchor="start" x="244" y="-289.8" font-family="Helvetica,sans-Serif" font-size="11.00" fill="#000000">&lt; 2</text>
<polygon fill="#ffffff" stroke="transparent" points="323,-283.7 323,-302.7 365,-302.7 365,-283.7 323,-283.7"/>
<polygon fill="none" stroke="#000000" points="323,-283.7 323,-302.7 365,-302.7 365,-283.7 323,-283.7"/>
<text text-anchor="start" x="355.8862" y="-289.8" font-family="Helvetica,sans-Serif" font-size="11.00" fill="#000000"> &#160;</text>
<polygon fill="#ffffff" stroke="transparent" points="365,-283.7 365,-302.7 408,-302.7 408,-283.7 365,-283.7"/>
<polygon fill="none" stroke="#000000" points="365,-283.7 365,-302.7 408,-302.7 408,-283.7 365,-283.7"/>
<text text-anchor="start" x="398.8862" y="-289.8" font-family="Helvetica,sans-Serif" font-size="11.00" fill="#000000"> &#160;</text>
</a>
</g>
</g>
<!-- staff_configuration&#45;&gt;policy -->
<g id="edge10" class="edge">
<title>staff_configuration:w&#45;&gt;policy:e</title>
<path fill="none" stroke="#000000" d="M226.1686,-312.0184C189.8961,-313.7623 171.5397,-323.2947 146,-355.7 89.322,-427.6142 197.0645,-557.7 105.5,-557.7"/>
<polygon fill="#000000" stroke="#000000" points="233.0018,-311.8718 241.0773,-315.2992 237.0009,-311.7859 241,-311.7 241,-311.7 241,-311.7 237.0009,-311.7859 240.9227,-308.1008 233.0018,-311.8718 233.0018,-311.8718"/>
<ellipse fill="none" stroke="#000000" cx="229.8026" cy="-311.9405" rx="3.2" ry="3.2"/>
</g>
<!-- staff_configuration_audit -->
<g id="node12" class="node">
<title>staff_configuration_audit</title>
<g id="a_node12"><a xlink:href="../../tables/staff_configuration_audit.html" xlink:title="staff_configuration_audit" target="_top">
<polygon fill="#ffffff" stroke="transparent" points="220,-202.2 220,-263.2 428,-263.2 428,-202.2 220,-202.2"/>
<polygon fill="#f5f5f5" stroke="transparent" points="220,-239.7 220,-262.7 428,-262.7 428,-239.7 220,-239.7"/>
<polygon fill="none" stroke="#000000" points="220,-239.7 220,-262.7 428,-262.7 428,-239.7 220,-239.7"/>
<text text-anchor="start" x="225" y="-248.3" font-family="Helvetica,sans-Serif" font-weight="bold" font-size="11.00" fill="#000000">staff_configuration_audit</text>
<text text-anchor="start" x="393.5219" y="-247.8" font-family="Helvetica,sans-Serif" font-size="11.00" fill="#000000">[table]</text>
<polygon fill="none" stroke="#000000" points="220,-220.7 220,-239.7 428,-239.7 428,-220.7 220,-220.7"/>
<text text-anchor="start" x="223" y="-226.8" font-family="Helvetica,sans-Serif" font-size="11.00" fill="#000000">...</text>
<polygon fill="#ffffff" stroke="transparent" points="220,-201.7 220,-220.7 322,-220.7 322,-201.7 220,-201.7"/>
<polygon fill="none" stroke="#000000" points="220,-201.7 220,-220.7 322,-220.7 322,-201.7 220,-201.7"/>
<text text-anchor="start" x="223" y="-207.8" font-family="Helvetica,sans-Serif" font-size="11.00" fill="#000000">&lt; 2</text>
<polygon fill="#ffffff" stroke="transparent" points="322,-201.7 322,-220.7 375,-220.7 375,-201.7 322,-201.7"/>
<polygon fill="none" stroke="#000000" points="322,-201.7 322,-220.7 375,-220.7 375,-201.7 322,-201.7"/>
<text text-anchor="start" x="365.8862" y="-207.8" font-family="Helvetica,sans-Serif" font-size="11.00" fill="#000000"> &#160;</text>
<polygon fill="#ffffff" stroke="transparent" points="375,-201.7 375,-220.7 428,-220.7 428,-201.7 375,-201.7"/>
<polygon fill="none" stroke="#000000" points="375,-201.7 375,-220.7 428,-220.7 428,-201.7 375,-201.7"/>
<text text-anchor="start" x="418.8862" y="-207.8" font-family="Helvetica,sans-Serif" font-size="11.00" fill="#000000"> &#160;</text>
</a>
</g>
</g>
<!-- staff_configuration_audit&#45;&gt;policy -->
<g id="edge11" class="edge">
<title>staff_configuration_audit:w&#45;&gt;policy:e</title>
<path fill="none" stroke="#000000" stroke-dasharray="5,2" d="M205.56,-230.4012C177.643,-233.3935 164.3231,-246.2156 146,-273.7 110.6379,-326.7428 169.2496,-557.7 105.5,-557.7"/>
<polygon fill="#000000" stroke="#000000" points="212.0094,-230.0881 220.1746,-233.2958 216.0047,-229.894 220,-229.7 220,-229.7 220,-229.7 216.0047,-229.894 219.8254,-226.1042 212.0094,-230.0881 212.0094,-230.0881"/>
<ellipse fill="none" stroke="#000000" cx="208.8132" cy="-230.2433" rx="3.2" ry="3.2"/>
</g>
<!-- staff_role -->
<g id="node13" class="node">
<title>staff_role</title>
<g id="a_node13"><a xlink:href="../../tables/staff_role.html" xlink:title="staff_role" target="_top">
<polygon fill="#ffffff" stroke="transparent" points="273,-120.2 273,-181.2 375,-181.2 375,-120.2 273,-120.2"/>
<polygon fill="#f5f5f5" stroke="transparent" points="273,-157.7 273,-180.7 375,-180.7 375,-157.7 273,-157.7"/>
<polygon fill="none" stroke="#000000" points="273,-157.7 273,-180.7 375,-180.7 375,-157.7 273,-157.7"/>
<text text-anchor="start" x="278" y="-166.3" font-family="Helvetica,sans-Serif" font-weight="bold" font-size="11.00" fill="#000000">staff_role</text>
<text text-anchor="start" x="340.5219" y="-165.8" font-family="Helvetica,sans-Serif" font-size="11.00" fill="#000000">[table]</text>
<polygon fill="none" stroke="#000000" points="273,-138.7 273,-157.7 375,-157.7 375,-138.7 273,-138.7"/>
<text text-anchor="start" x="276" y="-144.8" font-family="Helvetica,sans-Serif" font-size="11.00" fill="#000000">...</text>
<polygon fill="#ffffff" stroke="transparent" points="273,-119.7 273,-138.7 322,-138.7 322,-119.7 273,-119.7"/>
<polygon fill="none" stroke="#000000" points="273,-119.7 273,-138.7 322,-138.7 322,-119.7 273,-119.7"/>
<text text-anchor="start" x="276" y="-125.8" font-family="Helvetica,sans-Serif" font-size="11.00" fill="#000000">&lt; 2</text>
<polygon fill="#ffffff" stroke="transparent" points="322,-119.7 322,-138.7 348,-138.7 348,-119.7 322,-119.7"/>
<polygon fill="none" stroke="#000000" points="322,-119.7 322,-138.7 348,-138.7 348,-119.7 322,-119.7"/>
<text text-anchor="start" x="338.8862" y="-125.8" font-family="Helvetica,sans-Serif" font-size="11.00" fill="#000000"> &#160;</text>
<polygon fill="#ffffff" stroke="transparent" points="348,-119.7 348,-138.7 375,-138.7 375,-119.7 348,-119.7"/>
<polygon fill="none" stroke="#000000" points="348,-119.7 348,-138.7 375,-138.7 375,-119.7 348,-119.7"/>
<text text-anchor="start" x="365.8862" y="-125.8" font-family="Helvetica,sans-Serif" font-size="11.00" fill="#000000"> &#160;</text>
</a>
</g>
</g>
<!-- staff_role&#45;&gt;policy -->
<g id="edge12" class="edge">
<title>staff_role:w&#45;&gt;policy:e</title>
<path fill="none" stroke="#000000" stroke-dasharray="5,2" d="M258.5567,-147.6741C208.1746,-147.5975 180.1402,-148.9375 146,-191.7 94.945,-255.6492 187.3298,-557.7 105.5,-557.7"/>
<polygon fill="#000000" stroke="#000000" points="265,-147.6856 272.9935,-151.3 269,-147.6928 273,-147.7 273,-147.7 273,-147.7 269,-147.6928 273.0065,-144.1 265,-147.6856 265,-147.6856"/>
<ellipse fill="none" stroke="#000000" cx="261.8" cy="-147.6798" rx="3.2" ry="3.2"/>
</g>
<!-- staff_role_audit -->
<g id="node14" class="node">
<title>staff_role_audit</title>
<g id="a_node14"><a xlink:href="../../tables/staff_role_audit.html" xlink:title="staff_role_audit" target="_top">
<polygon fill="#ffffff" stroke="transparent" points="252.5,-38.2 252.5,-99.2 395.5,-99.2 395.5,-38.2 252.5,-38.2"/>
<polygon fill="#f5f5f5" stroke="transparent" points="253,-75.7 253,-98.7 396,-98.7 396,-75.7 253,-75.7"/>
<polygon fill="none" stroke="#000000" points="253,-75.7 253,-98.7 396,-98.7 396,-75.7 253,-75.7"/>
<text text-anchor="start" x="258" y="-84.3" font-family="Helvetica,sans-Serif" font-weight="bold" font-size="11.00" fill="#000000">staff_role_audit</text>
<text text-anchor="start" x="361.5219" y="-83.8" font-family="Helvetica,sans-Serif" font-size="11.00" fill="#000000">[table]</text>
<polygon fill="none" stroke="#000000" points="253,-56.7 253,-75.7 396,-75.7 396,-56.7 253,-56.7"/>
<text text-anchor="start" x="256" y="-62.8" font-family="Helvetica,sans-Serif" font-size="11.00" fill="#000000">...</text>
<polygon fill="#ffffff" stroke="transparent" points="253,-37.7 253,-56.7 323,-56.7 323,-37.7 253,-37.7"/>
<polygon fill="none" stroke="#000000" points="253,-37.7 253,-56.7 323,-56.7 323,-37.7 253,-37.7"/>
<text text-anchor="start" x="256" y="-43.8" font-family="Helvetica,sans-Serif" font-size="11.00" fill="#000000">&lt; 3</text>
<polygon fill="#ffffff" stroke="transparent" points="323,-37.7 323,-56.7 359,-56.7 359,-37.7 323,-37.7"/>
<polygon fill="none" stroke="#000000" points="323,-37.7 323,-56.7 359,-56.7 359,-37.7 323,-37.7"/>
<text text-anchor="start" x="349.8862" y="-43.8" font-family="Helvetica,sans-Serif" font-size="11.00" fill="#000000"> &#160;</text>
<polygon fill="#ffffff" stroke="transparent" points="359,-37.7 359,-56.7 396,-56.7 396,-37.7 359,-37.7"/>
<polygon fill="none" stroke="#000000" points="359,-37.7 359,-56.7 396,-56.7 396,-37.7 359,-37.7"/>
<text text-anchor="start" x="386.8862" y="-43.8" font-family="Helvetica,sans-Serif" font-size="11.00" fill="#000000"> &#160;</text>
</a>
</g>
</g>
<!-- staff_role_audit&#45;&gt;policy -->
<g id="edge13" class="edge">
<title>staff_role_audit:w&#45;&gt;policy:e</title>
<path fill="none" stroke="#000000" stroke-dasharray="5,2" d="M238.3875,-65.8136C196.5335,-66.6058 173.4778,-72.4384 146,-109.7 116.3361,-149.926 155.4808,-557.7 105.5,-557.7"/>
<polygon fill="#000000" stroke="#000000" points="245.0002,-65.7622 253.028,-69.2999 249.0001,-65.7311 253,-65.7 253,-65.7 253,-65.7 249.0001,-65.7311 252.972,-62.1001 245.0002,-65.7622 245.0002,-65.7622"/>
<ellipse fill="none" stroke="#000000" cx="241.8003" cy="-65.7871" rx="3.2" ry="3.2"/>
</g>
</g>
</svg>
