<?xml version="1.0" encoding="UTF-8" standalone="no"?>
<!DOCTYPE svg PUBLIC "-//W3C//DTD SVG 1.1//EN"
 "http://www.w3.org/Graphics/SVG/1.1/DTD/svg11.dtd">
<!-- Generated by graphviz version 2.40.1 (20161225.0304)
 -->
<!-- Title: oneDegreeRelationshipsDiagramImplied Pages: 1 -->
<svg width="510pt" height="206pt"
 viewBox="0.00 0.00 510.00 206.20" xmlns="http://www.w3.org/2000/svg" xmlns:xlink="http://www.w3.org/1999/xlink">
<g id="graph0" class="graph" transform="scale(1 1) rotate(0) translate(4 202.2)">
<title>oneDegreeRelationshipsDiagramImplied</title>
<polygon fill="#ffffff" stroke="transparent" points="-4,4 -4,-202.2 506,-202.2 506,4 -4,4"/>
<text text-anchor="middle" x="72.4936" y="-7.3" font-family="Helvetica,sans-Serif" font-size="11.00" fill="#000000">Generated by SchemaSpy</text>
<!-- case_note_type_recorded_event_type -->
<g id="node1" class="node">
<title>case_note_type_recorded_event_type</title>
<g id="a_node1"><a xlink:href="../../tables/case_note_type_recorded_event_type.html" xlink:title="case_note_type_recorded_event_type" target="_top">
<polygon fill="#ffffff" stroke="transparent" points="154,-38.2 154,-194.2 494,-194.2 494,-38.2 154,-38.2"/>
<polygon fill="#f5f5f5" stroke="transparent" points="156,-169.2 156,-192.2 492,-192.2 492,-169.2 156,-169.2"/>
<polygon fill="none" stroke="#000000" points="156,-169.2 156,-192.2 492,-192.2 492,-169.2 156,-169.2"/>
<text text-anchor="start" x="161" y="-177.8" font-family="Helvetica,sans-Serif" font-weight="bold" font-size="11.00" fill="#000000">case_note_type_recorded_event_type</text>
<text text-anchor="start" x="457.0437" y="-177.3" font-family="Helvetica,sans-Serif" font-size="11.00" fill="#000000">[table]</text>
<polygon fill="none" stroke="#000000" points="156,-147.2 156,-169.2 427,-169.2 427,-147.2 156,-147.2"/>
<image xlink:href="../../images/primaryKeys.png" width="11px" height="12px" preserveAspectRatio="xMinYMin meet" x="161" y="-164.2"/>
<text text-anchor="start" x="176" y="-154.3" font-family="Helvetica,sans-Serif" font-size="11.00" fill="#000000">id</text>
<polygon fill="none" stroke="#000000" points="427,-147.2 427,-169.2 492,-169.2 492,-147.2 427,-147.2"/>
<text text-anchor="start" x="429.8561" y="-154.9" font-family="Helvetica,sans-Serif" font-size="11.00" fill="#000000">bigserial[19]</text>
<polygon fill="#ffffff" stroke="transparent" points="156,-125.2 156,-147.2 427,-147.2 427,-125.2 156,-125.2"/>
<polygon fill="none" stroke="#000000" points="156,-125.2 156,-147.2 427,-147.2 427,-125.2 156,-125.2"/>
<text text-anchor="start" x="176" y="-132.3" font-family="Helvetica,sans-Serif" font-size="11.00" fill="#000000">cn_type</text>
<polygon fill="none" stroke="#000000" points="427,-125.2 427,-147.2 492,-147.2 492,-125.2 427,-125.2"/>
<text text-anchor="start" x="430" y="-132.9" font-family="Helvetica,sans-Serif" font-size="11.00" fill="#000000">varchar[32]</text>
<polygon fill="#ffffff" stroke="transparent" points="156,-103.2 156,-125.2 427,-125.2 427,-103.2 156,-103.2"/>
<polygon fill="none" stroke="#000000" points="156,-103.2 156,-125.2 427,-125.2 427,-103.2 156,-103.2"/>
<text text-anchor="start" x="176" y="-110.3" font-family="Helvetica,sans-Serif" font-size="11.00" fill="#000000">cn_sub_type</text>
<polygon fill="none" stroke="#000000" points="427,-103.2 427,-125.2 492,-125.2 492,-103.2 427,-103.2"/>
<text text-anchor="start" x="430" y="-110.9" font-family="Helvetica,sans-Serif" font-size="11.00" fill="#000000">varchar[32]</text>
<polygon fill="none" stroke="#000000" points="156,-81.2 156,-103.2 427,-103.2 427,-81.2 156,-81.2"/>
<image xlink:href="../../images/foreignKeys.png" width="11px" height="12px" preserveAspectRatio="xMinYMin meet" x="161" y="-98.2"/>
<text text-anchor="start" x="176" y="-88.3" font-family="Helvetica,sans-Serif" font-size="11.00" fill="#000000">policy_code</text>
<polygon fill="none" stroke="#000000" points="427,-81.2 427,-103.2 492,-103.2 492,-81.2 427,-81.2"/>
<text text-anchor="start" x="430" y="-88.9" font-family="Helvetica,sans-Serif" font-size="11.00" fill="#000000">varchar[16]</text>
<polygon fill="none" stroke="#000000" points="156,-59.2 156,-81.2 427,-81.2 427,-59.2 156,-59.2"/>
<text text-anchor="start" x="176" y="-66.3" font-family="Helvetica,sans-Serif" font-size="11.00" fill="#000000">recorded_event_type_id</text>
<polygon fill="none" stroke="#000000" points="427,-59.2 427,-81.2 492,-81.2 492,-59.2 427,-59.2"/>
<text text-anchor="start" x="430" y="-66.9" font-family="Helvetica,sans-Serif" font-size="11.00" fill="#000000">int8[19]</text>
<polygon fill="#ffffff" stroke="transparent" points="156,-40.2 156,-59.2 296,-59.2 296,-40.2 156,-40.2"/>
<polygon fill="none" stroke="#000000" points="156,-40.2 156,-59.2 296,-59.2 296,-40.2 156,-40.2"/>
<text text-anchor="start" x="159" y="-46.3" font-family="Helvetica,sans-Serif" font-size="11.00" fill="#000000">&lt; 1</text>
<polygon fill="#ffffff" stroke="transparent" points="296,-40.2 296,-59.2 427,-59.2 427,-40.2 296,-40.2"/>
<polygon fill="none" stroke="#000000" points="296,-40.2 296,-59.2 427,-59.2 427,-40.2 296,-40.2"/>
<text text-anchor="start" x="417.8862" y="-46.3" font-family="Helvetica,sans-Serif" font-size="11.00" fill="#000000"> &#160;</text>
<polygon fill="#ffffff" stroke="transparent" points="427,-40.2 427,-59.2 492,-59.2 492,-40.2 427,-40.2"/>
<polygon fill="none" stroke="#000000" points="427,-40.2 427,-59.2 492,-59.2 492,-40.2 427,-40.2"/>
<text text-anchor="start" x="473.4053" y="-46.3" font-family="Helvetica,sans-Serif" font-size="11.00" fill="#000000">0 &gt;</text>
<polygon fill="none" stroke="#000000" stroke-width="2" points="155,-39.2 155,-193.2 493,-193.2 493,-39.2 155,-39.2"/>
</a>
</g>
</g>
<!-- policy -->
<g id="node2" class="node">
<title>policy</title>
<g id="a_node2"><a xlink:href="../../tables/policy.html" xlink:title="policy" target="_top">
<polygon fill="#ffffff" stroke="transparent" points="8,-43.7 8,-126.7 105,-126.7 105,-43.7 8,-43.7"/>
<polygon fill="#f5f5f5" stroke="transparent" points="8.5,-103.2 8.5,-126.2 105.5,-126.2 105.5,-103.2 8.5,-103.2"/>
<polygon fill="none" stroke="#000000" points="8.5,-103.2 8.5,-126.2 105.5,-126.2 105.5,-103.2 8.5,-103.2"/>
<text text-anchor="start" x="13.5" y="-111.8" font-family="Helvetica,sans-Serif" font-weight="bold" font-size="11.00" fill="#000000">policy</text>
<text text-anchor="start" x="70.5437" y="-111.3" font-family="Helvetica,sans-Serif" font-size="11.00" fill="#000000">[table]</text>
<polygon fill="none" stroke="#000000" points="8.5,-81.2 8.5,-103.2 105.5,-103.2 105.5,-81.2 8.5,-81.2"/>
<image xlink:href="../../images/primaryKeys.png" width="11px" height="12px" preserveAspectRatio="xMinYMin meet" x="13.5" y="-98.2"/>
<text text-anchor="start" x="28.5" y="-88.3" font-family="Helvetica,sans-Serif" font-size="11.00" fill="#000000">code</text>
<polygon fill="none" stroke="#000000" points="8.5,-62.2 8.5,-81.2 105.5,-81.2 105.5,-62.2 8.5,-62.2"/>
<text text-anchor="start" x="11.5" y="-68.3" font-family="Helvetica,sans-Serif" font-size="11.00" fill="#000000">...</text>
<polygon fill="#ffffff" stroke="transparent" points="8.5,-43.2 8.5,-62.2 43.5,-62.2 43.5,-43.2 8.5,-43.2"/>
<polygon fill="none" stroke="#000000" points="8.5,-43.2 8.5,-62.2 43.5,-62.2 43.5,-43.2 8.5,-43.2"/>
<text text-anchor="start" x="11.5" y="-49.3" font-family="Helvetica,sans-Serif" font-size="11.00" fill="#000000"> &#160;</text>
<polygon fill="#ffffff" stroke="transparent" points="43.5,-43.2 43.5,-62.2 66.5,-62.2 66.5,-43.2 43.5,-43.2"/>
<polygon fill="none" stroke="#000000" points="43.5,-43.2 43.5,-62.2 66.5,-62.2 66.5,-43.2 43.5,-43.2"/>
<text text-anchor="start" x="57.3862" y="-49.3" font-family="Helvetica,sans-Serif" font-size="11.00" fill="#000000"> &#160;</text>
<polygon fill="#ffffff" stroke="transparent" points="66.5,-43.2 66.5,-62.2 105.5,-62.2 105.5,-43.2 66.5,-43.2"/>
<polygon fill="none" stroke="#000000" points="66.5,-43.2 66.5,-62.2 105.5,-62.2 105.5,-43.2 66.5,-43.2"/>
<text text-anchor="start" x="80.7904" y="-49.3" font-family="Helvetica,sans-Serif" font-size="11.00" fill="#000000">14 &gt;</text>
</a>
</g>
</g>
<!-- case_note_type_recorded_event_type&#45;&gt;policy -->
<g id="edge1" class="edge">
<title>case_note_type_recorded_event_type:w&#45;&gt;policy:e</title>
<path fill="none" stroke="#000000" stroke-dasharray="5,2" d="M141.4203,-92.2C129.5435,-92.2 122.158,-92.2 105.5,-92.2"/>
<polygon fill="#000000" stroke="#000000" points="148,-92.2001 156,-95.8 152,-92.2 156,-92.2 156,-92.2 156,-92.2 152,-92.2 156,-88.6 148,-92.2001 148,-92.2001"/>
<ellipse fill="none" stroke="#000000" cx="144.8" cy="-92.2001" rx="3.2" ry="3.2"/>
</g>
</g>
</svg>
