<?xml version="1.0" encoding="UTF-8" standalone="no"?>
<!DOCTYPE svg PUBLIC "-//W3C//DTD SVG 1.1//EN"
 "http://www.w3.org/Graphics/SVG/1.1/DTD/svg11.dtd">
<!-- Generated by graphviz version 2.40.1 (20161225.0304)
 -->
<!-- Title: oneDegreeRelationshipsDiagramImplied Pages: 1 -->
<svg width="474pt" height="605pt"
 viewBox="0.00 0.00 474.00 605.20" xmlns="http://www.w3.org/2000/svg" xmlns:xlink="http://www.w3.org/1999/xlink">
<g id="graph0" class="graph" transform="scale(1 1) rotate(0) translate(4 601.2)">
<title>oneDegreeRelationshipsDiagramImplied</title>
<polygon fill="#ffffff" stroke="transparent" points="-4,4 -4,-601.2 470,-601.2 470,4 -4,4"/>
<text text-anchor="middle" x="72.4936" y="-7.3" font-family="Helvetica,sans-Serif" font-size="11.00" fill="#000000">Generated by SchemaSpy</text>
<!-- keyworker_entry -->
<g id="node1" class="node">
<title>keyworker_entry</title>
<g id="a_node1"><a xlink:href="../../tables/keyworker_entry.html" xlink:title="keyworker_entry" target="_top">
<polygon fill="#ffffff" stroke="transparent" points="292,-422.2 292,-593.2 444,-593.2 444,-422.2 292,-422.2"/>
<polygon fill="#f5f5f5" stroke="transparent" points="292,-569.7 292,-592.7 444,-592.7 444,-569.7 292,-569.7"/>
<polygon fill="none" stroke="#000000" points="292,-569.7 292,-592.7 444,-592.7 444,-569.7 292,-569.7"/>
<text text-anchor="start" x="297" y="-578.3" font-family="Helvetica,sans-Serif" font-weight="bold" font-size="11.00" fill="#000000">keyworker_entry</text>
<text text-anchor="start" x="409.5219" y="-577.8" font-family="Helvetica,sans-Serif" font-size="11.00" fill="#000000">[table]</text>
<polygon fill="none" stroke="#000000" points="292,-547.7 292,-569.7 444,-569.7 444,-547.7 292,-547.7"/>
<image xlink:href="../../images/primaryKeys.png" width="11px" height="12px" preserveAspectRatio="xMinYMin meet" x="297" y="-564.7"/>
<text text-anchor="start" x="320" y="-554.8" font-family="Helvetica,sans-Serif" font-size="11.00" fill="#000000">id</text>
<polygon fill="#ffffff" stroke="transparent" points="292,-525.7 292,-547.7 444,-547.7 444,-525.7 292,-525.7"/>
<polygon fill="none" stroke="#000000" points="292,-525.7 292,-547.7 444,-547.7 444,-525.7 292,-525.7"/>
<text text-anchor="start" x="320" y="-532.8" font-family="Helvetica,sans-Serif" font-size="11.00" fill="#000000">occurred_at</text>
<polygon fill="#ffffff" stroke="transparent" points="292,-503.7 292,-525.7 444,-525.7 444,-503.7 292,-503.7"/>
<polygon fill="none" stroke="#000000" points="292,-503.7 292,-525.7 444,-525.7 444,-503.7 292,-503.7"/>
<text text-anchor="start" x="320" y="-510.8" font-family="Helvetica,sans-Serif" font-size="11.00" fill="#000000">person_identifier</text>
<polygon fill="#ffffff" stroke="transparent" points="292,-481.7 292,-503.7 444,-503.7 444,-481.7 292,-481.7"/>
<polygon fill="none" stroke="#000000" points="292,-481.7 292,-503.7 444,-503.7 444,-481.7 292,-481.7"/>
<image xlink:href="../../images/foreignKeys.png" width="11px" height="12px" preserveAspectRatio="xMinYMin meet" x="297" y="-498.7"/>
<text text-anchor="start" x="320" y="-488.8" font-family="Helvetica,sans-Serif" font-size="11.00" fill="#000000">staff_id</text>
<polygon fill="#ffffff" stroke="transparent" points="292,-459.7 292,-481.7 444,-481.7 444,-459.7 292,-459.7"/>
<polygon fill="none" stroke="#000000" points="292,-459.7 292,-481.7 444,-481.7 444,-459.7 292,-459.7"/>
<text text-anchor="start" x="320" y="-466.8" font-family="Helvetica,sans-Serif" font-size="11.00" fill="#000000">prison_code</text>
<polygon fill="none" stroke="#000000" points="292,-440.7 292,-459.7 444,-459.7 444,-440.7 292,-440.7"/>
<text text-anchor="start" x="295" y="-446.8" font-family="Helvetica,sans-Serif" font-size="11.00" fill="#000000">...</text>
<polygon fill="#ffffff" stroke="transparent" points="292,-421.7 292,-440.7 366,-440.7 366,-421.7 292,-421.7"/>
<polygon fill="none" stroke="#000000" points="292,-421.7 292,-440.7 366,-440.7 366,-421.7 292,-421.7"/>
<text text-anchor="start" x="295" y="-427.8" font-family="Helvetica,sans-Serif" font-size="11.00" fill="#000000">&lt; 1</text>
<polygon fill="#ffffff" stroke="transparent" points="366,-421.7 366,-440.7 405,-440.7 405,-421.7 366,-421.7"/>
<polygon fill="none" stroke="#000000" points="366,-421.7 366,-440.7 405,-440.7 405,-421.7 366,-421.7"/>
<text text-anchor="start" x="395.8862" y="-427.8" font-family="Helvetica,sans-Serif" font-size="11.00" fill="#000000"> &#160;</text>
<polygon fill="#ffffff" stroke="transparent" points="405,-421.7 405,-440.7 444,-440.7 444,-421.7 405,-421.7"/>
<polygon fill="none" stroke="#000000" points="405,-421.7 405,-440.7 444,-440.7 444,-421.7 405,-421.7"/>
<text text-anchor="start" x="434.8862" y="-427.8" font-family="Helvetica,sans-Serif" font-size="11.00" fill="#000000"> &#160;</text>
</a>
</g>
</g>
<!-- key_worker -->
<g id="node2" class="node">
<title>key_worker</title>
<g id="a_node2"><a xlink:href="../../tables/key_worker.html" xlink:title="key_worker" target="_top">
<polygon fill="#ffffff" stroke="transparent" points="8,-180.7 8,-336.7 229,-336.7 229,-180.7 8,-180.7"/>
<polygon fill="#f5f5f5" stroke="transparent" points="10.5,-311.7 10.5,-334.7 227.5,-334.7 227.5,-311.7 10.5,-311.7"/>
<polygon fill="none" stroke="#000000" points="10.5,-311.7 10.5,-334.7 227.5,-334.7 227.5,-311.7 10.5,-311.7"/>
<text text-anchor="start" x="15.5" y="-320.3" font-family="Helvetica,sans-Serif" font-weight="bold" font-size="11.00" fill="#000000">key_worker</text>
<text text-anchor="start" x="192.5437" y="-319.8" font-family="Helvetica,sans-Serif" font-size="11.00" fill="#000000">[table]</text>
<polygon fill="none" stroke="#000000" points="10.5,-289.7 10.5,-311.7 166.5,-311.7 166.5,-289.7 10.5,-289.7"/>
<image xlink:href="../../images/primaryKeys.png" width="11px" height="12px" preserveAspectRatio="xMinYMin meet" x="15.5" y="-306.7"/>
<text text-anchor="start" x="30.5" y="-296.8" font-family="Helvetica,sans-Serif" font-size="11.00" fill="#000000">staff_id</text>
<polygon fill="none" stroke="#000000" points="166.5,-289.7 166.5,-311.7 227.5,-311.7 227.5,-289.7 166.5,-289.7"/>
<text text-anchor="start" x="169.5" y="-297.4" font-family="Helvetica,sans-Serif" font-size="11.00" fill="#000000">int8[19]</text>
<polygon fill="none" stroke="#000000" points="10.5,-267.7 10.5,-289.7 166.5,-289.7 166.5,-267.7 10.5,-267.7"/>
<text text-anchor="start" x="30.5" y="-274.8" font-family="Helvetica,sans-Serif" font-size="11.00" fill="#000000">status</text>
<polygon fill="none" stroke="#000000" points="166.5,-267.7 166.5,-289.7 227.5,-289.7 227.5,-267.7 166.5,-267.7"/>
<text text-anchor="start" x="169.494" y="-275.4" font-family="Helvetica,sans-Serif" font-size="11.00" fill="#000000">varchar[12]</text>
<polygon fill="none" stroke="#000000" points="10.5,-245.7 10.5,-267.7 166.5,-267.7 166.5,-245.7 10.5,-245.7"/>
<text text-anchor="start" x="30.5" y="-252.8" font-family="Helvetica,sans-Serif" font-size="11.00" fill="#000000">capacity</text>
<polygon fill="none" stroke="#000000" points="166.5,-245.7 166.5,-267.7 227.5,-267.7 227.5,-245.7 166.5,-245.7"/>
<text text-anchor="start" x="169.5" y="-253.4" font-family="Helvetica,sans-Serif" font-size="11.00" fill="#000000">int4[10]</text>
<polygon fill="none" stroke="#000000" points="10.5,-223.7 10.5,-245.7 166.5,-245.7 166.5,-223.7 10.5,-223.7"/>
<text text-anchor="start" x="30.5" y="-230.8" font-family="Helvetica,sans-Serif" font-size="11.00" fill="#000000">auto_allocation_flag</text>
<polygon fill="none" stroke="#000000" points="166.5,-223.7 166.5,-245.7 227.5,-245.7 227.5,-223.7 166.5,-223.7"/>
<text text-anchor="start" x="169.5" y="-231.4" font-family="Helvetica,sans-Serif" font-size="11.00" fill="#000000">bpchar[1]</text>
<polygon fill="none" stroke="#000000" points="10.5,-201.7 10.5,-223.7 166.5,-223.7 166.5,-201.7 10.5,-201.7"/>
<text text-anchor="start" x="30.5" y="-208.8" font-family="Helvetica,sans-Serif" font-size="11.00" fill="#000000">active_date</text>
<polygon fill="none" stroke="#000000" points="166.5,-201.7 166.5,-223.7 227.5,-223.7 227.5,-201.7 166.5,-201.7"/>
<text text-anchor="start" x="169.5" y="-209.4" font-family="Helvetica,sans-Serif" font-size="11.00" fill="#000000">date[13]</text>
<polygon fill="#ffffff" stroke="transparent" points="10.5,-182.7 10.5,-201.7 92.5,-201.7 92.5,-182.7 10.5,-182.7"/>
<polygon fill="none" stroke="#000000" points="10.5,-182.7 10.5,-201.7 92.5,-201.7 92.5,-182.7 10.5,-182.7"/>
<text text-anchor="start" x="13.5" y="-188.8" font-family="Helvetica,sans-Serif" font-size="11.00" fill="#000000">&lt; 0</text>
<polygon fill="#ffffff" stroke="transparent" points="92.5,-182.7 92.5,-201.7 166.5,-201.7 166.5,-182.7 92.5,-182.7"/>
<polygon fill="none" stroke="#000000" points="92.5,-182.7 92.5,-201.7 166.5,-201.7 166.5,-182.7 92.5,-182.7"/>
<text text-anchor="start" x="157.3862" y="-188.8" font-family="Helvetica,sans-Serif" font-size="11.00" fill="#000000"> &#160;</text>
<polygon fill="#ffffff" stroke="transparent" points="166.5,-182.7 166.5,-201.7 227.5,-201.7 227.5,-182.7 166.5,-182.7"/>
<polygon fill="none" stroke="#000000" points="166.5,-182.7 166.5,-201.7 227.5,-201.7 227.5,-182.7 166.5,-182.7"/>
<text text-anchor="start" x="208.9053" y="-188.8" font-family="Helvetica,sans-Serif" font-size="11.00" fill="#000000">3 &gt;</text>
<polygon fill="none" stroke="#000000" stroke-width="2" points="9,-181.7 9,-335.7 228,-335.7 228,-181.7 9,-181.7"/>
</a>
</g>
</g>
<!-- keyworker_entry&#45;&gt;key_worker -->
<g id="edge1" class="edge">
<title>keyworker_entry:w&#45;&gt;key_worker:e</title>
<path fill="none" stroke="#000000" stroke-dasharray="5,2" d="M277.4298,-490.5438C215.6197,-469.45 311.8935,-300.7 227.5,-300.7"/>
<polygon fill="#000000" stroke="#000000" points="284.0862,-491.5288 291.473,-496.2612 288.0431,-492.1144 292,-492.7 292,-492.7 292,-492.7 288.0431,-492.1144 292.527,-489.1388 284.0862,-491.5288 284.0862,-491.5288"/>
<ellipse fill="none" stroke="#000000" cx="280.9207" cy="-491.0603" rx="3.2" ry="3.2"/>
</g>
<!-- keyworker_session -->
<g id="node3" class="node">
<title>keyworker_session</title>
<g id="a_node3"><a xlink:href="../../tables/keyworker_session.html" xlink:title="keyworker_session" target="_top">
<polygon fill="#ffffff" stroke="transparent" points="285,-230.2 285,-401.2 451,-401.2 451,-230.2 285,-230.2"/>
<polygon fill="#f5f5f5" stroke="transparent" points="285,-377.7 285,-400.7 451,-400.7 451,-377.7 285,-377.7"/>
<polygon fill="none" stroke="#000000" points="285,-377.7 285,-400.7 451,-400.7 451,-377.7 285,-377.7"/>
<text text-anchor="start" x="290" y="-386.3" font-family="Helvetica,sans-Serif" font-weight="bold" font-size="11.00" fill="#000000">keyworker_session</text>
<text text-anchor="start" x="416.5219" y="-385.8" font-family="Helvetica,sans-Serif" font-size="11.00" fill="#000000">[table]</text>
<polygon fill="none" stroke="#000000" points="285,-355.7 285,-377.7 451,-377.7 451,-355.7 285,-355.7"/>
<image xlink:href="../../images/primaryKeys.png" width="11px" height="12px" preserveAspectRatio="xMinYMin meet" x="290" y="-372.7"/>
<text text-anchor="start" x="314" y="-362.8" font-family="Helvetica,sans-Serif" font-size="11.00" fill="#000000">id</text>
<polygon fill="#ffffff" stroke="transparent" points="285,-333.7 285,-355.7 451,-355.7 451,-333.7 285,-333.7"/>
<polygon fill="none" stroke="#000000" points="285,-333.7 285,-355.7 451,-355.7 451,-333.7 285,-333.7"/>
<text text-anchor="start" x="314" y="-340.8" font-family="Helvetica,sans-Serif" font-size="11.00" fill="#000000">occurred_at</text>
<polygon fill="#ffffff" stroke="transparent" points="285,-311.7 285,-333.7 451,-333.7 451,-311.7 285,-311.7"/>
<polygon fill="none" stroke="#000000" points="285,-311.7 285,-333.7 451,-333.7 451,-311.7 285,-311.7"/>
<text text-anchor="start" x="314" y="-318.8" font-family="Helvetica,sans-Serif" font-size="11.00" fill="#000000">person_identifier</text>
<polygon fill="#ffffff" stroke="transparent" points="285,-289.7 285,-311.7 451,-311.7 451,-289.7 285,-289.7"/>
<polygon fill="none" stroke="#000000" points="285,-289.7 285,-311.7 451,-311.7 451,-289.7 285,-289.7"/>
<image xlink:href="../../images/foreignKeys.png" width="11px" height="12px" preserveAspectRatio="xMinYMin meet" x="290" y="-306.7"/>
<text text-anchor="start" x="314" y="-296.8" font-family="Helvetica,sans-Serif" font-size="11.00" fill="#000000">staff_id</text>
<polygon fill="#ffffff" stroke="transparent" points="285,-267.7 285,-289.7 451,-289.7 451,-267.7 285,-267.7"/>
<polygon fill="none" stroke="#000000" points="285,-267.7 285,-289.7 451,-289.7 451,-267.7 285,-267.7"/>
<text text-anchor="start" x="314" y="-274.8" font-family="Helvetica,sans-Serif" font-size="11.00" fill="#000000">prison_code</text>
<polygon fill="none" stroke="#000000" points="285,-248.7 285,-267.7 451,-267.7 451,-248.7 285,-248.7"/>
<text text-anchor="start" x="288" y="-254.8" font-family="Helvetica,sans-Serif" font-size="11.00" fill="#000000">...</text>
<polygon fill="#ffffff" stroke="transparent" points="285,-229.7 285,-248.7 366,-248.7 366,-229.7 285,-229.7"/>
<polygon fill="none" stroke="#000000" points="285,-229.7 285,-248.7 366,-248.7 366,-229.7 285,-229.7"/>
<text text-anchor="start" x="288" y="-235.8" font-family="Helvetica,sans-Serif" font-size="11.00" fill="#000000">&lt; 1</text>
<polygon fill="#ffffff" stroke="transparent" points="366,-229.7 366,-248.7 408,-248.7 408,-229.7 366,-229.7"/>
<polygon fill="none" stroke="#000000" points="366,-229.7 366,-248.7 408,-248.7 408,-229.7 366,-229.7"/>
<text text-anchor="start" x="398.8862" y="-235.8" font-family="Helvetica,sans-Serif" font-size="11.00" fill="#000000"> &#160;</text>
<polygon fill="#ffffff" stroke="transparent" points="408,-229.7 408,-248.7 451,-248.7 451,-229.7 408,-229.7"/>
<polygon fill="none" stroke="#000000" points="408,-229.7 408,-248.7 451,-248.7 451,-229.7 408,-229.7"/>
<text text-anchor="start" x="441.8862" y="-235.8" font-family="Helvetica,sans-Serif" font-size="11.00" fill="#000000"> &#160;</text>
</a>
</g>
</g>
<!-- keyworker_session&#45;&gt;key_worker -->
<g id="edge2" class="edge">
<title>keyworker_session:w&#45;&gt;key_worker:e</title>
<path fill="none" stroke="#000000" stroke-dasharray="5,2" d="M270.5794,-300.7C255.7322,-300.7 247.4653,-300.7 227.5,-300.7"/>
<polygon fill="#000000" stroke="#000000" points="277,-300.7001 285,-304.3 281,-300.7 285,-300.7 285,-300.7 285,-300.7 281,-300.7 285,-297.1 277,-300.7001 277,-300.7001"/>
<ellipse fill="none" stroke="#000000" cx="273.8" cy="-300.7001" rx="3.2" ry="3.2"/>
</g>
<!-- offender_key_worker -->
<g id="node4" class="node">
<title>offender_key_worker</title>
<g id="a_node4"><a xlink:href="../../tables/offender_key_worker.html" xlink:title="offender_key_worker" target="_top">
<polygon fill="#ffffff" stroke="transparent" points="278,-38.2 278,-209.2 458,-209.2 458,-38.2 278,-38.2"/>
<polygon fill="#f5f5f5" stroke="transparent" points="278,-185.7 278,-208.7 458,-208.7 458,-185.7 278,-185.7"/>
<polygon fill="none" stroke="#000000" points="278,-185.7 278,-208.7 458,-208.7 458,-185.7 278,-185.7"/>
<text text-anchor="start" x="283" y="-194.3" font-family="Helvetica,sans-Serif" font-weight="bold" font-size="11.00" fill="#000000">offender_key_worker</text>
<text text-anchor="start" x="423.5219" y="-193.8" font-family="Helvetica,sans-Serif" font-size="11.00" fill="#000000">[table]</text>
<polygon fill="none" stroke="#000000" points="278,-163.7 278,-185.7 458,-185.7 458,-163.7 278,-163.7"/>
<image xlink:href="../../images/primaryKeys.png" width="11px" height="12px" preserveAspectRatio="xMinYMin meet" x="283" y="-180.7"/>
<text text-anchor="start" x="301" y="-170.8" font-family="Helvetica,sans-Serif" font-size="11.00" fill="#000000">offender_keyworker_id</text>
<polygon fill="#ffffff" stroke="transparent" points="278,-141.7 278,-163.7 458,-163.7 458,-141.7 278,-141.7"/>
<polygon fill="none" stroke="#000000" points="278,-141.7 278,-163.7 458,-163.7 458,-141.7 278,-141.7"/>
<text text-anchor="start" x="301" y="-148.8" font-family="Helvetica,sans-Serif" font-size="11.00" fill="#000000">offender_no</text>
<polygon fill="#ffffff" stroke="transparent" points="278,-119.7 278,-141.7 458,-141.7 458,-119.7 278,-119.7"/>
<polygon fill="none" stroke="#000000" points="278,-119.7 278,-141.7 458,-141.7 458,-119.7 278,-119.7"/>
<image xlink:href="../../images/foreignKeys.png" width="11px" height="12px" preserveAspectRatio="xMinYMin meet" x="283" y="-136.7"/>
<text text-anchor="start" x="301" y="-126.8" font-family="Helvetica,sans-Serif" font-size="11.00" fill="#000000">staff_id</text>
<polygon fill="#ffffff" stroke="transparent" points="278,-97.7 278,-119.7 458,-119.7 458,-97.7 278,-97.7"/>
<polygon fill="none" stroke="#000000" points="278,-97.7 278,-119.7 458,-119.7 458,-97.7 278,-97.7"/>
<text text-anchor="start" x="301" y="-104.8" font-family="Helvetica,sans-Serif" font-size="11.00" fill="#000000">assigned_date_time</text>
<polygon fill="#ffffff" stroke="transparent" points="278,-75.7 278,-97.7 458,-97.7 458,-75.7 278,-75.7"/>
<polygon fill="none" stroke="#000000" points="278,-75.7 278,-97.7 458,-97.7 458,-75.7 278,-75.7"/>
<image xlink:href="../../images/foreignKeys.png" width="11px" height="12px" preserveAspectRatio="xMinYMin meet" x="283" y="-92.7"/>
<text text-anchor="start" x="301" y="-82.8" font-family="Helvetica,sans-Serif" font-size="11.00" fill="#000000">prison_id</text>
<polygon fill="none" stroke="#000000" points="278,-56.7 278,-75.7 458,-75.7 458,-56.7 278,-56.7"/>
<text text-anchor="start" x="281" y="-62.8" font-family="Helvetica,sans-Serif" font-size="11.00" fill="#000000">...</text>
<polygon fill="#ffffff" stroke="transparent" points="278,-37.7 278,-56.7 366,-56.7 366,-37.7 278,-37.7"/>
<polygon fill="none" stroke="#000000" points="278,-37.7 278,-56.7 366,-56.7 366,-37.7 278,-37.7"/>
<text text-anchor="start" x="281" y="-43.8" font-family="Helvetica,sans-Serif" font-size="11.00" fill="#000000">&lt; 2</text>
<polygon fill="#ffffff" stroke="transparent" points="366,-37.7 366,-56.7 412,-56.7 412,-37.7 366,-37.7"/>
<polygon fill="none" stroke="#000000" points="366,-37.7 366,-56.7 412,-56.7 412,-37.7 366,-37.7"/>
<text text-anchor="start" x="402.8862" y="-43.8" font-family="Helvetica,sans-Serif" font-size="11.00" fill="#000000"> &#160;</text>
<polygon fill="#ffffff" stroke="transparent" points="412,-37.7 412,-56.7 458,-56.7 458,-37.7 412,-37.7"/>
<polygon fill="none" stroke="#000000" points="412,-37.7 412,-56.7 458,-56.7 458,-37.7 412,-37.7"/>
<text text-anchor="start" x="448.8862" y="-43.8" font-family="Helvetica,sans-Serif" font-size="11.00" fill="#000000"> &#160;</text>
</a>
</g>
</g>
<!-- offender_key_worker&#45;&gt;key_worker -->
<g id="edge3" class="edge">
<title>offender_key_worker:w&#45;&gt;key_worker:e</title>
<path fill="none" stroke="#000000" stroke-dasharray="5,2" d="M263.6854,-133.2351C213.6948,-154.3825 300.6229,-300.7 227.5,-300.7"/>
<polygon fill="#000000" stroke="#000000" points="270.1226,-132.0951 278.6278,-134.2448 274.0613,-131.3976 278,-130.7 278,-130.7 278,-130.7 274.0613,-131.3976 277.3722,-127.1552 270.1226,-132.0951 270.1226,-132.0951"/>
<ellipse fill="none" stroke="#000000" cx="266.9716" cy="-132.6532" rx="3.2" ry="3.2"/>
</g>
</g>
</svg>
