<?xml version="1.0" encoding="UTF-8" standalone="no"?>
<!DOCTYPE svg PUBLIC "-//W3C//DTD SVG 1.1//EN"
 "http://www.w3.org/Graphics/SVG/1.1/DTD/svg11.dtd">
<!-- Generated by graphviz version 2.40.1 (20161225.0304)
 -->
<!-- Title: twoDegreesRelationshipsDiagram Pages: 1 -->
<svg width="427pt" height="376pt"
 viewBox="0.00 0.00 427.00 375.70" xmlns="http://www.w3.org/2000/svg" xmlns:xlink="http://www.w3.org/1999/xlink">
<g id="graph0" class="graph" transform="scale(1 1) rotate(0) translate(4 371.7)">
<title>twoDegreesRelationshipsDiagram</title>
<polygon fill="#ffffff" stroke="transparent" points="-4,4 -4,-371.7 423,-371.7 423,4 -4,4"/>
<text text-anchor="middle" x="72.4936" y="-7.3" font-family="Helvetica,sans-Serif" font-size="11.00" fill="#000000">Generated by SchemaSpy</text>
<!-- key_worker -->
<g id="node1" class="node">
<title>key_worker</title>
<g id="a_node1"><a xlink:href="../../tables/key_worker.html" xlink:title="key_worker" target="_top">
<polygon fill="#ffffff" stroke="transparent" points="200,-207.7 200,-363.7 411,-363.7 411,-207.7 200,-207.7"/>
<polygon fill="#f5f5f5" stroke="transparent" points="202.5,-338.7 202.5,-361.7 409.5,-361.7 409.5,-338.7 202.5,-338.7"/>
<polygon fill="none" stroke="#000000" points="202.5,-338.7 202.5,-361.7 409.5,-361.7 409.5,-338.7 202.5,-338.7"/>
<text text-anchor="start" x="207.5" y="-347.3" font-family="Helvetica,sans-Serif" font-weight="bold" font-size="11.00" fill="#000000">key_worker</text>
<text text-anchor="start" x="374.5437" y="-346.8" font-family="Helvetica,sans-Serif" font-size="11.00" fill="#000000">[table]</text>
<polygon fill="none" stroke="#000000" points="202.5,-316.7 202.5,-338.7 358.5,-338.7 358.5,-316.7 202.5,-316.7"/>
<image xlink:href="../../images/primaryKeys.png" width="11px" height="12px" preserveAspectRatio="xMinYMin meet" x="207.5" y="-333.7"/>
<text text-anchor="start" x="222.5" y="-323.8" font-family="Helvetica,sans-Serif" font-size="11.00" fill="#000000">staff_id</text>
<polygon fill="none" stroke="#000000" points="358.5,-316.7 358.5,-338.7 409.5,-338.7 409.5,-316.7 358.5,-316.7"/>
<text text-anchor="start" x="361.5" y="-324.4" font-family="Helvetica,sans-Serif" font-size="11.00" fill="#000000">int8[19]</text>
<polygon fill="none" stroke="#000000" points="202.5,-294.7 202.5,-316.7 358.5,-316.7 358.5,-294.7 202.5,-294.7"/>
<text text-anchor="start" x="222.5" y="-301.8" font-family="Helvetica,sans-Serif" font-size="11.00" fill="#000000">capacity</text>
<polygon fill="none" stroke="#000000" points="358.5,-294.7 358.5,-316.7 409.5,-316.7 409.5,-294.7 358.5,-294.7"/>
<text text-anchor="start" x="361.5" y="-302.4" font-family="Helvetica,sans-Serif" font-size="11.00" fill="#000000">int4[10]</text>
<polygon fill="none" stroke="#000000" points="202.5,-272.7 202.5,-294.7 358.5,-294.7 358.5,-272.7 202.5,-272.7"/>
<text text-anchor="start" x="222.5" y="-279.8" font-family="Helvetica,sans-Serif" font-size="11.00" fill="#000000">auto_allocation_flag</text>
<polygon fill="none" stroke="#000000" points="358.5,-272.7 358.5,-294.7 409.5,-294.7 409.5,-272.7 358.5,-272.7"/>
<text text-anchor="start" x="361.0749" y="-280.4" font-family="Helvetica,sans-Serif" font-size="11.00" fill="#000000">bpchar[1]</text>
<polygon fill="none" stroke="#000000" points="202.5,-250.7 202.5,-272.7 358.5,-272.7 358.5,-250.7 202.5,-250.7"/>
<text text-anchor="start" x="222.5" y="-257.8" font-family="Helvetica,sans-Serif" font-size="11.00" fill="#000000">active_date</text>
<polygon fill="none" stroke="#000000" points="358.5,-250.7 358.5,-272.7 409.5,-272.7 409.5,-250.7 358.5,-250.7"/>
<text text-anchor="start" x="361.5" y="-258.4" font-family="Helvetica,sans-Serif" font-size="11.00" fill="#000000">date[13]</text>
<polygon fill="none" stroke="#000000" points="202.5,-228.7 202.5,-250.7 358.5,-250.7 358.5,-228.7 202.5,-228.7"/>
<image xlink:href="../../images/foreignKeys.png" width="11px" height="12px" preserveAspectRatio="xMinYMin meet" x="207.5" y="-245.7"/>
<text text-anchor="start" x="222.5" y="-235.8" font-family="Helvetica,sans-Serif" font-size="11.00" fill="#000000">status_id</text>
<polygon fill="none" stroke="#000000" points="358.5,-228.7 358.5,-250.7 409.5,-250.7 409.5,-228.7 358.5,-228.7"/>
<text text-anchor="start" x="361.5" y="-236.4" font-family="Helvetica,sans-Serif" font-size="11.00" fill="#000000">int8[19]</text>
<polygon fill="#ffffff" stroke="transparent" points="202.5,-209.7 202.5,-228.7 284.5,-228.7 284.5,-209.7 202.5,-209.7"/>
<polygon fill="none" stroke="#000000" points="202.5,-209.7 202.5,-228.7 284.5,-228.7 284.5,-209.7 202.5,-209.7"/>
<text text-anchor="start" x="205.5" y="-215.8" font-family="Helvetica,sans-Serif" font-size="11.00" fill="#000000">&lt; 1</text>
<polygon fill="#ffffff" stroke="transparent" points="284.5,-209.7 284.5,-228.7 358.5,-228.7 358.5,-209.7 284.5,-209.7"/>
<polygon fill="none" stroke="#000000" points="284.5,-209.7 284.5,-228.7 358.5,-228.7 358.5,-209.7 284.5,-209.7"/>
<text text-anchor="start" x="349.3862" y="-215.8" font-family="Helvetica,sans-Serif" font-size="11.00" fill="#000000"> &#160;</text>
<polygon fill="#ffffff" stroke="transparent" points="358.5,-209.7 358.5,-228.7 409.5,-228.7 409.5,-209.7 358.5,-209.7"/>
<polygon fill="none" stroke="#000000" points="358.5,-209.7 358.5,-228.7 409.5,-228.7 409.5,-209.7 358.5,-209.7"/>
<text text-anchor="start" x="390.9053" y="-215.8" font-family="Helvetica,sans-Serif" font-size="11.00" fill="#000000">0 &gt;</text>
<polygon fill="none" stroke="#000000" stroke-width="2" points="201,-208.7 201,-362.7 410,-362.7 410,-208.7 201,-208.7"/>
</a>
</g>
</g>
<!-- reference_data -->
<g id="node2" class="node">
<title>reference_data</title>
<g id="a_node2"><a xlink:href="../../tables/reference_data.html" xlink:title="reference_data" target="_top">
<polygon fill="#ffffff" stroke="transparent" points="8,-38.2 8,-187.2 151,-187.2 151,-38.2 8,-38.2"/>
<polygon fill="#f5f5f5" stroke="transparent" points="8.5,-163.7 8.5,-186.7 151.5,-186.7 151.5,-163.7 8.5,-163.7"/>
<polygon fill="none" stroke="#000000" points="8.5,-163.7 8.5,-186.7 151.5,-186.7 151.5,-163.7 8.5,-163.7"/>
<text text-anchor="start" x="13.5" y="-172.3" font-family="Helvetica,sans-Serif" font-weight="bold" font-size="11.00" fill="#000000">reference_data</text>
<text text-anchor="start" x="116.5437" y="-171.8" font-family="Helvetica,sans-Serif" font-size="11.00" fill="#000000">[table]</text>
<polygon fill="none" stroke="#000000" points="8.5,-141.7 8.5,-163.7 151.5,-163.7 151.5,-141.7 8.5,-141.7"/>
<image xlink:href="../../images/primaryKeys.png" width="11px" height="12px" preserveAspectRatio="xMinYMin meet" x="13.5" y="-158.7"/>
<text text-anchor="start" x="28.5" y="-148.8" font-family="Helvetica,sans-Serif" font-size="11.00" fill="#000000">id</text>
<polygon fill="#ffffff" stroke="transparent" points="8.5,-119.7 8.5,-141.7 151.5,-141.7 151.5,-119.7 8.5,-119.7"/>
<polygon fill="none" stroke="#000000" points="8.5,-119.7 8.5,-141.7 151.5,-141.7 151.5,-119.7 8.5,-119.7"/>
<text text-anchor="start" x="28.5" y="-126.8" font-family="Helvetica,sans-Serif" font-size="11.00" fill="#000000">domain</text>
<polygon fill="#ffffff" stroke="transparent" points="8.5,-97.7 8.5,-119.7 151.5,-119.7 151.5,-97.7 8.5,-97.7"/>
<polygon fill="none" stroke="#000000" points="8.5,-97.7 8.5,-119.7 151.5,-119.7 151.5,-97.7 8.5,-97.7"/>
<text text-anchor="start" x="28.5" y="-104.8" font-family="Helvetica,sans-Serif" font-size="11.00" fill="#000000">code</text>
<polygon fill="#ffffff" stroke="transparent" points="8.5,-75.7 8.5,-97.7 151.5,-97.7 151.5,-75.7 8.5,-75.7"/>
<polygon fill="none" stroke="#000000" points="8.5,-75.7 8.5,-97.7 151.5,-97.7 151.5,-75.7 8.5,-75.7"/>
<text text-anchor="start" x="28.5" y="-82.8" font-family="Helvetica,sans-Serif" font-size="11.00" fill="#000000">sequence_number</text>
<polygon fill="none" stroke="#000000" points="8.5,-56.7 8.5,-75.7 151.5,-75.7 151.5,-56.7 8.5,-56.7"/>
<text text-anchor="start" x="11.5" y="-62.8" font-family="Helvetica,sans-Serif" font-size="11.00" fill="#000000">...</text>
<polygon fill="#ffffff" stroke="transparent" points="8.5,-37.7 8.5,-56.7 69.5,-56.7 69.5,-37.7 8.5,-37.7"/>
<polygon fill="none" stroke="#000000" points="8.5,-37.7 8.5,-56.7 69.5,-56.7 69.5,-37.7 8.5,-37.7"/>
<text text-anchor="start" x="11.5" y="-43.8" font-family="Helvetica,sans-Serif" font-size="11.00" fill="#000000"> &#160;</text>
<polygon fill="#ffffff" stroke="transparent" points="69.5,-37.7 69.5,-56.7 105.5,-56.7 105.5,-37.7 69.5,-37.7"/>
<polygon fill="none" stroke="#000000" points="69.5,-37.7 69.5,-56.7 105.5,-56.7 105.5,-37.7 69.5,-37.7"/>
<text text-anchor="start" x="96.3862" y="-43.8" font-family="Helvetica,sans-Serif" font-size="11.00" fill="#000000"> &#160;</text>
<polygon fill="#ffffff" stroke="transparent" points="105.5,-37.7 105.5,-56.7 151.5,-56.7 151.5,-37.7 105.5,-37.7"/>
<polygon fill="none" stroke="#000000" points="105.5,-37.7 105.5,-56.7 151.5,-56.7 151.5,-37.7 105.5,-37.7"/>
<text text-anchor="start" x="132.9053" y="-43.8" font-family="Helvetica,sans-Serif" font-size="11.00" fill="#000000">3 &gt;</text>
</a>
</g>
</g>
<!-- key_worker&#45;&gt;reference_data -->
<g id="edge1" class="edge">
<title>key_worker:w&#45;&gt;reference_data:e</title>
<path fill="none" stroke="#000000" d="M188.6673,-235.5038C166.4713,-218.1252 190.3679,-152.7 151.5,-152.7"/>
<polygon fill="#000000" stroke="#000000" points="194.8445,-237.3776 201.4549,-243.145 198.6722,-238.5388 202.5,-239.7 202.5,-239.7 202.5,-239.7 198.6722,-238.5388 203.5451,-236.255 194.8445,-237.3776 194.8445,-237.3776"/>
<ellipse fill="none" stroke="#000000" cx="191.7823" cy="-236.4487" rx="3.2" ry="3.2"/>
</g>
<!-- offender_key_worker -->
<g id="node3" class="node">
<title>offender_key_worker</title>
<g id="a_node3"><a xlink:href="../../tables/offender_key_worker.html" xlink:title="offender_key_worker" target="_top">
<polygon fill="#ffffff" stroke="transparent" points="215.5,-125.2 215.5,-186.2 395.5,-186.2 395.5,-125.2 215.5,-125.2"/>
<polygon fill="#f5f5f5" stroke="transparent" points="215.5,-162.7 215.5,-185.7 395.5,-185.7 395.5,-162.7 215.5,-162.7"/>
<polygon fill="none" stroke="#000000" points="215.5,-162.7 215.5,-185.7 395.5,-185.7 395.5,-162.7 215.5,-162.7"/>
<text text-anchor="start" x="220.5" y="-171.3" font-family="Helvetica,sans-Serif" font-weight="bold" font-size="11.00" fill="#000000">offender_key_worker</text>
<text text-anchor="start" x="361.0219" y="-170.8" font-family="Helvetica,sans-Serif" font-size="11.00" fill="#000000">[table]</text>
<polygon fill="none" stroke="#000000" points="215.5,-143.7 215.5,-162.7 395.5,-162.7 395.5,-143.7 215.5,-143.7"/>
<text text-anchor="start" x="218.5" y="-149.8" font-family="Helvetica,sans-Serif" font-size="11.00" fill="#000000">...</text>
<polygon fill="#ffffff" stroke="transparent" points="215.5,-124.7 215.5,-143.7 303.5,-143.7 303.5,-124.7 215.5,-124.7"/>
<polygon fill="none" stroke="#000000" points="215.5,-124.7 215.5,-143.7 303.5,-143.7 303.5,-124.7 215.5,-124.7"/>
<text text-anchor="start" x="218.5" y="-130.8" font-family="Helvetica,sans-Serif" font-size="11.00" fill="#000000">&lt; 2</text>
<polygon fill="#ffffff" stroke="transparent" points="303.5,-124.7 303.5,-143.7 349.5,-143.7 349.5,-124.7 303.5,-124.7"/>
<polygon fill="none" stroke="#000000" points="303.5,-124.7 303.5,-143.7 349.5,-143.7 349.5,-124.7 303.5,-124.7"/>
<text text-anchor="start" x="340.3862" y="-130.8" font-family="Helvetica,sans-Serif" font-size="11.00" fill="#000000"> &#160;</text>
<polygon fill="#ffffff" stroke="transparent" points="349.5,-124.7 349.5,-143.7 395.5,-143.7 395.5,-124.7 349.5,-124.7"/>
<polygon fill="none" stroke="#000000" points="349.5,-124.7 349.5,-143.7 395.5,-143.7 395.5,-124.7 349.5,-124.7"/>
<text text-anchor="start" x="386.3862" y="-130.8" font-family="Helvetica,sans-Serif" font-size="11.00" fill="#000000"> &#160;</text>
</a>
</g>
</g>
<!-- offender_key_worker&#45;&gt;reference_data -->
<g id="edge2" class="edge">
<title>offender_key_worker:w&#45;&gt;reference_data:e</title>
<path fill="none" stroke="#000000" d="M201.2122,-149.9141C183.5518,-146.9198 174.5,-147.8484 151.5,-152.7"/>
<polygon fill="#000000" stroke="#000000" points="207.6479,-151.1689 214.811,-156.2335 211.5739,-151.9345 215.5,-152.7 215.5,-152.7 215.5,-152.7 211.5739,-151.9345 216.189,-149.1665 207.6479,-151.1689 207.6479,-151.1689"/>
<ellipse fill="none" stroke="#000000" cx="204.507" cy="-150.5565" rx="3.2" ry="3.2"/>
</g>
<!-- offender_key_worker&#45;&gt;reference_data -->
<g id="edge3" class="edge">
<title>offender_key_worker:w&#45;&gt;reference_data:e</title>
<path fill="none" stroke="#000000" d="M201.2122,-155.9502C183.5518,-159.4435 174.5,-158.3602 151.5,-152.7"/>
<polygon fill="#000000" stroke="#000000" points="207.6993,-154.4745 216.2985,-156.2103 211.5996,-153.5873 215.5,-152.7 215.5,-152.7 215.5,-152.7 211.5996,-153.5873 214.7015,-149.1897 207.6993,-154.4745 207.6993,-154.4745"/>
<ellipse fill="none" stroke="#000000" cx="204.579" cy="-155.1844" rx="3.2" ry="3.2"/>
</g>
</g>
</svg>
