<?xml version="1.0" encoding="UTF-8" standalone="no"?>
<!DOCTYPE svg PUBLIC "-//W3C//DTD SVG 1.1//EN"
 "http://www.w3.org/Graphics/SVG/1.1/DTD/svg11.dtd">
<!-- Generated by graphviz version 2.40.1 (20161225.0304)
 -->
<!-- Title: oneDegreeRelationshipsDiagram Pages: 1 -->
<svg width="427pt" height="289pt"
 viewBox="0.00 0.00 427.00 288.70" xmlns="http://www.w3.org/2000/svg" xmlns:xlink="http://www.w3.org/1999/xlink">
<g id="graph0" class="graph" transform="scale(1 1) rotate(0) translate(4 284.7)">
<title>oneDegreeRelationshipsDiagram</title>
<polygon fill="#ffffff" stroke="transparent" points="-4,4 -4,-284.7 423,-284.7 423,4 -4,4"/>
<text text-anchor="middle" x="72.4936" y="-7.3" font-family="Helvetica,sans-Serif" font-size="11.00" fill="#000000">Generated by SchemaSpy</text>
<!-- key_worker -->
<g id="node1" class="node">
<title>key_worker</title>
<g id="a_node1"><a xlink:href="../../tables/key_worker.html" xlink:title="key_worker" target="_top">
<polygon fill="#ffffff" stroke="transparent" points="200,-120.7 200,-276.7 411,-276.7 411,-120.7 200,-120.7"/>
<polygon fill="#f5f5f5" stroke="transparent" points="202.5,-251.7 202.5,-274.7 409.5,-274.7 409.5,-251.7 202.5,-251.7"/>
<polygon fill="none" stroke="#000000" points="202.5,-251.7 202.5,-274.7 409.5,-274.7 409.5,-251.7 202.5,-251.7"/>
<text text-anchor="start" x="207.5" y="-260.3" font-family="Helvetica,sans-Serif" font-weight="bold" font-size="11.00" fill="#000000">key_worker</text>
<text text-anchor="start" x="374.5437" y="-259.8" font-family="Helvetica,sans-Serif" font-size="11.00" fill="#000000">[table]</text>
<polygon fill="none" stroke="#000000" points="202.5,-229.7 202.5,-251.7 358.5,-251.7 358.5,-229.7 202.5,-229.7"/>
<image xlink:href="../../images/primaryKeys.png" width="11px" height="12px" preserveAspectRatio="xMinYMin meet" x="207.5" y="-246.7"/>
<text text-anchor="start" x="222.5" y="-236.8" font-family="Helvetica,sans-Serif" font-size="11.00" fill="#000000">staff_id</text>
<polygon fill="none" stroke="#000000" points="358.5,-229.7 358.5,-251.7 409.5,-251.7 409.5,-229.7 358.5,-229.7"/>
<text text-anchor="start" x="361.5" y="-237.4" font-family="Helvetica,sans-Serif" font-size="11.00" fill="#000000">int8[19]</text>
<polygon fill="none" stroke="#000000" points="202.5,-207.7 202.5,-229.7 358.5,-229.7 358.5,-207.7 202.5,-207.7"/>
<text text-anchor="start" x="222.5" y="-214.8" font-family="Helvetica,sans-Serif" font-size="11.00" fill="#000000">capacity</text>
<polygon fill="none" stroke="#000000" points="358.5,-207.7 358.5,-229.7 409.5,-229.7 409.5,-207.7 358.5,-207.7"/>
<text text-anchor="start" x="361.5" y="-215.4" font-family="Helvetica,sans-Serif" font-size="11.00" fill="#000000">int4[10]</text>
<polygon fill="none" stroke="#000000" points="202.5,-185.7 202.5,-207.7 358.5,-207.7 358.5,-185.7 202.5,-185.7"/>
<text text-anchor="start" x="222.5" y="-192.8" font-family="Helvetica,sans-Serif" font-size="11.00" fill="#000000">auto_allocation_flag</text>
<polygon fill="none" stroke="#000000" points="358.5,-185.7 358.5,-207.7 409.5,-207.7 409.5,-185.7 358.5,-185.7"/>
<text text-anchor="start" x="361.0749" y="-193.4" font-family="Helvetica,sans-Serif" font-size="11.00" fill="#000000">bpchar[1]</text>
<polygon fill="none" stroke="#000000" points="202.5,-163.7 202.5,-185.7 358.5,-185.7 358.5,-163.7 202.5,-163.7"/>
<text text-anchor="start" x="222.5" y="-170.8" font-family="Helvetica,sans-Serif" font-size="11.00" fill="#000000">active_date</text>
<polygon fill="none" stroke="#000000" points="358.5,-163.7 358.5,-185.7 409.5,-185.7 409.5,-163.7 358.5,-163.7"/>
<text text-anchor="start" x="361.5" y="-171.4" font-family="Helvetica,sans-Serif" font-size="11.00" fill="#000000">date[13]</text>
<polygon fill="none" stroke="#000000" points="202.5,-141.7 202.5,-163.7 358.5,-163.7 358.5,-141.7 202.5,-141.7"/>
<image xlink:href="../../images/foreignKeys.png" width="11px" height="12px" preserveAspectRatio="xMinYMin meet" x="207.5" y="-158.7"/>
<text text-anchor="start" x="222.5" y="-148.8" font-family="Helvetica,sans-Serif" font-size="11.00" fill="#000000">status_id</text>
<polygon fill="none" stroke="#000000" points="358.5,-141.7 358.5,-163.7 409.5,-163.7 409.5,-141.7 358.5,-141.7"/>
<text text-anchor="start" x="361.5" y="-149.4" font-family="Helvetica,sans-Serif" font-size="11.00" fill="#000000">int8[19]</text>
<polygon fill="#ffffff" stroke="transparent" points="202.5,-122.7 202.5,-141.7 284.5,-141.7 284.5,-122.7 202.5,-122.7"/>
<polygon fill="none" stroke="#000000" points="202.5,-122.7 202.5,-141.7 284.5,-141.7 284.5,-122.7 202.5,-122.7"/>
<text text-anchor="start" x="205.5" y="-128.8" font-family="Helvetica,sans-Serif" font-size="11.00" fill="#000000">&lt; 1</text>
<polygon fill="#ffffff" stroke="transparent" points="284.5,-122.7 284.5,-141.7 358.5,-141.7 358.5,-122.7 284.5,-122.7"/>
<polygon fill="none" stroke="#000000" points="284.5,-122.7 284.5,-141.7 358.5,-141.7 358.5,-122.7 284.5,-122.7"/>
<text text-anchor="start" x="349.3862" y="-128.8" font-family="Helvetica,sans-Serif" font-size="11.00" fill="#000000"> &#160;</text>
<polygon fill="#ffffff" stroke="transparent" points="358.5,-122.7 358.5,-141.7 409.5,-141.7 409.5,-122.7 358.5,-122.7"/>
<polygon fill="none" stroke="#000000" points="358.5,-122.7 358.5,-141.7 409.5,-141.7 409.5,-122.7 358.5,-122.7"/>
<text text-anchor="start" x="390.9053" y="-128.8" font-family="Helvetica,sans-Serif" font-size="11.00" fill="#000000">0 &gt;</text>
<polygon fill="none" stroke="#000000" stroke-width="2" points="201,-121.7 201,-275.7 410,-275.7 410,-121.7 201,-121.7"/>
</a>
</g>
</g>
<!-- reference_data -->
<g id="node2" class="node">
<title>reference_data</title>
<g id="a_node2"><a xlink:href="../../tables/reference_data.html" xlink:title="reference_data" target="_top">
<polygon fill="#ffffff" stroke="transparent" points="8,-38.2 8,-187.2 151,-187.2 151,-38.2 8,-38.2"/>
<polygon fill="#f5f5f5" stroke="transparent" points="8.5,-163.7 8.5,-186.7 151.5,-186.7 151.5,-163.7 8.5,-163.7"/>
<polygon fill="none" stroke="#000000" points="8.5,-163.7 8.5,-186.7 151.5,-186.7 151.5,-163.7 8.5,-163.7"/>
<text text-anchor="start" x="13.5" y="-172.3" font-family="Helvetica,sans-Serif" font-weight="bold" font-size="11.00" fill="#000000">reference_data</text>
<text text-anchor="start" x="116.5437" y="-171.8" font-family="Helvetica,sans-Serif" font-size="11.00" fill="#000000">[table]</text>
<polygon fill="none" stroke="#000000" points="8.5,-141.7 8.5,-163.7 151.5,-163.7 151.5,-141.7 8.5,-141.7"/>
<image xlink:href="../../images/primaryKeys.png" width="11px" height="12px" preserveAspectRatio="xMinYMin meet" x="13.5" y="-158.7"/>
<text text-anchor="start" x="28.5" y="-148.8" font-family="Helvetica,sans-Serif" font-size="11.00" fill="#000000">id</text>
<polygon fill="#ffffff" stroke="transparent" points="8.5,-119.7 8.5,-141.7 151.5,-141.7 151.5,-119.7 8.5,-119.7"/>
<polygon fill="none" stroke="#000000" points="8.5,-119.7 8.5,-141.7 151.5,-141.7 151.5,-119.7 8.5,-119.7"/>
<text text-anchor="start" x="28.5" y="-126.8" font-family="Helvetica,sans-Serif" font-size="11.00" fill="#000000">domain</text>
<polygon fill="#ffffff" stroke="transparent" points="8.5,-97.7 8.5,-119.7 151.5,-119.7 151.5,-97.7 8.5,-97.7"/>
<polygon fill="none" stroke="#000000" points="8.5,-97.7 8.5,-119.7 151.5,-119.7 151.5,-97.7 8.5,-97.7"/>
<text text-anchor="start" x="28.5" y="-104.8" font-family="Helvetica,sans-Serif" font-size="11.00" fill="#000000">code</text>
<polygon fill="#ffffff" stroke="transparent" points="8.5,-75.7 8.5,-97.7 151.5,-97.7 151.5,-75.7 8.5,-75.7"/>
<polygon fill="none" stroke="#000000" points="8.5,-75.7 8.5,-97.7 151.5,-97.7 151.5,-75.7 8.5,-75.7"/>
<text text-anchor="start" x="28.5" y="-82.8" font-family="Helvetica,sans-Serif" font-size="11.00" fill="#000000">sequence_number</text>
<polygon fill="none" stroke="#000000" points="8.5,-56.7 8.5,-75.7 151.5,-75.7 151.5,-56.7 8.5,-56.7"/>
<text text-anchor="start" x="11.5" y="-62.8" font-family="Helvetica,sans-Serif" font-size="11.00" fill="#000000">...</text>
<polygon fill="#ffffff" stroke="transparent" points="8.5,-37.7 8.5,-56.7 69.5,-56.7 69.5,-37.7 8.5,-37.7"/>
<polygon fill="none" stroke="#000000" points="8.5,-37.7 8.5,-56.7 69.5,-56.7 69.5,-37.7 8.5,-37.7"/>
<text text-anchor="start" x="11.5" y="-43.8" font-family="Helvetica,sans-Serif" font-size="11.00" fill="#000000"> &#160;</text>
<polygon fill="#ffffff" stroke="transparent" points="69.5,-37.7 69.5,-56.7 105.5,-56.7 105.5,-37.7 69.5,-37.7"/>
<polygon fill="none" stroke="#000000" points="69.5,-37.7 69.5,-56.7 105.5,-56.7 105.5,-37.7 69.5,-37.7"/>
<text text-anchor="start" x="96.3862" y="-43.8" font-family="Helvetica,sans-Serif" font-size="11.00" fill="#000000"> &#160;</text>
<polygon fill="#ffffff" stroke="transparent" points="105.5,-37.7 105.5,-56.7 151.5,-56.7 151.5,-37.7 105.5,-37.7"/>
<polygon fill="none" stroke="#000000" points="105.5,-37.7 105.5,-56.7 151.5,-56.7 151.5,-37.7 105.5,-37.7"/>
<text text-anchor="start" x="132.9053" y="-43.8" font-family="Helvetica,sans-Serif" font-size="11.00" fill="#000000">1 &gt;</text>
</a>
</g>
</g>
<!-- key_worker&#45;&gt;reference_data -->
<g id="edge1" class="edge">
<title>key_worker:w&#45;&gt;reference_data:e</title>
<path fill="none" stroke="#000000" d="M187.776,-152.7C175.7815,-152.7 168.3229,-152.7 151.5,-152.7"/>
<polygon fill="#000000" stroke="#000000" points="194.5,-152.7001 202.5,-156.3 198.5,-152.7 202.5,-152.7 202.5,-152.7 202.5,-152.7 198.5,-152.7 202.5,-149.1 194.5,-152.7001 194.5,-152.7001"/>
<ellipse fill="none" stroke="#000000" cx="191.3" cy="-152.7001" rx="3.2" ry="3.2"/>
</g>
</g>
</svg>
