<?xml version="1.0" encoding="UTF-8" standalone="no"?>
<!DOCTYPE svg PUBLIC "-//W3C//DTD SVG 1.1//EN"
 "http://www.w3.org/Graphics/SVG/1.1/DTD/svg11.dtd">
<!-- Generated by graphviz version 2.40.1 (20161225.0304)
 -->
<!-- Title: twoDegreesRelationshipsDiagramImplied Pages: 1 -->
<svg width="474pt" height="289pt"
 viewBox="0.00 0.00 474.00 288.70" xmlns="http://www.w3.org/2000/svg" xmlns:xlink="http://www.w3.org/1999/xlink">
<g id="graph0" class="graph" transform="scale(1 1) rotate(0) translate(4 284.7)">
<title>twoDegreesRelationshipsDiagramImplied</title>
<polygon fill="#ffffff" stroke="transparent" points="-4,4 -4,-284.7 470,-284.7 470,4 -4,4"/>
<text text-anchor="middle" x="72.4936" y="-7.3" font-family="Helvetica,sans-Serif" font-size="11.00" fill="#000000">Generated by SchemaSpy</text>
<!-- offender_key_worker -->
<g id="node1" class="node">
<title>offender_key_worker</title>
<g id="a_node1"><a xlink:href="../../tables/offender_key_worker.html" xlink:title="offender_key_worker" target="_top">
<polygon fill="#ffffff" stroke="transparent" points="278,-82.2 278,-253.2 458,-253.2 458,-82.2 278,-82.2"/>
<polygon fill="#f5f5f5" stroke="transparent" points="278,-229.7 278,-252.7 458,-252.7 458,-229.7 278,-229.7"/>
<polygon fill="none" stroke="#000000" points="278,-229.7 278,-252.7 458,-252.7 458,-229.7 278,-229.7"/>
<text text-anchor="start" x="283" y="-238.3" font-family="Helvetica,sans-Serif" font-weight="bold" font-size="11.00" fill="#000000">offender_key_worker</text>
<text text-anchor="start" x="423.5219" y="-237.8" font-family="Helvetica,sans-Serif" font-size="11.00" fill="#000000">[table]</text>
<polygon fill="none" stroke="#000000" points="278,-207.7 278,-229.7 458,-229.7 458,-207.7 278,-207.7"/>
<image xlink:href="../../images/primaryKeys.png" width="11px" height="12px" preserveAspectRatio="xMinYMin meet" x="283" y="-224.7"/>
<text text-anchor="start" x="301" y="-214.8" font-family="Helvetica,sans-Serif" font-size="11.00" fill="#000000">offender_keyworker_id</text>
<polygon fill="#ffffff" stroke="transparent" points="278,-185.7 278,-207.7 458,-207.7 458,-185.7 278,-185.7"/>
<polygon fill="none" stroke="#000000" points="278,-185.7 278,-207.7 458,-207.7 458,-185.7 278,-185.7"/>
<text text-anchor="start" x="301" y="-192.8" font-family="Helvetica,sans-Serif" font-size="11.00" fill="#000000">offender_no</text>
<polygon fill="#ffffff" stroke="transparent" points="278,-163.7 278,-185.7 458,-185.7 458,-163.7 278,-163.7"/>
<polygon fill="none" stroke="#000000" points="278,-163.7 278,-185.7 458,-185.7 458,-163.7 278,-163.7"/>
<image xlink:href="../../images/foreignKeys.png" width="11px" height="12px" preserveAspectRatio="xMinYMin meet" x="283" y="-180.7"/>
<text text-anchor="start" x="301" y="-170.8" font-family="Helvetica,sans-Serif" font-size="11.00" fill="#000000">staff_id</text>
<polygon fill="#ffffff" stroke="transparent" points="278,-141.7 278,-163.7 458,-163.7 458,-141.7 278,-141.7"/>
<polygon fill="none" stroke="#000000" points="278,-141.7 278,-163.7 458,-163.7 458,-141.7 278,-141.7"/>
<text text-anchor="start" x="301" y="-148.8" font-family="Helvetica,sans-Serif" font-size="11.00" fill="#000000">assigned_date_time</text>
<polygon fill="#ffffff" stroke="transparent" points="278,-119.7 278,-141.7 458,-141.7 458,-119.7 278,-119.7"/>
<polygon fill="none" stroke="#000000" points="278,-119.7 278,-141.7 458,-141.7 458,-119.7 278,-119.7"/>
<image xlink:href="../../images/foreignKeys.png" width="11px" height="12px" preserveAspectRatio="xMinYMin meet" x="283" y="-136.7"/>
<text text-anchor="start" x="301" y="-126.8" font-family="Helvetica,sans-Serif" font-size="11.00" fill="#000000">prison_id</text>
<polygon fill="none" stroke="#000000" points="278,-100.7 278,-119.7 458,-119.7 458,-100.7 278,-100.7"/>
<text text-anchor="start" x="281" y="-106.8" font-family="Helvetica,sans-Serif" font-size="11.00" fill="#000000">...</text>
<polygon fill="#ffffff" stroke="transparent" points="278,-81.7 278,-100.7 366,-100.7 366,-81.7 278,-81.7"/>
<polygon fill="none" stroke="#000000" points="278,-81.7 278,-100.7 366,-100.7 366,-81.7 278,-81.7"/>
<text text-anchor="start" x="281" y="-87.8" font-family="Helvetica,sans-Serif" font-size="11.00" fill="#000000">&lt; 2</text>
<polygon fill="#ffffff" stroke="transparent" points="366,-81.7 366,-100.7 412,-100.7 412,-81.7 366,-81.7"/>
<polygon fill="none" stroke="#000000" points="366,-81.7 366,-100.7 412,-100.7 412,-81.7 366,-81.7"/>
<text text-anchor="start" x="402.8862" y="-87.8" font-family="Helvetica,sans-Serif" font-size="11.00" fill="#000000"> &#160;</text>
<polygon fill="#ffffff" stroke="transparent" points="412,-81.7 412,-100.7 458,-100.7 458,-81.7 412,-81.7"/>
<polygon fill="none" stroke="#000000" points="412,-81.7 412,-100.7 458,-100.7 458,-81.7 412,-81.7"/>
<text text-anchor="start" x="448.8862" y="-87.8" font-family="Helvetica,sans-Serif" font-size="11.00" fill="#000000"> &#160;</text>
</a>
</g>
</g>
<!-- prison_supported -->
<g id="node2" class="node">
<title>prison_supported</title>
<g id="a_node2"><a xlink:href="../../tables/prison_supported.html" xlink:title="prison_supported" target="_top">
<polygon fill="#ffffff" stroke="transparent" points="40,-38.2 40,-99.2 197,-99.2 197,-38.2 40,-38.2"/>
<polygon fill="#f5f5f5" stroke="transparent" points="40.5,-75.7 40.5,-98.7 197.5,-98.7 197.5,-75.7 40.5,-75.7"/>
<polygon fill="none" stroke="#000000" points="40.5,-75.7 40.5,-98.7 197.5,-98.7 197.5,-75.7 40.5,-75.7"/>
<text text-anchor="start" x="45.5" y="-84.3" font-family="Helvetica,sans-Serif" font-weight="bold" font-size="11.00" fill="#000000">prison_supported</text>
<text text-anchor="start" x="163.0219" y="-83.8" font-family="Helvetica,sans-Serif" font-size="11.00" fill="#000000">[table]</text>
<polygon fill="none" stroke="#000000" points="40.5,-56.7 40.5,-75.7 197.5,-75.7 197.5,-56.7 40.5,-56.7"/>
<text text-anchor="start" x="43.5" y="-62.8" font-family="Helvetica,sans-Serif" font-size="11.00" fill="#000000">...</text>
<polygon fill="#ffffff" stroke="transparent" points="40.5,-37.7 40.5,-56.7 108.5,-56.7 108.5,-37.7 40.5,-37.7"/>
<polygon fill="none" stroke="#000000" points="40.5,-37.7 40.5,-56.7 108.5,-56.7 108.5,-37.7 40.5,-37.7"/>
<text text-anchor="start" x="43.5" y="-43.8" font-family="Helvetica,sans-Serif" font-size="11.00" fill="#000000"> &#160;</text>
<polygon fill="#ffffff" stroke="transparent" points="108.5,-37.7 108.5,-56.7 148.5,-56.7 148.5,-37.7 108.5,-37.7"/>
<polygon fill="none" stroke="#000000" points="108.5,-37.7 108.5,-56.7 148.5,-56.7 148.5,-37.7 108.5,-37.7"/>
<text text-anchor="start" x="139.3862" y="-43.8" font-family="Helvetica,sans-Serif" font-size="11.00" fill="#000000"> &#160;</text>
<polygon fill="#ffffff" stroke="transparent" points="148.5,-37.7 148.5,-56.7 197.5,-56.7 197.5,-37.7 148.5,-37.7"/>
<polygon fill="none" stroke="#000000" points="148.5,-37.7 148.5,-56.7 197.5,-56.7 197.5,-37.7 148.5,-37.7"/>
<text text-anchor="start" x="178.9053" y="-43.8" font-family="Helvetica,sans-Serif" font-size="11.00" fill="#000000">2 &gt;</text>
</a>
</g>
</g>
<!-- offender_key_worker&#45;&gt;prison_supported -->
<g id="edge1" class="edge">
<title>offender_key_worker:w&#45;&gt;prison_supported:e</title>
<path fill="none" stroke="#000000" stroke-dasharray="5,2" d="M263.618,-128.0714C233.9504,-115.911 237.9165,-65.7 197.5,-65.7"/>
<polygon fill="#000000" stroke="#000000" points="270.1304,-129.2616 277.3527,-134.2413 274.0652,-129.9808 278,-130.7 278,-130.7 278,-130.7 274.0652,-129.9808 278.6473,-127.1587 270.1304,-129.2616 270.1304,-129.2616"/>
<ellipse fill="none" stroke="#000000" cx="266.9825" cy="-128.6863" rx="3.2" ry="3.2"/>
</g>
<!-- key_worker -->
<g id="node3" class="node">
<title>key_worker</title>
<g id="a_node3"><a xlink:href="../../tables/key_worker.html" xlink:title="key_worker" target="_top">
<polygon fill="#ffffff" stroke="transparent" points="8,-120.7 8,-276.7 229,-276.7 229,-120.7 8,-120.7"/>
<polygon fill="#f5f5f5" stroke="transparent" points="10.5,-251.7 10.5,-274.7 227.5,-274.7 227.5,-251.7 10.5,-251.7"/>
<polygon fill="none" stroke="#000000" points="10.5,-251.7 10.5,-274.7 227.5,-274.7 227.5,-251.7 10.5,-251.7"/>
<text text-anchor="start" x="15.5" y="-260.3" font-family="Helvetica,sans-Serif" font-weight="bold" font-size="11.00" fill="#000000">key_worker</text>
<text text-anchor="start" x="192.5437" y="-259.8" font-family="Helvetica,sans-Serif" font-size="11.00" fill="#000000">[table]</text>
<polygon fill="none" stroke="#000000" points="10.5,-229.7 10.5,-251.7 166.5,-251.7 166.5,-229.7 10.5,-229.7"/>
<image xlink:href="../../images/primaryKeys.png" width="11px" height="12px" preserveAspectRatio="xMinYMin meet" x="15.5" y="-246.7"/>
<text text-anchor="start" x="30.5" y="-236.8" font-family="Helvetica,sans-Serif" font-size="11.00" fill="#000000">staff_id</text>
<polygon fill="none" stroke="#000000" points="166.5,-229.7 166.5,-251.7 227.5,-251.7 227.5,-229.7 166.5,-229.7"/>
<text text-anchor="start" x="169.5" y="-237.4" font-family="Helvetica,sans-Serif" font-size="11.00" fill="#000000">int8[19]</text>
<polygon fill="none" stroke="#000000" points="10.5,-207.7 10.5,-229.7 166.5,-229.7 166.5,-207.7 10.5,-207.7"/>
<text text-anchor="start" x="30.5" y="-214.8" font-family="Helvetica,sans-Serif" font-size="11.00" fill="#000000">status</text>
<polygon fill="none" stroke="#000000" points="166.5,-207.7 166.5,-229.7 227.5,-229.7 227.5,-207.7 166.5,-207.7"/>
<text text-anchor="start" x="169.494" y="-215.4" font-family="Helvetica,sans-Serif" font-size="11.00" fill="#000000">varchar[12]</text>
<polygon fill="none" stroke="#000000" points="10.5,-185.7 10.5,-207.7 166.5,-207.7 166.5,-185.7 10.5,-185.7"/>
<text text-anchor="start" x="30.5" y="-192.8" font-family="Helvetica,sans-Serif" font-size="11.00" fill="#000000">capacity</text>
<polygon fill="none" stroke="#000000" points="166.5,-185.7 166.5,-207.7 227.5,-207.7 227.5,-185.7 166.5,-185.7"/>
<text text-anchor="start" x="169.5" y="-193.4" font-family="Helvetica,sans-Serif" font-size="11.00" fill="#000000">int4[10]</text>
<polygon fill="none" stroke="#000000" points="10.5,-163.7 10.5,-185.7 166.5,-185.7 166.5,-163.7 10.5,-163.7"/>
<text text-anchor="start" x="30.5" y="-170.8" font-family="Helvetica,sans-Serif" font-size="11.00" fill="#000000">auto_allocation_flag</text>
<polygon fill="none" stroke="#000000" points="166.5,-163.7 166.5,-185.7 227.5,-185.7 227.5,-163.7 166.5,-163.7"/>
<text text-anchor="start" x="169.5" y="-171.4" font-family="Helvetica,sans-Serif" font-size="11.00" fill="#000000">bpchar[1]</text>
<polygon fill="none" stroke="#000000" points="10.5,-141.7 10.5,-163.7 166.5,-163.7 166.5,-141.7 10.5,-141.7"/>
<text text-anchor="start" x="30.5" y="-148.8" font-family="Helvetica,sans-Serif" font-size="11.00" fill="#000000">active_date</text>
<polygon fill="none" stroke="#000000" points="166.5,-141.7 166.5,-163.7 227.5,-163.7 227.5,-141.7 166.5,-141.7"/>
<text text-anchor="start" x="169.5" y="-149.4" font-family="Helvetica,sans-Serif" font-size="11.00" fill="#000000">date[13]</text>
<polygon fill="#ffffff" stroke="transparent" points="10.5,-122.7 10.5,-141.7 92.5,-141.7 92.5,-122.7 10.5,-122.7"/>
<polygon fill="none" stroke="#000000" points="10.5,-122.7 10.5,-141.7 92.5,-141.7 92.5,-122.7 10.5,-122.7"/>
<text text-anchor="start" x="13.5" y="-128.8" font-family="Helvetica,sans-Serif" font-size="11.00" fill="#000000">&lt; 0</text>
<polygon fill="#ffffff" stroke="transparent" points="92.5,-122.7 92.5,-141.7 166.5,-141.7 166.5,-122.7 92.5,-122.7"/>
<polygon fill="none" stroke="#000000" points="92.5,-122.7 92.5,-141.7 166.5,-141.7 166.5,-122.7 92.5,-122.7"/>
<text text-anchor="start" x="157.3862" y="-128.8" font-family="Helvetica,sans-Serif" font-size="11.00" fill="#000000"> &#160;</text>
<polygon fill="#ffffff" stroke="transparent" points="166.5,-122.7 166.5,-141.7 227.5,-141.7 227.5,-122.7 166.5,-122.7"/>
<polygon fill="none" stroke="#000000" points="166.5,-122.7 166.5,-141.7 227.5,-141.7 227.5,-122.7 166.5,-122.7"/>
<text text-anchor="start" x="208.9053" y="-128.8" font-family="Helvetica,sans-Serif" font-size="11.00" fill="#000000">1 &gt;</text>
<polygon fill="none" stroke="#000000" stroke-width="2" points="9,-121.7 9,-275.7 228,-275.7 228,-121.7 9,-121.7"/>
</a>
</g>
</g>
<!-- offender_key_worker&#45;&gt;key_worker -->
<g id="edge2" class="edge">
<title>offender_key_worker:w&#45;&gt;key_worker:e</title>
<path fill="none" stroke="#000000" stroke-dasharray="5,2" d="M264.158,-179.4466C247.1101,-194.5798 258.3754,-240.7 227.5,-240.7"/>
<polygon fill="#000000" stroke="#000000" points="270.4326,-177.295 279.1677,-178.1054 274.2163,-175.9975 278,-174.7 278,-174.7 278,-174.7 274.2163,-175.9975 276.8323,-171.2946 270.4326,-177.295 270.4326,-177.295"/>
<ellipse fill="none" stroke="#000000" cx="267.4056" cy="-178.333" rx="3.2" ry="3.2"/>
</g>
</g>
</svg>
