<?xml version="1.0" encoding="UTF-8" standalone="no"?>
<!DOCTYPE svg PUBLIC "-//W3C//DTD SVG 1.1//EN"
 "http://www.w3.org/Graphics/SVG/1.1/DTD/svg11.dtd">
<!-- Generated by graphviz version 2.40.1 (20161225.0304)
 -->
<!-- Title: twoDegreesRelationshipsDiagramImplied Pages: 1 -->
<svg width="475pt" height="481pt"
 viewBox="0.00 0.00 475.00 481.20" xmlns="http://www.w3.org/2000/svg" xmlns:xlink="http://www.w3.org/1999/xlink">
<g id="graph0" class="graph" transform="scale(1 1) rotate(0) translate(4 477.2)">
<title>twoDegreesRelationshipsDiagramImplied</title>
<polygon fill="#ffffff" stroke="transparent" points="-4,4 -4,-477.2 471,-477.2 471,4 -4,4"/>
<text text-anchor="middle" x="72.4936" y="-7.3" font-family="Helvetica,sans-Serif" font-size="11.00" fill="#000000">Generated by SchemaSpy</text>
<!-- keyworker_entry -->
<g id="node1" class="node">
<title>keyworker_entry</title>
<g id="a_node1"><a xlink:href="../../tables/keyworker_entry.html" xlink:title="keyworker_entry" target="_top">
<polygon fill="#ffffff" stroke="transparent" points="260,-408.2 260,-469.2 412,-469.2 412,-408.2 260,-408.2"/>
<polygon fill="#f5f5f5" stroke="transparent" points="260,-445.7 260,-468.7 412,-468.7 412,-445.7 260,-445.7"/>
<polygon fill="none" stroke="#000000" points="260,-445.7 260,-468.7 412,-468.7 412,-445.7 260,-445.7"/>
<text text-anchor="start" x="265" y="-454.3" font-family="Helvetica,sans-Serif" font-weight="bold" font-size="11.00" fill="#000000">keyworker_entry</text>
<text text-anchor="start" x="377.5219" y="-453.8" font-family="Helvetica,sans-Serif" font-size="11.00" fill="#000000">[table]</text>
<polygon fill="none" stroke="#000000" points="260,-426.7 260,-445.7 412,-445.7 412,-426.7 260,-426.7"/>
<text text-anchor="start" x="263" y="-432.8" font-family="Helvetica,sans-Serif" font-size="11.00" fill="#000000">...</text>
<polygon fill="#ffffff" stroke="transparent" points="260,-407.7 260,-426.7 334,-426.7 334,-407.7 260,-407.7"/>
<polygon fill="none" stroke="#000000" points="260,-407.7 260,-426.7 334,-426.7 334,-407.7 260,-407.7"/>
<text text-anchor="start" x="263" y="-413.8" font-family="Helvetica,sans-Serif" font-size="11.00" fill="#000000">&lt; 1</text>
<polygon fill="#ffffff" stroke="transparent" points="334,-407.7 334,-426.7 373,-426.7 373,-407.7 334,-407.7"/>
<polygon fill="none" stroke="#000000" points="334,-407.7 334,-426.7 373,-426.7 373,-407.7 334,-407.7"/>
<text text-anchor="start" x="363.8862" y="-413.8" font-family="Helvetica,sans-Serif" font-size="11.00" fill="#000000"> &#160;</text>
<polygon fill="#ffffff" stroke="transparent" points="373,-407.7 373,-426.7 412,-426.7 412,-407.7 373,-407.7"/>
<polygon fill="none" stroke="#000000" points="373,-407.7 373,-426.7 412,-426.7 412,-407.7 373,-407.7"/>
<text text-anchor="start" x="402.8862" y="-413.8" font-family="Helvetica,sans-Serif" font-size="11.00" fill="#000000"> &#160;</text>
</a>
</g>
</g>
<!-- key_worker -->
<g id="node2" class="node">
<title>key_worker</title>
<g id="a_node2"><a xlink:href="../../tables/key_worker.html" xlink:title="key_worker" target="_top">
<polygon fill="#ffffff" stroke="transparent" points="8,-236.2 8,-319.2 164,-319.2 164,-236.2 8,-236.2"/>
<polygon fill="#f5f5f5" stroke="transparent" points="8,-295.7 8,-318.7 164,-318.7 164,-295.7 8,-295.7"/>
<polygon fill="none" stroke="#000000" points="8,-295.7 8,-318.7 164,-318.7 164,-295.7 8,-295.7"/>
<text text-anchor="start" x="13" y="-304.3" font-family="Helvetica,sans-Serif" font-weight="bold" font-size="11.00" fill="#000000">key_worker</text>
<text text-anchor="start" x="129.0437" y="-303.8" font-family="Helvetica,sans-Serif" font-size="11.00" fill="#000000">[table]</text>
<polygon fill="none" stroke="#000000" points="8,-273.7 8,-295.7 164,-295.7 164,-273.7 8,-273.7"/>
<image xlink:href="../../images/primaryKeys.png" width="11px" height="12px" preserveAspectRatio="xMinYMin meet" x="13" y="-290.7"/>
<text text-anchor="start" x="28" y="-280.8" font-family="Helvetica,sans-Serif" font-size="11.00" fill="#000000">staff_id</text>
<polygon fill="none" stroke="#000000" points="8,-254.7 8,-273.7 164,-273.7 164,-254.7 8,-254.7"/>
<text text-anchor="start" x="11" y="-260.8" font-family="Helvetica,sans-Serif" font-size="11.00" fill="#000000">...</text>
<polygon fill="#ffffff" stroke="transparent" points="8,-235.7 8,-254.7 75,-254.7 75,-235.7 8,-235.7"/>
<polygon fill="none" stroke="#000000" points="8,-235.7 8,-254.7 75,-254.7 75,-235.7 8,-235.7"/>
<text text-anchor="start" x="11" y="-241.8" font-family="Helvetica,sans-Serif" font-size="11.00" fill="#000000"> &#160;</text>
<polygon fill="#ffffff" stroke="transparent" points="75,-235.7 75,-254.7 115,-254.7 115,-235.7 75,-235.7"/>
<polygon fill="none" stroke="#000000" points="75,-235.7 75,-254.7 115,-254.7 115,-235.7 75,-235.7"/>
<text text-anchor="start" x="105.8862" y="-241.8" font-family="Helvetica,sans-Serif" font-size="11.00" fill="#000000"> &#160;</text>
<polygon fill="#ffffff" stroke="transparent" points="115,-235.7 115,-254.7 164,-254.7 164,-235.7 115,-235.7"/>
<polygon fill="none" stroke="#000000" points="115,-235.7 115,-254.7 164,-254.7 164,-235.7 115,-235.7"/>
<text text-anchor="start" x="145.4053" y="-241.8" font-family="Helvetica,sans-Serif" font-size="11.00" fill="#000000">3 &gt;</text>
</a>
</g>
</g>
<!-- keyworker_entry&#45;&gt;key_worker -->
<g id="edge1" class="edge">
<title>keyworker_entry:w&#45;&gt;key_worker:e</title>
<path fill="none" stroke="#000000" stroke-dasharray="5,2" d="M245.4466,-434.209C227.2242,-429.9534 219.7461,-416.8132 205,-397.7 172.365,-355.4001 217.4258,-284.7 164,-284.7"/>
<polygon fill="#000000" stroke="#000000" points="252.0417,-434.8846 259.6331,-439.2813 256.0208,-435.2923 260,-435.7 260,-435.7 260,-435.7 256.0208,-435.2923 260.3669,-432.1187 252.0417,-434.8846 252.0417,-434.8846"/>
<ellipse fill="none" stroke="#000000" cx="248.8583" cy="-434.5585" rx="3.2" ry="3.2"/>
</g>
<!-- keyworker_session -->
<g id="node3" class="node">
<title>keyworker_session</title>
<g id="a_node3"><a xlink:href="../../tables/keyworker_session.html" xlink:title="keyworker_session" target="_top">
<polygon fill="#ffffff" stroke="transparent" points="213,-120.7 213,-386.7 459,-386.7 459,-120.7 213,-120.7"/>
<polygon fill="#f5f5f5" stroke="transparent" points="215,-361.7 215,-384.7 457,-384.7 457,-361.7 215,-361.7"/>
<polygon fill="none" stroke="#000000" points="215,-361.7 215,-384.7 457,-384.7 457,-361.7 215,-361.7"/>
<text text-anchor="start" x="220" y="-370.3" font-family="Helvetica,sans-Serif" font-weight="bold" font-size="11.00" fill="#000000">keyworker_session</text>
<text text-anchor="start" x="422.0437" y="-369.8" font-family="Helvetica,sans-Serif" font-size="11.00" fill="#000000">[table]</text>
<polygon fill="none" stroke="#000000" points="215,-339.7 215,-361.7 363,-361.7 363,-339.7 215,-339.7"/>
<image xlink:href="../../images/primaryKeys.png" width="11px" height="12px" preserveAspectRatio="xMinYMin meet" x="220" y="-356.7"/>
<text text-anchor="start" x="235" y="-346.8" font-family="Helvetica,sans-Serif" font-size="11.00" fill="#000000">id</text>
<polygon fill="none" stroke="#000000" points="363,-339.7 363,-361.7 457,-361.7 457,-339.7 363,-339.7"/>
<text text-anchor="start" x="365.9758" y="-347.4" font-family="Helvetica,sans-Serif" font-size="11.00" fill="#000000">uuid[2147483647]</text>
<polygon fill="#ffffff" stroke="transparent" points="215,-317.7 215,-339.7 363,-339.7 363,-317.7 215,-317.7"/>
<polygon fill="none" stroke="#000000" points="215,-317.7 215,-339.7 363,-339.7 363,-317.7 215,-317.7"/>
<text text-anchor="start" x="235" y="-324.8" font-family="Helvetica,sans-Serif" font-size="11.00" fill="#000000">occurred_at</text>
<polygon fill="none" stroke="#000000" points="363,-317.7 363,-339.7 457,-339.7 457,-317.7 363,-317.7"/>
<text text-anchor="start" x="366" y="-325.4" font-family="Helvetica,sans-Serif" font-size="11.00" fill="#000000">timestamp[29,6]</text>
<polygon fill="#ffffff" stroke="transparent" points="215,-295.7 215,-317.7 363,-317.7 363,-295.7 215,-295.7"/>
<polygon fill="none" stroke="#000000" points="215,-295.7 215,-317.7 363,-317.7 363,-295.7 215,-295.7"/>
<text text-anchor="start" x="235" y="-302.8" font-family="Helvetica,sans-Serif" font-size="11.00" fill="#000000">person_identifier</text>
<polygon fill="none" stroke="#000000" points="363,-295.7 363,-317.7 457,-317.7 457,-295.7 363,-295.7"/>
<text text-anchor="start" x="366" y="-303.4" font-family="Helvetica,sans-Serif" font-size="11.00" fill="#000000">varchar[7]</text>
<polygon fill="#ffffff" stroke="transparent" points="215,-273.7 215,-295.7 363,-295.7 363,-273.7 215,-273.7"/>
<polygon fill="none" stroke="#000000" points="215,-273.7 215,-295.7 363,-295.7 363,-273.7 215,-273.7"/>
<image xlink:href="../../images/foreignKeys.png" width="11px" height="12px" preserveAspectRatio="xMinYMin meet" x="220" y="-290.7"/>
<text text-anchor="start" x="235" y="-280.8" font-family="Helvetica,sans-Serif" font-size="11.00" fill="#000000">staff_id</text>
<polygon fill="none" stroke="#000000" points="363,-273.7 363,-295.7 457,-295.7 457,-273.7 363,-273.7"/>
<text text-anchor="start" x="366" y="-281.4" font-family="Helvetica,sans-Serif" font-size="11.00" fill="#000000">int8[19]</text>
<polygon fill="none" stroke="#000000" points="215,-251.7 215,-273.7 363,-273.7 363,-251.7 215,-251.7"/>
<text text-anchor="start" x="235" y="-258.8" font-family="Helvetica,sans-Serif" font-size="11.00" fill="#000000">staff_username</text>
<polygon fill="none" stroke="#000000" points="363,-251.7 363,-273.7 457,-273.7 457,-251.7 363,-251.7"/>
<text text-anchor="start" x="366" y="-259.4" font-family="Helvetica,sans-Serif" font-size="11.00" fill="#000000">varchar[64]</text>
<polygon fill="#ffffff" stroke="transparent" points="215,-229.7 215,-251.7 363,-251.7 363,-229.7 215,-229.7"/>
<polygon fill="none" stroke="#000000" points="215,-229.7 215,-251.7 363,-251.7 363,-229.7 215,-229.7"/>
<text text-anchor="start" x="235" y="-236.8" font-family="Helvetica,sans-Serif" font-size="11.00" fill="#000000">prison_code</text>
<polygon fill="none" stroke="#000000" points="363,-229.7 363,-251.7 457,-251.7 457,-229.7 363,-229.7"/>
<text text-anchor="start" x="366" y="-237.4" font-family="Helvetica,sans-Serif" font-size="11.00" fill="#000000">varchar[6]</text>
<polygon fill="none" stroke="#000000" points="215,-207.7 215,-229.7 363,-229.7 363,-207.7 215,-207.7"/>
<text text-anchor="start" x="235" y="-214.8" font-family="Helvetica,sans-Serif" font-size="11.00" fill="#000000">created_at</text>
<polygon fill="none" stroke="#000000" points="363,-207.7 363,-229.7 457,-229.7 457,-207.7 363,-207.7"/>
<text text-anchor="start" x="366" y="-215.4" font-family="Helvetica,sans-Serif" font-size="11.00" fill="#000000">timestamp[29,6]</text>
<polygon fill="none" stroke="#000000" points="215,-185.7 215,-207.7 363,-207.7 363,-185.7 215,-185.7"/>
<text text-anchor="start" x="235" y="-192.8" font-family="Helvetica,sans-Serif" font-size="11.00" fill="#000000">version</text>
<polygon fill="none" stroke="#000000" points="363,-185.7 363,-207.7 457,-207.7 457,-185.7 363,-185.7"/>
<text text-anchor="start" x="366" y="-193.4" font-family="Helvetica,sans-Serif" font-size="11.00" fill="#000000">int4[10]</text>
<polygon fill="none" stroke="#000000" points="215,-163.7 215,-185.7 363,-185.7 363,-163.7 215,-163.7"/>
<text text-anchor="start" x="235" y="-170.8" font-family="Helvetica,sans-Serif" font-size="11.00" fill="#000000">text_length</text>
<polygon fill="none" stroke="#000000" points="363,-163.7 363,-185.7 457,-185.7 457,-163.7 363,-163.7"/>
<text text-anchor="start" x="366" y="-171.4" font-family="Helvetica,sans-Serif" font-size="11.00" fill="#000000">int4[10]</text>
<polygon fill="none" stroke="#000000" points="215,-141.7 215,-163.7 363,-163.7 363,-141.7 215,-141.7"/>
<text text-anchor="start" x="235" y="-148.8" font-family="Helvetica,sans-Serif" font-size="11.00" fill="#000000">amendment_count</text>
<polygon fill="none" stroke="#000000" points="363,-141.7 363,-163.7 457,-163.7 457,-141.7 363,-141.7"/>
<text text-anchor="start" x="366" y="-149.4" font-family="Helvetica,sans-Serif" font-size="11.00" fill="#000000">int4[10]</text>
<polygon fill="#ffffff" stroke="transparent" points="215,-122.7 215,-141.7 293,-141.7 293,-122.7 215,-122.7"/>
<polygon fill="none" stroke="#000000" points="215,-122.7 215,-141.7 293,-141.7 293,-122.7 215,-122.7"/>
<text text-anchor="start" x="218" y="-128.8" font-family="Helvetica,sans-Serif" font-size="11.00" fill="#000000">&lt; 1</text>
<polygon fill="#ffffff" stroke="transparent" points="293,-122.7 293,-141.7 363,-141.7 363,-122.7 293,-122.7"/>
<polygon fill="none" stroke="#000000" points="293,-122.7 293,-141.7 363,-141.7 363,-122.7 293,-122.7"/>
<text text-anchor="start" x="353.8862" y="-128.8" font-family="Helvetica,sans-Serif" font-size="11.00" fill="#000000"> &#160;</text>
<polygon fill="#ffffff" stroke="transparent" points="363,-122.7 363,-141.7 457,-141.7 457,-122.7 363,-122.7"/>
<polygon fill="none" stroke="#000000" points="363,-122.7 363,-141.7 457,-141.7 457,-122.7 363,-122.7"/>
<text text-anchor="start" x="438.4053" y="-128.8" font-family="Helvetica,sans-Serif" font-size="11.00" fill="#000000">0 &gt;</text>
<polygon fill="none" stroke="#000000" stroke-width="2" points="214,-121.7 214,-385.7 458,-385.7 458,-121.7 214,-121.7"/>
</a>
</g>
</g>
<!-- keyworker_session&#45;&gt;key_worker -->
<g id="edge2" class="edge">
<title>keyworker_session:w&#45;&gt;key_worker:e</title>
<path fill="none" stroke="#000000" stroke-dasharray="5,2" d="M200.276,-284.7C188.2815,-284.7 180.8229,-284.7 164,-284.7"/>
<polygon fill="#000000" stroke="#000000" points="207,-284.7001 215,-288.3 211,-284.7 215,-284.7 215,-284.7 215,-284.7 211,-284.7 215,-281.1 207,-284.7001 207,-284.7001"/>
<ellipse fill="none" stroke="#000000" cx="203.8" cy="-284.7001" rx="3.2" ry="3.2"/>
</g>
<!-- offender_key_worker -->
<g id="node4" class="node">
<title>offender_key_worker</title>
<g id="a_node4"><a xlink:href="../../tables/offender_key_worker.html" xlink:title="offender_key_worker" target="_top">
<polygon fill="#ffffff" stroke="transparent" points="246,-38.2 246,-99.2 426,-99.2 426,-38.2 246,-38.2"/>
<polygon fill="#f5f5f5" stroke="transparent" points="246,-75.7 246,-98.7 426,-98.7 426,-75.7 246,-75.7"/>
<polygon fill="none" stroke="#000000" points="246,-75.7 246,-98.7 426,-98.7 426,-75.7 246,-75.7"/>
<text text-anchor="start" x="251" y="-84.3" font-family="Helvetica,sans-Serif" font-weight="bold" font-size="11.00" fill="#000000">offender_key_worker</text>
<text text-anchor="start" x="391.5219" y="-83.8" font-family="Helvetica,sans-Serif" font-size="11.00" fill="#000000">[table]</text>
<polygon fill="none" stroke="#000000" points="246,-56.7 246,-75.7 426,-75.7 426,-56.7 246,-56.7"/>
<text text-anchor="start" x="249" y="-62.8" font-family="Helvetica,sans-Serif" font-size="11.00" fill="#000000">...</text>
<polygon fill="#ffffff" stroke="transparent" points="246,-37.7 246,-56.7 334,-56.7 334,-37.7 246,-37.7"/>
<polygon fill="none" stroke="#000000" points="246,-37.7 246,-56.7 334,-56.7 334,-37.7 246,-37.7"/>
<text text-anchor="start" x="249" y="-43.8" font-family="Helvetica,sans-Serif" font-size="11.00" fill="#000000">&lt; 2</text>
<polygon fill="#ffffff" stroke="transparent" points="334,-37.7 334,-56.7 380,-56.7 380,-37.7 334,-37.7"/>
<polygon fill="none" stroke="#000000" points="334,-37.7 334,-56.7 380,-56.7 380,-37.7 334,-37.7"/>
<text text-anchor="start" x="370.8862" y="-43.8" font-family="Helvetica,sans-Serif" font-size="11.00" fill="#000000"> &#160;</text>
<polygon fill="#ffffff" stroke="transparent" points="380,-37.7 380,-56.7 426,-56.7 426,-37.7 380,-37.7"/>
<polygon fill="none" stroke="#000000" points="380,-37.7 380,-56.7 426,-56.7 426,-37.7 380,-37.7"/>
<text text-anchor="start" x="416.8862" y="-43.8" font-family="Helvetica,sans-Serif" font-size="11.00" fill="#000000"> &#160;</text>
</a>
</g>
</g>
<!-- offender_key_worker&#45;&gt;key_worker -->
<g id="edge3" class="edge">
<title>offender_key_worker:w&#45;&gt;key_worker:e</title>
<path fill="none" stroke="#000000" stroke-dasharray="5,2" d="M231.5505,-68.5336C217.8232,-75.0536 214.8577,-92.0015 205,-110.7 167.9476,-180.9824 243.4512,-284.7 164,-284.7"/>
<polygon fill="#000000" stroke="#000000" points="238.1495,-67.2396 246.6928,-69.2327 242.0748,-66.4698 246,-65.7 246,-65.7 246,-65.7 242.0748,-66.4698 245.3072,-62.1673 238.1495,-67.2396 238.1495,-67.2396"/>
<ellipse fill="none" stroke="#000000" cx="235.0093" cy="-67.8554" rx="3.2" ry="3.2"/>
</g>
</g>
</svg>
