<?xml version="1.0" encoding="UTF-8" standalone="no"?>
<!DOCTYPE svg PUBLIC "-//W3C//DTD SVG 1.1//EN"
 "http://www.w3.org/Graphics/SVG/1.1/DTD/svg11.dtd">
<!-- Generated by graphviz version 2.40.1 (20161225.0304)
 -->
<!-- Title: twoDegreesRelationshipsDiagramImplied Pages: 1 -->
<svg width="562pt" height="727pt"
 viewBox="0.00 0.00 562.00 727.20" xmlns="http://www.w3.org/2000/svg" xmlns:xlink="http://www.w3.org/1999/xlink">
<g id="graph0" class="graph" transform="scale(1 1) rotate(0) translate(4 723.2)">
<title>twoDegreesRelationshipsDiagramImplied</title>
<polygon fill="#ffffff" stroke="transparent" points="-4,4 -4,-723.2 558,-723.2 558,4 -4,4"/>
<text text-anchor="middle" x="72.4936" y="-7.3" font-family="Helvetica,sans-Serif" font-size="11.00" fill="#000000">Generated by SchemaSpy</text>
<!-- keyworker_entry -->
<g id="node1" class="node">
<title>keyworker_entry</title>
<g id="a_node1"><a xlink:href="../../tables/keyworker_entry.html" xlink:title="keyworker_entry" target="_top">
<polygon fill="#ffffff" stroke="transparent" points="347,-654.2 347,-715.2 499,-715.2 499,-654.2 347,-654.2"/>
<polygon fill="#f5f5f5" stroke="transparent" points="347,-691.7 347,-714.7 499,-714.7 499,-691.7 347,-691.7"/>
<polygon fill="none" stroke="#000000" points="347,-691.7 347,-714.7 499,-714.7 499,-691.7 347,-691.7"/>
<text text-anchor="start" x="352" y="-700.3" font-family="Helvetica,sans-Serif" font-weight="bold" font-size="11.00" fill="#000000">keyworker_entry</text>
<text text-anchor="start" x="464.5219" y="-699.8" font-family="Helvetica,sans-Serif" font-size="11.00" fill="#000000">[table]</text>
<polygon fill="none" stroke="#000000" points="347,-672.7 347,-691.7 499,-691.7 499,-672.7 347,-672.7"/>
<text text-anchor="start" x="350" y="-678.8" font-family="Helvetica,sans-Serif" font-size="11.00" fill="#000000">...</text>
<polygon fill="#ffffff" stroke="transparent" points="347,-653.7 347,-672.7 421,-672.7 421,-653.7 347,-653.7"/>
<polygon fill="none" stroke="#000000" points="347,-653.7 347,-672.7 421,-672.7 421,-653.7 347,-653.7"/>
<text text-anchor="start" x="350" y="-659.8" font-family="Helvetica,sans-Serif" font-size="11.00" fill="#000000">&lt; 1</text>
<polygon fill="#ffffff" stroke="transparent" points="421,-653.7 421,-672.7 460,-672.7 460,-653.7 421,-653.7"/>
<polygon fill="none" stroke="#000000" points="421,-653.7 421,-672.7 460,-672.7 460,-653.7 421,-653.7"/>
<text text-anchor="start" x="450.8862" y="-659.8" font-family="Helvetica,sans-Serif" font-size="11.00" fill="#000000"> &#160;</text>
<polygon fill="#ffffff" stroke="transparent" points="460,-653.7 460,-672.7 499,-672.7 499,-653.7 460,-653.7"/>
<polygon fill="none" stroke="#000000" points="460,-653.7 460,-672.7 499,-672.7 499,-653.7 460,-653.7"/>
<text text-anchor="start" x="489.8862" y="-659.8" font-family="Helvetica,sans-Serif" font-size="11.00" fill="#000000"> &#160;</text>
</a>
</g>
</g>
<!-- prison_migration_date_history -->
<g id="node2" class="node">
<title>prison_migration_date_history</title>
<g id="a_node2"><a xlink:href="../../tables/prison_migration_date_history.html" xlink:title="prison_migration_date_history" target="_top">
<polygon fill="#ffffff" stroke="transparent" points="8,-222.2 8,-305.2 251,-305.2 251,-222.2 8,-222.2"/>
<polygon fill="#f5f5f5" stroke="transparent" points="8.5,-281.7 8.5,-304.7 251.5,-304.7 251.5,-281.7 8.5,-281.7"/>
<polygon fill="none" stroke="#000000" points="8.5,-281.7 8.5,-304.7 251.5,-304.7 251.5,-281.7 8.5,-281.7"/>
<text text-anchor="start" x="13.5" y="-290.3" font-family="Helvetica,sans-Serif" font-weight="bold" font-size="11.00" fill="#000000">prison_migration_date_history</text>
<text text-anchor="start" x="217.0219" y="-289.8" font-family="Helvetica,sans-Serif" font-size="11.00" fill="#000000">[table]</text>
<polygon fill="none" stroke="#000000" points="8.5,-259.7 8.5,-281.7 251.5,-281.7 251.5,-259.7 8.5,-259.7"/>
<image xlink:href="../../images/primaryKeys.png" width="11px" height="12px" preserveAspectRatio="xMinYMin meet" x="13.5" y="-276.7"/>
<text text-anchor="start" x="37.5" y="-266.8" font-family="Helvetica,sans-Serif" font-size="11.00" fill="#000000">prison_code</text>
<polygon fill="none" stroke="#000000" points="8.5,-240.7 8.5,-259.7 251.5,-259.7 251.5,-240.7 8.5,-240.7"/>
<text text-anchor="start" x="11.5" y="-246.8" font-family="Helvetica,sans-Serif" font-size="11.00" fill="#000000">...</text>
<polygon fill="#ffffff" stroke="transparent" points="8.5,-221.7 8.5,-240.7 119.5,-240.7 119.5,-221.7 8.5,-221.7"/>
<polygon fill="none" stroke="#000000" points="8.5,-221.7 8.5,-240.7 119.5,-240.7 119.5,-221.7 8.5,-221.7"/>
<text text-anchor="start" x="11.5" y="-227.8" font-family="Helvetica,sans-Serif" font-size="11.00" fill="#000000"> &#160;</text>
<polygon fill="#ffffff" stroke="transparent" points="119.5,-221.7 119.5,-240.7 180.5,-240.7 180.5,-221.7 119.5,-221.7"/>
<polygon fill="none" stroke="#000000" points="119.5,-221.7 119.5,-240.7 180.5,-240.7 180.5,-221.7 119.5,-221.7"/>
<text text-anchor="start" x="171.3862" y="-227.8" font-family="Helvetica,sans-Serif" font-size="11.00" fill="#000000"> &#160;</text>
<polygon fill="#ffffff" stroke="transparent" points="180.5,-221.7 180.5,-240.7 251.5,-240.7 251.5,-221.7 180.5,-221.7"/>
<polygon fill="none" stroke="#000000" points="180.5,-221.7 180.5,-240.7 251.5,-240.7 251.5,-221.7 180.5,-221.7"/>
<text text-anchor="start" x="232.9053" y="-227.8" font-family="Helvetica,sans-Serif" font-size="11.00" fill="#000000">6 &gt;</text>
</a>
</g>
</g>
<!-- keyworker_entry&#45;&gt;prison_migration_date_history -->
<g id="edge1" class="edge">
<title>keyworker_entry:w&#45;&gt;prison_migration_date_history:e</title>
<path fill="none" stroke="#000000" stroke-dasharray="5,2" d="M332.467,-680.4351C313.413,-676.68 304.4124,-664.5402 292,-643.7 249.3354,-572.0669 334.8761,-270.7 251.5,-270.7"/>
<polygon fill="#000000" stroke="#000000" points="339.0301,-681.0063 346.6878,-685.2864 343.0151,-681.3531 347,-681.7 347,-681.7 347,-681.7 343.0151,-681.3531 347.3122,-678.1136 339.0301,-681.0063 339.0301,-681.0063"/>
<ellipse fill="none" stroke="#000000" cx="335.8422" cy="-680.7288" rx="3.2" ry="3.2"/>
</g>
<!-- keyworker_session -->
<g id="node3" class="node">
<title>keyworker_session</title>
<g id="a_node3"><a xlink:href="../../tables/keyworker_session.html" xlink:title="keyworker_session" target="_top">
<polygon fill="#ffffff" stroke="transparent" points="300,-366.7 300,-632.7 546,-632.7 546,-366.7 300,-366.7"/>
<polygon fill="#f5f5f5" stroke="transparent" points="302,-607.7 302,-630.7 544,-630.7 544,-607.7 302,-607.7"/>
<polygon fill="none" stroke="#000000" points="302,-607.7 302,-630.7 544,-630.7 544,-607.7 302,-607.7"/>
<text text-anchor="start" x="307" y="-616.3" font-family="Helvetica,sans-Serif" font-weight="bold" font-size="11.00" fill="#000000">keyworker_session</text>
<text text-anchor="start" x="509.0437" y="-615.8" font-family="Helvetica,sans-Serif" font-size="11.00" fill="#000000">[table]</text>
<polygon fill="none" stroke="#000000" points="302,-585.7 302,-607.7 450,-607.7 450,-585.7 302,-585.7"/>
<image xlink:href="../../images/primaryKeys.png" width="11px" height="12px" preserveAspectRatio="xMinYMin meet" x="307" y="-602.7"/>
<text text-anchor="start" x="322" y="-592.8" font-family="Helvetica,sans-Serif" font-size="11.00" fill="#000000">id</text>
<polygon fill="none" stroke="#000000" points="450,-585.7 450,-607.7 544,-607.7 544,-585.7 450,-585.7"/>
<text text-anchor="start" x="452.9758" y="-593.4" font-family="Helvetica,sans-Serif" font-size="11.00" fill="#000000">uuid[2147483647]</text>
<polygon fill="#ffffff" stroke="transparent" points="302,-563.7 302,-585.7 450,-585.7 450,-563.7 302,-563.7"/>
<polygon fill="none" stroke="#000000" points="302,-563.7 302,-585.7 450,-585.7 450,-563.7 302,-563.7"/>
<text text-anchor="start" x="322" y="-570.8" font-family="Helvetica,sans-Serif" font-size="11.00" fill="#000000">occurred_at</text>
<polygon fill="none" stroke="#000000" points="450,-563.7 450,-585.7 544,-585.7 544,-563.7 450,-563.7"/>
<text text-anchor="start" x="453" y="-571.4" font-family="Helvetica,sans-Serif" font-size="11.00" fill="#000000">timestamp[29,6]</text>
<polygon fill="#ffffff" stroke="transparent" points="302,-541.7 302,-563.7 450,-563.7 450,-541.7 302,-541.7"/>
<polygon fill="none" stroke="#000000" points="302,-541.7 302,-563.7 450,-563.7 450,-541.7 302,-541.7"/>
<text text-anchor="start" x="322" y="-548.8" font-family="Helvetica,sans-Serif" font-size="11.00" fill="#000000">person_identifier</text>
<polygon fill="none" stroke="#000000" points="450,-541.7 450,-563.7 544,-563.7 544,-541.7 450,-541.7"/>
<text text-anchor="start" x="453" y="-549.4" font-family="Helvetica,sans-Serif" font-size="11.00" fill="#000000">varchar[7]</text>
<polygon fill="#ffffff" stroke="transparent" points="302,-519.7 302,-541.7 450,-541.7 450,-519.7 302,-519.7"/>
<polygon fill="none" stroke="#000000" points="302,-519.7 302,-541.7 450,-541.7 450,-519.7 302,-519.7"/>
<text text-anchor="start" x="322" y="-526.8" font-family="Helvetica,sans-Serif" font-size="11.00" fill="#000000">staff_id</text>
<polygon fill="none" stroke="#000000" points="450,-519.7 450,-541.7 544,-541.7 544,-519.7 450,-519.7"/>
<text text-anchor="start" x="453" y="-527.4" font-family="Helvetica,sans-Serif" font-size="11.00" fill="#000000">int8[19]</text>
<polygon fill="none" stroke="#000000" points="302,-497.7 302,-519.7 450,-519.7 450,-497.7 302,-497.7"/>
<text text-anchor="start" x="322" y="-504.8" font-family="Helvetica,sans-Serif" font-size="11.00" fill="#000000">staff_username</text>
<polygon fill="none" stroke="#000000" points="450,-497.7 450,-519.7 544,-519.7 544,-497.7 450,-497.7"/>
<text text-anchor="start" x="453" y="-505.4" font-family="Helvetica,sans-Serif" font-size="11.00" fill="#000000">varchar[64]</text>
<polygon fill="#ffffff" stroke="transparent" points="302,-475.7 302,-497.7 450,-497.7 450,-475.7 302,-475.7"/>
<polygon fill="none" stroke="#000000" points="302,-475.7 302,-497.7 450,-497.7 450,-475.7 302,-475.7"/>
<image xlink:href="../../images/foreignKeys.png" width="11px" height="12px" preserveAspectRatio="xMinYMin meet" x="307" y="-492.7"/>
<text text-anchor="start" x="322" y="-482.8" font-family="Helvetica,sans-Serif" font-size="11.00" fill="#000000">prison_code</text>
<polygon fill="none" stroke="#000000" points="450,-475.7 450,-497.7 544,-497.7 544,-475.7 450,-475.7"/>
<text text-anchor="start" x="453" y="-483.4" font-family="Helvetica,sans-Serif" font-size="11.00" fill="#000000">varchar[6]</text>
<polygon fill="none" stroke="#000000" points="302,-453.7 302,-475.7 450,-475.7 450,-453.7 302,-453.7"/>
<text text-anchor="start" x="322" y="-460.8" font-family="Helvetica,sans-Serif" font-size="11.00" fill="#000000">created_at</text>
<polygon fill="none" stroke="#000000" points="450,-453.7 450,-475.7 544,-475.7 544,-453.7 450,-453.7"/>
<text text-anchor="start" x="453" y="-461.4" font-family="Helvetica,sans-Serif" font-size="11.00" fill="#000000">timestamp[29,6]</text>
<polygon fill="none" stroke="#000000" points="302,-431.7 302,-453.7 450,-453.7 450,-431.7 302,-431.7"/>
<text text-anchor="start" x="322" y="-438.8" font-family="Helvetica,sans-Serif" font-size="11.00" fill="#000000">version</text>
<polygon fill="none" stroke="#000000" points="450,-431.7 450,-453.7 544,-453.7 544,-431.7 450,-431.7"/>
<text text-anchor="start" x="453" y="-439.4" font-family="Helvetica,sans-Serif" font-size="11.00" fill="#000000">int4[10]</text>
<polygon fill="none" stroke="#000000" points="302,-409.7 302,-431.7 450,-431.7 450,-409.7 302,-409.7"/>
<text text-anchor="start" x="322" y="-416.8" font-family="Helvetica,sans-Serif" font-size="11.00" fill="#000000">text_length</text>
<polygon fill="none" stroke="#000000" points="450,-409.7 450,-431.7 544,-431.7 544,-409.7 450,-409.7"/>
<text text-anchor="start" x="453" y="-417.4" font-family="Helvetica,sans-Serif" font-size="11.00" fill="#000000">int4[10]</text>
<polygon fill="none" stroke="#000000" points="302,-387.7 302,-409.7 450,-409.7 450,-387.7 302,-387.7"/>
<text text-anchor="start" x="322" y="-394.8" font-family="Helvetica,sans-Serif" font-size="11.00" fill="#000000">amendment_count</text>
<polygon fill="none" stroke="#000000" points="450,-387.7 450,-409.7 544,-409.7 544,-387.7 450,-387.7"/>
<text text-anchor="start" x="453" y="-395.4" font-family="Helvetica,sans-Serif" font-size="11.00" fill="#000000">int4[10]</text>
<polygon fill="#ffffff" stroke="transparent" points="302,-368.7 302,-387.7 380,-387.7 380,-368.7 302,-368.7"/>
<polygon fill="none" stroke="#000000" points="302,-368.7 302,-387.7 380,-387.7 380,-368.7 302,-368.7"/>
<text text-anchor="start" x="305" y="-374.8" font-family="Helvetica,sans-Serif" font-size="11.00" fill="#000000">&lt; 1</text>
<polygon fill="#ffffff" stroke="transparent" points="380,-368.7 380,-387.7 450,-387.7 450,-368.7 380,-368.7"/>
<polygon fill="none" stroke="#000000" points="380,-368.7 380,-387.7 450,-387.7 450,-368.7 380,-368.7"/>
<text text-anchor="start" x="440.8862" y="-374.8" font-family="Helvetica,sans-Serif" font-size="11.00" fill="#000000"> &#160;</text>
<polygon fill="#ffffff" stroke="transparent" points="450,-368.7 450,-387.7 544,-387.7 544,-368.7 450,-368.7"/>
<polygon fill="none" stroke="#000000" points="450,-368.7 450,-387.7 544,-387.7 544,-368.7 450,-368.7"/>
<text text-anchor="start" x="525.4053" y="-374.8" font-family="Helvetica,sans-Serif" font-size="11.00" fill="#000000">0 &gt;</text>
<polygon fill="none" stroke="#000000" stroke-width="2" points="301,-367.7 301,-631.7 545,-631.7 545,-367.7 301,-367.7"/>
</a>
</g>
</g>
<!-- keyworker_session&#45;&gt;prison_migration_date_history -->
<g id="edge2" class="edge">
<title>keyworker_session:w&#45;&gt;prison_migration_date_history:e</title>
<path fill="none" stroke="#000000" stroke-dasharray="5,2" d="M287.519,-484.6996C219.2402,-462.9242 344.5047,-270.7 251.5,-270.7"/>
<polygon fill="#000000" stroke="#000000" points="294.0753,-485.6052 301.5074,-490.2661 298.0376,-486.1526 302,-486.7 302,-486.7 302,-486.7 298.0376,-486.1526 302.4926,-483.1339 294.0753,-485.6052 294.0753,-485.6052"/>
<ellipse fill="none" stroke="#000000" cx="290.9054" cy="-485.1673" rx="3.2" ry="3.2"/>
</g>
<!-- prison_configuration -->
<g id="node4" class="node">
<title>prison_configuration</title>
<g id="a_node4"><a xlink:href="../../tables/prison_configuration.html" xlink:title="prison_configuration" target="_top">
<polygon fill="#ffffff" stroke="transparent" points="334,-284.2 334,-345.2 512,-345.2 512,-284.2 334,-284.2"/>
<polygon fill="#f5f5f5" stroke="transparent" points="334,-321.7 334,-344.7 512,-344.7 512,-321.7 334,-321.7"/>
<polygon fill="none" stroke="#000000" points="334,-321.7 334,-344.7 512,-344.7 512,-321.7 334,-321.7"/>
<text text-anchor="start" x="339" y="-330.3" font-family="Helvetica,sans-Serif" font-weight="bold" font-size="11.00" fill="#000000">prison_configuration</text>
<text text-anchor="start" x="477.5219" y="-329.8" font-family="Helvetica,sans-Serif" font-size="11.00" fill="#000000">[table]</text>
<polygon fill="none" stroke="#000000" points="334,-302.7 334,-321.7 512,-321.7 512,-302.7 334,-302.7"/>
<text text-anchor="start" x="337" y="-308.8" font-family="Helvetica,sans-Serif" font-size="11.00" fill="#000000">...</text>
<polygon fill="#ffffff" stroke="transparent" points="334,-283.7 334,-302.7 405,-302.7 405,-283.7 334,-283.7"/>
<polygon fill="none" stroke="#000000" points="334,-283.7 334,-302.7 405,-302.7 405,-283.7 334,-283.7"/>
<text text-anchor="start" x="337" y="-289.8" font-family="Helvetica,sans-Serif" font-size="11.00" fill="#000000">&lt; 2</text>
<polygon fill="#ffffff" stroke="transparent" points="405,-283.7 405,-302.7 474,-302.7 474,-283.7 405,-283.7"/>
<polygon fill="none" stroke="#000000" points="405,-283.7 405,-302.7 474,-302.7 474,-283.7 405,-283.7"/>
<text text-anchor="start" x="432.4956" y="-289.8" font-family="Helvetica,sans-Serif" font-size="11.00" fill="#000000">12 rows</text>
<polygon fill="#ffffff" stroke="transparent" points="474,-283.7 474,-302.7 512,-302.7 512,-283.7 474,-283.7"/>
<polygon fill="none" stroke="#000000" points="474,-283.7 474,-302.7 512,-302.7 512,-283.7 474,-283.7"/>
<text text-anchor="start" x="502.8862" y="-289.8" font-family="Helvetica,sans-Serif" font-size="11.00" fill="#000000"> &#160;</text>
</a>
</g>
</g>
<!-- prison_configuration&#45;&gt;prison_migration_date_history -->
<g id="edge3" class="edge">
<title>prison_configuration:w&#45;&gt;prison_migration_date_history:e</title>
<path fill="none" stroke="#000000" stroke-dasharray="5,2" d="M319.6314,-309.7225C292.1815,-301.5326 287.007,-270.7 251.5,-270.7"/>
<polygon fill="#000000" stroke="#000000" points="326.0747,-310.6092 333.5091,-315.2664 330.0374,-311.1546 334,-311.7 334,-311.7 334,-311.7 330.0374,-311.1546 334.4909,-308.1336 326.0747,-310.6092 326.0747,-310.6092"/>
<ellipse fill="none" stroke="#000000" cx="322.9046" cy="-310.1729" rx="3.2" ry="3.2"/>
</g>
<!-- prison_configuration_audit -->
<g id="node5" class="node">
<title>prison_configuration_audit</title>
<g id="a_node5"><a xlink:href="../../tables/prison_configuration_audit.html" xlink:title="prison_configuration_audit" target="_top">
<polygon fill="#ffffff" stroke="transparent" points="313.5,-202.2 313.5,-263.2 532.5,-263.2 532.5,-202.2 313.5,-202.2"/>
<polygon fill="#f5f5f5" stroke="transparent" points="314,-239.7 314,-262.7 533,-262.7 533,-239.7 314,-239.7"/>
<polygon fill="none" stroke="#000000" points="314,-239.7 314,-262.7 533,-262.7 533,-239.7 314,-239.7"/>
<text text-anchor="start" x="319" y="-248.3" font-family="Helvetica,sans-Serif" font-weight="bold" font-size="11.00" fill="#000000">prison_configuration_audit</text>
<text text-anchor="start" x="498.5219" y="-247.8" font-family="Helvetica,sans-Serif" font-size="11.00" fill="#000000">[table]</text>
<polygon fill="none" stroke="#000000" points="314,-220.7 314,-239.7 533,-239.7 533,-220.7 314,-220.7"/>
<text text-anchor="start" x="317" y="-226.8" font-family="Helvetica,sans-Serif" font-size="11.00" fill="#000000">...</text>
<polygon fill="#ffffff" stroke="transparent" points="314,-201.7 314,-220.7 422,-220.7 422,-201.7 314,-201.7"/>
<polygon fill="none" stroke="#000000" points="314,-201.7 314,-220.7 422,-220.7 422,-201.7 314,-201.7"/>
<text text-anchor="start" x="317" y="-207.8" font-family="Helvetica,sans-Serif" font-size="11.00" fill="#000000">&lt; 3</text>
<polygon fill="#ffffff" stroke="transparent" points="422,-201.7 422,-220.7 477,-220.7 477,-201.7 422,-201.7"/>
<polygon fill="none" stroke="#000000" points="422,-201.7 422,-220.7 477,-220.7 477,-201.7 422,-201.7"/>
<text text-anchor="start" x="467.8862" y="-207.8" font-family="Helvetica,sans-Serif" font-size="11.00" fill="#000000"> &#160;</text>
<polygon fill="#ffffff" stroke="transparent" points="477,-201.7 477,-220.7 533,-220.7 533,-201.7 477,-201.7"/>
<polygon fill="none" stroke="#000000" points="477,-201.7 477,-220.7 533,-220.7 533,-201.7 477,-201.7"/>
<text text-anchor="start" x="523.8862" y="-207.8" font-family="Helvetica,sans-Serif" font-size="11.00" fill="#000000"> &#160;</text>
</a>
</g>
</g>
<!-- prison_configuration_audit&#45;&gt;prison_migration_date_history -->
<g id="edge4" class="edge">
<title>prison_configuration_audit:w&#45;&gt;prison_migration_date_history:e</title>
<path fill="none" stroke="#000000" stroke-dasharray="5,2" d="M299.7865,-232.9172C281.0361,-242.5826 279.0114,-270.7 251.5,-270.7"/>
<polygon fill="#000000" stroke="#000000" points="306.1974,-231.4661 314.7948,-233.2112 310.0987,-230.5831 314,-229.7 314,-229.7 314,-229.7 310.0987,-230.5831 313.2052,-226.1888 306.1974,-231.4661 306.1974,-231.4661"/>
<ellipse fill="none" stroke="#000000" cx="303.0763" cy="-232.1726" rx="3.2" ry="3.2"/>
</g>
<!-- staff_role -->
<g id="node6" class="node">
<title>staff_role</title>
<g id="a_node6"><a xlink:href="../../tables/staff_role.html" xlink:title="staff_role" target="_top">
<polygon fill="#ffffff" stroke="transparent" points="372,-120.2 372,-181.2 474,-181.2 474,-120.2 372,-120.2"/>
<polygon fill="#f5f5f5" stroke="transparent" points="372,-157.7 372,-180.7 474,-180.7 474,-157.7 372,-157.7"/>
<polygon fill="none" stroke="#000000" points="372,-157.7 372,-180.7 474,-180.7 474,-157.7 372,-157.7"/>
<text text-anchor="start" x="377" y="-166.3" font-family="Helvetica,sans-Serif" font-weight="bold" font-size="11.00" fill="#000000">staff_role</text>
<text text-anchor="start" x="439.5219" y="-165.8" font-family="Helvetica,sans-Serif" font-size="11.00" fill="#000000">[table]</text>
<polygon fill="none" stroke="#000000" points="372,-138.7 372,-157.7 474,-157.7 474,-138.7 372,-138.7"/>
<text text-anchor="start" x="375" y="-144.8" font-family="Helvetica,sans-Serif" font-size="11.00" fill="#000000">...</text>
<polygon fill="#ffffff" stroke="transparent" points="372,-119.7 372,-138.7 421,-138.7 421,-119.7 372,-119.7"/>
<polygon fill="none" stroke="#000000" points="372,-119.7 372,-138.7 421,-138.7 421,-119.7 372,-119.7"/>
<text text-anchor="start" x="375" y="-125.8" font-family="Helvetica,sans-Serif" font-size="11.00" fill="#000000">&lt; 2</text>
<polygon fill="#ffffff" stroke="transparent" points="421,-119.7 421,-138.7 447,-138.7 447,-119.7 421,-119.7"/>
<polygon fill="none" stroke="#000000" points="421,-119.7 421,-138.7 447,-138.7 447,-119.7 421,-119.7"/>
<text text-anchor="start" x="437.8862" y="-125.8" font-family="Helvetica,sans-Serif" font-size="11.00" fill="#000000"> &#160;</text>
<polygon fill="#ffffff" stroke="transparent" points="447,-119.7 447,-138.7 474,-138.7 474,-119.7 447,-119.7"/>
<polygon fill="none" stroke="#000000" points="447,-119.7 447,-138.7 474,-138.7 474,-119.7 447,-119.7"/>
<text text-anchor="start" x="464.8862" y="-125.8" font-family="Helvetica,sans-Serif" font-size="11.00" fill="#000000"> &#160;</text>
</a>
</g>
</g>
<!-- staff_role&#45;&gt;prison_migration_date_history -->
<g id="edge5" class="edge">
<title>staff_role:w&#45;&gt;prison_migration_date_history:e</title>
<path fill="none" stroke="#000000" stroke-dasharray="5,2" d="M357.2803,-148.4865C328.158,-151.9064 316.5176,-166.4578 292,-191.7 264.5094,-220.003 290.9562,-270.7 251.5,-270.7"/>
<polygon fill="#000000" stroke="#000000" points="364.0114,-148.1269 372.1921,-151.2949 368.0057,-147.9134 372,-147.7 372,-147.7 372,-147.7 368.0057,-147.9134 371.8079,-144.1051 364.0114,-148.1269 364.0114,-148.1269"/>
<ellipse fill="none" stroke="#000000" cx="360.816" cy="-148.2976" rx="3.2" ry="3.2"/>
</g>
<!-- staff_role_audit -->
<g id="node7" class="node">
<title>staff_role_audit</title>
<g id="a_node7"><a xlink:href="../../tables/staff_role_audit.html" xlink:title="staff_role_audit" target="_top">
<polygon fill="#ffffff" stroke="transparent" points="351.5,-38.2 351.5,-99.2 494.5,-99.2 494.5,-38.2 351.5,-38.2"/>
<polygon fill="#f5f5f5" stroke="transparent" points="352,-75.7 352,-98.7 495,-98.7 495,-75.7 352,-75.7"/>
<polygon fill="none" stroke="#000000" points="352,-75.7 352,-98.7 495,-98.7 495,-75.7 352,-75.7"/>
<text text-anchor="start" x="357" y="-84.3" font-family="Helvetica,sans-Serif" font-weight="bold" font-size="11.00" fill="#000000">staff_role_audit</text>
<text text-anchor="start" x="460.5219" y="-83.8" font-family="Helvetica,sans-Serif" font-size="11.00" fill="#000000">[table]</text>
<polygon fill="none" stroke="#000000" points="352,-56.7 352,-75.7 495,-75.7 495,-56.7 352,-56.7"/>
<text text-anchor="start" x="355" y="-62.8" font-family="Helvetica,sans-Serif" font-size="11.00" fill="#000000">...</text>
<polygon fill="#ffffff" stroke="transparent" points="352,-37.7 352,-56.7 422,-56.7 422,-37.7 352,-37.7"/>
<polygon fill="none" stroke="#000000" points="352,-37.7 352,-56.7 422,-56.7 422,-37.7 352,-37.7"/>
<text text-anchor="start" x="355" y="-43.8" font-family="Helvetica,sans-Serif" font-size="11.00" fill="#000000">&lt; 3</text>
<polygon fill="#ffffff" stroke="transparent" points="422,-37.7 422,-56.7 458,-56.7 458,-37.7 422,-37.7"/>
<polygon fill="none" stroke="#000000" points="422,-37.7 422,-56.7 458,-56.7 458,-37.7 422,-37.7"/>
<text text-anchor="start" x="448.8862" y="-43.8" font-family="Helvetica,sans-Serif" font-size="11.00" fill="#000000"> &#160;</text>
<polygon fill="#ffffff" stroke="transparent" points="458,-37.7 458,-56.7 495,-56.7 495,-37.7 458,-37.7"/>
<polygon fill="none" stroke="#000000" points="458,-37.7 458,-56.7 495,-56.7 495,-37.7 458,-37.7"/>
<text text-anchor="start" x="485.8862" y="-43.8" font-family="Helvetica,sans-Serif" font-size="11.00" fill="#000000"> &#160;</text>
</a>
</g>
</g>
<!-- staff_role_audit&#45;&gt;prison_migration_date_history -->
<g id="edge6" class="edge">
<title>staff_role_audit:w&#45;&gt;prison_migration_date_history:e</title>
<path fill="none" stroke="#000000" stroke-dasharray="5,2" d="M337.5575,-67.0124C315.8828,-71.4275 307.4311,-86.7646 292,-109.7 250.8116,-170.9185 325.2848,-270.7 251.5,-270.7"/>
<polygon fill="#000000" stroke="#000000" points="344.0328,-66.424 352.3258,-69.2852 348.0164,-66.062 352,-65.7 352,-65.7 352,-65.7 348.0164,-66.062 351.6742,-62.1148 344.0328,-66.424 344.0328,-66.424"/>
<ellipse fill="none" stroke="#000000" cx="340.846" cy="-66.7136" rx="3.2" ry="3.2"/>
</g>
</g>
</svg>
