<?xml version="1.0" encoding="UTF-8" standalone="no"?>
<!DOCTYPE svg PUBLIC "-//W3C//DTD SVG 1.1//EN"
 "http://www.w3.org/Graphics/SVG/1.1/DTD/svg11.dtd">
<!-- Generated by graphviz version 2.40.1 (20161225.0304)
 -->
<!-- Title: oneDegreeRelationshipsDiagramImplied Pages: 1 -->
<svg width="732pt" height="360pt"
 viewBox="0.00 0.00 732.00 360.20" xmlns="http://www.w3.org/2000/svg" xmlns:xlink="http://www.w3.org/1999/xlink">
<g id="graph0" class="graph" transform="scale(1 1) rotate(0) translate(4 356.2)">
<title>oneDegreeRelationshipsDiagramImplied</title>
<polygon fill="#ffffff" stroke="transparent" points="-4,4 -4,-356.2 728,-356.2 728,4 -4,4"/>
<text text-anchor="middle" x="72.4936" y="-7.3" font-family="Helvetica,sans-Serif" font-size="11.00" fill="#000000">Generated by SchemaSpy</text>
<!-- keyworker_stats -->
<g id="node1" class="node">
<title>keyworker_stats</title>
<g id="a_node1"><a xlink:href="../../tables/keyworker_stats.html" xlink:title="keyworker_stats" target="_top">
<polygon fill="#ffffff" stroke="transparent" points="369,-38.2 369,-348.2 716,-348.2 716,-38.2 369,-38.2"/>
<polygon fill="#f5f5f5" stroke="transparent" points="371.5,-323.2 371.5,-346.2 714.5,-346.2 714.5,-323.2 371.5,-323.2"/>
<polygon fill="none" stroke="#000000" points="371.5,-323.2 371.5,-346.2 714.5,-346.2 714.5,-323.2 371.5,-323.2"/>
<text text-anchor="start" x="376.5" y="-331.8" font-family="Helvetica,sans-Serif" font-weight="bold" font-size="11.00" fill="#000000">keyworker_stats</text>
<text text-anchor="start" x="679.5437" y="-331.3" font-family="Helvetica,sans-Serif" font-size="11.00" fill="#000000">[table]</text>
<polygon fill="none" stroke="#000000" points="371.5,-301.2 371.5,-323.2 630.5,-323.2 630.5,-301.2 371.5,-301.2"/>
<image xlink:href="../../images/primaryKeys.png" width="11px" height="12px" preserveAspectRatio="xMinYMin meet" x="376.5" y="-318.2"/>
<text text-anchor="start" x="391.5" y="-308.3" font-family="Helvetica,sans-Serif" font-size="11.00" fill="#000000">keyworker_stats_id</text>
<polygon fill="none" stroke="#000000" points="630.5,-301.2 630.5,-323.2 714.5,-323.2 714.5,-301.2 630.5,-301.2"/>
<text text-anchor="start" x="633.5" y="-308.9" font-family="Helvetica,sans-Serif" font-size="11.00" fill="#000000">bigserial[19]</text>
<polygon fill="#ffffff" stroke="transparent" points="371.5,-279.2 371.5,-301.2 630.5,-301.2 630.5,-279.2 371.5,-279.2"/>
<polygon fill="none" stroke="#000000" points="371.5,-279.2 371.5,-301.2 630.5,-301.2 630.5,-279.2 371.5,-279.2"/>
<image xlink:href="../../images/foreignKeys.png" width="11px" height="12px" preserveAspectRatio="xMinYMin meet" x="376.5" y="-296.2"/>
<text text-anchor="start" x="391.5" y="-286.3" font-family="Helvetica,sans-Serif" font-size="11.00" fill="#000000">prison_id</text>
<polygon fill="none" stroke="#000000" points="630.5,-279.2 630.5,-301.2 714.5,-301.2 714.5,-279.2 630.5,-279.2"/>
<text text-anchor="start" x="633.5" y="-286.9" font-family="Helvetica,sans-Serif" font-size="11.00" fill="#000000">varchar[6]</text>
<polygon fill="#ffffff" stroke="transparent" points="371.5,-257.2 371.5,-279.2 630.5,-279.2 630.5,-257.2 371.5,-257.2"/>
<polygon fill="none" stroke="#000000" points="371.5,-257.2 371.5,-279.2 630.5,-279.2 630.5,-257.2 371.5,-257.2"/>
<text text-anchor="start" x="391.5" y="-264.3" font-family="Helvetica,sans-Serif" font-size="11.00" fill="#000000">snapshot_date</text>
<polygon fill="none" stroke="#000000" points="630.5,-257.2 630.5,-279.2 714.5,-279.2 714.5,-257.2 630.5,-257.2"/>
<text text-anchor="start" x="633.3807" y="-264.9" font-family="Helvetica,sans-Serif" font-size="11.00" fill="#000000">timestamp[29,6]</text>
<polygon fill="none" stroke="#000000" points="371.5,-235.2 371.5,-257.2 630.5,-257.2 630.5,-235.2 371.5,-235.2"/>
<text text-anchor="start" x="391.5" y="-242.3" font-family="Helvetica,sans-Serif" font-size="11.00" fill="#000000">num_prisoners_assigned_kw</text>
<polygon fill="none" stroke="#000000" points="630.5,-235.2 630.5,-257.2 714.5,-257.2 714.5,-235.2 630.5,-235.2"/>
<text text-anchor="start" x="633.5" y="-242.9" font-family="Helvetica,sans-Serif" font-size="11.00" fill="#000000">int4[10]</text>
<polygon fill="none" stroke="#000000" points="371.5,-213.2 371.5,-235.2 630.5,-235.2 630.5,-213.2 371.5,-213.2"/>
<text text-anchor="start" x="391.5" y="-220.3" font-family="Helvetica,sans-Serif" font-size="11.00" fill="#000000">total_num_prisoners</text>
<polygon fill="none" stroke="#000000" points="630.5,-213.2 630.5,-235.2 714.5,-235.2 714.5,-213.2 630.5,-213.2"/>
<text text-anchor="start" x="633.5" y="-220.9" font-family="Helvetica,sans-Serif" font-size="11.00" fill="#000000">int4[10]</text>
<polygon fill="none" stroke="#000000" points="371.5,-191.2 371.5,-213.2 630.5,-213.2 630.5,-191.2 371.5,-191.2"/>
<text text-anchor="start" x="391.5" y="-198.3" font-family="Helvetica,sans-Serif" font-size="11.00" fill="#000000">num_kw_sessions</text>
<polygon fill="none" stroke="#000000" points="630.5,-191.2 630.5,-213.2 714.5,-213.2 714.5,-191.2 630.5,-191.2"/>
<text text-anchor="start" x="633.5" y="-198.9" font-family="Helvetica,sans-Serif" font-size="11.00" fill="#000000">int4[10]</text>
<polygon fill="none" stroke="#000000" points="371.5,-169.2 371.5,-191.2 630.5,-191.2 630.5,-169.2 371.5,-169.2"/>
<text text-anchor="start" x="391.5" y="-176.3" font-family="Helvetica,sans-Serif" font-size="11.00" fill="#000000">num_kw_entries</text>
<polygon fill="none" stroke="#000000" points="630.5,-169.2 630.5,-191.2 714.5,-191.2 714.5,-169.2 630.5,-169.2"/>
<text text-anchor="start" x="633.5" y="-176.9" font-family="Helvetica,sans-Serif" font-size="11.00" fill="#000000">int4[10]</text>
<polygon fill="none" stroke="#000000" points="371.5,-147.2 371.5,-169.2 630.5,-169.2 630.5,-147.2 371.5,-147.2"/>
<text text-anchor="start" x="391.5" y="-154.3" font-family="Helvetica,sans-Serif" font-size="11.00" fill="#000000">num_active_keyworkers</text>
<polygon fill="none" stroke="#000000" points="630.5,-147.2 630.5,-169.2 714.5,-169.2 714.5,-147.2 630.5,-147.2"/>
<text text-anchor="start" x="633.5" y="-154.9" font-family="Helvetica,sans-Serif" font-size="11.00" fill="#000000">int4[10]</text>
<polygon fill="none" stroke="#000000" points="371.5,-125.2 371.5,-147.2 630.5,-147.2 630.5,-125.2 371.5,-125.2"/>
<text text-anchor="start" x="391.5" y="-132.3" font-family="Helvetica,sans-Serif" font-size="11.00" fill="#000000">recpt_to_alloc_days</text>
<polygon fill="none" stroke="#000000" points="630.5,-125.2 630.5,-147.2 714.5,-147.2 714.5,-125.2 630.5,-125.2"/>
<text text-anchor="start" x="633.5" y="-132.9" font-family="Helvetica,sans-Serif" font-size="11.00" fill="#000000">int4[10]</text>
<polygon fill="none" stroke="#000000" points="371.5,-103.2 371.5,-125.2 630.5,-125.2 630.5,-103.2 371.5,-103.2"/>
<text text-anchor="start" x="391.5" y="-110.3" font-family="Helvetica,sans-Serif" font-size="11.00" fill="#000000">recpt_to_kw_session_days</text>
<polygon fill="none" stroke="#000000" points="630.5,-103.2 630.5,-125.2 714.5,-125.2 714.5,-103.2 630.5,-103.2"/>
<text text-anchor="start" x="633.5" y="-110.9" font-family="Helvetica,sans-Serif" font-size="11.00" fill="#000000">int4[10]</text>
<polygon fill="none" stroke="#000000" points="371.5,-81.2 371.5,-103.2 630.5,-103.2 630.5,-81.2 371.5,-81.2"/>
<text text-anchor="start" x="391.5" y="-88.3" font-family="Helvetica,sans-Serif" font-size="11.00" fill="#000000">total_num_eligible_prisoners</text>
<polygon fill="none" stroke="#000000" points="630.5,-81.2 630.5,-103.2 714.5,-103.2 714.5,-81.2 630.5,-81.2"/>
<text text-anchor="start" x="633.5" y="-88.9" font-family="Helvetica,sans-Serif" font-size="11.00" fill="#000000">int4[10]</text>
<polygon fill="none" stroke="#000000" points="371.5,-59.2 371.5,-81.2 630.5,-81.2 630.5,-59.2 371.5,-59.2"/>
<text text-anchor="start" x="391.5" y="-66.3" font-family="Helvetica,sans-Serif" font-size="11.00" fill="#000000">high_complexity_of_need_prisoners</text>
<polygon fill="none" stroke="#000000" points="630.5,-59.2 630.5,-81.2 714.5,-81.2 714.5,-59.2 630.5,-59.2"/>
<text text-anchor="start" x="633.5" y="-66.9" font-family="Helvetica,sans-Serif" font-size="11.00" fill="#000000">int4[10]</text>
<polygon fill="#ffffff" stroke="transparent" points="371.5,-40.2 371.5,-59.2 505.5,-59.2 505.5,-40.2 371.5,-40.2"/>
<polygon fill="none" stroke="#000000" points="371.5,-40.2 371.5,-59.2 505.5,-59.2 505.5,-40.2 371.5,-40.2"/>
<text text-anchor="start" x="374.5" y="-46.3" font-family="Helvetica,sans-Serif" font-size="11.00" fill="#000000">&lt; 1</text>
<polygon fill="#ffffff" stroke="transparent" points="505.5,-40.2 505.5,-59.2 630.5,-59.2 630.5,-40.2 505.5,-40.2"/>
<polygon fill="none" stroke="#000000" points="505.5,-40.2 505.5,-59.2 630.5,-59.2 630.5,-40.2 505.5,-40.2"/>
<text text-anchor="start" x="621.3862" y="-46.3" font-family="Helvetica,sans-Serif" font-size="11.00" fill="#000000"> &#160;</text>
<polygon fill="#ffffff" stroke="transparent" points="630.5,-40.2 630.5,-59.2 714.5,-59.2 714.5,-40.2 630.5,-40.2"/>
<polygon fill="none" stroke="#000000" points="630.5,-40.2 630.5,-59.2 714.5,-59.2 714.5,-40.2 630.5,-40.2"/>
<text text-anchor="start" x="695.9053" y="-46.3" font-family="Helvetica,sans-Serif" font-size="11.00" fill="#000000">0 &gt;</text>
<polygon fill="none" stroke="#000000" stroke-width="2" points="370,-39.2 370,-347.2 715,-347.2 715,-39.2 370,-39.2"/>
</a>
</g>
</g>
<!-- prison_supported -->
<g id="node2" class="node">
<title>prison_supported</title>
<g id="a_node2"><a xlink:href="../../tables/prison_supported.html" xlink:title="prison_supported" target="_top">
<polygon fill="#ffffff" stroke="transparent" points="8,-241.7 8,-324.7 320,-324.7 320,-241.7 8,-241.7"/>
<polygon fill="#f5f5f5" stroke="transparent" points="8,-301.2 8,-324.2 320,-324.2 320,-301.2 8,-301.2"/>
<polygon fill="none" stroke="#000000" points="8,-301.2 8,-324.2 320,-324.2 320,-301.2 8,-301.2"/>
<text text-anchor="start" x="13" y="-309.8" font-family="Helvetica,sans-Serif" font-weight="bold" font-size="11.00" fill="#000000">prison_supported</text>
<text text-anchor="start" x="285.0437" y="-309.3" font-family="Helvetica,sans-Serif" font-size="11.00" fill="#000000">[table]</text>
<polygon fill="none" stroke="#000000" points="8,-279.2 8,-301.2 320,-301.2 320,-279.2 8,-279.2"/>
<image xlink:href="../../images/primaryKeys.png" width="11px" height="12px" preserveAspectRatio="xMinYMin meet" x="13" y="-296.2"/>
<text text-anchor="start" x="28" y="-286.3" font-family="Helvetica,sans-Serif" font-size="11.00" fill="#000000">prison_id</text>
<polygon fill="none" stroke="#000000" points="8,-260.2 8,-279.2 320,-279.2 320,-260.2 8,-260.2"/>
<text text-anchor="start" x="11" y="-266.3" font-family="Helvetica,sans-Serif" font-size="11.00" fill="#000000">...</text>
<polygon fill="#ffffff" stroke="transparent" points="8,-241.2 8,-260.2 153,-260.2 153,-241.2 8,-241.2"/>
<polygon fill="none" stroke="#000000" points="8,-241.2 8,-260.2 153,-260.2 153,-241.2 8,-241.2"/>
<text text-anchor="start" x="11" y="-247.3" font-family="Helvetica,sans-Serif" font-size="11.00" fill="#000000"> &#160;</text>
<polygon fill="#ffffff" stroke="transparent" points="153,-241.2 153,-260.2 232,-260.2 232,-241.2 153,-241.2"/>
<polygon fill="none" stroke="#000000" points="153,-241.2 153,-260.2 232,-260.2 232,-241.2 153,-241.2"/>
<text text-anchor="start" x="222.8862" y="-247.3" font-family="Helvetica,sans-Serif" font-size="11.00" fill="#000000"> &#160;</text>
<polygon fill="#ffffff" stroke="transparent" points="232,-241.2 232,-260.2 320,-260.2 320,-241.2 232,-241.2"/>
<polygon fill="none" stroke="#000000" points="232,-241.2 232,-260.2 320,-260.2 320,-241.2 232,-241.2"/>
<text text-anchor="start" x="301.4053" y="-247.3" font-family="Helvetica,sans-Serif" font-size="11.00" fill="#000000">2 &gt;</text>
</a>
</g>
</g>
<!-- keyworker_stats&#45;&gt;prison_supported -->
<g id="edge1" class="edge">
<title>keyworker_stats:w&#45;&gt;prison_supported:e</title>
<path fill="none" stroke="#000000" stroke-dasharray="5,2" d="M357.0156,-290.2C344.6771,-290.2 337.1667,-290.2 320,-290.2"/>
<polygon fill="#000000" stroke="#000000" points="363.5,-290.2001 371.5,-293.8 367.5,-290.2 371.5,-290.2 371.5,-290.2 371.5,-290.2 367.5,-290.2 371.5,-286.6 363.5,-290.2001 363.5,-290.2001"/>
<ellipse fill="none" stroke="#000000" cx="360.3" cy="-290.2001" rx="3.2" ry="3.2"/>
</g>
</g>
</svg>
