<?xml version="1.0" encoding="UTF-8" standalone="no"?>
<!DOCTYPE svg PUBLIC "-//W3C//DTD SVG 1.1//EN"
 "http://www.w3.org/Graphics/SVG/1.1/DTD/svg11.dtd">
<!-- Generated by graphviz version 2.40.1 (20161225.0304)
 -->
<!-- Title: oneDegreeRelationshipsDiagram Pages: 1 -->
<svg width="454pt" height="245pt"
 viewBox="0.00 0.00 454.00 244.70" xmlns="http://www.w3.org/2000/svg" xmlns:xlink="http://www.w3.org/1999/xlink">
<g id="graph0" class="graph" transform="scale(1 1) rotate(0) translate(4 240.7)">
<title>oneDegreeRelationshipsDiagram</title>
<polygon fill="#ffffff" stroke="transparent" points="-4,4 -4,-240.7 450,-240.7 450,4 -4,4"/>
<text text-anchor="middle" x="72.4936" y="-7.3" font-family="Helvetica,sans-Serif" font-size="11.00" fill="#000000">Generated by SchemaSpy</text>
<!-- keyworker_configuration -->
<g id="node1" class="node">
<title>keyworker_configuration</title>
<g id="a_node1"><a xlink:href="../../tables/keyworker_configuration.html" xlink:title="keyworker_configuration" target="_top">
<polygon fill="#ffffff" stroke="transparent" points="200,-76.7 200,-232.7 438,-232.7 438,-76.7 200,-76.7"/>
<polygon fill="#f5f5f5" stroke="transparent" points="202,-207.7 202,-230.7 436,-230.7 436,-207.7 202,-207.7"/>
<polygon fill="none" stroke="#000000" points="202,-207.7 202,-230.7 436,-230.7 436,-207.7 202,-207.7"/>
<text text-anchor="start" x="207" y="-216.3" font-family="Helvetica,sans-Serif" font-weight="bold" font-size="11.00" fill="#000000">keyworker_configuration</text>
<text text-anchor="start" x="401.0437" y="-215.8" font-family="Helvetica,sans-Serif" font-size="11.00" fill="#000000">[table]</text>
<polygon fill="none" stroke="#000000" points="202,-185.7 202,-207.7 391,-207.7 391,-185.7 202,-185.7"/>
<image xlink:href="../../images/primaryKeys.png" width="11px" height="12px" preserveAspectRatio="xMinYMin meet" x="207" y="-202.7"/>
<text text-anchor="start" x="222" y="-192.8" font-family="Helvetica,sans-Serif" font-size="11.00" fill="#000000">staff_id</text>
<polygon fill="none" stroke="#000000" points="391,-185.7 391,-207.7 436,-207.7 436,-185.7 391,-185.7"/>
<text text-anchor="start" x="394" y="-193.4" font-family="Helvetica,sans-Serif" font-size="11.00" fill="#000000">int8[19]</text>
<polygon fill="none" stroke="#000000" points="202,-163.7 202,-185.7 391,-185.7 391,-163.7 202,-163.7"/>
<text text-anchor="start" x="222" y="-170.8" font-family="Helvetica,sans-Serif" font-size="11.00" fill="#000000">capacity</text>
<polygon fill="none" stroke="#000000" points="391,-163.7 391,-185.7 436,-185.7 436,-163.7 391,-163.7"/>
<text text-anchor="start" x="394" y="-171.4" font-family="Helvetica,sans-Serif" font-size="11.00" fill="#000000">int4[10]</text>
<polygon fill="none" stroke="#000000" points="202,-141.7 202,-163.7 391,-163.7 391,-141.7 202,-141.7"/>
<image xlink:href="../../images/foreignKeys.png" width="11px" height="12px" preserveAspectRatio="xMinYMin meet" x="207" y="-158.7"/>
<text text-anchor="start" x="222" y="-148.8" font-family="Helvetica,sans-Serif" font-size="11.00" fill="#000000">status_id</text>
<polygon fill="none" stroke="#000000" points="391,-141.7 391,-163.7 436,-163.7 436,-141.7 391,-141.7"/>
<text text-anchor="start" x="394" y="-149.4" font-family="Helvetica,sans-Serif" font-size="11.00" fill="#000000">int8[19]</text>
<polygon fill="none" stroke="#000000" points="202,-119.7 202,-141.7 391,-141.7 391,-119.7 202,-119.7"/>
<text text-anchor="start" x="222" y="-126.8" font-family="Helvetica,sans-Serif" font-size="11.00" fill="#000000">allow_auto_allocation</text>
<polygon fill="none" stroke="#000000" points="391,-119.7 391,-141.7 436,-141.7 436,-119.7 391,-119.7"/>
<text text-anchor="start" x="394" y="-127.4" font-family="Helvetica,sans-Serif" font-size="11.00" fill="#000000">bool[1]</text>
<polygon fill="none" stroke="#000000" points="202,-97.7 202,-119.7 391,-119.7 391,-97.7 202,-97.7"/>
<text text-anchor="start" x="222" y="-104.8" font-family="Helvetica,sans-Serif" font-size="11.00" fill="#000000">reactivate_on</text>
<polygon fill="none" stroke="#000000" points="391,-97.7 391,-119.7 436,-119.7 436,-97.7 391,-97.7"/>
<text text-anchor="start" x="393.6274" y="-105.4" font-family="Helvetica,sans-Serif" font-size="11.00" fill="#000000">date[13]</text>
<polygon fill="#ffffff" stroke="transparent" points="202,-78.7 202,-97.7 301,-97.7 301,-78.7 202,-78.7"/>
<polygon fill="none" stroke="#000000" points="202,-78.7 202,-97.7 301,-97.7 301,-78.7 202,-78.7"/>
<text text-anchor="start" x="205" y="-84.8" font-family="Helvetica,sans-Serif" font-size="11.00" fill="#000000">&lt; 1</text>
<polygon fill="#ffffff" stroke="transparent" points="301,-78.7 301,-97.7 391,-97.7 391,-78.7 301,-78.7"/>
<polygon fill="none" stroke="#000000" points="301,-78.7 301,-97.7 391,-97.7 391,-78.7 301,-78.7"/>
<text text-anchor="start" x="381.8862" y="-84.8" font-family="Helvetica,sans-Serif" font-size="11.00" fill="#000000"> &#160;</text>
<polygon fill="#ffffff" stroke="transparent" points="391,-78.7 391,-97.7 436,-97.7 436,-78.7 391,-78.7"/>
<polygon fill="none" stroke="#000000" points="391,-78.7 391,-97.7 436,-97.7 436,-78.7 391,-78.7"/>
<text text-anchor="start" x="417.4053" y="-84.8" font-family="Helvetica,sans-Serif" font-size="11.00" fill="#000000">0 &gt;</text>
<polygon fill="none" stroke="#000000" stroke-width="2" points="201,-77.7 201,-231.7 437,-231.7 437,-77.7 201,-77.7"/>
</a>
</g>
</g>
<!-- reference_data -->
<g id="node2" class="node">
<title>reference_data</title>
<g id="a_node2"><a xlink:href="../../tables/reference_data.html" xlink:title="reference_data" target="_top">
<polygon fill="#ffffff" stroke="transparent" points="8,-38.2 8,-187.2 151,-187.2 151,-38.2 8,-38.2"/>
<polygon fill="#f5f5f5" stroke="transparent" points="8.5,-163.7 8.5,-186.7 151.5,-186.7 151.5,-163.7 8.5,-163.7"/>
<polygon fill="none" stroke="#000000" points="8.5,-163.7 8.5,-186.7 151.5,-186.7 151.5,-163.7 8.5,-163.7"/>
<text text-anchor="start" x="13.5" y="-172.3" font-family="Helvetica,sans-Serif" font-weight="bold" font-size="11.00" fill="#000000">reference_data</text>
<text text-anchor="start" x="116.5437" y="-171.8" font-family="Helvetica,sans-Serif" font-size="11.00" fill="#000000">[table]</text>
<polygon fill="none" stroke="#000000" points="8.5,-141.7 8.5,-163.7 151.5,-163.7 151.5,-141.7 8.5,-141.7"/>
<image xlink:href="../../images/primaryKeys.png" width="11px" height="12px" preserveAspectRatio="xMinYMin meet" x="13.5" y="-158.7"/>
<text text-anchor="start" x="28.5" y="-148.8" font-family="Helvetica,sans-Serif" font-size="11.00" fill="#000000">id</text>
<polygon fill="#ffffff" stroke="transparent" points="8.5,-119.7 8.5,-141.7 151.5,-141.7 151.5,-119.7 8.5,-119.7"/>
<polygon fill="none" stroke="#000000" points="8.5,-119.7 8.5,-141.7 151.5,-141.7 151.5,-119.7 8.5,-119.7"/>
<text text-anchor="start" x="28.5" y="-126.8" font-family="Helvetica,sans-Serif" font-size="11.00" fill="#000000">domain</text>
<polygon fill="#ffffff" stroke="transparent" points="8.5,-97.7 8.5,-119.7 151.5,-119.7 151.5,-97.7 8.5,-97.7"/>
<polygon fill="none" stroke="#000000" points="8.5,-97.7 8.5,-119.7 151.5,-119.7 151.5,-97.7 8.5,-97.7"/>
<text text-anchor="start" x="28.5" y="-104.8" font-family="Helvetica,sans-Serif" font-size="11.00" fill="#000000">code</text>
<polygon fill="#ffffff" stroke="transparent" points="8.5,-75.7 8.5,-97.7 151.5,-97.7 151.5,-75.7 8.5,-75.7"/>
<polygon fill="none" stroke="#000000" points="8.5,-75.7 8.5,-97.7 151.5,-97.7 151.5,-75.7 8.5,-75.7"/>
<text text-anchor="start" x="28.5" y="-82.8" font-family="Helvetica,sans-Serif" font-size="11.00" fill="#000000">sequence_number</text>
<polygon fill="none" stroke="#000000" points="8.5,-56.7 8.5,-75.7 151.5,-75.7 151.5,-56.7 8.5,-56.7"/>
<text text-anchor="start" x="11.5" y="-62.8" font-family="Helvetica,sans-Serif" font-size="11.00" fill="#000000">...</text>
<polygon fill="#ffffff" stroke="transparent" points="8.5,-37.7 8.5,-56.7 69.5,-56.7 69.5,-37.7 8.5,-37.7"/>
<polygon fill="none" stroke="#000000" points="8.5,-37.7 8.5,-56.7 69.5,-56.7 69.5,-37.7 8.5,-37.7"/>
<text text-anchor="start" x="11.5" y="-43.8" font-family="Helvetica,sans-Serif" font-size="11.00" fill="#000000"> &#160;</text>
<polygon fill="#ffffff" stroke="transparent" points="69.5,-37.7 69.5,-56.7 105.5,-56.7 105.5,-37.7 69.5,-37.7"/>
<polygon fill="none" stroke="#000000" points="69.5,-37.7 69.5,-56.7 105.5,-56.7 105.5,-37.7 69.5,-37.7"/>
<text text-anchor="start" x="96.3862" y="-43.8" font-family="Helvetica,sans-Serif" font-size="11.00" fill="#000000"> &#160;</text>
<polygon fill="#ffffff" stroke="transparent" points="105.5,-37.7 105.5,-56.7 151.5,-56.7 151.5,-37.7 105.5,-37.7"/>
<polygon fill="none" stroke="#000000" points="105.5,-37.7 105.5,-56.7 151.5,-56.7 151.5,-37.7 105.5,-37.7"/>
<text text-anchor="start" x="132.9053" y="-43.8" font-family="Helvetica,sans-Serif" font-size="11.00" fill="#000000">3 &gt;</text>
</a>
</g>
</g>
<!-- keyworker_configuration&#45;&gt;reference_data -->
<g id="edge1" class="edge">
<title>keyworker_configuration:w&#45;&gt;reference_data:e</title>
<path fill="none" stroke="#000000" d="M187.4203,-152.7C175.5435,-152.7 168.158,-152.7 151.5,-152.7"/>
<polygon fill="#000000" stroke="#000000" points="194,-152.7001 202,-156.3 198,-152.7 202,-152.7 202,-152.7 202,-152.7 198,-152.7 202,-149.1 194,-152.7001 194,-152.7001"/>
<ellipse fill="none" stroke="#000000" cx="190.8" cy="-152.7001" rx="3.2" ry="3.2"/>
</g>
</g>
</svg>
