<?xml version="1.0" encoding="UTF-8" standalone="no"?>
<!DOCTYPE svg PUBLIC "-//W3C//DTD SVG 1.1//EN"
 "http://www.w3.org/Graphics/SVG/1.1/DTD/svg11.dtd">
<!-- Generated by graphviz version 2.40.1 (20161225.0304)
 -->
<!-- Title: oneDegreeRelationshipsDiagramImplied Pages: 1 -->
<svg width="475pt" height="316pt"
 viewBox="0.00 0.00 475.00 316.20" xmlns="http://www.w3.org/2000/svg" xmlns:xlink="http://www.w3.org/1999/xlink">
<g id="graph0" class="graph" transform="scale(1 1) rotate(0) translate(4 312.2)">
<title>oneDegreeRelationshipsDiagramImplied</title>
<polygon fill="#ffffff" stroke="transparent" points="-4,4 -4,-312.2 471,-312.2 471,4 -4,4"/>
<text text-anchor="middle" x="72.4936" y="-7.3" font-family="Helvetica,sans-Serif" font-size="11.00" fill="#000000">Generated by SchemaSpy</text>
<!-- keyworker_session -->
<g id="node1" class="node">
<title>keyworker_session</title>
<g id="a_node1"><a xlink:href="../../tables/keyworker_session.html" xlink:title="keyworker_session" target="_top">
<polygon fill="#ffffff" stroke="transparent" points="213,-38.2 213,-304.2 459,-304.2 459,-38.2 213,-38.2"/>
<polygon fill="#f5f5f5" stroke="transparent" points="215,-279.2 215,-302.2 457,-302.2 457,-279.2 215,-279.2"/>
<polygon fill="none" stroke="#000000" points="215,-279.2 215,-302.2 457,-302.2 457,-279.2 215,-279.2"/>
<text text-anchor="start" x="220" y="-287.8" font-family="Helvetica,sans-Serif" font-weight="bold" font-size="11.00" fill="#000000">keyworker_session</text>
<text text-anchor="start" x="422.0437" y="-287.3" font-family="Helvetica,sans-Serif" font-size="11.00" fill="#000000">[table]</text>
<polygon fill="none" stroke="#000000" points="215,-257.2 215,-279.2 363,-279.2 363,-257.2 215,-257.2"/>
<image xlink:href="../../images/primaryKeys.png" width="11px" height="12px" preserveAspectRatio="xMinYMin meet" x="220" y="-274.2"/>
<text text-anchor="start" x="235" y="-264.3" font-family="Helvetica,sans-Serif" font-size="11.00" fill="#000000">id</text>
<polygon fill="none" stroke="#000000" points="363,-257.2 363,-279.2 457,-279.2 457,-257.2 363,-257.2"/>
<text text-anchor="start" x="365.9758" y="-264.9" font-family="Helvetica,sans-Serif" font-size="11.00" fill="#000000">uuid[2147483647]</text>
<polygon fill="#ffffff" stroke="transparent" points="215,-235.2 215,-257.2 363,-257.2 363,-235.2 215,-235.2"/>
<polygon fill="none" stroke="#000000" points="215,-235.2 215,-257.2 363,-257.2 363,-235.2 215,-235.2"/>
<text text-anchor="start" x="235" y="-242.3" font-family="Helvetica,sans-Serif" font-size="11.00" fill="#000000">occurred_at</text>
<polygon fill="none" stroke="#000000" points="363,-235.2 363,-257.2 457,-257.2 457,-235.2 363,-235.2"/>
<text text-anchor="start" x="366" y="-242.9" font-family="Helvetica,sans-Serif" font-size="11.00" fill="#000000">timestamp[29,6]</text>
<polygon fill="#ffffff" stroke="transparent" points="215,-213.2 215,-235.2 363,-235.2 363,-213.2 215,-213.2"/>
<polygon fill="none" stroke="#000000" points="215,-213.2 215,-235.2 363,-235.2 363,-213.2 215,-213.2"/>
<text text-anchor="start" x="235" y="-220.3" font-family="Helvetica,sans-Serif" font-size="11.00" fill="#000000">person_identifier</text>
<polygon fill="none" stroke="#000000" points="363,-213.2 363,-235.2 457,-235.2 457,-213.2 363,-213.2"/>
<text text-anchor="start" x="366" y="-220.9" font-family="Helvetica,sans-Serif" font-size="11.00" fill="#000000">varchar[7]</text>
<polygon fill="#ffffff" stroke="transparent" points="215,-191.2 215,-213.2 363,-213.2 363,-191.2 215,-191.2"/>
<polygon fill="none" stroke="#000000" points="215,-191.2 215,-213.2 363,-213.2 363,-191.2 215,-191.2"/>
<image xlink:href="../../images/foreignKeys.png" width="11px" height="12px" preserveAspectRatio="xMinYMin meet" x="220" y="-208.2"/>
<text text-anchor="start" x="235" y="-198.3" font-family="Helvetica,sans-Serif" font-size="11.00" fill="#000000">staff_id</text>
<polygon fill="none" stroke="#000000" points="363,-191.2 363,-213.2 457,-213.2 457,-191.2 363,-191.2"/>
<text text-anchor="start" x="366" y="-198.9" font-family="Helvetica,sans-Serif" font-size="11.00" fill="#000000">int8[19]</text>
<polygon fill="none" stroke="#000000" points="215,-169.2 215,-191.2 363,-191.2 363,-169.2 215,-169.2"/>
<text text-anchor="start" x="235" y="-176.3" font-family="Helvetica,sans-Serif" font-size="11.00" fill="#000000">staff_username</text>
<polygon fill="none" stroke="#000000" points="363,-169.2 363,-191.2 457,-191.2 457,-169.2 363,-169.2"/>
<text text-anchor="start" x="366" y="-176.9" font-family="Helvetica,sans-Serif" font-size="11.00" fill="#000000">varchar[64]</text>
<polygon fill="#ffffff" stroke="transparent" points="215,-147.2 215,-169.2 363,-169.2 363,-147.2 215,-147.2"/>
<polygon fill="none" stroke="#000000" points="215,-147.2 215,-169.2 363,-169.2 363,-147.2 215,-147.2"/>
<text text-anchor="start" x="235" y="-154.3" font-family="Helvetica,sans-Serif" font-size="11.00" fill="#000000">prison_code</text>
<polygon fill="none" stroke="#000000" points="363,-147.2 363,-169.2 457,-169.2 457,-147.2 363,-147.2"/>
<text text-anchor="start" x="366" y="-154.9" font-family="Helvetica,sans-Serif" font-size="11.00" fill="#000000">varchar[6]</text>
<polygon fill="none" stroke="#000000" points="215,-125.2 215,-147.2 363,-147.2 363,-125.2 215,-125.2"/>
<text text-anchor="start" x="235" y="-132.3" font-family="Helvetica,sans-Serif" font-size="11.00" fill="#000000">created_at</text>
<polygon fill="none" stroke="#000000" points="363,-125.2 363,-147.2 457,-147.2 457,-125.2 363,-125.2"/>
<text text-anchor="start" x="366" y="-132.9" font-family="Helvetica,sans-Serif" font-size="11.00" fill="#000000">timestamp[29,6]</text>
<polygon fill="none" stroke="#000000" points="215,-103.2 215,-125.2 363,-125.2 363,-103.2 215,-103.2"/>
<text text-anchor="start" x="235" y="-110.3" font-family="Helvetica,sans-Serif" font-size="11.00" fill="#000000">version</text>
<polygon fill="none" stroke="#000000" points="363,-103.2 363,-125.2 457,-125.2 457,-103.2 363,-103.2"/>
<text text-anchor="start" x="366" y="-110.9" font-family="Helvetica,sans-Serif" font-size="11.00" fill="#000000">int4[10]</text>
<polygon fill="none" stroke="#000000" points="215,-81.2 215,-103.2 363,-103.2 363,-81.2 215,-81.2"/>
<text text-anchor="start" x="235" y="-88.3" font-family="Helvetica,sans-Serif" font-size="11.00" fill="#000000">text_length</text>
<polygon fill="none" stroke="#000000" points="363,-81.2 363,-103.2 457,-103.2 457,-81.2 363,-81.2"/>
<text text-anchor="start" x="366" y="-88.9" font-family="Helvetica,sans-Serif" font-size="11.00" fill="#000000">int4[10]</text>
<polygon fill="none" stroke="#000000" points="215,-59.2 215,-81.2 363,-81.2 363,-59.2 215,-59.2"/>
<text text-anchor="start" x="235" y="-66.3" font-family="Helvetica,sans-Serif" font-size="11.00" fill="#000000">amendment_count</text>
<polygon fill="none" stroke="#000000" points="363,-59.2 363,-81.2 457,-81.2 457,-59.2 363,-59.2"/>
<text text-anchor="start" x="366" y="-66.9" font-family="Helvetica,sans-Serif" font-size="11.00" fill="#000000">int4[10]</text>
<polygon fill="#ffffff" stroke="transparent" points="215,-40.2 215,-59.2 293,-59.2 293,-40.2 215,-40.2"/>
<polygon fill="none" stroke="#000000" points="215,-40.2 215,-59.2 293,-59.2 293,-40.2 215,-40.2"/>
<text text-anchor="start" x="218" y="-46.3" font-family="Helvetica,sans-Serif" font-size="11.00" fill="#000000">&lt; 1</text>
<polygon fill="#ffffff" stroke="transparent" points="293,-40.2 293,-59.2 363,-59.2 363,-40.2 293,-40.2"/>
<polygon fill="none" stroke="#000000" points="293,-40.2 293,-59.2 363,-59.2 363,-40.2 293,-40.2"/>
<text text-anchor="start" x="353.8862" y="-46.3" font-family="Helvetica,sans-Serif" font-size="11.00" fill="#000000"> &#160;</text>
<polygon fill="#ffffff" stroke="transparent" points="363,-40.2 363,-59.2 457,-59.2 457,-40.2 363,-40.2"/>
<polygon fill="none" stroke="#000000" points="363,-40.2 363,-59.2 457,-59.2 457,-40.2 363,-40.2"/>
<text text-anchor="start" x="438.4053" y="-46.3" font-family="Helvetica,sans-Serif" font-size="11.00" fill="#000000">0 &gt;</text>
<polygon fill="none" stroke="#000000" stroke-width="2" points="214,-39.2 214,-303.2 458,-303.2 458,-39.2 214,-39.2"/>
</a>
</g>
</g>
<!-- key_worker -->
<g id="node2" class="node">
<title>key_worker</title>
<g id="a_node2"><a xlink:href="../../tables/key_worker.html" xlink:title="key_worker" target="_top">
<polygon fill="#ffffff" stroke="transparent" points="8,-153.7 8,-236.7 164,-236.7 164,-153.7 8,-153.7"/>
<polygon fill="#f5f5f5" stroke="transparent" points="8,-213.2 8,-236.2 164,-236.2 164,-213.2 8,-213.2"/>
<polygon fill="none" stroke="#000000" points="8,-213.2 8,-236.2 164,-236.2 164,-213.2 8,-213.2"/>
<text text-anchor="start" x="13" y="-221.8" font-family="Helvetica,sans-Serif" font-weight="bold" font-size="11.00" fill="#000000">key_worker</text>
<text text-anchor="start" x="129.0437" y="-221.3" font-family="Helvetica,sans-Serif" font-size="11.00" fill="#000000">[table]</text>
<polygon fill="none" stroke="#000000" points="8,-191.2 8,-213.2 164,-213.2 164,-191.2 8,-191.2"/>
<image xlink:href="../../images/primaryKeys.png" width="11px" height="12px" preserveAspectRatio="xMinYMin meet" x="13" y="-208.2"/>
<text text-anchor="start" x="28" y="-198.3" font-family="Helvetica,sans-Serif" font-size="11.00" fill="#000000">staff_id</text>
<polygon fill="none" stroke="#000000" points="8,-172.2 8,-191.2 164,-191.2 164,-172.2 8,-172.2"/>
<text text-anchor="start" x="11" y="-178.3" font-family="Helvetica,sans-Serif" font-size="11.00" fill="#000000">...</text>
<polygon fill="#ffffff" stroke="transparent" points="8,-153.2 8,-172.2 75,-172.2 75,-153.2 8,-153.2"/>
<polygon fill="none" stroke="#000000" points="8,-153.2 8,-172.2 75,-172.2 75,-153.2 8,-153.2"/>
<text text-anchor="start" x="11" y="-159.3" font-family="Helvetica,sans-Serif" font-size="11.00" fill="#000000"> &#160;</text>
<polygon fill="#ffffff" stroke="transparent" points="75,-153.2 75,-172.2 115,-172.2 115,-153.2 75,-153.2"/>
<polygon fill="none" stroke="#000000" points="75,-153.2 75,-172.2 115,-172.2 115,-153.2 75,-153.2"/>
<text text-anchor="start" x="105.8862" y="-159.3" font-family="Helvetica,sans-Serif" font-size="11.00" fill="#000000"> &#160;</text>
<polygon fill="#ffffff" stroke="transparent" points="115,-153.2 115,-172.2 164,-172.2 164,-153.2 115,-153.2"/>
<polygon fill="none" stroke="#000000" points="115,-153.2 115,-172.2 164,-172.2 164,-153.2 115,-153.2"/>
<text text-anchor="start" x="145.4053" y="-159.3" font-family="Helvetica,sans-Serif" font-size="11.00" fill="#000000">3 &gt;</text>
</a>
</g>
</g>
<!-- keyworker_session&#45;&gt;key_worker -->
<g id="edge1" class="edge">
<title>keyworker_session:w&#45;&gt;key_worker:e</title>
<path fill="none" stroke="#000000" stroke-dasharray="5,2" d="M200.276,-202.2C188.2815,-202.2 180.8229,-202.2 164,-202.2"/>
<polygon fill="#000000" stroke="#000000" points="207,-202.2001 215,-205.8 211,-202.2 215,-202.2 215,-202.2 215,-202.2 211,-202.2 215,-198.6 207,-202.2001 207,-202.2001"/>
<ellipse fill="none" stroke="#000000" cx="203.8" cy="-202.2001" rx="3.2" ry="3.2"/>
</g>
</g>
</svg>
