<?xml version="1.0" encoding="UTF-8" standalone="no"?>
<!DOCTYPE svg PUBLIC "-//W3C//DTD SVG 1.1//EN"
 "http://www.w3.org/Graphics/SVG/1.1/DTD/svg11.dtd">
<!-- Generated by graphviz version 2.40.1 (20161225.0304)
 -->
<!-- Title: twoDegreesRelationshipsDiagramImplied Pages: 1 -->
<svg width="472pt" height="481pt"
 viewBox="0.00 0.00 472.00 480.70" xmlns="http://www.w3.org/2000/svg" xmlns:xlink="http://www.w3.org/1999/xlink">
<g id="graph0" class="graph" transform="scale(1 1) rotate(0) translate(4 476.7)">
<title>twoDegreesRelationshipsDiagramImplied</title>
<polygon fill="#ffffff" stroke="transparent" points="-4,4 -4,-476.7 468,-476.7 468,4 -4,4"/>
<text text-anchor="middle" x="72.4936" y="-7.3" font-family="Helvetica,sans-Serif" font-size="11.00" fill="#000000">Generated by SchemaSpy</text>
<!-- keyworker_entry -->
<g id="node1" class="node">
<title>keyworker_entry</title>
<g id="a_node1"><a xlink:href="../../tables/keyworker_entry.html" xlink:title="keyworker_entry" target="_top">
<polygon fill="#ffffff" stroke="transparent" points="213,-202.7 213,-468.7 456,-468.7 456,-202.7 213,-202.7"/>
<polygon fill="#f5f5f5" stroke="transparent" points="215.5,-443.7 215.5,-466.7 454.5,-466.7 454.5,-443.7 215.5,-443.7"/>
<polygon fill="none" stroke="#000000" points="215.5,-443.7 215.5,-466.7 454.5,-466.7 454.5,-443.7 215.5,-443.7"/>
<text text-anchor="start" x="220.5" y="-452.3" font-family="Helvetica,sans-Serif" font-weight="bold" font-size="11.00" fill="#000000">keyworker_entry</text>
<text text-anchor="start" x="419.5437" y="-451.8" font-family="Helvetica,sans-Serif" font-size="11.00" fill="#000000">[table]</text>
<polygon fill="none" stroke="#000000" points="215.5,-421.7 215.5,-443.7 360.5,-443.7 360.5,-421.7 215.5,-421.7"/>
<image xlink:href="../../images/primaryKeys.png" width="11px" height="12px" preserveAspectRatio="xMinYMin meet" x="220.5" y="-438.7"/>
<text text-anchor="start" x="235.5" y="-428.8" font-family="Helvetica,sans-Serif" font-size="11.00" fill="#000000">id</text>
<polygon fill="none" stroke="#000000" points="360.5,-421.7 360.5,-443.7 454.5,-443.7 454.5,-421.7 360.5,-421.7"/>
<text text-anchor="start" x="363.4758" y="-429.4" font-family="Helvetica,sans-Serif" font-size="11.00" fill="#000000">uuid[2147483647]</text>
<polygon fill="#ffffff" stroke="transparent" points="215.5,-399.7 215.5,-421.7 360.5,-421.7 360.5,-399.7 215.5,-399.7"/>
<polygon fill="none" stroke="#000000" points="215.5,-399.7 215.5,-421.7 360.5,-421.7 360.5,-399.7 215.5,-399.7"/>
<text text-anchor="start" x="235.5" y="-406.8" font-family="Helvetica,sans-Serif" font-size="11.00" fill="#000000">occurred_at</text>
<polygon fill="none" stroke="#000000" points="360.5,-399.7 360.5,-421.7 454.5,-421.7 454.5,-399.7 360.5,-399.7"/>
<text text-anchor="start" x="363.5" y="-407.4" font-family="Helvetica,sans-Serif" font-size="11.00" fill="#000000">timestamp[29,6]</text>
<polygon fill="#ffffff" stroke="transparent" points="215.5,-377.7 215.5,-399.7 360.5,-399.7 360.5,-377.7 215.5,-377.7"/>
<polygon fill="none" stroke="#000000" points="215.5,-377.7 215.5,-399.7 360.5,-399.7 360.5,-377.7 215.5,-377.7"/>
<text text-anchor="start" x="235.5" y="-384.8" font-family="Helvetica,sans-Serif" font-size="11.00" fill="#000000">person_identifier</text>
<polygon fill="none" stroke="#000000" points="360.5,-377.7 360.5,-399.7 454.5,-399.7 454.5,-377.7 360.5,-377.7"/>
<text text-anchor="start" x="363.5" y="-385.4" font-family="Helvetica,sans-Serif" font-size="11.00" fill="#000000">varchar[7]</text>
<polygon fill="#ffffff" stroke="transparent" points="215.5,-355.7 215.5,-377.7 360.5,-377.7 360.5,-355.7 215.5,-355.7"/>
<polygon fill="none" stroke="#000000" points="215.5,-355.7 215.5,-377.7 360.5,-377.7 360.5,-355.7 215.5,-355.7"/>
<image xlink:href="../../images/foreignKeys.png" width="11px" height="12px" preserveAspectRatio="xMinYMin meet" x="220.5" y="-372.7"/>
<text text-anchor="start" x="235.5" y="-362.8" font-family="Helvetica,sans-Serif" font-size="11.00" fill="#000000">staff_id</text>
<polygon fill="none" stroke="#000000" points="360.5,-355.7 360.5,-377.7 454.5,-377.7 454.5,-355.7 360.5,-355.7"/>
<text text-anchor="start" x="363.5" y="-363.4" font-family="Helvetica,sans-Serif" font-size="11.00" fill="#000000">int8[19]</text>
<polygon fill="none" stroke="#000000" points="215.5,-333.7 215.5,-355.7 360.5,-355.7 360.5,-333.7 215.5,-333.7"/>
<text text-anchor="start" x="235.5" y="-340.8" font-family="Helvetica,sans-Serif" font-size="11.00" fill="#000000">staff_username</text>
<polygon fill="none" stroke="#000000" points="360.5,-333.7 360.5,-355.7 454.5,-355.7 454.5,-333.7 360.5,-333.7"/>
<text text-anchor="start" x="363.5" y="-341.4" font-family="Helvetica,sans-Serif" font-size="11.00" fill="#000000">varchar[64]</text>
<polygon fill="#ffffff" stroke="transparent" points="215.5,-311.7 215.5,-333.7 360.5,-333.7 360.5,-311.7 215.5,-311.7"/>
<polygon fill="none" stroke="#000000" points="215.5,-311.7 215.5,-333.7 360.5,-333.7 360.5,-311.7 215.5,-311.7"/>
<text text-anchor="start" x="235.5" y="-318.8" font-family="Helvetica,sans-Serif" font-size="11.00" fill="#000000">prison_code</text>
<polygon fill="none" stroke="#000000" points="360.5,-311.7 360.5,-333.7 454.5,-333.7 454.5,-311.7 360.5,-311.7"/>
<text text-anchor="start" x="363.5" y="-319.4" font-family="Helvetica,sans-Serif" font-size="11.00" fill="#000000">varchar[6]</text>
<polygon fill="none" stroke="#000000" points="215.5,-289.7 215.5,-311.7 360.5,-311.7 360.5,-289.7 215.5,-289.7"/>
<text text-anchor="start" x="235.5" y="-296.8" font-family="Helvetica,sans-Serif" font-size="11.00" fill="#000000">created_at</text>
<polygon fill="none" stroke="#000000" points="360.5,-289.7 360.5,-311.7 454.5,-311.7 454.5,-289.7 360.5,-289.7"/>
<text text-anchor="start" x="363.5" y="-297.4" font-family="Helvetica,sans-Serif" font-size="11.00" fill="#000000">timestamp[29,6]</text>
<polygon fill="none" stroke="#000000" points="215.5,-267.7 215.5,-289.7 360.5,-289.7 360.5,-267.7 215.5,-267.7"/>
<text text-anchor="start" x="235.5" y="-274.8" font-family="Helvetica,sans-Serif" font-size="11.00" fill="#000000">version</text>
<polygon fill="none" stroke="#000000" points="360.5,-267.7 360.5,-289.7 454.5,-289.7 454.5,-267.7 360.5,-267.7"/>
<text text-anchor="start" x="363.5" y="-275.4" font-family="Helvetica,sans-Serif" font-size="11.00" fill="#000000">int4[10]</text>
<polygon fill="none" stroke="#000000" points="215.5,-245.7 215.5,-267.7 360.5,-267.7 360.5,-245.7 215.5,-245.7"/>
<text text-anchor="start" x="235.5" y="-252.8" font-family="Helvetica,sans-Serif" font-size="11.00" fill="#000000">text_length</text>
<polygon fill="none" stroke="#000000" points="360.5,-245.7 360.5,-267.7 454.5,-267.7 454.5,-245.7 360.5,-245.7"/>
<text text-anchor="start" x="363.5" y="-253.4" font-family="Helvetica,sans-Serif" font-size="11.00" fill="#000000">int4[10]</text>
<polygon fill="none" stroke="#000000" points="215.5,-223.7 215.5,-245.7 360.5,-245.7 360.5,-223.7 215.5,-223.7"/>
<text text-anchor="start" x="235.5" y="-230.8" font-family="Helvetica,sans-Serif" font-size="11.00" fill="#000000">amendment_count</text>
<polygon fill="none" stroke="#000000" points="360.5,-223.7 360.5,-245.7 454.5,-245.7 454.5,-223.7 360.5,-223.7"/>
<text text-anchor="start" x="363.5" y="-231.4" font-family="Helvetica,sans-Serif" font-size="11.00" fill="#000000">int4[10]</text>
<polygon fill="#ffffff" stroke="transparent" points="215.5,-204.7 215.5,-223.7 292.5,-223.7 292.5,-204.7 215.5,-204.7"/>
<polygon fill="none" stroke="#000000" points="215.5,-204.7 215.5,-223.7 292.5,-223.7 292.5,-204.7 215.5,-204.7"/>
<text text-anchor="start" x="218.5" y="-210.8" font-family="Helvetica,sans-Serif" font-size="11.00" fill="#000000">&lt; 1</text>
<polygon fill="#ffffff" stroke="transparent" points="292.5,-204.7 292.5,-223.7 360.5,-223.7 360.5,-204.7 292.5,-204.7"/>
<polygon fill="none" stroke="#000000" points="292.5,-204.7 292.5,-223.7 360.5,-223.7 360.5,-204.7 292.5,-204.7"/>
<text text-anchor="start" x="351.3862" y="-210.8" font-family="Helvetica,sans-Serif" font-size="11.00" fill="#000000"> &#160;</text>
<polygon fill="#ffffff" stroke="transparent" points="360.5,-204.7 360.5,-223.7 454.5,-223.7 454.5,-204.7 360.5,-204.7"/>
<polygon fill="none" stroke="#000000" points="360.5,-204.7 360.5,-223.7 454.5,-223.7 454.5,-204.7 360.5,-204.7"/>
<text text-anchor="start" x="435.9053" y="-210.8" font-family="Helvetica,sans-Serif" font-size="11.00" fill="#000000">0 &gt;</text>
<polygon fill="none" stroke="#000000" stroke-width="2" points="214,-203.7 214,-467.7 455,-467.7 455,-203.7 214,-203.7"/>
</a>
</g>
</g>
<!-- key_worker -->
<g id="node2" class="node">
<title>key_worker</title>
<g id="a_node2"><a xlink:href="../../tables/key_worker.html" xlink:title="key_worker" target="_top">
<polygon fill="#ffffff" stroke="transparent" points="8,-99.2 8,-182.2 164,-182.2 164,-99.2 8,-99.2"/>
<polygon fill="#f5f5f5" stroke="transparent" points="8,-158.7 8,-181.7 164,-181.7 164,-158.7 8,-158.7"/>
<polygon fill="none" stroke="#000000" points="8,-158.7 8,-181.7 164,-181.7 164,-158.7 8,-158.7"/>
<text text-anchor="start" x="13" y="-167.3" font-family="Helvetica,sans-Serif" font-weight="bold" font-size="11.00" fill="#000000">key_worker</text>
<text text-anchor="start" x="129.0437" y="-166.8" font-family="Helvetica,sans-Serif" font-size="11.00" fill="#000000">[table]</text>
<polygon fill="none" stroke="#000000" points="8,-136.7 8,-158.7 164,-158.7 164,-136.7 8,-136.7"/>
<image xlink:href="../../images/primaryKeys.png" width="11px" height="12px" preserveAspectRatio="xMinYMin meet" x="13" y="-153.7"/>
<text text-anchor="start" x="28" y="-143.8" font-family="Helvetica,sans-Serif" font-size="11.00" fill="#000000">staff_id</text>
<polygon fill="none" stroke="#000000" points="8,-117.7 8,-136.7 164,-136.7 164,-117.7 8,-117.7"/>
<text text-anchor="start" x="11" y="-123.8" font-family="Helvetica,sans-Serif" font-size="11.00" fill="#000000">...</text>
<polygon fill="#ffffff" stroke="transparent" points="8,-98.7 8,-117.7 75,-117.7 75,-98.7 8,-98.7"/>
<polygon fill="none" stroke="#000000" points="8,-98.7 8,-117.7 75,-117.7 75,-98.7 8,-98.7"/>
<text text-anchor="start" x="11" y="-104.8" font-family="Helvetica,sans-Serif" font-size="11.00" fill="#000000"> &#160;</text>
<polygon fill="#ffffff" stroke="transparent" points="75,-98.7 75,-117.7 115,-117.7 115,-98.7 75,-98.7"/>
<polygon fill="none" stroke="#000000" points="75,-98.7 75,-117.7 115,-117.7 115,-98.7 75,-98.7"/>
<text text-anchor="start" x="105.8862" y="-104.8" font-family="Helvetica,sans-Serif" font-size="11.00" fill="#000000"> &#160;</text>
<polygon fill="#ffffff" stroke="transparent" points="115,-98.7 115,-117.7 164,-117.7 164,-98.7 115,-98.7"/>
<polygon fill="none" stroke="#000000" points="115,-98.7 115,-117.7 164,-117.7 164,-98.7 115,-98.7"/>
<text text-anchor="start" x="145.4053" y="-104.8" font-family="Helvetica,sans-Serif" font-size="11.00" fill="#000000">3 &gt;</text>
</a>
</g>
</g>
<!-- keyworker_entry&#45;&gt;key_worker -->
<g id="edge1" class="edge">
<title>keyworker_entry:w&#45;&gt;key_worker:e</title>
<path fill="none" stroke="#000000" stroke-dasharray="5,2" d="M200.8108,-364.6718C131.5341,-342.594 258.325,-147.7 164,-147.7"/>
<polygon fill="#000000" stroke="#000000" points="207.5752,-365.6058 215.0076,-370.2662 211.5376,-366.1529 215.5,-366.7 215.5,-366.7 215.5,-366.7 211.5376,-366.1529 215.9924,-363.1338 207.5752,-365.6058 207.5752,-365.6058"/>
<ellipse fill="none" stroke="#000000" cx="204.4053" cy="-365.1681" rx="3.2" ry="3.2"/>
</g>
<!-- keyworker_session -->
<g id="node3" class="node">
<title>keyworker_session</title>
<g id="a_node3"><a xlink:href="../../tables/keyworker_session.html" xlink:title="keyworker_session" target="_top">
<polygon fill="#ffffff" stroke="transparent" points="251.5,-120.2 251.5,-181.2 417.5,-181.2 417.5,-120.2 251.5,-120.2"/>
<polygon fill="#f5f5f5" stroke="transparent" points="251.5,-157.7 251.5,-180.7 417.5,-180.7 417.5,-157.7 251.5,-157.7"/>
<polygon fill="none" stroke="#000000" points="251.5,-157.7 251.5,-180.7 417.5,-180.7 417.5,-157.7 251.5,-157.7"/>
<text text-anchor="start" x="256.5" y="-166.3" font-family="Helvetica,sans-Serif" font-weight="bold" font-size="11.00" fill="#000000">keyworker_session</text>
<text text-anchor="start" x="383.0219" y="-165.8" font-family="Helvetica,sans-Serif" font-size="11.00" fill="#000000">[table]</text>
<polygon fill="none" stroke="#000000" points="251.5,-138.7 251.5,-157.7 417.5,-157.7 417.5,-138.7 251.5,-138.7"/>
<text text-anchor="start" x="254.5" y="-144.8" font-family="Helvetica,sans-Serif" font-size="11.00" fill="#000000">...</text>
<polygon fill="#ffffff" stroke="transparent" points="251.5,-119.7 251.5,-138.7 332.5,-138.7 332.5,-119.7 251.5,-119.7"/>
<polygon fill="none" stroke="#000000" points="251.5,-119.7 251.5,-138.7 332.5,-138.7 332.5,-119.7 251.5,-119.7"/>
<text text-anchor="start" x="254.5" y="-125.8" font-family="Helvetica,sans-Serif" font-size="11.00" fill="#000000">&lt; 1</text>
<polygon fill="#ffffff" stroke="transparent" points="332.5,-119.7 332.5,-138.7 374.5,-138.7 374.5,-119.7 332.5,-119.7"/>
<polygon fill="none" stroke="#000000" points="332.5,-119.7 332.5,-138.7 374.5,-138.7 374.5,-119.7 332.5,-119.7"/>
<text text-anchor="start" x="365.3862" y="-125.8" font-family="Helvetica,sans-Serif" font-size="11.00" fill="#000000"> &#160;</text>
<polygon fill="#ffffff" stroke="transparent" points="374.5,-119.7 374.5,-138.7 417.5,-138.7 417.5,-119.7 374.5,-119.7"/>
<polygon fill="none" stroke="#000000" points="374.5,-119.7 374.5,-138.7 417.5,-138.7 417.5,-119.7 374.5,-119.7"/>
<text text-anchor="start" x="408.3862" y="-125.8" font-family="Helvetica,sans-Serif" font-size="11.00" fill="#000000"> &#160;</text>
</a>
</g>
</g>
<!-- keyworker_session&#45;&gt;key_worker -->
<g id="edge2" class="edge">
<title>keyworker_session:w&#45;&gt;key_worker:e</title>
<path fill="none" stroke="#000000" stroke-dasharray="5,2" d="M237.036,-147.7C209.4075,-147.7 197.572,-147.7 164,-147.7"/>
<polygon fill="#000000" stroke="#000000" points="243.5,-147.7001 251.5,-151.3 247.5,-147.7 251.5,-147.7 251.5,-147.7 251.5,-147.7 247.5,-147.7 251.5,-144.1 243.5,-147.7001 243.5,-147.7001"/>
<ellipse fill="none" stroke="#000000" cx="240.3" cy="-147.7001" rx="3.2" ry="3.2"/>
</g>
<!-- offender_key_worker -->
<g id="node4" class="node">
<title>offender_key_worker</title>
<g id="a_node4"><a xlink:href="../../tables/offender_key_worker.html" xlink:title="offender_key_worker" target="_top">
<polygon fill="#ffffff" stroke="transparent" points="244.5,-38.2 244.5,-99.2 424.5,-99.2 424.5,-38.2 244.5,-38.2"/>
<polygon fill="#f5f5f5" stroke="transparent" points="244.5,-75.7 244.5,-98.7 424.5,-98.7 424.5,-75.7 244.5,-75.7"/>
<polygon fill="none" stroke="#000000" points="244.5,-75.7 244.5,-98.7 424.5,-98.7 424.5,-75.7 244.5,-75.7"/>
<text text-anchor="start" x="249.5" y="-84.3" font-family="Helvetica,sans-Serif" font-weight="bold" font-size="11.00" fill="#000000">offender_key_worker</text>
<text text-anchor="start" x="390.0219" y="-83.8" font-family="Helvetica,sans-Serif" font-size="11.00" fill="#000000">[table]</text>
<polygon fill="none" stroke="#000000" points="244.5,-56.7 244.5,-75.7 424.5,-75.7 424.5,-56.7 244.5,-56.7"/>
<text text-anchor="start" x="247.5" y="-62.8" font-family="Helvetica,sans-Serif" font-size="11.00" fill="#000000">...</text>
<polygon fill="#ffffff" stroke="transparent" points="244.5,-37.7 244.5,-56.7 332.5,-56.7 332.5,-37.7 244.5,-37.7"/>
<polygon fill="none" stroke="#000000" points="244.5,-37.7 244.5,-56.7 332.5,-56.7 332.5,-37.7 244.5,-37.7"/>
<text text-anchor="start" x="247.5" y="-43.8" font-family="Helvetica,sans-Serif" font-size="11.00" fill="#000000">&lt; 2</text>
<polygon fill="#ffffff" stroke="transparent" points="332.5,-37.7 332.5,-56.7 378.5,-56.7 378.5,-37.7 332.5,-37.7"/>
<polygon fill="none" stroke="#000000" points="332.5,-37.7 332.5,-56.7 378.5,-56.7 378.5,-37.7 332.5,-37.7"/>
<text text-anchor="start" x="369.3862" y="-43.8" font-family="Helvetica,sans-Serif" font-size="11.00" fill="#000000"> &#160;</text>
<polygon fill="#ffffff" stroke="transparent" points="378.5,-37.7 378.5,-56.7 424.5,-56.7 424.5,-37.7 378.5,-37.7"/>
<polygon fill="none" stroke="#000000" points="378.5,-37.7 378.5,-56.7 424.5,-56.7 424.5,-37.7 378.5,-37.7"/>
<text text-anchor="start" x="415.3862" y="-43.8" font-family="Helvetica,sans-Serif" font-size="11.00" fill="#000000"> &#160;</text>
</a>
</g>
</g>
<!-- offender_key_worker&#45;&gt;key_worker -->
<g id="edge3" class="edge">
<title>offender_key_worker:w&#45;&gt;key_worker:e</title>
<path fill="none" stroke="#000000" stroke-dasharray="5,2" d="M230.1616,-68.4283C197.2933,-82.6565 209.4851,-147.7 164,-147.7"/>
<polygon fill="#000000" stroke="#000000" points="236.641,-67.1954 245.1729,-69.2365 240.5705,-66.4477 244.5,-65.7 244.5,-65.7 244.5,-65.7 240.5705,-66.4477 243.8271,-62.1635 236.641,-67.1954 236.641,-67.1954"/>
<ellipse fill="none" stroke="#000000" cx="233.4974" cy="-67.7936" rx="3.2" ry="3.2"/>
</g>
</g>
</svg>
