<?xml version="1.0" encoding="UTF-8" standalone="no"?>
<!DOCTYPE svg PUBLIC "-//W3C//DTD SVG 1.1//EN"
 "http://www.w3.org/Graphics/SVG/1.1/DTD/svg11.dtd">
<!-- Generated by graphviz version 2.40.1 (20161225.0304)
 -->
<!-- Title: twoDegreesRelationshipsDiagramImplied Pages: 1 -->
<svg width="559pt" height="891pt"
 viewBox="0.00 0.00 559.00 891.20" xmlns="http://www.w3.org/2000/svg" xmlns:xlink="http://www.w3.org/1999/xlink">
<g id="graph0" class="graph" transform="scale(1 1) rotate(0) translate(4 887.2)">
<title>twoDegreesRelationshipsDiagramImplied</title>
<polygon fill="#ffffff" stroke="transparent" points="-4,4 -4,-887.2 555,-887.2 555,4 -4,4"/>
<text text-anchor="middle" x="72.4936" y="-7.3" font-family="Helvetica,sans-Serif" font-size="11.00" fill="#000000">Generated by SchemaSpy</text>
<!-- allocation -->
<g id="node1" class="node">
<title>allocation</title>
<g id="a_node1"><a xlink:href="../../tables/allocation.html" xlink:title="allocation" target="_top">
<polygon fill="#ffffff" stroke="transparent" points="369,-818.2 369,-879.2 474,-879.2 474,-818.2 369,-818.2"/>
<polygon fill="#f5f5f5" stroke="transparent" points="369.5,-855.7 369.5,-878.7 474.5,-878.7 474.5,-855.7 369.5,-855.7"/>
<polygon fill="none" stroke="#000000" points="369.5,-855.7 369.5,-878.7 474.5,-878.7 474.5,-855.7 369.5,-855.7"/>
<text text-anchor="start" x="374.5" y="-864.3" font-family="Helvetica,sans-Serif" font-weight="bold" font-size="11.00" fill="#000000">allocation</text>
<text text-anchor="start" x="440.0219" y="-863.8" font-family="Helvetica,sans-Serif" font-size="11.00" fill="#000000">[table]</text>
<polygon fill="none" stroke="#000000" points="369.5,-836.7 369.5,-855.7 474.5,-855.7 474.5,-836.7 369.5,-836.7"/>
<text text-anchor="start" x="372.5" y="-842.8" font-family="Helvetica,sans-Serif" font-size="11.00" fill="#000000">...</text>
<polygon fill="#ffffff" stroke="transparent" points="369.5,-817.7 369.5,-836.7 420.5,-836.7 420.5,-817.7 369.5,-817.7"/>
<polygon fill="none" stroke="#000000" points="369.5,-817.7 369.5,-836.7 420.5,-836.7 420.5,-817.7 369.5,-817.7"/>
<text text-anchor="start" x="372.5" y="-823.8" font-family="Helvetica,sans-Serif" font-size="11.00" fill="#000000">&lt; 4</text>
<polygon fill="#ffffff" stroke="transparent" points="420.5,-817.7 420.5,-836.7 447.5,-836.7 447.5,-817.7 420.5,-817.7"/>
<polygon fill="none" stroke="#000000" points="420.5,-817.7 420.5,-836.7 447.5,-836.7 447.5,-817.7 420.5,-817.7"/>
<text text-anchor="start" x="438.3862" y="-823.8" font-family="Helvetica,sans-Serif" font-size="11.00" fill="#000000"> &#160;</text>
<polygon fill="#ffffff" stroke="transparent" points="447.5,-817.7 447.5,-836.7 474.5,-836.7 474.5,-817.7 447.5,-817.7"/>
<polygon fill="none" stroke="#000000" points="447.5,-817.7 447.5,-836.7 474.5,-836.7 474.5,-817.7 447.5,-817.7"/>
<text text-anchor="start" x="465.3862" y="-823.8" font-family="Helvetica,sans-Serif" font-size="11.00" fill="#000000"> &#160;</text>
</a>
</g>
</g>
<!-- prison_migration_date_history -->
<g id="node2" class="node">
<title>prison_migration_date_history</title>
<g id="a_node2"><a xlink:href="../../tables/prison_migration_date_history.html" xlink:title="prison_migration_date_history" target="_top">
<polygon fill="#ffffff" stroke="transparent" points="8,-304.2 8,-387.2 251,-387.2 251,-304.2 8,-304.2"/>
<polygon fill="#f5f5f5" stroke="transparent" points="8.5,-363.7 8.5,-386.7 251.5,-386.7 251.5,-363.7 8.5,-363.7"/>
<polygon fill="none" stroke="#000000" points="8.5,-363.7 8.5,-386.7 251.5,-386.7 251.5,-363.7 8.5,-363.7"/>
<text text-anchor="start" x="13.5" y="-372.3" font-family="Helvetica,sans-Serif" font-weight="bold" font-size="11.00" fill="#000000">prison_migration_date_history</text>
<text text-anchor="start" x="217.0219" y="-371.8" font-family="Helvetica,sans-Serif" font-size="11.00" fill="#000000">[table]</text>
<polygon fill="none" stroke="#000000" points="8.5,-341.7 8.5,-363.7 251.5,-363.7 251.5,-341.7 8.5,-341.7"/>
<image xlink:href="../../images/primaryKeys.png" width="11px" height="12px" preserveAspectRatio="xMinYMin meet" x="13.5" y="-358.7"/>
<text text-anchor="start" x="37.5" y="-348.8" font-family="Helvetica,sans-Serif" font-size="11.00" fill="#000000">prison_code</text>
<polygon fill="none" stroke="#000000" points="8.5,-322.7 8.5,-341.7 251.5,-341.7 251.5,-322.7 8.5,-322.7"/>
<text text-anchor="start" x="11.5" y="-328.8" font-family="Helvetica,sans-Serif" font-size="11.00" fill="#000000">...</text>
<polygon fill="#ffffff" stroke="transparent" points="8.5,-303.7 8.5,-322.7 119.5,-322.7 119.5,-303.7 8.5,-303.7"/>
<polygon fill="none" stroke="#000000" points="8.5,-303.7 8.5,-322.7 119.5,-322.7 119.5,-303.7 8.5,-303.7"/>
<text text-anchor="start" x="11.5" y="-309.8" font-family="Helvetica,sans-Serif" font-size="11.00" fill="#000000"> &#160;</text>
<polygon fill="#ffffff" stroke="transparent" points="119.5,-303.7 119.5,-322.7 180.5,-322.7 180.5,-303.7 119.5,-303.7"/>
<polygon fill="none" stroke="#000000" points="119.5,-303.7 119.5,-322.7 180.5,-322.7 180.5,-303.7 119.5,-303.7"/>
<text text-anchor="start" x="171.3862" y="-309.8" font-family="Helvetica,sans-Serif" font-size="11.00" fill="#000000"> &#160;</text>
<polygon fill="#ffffff" stroke="transparent" points="180.5,-303.7 180.5,-322.7 251.5,-322.7 251.5,-303.7 180.5,-303.7"/>
<polygon fill="none" stroke="#000000" points="180.5,-303.7 180.5,-322.7 251.5,-322.7 251.5,-303.7 180.5,-303.7"/>
<text text-anchor="start" x="232.9053" y="-309.8" font-family="Helvetica,sans-Serif" font-size="11.00" fill="#000000">8 &gt;</text>
</a>
</g>
</g>
<!-- allocation&#45;&gt;prison_migration_date_history -->
<g id="edge1" class="edge">
<title>allocation:w&#45;&gt;prison_migration_date_history:e</title>
<path fill="none" stroke="#000000" stroke-dasharray="5,2" d="M354.8755,-845.2941C326.2946,-843.484 310.7499,-834.9983 292,-807.7 263.2639,-765.8628 302.2554,-352.7 251.5,-352.7"/>
<polygon fill="#000000" stroke="#000000" points="361.5031,-845.478 369.4001,-849.2986 365.5015,-845.589 369.5,-845.7 369.5,-845.7 369.5,-845.7 365.5015,-845.589 369.5999,-842.1014 361.5031,-845.478 361.5031,-845.478"/>
<ellipse fill="none" stroke="#000000" cx="358.3043" cy="-845.3892" rx="3.2" ry="3.2"/>
</g>
<!-- allocation_audit -->
<g id="node3" class="node">
<title>allocation_audit</title>
<g id="a_node3"><a xlink:href="../../tables/allocation_audit.html" xlink:title="allocation_audit" target="_top">
<polygon fill="#ffffff" stroke="transparent" points="348.5,-736.2 348.5,-797.2 494.5,-797.2 494.5,-736.2 348.5,-736.2"/>
<polygon fill="#f5f5f5" stroke="transparent" points="348.5,-773.7 348.5,-796.7 494.5,-796.7 494.5,-773.7 348.5,-773.7"/>
<polygon fill="none" stroke="#000000" points="348.5,-773.7 348.5,-796.7 494.5,-796.7 494.5,-773.7 348.5,-773.7"/>
<text text-anchor="start" x="353.5" y="-782.3" font-family="Helvetica,sans-Serif" font-weight="bold" font-size="11.00" fill="#000000">allocation_audit</text>
<text text-anchor="start" x="460.0219" y="-781.8" font-family="Helvetica,sans-Serif" font-size="11.00" fill="#000000">[table]</text>
<polygon fill="none" stroke="#000000" points="348.5,-754.7 348.5,-773.7 494.5,-773.7 494.5,-754.7 348.5,-754.7"/>
<text text-anchor="start" x="351.5" y="-760.8" font-family="Helvetica,sans-Serif" font-size="11.00" fill="#000000">...</text>
<polygon fill="#ffffff" stroke="transparent" points="348.5,-735.7 348.5,-754.7 419.5,-754.7 419.5,-735.7 348.5,-735.7"/>
<polygon fill="none" stroke="#000000" points="348.5,-735.7 348.5,-754.7 419.5,-754.7 419.5,-735.7 348.5,-735.7"/>
<text text-anchor="start" x="351.5" y="-741.8" font-family="Helvetica,sans-Serif" font-size="11.00" fill="#000000">&lt; 3</text>
<polygon fill="#ffffff" stroke="transparent" points="419.5,-735.7 419.5,-754.7 456.5,-754.7 456.5,-735.7 419.5,-735.7"/>
<polygon fill="none" stroke="#000000" points="419.5,-735.7 419.5,-754.7 456.5,-754.7 456.5,-735.7 419.5,-735.7"/>
<text text-anchor="start" x="447.3862" y="-741.8" font-family="Helvetica,sans-Serif" font-size="11.00" fill="#000000"> &#160;</text>
<polygon fill="#ffffff" stroke="transparent" points="456.5,-735.7 456.5,-754.7 494.5,-754.7 494.5,-735.7 456.5,-735.7"/>
<polygon fill="none" stroke="#000000" points="456.5,-735.7 456.5,-754.7 494.5,-754.7 494.5,-735.7 456.5,-735.7"/>
<text text-anchor="start" x="485.3862" y="-741.8" font-family="Helvetica,sans-Serif" font-size="11.00" fill="#000000"> &#160;</text>
</a>
</g>
</g>
<!-- allocation_audit&#45;&gt;prison_migration_date_history -->
<g id="edge2" class="edge">
<title>allocation_audit:w&#45;&gt;prison_migration_date_history:e</title>
<path fill="none" stroke="#000000" stroke-dasharray="5,2" d="M333.9488,-762.5183C314.2688,-758.9067 304.8363,-746.9482 292,-725.7 248.8878,-654.3354 334.8761,-352.7 251.5,-352.7"/>
<polygon fill="#000000" stroke="#000000" points="340.5263,-763.0524 348.2086,-767.2882 344.5131,-763.3762 348.5,-763.7 348.5,-763.7 348.5,-763.7 344.5131,-763.3762 348.7914,-760.1118 340.5263,-763.0524 340.5263,-763.0524"/>
<ellipse fill="none" stroke="#000000" cx="337.3368" cy="-762.7934" rx="3.2" ry="3.2"/>
</g>
<!-- keyworker_entry -->
<g id="node4" class="node">
<title>keyworker_entry</title>
<g id="a_node4"><a xlink:href="../../tables/keyworker_entry.html" xlink:title="keyworker_entry" target="_top">
<polygon fill="#ffffff" stroke="transparent" points="300,-448.7 300,-714.7 543,-714.7 543,-448.7 300,-448.7"/>
<polygon fill="#f5f5f5" stroke="transparent" points="302.5,-689.7 302.5,-712.7 541.5,-712.7 541.5,-689.7 302.5,-689.7"/>
<polygon fill="none" stroke="#000000" points="302.5,-689.7 302.5,-712.7 541.5,-712.7 541.5,-689.7 302.5,-689.7"/>
<text text-anchor="start" x="307.5" y="-698.3" font-family="Helvetica,sans-Serif" font-weight="bold" font-size="11.00" fill="#000000">keyworker_entry</text>
<text text-anchor="start" x="506.5437" y="-697.8" font-family="Helvetica,sans-Serif" font-size="11.00" fill="#000000">[table]</text>
<polygon fill="none" stroke="#000000" points="302.5,-667.7 302.5,-689.7 447.5,-689.7 447.5,-667.7 302.5,-667.7"/>
<image xlink:href="../../images/primaryKeys.png" width="11px" height="12px" preserveAspectRatio="xMinYMin meet" x="307.5" y="-684.7"/>
<text text-anchor="start" x="322.5" y="-674.8" font-family="Helvetica,sans-Serif" font-size="11.00" fill="#000000">id</text>
<polygon fill="none" stroke="#000000" points="447.5,-667.7 447.5,-689.7 541.5,-689.7 541.5,-667.7 447.5,-667.7"/>
<text text-anchor="start" x="450.4758" y="-675.4" font-family="Helvetica,sans-Serif" font-size="11.00" fill="#000000">uuid[2147483647]</text>
<polygon fill="#ffffff" stroke="transparent" points="302.5,-645.7 302.5,-667.7 447.5,-667.7 447.5,-645.7 302.5,-645.7"/>
<polygon fill="none" stroke="#000000" points="302.5,-645.7 302.5,-667.7 447.5,-667.7 447.5,-645.7 302.5,-645.7"/>
<text text-anchor="start" x="322.5" y="-652.8" font-family="Helvetica,sans-Serif" font-size="11.00" fill="#000000">occurred_at</text>
<polygon fill="none" stroke="#000000" points="447.5,-645.7 447.5,-667.7 541.5,-667.7 541.5,-645.7 447.5,-645.7"/>
<text text-anchor="start" x="450.5" y="-653.4" font-family="Helvetica,sans-Serif" font-size="11.00" fill="#000000">timestamp[29,6]</text>
<polygon fill="#ffffff" stroke="transparent" points="302.5,-623.7 302.5,-645.7 447.5,-645.7 447.5,-623.7 302.5,-623.7"/>
<polygon fill="none" stroke="#000000" points="302.5,-623.7 302.5,-645.7 447.5,-645.7 447.5,-623.7 302.5,-623.7"/>
<text text-anchor="start" x="322.5" y="-630.8" font-family="Helvetica,sans-Serif" font-size="11.00" fill="#000000">person_identifier</text>
<polygon fill="none" stroke="#000000" points="447.5,-623.7 447.5,-645.7 541.5,-645.7 541.5,-623.7 447.5,-623.7"/>
<text text-anchor="start" x="450.5" y="-631.4" font-family="Helvetica,sans-Serif" font-size="11.00" fill="#000000">varchar[7]</text>
<polygon fill="#ffffff" stroke="transparent" points="302.5,-601.7 302.5,-623.7 447.5,-623.7 447.5,-601.7 302.5,-601.7"/>
<polygon fill="none" stroke="#000000" points="302.5,-601.7 302.5,-623.7 447.5,-623.7 447.5,-601.7 302.5,-601.7"/>
<text text-anchor="start" x="322.5" y="-608.8" font-family="Helvetica,sans-Serif" font-size="11.00" fill="#000000">staff_id</text>
<polygon fill="none" stroke="#000000" points="447.5,-601.7 447.5,-623.7 541.5,-623.7 541.5,-601.7 447.5,-601.7"/>
<text text-anchor="start" x="450.5" y="-609.4" font-family="Helvetica,sans-Serif" font-size="11.00" fill="#000000">int8[19]</text>
<polygon fill="none" stroke="#000000" points="302.5,-579.7 302.5,-601.7 447.5,-601.7 447.5,-579.7 302.5,-579.7"/>
<text text-anchor="start" x="322.5" y="-586.8" font-family="Helvetica,sans-Serif" font-size="11.00" fill="#000000">staff_username</text>
<polygon fill="none" stroke="#000000" points="447.5,-579.7 447.5,-601.7 541.5,-601.7 541.5,-579.7 447.5,-579.7"/>
<text text-anchor="start" x="450.5" y="-587.4" font-family="Helvetica,sans-Serif" font-size="11.00" fill="#000000">varchar[64]</text>
<polygon fill="#ffffff" stroke="transparent" points="302.5,-557.7 302.5,-579.7 447.5,-579.7 447.5,-557.7 302.5,-557.7"/>
<polygon fill="none" stroke="#000000" points="302.5,-557.7 302.5,-579.7 447.5,-579.7 447.5,-557.7 302.5,-557.7"/>
<image xlink:href="../../images/foreignKeys.png" width="11px" height="12px" preserveAspectRatio="xMinYMin meet" x="307.5" y="-574.7"/>
<text text-anchor="start" x="322.5" y="-564.8" font-family="Helvetica,sans-Serif" font-size="11.00" fill="#000000">prison_code</text>
<polygon fill="none" stroke="#000000" points="447.5,-557.7 447.5,-579.7 541.5,-579.7 541.5,-557.7 447.5,-557.7"/>
<text text-anchor="start" x="450.5" y="-565.4" font-family="Helvetica,sans-Serif" font-size="11.00" fill="#000000">varchar[6]</text>
<polygon fill="none" stroke="#000000" points="302.5,-535.7 302.5,-557.7 447.5,-557.7 447.5,-535.7 302.5,-535.7"/>
<text text-anchor="start" x="322.5" y="-542.8" font-family="Helvetica,sans-Serif" font-size="11.00" fill="#000000">created_at</text>
<polygon fill="none" stroke="#000000" points="447.5,-535.7 447.5,-557.7 541.5,-557.7 541.5,-535.7 447.5,-535.7"/>
<text text-anchor="start" x="450.5" y="-543.4" font-family="Helvetica,sans-Serif" font-size="11.00" fill="#000000">timestamp[29,6]</text>
<polygon fill="none" stroke="#000000" points="302.5,-513.7 302.5,-535.7 447.5,-535.7 447.5,-513.7 302.5,-513.7"/>
<text text-anchor="start" x="322.5" y="-520.8" font-family="Helvetica,sans-Serif" font-size="11.00" fill="#000000">version</text>
<polygon fill="none" stroke="#000000" points="447.5,-513.7 447.5,-535.7 541.5,-535.7 541.5,-513.7 447.5,-513.7"/>
<text text-anchor="start" x="450.5" y="-521.4" font-family="Helvetica,sans-Serif" font-size="11.00" fill="#000000">int4[10]</text>
<polygon fill="none" stroke="#000000" points="302.5,-491.7 302.5,-513.7 447.5,-513.7 447.5,-491.7 302.5,-491.7"/>
<text text-anchor="start" x="322.5" y="-498.8" font-family="Helvetica,sans-Serif" font-size="11.00" fill="#000000">text_length</text>
<polygon fill="none" stroke="#000000" points="447.5,-491.7 447.5,-513.7 541.5,-513.7 541.5,-491.7 447.5,-491.7"/>
<text text-anchor="start" x="450.5" y="-499.4" font-family="Helvetica,sans-Serif" font-size="11.00" fill="#000000">int4[10]</text>
<polygon fill="none" stroke="#000000" points="302.5,-469.7 302.5,-491.7 447.5,-491.7 447.5,-469.7 302.5,-469.7"/>
<text text-anchor="start" x="322.5" y="-476.8" font-family="Helvetica,sans-Serif" font-size="11.00" fill="#000000">amendment_count</text>
<polygon fill="none" stroke="#000000" points="447.5,-469.7 447.5,-491.7 541.5,-491.7 541.5,-469.7 447.5,-469.7"/>
<text text-anchor="start" x="450.5" y="-477.4" font-family="Helvetica,sans-Serif" font-size="11.00" fill="#000000">int4[10]</text>
<polygon fill="#ffffff" stroke="transparent" points="302.5,-450.7 302.5,-469.7 379.5,-469.7 379.5,-450.7 302.5,-450.7"/>
<polygon fill="none" stroke="#000000" points="302.5,-450.7 302.5,-469.7 379.5,-469.7 379.5,-450.7 302.5,-450.7"/>
<text text-anchor="start" x="305.5" y="-456.8" font-family="Helvetica,sans-Serif" font-size="11.00" fill="#000000">&lt; 1</text>
<polygon fill="#ffffff" stroke="transparent" points="379.5,-450.7 379.5,-469.7 447.5,-469.7 447.5,-450.7 379.5,-450.7"/>
<polygon fill="none" stroke="#000000" points="379.5,-450.7 379.5,-469.7 447.5,-469.7 447.5,-450.7 379.5,-450.7"/>
<text text-anchor="start" x="438.3862" y="-456.8" font-family="Helvetica,sans-Serif" font-size="11.00" fill="#000000"> &#160;</text>
<polygon fill="#ffffff" stroke="transparent" points="447.5,-450.7 447.5,-469.7 541.5,-469.7 541.5,-450.7 447.5,-450.7"/>
<polygon fill="none" stroke="#000000" points="447.5,-450.7 447.5,-469.7 541.5,-469.7 541.5,-450.7 447.5,-450.7"/>
<text text-anchor="start" x="522.9053" y="-456.8" font-family="Helvetica,sans-Serif" font-size="11.00" fill="#000000">0 &gt;</text>
<polygon fill="none" stroke="#000000" stroke-width="2" points="301,-449.7 301,-713.7 542,-713.7 542,-449.7 301,-449.7"/>
</a>
</g>
</g>
<!-- keyworker_entry&#45;&gt;prison_migration_date_history -->
<g id="edge3" class="edge">
<title>keyworker_entry:w&#45;&gt;prison_migration_date_history:e</title>
<path fill="none" stroke="#000000" stroke-dasharray="5,2" d="M288.0072,-566.6996C219.6453,-544.9242 344.5526,-352.7 251.5,-352.7"/>
<polygon fill="#000000" stroke="#000000" points="294.5751,-567.6061 302.0078,-572.2662 298.5376,-568.1531 302.5,-568.7 302.5,-568.7 302.5,-568.7 298.5376,-568.1531 302.9922,-565.1338 294.5751,-567.6061 294.5751,-567.6061"/>
<ellipse fill="none" stroke="#000000" cx="291.4052" cy="-567.1686" rx="3.2" ry="3.2"/>
</g>
<!-- keyworker_session -->
<g id="node5" class="node">
<title>keyworker_session</title>
<g id="a_node5"><a xlink:href="../../tables/keyworker_session.html" xlink:title="keyworker_session" target="_top">
<polygon fill="#ffffff" stroke="transparent" points="338.5,-366.2 338.5,-427.2 504.5,-427.2 504.5,-366.2 338.5,-366.2"/>
<polygon fill="#f5f5f5" stroke="transparent" points="338.5,-403.7 338.5,-426.7 504.5,-426.7 504.5,-403.7 338.5,-403.7"/>
<polygon fill="none" stroke="#000000" points="338.5,-403.7 338.5,-426.7 504.5,-426.7 504.5,-403.7 338.5,-403.7"/>
<text text-anchor="start" x="343.5" y="-412.3" font-family="Helvetica,sans-Serif" font-weight="bold" font-size="11.00" fill="#000000">keyworker_session</text>
<text text-anchor="start" x="470.0219" y="-411.8" font-family="Helvetica,sans-Serif" font-size="11.00" fill="#000000">[table]</text>
<polygon fill="none" stroke="#000000" points="338.5,-384.7 338.5,-403.7 504.5,-403.7 504.5,-384.7 338.5,-384.7"/>
<text text-anchor="start" x="341.5" y="-390.8" font-family="Helvetica,sans-Serif" font-size="11.00" fill="#000000">...</text>
<polygon fill="#ffffff" stroke="transparent" points="338.5,-365.7 338.5,-384.7 419.5,-384.7 419.5,-365.7 338.5,-365.7"/>
<polygon fill="none" stroke="#000000" points="338.5,-365.7 338.5,-384.7 419.5,-384.7 419.5,-365.7 338.5,-365.7"/>
<text text-anchor="start" x="341.5" y="-371.8" font-family="Helvetica,sans-Serif" font-size="11.00" fill="#000000">&lt; 1</text>
<polygon fill="#ffffff" stroke="transparent" points="419.5,-365.7 419.5,-384.7 461.5,-384.7 461.5,-365.7 419.5,-365.7"/>
<polygon fill="none" stroke="#000000" points="419.5,-365.7 419.5,-384.7 461.5,-384.7 461.5,-365.7 419.5,-365.7"/>
<text text-anchor="start" x="452.3862" y="-371.8" font-family="Helvetica,sans-Serif" font-size="11.00" fill="#000000"> &#160;</text>
<polygon fill="#ffffff" stroke="transparent" points="461.5,-365.7 461.5,-384.7 504.5,-384.7 504.5,-365.7 461.5,-365.7"/>
<polygon fill="none" stroke="#000000" points="461.5,-365.7 461.5,-384.7 504.5,-384.7 504.5,-365.7 461.5,-365.7"/>
<text text-anchor="start" x="495.3862" y="-371.8" font-family="Helvetica,sans-Serif" font-size="11.00" fill="#000000"> &#160;</text>
</a>
</g>
</g>
<!-- keyworker_session&#45;&gt;prison_migration_date_history -->
<g id="edge4" class="edge">
<title>keyworker_session:w&#45;&gt;prison_migration_date_history:e</title>
<path fill="none" stroke="#000000" stroke-dasharray="5,2" d="M323.8486,-391.8318C294.6803,-383.811 288.7352,-352.7 251.5,-352.7"/>
<polygon fill="#000000" stroke="#000000" points="330.5643,-392.6881 338.0446,-397.2711 334.5321,-393.194 338.5,-393.7 338.5,-393.7 338.5,-393.7 334.5321,-393.194 338.9554,-390.1289 330.5643,-392.6881 330.5643,-392.6881"/>
<ellipse fill="none" stroke="#000000" cx="327.39" cy="-392.2833" rx="3.2" ry="3.2"/>
</g>
<!-- prison_configuration -->
<g id="node6" class="node">
<title>prison_configuration</title>
<g id="a_node6"><a xlink:href="../../tables/prison_configuration.html" xlink:title="prison_configuration" target="_top">
<polygon fill="#ffffff" stroke="transparent" points="332.5,-284.2 332.5,-345.2 510.5,-345.2 510.5,-284.2 332.5,-284.2"/>
<polygon fill="#f5f5f5" stroke="transparent" points="332.5,-321.7 332.5,-344.7 510.5,-344.7 510.5,-321.7 332.5,-321.7"/>
<polygon fill="none" stroke="#000000" points="332.5,-321.7 332.5,-344.7 510.5,-344.7 510.5,-321.7 332.5,-321.7"/>
<text text-anchor="start" x="337.5" y="-330.3" font-family="Helvetica,sans-Serif" font-weight="bold" font-size="11.00" fill="#000000">prison_configuration</text>
<text text-anchor="start" x="476.0219" y="-329.8" font-family="Helvetica,sans-Serif" font-size="11.00" fill="#000000">[table]</text>
<polygon fill="none" stroke="#000000" points="332.5,-302.7 332.5,-321.7 510.5,-321.7 510.5,-302.7 332.5,-302.7"/>
<text text-anchor="start" x="335.5" y="-308.8" font-family="Helvetica,sans-Serif" font-size="11.00" fill="#000000">...</text>
<polygon fill="#ffffff" stroke="transparent" points="332.5,-283.7 332.5,-302.7 403.5,-302.7 403.5,-283.7 332.5,-283.7"/>
<polygon fill="none" stroke="#000000" points="332.5,-283.7 332.5,-302.7 403.5,-302.7 403.5,-283.7 332.5,-283.7"/>
<text text-anchor="start" x="335.5" y="-289.8" font-family="Helvetica,sans-Serif" font-size="11.00" fill="#000000">&lt; 2</text>
<polygon fill="#ffffff" stroke="transparent" points="403.5,-283.7 403.5,-302.7 472.5,-302.7 472.5,-283.7 403.5,-283.7"/>
<polygon fill="none" stroke="#000000" points="403.5,-283.7 403.5,-302.7 472.5,-302.7 472.5,-283.7 403.5,-283.7"/>
<text text-anchor="start" x="430.9956" y="-289.8" font-family="Helvetica,sans-Serif" font-size="11.00" fill="#000000">12 rows</text>
<polygon fill="#ffffff" stroke="transparent" points="472.5,-283.7 472.5,-302.7 510.5,-302.7 510.5,-283.7 472.5,-283.7"/>
<polygon fill="none" stroke="#000000" points="472.5,-283.7 472.5,-302.7 510.5,-302.7 510.5,-283.7 472.5,-283.7"/>
<text text-anchor="start" x="501.3862" y="-289.8" font-family="Helvetica,sans-Serif" font-size="11.00" fill="#000000"> &#160;</text>
</a>
</g>
</g>
<!-- prison_configuration&#45;&gt;prison_migration_date_history -->
<g id="edge5" class="edge">
<title>prison_configuration:w&#45;&gt;prison_migration_date_history:e</title>
<path fill="none" stroke="#000000" stroke-dasharray="5,2" d="M317.9916,-313.7896C291.3198,-322.1446 286.3326,-352.7 251.5,-352.7"/>
<polygon fill="#000000" stroke="#000000" points="324.5817,-312.8405 333.0132,-315.2632 328.5409,-312.2702 332.5,-311.7 332.5,-311.7 332.5,-311.7 328.5409,-312.2702 331.9868,-308.1368 324.5817,-312.8405 324.5817,-312.8405"/>
<ellipse fill="none" stroke="#000000" cx="321.4144" cy="-313.2967" rx="3.2" ry="3.2"/>
</g>
<!-- prison_configuration_audit -->
<g id="node7" class="node">
<title>prison_configuration_audit</title>
<g id="a_node7"><a xlink:href="../../tables/prison_configuration_audit.html" xlink:title="prison_configuration_audit" target="_top">
<polygon fill="#ffffff" stroke="transparent" points="312,-202.2 312,-263.2 531,-263.2 531,-202.2 312,-202.2"/>
<polygon fill="#f5f5f5" stroke="transparent" points="312.5,-239.7 312.5,-262.7 531.5,-262.7 531.5,-239.7 312.5,-239.7"/>
<polygon fill="none" stroke="#000000" points="312.5,-239.7 312.5,-262.7 531.5,-262.7 531.5,-239.7 312.5,-239.7"/>
<text text-anchor="start" x="317.5" y="-248.3" font-family="Helvetica,sans-Serif" font-weight="bold" font-size="11.00" fill="#000000">prison_configuration_audit</text>
<text text-anchor="start" x="497.0219" y="-247.8" font-family="Helvetica,sans-Serif" font-size="11.00" fill="#000000">[table]</text>
<polygon fill="none" stroke="#000000" points="312.5,-220.7 312.5,-239.7 531.5,-239.7 531.5,-220.7 312.5,-220.7"/>
<text text-anchor="start" x="315.5" y="-226.8" font-family="Helvetica,sans-Serif" font-size="11.00" fill="#000000">...</text>
<polygon fill="#ffffff" stroke="transparent" points="312.5,-201.7 312.5,-220.7 420.5,-220.7 420.5,-201.7 312.5,-201.7"/>
<polygon fill="none" stroke="#000000" points="312.5,-201.7 312.5,-220.7 420.5,-220.7 420.5,-201.7 312.5,-201.7"/>
<text text-anchor="start" x="315.5" y="-207.8" font-family="Helvetica,sans-Serif" font-size="11.00" fill="#000000">&lt; 3</text>
<polygon fill="#ffffff" stroke="transparent" points="420.5,-201.7 420.5,-220.7 475.5,-220.7 475.5,-201.7 420.5,-201.7"/>
<polygon fill="none" stroke="#000000" points="420.5,-201.7 420.5,-220.7 475.5,-220.7 475.5,-201.7 420.5,-201.7"/>
<text text-anchor="start" x="466.3862" y="-207.8" font-family="Helvetica,sans-Serif" font-size="11.00" fill="#000000"> &#160;</text>
<polygon fill="#ffffff" stroke="transparent" points="475.5,-201.7 475.5,-220.7 531.5,-220.7 531.5,-201.7 475.5,-201.7"/>
<polygon fill="none" stroke="#000000" points="475.5,-201.7 475.5,-220.7 531.5,-220.7 531.5,-201.7 475.5,-201.7"/>
<text text-anchor="start" x="522.3862" y="-207.8" font-family="Helvetica,sans-Serif" font-size="11.00" fill="#000000"> &#160;</text>
</a>
</g>
</g>
<!-- prison_configuration_audit&#45;&gt;prison_migration_date_history -->
<g id="edge6" class="edge">
<title>prison_configuration_audit:w&#45;&gt;prison_migration_date_history:e</title>
<path fill="none" stroke="#000000" stroke-dasharray="5,2" d="M298.3553,-232.7405C261.8521,-251.6814 306.7995,-352.7 251.5,-352.7"/>
<polygon fill="#000000" stroke="#000000" points="304.6787,-231.3813 313.2566,-233.2196 308.5893,-230.5406 312.5,-229.7 312.5,-229.7 312.5,-229.7 308.5893,-230.5406 311.7434,-226.1804 304.6787,-231.3813 304.6787,-231.3813"/>
<ellipse fill="none" stroke="#000000" cx="301.5501" cy="-232.0538" rx="3.2" ry="3.2"/>
</g>
<!-- staff_role -->
<g id="node8" class="node">
<title>staff_role</title>
<g id="a_node8"><a xlink:href="../../tables/staff_role.html" xlink:title="staff_role" target="_top">
<polygon fill="#ffffff" stroke="transparent" points="370.5,-120.2 370.5,-181.2 472.5,-181.2 472.5,-120.2 370.5,-120.2"/>
<polygon fill="#f5f5f5" stroke="transparent" points="370.5,-157.7 370.5,-180.7 472.5,-180.7 472.5,-157.7 370.5,-157.7"/>
<polygon fill="none" stroke="#000000" points="370.5,-157.7 370.5,-180.7 472.5,-180.7 472.5,-157.7 370.5,-157.7"/>
<text text-anchor="start" x="375.5" y="-166.3" font-family="Helvetica,sans-Serif" font-weight="bold" font-size="11.00" fill="#000000">staff_role</text>
<text text-anchor="start" x="438.0219" y="-165.8" font-family="Helvetica,sans-Serif" font-size="11.00" fill="#000000">[table]</text>
<polygon fill="none" stroke="#000000" points="370.5,-138.7 370.5,-157.7 472.5,-157.7 472.5,-138.7 370.5,-138.7"/>
<text text-anchor="start" x="373.5" y="-144.8" font-family="Helvetica,sans-Serif" font-size="11.00" fill="#000000">...</text>
<polygon fill="#ffffff" stroke="transparent" points="370.5,-119.7 370.5,-138.7 419.5,-138.7 419.5,-119.7 370.5,-119.7"/>
<polygon fill="none" stroke="#000000" points="370.5,-119.7 370.5,-138.7 419.5,-138.7 419.5,-119.7 370.5,-119.7"/>
<text text-anchor="start" x="373.5" y="-125.8" font-family="Helvetica,sans-Serif" font-size="11.00" fill="#000000">&lt; 2</text>
<polygon fill="#ffffff" stroke="transparent" points="419.5,-119.7 419.5,-138.7 445.5,-138.7 445.5,-119.7 419.5,-119.7"/>
<polygon fill="none" stroke="#000000" points="419.5,-119.7 419.5,-138.7 445.5,-138.7 445.5,-119.7 419.5,-119.7"/>
<text text-anchor="start" x="436.3862" y="-125.8" font-family="Helvetica,sans-Serif" font-size="11.00" fill="#000000"> &#160;</text>
<polygon fill="#ffffff" stroke="transparent" points="445.5,-119.7 445.5,-138.7 472.5,-138.7 472.5,-119.7 445.5,-119.7"/>
<polygon fill="none" stroke="#000000" points="445.5,-119.7 445.5,-138.7 472.5,-138.7 472.5,-119.7 445.5,-119.7"/>
<text text-anchor="start" x="463.3862" y="-125.8" font-family="Helvetica,sans-Serif" font-size="11.00" fill="#000000"> &#160;</text>
</a>
</g>
</g>
<!-- staff_role&#45;&gt;prison_migration_date_history -->
<g id="edge7" class="edge">
<title>staff_role:w&#45;&gt;prison_migration_date_history:e</title>
<path fill="none" stroke="#000000" stroke-dasharray="5,2" d="M355.8452,-148.3646C326.5546,-151.2949 313.0778,-164.1557 292,-191.7 247.1599,-250.2966 325.2848,-352.7 251.5,-352.7"/>
<polygon fill="#000000" stroke="#000000" points="362.5082,-148.0625 370.6631,-151.2963 366.5041,-147.8813 370.5,-147.7 370.5,-147.7 370.5,-147.7 366.5041,-147.8813 370.3369,-144.1037 362.5082,-148.0625 362.5082,-148.0625"/>
<ellipse fill="none" stroke="#000000" cx="359.3115" cy="-148.2075" rx="3.2" ry="3.2"/>
</g>
<!-- staff_role_audit -->
<g id="node9" class="node">
<title>staff_role_audit</title>
<g id="a_node9"><a xlink:href="../../tables/staff_role_audit.html" xlink:title="staff_role_audit" target="_top">
<polygon fill="#ffffff" stroke="transparent" points="350,-38.2 350,-99.2 493,-99.2 493,-38.2 350,-38.2"/>
<polygon fill="#f5f5f5" stroke="transparent" points="350.5,-75.7 350.5,-98.7 493.5,-98.7 493.5,-75.7 350.5,-75.7"/>
<polygon fill="none" stroke="#000000" points="350.5,-75.7 350.5,-98.7 493.5,-98.7 493.5,-75.7 350.5,-75.7"/>
<text text-anchor="start" x="355.5" y="-84.3" font-family="Helvetica,sans-Serif" font-weight="bold" font-size="11.00" fill="#000000">staff_role_audit</text>
<text text-anchor="start" x="459.0219" y="-83.8" font-family="Helvetica,sans-Serif" font-size="11.00" fill="#000000">[table]</text>
<polygon fill="none" stroke="#000000" points="350.5,-56.7 350.5,-75.7 493.5,-75.7 493.5,-56.7 350.5,-56.7"/>
<text text-anchor="start" x="353.5" y="-62.8" font-family="Helvetica,sans-Serif" font-size="11.00" fill="#000000">...</text>
<polygon fill="#ffffff" stroke="transparent" points="350.5,-37.7 350.5,-56.7 420.5,-56.7 420.5,-37.7 350.5,-37.7"/>
<polygon fill="none" stroke="#000000" points="350.5,-37.7 350.5,-56.7 420.5,-56.7 420.5,-37.7 350.5,-37.7"/>
<text text-anchor="start" x="353.5" y="-43.8" font-family="Helvetica,sans-Serif" font-size="11.00" fill="#000000">&lt; 3</text>
<polygon fill="#ffffff" stroke="transparent" points="420.5,-37.7 420.5,-56.7 456.5,-56.7 456.5,-37.7 420.5,-37.7"/>
<polygon fill="none" stroke="#000000" points="420.5,-37.7 420.5,-56.7 456.5,-56.7 456.5,-37.7 420.5,-37.7"/>
<text text-anchor="start" x="447.3862" y="-43.8" font-family="Helvetica,sans-Serif" font-size="11.00" fill="#000000"> &#160;</text>
<polygon fill="#ffffff" stroke="transparent" points="456.5,-37.7 456.5,-56.7 493.5,-56.7 493.5,-37.7 456.5,-37.7"/>
<polygon fill="none" stroke="#000000" points="456.5,-37.7 456.5,-56.7 493.5,-56.7 493.5,-37.7 456.5,-37.7"/>
<text text-anchor="start" x="484.3862" y="-43.8" font-family="Helvetica,sans-Serif" font-size="11.00" fill="#000000"> &#160;</text>
</a>
</g>
</g>
<!-- staff_role_audit&#45;&gt;prison_migration_date_history -->
<g id="edge8" class="edge">
<title>staff_role_audit:w&#45;&gt;prison_migration_date_history:e</title>
<path fill="none" stroke="#000000" stroke-dasharray="5,2" d="M335.9428,-67.0486C314.6945,-71.4664 306.0454,-86.5603 292,-109.7 263.594,-156.4985 306.2449,-352.7 251.5,-352.7"/>
<polygon fill="#000000" stroke="#000000" points="342.5341,-66.438 350.8321,-69.2847 346.5171,-66.069 350.5,-65.7 350.5,-65.7 350.5,-65.7 346.5171,-66.069 350.1679,-62.1153 342.5341,-66.438 342.5341,-66.438"/>
<ellipse fill="none" stroke="#000000" cx="339.3478" cy="-66.7332" rx="3.2" ry="3.2"/>
</g>
</g>
</svg>
