<?xml version="1.0" encoding="UTF-8" standalone="no"?>
<!DOCTYPE svg PUBLIC "-//W3C//DTD SVG 1.1//EN"
 "http://www.w3.org/Graphics/SVG/1.1/DTD/svg11.dtd">
<!-- Generated by graphviz version 2.40.1 (20161225.0304)
 -->
<!-- Title: oneDegreeRelationshipsDiagramImplied Pages: 1 -->
<svg width="687pt" height="338pt"
 viewBox="0.00 0.00 687.00 338.20" xmlns="http://www.w3.org/2000/svg" xmlns:xlink="http://www.w3.org/1999/xlink">
<g id="graph0" class="graph" transform="scale(1 1) rotate(0) translate(4 334.2)">
<title>oneDegreeRelationshipsDiagramImplied</title>
<polygon fill="#ffffff" stroke="transparent" points="-4,4 -4,-334.2 683,-334.2 683,4 -4,4"/>
<text text-anchor="middle" x="72.4936" y="-7.3" font-family="Helvetica,sans-Serif" font-size="11.00" fill="#000000">Generated by SchemaSpy</text>
<!-- keyworker_stats -->
<g id="node1" class="node">
<title>keyworker_stats</title>
<g id="a_node1"><a xlink:href="../../tables/keyworker_stats.html" xlink:title="keyworker_stats" target="_top">
<polygon fill="#ffffff" stroke="transparent" points="369,-38.2 369,-326.2 671,-326.2 671,-38.2 369,-38.2"/>
<polygon fill="#f5f5f5" stroke="transparent" points="371,-301.2 371,-324.2 669,-324.2 669,-301.2 371,-301.2"/>
<polygon fill="none" stroke="#000000" points="371,-301.2 371,-324.2 669,-324.2 669,-301.2 371,-301.2"/>
<text text-anchor="start" x="376" y="-309.8" font-family="Helvetica,sans-Serif" font-weight="bold" font-size="11.00" fill="#000000">keyworker_stats</text>
<text text-anchor="start" x="634.0437" y="-309.3" font-family="Helvetica,sans-Serif" font-size="11.00" fill="#000000">[table]</text>
<polygon fill="none" stroke="#000000" points="371,-279.2 371,-301.2 585,-301.2 585,-279.2 371,-279.2"/>
<image xlink:href="../../images/primaryKeys.png" width="11px" height="12px" preserveAspectRatio="xMinYMin meet" x="376" y="-296.2"/>
<text text-anchor="start" x="391" y="-286.3" font-family="Helvetica,sans-Serif" font-size="11.00" fill="#000000">keyworker_stats_id</text>
<polygon fill="none" stroke="#000000" points="585,-279.2 585,-301.2 669,-301.2 669,-279.2 585,-279.2"/>
<text text-anchor="start" x="588" y="-286.9" font-family="Helvetica,sans-Serif" font-size="11.00" fill="#000000">bigserial[19]</text>
<polygon fill="#ffffff" stroke="transparent" points="371,-257.2 371,-279.2 585,-279.2 585,-257.2 371,-257.2"/>
<polygon fill="none" stroke="#000000" points="371,-257.2 371,-279.2 585,-279.2 585,-257.2 371,-257.2"/>
<image xlink:href="../../images/foreignKeys.png" width="11px" height="12px" preserveAspectRatio="xMinYMin meet" x="376" y="-274.2"/>
<text text-anchor="start" x="391" y="-264.3" font-family="Helvetica,sans-Serif" font-size="11.00" fill="#000000">prison_id</text>
<polygon fill="none" stroke="#000000" points="585,-257.2 585,-279.2 669,-279.2 669,-257.2 585,-257.2"/>
<text text-anchor="start" x="588" y="-264.9" font-family="Helvetica,sans-Serif" font-size="11.00" fill="#000000">varchar[6]</text>
<polygon fill="#ffffff" stroke="transparent" points="371,-235.2 371,-257.2 585,-257.2 585,-235.2 371,-235.2"/>
<polygon fill="none" stroke="#000000" points="371,-235.2 371,-257.2 585,-257.2 585,-235.2 371,-235.2"/>
<text text-anchor="start" x="391" y="-242.3" font-family="Helvetica,sans-Serif" font-size="11.00" fill="#000000">snapshot_date</text>
<polygon fill="none" stroke="#000000" points="585,-235.2 585,-257.2 669,-257.2 669,-235.2 585,-235.2"/>
<text text-anchor="start" x="587.8807" y="-242.9" font-family="Helvetica,sans-Serif" font-size="11.00" fill="#000000">timestamp[29,6]</text>
<polygon fill="none" stroke="#000000" points="371,-213.2 371,-235.2 585,-235.2 585,-213.2 371,-213.2"/>
<text text-anchor="start" x="391" y="-220.3" font-family="Helvetica,sans-Serif" font-size="11.00" fill="#000000">num_prisoners_assigned_kw</text>
<polygon fill="none" stroke="#000000" points="585,-213.2 585,-235.2 669,-235.2 669,-213.2 585,-213.2"/>
<text text-anchor="start" x="588" y="-220.9" font-family="Helvetica,sans-Serif" font-size="11.00" fill="#000000">int4[10]</text>
<polygon fill="none" stroke="#000000" points="371,-191.2 371,-213.2 585,-213.2 585,-191.2 371,-191.2"/>
<text text-anchor="start" x="391" y="-198.3" font-family="Helvetica,sans-Serif" font-size="11.00" fill="#000000">total_num_prisoners</text>
<polygon fill="none" stroke="#000000" points="585,-191.2 585,-213.2 669,-213.2 669,-191.2 585,-191.2"/>
<text text-anchor="start" x="588" y="-198.9" font-family="Helvetica,sans-Serif" font-size="11.00" fill="#000000">int4[10]</text>
<polygon fill="none" stroke="#000000" points="371,-169.2 371,-191.2 585,-191.2 585,-169.2 371,-169.2"/>
<text text-anchor="start" x="391" y="-176.3" font-family="Helvetica,sans-Serif" font-size="11.00" fill="#000000">num_kw_sessions</text>
<polygon fill="none" stroke="#000000" points="585,-169.2 585,-191.2 669,-191.2 669,-169.2 585,-169.2"/>
<text text-anchor="start" x="588" y="-176.9" font-family="Helvetica,sans-Serif" font-size="11.00" fill="#000000">int4[10]</text>
<polygon fill="none" stroke="#000000" points="371,-147.2 371,-169.2 585,-169.2 585,-147.2 371,-147.2"/>
<text text-anchor="start" x="391" y="-154.3" font-family="Helvetica,sans-Serif" font-size="11.00" fill="#000000">num_kw_entries</text>
<polygon fill="none" stroke="#000000" points="585,-147.2 585,-169.2 669,-169.2 669,-147.2 585,-147.2"/>
<text text-anchor="start" x="588" y="-154.9" font-family="Helvetica,sans-Serif" font-size="11.00" fill="#000000">int4[10]</text>
<polygon fill="none" stroke="#000000" points="371,-125.2 371,-147.2 585,-147.2 585,-125.2 371,-125.2"/>
<text text-anchor="start" x="391" y="-132.3" font-family="Helvetica,sans-Serif" font-size="11.00" fill="#000000">num_active_keyworkers</text>
<polygon fill="none" stroke="#000000" points="585,-125.2 585,-147.2 669,-147.2 669,-125.2 585,-125.2"/>
<text text-anchor="start" x="588" y="-132.9" font-family="Helvetica,sans-Serif" font-size="11.00" fill="#000000">int4[10]</text>
<polygon fill="none" stroke="#000000" points="371,-103.2 371,-125.2 585,-125.2 585,-103.2 371,-103.2"/>
<text text-anchor="start" x="391" y="-110.3" font-family="Helvetica,sans-Serif" font-size="11.00" fill="#000000">recpt_to_alloc_days</text>
<polygon fill="none" stroke="#000000" points="585,-103.2 585,-125.2 669,-125.2 669,-103.2 585,-103.2"/>
<text text-anchor="start" x="588" y="-110.9" font-family="Helvetica,sans-Serif" font-size="11.00" fill="#000000">int4[10]</text>
<polygon fill="none" stroke="#000000" points="371,-81.2 371,-103.2 585,-103.2 585,-81.2 371,-81.2"/>
<text text-anchor="start" x="391" y="-88.3" font-family="Helvetica,sans-Serif" font-size="11.00" fill="#000000">recpt_to_kw_session_days</text>
<polygon fill="none" stroke="#000000" points="585,-81.2 585,-103.2 669,-103.2 669,-81.2 585,-81.2"/>
<text text-anchor="start" x="588" y="-88.9" font-family="Helvetica,sans-Serif" font-size="11.00" fill="#000000">int4[10]</text>
<polygon fill="none" stroke="#000000" points="371,-59.2 371,-81.2 585,-81.2 585,-59.2 371,-59.2"/>
<text text-anchor="start" x="391" y="-66.3" font-family="Helvetica,sans-Serif" font-size="11.00" fill="#000000">total_num_eligible_prisoners</text>
<polygon fill="none" stroke="#000000" points="585,-59.2 585,-81.2 669,-81.2 669,-59.2 585,-59.2"/>
<text text-anchor="start" x="588" y="-66.9" font-family="Helvetica,sans-Serif" font-size="11.00" fill="#000000">int4[10]</text>
<polygon fill="#ffffff" stroke="transparent" points="371,-40.2 371,-59.2 482,-59.2 482,-40.2 371,-40.2"/>
<polygon fill="none" stroke="#000000" points="371,-40.2 371,-59.2 482,-59.2 482,-40.2 371,-40.2"/>
<text text-anchor="start" x="374" y="-46.3" font-family="Helvetica,sans-Serif" font-size="11.00" fill="#000000">&lt; 1</text>
<polygon fill="#ffffff" stroke="transparent" points="482,-40.2 482,-59.2 585,-59.2 585,-40.2 482,-40.2"/>
<polygon fill="none" stroke="#000000" points="482,-40.2 482,-59.2 585,-59.2 585,-40.2 482,-40.2"/>
<text text-anchor="start" x="575.8862" y="-46.3" font-family="Helvetica,sans-Serif" font-size="11.00" fill="#000000"> &#160;</text>
<polygon fill="#ffffff" stroke="transparent" points="585,-40.2 585,-59.2 669,-59.2 669,-40.2 585,-40.2"/>
<polygon fill="none" stroke="#000000" points="585,-40.2 585,-59.2 669,-59.2 669,-40.2 585,-40.2"/>
<text text-anchor="start" x="650.4053" y="-46.3" font-family="Helvetica,sans-Serif" font-size="11.00" fill="#000000">0 &gt;</text>
<polygon fill="none" stroke="#000000" stroke-width="2" points="370,-39.2 370,-325.2 670,-325.2 670,-39.2 370,-39.2"/>
</a>
</g>
</g>
<!-- prison_supported -->
<g id="node2" class="node">
<title>prison_supported</title>
<g id="a_node2"><a xlink:href="../../tables/prison_supported.html" xlink:title="prison_supported" target="_top">
<polygon fill="#ffffff" stroke="transparent" points="8,-219.7 8,-302.7 320,-302.7 320,-219.7 8,-219.7"/>
<polygon fill="#f5f5f5" stroke="transparent" points="8,-279.2 8,-302.2 320,-302.2 320,-279.2 8,-279.2"/>
<polygon fill="none" stroke="#000000" points="8,-279.2 8,-302.2 320,-302.2 320,-279.2 8,-279.2"/>
<text text-anchor="start" x="13" y="-287.8" font-family="Helvetica,sans-Serif" font-weight="bold" font-size="11.00" fill="#000000">prison_supported</text>
<text text-anchor="start" x="285.0437" y="-287.3" font-family="Helvetica,sans-Serif" font-size="11.00" fill="#000000">[table]</text>
<polygon fill="none" stroke="#000000" points="8,-257.2 8,-279.2 320,-279.2 320,-257.2 8,-257.2"/>
<image xlink:href="../../images/primaryKeys.png" width="11px" height="12px" preserveAspectRatio="xMinYMin meet" x="13" y="-274.2"/>
<text text-anchor="start" x="28" y="-264.3" font-family="Helvetica,sans-Serif" font-size="11.00" fill="#000000">prison_id</text>
<polygon fill="none" stroke="#000000" points="8,-238.2 8,-257.2 320,-257.2 320,-238.2 8,-238.2"/>
<text text-anchor="start" x="11" y="-244.3" font-family="Helvetica,sans-Serif" font-size="11.00" fill="#000000">...</text>
<polygon fill="#ffffff" stroke="transparent" points="8,-219.2 8,-238.2 153,-238.2 153,-219.2 8,-219.2"/>
<polygon fill="none" stroke="#000000" points="8,-219.2 8,-238.2 153,-238.2 153,-219.2 8,-219.2"/>
<text text-anchor="start" x="11" y="-225.3" font-family="Helvetica,sans-Serif" font-size="11.00" fill="#000000"> &#160;</text>
<polygon fill="#ffffff" stroke="transparent" points="153,-219.2 153,-238.2 232,-238.2 232,-219.2 153,-219.2"/>
<polygon fill="none" stroke="#000000" points="153,-219.2 153,-238.2 232,-238.2 232,-219.2 153,-219.2"/>
<text text-anchor="start" x="222.8862" y="-225.3" font-family="Helvetica,sans-Serif" font-size="11.00" fill="#000000"> &#160;</text>
<polygon fill="#ffffff" stroke="transparent" points="232,-219.2 232,-238.2 320,-238.2 320,-219.2 232,-219.2"/>
<polygon fill="none" stroke="#000000" points="232,-219.2 232,-238.2 320,-238.2 320,-219.2 232,-219.2"/>
<text text-anchor="start" x="301.4053" y="-225.3" font-family="Helvetica,sans-Serif" font-size="11.00" fill="#000000">2 &gt;</text>
</a>
</g>
</g>
<!-- keyworker_stats&#45;&gt;prison_supported -->
<g id="edge1" class="edge">
<title>keyworker_stats:w&#45;&gt;prison_supported:e</title>
<path fill="none" stroke="#000000" stroke-dasharray="5,2" d="M356.276,-268.2C344.2815,-268.2 336.8229,-268.2 320,-268.2"/>
<polygon fill="#000000" stroke="#000000" points="363,-268.2001 371,-271.8 367,-268.2 371,-268.2 371,-268.2 371,-268.2 367,-268.2 371,-264.6 363,-268.2001 363,-268.2001"/>
<ellipse fill="none" stroke="#000000" cx="359.8" cy="-268.2001" rx="3.2" ry="3.2"/>
</g>
</g>
</svg>
