<?xml version="1.0" encoding="UTF-8" standalone="no"?>
<!DOCTYPE svg PUBLIC "-//W3C//DTD SVG 1.1//EN"
 "http://www.w3.org/Graphics/SVG/1.1/DTD/svg11.dtd">
<!-- Generated by graphviz version 2.40.1 (20161225.0304)
 -->
<!-- Title: twoDegreesRelationshipsDiagramImplied Pages: 1 -->
<svg width="562pt" height="563pt"
 viewBox="0.00 0.00 562.00 563.20" xmlns="http://www.w3.org/2000/svg" xmlns:xlink="http://www.w3.org/1999/xlink">
<g id="graph0" class="graph" transform="scale(1 1) rotate(0) translate(4 559.2)">
<title>twoDegreesRelationshipsDiagramImplied</title>
<polygon fill="#ffffff" stroke="transparent" points="-4,4 -4,-559.2 558,-559.2 558,4 -4,4"/>
<text text-anchor="middle" x="72.4936" y="-7.3" font-family="Helvetica,sans-Serif" font-size="11.00" fill="#000000">Generated by SchemaSpy</text>
<!-- keyworker_entry -->
<g id="node1" class="node">
<title>keyworker_entry</title>
<g id="a_node1"><a xlink:href="../../tables/keyworker_entry.html" xlink:title="keyworker_entry" target="_top">
<polygon fill="#ffffff" stroke="transparent" points="347,-490.2 347,-551.2 499,-551.2 499,-490.2 347,-490.2"/>
<polygon fill="#f5f5f5" stroke="transparent" points="347,-527.7 347,-550.7 499,-550.7 499,-527.7 347,-527.7"/>
<polygon fill="none" stroke="#000000" points="347,-527.7 347,-550.7 499,-550.7 499,-527.7 347,-527.7"/>
<text text-anchor="start" x="352" y="-536.3" font-family="Helvetica,sans-Serif" font-weight="bold" font-size="11.00" fill="#000000">keyworker_entry</text>
<text text-anchor="start" x="464.5219" y="-535.8" font-family="Helvetica,sans-Serif" font-size="11.00" fill="#000000">[table]</text>
<polygon fill="none" stroke="#000000" points="347,-508.7 347,-527.7 499,-527.7 499,-508.7 347,-508.7"/>
<text text-anchor="start" x="350" y="-514.8" font-family="Helvetica,sans-Serif" font-size="11.00" fill="#000000">...</text>
<polygon fill="#ffffff" stroke="transparent" points="347,-489.7 347,-508.7 421,-508.7 421,-489.7 347,-489.7"/>
<polygon fill="none" stroke="#000000" points="347,-489.7 347,-508.7 421,-508.7 421,-489.7 347,-489.7"/>
<text text-anchor="start" x="350" y="-495.8" font-family="Helvetica,sans-Serif" font-size="11.00" fill="#000000">&lt; 1</text>
<polygon fill="#ffffff" stroke="transparent" points="421,-489.7 421,-508.7 460,-508.7 460,-489.7 421,-489.7"/>
<polygon fill="none" stroke="#000000" points="421,-489.7 421,-508.7 460,-508.7 460,-489.7 421,-489.7"/>
<text text-anchor="start" x="450.8862" y="-495.8" font-family="Helvetica,sans-Serif" font-size="11.00" fill="#000000"> &#160;</text>
<polygon fill="#ffffff" stroke="transparent" points="460,-489.7 460,-508.7 499,-508.7 499,-489.7 460,-489.7"/>
<polygon fill="none" stroke="#000000" points="460,-489.7 460,-508.7 499,-508.7 499,-489.7 460,-489.7"/>
<text text-anchor="start" x="489.8862" y="-495.8" font-family="Helvetica,sans-Serif" font-size="11.00" fill="#000000"> &#160;</text>
</a>
</g>
</g>
<!-- prison_migration_date_history -->
<g id="node2" class="node">
<title>prison_migration_date_history</title>
<g id="a_node2"><a xlink:href="../../tables/prison_migration_date_history.html" xlink:title="prison_migration_date_history" target="_top">
<polygon fill="#ffffff" stroke="transparent" points="8,-186.2 8,-269.2 251,-269.2 251,-186.2 8,-186.2"/>
<polygon fill="#f5f5f5" stroke="transparent" points="8.5,-245.7 8.5,-268.7 251.5,-268.7 251.5,-245.7 8.5,-245.7"/>
<polygon fill="none" stroke="#000000" points="8.5,-245.7 8.5,-268.7 251.5,-268.7 251.5,-245.7 8.5,-245.7"/>
<text text-anchor="start" x="13.5" y="-254.3" font-family="Helvetica,sans-Serif" font-weight="bold" font-size="11.00" fill="#000000">prison_migration_date_history</text>
<text text-anchor="start" x="217.0219" y="-253.8" font-family="Helvetica,sans-Serif" font-size="11.00" fill="#000000">[table]</text>
<polygon fill="none" stroke="#000000" points="8.5,-223.7 8.5,-245.7 251.5,-245.7 251.5,-223.7 8.5,-223.7"/>
<image xlink:href="../../images/primaryKeys.png" width="11px" height="12px" preserveAspectRatio="xMinYMin meet" x="13.5" y="-240.7"/>
<text text-anchor="start" x="37.5" y="-230.8" font-family="Helvetica,sans-Serif" font-size="11.00" fill="#000000">prison_code</text>
<polygon fill="none" stroke="#000000" points="8.5,-204.7 8.5,-223.7 251.5,-223.7 251.5,-204.7 8.5,-204.7"/>
<text text-anchor="start" x="11.5" y="-210.8" font-family="Helvetica,sans-Serif" font-size="11.00" fill="#000000">...</text>
<polygon fill="#ffffff" stroke="transparent" points="8.5,-185.7 8.5,-204.7 119.5,-204.7 119.5,-185.7 8.5,-185.7"/>
<polygon fill="none" stroke="#000000" points="8.5,-185.7 8.5,-204.7 119.5,-204.7 119.5,-185.7 8.5,-185.7"/>
<text text-anchor="start" x="11.5" y="-191.8" font-family="Helvetica,sans-Serif" font-size="11.00" fill="#000000"> &#160;</text>
<polygon fill="#ffffff" stroke="transparent" points="119.5,-185.7 119.5,-204.7 180.5,-204.7 180.5,-185.7 119.5,-185.7"/>
<polygon fill="none" stroke="#000000" points="119.5,-185.7 119.5,-204.7 180.5,-204.7 180.5,-185.7 119.5,-185.7"/>
<text text-anchor="start" x="171.3862" y="-191.8" font-family="Helvetica,sans-Serif" font-size="11.00" fill="#000000"> &#160;</text>
<polygon fill="#ffffff" stroke="transparent" points="180.5,-185.7 180.5,-204.7 251.5,-204.7 251.5,-185.7 180.5,-185.7"/>
<polygon fill="none" stroke="#000000" points="180.5,-185.7 180.5,-204.7 251.5,-204.7 251.5,-185.7 180.5,-185.7"/>
<text text-anchor="start" x="232.9053" y="-191.8" font-family="Helvetica,sans-Serif" font-size="11.00" fill="#000000">4 &gt;</text>
</a>
</g>
</g>
<!-- keyworker_entry&#45;&gt;prison_migration_date_history -->
<g id="edge1" class="edge">
<title>keyworker_entry:w&#45;&gt;prison_migration_date_history:e</title>
<path fill="none" stroke="#000000" stroke-dasharray="5,2" d="M332.5252,-516.3994C313.6242,-512.5502 304.9876,-500.1867 292,-479.7 262.4535,-433.0931 306.6833,-234.7 251.5,-234.7"/>
<polygon fill="#000000" stroke="#000000" points="339.0321,-516.984 346.6778,-521.2856 343.0161,-517.342 347,-517.7 347,-517.7 347,-517.7 343.0161,-517.342 347.3222,-514.1144 339.0321,-516.984 339.0321,-516.984"/>
<ellipse fill="none" stroke="#000000" cx="335.8449" cy="-516.6976" rx="3.2" ry="3.2"/>
</g>
<!-- keyworker_session -->
<g id="node3" class="node">
<title>keyworker_session</title>
<g id="a_node3"><a xlink:href="../../tables/keyworker_session.html" xlink:title="keyworker_session" target="_top">
<polygon fill="#ffffff" stroke="transparent" points="300,-202.7 300,-468.7 546,-468.7 546,-202.7 300,-202.7"/>
<polygon fill="#f5f5f5" stroke="transparent" points="302,-443.7 302,-466.7 544,-466.7 544,-443.7 302,-443.7"/>
<polygon fill="none" stroke="#000000" points="302,-443.7 302,-466.7 544,-466.7 544,-443.7 302,-443.7"/>
<text text-anchor="start" x="307" y="-452.3" font-family="Helvetica,sans-Serif" font-weight="bold" font-size="11.00" fill="#000000">keyworker_session</text>
<text text-anchor="start" x="509.0437" y="-451.8" font-family="Helvetica,sans-Serif" font-size="11.00" fill="#000000">[table]</text>
<polygon fill="none" stroke="#000000" points="302,-421.7 302,-443.7 450,-443.7 450,-421.7 302,-421.7"/>
<image xlink:href="../../images/primaryKeys.png" width="11px" height="12px" preserveAspectRatio="xMinYMin meet" x="307" y="-438.7"/>
<text text-anchor="start" x="322" y="-428.8" font-family="Helvetica,sans-Serif" font-size="11.00" fill="#000000">id</text>
<polygon fill="none" stroke="#000000" points="450,-421.7 450,-443.7 544,-443.7 544,-421.7 450,-421.7"/>
<text text-anchor="start" x="452.9758" y="-429.4" font-family="Helvetica,sans-Serif" font-size="11.00" fill="#000000">uuid[2147483647]</text>
<polygon fill="#ffffff" stroke="transparent" points="302,-399.7 302,-421.7 450,-421.7 450,-399.7 302,-399.7"/>
<polygon fill="none" stroke="#000000" points="302,-399.7 302,-421.7 450,-421.7 450,-399.7 302,-399.7"/>
<text text-anchor="start" x="322" y="-406.8" font-family="Helvetica,sans-Serif" font-size="11.00" fill="#000000">occurred_at</text>
<polygon fill="none" stroke="#000000" points="450,-399.7 450,-421.7 544,-421.7 544,-399.7 450,-399.7"/>
<text text-anchor="start" x="453" y="-407.4" font-family="Helvetica,sans-Serif" font-size="11.00" fill="#000000">timestamp[29,6]</text>
<polygon fill="#ffffff" stroke="transparent" points="302,-377.7 302,-399.7 450,-399.7 450,-377.7 302,-377.7"/>
<polygon fill="none" stroke="#000000" points="302,-377.7 302,-399.7 450,-399.7 450,-377.7 302,-377.7"/>
<text text-anchor="start" x="322" y="-384.8" font-family="Helvetica,sans-Serif" font-size="11.00" fill="#000000">person_identifier</text>
<polygon fill="none" stroke="#000000" points="450,-377.7 450,-399.7 544,-399.7 544,-377.7 450,-377.7"/>
<text text-anchor="start" x="453" y="-385.4" font-family="Helvetica,sans-Serif" font-size="11.00" fill="#000000">varchar[7]</text>
<polygon fill="#ffffff" stroke="transparent" points="302,-355.7 302,-377.7 450,-377.7 450,-355.7 302,-355.7"/>
<polygon fill="none" stroke="#000000" points="302,-355.7 302,-377.7 450,-377.7 450,-355.7 302,-355.7"/>
<text text-anchor="start" x="322" y="-362.8" font-family="Helvetica,sans-Serif" font-size="11.00" fill="#000000">staff_id</text>
<polygon fill="none" stroke="#000000" points="450,-355.7 450,-377.7 544,-377.7 544,-355.7 450,-355.7"/>
<text text-anchor="start" x="453" y="-363.4" font-family="Helvetica,sans-Serif" font-size="11.00" fill="#000000">int8[19]</text>
<polygon fill="none" stroke="#000000" points="302,-333.7 302,-355.7 450,-355.7 450,-333.7 302,-333.7"/>
<text text-anchor="start" x="322" y="-340.8" font-family="Helvetica,sans-Serif" font-size="11.00" fill="#000000">staff_username</text>
<polygon fill="none" stroke="#000000" points="450,-333.7 450,-355.7 544,-355.7 544,-333.7 450,-333.7"/>
<text text-anchor="start" x="453" y="-341.4" font-family="Helvetica,sans-Serif" font-size="11.00" fill="#000000">varchar[64]</text>
<polygon fill="#ffffff" stroke="transparent" points="302,-311.7 302,-333.7 450,-333.7 450,-311.7 302,-311.7"/>
<polygon fill="none" stroke="#000000" points="302,-311.7 302,-333.7 450,-333.7 450,-311.7 302,-311.7"/>
<image xlink:href="../../images/foreignKeys.png" width="11px" height="12px" preserveAspectRatio="xMinYMin meet" x="307" y="-328.7"/>
<text text-anchor="start" x="322" y="-318.8" font-family="Helvetica,sans-Serif" font-size="11.00" fill="#000000">prison_code</text>
<polygon fill="none" stroke="#000000" points="450,-311.7 450,-333.7 544,-333.7 544,-311.7 450,-311.7"/>
<text text-anchor="start" x="453" y="-319.4" font-family="Helvetica,sans-Serif" font-size="11.00" fill="#000000">varchar[6]</text>
<polygon fill="none" stroke="#000000" points="302,-289.7 302,-311.7 450,-311.7 450,-289.7 302,-289.7"/>
<text text-anchor="start" x="322" y="-296.8" font-family="Helvetica,sans-Serif" font-size="11.00" fill="#000000">created_at</text>
<polygon fill="none" stroke="#000000" points="450,-289.7 450,-311.7 544,-311.7 544,-289.7 450,-289.7"/>
<text text-anchor="start" x="453" y="-297.4" font-family="Helvetica,sans-Serif" font-size="11.00" fill="#000000">timestamp[29,6]</text>
<polygon fill="none" stroke="#000000" points="302,-267.7 302,-289.7 450,-289.7 450,-267.7 302,-267.7"/>
<text text-anchor="start" x="322" y="-274.8" font-family="Helvetica,sans-Serif" font-size="11.00" fill="#000000">version</text>
<polygon fill="none" stroke="#000000" points="450,-267.7 450,-289.7 544,-289.7 544,-267.7 450,-267.7"/>
<text text-anchor="start" x="453" y="-275.4" font-family="Helvetica,sans-Serif" font-size="11.00" fill="#000000">int4[10]</text>
<polygon fill="none" stroke="#000000" points="302,-245.7 302,-267.7 450,-267.7 450,-245.7 302,-245.7"/>
<text text-anchor="start" x="322" y="-252.8" font-family="Helvetica,sans-Serif" font-size="11.00" fill="#000000">text_length</text>
<polygon fill="none" stroke="#000000" points="450,-245.7 450,-267.7 544,-267.7 544,-245.7 450,-245.7"/>
<text text-anchor="start" x="453" y="-253.4" font-family="Helvetica,sans-Serif" font-size="11.00" fill="#000000">int4[10]</text>
<polygon fill="none" stroke="#000000" points="302,-223.7 302,-245.7 450,-245.7 450,-223.7 302,-223.7"/>
<text text-anchor="start" x="322" y="-230.8" font-family="Helvetica,sans-Serif" font-size="11.00" fill="#000000">amendment_count</text>
<polygon fill="none" stroke="#000000" points="450,-223.7 450,-245.7 544,-245.7 544,-223.7 450,-223.7"/>
<text text-anchor="start" x="453" y="-231.4" font-family="Helvetica,sans-Serif" font-size="11.00" fill="#000000">int4[10]</text>
<polygon fill="#ffffff" stroke="transparent" points="302,-204.7 302,-223.7 380,-223.7 380,-204.7 302,-204.7"/>
<polygon fill="none" stroke="#000000" points="302,-204.7 302,-223.7 380,-223.7 380,-204.7 302,-204.7"/>
<text text-anchor="start" x="305" y="-210.8" font-family="Helvetica,sans-Serif" font-size="11.00" fill="#000000">&lt; 1</text>
<polygon fill="#ffffff" stroke="transparent" points="380,-204.7 380,-223.7 450,-223.7 450,-204.7 380,-204.7"/>
<polygon fill="none" stroke="#000000" points="380,-204.7 380,-223.7 450,-223.7 450,-204.7 380,-204.7"/>
<text text-anchor="start" x="440.8862" y="-210.8" font-family="Helvetica,sans-Serif" font-size="11.00" fill="#000000"> &#160;</text>
<polygon fill="#ffffff" stroke="transparent" points="450,-204.7 450,-223.7 544,-223.7 544,-204.7 450,-204.7"/>
<polygon fill="none" stroke="#000000" points="450,-204.7 450,-223.7 544,-223.7 544,-204.7 450,-204.7"/>
<text text-anchor="start" x="525.4053" y="-210.8" font-family="Helvetica,sans-Serif" font-size="11.00" fill="#000000">0 &gt;</text>
<polygon fill="none" stroke="#000000" stroke-width="2" points="301,-203.7 301,-467.7 545,-467.7 545,-203.7 301,-203.7"/>
</a>
</g>
</g>
<!-- keyworker_session&#45;&gt;prison_migration_date_history -->
<g id="edge2" class="edge">
<title>keyworker_session:w&#45;&gt;prison_migration_date_history:e</title>
<path fill="none" stroke="#000000" stroke-dasharray="5,2" d="M288.1222,-318.4556C265.9529,-300.8772 290.6046,-234.7 251.5,-234.7"/>
<polygon fill="#000000" stroke="#000000" points="294.3498,-320.3602 300.9471,-326.1426 298.1749,-321.5301 302,-322.7 302,-322.7 302,-322.7 298.1749,-321.5301 303.0529,-319.2574 294.3498,-320.3602 294.3498,-320.3602"/>
<ellipse fill="none" stroke="#000000" cx="291.2897" cy="-319.4243" rx="3.2" ry="3.2"/>
</g>
<!-- prison_configuration -->
<g id="node4" class="node">
<title>prison_configuration</title>
<g id="a_node4"><a xlink:href="../../tables/prison_configuration.html" xlink:title="prison_configuration" target="_top">
<polygon fill="#ffffff" stroke="transparent" points="334,-120.2 334,-181.2 512,-181.2 512,-120.2 334,-120.2"/>
<polygon fill="#f5f5f5" stroke="transparent" points="334,-157.7 334,-180.7 512,-180.7 512,-157.7 334,-157.7"/>
<polygon fill="none" stroke="#000000" points="334,-157.7 334,-180.7 512,-180.7 512,-157.7 334,-157.7"/>
<text text-anchor="start" x="339" y="-166.3" font-family="Helvetica,sans-Serif" font-weight="bold" font-size="11.00" fill="#000000">prison_configuration</text>
<text text-anchor="start" x="477.5219" y="-165.8" font-family="Helvetica,sans-Serif" font-size="11.00" fill="#000000">[table]</text>
<polygon fill="none" stroke="#000000" points="334,-138.7 334,-157.7 512,-157.7 512,-138.7 334,-138.7"/>
<text text-anchor="start" x="337" y="-144.8" font-family="Helvetica,sans-Serif" font-size="11.00" fill="#000000">...</text>
<polygon fill="#ffffff" stroke="transparent" points="334,-119.7 334,-138.7 405,-138.7 405,-119.7 334,-119.7"/>
<polygon fill="none" stroke="#000000" points="334,-119.7 334,-138.7 405,-138.7 405,-119.7 334,-119.7"/>
<text text-anchor="start" x="337" y="-125.8" font-family="Helvetica,sans-Serif" font-size="11.00" fill="#000000">&lt; 2</text>
<polygon fill="#ffffff" stroke="transparent" points="405,-119.7 405,-138.7 474,-138.7 474,-119.7 405,-119.7"/>
<polygon fill="none" stroke="#000000" points="405,-119.7 405,-138.7 474,-138.7 474,-119.7 405,-119.7"/>
<text text-anchor="start" x="432.4956" y="-125.8" font-family="Helvetica,sans-Serif" font-size="11.00" fill="#000000">12 rows</text>
<polygon fill="#ffffff" stroke="transparent" points="474,-119.7 474,-138.7 512,-138.7 512,-119.7 474,-119.7"/>
<polygon fill="none" stroke="#000000" points="474,-119.7 474,-138.7 512,-138.7 512,-119.7 474,-119.7"/>
<text text-anchor="start" x="502.8862" y="-125.8" font-family="Helvetica,sans-Serif" font-size="11.00" fill="#000000"> &#160;</text>
</a>
</g>
</g>
<!-- prison_configuration&#45;&gt;prison_migration_date_history -->
<g id="edge3" class="edge">
<title>prison_configuration:w&#45;&gt;prison_migration_date_history:e</title>
<path fill="none" stroke="#000000" stroke-dasharray="5,2" d="M320.7015,-153.9568C297.84,-173.9051 273.7725,-234.7 251.5,-234.7"/>
<polygon fill="#000000" stroke="#000000" points="326.7612,-151.1058 335.5326,-150.9575 330.3806,-149.4029 334,-147.7 334,-147.7 334,-147.7 330.3806,-149.4029 332.4674,-144.4425 326.7612,-151.1058 326.7612,-151.1058"/>
<ellipse fill="none" stroke="#000000" cx="323.8656" cy="-152.4682" rx="3.2" ry="3.2"/>
</g>
<!-- prison_configuration_audit -->
<g id="node5" class="node">
<title>prison_configuration_audit</title>
<g id="a_node5"><a xlink:href="../../tables/prison_configuration_audit.html" xlink:title="prison_configuration_audit" target="_top">
<polygon fill="#ffffff" stroke="transparent" points="313.5,-38.2 313.5,-99.2 532.5,-99.2 532.5,-38.2 313.5,-38.2"/>
<polygon fill="#f5f5f5" stroke="transparent" points="314,-75.7 314,-98.7 533,-98.7 533,-75.7 314,-75.7"/>
<polygon fill="none" stroke="#000000" points="314,-75.7 314,-98.7 533,-98.7 533,-75.7 314,-75.7"/>
<text text-anchor="start" x="319" y="-84.3" font-family="Helvetica,sans-Serif" font-weight="bold" font-size="11.00" fill="#000000">prison_configuration_audit</text>
<text text-anchor="start" x="498.5219" y="-83.8" font-family="Helvetica,sans-Serif" font-size="11.00" fill="#000000">[table]</text>
<polygon fill="none" stroke="#000000" points="314,-56.7 314,-75.7 533,-75.7 533,-56.7 314,-56.7"/>
<text text-anchor="start" x="317" y="-62.8" font-family="Helvetica,sans-Serif" font-size="11.00" fill="#000000">...</text>
<polygon fill="#ffffff" stroke="transparent" points="314,-37.7 314,-56.7 422,-56.7 422,-37.7 314,-37.7"/>
<polygon fill="none" stroke="#000000" points="314,-37.7 314,-56.7 422,-56.7 422,-37.7 314,-37.7"/>
<text text-anchor="start" x="317" y="-43.8" font-family="Helvetica,sans-Serif" font-size="11.00" fill="#000000">&lt; 3</text>
<polygon fill="#ffffff" stroke="transparent" points="422,-37.7 422,-56.7 477,-56.7 477,-37.7 422,-37.7"/>
<polygon fill="none" stroke="#000000" points="422,-37.7 422,-56.7 477,-56.7 477,-37.7 422,-37.7"/>
<text text-anchor="start" x="467.8862" y="-43.8" font-family="Helvetica,sans-Serif" font-size="11.00" fill="#000000"> &#160;</text>
<polygon fill="#ffffff" stroke="transparent" points="477,-37.7 477,-56.7 533,-56.7 533,-37.7 477,-37.7"/>
<polygon fill="none" stroke="#000000" points="477,-37.7 477,-56.7 533,-56.7 533,-37.7 477,-37.7"/>
<text text-anchor="start" x="523.8862" y="-43.8" font-family="Helvetica,sans-Serif" font-size="11.00" fill="#000000"> &#160;</text>
</a>
</g>
</g>
<!-- prison_configuration_audit&#45;&gt;prison_migration_date_history -->
<g id="edge4" class="edge">
<title>prison_configuration_audit:w&#45;&gt;prison_migration_date_history:e</title>
<path fill="none" stroke="#000000" stroke-dasharray="5,2" d="M299.6202,-68.089C246.7725,-88.6301 325.9521,-234.7 251.5,-234.7"/>
<polygon fill="#000000" stroke="#000000" points="306.1082,-67.0112 314.59,-69.2513 310.0541,-66.3556 314,-65.7 314,-65.7 314,-65.7 310.0541,-66.3556 313.41,-62.1487 306.1082,-67.0112 306.1082,-67.0112"/>
<ellipse fill="none" stroke="#000000" cx="302.9514" cy="-67.5357" rx="3.2" ry="3.2"/>
</g>
</g>
</svg>
