<?xml version="1.0" encoding="UTF-8" standalone="no"?>
<!DOCTYPE svg PUBLIC "-//W3C//DTD SVG 1.1//EN"
 "http://www.w3.org/Graphics/SVG/1.1/DTD/svg11.dtd">
<!-- Generated by graphviz version 2.40.1 (20161225.0304)
 -->
<!-- Title: twoDegreesRelationshipsDiagramImplied Pages: 1 -->
<svg width="562pt" height="891pt"
 viewBox="0.00 0.00 562.00 891.20" xmlns="http://www.w3.org/2000/svg" xmlns:xlink="http://www.w3.org/1999/xlink">
<g id="graph0" class="graph" transform="scale(1 1) rotate(0) translate(4 887.2)">
<title>twoDegreesRelationshipsDiagramImplied</title>
<polygon fill="#ffffff" stroke="transparent" points="-4,4 -4,-887.2 558,-887.2 558,4 -4,4"/>
<text text-anchor="middle" x="72.4936" y="-7.3" font-family="Helvetica,sans-Serif" font-size="11.00" fill="#000000">Generated by SchemaSpy</text>
<!-- allocation -->
<g id="node1" class="node">
<title>allocation</title>
<g id="a_node1"><a xlink:href="../../tables/allocation.html" xlink:title="allocation" target="_top">
<polygon fill="#ffffff" stroke="transparent" points="370.5,-818.2 370.5,-879.2 475.5,-879.2 475.5,-818.2 370.5,-818.2"/>
<polygon fill="#f5f5f5" stroke="transparent" points="371,-855.7 371,-878.7 476,-878.7 476,-855.7 371,-855.7"/>
<polygon fill="none" stroke="#000000" points="371,-855.7 371,-878.7 476,-878.7 476,-855.7 371,-855.7"/>
<text text-anchor="start" x="376" y="-864.3" font-family="Helvetica,sans-Serif" font-weight="bold" font-size="11.00" fill="#000000">allocation</text>
<text text-anchor="start" x="441.5219" y="-863.8" font-family="Helvetica,sans-Serif" font-size="11.00" fill="#000000">[table]</text>
<polygon fill="none" stroke="#000000" points="371,-836.7 371,-855.7 476,-855.7 476,-836.7 371,-836.7"/>
<text text-anchor="start" x="374" y="-842.8" font-family="Helvetica,sans-Serif" font-size="11.00" fill="#000000">...</text>
<polygon fill="#ffffff" stroke="transparent" points="371,-817.7 371,-836.7 422,-836.7 422,-817.7 371,-817.7"/>
<polygon fill="none" stroke="#000000" points="371,-817.7 371,-836.7 422,-836.7 422,-817.7 371,-817.7"/>
<text text-anchor="start" x="374" y="-823.8" font-family="Helvetica,sans-Serif" font-size="11.00" fill="#000000">&lt; 4</text>
<polygon fill="#ffffff" stroke="transparent" points="422,-817.7 422,-836.7 449,-836.7 449,-817.7 422,-817.7"/>
<polygon fill="none" stroke="#000000" points="422,-817.7 422,-836.7 449,-836.7 449,-817.7 422,-817.7"/>
<text text-anchor="start" x="439.8862" y="-823.8" font-family="Helvetica,sans-Serif" font-size="11.00" fill="#000000"> &#160;</text>
<polygon fill="#ffffff" stroke="transparent" points="449,-817.7 449,-836.7 476,-836.7 476,-817.7 449,-817.7"/>
<polygon fill="none" stroke="#000000" points="449,-817.7 449,-836.7 476,-836.7 476,-817.7 449,-817.7"/>
<text text-anchor="start" x="466.8862" y="-823.8" font-family="Helvetica,sans-Serif" font-size="11.00" fill="#000000"> &#160;</text>
</a>
</g>
</g>
<!-- prison_migration_date_history -->
<g id="node2" class="node">
<title>prison_migration_date_history</title>
<g id="a_node2"><a xlink:href="../../tables/prison_migration_date_history.html" xlink:title="prison_migration_date_history" target="_top">
<polygon fill="#ffffff" stroke="transparent" points="8,-350.2 8,-433.2 251,-433.2 251,-350.2 8,-350.2"/>
<polygon fill="#f5f5f5" stroke="transparent" points="8.5,-409.7 8.5,-432.7 251.5,-432.7 251.5,-409.7 8.5,-409.7"/>
<polygon fill="none" stroke="#000000" points="8.5,-409.7 8.5,-432.7 251.5,-432.7 251.5,-409.7 8.5,-409.7"/>
<text text-anchor="start" x="13.5" y="-418.3" font-family="Helvetica,sans-Serif" font-weight="bold" font-size="11.00" fill="#000000">prison_migration_date_history</text>
<text text-anchor="start" x="217.0219" y="-417.8" font-family="Helvetica,sans-Serif" font-size="11.00" fill="#000000">[table]</text>
<polygon fill="none" stroke="#000000" points="8.5,-387.7 8.5,-409.7 251.5,-409.7 251.5,-387.7 8.5,-387.7"/>
<image xlink:href="../../images/primaryKeys.png" width="11px" height="12px" preserveAspectRatio="xMinYMin meet" x="13.5" y="-404.7"/>
<text text-anchor="start" x="37.5" y="-394.8" font-family="Helvetica,sans-Serif" font-size="11.00" fill="#000000">prison_code</text>
<polygon fill="none" stroke="#000000" points="8.5,-368.7 8.5,-387.7 251.5,-387.7 251.5,-368.7 8.5,-368.7"/>
<text text-anchor="start" x="11.5" y="-374.8" font-family="Helvetica,sans-Serif" font-size="11.00" fill="#000000">...</text>
<polygon fill="#ffffff" stroke="transparent" points="8.5,-349.7 8.5,-368.7 119.5,-368.7 119.5,-349.7 8.5,-349.7"/>
<polygon fill="none" stroke="#000000" points="8.5,-349.7 8.5,-368.7 119.5,-368.7 119.5,-349.7 8.5,-349.7"/>
<text text-anchor="start" x="11.5" y="-355.8" font-family="Helvetica,sans-Serif" font-size="11.00" fill="#000000"> &#160;</text>
<polygon fill="#ffffff" stroke="transparent" points="119.5,-349.7 119.5,-368.7 180.5,-368.7 180.5,-349.7 119.5,-349.7"/>
<polygon fill="none" stroke="#000000" points="119.5,-349.7 119.5,-368.7 180.5,-368.7 180.5,-349.7 119.5,-349.7"/>
<text text-anchor="start" x="171.3862" y="-355.8" font-family="Helvetica,sans-Serif" font-size="11.00" fill="#000000"> &#160;</text>
<polygon fill="#ffffff" stroke="transparent" points="180.5,-349.7 180.5,-368.7 251.5,-368.7 251.5,-349.7 180.5,-349.7"/>
<polygon fill="none" stroke="#000000" points="180.5,-349.7 180.5,-368.7 251.5,-368.7 251.5,-349.7 180.5,-349.7"/>
<text text-anchor="start" x="232.9053" y="-355.8" font-family="Helvetica,sans-Serif" font-size="11.00" fill="#000000">8 &gt;</text>
</a>
</g>
</g>
<!-- allocation&#45;&gt;prison_migration_date_history -->
<g id="edge1" class="edge">
<title>allocation:w&#45;&gt;prison_migration_date_history:e</title>
<path fill="none" stroke="#000000" stroke-dasharray="5,2" d="M356.5406,-845.3321C327.2548,-843.6297 311.3716,-835.3825 292,-807.7 239.6349,-732.869 342.8334,-398.7 251.5,-398.7"/>
<polygon fill="#000000" stroke="#000000" points="363.0026,-845.4964 370.9084,-849.2988 367.0013,-845.5982 371,-845.7 371,-845.7 371,-845.7 367.0013,-845.5982 371.0916,-842.1012 363.0026,-845.4964 363.0026,-845.4964"/>
<ellipse fill="none" stroke="#000000" cx="359.8036" cy="-845.415" rx="3.2" ry="3.2"/>
</g>
<!-- allocation_audit -->
<g id="node3" class="node">
<title>allocation_audit</title>
<g id="a_node3"><a xlink:href="../../tables/allocation_audit.html" xlink:title="allocation_audit" target="_top">
<polygon fill="#ffffff" stroke="transparent" points="350,-736.2 350,-797.2 496,-797.2 496,-736.2 350,-736.2"/>
<polygon fill="#f5f5f5" stroke="transparent" points="350,-773.7 350,-796.7 496,-796.7 496,-773.7 350,-773.7"/>
<polygon fill="none" stroke="#000000" points="350,-773.7 350,-796.7 496,-796.7 496,-773.7 350,-773.7"/>
<text text-anchor="start" x="355" y="-782.3" font-family="Helvetica,sans-Serif" font-weight="bold" font-size="11.00" fill="#000000">allocation_audit</text>
<text text-anchor="start" x="461.5219" y="-781.8" font-family="Helvetica,sans-Serif" font-size="11.00" fill="#000000">[table]</text>
<polygon fill="none" stroke="#000000" points="350,-754.7 350,-773.7 496,-773.7 496,-754.7 350,-754.7"/>
<text text-anchor="start" x="353" y="-760.8" font-family="Helvetica,sans-Serif" font-size="11.00" fill="#000000">...</text>
<polygon fill="#ffffff" stroke="transparent" points="350,-735.7 350,-754.7 421,-754.7 421,-735.7 350,-735.7"/>
<polygon fill="none" stroke="#000000" points="350,-735.7 350,-754.7 421,-754.7 421,-735.7 350,-735.7"/>
<text text-anchor="start" x="353" y="-741.8" font-family="Helvetica,sans-Serif" font-size="11.00" fill="#000000">&lt; 3</text>
<polygon fill="#ffffff" stroke="transparent" points="421,-735.7 421,-754.7 458,-754.7 458,-735.7 421,-735.7"/>
<polygon fill="none" stroke="#000000" points="421,-735.7 421,-754.7 458,-754.7 458,-735.7 421,-735.7"/>
<text text-anchor="start" x="448.8862" y="-741.8" font-family="Helvetica,sans-Serif" font-size="11.00" fill="#000000"> &#160;</text>
<polygon fill="#ffffff" stroke="transparent" points="458,-735.7 458,-754.7 496,-754.7 496,-735.7 458,-735.7"/>
<polygon fill="none" stroke="#000000" points="458,-735.7 458,-754.7 496,-754.7 496,-735.7 458,-735.7"/>
<text text-anchor="start" x="486.8862" y="-741.8" font-family="Helvetica,sans-Serif" font-size="11.00" fill="#000000"> &#160;</text>
</a>
</g>
</g>
<!-- allocation_audit&#45;&gt;prison_migration_date_history -->
<g id="edge2" class="edge">
<title>allocation_audit:w&#45;&gt;prison_migration_date_history:e</title>
<path fill="none" stroke="#000000" stroke-dasharray="5,2" d="M335.4581,-762.5889C315.1867,-759.0948 305.428,-747.261 292,-725.7 253.2912,-663.5464 324.7219,-398.7 251.5,-398.7"/>
<polygon fill="#000000" stroke="#000000" points="342.0232,-763.0905 349.7257,-767.2895 346.0116,-763.3952 350,-763.7 350,-763.7 350,-763.7 346.0116,-763.3952 350.2743,-760.1105 342.0232,-763.0905 342.0232,-763.0905"/>
<ellipse fill="none" stroke="#000000" cx="338.8325" cy="-762.8467" rx="3.2" ry="3.2"/>
</g>
<!-- keyworker_entry -->
<g id="node4" class="node">
<title>keyworker_entry</title>
<g id="a_node4"><a xlink:href="../../tables/keyworker_entry.html" xlink:title="keyworker_entry" target="_top">
<polygon fill="#ffffff" stroke="transparent" points="347,-654.2 347,-715.2 499,-715.2 499,-654.2 347,-654.2"/>
<polygon fill="#f5f5f5" stroke="transparent" points="347,-691.7 347,-714.7 499,-714.7 499,-691.7 347,-691.7"/>
<polygon fill="none" stroke="#000000" points="347,-691.7 347,-714.7 499,-714.7 499,-691.7 347,-691.7"/>
<text text-anchor="start" x="352" y="-700.3" font-family="Helvetica,sans-Serif" font-weight="bold" font-size="11.00" fill="#000000">keyworker_entry</text>
<text text-anchor="start" x="464.5219" y="-699.8" font-family="Helvetica,sans-Serif" font-size="11.00" fill="#000000">[table]</text>
<polygon fill="none" stroke="#000000" points="347,-672.7 347,-691.7 499,-691.7 499,-672.7 347,-672.7"/>
<text text-anchor="start" x="350" y="-678.8" font-family="Helvetica,sans-Serif" font-size="11.00" fill="#000000">...</text>
<polygon fill="#ffffff" stroke="transparent" points="347,-653.7 347,-672.7 421,-672.7 421,-653.7 347,-653.7"/>
<polygon fill="none" stroke="#000000" points="347,-653.7 347,-672.7 421,-672.7 421,-653.7 347,-653.7"/>
<text text-anchor="start" x="350" y="-659.8" font-family="Helvetica,sans-Serif" font-size="11.00" fill="#000000">&lt; 1</text>
<polygon fill="#ffffff" stroke="transparent" points="421,-653.7 421,-672.7 460,-672.7 460,-653.7 421,-653.7"/>
<polygon fill="none" stroke="#000000" points="421,-653.7 421,-672.7 460,-672.7 460,-653.7 421,-653.7"/>
<text text-anchor="start" x="450.8862" y="-659.8" font-family="Helvetica,sans-Serif" font-size="11.00" fill="#000000"> &#160;</text>
<polygon fill="#ffffff" stroke="transparent" points="460,-653.7 460,-672.7 499,-672.7 499,-653.7 460,-653.7"/>
<polygon fill="none" stroke="#000000" points="460,-653.7 460,-672.7 499,-672.7 499,-653.7 460,-653.7"/>
<text text-anchor="start" x="489.8862" y="-659.8" font-family="Helvetica,sans-Serif" font-size="11.00" fill="#000000"> &#160;</text>
</a>
</g>
</g>
<!-- keyworker_entry&#45;&gt;prison_migration_date_history -->
<g id="edge3" class="edge">
<title>keyworker_entry:w&#45;&gt;prison_migration_date_history:e</title>
<path fill="none" stroke="#000000" stroke-dasharray="5,2" d="M332.5252,-680.3994C313.6242,-676.5502 304.9876,-664.1867 292,-643.7 262.4535,-597.0931 306.6833,-398.7 251.5,-398.7"/>
<polygon fill="#000000" stroke="#000000" points="339.0321,-680.984 346.6778,-685.2856 343.0161,-681.342 347,-681.7 347,-681.7 347,-681.7 343.0161,-681.342 347.3222,-678.1144 339.0321,-680.984 339.0321,-680.984"/>
<ellipse fill="none" stroke="#000000" cx="335.8449" cy="-680.6976" rx="3.2" ry="3.2"/>
</g>
<!-- keyworker_session -->
<g id="node5" class="node">
<title>keyworker_session</title>
<g id="a_node5"><a xlink:href="../../tables/keyworker_session.html" xlink:title="keyworker_session" target="_top">
<polygon fill="#ffffff" stroke="transparent" points="300,-366.7 300,-632.7 546,-632.7 546,-366.7 300,-366.7"/>
<polygon fill="#f5f5f5" stroke="transparent" points="302,-607.7 302,-630.7 544,-630.7 544,-607.7 302,-607.7"/>
<polygon fill="none" stroke="#000000" points="302,-607.7 302,-630.7 544,-630.7 544,-607.7 302,-607.7"/>
<text text-anchor="start" x="307" y="-616.3" font-family="Helvetica,sans-Serif" font-weight="bold" font-size="11.00" fill="#000000">keyworker_session</text>
<text text-anchor="start" x="509.0437" y="-615.8" font-family="Helvetica,sans-Serif" font-size="11.00" fill="#000000">[table]</text>
<polygon fill="none" stroke="#000000" points="302,-585.7 302,-607.7 450,-607.7 450,-585.7 302,-585.7"/>
<image xlink:href="../../images/primaryKeys.png" width="11px" height="12px" preserveAspectRatio="xMinYMin meet" x="307" y="-602.7"/>
<text text-anchor="start" x="322" y="-592.8" font-family="Helvetica,sans-Serif" font-size="11.00" fill="#000000">id</text>
<polygon fill="none" stroke="#000000" points="450,-585.7 450,-607.7 544,-607.7 544,-585.7 450,-585.7"/>
<text text-anchor="start" x="452.9758" y="-593.4" font-family="Helvetica,sans-Serif" font-size="11.00" fill="#000000">uuid[2147483647]</text>
<polygon fill="#ffffff" stroke="transparent" points="302,-563.7 302,-585.7 450,-585.7 450,-563.7 302,-563.7"/>
<polygon fill="none" stroke="#000000" points="302,-563.7 302,-585.7 450,-585.7 450,-563.7 302,-563.7"/>
<text text-anchor="start" x="322" y="-570.8" font-family="Helvetica,sans-Serif" font-size="11.00" fill="#000000">occurred_at</text>
<polygon fill="none" stroke="#000000" points="450,-563.7 450,-585.7 544,-585.7 544,-563.7 450,-563.7"/>
<text text-anchor="start" x="453" y="-571.4" font-family="Helvetica,sans-Serif" font-size="11.00" fill="#000000">timestamp[29,6]</text>
<polygon fill="#ffffff" stroke="transparent" points="302,-541.7 302,-563.7 450,-563.7 450,-541.7 302,-541.7"/>
<polygon fill="none" stroke="#000000" points="302,-541.7 302,-563.7 450,-563.7 450,-541.7 302,-541.7"/>
<text text-anchor="start" x="322" y="-548.8" font-family="Helvetica,sans-Serif" font-size="11.00" fill="#000000">person_identifier</text>
<polygon fill="none" stroke="#000000" points="450,-541.7 450,-563.7 544,-563.7 544,-541.7 450,-541.7"/>
<text text-anchor="start" x="453" y="-549.4" font-family="Helvetica,sans-Serif" font-size="11.00" fill="#000000">varchar[7]</text>
<polygon fill="#ffffff" stroke="transparent" points="302,-519.7 302,-541.7 450,-541.7 450,-519.7 302,-519.7"/>
<polygon fill="none" stroke="#000000" points="302,-519.7 302,-541.7 450,-541.7 450,-519.7 302,-519.7"/>
<text text-anchor="start" x="322" y="-526.8" font-family="Helvetica,sans-Serif" font-size="11.00" fill="#000000">staff_id</text>
<polygon fill="none" stroke="#000000" points="450,-519.7 450,-541.7 544,-541.7 544,-519.7 450,-519.7"/>
<text text-anchor="start" x="453" y="-527.4" font-family="Helvetica,sans-Serif" font-size="11.00" fill="#000000">int8[19]</text>
<polygon fill="none" stroke="#000000" points="302,-497.7 302,-519.7 450,-519.7 450,-497.7 302,-497.7"/>
<text text-anchor="start" x="322" y="-504.8" font-family="Helvetica,sans-Serif" font-size="11.00" fill="#000000">staff_username</text>
<polygon fill="none" stroke="#000000" points="450,-497.7 450,-519.7 544,-519.7 544,-497.7 450,-497.7"/>
<text text-anchor="start" x="453" y="-505.4" font-family="Helvetica,sans-Serif" font-size="11.00" fill="#000000">varchar[64]</text>
<polygon fill="#ffffff" stroke="transparent" points="302,-475.7 302,-497.7 450,-497.7 450,-475.7 302,-475.7"/>
<polygon fill="none" stroke="#000000" points="302,-475.7 302,-497.7 450,-497.7 450,-475.7 302,-475.7"/>
<image xlink:href="../../images/foreignKeys.png" width="11px" height="12px" preserveAspectRatio="xMinYMin meet" x="307" y="-492.7"/>
<text text-anchor="start" x="322" y="-482.8" font-family="Helvetica,sans-Serif" font-size="11.00" fill="#000000">prison_code</text>
<polygon fill="none" stroke="#000000" points="450,-475.7 450,-497.7 544,-497.7 544,-475.7 450,-475.7"/>
<text text-anchor="start" x="453" y="-483.4" font-family="Helvetica,sans-Serif" font-size="11.00" fill="#000000">varchar[6]</text>
<polygon fill="none" stroke="#000000" points="302,-453.7 302,-475.7 450,-475.7 450,-453.7 302,-453.7"/>
<text text-anchor="start" x="322" y="-460.8" font-family="Helvetica,sans-Serif" font-size="11.00" fill="#000000">created_at</text>
<polygon fill="none" stroke="#000000" points="450,-453.7 450,-475.7 544,-475.7 544,-453.7 450,-453.7"/>
<text text-anchor="start" x="453" y="-461.4" font-family="Helvetica,sans-Serif" font-size="11.00" fill="#000000">timestamp[29,6]</text>
<polygon fill="none" stroke="#000000" points="302,-431.7 302,-453.7 450,-453.7 450,-431.7 302,-431.7"/>
<text text-anchor="start" x="322" y="-438.8" font-family="Helvetica,sans-Serif" font-size="11.00" fill="#000000">version</text>
<polygon fill="none" stroke="#000000" points="450,-431.7 450,-453.7 544,-453.7 544,-431.7 450,-431.7"/>
<text text-anchor="start" x="453" y="-439.4" font-family="Helvetica,sans-Serif" font-size="11.00" fill="#000000">int4[10]</text>
<polygon fill="none" stroke="#000000" points="302,-409.7 302,-431.7 450,-431.7 450,-409.7 302,-409.7"/>
<text text-anchor="start" x="322" y="-416.8" font-family="Helvetica,sans-Serif" font-size="11.00" fill="#000000">text_length</text>
<polygon fill="none" stroke="#000000" points="450,-409.7 450,-431.7 544,-431.7 544,-409.7 450,-409.7"/>
<text text-anchor="start" x="453" y="-417.4" font-family="Helvetica,sans-Serif" font-size="11.00" fill="#000000">int4[10]</text>
<polygon fill="none" stroke="#000000" points="302,-387.7 302,-409.7 450,-409.7 450,-387.7 302,-387.7"/>
<text text-anchor="start" x="322" y="-394.8" font-family="Helvetica,sans-Serif" font-size="11.00" fill="#000000">amendment_count</text>
<polygon fill="none" stroke="#000000" points="450,-387.7 450,-409.7 544,-409.7 544,-387.7 450,-387.7"/>
<text text-anchor="start" x="453" y="-395.4" font-family="Helvetica,sans-Serif" font-size="11.00" fill="#000000">int4[10]</text>
<polygon fill="#ffffff" stroke="transparent" points="302,-368.7 302,-387.7 380,-387.7 380,-368.7 302,-368.7"/>
<polygon fill="none" stroke="#000000" points="302,-368.7 302,-387.7 380,-387.7 380,-368.7 302,-368.7"/>
<text text-anchor="start" x="305" y="-374.8" font-family="Helvetica,sans-Serif" font-size="11.00" fill="#000000">&lt; 1</text>
<polygon fill="#ffffff" stroke="transparent" points="380,-368.7 380,-387.7 450,-387.7 450,-368.7 380,-368.7"/>
<polygon fill="none" stroke="#000000" points="380,-368.7 380,-387.7 450,-387.7 450,-368.7 380,-368.7"/>
<text text-anchor="start" x="440.8862" y="-374.8" font-family="Helvetica,sans-Serif" font-size="11.00" fill="#000000"> &#160;</text>
<polygon fill="#ffffff" stroke="transparent" points="450,-368.7 450,-387.7 544,-387.7 544,-368.7 450,-368.7"/>
<polygon fill="none" stroke="#000000" points="450,-368.7 450,-387.7 544,-387.7 544,-368.7 450,-368.7"/>
<text text-anchor="start" x="525.4053" y="-374.8" font-family="Helvetica,sans-Serif" font-size="11.00" fill="#000000">0 &gt;</text>
<polygon fill="none" stroke="#000000" stroke-width="2" points="301,-367.7 301,-631.7 545,-631.7 545,-367.7 301,-367.7"/>
</a>
</g>
</g>
<!-- keyworker_session&#45;&gt;prison_migration_date_history -->
<g id="edge4" class="edge">
<title>keyworker_session:w&#45;&gt;prison_migration_date_history:e</title>
<path fill="none" stroke="#000000" stroke-dasharray="5,2" d="M288.1222,-482.4556C265.9529,-464.8772 290.6046,-398.7 251.5,-398.7"/>
<polygon fill="#000000" stroke="#000000" points="294.3498,-484.3602 300.9471,-490.1426 298.1749,-485.5301 302,-486.7 302,-486.7 302,-486.7 298.1749,-485.5301 303.0529,-483.2574 294.3498,-484.3602 294.3498,-484.3602"/>
<ellipse fill="none" stroke="#000000" cx="291.2897" cy="-483.4243" rx="3.2" ry="3.2"/>
</g>
<!-- prison_configuration -->
<g id="node6" class="node">
<title>prison_configuration</title>
<g id="a_node6"><a xlink:href="../../tables/prison_configuration.html" xlink:title="prison_configuration" target="_top">
<polygon fill="#ffffff" stroke="transparent" points="334,-284.2 334,-345.2 512,-345.2 512,-284.2 334,-284.2"/>
<polygon fill="#f5f5f5" stroke="transparent" points="334,-321.7 334,-344.7 512,-344.7 512,-321.7 334,-321.7"/>
<polygon fill="none" stroke="#000000" points="334,-321.7 334,-344.7 512,-344.7 512,-321.7 334,-321.7"/>
<text text-anchor="start" x="339" y="-330.3" font-family="Helvetica,sans-Serif" font-weight="bold" font-size="11.00" fill="#000000">prison_configuration</text>
<text text-anchor="start" x="477.5219" y="-329.8" font-family="Helvetica,sans-Serif" font-size="11.00" fill="#000000">[table]</text>
<polygon fill="none" stroke="#000000" points="334,-302.7 334,-321.7 512,-321.7 512,-302.7 334,-302.7"/>
<text text-anchor="start" x="337" y="-308.8" font-family="Helvetica,sans-Serif" font-size="11.00" fill="#000000">...</text>
<polygon fill="#ffffff" stroke="transparent" points="334,-283.7 334,-302.7 405,-302.7 405,-283.7 334,-283.7"/>
<polygon fill="none" stroke="#000000" points="334,-283.7 334,-302.7 405,-302.7 405,-283.7 334,-283.7"/>
<text text-anchor="start" x="337" y="-289.8" font-family="Helvetica,sans-Serif" font-size="11.00" fill="#000000">&lt; 2</text>
<polygon fill="#ffffff" stroke="transparent" points="405,-283.7 405,-302.7 474,-302.7 474,-283.7 405,-283.7"/>
<polygon fill="none" stroke="#000000" points="405,-283.7 405,-302.7 474,-302.7 474,-283.7 405,-283.7"/>
<text text-anchor="start" x="432.4956" y="-289.8" font-family="Helvetica,sans-Serif" font-size="11.00" fill="#000000">12 rows</text>
<polygon fill="#ffffff" stroke="transparent" points="474,-283.7 474,-302.7 512,-302.7 512,-283.7 474,-283.7"/>
<polygon fill="none" stroke="#000000" points="474,-283.7 474,-302.7 512,-302.7 512,-283.7 474,-283.7"/>
<text text-anchor="start" x="502.8862" y="-289.8" font-family="Helvetica,sans-Serif" font-size="11.00" fill="#000000"> &#160;</text>
</a>
</g>
</g>
<!-- prison_configuration&#45;&gt;prison_migration_date_history -->
<g id="edge5" class="edge">
<title>prison_configuration:w&#45;&gt;prison_migration_date_history:e</title>
<path fill="none" stroke="#000000" stroke-dasharray="5,2" d="M320.7015,-317.9568C297.84,-337.9051 273.7725,-398.7 251.5,-398.7"/>
<polygon fill="#000000" stroke="#000000" points="326.7612,-315.1058 335.5326,-314.9575 330.3806,-313.4029 334,-311.7 334,-311.7 334,-311.7 330.3806,-313.4029 332.4674,-308.4425 326.7612,-315.1058 326.7612,-315.1058"/>
<ellipse fill="none" stroke="#000000" cx="323.8656" cy="-316.4682" rx="3.2" ry="3.2"/>
</g>
<!-- prison_configuration_audit -->
<g id="node7" class="node">
<title>prison_configuration_audit</title>
<g id="a_node7"><a xlink:href="../../tables/prison_configuration_audit.html" xlink:title="prison_configuration_audit" target="_top">
<polygon fill="#ffffff" stroke="transparent" points="313.5,-202.2 313.5,-263.2 532.5,-263.2 532.5,-202.2 313.5,-202.2"/>
<polygon fill="#f5f5f5" stroke="transparent" points="314,-239.7 314,-262.7 533,-262.7 533,-239.7 314,-239.7"/>
<polygon fill="none" stroke="#000000" points="314,-239.7 314,-262.7 533,-262.7 533,-239.7 314,-239.7"/>
<text text-anchor="start" x="319" y="-248.3" font-family="Helvetica,sans-Serif" font-weight="bold" font-size="11.00" fill="#000000">prison_configuration_audit</text>
<text text-anchor="start" x="498.5219" y="-247.8" font-family="Helvetica,sans-Serif" font-size="11.00" fill="#000000">[table]</text>
<polygon fill="none" stroke="#000000" points="314,-220.7 314,-239.7 533,-239.7 533,-220.7 314,-220.7"/>
<text text-anchor="start" x="317" y="-226.8" font-family="Helvetica,sans-Serif" font-size="11.00" fill="#000000">...</text>
<polygon fill="#ffffff" stroke="transparent" points="314,-201.7 314,-220.7 422,-220.7 422,-201.7 314,-201.7"/>
<polygon fill="none" stroke="#000000" points="314,-201.7 314,-220.7 422,-220.7 422,-201.7 314,-201.7"/>
<text text-anchor="start" x="317" y="-207.8" font-family="Helvetica,sans-Serif" font-size="11.00" fill="#000000">&lt; 3</text>
<polygon fill="#ffffff" stroke="transparent" points="422,-201.7 422,-220.7 477,-220.7 477,-201.7 422,-201.7"/>
<polygon fill="none" stroke="#000000" points="422,-201.7 422,-220.7 477,-220.7 477,-201.7 422,-201.7"/>
<text text-anchor="start" x="467.8862" y="-207.8" font-family="Helvetica,sans-Serif" font-size="11.00" fill="#000000"> &#160;</text>
<polygon fill="#ffffff" stroke="transparent" points="477,-201.7 477,-220.7 533,-220.7 533,-201.7 477,-201.7"/>
<polygon fill="none" stroke="#000000" points="477,-201.7 477,-220.7 533,-220.7 533,-201.7 477,-201.7"/>
<text text-anchor="start" x="523.8862" y="-207.8" font-family="Helvetica,sans-Serif" font-size="11.00" fill="#000000"> &#160;</text>
</a>
</g>
</g>
<!-- prison_configuration_audit&#45;&gt;prison_migration_date_history -->
<g id="edge6" class="edge">
<title>prison_configuration_audit:w&#45;&gt;prison_migration_date_history:e</title>
<path fill="none" stroke="#000000" stroke-dasharray="5,2" d="M299.6202,-232.089C246.7725,-252.6301 325.9521,-398.7 251.5,-398.7"/>
<polygon fill="#000000" stroke="#000000" points="306.1082,-231.0112 314.59,-233.2513 310.0541,-230.3556 314,-229.7 314,-229.7 314,-229.7 310.0541,-230.3556 313.41,-226.1487 306.1082,-231.0112 306.1082,-231.0112"/>
<ellipse fill="none" stroke="#000000" cx="302.9514" cy="-231.5357" rx="3.2" ry="3.2"/>
</g>
<!-- staff_role -->
<g id="node8" class="node">
<title>staff_role</title>
<g id="a_node8"><a xlink:href="../../tables/staff_role.html" xlink:title="staff_role" target="_top">
<polygon fill="#ffffff" stroke="transparent" points="372,-120.2 372,-181.2 474,-181.2 474,-120.2 372,-120.2"/>
<polygon fill="#f5f5f5" stroke="transparent" points="372,-157.7 372,-180.7 474,-180.7 474,-157.7 372,-157.7"/>
<polygon fill="none" stroke="#000000" points="372,-157.7 372,-180.7 474,-180.7 474,-157.7 372,-157.7"/>
<text text-anchor="start" x="377" y="-166.3" font-family="Helvetica,sans-Serif" font-weight="bold" font-size="11.00" fill="#000000">staff_role</text>
<text text-anchor="start" x="439.5219" y="-165.8" font-family="Helvetica,sans-Serif" font-size="11.00" fill="#000000">[table]</text>
<polygon fill="none" stroke="#000000" points="372,-138.7 372,-157.7 474,-157.7 474,-138.7 372,-138.7"/>
<text text-anchor="start" x="375" y="-144.8" font-family="Helvetica,sans-Serif" font-size="11.00" fill="#000000">...</text>
<polygon fill="#ffffff" stroke="transparent" points="372,-119.7 372,-138.7 421,-138.7 421,-119.7 372,-119.7"/>
<polygon fill="none" stroke="#000000" points="372,-119.7 372,-138.7 421,-138.7 421,-119.7 372,-119.7"/>
<text text-anchor="start" x="375" y="-125.8" font-family="Helvetica,sans-Serif" font-size="11.00" fill="#000000">&lt; 2</text>
<polygon fill="#ffffff" stroke="transparent" points="421,-119.7 421,-138.7 447,-138.7 447,-119.7 421,-119.7"/>
<polygon fill="none" stroke="#000000" points="421,-119.7 421,-138.7 447,-138.7 447,-119.7 421,-119.7"/>
<text text-anchor="start" x="437.8862" y="-125.8" font-family="Helvetica,sans-Serif" font-size="11.00" fill="#000000"> &#160;</text>
<polygon fill="#ffffff" stroke="transparent" points="447,-119.7 447,-138.7 474,-138.7 474,-119.7 447,-119.7"/>
<polygon fill="none" stroke="#000000" points="447,-119.7 447,-138.7 474,-138.7 474,-119.7 447,-119.7"/>
<text text-anchor="start" x="464.8862" y="-125.8" font-family="Helvetica,sans-Serif" font-size="11.00" fill="#000000"> &#160;</text>
</a>
</g>
</g>
<!-- staff_role&#45;&gt;prison_migration_date_history -->
<g id="edge7" class="edge">
<title>staff_role:w&#45;&gt;prison_migration_date_history:e</title>
<path fill="none" stroke="#000000" stroke-dasharray="5,2" d="M357.4861,-148.2817C327.2864,-150.9521 312.8415,-163.1502 292,-191.7 236.7269,-267.4158 345.2443,-398.7 251.5,-398.7"/>
<polygon fill="#000000" stroke="#000000" points="364.0064,-148.0204 372.1442,-151.2971 368.0032,-147.8602 372,-147.7 372,-147.7 372,-147.7 368.0032,-147.8602 371.8558,-144.1029 364.0064,-148.0204 364.0064,-148.0204"/>
<ellipse fill="none" stroke="#000000" cx="360.809" cy="-148.1486" rx="3.2" ry="3.2"/>
</g>
<!-- staff_role_audit -->
<g id="node9" class="node">
<title>staff_role_audit</title>
<g id="a_node9"><a xlink:href="../../tables/staff_role_audit.html" xlink:title="staff_role_audit" target="_top">
<polygon fill="#ffffff" stroke="transparent" points="351.5,-38.2 351.5,-99.2 494.5,-99.2 494.5,-38.2 351.5,-38.2"/>
<polygon fill="#f5f5f5" stroke="transparent" points="352,-75.7 352,-98.7 495,-98.7 495,-75.7 352,-75.7"/>
<polygon fill="none" stroke="#000000" points="352,-75.7 352,-98.7 495,-98.7 495,-75.7 352,-75.7"/>
<text text-anchor="start" x="357" y="-84.3" font-family="Helvetica,sans-Serif" font-weight="bold" font-size="11.00" fill="#000000">staff_role_audit</text>
<text text-anchor="start" x="460.5219" y="-83.8" font-family="Helvetica,sans-Serif" font-size="11.00" fill="#000000">[table]</text>
<polygon fill="none" stroke="#000000" points="352,-56.7 352,-75.7 495,-75.7 495,-56.7 352,-56.7"/>
<text text-anchor="start" x="355" y="-62.8" font-family="Helvetica,sans-Serif" font-size="11.00" fill="#000000">...</text>
<polygon fill="#ffffff" stroke="transparent" points="352,-37.7 352,-56.7 422,-56.7 422,-37.7 352,-37.7"/>
<polygon fill="none" stroke="#000000" points="352,-37.7 352,-56.7 422,-56.7 422,-37.7 352,-37.7"/>
<text text-anchor="start" x="355" y="-43.8" font-family="Helvetica,sans-Serif" font-size="11.00" fill="#000000">&lt; 3</text>
<polygon fill="#ffffff" stroke="transparent" points="422,-37.7 422,-56.7 458,-56.7 458,-37.7 422,-37.7"/>
<polygon fill="none" stroke="#000000" points="422,-37.7 422,-56.7 458,-56.7 458,-37.7 422,-37.7"/>
<text text-anchor="start" x="448.8862" y="-43.8" font-family="Helvetica,sans-Serif" font-size="11.00" fill="#000000"> &#160;</text>
<polygon fill="#ffffff" stroke="transparent" points="458,-37.7 458,-56.7 495,-56.7 495,-37.7 458,-37.7"/>
<polygon fill="none" stroke="#000000" points="458,-37.7 458,-56.7 495,-56.7 495,-37.7 458,-37.7"/>
<text text-anchor="start" x="485.8862" y="-43.8" font-family="Helvetica,sans-Serif" font-size="11.00" fill="#000000"> &#160;</text>
</a>
</g>
</g>
<!-- staff_role_audit&#45;&gt;prison_migration_date_history -->
<g id="edge8" class="edge">
<title>staff_role_audit:w&#45;&gt;prison_migration_date_history:e</title>
<path fill="none" stroke="#000000" stroke-dasharray="5,2" d="M337.4565,-66.9483C315.4723,-71.167 306.1801,-85.9708 292,-109.7 258.7341,-165.3675 316.3498,-398.7 251.5,-398.7"/>
<polygon fill="#000000" stroke="#000000" points="344.0293,-66.3842 352.3079,-69.2868 348.0147,-66.0421 352,-65.7 352,-65.7 352,-65.7 348.0147,-66.0421 351.6921,-62.1132 344.0293,-66.3842 344.0293,-66.3842"/>
<ellipse fill="none" stroke="#000000" cx="340.841" cy="-66.6578" rx="3.2" ry="3.2"/>
</g>
</g>
</svg>
