<?xml version="1.0" encoding="UTF-8" standalone="no"?>
<!DOCTYPE svg PUBLIC "-//W3C//DTD SVG 1.1//EN"
 "http://www.w3.org/Graphics/SVG/1.1/DTD/svg11.dtd">
<!-- Generated by graphviz version 2.40.1 (20161225.0304)
 -->
<!-- Title: twoDegreesRelationshipsDiagram Pages: 1 -->
<svg width="478pt" height="591pt"
 viewBox="0.00 0.00 478.00 591.20" xmlns="http://www.w3.org/2000/svg" xmlns:xlink="http://www.w3.org/1999/xlink">
<g id="graph0" class="graph" transform="scale(1 1) rotate(0) translate(4 587.2)">
<title>twoDegreesRelationshipsDiagram</title>
<polygon fill="#ffffff" stroke="transparent" points="-4,4 -4,-587.2 474,-587.2 474,4 -4,4"/>
<text text-anchor="middle" x="72.4936" y="-7.3" font-family="Helvetica,sans-Serif" font-size="11.00" fill="#000000">Generated by SchemaSpy</text>
<!-- allocation -->
<g id="node1" class="node">
<title>allocation</title>
<g id="a_node1"><a xlink:href="../../tables/allocation.html" xlink:title="allocation" target="_top">
<polygon fill="#ffffff" stroke="transparent" points="278.5,-518.2 278.5,-579.2 383.5,-579.2 383.5,-518.2 278.5,-518.2"/>
<polygon fill="#f5f5f5" stroke="transparent" points="279,-555.7 279,-578.7 384,-578.7 384,-555.7 279,-555.7"/>
<polygon fill="none" stroke="#000000" points="279,-555.7 279,-578.7 384,-578.7 384,-555.7 279,-555.7"/>
<text text-anchor="start" x="284" y="-564.3" font-family="Helvetica,sans-Serif" font-weight="bold" font-size="11.00" fill="#000000">allocation</text>
<text text-anchor="start" x="349.5219" y="-563.8" font-family="Helvetica,sans-Serif" font-size="11.00" fill="#000000">[table]</text>
<polygon fill="none" stroke="#000000" points="279,-536.7 279,-555.7 384,-555.7 384,-536.7 279,-536.7"/>
<text text-anchor="start" x="282" y="-542.8" font-family="Helvetica,sans-Serif" font-size="11.00" fill="#000000">...</text>
<polygon fill="#ffffff" stroke="transparent" points="279,-517.7 279,-536.7 330,-536.7 330,-517.7 279,-517.7"/>
<polygon fill="none" stroke="#000000" points="279,-517.7 279,-536.7 330,-536.7 330,-517.7 279,-517.7"/>
<text text-anchor="start" x="282" y="-523.8" font-family="Helvetica,sans-Serif" font-size="11.00" fill="#000000">&lt; 3</text>
<polygon fill="#ffffff" stroke="transparent" points="330,-517.7 330,-536.7 357,-536.7 357,-517.7 330,-517.7"/>
<polygon fill="none" stroke="#000000" points="330,-517.7 330,-536.7 357,-536.7 357,-517.7 330,-517.7"/>
<text text-anchor="start" x="347.8862" y="-523.8" font-family="Helvetica,sans-Serif" font-size="11.00" fill="#000000"> &#160;</text>
<polygon fill="#ffffff" stroke="transparent" points="357,-517.7 357,-536.7 384,-536.7 384,-517.7 357,-517.7"/>
<polygon fill="none" stroke="#000000" points="357,-517.7 357,-536.7 384,-536.7 384,-517.7 357,-517.7"/>
<text text-anchor="start" x="374.8862" y="-523.8" font-family="Helvetica,sans-Serif" font-size="11.00" fill="#000000"> &#160;</text>
</a>
</g>
</g>
<!-- reference_data -->
<g id="node2" class="node">
<title>reference_data</title>
<g id="a_node2"><a xlink:href="../../tables/reference_data.html" xlink:title="reference_data" target="_top">
<polygon fill="#ffffff" stroke="transparent" points="8,-60.2 8,-209.2 151,-209.2 151,-60.2 8,-60.2"/>
<polygon fill="#f5f5f5" stroke="transparent" points="8.5,-185.7 8.5,-208.7 151.5,-208.7 151.5,-185.7 8.5,-185.7"/>
<polygon fill="none" stroke="#000000" points="8.5,-185.7 8.5,-208.7 151.5,-208.7 151.5,-185.7 8.5,-185.7"/>
<text text-anchor="start" x="13.5" y="-194.3" font-family="Helvetica,sans-Serif" font-weight="bold" font-size="11.00" fill="#000000">reference_data</text>
<text text-anchor="start" x="116.5437" y="-193.8" font-family="Helvetica,sans-Serif" font-size="11.00" fill="#000000">[table]</text>
<polygon fill="none" stroke="#000000" points="8.5,-163.7 8.5,-185.7 151.5,-185.7 151.5,-163.7 8.5,-163.7"/>
<image xlink:href="../../images/primaryKeys.png" width="11px" height="12px" preserveAspectRatio="xMinYMin meet" x="13.5" y="-180.7"/>
<text text-anchor="start" x="28.5" y="-170.8" font-family="Helvetica,sans-Serif" font-size="11.00" fill="#000000">id</text>
<polygon fill="#ffffff" stroke="transparent" points="8.5,-141.7 8.5,-163.7 151.5,-163.7 151.5,-141.7 8.5,-141.7"/>
<polygon fill="none" stroke="#000000" points="8.5,-141.7 8.5,-163.7 151.5,-163.7 151.5,-141.7 8.5,-141.7"/>
<text text-anchor="start" x="28.5" y="-148.8" font-family="Helvetica,sans-Serif" font-size="11.00" fill="#000000">domain</text>
<polygon fill="#ffffff" stroke="transparent" points="8.5,-119.7 8.5,-141.7 151.5,-141.7 151.5,-119.7 8.5,-119.7"/>
<polygon fill="none" stroke="#000000" points="8.5,-119.7 8.5,-141.7 151.5,-141.7 151.5,-119.7 8.5,-119.7"/>
<text text-anchor="start" x="28.5" y="-126.8" font-family="Helvetica,sans-Serif" font-size="11.00" fill="#000000">code</text>
<polygon fill="#ffffff" stroke="transparent" points="8.5,-97.7 8.5,-119.7 151.5,-119.7 151.5,-97.7 8.5,-97.7"/>
<polygon fill="none" stroke="#000000" points="8.5,-97.7 8.5,-119.7 151.5,-119.7 151.5,-97.7 8.5,-97.7"/>
<text text-anchor="start" x="28.5" y="-104.8" font-family="Helvetica,sans-Serif" font-size="11.00" fill="#000000">sequence_number</text>
<polygon fill="none" stroke="#000000" points="8.5,-78.7 8.5,-97.7 151.5,-97.7 151.5,-78.7 8.5,-78.7"/>
<text text-anchor="start" x="11.5" y="-84.8" font-family="Helvetica,sans-Serif" font-size="11.00" fill="#000000">...</text>
<polygon fill="#ffffff" stroke="transparent" points="8.5,-59.7 8.5,-78.7 69.5,-78.7 69.5,-59.7 8.5,-59.7"/>
<polygon fill="none" stroke="#000000" points="8.5,-59.7 8.5,-78.7 69.5,-78.7 69.5,-59.7 8.5,-59.7"/>
<text text-anchor="start" x="11.5" y="-65.8" font-family="Helvetica,sans-Serif" font-size="11.00" fill="#000000"> &#160;</text>
<polygon fill="#ffffff" stroke="transparent" points="69.5,-59.7 69.5,-78.7 105.5,-78.7 105.5,-59.7 69.5,-59.7"/>
<polygon fill="none" stroke="#000000" points="69.5,-59.7 69.5,-78.7 105.5,-78.7 105.5,-59.7 69.5,-59.7"/>
<text text-anchor="start" x="96.3862" y="-65.8" font-family="Helvetica,sans-Serif" font-size="11.00" fill="#000000"> &#160;</text>
<polygon fill="#ffffff" stroke="transparent" points="105.5,-59.7 105.5,-78.7 151.5,-78.7 151.5,-59.7 105.5,-59.7"/>
<polygon fill="none" stroke="#000000" points="105.5,-59.7 105.5,-78.7 151.5,-78.7 151.5,-59.7 105.5,-59.7"/>
<text text-anchor="start" x="132.9053" y="-65.8" font-family="Helvetica,sans-Serif" font-size="11.00" fill="#000000">5 &gt;</text>
</a>
</g>
</g>
<!-- allocation&#45;&gt;reference_data -->
<g id="edge1" class="edge">
<title>allocation:w&#45;&gt;reference_data:e</title>
<path fill="none" stroke="#000000" d="M264.6152,-543.5454C231.9752,-538.258 214.1471,-531.4453 192,-501.7 147.4814,-441.9079 226.0453,-168.7 151.5,-174.7"/>
<polygon fill="#000000" stroke="#000000" points="271.0883,-544.5149 278.4667,-549.2603 275.0441,-545.1075 279,-545.7 279,-545.7 279,-545.7 275.0441,-545.1075 279.5333,-542.1397 271.0883,-544.5149 271.0883,-544.5149"/>
<ellipse fill="none" stroke="#000000" cx="267.9236" cy="-544.0409" rx="3.2" ry="3.2"/>
</g>
<!-- allocation&#45;&gt;reference_data -->
<g id="edge2" class="edge">
<title>allocation:w&#45;&gt;reference_data:e</title>
<path fill="none" stroke="#000000" d="M264.6152,-547.7193C231.9752,-551.258 214.1471,-544.4453 192,-514.7 147.4814,-454.9079 226.0453,-181.7 151.5,-174.7"/>
<polygon fill="#000000" stroke="#000000" points="271.0777,-546.8122 279.5005,-549.265 275.0388,-546.2561 279,-545.7 279,-545.7 279,-545.7 275.0388,-546.2561 278.4995,-542.135 271.0777,-546.8122 271.0777,-546.8122"/>
<ellipse fill="none" stroke="#000000" cx="267.9087" cy="-547.257" rx="3.2" ry="3.2"/>
</g>
<!-- offender_key_worker -->
<g id="node3" class="node">
<title>offender_key_worker</title>
<g id="a_node3"><a xlink:href="../../tables/offender_key_worker.html" xlink:title="offender_key_worker" target="_top">
<polygon fill="#ffffff" stroke="transparent" points="200,-120.7 200,-496.7 462,-496.7 462,-120.7 200,-120.7"/>
<polygon fill="#f5f5f5" stroke="transparent" points="202,-471.7 202,-494.7 460,-494.7 460,-471.7 202,-471.7"/>
<polygon fill="none" stroke="#000000" points="202,-471.7 202,-494.7 460,-494.7 460,-471.7 202,-471.7"/>
<text text-anchor="start" x="207" y="-480.3" font-family="Helvetica,sans-Serif" font-weight="bold" font-size="11.00" fill="#000000">offender_key_worker</text>
<text text-anchor="start" x="425.0437" y="-479.8" font-family="Helvetica,sans-Serif" font-size="11.00" fill="#000000">[table]</text>
<polygon fill="none" stroke="#000000" points="202,-449.7 202,-471.7 376,-471.7 376,-449.7 202,-449.7"/>
<image xlink:href="../../images/primaryKeys.png" width="11px" height="12px" preserveAspectRatio="xMinYMin meet" x="207" y="-466.7"/>
<text text-anchor="start" x="222" y="-456.8" font-family="Helvetica,sans-Serif" font-size="11.00" fill="#000000">offender_keyworker_id</text>
<polygon fill="none" stroke="#000000" points="376,-449.7 376,-471.7 460,-471.7 460,-449.7 376,-449.7"/>
<text text-anchor="start" x="379" y="-457.4" font-family="Helvetica,sans-Serif" font-size="11.00" fill="#000000">bigserial[19]</text>
<polygon fill="#ffffff" stroke="transparent" points="202,-427.7 202,-449.7 376,-449.7 376,-427.7 202,-427.7"/>
<polygon fill="none" stroke="#000000" points="202,-427.7 202,-449.7 376,-449.7 376,-427.7 202,-427.7"/>
<text text-anchor="start" x="222" y="-434.8" font-family="Helvetica,sans-Serif" font-size="11.00" fill="#000000">offender_no</text>
<polygon fill="none" stroke="#000000" points="376,-427.7 376,-449.7 460,-449.7 460,-427.7 376,-427.7"/>
<text text-anchor="start" x="379" y="-435.4" font-family="Helvetica,sans-Serif" font-size="11.00" fill="#000000">varchar[10]</text>
<polygon fill="#ffffff" stroke="transparent" points="202,-405.7 202,-427.7 376,-427.7 376,-405.7 202,-405.7"/>
<polygon fill="none" stroke="#000000" points="202,-405.7 202,-427.7 376,-427.7 376,-405.7 202,-405.7"/>
<text text-anchor="start" x="222" y="-412.8" font-family="Helvetica,sans-Serif" font-size="11.00" fill="#000000">staff_id</text>
<polygon fill="none" stroke="#000000" points="376,-405.7 376,-427.7 460,-427.7 460,-405.7 376,-405.7"/>
<text text-anchor="start" x="379" y="-413.4" font-family="Helvetica,sans-Serif" font-size="11.00" fill="#000000">int8[19]</text>
<polygon fill="#ffffff" stroke="transparent" points="202,-383.7 202,-405.7 376,-405.7 376,-383.7 202,-383.7"/>
<polygon fill="none" stroke="#000000" points="202,-383.7 202,-405.7 376,-405.7 376,-383.7 202,-383.7"/>
<text text-anchor="start" x="222" y="-390.8" font-family="Helvetica,sans-Serif" font-size="11.00" fill="#000000">assigned_date_time</text>
<polygon fill="none" stroke="#000000" points="376,-383.7 376,-405.7 460,-405.7 460,-383.7 376,-383.7"/>
<text text-anchor="start" x="378.8807" y="-391.4" font-family="Helvetica,sans-Serif" font-size="11.00" fill="#000000">timestamp[29,6]</text>
<polygon fill="none" stroke="#000000" points="202,-361.7 202,-383.7 376,-383.7 376,-361.7 202,-361.7"/>
<text text-anchor="start" x="222" y="-368.8" font-family="Helvetica,sans-Serif" font-size="11.00" fill="#000000">active_flag</text>
<polygon fill="none" stroke="#000000" points="376,-361.7 376,-383.7 460,-383.7 460,-361.7 376,-361.7"/>
<text text-anchor="start" x="379" y="-369.4" font-family="Helvetica,sans-Serif" font-size="11.00" fill="#000000">bpchar[1]</text>
<polygon fill="none" stroke="#000000" points="202,-339.7 202,-361.7 376,-361.7 376,-339.7 202,-339.7"/>
<text text-anchor="start" x="222" y="-346.8" font-family="Helvetica,sans-Serif" font-size="11.00" fill="#000000">alloc_type</text>
<polygon fill="none" stroke="#000000" points="376,-339.7 376,-361.7 460,-361.7 460,-339.7 376,-339.7"/>
<text text-anchor="start" x="379" y="-347.4" font-family="Helvetica,sans-Serif" font-size="11.00" fill="#000000">bpchar[1]</text>
<polygon fill="none" stroke="#000000" points="202,-317.7 202,-339.7 376,-339.7 376,-317.7 202,-317.7"/>
<text text-anchor="start" x="222" y="-324.8" font-family="Helvetica,sans-Serif" font-size="11.00" fill="#000000">user_id</text>
<polygon fill="none" stroke="#000000" points="376,-317.7 376,-339.7 460,-339.7 460,-317.7 376,-317.7"/>
<text text-anchor="start" x="379" y="-325.4" font-family="Helvetica,sans-Serif" font-size="11.00" fill="#000000">varchar[32]</text>
<polygon fill="#ffffff" stroke="transparent" points="202,-295.7 202,-317.7 376,-317.7 376,-295.7 202,-295.7"/>
<polygon fill="none" stroke="#000000" points="202,-295.7 202,-317.7 376,-317.7 376,-295.7 202,-295.7"/>
<text text-anchor="start" x="222" y="-302.8" font-family="Helvetica,sans-Serif" font-size="11.00" fill="#000000">prison_id</text>
<polygon fill="none" stroke="#000000" points="376,-295.7 376,-317.7 460,-317.7 460,-295.7 376,-295.7"/>
<text text-anchor="start" x="379" y="-303.4" font-family="Helvetica,sans-Serif" font-size="11.00" fill="#000000">varchar[6]</text>
<polygon fill="none" stroke="#000000" points="202,-273.7 202,-295.7 376,-295.7 376,-273.7 202,-273.7"/>
<text text-anchor="start" x="222" y="-280.8" font-family="Helvetica,sans-Serif" font-size="11.00" fill="#000000">expiry_date_time</text>
<polygon fill="none" stroke="#000000" points="376,-273.7 376,-295.7 460,-295.7 460,-273.7 376,-273.7"/>
<text text-anchor="start" x="378.8807" y="-281.4" font-family="Helvetica,sans-Serif" font-size="11.00" fill="#000000">timestamp[29,6]</text>
<polygon fill="none" stroke="#000000" points="202,-251.7 202,-273.7 376,-273.7 376,-251.7 202,-251.7"/>
<text text-anchor="start" x="222" y="-258.8" font-family="Helvetica,sans-Serif" font-size="11.00" fill="#000000">create_datetime</text>
<polygon fill="none" stroke="#000000" points="376,-251.7 376,-273.7 460,-273.7 460,-251.7 376,-251.7"/>
<text text-anchor="start" x="378.8807" y="-259.4" font-family="Helvetica,sans-Serif" font-size="11.00" fill="#000000">timestamp[29,6]</text>
<polygon fill="none" stroke="#000000" points="202,-229.7 202,-251.7 376,-251.7 376,-229.7 202,-229.7"/>
<text text-anchor="start" x="222" y="-236.8" font-family="Helvetica,sans-Serif" font-size="11.00" fill="#000000">create_user_id</text>
<polygon fill="none" stroke="#000000" points="376,-229.7 376,-251.7 460,-251.7 460,-229.7 376,-229.7"/>
<text text-anchor="start" x="379" y="-237.4" font-family="Helvetica,sans-Serif" font-size="11.00" fill="#000000">varchar[32]</text>
<polygon fill="none" stroke="#000000" points="202,-207.7 202,-229.7 376,-229.7 376,-207.7 202,-207.7"/>
<text text-anchor="start" x="222" y="-214.8" font-family="Helvetica,sans-Serif" font-size="11.00" fill="#000000">modify_datetime</text>
<polygon fill="none" stroke="#000000" points="376,-207.7 376,-229.7 460,-229.7 460,-207.7 376,-207.7"/>
<text text-anchor="start" x="378.8807" y="-215.4" font-family="Helvetica,sans-Serif" font-size="11.00" fill="#000000">timestamp[29,6]</text>
<polygon fill="none" stroke="#000000" points="202,-185.7 202,-207.7 376,-207.7 376,-185.7 202,-185.7"/>
<text text-anchor="start" x="222" y="-192.8" font-family="Helvetica,sans-Serif" font-size="11.00" fill="#000000">modify_user_id</text>
<polygon fill="none" stroke="#000000" points="376,-185.7 376,-207.7 460,-207.7 460,-185.7 376,-185.7"/>
<text text-anchor="start" x="379" y="-193.4" font-family="Helvetica,sans-Serif" font-size="11.00" fill="#000000">varchar[32]</text>
<polygon fill="none" stroke="#000000" points="202,-163.7 202,-185.7 376,-185.7 376,-163.7 202,-163.7"/>
<image xlink:href="../../images/foreignKeys.png" width="11px" height="12px" preserveAspectRatio="xMinYMin meet" x="207" y="-180.7"/>
<text text-anchor="start" x="222" y="-170.8" font-family="Helvetica,sans-Serif" font-size="11.00" fill="#000000">allocation_reason_id</text>
<polygon fill="none" stroke="#000000" points="376,-163.7 376,-185.7 460,-185.7 460,-163.7 376,-163.7"/>
<text text-anchor="start" x="379" y="-171.4" font-family="Helvetica,sans-Serif" font-size="11.00" fill="#000000">int8[19]</text>
<polygon fill="none" stroke="#000000" points="202,-141.7 202,-163.7 376,-163.7 376,-141.7 202,-141.7"/>
<image xlink:href="../../images/foreignKeys.png" width="11px" height="12px" preserveAspectRatio="xMinYMin meet" x="207" y="-158.7"/>
<text text-anchor="start" x="222" y="-148.8" font-family="Helvetica,sans-Serif" font-size="11.00" fill="#000000">deallocation_reason_id</text>
<polygon fill="none" stroke="#000000" points="376,-141.7 376,-163.7 460,-163.7 460,-141.7 376,-141.7"/>
<text text-anchor="start" x="379" y="-149.4" font-family="Helvetica,sans-Serif" font-size="11.00" fill="#000000">int8[19]</text>
<polygon fill="#ffffff" stroke="transparent" points="202,-122.7 202,-141.7 293,-141.7 293,-122.7 202,-122.7"/>
<polygon fill="none" stroke="#000000" points="202,-122.7 202,-141.7 293,-141.7 293,-122.7 202,-122.7"/>
<text text-anchor="start" x="205" y="-128.8" font-family="Helvetica,sans-Serif" font-size="11.00" fill="#000000">&lt; 2</text>
<polygon fill="#ffffff" stroke="transparent" points="293,-122.7 293,-141.7 376,-141.7 376,-122.7 293,-122.7"/>
<polygon fill="none" stroke="#000000" points="293,-122.7 293,-141.7 376,-141.7 376,-122.7 293,-122.7"/>
<text text-anchor="start" x="366.8862" y="-128.8" font-family="Helvetica,sans-Serif" font-size="11.00" fill="#000000"> &#160;</text>
<polygon fill="#ffffff" stroke="transparent" points="376,-122.7 376,-141.7 460,-141.7 460,-122.7 376,-122.7"/>
<polygon fill="none" stroke="#000000" points="376,-122.7 376,-141.7 460,-141.7 460,-122.7 376,-122.7"/>
<text text-anchor="start" x="441.4053" y="-128.8" font-family="Helvetica,sans-Serif" font-size="11.00" fill="#000000">0 &gt;</text>
<polygon fill="none" stroke="#000000" stroke-width="2" points="201,-121.7 201,-495.7 461,-495.7 461,-121.7 201,-121.7"/>
</a>
</g>
</g>
<!-- offender_key_worker&#45;&gt;reference_data -->
<g id="edge3" class="edge">
<title>offender_key_worker:w&#45;&gt;reference_data:e</title>
<path fill="none" stroke="#000000" d="M187.4203,-174.7C175.5435,-174.7 168.158,-174.7 151.5,-174.7"/>
<polygon fill="#000000" stroke="#000000" points="194,-174.7001 202,-178.3 198,-174.7 202,-174.7 202,-174.7 202,-174.7 198,-174.7 202,-171.1 194,-174.7001 194,-174.7001"/>
<ellipse fill="none" stroke="#000000" cx="190.8" cy="-174.7001" rx="3.2" ry="3.2"/>
</g>
<!-- offender_key_worker&#45;&gt;reference_data -->
<g id="edge4" class="edge">
<title>offender_key_worker:w&#45;&gt;reference_data:e</title>
<path fill="none" stroke="#000000" d="M187.5981,-155.9462C175.4282,-162.0658 170.0526,-174.7 151.5,-174.7"/>
<polygon fill="#000000" stroke="#000000" points="194.1958,-154.4591 202.7916,-156.2119 198.0979,-153.5796 202,-152.7 202,-152.7 202,-152.7 198.0979,-153.5796 201.2084,-149.1881 194.1958,-154.4591 194.1958,-154.4591"/>
<ellipse fill="none" stroke="#000000" cx="191.0741" cy="-155.1627" rx="3.2" ry="3.2"/>
</g>
<!-- staff_configuration -->
<g id="node4" class="node">
<title>staff_configuration</title>
<g id="a_node4"><a xlink:href="../../tables/staff_configuration.html" xlink:title="staff_configuration" target="_top">
<polygon fill="#ffffff" stroke="transparent" points="247.5,-38.2 247.5,-99.2 414.5,-99.2 414.5,-38.2 247.5,-38.2"/>
<polygon fill="#f5f5f5" stroke="transparent" points="248,-75.7 248,-98.7 415,-98.7 415,-75.7 248,-75.7"/>
<polygon fill="none" stroke="#000000" points="248,-75.7 248,-98.7 415,-98.7 415,-75.7 248,-75.7"/>
<text text-anchor="start" x="253" y="-84.3" font-family="Helvetica,sans-Serif" font-weight="bold" font-size="11.00" fill="#000000">staff_configuration</text>
<text text-anchor="start" x="380.5219" y="-83.8" font-family="Helvetica,sans-Serif" font-size="11.00" fill="#000000">[table]</text>
<polygon fill="none" stroke="#000000" points="248,-56.7 248,-75.7 415,-75.7 415,-56.7 248,-56.7"/>
<text text-anchor="start" x="251" y="-62.8" font-family="Helvetica,sans-Serif" font-size="11.00" fill="#000000">...</text>
<polygon fill="#ffffff" stroke="transparent" points="248,-37.7 248,-56.7 330,-56.7 330,-37.7 248,-37.7"/>
<polygon fill="none" stroke="#000000" points="248,-37.7 248,-56.7 330,-56.7 330,-37.7 248,-37.7"/>
<text text-anchor="start" x="251" y="-43.8" font-family="Helvetica,sans-Serif" font-size="11.00" fill="#000000">&lt; 2</text>
<polygon fill="#ffffff" stroke="transparent" points="330,-37.7 330,-56.7 372,-56.7 372,-37.7 330,-37.7"/>
<polygon fill="none" stroke="#000000" points="330,-37.7 330,-56.7 372,-56.7 372,-37.7 330,-37.7"/>
<text text-anchor="start" x="362.8862" y="-43.8" font-family="Helvetica,sans-Serif" font-size="11.00" fill="#000000"> &#160;</text>
<polygon fill="#ffffff" stroke="transparent" points="372,-37.7 372,-56.7 415,-56.7 415,-37.7 372,-37.7"/>
<polygon fill="none" stroke="#000000" points="372,-37.7 372,-56.7 415,-56.7 415,-37.7 372,-37.7"/>
<text text-anchor="start" x="405.8862" y="-43.8" font-family="Helvetica,sans-Serif" font-size="11.00" fill="#000000"> &#160;</text>
</a>
</g>
</g>
<!-- staff_configuration&#45;&gt;reference_data -->
<g id="edge5" class="edge">
<title>staff_configuration:w&#45;&gt;reference_data:e</title>
<path fill="none" stroke="#000000" d="M233.604,-67.5632C214.5155,-73.2297 209.5308,-91.0728 192,-110.7 169.5764,-135.8051 185.1613,-174.7 151.5,-174.7"/>
<polygon fill="#000000" stroke="#000000" points="240.0662,-66.7269 248.4621,-69.2702 244.0331,-66.2134 248,-65.7 248,-65.7 248,-65.7 244.0331,-66.2134 247.5379,-62.1298 240.0662,-66.7269 240.0662,-66.7269"/>
<ellipse fill="none" stroke="#000000" cx="236.8926" cy="-67.1376" rx="3.2" ry="3.2"/>
</g>
</g>
</svg>
