<?xml version="1.0" encoding="UTF-8" standalone="no"?>
<!DOCTYPE svg PUBLIC "-//W3C//DTD SVG 1.1//EN"
 "http://www.w3.org/Graphics/SVG/1.1/DTD/svg11.dtd">
<!-- Generated by graphviz version 2.40.1 (20161225.0304)
 -->
<!-- Title: twoDegreesRelationshipsDiagram Pages: 1 -->
<svg width="478pt" height="569pt"
 viewBox="0.00 0.00 478.00 569.20" xmlns="http://www.w3.org/2000/svg" xmlns:xlink="http://www.w3.org/1999/xlink">
<g id="graph0" class="graph" transform="scale(1 1) rotate(0) translate(4 565.2)">
<title>twoDegreesRelationshipsDiagram</title>
<polygon fill="#ffffff" stroke="transparent" points="-4,4 -4,-565.2 474,-565.2 474,4 -4,4"/>
<text text-anchor="middle" x="72.4936" y="-7.3" font-family="Helvetica,sans-Serif" font-size="11.00" fill="#000000">Generated by SchemaSpy</text>
<!-- keyworker_configuration -->
<g id="node1" class="node">
<title>keyworker_configuration</title>
<g id="a_node1"><a xlink:href="../../tables/keyworker_configuration.html" xlink:title="keyworker_configuration" target="_top">
<polygon fill="#ffffff" stroke="transparent" points="227.5,-496.2 227.5,-557.2 434.5,-557.2 434.5,-496.2 227.5,-496.2"/>
<polygon fill="#f5f5f5" stroke="transparent" points="228,-533.7 228,-556.7 435,-556.7 435,-533.7 228,-533.7"/>
<polygon fill="none" stroke="#000000" points="228,-533.7 228,-556.7 435,-556.7 435,-533.7 228,-533.7"/>
<text text-anchor="start" x="233" y="-542.3" font-family="Helvetica,sans-Serif" font-weight="bold" font-size="11.00" fill="#000000">keyworker_configuration</text>
<text text-anchor="start" x="400.5219" y="-541.8" font-family="Helvetica,sans-Serif" font-size="11.00" fill="#000000">[table]</text>
<polygon fill="none" stroke="#000000" points="228,-514.7 228,-533.7 435,-533.7 435,-514.7 228,-514.7"/>
<text text-anchor="start" x="231" y="-520.8" font-family="Helvetica,sans-Serif" font-size="11.00" fill="#000000">...</text>
<polygon fill="#ffffff" stroke="transparent" points="228,-495.7 228,-514.7 330,-514.7 330,-495.7 228,-495.7"/>
<polygon fill="none" stroke="#000000" points="228,-495.7 228,-514.7 330,-514.7 330,-495.7 228,-495.7"/>
<text text-anchor="start" x="231" y="-501.8" font-family="Helvetica,sans-Serif" font-size="11.00" fill="#000000">&lt; 1</text>
<polygon fill="#ffffff" stroke="transparent" points="330,-495.7 330,-514.7 382,-514.7 382,-495.7 330,-495.7"/>
<polygon fill="none" stroke="#000000" points="330,-495.7 330,-514.7 382,-514.7 382,-495.7 330,-495.7"/>
<text text-anchor="start" x="372.8862" y="-501.8" font-family="Helvetica,sans-Serif" font-size="11.00" fill="#000000"> &#160;</text>
<polygon fill="#ffffff" stroke="transparent" points="382,-495.7 382,-514.7 435,-514.7 435,-495.7 382,-495.7"/>
<polygon fill="none" stroke="#000000" points="382,-495.7 382,-514.7 435,-514.7 435,-495.7 382,-495.7"/>
<text text-anchor="start" x="425.8862" y="-501.8" font-family="Helvetica,sans-Serif" font-size="11.00" fill="#000000"> &#160;</text>
</a>
</g>
</g>
<!-- reference_data -->
<g id="node2" class="node">
<title>reference_data</title>
<g id="a_node2"><a xlink:href="../../tables/reference_data.html" xlink:title="reference_data" target="_top">
<polygon fill="#ffffff" stroke="transparent" points="8,-38.2 8,-187.2 151,-187.2 151,-38.2 8,-38.2"/>
<polygon fill="#f5f5f5" stroke="transparent" points="8.5,-163.7 8.5,-186.7 151.5,-186.7 151.5,-163.7 8.5,-163.7"/>
<polygon fill="none" stroke="#000000" points="8.5,-163.7 8.5,-186.7 151.5,-186.7 151.5,-163.7 8.5,-163.7"/>
<text text-anchor="start" x="13.5" y="-172.3" font-family="Helvetica,sans-Serif" font-weight="bold" font-size="11.00" fill="#000000">reference_data</text>
<text text-anchor="start" x="116.5437" y="-171.8" font-family="Helvetica,sans-Serif" font-size="11.00" fill="#000000">[table]</text>
<polygon fill="none" stroke="#000000" points="8.5,-141.7 8.5,-163.7 151.5,-163.7 151.5,-141.7 8.5,-141.7"/>
<image xlink:href="../../images/primaryKeys.png" width="11px" height="12px" preserveAspectRatio="xMinYMin meet" x="13.5" y="-158.7"/>
<text text-anchor="start" x="28.5" y="-148.8" font-family="Helvetica,sans-Serif" font-size="11.00" fill="#000000">id</text>
<polygon fill="#ffffff" stroke="transparent" points="8.5,-119.7 8.5,-141.7 151.5,-141.7 151.5,-119.7 8.5,-119.7"/>
<polygon fill="none" stroke="#000000" points="8.5,-119.7 8.5,-141.7 151.5,-141.7 151.5,-119.7 8.5,-119.7"/>
<text text-anchor="start" x="28.5" y="-126.8" font-family="Helvetica,sans-Serif" font-size="11.00" fill="#000000">domain</text>
<polygon fill="#ffffff" stroke="transparent" points="8.5,-97.7 8.5,-119.7 151.5,-119.7 151.5,-97.7 8.5,-97.7"/>
<polygon fill="none" stroke="#000000" points="8.5,-97.7 8.5,-119.7 151.5,-119.7 151.5,-97.7 8.5,-97.7"/>
<text text-anchor="start" x="28.5" y="-104.8" font-family="Helvetica,sans-Serif" font-size="11.00" fill="#000000">code</text>
<polygon fill="#ffffff" stroke="transparent" points="8.5,-75.7 8.5,-97.7 151.5,-97.7 151.5,-75.7 8.5,-75.7"/>
<polygon fill="none" stroke="#000000" points="8.5,-75.7 8.5,-97.7 151.5,-97.7 151.5,-75.7 8.5,-75.7"/>
<text text-anchor="start" x="28.5" y="-82.8" font-family="Helvetica,sans-Serif" font-size="11.00" fill="#000000">sequence_number</text>
<polygon fill="none" stroke="#000000" points="8.5,-56.7 8.5,-75.7 151.5,-75.7 151.5,-56.7 8.5,-56.7"/>
<text text-anchor="start" x="11.5" y="-62.8" font-family="Helvetica,sans-Serif" font-size="11.00" fill="#000000">...</text>
<polygon fill="#ffffff" stroke="transparent" points="8.5,-37.7 8.5,-56.7 69.5,-56.7 69.5,-37.7 8.5,-37.7"/>
<polygon fill="none" stroke="#000000" points="8.5,-37.7 8.5,-56.7 69.5,-56.7 69.5,-37.7 8.5,-37.7"/>
<text text-anchor="start" x="11.5" y="-43.8" font-family="Helvetica,sans-Serif" font-size="11.00" fill="#000000"> &#160;</text>
<polygon fill="#ffffff" stroke="transparent" points="69.5,-37.7 69.5,-56.7 105.5,-56.7 105.5,-37.7 69.5,-37.7"/>
<polygon fill="none" stroke="#000000" points="69.5,-37.7 69.5,-56.7 105.5,-56.7 105.5,-37.7 69.5,-37.7"/>
<text text-anchor="start" x="96.3862" y="-43.8" font-family="Helvetica,sans-Serif" font-size="11.00" fill="#000000"> &#160;</text>
<polygon fill="#ffffff" stroke="transparent" points="105.5,-37.7 105.5,-56.7 151.5,-56.7 151.5,-37.7 105.5,-37.7"/>
<polygon fill="none" stroke="#000000" points="105.5,-37.7 105.5,-56.7 151.5,-56.7 151.5,-37.7 105.5,-37.7"/>
<text text-anchor="start" x="132.9053" y="-43.8" font-family="Helvetica,sans-Serif" font-size="11.00" fill="#000000">3 &gt;</text>
</a>
</g>
</g>
<!-- keyworker_configuration&#45;&gt;reference_data -->
<g id="edge1" class="edge">
<title>keyworker_configuration:w&#45;&gt;reference_data:e</title>
<path fill="none" stroke="#000000" d="M213.6093,-520.5406C202.8051,-514.6882 199.3499,-501.3242 192,-485.7 160.2683,-418.2456 226.0453,-152.7 151.5,-152.7"/>
<polygon fill="#000000" stroke="#000000" points="220.1861,-521.9844 227.228,-527.2163 224.0931,-522.8422 228,-523.7 228,-523.7 228,-523.7 224.0931,-522.8422 228.772,-520.1837 220.1861,-521.9844 220.1861,-521.9844"/>
<ellipse fill="none" stroke="#000000" cx="217.0605" cy="-521.2982" rx="3.2" ry="3.2"/>
</g>
<!-- offender_key_worker -->
<g id="node3" class="node">
<title>offender_key_worker</title>
<g id="a_node3"><a xlink:href="../../tables/offender_key_worker.html" xlink:title="offender_key_worker" target="_top">
<polygon fill="#ffffff" stroke="transparent" points="200,-98.7 200,-474.7 462,-474.7 462,-98.7 200,-98.7"/>
<polygon fill="#f5f5f5" stroke="transparent" points="202,-449.7 202,-472.7 460,-472.7 460,-449.7 202,-449.7"/>
<polygon fill="none" stroke="#000000" points="202,-449.7 202,-472.7 460,-472.7 460,-449.7 202,-449.7"/>
<text text-anchor="start" x="207" y="-458.3" font-family="Helvetica,sans-Serif" font-weight="bold" font-size="11.00" fill="#000000">offender_key_worker</text>
<text text-anchor="start" x="425.0437" y="-457.8" font-family="Helvetica,sans-Serif" font-size="11.00" fill="#000000">[table]</text>
<polygon fill="none" stroke="#000000" points="202,-427.7 202,-449.7 376,-449.7 376,-427.7 202,-427.7"/>
<image xlink:href="../../images/primaryKeys.png" width="11px" height="12px" preserveAspectRatio="xMinYMin meet" x="207" y="-444.7"/>
<text text-anchor="start" x="222" y="-434.8" font-family="Helvetica,sans-Serif" font-size="11.00" fill="#000000">offender_keyworker_id</text>
<polygon fill="none" stroke="#000000" points="376,-427.7 376,-449.7 460,-449.7 460,-427.7 376,-427.7"/>
<text text-anchor="start" x="379" y="-435.4" font-family="Helvetica,sans-Serif" font-size="11.00" fill="#000000">bigserial[19]</text>
<polygon fill="#ffffff" stroke="transparent" points="202,-405.7 202,-427.7 376,-427.7 376,-405.7 202,-405.7"/>
<polygon fill="none" stroke="#000000" points="202,-405.7 202,-427.7 376,-427.7 376,-405.7 202,-405.7"/>
<text text-anchor="start" x="222" y="-412.8" font-family="Helvetica,sans-Serif" font-size="11.00" fill="#000000">offender_no</text>
<polygon fill="none" stroke="#000000" points="376,-405.7 376,-427.7 460,-427.7 460,-405.7 376,-405.7"/>
<text text-anchor="start" x="379" y="-413.4" font-family="Helvetica,sans-Serif" font-size="11.00" fill="#000000">varchar[10]</text>
<polygon fill="#ffffff" stroke="transparent" points="202,-383.7 202,-405.7 376,-405.7 376,-383.7 202,-383.7"/>
<polygon fill="none" stroke="#000000" points="202,-383.7 202,-405.7 376,-405.7 376,-383.7 202,-383.7"/>
<text text-anchor="start" x="222" y="-390.8" font-family="Helvetica,sans-Serif" font-size="11.00" fill="#000000">staff_id</text>
<polygon fill="none" stroke="#000000" points="376,-383.7 376,-405.7 460,-405.7 460,-383.7 376,-383.7"/>
<text text-anchor="start" x="379" y="-391.4" font-family="Helvetica,sans-Serif" font-size="11.00" fill="#000000">int8[19]</text>
<polygon fill="#ffffff" stroke="transparent" points="202,-361.7 202,-383.7 376,-383.7 376,-361.7 202,-361.7"/>
<polygon fill="none" stroke="#000000" points="202,-361.7 202,-383.7 376,-383.7 376,-361.7 202,-361.7"/>
<text text-anchor="start" x="222" y="-368.8" font-family="Helvetica,sans-Serif" font-size="11.00" fill="#000000">assigned_date_time</text>
<polygon fill="none" stroke="#000000" points="376,-361.7 376,-383.7 460,-383.7 460,-361.7 376,-361.7"/>
<text text-anchor="start" x="378.8807" y="-369.4" font-family="Helvetica,sans-Serif" font-size="11.00" fill="#000000">timestamp[29,6]</text>
<polygon fill="none" stroke="#000000" points="202,-339.7 202,-361.7 376,-361.7 376,-339.7 202,-339.7"/>
<text text-anchor="start" x="222" y="-346.8" font-family="Helvetica,sans-Serif" font-size="11.00" fill="#000000">active_flag</text>
<polygon fill="none" stroke="#000000" points="376,-339.7 376,-361.7 460,-361.7 460,-339.7 376,-339.7"/>
<text text-anchor="start" x="379" y="-347.4" font-family="Helvetica,sans-Serif" font-size="11.00" fill="#000000">bpchar[1]</text>
<polygon fill="none" stroke="#000000" points="202,-317.7 202,-339.7 376,-339.7 376,-317.7 202,-317.7"/>
<text text-anchor="start" x="222" y="-324.8" font-family="Helvetica,sans-Serif" font-size="11.00" fill="#000000">alloc_type</text>
<polygon fill="none" stroke="#000000" points="376,-317.7 376,-339.7 460,-339.7 460,-317.7 376,-317.7"/>
<text text-anchor="start" x="379" y="-325.4" font-family="Helvetica,sans-Serif" font-size="11.00" fill="#000000">bpchar[1]</text>
<polygon fill="none" stroke="#000000" points="202,-295.7 202,-317.7 376,-317.7 376,-295.7 202,-295.7"/>
<text text-anchor="start" x="222" y="-302.8" font-family="Helvetica,sans-Serif" font-size="11.00" fill="#000000">user_id</text>
<polygon fill="none" stroke="#000000" points="376,-295.7 376,-317.7 460,-317.7 460,-295.7 376,-295.7"/>
<text text-anchor="start" x="379" y="-303.4" font-family="Helvetica,sans-Serif" font-size="11.00" fill="#000000">varchar[32]</text>
<polygon fill="#ffffff" stroke="transparent" points="202,-273.7 202,-295.7 376,-295.7 376,-273.7 202,-273.7"/>
<polygon fill="none" stroke="#000000" points="202,-273.7 202,-295.7 376,-295.7 376,-273.7 202,-273.7"/>
<text text-anchor="start" x="222" y="-280.8" font-family="Helvetica,sans-Serif" font-size="11.00" fill="#000000">prison_id</text>
<polygon fill="none" stroke="#000000" points="376,-273.7 376,-295.7 460,-295.7 460,-273.7 376,-273.7"/>
<text text-anchor="start" x="379" y="-281.4" font-family="Helvetica,sans-Serif" font-size="11.00" fill="#000000">varchar[6]</text>
<polygon fill="none" stroke="#000000" points="202,-251.7 202,-273.7 376,-273.7 376,-251.7 202,-251.7"/>
<text text-anchor="start" x="222" y="-258.8" font-family="Helvetica,sans-Serif" font-size="11.00" fill="#000000">expiry_date_time</text>
<polygon fill="none" stroke="#000000" points="376,-251.7 376,-273.7 460,-273.7 460,-251.7 376,-251.7"/>
<text text-anchor="start" x="378.8807" y="-259.4" font-family="Helvetica,sans-Serif" font-size="11.00" fill="#000000">timestamp[29,6]</text>
<polygon fill="none" stroke="#000000" points="202,-229.7 202,-251.7 376,-251.7 376,-229.7 202,-229.7"/>
<text text-anchor="start" x="222" y="-236.8" font-family="Helvetica,sans-Serif" font-size="11.00" fill="#000000">create_datetime</text>
<polygon fill="none" stroke="#000000" points="376,-229.7 376,-251.7 460,-251.7 460,-229.7 376,-229.7"/>
<text text-anchor="start" x="378.8807" y="-237.4" font-family="Helvetica,sans-Serif" font-size="11.00" fill="#000000">timestamp[29,6]</text>
<polygon fill="none" stroke="#000000" points="202,-207.7 202,-229.7 376,-229.7 376,-207.7 202,-207.7"/>
<text text-anchor="start" x="222" y="-214.8" font-family="Helvetica,sans-Serif" font-size="11.00" fill="#000000">create_user_id</text>
<polygon fill="none" stroke="#000000" points="376,-207.7 376,-229.7 460,-229.7 460,-207.7 376,-207.7"/>
<text text-anchor="start" x="379" y="-215.4" font-family="Helvetica,sans-Serif" font-size="11.00" fill="#000000">varchar[32]</text>
<polygon fill="none" stroke="#000000" points="202,-185.7 202,-207.7 376,-207.7 376,-185.7 202,-185.7"/>
<text text-anchor="start" x="222" y="-192.8" font-family="Helvetica,sans-Serif" font-size="11.00" fill="#000000">modify_datetime</text>
<polygon fill="none" stroke="#000000" points="376,-185.7 376,-207.7 460,-207.7 460,-185.7 376,-185.7"/>
<text text-anchor="start" x="378.8807" y="-193.4" font-family="Helvetica,sans-Serif" font-size="11.00" fill="#000000">timestamp[29,6]</text>
<polygon fill="none" stroke="#000000" points="202,-163.7 202,-185.7 376,-185.7 376,-163.7 202,-163.7"/>
<text text-anchor="start" x="222" y="-170.8" font-family="Helvetica,sans-Serif" font-size="11.00" fill="#000000">modify_user_id</text>
<polygon fill="none" stroke="#000000" points="376,-163.7 376,-185.7 460,-185.7 460,-163.7 376,-163.7"/>
<text text-anchor="start" x="379" y="-171.4" font-family="Helvetica,sans-Serif" font-size="11.00" fill="#000000">varchar[32]</text>
<polygon fill="none" stroke="#000000" points="202,-141.7 202,-163.7 376,-163.7 376,-141.7 202,-141.7"/>
<image xlink:href="../../images/foreignKeys.png" width="11px" height="12px" preserveAspectRatio="xMinYMin meet" x="207" y="-158.7"/>
<text text-anchor="start" x="222" y="-148.8" font-family="Helvetica,sans-Serif" font-size="11.00" fill="#000000">allocation_reason_id</text>
<polygon fill="none" stroke="#000000" points="376,-141.7 376,-163.7 460,-163.7 460,-141.7 376,-141.7"/>
<text text-anchor="start" x="379" y="-149.4" font-family="Helvetica,sans-Serif" font-size="11.00" fill="#000000">int8[19]</text>
<polygon fill="none" stroke="#000000" points="202,-119.7 202,-141.7 376,-141.7 376,-119.7 202,-119.7"/>
<image xlink:href="../../images/foreignKeys.png" width="11px" height="12px" preserveAspectRatio="xMinYMin meet" x="207" y="-136.7"/>
<text text-anchor="start" x="222" y="-126.8" font-family="Helvetica,sans-Serif" font-size="11.00" fill="#000000">deallocation_reason_id</text>
<polygon fill="none" stroke="#000000" points="376,-119.7 376,-141.7 460,-141.7 460,-119.7 376,-119.7"/>
<text text-anchor="start" x="379" y="-127.4" font-family="Helvetica,sans-Serif" font-size="11.00" fill="#000000">int8[19]</text>
<polygon fill="#ffffff" stroke="transparent" points="202,-100.7 202,-119.7 293,-119.7 293,-100.7 202,-100.7"/>
<polygon fill="none" stroke="#000000" points="202,-100.7 202,-119.7 293,-119.7 293,-100.7 202,-100.7"/>
<text text-anchor="start" x="205" y="-106.8" font-family="Helvetica,sans-Serif" font-size="11.00" fill="#000000">&lt; 2</text>
<polygon fill="#ffffff" stroke="transparent" points="293,-100.7 293,-119.7 376,-119.7 376,-100.7 293,-100.7"/>
<polygon fill="none" stroke="#000000" points="293,-100.7 293,-119.7 376,-119.7 376,-100.7 293,-100.7"/>
<text text-anchor="start" x="366.8862" y="-106.8" font-family="Helvetica,sans-Serif" font-size="11.00" fill="#000000"> &#160;</text>
<polygon fill="#ffffff" stroke="transparent" points="376,-100.7 376,-119.7 460,-119.7 460,-100.7 376,-100.7"/>
<polygon fill="none" stroke="#000000" points="376,-100.7 376,-119.7 460,-119.7 460,-100.7 376,-100.7"/>
<text text-anchor="start" x="441.4053" y="-106.8" font-family="Helvetica,sans-Serif" font-size="11.00" fill="#000000">0 &gt;</text>
<polygon fill="none" stroke="#000000" stroke-width="2" points="201,-99.7 201,-473.7 461,-473.7 461,-99.7 201,-99.7"/>
</a>
</g>
</g>
<!-- offender_key_worker&#45;&gt;reference_data -->
<g id="edge2" class="edge">
<title>offender_key_worker:w&#45;&gt;reference_data:e</title>
<path fill="none" stroke="#000000" d="M187.4203,-152.7C175.5435,-152.7 168.158,-152.7 151.5,-152.7"/>
<polygon fill="#000000" stroke="#000000" points="194,-152.7001 202,-156.3 198,-152.7 202,-152.7 202,-152.7 202,-152.7 198,-152.7 202,-149.1 194,-152.7001 194,-152.7001"/>
<ellipse fill="none" stroke="#000000" cx="190.8" cy="-152.7001" rx="3.2" ry="3.2"/>
</g>
<!-- offender_key_worker&#45;&gt;reference_data -->
<g id="edge3" class="edge">
<title>offender_key_worker:w&#45;&gt;reference_data:e</title>
<path fill="none" stroke="#000000" d="M187.5981,-133.9462C175.4282,-140.0658 170.0526,-152.7 151.5,-152.7"/>
<polygon fill="#000000" stroke="#000000" points="194.1958,-132.4591 202.7916,-134.2119 198.0979,-131.5796 202,-130.7 202,-130.7 202,-130.7 198.0979,-131.5796 201.2084,-127.1881 194.1958,-132.4591 194.1958,-132.4591"/>
<ellipse fill="none" stroke="#000000" cx="191.0741" cy="-133.1627" rx="3.2" ry="3.2"/>
</g>
</g>
</svg>
