<?xml version="1.0" encoding="UTF-8" standalone="no"?>
<!DOCTYPE svg PUBLIC "-//W3C//DTD SVG 1.1//EN"
 "http://www.w3.org/Graphics/SVG/1.1/DTD/svg11.dtd">
<!-- Generated by graphviz version 2.40.1 (20161225.0304)
 -->
<!-- Title: twoDegreesRelationshipsDiagramImplied Pages: 1 -->
<svg width="647pt" height="673pt"
 viewBox="0.00 0.00 647.00 673.20" xmlns="http://www.w3.org/2000/svg" xmlns:xlink="http://www.w3.org/1999/xlink">
<g id="graph0" class="graph" transform="scale(1 1) rotate(0) translate(4 669.2)">
<title>twoDegreesRelationshipsDiagramImplied</title>
<polygon fill="#ffffff" stroke="transparent" points="-4,4 -4,-669.2 643,-669.2 643,4 -4,4"/>
<text text-anchor="middle" x="72.4936" y="-7.3" font-family="Helvetica,sans-Serif" font-size="11.00" fill="#000000">Generated by SchemaSpy</text>
<!-- keyworker_entry -->
<g id="node1" class="node">
<title>keyworker_entry</title>
<g id="a_node1"><a xlink:href="../../tables/keyworker_entry.html" xlink:title="keyworker_entry" target="_top">
<polygon fill="#ffffff" stroke="transparent" points="424,-600.2 424,-661.2 576,-661.2 576,-600.2 424,-600.2"/>
<polygon fill="#f5f5f5" stroke="transparent" points="424,-637.7 424,-660.7 576,-660.7 576,-637.7 424,-637.7"/>
<polygon fill="none" stroke="#000000" points="424,-637.7 424,-660.7 576,-660.7 576,-637.7 424,-637.7"/>
<text text-anchor="start" x="429" y="-646.3" font-family="Helvetica,sans-Serif" font-weight="bold" font-size="11.00" fill="#000000">keyworker_entry</text>
<text text-anchor="start" x="541.5219" y="-645.8" font-family="Helvetica,sans-Serif" font-size="11.00" fill="#000000">[table]</text>
<polygon fill="none" stroke="#000000" points="424,-618.7 424,-637.7 576,-637.7 576,-618.7 424,-618.7"/>
<text text-anchor="start" x="427" y="-624.8" font-family="Helvetica,sans-Serif" font-size="11.00" fill="#000000">...</text>
<polygon fill="#ffffff" stroke="transparent" points="424,-599.7 424,-618.7 498,-618.7 498,-599.7 424,-599.7"/>
<polygon fill="none" stroke="#000000" points="424,-599.7 424,-618.7 498,-618.7 498,-599.7 424,-599.7"/>
<text text-anchor="start" x="427" y="-605.8" font-family="Helvetica,sans-Serif" font-size="11.00" fill="#000000">&lt; 1</text>
<polygon fill="#ffffff" stroke="transparent" points="498,-599.7 498,-618.7 537,-618.7 537,-599.7 498,-599.7"/>
<polygon fill="none" stroke="#000000" points="498,-599.7 498,-618.7 537,-618.7 537,-599.7 498,-599.7"/>
<text text-anchor="start" x="527.8862" y="-605.8" font-family="Helvetica,sans-Serif" font-size="11.00" fill="#000000"> &#160;</text>
<polygon fill="#ffffff" stroke="transparent" points="537,-599.7 537,-618.7 576,-618.7 576,-599.7 537,-599.7"/>
<polygon fill="none" stroke="#000000" points="537,-599.7 537,-618.7 576,-618.7 576,-599.7 537,-599.7"/>
<text text-anchor="start" x="566.8862" y="-605.8" font-family="Helvetica,sans-Serif" font-size="11.00" fill="#000000"> &#160;</text>
</a>
</g>
</g>
<!-- key_worker -->
<g id="node2" class="node">
<title>key_worker</title>
<g id="a_node2"><a xlink:href="../../tables/key_worker.html" xlink:title="key_worker" target="_top">
<polygon fill="#ffffff" stroke="transparent" points="86,-497.2 86,-580.2 242,-580.2 242,-497.2 86,-497.2"/>
<polygon fill="#f5f5f5" stroke="transparent" points="86,-556.7 86,-579.7 242,-579.7 242,-556.7 86,-556.7"/>
<polygon fill="none" stroke="#000000" points="86,-556.7 86,-579.7 242,-579.7 242,-556.7 86,-556.7"/>
<text text-anchor="start" x="91" y="-565.3" font-family="Helvetica,sans-Serif" font-weight="bold" font-size="11.00" fill="#000000">key_worker</text>
<text text-anchor="start" x="207.0437" y="-564.8" font-family="Helvetica,sans-Serif" font-size="11.00" fill="#000000">[table]</text>
<polygon fill="none" stroke="#000000" points="86,-534.7 86,-556.7 242,-556.7 242,-534.7 86,-534.7"/>
<image xlink:href="../../images/primaryKeys.png" width="11px" height="12px" preserveAspectRatio="xMinYMin meet" x="91" y="-551.7"/>
<text text-anchor="start" x="106" y="-541.8" font-family="Helvetica,sans-Serif" font-size="11.00" fill="#000000">staff_id</text>
<polygon fill="none" stroke="#000000" points="86,-515.7 86,-534.7 242,-534.7 242,-515.7 86,-515.7"/>
<text text-anchor="start" x="89" y="-521.8" font-family="Helvetica,sans-Serif" font-size="11.00" fill="#000000">...</text>
<polygon fill="#ffffff" stroke="transparent" points="86,-496.7 86,-515.7 153,-515.7 153,-496.7 86,-496.7"/>
<polygon fill="none" stroke="#000000" points="86,-496.7 86,-515.7 153,-515.7 153,-496.7 86,-496.7"/>
<text text-anchor="start" x="89" y="-502.8" font-family="Helvetica,sans-Serif" font-size="11.00" fill="#000000"> &#160;</text>
<polygon fill="#ffffff" stroke="transparent" points="153,-496.7 153,-515.7 193,-515.7 193,-496.7 153,-496.7"/>
<polygon fill="none" stroke="#000000" points="153,-496.7 153,-515.7 193,-515.7 193,-496.7 153,-496.7"/>
<text text-anchor="start" x="183.8862" y="-502.8" font-family="Helvetica,sans-Serif" font-size="11.00" fill="#000000"> &#160;</text>
<polygon fill="#ffffff" stroke="transparent" points="193,-496.7 193,-515.7 242,-515.7 242,-496.7 193,-496.7"/>
<polygon fill="none" stroke="#000000" points="193,-496.7 193,-515.7 242,-515.7 242,-496.7 193,-496.7"/>
<text text-anchor="start" x="223.4053" y="-502.8" font-family="Helvetica,sans-Serif" font-size="11.00" fill="#000000">3 &gt;</text>
</a>
</g>
</g>
<!-- keyworker_entry&#45;&gt;key_worker -->
<g id="edge1" class="edge">
<title>keyworker_entry:w&#45;&gt;key_worker:e</title>
<path fill="none" stroke="#000000" stroke-dasharray="5,2" d="M409.2377,-626.8884C334.4568,-618.3721 325.5214,-545.7 242,-545.7"/>
<polygon fill="#000000" stroke="#000000" points="416.0121,-627.2608 423.8024,-631.2946 420.006,-627.4804 424,-627.7 424,-627.7 424,-627.7 420.006,-627.4804 424.1976,-624.1054 416.0121,-627.2608 416.0121,-627.2608"/>
<ellipse fill="none" stroke="#000000" cx="412.8169" cy="-627.0851" rx="3.2" ry="3.2"/>
</g>
<!-- keyworker_session -->
<g id="node3" class="node">
<title>keyworker_session</title>
<g id="a_node3"><a xlink:href="../../tables/keyworker_session.html" xlink:title="keyworker_session" target="_top">
<polygon fill="#ffffff" stroke="transparent" points="417,-518.2 417,-579.2 583,-579.2 583,-518.2 417,-518.2"/>
<polygon fill="#f5f5f5" stroke="transparent" points="417,-555.7 417,-578.7 583,-578.7 583,-555.7 417,-555.7"/>
<polygon fill="none" stroke="#000000" points="417,-555.7 417,-578.7 583,-578.7 583,-555.7 417,-555.7"/>
<text text-anchor="start" x="422" y="-564.3" font-family="Helvetica,sans-Serif" font-weight="bold" font-size="11.00" fill="#000000">keyworker_session</text>
<text text-anchor="start" x="548.5219" y="-563.8" font-family="Helvetica,sans-Serif" font-size="11.00" fill="#000000">[table]</text>
<polygon fill="none" stroke="#000000" points="417,-536.7 417,-555.7 583,-555.7 583,-536.7 417,-536.7"/>
<text text-anchor="start" x="420" y="-542.8" font-family="Helvetica,sans-Serif" font-size="11.00" fill="#000000">...</text>
<polygon fill="#ffffff" stroke="transparent" points="417,-517.7 417,-536.7 498,-536.7 498,-517.7 417,-517.7"/>
<polygon fill="none" stroke="#000000" points="417,-517.7 417,-536.7 498,-536.7 498,-517.7 417,-517.7"/>
<text text-anchor="start" x="420" y="-523.8" font-family="Helvetica,sans-Serif" font-size="11.00" fill="#000000">&lt; 1</text>
<polygon fill="#ffffff" stroke="transparent" points="498,-517.7 498,-536.7 540,-536.7 540,-517.7 498,-517.7"/>
<polygon fill="none" stroke="#000000" points="498,-517.7 498,-536.7 540,-536.7 540,-517.7 498,-517.7"/>
<text text-anchor="start" x="530.8862" y="-523.8" font-family="Helvetica,sans-Serif" font-size="11.00" fill="#000000"> &#160;</text>
<polygon fill="#ffffff" stroke="transparent" points="540,-517.7 540,-536.7 583,-536.7 583,-517.7 540,-517.7"/>
<polygon fill="none" stroke="#000000" points="540,-517.7 540,-536.7 583,-536.7 583,-517.7 540,-517.7"/>
<text text-anchor="start" x="573.8862" y="-523.8" font-family="Helvetica,sans-Serif" font-size="11.00" fill="#000000"> &#160;</text>
</a>
</g>
</g>
<!-- keyworker_session&#45;&gt;key_worker -->
<g id="edge2" class="edge">
<title>keyworker_session:w&#45;&gt;key_worker:e</title>
<path fill="none" stroke="#000000" stroke-dasharray="5,2" d="M402.2428,-545.7C336.3825,-545.7 314.6128,-545.7 242,-545.7"/>
<polygon fill="#000000" stroke="#000000" points="409,-545.7001 417,-549.3 413,-545.7 417,-545.7 417,-545.7 417,-545.7 413,-545.7 417,-542.1 409,-545.7001 409,-545.7001"/>
<ellipse fill="none" stroke="#000000" cx="405.8" cy="-545.7001" rx="3.2" ry="3.2"/>
</g>
<!-- keyworker_stats -->
<g id="node4" class="node">
<title>keyworker_stats</title>
<g id="a_node4"><a xlink:href="../../tables/keyworker_stats.html" xlink:title="keyworker_stats" target="_top">
<polygon fill="#ffffff" stroke="transparent" points="425,-38.2 425,-99.2 575,-99.2 575,-38.2 425,-38.2"/>
<polygon fill="#f5f5f5" stroke="transparent" points="425,-75.7 425,-98.7 575,-98.7 575,-75.7 425,-75.7"/>
<polygon fill="none" stroke="#000000" points="425,-75.7 425,-98.7 575,-98.7 575,-75.7 425,-75.7"/>
<text text-anchor="start" x="430" y="-84.3" font-family="Helvetica,sans-Serif" font-weight="bold" font-size="11.00" fill="#000000">keyworker_stats</text>
<text text-anchor="start" x="540.5219" y="-83.8" font-family="Helvetica,sans-Serif" font-size="11.00" fill="#000000">[table]</text>
<polygon fill="none" stroke="#000000" points="425,-56.7 425,-75.7 575,-75.7 575,-56.7 425,-56.7"/>
<text text-anchor="start" x="428" y="-62.8" font-family="Helvetica,sans-Serif" font-size="11.00" fill="#000000">...</text>
<polygon fill="#ffffff" stroke="transparent" points="425,-37.7 425,-56.7 498,-56.7 498,-37.7 425,-37.7"/>
<polygon fill="none" stroke="#000000" points="425,-37.7 425,-56.7 498,-56.7 498,-37.7 425,-37.7"/>
<text text-anchor="start" x="428" y="-43.8" font-family="Helvetica,sans-Serif" font-size="11.00" fill="#000000">&lt; 1</text>
<polygon fill="#ffffff" stroke="transparent" points="498,-37.7 498,-56.7 536,-56.7 536,-37.7 498,-37.7"/>
<polygon fill="none" stroke="#000000" points="498,-37.7 498,-56.7 536,-56.7 536,-37.7 498,-37.7"/>
<text text-anchor="start" x="526.8862" y="-43.8" font-family="Helvetica,sans-Serif" font-size="11.00" fill="#000000"> &#160;</text>
<polygon fill="#ffffff" stroke="transparent" points="536,-37.7 536,-56.7 575,-56.7 575,-37.7 536,-37.7"/>
<polygon fill="none" stroke="#000000" points="536,-37.7 536,-56.7 575,-56.7 575,-37.7 536,-37.7"/>
<text text-anchor="start" x="565.8862" y="-43.8" font-family="Helvetica,sans-Serif" font-size="11.00" fill="#000000"> &#160;</text>
</a>
</g>
</g>
<!-- prison_supported -->
<g id="node5" class="node">
<title>prison_supported</title>
<g id="a_node5"><a xlink:href="../../tables/prison_supported.html" xlink:title="prison_supported" target="_top">
<polygon fill="#ffffff" stroke="transparent" points="8,-127.2 8,-210.2 320,-210.2 320,-127.2 8,-127.2"/>
<polygon fill="#f5f5f5" stroke="transparent" points="8,-186.7 8,-209.7 320,-209.7 320,-186.7 8,-186.7"/>
<polygon fill="none" stroke="#000000" points="8,-186.7 8,-209.7 320,-209.7 320,-186.7 8,-186.7"/>
<text text-anchor="start" x="13" y="-195.3" font-family="Helvetica,sans-Serif" font-weight="bold" font-size="11.00" fill="#000000">prison_supported</text>
<text text-anchor="start" x="285.0437" y="-194.8" font-family="Helvetica,sans-Serif" font-size="11.00" fill="#000000">[table]</text>
<polygon fill="none" stroke="#000000" points="8,-164.7 8,-186.7 320,-186.7 320,-164.7 8,-164.7"/>
<image xlink:href="../../images/primaryKeys.png" width="11px" height="12px" preserveAspectRatio="xMinYMin meet" x="13" y="-181.7"/>
<text text-anchor="start" x="28" y="-171.8" font-family="Helvetica,sans-Serif" font-size="11.00" fill="#000000">prison_id</text>
<polygon fill="none" stroke="#000000" points="8,-145.7 8,-164.7 320,-164.7 320,-145.7 8,-145.7"/>
<text text-anchor="start" x="11" y="-151.8" font-family="Helvetica,sans-Serif" font-size="11.00" fill="#000000">...</text>
<polygon fill="#ffffff" stroke="transparent" points="8,-126.7 8,-145.7 153,-145.7 153,-126.7 8,-126.7"/>
<polygon fill="none" stroke="#000000" points="8,-126.7 8,-145.7 153,-145.7 153,-126.7 8,-126.7"/>
<text text-anchor="start" x="11" y="-132.8" font-family="Helvetica,sans-Serif" font-size="11.00" fill="#000000"> &#160;</text>
<polygon fill="#ffffff" stroke="transparent" points="153,-126.7 153,-145.7 232,-145.7 232,-126.7 153,-126.7"/>
<polygon fill="none" stroke="#000000" points="153,-126.7 153,-145.7 232,-145.7 232,-126.7 153,-126.7"/>
<text text-anchor="start" x="222.8862" y="-132.8" font-family="Helvetica,sans-Serif" font-size="11.00" fill="#000000"> &#160;</text>
<polygon fill="#ffffff" stroke="transparent" points="232,-126.7 232,-145.7 320,-145.7 320,-126.7 232,-126.7"/>
<polygon fill="none" stroke="#000000" points="232,-126.7 232,-145.7 320,-145.7 320,-126.7 232,-126.7"/>
<text text-anchor="start" x="301.4053" y="-132.8" font-family="Helvetica,sans-Serif" font-size="11.00" fill="#000000">2 &gt;</text>
</a>
</g>
</g>
<!-- keyworker_stats&#45;&gt;prison_supported -->
<g id="edge3" class="edge">
<title>keyworker_stats:w&#45;&gt;prison_supported:e</title>
<path fill="none" stroke="#000000" stroke-dasharray="5,2" d="M410.3658,-67.1648C388.0623,-72.1819 381.1261,-89.5398 361,-110.7 337.4605,-135.4489 354.1558,-175.7 320,-175.7"/>
<polygon fill="#000000" stroke="#000000" points="417.0398,-66.4968 425.3586,-69.2821 421.0199,-66.0984 425,-65.7 425,-65.7 425,-65.7 421.0199,-66.0984 424.6414,-62.1179 417.0398,-66.4968 417.0398,-66.4968"/>
<ellipse fill="none" stroke="#000000" cx="413.8557" cy="-66.8155" rx="3.2" ry="3.2"/>
</g>
<!-- offender_key_worker -->
<g id="node6" class="node">
<title>offender_key_worker</title>
<g id="a_node6"><a xlink:href="../../tables/offender_key_worker.html" xlink:title="offender_key_worker" target="_top">
<polygon fill="#ffffff" stroke="transparent" points="369,-120.7 369,-496.7 631,-496.7 631,-120.7 369,-120.7"/>
<polygon fill="#f5f5f5" stroke="transparent" points="371,-471.7 371,-494.7 629,-494.7 629,-471.7 371,-471.7"/>
<polygon fill="none" stroke="#000000" points="371,-471.7 371,-494.7 629,-494.7 629,-471.7 371,-471.7"/>
<text text-anchor="start" x="376" y="-480.3" font-family="Helvetica,sans-Serif" font-weight="bold" font-size="11.00" fill="#000000">offender_key_worker</text>
<text text-anchor="start" x="594.0437" y="-479.8" font-family="Helvetica,sans-Serif" font-size="11.00" fill="#000000">[table]</text>
<polygon fill="none" stroke="#000000" points="371,-449.7 371,-471.7 545,-471.7 545,-449.7 371,-449.7"/>
<image xlink:href="../../images/primaryKeys.png" width="11px" height="12px" preserveAspectRatio="xMinYMin meet" x="376" y="-466.7"/>
<text text-anchor="start" x="391" y="-456.8" font-family="Helvetica,sans-Serif" font-size="11.00" fill="#000000">offender_keyworker_id</text>
<polygon fill="none" stroke="#000000" points="545,-449.7 545,-471.7 629,-471.7 629,-449.7 545,-449.7"/>
<text text-anchor="start" x="548" y="-457.4" font-family="Helvetica,sans-Serif" font-size="11.00" fill="#000000">bigserial[19]</text>
<polygon fill="#ffffff" stroke="transparent" points="371,-427.7 371,-449.7 545,-449.7 545,-427.7 371,-427.7"/>
<polygon fill="none" stroke="#000000" points="371,-427.7 371,-449.7 545,-449.7 545,-427.7 371,-427.7"/>
<text text-anchor="start" x="391" y="-434.8" font-family="Helvetica,sans-Serif" font-size="11.00" fill="#000000">offender_no</text>
<polygon fill="none" stroke="#000000" points="545,-427.7 545,-449.7 629,-449.7 629,-427.7 545,-427.7"/>
<text text-anchor="start" x="548" y="-435.4" font-family="Helvetica,sans-Serif" font-size="11.00" fill="#000000">varchar[10]</text>
<polygon fill="#ffffff" stroke="transparent" points="371,-405.7 371,-427.7 545,-427.7 545,-405.7 371,-405.7"/>
<polygon fill="none" stroke="#000000" points="371,-405.7 371,-427.7 545,-427.7 545,-405.7 371,-405.7"/>
<image xlink:href="../../images/foreignKeys.png" width="11px" height="12px" preserveAspectRatio="xMinYMin meet" x="376" y="-422.7"/>
<text text-anchor="start" x="391" y="-412.8" font-family="Helvetica,sans-Serif" font-size="11.00" fill="#000000">staff_id</text>
<polygon fill="none" stroke="#000000" points="545,-405.7 545,-427.7 629,-427.7 629,-405.7 545,-405.7"/>
<text text-anchor="start" x="548" y="-413.4" font-family="Helvetica,sans-Serif" font-size="11.00" fill="#000000">int8[19]</text>
<polygon fill="#ffffff" stroke="transparent" points="371,-383.7 371,-405.7 545,-405.7 545,-383.7 371,-383.7"/>
<polygon fill="none" stroke="#000000" points="371,-383.7 371,-405.7 545,-405.7 545,-383.7 371,-383.7"/>
<text text-anchor="start" x="391" y="-390.8" font-family="Helvetica,sans-Serif" font-size="11.00" fill="#000000">assigned_date_time</text>
<polygon fill="none" stroke="#000000" points="545,-383.7 545,-405.7 629,-405.7 629,-383.7 545,-383.7"/>
<text text-anchor="start" x="547.8807" y="-391.4" font-family="Helvetica,sans-Serif" font-size="11.00" fill="#000000">timestamp[29,6]</text>
<polygon fill="none" stroke="#000000" points="371,-361.7 371,-383.7 545,-383.7 545,-361.7 371,-361.7"/>
<text text-anchor="start" x="391" y="-368.8" font-family="Helvetica,sans-Serif" font-size="11.00" fill="#000000">active_flag</text>
<polygon fill="none" stroke="#000000" points="545,-361.7 545,-383.7 629,-383.7 629,-361.7 545,-361.7"/>
<text text-anchor="start" x="548" y="-369.4" font-family="Helvetica,sans-Serif" font-size="11.00" fill="#000000">bpchar[1]</text>
<polygon fill="none" stroke="#000000" points="371,-339.7 371,-361.7 545,-361.7 545,-339.7 371,-339.7"/>
<text text-anchor="start" x="391" y="-346.8" font-family="Helvetica,sans-Serif" font-size="11.00" fill="#000000">alloc_reason</text>
<polygon fill="none" stroke="#000000" points="545,-339.7 545,-361.7 629,-361.7 629,-339.7 545,-339.7"/>
<text text-anchor="start" x="548" y="-347.4" font-family="Helvetica,sans-Serif" font-size="11.00" fill="#000000">varchar[12]</text>
<polygon fill="none" stroke="#000000" points="371,-317.7 371,-339.7 545,-339.7 545,-317.7 371,-317.7"/>
<text text-anchor="start" x="391" y="-324.8" font-family="Helvetica,sans-Serif" font-size="11.00" fill="#000000">alloc_type</text>
<polygon fill="none" stroke="#000000" points="545,-317.7 545,-339.7 629,-339.7 629,-317.7 545,-317.7"/>
<text text-anchor="start" x="548" y="-325.4" font-family="Helvetica,sans-Serif" font-size="11.00" fill="#000000">bpchar[1]</text>
<polygon fill="none" stroke="#000000" points="371,-295.7 371,-317.7 545,-317.7 545,-295.7 371,-295.7"/>
<text text-anchor="start" x="391" y="-302.8" font-family="Helvetica,sans-Serif" font-size="11.00" fill="#000000">user_id</text>
<polygon fill="none" stroke="#000000" points="545,-295.7 545,-317.7 629,-317.7 629,-295.7 545,-295.7"/>
<text text-anchor="start" x="548" y="-303.4" font-family="Helvetica,sans-Serif" font-size="11.00" fill="#000000">varchar[32]</text>
<polygon fill="#ffffff" stroke="transparent" points="371,-273.7 371,-295.7 545,-295.7 545,-273.7 371,-273.7"/>
<polygon fill="none" stroke="#000000" points="371,-273.7 371,-295.7 545,-295.7 545,-273.7 371,-273.7"/>
<image xlink:href="../../images/foreignKeys.png" width="11px" height="12px" preserveAspectRatio="xMinYMin meet" x="376" y="-290.7"/>
<text text-anchor="start" x="391" y="-280.8" font-family="Helvetica,sans-Serif" font-size="11.00" fill="#000000">prison_id</text>
<polygon fill="none" stroke="#000000" points="545,-273.7 545,-295.7 629,-295.7 629,-273.7 545,-273.7"/>
<text text-anchor="start" x="548" y="-281.4" font-family="Helvetica,sans-Serif" font-size="11.00" fill="#000000">varchar[6]</text>
<polygon fill="none" stroke="#000000" points="371,-251.7 371,-273.7 545,-273.7 545,-251.7 371,-251.7"/>
<text text-anchor="start" x="391" y="-258.8" font-family="Helvetica,sans-Serif" font-size="11.00" fill="#000000">expiry_date_time</text>
<polygon fill="none" stroke="#000000" points="545,-251.7 545,-273.7 629,-273.7 629,-251.7 545,-251.7"/>
<text text-anchor="start" x="547.8807" y="-259.4" font-family="Helvetica,sans-Serif" font-size="11.00" fill="#000000">timestamp[29,6]</text>
<polygon fill="none" stroke="#000000" points="371,-229.7 371,-251.7 545,-251.7 545,-229.7 371,-229.7"/>
<text text-anchor="start" x="391" y="-236.8" font-family="Helvetica,sans-Serif" font-size="11.00" fill="#000000">dealloc_reason</text>
<polygon fill="none" stroke="#000000" points="545,-229.7 545,-251.7 629,-251.7 629,-229.7 545,-229.7"/>
<text text-anchor="start" x="548" y="-237.4" font-family="Helvetica,sans-Serif" font-size="11.00" fill="#000000">varchar[40]</text>
<polygon fill="none" stroke="#000000" points="371,-207.7 371,-229.7 545,-229.7 545,-207.7 371,-207.7"/>
<text text-anchor="start" x="391" y="-214.8" font-family="Helvetica,sans-Serif" font-size="11.00" fill="#000000">create_datetime</text>
<polygon fill="none" stroke="#000000" points="545,-207.7 545,-229.7 629,-229.7 629,-207.7 545,-207.7"/>
<text text-anchor="start" x="547.8807" y="-215.4" font-family="Helvetica,sans-Serif" font-size="11.00" fill="#000000">timestamp[29,6]</text>
<polygon fill="none" stroke="#000000" points="371,-185.7 371,-207.7 545,-207.7 545,-185.7 371,-185.7"/>
<text text-anchor="start" x="391" y="-192.8" font-family="Helvetica,sans-Serif" font-size="11.00" fill="#000000">create_user_id</text>
<polygon fill="none" stroke="#000000" points="545,-185.7 545,-207.7 629,-207.7 629,-185.7 545,-185.7"/>
<text text-anchor="start" x="548" y="-193.4" font-family="Helvetica,sans-Serif" font-size="11.00" fill="#000000">varchar[32]</text>
<polygon fill="none" stroke="#000000" points="371,-163.7 371,-185.7 545,-185.7 545,-163.7 371,-163.7"/>
<text text-anchor="start" x="391" y="-170.8" font-family="Helvetica,sans-Serif" font-size="11.00" fill="#000000">modify_datetime</text>
<polygon fill="none" stroke="#000000" points="545,-163.7 545,-185.7 629,-185.7 629,-163.7 545,-163.7"/>
<text text-anchor="start" x="547.8807" y="-171.4" font-family="Helvetica,sans-Serif" font-size="11.00" fill="#000000">timestamp[29,6]</text>
<polygon fill="none" stroke="#000000" points="371,-141.7 371,-163.7 545,-163.7 545,-141.7 371,-141.7"/>
<text text-anchor="start" x="391" y="-148.8" font-family="Helvetica,sans-Serif" font-size="11.00" fill="#000000">modify_user_id</text>
<polygon fill="none" stroke="#000000" points="545,-141.7 545,-163.7 629,-163.7 629,-141.7 545,-141.7"/>
<text text-anchor="start" x="548" y="-149.4" font-family="Helvetica,sans-Serif" font-size="11.00" fill="#000000">varchar[32]</text>
<polygon fill="#ffffff" stroke="transparent" points="371,-122.7 371,-141.7 462,-141.7 462,-122.7 371,-122.7"/>
<polygon fill="none" stroke="#000000" points="371,-122.7 371,-141.7 462,-141.7 462,-122.7 371,-122.7"/>
<text text-anchor="start" x="374" y="-128.8" font-family="Helvetica,sans-Serif" font-size="11.00" fill="#000000">&lt; 2</text>
<polygon fill="#ffffff" stroke="transparent" points="462,-122.7 462,-141.7 545,-141.7 545,-122.7 462,-122.7"/>
<polygon fill="none" stroke="#000000" points="462,-122.7 462,-141.7 545,-141.7 545,-122.7 462,-122.7"/>
<text text-anchor="start" x="535.8862" y="-128.8" font-family="Helvetica,sans-Serif" font-size="11.00" fill="#000000"> &#160;</text>
<polygon fill="#ffffff" stroke="transparent" points="545,-122.7 545,-141.7 629,-141.7 629,-122.7 545,-122.7"/>
<polygon fill="none" stroke="#000000" points="545,-122.7 545,-141.7 629,-141.7 629,-122.7 545,-122.7"/>
<text text-anchor="start" x="610.4053" y="-128.8" font-family="Helvetica,sans-Serif" font-size="11.00" fill="#000000">0 &gt;</text>
<polygon fill="none" stroke="#000000" stroke-width="2" points="370,-121.7 370,-495.7 630,-495.7 630,-121.7 370,-121.7"/>
</a>
</g>
</g>
<!-- offender_key_worker&#45;&gt;key_worker -->
<g id="edge5" class="edge">
<title>offender_key_worker:w&#45;&gt;key_worker:e</title>
<path fill="none" stroke="#000000" stroke-dasharray="5,2" d="M356.2915,-418.331C293.8191,-433.2639 317.6973,-545.7 242,-545.7"/>
<polygon fill="#000000" stroke="#000000" points="363.0487,-417.5818 371.3968,-420.2781 367.0244,-417.1409 371,-416.7 371,-416.7 371,-416.7 367.0244,-417.1409 370.6032,-413.1219 363.0487,-417.5818 363.0487,-417.5818"/>
<ellipse fill="none" stroke="#000000" cx="359.8682" cy="-417.9345" rx="3.2" ry="3.2"/>
</g>
<!-- offender_key_worker&#45;&gt;prison_supported -->
<g id="edge4" class="edge">
<title>offender_key_worker:w&#45;&gt;prison_supported:e</title>
<path fill="none" stroke="#000000" stroke-dasharray="5,2" d="M356.719,-280.8206C328.7911,-261.4034 367.4261,-175.7 320,-175.7"/>
<polygon fill="#000000" stroke="#000000" points="363.2798,-282.6028 370.0563,-288.1741 367.1399,-283.6514 371,-284.7 371,-284.7 371,-284.7 367.1399,-283.6514 371.9437,-281.2259 363.2798,-282.6028 363.2798,-282.6028"/>
<ellipse fill="none" stroke="#000000" cx="360.1917" cy="-281.7639" rx="3.2" ry="3.2"/>
</g>
</g>
</svg>
