<?xml version="1.0" encoding="UTF-8" standalone="no"?>
<!DOCTYPE svg PUBLIC "-//W3C//DTD SVG 1.1//EN"
 "http://www.w3.org/Graphics/SVG/1.1/DTD/svg11.dtd">
<!-- Generated by graphviz version 2.40.1 (20161225.0304)
 -->
<!-- Title: oneDegreeRelationshipsDiagram Pages: 1 -->
<svg width="553pt" height="883pt"
 viewBox="0.00 0.00 553.00 883.20" xmlns="http://www.w3.org/2000/svg" xmlns:xlink="http://www.w3.org/1999/xlink">
<g id="graph0" class="graph" transform="scale(1 1) rotate(0) translate(4 879.2)">
<title>oneDegreeRelationshipsDiagram</title>
<polygon fill="#ffffff" stroke="transparent" points="-4,4 -4,-879.2 549,-879.2 549,4 -4,4"/>
<text text-anchor="middle" x="72.4936" y="-7.3" font-family="Helvetica,sans-Serif" font-size="11.00" fill="#000000">Generated by SchemaSpy</text>
<!-- allocation -->
<g id="node1" class="node">
<title>allocation</title>
<g id="a_node1"><a xlink:href="../../tables/allocation.html" xlink:title="allocation" target="_top">
<polygon fill="#ffffff" stroke="transparent" points="294,-634.2 294,-871.2 468,-871.2 468,-634.2 294,-634.2"/>
<polygon fill="#f5f5f5" stroke="transparent" points="294,-847.7 294,-870.7 468,-870.7 468,-847.7 294,-847.7"/>
<polygon fill="none" stroke="#000000" points="294,-847.7 294,-870.7 468,-870.7 468,-847.7 294,-847.7"/>
<text text-anchor="start" x="299" y="-856.3" font-family="Helvetica,sans-Serif" font-weight="bold" font-size="11.00" fill="#000000">allocation</text>
<text text-anchor="start" x="433.0437" y="-855.8" font-family="Helvetica,sans-Serif" font-size="11.00" fill="#000000">[table]</text>
<polygon fill="none" stroke="#000000" points="294,-825.7 294,-847.7 468,-847.7 468,-825.7 294,-825.7"/>
<image xlink:href="../../images/primaryKeys.png" width="11px" height="12px" preserveAspectRatio="xMinYMin meet" x="299" y="-842.7"/>
<text text-anchor="start" x="314" y="-832.8" font-family="Helvetica,sans-Serif" font-size="11.00" fill="#000000">id</text>
<polygon fill="#ffffff" stroke="transparent" points="294,-803.7 294,-825.7 468,-825.7 468,-803.7 294,-803.7"/>
<polygon fill="none" stroke="#000000" points="294,-803.7 294,-825.7 468,-825.7 468,-803.7 294,-803.7"/>
<image xlink:href="../../images/foreignKeys.png" width="11px" height="12px" preserveAspectRatio="xMinYMin meet" x="299" y="-820.7"/>
<text text-anchor="start" x="314" y="-810.8" font-family="Helvetica,sans-Serif" font-size="11.00" fill="#000000">prison_code</text>
<polygon fill="#ffffff" stroke="transparent" points="294,-781.7 294,-803.7 468,-803.7 468,-781.7 294,-781.7"/>
<polygon fill="none" stroke="#000000" points="294,-781.7 294,-803.7 468,-803.7 468,-781.7 294,-781.7"/>
<text text-anchor="start" x="314" y="-788.8" font-family="Helvetica,sans-Serif" font-size="11.00" fill="#000000">staff_id</text>
<polygon fill="#ffffff" stroke="transparent" points="294,-759.7 294,-781.7 468,-781.7 468,-759.7 294,-759.7"/>
<polygon fill="none" stroke="#000000" points="294,-759.7 294,-781.7 468,-781.7 468,-759.7 294,-759.7"/>
<text text-anchor="start" x="314" y="-766.8" font-family="Helvetica,sans-Serif" font-size="11.00" fill="#000000">person_identifier</text>
<polygon fill="#ffffff" stroke="transparent" points="294,-737.7 294,-759.7 468,-759.7 468,-737.7 294,-737.7"/>
<polygon fill="none" stroke="#000000" points="294,-737.7 294,-759.7 468,-759.7 468,-737.7 294,-737.7"/>
<text text-anchor="start" x="314" y="-744.8" font-family="Helvetica,sans-Serif" font-size="11.00" fill="#000000">allocated_at</text>
<polygon fill="none" stroke="#000000" points="294,-715.7 294,-737.7 468,-737.7 468,-715.7 294,-715.7"/>
<image xlink:href="../../images/foreignKeys.png" width="11px" height="12px" preserveAspectRatio="xMinYMin meet" x="299" y="-732.7"/>
<text text-anchor="start" x="314" y="-722.8" font-family="Helvetica,sans-Serif" font-size="11.00" fill="#000000">allocation_reason_id</text>
<polygon fill="none" stroke="#000000" points="294,-693.7 294,-715.7 468,-715.7 468,-693.7 294,-693.7"/>
<image xlink:href="../../images/foreignKeys.png" width="11px" height="12px" preserveAspectRatio="xMinYMin meet" x="299" y="-710.7"/>
<text text-anchor="start" x="314" y="-700.8" font-family="Helvetica,sans-Serif" font-size="11.00" fill="#000000">deallocation_reason_id</text>
<polygon fill="#ffffff" stroke="transparent" points="294,-671.7 294,-693.7 468,-693.7 468,-671.7 294,-671.7"/>
<polygon fill="none" stroke="#000000" points="294,-671.7 294,-693.7 468,-693.7 468,-671.7 294,-671.7"/>
<image xlink:href="../../images/foreignKeys.png" width="11px" height="12px" preserveAspectRatio="xMinYMin meet" x="299" y="-688.7"/>
<text text-anchor="start" x="314" y="-678.8" font-family="Helvetica,sans-Serif" font-size="11.00" fill="#000000">policy_code</text>
<polygon fill="none" stroke="#000000" points="294,-652.7 294,-671.7 468,-671.7 468,-652.7 294,-652.7"/>
<text text-anchor="start" x="297" y="-658.8" font-family="Helvetica,sans-Serif" font-size="11.00" fill="#000000">...</text>
<polygon fill="#ffffff" stroke="transparent" points="294,-633.7 294,-652.7 379,-652.7 379,-633.7 294,-633.7"/>
<polygon fill="none" stroke="#000000" points="294,-633.7 294,-652.7 379,-652.7 379,-633.7 294,-633.7"/>
<text text-anchor="start" x="297" y="-639.8" font-family="Helvetica,sans-Serif" font-size="11.00" fill="#000000">&lt; 3</text>
<polygon fill="#ffffff" stroke="transparent" points="379,-633.7 379,-652.7 423,-652.7 423,-633.7 379,-633.7"/>
<polygon fill="none" stroke="#000000" points="379,-633.7 379,-652.7 423,-652.7 423,-633.7 379,-633.7"/>
<text text-anchor="start" x="413.8862" y="-639.8" font-family="Helvetica,sans-Serif" font-size="11.00" fill="#000000"> &#160;</text>
<polygon fill="#ffffff" stroke="transparent" points="423,-633.7 423,-652.7 468,-652.7 468,-633.7 423,-633.7"/>
<polygon fill="none" stroke="#000000" points="423,-633.7 423,-652.7 468,-652.7 468,-633.7 423,-633.7"/>
<text text-anchor="start" x="458.8862" y="-639.8" font-family="Helvetica,sans-Serif" font-size="11.00" fill="#000000"> &#160;</text>
</a>
</g>
</g>
<!-- policy -->
<g id="node2" class="node">
<title>policy</title>
<g id="a_node2"><a xlink:href="../../tables/policy.html" xlink:title="policy" target="_top">
<polygon fill="#ffffff" stroke="transparent" points="8,-310.7 8,-400.7 176,-400.7 176,-310.7 8,-310.7"/>
<polygon fill="#f5f5f5" stroke="transparent" points="10,-375.7 10,-398.7 174,-398.7 174,-375.7 10,-375.7"/>
<polygon fill="none" stroke="#000000" points="10,-375.7 10,-398.7 174,-398.7 174,-375.7 10,-375.7"/>
<text text-anchor="start" x="15" y="-384.3" font-family="Helvetica,sans-Serif" font-weight="bold" font-size="11.00" fill="#000000">policy</text>
<text text-anchor="start" x="139.0437" y="-383.8" font-family="Helvetica,sans-Serif" font-size="11.00" fill="#000000">[table]</text>
<polygon fill="none" stroke="#000000" points="10,-353.7 10,-375.7 107,-375.7 107,-353.7 10,-353.7"/>
<image xlink:href="../../images/primaryKeys.png" width="11px" height="12px" preserveAspectRatio="xMinYMin meet" x="15" y="-370.7"/>
<text text-anchor="start" x="30" y="-360.8" font-family="Helvetica,sans-Serif" font-size="11.00" fill="#000000">code</text>
<polygon fill="none" stroke="#000000" points="107,-353.7 107,-375.7 174,-375.7 174,-353.7 107,-353.7"/>
<text text-anchor="start" x="110" y="-361.4" font-family="Helvetica,sans-Serif" font-size="11.00" fill="#000000">varchar[16]</text>
<polygon fill="none" stroke="#000000" points="10,-331.7 10,-353.7 107,-353.7 107,-331.7 10,-331.7"/>
<text text-anchor="start" x="30" y="-338.8" font-family="Helvetica,sans-Serif" font-size="11.00" fill="#000000">description</text>
<polygon fill="none" stroke="#000000" points="107,-331.7 107,-353.7 174,-353.7 174,-331.7 107,-331.7"/>
<text text-anchor="start" x="109.9365" y="-339.4" font-family="Helvetica,sans-Serif" font-size="11.00" fill="#000000">varchar[255]</text>
<polygon fill="#ffffff" stroke="transparent" points="10,-312.7 10,-331.7 63,-331.7 63,-312.7 10,-312.7"/>
<polygon fill="none" stroke="#000000" points="10,-312.7 10,-331.7 63,-331.7 63,-312.7 10,-312.7"/>
<text text-anchor="start" x="13" y="-318.8" font-family="Helvetica,sans-Serif" font-size="11.00" fill="#000000">&lt; 0</text>
<polygon fill="#ffffff" stroke="transparent" points="63,-312.7 63,-331.7 107,-331.7 107,-312.7 63,-312.7"/>
<polygon fill="none" stroke="#000000" points="63,-312.7 63,-331.7 107,-331.7 107,-312.7 63,-312.7"/>
<text text-anchor="start" x="97.8862" y="-318.8" font-family="Helvetica,sans-Serif" font-size="11.00" fill="#000000"> &#160;</text>
<polygon fill="#ffffff" stroke="transparent" points="107,-312.7 107,-331.7 174,-331.7 174,-312.7 107,-312.7"/>
<polygon fill="none" stroke="#000000" points="107,-312.7 107,-331.7 174,-331.7 174,-312.7 107,-312.7"/>
<text text-anchor="start" x="155.4053" y="-318.8" font-family="Helvetica,sans-Serif" font-size="11.00" fill="#000000">5 &gt;</text>
<polygon fill="none" stroke="#000000" stroke-width="2" points="9,-311.7 9,-399.7 175,-399.7 175,-311.7 9,-311.7"/>
</a>
</g>
</g>
<!-- allocation&#45;&gt;policy -->
<g id="edge1" class="edge">
<title>allocation:w&#45;&gt;policy:e</title>
<path fill="none" stroke="#000000" d="M279.2234,-681.6809C247.7994,-676.9573 236.4198,-656.0418 217,-623.7 186.9658,-573.681 232.3434,-364.7 174,-364.7"/>
<polygon fill="#000000" stroke="#000000" points="286.019,-682.1495 293.7523,-686.2915 290.0095,-682.4247 294,-682.7 294,-682.7 294,-682.7 290.0095,-682.4247 294.2477,-679.1085 286.019,-682.1495 286.019,-682.1495"/>
<ellipse fill="none" stroke="#000000" cx="282.8265" cy="-681.9293" rx="3.2" ry="3.2"/>
</g>
<!-- prison_configuration -->
<g id="node3" class="node">
<title>prison_configuration</title>
<g id="a_node3"><a xlink:href="../../tables/prison_configuration.html" xlink:title="prison_configuration" target="_top">
<polygon fill="#ffffff" stroke="transparent" points="225,-486.2 225,-613.2 537,-613.2 537,-486.2 225,-486.2"/>
<polygon fill="#f5f5f5" stroke="transparent" points="225,-589.7 225,-612.7 537,-612.7 537,-589.7 225,-589.7"/>
<polygon fill="none" stroke="#000000" points="225,-589.7 225,-612.7 537,-612.7 537,-589.7 225,-589.7"/>
<text text-anchor="start" x="230" y="-598.3" font-family="Helvetica,sans-Serif" font-weight="bold" font-size="11.00" fill="#000000">prison_configuration</text>
<text text-anchor="start" x="502.0437" y="-597.8" font-family="Helvetica,sans-Serif" font-size="11.00" fill="#000000">[table]</text>
<polygon fill="#ffffff" stroke="transparent" points="225,-567.7 225,-589.7 537,-589.7 537,-567.7 225,-567.7"/>
<polygon fill="none" stroke="#000000" points="225,-567.7 225,-589.7 537,-589.7 537,-567.7 225,-567.7"/>
<image xlink:href="../../images/foreignKeys.png" width="11px" height="12px" preserveAspectRatio="xMinYMin meet" x="230" y="-584.7"/>
<text text-anchor="start" x="245" y="-574.8" font-family="Helvetica,sans-Serif" font-size="11.00" fill="#000000">prison_code</text>
<polygon fill="#ffffff" stroke="transparent" points="225,-545.7 225,-567.7 537,-567.7 537,-545.7 225,-545.7"/>
<polygon fill="none" stroke="#000000" points="225,-545.7 225,-567.7 537,-567.7 537,-545.7 225,-545.7"/>
<image xlink:href="../../images/foreignKeys.png" width="11px" height="12px" preserveAspectRatio="xMinYMin meet" x="230" y="-562.7"/>
<text text-anchor="start" x="245" y="-552.8" font-family="Helvetica,sans-Serif" font-size="11.00" fill="#000000">policy_code</text>
<polygon fill="none" stroke="#000000" points="225,-523.7 225,-545.7 537,-545.7 537,-523.7 225,-523.7"/>
<image xlink:href="../../images/primaryKeys.png" width="11px" height="12px" preserveAspectRatio="xMinYMin meet" x="230" y="-540.7"/>
<text text-anchor="start" x="245" y="-530.8" font-family="Helvetica,sans-Serif" font-size="11.00" fill="#000000">id</text>
<polygon fill="none" stroke="#000000" points="225,-504.7 225,-523.7 537,-523.7 537,-504.7 225,-504.7"/>
<text text-anchor="start" x="228" y="-510.8" font-family="Helvetica,sans-Serif" font-size="11.00" fill="#000000">...</text>
<polygon fill="#ffffff" stroke="transparent" points="225,-485.7 225,-504.7 363,-504.7 363,-485.7 225,-485.7"/>
<polygon fill="none" stroke="#000000" points="225,-485.7 225,-504.7 363,-504.7 363,-485.7 225,-485.7"/>
<text text-anchor="start" x="228" y="-491.8" font-family="Helvetica,sans-Serif" font-size="11.00" fill="#000000">&lt; 1</text>
<polygon fill="#ffffff" stroke="transparent" points="363,-485.7 363,-504.7 466,-504.7 466,-485.7 363,-485.7"/>
<polygon fill="none" stroke="#000000" points="363,-485.7 363,-504.7 466,-504.7 466,-485.7 363,-485.7"/>
<text text-anchor="start" x="424.4956" y="-491.8" font-family="Helvetica,sans-Serif" font-size="11.00" fill="#000000">12 rows</text>
<polygon fill="#ffffff" stroke="transparent" points="466,-485.7 466,-504.7 537,-504.7 537,-485.7 466,-485.7"/>
<polygon fill="none" stroke="#000000" points="466,-485.7 466,-504.7 537,-504.7 537,-485.7 466,-485.7"/>
<text text-anchor="start" x="527.8862" y="-491.8" font-family="Helvetica,sans-Serif" font-size="11.00" fill="#000000"> &#160;</text>
</a>
</g>
</g>
<!-- prison_configuration&#45;&gt;policy -->
<g id="edge2" class="edge">
<title>prison_configuration:w&#45;&gt;policy:e</title>
<path fill="none" stroke="#000000" d="M210.4788,-554.41C152.0077,-532.7476 256.6017,-364.7 174,-364.7"/>
<polygon fill="#000000" stroke="#000000" points="217.0977,-555.4538 224.4392,-560.2561 221.0488,-556.0769 225,-556.7 225,-556.7 225,-556.7 221.0488,-556.0769 225.5608,-553.1439 217.0977,-555.4538 217.0977,-555.4538"/>
<ellipse fill="none" stroke="#000000" cx="213.9367" cy="-554.9553" rx="3.2" ry="3.2"/>
</g>
<!-- prison_statistic -->
<g id="node4" class="node">
<title>prison_statistic</title>
<g id="a_node4"><a xlink:href="../../tables/prison_statistic.html" xlink:title="prison_statistic" target="_top">
<polygon fill="#ffffff" stroke="transparent" points="233,-316.2 233,-465.2 529,-465.2 529,-316.2 233,-316.2"/>
<polygon fill="#f5f5f5" stroke="transparent" points="233,-441.7 233,-464.7 529,-464.7 529,-441.7 233,-441.7"/>
<polygon fill="none" stroke="#000000" points="233,-441.7 233,-464.7 529,-464.7 529,-441.7 233,-441.7"/>
<text text-anchor="start" x="238" y="-450.3" font-family="Helvetica,sans-Serif" font-weight="bold" font-size="11.00" fill="#000000">prison_statistic</text>
<text text-anchor="start" x="494.0437" y="-449.8" font-family="Helvetica,sans-Serif" font-size="11.00" fill="#000000">[table]</text>
<polygon fill="none" stroke="#000000" points="233,-419.7 233,-441.7 529,-441.7 529,-419.7 233,-419.7"/>
<image xlink:href="../../images/primaryKeys.png" width="11px" height="12px" preserveAspectRatio="xMinYMin meet" x="238" y="-436.7"/>
<text text-anchor="start" x="253" y="-426.8" font-family="Helvetica,sans-Serif" font-size="11.00" fill="#000000">id</text>
<polygon fill="#ffffff" stroke="transparent" points="233,-397.7 233,-419.7 529,-419.7 529,-397.7 233,-397.7"/>
<polygon fill="none" stroke="#000000" points="233,-397.7 233,-419.7 529,-419.7 529,-397.7 233,-397.7"/>
<image xlink:href="../../images/foreignKeys.png" width="11px" height="12px" preserveAspectRatio="xMinYMin meet" x="238" y="-414.7"/>
<text text-anchor="start" x="253" y="-404.8" font-family="Helvetica,sans-Serif" font-size="11.00" fill="#000000">prison_code</text>
<polygon fill="#ffffff" stroke="transparent" points="233,-375.7 233,-397.7 529,-397.7 529,-375.7 233,-375.7"/>
<polygon fill="none" stroke="#000000" points="233,-375.7 233,-397.7 529,-397.7 529,-375.7 233,-375.7"/>
<text text-anchor="start" x="253" y="-382.8" font-family="Helvetica,sans-Serif" font-size="11.00" fill="#000000">statistic_date</text>
<polygon fill="none" stroke="#000000" points="233,-353.7 233,-375.7 529,-375.7 529,-353.7 233,-353.7"/>
<image xlink:href="../../images/foreignKeys.png" width="11px" height="12px" preserveAspectRatio="xMinYMin meet" x="238" y="-370.7"/>
<text text-anchor="start" x="253" y="-360.8" font-family="Helvetica,sans-Serif" font-size="11.00" fill="#000000">policy_code</text>
<polygon fill="none" stroke="#000000" points="233,-334.7 233,-353.7 529,-353.7 529,-334.7 233,-334.7"/>
<text text-anchor="start" x="236" y="-340.8" font-family="Helvetica,sans-Serif" font-size="11.00" fill="#000000">...</text>
<polygon fill="#ffffff" stroke="transparent" points="233,-315.7 233,-334.7 379,-334.7 379,-315.7 233,-315.7"/>
<polygon fill="none" stroke="#000000" points="233,-315.7 233,-334.7 379,-334.7 379,-315.7 233,-315.7"/>
<text text-anchor="start" x="236" y="-321.8" font-family="Helvetica,sans-Serif" font-size="11.00" fill="#000000">&lt; 1</text>
<polygon fill="#ffffff" stroke="transparent" points="379,-315.7 379,-334.7 454,-334.7 454,-315.7 379,-315.7"/>
<polygon fill="none" stroke="#000000" points="379,-315.7 379,-334.7 454,-334.7 454,-315.7 379,-315.7"/>
<text text-anchor="start" x="444.8862" y="-321.8" font-family="Helvetica,sans-Serif" font-size="11.00" fill="#000000"> &#160;</text>
<polygon fill="#ffffff" stroke="transparent" points="454,-315.7 454,-334.7 529,-334.7 529,-315.7 454,-315.7"/>
<polygon fill="none" stroke="#000000" points="454,-315.7 454,-334.7 529,-334.7 529,-315.7 454,-315.7"/>
<text text-anchor="start" x="519.8862" y="-321.8" font-family="Helvetica,sans-Serif" font-size="11.00" fill="#000000"> &#160;</text>
</a>
</g>
</g>
<!-- prison_statistic&#45;&gt;policy -->
<g id="edge3" class="edge">
<title>prison_statistic:w&#45;&gt;policy:e</title>
<path fill="none" stroke="#000000" d="M218.2032,-364.7C202.9686,-364.7 194.4861,-364.7 174,-364.7"/>
<polygon fill="#000000" stroke="#000000" points="225,-364.7001 233,-368.3 229,-364.7 233,-364.7 233,-364.7 233,-364.7 229,-364.7 233,-361.1 225,-364.7001 225,-364.7001"/>
<ellipse fill="none" stroke="#000000" cx="221.8" cy="-364.7001" rx="3.2" ry="3.2"/>
</g>
<!-- reference_data_policy -->
<g id="node5" class="node">
<title>reference_data_policy</title>
<g id="a_node5"><a xlink:href="../../tables/reference_data_policy.html" xlink:title="reference_data_policy" target="_top">
<polygon fill="#ffffff" stroke="transparent" points="288,-208.7 288,-294.7 474,-294.7 474,-208.7 288,-208.7"/>
<polygon fill="#f5f5f5" stroke="transparent" points="288,-271.7 288,-294.7 474,-294.7 474,-271.7 288,-271.7"/>
<polygon fill="none" stroke="#000000" points="288,-271.7 288,-294.7 474,-294.7 474,-271.7 288,-271.7"/>
<text text-anchor="start" x="293" y="-280.3" font-family="Helvetica,sans-Serif" font-weight="bold" font-size="11.00" fill="#000000">reference_data_policy</text>
<text text-anchor="start" x="439.5219" y="-279.8" font-family="Helvetica,sans-Serif" font-size="11.00" fill="#000000">[table]</text>
<polygon fill="#ffffff" stroke="transparent" points="288,-249.7 288,-271.7 474,-271.7 474,-249.7 288,-249.7"/>
<polygon fill="none" stroke="#000000" points="288,-249.7 288,-271.7 474,-271.7 474,-249.7 288,-249.7"/>
<image xlink:href="../../images/foreignKeys.png" width="11px" height="12px" preserveAspectRatio="xMinYMin meet" x="293" y="-266.7"/>
<text text-anchor="start" x="317" y="-256.8" font-family="Helvetica,sans-Serif" font-size="11.00" fill="#000000">id</text>
<polygon fill="#ffffff" stroke="transparent" points="288,-227.7 288,-249.7 474,-249.7 474,-227.7 288,-227.7"/>
<polygon fill="none" stroke="#000000" points="288,-227.7 288,-249.7 474,-249.7 474,-227.7 288,-227.7"/>
<image xlink:href="../../images/foreignKeys.png" width="11px" height="12px" preserveAspectRatio="xMinYMin meet" x="293" y="-244.7"/>
<text text-anchor="start" x="317" y="-234.8" font-family="Helvetica,sans-Serif" font-size="11.00" fill="#000000">policy_code</text>
<polygon fill="#ffffff" stroke="transparent" points="288,-208.7 288,-227.7 379,-227.7 379,-208.7 288,-208.7"/>
<polygon fill="none" stroke="#000000" points="288,-208.7 288,-227.7 379,-227.7 379,-208.7 288,-208.7"/>
<text text-anchor="start" x="291" y="-214.8" font-family="Helvetica,sans-Serif" font-size="11.00" fill="#000000">&lt; 2</text>
<polygon fill="#ffffff" stroke="transparent" points="379,-208.7 379,-227.7 426,-227.7 426,-208.7 379,-208.7"/>
<polygon fill="none" stroke="#000000" points="379,-208.7 379,-227.7 426,-227.7 426,-208.7 379,-208.7"/>
<text text-anchor="start" x="416.8862" y="-214.8" font-family="Helvetica,sans-Serif" font-size="11.00" fill="#000000"> &#160;</text>
<polygon fill="#ffffff" stroke="transparent" points="426,-208.7 426,-227.7 474,-227.7 474,-208.7 426,-208.7"/>
<polygon fill="none" stroke="#000000" points="426,-208.7 426,-227.7 474,-227.7 474,-208.7 426,-208.7"/>
<text text-anchor="start" x="464.8862" y="-214.8" font-family="Helvetica,sans-Serif" font-size="11.00" fill="#000000"> &#160;</text>
</a>
</g>
</g>
<!-- reference_data_policy&#45;&gt;policy -->
<g id="edge4" class="edge">
<title>reference_data_policy:w&#45;&gt;policy:e</title>
<path fill="none" stroke="#000000" d="M273.6685,-240.2435C244.414,-247.2808 242.0925,-277.2108 217,-305.7 195.5537,-330.0494 206.4475,-364.7 174,-364.7"/>
<polygon fill="#000000" stroke="#000000" points="280.046,-239.5567 288.3855,-242.2793 284.023,-239.1283 288,-238.7 288,-238.7 288,-238.7 284.023,-239.1283 287.6145,-235.1207 280.046,-239.5567 280.046,-239.5567"/>
<ellipse fill="none" stroke="#000000" cx="276.8644" cy="-239.8994" rx="3.2" ry="3.2"/>
</g>
<!-- staff_configuration -->
<g id="node6" class="node">
<title>staff_configuration</title>
<g id="a_node6"><a xlink:href="../../tables/staff_configuration.html" xlink:title="staff_configuration" target="_top">
<polygon fill="#ffffff" stroke="transparent" points="297.5,-38.2 297.5,-187.2 464.5,-187.2 464.5,-38.2 297.5,-38.2"/>
<polygon fill="#f5f5f5" stroke="transparent" points="298,-163.7 298,-186.7 465,-186.7 465,-163.7 298,-163.7"/>
<polygon fill="none" stroke="#000000" points="298,-163.7 298,-186.7 465,-186.7 465,-163.7 298,-163.7"/>
<text text-anchor="start" x="303" y="-172.3" font-family="Helvetica,sans-Serif" font-weight="bold" font-size="11.00" fill="#000000">staff_configuration</text>
<text text-anchor="start" x="430.5219" y="-171.8" font-family="Helvetica,sans-Serif" font-size="11.00" fill="#000000">[table]</text>
<polygon fill="#ffffff" stroke="transparent" points="298,-141.7 298,-163.7 465,-163.7 465,-141.7 298,-141.7"/>
<polygon fill="none" stroke="#000000" points="298,-141.7 298,-163.7 465,-163.7 465,-141.7 298,-141.7"/>
<text text-anchor="start" x="319" y="-148.8" font-family="Helvetica,sans-Serif" font-size="11.00" fill="#000000">staff_id</text>
<polygon fill="none" stroke="#000000" points="298,-119.7 298,-141.7 465,-141.7 465,-119.7 298,-119.7"/>
<image xlink:href="../../images/foreignKeys.png" width="11px" height="12px" preserveAspectRatio="xMinYMin meet" x="303" y="-136.7"/>
<text text-anchor="start" x="319" y="-126.8" font-family="Helvetica,sans-Serif" font-size="11.00" fill="#000000">status_id</text>
<polygon fill="#ffffff" stroke="transparent" points="298,-97.7 298,-119.7 465,-119.7 465,-97.7 298,-97.7"/>
<polygon fill="none" stroke="#000000" points="298,-97.7 298,-119.7 465,-119.7 465,-97.7 298,-97.7"/>
<image xlink:href="../../images/foreignKeys.png" width="11px" height="12px" preserveAspectRatio="xMinYMin meet" x="303" y="-114.7"/>
<text text-anchor="start" x="319" y="-104.8" font-family="Helvetica,sans-Serif" font-size="11.00" fill="#000000">policy_code</text>
<polygon fill="none" stroke="#000000" points="298,-75.7 298,-97.7 465,-97.7 465,-75.7 298,-75.7"/>
<image xlink:href="../../images/primaryKeys.png" width="11px" height="12px" preserveAspectRatio="xMinYMin meet" x="303" y="-92.7"/>
<text text-anchor="start" x="319" y="-82.8" font-family="Helvetica,sans-Serif" font-size="11.00" fill="#000000">id</text>
<polygon fill="none" stroke="#000000" points="298,-56.7 298,-75.7 465,-75.7 465,-56.7 298,-56.7"/>
<text text-anchor="start" x="301" y="-62.8" font-family="Helvetica,sans-Serif" font-size="11.00" fill="#000000">...</text>
<polygon fill="#ffffff" stroke="transparent" points="298,-37.7 298,-56.7 380,-56.7 380,-37.7 298,-37.7"/>
<polygon fill="none" stroke="#000000" points="298,-37.7 298,-56.7 380,-56.7 380,-37.7 298,-37.7"/>
<text text-anchor="start" x="301" y="-43.8" font-family="Helvetica,sans-Serif" font-size="11.00" fill="#000000">&lt; 2</text>
<polygon fill="#ffffff" stroke="transparent" points="380,-37.7 380,-56.7 422,-56.7 422,-37.7 380,-37.7"/>
<polygon fill="none" stroke="#000000" points="380,-37.7 380,-56.7 422,-56.7 422,-37.7 380,-37.7"/>
<text text-anchor="start" x="412.8862" y="-43.8" font-family="Helvetica,sans-Serif" font-size="11.00" fill="#000000"> &#160;</text>
<polygon fill="#ffffff" stroke="transparent" points="422,-37.7 422,-56.7 465,-56.7 465,-37.7 422,-37.7"/>
<polygon fill="none" stroke="#000000" points="422,-37.7 422,-56.7 465,-56.7 465,-37.7 422,-37.7"/>
<text text-anchor="start" x="455.8862" y="-43.8" font-family="Helvetica,sans-Serif" font-size="11.00" fill="#000000"> &#160;</text>
</a>
</g>
</g>
<!-- staff_configuration&#45;&gt;policy -->
<g id="edge5" class="edge">
<title>staff_configuration:w&#45;&gt;policy:e</title>
<path fill="none" stroke="#000000" d="M283.3947,-109.9306C243.609,-117.2339 239.9379,-156.0192 217,-198.7 180.9213,-265.8321 250.2128,-364.7 174,-364.7"/>
<polygon fill="#000000" stroke="#000000" points="290.0282,-109.3717 298.3023,-112.2873 294.0141,-109.0359 298,-108.7 298,-108.7 298,-108.7 294.0141,-109.0359 297.6977,-105.1127 290.0282,-109.3717 290.0282,-109.3717"/>
<ellipse fill="none" stroke="#000000" cx="286.8395" cy="-109.6404" rx="3.2" ry="3.2"/>
</g>
</g>
</svg>
