<?xml version="1.0" encoding="UTF-8" standalone="no"?>
<!DOCTYPE svg PUBLIC "-//W3C//DTD SVG 1.1//EN"
 "http://www.w3.org/Graphics/SVG/1.1/DTD/svg11.dtd">
<!-- Generated by graphviz version 2.40.1 (20161225.0304)
 -->
<!-- Title: oneDegreeRelationshipsDiagramImplied Pages: 1 -->
<svg width="618pt" height="347pt"
 viewBox="0.00 0.00 618.00 347.20" xmlns="http://www.w3.org/2000/svg" xmlns:xlink="http://www.w3.org/1999/xlink">
<g id="graph0" class="graph" transform="scale(1 1) rotate(0) translate(4 343.2)">
<title>oneDegreeRelationshipsDiagramImplied</title>
<polygon fill="#ffffff" stroke="transparent" points="-4,4 -4,-343.2 614,-343.2 614,4 -4,4"/>
<text text-anchor="middle" x="72.4936" y="-7.3" font-family="Helvetica,sans-Serif" font-size="11.00" fill="#000000">Generated by SchemaSpy</text>
<!-- prison_configuration -->
<g id="node1" class="node">
<title>prison_configuration</title>
<g id="a_node1"><a xlink:href="../../tables/prison_configuration.html" xlink:title="prison_configuration" target="_top">
<polygon fill="#ffffff" stroke="transparent" points="257.5,-208.2 257.5,-335.2 569.5,-335.2 569.5,-208.2 257.5,-208.2"/>
<polygon fill="#f5f5f5" stroke="transparent" points="257.5,-311.7 257.5,-334.7 569.5,-334.7 569.5,-311.7 257.5,-311.7"/>
<polygon fill="none" stroke="#000000" points="257.5,-311.7 257.5,-334.7 569.5,-334.7 569.5,-311.7 257.5,-311.7"/>
<text text-anchor="start" x="262.5" y="-320.3" font-family="Helvetica,sans-Serif" font-weight="bold" font-size="11.00" fill="#000000">prison_configuration</text>
<text text-anchor="start" x="534.5437" y="-319.8" font-family="Helvetica,sans-Serif" font-size="11.00" fill="#000000">[table]</text>
<polygon fill="#ffffff" stroke="transparent" points="257.5,-289.7 257.5,-311.7 569.5,-311.7 569.5,-289.7 257.5,-289.7"/>
<polygon fill="none" stroke="#000000" points="257.5,-289.7 257.5,-311.7 569.5,-311.7 569.5,-289.7 257.5,-289.7"/>
<image xlink:href="../../images/foreignKeys.png" width="11px" height="12px" preserveAspectRatio="xMinYMin meet" x="262.5" y="-306.7"/>
<text text-anchor="start" x="277.5" y="-296.8" font-family="Helvetica,sans-Serif" font-size="11.00" fill="#000000">prison_code</text>
<polygon fill="#ffffff" stroke="transparent" points="257.5,-267.7 257.5,-289.7 569.5,-289.7 569.5,-267.7 257.5,-267.7"/>
<polygon fill="none" stroke="#000000" points="257.5,-267.7 257.5,-289.7 569.5,-289.7 569.5,-267.7 257.5,-267.7"/>
<image xlink:href="../../images/foreignKeys.png" width="11px" height="12px" preserveAspectRatio="xMinYMin meet" x="262.5" y="-284.7"/>
<text text-anchor="start" x="277.5" y="-274.8" font-family="Helvetica,sans-Serif" font-size="11.00" fill="#000000">policy_code</text>
<polygon fill="none" stroke="#000000" points="257.5,-245.7 257.5,-267.7 569.5,-267.7 569.5,-245.7 257.5,-245.7"/>
<image xlink:href="../../images/primaryKeys.png" width="11px" height="12px" preserveAspectRatio="xMinYMin meet" x="262.5" y="-262.7"/>
<text text-anchor="start" x="277.5" y="-252.8" font-family="Helvetica,sans-Serif" font-size="11.00" fill="#000000">id</text>
<polygon fill="none" stroke="#000000" points="257.5,-226.7 257.5,-245.7 569.5,-245.7 569.5,-226.7 257.5,-226.7"/>
<text text-anchor="start" x="260.5" y="-232.8" font-family="Helvetica,sans-Serif" font-size="11.00" fill="#000000">...</text>
<polygon fill="#ffffff" stroke="transparent" points="257.5,-207.7 257.5,-226.7 395.5,-226.7 395.5,-207.7 257.5,-207.7"/>
<polygon fill="none" stroke="#000000" points="257.5,-207.7 257.5,-226.7 395.5,-226.7 395.5,-207.7 257.5,-207.7"/>
<text text-anchor="start" x="260.5" y="-213.8" font-family="Helvetica,sans-Serif" font-size="11.00" fill="#000000">&lt; 1</text>
<polygon fill="#ffffff" stroke="transparent" points="395.5,-207.7 395.5,-226.7 498.5,-226.7 498.5,-207.7 395.5,-207.7"/>
<polygon fill="none" stroke="#000000" points="395.5,-207.7 395.5,-226.7 498.5,-226.7 498.5,-207.7 395.5,-207.7"/>
<text text-anchor="start" x="456.9956" y="-213.8" font-family="Helvetica,sans-Serif" font-size="11.00" fill="#000000">12 rows</text>
<polygon fill="#ffffff" stroke="transparent" points="498.5,-207.7 498.5,-226.7 569.5,-226.7 569.5,-207.7 498.5,-207.7"/>
<polygon fill="none" stroke="#000000" points="498.5,-207.7 498.5,-226.7 569.5,-226.7 569.5,-207.7 498.5,-207.7"/>
<text text-anchor="start" x="560.3862" y="-213.8" font-family="Helvetica,sans-Serif" font-size="11.00" fill="#000000"> &#160;</text>
</a>
</g>
</g>
<!-- policy -->
<g id="node2" class="node">
<title>policy</title>
<g id="a_node2"><a xlink:href="../../tables/policy.html" xlink:title="policy" target="_top">
<polygon fill="#ffffff" stroke="transparent" points="8,-128.7 8,-218.7 176,-218.7 176,-128.7 8,-128.7"/>
<polygon fill="#f5f5f5" stroke="transparent" points="10,-193.7 10,-216.7 174,-216.7 174,-193.7 10,-193.7"/>
<polygon fill="none" stroke="#000000" points="10,-193.7 10,-216.7 174,-216.7 174,-193.7 10,-193.7"/>
<text text-anchor="start" x="15" y="-202.3" font-family="Helvetica,sans-Serif" font-weight="bold" font-size="11.00" fill="#000000">policy</text>
<text text-anchor="start" x="139.0437" y="-201.8" font-family="Helvetica,sans-Serif" font-size="11.00" fill="#000000">[table]</text>
<polygon fill="none" stroke="#000000" points="10,-171.7 10,-193.7 107,-193.7 107,-171.7 10,-171.7"/>
<image xlink:href="../../images/primaryKeys.png" width="11px" height="12px" preserveAspectRatio="xMinYMin meet" x="15" y="-188.7"/>
<text text-anchor="start" x="30" y="-178.8" font-family="Helvetica,sans-Serif" font-size="11.00" fill="#000000">code</text>
<polygon fill="none" stroke="#000000" points="107,-171.7 107,-193.7 174,-193.7 174,-171.7 107,-171.7"/>
<text text-anchor="start" x="110" y="-179.4" font-family="Helvetica,sans-Serif" font-size="11.00" fill="#000000">varchar[16]</text>
<polygon fill="none" stroke="#000000" points="10,-149.7 10,-171.7 107,-171.7 107,-149.7 10,-149.7"/>
<text text-anchor="start" x="30" y="-156.8" font-family="Helvetica,sans-Serif" font-size="11.00" fill="#000000">description</text>
<polygon fill="none" stroke="#000000" points="107,-149.7 107,-171.7 174,-171.7 174,-149.7 107,-149.7"/>
<text text-anchor="start" x="109.9365" y="-157.4" font-family="Helvetica,sans-Serif" font-size="11.00" fill="#000000">varchar[255]</text>
<polygon fill="#ffffff" stroke="transparent" points="10,-130.7 10,-149.7 63,-149.7 63,-130.7 10,-130.7"/>
<polygon fill="none" stroke="#000000" points="10,-130.7 10,-149.7 63,-149.7 63,-130.7 10,-130.7"/>
<text text-anchor="start" x="13" y="-136.8" font-family="Helvetica,sans-Serif" font-size="11.00" fill="#000000">&lt; 0</text>
<polygon fill="#ffffff" stroke="transparent" points="63,-130.7 63,-149.7 107,-149.7 107,-130.7 63,-130.7"/>
<polygon fill="none" stroke="#000000" points="63,-130.7 63,-149.7 107,-149.7 107,-130.7 63,-130.7"/>
<text text-anchor="start" x="97.8862" y="-136.8" font-family="Helvetica,sans-Serif" font-size="11.00" fill="#000000"> &#160;</text>
<polygon fill="#ffffff" stroke="transparent" points="107,-130.7 107,-149.7 174,-149.7 174,-130.7 107,-130.7"/>
<polygon fill="none" stroke="#000000" points="107,-130.7 107,-149.7 174,-149.7 174,-130.7 107,-130.7"/>
<text text-anchor="start" x="155.4053" y="-136.8" font-family="Helvetica,sans-Serif" font-size="11.00" fill="#000000">2 &gt;</text>
<polygon fill="none" stroke="#000000" stroke-width="2" points="9,-129.7 9,-217.7 175,-217.7 175,-129.7 9,-129.7"/>
</a>
</g>
</g>
<!-- prison_configuration&#45;&gt;policy -->
<g id="edge1" class="edge">
<title>prison_configuration:w&#45;&gt;policy:e</title>
<path fill="none" stroke="#000000" d="M243.2373,-276.1322C205.9109,-260.8655 225.0258,-182.7 174,-182.7"/>
<polygon fill="#000000" stroke="#000000" points="249.6266,-277.2825 256.8621,-282.243 253.5633,-277.9912 257.5,-278.7 257.5,-278.7 257.5,-278.7 253.5633,-277.9912 258.1379,-275.157 249.6266,-277.2825 249.6266,-277.2825"/>
<ellipse fill="none" stroke="#000000" cx="246.4772" cy="-276.7155" rx="3.2" ry="3.2"/>
</g>
<!-- prison_configuration_audit -->
<g id="node3" class="node">
<title>prison_configuration_audit</title>
<g id="a_node3"><a xlink:href="../../tables/prison_configuration_audit.html" xlink:title="prison_configuration_audit" target="_top">
<polygon fill="#ffffff" stroke="transparent" points="225,-38.2 225,-187.2 602,-187.2 602,-38.2 225,-38.2"/>
<polygon fill="#f5f5f5" stroke="transparent" points="225.5,-163.7 225.5,-186.7 602.5,-186.7 602.5,-163.7 225.5,-163.7"/>
<polygon fill="none" stroke="#000000" points="225.5,-163.7 225.5,-186.7 602.5,-186.7 602.5,-163.7 225.5,-163.7"/>
<text text-anchor="start" x="230.5" y="-172.3" font-family="Helvetica,sans-Serif" font-weight="bold" font-size="11.00" fill="#000000">prison_configuration_audit</text>
<text text-anchor="start" x="567.5437" y="-171.8" font-family="Helvetica,sans-Serif" font-size="11.00" fill="#000000">[table]</text>
<polygon fill="none" stroke="#000000" points="225.5,-141.7 225.5,-163.7 602.5,-163.7 602.5,-141.7 225.5,-141.7"/>
<image xlink:href="../../images/primaryKeys.png" width="11px" height="12px" preserveAspectRatio="xMinYMin meet" x="230.5" y="-158.7"/>
<text text-anchor="start" x="245.5" y="-148.8" font-family="Helvetica,sans-Serif" font-size="11.00" fill="#000000">rev_id</text>
<polygon fill="none" stroke="#000000" points="225.5,-119.7 225.5,-141.7 602.5,-141.7 602.5,-119.7 225.5,-119.7"/>
<image xlink:href="../../images/primaryKeys.png" width="11px" height="12px" preserveAspectRatio="xMinYMin meet" x="230.5" y="-136.7"/>
<text text-anchor="start" x="245.5" y="-126.8" font-family="Helvetica,sans-Serif" font-size="11.00" fill="#000000">id</text>
<polygon fill="none" stroke="#000000" points="225.5,-97.7 225.5,-119.7 602.5,-119.7 602.5,-97.7 225.5,-97.7"/>
<image xlink:href="../../images/foreignKeys.png" width="11px" height="12px" preserveAspectRatio="xMinYMin meet" x="230.5" y="-114.7"/>
<text text-anchor="start" x="245.5" y="-104.8" font-family="Helvetica,sans-Serif" font-size="11.00" fill="#000000">prison_code</text>
<polygon fill="none" stroke="#000000" points="225.5,-75.7 225.5,-97.7 602.5,-97.7 602.5,-75.7 225.5,-75.7"/>
<image xlink:href="../../images/foreignKeys.png" width="11px" height="12px" preserveAspectRatio="xMinYMin meet" x="230.5" y="-92.7"/>
<text text-anchor="start" x="245.5" y="-82.8" font-family="Helvetica,sans-Serif" font-size="11.00" fill="#000000">policy_code</text>
<polygon fill="none" stroke="#000000" points="225.5,-56.7 225.5,-75.7 602.5,-75.7 602.5,-56.7 225.5,-56.7"/>
<text text-anchor="start" x="228.5" y="-62.8" font-family="Helvetica,sans-Serif" font-size="11.00" fill="#000000">...</text>
<polygon fill="#ffffff" stroke="transparent" points="225.5,-37.7 225.5,-56.7 412.5,-56.7 412.5,-37.7 225.5,-37.7"/>
<polygon fill="none" stroke="#000000" points="225.5,-37.7 225.5,-56.7 412.5,-56.7 412.5,-37.7 225.5,-37.7"/>
<text text-anchor="start" x="228.5" y="-43.8" font-family="Helvetica,sans-Serif" font-size="11.00" fill="#000000">&lt; 3</text>
<polygon fill="#ffffff" stroke="transparent" points="412.5,-37.7 412.5,-56.7 507.5,-56.7 507.5,-37.7 412.5,-37.7"/>
<polygon fill="none" stroke="#000000" points="412.5,-37.7 412.5,-56.7 507.5,-56.7 507.5,-37.7 412.5,-37.7"/>
<text text-anchor="start" x="498.3862" y="-43.8" font-family="Helvetica,sans-Serif" font-size="11.00" fill="#000000"> &#160;</text>
<polygon fill="#ffffff" stroke="transparent" points="507.5,-37.7 507.5,-56.7 602.5,-56.7 602.5,-37.7 507.5,-37.7"/>
<polygon fill="none" stroke="#000000" points="507.5,-37.7 507.5,-56.7 602.5,-56.7 602.5,-37.7 507.5,-37.7"/>
<text text-anchor="start" x="593.3862" y="-43.8" font-family="Helvetica,sans-Serif" font-size="11.00" fill="#000000"> &#160;</text>
</a>
</g>
</g>
<!-- prison_configuration_audit&#45;&gt;policy -->
<g id="edge2" class="edge">
<title>prison_configuration_audit:w&#45;&gt;policy:e</title>
<path fill="none" stroke="#000000" stroke-dasharray="5,2" d="M211.3716,-90.825C186.9509,-109.2 216.3661,-182.7 174,-182.7"/>
<polygon fill="#000000" stroke="#000000" points="217.8206,-88.9422 226.509,-90.1557 221.6603,-87.8211 225.5,-86.7 225.5,-86.7 225.5,-86.7 221.6603,-87.8211 224.491,-83.2443 217.8206,-88.9422 217.8206,-88.9422"/>
<ellipse fill="none" stroke="#000000" cx="214.7489" cy="-89.839" rx="3.2" ry="3.2"/>
</g>
</g>
</svg>
