<?xml version="1.0" encoding="UTF-8" standalone="no"?>
<!DOCTYPE svg PUBLIC "-//W3C//DTD SVG 1.1//EN"
 "http://www.w3.org/Graphics/SVG/1.1/DTD/svg11.dtd">
<!-- Generated by graphviz version 2.40.1 (20161225.0304)
 -->
<!-- Title: twoDegreesRelationshipsDiagram Pages: 1 -->
<svg width="553pt" height="347pt"
 viewBox="0.00 0.00 553.00 347.20" xmlns="http://www.w3.org/2000/svg" xmlns:xlink="http://www.w3.org/1999/xlink">
<g id="graph0" class="graph" transform="scale(1 1) rotate(0) translate(4 343.2)">
<title>twoDegreesRelationshipsDiagram</title>
<polygon fill="#ffffff" stroke="transparent" points="-4,4 -4,-343.2 549,-343.2 549,4 -4,4"/>
<text text-anchor="middle" x="72.4936" y="-7.3" font-family="Helvetica,sans-Serif" font-size="11.00" fill="#000000">Generated by SchemaSpy</text>
<!-- prison_configuration -->
<g id="node1" class="node">
<title>prison_configuration</title>
<g id="a_node1"><a xlink:href="../../tables/prison_configuration.html" xlink:title="prison_configuration" target="_top">
<polygon fill="#ffffff" stroke="transparent" points="225,-38.2 225,-165.2 537,-165.2 537,-38.2 225,-38.2"/>
<polygon fill="#f5f5f5" stroke="transparent" points="225,-141.7 225,-164.7 537,-164.7 537,-141.7 225,-141.7"/>
<polygon fill="none" stroke="#000000" points="225,-141.7 225,-164.7 537,-164.7 537,-141.7 225,-141.7"/>
<text text-anchor="start" x="230" y="-150.3" font-family="Helvetica,sans-Serif" font-weight="bold" font-size="11.00" fill="#000000">prison_configuration</text>
<text text-anchor="start" x="502.0437" y="-149.8" font-family="Helvetica,sans-Serif" font-size="11.00" fill="#000000">[table]</text>
<polygon fill="#ffffff" stroke="transparent" points="225,-119.7 225,-141.7 537,-141.7 537,-119.7 225,-119.7"/>
<polygon fill="none" stroke="#000000" points="225,-119.7 225,-141.7 537,-141.7 537,-119.7 225,-119.7"/>
<image xlink:href="../../images/foreignKeys.png" width="11px" height="12px" preserveAspectRatio="xMinYMin meet" x="230" y="-136.7"/>
<text text-anchor="start" x="245" y="-126.8" font-family="Helvetica,sans-Serif" font-size="11.00" fill="#000000">prison_code</text>
<polygon fill="#ffffff" stroke="transparent" points="225,-97.7 225,-119.7 537,-119.7 537,-97.7 225,-97.7"/>
<polygon fill="none" stroke="#000000" points="225,-97.7 225,-119.7 537,-119.7 537,-97.7 225,-97.7"/>
<image xlink:href="../../images/foreignKeys.png" width="11px" height="12px" preserveAspectRatio="xMinYMin meet" x="230" y="-114.7"/>
<text text-anchor="start" x="245" y="-104.8" font-family="Helvetica,sans-Serif" font-size="11.00" fill="#000000">policy_code</text>
<polygon fill="none" stroke="#000000" points="225,-75.7 225,-97.7 537,-97.7 537,-75.7 225,-75.7"/>
<image xlink:href="../../images/primaryKeys.png" width="11px" height="12px" preserveAspectRatio="xMinYMin meet" x="230" y="-92.7"/>
<text text-anchor="start" x="245" y="-82.8" font-family="Helvetica,sans-Serif" font-size="11.00" fill="#000000">id</text>
<polygon fill="none" stroke="#000000" points="225,-56.7 225,-75.7 537,-75.7 537,-56.7 225,-56.7"/>
<text text-anchor="start" x="228" y="-62.8" font-family="Helvetica,sans-Serif" font-size="11.00" fill="#000000">...</text>
<polygon fill="#ffffff" stroke="transparent" points="225,-37.7 225,-56.7 363,-56.7 363,-37.7 225,-37.7"/>
<polygon fill="none" stroke="#000000" points="225,-37.7 225,-56.7 363,-56.7 363,-37.7 225,-37.7"/>
<text text-anchor="start" x="228" y="-43.8" font-family="Helvetica,sans-Serif" font-size="11.00" fill="#000000">&lt; 1</text>
<polygon fill="#ffffff" stroke="transparent" points="363,-37.7 363,-56.7 466,-56.7 466,-37.7 363,-37.7"/>
<polygon fill="none" stroke="#000000" points="363,-37.7 363,-56.7 466,-56.7 466,-37.7 363,-37.7"/>
<text text-anchor="start" x="424.4956" y="-43.8" font-family="Helvetica,sans-Serif" font-size="11.00" fill="#000000">12 rows</text>
<polygon fill="#ffffff" stroke="transparent" points="466,-37.7 466,-56.7 537,-56.7 537,-37.7 466,-37.7"/>
<polygon fill="none" stroke="#000000" points="466,-37.7 466,-56.7 537,-56.7 537,-37.7 466,-37.7"/>
<text text-anchor="start" x="527.8862" y="-43.8" font-family="Helvetica,sans-Serif" font-size="11.00" fill="#000000"> &#160;</text>
</a>
</g>
</g>
<!-- policy -->
<g id="node2" class="node">
<title>policy</title>
<g id="a_node2"><a xlink:href="../../tables/policy.html" xlink:title="policy" target="_top">
<polygon fill="#ffffff" stroke="transparent" points="8,-97.7 8,-187.7 176,-187.7 176,-97.7 8,-97.7"/>
<polygon fill="#f5f5f5" stroke="transparent" points="10,-162.7 10,-185.7 174,-185.7 174,-162.7 10,-162.7"/>
<polygon fill="none" stroke="#000000" points="10,-162.7 10,-185.7 174,-185.7 174,-162.7 10,-162.7"/>
<text text-anchor="start" x="15" y="-171.3" font-family="Helvetica,sans-Serif" font-weight="bold" font-size="11.00" fill="#000000">policy</text>
<text text-anchor="start" x="139.0437" y="-170.8" font-family="Helvetica,sans-Serif" font-size="11.00" fill="#000000">[table]</text>
<polygon fill="none" stroke="#000000" points="10,-140.7 10,-162.7 107,-162.7 107,-140.7 10,-140.7"/>
<image xlink:href="../../images/primaryKeys.png" width="11px" height="12px" preserveAspectRatio="xMinYMin meet" x="15" y="-157.7"/>
<text text-anchor="start" x="30" y="-147.8" font-family="Helvetica,sans-Serif" font-size="11.00" fill="#000000">code</text>
<polygon fill="none" stroke="#000000" points="107,-140.7 107,-162.7 174,-162.7 174,-140.7 107,-140.7"/>
<text text-anchor="start" x="110" y="-148.4" font-family="Helvetica,sans-Serif" font-size="11.00" fill="#000000">varchar[16]</text>
<polygon fill="none" stroke="#000000" points="10,-118.7 10,-140.7 107,-140.7 107,-118.7 10,-118.7"/>
<text text-anchor="start" x="30" y="-125.8" font-family="Helvetica,sans-Serif" font-size="11.00" fill="#000000">description</text>
<polygon fill="none" stroke="#000000" points="107,-118.7 107,-140.7 174,-140.7 174,-118.7 107,-118.7"/>
<text text-anchor="start" x="109.9365" y="-126.4" font-family="Helvetica,sans-Serif" font-size="11.00" fill="#000000">varchar[255]</text>
<polygon fill="#ffffff" stroke="transparent" points="10,-99.7 10,-118.7 63,-118.7 63,-99.7 10,-99.7"/>
<polygon fill="none" stroke="#000000" points="10,-99.7 10,-118.7 63,-118.7 63,-99.7 10,-99.7"/>
<text text-anchor="start" x="13" y="-105.8" font-family="Helvetica,sans-Serif" font-size="11.00" fill="#000000">&lt; 0</text>
<polygon fill="#ffffff" stroke="transparent" points="63,-99.7 63,-118.7 107,-118.7 107,-99.7 63,-99.7"/>
<polygon fill="none" stroke="#000000" points="63,-99.7 63,-118.7 107,-118.7 107,-99.7 63,-99.7"/>
<text text-anchor="start" x="97.8862" y="-105.8" font-family="Helvetica,sans-Serif" font-size="11.00" fill="#000000"> &#160;</text>
<polygon fill="#ffffff" stroke="transparent" points="107,-99.7 107,-118.7 174,-118.7 174,-99.7 107,-99.7"/>
<polygon fill="none" stroke="#000000" points="107,-99.7 107,-118.7 174,-118.7 174,-99.7 107,-99.7"/>
<text text-anchor="start" x="155.4053" y="-105.8" font-family="Helvetica,sans-Serif" font-size="11.00" fill="#000000">2 &gt;</text>
<polygon fill="none" stroke="#000000" stroke-width="2" points="9,-98.7 9,-186.7 175,-186.7 175,-98.7 9,-98.7"/>
</a>
</g>
</g>
<!-- prison_configuration&#45;&gt;policy -->
<g id="edge1" class="edge">
<title>prison_configuration:w&#45;&gt;policy:e</title>
<path fill="none" stroke="#000000" d="M210.9939,-113.3018C197.1566,-124.3946 197.6259,-151.7 174,-151.7"/>
<polygon fill="#000000" stroke="#000000" points="217.3997,-111.1971 226.1237,-112.1201 221.1999,-109.9486 225,-108.7 225,-108.7 225,-108.7 221.1999,-109.9486 223.8763,-105.2799 217.3997,-111.1971 217.3997,-111.1971"/>
<ellipse fill="none" stroke="#000000" cx="214.3596" cy="-112.196" rx="3.2" ry="3.2"/>
</g>
<!-- staff_configuration -->
<g id="node3" class="node">
<title>staff_configuration</title>
<g id="a_node3"><a xlink:href="../../tables/staff_configuration.html" xlink:title="staff_configuration" target="_top">
<polygon fill="#ffffff" stroke="transparent" points="297.5,-186.2 297.5,-335.2 464.5,-335.2 464.5,-186.2 297.5,-186.2"/>
<polygon fill="#f5f5f5" stroke="transparent" points="298,-311.7 298,-334.7 465,-334.7 465,-311.7 298,-311.7"/>
<polygon fill="none" stroke="#000000" points="298,-311.7 298,-334.7 465,-334.7 465,-311.7 298,-311.7"/>
<text text-anchor="start" x="303" y="-320.3" font-family="Helvetica,sans-Serif" font-weight="bold" font-size="11.00" fill="#000000">staff_configuration</text>
<text text-anchor="start" x="430.5219" y="-319.8" font-family="Helvetica,sans-Serif" font-size="11.00" fill="#000000">[table]</text>
<polygon fill="#ffffff" stroke="transparent" points="298,-289.7 298,-311.7 465,-311.7 465,-289.7 298,-289.7"/>
<polygon fill="none" stroke="#000000" points="298,-289.7 298,-311.7 465,-311.7 465,-289.7 298,-289.7"/>
<text text-anchor="start" x="319" y="-296.8" font-family="Helvetica,sans-Serif" font-size="11.00" fill="#000000">staff_id</text>
<polygon fill="none" stroke="#000000" points="298,-267.7 298,-289.7 465,-289.7 465,-267.7 298,-267.7"/>
<image xlink:href="../../images/foreignKeys.png" width="11px" height="12px" preserveAspectRatio="xMinYMin meet" x="303" y="-284.7"/>
<text text-anchor="start" x="319" y="-274.8" font-family="Helvetica,sans-Serif" font-size="11.00" fill="#000000">status_id</text>
<polygon fill="#ffffff" stroke="transparent" points="298,-245.7 298,-267.7 465,-267.7 465,-245.7 298,-245.7"/>
<polygon fill="none" stroke="#000000" points="298,-245.7 298,-267.7 465,-267.7 465,-245.7 298,-245.7"/>
<image xlink:href="../../images/foreignKeys.png" width="11px" height="12px" preserveAspectRatio="xMinYMin meet" x="303" y="-262.7"/>
<text text-anchor="start" x="319" y="-252.8" font-family="Helvetica,sans-Serif" font-size="11.00" fill="#000000">policy_code</text>
<polygon fill="none" stroke="#000000" points="298,-223.7 298,-245.7 465,-245.7 465,-223.7 298,-223.7"/>
<image xlink:href="../../images/primaryKeys.png" width="11px" height="12px" preserveAspectRatio="xMinYMin meet" x="303" y="-240.7"/>
<text text-anchor="start" x="319" y="-230.8" font-family="Helvetica,sans-Serif" font-size="11.00" fill="#000000">id</text>
<polygon fill="none" stroke="#000000" points="298,-204.7 298,-223.7 465,-223.7 465,-204.7 298,-204.7"/>
<text text-anchor="start" x="301" y="-210.8" font-family="Helvetica,sans-Serif" font-size="11.00" fill="#000000">...</text>
<polygon fill="#ffffff" stroke="transparent" points="298,-185.7 298,-204.7 380,-204.7 380,-185.7 298,-185.7"/>
<polygon fill="none" stroke="#000000" points="298,-185.7 298,-204.7 380,-204.7 380,-185.7 298,-185.7"/>
<text text-anchor="start" x="301" y="-191.8" font-family="Helvetica,sans-Serif" font-size="11.00" fill="#000000">&lt; 2</text>
<polygon fill="#ffffff" stroke="transparent" points="380,-185.7 380,-204.7 422,-204.7 422,-185.7 380,-185.7"/>
<polygon fill="none" stroke="#000000" points="380,-185.7 380,-204.7 422,-204.7 422,-185.7 380,-185.7"/>
<text text-anchor="start" x="412.8862" y="-191.8" font-family="Helvetica,sans-Serif" font-size="11.00" fill="#000000"> &#160;</text>
<polygon fill="#ffffff" stroke="transparent" points="422,-185.7 422,-204.7 465,-204.7 465,-185.7 422,-185.7"/>
<polygon fill="none" stroke="#000000" points="422,-185.7 422,-204.7 465,-204.7 465,-185.7 422,-185.7"/>
<text text-anchor="start" x="455.8862" y="-191.8" font-family="Helvetica,sans-Serif" font-size="11.00" fill="#000000"> &#160;</text>
</a>
</g>
</g>
<!-- staff_configuration&#45;&gt;policy -->
<g id="edge2" class="edge">
<title>staff_configuration:w&#45;&gt;policy:e</title>
<path fill="none" stroke="#000000" d="M283.786,-252.1883C249.1912,-232.0906 205.5941,-151.7 174,-151.7"/>
<polygon fill="#000000" stroke="#000000" points="290.3749,-254.2796 296.9108,-260.1313 294.1875,-255.4898 298,-256.7 298,-256.7 298,-256.7 294.1875,-255.4898 299.0892,-253.2687 290.3749,-254.2796 290.3749,-254.2796"/>
<ellipse fill="none" stroke="#000000" cx="287.3249" cy="-253.3115" rx="3.2" ry="3.2"/>
</g>
<!-- reference_data -->
<g id="node4" class="node">
<title>reference_data</title>
<g id="a_node4"><a xlink:href="../../tables/reference_data.html" xlink:title="reference_data" target="_top">
<polygon fill="#ffffff" stroke="transparent" points="22,-251.2 22,-312.2 162,-312.2 162,-251.2 22,-251.2"/>
<polygon fill="#f5f5f5" stroke="transparent" points="22,-288.7 22,-311.7 162,-311.7 162,-288.7 22,-288.7"/>
<polygon fill="none" stroke="#000000" points="22,-288.7 22,-311.7 162,-311.7 162,-288.7 22,-288.7"/>
<text text-anchor="start" x="27" y="-297.3" font-family="Helvetica,sans-Serif" font-weight="bold" font-size="11.00" fill="#000000">reference_data</text>
<text text-anchor="start" x="127.5219" y="-296.8" font-family="Helvetica,sans-Serif" font-size="11.00" fill="#000000">[table]</text>
<polygon fill="none" stroke="#000000" points="22,-269.7 22,-288.7 162,-288.7 162,-269.7 22,-269.7"/>
<text text-anchor="start" x="25" y="-275.8" font-family="Helvetica,sans-Serif" font-size="11.00" fill="#000000">...</text>
<polygon fill="#ffffff" stroke="transparent" points="22,-250.7 22,-269.7 81,-269.7 81,-250.7 22,-250.7"/>
<polygon fill="none" stroke="#000000" points="22,-250.7 22,-269.7 81,-269.7 81,-250.7 22,-250.7"/>
<text text-anchor="start" x="25" y="-256.8" font-family="Helvetica,sans-Serif" font-size="11.00" fill="#000000"> &#160;</text>
<polygon fill="#ffffff" stroke="transparent" points="81,-250.7 81,-269.7 117,-269.7 117,-250.7 81,-250.7"/>
<polygon fill="none" stroke="#000000" points="81,-250.7 81,-269.7 117,-269.7 117,-250.7 81,-250.7"/>
<text text-anchor="start" x="107.8862" y="-256.8" font-family="Helvetica,sans-Serif" font-size="11.00" fill="#000000"> &#160;</text>
<polygon fill="#ffffff" stroke="transparent" points="117,-250.7 117,-269.7 162,-269.7 162,-250.7 117,-250.7"/>
<polygon fill="none" stroke="#000000" points="117,-250.7 117,-269.7 162,-269.7 162,-250.7 117,-250.7"/>
<text text-anchor="start" x="143.4053" y="-256.8" font-family="Helvetica,sans-Serif" font-size="11.00" fill="#000000">3 &gt;</text>
</a>
</g>
</g>
<!-- staff_configuration&#45;&gt;reference_data -->
<g id="edge3" class="edge">
<title>staff_configuration:w&#45;&gt;reference_data:e</title>
<path fill="none" stroke="#000000" d="M283.3635,-278.7C234.6235,-278.7 217.25,-278.7 162,-278.7"/>
<polygon fill="#000000" stroke="#000000" points="290,-278.7001 298,-282.3 294,-278.7 298,-278.7 298,-278.7 298,-278.7 294,-278.7 298,-275.1 290,-278.7001 290,-278.7001"/>
<ellipse fill="none" stroke="#000000" cx="286.8" cy="-278.7001" rx="3.2" ry="3.2"/>
</g>
</g>
</svg>
