<?xml version="1.0" encoding="UTF-8" standalone="no"?>
<!DOCTYPE svg PUBLIC "-//W3C//DTD SVG 1.1//EN"
 "http://www.w3.org/Graphics/SVG/1.1/DTD/svg11.dtd">
<!-- Generated by graphviz version 2.40.1 (20161225.0304)
 -->
<!-- Title: oneDegreeRelationshipsDiagram Pages: 1 -->
<svg width="553pt" height="177pt"
 viewBox="0.00 0.00 553.00 177.20" xmlns="http://www.w3.org/2000/svg" xmlns:xlink="http://www.w3.org/1999/xlink">
<g id="graph0" class="graph" transform="scale(1 1) rotate(0) translate(4 173.2)">
<title>oneDegreeRelationshipsDiagram</title>
<polygon fill="#ffffff" stroke="transparent" points="-4,4 -4,-173.2 549,-173.2 549,4 -4,4"/>
<text text-anchor="middle" x="72.4936" y="-7.3" font-family="Helvetica,sans-Serif" font-size="11.00" fill="#000000">Generated by SchemaSpy</text>
<!-- prison_configuration -->
<g id="node1" class="node">
<title>prison_configuration</title>
<g id="a_node1"><a xlink:href="../../tables/prison_configuration.html" xlink:title="prison_configuration" target="_top">
<polygon fill="#ffffff" stroke="transparent" points="225,-38.2 225,-165.2 537,-165.2 537,-38.2 225,-38.2"/>
<polygon fill="#f5f5f5" stroke="transparent" points="225,-141.7 225,-164.7 537,-164.7 537,-141.7 225,-141.7"/>
<polygon fill="none" stroke="#000000" points="225,-141.7 225,-164.7 537,-164.7 537,-141.7 225,-141.7"/>
<text text-anchor="start" x="230" y="-150.3" font-family="Helvetica,sans-Serif" font-weight="bold" font-size="11.00" fill="#000000">prison_configuration</text>
<text text-anchor="start" x="502.0437" y="-149.8" font-family="Helvetica,sans-Serif" font-size="11.00" fill="#000000">[table]</text>
<polygon fill="#ffffff" stroke="transparent" points="225,-119.7 225,-141.7 537,-141.7 537,-119.7 225,-119.7"/>
<polygon fill="none" stroke="#000000" points="225,-119.7 225,-141.7 537,-141.7 537,-119.7 225,-119.7"/>
<image xlink:href="../../images/foreignKeys.png" width="11px" height="12px" preserveAspectRatio="xMinYMin meet" x="230" y="-136.7"/>
<text text-anchor="start" x="245" y="-126.8" font-family="Helvetica,sans-Serif" font-size="11.00" fill="#000000">prison_code</text>
<polygon fill="#ffffff" stroke="transparent" points="225,-97.7 225,-119.7 537,-119.7 537,-97.7 225,-97.7"/>
<polygon fill="none" stroke="#000000" points="225,-97.7 225,-119.7 537,-119.7 537,-97.7 225,-97.7"/>
<image xlink:href="../../images/foreignKeys.png" width="11px" height="12px" preserveAspectRatio="xMinYMin meet" x="230" y="-114.7"/>
<text text-anchor="start" x="245" y="-104.8" font-family="Helvetica,sans-Serif" font-size="11.00" fill="#000000">policy_code</text>
<polygon fill="none" stroke="#000000" points="225,-75.7 225,-97.7 537,-97.7 537,-75.7 225,-75.7"/>
<image xlink:href="../../images/primaryKeys.png" width="11px" height="12px" preserveAspectRatio="xMinYMin meet" x="230" y="-92.7"/>
<text text-anchor="start" x="245" y="-82.8" font-family="Helvetica,sans-Serif" font-size="11.00" fill="#000000">id</text>
<polygon fill="none" stroke="#000000" points="225,-56.7 225,-75.7 537,-75.7 537,-56.7 225,-56.7"/>
<text text-anchor="start" x="228" y="-62.8" font-family="Helvetica,sans-Serif" font-size="11.00" fill="#000000">...</text>
<polygon fill="#ffffff" stroke="transparent" points="225,-37.7 225,-56.7 363,-56.7 363,-37.7 225,-37.7"/>
<polygon fill="none" stroke="#000000" points="225,-37.7 225,-56.7 363,-56.7 363,-37.7 225,-37.7"/>
<text text-anchor="start" x="228" y="-43.8" font-family="Helvetica,sans-Serif" font-size="11.00" fill="#000000">&lt; 1</text>
<polygon fill="#ffffff" stroke="transparent" points="363,-37.7 363,-56.7 466,-56.7 466,-37.7 363,-37.7"/>
<polygon fill="none" stroke="#000000" points="363,-37.7 363,-56.7 466,-56.7 466,-37.7 363,-37.7"/>
<text text-anchor="start" x="424.4956" y="-43.8" font-family="Helvetica,sans-Serif" font-size="11.00" fill="#000000">12 rows</text>
<polygon fill="#ffffff" stroke="transparent" points="466,-37.7 466,-56.7 537,-56.7 537,-37.7 466,-37.7"/>
<polygon fill="none" stroke="#000000" points="466,-37.7 466,-56.7 537,-56.7 537,-37.7 466,-37.7"/>
<text text-anchor="start" x="527.8862" y="-43.8" font-family="Helvetica,sans-Serif" font-size="11.00" fill="#000000"> &#160;</text>
</a>
</g>
</g>
<!-- policy -->
<g id="node2" class="node">
<title>policy</title>
<g id="a_node2"><a xlink:href="../../tables/policy.html" xlink:title="policy" target="_top">
<polygon fill="#ffffff" stroke="transparent" points="8,-54.7 8,-144.7 176,-144.7 176,-54.7 8,-54.7"/>
<polygon fill="#f5f5f5" stroke="transparent" points="10,-119.7 10,-142.7 174,-142.7 174,-119.7 10,-119.7"/>
<polygon fill="none" stroke="#000000" points="10,-119.7 10,-142.7 174,-142.7 174,-119.7 10,-119.7"/>
<text text-anchor="start" x="15" y="-128.3" font-family="Helvetica,sans-Serif" font-weight="bold" font-size="11.00" fill="#000000">policy</text>
<text text-anchor="start" x="139.0437" y="-127.8" font-family="Helvetica,sans-Serif" font-size="11.00" fill="#000000">[table]</text>
<polygon fill="none" stroke="#000000" points="10,-97.7 10,-119.7 107,-119.7 107,-97.7 10,-97.7"/>
<image xlink:href="../../images/primaryKeys.png" width="11px" height="12px" preserveAspectRatio="xMinYMin meet" x="15" y="-114.7"/>
<text text-anchor="start" x="30" y="-104.8" font-family="Helvetica,sans-Serif" font-size="11.00" fill="#000000">code</text>
<polygon fill="none" stroke="#000000" points="107,-97.7 107,-119.7 174,-119.7 174,-97.7 107,-97.7"/>
<text text-anchor="start" x="110" y="-105.4" font-family="Helvetica,sans-Serif" font-size="11.00" fill="#000000">varchar[16]</text>
<polygon fill="none" stroke="#000000" points="10,-75.7 10,-97.7 107,-97.7 107,-75.7 10,-75.7"/>
<text text-anchor="start" x="30" y="-82.8" font-family="Helvetica,sans-Serif" font-size="11.00" fill="#000000">description</text>
<polygon fill="none" stroke="#000000" points="107,-75.7 107,-97.7 174,-97.7 174,-75.7 107,-75.7"/>
<text text-anchor="start" x="109.9365" y="-83.4" font-family="Helvetica,sans-Serif" font-size="11.00" fill="#000000">varchar[255]</text>
<polygon fill="#ffffff" stroke="transparent" points="10,-56.7 10,-75.7 63,-75.7 63,-56.7 10,-56.7"/>
<polygon fill="none" stroke="#000000" points="10,-56.7 10,-75.7 63,-75.7 63,-56.7 10,-56.7"/>
<text text-anchor="start" x="13" y="-62.8" font-family="Helvetica,sans-Serif" font-size="11.00" fill="#000000">&lt; 0</text>
<polygon fill="#ffffff" stroke="transparent" points="63,-56.7 63,-75.7 107,-75.7 107,-56.7 63,-56.7"/>
<polygon fill="none" stroke="#000000" points="63,-56.7 63,-75.7 107,-75.7 107,-56.7 63,-56.7"/>
<text text-anchor="start" x="97.8862" y="-62.8" font-family="Helvetica,sans-Serif" font-size="11.00" fill="#000000"> &#160;</text>
<polygon fill="#ffffff" stroke="transparent" points="107,-56.7 107,-75.7 174,-75.7 174,-56.7 107,-56.7"/>
<polygon fill="none" stroke="#000000" points="107,-56.7 107,-75.7 174,-75.7 174,-56.7 107,-56.7"/>
<text text-anchor="start" x="155.4053" y="-62.8" font-family="Helvetica,sans-Serif" font-size="11.00" fill="#000000">1 &gt;</text>
<polygon fill="none" stroke="#000000" stroke-width="2" points="9,-55.7 9,-143.7 175,-143.7 175,-55.7 9,-55.7"/>
</a>
</g>
</g>
<!-- prison_configuration&#45;&gt;policy -->
<g id="edge1" class="edge">
<title>prison_configuration:w&#45;&gt;policy:e</title>
<path fill="none" stroke="#000000" d="M210.276,-108.7C198.2815,-108.7 190.8229,-108.7 174,-108.7"/>
<polygon fill="#000000" stroke="#000000" points="217,-108.7001 225,-112.3 221,-108.7 225,-108.7 225,-108.7 225,-108.7 221,-108.7 225,-105.1 217,-108.7001 217,-108.7001"/>
<ellipse fill="none" stroke="#000000" cx="213.8" cy="-108.7001" rx="3.2" ry="3.2"/>
</g>
</g>
</svg>
