<?xml version="1.0" encoding="UTF-8" standalone="no"?>
<!DOCTYPE svg PUBLIC "-//W3C//DTD SVG 1.1//EN"
 "http://www.w3.org/Graphics/SVG/1.1/DTD/svg11.dtd">
<!-- Generated by graphviz version 2.40.1 (20161225.0304)
 -->
<!-- Title: twoDegreesRelationshipsDiagramImplied Pages: 1 -->
<svg width="693pt" height="1005pt"
 viewBox="0.00 0.00 693.00 1005.20" xmlns="http://www.w3.org/2000/svg" xmlns:xlink="http://www.w3.org/1999/xlink">
<g id="graph0" class="graph" transform="scale(1 1) rotate(0) translate(4 1001.2)">
<title>twoDegreesRelationshipsDiagramImplied</title>
<polygon fill="#ffffff" stroke="transparent" points="-4,4 -4,-1001.2 689,-1001.2 689,4 -4,4"/>
<text text-anchor="middle" x="72.4936" y="-7.3" font-family="Helvetica,sans-Serif" font-size="11.00" fill="#000000">Generated by SchemaSpy</text>
<!-- prison_configuration -->
<g id="node1" class="node">
<title>prison_configuration</title>
<g id="a_node1"><a xlink:href="../../tables/prison_configuration.html" xlink:title="prison_configuration" target="_top">
<polygon fill="#ffffff" stroke="transparent" points="332.5,-526.2 332.5,-653.2 644.5,-653.2 644.5,-526.2 332.5,-526.2"/>
<polygon fill="#f5f5f5" stroke="transparent" points="332.5,-629.7 332.5,-652.7 644.5,-652.7 644.5,-629.7 332.5,-629.7"/>
<polygon fill="none" stroke="#000000" points="332.5,-629.7 332.5,-652.7 644.5,-652.7 644.5,-629.7 332.5,-629.7"/>
<text text-anchor="start" x="337.5" y="-638.3" font-family="Helvetica,sans-Serif" font-weight="bold" font-size="11.00" fill="#000000">prison_configuration</text>
<text text-anchor="start" x="609.5437" y="-637.8" font-family="Helvetica,sans-Serif" font-size="11.00" fill="#000000">[table]</text>
<polygon fill="#ffffff" stroke="transparent" points="332.5,-607.7 332.5,-629.7 644.5,-629.7 644.5,-607.7 332.5,-607.7"/>
<polygon fill="none" stroke="#000000" points="332.5,-607.7 332.5,-629.7 644.5,-629.7 644.5,-607.7 332.5,-607.7"/>
<image xlink:href="../../images/foreignKeys.png" width="11px" height="12px" preserveAspectRatio="xMinYMin meet" x="337.5" y="-624.7"/>
<text text-anchor="start" x="352.5" y="-614.8" font-family="Helvetica,sans-Serif" font-size="11.00" fill="#000000">prison_code</text>
<polygon fill="#ffffff" stroke="transparent" points="332.5,-585.7 332.5,-607.7 644.5,-607.7 644.5,-585.7 332.5,-585.7"/>
<polygon fill="none" stroke="#000000" points="332.5,-585.7 332.5,-607.7 644.5,-607.7 644.5,-585.7 332.5,-585.7"/>
<image xlink:href="../../images/foreignKeys.png" width="11px" height="12px" preserveAspectRatio="xMinYMin meet" x="337.5" y="-602.7"/>
<text text-anchor="start" x="352.5" y="-592.8" font-family="Helvetica,sans-Serif" font-size="11.00" fill="#000000">policy_code</text>
<polygon fill="none" stroke="#000000" points="332.5,-563.7 332.5,-585.7 644.5,-585.7 644.5,-563.7 332.5,-563.7"/>
<image xlink:href="../../images/primaryKeys.png" width="11px" height="12px" preserveAspectRatio="xMinYMin meet" x="337.5" y="-580.7"/>
<text text-anchor="start" x="352.5" y="-570.8" font-family="Helvetica,sans-Serif" font-size="11.00" fill="#000000">id</text>
<polygon fill="none" stroke="#000000" points="332.5,-544.7 332.5,-563.7 644.5,-563.7 644.5,-544.7 332.5,-544.7"/>
<text text-anchor="start" x="335.5" y="-550.8" font-family="Helvetica,sans-Serif" font-size="11.00" fill="#000000">...</text>
<polygon fill="#ffffff" stroke="transparent" points="332.5,-525.7 332.5,-544.7 470.5,-544.7 470.5,-525.7 332.5,-525.7"/>
<polygon fill="none" stroke="#000000" points="332.5,-525.7 332.5,-544.7 470.5,-544.7 470.5,-525.7 332.5,-525.7"/>
<text text-anchor="start" x="335.5" y="-531.8" font-family="Helvetica,sans-Serif" font-size="11.00" fill="#000000">&lt; 2</text>
<polygon fill="#ffffff" stroke="transparent" points="470.5,-525.7 470.5,-544.7 573.5,-544.7 573.5,-525.7 470.5,-525.7"/>
<polygon fill="none" stroke="#000000" points="470.5,-525.7 470.5,-544.7 573.5,-544.7 573.5,-525.7 470.5,-525.7"/>
<text text-anchor="start" x="531.9956" y="-531.8" font-family="Helvetica,sans-Serif" font-size="11.00" fill="#000000">12 rows</text>
<polygon fill="#ffffff" stroke="transparent" points="573.5,-525.7 573.5,-544.7 644.5,-544.7 644.5,-525.7 573.5,-525.7"/>
<polygon fill="none" stroke="#000000" points="573.5,-525.7 573.5,-544.7 644.5,-544.7 644.5,-525.7 573.5,-525.7"/>
<text text-anchor="start" x="635.3862" y="-531.8" font-family="Helvetica,sans-Serif" font-size="11.00" fill="#000000"> &#160;</text>
</a>
</g>
</g>
<!-- policy -->
<g id="node2" class="node">
<title>policy</title>
<g id="a_node2"><a xlink:href="../../tables/policy.html" xlink:title="policy" target="_top">
<polygon fill="#ffffff" stroke="transparent" points="45.5,-372.7 45.5,-462.7 213.5,-462.7 213.5,-372.7 45.5,-372.7"/>
<polygon fill="#f5f5f5" stroke="transparent" points="47.5,-437.7 47.5,-460.7 211.5,-460.7 211.5,-437.7 47.5,-437.7"/>
<polygon fill="none" stroke="#000000" points="47.5,-437.7 47.5,-460.7 211.5,-460.7 211.5,-437.7 47.5,-437.7"/>
<text text-anchor="start" x="52.5" y="-446.3" font-family="Helvetica,sans-Serif" font-weight="bold" font-size="11.00" fill="#000000">policy</text>
<text text-anchor="start" x="176.5437" y="-445.8" font-family="Helvetica,sans-Serif" font-size="11.00" fill="#000000">[table]</text>
<polygon fill="none" stroke="#000000" points="47.5,-415.7 47.5,-437.7 144.5,-437.7 144.5,-415.7 47.5,-415.7"/>
<image xlink:href="../../images/primaryKeys.png" width="11px" height="12px" preserveAspectRatio="xMinYMin meet" x="52.5" y="-432.7"/>
<text text-anchor="start" x="67.5" y="-422.8" font-family="Helvetica,sans-Serif" font-size="11.00" fill="#000000">code</text>
<polygon fill="none" stroke="#000000" points="144.5,-415.7 144.5,-437.7 211.5,-437.7 211.5,-415.7 144.5,-415.7"/>
<text text-anchor="start" x="147.5" y="-423.4" font-family="Helvetica,sans-Serif" font-size="11.00" fill="#000000">varchar[16]</text>
<polygon fill="none" stroke="#000000" points="47.5,-393.7 47.5,-415.7 144.5,-415.7 144.5,-393.7 47.5,-393.7"/>
<text text-anchor="start" x="67.5" y="-400.8" font-family="Helvetica,sans-Serif" font-size="11.00" fill="#000000">description</text>
<polygon fill="none" stroke="#000000" points="144.5,-393.7 144.5,-415.7 211.5,-415.7 211.5,-393.7 144.5,-393.7"/>
<text text-anchor="start" x="147.4365" y="-401.4" font-family="Helvetica,sans-Serif" font-size="11.00" fill="#000000">varchar[255]</text>
<polygon fill="#ffffff" stroke="transparent" points="47.5,-374.7 47.5,-393.7 100.5,-393.7 100.5,-374.7 47.5,-374.7"/>
<polygon fill="none" stroke="#000000" points="47.5,-374.7 47.5,-393.7 100.5,-393.7 100.5,-374.7 47.5,-374.7"/>
<text text-anchor="start" x="50.5" y="-380.8" font-family="Helvetica,sans-Serif" font-size="11.00" fill="#000000">&lt; 0</text>
<polygon fill="#ffffff" stroke="transparent" points="100.5,-374.7 100.5,-393.7 144.5,-393.7 144.5,-374.7 100.5,-374.7"/>
<polygon fill="none" stroke="#000000" points="100.5,-374.7 100.5,-393.7 144.5,-393.7 144.5,-374.7 100.5,-374.7"/>
<text text-anchor="start" x="135.3862" y="-380.8" font-family="Helvetica,sans-Serif" font-size="11.00" fill="#000000"> &#160;</text>
<polygon fill="#ffffff" stroke="transparent" points="144.5,-374.7 144.5,-393.7 211.5,-393.7 211.5,-374.7 144.5,-374.7"/>
<polygon fill="none" stroke="#000000" points="144.5,-374.7 144.5,-393.7 211.5,-393.7 211.5,-374.7 144.5,-374.7"/>
<text text-anchor="start" x="192.9053" y="-380.8" font-family="Helvetica,sans-Serif" font-size="11.00" fill="#000000">6 &gt;</text>
<polygon fill="none" stroke="#000000" stroke-width="2" points="46.5,-373.7 46.5,-461.7 212.5,-461.7 212.5,-373.7 46.5,-373.7"/>
</a>
</g>
</g>
<!-- prison_configuration&#45;&gt;policy -->
<g id="edge1" class="edge">
<title>prison_configuration:w&#45;&gt;policy:e</title>
<path fill="none" stroke="#000000" d="M317.7541,-595.0175C246.7765,-577.3618 298.8059,-426.7 211.5,-426.7"/>
<polygon fill="#000000" stroke="#000000" points="324.5516,-595.793 332.0919,-600.2768 328.5258,-596.2465 332.5,-596.7 332.5,-596.7 332.5,-596.7 328.5258,-596.2465 332.9081,-593.1232 324.5516,-595.793 324.5516,-595.793"/>
<ellipse fill="none" stroke="#000000" cx="321.3722" cy="-595.4302" rx="3.2" ry="3.2"/>
</g>
<!-- prison_migration_date_history -->
<g id="node3" class="node">
<title>prison_migration_date_history</title>
<g id="a_node3"><a xlink:href="../../tables/prison_migration_date_history.html" xlink:title="prison_migration_date_history" target="_top">
<polygon fill="#ffffff" stroke="transparent" points="8,-654.2 8,-715.2 251,-715.2 251,-654.2 8,-654.2"/>
<polygon fill="#f5f5f5" stroke="transparent" points="8.5,-691.7 8.5,-714.7 251.5,-714.7 251.5,-691.7 8.5,-691.7"/>
<polygon fill="none" stroke="#000000" points="8.5,-691.7 8.5,-714.7 251.5,-714.7 251.5,-691.7 8.5,-691.7"/>
<text text-anchor="start" x="13.5" y="-700.3" font-family="Helvetica,sans-Serif" font-weight="bold" font-size="11.00" fill="#000000">prison_migration_date_history</text>
<text text-anchor="start" x="217.0219" y="-699.8" font-family="Helvetica,sans-Serif" font-size="11.00" fill="#000000">[table]</text>
<polygon fill="none" stroke="#000000" points="8.5,-672.7 8.5,-691.7 251.5,-691.7 251.5,-672.7 8.5,-672.7"/>
<text text-anchor="start" x="11.5" y="-678.8" font-family="Helvetica,sans-Serif" font-size="11.00" fill="#000000">...</text>
<polygon fill="#ffffff" stroke="transparent" points="8.5,-653.7 8.5,-672.7 119.5,-672.7 119.5,-653.7 8.5,-653.7"/>
<polygon fill="none" stroke="#000000" points="8.5,-653.7 8.5,-672.7 119.5,-672.7 119.5,-653.7 8.5,-653.7"/>
<text text-anchor="start" x="11.5" y="-659.8" font-family="Helvetica,sans-Serif" font-size="11.00" fill="#000000"> &#160;</text>
<polygon fill="#ffffff" stroke="transparent" points="119.5,-653.7 119.5,-672.7 180.5,-672.7 180.5,-653.7 119.5,-653.7"/>
<polygon fill="none" stroke="#000000" points="119.5,-653.7 119.5,-672.7 180.5,-672.7 180.5,-653.7 119.5,-653.7"/>
<text text-anchor="start" x="171.3862" y="-659.8" font-family="Helvetica,sans-Serif" font-size="11.00" fill="#000000"> &#160;</text>
<polygon fill="#ffffff" stroke="transparent" points="180.5,-653.7 180.5,-672.7 251.5,-672.7 251.5,-653.7 180.5,-653.7"/>
<polygon fill="none" stroke="#000000" points="180.5,-653.7 180.5,-672.7 251.5,-672.7 251.5,-653.7 180.5,-653.7"/>
<text text-anchor="start" x="232.9053" y="-659.8" font-family="Helvetica,sans-Serif" font-size="11.00" fill="#000000">6 &gt;</text>
</a>
</g>
</g>
<!-- prison_configuration&#45;&gt;prison_migration_date_history -->
<g id="edge2" class="edge">
<title>prison_configuration:w&#45;&gt;prison_migration_date_history:e</title>
<path fill="none" stroke="#000000" stroke-dasharray="5,2" d="M318.1892,-621.2477C288.5482,-633.034 291.5843,-681.7 251.5,-681.7"/>
<polygon fill="#000000" stroke="#000000" points="324.6238,-620.1022 333.131,-622.2443 328.5619,-619.4011 332.5,-618.7 332.5,-618.7 332.5,-618.7 328.5619,-619.4011 331.869,-615.1557 324.6238,-620.1022 324.6238,-620.1022"/>
<ellipse fill="none" stroke="#000000" cx="321.4734" cy="-620.6631" rx="3.2" ry="3.2"/>
</g>
<!-- prison_configuration_audit -->
<g id="node4" class="node">
<title>prison_configuration_audit</title>
<g id="a_node4"><a xlink:href="../../tables/prison_configuration_audit.html" xlink:title="prison_configuration_audit" target="_top">
<polygon fill="#ffffff" stroke="transparent" points="300,-844.2 300,-993.2 677,-993.2 677,-844.2 300,-844.2"/>
<polygon fill="#f5f5f5" stroke="transparent" points="300.5,-969.7 300.5,-992.7 677.5,-992.7 677.5,-969.7 300.5,-969.7"/>
<polygon fill="none" stroke="#000000" points="300.5,-969.7 300.5,-992.7 677.5,-992.7 677.5,-969.7 300.5,-969.7"/>
<text text-anchor="start" x="305.5" y="-978.3" font-family="Helvetica,sans-Serif" font-weight="bold" font-size="11.00" fill="#000000">prison_configuration_audit</text>
<text text-anchor="start" x="642.5437" y="-977.8" font-family="Helvetica,sans-Serif" font-size="11.00" fill="#000000">[table]</text>
<polygon fill="none" stroke="#000000" points="300.5,-947.7 300.5,-969.7 677.5,-969.7 677.5,-947.7 300.5,-947.7"/>
<image xlink:href="../../images/primaryKeys.png" width="11px" height="12px" preserveAspectRatio="xMinYMin meet" x="305.5" y="-964.7"/>
<text text-anchor="start" x="320.5" y="-954.8" font-family="Helvetica,sans-Serif" font-size="11.00" fill="#000000">rev_id</text>
<polygon fill="none" stroke="#000000" points="300.5,-925.7 300.5,-947.7 677.5,-947.7 677.5,-925.7 300.5,-925.7"/>
<image xlink:href="../../images/primaryKeys.png" width="11px" height="12px" preserveAspectRatio="xMinYMin meet" x="305.5" y="-942.7"/>
<text text-anchor="start" x="320.5" y="-932.8" font-family="Helvetica,sans-Serif" font-size="11.00" fill="#000000">id</text>
<polygon fill="none" stroke="#000000" points="300.5,-903.7 300.5,-925.7 677.5,-925.7 677.5,-903.7 300.5,-903.7"/>
<image xlink:href="../../images/foreignKeys.png" width="11px" height="12px" preserveAspectRatio="xMinYMin meet" x="305.5" y="-920.7"/>
<text text-anchor="start" x="320.5" y="-910.8" font-family="Helvetica,sans-Serif" font-size="11.00" fill="#000000">prison_code</text>
<polygon fill="none" stroke="#000000" points="300.5,-881.7 300.5,-903.7 677.5,-903.7 677.5,-881.7 300.5,-881.7"/>
<image xlink:href="../../images/foreignKeys.png" width="11px" height="12px" preserveAspectRatio="xMinYMin meet" x="305.5" y="-898.7"/>
<text text-anchor="start" x="320.5" y="-888.8" font-family="Helvetica,sans-Serif" font-size="11.00" fill="#000000">policy_code</text>
<polygon fill="none" stroke="#000000" points="300.5,-862.7 300.5,-881.7 677.5,-881.7 677.5,-862.7 300.5,-862.7"/>
<text text-anchor="start" x="303.5" y="-868.8" font-family="Helvetica,sans-Serif" font-size="11.00" fill="#000000">...</text>
<polygon fill="#ffffff" stroke="transparent" points="300.5,-843.7 300.5,-862.7 487.5,-862.7 487.5,-843.7 300.5,-843.7"/>
<polygon fill="none" stroke="#000000" points="300.5,-843.7 300.5,-862.7 487.5,-862.7 487.5,-843.7 300.5,-843.7"/>
<text text-anchor="start" x="303.5" y="-849.8" font-family="Helvetica,sans-Serif" font-size="11.00" fill="#000000">&lt; 3</text>
<polygon fill="#ffffff" stroke="transparent" points="487.5,-843.7 487.5,-862.7 582.5,-862.7 582.5,-843.7 487.5,-843.7"/>
<polygon fill="none" stroke="#000000" points="487.5,-843.7 487.5,-862.7 582.5,-862.7 582.5,-843.7 487.5,-843.7"/>
<text text-anchor="start" x="573.3862" y="-849.8" font-family="Helvetica,sans-Serif" font-size="11.00" fill="#000000"> &#160;</text>
<polygon fill="#ffffff" stroke="transparent" points="582.5,-843.7 582.5,-862.7 677.5,-862.7 677.5,-843.7 582.5,-843.7"/>
<polygon fill="none" stroke="#000000" points="582.5,-843.7 582.5,-862.7 677.5,-862.7 677.5,-843.7 582.5,-843.7"/>
<text text-anchor="start" x="668.3862" y="-849.8" font-family="Helvetica,sans-Serif" font-size="11.00" fill="#000000"> &#160;</text>
</a>
</g>
</g>
<!-- prison_configuration_audit&#45;&gt;policy -->
<g id="edge3" class="edge">
<title>prison_configuration_audit:w&#45;&gt;policy:e</title>
<path fill="none" stroke="#000000" stroke-dasharray="5,2" d="M287.8419,-885.8119C283.9578,-874.817 294.2275,-852.6111 292,-833.7 281.215,-742.1364 303.6966,-426.7 211.5,-426.7"/>
<polygon fill="#000000" stroke="#000000" points="293.473,-888.8761 298.7793,-895.8621 296.9865,-890.7881 300.5,-892.7 300.5,-892.7 300.5,-892.7 296.9865,-890.7881 302.2207,-889.5379 293.473,-888.8761 293.473,-888.8761"/>
<ellipse fill="none" stroke="#000000" cx="290.6622" cy="-887.3466" rx="3.2" ry="3.2"/>
</g>
<!-- prison_configuration_audit&#45;&gt;prison_migration_date_history -->
<g id="edge4" class="edge">
<title>prison_configuration_audit:w&#45;&gt;prison_migration_date_history:e</title>
<path fill="none" stroke="#000000" stroke-dasharray="5,2" d="M285.9198,-912.8245C211.0863,-890.7737 351.7403,-681.7 251.5,-681.7"/>
<polygon fill="#000000" stroke="#000000" points="292.5654,-913.6793 300.0407,-918.2706 296.5327,-914.1896 300.5,-914.7 300.5,-914.7 300.5,-914.7 296.5327,-914.1896 300.9593,-911.1294 292.5654,-913.6793 292.5654,-913.6793"/>
<ellipse fill="none" stroke="#000000" cx="289.3915" cy="-913.271" rx="3.2" ry="3.2"/>
</g>
<!-- audit_revision -->
<g id="node5" class="node">
<title>audit_revision</title>
<g id="a_node5"><a xlink:href="../../tables/audit_revision.html" xlink:title="audit_revision" target="_top">
<polygon fill="#ffffff" stroke="transparent" points="62.5,-484.2 62.5,-545.2 196.5,-545.2 196.5,-484.2 62.5,-484.2"/>
<polygon fill="#f5f5f5" stroke="transparent" points="62.5,-521.7 62.5,-544.7 196.5,-544.7 196.5,-521.7 62.5,-521.7"/>
<polygon fill="none" stroke="#000000" points="62.5,-521.7 62.5,-544.7 196.5,-544.7 196.5,-521.7 62.5,-521.7"/>
<text text-anchor="start" x="67.5" y="-530.3" font-family="Helvetica,sans-Serif" font-weight="bold" font-size="11.00" fill="#000000">audit_revision</text>
<text text-anchor="start" x="162.0219" y="-529.8" font-family="Helvetica,sans-Serif" font-size="11.00" fill="#000000">[table]</text>
<polygon fill="none" stroke="#000000" points="62.5,-502.7 62.5,-521.7 196.5,-521.7 196.5,-502.7 62.5,-502.7"/>
<text text-anchor="start" x="65.5" y="-508.8" font-family="Helvetica,sans-Serif" font-size="11.00" fill="#000000">...</text>
<polygon fill="#ffffff" stroke="transparent" points="62.5,-483.7 62.5,-502.7 118.5,-502.7 118.5,-483.7 62.5,-483.7"/>
<polygon fill="none" stroke="#000000" points="62.5,-483.7 62.5,-502.7 118.5,-502.7 118.5,-483.7 62.5,-483.7"/>
<text text-anchor="start" x="65.5" y="-489.8" font-family="Helvetica,sans-Serif" font-size="11.00" fill="#000000"> &#160;</text>
<polygon fill="#ffffff" stroke="transparent" points="118.5,-483.7 118.5,-502.7 152.5,-502.7 152.5,-483.7 118.5,-483.7"/>
<polygon fill="none" stroke="#000000" points="118.5,-483.7 118.5,-502.7 152.5,-502.7 152.5,-483.7 118.5,-483.7"/>
<text text-anchor="start" x="143.3862" y="-489.8" font-family="Helvetica,sans-Serif" font-size="11.00" fill="#000000"> &#160;</text>
<polygon fill="#ffffff" stroke="transparent" points="152.5,-483.7 152.5,-502.7 196.5,-502.7 196.5,-483.7 152.5,-483.7"/>
<polygon fill="none" stroke="#000000" points="152.5,-483.7 152.5,-502.7 196.5,-502.7 196.5,-483.7 152.5,-483.7"/>
<text text-anchor="start" x="177.9053" y="-489.8" font-family="Helvetica,sans-Serif" font-size="11.00" fill="#000000">3 &gt;</text>
</a>
</g>
</g>
<!-- prison_configuration_audit&#45;&gt;audit_revision -->
<g id="edge5" class="edge">
<title>prison_configuration_audit:w&#45;&gt;audit_revision:e</title>
<path fill="none" stroke="#000000" d="M286.3653,-954.5845C236.9693,-922.071 277.4392,-706.2662 259,-643.7 240.6502,-581.4371 261.4106,-511.7 196.5,-511.7"/>
<polygon fill="#000000" stroke="#000000" points="292.819,-956.4635 299.4936,-962.1565 296.6595,-957.5818 300.5,-958.7 300.5,-958.7 300.5,-958.7 296.6595,-957.5818 301.5064,-955.2435 292.819,-956.4635 292.819,-956.4635"/>
<ellipse fill="none" stroke="#000000" cx="289.7466" cy="-955.5689" rx="3.2" ry="3.2"/>
</g>
<!-- staff_configuration -->
<g id="node6" class="node">
<title>staff_configuration</title>
<g id="a_node6"><a xlink:href="../../tables/staff_configuration.html" xlink:title="staff_configuration" target="_top">
<polygon fill="#ffffff" stroke="transparent" points="405,-38.2 405,-187.2 572,-187.2 572,-38.2 405,-38.2"/>
<polygon fill="#f5f5f5" stroke="transparent" points="405.5,-163.7 405.5,-186.7 572.5,-186.7 572.5,-163.7 405.5,-163.7"/>
<polygon fill="none" stroke="#000000" points="405.5,-163.7 405.5,-186.7 572.5,-186.7 572.5,-163.7 405.5,-163.7"/>
<text text-anchor="start" x="410.5" y="-172.3" font-family="Helvetica,sans-Serif" font-weight="bold" font-size="11.00" fill="#000000">staff_configuration</text>
<text text-anchor="start" x="538.0219" y="-171.8" font-family="Helvetica,sans-Serif" font-size="11.00" fill="#000000">[table]</text>
<polygon fill="#ffffff" stroke="transparent" points="405.5,-141.7 405.5,-163.7 572.5,-163.7 572.5,-141.7 405.5,-141.7"/>
<polygon fill="none" stroke="#000000" points="405.5,-141.7 405.5,-163.7 572.5,-163.7 572.5,-141.7 405.5,-141.7"/>
<text text-anchor="start" x="426.5" y="-148.8" font-family="Helvetica,sans-Serif" font-size="11.00" fill="#000000">staff_id</text>
<polygon fill="none" stroke="#000000" points="405.5,-119.7 405.5,-141.7 572.5,-141.7 572.5,-119.7 405.5,-119.7"/>
<image xlink:href="../../images/foreignKeys.png" width="11px" height="12px" preserveAspectRatio="xMinYMin meet" x="410.5" y="-136.7"/>
<text text-anchor="start" x="426.5" y="-126.8" font-family="Helvetica,sans-Serif" font-size="11.00" fill="#000000">status_id</text>
<polygon fill="#ffffff" stroke="transparent" points="405.5,-97.7 405.5,-119.7 572.5,-119.7 572.5,-97.7 405.5,-97.7"/>
<polygon fill="none" stroke="#000000" points="405.5,-97.7 405.5,-119.7 572.5,-119.7 572.5,-97.7 405.5,-97.7"/>
<image xlink:href="../../images/foreignKeys.png" width="11px" height="12px" preserveAspectRatio="xMinYMin meet" x="410.5" y="-114.7"/>
<text text-anchor="start" x="426.5" y="-104.8" font-family="Helvetica,sans-Serif" font-size="11.00" fill="#000000">policy_code</text>
<polygon fill="none" stroke="#000000" points="405.5,-75.7 405.5,-97.7 572.5,-97.7 572.5,-75.7 405.5,-75.7"/>
<image xlink:href="../../images/primaryKeys.png" width="11px" height="12px" preserveAspectRatio="xMinYMin meet" x="410.5" y="-92.7"/>
<text text-anchor="start" x="426.5" y="-82.8" font-family="Helvetica,sans-Serif" font-size="11.00" fill="#000000">id</text>
<polygon fill="none" stroke="#000000" points="405.5,-56.7 405.5,-75.7 572.5,-75.7 572.5,-56.7 405.5,-56.7"/>
<text text-anchor="start" x="408.5" y="-62.8" font-family="Helvetica,sans-Serif" font-size="11.00" fill="#000000">...</text>
<polygon fill="#ffffff" stroke="transparent" points="405.5,-37.7 405.5,-56.7 487.5,-56.7 487.5,-37.7 405.5,-37.7"/>
<polygon fill="none" stroke="#000000" points="405.5,-37.7 405.5,-56.7 487.5,-56.7 487.5,-37.7 405.5,-37.7"/>
<text text-anchor="start" x="408.5" y="-43.8" font-family="Helvetica,sans-Serif" font-size="11.00" fill="#000000">&lt; 2</text>
<polygon fill="#ffffff" stroke="transparent" points="487.5,-37.7 487.5,-56.7 529.5,-56.7 529.5,-37.7 487.5,-37.7"/>
<polygon fill="none" stroke="#000000" points="487.5,-37.7 487.5,-56.7 529.5,-56.7 529.5,-37.7 487.5,-37.7"/>
<text text-anchor="start" x="520.3862" y="-43.8" font-family="Helvetica,sans-Serif" font-size="11.00" fill="#000000"> &#160;</text>
<polygon fill="#ffffff" stroke="transparent" points="529.5,-37.7 529.5,-56.7 572.5,-56.7 572.5,-37.7 529.5,-37.7"/>
<polygon fill="none" stroke="#000000" points="529.5,-37.7 529.5,-56.7 572.5,-56.7 572.5,-37.7 529.5,-37.7"/>
<text text-anchor="start" x="563.3862" y="-43.8" font-family="Helvetica,sans-Serif" font-size="11.00" fill="#000000"> &#160;</text>
</a>
</g>
</g>
<!-- staff_configuration&#45;&gt;policy -->
<g id="edge6" class="edge">
<title>staff_configuration:w&#45;&gt;policy:e</title>
<path fill="none" stroke="#000000" d="M391.0618,-109.3987C339.3042,-114.7071 326.3559,-149.7711 292,-197.7 229.1478,-285.3833 319.3831,-426.7 211.5,-426.7"/>
<polygon fill="#000000" stroke="#000000" points="397.5094,-109.0867 405.674,-112.2958 401.5047,-108.8934 405.5,-108.7 405.5,-108.7 405.5,-108.7 401.5047,-108.8934 405.326,-105.1042 397.5094,-109.0867 397.5094,-109.0867"/>
<ellipse fill="none" stroke="#000000" cx="394.3131" cy="-109.2414" rx="3.2" ry="3.2"/>
</g>
<!-- reference_data -->
<g id="node7" class="node">
<title>reference_data</title>
<g id="a_node7"><a xlink:href="../../tables/reference_data.html" xlink:title="reference_data" target="_top">
<polygon fill="#ffffff" stroke="transparent" points="59.5,-103.2 59.5,-164.2 199.5,-164.2 199.5,-103.2 59.5,-103.2"/>
<polygon fill="#f5f5f5" stroke="transparent" points="59.5,-140.7 59.5,-163.7 199.5,-163.7 199.5,-140.7 59.5,-140.7"/>
<polygon fill="none" stroke="#000000" points="59.5,-140.7 59.5,-163.7 199.5,-163.7 199.5,-140.7 59.5,-140.7"/>
<text text-anchor="start" x="64.5" y="-149.3" font-family="Helvetica,sans-Serif" font-weight="bold" font-size="11.00" fill="#000000">reference_data</text>
<text text-anchor="start" x="165.0219" y="-148.8" font-family="Helvetica,sans-Serif" font-size="11.00" fill="#000000">[table]</text>
<polygon fill="none" stroke="#000000" points="59.5,-121.7 59.5,-140.7 199.5,-140.7 199.5,-121.7 59.5,-121.7"/>
<text text-anchor="start" x="62.5" y="-127.8" font-family="Helvetica,sans-Serif" font-size="11.00" fill="#000000">...</text>
<polygon fill="#ffffff" stroke="transparent" points="59.5,-102.7 59.5,-121.7 118.5,-121.7 118.5,-102.7 59.5,-102.7"/>
<polygon fill="none" stroke="#000000" points="59.5,-102.7 59.5,-121.7 118.5,-121.7 118.5,-102.7 59.5,-102.7"/>
<text text-anchor="start" x="62.5" y="-108.8" font-family="Helvetica,sans-Serif" font-size="11.00" fill="#000000"> &#160;</text>
<polygon fill="#ffffff" stroke="transparent" points="118.5,-102.7 118.5,-121.7 154.5,-121.7 154.5,-102.7 118.5,-102.7"/>
<polygon fill="none" stroke="#000000" points="118.5,-102.7 118.5,-121.7 154.5,-121.7 154.5,-102.7 118.5,-102.7"/>
<text text-anchor="start" x="145.3862" y="-108.8" font-family="Helvetica,sans-Serif" font-size="11.00" fill="#000000"> &#160;</text>
<polygon fill="#ffffff" stroke="transparent" points="154.5,-102.7 154.5,-121.7 199.5,-121.7 199.5,-102.7 154.5,-102.7"/>
<polygon fill="none" stroke="#000000" points="154.5,-102.7 154.5,-121.7 199.5,-121.7 199.5,-102.7 154.5,-102.7"/>
<text text-anchor="start" x="180.9053" y="-108.8" font-family="Helvetica,sans-Serif" font-size="11.00" fill="#000000">3 &gt;</text>
</a>
</g>
</g>
<!-- staff_configuration&#45;&gt;reference_data -->
<g id="edge7" class="edge">
<title>staff_configuration:w&#45;&gt;reference_data:e</title>
<path fill="none" stroke="#000000" d="M391.0728,-130.7C311.2356,-130.7 286.0486,-130.7 199.5,-130.7"/>
<polygon fill="#000000" stroke="#000000" points="397.5,-130.7001 405.5,-134.3 401.5,-130.7 405.5,-130.7 405.5,-130.7 405.5,-130.7 401.5,-130.7 405.5,-127.1 397.5,-130.7001 397.5,-130.7001"/>
<ellipse fill="none" stroke="#000000" cx="394.3" cy="-130.7001" rx="3.2" ry="3.2"/>
</g>
<!-- staff_configuration_audit -->
<g id="node8" class="node">
<title>staff_configuration_audit</title>
<g id="a_node8"><a xlink:href="../../tables/staff_configuration_audit.html" xlink:title="staff_configuration_audit" target="_top">
<polygon fill="#ffffff" stroke="transparent" points="373,-208.2 373,-335.2 604,-335.2 604,-208.2 373,-208.2"/>
<polygon fill="#f5f5f5" stroke="transparent" points="373.5,-311.7 373.5,-334.7 604.5,-334.7 604.5,-311.7 373.5,-311.7"/>
<polygon fill="none" stroke="#000000" points="373.5,-311.7 373.5,-334.7 604.5,-334.7 604.5,-311.7 373.5,-311.7"/>
<text text-anchor="start" x="378.5" y="-320.3" font-family="Helvetica,sans-Serif" font-weight="bold" font-size="11.00" fill="#000000">staff_configuration_audit</text>
<text text-anchor="start" x="569.5437" y="-319.8" font-family="Helvetica,sans-Serif" font-size="11.00" fill="#000000">[table]</text>
<polygon fill="none" stroke="#000000" points="373.5,-289.7 373.5,-311.7 604.5,-311.7 604.5,-289.7 373.5,-289.7"/>
<image xlink:href="../../images/primaryKeys.png" width="11px" height="12px" preserveAspectRatio="xMinYMin meet" x="378.5" y="-306.7"/>
<text text-anchor="start" x="393.5" y="-296.8" font-family="Helvetica,sans-Serif" font-size="11.00" fill="#000000">rev_id</text>
<polygon fill="none" stroke="#000000" points="373.5,-267.7 373.5,-289.7 604.5,-289.7 604.5,-267.7 373.5,-267.7"/>
<image xlink:href="../../images/primaryKeys.png" width="11px" height="12px" preserveAspectRatio="xMinYMin meet" x="378.5" y="-284.7"/>
<text text-anchor="start" x="393.5" y="-274.8" font-family="Helvetica,sans-Serif" font-size="11.00" fill="#000000">id</text>
<polygon fill="none" stroke="#000000" points="373.5,-245.7 373.5,-267.7 604.5,-267.7 604.5,-245.7 373.5,-245.7"/>
<image xlink:href="../../images/foreignKeys.png" width="11px" height="12px" preserveAspectRatio="xMinYMin meet" x="378.5" y="-262.7"/>
<text text-anchor="start" x="393.5" y="-252.8" font-family="Helvetica,sans-Serif" font-size="11.00" fill="#000000">policy_code</text>
<polygon fill="none" stroke="#000000" points="373.5,-226.7 373.5,-245.7 604.5,-245.7 604.5,-226.7 373.5,-226.7"/>
<text text-anchor="start" x="376.5" y="-232.8" font-family="Helvetica,sans-Serif" font-size="11.00" fill="#000000">...</text>
<polygon fill="#ffffff" stroke="transparent" points="373.5,-207.7 373.5,-226.7 487.5,-226.7 487.5,-207.7 373.5,-207.7"/>
<polygon fill="none" stroke="#000000" points="373.5,-207.7 373.5,-226.7 487.5,-226.7 487.5,-207.7 373.5,-207.7"/>
<text text-anchor="start" x="376.5" y="-213.8" font-family="Helvetica,sans-Serif" font-size="11.00" fill="#000000">&lt; 2</text>
<polygon fill="#ffffff" stroke="transparent" points="487.5,-207.7 487.5,-226.7 545.5,-226.7 545.5,-207.7 487.5,-207.7"/>
<polygon fill="none" stroke="#000000" points="487.5,-207.7 487.5,-226.7 545.5,-226.7 545.5,-207.7 487.5,-207.7"/>
<text text-anchor="start" x="536.3862" y="-213.8" font-family="Helvetica,sans-Serif" font-size="11.00" fill="#000000"> &#160;</text>
<polygon fill="#ffffff" stroke="transparent" points="545.5,-207.7 545.5,-226.7 604.5,-226.7 604.5,-207.7 545.5,-207.7"/>
<polygon fill="none" stroke="#000000" points="545.5,-207.7 545.5,-226.7 604.5,-226.7 604.5,-207.7 545.5,-207.7"/>
<text text-anchor="start" x="595.3862" y="-213.8" font-family="Helvetica,sans-Serif" font-size="11.00" fill="#000000"> &#160;</text>
</a>
</g>
</g>
<!-- staff_configuration_audit&#45;&gt;policy -->
<g id="edge8" class="edge">
<title>staff_configuration_audit:w&#45;&gt;policy:e</title>
<path fill="none" stroke="#000000" stroke-dasharray="5,2" d="M358.9931,-257.9231C273.4127,-273.2119 310.6698,-426.7 211.5,-426.7"/>
<polygon fill="#000000" stroke="#000000" points="365.5283,-257.3721 373.8025,-260.2873 369.5141,-257.0361 373.5,-256.7 373.5,-256.7 373.5,-256.7 369.5141,-257.0361 373.1975,-253.1127 365.5283,-257.3721 365.5283,-257.3721"/>
<ellipse fill="none" stroke="#000000" cx="362.3396" cy="-257.641" rx="3.2" ry="3.2"/>
</g>
<!-- staff_configuration_audit&#45;&gt;audit_revision -->
<g id="edge9" class="edge">
<title>staff_configuration_audit:w&#45;&gt;audit_revision:e</title>
<path fill="none" stroke="#000000" d="M358.7452,-301.3303C328.1378,-304.209 314.0791,-317.211 292,-345.7 256.0119,-392.1361 294.01,-426.5221 259,-473.7 239.627,-499.8061 229.0091,-511.7 196.5,-511.7"/>
<polygon fill="#000000" stroke="#000000" points="365.5073,-301.0415 373.6537,-304.2967 369.5036,-300.8707 373.5,-300.7 373.5,-300.7 373.5,-300.7 369.5036,-300.8707 373.3463,-297.1033 365.5073,-301.0415 365.5073,-301.0415"/>
<ellipse fill="none" stroke="#000000" cx="362.3102" cy="-301.1781" rx="3.2" ry="3.2"/>
</g>
<!-- staff_role -->
<g id="node9" class="node">
<title>staff_role</title>
<g id="a_node9"><a xlink:href="../../tables/staff_role.html" xlink:title="staff_role" target="_top">
<polygon fill="#ffffff" stroke="transparent" points="420.5,-674.2 420.5,-823.2 556.5,-823.2 556.5,-674.2 420.5,-674.2"/>
<polygon fill="#f5f5f5" stroke="transparent" points="420.5,-799.7 420.5,-822.7 556.5,-822.7 556.5,-799.7 420.5,-799.7"/>
<polygon fill="none" stroke="#000000" points="420.5,-799.7 420.5,-822.7 556.5,-822.7 556.5,-799.7 420.5,-799.7"/>
<text text-anchor="start" x="425.5" y="-808.3" font-family="Helvetica,sans-Serif" font-weight="bold" font-size="11.00" fill="#000000">staff_role</text>
<text text-anchor="start" x="521.5437" y="-807.8" font-family="Helvetica,sans-Serif" font-size="11.00" fill="#000000">[table]</text>
<polygon fill="none" stroke="#000000" points="420.5,-777.7 420.5,-799.7 556.5,-799.7 556.5,-777.7 420.5,-777.7"/>
<image xlink:href="../../images/primaryKeys.png" width="11px" height="12px" preserveAspectRatio="xMinYMin meet" x="425.5" y="-794.7"/>
<text text-anchor="start" x="440.5" y="-784.8" font-family="Helvetica,sans-Serif" font-size="11.00" fill="#000000">id</text>
<polygon fill="#ffffff" stroke="transparent" points="420.5,-755.7 420.5,-777.7 556.5,-777.7 556.5,-755.7 420.5,-755.7"/>
<polygon fill="none" stroke="#000000" points="420.5,-755.7 420.5,-777.7 556.5,-777.7 556.5,-755.7 420.5,-755.7"/>
<image xlink:href="../../images/foreignKeys.png" width="11px" height="12px" preserveAspectRatio="xMinYMin meet" x="425.5" y="-772.7"/>
<text text-anchor="start" x="440.5" y="-762.8" font-family="Helvetica,sans-Serif" font-size="11.00" fill="#000000">policy_code</text>
<polygon fill="#ffffff" stroke="transparent" points="420.5,-733.7 420.5,-755.7 556.5,-755.7 556.5,-733.7 420.5,-733.7"/>
<polygon fill="none" stroke="#000000" points="420.5,-733.7 420.5,-755.7 556.5,-755.7 556.5,-733.7 420.5,-733.7"/>
<image xlink:href="../../images/foreignKeys.png" width="11px" height="12px" preserveAspectRatio="xMinYMin meet" x="425.5" y="-750.7"/>
<text text-anchor="start" x="440.5" y="-740.8" font-family="Helvetica,sans-Serif" font-size="11.00" fill="#000000">prison_code</text>
<polygon fill="#ffffff" stroke="transparent" points="420.5,-711.7 420.5,-733.7 556.5,-733.7 556.5,-711.7 420.5,-711.7"/>
<polygon fill="none" stroke="#000000" points="420.5,-711.7 420.5,-733.7 556.5,-733.7 556.5,-711.7 420.5,-711.7"/>
<text text-anchor="start" x="440.5" y="-718.8" font-family="Helvetica,sans-Serif" font-size="11.00" fill="#000000">staff_id</text>
<polygon fill="none" stroke="#000000" points="420.5,-692.7 420.5,-711.7 556.5,-711.7 556.5,-692.7 420.5,-692.7"/>
<text text-anchor="start" x="423.5" y="-698.8" font-family="Helvetica,sans-Serif" font-size="11.00" fill="#000000">...</text>
<polygon fill="#ffffff" stroke="transparent" points="420.5,-673.7 420.5,-692.7 486.5,-692.7 486.5,-673.7 420.5,-673.7"/>
<polygon fill="none" stroke="#000000" points="420.5,-673.7 420.5,-692.7 486.5,-692.7 486.5,-673.7 420.5,-673.7"/>
<text text-anchor="start" x="423.5" y="-679.8" font-family="Helvetica,sans-Serif" font-size="11.00" fill="#000000">&lt; 2</text>
<polygon fill="#ffffff" stroke="transparent" points="486.5,-673.7 486.5,-692.7 521.5,-692.7 521.5,-673.7 486.5,-673.7"/>
<polygon fill="none" stroke="#000000" points="486.5,-673.7 486.5,-692.7 521.5,-692.7 521.5,-673.7 486.5,-673.7"/>
<text text-anchor="start" x="512.3862" y="-679.8" font-family="Helvetica,sans-Serif" font-size="11.00" fill="#000000"> &#160;</text>
<polygon fill="#ffffff" stroke="transparent" points="521.5,-673.7 521.5,-692.7 556.5,-692.7 556.5,-673.7 521.5,-673.7"/>
<polygon fill="none" stroke="#000000" points="521.5,-673.7 521.5,-692.7 556.5,-692.7 556.5,-673.7 521.5,-673.7"/>
<text text-anchor="start" x="547.3862" y="-679.8" font-family="Helvetica,sans-Serif" font-size="11.00" fill="#000000"> &#160;</text>
</a>
</g>
</g>
<!-- staff_role&#45;&gt;policy -->
<g id="edge10" class="edge">
<title>staff_role:w&#45;&gt;policy:e</title>
<path fill="none" stroke="#000000" stroke-dasharray="5,2" d="M405.8523,-766.1129C344.6692,-760.964 326.6076,-722.2894 292,-663.7 235.4234,-567.9177 322.7437,-426.7 211.5,-426.7"/>
<polygon fill="#000000" stroke="#000000" points="412.5064,-766.3796 420.3558,-770.2971 416.5032,-766.5398 420.5,-766.7 420.5,-766.7 420.5,-766.7 416.5032,-766.5398 420.6442,-763.1029 412.5064,-766.3796 412.5064,-766.3796"/>
<ellipse fill="none" stroke="#000000" cx="409.309" cy="-766.2514" rx="3.2" ry="3.2"/>
</g>
<!-- staff_role&#45;&gt;prison_migration_date_history -->
<g id="edge11" class="edge">
<title>staff_role:w&#45;&gt;prison_migration_date_history:e</title>
<path fill="none" stroke="#000000" stroke-dasharray="5,2" d="M405.8528,-743.9486C338.9239,-736.8406 326.4937,-681.7 251.5,-681.7"/>
<polygon fill="#000000" stroke="#000000" points="412.5105,-744.2901 420.3155,-748.2953 416.5053,-744.495 420.5,-744.7 420.5,-744.7 420.5,-744.7 416.5053,-744.495 420.6845,-741.1047 412.5105,-744.2901 412.5105,-744.2901"/>
<ellipse fill="none" stroke="#000000" cx="409.3147" cy="-744.1261" rx="3.2" ry="3.2"/>
</g>
<!-- staff_role_audit -->
<g id="node10" class="node">
<title>staff_role_audit</title>
<g id="a_node10"><a xlink:href="../../tables/staff_role_audit.html" xlink:title="staff_role_audit" target="_top">
<polygon fill="#ffffff" stroke="transparent" points="391.5,-356.2 391.5,-505.2 585.5,-505.2 585.5,-356.2 391.5,-356.2"/>
<polygon fill="#f5f5f5" stroke="transparent" points="391.5,-481.7 391.5,-504.7 585.5,-504.7 585.5,-481.7 391.5,-481.7"/>
<polygon fill="none" stroke="#000000" points="391.5,-481.7 391.5,-504.7 585.5,-504.7 585.5,-481.7 391.5,-481.7"/>
<text text-anchor="start" x="396.5" y="-490.3" font-family="Helvetica,sans-Serif" font-weight="bold" font-size="11.00" fill="#000000">staff_role_audit</text>
<text text-anchor="start" x="550.5437" y="-489.8" font-family="Helvetica,sans-Serif" font-size="11.00" fill="#000000">[table]</text>
<polygon fill="none" stroke="#000000" points="391.5,-459.7 391.5,-481.7 585.5,-481.7 585.5,-459.7 391.5,-459.7"/>
<image xlink:href="../../images/primaryKeys.png" width="11px" height="12px" preserveAspectRatio="xMinYMin meet" x="396.5" y="-476.7"/>
<text text-anchor="start" x="411.5" y="-466.8" font-family="Helvetica,sans-Serif" font-size="11.00" fill="#000000">rev_id</text>
<polygon fill="none" stroke="#000000" points="391.5,-437.7 391.5,-459.7 585.5,-459.7 585.5,-437.7 391.5,-437.7"/>
<image xlink:href="../../images/primaryKeys.png" width="11px" height="12px" preserveAspectRatio="xMinYMin meet" x="396.5" y="-454.7"/>
<text text-anchor="start" x="411.5" y="-444.8" font-family="Helvetica,sans-Serif" font-size="11.00" fill="#000000">id</text>
<polygon fill="none" stroke="#000000" points="391.5,-415.7 391.5,-437.7 585.5,-437.7 585.5,-415.7 391.5,-415.7"/>
<image xlink:href="../../images/foreignKeys.png" width="11px" height="12px" preserveAspectRatio="xMinYMin meet" x="396.5" y="-432.7"/>
<text text-anchor="start" x="411.5" y="-422.8" font-family="Helvetica,sans-Serif" font-size="11.00" fill="#000000">policy_code</text>
<polygon fill="none" stroke="#000000" points="391.5,-393.7 391.5,-415.7 585.5,-415.7 585.5,-393.7 391.5,-393.7"/>
<image xlink:href="../../images/foreignKeys.png" width="11px" height="12px" preserveAspectRatio="xMinYMin meet" x="396.5" y="-410.7"/>
<text text-anchor="start" x="411.5" y="-400.8" font-family="Helvetica,sans-Serif" font-size="11.00" fill="#000000">prison_code</text>
<polygon fill="none" stroke="#000000" points="391.5,-374.7 391.5,-393.7 585.5,-393.7 585.5,-374.7 391.5,-374.7"/>
<text text-anchor="start" x="394.5" y="-380.8" font-family="Helvetica,sans-Serif" font-size="11.00" fill="#000000">...</text>
<polygon fill="#ffffff" stroke="transparent" points="391.5,-355.7 391.5,-374.7 486.5,-374.7 486.5,-355.7 391.5,-355.7"/>
<polygon fill="none" stroke="#000000" points="391.5,-355.7 391.5,-374.7 486.5,-374.7 486.5,-355.7 391.5,-355.7"/>
<text text-anchor="start" x="394.5" y="-361.8" font-family="Helvetica,sans-Serif" font-size="11.00" fill="#000000">&lt; 3</text>
<polygon fill="#ffffff" stroke="transparent" points="486.5,-355.7 486.5,-374.7 535.5,-374.7 535.5,-355.7 486.5,-355.7"/>
<polygon fill="none" stroke="#000000" points="486.5,-355.7 486.5,-374.7 535.5,-374.7 535.5,-355.7 486.5,-355.7"/>
<text text-anchor="start" x="526.3862" y="-361.8" font-family="Helvetica,sans-Serif" font-size="11.00" fill="#000000"> &#160;</text>
<polygon fill="#ffffff" stroke="transparent" points="535.5,-355.7 535.5,-374.7 585.5,-374.7 585.5,-355.7 535.5,-355.7"/>
<polygon fill="none" stroke="#000000" points="535.5,-355.7 535.5,-374.7 585.5,-374.7 585.5,-355.7 535.5,-355.7"/>
<text text-anchor="start" x="576.3862" y="-361.8" font-family="Helvetica,sans-Serif" font-size="11.00" fill="#000000"> &#160;</text>
</a>
</g>
</g>
<!-- staff_role_audit&#45;&gt;policy -->
<g id="edge12" class="edge">
<title>staff_role_audit:w&#45;&gt;policy:e</title>
<path fill="none" stroke="#000000" stroke-dasharray="5,2" d="M376.7469,-426.7C308.6726,-426.7 286.3438,-426.7 211.5,-426.7"/>
<polygon fill="#000000" stroke="#000000" points="383.5,-426.7001 391.5,-430.3 387.5,-426.7 391.5,-426.7 391.5,-426.7 391.5,-426.7 387.5,-426.7 391.5,-423.1 383.5,-426.7001 383.5,-426.7001"/>
<ellipse fill="none" stroke="#000000" cx="380.3" cy="-426.7001" rx="3.2" ry="3.2"/>
</g>
<!-- staff_role_audit&#45;&gt;prison_migration_date_history -->
<g id="edge13" class="edge">
<title>staff_role_audit:w&#45;&gt;prison_migration_date_history:e</title>
<path fill="none" stroke="#000000" stroke-dasharray="5,2" d="M377.098,-405.6373C324.7052,-412.9239 320.4776,-461.6689 292,-515.7 256.5912,-582.8817 327.4418,-681.7 251.5,-681.7"/>
<polygon fill="#000000" stroke="#000000" points="383.5169,-405.2196 391.7338,-408.2924 387.5084,-404.9598 391.5,-404.7 391.5,-404.7 391.5,-404.7 387.5084,-404.9598 391.2662,-401.1076 383.5169,-405.2196 383.5169,-405.2196"/>
<ellipse fill="none" stroke="#000000" cx="380.3236" cy="-405.4274" rx="3.2" ry="3.2"/>
</g>
<!-- staff_role_audit&#45;&gt;audit_revision -->
<g id="edge14" class="edge">
<title>staff_role_audit:w&#45;&gt;audit_revision:e</title>
<path fill="none" stroke="#000000" d="M376.6321,-471.1058C300.6008,-475.3639 279.8725,-511.7 196.5,-511.7"/>
<polygon fill="#000000" stroke="#000000" points="383.503,-470.9183 391.5982,-474.2987 387.5015,-470.8092 391.5,-470.7 391.5,-470.7 391.5,-470.7 387.5015,-470.8092 391.4018,-467.1013 383.503,-470.9183 383.503,-470.9183"/>
<ellipse fill="none" stroke="#000000" cx="380.3042" cy="-471.0056" rx="3.2" ry="3.2"/>
</g>
</g>
</svg>
