<?xml version="1.0" encoding="UTF-8" standalone="no"?>
<!DOCTYPE svg PUBLIC "-//W3C//DTD SVG 1.1//EN"
 "http://www.w3.org/Graphics/SVG/1.1/DTD/svg11.dtd">
<!-- Generated by graphviz version 2.40.1 (20161225.0304)
 -->
<!-- Title: oneDegreeRelationshipsDiagram Pages: 1 -->
<svg width="795pt" height="1357pt"
 viewBox="0.00 0.00 795.00 1357.20" xmlns="http://www.w3.org/2000/svg" xmlns:xlink="http://www.w3.org/1999/xlink">
<g id="graph0" class="graph" transform="scale(1 1) rotate(0) translate(4 1353.2)">
<title>oneDegreeRelationshipsDiagram</title>
<polygon fill="#ffffff" stroke="transparent" points="-4,4 -4,-1353.2 791,-1353.2 791,4 -4,4"/>
<text text-anchor="middle" x="72.4936" y="-7.3" font-family="Helvetica,sans-Serif" font-size="11.00" fill="#000000">Generated by SchemaSpy</text>
<!-- allocation -->
<g id="node1" class="node">
<title>allocation</title>
<g id="a_node1"><a xlink:href="../../tables/allocation.html" xlink:title="allocation" target="_top">
<polygon fill="#ffffff" stroke="transparent" points="294,-1086.2 294,-1345.2 468,-1345.2 468,-1086.2 294,-1086.2"/>
<polygon fill="#f5f5f5" stroke="transparent" points="294,-1321.7 294,-1344.7 468,-1344.7 468,-1321.7 294,-1321.7"/>
<polygon fill="none" stroke="#000000" points="294,-1321.7 294,-1344.7 468,-1344.7 468,-1321.7 294,-1321.7"/>
<text text-anchor="start" x="299" y="-1330.3" font-family="Helvetica,sans-Serif" font-weight="bold" font-size="11.00" fill="#000000">allocation</text>
<text text-anchor="start" x="433.0437" y="-1329.8" font-family="Helvetica,sans-Serif" font-size="11.00" fill="#000000">[table]</text>
<polygon fill="none" stroke="#000000" points="294,-1299.7 294,-1321.7 468,-1321.7 468,-1299.7 294,-1299.7"/>
<image xlink:href="../../images/primaryKeys.png" width="11px" height="12px" preserveAspectRatio="xMinYMin meet" x="299" y="-1316.7"/>
<text text-anchor="start" x="314" y="-1306.8" font-family="Helvetica,sans-Serif" font-size="11.00" fill="#000000">id</text>
<polygon fill="#ffffff" stroke="transparent" points="294,-1277.7 294,-1299.7 468,-1299.7 468,-1277.7 294,-1277.7"/>
<polygon fill="none" stroke="#000000" points="294,-1277.7 294,-1299.7 468,-1299.7 468,-1277.7 294,-1277.7"/>
<text text-anchor="start" x="314" y="-1284.8" font-family="Helvetica,sans-Serif" font-size="11.00" fill="#000000">prison_code</text>
<polygon fill="#ffffff" stroke="transparent" points="294,-1255.7 294,-1277.7 468,-1277.7 468,-1255.7 294,-1255.7"/>
<polygon fill="none" stroke="#000000" points="294,-1255.7 294,-1277.7 468,-1277.7 468,-1255.7 294,-1255.7"/>
<text text-anchor="start" x="314" y="-1262.8" font-family="Helvetica,sans-Serif" font-size="11.00" fill="#000000">staff_id</text>
<polygon fill="#ffffff" stroke="transparent" points="294,-1233.7 294,-1255.7 468,-1255.7 468,-1233.7 294,-1233.7"/>
<polygon fill="none" stroke="#000000" points="294,-1233.7 294,-1255.7 468,-1255.7 468,-1233.7 294,-1233.7"/>
<text text-anchor="start" x="314" y="-1240.8" font-family="Helvetica,sans-Serif" font-size="11.00" fill="#000000">person_identifier</text>
<polygon fill="#ffffff" stroke="transparent" points="294,-1211.7 294,-1233.7 468,-1233.7 468,-1211.7 294,-1211.7"/>
<polygon fill="none" stroke="#000000" points="294,-1211.7 294,-1233.7 468,-1233.7 468,-1211.7 294,-1211.7"/>
<text text-anchor="start" x="314" y="-1218.8" font-family="Helvetica,sans-Serif" font-size="11.00" fill="#000000">allocated_at</text>
<polygon fill="none" stroke="#000000" points="294,-1189.7 294,-1211.7 468,-1211.7 468,-1189.7 294,-1189.7"/>
<image xlink:href="../../images/foreignKeys.png" width="11px" height="12px" preserveAspectRatio="xMinYMin meet" x="299" y="-1206.7"/>
<text text-anchor="start" x="314" y="-1196.8" font-family="Helvetica,sans-Serif" font-size="11.00" fill="#000000">allocation_reason_id</text>
<polygon fill="#ffffff" stroke="transparent" points="294,-1167.7 294,-1189.7 468,-1189.7 468,-1167.7 294,-1167.7"/>
<polygon fill="none" stroke="#000000" points="294,-1167.7 294,-1189.7 468,-1189.7 468,-1167.7 294,-1167.7"/>
<text text-anchor="start" x="314" y="-1174.8" font-family="Helvetica,sans-Serif" font-size="11.00" fill="#000000">deallocated_at</text>
<polygon fill="none" stroke="#000000" points="294,-1145.7 294,-1167.7 468,-1167.7 468,-1145.7 294,-1145.7"/>
<image xlink:href="../../images/foreignKeys.png" width="11px" height="12px" preserveAspectRatio="xMinYMin meet" x="299" y="-1162.7"/>
<text text-anchor="start" x="314" y="-1152.8" font-family="Helvetica,sans-Serif" font-size="11.00" fill="#000000">deallocation_reason_id</text>
<polygon fill="#ffffff" stroke="transparent" points="294,-1123.7 294,-1145.7 468,-1145.7 468,-1123.7 294,-1123.7"/>
<polygon fill="none" stroke="#000000" points="294,-1123.7 294,-1145.7 468,-1145.7 468,-1123.7 294,-1123.7"/>
<image xlink:href="../../images/foreignKeys.png" width="11px" height="12px" preserveAspectRatio="xMinYMin meet" x="299" y="-1140.7"/>
<text text-anchor="start" x="314" y="-1130.8" font-family="Helvetica,sans-Serif" font-size="11.00" fill="#000000">policy_code</text>
<polygon fill="none" stroke="#000000" points="294,-1104.7 294,-1123.7 468,-1123.7 468,-1104.7 294,-1104.7"/>
<text text-anchor="start" x="297" y="-1110.8" font-family="Helvetica,sans-Serif" font-size="11.00" fill="#000000">...</text>
<polygon fill="#ffffff" stroke="transparent" points="294,-1085.7 294,-1104.7 379,-1104.7 379,-1085.7 294,-1085.7"/>
<polygon fill="none" stroke="#000000" points="294,-1085.7 294,-1104.7 379,-1104.7 379,-1085.7 294,-1085.7"/>
<text text-anchor="start" x="297" y="-1091.8" font-family="Helvetica,sans-Serif" font-size="11.00" fill="#000000">&lt; 3</text>
<polygon fill="#ffffff" stroke="transparent" points="379,-1085.7 379,-1104.7 423,-1104.7 423,-1085.7 379,-1085.7"/>
<polygon fill="none" stroke="#000000" points="379,-1085.7 379,-1104.7 423,-1104.7 423,-1085.7 379,-1085.7"/>
<text text-anchor="start" x="413.8862" y="-1091.8" font-family="Helvetica,sans-Serif" font-size="11.00" fill="#000000"> &#160;</text>
<polygon fill="#ffffff" stroke="transparent" points="423,-1085.7 423,-1104.7 468,-1104.7 468,-1085.7 423,-1085.7"/>
<polygon fill="none" stroke="#000000" points="423,-1085.7 423,-1104.7 468,-1104.7 468,-1085.7 423,-1085.7"/>
<text text-anchor="start" x="458.8862" y="-1091.8" font-family="Helvetica,sans-Serif" font-size="11.00" fill="#000000"> &#160;</text>
</a>
</g>
</g>
<!-- policy -->
<g id="node2" class="node">
<title>policy</title>
<g id="a_node2"><a xlink:href="../../tables/policy.html" xlink:title="policy" target="_top">
<polygon fill="#ffffff" stroke="transparent" points="8,-593.7 8,-683.7 176,-683.7 176,-593.7 8,-593.7"/>
<polygon fill="#f5f5f5" stroke="transparent" points="10,-658.7 10,-681.7 174,-681.7 174,-658.7 10,-658.7"/>
<polygon fill="none" stroke="#000000" points="10,-658.7 10,-681.7 174,-681.7 174,-658.7 10,-658.7"/>
<text text-anchor="start" x="15" y="-667.3" font-family="Helvetica,sans-Serif" font-weight="bold" font-size="11.00" fill="#000000">policy</text>
<text text-anchor="start" x="139.0437" y="-666.8" font-family="Helvetica,sans-Serif" font-size="11.00" fill="#000000">[table]</text>
<polygon fill="none" stroke="#000000" points="10,-636.7 10,-658.7 107,-658.7 107,-636.7 10,-636.7"/>
<image xlink:href="../../images/primaryKeys.png" width="11px" height="12px" preserveAspectRatio="xMinYMin meet" x="15" y="-653.7"/>
<text text-anchor="start" x="30" y="-643.8" font-family="Helvetica,sans-Serif" font-size="11.00" fill="#000000">code</text>
<polygon fill="none" stroke="#000000" points="107,-636.7 107,-658.7 174,-658.7 174,-636.7 107,-636.7"/>
<text text-anchor="start" x="110" y="-644.4" font-family="Helvetica,sans-Serif" font-size="11.00" fill="#000000">varchar[16]</text>
<polygon fill="none" stroke="#000000" points="10,-614.7 10,-636.7 107,-636.7 107,-614.7 10,-614.7"/>
<text text-anchor="start" x="30" y="-621.8" font-family="Helvetica,sans-Serif" font-size="11.00" fill="#000000">description</text>
<polygon fill="none" stroke="#000000" points="107,-614.7 107,-636.7 174,-636.7 174,-614.7 107,-614.7"/>
<text text-anchor="start" x="109.9365" y="-622.4" font-family="Helvetica,sans-Serif" font-size="11.00" fill="#000000">varchar[255]</text>
<polygon fill="#ffffff" stroke="transparent" points="10,-595.7 10,-614.7 63,-614.7 63,-595.7 10,-595.7"/>
<polygon fill="none" stroke="#000000" points="10,-595.7 10,-614.7 63,-614.7 63,-595.7 10,-595.7"/>
<text text-anchor="start" x="13" y="-601.8" font-family="Helvetica,sans-Serif" font-size="11.00" fill="#000000">&lt; 0</text>
<polygon fill="#ffffff" stroke="transparent" points="63,-595.7 63,-614.7 107,-614.7 107,-595.7 63,-595.7"/>
<polygon fill="none" stroke="#000000" points="63,-595.7 63,-614.7 107,-614.7 107,-595.7 63,-595.7"/>
<text text-anchor="start" x="97.8862" y="-601.8" font-family="Helvetica,sans-Serif" font-size="11.00" fill="#000000"> &#160;</text>
<polygon fill="#ffffff" stroke="transparent" points="107,-595.7 107,-614.7 174,-614.7 174,-595.7 107,-595.7"/>
<polygon fill="none" stroke="#000000" points="107,-595.7 107,-614.7 174,-614.7 174,-595.7 107,-595.7"/>
<text text-anchor="start" x="155.4053" y="-601.8" font-family="Helvetica,sans-Serif" font-size="11.00" fill="#000000">8 &gt;</text>
<polygon fill="none" stroke="#000000" stroke-width="2" points="9,-594.7 9,-682.7 175,-682.7 175,-594.7 9,-594.7"/>
</a>
</g>
</g>
<!-- allocation&#45;&gt;policy -->
<g id="edge1" class="edge">
<title>allocation:w&#45;&gt;policy:e</title>
<path fill="none" stroke="#000000" d="M279.5991,-1133.77C247.6451,-1129.2918 235.4506,-1108.7972 217,-1075.7 193.7277,-1033.9536 221.795,-647.7 174,-647.7"/>
<polygon fill="#000000" stroke="#000000" points="286.0166,-1134.1844 293.768,-1138.2925 290.0083,-1134.4422 294,-1134.7 294,-1134.7 294,-1134.7 290.0083,-1134.4422 294.232,-1131.1075 286.0166,-1134.1844 286.0166,-1134.1844"/>
<ellipse fill="none" stroke="#000000" cx="282.8233" cy="-1133.9782" rx="3.2" ry="3.2"/>
</g>
<!-- prison_configuration -->
<g id="node3" class="node">
<title>prison_configuration</title>
<g id="a_node3"><a xlink:href="../../tables/prison_configuration.html" xlink:title="prison_configuration" target="_top">
<polygon fill="#ffffff" stroke="transparent" points="225,-938.2 225,-1065.2 537,-1065.2 537,-938.2 225,-938.2"/>
<polygon fill="#f5f5f5" stroke="transparent" points="225,-1041.7 225,-1064.7 537,-1064.7 537,-1041.7 225,-1041.7"/>
<polygon fill="none" stroke="#000000" points="225,-1041.7 225,-1064.7 537,-1064.7 537,-1041.7 225,-1041.7"/>
<text text-anchor="start" x="230" y="-1050.3" font-family="Helvetica,sans-Serif" font-weight="bold" font-size="11.00" fill="#000000">prison_configuration</text>
<text text-anchor="start" x="502.0437" y="-1049.8" font-family="Helvetica,sans-Serif" font-size="11.00" fill="#000000">[table]</text>
<polygon fill="#ffffff" stroke="transparent" points="225,-1019.7 225,-1041.7 537,-1041.7 537,-1019.7 225,-1019.7"/>
<polygon fill="none" stroke="#000000" points="225,-1019.7 225,-1041.7 537,-1041.7 537,-1019.7 225,-1019.7"/>
<text text-anchor="start" x="245" y="-1026.8" font-family="Helvetica,sans-Serif" font-size="11.00" fill="#000000">prison_code</text>
<polygon fill="#ffffff" stroke="transparent" points="225,-997.7 225,-1019.7 537,-1019.7 537,-997.7 225,-997.7"/>
<polygon fill="none" stroke="#000000" points="225,-997.7 225,-1019.7 537,-1019.7 537,-997.7 225,-997.7"/>
<image xlink:href="../../images/foreignKeys.png" width="11px" height="12px" preserveAspectRatio="xMinYMin meet" x="230" y="-1014.7"/>
<text text-anchor="start" x="245" y="-1004.8" font-family="Helvetica,sans-Serif" font-size="11.00" fill="#000000">policy_code</text>
<polygon fill="none" stroke="#000000" points="225,-975.7 225,-997.7 537,-997.7 537,-975.7 225,-975.7"/>
<image xlink:href="../../images/primaryKeys.png" width="11px" height="12px" preserveAspectRatio="xMinYMin meet" x="230" y="-992.7"/>
<text text-anchor="start" x="245" y="-982.8" font-family="Helvetica,sans-Serif" font-size="11.00" fill="#000000">id</text>
<polygon fill="none" stroke="#000000" points="225,-956.7 225,-975.7 537,-975.7 537,-956.7 225,-956.7"/>
<text text-anchor="start" x="228" y="-962.8" font-family="Helvetica,sans-Serif" font-size="11.00" fill="#000000">...</text>
<polygon fill="#ffffff" stroke="transparent" points="225,-937.7 225,-956.7 363,-956.7 363,-937.7 225,-937.7"/>
<polygon fill="none" stroke="#000000" points="225,-937.7 225,-956.7 363,-956.7 363,-937.7 225,-937.7"/>
<text text-anchor="start" x="228" y="-943.8" font-family="Helvetica,sans-Serif" font-size="11.00" fill="#000000">&lt; 1</text>
<polygon fill="#ffffff" stroke="transparent" points="363,-937.7 363,-956.7 466,-956.7 466,-937.7 363,-937.7"/>
<polygon fill="none" stroke="#000000" points="363,-937.7 363,-956.7 466,-956.7 466,-937.7 363,-937.7"/>
<text text-anchor="start" x="424.4956" y="-943.8" font-family="Helvetica,sans-Serif" font-size="11.00" fill="#000000">12 rows</text>
<polygon fill="#ffffff" stroke="transparent" points="466,-937.7 466,-956.7 537,-956.7 537,-937.7 466,-937.7"/>
<polygon fill="none" stroke="#000000" points="466,-937.7 466,-956.7 537,-956.7 537,-937.7 466,-937.7"/>
<text text-anchor="start" x="527.8862" y="-943.8" font-family="Helvetica,sans-Serif" font-size="11.00" fill="#000000"> &#160;</text>
</a>
</g>
</g>
<!-- prison_configuration&#45;&gt;policy -->
<g id="edge2" class="edge">
<title>prison_configuration:w&#45;&gt;policy:e</title>
<path fill="none" stroke="#000000" d="M211.2878,-1004.1356C157.8814,-962.3466 249.6387,-647.7 174,-647.7"/>
<polygon fill="#000000" stroke="#000000" points="217.4095,-1006.1733 223.863,-1012.1157 221.2047,-1007.4367 225,-1008.7 225,-1008.7 225,-1008.7 221.2047,-1007.4367 226.137,-1005.2843 217.4095,-1006.1733 217.4095,-1006.1733"/>
<ellipse fill="none" stroke="#000000" cx="214.3733" cy="-1005.1626" rx="3.2" ry="3.2"/>
</g>
<!-- prison_statistic -->
<g id="node4" class="node">
<title>prison_statistic</title>
<g id="a_node4"><a xlink:href="../../tables/prison_statistic.html" xlink:title="prison_statistic" target="_top">
<polygon fill="#ffffff" stroke="transparent" points="233,-768.2 233,-917.2 529,-917.2 529,-768.2 233,-768.2"/>
<polygon fill="#f5f5f5" stroke="transparent" points="233,-893.7 233,-916.7 529,-916.7 529,-893.7 233,-893.7"/>
<polygon fill="none" stroke="#000000" points="233,-893.7 233,-916.7 529,-916.7 529,-893.7 233,-893.7"/>
<text text-anchor="start" x="238" y="-902.3" font-family="Helvetica,sans-Serif" font-weight="bold" font-size="11.00" fill="#000000">prison_statistic</text>
<text text-anchor="start" x="494.0437" y="-901.8" font-family="Helvetica,sans-Serif" font-size="11.00" fill="#000000">[table]</text>
<polygon fill="none" stroke="#000000" points="233,-871.7 233,-893.7 529,-893.7 529,-871.7 233,-871.7"/>
<image xlink:href="../../images/primaryKeys.png" width="11px" height="12px" preserveAspectRatio="xMinYMin meet" x="238" y="-888.7"/>
<text text-anchor="start" x="253" y="-878.8" font-family="Helvetica,sans-Serif" font-size="11.00" fill="#000000">id</text>
<polygon fill="#ffffff" stroke="transparent" points="233,-849.7 233,-871.7 529,-871.7 529,-849.7 233,-849.7"/>
<polygon fill="none" stroke="#000000" points="233,-849.7 233,-871.7 529,-871.7 529,-849.7 233,-849.7"/>
<text text-anchor="start" x="253" y="-856.8" font-family="Helvetica,sans-Serif" font-size="11.00" fill="#000000">prison_code</text>
<polygon fill="#ffffff" stroke="transparent" points="233,-827.7 233,-849.7 529,-849.7 529,-827.7 233,-827.7"/>
<polygon fill="none" stroke="#000000" points="233,-827.7 233,-849.7 529,-849.7 529,-827.7 233,-827.7"/>
<text text-anchor="start" x="253" y="-834.8" font-family="Helvetica,sans-Serif" font-size="11.00" fill="#000000">statistic_date</text>
<polygon fill="none" stroke="#000000" points="233,-805.7 233,-827.7 529,-827.7 529,-805.7 233,-805.7"/>
<image xlink:href="../../images/foreignKeys.png" width="11px" height="12px" preserveAspectRatio="xMinYMin meet" x="238" y="-822.7"/>
<text text-anchor="start" x="253" y="-812.8" font-family="Helvetica,sans-Serif" font-size="11.00" fill="#000000">policy_code</text>
<polygon fill="none" stroke="#000000" points="233,-786.7 233,-805.7 529,-805.7 529,-786.7 233,-786.7"/>
<text text-anchor="start" x="236" y="-792.8" font-family="Helvetica,sans-Serif" font-size="11.00" fill="#000000">...</text>
<polygon fill="#ffffff" stroke="transparent" points="233,-767.7 233,-786.7 375,-786.7 375,-767.7 233,-767.7"/>
<polygon fill="none" stroke="#000000" points="233,-767.7 233,-786.7 375,-786.7 375,-767.7 233,-767.7"/>
<text text-anchor="start" x="236" y="-773.8" font-family="Helvetica,sans-Serif" font-size="11.00" fill="#000000">&lt; 1</text>
<polygon fill="#ffffff" stroke="transparent" points="375,-767.7 375,-786.7 447,-786.7 447,-767.7 375,-767.7"/>
<polygon fill="none" stroke="#000000" points="375,-767.7 375,-786.7 447,-786.7 447,-767.7 375,-767.7"/>
<text text-anchor="start" x="437.8862" y="-773.8" font-family="Helvetica,sans-Serif" font-size="11.00" fill="#000000"> &#160;</text>
<polygon fill="#ffffff" stroke="transparent" points="447,-767.7 447,-786.7 529,-786.7 529,-767.7 447,-767.7"/>
<polygon fill="none" stroke="#000000" points="447,-767.7 447,-786.7 529,-786.7 529,-767.7 447,-767.7"/>
<text text-anchor="start" x="510.4053" y="-773.8" font-family="Helvetica,sans-Serif" font-size="11.00" fill="#000000">1 &gt;</text>
</a>
</g>
</g>
<!-- prison_statistic&#45;&gt;policy -->
<g id="edge3" class="edge">
<title>prison_statistic:w&#45;&gt;policy:e</title>
<path fill="none" stroke="#000000" d="M218.7584,-814.311C166.6334,-793.7699 247.963,-647.7 174,-647.7"/>
<polygon fill="#000000" stroke="#000000" points="225.1102,-815.3764 232.4044,-820.2504 229.0551,-816.0382 233,-816.7 233,-816.7 233,-816.7 229.0551,-816.0382 233.5956,-813.1496 225.1102,-815.3764 225.1102,-815.3764"/>
<ellipse fill="none" stroke="#000000" cx="221.9543" cy="-814.847" rx="3.2" ry="3.2"/>
</g>
<!-- prisoner_statistic -->
<g id="node5" class="node">
<title>prisoner_statistic</title>
<g id="a_node5"><a xlink:href="../../tables/prisoner_statistic.html" xlink:title="prisoner_statistic" target="_top">
<polygon fill="#ffffff" stroke="transparent" points="586,-742.2 586,-891.2 779,-891.2 779,-742.2 586,-742.2"/>
<polygon fill="#f5f5f5" stroke="transparent" points="586.5,-867.7 586.5,-890.7 779.5,-890.7 779.5,-867.7 586.5,-867.7"/>
<polygon fill="none" stroke="#000000" points="586.5,-867.7 586.5,-890.7 779.5,-890.7 779.5,-867.7 586.5,-867.7"/>
<text text-anchor="start" x="591.5" y="-876.3" font-family="Helvetica,sans-Serif" font-weight="bold" font-size="11.00" fill="#000000">prisoner_statistic</text>
<text text-anchor="start" x="744.5437" y="-875.8" font-family="Helvetica,sans-Serif" font-size="11.00" fill="#000000">[table]</text>
<polygon fill="none" stroke="#000000" points="586.5,-845.7 586.5,-867.7 779.5,-867.7 779.5,-845.7 586.5,-845.7"/>
<image xlink:href="../../images/primaryKeys.png" width="11px" height="12px" preserveAspectRatio="xMinYMin meet" x="591.5" y="-862.7"/>
<text text-anchor="start" x="606.5" y="-852.8" font-family="Helvetica,sans-Serif" font-size="11.00" fill="#000000">id</text>
<polygon fill="#ffffff" stroke="transparent" points="586.5,-823.7 586.5,-845.7 779.5,-845.7 779.5,-823.7 586.5,-823.7"/>
<polygon fill="none" stroke="#000000" points="586.5,-823.7 586.5,-845.7 779.5,-845.7 779.5,-823.7 586.5,-823.7"/>
<image xlink:href="../../images/foreignKeys.png" width="11px" height="12px" preserveAspectRatio="xMinYMin meet" x="591.5" y="-840.7"/>
<text text-anchor="start" x="606.5" y="-830.8" font-family="Helvetica,sans-Serif" font-size="11.00" fill="#000000">prison_statistic_id</text>
<polygon fill="#ffffff" stroke="transparent" points="586.5,-801.7 586.5,-823.7 779.5,-823.7 779.5,-801.7 586.5,-801.7"/>
<polygon fill="none" stroke="#000000" points="586.5,-801.7 586.5,-823.7 779.5,-823.7 779.5,-801.7 586.5,-801.7"/>
<text text-anchor="start" x="606.5" y="-808.8" font-family="Helvetica,sans-Serif" font-size="11.00" fill="#000000">person_identifier</text>
<polygon fill="none" stroke="#000000" points="586.5,-779.7 586.5,-801.7 779.5,-801.7 779.5,-779.7 586.5,-779.7"/>
<image xlink:href="../../images/foreignKeys.png" width="11px" height="12px" preserveAspectRatio="xMinYMin meet" x="591.5" y="-796.7"/>
<text text-anchor="start" x="606.5" y="-786.8" font-family="Helvetica,sans-Serif" font-size="11.00" fill="#000000">policy_code</text>
<polygon fill="none" stroke="#000000" points="586.5,-760.7 586.5,-779.7 779.5,-779.7 779.5,-760.7 586.5,-760.7"/>
<text text-anchor="start" x="589.5" y="-766.8" font-family="Helvetica,sans-Serif" font-size="11.00" fill="#000000">...</text>
<polygon fill="#ffffff" stroke="transparent" points="586.5,-741.7 586.5,-760.7 681.5,-760.7 681.5,-741.7 586.5,-741.7"/>
<polygon fill="none" stroke="#000000" points="586.5,-741.7 586.5,-760.7 681.5,-760.7 681.5,-741.7 586.5,-741.7"/>
<text text-anchor="start" x="589.5" y="-747.8" font-family="Helvetica,sans-Serif" font-size="11.00" fill="#000000">&lt; 2</text>
<polygon fill="#ffffff" stroke="transparent" points="681.5,-741.7 681.5,-760.7 730.5,-760.7 730.5,-741.7 681.5,-741.7"/>
<polygon fill="none" stroke="#000000" points="681.5,-741.7 681.5,-760.7 730.5,-760.7 730.5,-741.7 681.5,-741.7"/>
<text text-anchor="start" x="721.3862" y="-747.8" font-family="Helvetica,sans-Serif" font-size="11.00" fill="#000000"> &#160;</text>
<polygon fill="#ffffff" stroke="transparent" points="730.5,-741.7 730.5,-760.7 779.5,-760.7 779.5,-741.7 730.5,-741.7"/>
<polygon fill="none" stroke="#000000" points="730.5,-741.7 730.5,-760.7 779.5,-760.7 779.5,-741.7 730.5,-741.7"/>
<text text-anchor="start" x="770.3862" y="-747.8" font-family="Helvetica,sans-Serif" font-size="11.00" fill="#000000"> &#160;</text>
</a>
</g>
</g>
<!-- prisoner_statistic&#45;&gt;policy -->
<g id="edge4" class="edge">
<title>prisoner_statistic:w&#45;&gt;policy:e</title>
<path fill="none" stroke="#000000" d="M572.5478,-786.3054C563.2154,-778.8942 561.0808,-764.0945 545,-757.7 477.0232,-730.6692 277.929,-770.1866 217,-729.7 182.7256,-706.925 215.1513,-647.7 174,-647.7"/>
<polygon fill="#000000" stroke="#000000" points="578.8696,-788.2965 585.4184,-794.1337 582.6848,-789.4983 586.5,-790.7 586.5,-790.7 586.5,-790.7 582.6848,-789.4983 587.5816,-787.2663 578.8696,-788.2965 578.8696,-788.2965"/>
<ellipse fill="none" stroke="#000000" cx="575.8174" cy="-787.3352" rx="3.2" ry="3.2"/>
</g>
<!-- prisoner_statistic&#45;&gt;prison_statistic -->
<g id="edge5" class="edge">
<title>prisoner_statistic:w&#45;&gt;prison_statistic:e</title>
<path fill="none" stroke="#000000" d="M572.1672,-838.7925C555.1053,-850.4002 556.3079,-882.7 529,-882.7"/>
<polygon fill="#000000" stroke="#000000" points="578.8074,-836.8965 587.4884,-838.1617 582.6537,-835.7982 586.5,-834.7 586.5,-834.7 586.5,-834.7 582.6537,-835.7982 585.5116,-831.2383 578.8074,-836.8965 578.8074,-836.8965"/>
<ellipse fill="none" stroke="#000000" cx="575.7304" cy="-837.7751" rx="3.2" ry="3.2"/>
</g>
<!-- recorded_event -->
<g id="node6" class="node">
<title>recorded_event</title>
<g id="a_node6"><a xlink:href="../../tables/recorded_event.html" xlink:title="recorded_event" target="_top">
<polygon fill="#ffffff" stroke="transparent" points="309,-482.2 309,-719.2 453,-719.2 453,-482.2 309,-482.2"/>
<polygon fill="#f5f5f5" stroke="transparent" points="309,-695.7 309,-718.7 453,-718.7 453,-695.7 309,-695.7"/>
<polygon fill="none" stroke="#000000" points="309,-695.7 309,-718.7 453,-718.7 453,-695.7 309,-695.7"/>
<text text-anchor="start" x="314" y="-704.3" font-family="Helvetica,sans-Serif" font-weight="bold" font-size="11.00" fill="#000000">recorded_event</text>
<text text-anchor="start" x="418.5219" y="-703.8" font-family="Helvetica,sans-Serif" font-size="11.00" fill="#000000">[table]</text>
<polygon fill="none" stroke="#000000" points="309,-673.7 309,-695.7 453,-695.7 453,-673.7 309,-673.7"/>
<image xlink:href="../../images/primaryKeys.png" width="11px" height="12px" preserveAspectRatio="xMinYMin meet" x="314" y="-690.7"/>
<text text-anchor="start" x="333" y="-680.8" font-family="Helvetica,sans-Serif" font-size="11.00" fill="#000000">id</text>
<polygon fill="#ffffff" stroke="transparent" points="309,-651.7 309,-673.7 453,-673.7 453,-651.7 309,-651.7"/>
<polygon fill="none" stroke="#000000" points="309,-651.7 309,-673.7 453,-673.7 453,-651.7 309,-651.7"/>
<text text-anchor="start" x="333" y="-658.8" font-family="Helvetica,sans-Serif" font-size="11.00" fill="#000000">prison_code</text>
<polygon fill="#ffffff" stroke="transparent" points="309,-629.7 309,-651.7 453,-651.7 453,-629.7 309,-629.7"/>
<polygon fill="none" stroke="#000000" points="309,-629.7 309,-651.7 453,-651.7 453,-629.7 309,-629.7"/>
<text text-anchor="start" x="333" y="-636.8" font-family="Helvetica,sans-Serif" font-size="11.00" fill="#000000">person_identifier</text>
<polygon fill="#ffffff" stroke="transparent" points="309,-607.7 309,-629.7 453,-629.7 453,-607.7 309,-607.7"/>
<polygon fill="none" stroke="#000000" points="309,-607.7 309,-629.7 453,-629.7 453,-607.7 309,-607.7"/>
<text text-anchor="start" x="333" y="-614.8" font-family="Helvetica,sans-Serif" font-size="11.00" fill="#000000">staff_id</text>
<polygon fill="#ffffff" stroke="transparent" points="309,-585.7 309,-607.7 453,-607.7 453,-585.7 309,-585.7"/>
<polygon fill="none" stroke="#000000" points="309,-585.7 309,-607.7 453,-607.7 453,-585.7 309,-585.7"/>
<text text-anchor="start" x="333" y="-592.8" font-family="Helvetica,sans-Serif" font-size="11.00" fill="#000000">occurred_at</text>
<polygon fill="#ffffff" stroke="transparent" points="309,-563.7 309,-585.7 453,-585.7 453,-563.7 309,-563.7"/>
<polygon fill="none" stroke="#000000" points="309,-563.7 309,-585.7 453,-585.7 453,-563.7 309,-563.7"/>
<text text-anchor="start" x="333" y="-570.8" font-family="Helvetica,sans-Serif" font-size="11.00" fill="#000000">created_at</text>
<polygon fill="#ffffff" stroke="transparent" points="309,-541.7 309,-563.7 453,-563.7 453,-541.7 309,-541.7"/>
<polygon fill="none" stroke="#000000" points="309,-541.7 309,-563.7 453,-563.7 453,-541.7 309,-541.7"/>
<image xlink:href="../../images/foreignKeys.png" width="11px" height="12px" preserveAspectRatio="xMinYMin meet" x="314" y="-558.7"/>
<text text-anchor="start" x="333" y="-548.8" font-family="Helvetica,sans-Serif" font-size="11.00" fill="#000000">policy_code</text>
<polygon fill="#ffffff" stroke="transparent" points="309,-519.7 309,-541.7 453,-541.7 453,-519.7 309,-519.7"/>
<polygon fill="none" stroke="#000000" points="309,-519.7 309,-541.7 453,-541.7 453,-519.7 309,-519.7"/>
<image xlink:href="../../images/foreignKeys.png" width="11px" height="12px" preserveAspectRatio="xMinYMin meet" x="314" y="-536.7"/>
<text text-anchor="start" x="333" y="-526.8" font-family="Helvetica,sans-Serif" font-size="11.00" fill="#000000">type_id</text>
<polygon fill="none" stroke="#000000" points="309,-500.7 309,-519.7 453,-519.7 453,-500.7 309,-500.7"/>
<text text-anchor="start" x="312" y="-506.8" font-family="Helvetica,sans-Serif" font-size="11.00" fill="#000000">...</text>
<polygon fill="#ffffff" stroke="transparent" points="309,-481.7 309,-500.7 379,-500.7 379,-481.7 309,-481.7"/>
<polygon fill="none" stroke="#000000" points="309,-481.7 309,-500.7 379,-500.7 379,-481.7 309,-481.7"/>
<text text-anchor="start" x="312" y="-487.8" font-family="Helvetica,sans-Serif" font-size="11.00" fill="#000000">&lt; 2</text>
<polygon fill="#ffffff" stroke="transparent" points="379,-481.7 379,-500.7 416,-500.7 416,-481.7 379,-481.7"/>
<polygon fill="none" stroke="#000000" points="379,-481.7 379,-500.7 416,-500.7 416,-481.7 379,-481.7"/>
<text text-anchor="start" x="406.8862" y="-487.8" font-family="Helvetica,sans-Serif" font-size="11.00" fill="#000000"> &#160;</text>
<polygon fill="#ffffff" stroke="transparent" points="416,-481.7 416,-500.7 453,-500.7 453,-481.7 416,-481.7"/>
<polygon fill="none" stroke="#000000" points="416,-481.7 416,-500.7 453,-500.7 453,-481.7 416,-481.7"/>
<text text-anchor="start" x="443.8862" y="-487.8" font-family="Helvetica,sans-Serif" font-size="11.00" fill="#000000"> &#160;</text>
</a>
</g>
</g>
<!-- recorded_event&#45;&gt;policy -->
<g id="edge6" class="edge">
<title>recorded_event:w&#45;&gt;policy:e</title>
<path fill="none" stroke="#000000" d="M294.3633,-554.1167C236.8845,-565.9343 242.0651,-647.7 174,-647.7"/>
<polygon fill="#000000" stroke="#000000" points="301.0372,-553.4708 309.3468,-556.2833 305.0186,-553.0854 309,-552.7 309,-552.7 309,-552.7 305.0186,-553.0854 308.6532,-549.1167 301.0372,-553.4708 301.0372,-553.4708"/>
<ellipse fill="none" stroke="#000000" cx="297.8521" cy="-553.7791" rx="3.2" ry="3.2"/>
</g>
<!-- recorded_event_audit -->
<g id="node7" class="node">
<title>recorded_event_audit</title>
<g id="a_node7"><a xlink:href="../../tables/recorded_event_audit.html" xlink:title="recorded_event_audit" target="_top">
<polygon fill="#ffffff" stroke="transparent" points="288.5,-334.2 288.5,-461.2 473.5,-461.2 473.5,-334.2 288.5,-334.2"/>
<polygon fill="#f5f5f5" stroke="transparent" points="289,-437.7 289,-460.7 474,-460.7 474,-437.7 289,-437.7"/>
<polygon fill="none" stroke="#000000" points="289,-437.7 289,-460.7 474,-460.7 474,-437.7 289,-437.7"/>
<text text-anchor="start" x="294" y="-446.3" font-family="Helvetica,sans-Serif" font-weight="bold" font-size="11.00" fill="#000000">recorded_event_audit</text>
<text text-anchor="start" x="439.5219" y="-445.8" font-family="Helvetica,sans-Serif" font-size="11.00" fill="#000000">[table]</text>
<polygon fill="#ffffff" stroke="transparent" points="289,-415.7 289,-437.7 474,-437.7 474,-415.7 289,-415.7"/>
<polygon fill="none" stroke="#000000" points="289,-415.7 289,-437.7 474,-437.7 474,-415.7 289,-415.7"/>
<image xlink:href="../../images/foreignKeys.png" width="11px" height="12px" preserveAspectRatio="xMinYMin meet" x="294" y="-432.7"/>
<text text-anchor="start" x="318" y="-422.8" font-family="Helvetica,sans-Serif" font-size="11.00" fill="#000000">rev_id</text>
<polygon fill="#ffffff" stroke="transparent" points="289,-393.7 289,-415.7 474,-415.7 474,-393.7 289,-393.7"/>
<polygon fill="none" stroke="#000000" points="289,-393.7 289,-415.7 474,-415.7 474,-393.7 289,-393.7"/>
<text text-anchor="start" x="318" y="-400.8" font-family="Helvetica,sans-Serif" font-size="11.00" fill="#000000">id</text>
<polygon fill="none" stroke="#000000" points="289,-371.7 289,-393.7 474,-393.7 474,-371.7 289,-371.7"/>
<image xlink:href="../../images/foreignKeys.png" width="11px" height="12px" preserveAspectRatio="xMinYMin meet" x="294" y="-388.7"/>
<text text-anchor="start" x="318" y="-378.8" font-family="Helvetica,sans-Serif" font-size="11.00" fill="#000000">policy_code</text>
<polygon fill="none" stroke="#000000" points="289,-352.7 289,-371.7 474,-371.7 474,-352.7 289,-352.7"/>
<text text-anchor="start" x="292" y="-358.8" font-family="Helvetica,sans-Serif" font-size="11.00" fill="#000000">...</text>
<polygon fill="#ffffff" stroke="transparent" points="289,-333.7 289,-352.7 380,-352.7 380,-333.7 289,-333.7"/>
<polygon fill="none" stroke="#000000" points="289,-333.7 289,-352.7 380,-352.7 380,-333.7 289,-333.7"/>
<text text-anchor="start" x="292" y="-339.8" font-family="Helvetica,sans-Serif" font-size="11.00" fill="#000000">&lt; 2</text>
<polygon fill="#ffffff" stroke="transparent" points="380,-333.7 380,-352.7 427,-352.7 427,-333.7 380,-333.7"/>
<polygon fill="none" stroke="#000000" points="380,-333.7 380,-352.7 427,-352.7 427,-333.7 380,-333.7"/>
<text text-anchor="start" x="417.8862" y="-339.8" font-family="Helvetica,sans-Serif" font-size="11.00" fill="#000000"> &#160;</text>
<polygon fill="#ffffff" stroke="transparent" points="427,-333.7 427,-352.7 474,-352.7 474,-333.7 427,-333.7"/>
<polygon fill="none" stroke="#000000" points="427,-333.7 427,-352.7 474,-352.7 474,-333.7 427,-333.7"/>
<text text-anchor="start" x="464.8862" y="-339.8" font-family="Helvetica,sans-Serif" font-size="11.00" fill="#000000"> &#160;</text>
</a>
</g>
</g>
<!-- recorded_event_audit&#45;&gt;policy -->
<g id="edge7" class="edge">
<title>recorded_event_audit:w&#45;&gt;policy:e</title>
<path fill="none" stroke="#000000" d="M274.5587,-384.1002C238.1622,-391.8807 237.2016,-430.9165 217,-471.7 181.2584,-543.856 254.523,-647.7 174,-647.7"/>
<polygon fill="#000000" stroke="#000000" points="281.0373,-383.4721 289.3474,-386.2832 285.0187,-383.086 289,-382.7 289,-382.7 289,-382.7 285.0187,-383.086 288.6526,-379.1168 281.0373,-383.4721 281.0373,-383.4721"/>
<ellipse fill="none" stroke="#000000" cx="277.8523" cy="-383.7809" rx="3.2" ry="3.2"/>
</g>
<!-- reference_data_policy -->
<g id="node8" class="node">
<title>reference_data_policy</title>
<g id="a_node8"><a xlink:href="../../tables/reference_data_policy.html" xlink:title="reference_data_policy" target="_top">
<polygon fill="#ffffff" stroke="transparent" points="288,-208.2 288,-313.2 474,-313.2 474,-208.2 288,-208.2"/>
<polygon fill="#f5f5f5" stroke="transparent" points="288,-289.7 288,-312.7 474,-312.7 474,-289.7 288,-289.7"/>
<polygon fill="none" stroke="#000000" points="288,-289.7 288,-312.7 474,-312.7 474,-289.7 288,-289.7"/>
<text text-anchor="start" x="293" y="-298.3" font-family="Helvetica,sans-Serif" font-weight="bold" font-size="11.00" fill="#000000">reference_data_policy</text>
<text text-anchor="start" x="439.5219" y="-297.8" font-family="Helvetica,sans-Serif" font-size="11.00" fill="#000000">[table]</text>
<polygon fill="#ffffff" stroke="transparent" points="288,-267.7 288,-289.7 474,-289.7 474,-267.7 288,-267.7"/>
<polygon fill="none" stroke="#000000" points="288,-267.7 288,-289.7 474,-289.7 474,-267.7 288,-267.7"/>
<image xlink:href="../../images/foreignKeys.png" width="11px" height="12px" preserveAspectRatio="xMinYMin meet" x="293" y="-284.7"/>
<text text-anchor="start" x="317" y="-274.8" font-family="Helvetica,sans-Serif" font-size="11.00" fill="#000000">id</text>
<polygon fill="#ffffff" stroke="transparent" points="288,-245.7 288,-267.7 474,-267.7 474,-245.7 288,-245.7"/>
<polygon fill="none" stroke="#000000" points="288,-245.7 288,-267.7 474,-267.7 474,-245.7 288,-245.7"/>
<image xlink:href="../../images/foreignKeys.png" width="11px" height="12px" preserveAspectRatio="xMinYMin meet" x="293" y="-262.7"/>
<text text-anchor="start" x="317" y="-252.8" font-family="Helvetica,sans-Serif" font-size="11.00" fill="#000000">policy_code</text>
<polygon fill="none" stroke="#000000" points="288,-226.7 288,-245.7 474,-245.7 474,-226.7 288,-226.7"/>
<text text-anchor="start" x="291" y="-232.8" font-family="Helvetica,sans-Serif" font-size="11.00" fill="#000000">...</text>
<polygon fill="#ffffff" stroke="transparent" points="288,-207.7 288,-226.7 363,-226.7 363,-207.7 288,-207.7"/>
<polygon fill="none" stroke="#000000" points="288,-207.7 288,-226.7 363,-226.7 363,-207.7 288,-207.7"/>
<text text-anchor="start" x="291" y="-213.8" font-family="Helvetica,sans-Serif" font-size="11.00" fill="#000000">&lt; 2</text>
<polygon fill="#ffffff" stroke="transparent" points="363,-207.7 363,-226.7 434,-226.7 434,-207.7 363,-207.7"/>
<polygon fill="none" stroke="#000000" points="363,-207.7 363,-226.7 434,-226.7 434,-207.7 363,-207.7"/>
<text text-anchor="start" x="392.4956" y="-213.8" font-family="Helvetica,sans-Serif" font-size="11.00" fill="#000000">84 rows</text>
<polygon fill="#ffffff" stroke="transparent" points="434,-207.7 434,-226.7 474,-226.7 474,-207.7 434,-207.7"/>
<polygon fill="none" stroke="#000000" points="434,-207.7 434,-226.7 474,-226.7 474,-207.7 434,-207.7"/>
<text text-anchor="start" x="464.8862" y="-213.8" font-family="Helvetica,sans-Serif" font-size="11.00" fill="#000000"> &#160;</text>
</a>
</g>
</g>
<!-- reference_data_policy&#45;&gt;policy -->
<g id="edge8" class="edge">
<title>reference_data_policy:w&#45;&gt;policy:e</title>
<path fill="none" stroke="#000000" d="M273.3032,-257.9949C242.4659,-263.9549 234.3003,-289.907 217,-323.7 183.9018,-388.3515 246.6313,-647.7 174,-647.7"/>
<polygon fill="#000000" stroke="#000000" points="280.0309,-257.4022 288.316,-260.2861 284.0154,-257.0511 288,-256.7 288,-256.7 288,-256.7 284.0154,-257.0511 287.684,-253.1139 280.0309,-257.4022 280.0309,-257.4022"/>
<ellipse fill="none" stroke="#000000" cx="276.8432" cy="-257.683" rx="3.2" ry="3.2"/>
</g>
<!-- staff_configuration -->
<g id="node9" class="node">
<title>staff_configuration</title>
<g id="a_node9"><a xlink:href="../../tables/staff_configuration.html" xlink:title="staff_configuration" target="_top">
<polygon fill="#ffffff" stroke="transparent" points="297.5,-38.2 297.5,-187.2 464.5,-187.2 464.5,-38.2 297.5,-38.2"/>
<polygon fill="#f5f5f5" stroke="transparent" points="298,-163.7 298,-186.7 465,-186.7 465,-163.7 298,-163.7"/>
<polygon fill="none" stroke="#000000" points="298,-163.7 298,-186.7 465,-186.7 465,-163.7 298,-163.7"/>
<text text-anchor="start" x="303" y="-172.3" font-family="Helvetica,sans-Serif" font-weight="bold" font-size="11.00" fill="#000000">staff_configuration</text>
<text text-anchor="start" x="430.5219" y="-171.8" font-family="Helvetica,sans-Serif" font-size="11.00" fill="#000000">[table]</text>
<polygon fill="#ffffff" stroke="transparent" points="298,-141.7 298,-163.7 465,-163.7 465,-141.7 298,-141.7"/>
<polygon fill="none" stroke="#000000" points="298,-141.7 298,-163.7 465,-163.7 465,-141.7 298,-141.7"/>
<text text-anchor="start" x="327" y="-148.8" font-family="Helvetica,sans-Serif" font-size="11.00" fill="#000000">staff_id</text>
<polygon fill="none" stroke="#000000" points="298,-119.7 298,-141.7 465,-141.7 465,-119.7 298,-119.7"/>
<image xlink:href="../../images/foreignKeys.png" width="11px" height="12px" preserveAspectRatio="xMinYMin meet" x="303" y="-136.7"/>
<text text-anchor="start" x="327" y="-126.8" font-family="Helvetica,sans-Serif" font-size="11.00" fill="#000000">status_id</text>
<polygon fill="#ffffff" stroke="transparent" points="298,-97.7 298,-119.7 465,-119.7 465,-97.7 298,-97.7"/>
<polygon fill="none" stroke="#000000" points="298,-97.7 298,-119.7 465,-119.7 465,-97.7 298,-97.7"/>
<image xlink:href="../../images/foreignKeys.png" width="11px" height="12px" preserveAspectRatio="xMinYMin meet" x="303" y="-114.7"/>
<text text-anchor="start" x="327" y="-104.8" font-family="Helvetica,sans-Serif" font-size="11.00" fill="#000000">policy_code</text>
<polygon fill="none" stroke="#000000" points="298,-75.7 298,-97.7 465,-97.7 465,-75.7 298,-75.7"/>
<image xlink:href="../../images/primaryKeys.png" width="11px" height="12px" preserveAspectRatio="xMinYMin meet" x="303" y="-92.7"/>
<text text-anchor="start" x="327" y="-82.8" font-family="Helvetica,sans-Serif" font-size="11.00" fill="#000000">id</text>
<polygon fill="none" stroke="#000000" points="298,-56.7 298,-75.7 465,-75.7 465,-56.7 298,-56.7"/>
<text text-anchor="start" x="301" y="-62.8" font-family="Helvetica,sans-Serif" font-size="11.00" fill="#000000">...</text>
<polygon fill="#ffffff" stroke="transparent" points="298,-37.7 298,-56.7 380,-56.7 380,-37.7 298,-37.7"/>
<polygon fill="none" stroke="#000000" points="298,-37.7 298,-56.7 380,-56.7 380,-37.7 298,-37.7"/>
<text text-anchor="start" x="301" y="-43.8" font-family="Helvetica,sans-Serif" font-size="11.00" fill="#000000">&lt; 2</text>
<polygon fill="#ffffff" stroke="transparent" points="380,-37.7 380,-56.7 422,-56.7 422,-37.7 380,-37.7"/>
<polygon fill="none" stroke="#000000" points="380,-37.7 380,-56.7 422,-56.7 422,-37.7 380,-37.7"/>
<text text-anchor="start" x="412.8862" y="-43.8" font-family="Helvetica,sans-Serif" font-size="11.00" fill="#000000"> &#160;</text>
<polygon fill="#ffffff" stroke="transparent" points="422,-37.7 422,-56.7 465,-56.7 465,-37.7 422,-37.7"/>
<polygon fill="none" stroke="#000000" points="422,-37.7 422,-56.7 465,-56.7 465,-37.7 422,-37.7"/>
<text text-anchor="start" x="455.8862" y="-43.8" font-family="Helvetica,sans-Serif" font-size="11.00" fill="#000000"> &#160;</text>
</a>
</g>
</g>
<!-- staff_configuration&#45;&gt;policy -->
<g id="edge9" class="edge">
<title>staff_configuration:w&#45;&gt;policy:e</title>
<path fill="none" stroke="#000000" d="M283.634,-109.818C243.2196,-116.615 236.539,-153.5703 217,-197.7 196.665,-243.6273 224.2278,-647.7 174,-647.7"/>
<polygon fill="#000000" stroke="#000000" points="290.0241,-109.3207 298.2793,-112.2891 294.0121,-109.0104 298,-108.7 298,-108.7 298,-108.7 294.0121,-109.0104 297.7207,-105.1109 290.0241,-109.3207 290.0241,-109.3207"/>
<ellipse fill="none" stroke="#000000" cx="286.8338" cy="-109.569" rx="3.2" ry="3.2"/>
</g>
</g>
</svg>
