<?xml version="1.0" encoding="UTF-8" standalone="no"?>
<!DOCTYPE svg PUBLIC "-//W3C//DTD SVG 1.1//EN"
 "http://www.w3.org/Graphics/SVG/1.1/DTD/svg11.dtd">
<!-- Generated by graphviz version 2.40.1 (20161225.0304)
 -->
<!-- Title: oneDegreeRelationshipsDiagram Pages: 1 -->
<svg width="553pt" height="775pt"
 viewBox="0.00 0.00 553.00 775.20" xmlns="http://www.w3.org/2000/svg" xmlns:xlink="http://www.w3.org/1999/xlink">
<g id="graph0" class="graph" transform="scale(1 1) rotate(0) translate(4 771.2)">
<title>oneDegreeRelationshipsDiagram</title>
<polygon fill="#ffffff" stroke="transparent" points="-4,4 -4,-771.2 549,-771.2 549,4 -4,4"/>
<text text-anchor="middle" x="72.4936" y="-7.3" font-family="Helvetica,sans-Serif" font-size="11.00" fill="#000000">Generated by SchemaSpy</text>
<!-- allocation -->
<g id="node1" class="node">
<title>allocation</title>
<g id="a_node1"><a xlink:href="../../tables/allocation.html" xlink:title="allocation" target="_top">
<polygon fill="#ffffff" stroke="transparent" points="294,-526.2 294,-763.2 468,-763.2 468,-526.2 294,-526.2"/>
<polygon fill="#f5f5f5" stroke="transparent" points="294,-739.7 294,-762.7 468,-762.7 468,-739.7 294,-739.7"/>
<polygon fill="none" stroke="#000000" points="294,-739.7 294,-762.7 468,-762.7 468,-739.7 294,-739.7"/>
<text text-anchor="start" x="299" y="-748.3" font-family="Helvetica,sans-Serif" font-weight="bold" font-size="11.00" fill="#000000">allocation</text>
<text text-anchor="start" x="433.0437" y="-747.8" font-family="Helvetica,sans-Serif" font-size="11.00" fill="#000000">[table]</text>
<polygon fill="none" stroke="#000000" points="294,-717.7 294,-739.7 468,-739.7 468,-717.7 294,-717.7"/>
<image xlink:href="../../images/primaryKeys.png" width="11px" height="12px" preserveAspectRatio="xMinYMin meet" x="299" y="-734.7"/>
<text text-anchor="start" x="314" y="-724.8" font-family="Helvetica,sans-Serif" font-size="11.00" fill="#000000">id</text>
<polygon fill="#ffffff" stroke="transparent" points="294,-695.7 294,-717.7 468,-717.7 468,-695.7 294,-695.7"/>
<polygon fill="none" stroke="#000000" points="294,-695.7 294,-717.7 468,-717.7 468,-695.7 294,-695.7"/>
<image xlink:href="../../images/foreignKeys.png" width="11px" height="12px" preserveAspectRatio="xMinYMin meet" x="299" y="-712.7"/>
<text text-anchor="start" x="314" y="-702.8" font-family="Helvetica,sans-Serif" font-size="11.00" fill="#000000">prison_code</text>
<polygon fill="#ffffff" stroke="transparent" points="294,-673.7 294,-695.7 468,-695.7 468,-673.7 294,-673.7"/>
<polygon fill="none" stroke="#000000" points="294,-673.7 294,-695.7 468,-695.7 468,-673.7 294,-673.7"/>
<text text-anchor="start" x="314" y="-680.8" font-family="Helvetica,sans-Serif" font-size="11.00" fill="#000000">staff_id</text>
<polygon fill="#ffffff" stroke="transparent" points="294,-651.7 294,-673.7 468,-673.7 468,-651.7 294,-651.7"/>
<polygon fill="none" stroke="#000000" points="294,-651.7 294,-673.7 468,-673.7 468,-651.7 294,-651.7"/>
<text text-anchor="start" x="314" y="-658.8" font-family="Helvetica,sans-Serif" font-size="11.00" fill="#000000">person_identifier</text>
<polygon fill="#ffffff" stroke="transparent" points="294,-629.7 294,-651.7 468,-651.7 468,-629.7 294,-629.7"/>
<polygon fill="none" stroke="#000000" points="294,-629.7 294,-651.7 468,-651.7 468,-629.7 294,-629.7"/>
<text text-anchor="start" x="314" y="-636.8" font-family="Helvetica,sans-Serif" font-size="11.00" fill="#000000">allocated_at</text>
<polygon fill="none" stroke="#000000" points="294,-607.7 294,-629.7 468,-629.7 468,-607.7 294,-607.7"/>
<image xlink:href="../../images/foreignKeys.png" width="11px" height="12px" preserveAspectRatio="xMinYMin meet" x="299" y="-624.7"/>
<text text-anchor="start" x="314" y="-614.8" font-family="Helvetica,sans-Serif" font-size="11.00" fill="#000000">allocation_reason_id</text>
<polygon fill="none" stroke="#000000" points="294,-585.7 294,-607.7 468,-607.7 468,-585.7 294,-585.7"/>
<image xlink:href="../../images/foreignKeys.png" width="11px" height="12px" preserveAspectRatio="xMinYMin meet" x="299" y="-602.7"/>
<text text-anchor="start" x="314" y="-592.8" font-family="Helvetica,sans-Serif" font-size="11.00" fill="#000000">deallocation_reason_id</text>
<polygon fill="#ffffff" stroke="transparent" points="294,-563.7 294,-585.7 468,-585.7 468,-563.7 294,-563.7"/>
<polygon fill="none" stroke="#000000" points="294,-563.7 294,-585.7 468,-585.7 468,-563.7 294,-563.7"/>
<image xlink:href="../../images/foreignKeys.png" width="11px" height="12px" preserveAspectRatio="xMinYMin meet" x="299" y="-580.7"/>
<text text-anchor="start" x="314" y="-570.8" font-family="Helvetica,sans-Serif" font-size="11.00" fill="#000000">policy_code</text>
<polygon fill="none" stroke="#000000" points="294,-544.7 294,-563.7 468,-563.7 468,-544.7 294,-544.7"/>
<text text-anchor="start" x="297" y="-550.8" font-family="Helvetica,sans-Serif" font-size="11.00" fill="#000000">...</text>
<polygon fill="#ffffff" stroke="transparent" points="294,-525.7 294,-544.7 379,-544.7 379,-525.7 294,-525.7"/>
<polygon fill="none" stroke="#000000" points="294,-525.7 294,-544.7 379,-544.7 379,-525.7 294,-525.7"/>
<text text-anchor="start" x="297" y="-531.8" font-family="Helvetica,sans-Serif" font-size="11.00" fill="#000000">&lt; 3</text>
<polygon fill="#ffffff" stroke="transparent" points="379,-525.7 379,-544.7 423,-544.7 423,-525.7 379,-525.7"/>
<polygon fill="none" stroke="#000000" points="379,-525.7 379,-544.7 423,-544.7 423,-525.7 379,-525.7"/>
<text text-anchor="start" x="413.8862" y="-531.8" font-family="Helvetica,sans-Serif" font-size="11.00" fill="#000000"> &#160;</text>
<polygon fill="#ffffff" stroke="transparent" points="423,-525.7 423,-544.7 468,-544.7 468,-525.7 423,-525.7"/>
<polygon fill="none" stroke="#000000" points="423,-525.7 423,-544.7 468,-544.7 468,-525.7 423,-525.7"/>
<text text-anchor="start" x="458.8862" y="-531.8" font-family="Helvetica,sans-Serif" font-size="11.00" fill="#000000"> &#160;</text>
</a>
</g>
</g>
<!-- policy -->
<g id="node2" class="node">
<title>policy</title>
<g id="a_node2"><a xlink:href="../../tables/policy.html" xlink:title="policy" target="_top">
<polygon fill="#ffffff" stroke="transparent" points="8,-298.7 8,-388.7 176,-388.7 176,-298.7 8,-298.7"/>
<polygon fill="#f5f5f5" stroke="transparent" points="10,-363.7 10,-386.7 174,-386.7 174,-363.7 10,-363.7"/>
<polygon fill="none" stroke="#000000" points="10,-363.7 10,-386.7 174,-386.7 174,-363.7 10,-363.7"/>
<text text-anchor="start" x="15" y="-372.3" font-family="Helvetica,sans-Serif" font-weight="bold" font-size="11.00" fill="#000000">policy</text>
<text text-anchor="start" x="139.0437" y="-371.8" font-family="Helvetica,sans-Serif" font-size="11.00" fill="#000000">[table]</text>
<polygon fill="none" stroke="#000000" points="10,-341.7 10,-363.7 107,-363.7 107,-341.7 10,-341.7"/>
<image xlink:href="../../images/primaryKeys.png" width="11px" height="12px" preserveAspectRatio="xMinYMin meet" x="15" y="-358.7"/>
<text text-anchor="start" x="30" y="-348.8" font-family="Helvetica,sans-Serif" font-size="11.00" fill="#000000">code</text>
<polygon fill="none" stroke="#000000" points="107,-341.7 107,-363.7 174,-363.7 174,-341.7 107,-341.7"/>
<text text-anchor="start" x="110" y="-349.4" font-family="Helvetica,sans-Serif" font-size="11.00" fill="#000000">varchar[16]</text>
<polygon fill="none" stroke="#000000" points="10,-319.7 10,-341.7 107,-341.7 107,-319.7 10,-319.7"/>
<text text-anchor="start" x="30" y="-326.8" font-family="Helvetica,sans-Serif" font-size="11.00" fill="#000000">description</text>
<polygon fill="none" stroke="#000000" points="107,-319.7 107,-341.7 174,-341.7 174,-319.7 107,-319.7"/>
<text text-anchor="start" x="109.9365" y="-327.4" font-family="Helvetica,sans-Serif" font-size="11.00" fill="#000000">varchar[255]</text>
<polygon fill="#ffffff" stroke="transparent" points="10,-300.7 10,-319.7 63,-319.7 63,-300.7 10,-300.7"/>
<polygon fill="none" stroke="#000000" points="10,-300.7 10,-319.7 63,-319.7 63,-300.7 10,-300.7"/>
<text text-anchor="start" x="13" y="-306.8" font-family="Helvetica,sans-Serif" font-size="11.00" fill="#000000">&lt; 0</text>
<polygon fill="#ffffff" stroke="transparent" points="63,-300.7 63,-319.7 107,-319.7 107,-300.7 63,-300.7"/>
<polygon fill="none" stroke="#000000" points="63,-300.7 63,-319.7 107,-319.7 107,-300.7 63,-300.7"/>
<text text-anchor="start" x="97.8862" y="-306.8" font-family="Helvetica,sans-Serif" font-size="11.00" fill="#000000"> &#160;</text>
<polygon fill="#ffffff" stroke="transparent" points="107,-300.7 107,-319.7 174,-319.7 174,-300.7 107,-300.7"/>
<polygon fill="none" stroke="#000000" points="107,-300.7 107,-319.7 174,-319.7 174,-300.7 107,-300.7"/>
<text text-anchor="start" x="155.4053" y="-306.8" font-family="Helvetica,sans-Serif" font-size="11.00" fill="#000000">4 &gt;</text>
<polygon fill="none" stroke="#000000" stroke-width="2" points="9,-299.7 9,-387.7 175,-387.7 175,-299.7 9,-299.7"/>
</a>
</g>
</g>
<!-- allocation&#45;&gt;policy -->
<g id="edge1" class="edge">
<title>allocation:w&#45;&gt;policy:e</title>
<path fill="none" stroke="#000000" d="M279.2932,-573.6367C248.1716,-568.7218 237.9085,-547.0999 217,-515.7 175.4743,-453.3378 248.9228,-352.7 174,-352.7"/>
<polygon fill="#000000" stroke="#000000" points="286.0208,-574.1231 293.7404,-578.2906 290.0104,-574.4115 294,-574.7 294,-574.7 294,-574.7 290.0104,-574.4115 294.2596,-571.1094 286.0208,-574.1231 286.0208,-574.1231"/>
<ellipse fill="none" stroke="#000000" cx="282.8292" cy="-573.8923" rx="3.2" ry="3.2"/>
</g>
<!-- prison_configuration -->
<g id="node3" class="node">
<title>prison_configuration</title>
<g id="a_node3"><a xlink:href="../../tables/prison_configuration.html" xlink:title="prison_configuration" target="_top">
<polygon fill="#ffffff" stroke="transparent" points="225,-378.2 225,-505.2 537,-505.2 537,-378.2 225,-378.2"/>
<polygon fill="#f5f5f5" stroke="transparent" points="225,-481.7 225,-504.7 537,-504.7 537,-481.7 225,-481.7"/>
<polygon fill="none" stroke="#000000" points="225,-481.7 225,-504.7 537,-504.7 537,-481.7 225,-481.7"/>
<text text-anchor="start" x="230" y="-490.3" font-family="Helvetica,sans-Serif" font-weight="bold" font-size="11.00" fill="#000000">prison_configuration</text>
<text text-anchor="start" x="502.0437" y="-489.8" font-family="Helvetica,sans-Serif" font-size="11.00" fill="#000000">[table]</text>
<polygon fill="#ffffff" stroke="transparent" points="225,-459.7 225,-481.7 537,-481.7 537,-459.7 225,-459.7"/>
<polygon fill="none" stroke="#000000" points="225,-459.7 225,-481.7 537,-481.7 537,-459.7 225,-459.7"/>
<image xlink:href="../../images/foreignKeys.png" width="11px" height="12px" preserveAspectRatio="xMinYMin meet" x="230" y="-476.7"/>
<text text-anchor="start" x="245" y="-466.8" font-family="Helvetica,sans-Serif" font-size="11.00" fill="#000000">prison_code</text>
<polygon fill="#ffffff" stroke="transparent" points="225,-437.7 225,-459.7 537,-459.7 537,-437.7 225,-437.7"/>
<polygon fill="none" stroke="#000000" points="225,-437.7 225,-459.7 537,-459.7 537,-437.7 225,-437.7"/>
<image xlink:href="../../images/foreignKeys.png" width="11px" height="12px" preserveAspectRatio="xMinYMin meet" x="230" y="-454.7"/>
<text text-anchor="start" x="245" y="-444.8" font-family="Helvetica,sans-Serif" font-size="11.00" fill="#000000">policy_code</text>
<polygon fill="none" stroke="#000000" points="225,-415.7 225,-437.7 537,-437.7 537,-415.7 225,-415.7"/>
<image xlink:href="../../images/primaryKeys.png" width="11px" height="12px" preserveAspectRatio="xMinYMin meet" x="230" y="-432.7"/>
<text text-anchor="start" x="245" y="-422.8" font-family="Helvetica,sans-Serif" font-size="11.00" fill="#000000">id</text>
<polygon fill="none" stroke="#000000" points="225,-396.7 225,-415.7 537,-415.7 537,-396.7 225,-396.7"/>
<text text-anchor="start" x="228" y="-402.8" font-family="Helvetica,sans-Serif" font-size="11.00" fill="#000000">...</text>
<polygon fill="#ffffff" stroke="transparent" points="225,-377.7 225,-396.7 363,-396.7 363,-377.7 225,-377.7"/>
<polygon fill="none" stroke="#000000" points="225,-377.7 225,-396.7 363,-396.7 363,-377.7 225,-377.7"/>
<text text-anchor="start" x="228" y="-383.8" font-family="Helvetica,sans-Serif" font-size="11.00" fill="#000000">&lt; 1</text>
<polygon fill="#ffffff" stroke="transparent" points="363,-377.7 363,-396.7 466,-396.7 466,-377.7 363,-377.7"/>
<polygon fill="none" stroke="#000000" points="363,-377.7 363,-396.7 466,-396.7 466,-377.7 363,-377.7"/>
<text text-anchor="start" x="424.4956" y="-383.8" font-family="Helvetica,sans-Serif" font-size="11.00" fill="#000000">12 rows</text>
<polygon fill="#ffffff" stroke="transparent" points="466,-377.7 466,-396.7 537,-396.7 537,-377.7 466,-377.7"/>
<polygon fill="none" stroke="#000000" points="466,-377.7 466,-396.7 537,-396.7 537,-377.7 466,-377.7"/>
<text text-anchor="start" x="527.8862" y="-383.8" font-family="Helvetica,sans-Serif" font-size="11.00" fill="#000000"> &#160;</text>
</a>
</g>
</g>
<!-- prison_configuration&#45;&gt;policy -->
<g id="edge2" class="edge">
<title>prison_configuration:w&#45;&gt;policy:e</title>
<path fill="none" stroke="#000000" d="M210.9189,-444.575C186.6253,-426.2 216.2746,-352.7 174,-352.7"/>
<polygon fill="#000000" stroke="#000000" points="217.3226,-446.4509 223.9879,-452.1548 221.1613,-447.5755 225,-448.7 225,-448.7 225,-448.7 221.1613,-447.5755 226.0121,-445.2452 217.3226,-446.4509 217.3226,-446.4509"/>
<ellipse fill="none" stroke="#000000" cx="214.2517" cy="-445.5513" rx="3.2" ry="3.2"/>
</g>
<!-- prison_statistic -->
<g id="node4" class="node">
<title>prison_statistic</title>
<g id="a_node4"><a xlink:href="../../tables/prison_statistic.html" xlink:title="prison_statistic" target="_top">
<polygon fill="#ffffff" stroke="transparent" points="233,-208.2 233,-357.2 529,-357.2 529,-208.2 233,-208.2"/>
<polygon fill="#f5f5f5" stroke="transparent" points="233,-333.7 233,-356.7 529,-356.7 529,-333.7 233,-333.7"/>
<polygon fill="none" stroke="#000000" points="233,-333.7 233,-356.7 529,-356.7 529,-333.7 233,-333.7"/>
<text text-anchor="start" x="238" y="-342.3" font-family="Helvetica,sans-Serif" font-weight="bold" font-size="11.00" fill="#000000">prison_statistic</text>
<text text-anchor="start" x="494.0437" y="-341.8" font-family="Helvetica,sans-Serif" font-size="11.00" fill="#000000">[table]</text>
<polygon fill="none" stroke="#000000" points="233,-311.7 233,-333.7 529,-333.7 529,-311.7 233,-311.7"/>
<image xlink:href="../../images/primaryKeys.png" width="11px" height="12px" preserveAspectRatio="xMinYMin meet" x="238" y="-328.7"/>
<text text-anchor="start" x="253" y="-318.8" font-family="Helvetica,sans-Serif" font-size="11.00" fill="#000000">id</text>
<polygon fill="#ffffff" stroke="transparent" points="233,-289.7 233,-311.7 529,-311.7 529,-289.7 233,-289.7"/>
<polygon fill="none" stroke="#000000" points="233,-289.7 233,-311.7 529,-311.7 529,-289.7 233,-289.7"/>
<image xlink:href="../../images/foreignKeys.png" width="11px" height="12px" preserveAspectRatio="xMinYMin meet" x="238" y="-306.7"/>
<text text-anchor="start" x="253" y="-296.8" font-family="Helvetica,sans-Serif" font-size="11.00" fill="#000000">prison_code</text>
<polygon fill="#ffffff" stroke="transparent" points="233,-267.7 233,-289.7 529,-289.7 529,-267.7 233,-267.7"/>
<polygon fill="none" stroke="#000000" points="233,-267.7 233,-289.7 529,-289.7 529,-267.7 233,-267.7"/>
<text text-anchor="start" x="253" y="-274.8" font-family="Helvetica,sans-Serif" font-size="11.00" fill="#000000">statistic_date</text>
<polygon fill="none" stroke="#000000" points="233,-245.7 233,-267.7 529,-267.7 529,-245.7 233,-245.7"/>
<image xlink:href="../../images/foreignKeys.png" width="11px" height="12px" preserveAspectRatio="xMinYMin meet" x="238" y="-262.7"/>
<text text-anchor="start" x="253" y="-252.8" font-family="Helvetica,sans-Serif" font-size="11.00" fill="#000000">policy_code</text>
<polygon fill="none" stroke="#000000" points="233,-226.7 233,-245.7 529,-245.7 529,-226.7 233,-226.7"/>
<text text-anchor="start" x="236" y="-232.8" font-family="Helvetica,sans-Serif" font-size="11.00" fill="#000000">...</text>
<polygon fill="#ffffff" stroke="transparent" points="233,-207.7 233,-226.7 379,-226.7 379,-207.7 233,-207.7"/>
<polygon fill="none" stroke="#000000" points="233,-207.7 233,-226.7 379,-226.7 379,-207.7 233,-207.7"/>
<text text-anchor="start" x="236" y="-213.8" font-family="Helvetica,sans-Serif" font-size="11.00" fill="#000000">&lt; 1</text>
<polygon fill="#ffffff" stroke="transparent" points="379,-207.7 379,-226.7 454,-226.7 454,-207.7 379,-207.7"/>
<polygon fill="none" stroke="#000000" points="379,-207.7 379,-226.7 454,-226.7 454,-207.7 379,-207.7"/>
<text text-anchor="start" x="444.8862" y="-213.8" font-family="Helvetica,sans-Serif" font-size="11.00" fill="#000000"> &#160;</text>
<polygon fill="#ffffff" stroke="transparent" points="454,-207.7 454,-226.7 529,-226.7 529,-207.7 454,-207.7"/>
<polygon fill="none" stroke="#000000" points="454,-207.7 454,-226.7 529,-226.7 529,-207.7 454,-207.7"/>
<text text-anchor="start" x="519.8862" y="-213.8" font-family="Helvetica,sans-Serif" font-size="11.00" fill="#000000"> &#160;</text>
</a>
</g>
</g>
<!-- prison_statistic&#45;&gt;policy -->
<g id="edge3" class="edge">
<title>prison_statistic:w&#45;&gt;policy:e</title>
<path fill="none" stroke="#000000" d="M218.859,-260.3461C191.3136,-277.8816 218.2116,-352.7 174,-352.7"/>
<polygon fill="#000000" stroke="#000000" points="225.2534,-258.6974 233.8988,-260.186 229.1267,-257.6987 233,-256.7 233,-256.7 233,-256.7 229.1267,-257.6987 232.1012,-253.214 225.2534,-258.6974 225.2534,-258.6974"/>
<ellipse fill="none" stroke="#000000" cx="222.1547" cy="-259.4964" rx="3.2" ry="3.2"/>
</g>
<!-- staff_configuration -->
<g id="node5" class="node">
<title>staff_configuration</title>
<g id="a_node5"><a xlink:href="../../tables/staff_configuration.html" xlink:title="staff_configuration" target="_top">
<polygon fill="#ffffff" stroke="transparent" points="297.5,-38.2 297.5,-187.2 464.5,-187.2 464.5,-38.2 297.5,-38.2"/>
<polygon fill="#f5f5f5" stroke="transparent" points="298,-163.7 298,-186.7 465,-186.7 465,-163.7 298,-163.7"/>
<polygon fill="none" stroke="#000000" points="298,-163.7 298,-186.7 465,-186.7 465,-163.7 298,-163.7"/>
<text text-anchor="start" x="303" y="-172.3" font-family="Helvetica,sans-Serif" font-weight="bold" font-size="11.00" fill="#000000">staff_configuration</text>
<text text-anchor="start" x="430.5219" y="-171.8" font-family="Helvetica,sans-Serif" font-size="11.00" fill="#000000">[table]</text>
<polygon fill="#ffffff" stroke="transparent" points="298,-141.7 298,-163.7 465,-163.7 465,-141.7 298,-141.7"/>
<polygon fill="none" stroke="#000000" points="298,-141.7 298,-163.7 465,-163.7 465,-141.7 298,-141.7"/>
<text text-anchor="start" x="319" y="-148.8" font-family="Helvetica,sans-Serif" font-size="11.00" fill="#000000">staff_id</text>
<polygon fill="none" stroke="#000000" points="298,-119.7 298,-141.7 465,-141.7 465,-119.7 298,-119.7"/>
<image xlink:href="../../images/foreignKeys.png" width="11px" height="12px" preserveAspectRatio="xMinYMin meet" x="303" y="-136.7"/>
<text text-anchor="start" x="319" y="-126.8" font-family="Helvetica,sans-Serif" font-size="11.00" fill="#000000">status_id</text>
<polygon fill="#ffffff" stroke="transparent" points="298,-97.7 298,-119.7 465,-119.7 465,-97.7 298,-97.7"/>
<polygon fill="none" stroke="#000000" points="298,-97.7 298,-119.7 465,-119.7 465,-97.7 298,-97.7"/>
<image xlink:href="../../images/foreignKeys.png" width="11px" height="12px" preserveAspectRatio="xMinYMin meet" x="303" y="-114.7"/>
<text text-anchor="start" x="319" y="-104.8" font-family="Helvetica,sans-Serif" font-size="11.00" fill="#000000">policy_code</text>
<polygon fill="none" stroke="#000000" points="298,-75.7 298,-97.7 465,-97.7 465,-75.7 298,-75.7"/>
<image xlink:href="../../images/primaryKeys.png" width="11px" height="12px" preserveAspectRatio="xMinYMin meet" x="303" y="-92.7"/>
<text text-anchor="start" x="319" y="-82.8" font-family="Helvetica,sans-Serif" font-size="11.00" fill="#000000">id</text>
<polygon fill="none" stroke="#000000" points="298,-56.7 298,-75.7 465,-75.7 465,-56.7 298,-56.7"/>
<text text-anchor="start" x="301" y="-62.8" font-family="Helvetica,sans-Serif" font-size="11.00" fill="#000000">...</text>
<polygon fill="#ffffff" stroke="transparent" points="298,-37.7 298,-56.7 380,-56.7 380,-37.7 298,-37.7"/>
<polygon fill="none" stroke="#000000" points="298,-37.7 298,-56.7 380,-56.7 380,-37.7 298,-37.7"/>
<text text-anchor="start" x="301" y="-43.8" font-family="Helvetica,sans-Serif" font-size="11.00" fill="#000000">&lt; 2</text>
<polygon fill="#ffffff" stroke="transparent" points="380,-37.7 380,-56.7 422,-56.7 422,-37.7 380,-37.7"/>
<polygon fill="none" stroke="#000000" points="380,-37.7 380,-56.7 422,-56.7 422,-37.7 380,-37.7"/>
<text text-anchor="start" x="412.8862" y="-43.8" font-family="Helvetica,sans-Serif" font-size="11.00" fill="#000000"> &#160;</text>
<polygon fill="#ffffff" stroke="transparent" points="422,-37.7 422,-56.7 465,-56.7 465,-37.7 422,-37.7"/>
<polygon fill="none" stroke="#000000" points="422,-37.7 422,-56.7 465,-56.7 465,-37.7 422,-37.7"/>
<text text-anchor="start" x="455.8862" y="-43.8" font-family="Helvetica,sans-Serif" font-size="11.00" fill="#000000"> &#160;</text>
</a>
</g>
</g>
<!-- staff_configuration&#45;&gt;policy -->
<g id="edge4" class="edge">
<title>staff_configuration:w&#45;&gt;policy:e</title>
<path fill="none" stroke="#000000" d="M283.4846,-109.9184C243.9439,-117.1488 240.2776,-155.5421 217,-197.7 182.4439,-260.2843 245.4907,-352.7 174,-352.7"/>
<polygon fill="#000000" stroke="#000000" points="290.028,-109.3692 298.3011,-112.2874 294.014,-109.0346 298,-108.7 298,-108.7 298,-108.7 294.014,-109.0346 297.6989,-105.1126 290.028,-109.3692 290.028,-109.3692"/>
<ellipse fill="none" stroke="#000000" cx="286.8392" cy="-109.6369" rx="3.2" ry="3.2"/>
</g>
</g>
</svg>
