<?xml version="1.0" encoding="UTF-8" standalone="no"?>
<!DOCTYPE svg PUBLIC "-//W3C//DTD SVG 1.1//EN"
 "http://www.w3.org/Graphics/SVG/1.1/DTD/svg11.dtd">
<!-- Generated by graphviz version 2.40.1 (20161225.0304)
 -->
<!-- Title: twoDegreesRelationshipsDiagram Pages: 1 -->
<svg width="553pt" height="605pt"
 viewBox="0.00 0.00 553.00 605.20" xmlns="http://www.w3.org/2000/svg" xmlns:xlink="http://www.w3.org/1999/xlink">
<g id="graph0" class="graph" transform="scale(1 1) rotate(0) translate(4 601.2)">
<title>twoDegreesRelationshipsDiagram</title>
<polygon fill="#ffffff" stroke="transparent" points="-4,4 -4,-601.2 549,-601.2 549,4 -4,4"/>
<text text-anchor="middle" x="72.4936" y="-7.3" font-family="Helvetica,sans-Serif" font-size="11.00" fill="#000000">Generated by SchemaSpy</text>
<!-- allocation -->
<g id="node1" class="node">
<title>allocation</title>
<g id="a_node1"><a xlink:href="../../tables/allocation.html" xlink:title="allocation" target="_top">
<polygon fill="#ffffff" stroke="transparent" points="294,-356.2 294,-593.2 468,-593.2 468,-356.2 294,-356.2"/>
<polygon fill="#f5f5f5" stroke="transparent" points="294,-569.7 294,-592.7 468,-592.7 468,-569.7 294,-569.7"/>
<polygon fill="none" stroke="#000000" points="294,-569.7 294,-592.7 468,-592.7 468,-569.7 294,-569.7"/>
<text text-anchor="start" x="299" y="-578.3" font-family="Helvetica,sans-Serif" font-weight="bold" font-size="11.00" fill="#000000">allocation</text>
<text text-anchor="start" x="433.0437" y="-577.8" font-family="Helvetica,sans-Serif" font-size="11.00" fill="#000000">[table]</text>
<polygon fill="none" stroke="#000000" points="294,-547.7 294,-569.7 468,-569.7 468,-547.7 294,-547.7"/>
<image xlink:href="../../images/primaryKeys.png" width="11px" height="12px" preserveAspectRatio="xMinYMin meet" x="299" y="-564.7"/>
<text text-anchor="start" x="314" y="-554.8" font-family="Helvetica,sans-Serif" font-size="11.00" fill="#000000">id</text>
<polygon fill="#ffffff" stroke="transparent" points="294,-525.7 294,-547.7 468,-547.7 468,-525.7 294,-525.7"/>
<polygon fill="none" stroke="#000000" points="294,-525.7 294,-547.7 468,-547.7 468,-525.7 294,-525.7"/>
<image xlink:href="../../images/foreignKeys.png" width="11px" height="12px" preserveAspectRatio="xMinYMin meet" x="299" y="-542.7"/>
<text text-anchor="start" x="314" y="-532.8" font-family="Helvetica,sans-Serif" font-size="11.00" fill="#000000">prison_code</text>
<polygon fill="#ffffff" stroke="transparent" points="294,-503.7 294,-525.7 468,-525.7 468,-503.7 294,-503.7"/>
<polygon fill="none" stroke="#000000" points="294,-503.7 294,-525.7 468,-525.7 468,-503.7 294,-503.7"/>
<text text-anchor="start" x="314" y="-510.8" font-family="Helvetica,sans-Serif" font-size="11.00" fill="#000000">staff_id</text>
<polygon fill="#ffffff" stroke="transparent" points="294,-481.7 294,-503.7 468,-503.7 468,-481.7 294,-481.7"/>
<polygon fill="none" stroke="#000000" points="294,-481.7 294,-503.7 468,-503.7 468,-481.7 294,-481.7"/>
<text text-anchor="start" x="314" y="-488.8" font-family="Helvetica,sans-Serif" font-size="11.00" fill="#000000">person_identifier</text>
<polygon fill="#ffffff" stroke="transparent" points="294,-459.7 294,-481.7 468,-481.7 468,-459.7 294,-459.7"/>
<polygon fill="none" stroke="#000000" points="294,-459.7 294,-481.7 468,-481.7 468,-459.7 294,-459.7"/>
<text text-anchor="start" x="314" y="-466.8" font-family="Helvetica,sans-Serif" font-size="11.00" fill="#000000">allocated_at</text>
<polygon fill="none" stroke="#000000" points="294,-437.7 294,-459.7 468,-459.7 468,-437.7 294,-437.7"/>
<image xlink:href="../../images/foreignKeys.png" width="11px" height="12px" preserveAspectRatio="xMinYMin meet" x="299" y="-454.7"/>
<text text-anchor="start" x="314" y="-444.8" font-family="Helvetica,sans-Serif" font-size="11.00" fill="#000000">allocation_reason_id</text>
<polygon fill="none" stroke="#000000" points="294,-415.7 294,-437.7 468,-437.7 468,-415.7 294,-415.7"/>
<image xlink:href="../../images/foreignKeys.png" width="11px" height="12px" preserveAspectRatio="xMinYMin meet" x="299" y="-432.7"/>
<text text-anchor="start" x="314" y="-422.8" font-family="Helvetica,sans-Serif" font-size="11.00" fill="#000000">deallocation_reason_id</text>
<polygon fill="#ffffff" stroke="transparent" points="294,-393.7 294,-415.7 468,-415.7 468,-393.7 294,-393.7"/>
<polygon fill="none" stroke="#000000" points="294,-393.7 294,-415.7 468,-415.7 468,-393.7 294,-393.7"/>
<image xlink:href="../../images/foreignKeys.png" width="11px" height="12px" preserveAspectRatio="xMinYMin meet" x="299" y="-410.7"/>
<text text-anchor="start" x="314" y="-400.8" font-family="Helvetica,sans-Serif" font-size="11.00" fill="#000000">policy_code</text>
<polygon fill="none" stroke="#000000" points="294,-374.7 294,-393.7 468,-393.7 468,-374.7 294,-374.7"/>
<text text-anchor="start" x="297" y="-380.8" font-family="Helvetica,sans-Serif" font-size="11.00" fill="#000000">...</text>
<polygon fill="#ffffff" stroke="transparent" points="294,-355.7 294,-374.7 379,-374.7 379,-355.7 294,-355.7"/>
<polygon fill="none" stroke="#000000" points="294,-355.7 294,-374.7 379,-374.7 379,-355.7 294,-355.7"/>
<text text-anchor="start" x="297" y="-361.8" font-family="Helvetica,sans-Serif" font-size="11.00" fill="#000000">&lt; 3</text>
<polygon fill="#ffffff" stroke="transparent" points="379,-355.7 379,-374.7 423,-374.7 423,-355.7 379,-355.7"/>
<polygon fill="none" stroke="#000000" points="379,-355.7 379,-374.7 423,-374.7 423,-355.7 379,-355.7"/>
<text text-anchor="start" x="413.8862" y="-361.8" font-family="Helvetica,sans-Serif" font-size="11.00" fill="#000000"> &#160;</text>
<polygon fill="#ffffff" stroke="transparent" points="423,-355.7 423,-374.7 468,-374.7 468,-355.7 423,-355.7"/>
<polygon fill="none" stroke="#000000" points="423,-355.7 423,-374.7 468,-374.7 468,-355.7 423,-355.7"/>
<text text-anchor="start" x="458.8862" y="-361.8" font-family="Helvetica,sans-Serif" font-size="11.00" fill="#000000"> &#160;</text>
</a>
</g>
</g>
<!-- reference_data -->
<g id="node2" class="node">
<title>reference_data</title>
<g id="a_node2"><a xlink:href="../../tables/reference_data.html" xlink:title="reference_data" target="_top">
<polygon fill="#ffffff" stroke="transparent" points="22,-399.2 22,-460.2 162,-460.2 162,-399.2 22,-399.2"/>
<polygon fill="#f5f5f5" stroke="transparent" points="22,-436.7 22,-459.7 162,-459.7 162,-436.7 22,-436.7"/>
<polygon fill="none" stroke="#000000" points="22,-436.7 22,-459.7 162,-459.7 162,-436.7 22,-436.7"/>
<text text-anchor="start" x="27" y="-445.3" font-family="Helvetica,sans-Serif" font-weight="bold" font-size="11.00" fill="#000000">reference_data</text>
<text text-anchor="start" x="127.5219" y="-444.8" font-family="Helvetica,sans-Serif" font-size="11.00" fill="#000000">[table]</text>
<polygon fill="none" stroke="#000000" points="22,-417.7 22,-436.7 162,-436.7 162,-417.7 22,-417.7"/>
<text text-anchor="start" x="25" y="-423.8" font-family="Helvetica,sans-Serif" font-size="11.00" fill="#000000">...</text>
<polygon fill="#ffffff" stroke="transparent" points="22,-398.7 22,-417.7 65,-417.7 65,-398.7 22,-398.7"/>
<polygon fill="none" stroke="#000000" points="22,-398.7 22,-417.7 65,-417.7 65,-398.7 22,-398.7"/>
<text text-anchor="start" x="25" y="-404.8" font-family="Helvetica,sans-Serif" font-size="11.00" fill="#000000"> &#160;</text>
<polygon fill="#ffffff" stroke="transparent" points="65,-398.7 65,-417.7 125,-417.7 125,-398.7 65,-398.7"/>
<polygon fill="none" stroke="#000000" points="65,-398.7 65,-417.7 125,-417.7 125,-398.7 65,-398.7"/>
<text text-anchor="start" x="83.4956" y="-404.8" font-family="Helvetica,sans-Serif" font-size="11.00" fill="#000000">54 rows</text>
<polygon fill="#ffffff" stroke="transparent" points="125,-398.7 125,-417.7 162,-417.7 162,-398.7 125,-398.7"/>
<polygon fill="none" stroke="#000000" points="125,-398.7 125,-417.7 162,-417.7 162,-398.7 125,-398.7"/>
<text text-anchor="start" x="143.4053" y="-404.8" font-family="Helvetica,sans-Serif" font-size="11.00" fill="#000000">5 &gt;</text>
</a>
</g>
</g>
<!-- allocation&#45;&gt;reference_data -->
<g id="edge1" class="edge">
<title>allocation:w&#45;&gt;reference_data:e</title>
<path fill="none" stroke="#000000" d="M279.3308,-448.22C231.8718,-445.0028 216.2485,-426.7 162,-426.7"/>
<polygon fill="#000000" stroke="#000000" points="286.0043,-448.4383 293.8823,-452.2981 290.0021,-448.5692 294,-448.7 294,-448.7 294,-448.7 290.0021,-448.5692 294.1177,-445.1019 286.0043,-448.4383 286.0043,-448.4383"/>
<ellipse fill="none" stroke="#000000" cx="282.806" cy="-448.3337" rx="3.2" ry="3.2"/>
</g>
<!-- allocation&#45;&gt;reference_data -->
<g id="edge2" class="edge">
<title>allocation:w&#45;&gt;reference_data:e</title>
<path fill="none" stroke="#000000" d="M279.4912,-426.7C232.4153,-426.7 215.5104,-426.7 162,-426.7"/>
<polygon fill="#000000" stroke="#000000" points="286,-426.7001 294,-430.3 290,-426.7 294,-426.7 294,-426.7 294,-426.7 290,-426.7 294,-423.1 286,-426.7001 286,-426.7001"/>
<ellipse fill="none" stroke="#000000" cx="282.8" cy="-426.7001" rx="3.2" ry="3.2"/>
</g>
<!-- policy -->
<g id="node3" class="node">
<title>policy</title>
<g id="a_node3"><a xlink:href="../../tables/policy.html" xlink:title="policy" target="_top">
<polygon fill="#ffffff" stroke="transparent" points="8,-202.7 8,-292.7 176,-292.7 176,-202.7 8,-202.7"/>
<polygon fill="#f5f5f5" stroke="transparent" points="10,-267.7 10,-290.7 174,-290.7 174,-267.7 10,-267.7"/>
<polygon fill="none" stroke="#000000" points="10,-267.7 10,-290.7 174,-290.7 174,-267.7 10,-267.7"/>
<text text-anchor="start" x="15" y="-276.3" font-family="Helvetica,sans-Serif" font-weight="bold" font-size="11.00" fill="#000000">policy</text>
<text text-anchor="start" x="139.0437" y="-275.8" font-family="Helvetica,sans-Serif" font-size="11.00" fill="#000000">[table]</text>
<polygon fill="none" stroke="#000000" points="10,-245.7 10,-267.7 107,-267.7 107,-245.7 10,-245.7"/>
<image xlink:href="../../images/primaryKeys.png" width="11px" height="12px" preserveAspectRatio="xMinYMin meet" x="15" y="-262.7"/>
<text text-anchor="start" x="30" y="-252.8" font-family="Helvetica,sans-Serif" font-size="11.00" fill="#000000">code</text>
<polygon fill="none" stroke="#000000" points="107,-245.7 107,-267.7 174,-267.7 174,-245.7 107,-245.7"/>
<text text-anchor="start" x="110" y="-253.4" font-family="Helvetica,sans-Serif" font-size="11.00" fill="#000000">varchar[16]</text>
<polygon fill="none" stroke="#000000" points="10,-223.7 10,-245.7 107,-245.7 107,-223.7 10,-223.7"/>
<text text-anchor="start" x="30" y="-230.8" font-family="Helvetica,sans-Serif" font-size="11.00" fill="#000000">description</text>
<polygon fill="none" stroke="#000000" points="107,-223.7 107,-245.7 174,-245.7 174,-223.7 107,-223.7"/>
<text text-anchor="start" x="109.9365" y="-231.4" font-family="Helvetica,sans-Serif" font-size="11.00" fill="#000000">varchar[255]</text>
<polygon fill="#ffffff" stroke="transparent" points="10,-204.7 10,-223.7 63,-223.7 63,-204.7 10,-204.7"/>
<polygon fill="none" stroke="#000000" points="10,-204.7 10,-223.7 63,-223.7 63,-204.7 10,-204.7"/>
<text text-anchor="start" x="13" y="-210.8" font-family="Helvetica,sans-Serif" font-size="11.00" fill="#000000">&lt; 0</text>
<polygon fill="#ffffff" stroke="transparent" points="63,-204.7 63,-223.7 107,-223.7 107,-204.7 63,-204.7"/>
<polygon fill="none" stroke="#000000" points="63,-204.7 63,-223.7 107,-223.7 107,-204.7 63,-204.7"/>
<text text-anchor="start" x="97.8862" y="-210.8" font-family="Helvetica,sans-Serif" font-size="11.00" fill="#000000"> &#160;</text>
<polygon fill="#ffffff" stroke="transparent" points="107,-204.7 107,-223.7 174,-223.7 174,-204.7 107,-204.7"/>
<polygon fill="none" stroke="#000000" points="107,-204.7 107,-223.7 174,-223.7 174,-204.7 107,-204.7"/>
<text text-anchor="start" x="155.4053" y="-210.8" font-family="Helvetica,sans-Serif" font-size="11.00" fill="#000000">3 &gt;</text>
<polygon fill="none" stroke="#000000" stroke-width="2" points="9,-203.7 9,-291.7 175,-291.7 175,-203.7 9,-203.7"/>
</a>
</g>
</g>
<!-- allocation&#45;&gt;policy -->
<g id="edge3" class="edge">
<title>allocation:w&#45;&gt;policy:e</title>
<path fill="none" stroke="#000000" d="M279.4299,-403.5359C248.9005,-398.1842 240.8241,-374.9494 217,-345.7 189.2565,-311.6387 217.9304,-256.7 174,-256.7"/>
<polygon fill="#000000" stroke="#000000" points="286.0254,-404.0628 293.7133,-408.2886 290.0127,-404.3814 294,-404.7 294,-404.7 294,-404.7 290.0127,-404.3814 294.2867,-401.1114 286.0254,-404.0628 286.0254,-404.0628"/>
<ellipse fill="none" stroke="#000000" cx="282.8356" cy="-403.8079" rx="3.2" ry="3.2"/>
</g>
<!-- prison_configuration -->
<g id="node4" class="node">
<title>prison_configuration</title>
<g id="a_node4"><a xlink:href="../../tables/prison_configuration.html" xlink:title="prison_configuration" target="_top">
<polygon fill="#ffffff" stroke="transparent" points="225,-38.2 225,-165.2 537,-165.2 537,-38.2 225,-38.2"/>
<polygon fill="#f5f5f5" stroke="transparent" points="225,-141.7 225,-164.7 537,-164.7 537,-141.7 225,-141.7"/>
<polygon fill="none" stroke="#000000" points="225,-141.7 225,-164.7 537,-164.7 537,-141.7 225,-141.7"/>
<text text-anchor="start" x="230" y="-150.3" font-family="Helvetica,sans-Serif" font-weight="bold" font-size="11.00" fill="#000000">prison_configuration</text>
<text text-anchor="start" x="502.0437" y="-149.8" font-family="Helvetica,sans-Serif" font-size="11.00" fill="#000000">[table]</text>
<polygon fill="#ffffff" stroke="transparent" points="225,-119.7 225,-141.7 537,-141.7 537,-119.7 225,-119.7"/>
<polygon fill="none" stroke="#000000" points="225,-119.7 225,-141.7 537,-141.7 537,-119.7 225,-119.7"/>
<image xlink:href="../../images/foreignKeys.png" width="11px" height="12px" preserveAspectRatio="xMinYMin meet" x="230" y="-136.7"/>
<text text-anchor="start" x="245" y="-126.8" font-family="Helvetica,sans-Serif" font-size="11.00" fill="#000000">prison_code</text>
<polygon fill="#ffffff" stroke="transparent" points="225,-97.7 225,-119.7 537,-119.7 537,-97.7 225,-97.7"/>
<polygon fill="none" stroke="#000000" points="225,-97.7 225,-119.7 537,-119.7 537,-97.7 225,-97.7"/>
<image xlink:href="../../images/foreignKeys.png" width="11px" height="12px" preserveAspectRatio="xMinYMin meet" x="230" y="-114.7"/>
<text text-anchor="start" x="245" y="-104.8" font-family="Helvetica,sans-Serif" font-size="11.00" fill="#000000">policy_code</text>
<polygon fill="none" stroke="#000000" points="225,-75.7 225,-97.7 537,-97.7 537,-75.7 225,-75.7"/>
<image xlink:href="../../images/primaryKeys.png" width="11px" height="12px" preserveAspectRatio="xMinYMin meet" x="230" y="-92.7"/>
<text text-anchor="start" x="245" y="-82.8" font-family="Helvetica,sans-Serif" font-size="11.00" fill="#000000">id</text>
<polygon fill="none" stroke="#000000" points="225,-56.7 225,-75.7 537,-75.7 537,-56.7 225,-56.7"/>
<text text-anchor="start" x="228" y="-62.8" font-family="Helvetica,sans-Serif" font-size="11.00" fill="#000000">...</text>
<polygon fill="#ffffff" stroke="transparent" points="225,-37.7 225,-56.7 363,-56.7 363,-37.7 225,-37.7"/>
<polygon fill="none" stroke="#000000" points="225,-37.7 225,-56.7 363,-56.7 363,-37.7 225,-37.7"/>
<text text-anchor="start" x="228" y="-43.8" font-family="Helvetica,sans-Serif" font-size="11.00" fill="#000000">&lt; 1</text>
<polygon fill="#ffffff" stroke="transparent" points="363,-37.7 363,-56.7 466,-56.7 466,-37.7 363,-37.7"/>
<polygon fill="none" stroke="#000000" points="363,-37.7 363,-56.7 466,-56.7 466,-37.7 363,-37.7"/>
<text text-anchor="start" x="424.4956" y="-43.8" font-family="Helvetica,sans-Serif" font-size="11.00" fill="#000000">12 rows</text>
<polygon fill="#ffffff" stroke="transparent" points="466,-37.7 466,-56.7 537,-56.7 537,-37.7 466,-37.7"/>
<polygon fill="none" stroke="#000000" points="466,-37.7 466,-56.7 537,-56.7 537,-37.7 466,-37.7"/>
<text text-anchor="start" x="527.8862" y="-43.8" font-family="Helvetica,sans-Serif" font-size="11.00" fill="#000000"> &#160;</text>
</a>
</g>
</g>
<!-- prison_configuration&#45;&gt;policy -->
<g id="edge4" class="edge">
<title>prison_configuration:w&#45;&gt;policy:e</title>
<path fill="none" stroke="#000000" d="M210.6212,-111.6564C169.1199,-132.5155 237.7306,-256.7 174,-256.7"/>
<polygon fill="#000000" stroke="#000000" points="217.1639,-110.3112 225.725,-112.2262 221.082,-109.5056 225,-108.7 225,-108.7 225,-108.7 221.082,-109.5056 224.275,-105.1738 217.1639,-110.3112 217.1639,-110.3112"/>
<ellipse fill="none" stroke="#000000" cx="214.0295" cy="-110.9557" rx="3.2" ry="3.2"/>
</g>
<!-- staff_configuration -->
<g id="node5" class="node">
<title>staff_configuration</title>
<g id="a_node5"><a xlink:href="../../tables/staff_configuration.html" xlink:title="staff_configuration" target="_top">
<polygon fill="#ffffff" stroke="transparent" points="297.5,-186.2 297.5,-335.2 464.5,-335.2 464.5,-186.2 297.5,-186.2"/>
<polygon fill="#f5f5f5" stroke="transparent" points="298,-311.7 298,-334.7 465,-334.7 465,-311.7 298,-311.7"/>
<polygon fill="none" stroke="#000000" points="298,-311.7 298,-334.7 465,-334.7 465,-311.7 298,-311.7"/>
<text text-anchor="start" x="303" y="-320.3" font-family="Helvetica,sans-Serif" font-weight="bold" font-size="11.00" fill="#000000">staff_configuration</text>
<text text-anchor="start" x="430.5219" y="-319.8" font-family="Helvetica,sans-Serif" font-size="11.00" fill="#000000">[table]</text>
<polygon fill="#ffffff" stroke="transparent" points="298,-289.7 298,-311.7 465,-311.7 465,-289.7 298,-289.7"/>
<polygon fill="none" stroke="#000000" points="298,-289.7 298,-311.7 465,-311.7 465,-289.7 298,-289.7"/>
<text text-anchor="start" x="319" y="-296.8" font-family="Helvetica,sans-Serif" font-size="11.00" fill="#000000">staff_id</text>
<polygon fill="none" stroke="#000000" points="298,-267.7 298,-289.7 465,-289.7 465,-267.7 298,-267.7"/>
<image xlink:href="../../images/foreignKeys.png" width="11px" height="12px" preserveAspectRatio="xMinYMin meet" x="303" y="-284.7"/>
<text text-anchor="start" x="319" y="-274.8" font-family="Helvetica,sans-Serif" font-size="11.00" fill="#000000">status_id</text>
<polygon fill="#ffffff" stroke="transparent" points="298,-245.7 298,-267.7 465,-267.7 465,-245.7 298,-245.7"/>
<polygon fill="none" stroke="#000000" points="298,-245.7 298,-267.7 465,-267.7 465,-245.7 298,-245.7"/>
<image xlink:href="../../images/foreignKeys.png" width="11px" height="12px" preserveAspectRatio="xMinYMin meet" x="303" y="-262.7"/>
<text text-anchor="start" x="319" y="-252.8" font-family="Helvetica,sans-Serif" font-size="11.00" fill="#000000">policy_code</text>
<polygon fill="none" stroke="#000000" points="298,-223.7 298,-245.7 465,-245.7 465,-223.7 298,-223.7"/>
<image xlink:href="../../images/primaryKeys.png" width="11px" height="12px" preserveAspectRatio="xMinYMin meet" x="303" y="-240.7"/>
<text text-anchor="start" x="319" y="-230.8" font-family="Helvetica,sans-Serif" font-size="11.00" fill="#000000">id</text>
<polygon fill="none" stroke="#000000" points="298,-204.7 298,-223.7 465,-223.7 465,-204.7 298,-204.7"/>
<text text-anchor="start" x="301" y="-210.8" font-family="Helvetica,sans-Serif" font-size="11.00" fill="#000000">...</text>
<polygon fill="#ffffff" stroke="transparent" points="298,-185.7 298,-204.7 380,-204.7 380,-185.7 298,-185.7"/>
<polygon fill="none" stroke="#000000" points="298,-185.7 298,-204.7 380,-204.7 380,-185.7 298,-185.7"/>
<text text-anchor="start" x="301" y="-191.8" font-family="Helvetica,sans-Serif" font-size="11.00" fill="#000000">&lt; 2</text>
<polygon fill="#ffffff" stroke="transparent" points="380,-185.7 380,-204.7 422,-204.7 422,-185.7 380,-185.7"/>
<polygon fill="none" stroke="#000000" points="380,-185.7 380,-204.7 422,-204.7 422,-185.7 380,-185.7"/>
<text text-anchor="start" x="412.8862" y="-191.8" font-family="Helvetica,sans-Serif" font-size="11.00" fill="#000000"> &#160;</text>
<polygon fill="#ffffff" stroke="transparent" points="422,-185.7 422,-204.7 465,-204.7 465,-185.7 422,-185.7"/>
<polygon fill="none" stroke="#000000" points="422,-185.7 422,-204.7 465,-204.7 465,-185.7 422,-185.7"/>
<text text-anchor="start" x="455.8862" y="-191.8" font-family="Helvetica,sans-Serif" font-size="11.00" fill="#000000"> &#160;</text>
</a>
</g>
</g>
<!-- staff_configuration&#45;&gt;reference_data -->
<g id="edge6" class="edge">
<title>staff_configuration:w&#45;&gt;reference_data:e</title>
<path fill="none" stroke="#000000" d="M283.2662,-279.9877C250.2214,-286.3321 244.753,-315.1896 217,-345.7 187.7194,-377.8898 205.5147,-426.7 162,-426.7"/>
<polygon fill="#000000" stroke="#000000" points="290.0304,-279.3966 298.3135,-282.2863 294.0152,-279.0483 298,-278.7 298,-278.7 298,-278.7 294.0152,-279.0483 297.6865,-275.1137 290.0304,-279.3966 290.0304,-279.3966"/>
<ellipse fill="none" stroke="#000000" cx="286.8425" cy="-279.6752" rx="3.2" ry="3.2"/>
</g>
<!-- staff_configuration&#45;&gt;policy -->
<g id="edge5" class="edge">
<title>staff_configuration:w&#45;&gt;policy:e</title>
<path fill="none" stroke="#000000" d="M283.5217,-256.7C239.9423,-256.7 223.9444,-256.7 174,-256.7"/>
<polygon fill="#000000" stroke="#000000" points="290,-256.7001 298,-260.3 294,-256.7 298,-256.7 298,-256.7 298,-256.7 294,-256.7 298,-253.1 290,-256.7001 290,-256.7001"/>
<ellipse fill="none" stroke="#000000" cx="286.8" cy="-256.7001" rx="3.2" ry="3.2"/>
</g>
</g>
</svg>
