<?xml version="1.0" encoding="UTF-8" standalone="no"?>
<!DOCTYPE svg PUBLIC "-//W3C//DTD SVG 1.1//EN"
 "http://www.w3.org/Graphics/SVG/1.1/DTD/svg11.dtd">
<!-- Generated by graphviz version 2.40.1 (20161225.0304)
 -->
<!-- Title: twoDegreesRelationshipsDiagram Pages: 1 -->
<svg width="758pt" height="1269pt"
 viewBox="0.00 0.00 758.00 1269.20" xmlns="http://www.w3.org/2000/svg" xmlns:xlink="http://www.w3.org/1999/xlink">
<g id="graph0" class="graph" transform="scale(1 1) rotate(0) translate(4 1265.2)">
<title>twoDegreesRelationshipsDiagram</title>
<polygon fill="#ffffff" stroke="transparent" points="-4,4 -4,-1265.2 754,-1265.2 754,4 -4,4"/>
<text text-anchor="middle" x="72.4936" y="-7.3" font-family="Helvetica,sans-Serif" font-size="11.00" fill="#000000">Generated by SchemaSpy</text>
<!-- allocation -->
<g id="node1" class="node">
<title>allocation</title>
<g id="a_node1"><a xlink:href="../../tables/allocation.html" xlink:title="allocation" target="_top">
<polygon fill="#ffffff" stroke="transparent" points="294,-998.2 294,-1257.2 468,-1257.2 468,-998.2 294,-998.2"/>
<polygon fill="#f5f5f5" stroke="transparent" points="294,-1233.7 294,-1256.7 468,-1256.7 468,-1233.7 294,-1233.7"/>
<polygon fill="none" stroke="#000000" points="294,-1233.7 294,-1256.7 468,-1256.7 468,-1233.7 294,-1233.7"/>
<text text-anchor="start" x="299" y="-1242.3" font-family="Helvetica,sans-Serif" font-weight="bold" font-size="11.00" fill="#000000">allocation</text>
<text text-anchor="start" x="433.0437" y="-1241.8" font-family="Helvetica,sans-Serif" font-size="11.00" fill="#000000">[table]</text>
<polygon fill="none" stroke="#000000" points="294,-1211.7 294,-1233.7 468,-1233.7 468,-1211.7 294,-1211.7"/>
<image xlink:href="../../images/primaryKeys.png" width="11px" height="12px" preserveAspectRatio="xMinYMin meet" x="299" y="-1228.7"/>
<text text-anchor="start" x="314" y="-1218.8" font-family="Helvetica,sans-Serif" font-size="11.00" fill="#000000">id</text>
<polygon fill="#ffffff" stroke="transparent" points="294,-1189.7 294,-1211.7 468,-1211.7 468,-1189.7 294,-1189.7"/>
<polygon fill="none" stroke="#000000" points="294,-1189.7 294,-1211.7 468,-1211.7 468,-1189.7 294,-1189.7"/>
<text text-anchor="start" x="314" y="-1196.8" font-family="Helvetica,sans-Serif" font-size="11.00" fill="#000000">prison_code</text>
<polygon fill="#ffffff" stroke="transparent" points="294,-1167.7 294,-1189.7 468,-1189.7 468,-1167.7 294,-1167.7"/>
<polygon fill="none" stroke="#000000" points="294,-1167.7 294,-1189.7 468,-1189.7 468,-1167.7 294,-1167.7"/>
<text text-anchor="start" x="314" y="-1174.8" font-family="Helvetica,sans-Serif" font-size="11.00" fill="#000000">staff_id</text>
<polygon fill="#ffffff" stroke="transparent" points="294,-1145.7 294,-1167.7 468,-1167.7 468,-1145.7 294,-1145.7"/>
<polygon fill="none" stroke="#000000" points="294,-1145.7 294,-1167.7 468,-1167.7 468,-1145.7 294,-1145.7"/>
<text text-anchor="start" x="314" y="-1152.8" font-family="Helvetica,sans-Serif" font-size="11.00" fill="#000000">person_identifier</text>
<polygon fill="#ffffff" stroke="transparent" points="294,-1123.7 294,-1145.7 468,-1145.7 468,-1123.7 294,-1123.7"/>
<polygon fill="none" stroke="#000000" points="294,-1123.7 294,-1145.7 468,-1145.7 468,-1123.7 294,-1123.7"/>
<text text-anchor="start" x="314" y="-1130.8" font-family="Helvetica,sans-Serif" font-size="11.00" fill="#000000">allocated_at</text>
<polygon fill="none" stroke="#000000" points="294,-1101.7 294,-1123.7 468,-1123.7 468,-1101.7 294,-1101.7"/>
<image xlink:href="../../images/foreignKeys.png" width="11px" height="12px" preserveAspectRatio="xMinYMin meet" x="299" y="-1118.7"/>
<text text-anchor="start" x="314" y="-1108.8" font-family="Helvetica,sans-Serif" font-size="11.00" fill="#000000">allocation_reason_id</text>
<polygon fill="#ffffff" stroke="transparent" points="294,-1079.7 294,-1101.7 468,-1101.7 468,-1079.7 294,-1079.7"/>
<polygon fill="none" stroke="#000000" points="294,-1079.7 294,-1101.7 468,-1101.7 468,-1079.7 294,-1079.7"/>
<text text-anchor="start" x="314" y="-1086.8" font-family="Helvetica,sans-Serif" font-size="11.00" fill="#000000">deallocated_at</text>
<polygon fill="none" stroke="#000000" points="294,-1057.7 294,-1079.7 468,-1079.7 468,-1057.7 294,-1057.7"/>
<image xlink:href="../../images/foreignKeys.png" width="11px" height="12px" preserveAspectRatio="xMinYMin meet" x="299" y="-1074.7"/>
<text text-anchor="start" x="314" y="-1064.8" font-family="Helvetica,sans-Serif" font-size="11.00" fill="#000000">deallocation_reason_id</text>
<polygon fill="#ffffff" stroke="transparent" points="294,-1035.7 294,-1057.7 468,-1057.7 468,-1035.7 294,-1035.7"/>
<polygon fill="none" stroke="#000000" points="294,-1035.7 294,-1057.7 468,-1057.7 468,-1035.7 294,-1035.7"/>
<image xlink:href="../../images/foreignKeys.png" width="11px" height="12px" preserveAspectRatio="xMinYMin meet" x="299" y="-1052.7"/>
<text text-anchor="start" x="314" y="-1042.8" font-family="Helvetica,sans-Serif" font-size="11.00" fill="#000000">policy_code</text>
<polygon fill="none" stroke="#000000" points="294,-1016.7 294,-1035.7 468,-1035.7 468,-1016.7 294,-1016.7"/>
<text text-anchor="start" x="297" y="-1022.8" font-family="Helvetica,sans-Serif" font-size="11.00" fill="#000000">...</text>
<polygon fill="#ffffff" stroke="transparent" points="294,-997.7 294,-1016.7 379,-1016.7 379,-997.7 294,-997.7"/>
<polygon fill="none" stroke="#000000" points="294,-997.7 294,-1016.7 379,-1016.7 379,-997.7 294,-997.7"/>
<text text-anchor="start" x="297" y="-1003.8" font-family="Helvetica,sans-Serif" font-size="11.00" fill="#000000">&lt; 3</text>
<polygon fill="#ffffff" stroke="transparent" points="379,-997.7 379,-1016.7 423,-1016.7 423,-997.7 379,-997.7"/>
<polygon fill="none" stroke="#000000" points="379,-997.7 379,-1016.7 423,-1016.7 423,-997.7 379,-997.7"/>
<text text-anchor="start" x="413.8862" y="-1003.8" font-family="Helvetica,sans-Serif" font-size="11.00" fill="#000000"> &#160;</text>
<polygon fill="#ffffff" stroke="transparent" points="423,-997.7 423,-1016.7 468,-1016.7 468,-997.7 423,-997.7"/>
<polygon fill="none" stroke="#000000" points="423,-997.7 423,-1016.7 468,-1016.7 468,-997.7 423,-997.7"/>
<text text-anchor="start" x="458.8862" y="-1003.8" font-family="Helvetica,sans-Serif" font-size="11.00" fill="#000000"> &#160;</text>
</a>
</g>
</g>
<!-- reference_data -->
<g id="node2" class="node">
<title>reference_data</title>
<g id="a_node2"><a xlink:href="../../tables/reference_data.html" xlink:title="reference_data" target="_top">
<polygon fill="#ffffff" stroke="transparent" points="22,-761.2 22,-822.2 162,-822.2 162,-761.2 22,-761.2"/>
<polygon fill="#f5f5f5" stroke="transparent" points="22,-798.7 22,-821.7 162,-821.7 162,-798.7 22,-798.7"/>
<polygon fill="none" stroke="#000000" points="22,-798.7 22,-821.7 162,-821.7 162,-798.7 22,-798.7"/>
<text text-anchor="start" x="27" y="-807.3" font-family="Helvetica,sans-Serif" font-weight="bold" font-size="11.00" fill="#000000">reference_data</text>
<text text-anchor="start" x="127.5219" y="-806.8" font-family="Helvetica,sans-Serif" font-size="11.00" fill="#000000">[table]</text>
<polygon fill="none" stroke="#000000" points="22,-779.7 22,-798.7 162,-798.7 162,-779.7 22,-779.7"/>
<text text-anchor="start" x="25" y="-785.8" font-family="Helvetica,sans-Serif" font-size="11.00" fill="#000000">...</text>
<polygon fill="#ffffff" stroke="transparent" points="22,-760.7 22,-779.7 65,-779.7 65,-760.7 22,-760.7"/>
<polygon fill="none" stroke="#000000" points="22,-760.7 22,-779.7 65,-779.7 65,-760.7 22,-760.7"/>
<text text-anchor="start" x="25" y="-766.8" font-family="Helvetica,sans-Serif" font-size="11.00" fill="#000000"> &#160;</text>
<polygon fill="#ffffff" stroke="transparent" points="65,-760.7 65,-779.7 125,-779.7 125,-760.7 65,-760.7"/>
<polygon fill="none" stroke="#000000" points="65,-760.7 65,-779.7 125,-779.7 125,-760.7 65,-760.7"/>
<text text-anchor="start" x="83.4956" y="-766.8" font-family="Helvetica,sans-Serif" font-size="11.00" fill="#000000">60 rows</text>
<polygon fill="#ffffff" stroke="transparent" points="125,-760.7 125,-779.7 162,-779.7 162,-760.7 125,-760.7"/>
<polygon fill="none" stroke="#000000" points="125,-760.7 125,-779.7 162,-779.7 162,-760.7 125,-760.7"/>
<text text-anchor="start" x="143.4053" y="-766.8" font-family="Helvetica,sans-Serif" font-size="11.00" fill="#000000">5 &gt;</text>
</a>
</g>
</g>
<!-- allocation&#45;&gt;reference_data -->
<g id="edge1" class="edge">
<title>allocation:w&#45;&gt;reference_data:e</title>
<path fill="none" stroke="#000000" d="M279.4823,-1111.4231C230.8262,-1102.0424 240.9238,-1042.6124 217,-987.7 180.3498,-903.5768 253.7603,-788.7 162,-788.7"/>
<polygon fill="#000000" stroke="#000000" points="286.0308,-1111.999 293.6846,-1116.2862 290.0154,-1112.3495 294,-1112.7 294,-1112.7 294,-1112.7 290.0154,-1112.3495 294.3154,-1109.1138 286.0308,-1111.999 286.0308,-1111.999"/>
<ellipse fill="none" stroke="#000000" cx="282.8431" cy="-1111.7186" rx="3.2" ry="3.2"/>
</g>
<!-- allocation&#45;&gt;reference_data -->
<g id="edge2" class="edge">
<title>allocation:w&#45;&gt;reference_data:e</title>
<path fill="none" stroke="#000000" d="M279.292,-1067.3868C243.4433,-1060.3727 238.7836,-1026.2027 217,-987.7 171.8153,-907.8358 253.7603,-788.7 162,-788.7"/>
<polygon fill="#000000" stroke="#000000" points="286.0317,-1067.9885 293.6798,-1072.2857 290.0158,-1068.3443 294,-1068.7 294,-1068.7 294,-1068.7 290.0158,-1068.3443 294.3202,-1065.1143 286.0317,-1067.9885 286.0317,-1067.9885"/>
<ellipse fill="none" stroke="#000000" cx="282.8444" cy="-1067.7039" rx="3.2" ry="3.2"/>
</g>
<!-- policy -->
<g id="node3" class="node">
<title>policy</title>
<g id="a_node3"><a xlink:href="../../tables/policy.html" xlink:title="policy" target="_top">
<polygon fill="#ffffff" stroke="transparent" points="8,-386.7 8,-476.7 176,-476.7 176,-386.7 8,-386.7"/>
<polygon fill="#f5f5f5" stroke="transparent" points="10,-451.7 10,-474.7 174,-474.7 174,-451.7 10,-451.7"/>
<polygon fill="none" stroke="#000000" points="10,-451.7 10,-474.7 174,-474.7 174,-451.7 10,-451.7"/>
<text text-anchor="start" x="15" y="-460.3" font-family="Helvetica,sans-Serif" font-weight="bold" font-size="11.00" fill="#000000">policy</text>
<text text-anchor="start" x="139.0437" y="-459.8" font-family="Helvetica,sans-Serif" font-size="11.00" fill="#000000">[table]</text>
<polygon fill="none" stroke="#000000" points="10,-429.7 10,-451.7 107,-451.7 107,-429.7 10,-429.7"/>
<image xlink:href="../../images/primaryKeys.png" width="11px" height="12px" preserveAspectRatio="xMinYMin meet" x="15" y="-446.7"/>
<text text-anchor="start" x="30" y="-436.8" font-family="Helvetica,sans-Serif" font-size="11.00" fill="#000000">code</text>
<polygon fill="none" stroke="#000000" points="107,-429.7 107,-451.7 174,-451.7 174,-429.7 107,-429.7"/>
<text text-anchor="start" x="110" y="-437.4" font-family="Helvetica,sans-Serif" font-size="11.00" fill="#000000">varchar[16]</text>
<polygon fill="none" stroke="#000000" points="10,-407.7 10,-429.7 107,-429.7 107,-407.7 10,-407.7"/>
<text text-anchor="start" x="30" y="-414.8" font-family="Helvetica,sans-Serif" font-size="11.00" fill="#000000">description</text>
<polygon fill="none" stroke="#000000" points="107,-407.7 107,-429.7 174,-429.7 174,-407.7 107,-407.7"/>
<text text-anchor="start" x="109.9365" y="-415.4" font-family="Helvetica,sans-Serif" font-size="11.00" fill="#000000">varchar[255]</text>
<polygon fill="#ffffff" stroke="transparent" points="10,-388.7 10,-407.7 63,-407.7 63,-388.7 10,-388.7"/>
<polygon fill="none" stroke="#000000" points="10,-388.7 10,-407.7 63,-407.7 63,-388.7 10,-388.7"/>
<text text-anchor="start" x="13" y="-394.8" font-family="Helvetica,sans-Serif" font-size="11.00" fill="#000000">&lt; 0</text>
<polygon fill="#ffffff" stroke="transparent" points="63,-388.7 63,-407.7 107,-407.7 107,-388.7 63,-388.7"/>
<polygon fill="none" stroke="#000000" points="63,-388.7 63,-407.7 107,-407.7 107,-388.7 63,-388.7"/>
<text text-anchor="start" x="97.8862" y="-394.8" font-family="Helvetica,sans-Serif" font-size="11.00" fill="#000000"> &#160;</text>
<polygon fill="#ffffff" stroke="transparent" points="107,-388.7 107,-407.7 174,-407.7 174,-388.7 107,-388.7"/>
<polygon fill="none" stroke="#000000" points="107,-388.7 107,-407.7 174,-407.7 174,-388.7 107,-388.7"/>
<text text-anchor="start" x="155.4053" y="-394.8" font-family="Helvetica,sans-Serif" font-size="11.00" fill="#000000">8 &gt;</text>
<polygon fill="none" stroke="#000000" stroke-width="2" points="9,-387.7 9,-475.7 175,-475.7 175,-387.7 9,-387.7"/>
</a>
</g>
</g>
<!-- allocation&#45;&gt;policy -->
<g id="edge3" class="edge">
<title>allocation:w&#45;&gt;policy:e</title>
<path fill="none" stroke="#000000" d="M279.5832,-1045.7788C247.5579,-1041.3398 235.0908,-1020.9953 217,-987.7 187.8939,-934.1314 234.9653,-440.7 174,-440.7"/>
<polygon fill="#000000" stroke="#000000" points="286.0163,-1046.1898 293.7704,-1050.2927 290.0081,-1046.4449 294,-1046.7 294,-1046.7 294,-1046.7 290.0081,-1046.4449 294.2296,-1043.1073 286.0163,-1046.1898 286.0163,-1046.1898"/>
<ellipse fill="none" stroke="#000000" cx="282.8228" cy="-1045.9857" rx="3.2" ry="3.2"/>
</g>
<!-- prison_configuration -->
<g id="node4" class="node">
<title>prison_configuration</title>
<g id="a_node4"><a xlink:href="../../tables/prison_configuration.html" xlink:title="prison_configuration" target="_top">
<polygon fill="#ffffff" stroke="transparent" points="225,-296.2 225,-423.2 537,-423.2 537,-296.2 225,-296.2"/>
<polygon fill="#f5f5f5" stroke="transparent" points="225,-399.7 225,-422.7 537,-422.7 537,-399.7 225,-399.7"/>
<polygon fill="none" stroke="#000000" points="225,-399.7 225,-422.7 537,-422.7 537,-399.7 225,-399.7"/>
<text text-anchor="start" x="230" y="-408.3" font-family="Helvetica,sans-Serif" font-weight="bold" font-size="11.00" fill="#000000">prison_configuration</text>
<text text-anchor="start" x="502.0437" y="-407.8" font-family="Helvetica,sans-Serif" font-size="11.00" fill="#000000">[table]</text>
<polygon fill="#ffffff" stroke="transparent" points="225,-377.7 225,-399.7 537,-399.7 537,-377.7 225,-377.7"/>
<polygon fill="none" stroke="#000000" points="225,-377.7 225,-399.7 537,-399.7 537,-377.7 225,-377.7"/>
<text text-anchor="start" x="245" y="-384.8" font-family="Helvetica,sans-Serif" font-size="11.00" fill="#000000">prison_code</text>
<polygon fill="#ffffff" stroke="transparent" points="225,-355.7 225,-377.7 537,-377.7 537,-355.7 225,-355.7"/>
<polygon fill="none" stroke="#000000" points="225,-355.7 225,-377.7 537,-377.7 537,-355.7 225,-355.7"/>
<image xlink:href="../../images/foreignKeys.png" width="11px" height="12px" preserveAspectRatio="xMinYMin meet" x="230" y="-372.7"/>
<text text-anchor="start" x="245" y="-362.8" font-family="Helvetica,sans-Serif" font-size="11.00" fill="#000000">policy_code</text>
<polygon fill="none" stroke="#000000" points="225,-333.7 225,-355.7 537,-355.7 537,-333.7 225,-333.7"/>
<image xlink:href="../../images/primaryKeys.png" width="11px" height="12px" preserveAspectRatio="xMinYMin meet" x="230" y="-350.7"/>
<text text-anchor="start" x="245" y="-340.8" font-family="Helvetica,sans-Serif" font-size="11.00" fill="#000000">id</text>
<polygon fill="none" stroke="#000000" points="225,-314.7 225,-333.7 537,-333.7 537,-314.7 225,-314.7"/>
<text text-anchor="start" x="228" y="-320.8" font-family="Helvetica,sans-Serif" font-size="11.00" fill="#000000">...</text>
<polygon fill="#ffffff" stroke="transparent" points="225,-295.7 225,-314.7 363,-314.7 363,-295.7 225,-295.7"/>
<polygon fill="none" stroke="#000000" points="225,-295.7 225,-314.7 363,-314.7 363,-295.7 225,-295.7"/>
<text text-anchor="start" x="228" y="-301.8" font-family="Helvetica,sans-Serif" font-size="11.00" fill="#000000">&lt; 1</text>
<polygon fill="#ffffff" stroke="transparent" points="363,-295.7 363,-314.7 466,-314.7 466,-295.7 363,-295.7"/>
<polygon fill="none" stroke="#000000" points="363,-295.7 363,-314.7 466,-314.7 466,-295.7 363,-295.7"/>
<text text-anchor="start" x="424.4956" y="-301.8" font-family="Helvetica,sans-Serif" font-size="11.00" fill="#000000">12 rows</text>
<polygon fill="#ffffff" stroke="transparent" points="466,-295.7 466,-314.7 537,-314.7 537,-295.7 466,-295.7"/>
<polygon fill="none" stroke="#000000" points="466,-295.7 466,-314.7 537,-314.7 537,-295.7 466,-295.7"/>
<text text-anchor="start" x="527.8862" y="-301.8" font-family="Helvetica,sans-Serif" font-size="11.00" fill="#000000"> &#160;</text>
</a>
</g>
</g>
<!-- prison_configuration&#45;&gt;policy -->
<g id="edge4" class="edge">
<title>prison_configuration:w&#45;&gt;policy:e</title>
<path fill="none" stroke="#000000" d="M211.0503,-371.329C192.2607,-387.5294 207.8581,-440.7 174,-440.7"/>
<polygon fill="#000000" stroke="#000000" points="217.4071,-369.2196 226.1338,-370.1168 221.2036,-367.9598 225,-366.7 225,-366.7 225,-366.7 221.2036,-367.9598 223.8662,-363.2832 217.4071,-369.2196 217.4071,-369.2196"/>
<ellipse fill="none" stroke="#000000" cx="214.37" cy="-370.2275" rx="3.2" ry="3.2"/>
</g>
<!-- prison_statistic -->
<g id="node5" class="node">
<title>prison_statistic</title>
<g id="a_node5"><a xlink:href="../../tables/prison_statistic.html" xlink:title="prison_statistic" target="_top">
<polygon fill="#ffffff" stroke="transparent" points="310,-214.2 310,-275.2 452,-275.2 452,-214.2 310,-214.2"/>
<polygon fill="#f5f5f5" stroke="transparent" points="310,-251.7 310,-274.7 452,-274.7 452,-251.7 310,-251.7"/>
<polygon fill="none" stroke="#000000" points="310,-251.7 310,-274.7 452,-274.7 452,-251.7 310,-251.7"/>
<text text-anchor="start" x="315" y="-260.3" font-family="Helvetica,sans-Serif" font-weight="bold" font-size="11.00" fill="#000000">prison_statistic</text>
<text text-anchor="start" x="417.5219" y="-259.8" font-family="Helvetica,sans-Serif" font-size="11.00" fill="#000000">[table]</text>
<polygon fill="none" stroke="#000000" points="310,-232.7 310,-251.7 452,-251.7 452,-232.7 310,-232.7"/>
<text text-anchor="start" x="313" y="-238.8" font-family="Helvetica,sans-Serif" font-size="11.00" fill="#000000">...</text>
<polygon fill="#ffffff" stroke="transparent" points="310,-213.7 310,-232.7 375,-232.7 375,-213.7 310,-213.7"/>
<polygon fill="none" stroke="#000000" points="310,-213.7 310,-232.7 375,-232.7 375,-213.7 310,-213.7"/>
<text text-anchor="start" x="313" y="-219.8" font-family="Helvetica,sans-Serif" font-size="11.00" fill="#000000">&lt; 1</text>
<polygon fill="#ffffff" stroke="transparent" points="375,-213.7 375,-232.7 409,-232.7 409,-213.7 375,-213.7"/>
<polygon fill="none" stroke="#000000" points="375,-213.7 375,-232.7 409,-232.7 409,-213.7 375,-213.7"/>
<text text-anchor="start" x="399.8862" y="-219.8" font-family="Helvetica,sans-Serif" font-size="11.00" fill="#000000"> &#160;</text>
<polygon fill="#ffffff" stroke="transparent" points="409,-213.7 409,-232.7 452,-232.7 452,-213.7 409,-213.7"/>
<polygon fill="none" stroke="#000000" points="409,-213.7 409,-232.7 452,-232.7 452,-213.7 409,-213.7"/>
<text text-anchor="start" x="433.4053" y="-219.8" font-family="Helvetica,sans-Serif" font-size="11.00" fill="#000000">1 &gt;</text>
</a>
</g>
</g>
<!-- prison_statistic&#45;&gt;policy -->
<g id="edge5" class="edge">
<title>prison_statistic:w&#45;&gt;policy:e</title>
<path fill="none" stroke="#000000" d="M287.6571,-250.7495C261.9622,-256.6571 235.9742,-267.206 217,-285.7 165.8047,-335.5994 245.4907,-440.7 174,-440.7"/>
<polygon fill="#000000" stroke="#000000" points="294.0093,-249.4855 302.5581,-251.4548 297.9324,-248.7048 301.8555,-247.924 301.8555,-247.924 301.8555,-247.924 297.9324,-248.7048 301.1528,-244.3933 294.0093,-249.4855 294.0093,-249.4855"/>
<ellipse fill="none" stroke="#000000" cx="290.8709" cy="-250.11" rx="3.2" ry="3.2"/>
</g>
<!-- prisoner_statistic -->
<g id="node6" class="node">
<title>prisoner_statistic</title>
<g id="a_node6"><a xlink:href="../../tables/prisoner_statistic.html" xlink:title="prisoner_statistic" target="_top">
<polygon fill="#ffffff" stroke="transparent" points="586,-186.2 586,-247.2 742,-247.2 742,-186.2 586,-186.2"/>
<polygon fill="#f5f5f5" stroke="transparent" points="586,-223.7 586,-246.7 742,-246.7 742,-223.7 586,-223.7"/>
<polygon fill="none" stroke="#000000" points="586,-223.7 586,-246.7 742,-246.7 742,-223.7 586,-223.7"/>
<text text-anchor="start" x="591" y="-232.3" font-family="Helvetica,sans-Serif" font-weight="bold" font-size="11.00" fill="#000000">prisoner_statistic</text>
<text text-anchor="start" x="707.5219" y="-231.8" font-family="Helvetica,sans-Serif" font-size="11.00" fill="#000000">[table]</text>
<polygon fill="none" stroke="#000000" points="586,-204.7 586,-223.7 742,-223.7 742,-204.7 586,-204.7"/>
<text text-anchor="start" x="589" y="-210.8" font-family="Helvetica,sans-Serif" font-size="11.00" fill="#000000">...</text>
<polygon fill="#ffffff" stroke="transparent" points="586,-185.7 586,-204.7 662,-204.7 662,-185.7 586,-185.7"/>
<polygon fill="none" stroke="#000000" points="586,-185.7 586,-204.7 662,-204.7 662,-185.7 586,-185.7"/>
<text text-anchor="start" x="589" y="-191.8" font-family="Helvetica,sans-Serif" font-size="11.00" fill="#000000">&lt; 2</text>
<polygon fill="#ffffff" stroke="transparent" points="662,-185.7 662,-204.7 702,-204.7 702,-185.7 662,-185.7"/>
<polygon fill="none" stroke="#000000" points="662,-185.7 662,-204.7 702,-204.7 702,-185.7 662,-185.7"/>
<text text-anchor="start" x="692.8862" y="-191.8" font-family="Helvetica,sans-Serif" font-size="11.00" fill="#000000"> &#160;</text>
<polygon fill="#ffffff" stroke="transparent" points="702,-185.7 702,-204.7 742,-204.7 742,-185.7 702,-185.7"/>
<polygon fill="none" stroke="#000000" points="702,-185.7 702,-204.7 742,-204.7 742,-185.7 702,-185.7"/>
<text text-anchor="start" x="732.8862" y="-191.8" font-family="Helvetica,sans-Serif" font-size="11.00" fill="#000000"> &#160;</text>
</a>
</g>
</g>
<!-- prisoner_statistic&#45;&gt;policy -->
<g id="edge6" class="edge">
<title>prisoner_statistic:w&#45;&gt;policy:e</title>
<path fill="none" stroke="#000000" d="M563.1764,-198.8832C447.6016,-180.9572 267.5798,-161.4714 217,-203.7 134.8226,-272.3092 281.053,-440.7 174,-440.7"/>
<polygon fill="#000000" stroke="#000000" points="569.7351,-199.9203 577.0747,-204.7256 573.6861,-200.545 577.637,-201.1698 577.637,-201.1698 577.637,-201.1698 573.6861,-200.545 578.1993,-197.614 569.7351,-199.9203 569.7351,-199.9203"/>
<ellipse fill="none" stroke="#000000" cx="566.5744" cy="-199.4205" rx="3.2" ry="3.2"/>
</g>
<!-- prisoner_statistic&#45;&gt;prison_statistic -->
<g id="edge7" class="edge">
<title>prisoner_statistic:w&#45;&gt;prison_statistic:e</title>
<path fill="none" stroke="#000000" d="M563.1959,-226.6735C529.4258,-230.0148 492.2757,-233.6904 460.3797,-236.8462"/>
<polygon fill="#000000" stroke="#000000" points="569.9769,-226.0027 578.2925,-228.7975 573.9575,-225.6088 577.938,-225.215 577.938,-225.215 577.938,-225.215 573.9575,-225.6088 577.5835,-221.6325 569.9769,-226.0027 569.9769,-226.0027"/>
<ellipse fill="none" stroke="#000000" cx="566.7924" cy="-226.3178" rx="3.2" ry="3.2"/>
</g>
<!-- recorded_event -->
<g id="node7" class="node">
<title>recorded_event</title>
<g id="a_node7"><a xlink:href="../../tables/recorded_event.html" xlink:title="recorded_event" target="_top">
<polygon fill="#ffffff" stroke="transparent" points="309,-740.2 309,-977.2 453,-977.2 453,-740.2 309,-740.2"/>
<polygon fill="#f5f5f5" stroke="transparent" points="309,-953.7 309,-976.7 453,-976.7 453,-953.7 309,-953.7"/>
<polygon fill="none" stroke="#000000" points="309,-953.7 309,-976.7 453,-976.7 453,-953.7 309,-953.7"/>
<text text-anchor="start" x="314" y="-962.3" font-family="Helvetica,sans-Serif" font-weight="bold" font-size="11.00" fill="#000000">recorded_event</text>
<text text-anchor="start" x="418.5219" y="-961.8" font-family="Helvetica,sans-Serif" font-size="11.00" fill="#000000">[table]</text>
<polygon fill="none" stroke="#000000" points="309,-931.7 309,-953.7 453,-953.7 453,-931.7 309,-931.7"/>
<image xlink:href="../../images/primaryKeys.png" width="11px" height="12px" preserveAspectRatio="xMinYMin meet" x="314" y="-948.7"/>
<text text-anchor="start" x="333" y="-938.8" font-family="Helvetica,sans-Serif" font-size="11.00" fill="#000000">id</text>
<polygon fill="#ffffff" stroke="transparent" points="309,-909.7 309,-931.7 453,-931.7 453,-909.7 309,-909.7"/>
<polygon fill="none" stroke="#000000" points="309,-909.7 309,-931.7 453,-931.7 453,-909.7 309,-909.7"/>
<text text-anchor="start" x="333" y="-916.8" font-family="Helvetica,sans-Serif" font-size="11.00" fill="#000000">prison_code</text>
<polygon fill="#ffffff" stroke="transparent" points="309,-887.7 309,-909.7 453,-909.7 453,-887.7 309,-887.7"/>
<polygon fill="none" stroke="#000000" points="309,-887.7 309,-909.7 453,-909.7 453,-887.7 309,-887.7"/>
<text text-anchor="start" x="333" y="-894.8" font-family="Helvetica,sans-Serif" font-size="11.00" fill="#000000">person_identifier</text>
<polygon fill="#ffffff" stroke="transparent" points="309,-865.7 309,-887.7 453,-887.7 453,-865.7 309,-865.7"/>
<polygon fill="none" stroke="#000000" points="309,-865.7 309,-887.7 453,-887.7 453,-865.7 309,-865.7"/>
<text text-anchor="start" x="333" y="-872.8" font-family="Helvetica,sans-Serif" font-size="11.00" fill="#000000">staff_id</text>
<polygon fill="#ffffff" stroke="transparent" points="309,-843.7 309,-865.7 453,-865.7 453,-843.7 309,-843.7"/>
<polygon fill="none" stroke="#000000" points="309,-843.7 309,-865.7 453,-865.7 453,-843.7 309,-843.7"/>
<text text-anchor="start" x="333" y="-850.8" font-family="Helvetica,sans-Serif" font-size="11.00" fill="#000000">occurred_at</text>
<polygon fill="#ffffff" stroke="transparent" points="309,-821.7 309,-843.7 453,-843.7 453,-821.7 309,-821.7"/>
<polygon fill="none" stroke="#000000" points="309,-821.7 309,-843.7 453,-843.7 453,-821.7 309,-821.7"/>
<text text-anchor="start" x="333" y="-828.8" font-family="Helvetica,sans-Serif" font-size="11.00" fill="#000000">created_at</text>
<polygon fill="#ffffff" stroke="transparent" points="309,-799.7 309,-821.7 453,-821.7 453,-799.7 309,-799.7"/>
<polygon fill="none" stroke="#000000" points="309,-799.7 309,-821.7 453,-821.7 453,-799.7 309,-799.7"/>
<image xlink:href="../../images/foreignKeys.png" width="11px" height="12px" preserveAspectRatio="xMinYMin meet" x="314" y="-816.7"/>
<text text-anchor="start" x="333" y="-806.8" font-family="Helvetica,sans-Serif" font-size="11.00" fill="#000000">policy_code</text>
<polygon fill="#ffffff" stroke="transparent" points="309,-777.7 309,-799.7 453,-799.7 453,-777.7 309,-777.7"/>
<polygon fill="none" stroke="#000000" points="309,-777.7 309,-799.7 453,-799.7 453,-777.7 309,-777.7"/>
<image xlink:href="../../images/foreignKeys.png" width="11px" height="12px" preserveAspectRatio="xMinYMin meet" x="314" y="-794.7"/>
<text text-anchor="start" x="333" y="-784.8" font-family="Helvetica,sans-Serif" font-size="11.00" fill="#000000">type_id</text>
<polygon fill="none" stroke="#000000" points="309,-758.7 309,-777.7 453,-777.7 453,-758.7 309,-758.7"/>
<text text-anchor="start" x="312" y="-764.8" font-family="Helvetica,sans-Serif" font-size="11.00" fill="#000000">...</text>
<polygon fill="#ffffff" stroke="transparent" points="309,-739.7 309,-758.7 379,-758.7 379,-739.7 309,-739.7"/>
<polygon fill="none" stroke="#000000" points="309,-739.7 309,-758.7 379,-758.7 379,-739.7 309,-739.7"/>
<text text-anchor="start" x="312" y="-745.8" font-family="Helvetica,sans-Serif" font-size="11.00" fill="#000000">&lt; 2</text>
<polygon fill="#ffffff" stroke="transparent" points="379,-739.7 379,-758.7 416,-758.7 416,-739.7 379,-739.7"/>
<polygon fill="none" stroke="#000000" points="379,-739.7 379,-758.7 416,-758.7 416,-739.7 379,-739.7"/>
<text text-anchor="start" x="406.8862" y="-745.8" font-family="Helvetica,sans-Serif" font-size="11.00" fill="#000000"> &#160;</text>
<polygon fill="#ffffff" stroke="transparent" points="416,-739.7 416,-758.7 453,-758.7 453,-739.7 416,-739.7"/>
<polygon fill="none" stroke="#000000" points="416,-739.7 416,-758.7 453,-758.7 453,-739.7 416,-739.7"/>
<text text-anchor="start" x="443.8862" y="-745.8" font-family="Helvetica,sans-Serif" font-size="11.00" fill="#000000"> &#160;</text>
</a>
</g>
</g>
<!-- recorded_event&#45;&gt;reference_data -->
<g id="edge9" class="edge">
<title>recorded_event:w&#45;&gt;reference_data:e</title>
<path fill="none" stroke="#000000" d="M294.538,-788.7C240.8155,-788.7 222.2292,-788.7 162,-788.7"/>
<polygon fill="#000000" stroke="#000000" points="301,-788.7001 309,-792.3 305,-788.7 309,-788.7 309,-788.7 309,-788.7 305,-788.7 309,-785.1 301,-788.7001 301,-788.7001"/>
<ellipse fill="none" stroke="#000000" cx="297.8" cy="-788.7001" rx="3.2" ry="3.2"/>
</g>
<!-- recorded_event&#45;&gt;policy -->
<g id="edge8" class="edge">
<title>recorded_event:w&#45;&gt;policy:e</title>
<path fill="none" stroke="#000000" d="M294.4896,-809.8054C252.1901,-804.2209 240.5453,-772.9739 217,-729.7 185.9681,-672.6664 238.9292,-440.7 174,-440.7"/>
<polygon fill="#000000" stroke="#000000" points="301.0152,-810.2077 308.7784,-814.2932 305.0076,-810.4538 309,-810.7 309,-810.7 309,-810.7 305.0076,-810.4538 309.2216,-807.1068 301.0152,-810.2077 301.0152,-810.2077"/>
<ellipse fill="none" stroke="#000000" cx="297.8212" cy="-810.0107" rx="3.2" ry="3.2"/>
</g>
<!-- recorded_event_audit -->
<g id="node8" class="node">
<title>recorded_event_audit</title>
<g id="a_node8"><a xlink:href="../../tables/recorded_event_audit.html" xlink:title="recorded_event_audit" target="_top">
<polygon fill="#ffffff" stroke="transparent" points="288.5,-38.2 288.5,-165.2 473.5,-165.2 473.5,-38.2 288.5,-38.2"/>
<polygon fill="#f5f5f5" stroke="transparent" points="289,-141.7 289,-164.7 474,-164.7 474,-141.7 289,-141.7"/>
<polygon fill="none" stroke="#000000" points="289,-141.7 289,-164.7 474,-164.7 474,-141.7 289,-141.7"/>
<text text-anchor="start" x="294" y="-150.3" font-family="Helvetica,sans-Serif" font-weight="bold" font-size="11.00" fill="#000000">recorded_event_audit</text>
<text text-anchor="start" x="439.5219" y="-149.8" font-family="Helvetica,sans-Serif" font-size="11.00" fill="#000000">[table]</text>
<polygon fill="#ffffff" stroke="transparent" points="289,-119.7 289,-141.7 474,-141.7 474,-119.7 289,-119.7"/>
<polygon fill="none" stroke="#000000" points="289,-119.7 289,-141.7 474,-141.7 474,-119.7 289,-119.7"/>
<image xlink:href="../../images/foreignKeys.png" width="11px" height="12px" preserveAspectRatio="xMinYMin meet" x="294" y="-136.7"/>
<text text-anchor="start" x="318" y="-126.8" font-family="Helvetica,sans-Serif" font-size="11.00" fill="#000000">rev_id</text>
<polygon fill="#ffffff" stroke="transparent" points="289,-97.7 289,-119.7 474,-119.7 474,-97.7 289,-97.7"/>
<polygon fill="none" stroke="#000000" points="289,-97.7 289,-119.7 474,-119.7 474,-97.7 289,-97.7"/>
<text text-anchor="start" x="318" y="-104.8" font-family="Helvetica,sans-Serif" font-size="11.00" fill="#000000">id</text>
<polygon fill="none" stroke="#000000" points="289,-75.7 289,-97.7 474,-97.7 474,-75.7 289,-75.7"/>
<image xlink:href="../../images/foreignKeys.png" width="11px" height="12px" preserveAspectRatio="xMinYMin meet" x="294" y="-92.7"/>
<text text-anchor="start" x="318" y="-82.8" font-family="Helvetica,sans-Serif" font-size="11.00" fill="#000000">policy_code</text>
<polygon fill="none" stroke="#000000" points="289,-56.7 289,-75.7 474,-75.7 474,-56.7 289,-56.7"/>
<text text-anchor="start" x="292" y="-62.8" font-family="Helvetica,sans-Serif" font-size="11.00" fill="#000000">...</text>
<polygon fill="#ffffff" stroke="transparent" points="289,-37.7 289,-56.7 380,-56.7 380,-37.7 289,-37.7"/>
<polygon fill="none" stroke="#000000" points="289,-37.7 289,-56.7 380,-56.7 380,-37.7 289,-37.7"/>
<text text-anchor="start" x="292" y="-43.8" font-family="Helvetica,sans-Serif" font-size="11.00" fill="#000000">&lt; 2</text>
<polygon fill="#ffffff" stroke="transparent" points="380,-37.7 380,-56.7 427,-56.7 427,-37.7 380,-37.7"/>
<polygon fill="none" stroke="#000000" points="380,-37.7 380,-56.7 427,-56.7 427,-37.7 380,-37.7"/>
<text text-anchor="start" x="417.8862" y="-43.8" font-family="Helvetica,sans-Serif" font-size="11.00" fill="#000000"> &#160;</text>
<polygon fill="#ffffff" stroke="transparent" points="427,-37.7 427,-56.7 474,-56.7 474,-37.7 427,-37.7"/>
<polygon fill="none" stroke="#000000" points="427,-37.7 427,-56.7 474,-56.7 474,-37.7 427,-37.7"/>
<text text-anchor="start" x="464.8862" y="-43.8" font-family="Helvetica,sans-Serif" font-size="11.00" fill="#000000"> &#160;</text>
</a>
</g>
</g>
<!-- recorded_event_audit&#45;&gt;policy -->
<g id="edge10" class="edge">
<title>recorded_event_audit:w&#45;&gt;policy:e</title>
<path fill="none" stroke="#000000" d="M274.6475,-88.0508C236.7353,-95.8864 235.7652,-136.6481 217,-179.7 193.5127,-233.5856 232.7819,-440.7 174,-440.7"/>
<polygon fill="#000000" stroke="#000000" points="281.0352,-87.4497 289.3373,-90.2842 285.0176,-87.0748 289,-86.7 289,-86.7 289,-86.7 285.0176,-87.0748 288.6627,-83.1158 281.0352,-87.4497 281.0352,-87.4497"/>
<ellipse fill="none" stroke="#000000" cx="277.8493" cy="-87.7495" rx="3.2" ry="3.2"/>
</g>
<!-- audit_revision -->
<g id="node9" class="node">
<title>audit_revision</title>
<g id="a_node9"><a xlink:href="../../tables/audit_revision.html" xlink:title="audit_revision" target="_top">
<polygon fill="#ffffff" stroke="transparent" points="25,-103.2 25,-164.2 159,-164.2 159,-103.2 25,-103.2"/>
<polygon fill="#f5f5f5" stroke="transparent" points="25,-140.7 25,-163.7 159,-163.7 159,-140.7 25,-140.7"/>
<polygon fill="none" stroke="#000000" points="25,-140.7 25,-163.7 159,-163.7 159,-140.7 25,-140.7"/>
<text text-anchor="start" x="30" y="-149.3" font-family="Helvetica,sans-Serif" font-weight="bold" font-size="11.00" fill="#000000">audit_revision</text>
<text text-anchor="start" x="124.5219" y="-148.8" font-family="Helvetica,sans-Serif" font-size="11.00" fill="#000000">[table]</text>
<polygon fill="none" stroke="#000000" points="25,-121.7 25,-140.7 159,-140.7 159,-121.7 25,-121.7"/>
<text text-anchor="start" x="28" y="-127.8" font-family="Helvetica,sans-Serif" font-size="11.00" fill="#000000">...</text>
<polygon fill="#ffffff" stroke="transparent" points="25,-102.7 25,-121.7 81,-121.7 81,-102.7 25,-102.7"/>
<polygon fill="none" stroke="#000000" points="25,-102.7 25,-121.7 81,-121.7 81,-102.7 25,-102.7"/>
<text text-anchor="start" x="28" y="-108.8" font-family="Helvetica,sans-Serif" font-size="11.00" fill="#000000"> &#160;</text>
<polygon fill="#ffffff" stroke="transparent" points="81,-102.7 81,-121.7 115,-121.7 115,-102.7 81,-102.7"/>
<polygon fill="none" stroke="#000000" points="81,-102.7 81,-121.7 115,-121.7 115,-102.7 81,-102.7"/>
<text text-anchor="start" x="105.8862" y="-108.8" font-family="Helvetica,sans-Serif" font-size="11.00" fill="#000000"> &#160;</text>
<polygon fill="#ffffff" stroke="transparent" points="115,-102.7 115,-121.7 159,-121.7 159,-102.7 115,-102.7"/>
<polygon fill="none" stroke="#000000" points="115,-102.7 115,-121.7 159,-121.7 159,-102.7 115,-102.7"/>
<text text-anchor="start" x="140.4053" y="-108.8" font-family="Helvetica,sans-Serif" font-size="11.00" fill="#000000">5 &gt;</text>
</a>
</g>
</g>
<!-- recorded_event_audit&#45;&gt;audit_revision -->
<g id="edge11" class="edge">
<title>recorded_event_audit:w&#45;&gt;audit_revision:e</title>
<path fill="none" stroke="#000000" d="M274.4136,-130.7C228.277,-130.7 211.5868,-130.7 159,-130.7"/>
<polygon fill="#000000" stroke="#000000" points="281,-130.7001 289,-134.3 285,-130.7 289,-130.7 289,-130.7 289,-130.7 285,-130.7 289,-127.1 281,-130.7001 281,-130.7001"/>
<ellipse fill="none" stroke="#000000" cx="277.8" cy="-130.7001" rx="3.2" ry="3.2"/>
</g>
<!-- reference_data_policy -->
<g id="node10" class="node">
<title>reference_data_policy</title>
<g id="a_node10"><a xlink:href="../../tables/reference_data_policy.html" xlink:title="reference_data_policy" target="_top">
<polygon fill="#ffffff" stroke="transparent" points="288,-614.2 288,-719.2 474,-719.2 474,-614.2 288,-614.2"/>
<polygon fill="#f5f5f5" stroke="transparent" points="288,-695.7 288,-718.7 474,-718.7 474,-695.7 288,-695.7"/>
<polygon fill="none" stroke="#000000" points="288,-695.7 288,-718.7 474,-718.7 474,-695.7 288,-695.7"/>
<text text-anchor="start" x="293" y="-704.3" font-family="Helvetica,sans-Serif" font-weight="bold" font-size="11.00" fill="#000000">reference_data_policy</text>
<text text-anchor="start" x="439.5219" y="-703.8" font-family="Helvetica,sans-Serif" font-size="11.00" fill="#000000">[table]</text>
<polygon fill="#ffffff" stroke="transparent" points="288,-673.7 288,-695.7 474,-695.7 474,-673.7 288,-673.7"/>
<polygon fill="none" stroke="#000000" points="288,-673.7 288,-695.7 474,-695.7 474,-673.7 288,-673.7"/>
<image xlink:href="../../images/foreignKeys.png" width="11px" height="12px" preserveAspectRatio="xMinYMin meet" x="293" y="-690.7"/>
<text text-anchor="start" x="317" y="-680.8" font-family="Helvetica,sans-Serif" font-size="11.00" fill="#000000">id</text>
<polygon fill="#ffffff" stroke="transparent" points="288,-651.7 288,-673.7 474,-673.7 474,-651.7 288,-651.7"/>
<polygon fill="none" stroke="#000000" points="288,-651.7 288,-673.7 474,-673.7 474,-651.7 288,-651.7"/>
<image xlink:href="../../images/foreignKeys.png" width="11px" height="12px" preserveAspectRatio="xMinYMin meet" x="293" y="-668.7"/>
<text text-anchor="start" x="317" y="-658.8" font-family="Helvetica,sans-Serif" font-size="11.00" fill="#000000">policy_code</text>
<polygon fill="none" stroke="#000000" points="288,-632.7 288,-651.7 474,-651.7 474,-632.7 288,-632.7"/>
<text text-anchor="start" x="291" y="-638.8" font-family="Helvetica,sans-Serif" font-size="11.00" fill="#000000">...</text>
<polygon fill="#ffffff" stroke="transparent" points="288,-613.7 288,-632.7 363,-632.7 363,-613.7 288,-613.7"/>
<polygon fill="none" stroke="#000000" points="288,-613.7 288,-632.7 363,-632.7 363,-613.7 288,-613.7"/>
<text text-anchor="start" x="291" y="-619.8" font-family="Helvetica,sans-Serif" font-size="11.00" fill="#000000">&lt; 2</text>
<polygon fill="#ffffff" stroke="transparent" points="363,-613.7 363,-632.7 434,-632.7 434,-613.7 363,-613.7"/>
<polygon fill="none" stroke="#000000" points="363,-613.7 363,-632.7 434,-632.7 434,-613.7 363,-613.7"/>
<text text-anchor="start" x="392.4956" y="-619.8" font-family="Helvetica,sans-Serif" font-size="11.00" fill="#000000">84 rows</text>
<polygon fill="#ffffff" stroke="transparent" points="434,-613.7 434,-632.7 474,-632.7 474,-613.7 434,-613.7"/>
<polygon fill="none" stroke="#000000" points="434,-613.7 434,-632.7 474,-632.7 474,-613.7 434,-613.7"/>
<text text-anchor="start" x="464.8862" y="-619.8" font-family="Helvetica,sans-Serif" font-size="11.00" fill="#000000"> &#160;</text>
</a>
</g>
</g>
<!-- reference_data_policy&#45;&gt;reference_data -->
<g id="edge12" class="edge">
<title>reference_data_policy:w&#45;&gt;reference_data:e</title>
<path fill="none" stroke="#000000" d="M273.3252,-686.0372C248.6626,-691.0363 241.482,-709.3832 217,-729.7 189.4132,-752.5933 197.8488,-788.7 162,-788.7"/>
<polygon fill="#000000" stroke="#000000" points="280.033,-685.426 288.3267,-688.2851 284.0165,-685.063 288,-684.7 288,-684.7 288,-684.7 284.0165,-685.063 287.6733,-681.1149 280.033,-685.426 280.033,-685.426"/>
<ellipse fill="none" stroke="#000000" cx="276.8462" cy="-685.7165" rx="3.2" ry="3.2"/>
</g>
<!-- reference_data_policy&#45;&gt;policy -->
<g id="edge13" class="edge">
<title>reference_data_policy:w&#45;&gt;policy:e</title>
<path fill="none" stroke="#000000" d="M273.2944,-661.4418C244.6204,-656.0373 236.1305,-633.6989 217,-603.7 176.7153,-540.529 248.9228,-440.7 174,-440.7"/>
<polygon fill="#000000" stroke="#000000" points="280.0291,-662.018 287.6931,-666.2869 284.0146,-662.359 288,-662.7 288,-662.7 288,-662.7 284.0146,-662.359 288.3069,-659.1131 280.0291,-662.018 280.0291,-662.018"/>
<ellipse fill="none" stroke="#000000" cx="276.8408" cy="-661.7451" rx="3.2" ry="3.2"/>
</g>
<!-- staff_configuration -->
<g id="node11" class="node">
<title>staff_configuration</title>
<g id="a_node11"><a xlink:href="../../tables/staff_configuration.html" xlink:title="staff_configuration" target="_top">
<polygon fill="#ffffff" stroke="transparent" points="297.5,-444.2 297.5,-593.2 464.5,-593.2 464.5,-444.2 297.5,-444.2"/>
<polygon fill="#f5f5f5" stroke="transparent" points="298,-569.7 298,-592.7 465,-592.7 465,-569.7 298,-569.7"/>
<polygon fill="none" stroke="#000000" points="298,-569.7 298,-592.7 465,-592.7 465,-569.7 298,-569.7"/>
<text text-anchor="start" x="303" y="-578.3" font-family="Helvetica,sans-Serif" font-weight="bold" font-size="11.00" fill="#000000">staff_configuration</text>
<text text-anchor="start" x="430.5219" y="-577.8" font-family="Helvetica,sans-Serif" font-size="11.00" fill="#000000">[table]</text>
<polygon fill="#ffffff" stroke="transparent" points="298,-547.7 298,-569.7 465,-569.7 465,-547.7 298,-547.7"/>
<polygon fill="none" stroke="#000000" points="298,-547.7 298,-569.7 465,-569.7 465,-547.7 298,-547.7"/>
<text text-anchor="start" x="327" y="-554.8" font-family="Helvetica,sans-Serif" font-size="11.00" fill="#000000">staff_id</text>
<polygon fill="none" stroke="#000000" points="298,-525.7 298,-547.7 465,-547.7 465,-525.7 298,-525.7"/>
<image xlink:href="../../images/foreignKeys.png" width="11px" height="12px" preserveAspectRatio="xMinYMin meet" x="303" y="-542.7"/>
<text text-anchor="start" x="327" y="-532.8" font-family="Helvetica,sans-Serif" font-size="11.00" fill="#000000">status_id</text>
<polygon fill="#ffffff" stroke="transparent" points="298,-503.7 298,-525.7 465,-525.7 465,-503.7 298,-503.7"/>
<polygon fill="none" stroke="#000000" points="298,-503.7 298,-525.7 465,-525.7 465,-503.7 298,-503.7"/>
<image xlink:href="../../images/foreignKeys.png" width="11px" height="12px" preserveAspectRatio="xMinYMin meet" x="303" y="-520.7"/>
<text text-anchor="start" x="327" y="-510.8" font-family="Helvetica,sans-Serif" font-size="11.00" fill="#000000">policy_code</text>
<polygon fill="none" stroke="#000000" points="298,-481.7 298,-503.7 465,-503.7 465,-481.7 298,-481.7"/>
<image xlink:href="../../images/primaryKeys.png" width="11px" height="12px" preserveAspectRatio="xMinYMin meet" x="303" y="-498.7"/>
<text text-anchor="start" x="327" y="-488.8" font-family="Helvetica,sans-Serif" font-size="11.00" fill="#000000">id</text>
<polygon fill="none" stroke="#000000" points="298,-462.7 298,-481.7 465,-481.7 465,-462.7 298,-462.7"/>
<text text-anchor="start" x="301" y="-468.8" font-family="Helvetica,sans-Serif" font-size="11.00" fill="#000000">...</text>
<polygon fill="#ffffff" stroke="transparent" points="298,-443.7 298,-462.7 380,-462.7 380,-443.7 298,-443.7"/>
<polygon fill="none" stroke="#000000" points="298,-443.7 298,-462.7 380,-462.7 380,-443.7 298,-443.7"/>
<text text-anchor="start" x="301" y="-449.8" font-family="Helvetica,sans-Serif" font-size="11.00" fill="#000000">&lt; 2</text>
<polygon fill="#ffffff" stroke="transparent" points="380,-443.7 380,-462.7 422,-462.7 422,-443.7 380,-443.7"/>
<polygon fill="none" stroke="#000000" points="380,-443.7 380,-462.7 422,-462.7 422,-443.7 380,-443.7"/>
<text text-anchor="start" x="412.8862" y="-449.8" font-family="Helvetica,sans-Serif" font-size="11.00" fill="#000000"> &#160;</text>
<polygon fill="#ffffff" stroke="transparent" points="422,-443.7 422,-462.7 465,-462.7 465,-443.7 422,-443.7"/>
<polygon fill="none" stroke="#000000" points="422,-443.7 422,-462.7 465,-462.7 465,-443.7 422,-443.7"/>
<text text-anchor="start" x="455.8862" y="-449.8" font-family="Helvetica,sans-Serif" font-size="11.00" fill="#000000"> &#160;</text>
</a>
</g>
</g>
<!-- staff_configuration&#45;&gt;reference_data -->
<g id="edge15" class="edge">
<title>staff_configuration:w&#45;&gt;reference_data:e</title>
<path fill="none" stroke="#000000" d="M283.5131,-537.7543C249.1314,-543.1914 239.8533,-569.1467 217,-603.7 169.6799,-675.246 247.7789,-788.7 162,-788.7"/>
<polygon fill="#000000" stroke="#000000" points="290.0211,-537.2807 298.2613,-540.2905 294.0106,-536.9904 298,-536.7 298,-536.7 298,-536.7 294.0106,-536.9904 297.7387,-533.1095 290.0211,-537.2807 290.0211,-537.2807"/>
<ellipse fill="none" stroke="#000000" cx="286.8295" cy="-537.513" rx="3.2" ry="3.2"/>
</g>
<!-- staff_configuration&#45;&gt;policy -->
<g id="edge14" class="edge">
<title>staff_configuration:w&#45;&gt;policy:e</title>
<path fill="none" stroke="#000000" d="M283.5139,-513.2878C234.075,-503.0573 232.9141,-440.7 174,-440.7"/>
<polygon fill="#000000" stroke="#000000" points="290.0377,-513.9238 297.6507,-518.283 294.0189,-514.3119 298,-514.7 298,-514.7 298,-514.7 294.0189,-514.3119 298.3493,-511.117 290.0377,-513.9238 290.0377,-513.9238"/>
<ellipse fill="none" stroke="#000000" cx="286.8528" cy="-513.6133" rx="3.2" ry="3.2"/>
</g>
</g>
</svg>
