<?xml version="1.0" encoding="UTF-8" standalone="no"?>
<!DOCTYPE svg PUBLIC "-//W3C//DTD SVG 1.1//EN"
 "http://www.w3.org/Graphics/SVG/1.1/DTD/svg11.dtd">
<!-- Generated by graphviz version 2.40.1 (20161225.0304)
 -->
<!-- Title: twoDegreesRelationshipsDiagram Pages: 1 -->
<svg width="553pt" height="775pt"
 viewBox="0.00 0.00 553.00 775.20" xmlns="http://www.w3.org/2000/svg" xmlns:xlink="http://www.w3.org/1999/xlink">
<g id="graph0" class="graph" transform="scale(1 1) rotate(0) translate(4 771.2)">
<title>twoDegreesRelationshipsDiagram</title>
<polygon fill="#ffffff" stroke="transparent" points="-4,4 -4,-771.2 549,-771.2 549,4 -4,4"/>
<text text-anchor="middle" x="72.4936" y="-7.3" font-family="Helvetica,sans-Serif" font-size="11.00" fill="#000000">Generated by SchemaSpy</text>
<!-- allocation -->
<g id="node1" class="node">
<title>allocation</title>
<g id="a_node1"><a xlink:href="../../tables/allocation.html" xlink:title="allocation" target="_top">
<polygon fill="#ffffff" stroke="transparent" points="294,-526.2 294,-763.2 468,-763.2 468,-526.2 294,-526.2"/>
<polygon fill="#f5f5f5" stroke="transparent" points="294,-739.7 294,-762.7 468,-762.7 468,-739.7 294,-739.7"/>
<polygon fill="none" stroke="#000000" points="294,-739.7 294,-762.7 468,-762.7 468,-739.7 294,-739.7"/>
<text text-anchor="start" x="299" y="-748.3" font-family="Helvetica,sans-Serif" font-weight="bold" font-size="11.00" fill="#000000">allocation</text>
<text text-anchor="start" x="433.0437" y="-747.8" font-family="Helvetica,sans-Serif" font-size="11.00" fill="#000000">[table]</text>
<polygon fill="none" stroke="#000000" points="294,-717.7 294,-739.7 468,-739.7 468,-717.7 294,-717.7"/>
<image xlink:href="../../images/primaryKeys.png" width="11px" height="12px" preserveAspectRatio="xMinYMin meet" x="299" y="-734.7"/>
<text text-anchor="start" x="314" y="-724.8" font-family="Helvetica,sans-Serif" font-size="11.00" fill="#000000">id</text>
<polygon fill="#ffffff" stroke="transparent" points="294,-695.7 294,-717.7 468,-717.7 468,-695.7 294,-695.7"/>
<polygon fill="none" stroke="#000000" points="294,-695.7 294,-717.7 468,-717.7 468,-695.7 294,-695.7"/>
<image xlink:href="../../images/foreignKeys.png" width="11px" height="12px" preserveAspectRatio="xMinYMin meet" x="299" y="-712.7"/>
<text text-anchor="start" x="314" y="-702.8" font-family="Helvetica,sans-Serif" font-size="11.00" fill="#000000">prison_code</text>
<polygon fill="#ffffff" stroke="transparent" points="294,-673.7 294,-695.7 468,-695.7 468,-673.7 294,-673.7"/>
<polygon fill="none" stroke="#000000" points="294,-673.7 294,-695.7 468,-695.7 468,-673.7 294,-673.7"/>
<text text-anchor="start" x="314" y="-680.8" font-family="Helvetica,sans-Serif" font-size="11.00" fill="#000000">staff_id</text>
<polygon fill="#ffffff" stroke="transparent" points="294,-651.7 294,-673.7 468,-673.7 468,-651.7 294,-651.7"/>
<polygon fill="none" stroke="#000000" points="294,-651.7 294,-673.7 468,-673.7 468,-651.7 294,-651.7"/>
<text text-anchor="start" x="314" y="-658.8" font-family="Helvetica,sans-Serif" font-size="11.00" fill="#000000">person_identifier</text>
<polygon fill="#ffffff" stroke="transparent" points="294,-629.7 294,-651.7 468,-651.7 468,-629.7 294,-629.7"/>
<polygon fill="none" stroke="#000000" points="294,-629.7 294,-651.7 468,-651.7 468,-629.7 294,-629.7"/>
<text text-anchor="start" x="314" y="-636.8" font-family="Helvetica,sans-Serif" font-size="11.00" fill="#000000">allocated_at</text>
<polygon fill="none" stroke="#000000" points="294,-607.7 294,-629.7 468,-629.7 468,-607.7 294,-607.7"/>
<image xlink:href="../../images/foreignKeys.png" width="11px" height="12px" preserveAspectRatio="xMinYMin meet" x="299" y="-624.7"/>
<text text-anchor="start" x="314" y="-614.8" font-family="Helvetica,sans-Serif" font-size="11.00" fill="#000000">allocation_reason_id</text>
<polygon fill="none" stroke="#000000" points="294,-585.7 294,-607.7 468,-607.7 468,-585.7 294,-585.7"/>
<image xlink:href="../../images/foreignKeys.png" width="11px" height="12px" preserveAspectRatio="xMinYMin meet" x="299" y="-602.7"/>
<text text-anchor="start" x="314" y="-592.8" font-family="Helvetica,sans-Serif" font-size="11.00" fill="#000000">deallocation_reason_id</text>
<polygon fill="#ffffff" stroke="transparent" points="294,-563.7 294,-585.7 468,-585.7 468,-563.7 294,-563.7"/>
<polygon fill="none" stroke="#000000" points="294,-563.7 294,-585.7 468,-585.7 468,-563.7 294,-563.7"/>
<image xlink:href="../../images/foreignKeys.png" width="11px" height="12px" preserveAspectRatio="xMinYMin meet" x="299" y="-580.7"/>
<text text-anchor="start" x="314" y="-570.8" font-family="Helvetica,sans-Serif" font-size="11.00" fill="#000000">policy_code</text>
<polygon fill="none" stroke="#000000" points="294,-544.7 294,-563.7 468,-563.7 468,-544.7 294,-544.7"/>
<text text-anchor="start" x="297" y="-550.8" font-family="Helvetica,sans-Serif" font-size="11.00" fill="#000000">...</text>
<polygon fill="#ffffff" stroke="transparent" points="294,-525.7 294,-544.7 379,-544.7 379,-525.7 294,-525.7"/>
<polygon fill="none" stroke="#000000" points="294,-525.7 294,-544.7 379,-544.7 379,-525.7 294,-525.7"/>
<text text-anchor="start" x="297" y="-531.8" font-family="Helvetica,sans-Serif" font-size="11.00" fill="#000000">&lt; 3</text>
<polygon fill="#ffffff" stroke="transparent" points="379,-525.7 379,-544.7 423,-544.7 423,-525.7 379,-525.7"/>
<polygon fill="none" stroke="#000000" points="379,-525.7 379,-544.7 423,-544.7 423,-525.7 379,-525.7"/>
<text text-anchor="start" x="413.8862" y="-531.8" font-family="Helvetica,sans-Serif" font-size="11.00" fill="#000000"> &#160;</text>
<polygon fill="#ffffff" stroke="transparent" points="423,-525.7 423,-544.7 468,-544.7 468,-525.7 423,-525.7"/>
<polygon fill="none" stroke="#000000" points="423,-525.7 423,-544.7 468,-544.7 468,-525.7 423,-525.7"/>
<text text-anchor="start" x="458.8862" y="-531.8" font-family="Helvetica,sans-Serif" font-size="11.00" fill="#000000"> &#160;</text>
</a>
</g>
</g>
<!-- reference_data -->
<g id="node2" class="node">
<title>reference_data</title>
<g id="a_node2"><a xlink:href="../../tables/reference_data.html" xlink:title="reference_data" target="_top">
<polygon fill="#ffffff" stroke="transparent" points="22,-569.2 22,-630.2 162,-630.2 162,-569.2 22,-569.2"/>
<polygon fill="#f5f5f5" stroke="transparent" points="22,-606.7 22,-629.7 162,-629.7 162,-606.7 22,-606.7"/>
<polygon fill="none" stroke="#000000" points="22,-606.7 22,-629.7 162,-629.7 162,-606.7 22,-606.7"/>
<text text-anchor="start" x="27" y="-615.3" font-family="Helvetica,sans-Serif" font-weight="bold" font-size="11.00" fill="#000000">reference_data</text>
<text text-anchor="start" x="127.5219" y="-614.8" font-family="Helvetica,sans-Serif" font-size="11.00" fill="#000000">[table]</text>
<polygon fill="none" stroke="#000000" points="22,-587.7 22,-606.7 162,-606.7 162,-587.7 22,-587.7"/>
<text text-anchor="start" x="25" y="-593.8" font-family="Helvetica,sans-Serif" font-size="11.00" fill="#000000">...</text>
<polygon fill="#ffffff" stroke="transparent" points="22,-568.7 22,-587.7 81,-587.7 81,-568.7 22,-568.7"/>
<polygon fill="none" stroke="#000000" points="22,-568.7 22,-587.7 81,-587.7 81,-568.7 22,-568.7"/>
<text text-anchor="start" x="25" y="-574.8" font-family="Helvetica,sans-Serif" font-size="11.00" fill="#000000"> &#160;</text>
<polygon fill="#ffffff" stroke="transparent" points="81,-568.7 81,-587.7 117,-587.7 117,-568.7 81,-568.7"/>
<polygon fill="none" stroke="#000000" points="81,-568.7 81,-587.7 117,-587.7 117,-568.7 81,-568.7"/>
<text text-anchor="start" x="107.8862" y="-574.8" font-family="Helvetica,sans-Serif" font-size="11.00" fill="#000000"> &#160;</text>
<polygon fill="#ffffff" stroke="transparent" points="117,-568.7 117,-587.7 162,-587.7 162,-568.7 117,-568.7"/>
<polygon fill="none" stroke="#000000" points="117,-568.7 117,-587.7 162,-587.7 162,-568.7 117,-568.7"/>
<text text-anchor="start" x="143.4053" y="-574.8" font-family="Helvetica,sans-Serif" font-size="11.00" fill="#000000">5 &gt;</text>
</a>
</g>
</g>
<!-- allocation&#45;&gt;reference_data -->
<g id="edge1" class="edge">
<title>allocation:w&#45;&gt;reference_data:e</title>
<path fill="none" stroke="#000000" d="M279.3308,-618.22C231.8718,-615.0028 216.2485,-596.7 162,-596.7"/>
<polygon fill="#000000" stroke="#000000" points="286.0043,-618.4383 293.8823,-622.2981 290.0021,-618.5692 294,-618.7 294,-618.7 294,-618.7 290.0021,-618.5692 294.1177,-615.1019 286.0043,-618.4383 286.0043,-618.4383"/>
<ellipse fill="none" stroke="#000000" cx="282.806" cy="-618.3337" rx="3.2" ry="3.2"/>
</g>
<!-- allocation&#45;&gt;reference_data -->
<g id="edge2" class="edge">
<title>allocation:w&#45;&gt;reference_data:e</title>
<path fill="none" stroke="#000000" d="M279.4912,-596.7C232.4153,-596.7 215.5104,-596.7 162,-596.7"/>
<polygon fill="#000000" stroke="#000000" points="286,-596.7001 294,-600.3 290,-596.7 294,-596.7 294,-596.7 294,-596.7 290,-596.7 294,-593.1 286,-596.7001 286,-596.7001"/>
<ellipse fill="none" stroke="#000000" cx="282.8" cy="-596.7001" rx="3.2" ry="3.2"/>
</g>
<!-- policy -->
<g id="node3" class="node">
<title>policy</title>
<g id="a_node3"><a xlink:href="../../tables/policy.html" xlink:title="policy" target="_top">
<polygon fill="#ffffff" stroke="transparent" points="8,-298.7 8,-388.7 176,-388.7 176,-298.7 8,-298.7"/>
<polygon fill="#f5f5f5" stroke="transparent" points="10,-363.7 10,-386.7 174,-386.7 174,-363.7 10,-363.7"/>
<polygon fill="none" stroke="#000000" points="10,-363.7 10,-386.7 174,-386.7 174,-363.7 10,-363.7"/>
<text text-anchor="start" x="15" y="-372.3" font-family="Helvetica,sans-Serif" font-weight="bold" font-size="11.00" fill="#000000">policy</text>
<text text-anchor="start" x="139.0437" y="-371.8" font-family="Helvetica,sans-Serif" font-size="11.00" fill="#000000">[table]</text>
<polygon fill="none" stroke="#000000" points="10,-341.7 10,-363.7 107,-363.7 107,-341.7 10,-341.7"/>
<image xlink:href="../../images/primaryKeys.png" width="11px" height="12px" preserveAspectRatio="xMinYMin meet" x="15" y="-358.7"/>
<text text-anchor="start" x="30" y="-348.8" font-family="Helvetica,sans-Serif" font-size="11.00" fill="#000000">code</text>
<polygon fill="none" stroke="#000000" points="107,-341.7 107,-363.7 174,-363.7 174,-341.7 107,-341.7"/>
<text text-anchor="start" x="110" y="-349.4" font-family="Helvetica,sans-Serif" font-size="11.00" fill="#000000">varchar[16]</text>
<polygon fill="none" stroke="#000000" points="10,-319.7 10,-341.7 107,-341.7 107,-319.7 10,-319.7"/>
<text text-anchor="start" x="30" y="-326.8" font-family="Helvetica,sans-Serif" font-size="11.00" fill="#000000">description</text>
<polygon fill="none" stroke="#000000" points="107,-319.7 107,-341.7 174,-341.7 174,-319.7 107,-319.7"/>
<text text-anchor="start" x="109.9365" y="-327.4" font-family="Helvetica,sans-Serif" font-size="11.00" fill="#000000">varchar[255]</text>
<polygon fill="#ffffff" stroke="transparent" points="10,-300.7 10,-319.7 63,-319.7 63,-300.7 10,-300.7"/>
<polygon fill="none" stroke="#000000" points="10,-300.7 10,-319.7 63,-319.7 63,-300.7 10,-300.7"/>
<text text-anchor="start" x="13" y="-306.8" font-family="Helvetica,sans-Serif" font-size="11.00" fill="#000000">&lt; 0</text>
<polygon fill="#ffffff" stroke="transparent" points="63,-300.7 63,-319.7 107,-319.7 107,-300.7 63,-300.7"/>
<polygon fill="none" stroke="#000000" points="63,-300.7 63,-319.7 107,-319.7 107,-300.7 63,-300.7"/>
<text text-anchor="start" x="97.8862" y="-306.8" font-family="Helvetica,sans-Serif" font-size="11.00" fill="#000000"> &#160;</text>
<polygon fill="#ffffff" stroke="transparent" points="107,-300.7 107,-319.7 174,-319.7 174,-300.7 107,-300.7"/>
<polygon fill="none" stroke="#000000" points="107,-300.7 107,-319.7 174,-319.7 174,-300.7 107,-300.7"/>
<text text-anchor="start" x="155.4053" y="-306.8" font-family="Helvetica,sans-Serif" font-size="11.00" fill="#000000">4 &gt;</text>
<polygon fill="none" stroke="#000000" stroke-width="2" points="9,-299.7 9,-387.7 175,-387.7 175,-299.7 9,-299.7"/>
</a>
</g>
</g>
<!-- allocation&#45;&gt;policy -->
<g id="edge3" class="edge">
<title>allocation:w&#45;&gt;policy:e</title>
<path fill="none" stroke="#000000" d="M279.2932,-573.6367C248.1716,-568.7218 237.9085,-547.0999 217,-515.7 175.4743,-453.3378 248.9228,-352.7 174,-352.7"/>
<polygon fill="#000000" stroke="#000000" points="286.0208,-574.1231 293.7404,-578.2906 290.0104,-574.4115 294,-574.7 294,-574.7 294,-574.7 290.0104,-574.4115 294.2596,-571.1094 286.0208,-574.1231 286.0208,-574.1231"/>
<ellipse fill="none" stroke="#000000" cx="282.8292" cy="-573.8923" rx="3.2" ry="3.2"/>
</g>
<!-- prison_configuration -->
<g id="node4" class="node">
<title>prison_configuration</title>
<g id="a_node4"><a xlink:href="../../tables/prison_configuration.html" xlink:title="prison_configuration" target="_top">
<polygon fill="#ffffff" stroke="transparent" points="225,-208.2 225,-335.2 537,-335.2 537,-208.2 225,-208.2"/>
<polygon fill="#f5f5f5" stroke="transparent" points="225,-311.7 225,-334.7 537,-334.7 537,-311.7 225,-311.7"/>
<polygon fill="none" stroke="#000000" points="225,-311.7 225,-334.7 537,-334.7 537,-311.7 225,-311.7"/>
<text text-anchor="start" x="230" y="-320.3" font-family="Helvetica,sans-Serif" font-weight="bold" font-size="11.00" fill="#000000">prison_configuration</text>
<text text-anchor="start" x="502.0437" y="-319.8" font-family="Helvetica,sans-Serif" font-size="11.00" fill="#000000">[table]</text>
<polygon fill="#ffffff" stroke="transparent" points="225,-289.7 225,-311.7 537,-311.7 537,-289.7 225,-289.7"/>
<polygon fill="none" stroke="#000000" points="225,-289.7 225,-311.7 537,-311.7 537,-289.7 225,-289.7"/>
<image xlink:href="../../images/foreignKeys.png" width="11px" height="12px" preserveAspectRatio="xMinYMin meet" x="230" y="-306.7"/>
<text text-anchor="start" x="245" y="-296.8" font-family="Helvetica,sans-Serif" font-size="11.00" fill="#000000">prison_code</text>
<polygon fill="#ffffff" stroke="transparent" points="225,-267.7 225,-289.7 537,-289.7 537,-267.7 225,-267.7"/>
<polygon fill="none" stroke="#000000" points="225,-267.7 225,-289.7 537,-289.7 537,-267.7 225,-267.7"/>
<image xlink:href="../../images/foreignKeys.png" width="11px" height="12px" preserveAspectRatio="xMinYMin meet" x="230" y="-284.7"/>
<text text-anchor="start" x="245" y="-274.8" font-family="Helvetica,sans-Serif" font-size="11.00" fill="#000000">policy_code</text>
<polygon fill="none" stroke="#000000" points="225,-245.7 225,-267.7 537,-267.7 537,-245.7 225,-245.7"/>
<image xlink:href="../../images/primaryKeys.png" width="11px" height="12px" preserveAspectRatio="xMinYMin meet" x="230" y="-262.7"/>
<text text-anchor="start" x="245" y="-252.8" font-family="Helvetica,sans-Serif" font-size="11.00" fill="#000000">id</text>
<polygon fill="none" stroke="#000000" points="225,-226.7 225,-245.7 537,-245.7 537,-226.7 225,-226.7"/>
<text text-anchor="start" x="228" y="-232.8" font-family="Helvetica,sans-Serif" font-size="11.00" fill="#000000">...</text>
<polygon fill="#ffffff" stroke="transparent" points="225,-207.7 225,-226.7 363,-226.7 363,-207.7 225,-207.7"/>
<polygon fill="none" stroke="#000000" points="225,-207.7 225,-226.7 363,-226.7 363,-207.7 225,-207.7"/>
<text text-anchor="start" x="228" y="-213.8" font-family="Helvetica,sans-Serif" font-size="11.00" fill="#000000">&lt; 1</text>
<polygon fill="#ffffff" stroke="transparent" points="363,-207.7 363,-226.7 466,-226.7 466,-207.7 363,-207.7"/>
<polygon fill="none" stroke="#000000" points="363,-207.7 363,-226.7 466,-226.7 466,-207.7 363,-207.7"/>
<text text-anchor="start" x="424.4956" y="-213.8" font-family="Helvetica,sans-Serif" font-size="11.00" fill="#000000">12 rows</text>
<polygon fill="#ffffff" stroke="transparent" points="466,-207.7 466,-226.7 537,-226.7 537,-207.7 466,-207.7"/>
<polygon fill="none" stroke="#000000" points="466,-207.7 466,-226.7 537,-226.7 537,-207.7 466,-207.7"/>
<text text-anchor="start" x="527.8862" y="-213.8" font-family="Helvetica,sans-Serif" font-size="11.00" fill="#000000"> &#160;</text>
</a>
</g>
</g>
<!-- prison_configuration&#45;&gt;policy -->
<g id="edge4" class="edge">
<title>prison_configuration:w&#45;&gt;policy:e</title>
<path fill="none" stroke="#000000" d="M211.0503,-283.329C192.2607,-299.5294 207.8581,-352.7 174,-352.7"/>
<polygon fill="#000000" stroke="#000000" points="217.4071,-281.2196 226.1338,-282.1168 221.2036,-279.9598 225,-278.7 225,-278.7 225,-278.7 221.2036,-279.9598 223.8662,-275.2832 217.4071,-281.2196 217.4071,-281.2196"/>
<ellipse fill="none" stroke="#000000" cx="214.37" cy="-282.2275" rx="3.2" ry="3.2"/>
</g>
<!-- prison_statistic -->
<g id="node5" class="node">
<title>prison_statistic</title>
<g id="a_node5"><a xlink:href="../../tables/prison_statistic.html" xlink:title="prison_statistic" target="_top">
<polygon fill="#ffffff" stroke="transparent" points="233,-38.2 233,-187.2 529,-187.2 529,-38.2 233,-38.2"/>
<polygon fill="#f5f5f5" stroke="transparent" points="233,-163.7 233,-186.7 529,-186.7 529,-163.7 233,-163.7"/>
<polygon fill="none" stroke="#000000" points="233,-163.7 233,-186.7 529,-186.7 529,-163.7 233,-163.7"/>
<text text-anchor="start" x="238" y="-172.3" font-family="Helvetica,sans-Serif" font-weight="bold" font-size="11.00" fill="#000000">prison_statistic</text>
<text text-anchor="start" x="494.0437" y="-171.8" font-family="Helvetica,sans-Serif" font-size="11.00" fill="#000000">[table]</text>
<polygon fill="none" stroke="#000000" points="233,-141.7 233,-163.7 529,-163.7 529,-141.7 233,-141.7"/>
<image xlink:href="../../images/primaryKeys.png" width="11px" height="12px" preserveAspectRatio="xMinYMin meet" x="238" y="-158.7"/>
<text text-anchor="start" x="253" y="-148.8" font-family="Helvetica,sans-Serif" font-size="11.00" fill="#000000">id</text>
<polygon fill="#ffffff" stroke="transparent" points="233,-119.7 233,-141.7 529,-141.7 529,-119.7 233,-119.7"/>
<polygon fill="none" stroke="#000000" points="233,-119.7 233,-141.7 529,-141.7 529,-119.7 233,-119.7"/>
<image xlink:href="../../images/foreignKeys.png" width="11px" height="12px" preserveAspectRatio="xMinYMin meet" x="238" y="-136.7"/>
<text text-anchor="start" x="253" y="-126.8" font-family="Helvetica,sans-Serif" font-size="11.00" fill="#000000">prison_code</text>
<polygon fill="#ffffff" stroke="transparent" points="233,-97.7 233,-119.7 529,-119.7 529,-97.7 233,-97.7"/>
<polygon fill="none" stroke="#000000" points="233,-97.7 233,-119.7 529,-119.7 529,-97.7 233,-97.7"/>
<text text-anchor="start" x="253" y="-104.8" font-family="Helvetica,sans-Serif" font-size="11.00" fill="#000000">statistic_date</text>
<polygon fill="none" stroke="#000000" points="233,-75.7 233,-97.7 529,-97.7 529,-75.7 233,-75.7"/>
<image xlink:href="../../images/foreignKeys.png" width="11px" height="12px" preserveAspectRatio="xMinYMin meet" x="238" y="-92.7"/>
<text text-anchor="start" x="253" y="-82.8" font-family="Helvetica,sans-Serif" font-size="11.00" fill="#000000">policy_code</text>
<polygon fill="none" stroke="#000000" points="233,-56.7 233,-75.7 529,-75.7 529,-56.7 233,-56.7"/>
<text text-anchor="start" x="236" y="-62.8" font-family="Helvetica,sans-Serif" font-size="11.00" fill="#000000">...</text>
<polygon fill="#ffffff" stroke="transparent" points="233,-37.7 233,-56.7 379,-56.7 379,-37.7 233,-37.7"/>
<polygon fill="none" stroke="#000000" points="233,-37.7 233,-56.7 379,-56.7 379,-37.7 233,-37.7"/>
<text text-anchor="start" x="236" y="-43.8" font-family="Helvetica,sans-Serif" font-size="11.00" fill="#000000">&lt; 1</text>
<polygon fill="#ffffff" stroke="transparent" points="379,-37.7 379,-56.7 454,-56.7 454,-37.7 379,-37.7"/>
<polygon fill="none" stroke="#000000" points="379,-37.7 379,-56.7 454,-56.7 454,-37.7 379,-37.7"/>
<text text-anchor="start" x="444.8862" y="-43.8" font-family="Helvetica,sans-Serif" font-size="11.00" fill="#000000"> &#160;</text>
<polygon fill="#ffffff" stroke="transparent" points="454,-37.7 454,-56.7 529,-56.7 529,-37.7 454,-37.7"/>
<polygon fill="none" stroke="#000000" points="454,-37.7 454,-56.7 529,-56.7 529,-37.7 454,-37.7"/>
<text text-anchor="start" x="519.8862" y="-43.8" font-family="Helvetica,sans-Serif" font-size="11.00" fill="#000000"> &#160;</text>
</a>
</g>
</g>
<!-- prison_statistic&#45;&gt;policy -->
<g id="edge5" class="edge">
<title>prison_statistic:w&#45;&gt;policy:e</title>
<path fill="none" stroke="#000000" d="M219.4725,-92.7556C182.6201,-132.3497 229.1079,-352.7 174,-352.7"/>
<polygon fill="#000000" stroke="#000000" points="225.6982,-89.9687 234.4709,-89.9858 229.3491,-88.3343 233,-86.7 233,-86.7 233,-86.7 229.3491,-88.3343 231.5291,-83.4142 225.6982,-89.9687 225.6982,-89.9687"/>
<ellipse fill="none" stroke="#000000" cx="222.7775" cy="-91.2761" rx="3.2" ry="3.2"/>
</g>
<!-- staff_configuration -->
<g id="node6" class="node">
<title>staff_configuration</title>
<g id="a_node6"><a xlink:href="../../tables/staff_configuration.html" xlink:title="staff_configuration" target="_top">
<polygon fill="#ffffff" stroke="transparent" points="297.5,-356.2 297.5,-505.2 464.5,-505.2 464.5,-356.2 297.5,-356.2"/>
<polygon fill="#f5f5f5" stroke="transparent" points="298,-481.7 298,-504.7 465,-504.7 465,-481.7 298,-481.7"/>
<polygon fill="none" stroke="#000000" points="298,-481.7 298,-504.7 465,-504.7 465,-481.7 298,-481.7"/>
<text text-anchor="start" x="303" y="-490.3" font-family="Helvetica,sans-Serif" font-weight="bold" font-size="11.00" fill="#000000">staff_configuration</text>
<text text-anchor="start" x="430.5219" y="-489.8" font-family="Helvetica,sans-Serif" font-size="11.00" fill="#000000">[table]</text>
<polygon fill="#ffffff" stroke="transparent" points="298,-459.7 298,-481.7 465,-481.7 465,-459.7 298,-459.7"/>
<polygon fill="none" stroke="#000000" points="298,-459.7 298,-481.7 465,-481.7 465,-459.7 298,-459.7"/>
<text text-anchor="start" x="319" y="-466.8" font-family="Helvetica,sans-Serif" font-size="11.00" fill="#000000">staff_id</text>
<polygon fill="none" stroke="#000000" points="298,-437.7 298,-459.7 465,-459.7 465,-437.7 298,-437.7"/>
<image xlink:href="../../images/foreignKeys.png" width="11px" height="12px" preserveAspectRatio="xMinYMin meet" x="303" y="-454.7"/>
<text text-anchor="start" x="319" y="-444.8" font-family="Helvetica,sans-Serif" font-size="11.00" fill="#000000">status_id</text>
<polygon fill="#ffffff" stroke="transparent" points="298,-415.7 298,-437.7 465,-437.7 465,-415.7 298,-415.7"/>
<polygon fill="none" stroke="#000000" points="298,-415.7 298,-437.7 465,-437.7 465,-415.7 298,-415.7"/>
<image xlink:href="../../images/foreignKeys.png" width="11px" height="12px" preserveAspectRatio="xMinYMin meet" x="303" y="-432.7"/>
<text text-anchor="start" x="319" y="-422.8" font-family="Helvetica,sans-Serif" font-size="11.00" fill="#000000">policy_code</text>
<polygon fill="none" stroke="#000000" points="298,-393.7 298,-415.7 465,-415.7 465,-393.7 298,-393.7"/>
<image xlink:href="../../images/primaryKeys.png" width="11px" height="12px" preserveAspectRatio="xMinYMin meet" x="303" y="-410.7"/>
<text text-anchor="start" x="319" y="-400.8" font-family="Helvetica,sans-Serif" font-size="11.00" fill="#000000">id</text>
<polygon fill="none" stroke="#000000" points="298,-374.7 298,-393.7 465,-393.7 465,-374.7 298,-374.7"/>
<text text-anchor="start" x="301" y="-380.8" font-family="Helvetica,sans-Serif" font-size="11.00" fill="#000000">...</text>
<polygon fill="#ffffff" stroke="transparent" points="298,-355.7 298,-374.7 380,-374.7 380,-355.7 298,-355.7"/>
<polygon fill="none" stroke="#000000" points="298,-355.7 298,-374.7 380,-374.7 380,-355.7 298,-355.7"/>
<text text-anchor="start" x="301" y="-361.8" font-family="Helvetica,sans-Serif" font-size="11.00" fill="#000000">&lt; 2</text>
<polygon fill="#ffffff" stroke="transparent" points="380,-355.7 380,-374.7 422,-374.7 422,-355.7 380,-355.7"/>
<polygon fill="none" stroke="#000000" points="380,-355.7 380,-374.7 422,-374.7 422,-355.7 380,-355.7"/>
<text text-anchor="start" x="412.8862" y="-361.8" font-family="Helvetica,sans-Serif" font-size="11.00" fill="#000000"> &#160;</text>
<polygon fill="#ffffff" stroke="transparent" points="422,-355.7 422,-374.7 465,-374.7 465,-355.7 422,-355.7"/>
<polygon fill="none" stroke="#000000" points="422,-355.7 422,-374.7 465,-374.7 465,-355.7 422,-355.7"/>
<text text-anchor="start" x="455.8862" y="-361.8" font-family="Helvetica,sans-Serif" font-size="11.00" fill="#000000"> &#160;</text>
</a>
</g>
</g>
<!-- staff_configuration&#45;&gt;reference_data -->
<g id="edge7" class="edge">
<title>staff_configuration:w&#45;&gt;reference_data:e</title>
<path fill="none" stroke="#000000" d="M283.2662,-449.9877C250.2214,-456.3321 244.753,-485.1896 217,-515.7 187.7194,-547.8898 205.5147,-596.7 162,-596.7"/>
<polygon fill="#000000" stroke="#000000" points="290.0304,-449.3966 298.3135,-452.2863 294.0152,-449.0483 298,-448.7 298,-448.7 298,-448.7 294.0152,-449.0483 297.6865,-445.1137 290.0304,-449.3966 290.0304,-449.3966"/>
<ellipse fill="none" stroke="#000000" cx="286.8425" cy="-449.6752" rx="3.2" ry="3.2"/>
</g>
<!-- staff_configuration&#45;&gt;policy -->
<g id="edge6" class="edge">
<title>staff_configuration:w&#45;&gt;policy:e</title>
<path fill="none" stroke="#000000" d="M283.5139,-425.2878C234.075,-415.0573 232.9141,-352.7 174,-352.7"/>
<polygon fill="#000000" stroke="#000000" points="290.0377,-425.9238 297.6507,-430.283 294.0189,-426.3119 298,-426.7 298,-426.7 298,-426.7 294.0189,-426.3119 298.3493,-423.117 290.0377,-425.9238 290.0377,-425.9238"/>
<ellipse fill="none" stroke="#000000" cx="286.8528" cy="-425.6133" rx="3.2" ry="3.2"/>
</g>
</g>
</svg>
