<?xml version="1.0" encoding="UTF-8" standalone="no"?>
<!DOCTYPE svg PUBLIC "-//W3C//DTD SVG 1.1//EN"
 "http://www.w3.org/Graphics/SVG/1.1/DTD/svg11.dtd">
<!-- Generated by graphviz version 2.40.1 (20161225.0304)
 -->
<!-- Title: twoDegreesRelationshipsDiagramImplied Pages: 1 -->
<svg width="693pt" height="347pt"
 viewBox="0.00 0.00 693.00 347.20" xmlns="http://www.w3.org/2000/svg" xmlns:xlink="http://www.w3.org/1999/xlink">
<g id="graph0" class="graph" transform="scale(1 1) rotate(0) translate(4 343.2)">
<title>twoDegreesRelationshipsDiagramImplied</title>
<polygon fill="#ffffff" stroke="transparent" points="-4,4 -4,-343.2 689,-343.2 689,4 -4,4"/>
<text text-anchor="middle" x="72.4936" y="-7.3" font-family="Helvetica,sans-Serif" font-size="11.00" fill="#000000">Generated by SchemaSpy</text>
<!-- prison_configuration -->
<g id="node1" class="node">
<title>prison_configuration</title>
<g id="a_node1"><a xlink:href="../../tables/prison_configuration.html" xlink:title="prison_configuration" target="_top">
<polygon fill="#ffffff" stroke="transparent" points="332.5,-38.2 332.5,-165.2 644.5,-165.2 644.5,-38.2 332.5,-38.2"/>
<polygon fill="#f5f5f5" stroke="transparent" points="332.5,-141.7 332.5,-164.7 644.5,-164.7 644.5,-141.7 332.5,-141.7"/>
<polygon fill="none" stroke="#000000" points="332.5,-141.7 332.5,-164.7 644.5,-164.7 644.5,-141.7 332.5,-141.7"/>
<text text-anchor="start" x="337.5" y="-150.3" font-family="Helvetica,sans-Serif" font-weight="bold" font-size="11.00" fill="#000000">prison_configuration</text>
<text text-anchor="start" x="609.5437" y="-149.8" font-family="Helvetica,sans-Serif" font-size="11.00" fill="#000000">[table]</text>
<polygon fill="#ffffff" stroke="transparent" points="332.5,-119.7 332.5,-141.7 644.5,-141.7 644.5,-119.7 332.5,-119.7"/>
<polygon fill="none" stroke="#000000" points="332.5,-119.7 332.5,-141.7 644.5,-141.7 644.5,-119.7 332.5,-119.7"/>
<image xlink:href="../../images/foreignKeys.png" width="11px" height="12px" preserveAspectRatio="xMinYMin meet" x="337.5" y="-136.7"/>
<text text-anchor="start" x="352.5" y="-126.8" font-family="Helvetica,sans-Serif" font-size="11.00" fill="#000000">prison_code</text>
<polygon fill="#ffffff" stroke="transparent" points="332.5,-97.7 332.5,-119.7 644.5,-119.7 644.5,-97.7 332.5,-97.7"/>
<polygon fill="none" stroke="#000000" points="332.5,-97.7 332.5,-119.7 644.5,-119.7 644.5,-97.7 332.5,-97.7"/>
<image xlink:href="../../images/foreignKeys.png" width="11px" height="12px" preserveAspectRatio="xMinYMin meet" x="337.5" y="-114.7"/>
<text text-anchor="start" x="352.5" y="-104.8" font-family="Helvetica,sans-Serif" font-size="11.00" fill="#000000">policy_code</text>
<polygon fill="none" stroke="#000000" points="332.5,-75.7 332.5,-97.7 644.5,-97.7 644.5,-75.7 332.5,-75.7"/>
<image xlink:href="../../images/primaryKeys.png" width="11px" height="12px" preserveAspectRatio="xMinYMin meet" x="337.5" y="-92.7"/>
<text text-anchor="start" x="352.5" y="-82.8" font-family="Helvetica,sans-Serif" font-size="11.00" fill="#000000">id</text>
<polygon fill="none" stroke="#000000" points="332.5,-56.7 332.5,-75.7 644.5,-75.7 644.5,-56.7 332.5,-56.7"/>
<text text-anchor="start" x="335.5" y="-62.8" font-family="Helvetica,sans-Serif" font-size="11.00" fill="#000000">...</text>
<polygon fill="#ffffff" stroke="transparent" points="332.5,-37.7 332.5,-56.7 470.5,-56.7 470.5,-37.7 332.5,-37.7"/>
<polygon fill="none" stroke="#000000" points="332.5,-37.7 332.5,-56.7 470.5,-56.7 470.5,-37.7 332.5,-37.7"/>
<text text-anchor="start" x="335.5" y="-43.8" font-family="Helvetica,sans-Serif" font-size="11.00" fill="#000000">&lt; 2</text>
<polygon fill="#ffffff" stroke="transparent" points="470.5,-37.7 470.5,-56.7 573.5,-56.7 573.5,-37.7 470.5,-37.7"/>
<polygon fill="none" stroke="#000000" points="470.5,-37.7 470.5,-56.7 573.5,-56.7 573.5,-37.7 470.5,-37.7"/>
<text text-anchor="start" x="531.9956" y="-43.8" font-family="Helvetica,sans-Serif" font-size="11.00" fill="#000000">12 rows</text>
<polygon fill="#ffffff" stroke="transparent" points="573.5,-37.7 573.5,-56.7 644.5,-56.7 644.5,-37.7 573.5,-37.7"/>
<polygon fill="none" stroke="#000000" points="573.5,-37.7 573.5,-56.7 644.5,-56.7 644.5,-37.7 573.5,-37.7"/>
<text text-anchor="start" x="635.3862" y="-43.8" font-family="Helvetica,sans-Serif" font-size="11.00" fill="#000000"> &#160;</text>
</a>
</g>
</g>
<!-- policy -->
<g id="node2" class="node">
<title>policy</title>
<g id="a_node2"><a xlink:href="../../tables/policy.html" xlink:title="policy" target="_top">
<polygon fill="#ffffff" stroke="transparent" points="45.5,-61.7 45.5,-151.7 213.5,-151.7 213.5,-61.7 45.5,-61.7"/>
<polygon fill="#f5f5f5" stroke="transparent" points="47.5,-126.7 47.5,-149.7 211.5,-149.7 211.5,-126.7 47.5,-126.7"/>
<polygon fill="none" stroke="#000000" points="47.5,-126.7 47.5,-149.7 211.5,-149.7 211.5,-126.7 47.5,-126.7"/>
<text text-anchor="start" x="52.5" y="-135.3" font-family="Helvetica,sans-Serif" font-weight="bold" font-size="11.00" fill="#000000">policy</text>
<text text-anchor="start" x="176.5437" y="-134.8" font-family="Helvetica,sans-Serif" font-size="11.00" fill="#000000">[table]</text>
<polygon fill="none" stroke="#000000" points="47.5,-104.7 47.5,-126.7 144.5,-126.7 144.5,-104.7 47.5,-104.7"/>
<image xlink:href="../../images/primaryKeys.png" width="11px" height="12px" preserveAspectRatio="xMinYMin meet" x="52.5" y="-121.7"/>
<text text-anchor="start" x="67.5" y="-111.8" font-family="Helvetica,sans-Serif" font-size="11.00" fill="#000000">code</text>
<polygon fill="none" stroke="#000000" points="144.5,-104.7 144.5,-126.7 211.5,-126.7 211.5,-104.7 144.5,-104.7"/>
<text text-anchor="start" x="147.5" y="-112.4" font-family="Helvetica,sans-Serif" font-size="11.00" fill="#000000">varchar[16]</text>
<polygon fill="none" stroke="#000000" points="47.5,-82.7 47.5,-104.7 144.5,-104.7 144.5,-82.7 47.5,-82.7"/>
<text text-anchor="start" x="67.5" y="-89.8" font-family="Helvetica,sans-Serif" font-size="11.00" fill="#000000">description</text>
<polygon fill="none" stroke="#000000" points="144.5,-82.7 144.5,-104.7 211.5,-104.7 211.5,-82.7 144.5,-82.7"/>
<text text-anchor="start" x="147.4365" y="-90.4" font-family="Helvetica,sans-Serif" font-size="11.00" fill="#000000">varchar[255]</text>
<polygon fill="#ffffff" stroke="transparent" points="47.5,-63.7 47.5,-82.7 100.5,-82.7 100.5,-63.7 47.5,-63.7"/>
<polygon fill="none" stroke="#000000" points="47.5,-63.7 47.5,-82.7 100.5,-82.7 100.5,-63.7 47.5,-63.7"/>
<text text-anchor="start" x="50.5" y="-69.8" font-family="Helvetica,sans-Serif" font-size="11.00" fill="#000000">&lt; 0</text>
<polygon fill="#ffffff" stroke="transparent" points="100.5,-63.7 100.5,-82.7 144.5,-82.7 144.5,-63.7 100.5,-63.7"/>
<polygon fill="none" stroke="#000000" points="100.5,-63.7 100.5,-82.7 144.5,-82.7 144.5,-63.7 100.5,-63.7"/>
<text text-anchor="start" x="135.3862" y="-69.8" font-family="Helvetica,sans-Serif" font-size="11.00" fill="#000000"> &#160;</text>
<polygon fill="#ffffff" stroke="transparent" points="144.5,-63.7 144.5,-82.7 211.5,-82.7 211.5,-63.7 144.5,-63.7"/>
<polygon fill="none" stroke="#000000" points="144.5,-63.7 144.5,-82.7 211.5,-82.7 211.5,-63.7 144.5,-63.7"/>
<text text-anchor="start" x="192.9053" y="-69.8" font-family="Helvetica,sans-Serif" font-size="11.00" fill="#000000">2 &gt;</text>
<polygon fill="none" stroke="#000000" stroke-width="2" points="46.5,-62.7 46.5,-150.7 212.5,-150.7 212.5,-62.7 46.5,-62.7"/>
</a>
</g>
</g>
<!-- prison_configuration&#45;&gt;policy -->
<g id="edge1" class="edge">
<title>prison_configuration:w&#45;&gt;policy:e</title>
<path fill="none" stroke="#000000" d="M318.0786,-108.8801C275.7215,-109.9757 260.2124,-115.7 211.5,-115.7"/>
<polygon fill="#000000" stroke="#000000" points="324.5006,-108.7999 332.545,-112.2997 328.5003,-108.75 332.5,-108.7 332.5,-108.7 332.5,-108.7 328.5003,-108.75 332.455,-105.1003 324.5006,-108.7999 324.5006,-108.7999"/>
<ellipse fill="none" stroke="#000000" cx="321.3009" cy="-108.8399" rx="3.2" ry="3.2"/>
</g>
<!-- prison_migration_date_history -->
<g id="node3" class="node">
<title>prison_migration_date_history</title>
<g id="a_node3"><a xlink:href="../../tables/prison_migration_date_history.html" xlink:title="prison_migration_date_history" target="_top">
<polygon fill="#ffffff" stroke="transparent" points="8,-185.2 8,-246.2 251,-246.2 251,-185.2 8,-185.2"/>
<polygon fill="#f5f5f5" stroke="transparent" points="8.5,-222.7 8.5,-245.7 251.5,-245.7 251.5,-222.7 8.5,-222.7"/>
<polygon fill="none" stroke="#000000" points="8.5,-222.7 8.5,-245.7 251.5,-245.7 251.5,-222.7 8.5,-222.7"/>
<text text-anchor="start" x="13.5" y="-231.3" font-family="Helvetica,sans-Serif" font-weight="bold" font-size="11.00" fill="#000000">prison_migration_date_history</text>
<text text-anchor="start" x="217.0219" y="-230.8" font-family="Helvetica,sans-Serif" font-size="11.00" fill="#000000">[table]</text>
<polygon fill="none" stroke="#000000" points="8.5,-203.7 8.5,-222.7 251.5,-222.7 251.5,-203.7 8.5,-203.7"/>
<text text-anchor="start" x="11.5" y="-209.8" font-family="Helvetica,sans-Serif" font-size="11.00" fill="#000000">...</text>
<polygon fill="#ffffff" stroke="transparent" points="8.5,-184.7 8.5,-203.7 119.5,-203.7 119.5,-184.7 8.5,-184.7"/>
<polygon fill="none" stroke="#000000" points="8.5,-184.7 8.5,-203.7 119.5,-203.7 119.5,-184.7 8.5,-184.7"/>
<text text-anchor="start" x="11.5" y="-190.8" font-family="Helvetica,sans-Serif" font-size="11.00" fill="#000000"> &#160;</text>
<polygon fill="#ffffff" stroke="transparent" points="119.5,-184.7 119.5,-203.7 180.5,-203.7 180.5,-184.7 119.5,-184.7"/>
<polygon fill="none" stroke="#000000" points="119.5,-184.7 119.5,-203.7 180.5,-203.7 180.5,-184.7 119.5,-184.7"/>
<text text-anchor="start" x="171.3862" y="-190.8" font-family="Helvetica,sans-Serif" font-size="11.00" fill="#000000"> &#160;</text>
<polygon fill="#ffffff" stroke="transparent" points="180.5,-184.7 180.5,-203.7 251.5,-203.7 251.5,-184.7 180.5,-184.7"/>
<polygon fill="none" stroke="#000000" points="180.5,-184.7 180.5,-203.7 251.5,-203.7 251.5,-184.7 180.5,-184.7"/>
<text text-anchor="start" x="232.9053" y="-190.8" font-family="Helvetica,sans-Serif" font-size="11.00" fill="#000000">4 &gt;</text>
</a>
</g>
</g>
<!-- prison_configuration&#45;&gt;prison_migration_date_history -->
<g id="edge2" class="edge">
<title>prison_configuration:w&#45;&gt;prison_migration_date_history:e</title>
<path fill="none" stroke="#000000" stroke-dasharray="5,2" d="M318.1094,-133.4283C285.0966,-147.6565 297.124,-212.7 251.5,-212.7"/>
<polygon fill="#000000" stroke="#000000" points="324.64,-132.1902 333.1706,-134.237 328.57,-131.4451 332.5,-130.7 332.5,-130.7 332.5,-130.7 328.57,-131.4451 331.8294,-127.163 324.64,-132.1902 324.64,-132.1902"/>
<ellipse fill="none" stroke="#000000" cx="321.496" cy="-132.7863" rx="3.2" ry="3.2"/>
</g>
<!-- prison_configuration_audit -->
<g id="node4" class="node">
<title>prison_configuration_audit</title>
<g id="a_node4"><a xlink:href="../../tables/prison_configuration_audit.html" xlink:title="prison_configuration_audit" target="_top">
<polygon fill="#ffffff" stroke="transparent" points="300,-186.2 300,-335.2 677,-335.2 677,-186.2 300,-186.2"/>
<polygon fill="#f5f5f5" stroke="transparent" points="300.5,-311.7 300.5,-334.7 677.5,-334.7 677.5,-311.7 300.5,-311.7"/>
<polygon fill="none" stroke="#000000" points="300.5,-311.7 300.5,-334.7 677.5,-334.7 677.5,-311.7 300.5,-311.7"/>
<text text-anchor="start" x="305.5" y="-320.3" font-family="Helvetica,sans-Serif" font-weight="bold" font-size="11.00" fill="#000000">prison_configuration_audit</text>
<text text-anchor="start" x="642.5437" y="-319.8" font-family="Helvetica,sans-Serif" font-size="11.00" fill="#000000">[table]</text>
<polygon fill="none" stroke="#000000" points="300.5,-289.7 300.5,-311.7 677.5,-311.7 677.5,-289.7 300.5,-289.7"/>
<image xlink:href="../../images/primaryKeys.png" width="11px" height="12px" preserveAspectRatio="xMinYMin meet" x="305.5" y="-306.7"/>
<text text-anchor="start" x="320.5" y="-296.8" font-family="Helvetica,sans-Serif" font-size="11.00" fill="#000000">rev_id</text>
<polygon fill="none" stroke="#000000" points="300.5,-267.7 300.5,-289.7 677.5,-289.7 677.5,-267.7 300.5,-267.7"/>
<image xlink:href="../../images/primaryKeys.png" width="11px" height="12px" preserveAspectRatio="xMinYMin meet" x="305.5" y="-284.7"/>
<text text-anchor="start" x="320.5" y="-274.8" font-family="Helvetica,sans-Serif" font-size="11.00" fill="#000000">id</text>
<polygon fill="none" stroke="#000000" points="300.5,-245.7 300.5,-267.7 677.5,-267.7 677.5,-245.7 300.5,-245.7"/>
<image xlink:href="../../images/foreignKeys.png" width="11px" height="12px" preserveAspectRatio="xMinYMin meet" x="305.5" y="-262.7"/>
<text text-anchor="start" x="320.5" y="-252.8" font-family="Helvetica,sans-Serif" font-size="11.00" fill="#000000">prison_code</text>
<polygon fill="none" stroke="#000000" points="300.5,-223.7 300.5,-245.7 677.5,-245.7 677.5,-223.7 300.5,-223.7"/>
<image xlink:href="../../images/foreignKeys.png" width="11px" height="12px" preserveAspectRatio="xMinYMin meet" x="305.5" y="-240.7"/>
<text text-anchor="start" x="320.5" y="-230.8" font-family="Helvetica,sans-Serif" font-size="11.00" fill="#000000">policy_code</text>
<polygon fill="none" stroke="#000000" points="300.5,-204.7 300.5,-223.7 677.5,-223.7 677.5,-204.7 300.5,-204.7"/>
<text text-anchor="start" x="303.5" y="-210.8" font-family="Helvetica,sans-Serif" font-size="11.00" fill="#000000">...</text>
<polygon fill="#ffffff" stroke="transparent" points="300.5,-185.7 300.5,-204.7 487.5,-204.7 487.5,-185.7 300.5,-185.7"/>
<polygon fill="none" stroke="#000000" points="300.5,-185.7 300.5,-204.7 487.5,-204.7 487.5,-185.7 300.5,-185.7"/>
<text text-anchor="start" x="303.5" y="-191.8" font-family="Helvetica,sans-Serif" font-size="11.00" fill="#000000">&lt; 3</text>
<polygon fill="#ffffff" stroke="transparent" points="487.5,-185.7 487.5,-204.7 582.5,-204.7 582.5,-185.7 487.5,-185.7"/>
<polygon fill="none" stroke="#000000" points="487.5,-185.7 487.5,-204.7 582.5,-204.7 582.5,-185.7 487.5,-185.7"/>
<text text-anchor="start" x="573.3862" y="-191.8" font-family="Helvetica,sans-Serif" font-size="11.00" fill="#000000"> &#160;</text>
<polygon fill="#ffffff" stroke="transparent" points="582.5,-185.7 582.5,-204.7 677.5,-204.7 677.5,-185.7 582.5,-185.7"/>
<polygon fill="none" stroke="#000000" points="582.5,-185.7 582.5,-204.7 677.5,-204.7 677.5,-185.7 582.5,-185.7"/>
<text text-anchor="start" x="668.3862" y="-191.8" font-family="Helvetica,sans-Serif" font-size="11.00" fill="#000000"> &#160;</text>
</a>
</g>
</g>
<!-- prison_configuration_audit&#45;&gt;policy -->
<g id="edge3" class="edge">
<title>prison_configuration_audit:w&#45;&gt;policy:e</title>
<path fill="none" stroke="#000000" stroke-dasharray="5,2" d="M286.2925,-231.3891C270.9031,-222.2247 274.7639,-195.8076 259,-174.7 238.8561,-147.7277 245.1643,-115.7 211.5,-115.7"/>
<polygon fill="#000000" stroke="#000000" points="292.7088,-232.8843 299.6829,-238.2061 296.6044,-233.7921 300.5,-234.7 300.5,-234.7 300.5,-234.7 296.6044,-233.7921 301.3171,-231.1939 292.7088,-232.8843 292.7088,-232.8843"/>
<ellipse fill="none" stroke="#000000" cx="289.5923" cy="-232.158" rx="3.2" ry="3.2"/>
</g>
<!-- prison_configuration_audit&#45;&gt;prison_migration_date_history -->
<g id="edge4" class="edge">
<title>prison_configuration_audit:w&#45;&gt;prison_migration_date_history:e</title>
<path fill="none" stroke="#000000" stroke-dasharray="5,2" d="M286.8171,-251.9912C273.5046,-240.6404 274.824,-212.7 251.5,-212.7"/>
<polygon fill="#000000" stroke="#000000" points="292.9354,-254.0967 299.3285,-260.1041 296.7177,-255.3984 300.5,-256.7 300.5,-256.7 300.5,-256.7 296.7177,-255.3984 301.6715,-253.2959 292.9354,-254.0967 292.9354,-254.0967"/>
<ellipse fill="none" stroke="#000000" cx="289.9096" cy="-253.0554" rx="3.2" ry="3.2"/>
</g>
<!-- audit_revision -->
<g id="node5" class="node">
<title>audit_revision</title>
<g id="a_node5"><a xlink:href="../../tables/audit_revision.html" xlink:title="audit_revision" target="_top">
<polygon fill="#ffffff" stroke="transparent" points="62.5,-273.2 62.5,-334.2 196.5,-334.2 196.5,-273.2 62.5,-273.2"/>
<polygon fill="#f5f5f5" stroke="transparent" points="62.5,-310.7 62.5,-333.7 196.5,-333.7 196.5,-310.7 62.5,-310.7"/>
<polygon fill="none" stroke="#000000" points="62.5,-310.7 62.5,-333.7 196.5,-333.7 196.5,-310.7 62.5,-310.7"/>
<text text-anchor="start" x="67.5" y="-319.3" font-family="Helvetica,sans-Serif" font-weight="bold" font-size="11.00" fill="#000000">audit_revision</text>
<text text-anchor="start" x="162.0219" y="-318.8" font-family="Helvetica,sans-Serif" font-size="11.00" fill="#000000">[table]</text>
<polygon fill="none" stroke="#000000" points="62.5,-291.7 62.5,-310.7 196.5,-310.7 196.5,-291.7 62.5,-291.7"/>
<text text-anchor="start" x="65.5" y="-297.8" font-family="Helvetica,sans-Serif" font-size="11.00" fill="#000000">...</text>
<polygon fill="#ffffff" stroke="transparent" points="62.5,-272.7 62.5,-291.7 118.5,-291.7 118.5,-272.7 62.5,-272.7"/>
<polygon fill="none" stroke="#000000" points="62.5,-272.7 62.5,-291.7 118.5,-291.7 118.5,-272.7 62.5,-272.7"/>
<text text-anchor="start" x="65.5" y="-278.8" font-family="Helvetica,sans-Serif" font-size="11.00" fill="#000000"> &#160;</text>
<polygon fill="#ffffff" stroke="transparent" points="118.5,-272.7 118.5,-291.7 152.5,-291.7 152.5,-272.7 118.5,-272.7"/>
<polygon fill="none" stroke="#000000" points="118.5,-272.7 118.5,-291.7 152.5,-291.7 152.5,-272.7 118.5,-272.7"/>
<text text-anchor="start" x="143.3862" y="-278.8" font-family="Helvetica,sans-Serif" font-size="11.00" fill="#000000"> &#160;</text>
<polygon fill="#ffffff" stroke="transparent" points="152.5,-272.7 152.5,-291.7 196.5,-291.7 196.5,-272.7 152.5,-272.7"/>
<polygon fill="none" stroke="#000000" points="152.5,-272.7 152.5,-291.7 196.5,-291.7 196.5,-272.7 152.5,-272.7"/>
<text text-anchor="start" x="177.9053" y="-278.8" font-family="Helvetica,sans-Serif" font-size="11.00" fill="#000000">2 &gt;</text>
</a>
</g>
</g>
<!-- prison_configuration_audit&#45;&gt;audit_revision -->
<g id="edge5" class="edge">
<title>prison_configuration_audit:w&#45;&gt;audit_revision:e</title>
<path fill="none" stroke="#000000" d="M286.0255,-300.7C251.2149,-300.7 237.4861,-300.7 196.5,-300.7"/>
<polygon fill="#000000" stroke="#000000" points="292.5,-300.7001 300.5,-304.3 296.5,-300.7 300.5,-300.7 300.5,-300.7 300.5,-300.7 296.5,-300.7 300.5,-297.1 292.5,-300.7001 292.5,-300.7001"/>
<ellipse fill="none" stroke="#000000" cx="289.3" cy="-300.7001" rx="3.2" ry="3.2"/>
</g>
</g>
</svg>
