<?xml version="1.0" encoding="UTF-8" standalone="no"?>
<!DOCTYPE svg PUBLIC "-//W3C//DTD SVG 1.1//EN"
 "http://www.w3.org/Graphics/SVG/1.1/DTD/svg11.dtd">
<!-- Generated by graphviz version 2.40.1 (20161225.0304)
 -->
<!-- Title: twoDegreesRelationshipsDiagram Pages: 1 -->
<svg width="553pt" height="1241pt"
 viewBox="0.00 0.00 553.00 1241.20" xmlns="http://www.w3.org/2000/svg" xmlns:xlink="http://www.w3.org/1999/xlink">
<g id="graph0" class="graph" transform="scale(1 1) rotate(0) translate(4 1237.2)">
<title>twoDegreesRelationshipsDiagram</title>
<polygon fill="#ffffff" stroke="transparent" points="-4,4 -4,-1237.2 549,-1237.2 549,4 -4,4"/>
<text text-anchor="middle" x="72.4936" y="-7.3" font-family="Helvetica,sans-Serif" font-size="11.00" fill="#000000">Generated by SchemaSpy</text>
<!-- allocation -->
<g id="node1" class="node">
<title>allocation</title>
<g id="a_node1"><a xlink:href="../../tables/allocation.html" xlink:title="allocation" target="_top">
<polygon fill="#ffffff" stroke="transparent" points="294,-992.2 294,-1229.2 468,-1229.2 468,-992.2 294,-992.2"/>
<polygon fill="#f5f5f5" stroke="transparent" points="294,-1205.7 294,-1228.7 468,-1228.7 468,-1205.7 294,-1205.7"/>
<polygon fill="none" stroke="#000000" points="294,-1205.7 294,-1228.7 468,-1228.7 468,-1205.7 294,-1205.7"/>
<text text-anchor="start" x="299" y="-1214.3" font-family="Helvetica,sans-Serif" font-weight="bold" font-size="11.00" fill="#000000">allocation</text>
<text text-anchor="start" x="433.0437" y="-1213.8" font-family="Helvetica,sans-Serif" font-size="11.00" fill="#000000">[table]</text>
<polygon fill="none" stroke="#000000" points="294,-1183.7 294,-1205.7 468,-1205.7 468,-1183.7 294,-1183.7"/>
<image xlink:href="../../images/primaryKeys.png" width="11px" height="12px" preserveAspectRatio="xMinYMin meet" x="299" y="-1200.7"/>
<text text-anchor="start" x="314" y="-1190.8" font-family="Helvetica,sans-Serif" font-size="11.00" fill="#000000">id</text>
<polygon fill="#ffffff" stroke="transparent" points="294,-1161.7 294,-1183.7 468,-1183.7 468,-1161.7 294,-1161.7"/>
<polygon fill="none" stroke="#000000" points="294,-1161.7 294,-1183.7 468,-1183.7 468,-1161.7 294,-1161.7"/>
<image xlink:href="../../images/foreignKeys.png" width="11px" height="12px" preserveAspectRatio="xMinYMin meet" x="299" y="-1178.7"/>
<text text-anchor="start" x="314" y="-1168.8" font-family="Helvetica,sans-Serif" font-size="11.00" fill="#000000">prison_code</text>
<polygon fill="#ffffff" stroke="transparent" points="294,-1139.7 294,-1161.7 468,-1161.7 468,-1139.7 294,-1139.7"/>
<polygon fill="none" stroke="#000000" points="294,-1139.7 294,-1161.7 468,-1161.7 468,-1139.7 294,-1139.7"/>
<text text-anchor="start" x="314" y="-1146.8" font-family="Helvetica,sans-Serif" font-size="11.00" fill="#000000">staff_id</text>
<polygon fill="#ffffff" stroke="transparent" points="294,-1117.7 294,-1139.7 468,-1139.7 468,-1117.7 294,-1117.7"/>
<polygon fill="none" stroke="#000000" points="294,-1117.7 294,-1139.7 468,-1139.7 468,-1117.7 294,-1117.7"/>
<text text-anchor="start" x="314" y="-1124.8" font-family="Helvetica,sans-Serif" font-size="11.00" fill="#000000">person_identifier</text>
<polygon fill="#ffffff" stroke="transparent" points="294,-1095.7 294,-1117.7 468,-1117.7 468,-1095.7 294,-1095.7"/>
<polygon fill="none" stroke="#000000" points="294,-1095.7 294,-1117.7 468,-1117.7 468,-1095.7 294,-1095.7"/>
<text text-anchor="start" x="314" y="-1102.8" font-family="Helvetica,sans-Serif" font-size="11.00" fill="#000000">allocated_at</text>
<polygon fill="none" stroke="#000000" points="294,-1073.7 294,-1095.7 468,-1095.7 468,-1073.7 294,-1073.7"/>
<image xlink:href="../../images/foreignKeys.png" width="11px" height="12px" preserveAspectRatio="xMinYMin meet" x="299" y="-1090.7"/>
<text text-anchor="start" x="314" y="-1080.8" font-family="Helvetica,sans-Serif" font-size="11.00" fill="#000000">allocation_reason_id</text>
<polygon fill="none" stroke="#000000" points="294,-1051.7 294,-1073.7 468,-1073.7 468,-1051.7 294,-1051.7"/>
<image xlink:href="../../images/foreignKeys.png" width="11px" height="12px" preserveAspectRatio="xMinYMin meet" x="299" y="-1068.7"/>
<text text-anchor="start" x="314" y="-1058.8" font-family="Helvetica,sans-Serif" font-size="11.00" fill="#000000">deallocation_reason_id</text>
<polygon fill="#ffffff" stroke="transparent" points="294,-1029.7 294,-1051.7 468,-1051.7 468,-1029.7 294,-1029.7"/>
<polygon fill="none" stroke="#000000" points="294,-1029.7 294,-1051.7 468,-1051.7 468,-1029.7 294,-1029.7"/>
<image xlink:href="../../images/foreignKeys.png" width="11px" height="12px" preserveAspectRatio="xMinYMin meet" x="299" y="-1046.7"/>
<text text-anchor="start" x="314" y="-1036.8" font-family="Helvetica,sans-Serif" font-size="11.00" fill="#000000">policy_code</text>
<polygon fill="none" stroke="#000000" points="294,-1010.7 294,-1029.7 468,-1029.7 468,-1010.7 294,-1010.7"/>
<text text-anchor="start" x="297" y="-1016.8" font-family="Helvetica,sans-Serif" font-size="11.00" fill="#000000">...</text>
<polygon fill="#ffffff" stroke="transparent" points="294,-991.7 294,-1010.7 379,-1010.7 379,-991.7 294,-991.7"/>
<polygon fill="none" stroke="#000000" points="294,-991.7 294,-1010.7 379,-1010.7 379,-991.7 294,-991.7"/>
<text text-anchor="start" x="297" y="-997.8" font-family="Helvetica,sans-Serif" font-size="11.00" fill="#000000">&lt; 3</text>
<polygon fill="#ffffff" stroke="transparent" points="379,-991.7 379,-1010.7 423,-1010.7 423,-991.7 379,-991.7"/>
<polygon fill="none" stroke="#000000" points="379,-991.7 379,-1010.7 423,-1010.7 423,-991.7 379,-991.7"/>
<text text-anchor="start" x="413.8862" y="-997.8" font-family="Helvetica,sans-Serif" font-size="11.00" fill="#000000"> &#160;</text>
<polygon fill="#ffffff" stroke="transparent" points="423,-991.7 423,-1010.7 468,-1010.7 468,-991.7 423,-991.7"/>
<polygon fill="none" stroke="#000000" points="423,-991.7 423,-1010.7 468,-1010.7 468,-991.7 423,-991.7"/>
<text text-anchor="start" x="458.8862" y="-997.8" font-family="Helvetica,sans-Serif" font-size="11.00" fill="#000000"> &#160;</text>
</a>
</g>
</g>
<!-- reference_data -->
<g id="node2" class="node">
<title>reference_data</title>
<g id="a_node2"><a xlink:href="../../tables/reference_data.html" xlink:title="reference_data" target="_top">
<polygon fill="#ffffff" stroke="transparent" points="22,-821.2 22,-882.2 162,-882.2 162,-821.2 22,-821.2"/>
<polygon fill="#f5f5f5" stroke="transparent" points="22,-858.7 22,-881.7 162,-881.7 162,-858.7 22,-858.7"/>
<polygon fill="none" stroke="#000000" points="22,-858.7 22,-881.7 162,-881.7 162,-858.7 22,-858.7"/>
<text text-anchor="start" x="27" y="-867.3" font-family="Helvetica,sans-Serif" font-weight="bold" font-size="11.00" fill="#000000">reference_data</text>
<text text-anchor="start" x="127.5219" y="-866.8" font-family="Helvetica,sans-Serif" font-size="11.00" fill="#000000">[table]</text>
<polygon fill="none" stroke="#000000" points="22,-839.7 22,-858.7 162,-858.7 162,-839.7 22,-839.7"/>
<text text-anchor="start" x="25" y="-845.8" font-family="Helvetica,sans-Serif" font-size="11.00" fill="#000000">...</text>
<polygon fill="#ffffff" stroke="transparent" points="22,-820.7 22,-839.7 81,-839.7 81,-820.7 22,-820.7"/>
<polygon fill="none" stroke="#000000" points="22,-820.7 22,-839.7 81,-839.7 81,-820.7 22,-820.7"/>
<text text-anchor="start" x="25" y="-826.8" font-family="Helvetica,sans-Serif" font-size="11.00" fill="#000000"> &#160;</text>
<polygon fill="#ffffff" stroke="transparent" points="81,-820.7 81,-839.7 117,-839.7 117,-820.7 81,-820.7"/>
<polygon fill="none" stroke="#000000" points="81,-820.7 81,-839.7 117,-839.7 117,-820.7 81,-820.7"/>
<text text-anchor="start" x="107.8862" y="-826.8" font-family="Helvetica,sans-Serif" font-size="11.00" fill="#000000"> &#160;</text>
<polygon fill="#ffffff" stroke="transparent" points="117,-820.7 117,-839.7 162,-839.7 162,-820.7 117,-820.7"/>
<polygon fill="none" stroke="#000000" points="117,-820.7 117,-839.7 162,-839.7 162,-820.7 117,-820.7"/>
<text text-anchor="start" x="143.4053" y="-826.8" font-family="Helvetica,sans-Serif" font-size="11.00" fill="#000000">7 &gt;</text>
</a>
</g>
</g>
<!-- allocation&#45;&gt;reference_data -->
<g id="edge1" class="edge">
<title>allocation:w&#45;&gt;reference_data:e</title>
<path fill="none" stroke="#000000" d="M279.5695,-1083.3412C238.0986,-1074.7353 242.6035,-1026.7269 217,-981.7 185.3814,-926.095 225.966,-848.7 162,-848.7"/>
<polygon fill="#000000" stroke="#000000" points="286.0352,-1083.9499 293.6625,-1088.2841 290.0176,-1084.325 294,-1084.7 294,-1084.7 294,-1084.7 290.0176,-1084.325 294.3375,-1081.1159 286.0352,-1083.9499 286.0352,-1083.9499"/>
<ellipse fill="none" stroke="#000000" cx="282.8493" cy="-1083.6499" rx="3.2" ry="3.2"/>
</g>
<!-- allocation&#45;&gt;reference_data -->
<g id="edge2" class="edge">
<title>allocation:w&#45;&gt;reference_data:e</title>
<path fill="none" stroke="#000000" d="M279.3751,-1061.3364C243.9498,-1054.0653 241.099,-1018.7975 217,-981.7 182.1539,-928.0586 225.966,-848.7 162,-848.7"/>
<polygon fill="#000000" stroke="#000000" points="286.0345,-1061.9572 293.6658,-1066.2845 290.0173,-1062.3286 294,-1062.7 294,-1062.7 294,-1062.7 290.0173,-1062.3286 294.3342,-1059.1155 286.0345,-1061.9572 286.0345,-1061.9572"/>
<ellipse fill="none" stroke="#000000" cx="282.8484" cy="-1061.6601" rx="3.2" ry="3.2"/>
</g>
<!-- policy -->
<g id="node3" class="node">
<title>policy</title>
<g id="a_node3"><a xlink:href="../../tables/policy.html" xlink:title="policy" target="_top">
<polygon fill="#ffffff" stroke="transparent" points="8,-520.7 8,-610.7 176,-610.7 176,-520.7 8,-520.7"/>
<polygon fill="#f5f5f5" stroke="transparent" points="10,-585.7 10,-608.7 174,-608.7 174,-585.7 10,-585.7"/>
<polygon fill="none" stroke="#000000" points="10,-585.7 10,-608.7 174,-608.7 174,-585.7 10,-585.7"/>
<text text-anchor="start" x="15" y="-594.3" font-family="Helvetica,sans-Serif" font-weight="bold" font-size="11.00" fill="#000000">policy</text>
<text text-anchor="start" x="139.0437" y="-593.8" font-family="Helvetica,sans-Serif" font-size="11.00" fill="#000000">[table]</text>
<polygon fill="none" stroke="#000000" points="10,-563.7 10,-585.7 107,-585.7 107,-563.7 10,-563.7"/>
<image xlink:href="../../images/primaryKeys.png" width="11px" height="12px" preserveAspectRatio="xMinYMin meet" x="15" y="-580.7"/>
<text text-anchor="start" x="30" y="-570.8" font-family="Helvetica,sans-Serif" font-size="11.00" fill="#000000">code</text>
<polygon fill="none" stroke="#000000" points="107,-563.7 107,-585.7 174,-585.7 174,-563.7 107,-563.7"/>
<text text-anchor="start" x="110" y="-571.4" font-family="Helvetica,sans-Serif" font-size="11.00" fill="#000000">varchar[16]</text>
<polygon fill="none" stroke="#000000" points="10,-541.7 10,-563.7 107,-563.7 107,-541.7 10,-541.7"/>
<text text-anchor="start" x="30" y="-548.8" font-family="Helvetica,sans-Serif" font-size="11.00" fill="#000000">description</text>
<polygon fill="none" stroke="#000000" points="107,-541.7 107,-563.7 174,-563.7 174,-541.7 107,-541.7"/>
<text text-anchor="start" x="109.9365" y="-549.4" font-family="Helvetica,sans-Serif" font-size="11.00" fill="#000000">varchar[255]</text>
<polygon fill="#ffffff" stroke="transparent" points="10,-522.7 10,-541.7 63,-541.7 63,-522.7 10,-522.7"/>
<polygon fill="none" stroke="#000000" points="10,-522.7 10,-541.7 63,-541.7 63,-522.7 10,-522.7"/>
<text text-anchor="start" x="13" y="-528.8" font-family="Helvetica,sans-Serif" font-size="11.00" fill="#000000">&lt; 0</text>
<polygon fill="#ffffff" stroke="transparent" points="63,-522.7 63,-541.7 107,-541.7 107,-522.7 63,-522.7"/>
<polygon fill="none" stroke="#000000" points="63,-522.7 63,-541.7 107,-541.7 107,-522.7 63,-522.7"/>
<text text-anchor="start" x="97.8862" y="-528.8" font-family="Helvetica,sans-Serif" font-size="11.00" fill="#000000"> &#160;</text>
<polygon fill="#ffffff" stroke="transparent" points="107,-522.7 107,-541.7 174,-541.7 174,-522.7 107,-522.7"/>
<polygon fill="none" stroke="#000000" points="107,-522.7 107,-541.7 174,-541.7 174,-522.7 107,-522.7"/>
<text text-anchor="start" x="155.4053" y="-528.8" font-family="Helvetica,sans-Serif" font-size="11.00" fill="#000000">7 &gt;</text>
<polygon fill="none" stroke="#000000" stroke-width="2" points="9,-521.7 9,-609.7 175,-609.7 175,-521.7 9,-521.7"/>
</a>
</g>
</g>
<!-- allocation&#45;&gt;policy -->
<g id="edge3" class="edge">
<title>allocation:w&#45;&gt;policy:e</title>
<path fill="none" stroke="#000000" d="M279.6028,-1039.768C247.6656,-1035.2803 235.5355,-1014.7498 217,-981.7 172.5122,-902.3757 264.9478,-574.7 174,-574.7"/>
<polygon fill="#000000" stroke="#000000" points="286.0167,-1040.1831 293.7674,-1044.2925 290.0084,-1040.4416 294,-1040.7 294,-1040.7 294,-1040.7 290.0084,-1040.4416 294.2326,-1037.1075 286.0167,-1040.1831 286.0167,-1040.1831"/>
<ellipse fill="none" stroke="#000000" cx="282.8234" cy="-1039.9764" rx="3.2" ry="3.2"/>
</g>
<!-- prison_configuration -->
<g id="node4" class="node">
<title>prison_configuration</title>
<g id="a_node4"><a xlink:href="../../tables/prison_configuration.html" xlink:title="prison_configuration" target="_top">
<polygon fill="#ffffff" stroke="transparent" points="225,-186.2 225,-313.2 537,-313.2 537,-186.2 225,-186.2"/>
<polygon fill="#f5f5f5" stroke="transparent" points="225,-289.7 225,-312.7 537,-312.7 537,-289.7 225,-289.7"/>
<polygon fill="none" stroke="#000000" points="225,-289.7 225,-312.7 537,-312.7 537,-289.7 225,-289.7"/>
<text text-anchor="start" x="230" y="-298.3" font-family="Helvetica,sans-Serif" font-weight="bold" font-size="11.00" fill="#000000">prison_configuration</text>
<text text-anchor="start" x="502.0437" y="-297.8" font-family="Helvetica,sans-Serif" font-size="11.00" fill="#000000">[table]</text>
<polygon fill="#ffffff" stroke="transparent" points="225,-267.7 225,-289.7 537,-289.7 537,-267.7 225,-267.7"/>
<polygon fill="none" stroke="#000000" points="225,-267.7 225,-289.7 537,-289.7 537,-267.7 225,-267.7"/>
<image xlink:href="../../images/foreignKeys.png" width="11px" height="12px" preserveAspectRatio="xMinYMin meet" x="230" y="-284.7"/>
<text text-anchor="start" x="245" y="-274.8" font-family="Helvetica,sans-Serif" font-size="11.00" fill="#000000">prison_code</text>
<polygon fill="#ffffff" stroke="transparent" points="225,-245.7 225,-267.7 537,-267.7 537,-245.7 225,-245.7"/>
<polygon fill="none" stroke="#000000" points="225,-245.7 225,-267.7 537,-267.7 537,-245.7 225,-245.7"/>
<image xlink:href="../../images/foreignKeys.png" width="11px" height="12px" preserveAspectRatio="xMinYMin meet" x="230" y="-262.7"/>
<text text-anchor="start" x="245" y="-252.8" font-family="Helvetica,sans-Serif" font-size="11.00" fill="#000000">policy_code</text>
<polygon fill="none" stroke="#000000" points="225,-223.7 225,-245.7 537,-245.7 537,-223.7 225,-223.7"/>
<image xlink:href="../../images/primaryKeys.png" width="11px" height="12px" preserveAspectRatio="xMinYMin meet" x="230" y="-240.7"/>
<text text-anchor="start" x="245" y="-230.8" font-family="Helvetica,sans-Serif" font-size="11.00" fill="#000000">id</text>
<polygon fill="none" stroke="#000000" points="225,-204.7 225,-223.7 537,-223.7 537,-204.7 225,-204.7"/>
<text text-anchor="start" x="228" y="-210.8" font-family="Helvetica,sans-Serif" font-size="11.00" fill="#000000">...</text>
<polygon fill="#ffffff" stroke="transparent" points="225,-185.7 225,-204.7 363,-204.7 363,-185.7 225,-185.7"/>
<polygon fill="none" stroke="#000000" points="225,-185.7 225,-204.7 363,-204.7 363,-185.7 225,-185.7"/>
<text text-anchor="start" x="228" y="-191.8" font-family="Helvetica,sans-Serif" font-size="11.00" fill="#000000">&lt; 1</text>
<polygon fill="#ffffff" stroke="transparent" points="363,-185.7 363,-204.7 466,-204.7 466,-185.7 363,-185.7"/>
<polygon fill="none" stroke="#000000" points="363,-185.7 363,-204.7 466,-204.7 466,-185.7 363,-185.7"/>
<text text-anchor="start" x="424.4956" y="-191.8" font-family="Helvetica,sans-Serif" font-size="11.00" fill="#000000">12 rows</text>
<polygon fill="#ffffff" stroke="transparent" points="466,-185.7 466,-204.7 537,-204.7 537,-185.7 466,-185.7"/>
<polygon fill="none" stroke="#000000" points="466,-185.7 466,-204.7 537,-204.7 537,-185.7 466,-185.7"/>
<text text-anchor="start" x="527.8862" y="-191.8" font-family="Helvetica,sans-Serif" font-size="11.00" fill="#000000"> &#160;</text>
</a>
</g>
</g>
<!-- prison_configuration&#45;&gt;policy -->
<g id="edge4" class="edge">
<title>prison_configuration:w&#45;&gt;policy:e</title>
<path fill="none" stroke="#000000" d="M211.3501,-261.9542C166.5173,-303.3002 240.1181,-574.7 174,-574.7"/>
<polygon fill="#000000" stroke="#000000" points="217.534,-259.5739 226.2932,-260.0597 221.267,-258.1369 225,-256.7 225,-256.7 225,-256.7 221.267,-258.1369 223.7068,-253.3403 217.534,-259.5739 217.534,-259.5739"/>
<ellipse fill="none" stroke="#000000" cx="214.5476" cy="-260.7234" rx="3.2" ry="3.2"/>
</g>
<!-- prison_statistic -->
<g id="node5" class="node">
<title>prison_statistic</title>
<g id="a_node5"><a xlink:href="../../tables/prison_statistic.html" xlink:title="prison_statistic" target="_top">
<polygon fill="#ffffff" stroke="transparent" points="233,-334.2 233,-483.2 529,-483.2 529,-334.2 233,-334.2"/>
<polygon fill="#f5f5f5" stroke="transparent" points="233,-459.7 233,-482.7 529,-482.7 529,-459.7 233,-459.7"/>
<polygon fill="none" stroke="#000000" points="233,-459.7 233,-482.7 529,-482.7 529,-459.7 233,-459.7"/>
<text text-anchor="start" x="238" y="-468.3" font-family="Helvetica,sans-Serif" font-weight="bold" font-size="11.00" fill="#000000">prison_statistic</text>
<text text-anchor="start" x="494.0437" y="-467.8" font-family="Helvetica,sans-Serif" font-size="11.00" fill="#000000">[table]</text>
<polygon fill="none" stroke="#000000" points="233,-437.7 233,-459.7 529,-459.7 529,-437.7 233,-437.7"/>
<image xlink:href="../../images/primaryKeys.png" width="11px" height="12px" preserveAspectRatio="xMinYMin meet" x="238" y="-454.7"/>
<text text-anchor="start" x="253" y="-444.8" font-family="Helvetica,sans-Serif" font-size="11.00" fill="#000000">id</text>
<polygon fill="#ffffff" stroke="transparent" points="233,-415.7 233,-437.7 529,-437.7 529,-415.7 233,-415.7"/>
<polygon fill="none" stroke="#000000" points="233,-415.7 233,-437.7 529,-437.7 529,-415.7 233,-415.7"/>
<image xlink:href="../../images/foreignKeys.png" width="11px" height="12px" preserveAspectRatio="xMinYMin meet" x="238" y="-432.7"/>
<text text-anchor="start" x="253" y="-422.8" font-family="Helvetica,sans-Serif" font-size="11.00" fill="#000000">prison_code</text>
<polygon fill="#ffffff" stroke="transparent" points="233,-393.7 233,-415.7 529,-415.7 529,-393.7 233,-393.7"/>
<polygon fill="none" stroke="#000000" points="233,-393.7 233,-415.7 529,-415.7 529,-393.7 233,-393.7"/>
<text text-anchor="start" x="253" y="-400.8" font-family="Helvetica,sans-Serif" font-size="11.00" fill="#000000">statistic_date</text>
<polygon fill="none" stroke="#000000" points="233,-371.7 233,-393.7 529,-393.7 529,-371.7 233,-371.7"/>
<image xlink:href="../../images/foreignKeys.png" width="11px" height="12px" preserveAspectRatio="xMinYMin meet" x="238" y="-388.7"/>
<text text-anchor="start" x="253" y="-378.8" font-family="Helvetica,sans-Serif" font-size="11.00" fill="#000000">policy_code</text>
<polygon fill="none" stroke="#000000" points="233,-352.7 233,-371.7 529,-371.7 529,-352.7 233,-352.7"/>
<text text-anchor="start" x="236" y="-358.8" font-family="Helvetica,sans-Serif" font-size="11.00" fill="#000000">...</text>
<polygon fill="#ffffff" stroke="transparent" points="233,-333.7 233,-352.7 379,-352.7 379,-333.7 233,-333.7"/>
<polygon fill="none" stroke="#000000" points="233,-333.7 233,-352.7 379,-352.7 379,-333.7 233,-333.7"/>
<text text-anchor="start" x="236" y="-339.8" font-family="Helvetica,sans-Serif" font-size="11.00" fill="#000000">&lt; 1</text>
<polygon fill="#ffffff" stroke="transparent" points="379,-333.7 379,-352.7 454,-352.7 454,-333.7 379,-333.7"/>
<polygon fill="none" stroke="#000000" points="379,-333.7 379,-352.7 454,-352.7 454,-333.7 379,-333.7"/>
<text text-anchor="start" x="444.8862" y="-339.8" font-family="Helvetica,sans-Serif" font-size="11.00" fill="#000000"> &#160;</text>
<polygon fill="#ffffff" stroke="transparent" points="454,-333.7 454,-352.7 529,-352.7 529,-333.7 454,-333.7"/>
<polygon fill="none" stroke="#000000" points="454,-333.7 454,-352.7 529,-352.7 529,-333.7 454,-333.7"/>
<text text-anchor="start" x="519.8862" y="-339.8" font-family="Helvetica,sans-Serif" font-size="11.00" fill="#000000"> &#160;</text>
</a>
</g>
</g>
<!-- prison_statistic&#45;&gt;policy -->
<g id="edge5" class="edge">
<title>prison_statistic:w&#45;&gt;policy:e</title>
<path fill="none" stroke="#000000" d="M218.6067,-384.8563C157.8558,-405.95 257.6919,-574.7 174,-574.7"/>
<polygon fill="#000000" stroke="#000000" points="225.0883,-383.8853 233.5334,-386.2603 229.0441,-383.2926 233,-382.7 233,-382.7 233,-382.7 229.0441,-383.2926 232.4666,-379.1397 225.0883,-383.8853 225.0883,-383.8853"/>
<ellipse fill="none" stroke="#000000" cx="221.9236" cy="-384.3594" rx="3.2" ry="3.2"/>
</g>
<!-- recorded_event -->
<g id="node6" class="node">
<title>recorded_event</title>
<g id="a_node6"><a xlink:href="../../tables/recorded_event.html" xlink:title="recorded_event" target="_top">
<polygon fill="#ffffff" stroke="transparent" points="309,-800.2 309,-971.2 453,-971.2 453,-800.2 309,-800.2"/>
<polygon fill="#f5f5f5" stroke="transparent" points="309,-947.7 309,-970.7 453,-970.7 453,-947.7 309,-947.7"/>
<polygon fill="none" stroke="#000000" points="309,-947.7 309,-970.7 453,-970.7 453,-947.7 309,-947.7"/>
<text text-anchor="start" x="314" y="-956.3" font-family="Helvetica,sans-Serif" font-weight="bold" font-size="11.00" fill="#000000">recorded_event</text>
<text text-anchor="start" x="418.5219" y="-955.8" font-family="Helvetica,sans-Serif" font-size="11.00" fill="#000000">[table]</text>
<polygon fill="none" stroke="#000000" points="309,-925.7 309,-947.7 453,-947.7 453,-925.7 309,-925.7"/>
<image xlink:href="../../images/primaryKeys.png" width="11px" height="12px" preserveAspectRatio="xMinYMin meet" x="314" y="-942.7"/>
<text text-anchor="start" x="333" y="-932.8" font-family="Helvetica,sans-Serif" font-size="11.00" fill="#000000">id</text>
<polygon fill="none" stroke="#000000" points="309,-903.7 309,-925.7 453,-925.7 453,-903.7 309,-903.7"/>
<image xlink:href="../../images/foreignKeys.png" width="11px" height="12px" preserveAspectRatio="xMinYMin meet" x="314" y="-920.7"/>
<text text-anchor="start" x="333" y="-910.8" font-family="Helvetica,sans-Serif" font-size="11.00" fill="#000000">prison_code</text>
<polygon fill="#ffffff" stroke="transparent" points="309,-881.7 309,-903.7 453,-903.7 453,-881.7 309,-881.7"/>
<polygon fill="none" stroke="#000000" points="309,-881.7 309,-903.7 453,-903.7 453,-881.7 309,-881.7"/>
<text text-anchor="start" x="333" y="-888.8" font-family="Helvetica,sans-Serif" font-size="11.00" fill="#000000">person_identifier</text>
<polygon fill="none" stroke="#000000" points="309,-859.7 309,-881.7 453,-881.7 453,-859.7 309,-859.7"/>
<image xlink:href="../../images/foreignKeys.png" width="11px" height="12px" preserveAspectRatio="xMinYMin meet" x="314" y="-876.7"/>
<text text-anchor="start" x="333" y="-866.8" font-family="Helvetica,sans-Serif" font-size="11.00" fill="#000000">policy_code</text>
<polygon fill="#ffffff" stroke="transparent" points="309,-837.7 309,-859.7 453,-859.7 453,-837.7 309,-837.7"/>
<polygon fill="none" stroke="#000000" points="309,-837.7 309,-859.7 453,-859.7 453,-837.7 309,-837.7"/>
<image xlink:href="../../images/foreignKeys.png" width="11px" height="12px" preserveAspectRatio="xMinYMin meet" x="314" y="-854.7"/>
<text text-anchor="start" x="333" y="-844.8" font-family="Helvetica,sans-Serif" font-size="11.00" fill="#000000">type_id</text>
<polygon fill="none" stroke="#000000" points="309,-818.7 309,-837.7 453,-837.7 453,-818.7 309,-818.7"/>
<text text-anchor="start" x="312" y="-824.8" font-family="Helvetica,sans-Serif" font-size="11.00" fill="#000000">...</text>
<polygon fill="#ffffff" stroke="transparent" points="309,-799.7 309,-818.7 379,-818.7 379,-799.7 309,-799.7"/>
<polygon fill="none" stroke="#000000" points="309,-799.7 309,-818.7 379,-818.7 379,-799.7 309,-799.7"/>
<text text-anchor="start" x="312" y="-805.8" font-family="Helvetica,sans-Serif" font-size="11.00" fill="#000000">&lt; 2</text>
<polygon fill="#ffffff" stroke="transparent" points="379,-799.7 379,-818.7 416,-818.7 416,-799.7 379,-799.7"/>
<polygon fill="none" stroke="#000000" points="379,-799.7 379,-818.7 416,-818.7 416,-799.7 379,-799.7"/>
<text text-anchor="start" x="406.8862" y="-805.8" font-family="Helvetica,sans-Serif" font-size="11.00" fill="#000000"> &#160;</text>
<polygon fill="#ffffff" stroke="transparent" points="416,-799.7 416,-818.7 453,-818.7 453,-799.7 416,-799.7"/>
<polygon fill="none" stroke="#000000" points="416,-799.7 416,-818.7 453,-818.7 453,-799.7 416,-799.7"/>
<text text-anchor="start" x="443.8862" y="-805.8" font-family="Helvetica,sans-Serif" font-size="11.00" fill="#000000"> &#160;</text>
</a>
</g>
</g>
<!-- recorded_event&#45;&gt;reference_data -->
<g id="edge7" class="edge">
<title>recorded_event:w&#45;&gt;reference_data:e</title>
<path fill="none" stroke="#000000" d="M294.538,-848.7C240.8155,-848.7 222.2292,-848.7 162,-848.7"/>
<polygon fill="#000000" stroke="#000000" points="301,-848.7001 309,-852.3 305,-848.7 309,-848.7 309,-848.7 309,-848.7 305,-848.7 309,-845.1 301,-848.7001 301,-848.7001"/>
<ellipse fill="none" stroke="#000000" cx="297.8" cy="-848.7001" rx="3.2" ry="3.2"/>
</g>
<!-- recorded_event&#45;&gt;policy -->
<g id="edge6" class="edge">
<title>recorded_event:w&#45;&gt;policy:e</title>
<path fill="none" stroke="#000000" d="M294.519,-869.789C252.3944,-864.1064 241.613,-832.3756 217,-789.7 192.6571,-747.4928 222.724,-574.7 174,-574.7"/>
<polygon fill="#000000" stroke="#000000" points="301.0158,-870.1976 308.7739,-874.2929 305.0079,-870.4488 309,-870.7 309,-870.7 309,-870.7 305.0079,-870.4488 309.2261,-867.1071 301.0158,-870.1976 301.0158,-870.1976"/>
<ellipse fill="none" stroke="#000000" cx="297.8221" cy="-869.9967" rx="3.2" ry="3.2"/>
</g>
<!-- recorded_event_audit -->
<g id="node7" class="node">
<title>recorded_event_audit</title>
<g id="a_node7"><a xlink:href="../../tables/recorded_event_audit.html" xlink:title="recorded_event_audit" target="_top">
<polygon fill="#ffffff" stroke="transparent" points="288.5,-38.2 288.5,-165.2 473.5,-165.2 473.5,-38.2 288.5,-38.2"/>
<polygon fill="#f5f5f5" stroke="transparent" points="289,-141.7 289,-164.7 474,-164.7 474,-141.7 289,-141.7"/>
<polygon fill="none" stroke="#000000" points="289,-141.7 289,-164.7 474,-164.7 474,-141.7 289,-141.7"/>
<text text-anchor="start" x="294" y="-150.3" font-family="Helvetica,sans-Serif" font-weight="bold" font-size="11.00" fill="#000000">recorded_event_audit</text>
<text text-anchor="start" x="439.5219" y="-149.8" font-family="Helvetica,sans-Serif" font-size="11.00" fill="#000000">[table]</text>
<polygon fill="none" stroke="#000000" points="289,-119.7 289,-141.7 474,-141.7 474,-119.7 289,-119.7"/>
<image xlink:href="../../images/foreignKeys.png" width="11px" height="12px" preserveAspectRatio="xMinYMin meet" x="294" y="-136.7"/>
<text text-anchor="start" x="318" y="-126.8" font-family="Helvetica,sans-Serif" font-size="11.00" fill="#000000">rev_id</text>
<polygon fill="none" stroke="#000000" points="289,-97.7 289,-119.7 474,-119.7 474,-97.7 289,-97.7"/>
<image xlink:href="../../images/foreignKeys.png" width="11px" height="12px" preserveAspectRatio="xMinYMin meet" x="294" y="-114.7"/>
<text text-anchor="start" x="318" y="-104.8" font-family="Helvetica,sans-Serif" font-size="11.00" fill="#000000">prison_code</text>
<polygon fill="none" stroke="#000000" points="289,-75.7 289,-97.7 474,-97.7 474,-75.7 289,-75.7"/>
<image xlink:href="../../images/foreignKeys.png" width="11px" height="12px" preserveAspectRatio="xMinYMin meet" x="294" y="-92.7"/>
<text text-anchor="start" x="318" y="-82.8" font-family="Helvetica,sans-Serif" font-size="11.00" fill="#000000">policy_code</text>
<polygon fill="none" stroke="#000000" points="289,-56.7 289,-75.7 474,-75.7 474,-56.7 289,-56.7"/>
<text text-anchor="start" x="292" y="-62.8" font-family="Helvetica,sans-Serif" font-size="11.00" fill="#000000">...</text>
<polygon fill="#ffffff" stroke="transparent" points="289,-37.7 289,-56.7 380,-56.7 380,-37.7 289,-37.7"/>
<polygon fill="none" stroke="#000000" points="289,-37.7 289,-56.7 380,-56.7 380,-37.7 289,-37.7"/>
<text text-anchor="start" x="292" y="-43.8" font-family="Helvetica,sans-Serif" font-size="11.00" fill="#000000">&lt; 2</text>
<polygon fill="#ffffff" stroke="transparent" points="380,-37.7 380,-56.7 427,-56.7 427,-37.7 380,-37.7"/>
<polygon fill="none" stroke="#000000" points="380,-37.7 380,-56.7 427,-56.7 427,-37.7 380,-37.7"/>
<text text-anchor="start" x="417.8862" y="-43.8" font-family="Helvetica,sans-Serif" font-size="11.00" fill="#000000"> &#160;</text>
<polygon fill="#ffffff" stroke="transparent" points="427,-37.7 427,-56.7 474,-56.7 474,-37.7 427,-37.7"/>
<polygon fill="none" stroke="#000000" points="427,-37.7 427,-56.7 474,-56.7 474,-37.7 427,-37.7"/>
<text text-anchor="start" x="464.8862" y="-43.8" font-family="Helvetica,sans-Serif" font-size="11.00" fill="#000000"> &#160;</text>
</a>
</g>
</g>
<!-- recorded_event_audit&#45;&gt;policy -->
<g id="edge8" class="edge">
<title>recorded_event_audit:w&#45;&gt;policy:e</title>
<path fill="none" stroke="#000000" d="M274.4673,-88.0586C237.5844,-95.6179 234.4622,-133.6706 217,-175.7 199.8918,-216.8774 218.59,-574.7 174,-574.7"/>
<polygon fill="#000000" stroke="#000000" points="281.0347,-87.4447 289.3351,-90.2844 285.0174,-87.0724 289,-86.7 289,-86.7 289,-86.7 285.0174,-87.0724 288.6649,-83.1156 281.0347,-87.4447 281.0347,-87.4447"/>
<ellipse fill="none" stroke="#000000" cx="277.8486" cy="-87.7426" rx="3.2" ry="3.2"/>
</g>
<!-- audit_revision -->
<g id="node8" class="node">
<title>audit_revision</title>
<g id="a_node8"><a xlink:href="../../tables/audit_revision.html" xlink:title="audit_revision" target="_top">
<polygon fill="#ffffff" stroke="transparent" points="25,-103.2 25,-164.2 159,-164.2 159,-103.2 25,-103.2"/>
<polygon fill="#f5f5f5" stroke="transparent" points="25,-140.7 25,-163.7 159,-163.7 159,-140.7 25,-140.7"/>
<polygon fill="none" stroke="#000000" points="25,-140.7 25,-163.7 159,-163.7 159,-140.7 25,-140.7"/>
<text text-anchor="start" x="30" y="-149.3" font-family="Helvetica,sans-Serif" font-weight="bold" font-size="11.00" fill="#000000">audit_revision</text>
<text text-anchor="start" x="124.5219" y="-148.8" font-family="Helvetica,sans-Serif" font-size="11.00" fill="#000000">[table]</text>
<polygon fill="none" stroke="#000000" points="25,-121.7 25,-140.7 159,-140.7 159,-121.7 25,-121.7"/>
<text text-anchor="start" x="28" y="-127.8" font-family="Helvetica,sans-Serif" font-size="11.00" fill="#000000">...</text>
<polygon fill="#ffffff" stroke="transparent" points="25,-102.7 25,-121.7 81,-121.7 81,-102.7 25,-102.7"/>
<polygon fill="none" stroke="#000000" points="25,-102.7 25,-121.7 81,-121.7 81,-102.7 25,-102.7"/>
<text text-anchor="start" x="28" y="-108.8" font-family="Helvetica,sans-Serif" font-size="11.00" fill="#000000"> &#160;</text>
<polygon fill="#ffffff" stroke="transparent" points="81,-102.7 81,-121.7 115,-121.7 115,-102.7 81,-102.7"/>
<polygon fill="none" stroke="#000000" points="81,-102.7 81,-121.7 115,-121.7 115,-102.7 81,-102.7"/>
<text text-anchor="start" x="105.8862" y="-108.8" font-family="Helvetica,sans-Serif" font-size="11.00" fill="#000000"> &#160;</text>
<polygon fill="#ffffff" stroke="transparent" points="115,-102.7 115,-121.7 159,-121.7 159,-102.7 115,-102.7"/>
<polygon fill="none" stroke="#000000" points="115,-102.7 115,-121.7 159,-121.7 159,-102.7 115,-102.7"/>
<text text-anchor="start" x="140.4053" y="-108.8" font-family="Helvetica,sans-Serif" font-size="11.00" fill="#000000">5 &gt;</text>
</a>
</g>
</g>
<!-- recorded_event_audit&#45;&gt;audit_revision -->
<g id="edge9" class="edge">
<title>recorded_event_audit:w&#45;&gt;audit_revision:e</title>
<path fill="none" stroke="#000000" d="M274.4136,-130.7C228.277,-130.7 211.5868,-130.7 159,-130.7"/>
<polygon fill="#000000" stroke="#000000" points="281,-130.7001 289,-134.3 285,-130.7 289,-130.7 289,-130.7 289,-130.7 285,-130.7 289,-127.1 281,-130.7001 281,-130.7001"/>
<ellipse fill="none" stroke="#000000" cx="277.8" cy="-130.7001" rx="3.2" ry="3.2"/>
</g>
<!-- reference_data_policy -->
<g id="node9" class="node">
<title>reference_data_policy</title>
<g id="a_node9"><a xlink:href="../../tables/reference_data_policy.html" xlink:title="reference_data_policy" target="_top">
<polygon fill="#ffffff" stroke="transparent" points="288,-674.2 288,-779.2 474,-779.2 474,-674.2 288,-674.2"/>
<polygon fill="#f5f5f5" stroke="transparent" points="288,-755.7 288,-778.7 474,-778.7 474,-755.7 288,-755.7"/>
<polygon fill="none" stroke="#000000" points="288,-755.7 288,-778.7 474,-778.7 474,-755.7 288,-755.7"/>
<text text-anchor="start" x="293" y="-764.3" font-family="Helvetica,sans-Serif" font-weight="bold" font-size="11.00" fill="#000000">reference_data_policy</text>
<text text-anchor="start" x="439.5219" y="-763.8" font-family="Helvetica,sans-Serif" font-size="11.00" fill="#000000">[table]</text>
<polygon fill="#ffffff" stroke="transparent" points="288,-733.7 288,-755.7 474,-755.7 474,-733.7 288,-733.7"/>
<polygon fill="none" stroke="#000000" points="288,-733.7 288,-755.7 474,-755.7 474,-733.7 288,-733.7"/>
<image xlink:href="../../images/foreignKeys.png" width="11px" height="12px" preserveAspectRatio="xMinYMin meet" x="293" y="-750.7"/>
<text text-anchor="start" x="317" y="-740.8" font-family="Helvetica,sans-Serif" font-size="11.00" fill="#000000">id</text>
<polygon fill="#ffffff" stroke="transparent" points="288,-711.7 288,-733.7 474,-733.7 474,-711.7 288,-711.7"/>
<polygon fill="none" stroke="#000000" points="288,-711.7 288,-733.7 474,-733.7 474,-711.7 288,-711.7"/>
<image xlink:href="../../images/foreignKeys.png" width="11px" height="12px" preserveAspectRatio="xMinYMin meet" x="293" y="-728.7"/>
<text text-anchor="start" x="317" y="-718.8" font-family="Helvetica,sans-Serif" font-size="11.00" fill="#000000">policy_code</text>
<polygon fill="none" stroke="#000000" points="288,-692.7 288,-711.7 474,-711.7 474,-692.7 288,-692.7"/>
<text text-anchor="start" x="291" y="-698.8" font-family="Helvetica,sans-Serif" font-size="11.00" fill="#000000">...</text>
<polygon fill="#ffffff" stroke="transparent" points="288,-673.7 288,-692.7 379,-692.7 379,-673.7 288,-673.7"/>
<polygon fill="none" stroke="#000000" points="288,-673.7 288,-692.7 379,-692.7 379,-673.7 288,-673.7"/>
<text text-anchor="start" x="291" y="-679.8" font-family="Helvetica,sans-Serif" font-size="11.00" fill="#000000">&lt; 2</text>
<polygon fill="#ffffff" stroke="transparent" points="379,-673.7 379,-692.7 426,-692.7 426,-673.7 379,-673.7"/>
<polygon fill="none" stroke="#000000" points="379,-673.7 379,-692.7 426,-692.7 426,-673.7 379,-673.7"/>
<text text-anchor="start" x="416.8862" y="-679.8" font-family="Helvetica,sans-Serif" font-size="11.00" fill="#000000"> &#160;</text>
<polygon fill="#ffffff" stroke="transparent" points="426,-673.7 426,-692.7 474,-692.7 474,-673.7 426,-673.7"/>
<polygon fill="none" stroke="#000000" points="426,-673.7 426,-692.7 474,-692.7 474,-673.7 426,-673.7"/>
<text text-anchor="start" x="464.8862" y="-679.8" font-family="Helvetica,sans-Serif" font-size="11.00" fill="#000000"> &#160;</text>
</a>
</g>
</g>
<!-- reference_data_policy&#45;&gt;reference_data -->
<g id="edge10" class="edge">
<title>reference_data_policy:w&#45;&gt;reference_data:e</title>
<path fill="none" stroke="#000000" d="M273.3252,-746.0372C248.6626,-751.0363 241.482,-769.3832 217,-789.7 189.4132,-812.5933 197.8488,-848.7 162,-848.7"/>
<polygon fill="#000000" stroke="#000000" points="280.033,-745.426 288.3267,-748.2851 284.0165,-745.063 288,-744.7 288,-744.7 288,-744.7 284.0165,-745.063 287.6733,-741.1149 280.033,-745.426 280.033,-745.426"/>
<ellipse fill="none" stroke="#000000" cx="276.8462" cy="-745.7165" rx="3.2" ry="3.2"/>
</g>
<!-- reference_data_policy&#45;&gt;policy -->
<g id="edge11" class="edge">
<title>reference_data_policy:w&#45;&gt;policy:e</title>
<path fill="none" stroke="#000000" d="M273.442,-721.3373C245.3613,-715.5131 238.92,-691.7254 217,-663.7 189.9353,-629.0969 217.9304,-574.7 174,-574.7"/>
<polygon fill="#000000" stroke="#000000" points="280.0348,-721.9544 287.6645,-726.2843 284.0174,-722.3272 288,-722.7 288,-722.7 288,-722.7 284.0174,-722.3272 288.3355,-719.1157 280.0348,-721.9544 280.0348,-721.9544"/>
<ellipse fill="none" stroke="#000000" cx="276.8487" cy="-721.6562" rx="3.2" ry="3.2"/>
</g>
<!-- staff_configuration -->
<g id="node10" class="node">
<title>staff_configuration</title>
<g id="a_node10"><a xlink:href="../../tables/staff_configuration.html" xlink:title="staff_configuration" target="_top">
<polygon fill="#ffffff" stroke="transparent" points="297.5,-504.2 297.5,-653.2 464.5,-653.2 464.5,-504.2 297.5,-504.2"/>
<polygon fill="#f5f5f5" stroke="transparent" points="298,-629.7 298,-652.7 465,-652.7 465,-629.7 298,-629.7"/>
<polygon fill="none" stroke="#000000" points="298,-629.7 298,-652.7 465,-652.7 465,-629.7 298,-629.7"/>
<text text-anchor="start" x="303" y="-638.3" font-family="Helvetica,sans-Serif" font-weight="bold" font-size="11.00" fill="#000000">staff_configuration</text>
<text text-anchor="start" x="430.5219" y="-637.8" font-family="Helvetica,sans-Serif" font-size="11.00" fill="#000000">[table]</text>
<polygon fill="#ffffff" stroke="transparent" points="298,-607.7 298,-629.7 465,-629.7 465,-607.7 298,-607.7"/>
<polygon fill="none" stroke="#000000" points="298,-607.7 298,-629.7 465,-629.7 465,-607.7 298,-607.7"/>
<text text-anchor="start" x="319" y="-614.8" font-family="Helvetica,sans-Serif" font-size="11.00" fill="#000000">staff_id</text>
<polygon fill="none" stroke="#000000" points="298,-585.7 298,-607.7 465,-607.7 465,-585.7 298,-585.7"/>
<image xlink:href="../../images/foreignKeys.png" width="11px" height="12px" preserveAspectRatio="xMinYMin meet" x="303" y="-602.7"/>
<text text-anchor="start" x="319" y="-592.8" font-family="Helvetica,sans-Serif" font-size="11.00" fill="#000000">status_id</text>
<polygon fill="#ffffff" stroke="transparent" points="298,-563.7 298,-585.7 465,-585.7 465,-563.7 298,-563.7"/>
<polygon fill="none" stroke="#000000" points="298,-563.7 298,-585.7 465,-585.7 465,-563.7 298,-563.7"/>
<image xlink:href="../../images/foreignKeys.png" width="11px" height="12px" preserveAspectRatio="xMinYMin meet" x="303" y="-580.7"/>
<text text-anchor="start" x="319" y="-570.8" font-family="Helvetica,sans-Serif" font-size="11.00" fill="#000000">policy_code</text>
<polygon fill="none" stroke="#000000" points="298,-541.7 298,-563.7 465,-563.7 465,-541.7 298,-541.7"/>
<image xlink:href="../../images/primaryKeys.png" width="11px" height="12px" preserveAspectRatio="xMinYMin meet" x="303" y="-558.7"/>
<text text-anchor="start" x="319" y="-548.8" font-family="Helvetica,sans-Serif" font-size="11.00" fill="#000000">id</text>
<polygon fill="none" stroke="#000000" points="298,-522.7 298,-541.7 465,-541.7 465,-522.7 298,-522.7"/>
<text text-anchor="start" x="301" y="-528.8" font-family="Helvetica,sans-Serif" font-size="11.00" fill="#000000">...</text>
<polygon fill="#ffffff" stroke="transparent" points="298,-503.7 298,-522.7 380,-522.7 380,-503.7 298,-503.7"/>
<polygon fill="none" stroke="#000000" points="298,-503.7 298,-522.7 380,-522.7 380,-503.7 298,-503.7"/>
<text text-anchor="start" x="301" y="-509.8" font-family="Helvetica,sans-Serif" font-size="11.00" fill="#000000">&lt; 2</text>
<polygon fill="#ffffff" stroke="transparent" points="380,-503.7 380,-522.7 422,-522.7 422,-503.7 380,-503.7"/>
<polygon fill="none" stroke="#000000" points="380,-503.7 380,-522.7 422,-522.7 422,-503.7 380,-503.7"/>
<text text-anchor="start" x="412.8862" y="-509.8" font-family="Helvetica,sans-Serif" font-size="11.00" fill="#000000"> &#160;</text>
<polygon fill="#ffffff" stroke="transparent" points="422,-503.7 422,-522.7 465,-522.7 465,-503.7 422,-503.7"/>
<polygon fill="none" stroke="#000000" points="422,-503.7 422,-522.7 465,-522.7 465,-503.7 422,-503.7"/>
<text text-anchor="start" x="455.8862" y="-509.8" font-family="Helvetica,sans-Serif" font-size="11.00" fill="#000000"> &#160;</text>
</a>
</g>
</g>
<!-- staff_configuration&#45;&gt;reference_data -->
<g id="edge13" class="edge">
<title>staff_configuration:w&#45;&gt;reference_data:e</title>
<path fill="none" stroke="#000000" d="M283.5131,-597.7543C249.1314,-603.1914 239.8533,-629.1467 217,-663.7 169.6799,-735.246 247.7789,-848.7 162,-848.7"/>
<polygon fill="#000000" stroke="#000000" points="290.0211,-597.2807 298.2613,-600.2905 294.0106,-596.9904 298,-596.7 298,-596.7 298,-596.7 294.0106,-596.9904 297.7387,-593.1095 290.0211,-597.2807 290.0211,-597.2807"/>
<ellipse fill="none" stroke="#000000" cx="286.8295" cy="-597.513" rx="3.2" ry="3.2"/>
</g>
<!-- staff_configuration&#45;&gt;policy -->
<g id="edge12" class="edge">
<title>staff_configuration:w&#45;&gt;policy:e</title>
<path fill="none" stroke="#000000" d="M283.5217,-574.7C239.9423,-574.7 223.9444,-574.7 174,-574.7"/>
<polygon fill="#000000" stroke="#000000" points="290,-574.7001 298,-578.3 294,-574.7 298,-574.7 298,-574.7 298,-574.7 294,-574.7 298,-571.1 290,-574.7001 290,-574.7001"/>
<ellipse fill="none" stroke="#000000" cx="286.8" cy="-574.7001" rx="3.2" ry="3.2"/>
</g>
</g>
</svg>
