<?xml version="1.0" encoding="UTF-8" standalone="no"?>
<!DOCTYPE svg PUBLIC "-//W3C//DTD SVG 1.1//EN"
 "http://www.w3.org/Graphics/SVG/1.1/DTD/svg11.dtd">
<!-- Generated by graphviz version 2.40.1 (20161225.0304)
 -->
<!-- Title: twoDegreesRelationshipsDiagram Pages: 1 -->
<svg width="553pt" height="883pt"
 viewBox="0.00 0.00 553.00 883.20" xmlns="http://www.w3.org/2000/svg" xmlns:xlink="http://www.w3.org/1999/xlink">
<g id="graph0" class="graph" transform="scale(1 1) rotate(0) translate(4 879.2)">
<title>twoDegreesRelationshipsDiagram</title>
<polygon fill="#ffffff" stroke="transparent" points="-4,4 -4,-879.2 549,-879.2 549,4 -4,4"/>
<text text-anchor="middle" x="72.4936" y="-7.3" font-family="Helvetica,sans-Serif" font-size="11.00" fill="#000000">Generated by SchemaSpy</text>
<!-- allocation -->
<g id="node1" class="node">
<title>allocation</title>
<g id="a_node1"><a xlink:href="../../tables/allocation.html" xlink:title="allocation" target="_top">
<polygon fill="#ffffff" stroke="transparent" points="294,-634.2 294,-871.2 468,-871.2 468,-634.2 294,-634.2"/>
<polygon fill="#f5f5f5" stroke="transparent" points="294,-847.7 294,-870.7 468,-870.7 468,-847.7 294,-847.7"/>
<polygon fill="none" stroke="#000000" points="294,-847.7 294,-870.7 468,-870.7 468,-847.7 294,-847.7"/>
<text text-anchor="start" x="299" y="-856.3" font-family="Helvetica,sans-Serif" font-weight="bold" font-size="11.00" fill="#000000">allocation</text>
<text text-anchor="start" x="433.0437" y="-855.8" font-family="Helvetica,sans-Serif" font-size="11.00" fill="#000000">[table]</text>
<polygon fill="none" stroke="#000000" points="294,-825.7 294,-847.7 468,-847.7 468,-825.7 294,-825.7"/>
<image xlink:href="../../images/primaryKeys.png" width="11px" height="12px" preserveAspectRatio="xMinYMin meet" x="299" y="-842.7"/>
<text text-anchor="start" x="314" y="-832.8" font-family="Helvetica,sans-Serif" font-size="11.00" fill="#000000">id</text>
<polygon fill="#ffffff" stroke="transparent" points="294,-803.7 294,-825.7 468,-825.7 468,-803.7 294,-803.7"/>
<polygon fill="none" stroke="#000000" points="294,-803.7 294,-825.7 468,-825.7 468,-803.7 294,-803.7"/>
<image xlink:href="../../images/foreignKeys.png" width="11px" height="12px" preserveAspectRatio="xMinYMin meet" x="299" y="-820.7"/>
<text text-anchor="start" x="314" y="-810.8" font-family="Helvetica,sans-Serif" font-size="11.00" fill="#000000">prison_code</text>
<polygon fill="#ffffff" stroke="transparent" points="294,-781.7 294,-803.7 468,-803.7 468,-781.7 294,-781.7"/>
<polygon fill="none" stroke="#000000" points="294,-781.7 294,-803.7 468,-803.7 468,-781.7 294,-781.7"/>
<text text-anchor="start" x="314" y="-788.8" font-family="Helvetica,sans-Serif" font-size="11.00" fill="#000000">staff_id</text>
<polygon fill="#ffffff" stroke="transparent" points="294,-759.7 294,-781.7 468,-781.7 468,-759.7 294,-759.7"/>
<polygon fill="none" stroke="#000000" points="294,-759.7 294,-781.7 468,-781.7 468,-759.7 294,-759.7"/>
<text text-anchor="start" x="314" y="-766.8" font-family="Helvetica,sans-Serif" font-size="11.00" fill="#000000">person_identifier</text>
<polygon fill="#ffffff" stroke="transparent" points="294,-737.7 294,-759.7 468,-759.7 468,-737.7 294,-737.7"/>
<polygon fill="none" stroke="#000000" points="294,-737.7 294,-759.7 468,-759.7 468,-737.7 294,-737.7"/>
<text text-anchor="start" x="314" y="-744.8" font-family="Helvetica,sans-Serif" font-size="11.00" fill="#000000">allocated_at</text>
<polygon fill="none" stroke="#000000" points="294,-715.7 294,-737.7 468,-737.7 468,-715.7 294,-715.7"/>
<image xlink:href="../../images/foreignKeys.png" width="11px" height="12px" preserveAspectRatio="xMinYMin meet" x="299" y="-732.7"/>
<text text-anchor="start" x="314" y="-722.8" font-family="Helvetica,sans-Serif" font-size="11.00" fill="#000000">allocation_reason_id</text>
<polygon fill="none" stroke="#000000" points="294,-693.7 294,-715.7 468,-715.7 468,-693.7 294,-693.7"/>
<image xlink:href="../../images/foreignKeys.png" width="11px" height="12px" preserveAspectRatio="xMinYMin meet" x="299" y="-710.7"/>
<text text-anchor="start" x="314" y="-700.8" font-family="Helvetica,sans-Serif" font-size="11.00" fill="#000000">deallocation_reason_id</text>
<polygon fill="#ffffff" stroke="transparent" points="294,-671.7 294,-693.7 468,-693.7 468,-671.7 294,-671.7"/>
<polygon fill="none" stroke="#000000" points="294,-671.7 294,-693.7 468,-693.7 468,-671.7 294,-671.7"/>
<image xlink:href="../../images/foreignKeys.png" width="11px" height="12px" preserveAspectRatio="xMinYMin meet" x="299" y="-688.7"/>
<text text-anchor="start" x="314" y="-678.8" font-family="Helvetica,sans-Serif" font-size="11.00" fill="#000000">policy_code</text>
<polygon fill="none" stroke="#000000" points="294,-652.7 294,-671.7 468,-671.7 468,-652.7 294,-652.7"/>
<text text-anchor="start" x="297" y="-658.8" font-family="Helvetica,sans-Serif" font-size="11.00" fill="#000000">...</text>
<polygon fill="#ffffff" stroke="transparent" points="294,-633.7 294,-652.7 379,-652.7 379,-633.7 294,-633.7"/>
<polygon fill="none" stroke="#000000" points="294,-633.7 294,-652.7 379,-652.7 379,-633.7 294,-633.7"/>
<text text-anchor="start" x="297" y="-639.8" font-family="Helvetica,sans-Serif" font-size="11.00" fill="#000000">&lt; 3</text>
<polygon fill="#ffffff" stroke="transparent" points="379,-633.7 379,-652.7 423,-652.7 423,-633.7 379,-633.7"/>
<polygon fill="none" stroke="#000000" points="379,-633.7 379,-652.7 423,-652.7 423,-633.7 379,-633.7"/>
<text text-anchor="start" x="413.8862" y="-639.8" font-family="Helvetica,sans-Serif" font-size="11.00" fill="#000000"> &#160;</text>
<polygon fill="#ffffff" stroke="transparent" points="423,-633.7 423,-652.7 468,-652.7 468,-633.7 423,-633.7"/>
<polygon fill="none" stroke="#000000" points="423,-633.7 423,-652.7 468,-652.7 468,-633.7 423,-633.7"/>
<text text-anchor="start" x="458.8862" y="-639.8" font-family="Helvetica,sans-Serif" font-size="11.00" fill="#000000"> &#160;</text>
</a>
</g>
</g>
<!-- reference_data -->
<g id="node2" class="node">
<title>reference_data</title>
<g id="a_node2"><a xlink:href="../../tables/reference_data.html" xlink:title="reference_data" target="_top">
<polygon fill="#ffffff" stroke="transparent" points="22,-603.2 22,-664.2 162,-664.2 162,-603.2 22,-603.2"/>
<polygon fill="#f5f5f5" stroke="transparent" points="22,-640.7 22,-663.7 162,-663.7 162,-640.7 22,-640.7"/>
<polygon fill="none" stroke="#000000" points="22,-640.7 22,-663.7 162,-663.7 162,-640.7 22,-640.7"/>
<text text-anchor="start" x="27" y="-649.3" font-family="Helvetica,sans-Serif" font-weight="bold" font-size="11.00" fill="#000000">reference_data</text>
<text text-anchor="start" x="127.5219" y="-648.8" font-family="Helvetica,sans-Serif" font-size="11.00" fill="#000000">[table]</text>
<polygon fill="none" stroke="#000000" points="22,-621.7 22,-640.7 162,-640.7 162,-621.7 22,-621.7"/>
<text text-anchor="start" x="25" y="-627.8" font-family="Helvetica,sans-Serif" font-size="11.00" fill="#000000">...</text>
<polygon fill="#ffffff" stroke="transparent" points="22,-602.7 22,-621.7 81,-621.7 81,-602.7 22,-602.7"/>
<polygon fill="none" stroke="#000000" points="22,-602.7 22,-621.7 81,-621.7 81,-602.7 22,-602.7"/>
<text text-anchor="start" x="25" y="-608.8" font-family="Helvetica,sans-Serif" font-size="11.00" fill="#000000"> &#160;</text>
<polygon fill="#ffffff" stroke="transparent" points="81,-602.7 81,-621.7 117,-621.7 117,-602.7 81,-602.7"/>
<polygon fill="none" stroke="#000000" points="81,-602.7 81,-621.7 117,-621.7 117,-602.7 81,-602.7"/>
<text text-anchor="start" x="107.8862" y="-608.8" font-family="Helvetica,sans-Serif" font-size="11.00" fill="#000000"> &#160;</text>
<polygon fill="#ffffff" stroke="transparent" points="117,-602.7 117,-621.7 162,-621.7 162,-602.7 117,-602.7"/>
<polygon fill="none" stroke="#000000" points="117,-602.7 117,-621.7 162,-621.7 162,-602.7 117,-602.7"/>
<text text-anchor="start" x="143.4053" y="-608.8" font-family="Helvetica,sans-Serif" font-size="11.00" fill="#000000">6 &gt;</text>
</a>
</g>
</g>
<!-- allocation&#45;&gt;reference_data -->
<g id="edge1" class="edge">
<title>allocation:w&#45;&gt;reference_data:e</title>
<path fill="none" stroke="#000000" d="M279.5501,-725.2684C222.9025,-713.3263 229.2989,-630.7 162,-630.7"/>
<polygon fill="#000000" stroke="#000000" points="286.039,-725.9112 293.6451,-730.2825 290.0195,-726.3056 294,-726.7 294,-726.7 294,-726.7 290.0195,-726.3056 294.3549,-723.1175 286.039,-725.9112 286.039,-725.9112"/>
<ellipse fill="none" stroke="#000000" cx="282.8546" cy="-725.5957" rx="3.2" ry="3.2"/>
</g>
<!-- allocation&#45;&gt;reference_data -->
<g id="edge2" class="edge">
<title>allocation:w&#45;&gt;reference_data:e</title>
<path fill="none" stroke="#000000" d="M279.4477,-703.4156C226.7102,-693.5892 224.0022,-630.7 162,-630.7"/>
<polygon fill="#000000" stroke="#000000" points="286.031,-703.9966 293.6835,-708.2861 290.0155,-704.3483 294,-704.7 294,-704.7 294,-704.7 290.0155,-704.3483 294.3165,-701.1139 286.031,-703.9966 286.031,-703.9966"/>
<ellipse fill="none" stroke="#000000" cx="282.8434" cy="-703.7152" rx="3.2" ry="3.2"/>
</g>
<!-- policy -->
<g id="node3" class="node">
<title>policy</title>
<g id="a_node3"><a xlink:href="../../tables/policy.html" xlink:title="policy" target="_top">
<polygon fill="#ffffff" stroke="transparent" points="8,-332.7 8,-422.7 176,-422.7 176,-332.7 8,-332.7"/>
<polygon fill="#f5f5f5" stroke="transparent" points="10,-397.7 10,-420.7 174,-420.7 174,-397.7 10,-397.7"/>
<polygon fill="none" stroke="#000000" points="10,-397.7 10,-420.7 174,-420.7 174,-397.7 10,-397.7"/>
<text text-anchor="start" x="15" y="-406.3" font-family="Helvetica,sans-Serif" font-weight="bold" font-size="11.00" fill="#000000">policy</text>
<text text-anchor="start" x="139.0437" y="-405.8" font-family="Helvetica,sans-Serif" font-size="11.00" fill="#000000">[table]</text>
<polygon fill="none" stroke="#000000" points="10,-375.7 10,-397.7 107,-397.7 107,-375.7 10,-375.7"/>
<image xlink:href="../../images/primaryKeys.png" width="11px" height="12px" preserveAspectRatio="xMinYMin meet" x="15" y="-392.7"/>
<text text-anchor="start" x="30" y="-382.8" font-family="Helvetica,sans-Serif" font-size="11.00" fill="#000000">code</text>
<polygon fill="none" stroke="#000000" points="107,-375.7 107,-397.7 174,-397.7 174,-375.7 107,-375.7"/>
<text text-anchor="start" x="110" y="-383.4" font-family="Helvetica,sans-Serif" font-size="11.00" fill="#000000">varchar[16]</text>
<polygon fill="none" stroke="#000000" points="10,-353.7 10,-375.7 107,-375.7 107,-353.7 10,-353.7"/>
<text text-anchor="start" x="30" y="-360.8" font-family="Helvetica,sans-Serif" font-size="11.00" fill="#000000">description</text>
<polygon fill="none" stroke="#000000" points="107,-353.7 107,-375.7 174,-375.7 174,-353.7 107,-353.7"/>
<text text-anchor="start" x="109.9365" y="-361.4" font-family="Helvetica,sans-Serif" font-size="11.00" fill="#000000">varchar[255]</text>
<polygon fill="#ffffff" stroke="transparent" points="10,-334.7 10,-353.7 63,-353.7 63,-334.7 10,-334.7"/>
<polygon fill="none" stroke="#000000" points="10,-334.7 10,-353.7 63,-353.7 63,-334.7 10,-334.7"/>
<text text-anchor="start" x="13" y="-340.8" font-family="Helvetica,sans-Serif" font-size="11.00" fill="#000000">&lt; 0</text>
<polygon fill="#ffffff" stroke="transparent" points="63,-334.7 63,-353.7 107,-353.7 107,-334.7 63,-334.7"/>
<polygon fill="none" stroke="#000000" points="63,-334.7 63,-353.7 107,-353.7 107,-334.7 63,-334.7"/>
<text text-anchor="start" x="97.8862" y="-340.8" font-family="Helvetica,sans-Serif" font-size="11.00" fill="#000000"> &#160;</text>
<polygon fill="#ffffff" stroke="transparent" points="107,-334.7 107,-353.7 174,-353.7 174,-334.7 107,-334.7"/>
<polygon fill="none" stroke="#000000" points="107,-334.7 107,-353.7 174,-353.7 174,-334.7 107,-334.7"/>
<text text-anchor="start" x="155.4053" y="-340.8" font-family="Helvetica,sans-Serif" font-size="11.00" fill="#000000">5 &gt;</text>
<polygon fill="none" stroke="#000000" stroke-width="2" points="9,-333.7 9,-421.7 175,-421.7 175,-333.7 9,-333.7"/>
</a>
</g>
</g>
<!-- allocation&#45;&gt;policy -->
<g id="edge3" class="edge">
<title>allocation:w&#45;&gt;policy:e</title>
<path fill="none" stroke="#000000" d="M279.2348,-681.674C247.8597,-676.9208 236.6612,-655.8956 217,-623.7 189.103,-578.018 227.5265,-386.7 174,-386.7"/>
<polygon fill="#000000" stroke="#000000" points="286.0192,-682.1454 293.7504,-686.2913 290.0096,-682.4227 294,-682.7 294,-682.7 294,-682.7 290.0096,-682.4227 294.2496,-679.1087 286.0192,-682.1454 286.0192,-682.1454"/>
<ellipse fill="none" stroke="#000000" cx="282.8269" cy="-681.9236" rx="3.2" ry="3.2"/>
</g>
<!-- prison_configuration -->
<g id="node4" class="node">
<title>prison_configuration</title>
<g id="a_node4"><a xlink:href="../../tables/prison_configuration.html" xlink:title="prison_configuration" target="_top">
<polygon fill="#ffffff" stroke="transparent" points="225,-38.2 225,-165.2 537,-165.2 537,-38.2 225,-38.2"/>
<polygon fill="#f5f5f5" stroke="transparent" points="225,-141.7 225,-164.7 537,-164.7 537,-141.7 225,-141.7"/>
<polygon fill="none" stroke="#000000" points="225,-141.7 225,-164.7 537,-164.7 537,-141.7 225,-141.7"/>
<text text-anchor="start" x="230" y="-150.3" font-family="Helvetica,sans-Serif" font-weight="bold" font-size="11.00" fill="#000000">prison_configuration</text>
<text text-anchor="start" x="502.0437" y="-149.8" font-family="Helvetica,sans-Serif" font-size="11.00" fill="#000000">[table]</text>
<polygon fill="#ffffff" stroke="transparent" points="225,-119.7 225,-141.7 537,-141.7 537,-119.7 225,-119.7"/>
<polygon fill="none" stroke="#000000" points="225,-119.7 225,-141.7 537,-141.7 537,-119.7 225,-119.7"/>
<image xlink:href="../../images/foreignKeys.png" width="11px" height="12px" preserveAspectRatio="xMinYMin meet" x="230" y="-136.7"/>
<text text-anchor="start" x="245" y="-126.8" font-family="Helvetica,sans-Serif" font-size="11.00" fill="#000000">prison_code</text>
<polygon fill="#ffffff" stroke="transparent" points="225,-97.7 225,-119.7 537,-119.7 537,-97.7 225,-97.7"/>
<polygon fill="none" stroke="#000000" points="225,-97.7 225,-119.7 537,-119.7 537,-97.7 225,-97.7"/>
<image xlink:href="../../images/foreignKeys.png" width="11px" height="12px" preserveAspectRatio="xMinYMin meet" x="230" y="-114.7"/>
<text text-anchor="start" x="245" y="-104.8" font-family="Helvetica,sans-Serif" font-size="11.00" fill="#000000">policy_code</text>
<polygon fill="none" stroke="#000000" points="225,-75.7 225,-97.7 537,-97.7 537,-75.7 225,-75.7"/>
<image xlink:href="../../images/primaryKeys.png" width="11px" height="12px" preserveAspectRatio="xMinYMin meet" x="230" y="-92.7"/>
<text text-anchor="start" x="245" y="-82.8" font-family="Helvetica,sans-Serif" font-size="11.00" fill="#000000">id</text>
<polygon fill="none" stroke="#000000" points="225,-56.7 225,-75.7 537,-75.7 537,-56.7 225,-56.7"/>
<text text-anchor="start" x="228" y="-62.8" font-family="Helvetica,sans-Serif" font-size="11.00" fill="#000000">...</text>
<polygon fill="#ffffff" stroke="transparent" points="225,-37.7 225,-56.7 363,-56.7 363,-37.7 225,-37.7"/>
<polygon fill="none" stroke="#000000" points="225,-37.7 225,-56.7 363,-56.7 363,-37.7 225,-37.7"/>
<text text-anchor="start" x="228" y="-43.8" font-family="Helvetica,sans-Serif" font-size="11.00" fill="#000000">&lt; 1</text>
<polygon fill="#ffffff" stroke="transparent" points="363,-37.7 363,-56.7 466,-56.7 466,-37.7 363,-37.7"/>
<polygon fill="none" stroke="#000000" points="363,-37.7 363,-56.7 466,-56.7 466,-37.7 363,-37.7"/>
<text text-anchor="start" x="424.4956" y="-43.8" font-family="Helvetica,sans-Serif" font-size="11.00" fill="#000000">12 rows</text>
<polygon fill="#ffffff" stroke="transparent" points="466,-37.7 466,-56.7 537,-56.7 537,-37.7 466,-37.7"/>
<polygon fill="none" stroke="#000000" points="466,-37.7 466,-56.7 537,-56.7 537,-37.7 466,-37.7"/>
<text text-anchor="start" x="527.8862" y="-43.8" font-family="Helvetica,sans-Serif" font-size="11.00" fill="#000000"> &#160;</text>
</a>
</g>
</g>
<!-- prison_configuration&#45;&gt;policy -->
<g id="edge4" class="edge">
<title>prison_configuration:w&#45;&gt;policy:e</title>
<path fill="none" stroke="#000000" d="M211.6775,-114.5064C174.0012,-154.4281 231.4111,-386.7 174,-386.7"/>
<polygon fill="#000000" stroke="#000000" points="217.6663,-111.8963 226.4383,-112.0002 221.3331,-110.2982 225,-108.7 225,-108.7 225,-108.7 221.3331,-110.2982 223.5617,-105.3998 217.6663,-111.8963 217.6663,-111.8963"/>
<ellipse fill="none" stroke="#000000" cx="214.7328" cy="-113.1749" rx="3.2" ry="3.2"/>
</g>
<!-- prison_statistic -->
<g id="node5" class="node">
<title>prison_statistic</title>
<g id="a_node5"><a xlink:href="../../tables/prison_statistic.html" xlink:title="prison_statistic" target="_top">
<polygon fill="#ffffff" stroke="transparent" points="233,-186.2 233,-335.2 529,-335.2 529,-186.2 233,-186.2"/>
<polygon fill="#f5f5f5" stroke="transparent" points="233,-311.7 233,-334.7 529,-334.7 529,-311.7 233,-311.7"/>
<polygon fill="none" stroke="#000000" points="233,-311.7 233,-334.7 529,-334.7 529,-311.7 233,-311.7"/>
<text text-anchor="start" x="238" y="-320.3" font-family="Helvetica,sans-Serif" font-weight="bold" font-size="11.00" fill="#000000">prison_statistic</text>
<text text-anchor="start" x="494.0437" y="-319.8" font-family="Helvetica,sans-Serif" font-size="11.00" fill="#000000">[table]</text>
<polygon fill="none" stroke="#000000" points="233,-289.7 233,-311.7 529,-311.7 529,-289.7 233,-289.7"/>
<image xlink:href="../../images/primaryKeys.png" width="11px" height="12px" preserveAspectRatio="xMinYMin meet" x="238" y="-306.7"/>
<text text-anchor="start" x="253" y="-296.8" font-family="Helvetica,sans-Serif" font-size="11.00" fill="#000000">id</text>
<polygon fill="#ffffff" stroke="transparent" points="233,-267.7 233,-289.7 529,-289.7 529,-267.7 233,-267.7"/>
<polygon fill="none" stroke="#000000" points="233,-267.7 233,-289.7 529,-289.7 529,-267.7 233,-267.7"/>
<image xlink:href="../../images/foreignKeys.png" width="11px" height="12px" preserveAspectRatio="xMinYMin meet" x="238" y="-284.7"/>
<text text-anchor="start" x="253" y="-274.8" font-family="Helvetica,sans-Serif" font-size="11.00" fill="#000000">prison_code</text>
<polygon fill="#ffffff" stroke="transparent" points="233,-245.7 233,-267.7 529,-267.7 529,-245.7 233,-245.7"/>
<polygon fill="none" stroke="#000000" points="233,-245.7 233,-267.7 529,-267.7 529,-245.7 233,-245.7"/>
<text text-anchor="start" x="253" y="-252.8" font-family="Helvetica,sans-Serif" font-size="11.00" fill="#000000">statistic_date</text>
<polygon fill="none" stroke="#000000" points="233,-223.7 233,-245.7 529,-245.7 529,-223.7 233,-223.7"/>
<image xlink:href="../../images/foreignKeys.png" width="11px" height="12px" preserveAspectRatio="xMinYMin meet" x="238" y="-240.7"/>
<text text-anchor="start" x="253" y="-230.8" font-family="Helvetica,sans-Serif" font-size="11.00" fill="#000000">policy_code</text>
<polygon fill="none" stroke="#000000" points="233,-204.7 233,-223.7 529,-223.7 529,-204.7 233,-204.7"/>
<text text-anchor="start" x="236" y="-210.8" font-family="Helvetica,sans-Serif" font-size="11.00" fill="#000000">...</text>
<polygon fill="#ffffff" stroke="transparent" points="233,-185.7 233,-204.7 379,-204.7 379,-185.7 233,-185.7"/>
<polygon fill="none" stroke="#000000" points="233,-185.7 233,-204.7 379,-204.7 379,-185.7 233,-185.7"/>
<text text-anchor="start" x="236" y="-191.8" font-family="Helvetica,sans-Serif" font-size="11.00" fill="#000000">&lt; 1</text>
<polygon fill="#ffffff" stroke="transparent" points="379,-185.7 379,-204.7 454,-204.7 454,-185.7 379,-185.7"/>
<polygon fill="none" stroke="#000000" points="379,-185.7 379,-204.7 454,-204.7 454,-185.7 379,-185.7"/>
<text text-anchor="start" x="444.8862" y="-191.8" font-family="Helvetica,sans-Serif" font-size="11.00" fill="#000000"> &#160;</text>
<polygon fill="#ffffff" stroke="transparent" points="454,-185.7 454,-204.7 529,-204.7 529,-185.7 454,-185.7"/>
<polygon fill="none" stroke="#000000" points="454,-185.7 454,-204.7 529,-204.7 529,-185.7 454,-185.7"/>
<text text-anchor="start" x="519.8862" y="-191.8" font-family="Helvetica,sans-Serif" font-size="11.00" fill="#000000"> &#160;</text>
</a>
</g>
</g>
<!-- prison_statistic&#45;&gt;policy -->
<g id="edge5" class="edge">
<title>prison_statistic:w&#45;&gt;policy:e</title>
<path fill="none" stroke="#000000" d="M218.765,-237.3382C172.9939,-257.5223 240.8048,-386.7 174,-386.7"/>
<polygon fill="#000000" stroke="#000000" points="225.134,-236.1579 233.6561,-238.2397 229.067,-235.429 233,-234.7 233,-234.7 233,-234.7 229.067,-235.429 232.3439,-231.1603 225.134,-236.1579 225.134,-236.1579"/>
<ellipse fill="none" stroke="#000000" cx="221.9875" cy="-236.7411" rx="3.2" ry="3.2"/>
</g>
<!-- reference_data_policy -->
<g id="node6" class="node">
<title>reference_data_policy</title>
<g id="a_node6"><a xlink:href="../../tables/reference_data_policy.html" xlink:title="reference_data_policy" target="_top">
<polygon fill="#ffffff" stroke="transparent" points="288,-356.7 288,-442.7 474,-442.7 474,-356.7 288,-356.7"/>
<polygon fill="#f5f5f5" stroke="transparent" points="288,-419.7 288,-442.7 474,-442.7 474,-419.7 288,-419.7"/>
<polygon fill="none" stroke="#000000" points="288,-419.7 288,-442.7 474,-442.7 474,-419.7 288,-419.7"/>
<text text-anchor="start" x="293" y="-428.3" font-family="Helvetica,sans-Serif" font-weight="bold" font-size="11.00" fill="#000000">reference_data_policy</text>
<text text-anchor="start" x="439.5219" y="-427.8" font-family="Helvetica,sans-Serif" font-size="11.00" fill="#000000">[table]</text>
<polygon fill="#ffffff" stroke="transparent" points="288,-397.7 288,-419.7 474,-419.7 474,-397.7 288,-397.7"/>
<polygon fill="none" stroke="#000000" points="288,-397.7 288,-419.7 474,-419.7 474,-397.7 288,-397.7"/>
<image xlink:href="../../images/foreignKeys.png" width="11px" height="12px" preserveAspectRatio="xMinYMin meet" x="293" y="-414.7"/>
<text text-anchor="start" x="317" y="-404.8" font-family="Helvetica,sans-Serif" font-size="11.00" fill="#000000">id</text>
<polygon fill="#ffffff" stroke="transparent" points="288,-375.7 288,-397.7 474,-397.7 474,-375.7 288,-375.7"/>
<polygon fill="none" stroke="#000000" points="288,-375.7 288,-397.7 474,-397.7 474,-375.7 288,-375.7"/>
<image xlink:href="../../images/foreignKeys.png" width="11px" height="12px" preserveAspectRatio="xMinYMin meet" x="293" y="-392.7"/>
<text text-anchor="start" x="317" y="-382.8" font-family="Helvetica,sans-Serif" font-size="11.00" fill="#000000">policy_code</text>
<polygon fill="#ffffff" stroke="transparent" points="288,-356.7 288,-375.7 379,-375.7 379,-356.7 288,-356.7"/>
<polygon fill="none" stroke="#000000" points="288,-356.7 288,-375.7 379,-375.7 379,-356.7 288,-356.7"/>
<text text-anchor="start" x="291" y="-362.8" font-family="Helvetica,sans-Serif" font-size="11.00" fill="#000000">&lt; 2</text>
<polygon fill="#ffffff" stroke="transparent" points="379,-356.7 379,-375.7 426,-375.7 426,-356.7 379,-356.7"/>
<polygon fill="none" stroke="#000000" points="379,-356.7 379,-375.7 426,-375.7 426,-356.7 379,-356.7"/>
<text text-anchor="start" x="416.8862" y="-362.8" font-family="Helvetica,sans-Serif" font-size="11.00" fill="#000000"> &#160;</text>
<polygon fill="#ffffff" stroke="transparent" points="426,-356.7 426,-375.7 474,-375.7 474,-356.7 426,-356.7"/>
<polygon fill="none" stroke="#000000" points="426,-356.7 426,-375.7 474,-375.7 474,-356.7 426,-356.7"/>
<text text-anchor="start" x="464.8862" y="-362.8" font-family="Helvetica,sans-Serif" font-size="11.00" fill="#000000"> &#160;</text>
</a>
</g>
</g>
<!-- reference_data_policy&#45;&gt;reference_data -->
<g id="edge6" class="edge">
<title>reference_data_policy:w&#45;&gt;reference_data:e</title>
<path fill="none" stroke="#000000" d="M273.3423,-409.6582C247.2361,-413.4333 236.4329,-428.3265 217,-453.7 166.9118,-519.0999 244.377,-630.7 162,-630.7"/>
<polygon fill="#000000" stroke="#000000" points="280.017,-409.2219 288.2349,-412.2923 284.0085,-408.961 288,-408.7 288,-408.7 288,-408.7 284.0085,-408.961 287.7651,-405.1077 280.017,-409.2219 280.017,-409.2219"/>
<ellipse fill="none" stroke="#000000" cx="276.8239" cy="-409.4307" rx="3.2" ry="3.2"/>
</g>
<!-- reference_data_policy&#45;&gt;policy -->
<g id="edge7" class="edge">
<title>reference_data_policy:w&#45;&gt;policy:e</title>
<path fill="none" stroke="#000000" d="M273.4029,-386.7C234.3037,-386.7 219.4219,-386.7 174,-386.7"/>
<polygon fill="#000000" stroke="#000000" points="280,-386.7001 288,-390.3 284,-386.7 288,-386.7 288,-386.7 288,-386.7 284,-386.7 288,-383.1 280,-386.7001 280,-386.7001"/>
<ellipse fill="none" stroke="#000000" cx="276.8" cy="-386.7001" rx="3.2" ry="3.2"/>
</g>
<!-- staff_configuration -->
<g id="node7" class="node">
<title>staff_configuration</title>
<g id="a_node7"><a xlink:href="../../tables/staff_configuration.html" xlink:title="staff_configuration" target="_top">
<polygon fill="#ffffff" stroke="transparent" points="297.5,-464.2 297.5,-613.2 464.5,-613.2 464.5,-464.2 297.5,-464.2"/>
<polygon fill="#f5f5f5" stroke="transparent" points="298,-589.7 298,-612.7 465,-612.7 465,-589.7 298,-589.7"/>
<polygon fill="none" stroke="#000000" points="298,-589.7 298,-612.7 465,-612.7 465,-589.7 298,-589.7"/>
<text text-anchor="start" x="303" y="-598.3" font-family="Helvetica,sans-Serif" font-weight="bold" font-size="11.00" fill="#000000">staff_configuration</text>
<text text-anchor="start" x="430.5219" y="-597.8" font-family="Helvetica,sans-Serif" font-size="11.00" fill="#000000">[table]</text>
<polygon fill="#ffffff" stroke="transparent" points="298,-567.7 298,-589.7 465,-589.7 465,-567.7 298,-567.7"/>
<polygon fill="none" stroke="#000000" points="298,-567.7 298,-589.7 465,-589.7 465,-567.7 298,-567.7"/>
<text text-anchor="start" x="319" y="-574.8" font-family="Helvetica,sans-Serif" font-size="11.00" fill="#000000">staff_id</text>
<polygon fill="none" stroke="#000000" points="298,-545.7 298,-567.7 465,-567.7 465,-545.7 298,-545.7"/>
<image xlink:href="../../images/foreignKeys.png" width="11px" height="12px" preserveAspectRatio="xMinYMin meet" x="303" y="-562.7"/>
<text text-anchor="start" x="319" y="-552.8" font-family="Helvetica,sans-Serif" font-size="11.00" fill="#000000">status_id</text>
<polygon fill="#ffffff" stroke="transparent" points="298,-523.7 298,-545.7 465,-545.7 465,-523.7 298,-523.7"/>
<polygon fill="none" stroke="#000000" points="298,-523.7 298,-545.7 465,-545.7 465,-523.7 298,-523.7"/>
<image xlink:href="../../images/foreignKeys.png" width="11px" height="12px" preserveAspectRatio="xMinYMin meet" x="303" y="-540.7"/>
<text text-anchor="start" x="319" y="-530.8" font-family="Helvetica,sans-Serif" font-size="11.00" fill="#000000">policy_code</text>
<polygon fill="none" stroke="#000000" points="298,-501.7 298,-523.7 465,-523.7 465,-501.7 298,-501.7"/>
<image xlink:href="../../images/primaryKeys.png" width="11px" height="12px" preserveAspectRatio="xMinYMin meet" x="303" y="-518.7"/>
<text text-anchor="start" x="319" y="-508.8" font-family="Helvetica,sans-Serif" font-size="11.00" fill="#000000">id</text>
<polygon fill="none" stroke="#000000" points="298,-482.7 298,-501.7 465,-501.7 465,-482.7 298,-482.7"/>
<text text-anchor="start" x="301" y="-488.8" font-family="Helvetica,sans-Serif" font-size="11.00" fill="#000000">...</text>
<polygon fill="#ffffff" stroke="transparent" points="298,-463.7 298,-482.7 380,-482.7 380,-463.7 298,-463.7"/>
<polygon fill="none" stroke="#000000" points="298,-463.7 298,-482.7 380,-482.7 380,-463.7 298,-463.7"/>
<text text-anchor="start" x="301" y="-469.8" font-family="Helvetica,sans-Serif" font-size="11.00" fill="#000000">&lt; 2</text>
<polygon fill="#ffffff" stroke="transparent" points="380,-463.7 380,-482.7 422,-482.7 422,-463.7 380,-463.7"/>
<polygon fill="none" stroke="#000000" points="380,-463.7 380,-482.7 422,-482.7 422,-463.7 380,-463.7"/>
<text text-anchor="start" x="412.8862" y="-469.8" font-family="Helvetica,sans-Serif" font-size="11.00" fill="#000000"> &#160;</text>
<polygon fill="#ffffff" stroke="transparent" points="422,-463.7 422,-482.7 465,-482.7 465,-463.7 422,-463.7"/>
<polygon fill="none" stroke="#000000" points="422,-463.7 422,-482.7 465,-482.7 465,-463.7 422,-463.7"/>
<text text-anchor="start" x="455.8862" y="-469.8" font-family="Helvetica,sans-Serif" font-size="11.00" fill="#000000"> &#160;</text>
</a>
</g>
</g>
<!-- staff_configuration&#45;&gt;reference_data -->
<g id="edge9" class="edge">
<title>staff_configuration:w&#45;&gt;reference_data:e</title>
<path fill="none" stroke="#000000" d="M283.439,-557.9227C229.0261,-567.5441 225.5713,-630.7 162,-630.7"/>
<polygon fill="#000000" stroke="#000000" points="290.0281,-557.3694 298.3012,-560.2874 294.014,-557.0347 298,-556.7 298,-556.7 298,-556.7 294.014,-557.0347 297.6988,-553.1126 290.0281,-557.3694 290.0281,-557.3694"/>
<ellipse fill="none" stroke="#000000" cx="286.8393" cy="-557.6372" rx="3.2" ry="3.2"/>
</g>
<!-- staff_configuration&#45;&gt;policy -->
<g id="edge8" class="edge">
<title>staff_configuration:w&#45;&gt;policy:e</title>
<path fill="none" stroke="#000000" d="M283.5502,-533.3707C247.1018,-525.997 245.5653,-489.1698 217,-453.7 194.8068,-426.1426 209.3829,-386.7 174,-386.7"/>
<polygon fill="#000000" stroke="#000000" points="290.0336,-533.9671 297.6702,-538.2849 294.0168,-534.3335 298,-534.7 298,-534.7 298,-534.7 294.0168,-534.3335 298.3298,-531.1151 290.0336,-533.9671 290.0336,-533.9671"/>
<ellipse fill="none" stroke="#000000" cx="286.8471" cy="-533.6739" rx="3.2" ry="3.2"/>
</g>
</g>
</svg>
