<?xml version="1.0" encoding="UTF-8" standalone="no"?>
<!DOCTYPE svg PUBLIC "-//W3C//DTD SVG 1.1//EN"
 "http://www.w3.org/Graphics/SVG/1.1/DTD/svg11.dtd">
<!-- Generated by graphviz version 2.40.1 (20161225.0304)
 -->
<!-- Title: oneDegreeRelationshipsDiagram Pages: 1 -->
<svg width="553pt" height="1329pt"
 viewBox="0.00 0.00 553.00 1329.20" xmlns="http://www.w3.org/2000/svg" xmlns:xlink="http://www.w3.org/1999/xlink">
<g id="graph0" class="graph" transform="scale(1 1) rotate(0) translate(4 1325.2)">
<title>oneDegreeRelationshipsDiagram</title>
<polygon fill="#ffffff" stroke="transparent" points="-4,4 -4,-1325.2 549,-1325.2 549,4 -4,4"/>
<text text-anchor="middle" x="72.4936" y="-7.3" font-family="Helvetica,sans-Serif" font-size="11.00" fill="#000000">Generated by SchemaSpy</text>
<!-- allocation -->
<g id="node1" class="node">
<title>allocation</title>
<g id="a_node1"><a xlink:href="../../tables/allocation.html" xlink:title="allocation" target="_top">
<polygon fill="#ffffff" stroke="transparent" points="294,-1058.2 294,-1317.2 468,-1317.2 468,-1058.2 294,-1058.2"/>
<polygon fill="#f5f5f5" stroke="transparent" points="294,-1293.7 294,-1316.7 468,-1316.7 468,-1293.7 294,-1293.7"/>
<polygon fill="none" stroke="#000000" points="294,-1293.7 294,-1316.7 468,-1316.7 468,-1293.7 294,-1293.7"/>
<text text-anchor="start" x="299" y="-1302.3" font-family="Helvetica,sans-Serif" font-weight="bold" font-size="11.00" fill="#000000">allocation</text>
<text text-anchor="start" x="433.0437" y="-1301.8" font-family="Helvetica,sans-Serif" font-size="11.00" fill="#000000">[table]</text>
<polygon fill="none" stroke="#000000" points="294,-1271.7 294,-1293.7 468,-1293.7 468,-1271.7 294,-1271.7"/>
<image xlink:href="../../images/primaryKeys.png" width="11px" height="12px" preserveAspectRatio="xMinYMin meet" x="299" y="-1288.7"/>
<text text-anchor="start" x="314" y="-1278.8" font-family="Helvetica,sans-Serif" font-size="11.00" fill="#000000">id</text>
<polygon fill="#ffffff" stroke="transparent" points="294,-1249.7 294,-1271.7 468,-1271.7 468,-1249.7 294,-1249.7"/>
<polygon fill="none" stroke="#000000" points="294,-1249.7 294,-1271.7 468,-1271.7 468,-1249.7 294,-1249.7"/>
<image xlink:href="../../images/foreignKeys.png" width="11px" height="12px" preserveAspectRatio="xMinYMin meet" x="299" y="-1266.7"/>
<text text-anchor="start" x="314" y="-1256.8" font-family="Helvetica,sans-Serif" font-size="11.00" fill="#000000">prison_code</text>
<polygon fill="#ffffff" stroke="transparent" points="294,-1227.7 294,-1249.7 468,-1249.7 468,-1227.7 294,-1227.7"/>
<polygon fill="none" stroke="#000000" points="294,-1227.7 294,-1249.7 468,-1249.7 468,-1227.7 294,-1227.7"/>
<text text-anchor="start" x="314" y="-1234.8" font-family="Helvetica,sans-Serif" font-size="11.00" fill="#000000">staff_id</text>
<polygon fill="#ffffff" stroke="transparent" points="294,-1205.7 294,-1227.7 468,-1227.7 468,-1205.7 294,-1205.7"/>
<polygon fill="none" stroke="#000000" points="294,-1205.7 294,-1227.7 468,-1227.7 468,-1205.7 294,-1205.7"/>
<text text-anchor="start" x="314" y="-1212.8" font-family="Helvetica,sans-Serif" font-size="11.00" fill="#000000">person_identifier</text>
<polygon fill="#ffffff" stroke="transparent" points="294,-1183.7 294,-1205.7 468,-1205.7 468,-1183.7 294,-1183.7"/>
<polygon fill="none" stroke="#000000" points="294,-1183.7 294,-1205.7 468,-1205.7 468,-1183.7 294,-1183.7"/>
<text text-anchor="start" x="314" y="-1190.8" font-family="Helvetica,sans-Serif" font-size="11.00" fill="#000000">allocated_at</text>
<polygon fill="none" stroke="#000000" points="294,-1161.7 294,-1183.7 468,-1183.7 468,-1161.7 294,-1161.7"/>
<image xlink:href="../../images/foreignKeys.png" width="11px" height="12px" preserveAspectRatio="xMinYMin meet" x="299" y="-1178.7"/>
<text text-anchor="start" x="314" y="-1168.8" font-family="Helvetica,sans-Serif" font-size="11.00" fill="#000000">allocation_reason_id</text>
<polygon fill="#ffffff" stroke="transparent" points="294,-1139.7 294,-1161.7 468,-1161.7 468,-1139.7 294,-1139.7"/>
<polygon fill="none" stroke="#000000" points="294,-1139.7 294,-1161.7 468,-1161.7 468,-1139.7 294,-1139.7"/>
<text text-anchor="start" x="314" y="-1146.8" font-family="Helvetica,sans-Serif" font-size="11.00" fill="#000000">deallocated_at</text>
<polygon fill="none" stroke="#000000" points="294,-1117.7 294,-1139.7 468,-1139.7 468,-1117.7 294,-1117.7"/>
<image xlink:href="../../images/foreignKeys.png" width="11px" height="12px" preserveAspectRatio="xMinYMin meet" x="299" y="-1134.7"/>
<text text-anchor="start" x="314" y="-1124.8" font-family="Helvetica,sans-Serif" font-size="11.00" fill="#000000">deallocation_reason_id</text>
<polygon fill="#ffffff" stroke="transparent" points="294,-1095.7 294,-1117.7 468,-1117.7 468,-1095.7 294,-1095.7"/>
<polygon fill="none" stroke="#000000" points="294,-1095.7 294,-1117.7 468,-1117.7 468,-1095.7 294,-1095.7"/>
<image xlink:href="../../images/foreignKeys.png" width="11px" height="12px" preserveAspectRatio="xMinYMin meet" x="299" y="-1112.7"/>
<text text-anchor="start" x="314" y="-1102.8" font-family="Helvetica,sans-Serif" font-size="11.00" fill="#000000">policy_code</text>
<polygon fill="none" stroke="#000000" points="294,-1076.7 294,-1095.7 468,-1095.7 468,-1076.7 294,-1076.7"/>
<text text-anchor="start" x="297" y="-1082.8" font-family="Helvetica,sans-Serif" font-size="11.00" fill="#000000">...</text>
<polygon fill="#ffffff" stroke="transparent" points="294,-1057.7 294,-1076.7 379,-1076.7 379,-1057.7 294,-1057.7"/>
<polygon fill="none" stroke="#000000" points="294,-1057.7 294,-1076.7 379,-1076.7 379,-1057.7 294,-1057.7"/>
<text text-anchor="start" x="297" y="-1063.8" font-family="Helvetica,sans-Serif" font-size="11.00" fill="#000000">&lt; 3</text>
<polygon fill="#ffffff" stroke="transparent" points="379,-1057.7 379,-1076.7 423,-1076.7 423,-1057.7 379,-1057.7"/>
<polygon fill="none" stroke="#000000" points="379,-1057.7 379,-1076.7 423,-1076.7 423,-1057.7 379,-1057.7"/>
<text text-anchor="start" x="413.8862" y="-1063.8" font-family="Helvetica,sans-Serif" font-size="11.00" fill="#000000"> &#160;</text>
<polygon fill="#ffffff" stroke="transparent" points="423,-1057.7 423,-1076.7 468,-1076.7 468,-1057.7 423,-1057.7"/>
<polygon fill="none" stroke="#000000" points="423,-1057.7 423,-1076.7 468,-1076.7 468,-1057.7 423,-1057.7"/>
<text text-anchor="start" x="458.8862" y="-1063.8" font-family="Helvetica,sans-Serif" font-size="11.00" fill="#000000"> &#160;</text>
</a>
</g>
</g>
<!-- policy -->
<g id="node2" class="node">
<title>policy</title>
<g id="a_node2"><a xlink:href="../../tables/policy.html" xlink:title="policy" target="_top">
<polygon fill="#ffffff" stroke="transparent" points="8,-498.7 8,-588.7 176,-588.7 176,-498.7 8,-498.7"/>
<polygon fill="#f5f5f5" stroke="transparent" points="10,-563.7 10,-586.7 174,-586.7 174,-563.7 10,-563.7"/>
<polygon fill="none" stroke="#000000" points="10,-563.7 10,-586.7 174,-586.7 174,-563.7 10,-563.7"/>
<text text-anchor="start" x="15" y="-572.3" font-family="Helvetica,sans-Serif" font-weight="bold" font-size="11.00" fill="#000000">policy</text>
<text text-anchor="start" x="139.0437" y="-571.8" font-family="Helvetica,sans-Serif" font-size="11.00" fill="#000000">[table]</text>
<polygon fill="none" stroke="#000000" points="10,-541.7 10,-563.7 107,-563.7 107,-541.7 10,-541.7"/>
<image xlink:href="../../images/primaryKeys.png" width="11px" height="12px" preserveAspectRatio="xMinYMin meet" x="15" y="-558.7"/>
<text text-anchor="start" x="30" y="-548.8" font-family="Helvetica,sans-Serif" font-size="11.00" fill="#000000">code</text>
<polygon fill="none" stroke="#000000" points="107,-541.7 107,-563.7 174,-563.7 174,-541.7 107,-541.7"/>
<text text-anchor="start" x="110" y="-549.4" font-family="Helvetica,sans-Serif" font-size="11.00" fill="#000000">varchar[16]</text>
<polygon fill="none" stroke="#000000" points="10,-519.7 10,-541.7 107,-541.7 107,-519.7 10,-519.7"/>
<text text-anchor="start" x="30" y="-526.8" font-family="Helvetica,sans-Serif" font-size="11.00" fill="#000000">description</text>
<polygon fill="none" stroke="#000000" points="107,-519.7 107,-541.7 174,-541.7 174,-519.7 107,-519.7"/>
<text text-anchor="start" x="109.9365" y="-527.4" font-family="Helvetica,sans-Serif" font-size="11.00" fill="#000000">varchar[255]</text>
<polygon fill="#ffffff" stroke="transparent" points="10,-500.7 10,-519.7 63,-519.7 63,-500.7 10,-500.7"/>
<polygon fill="none" stroke="#000000" points="10,-500.7 10,-519.7 63,-519.7 63,-500.7 10,-500.7"/>
<text text-anchor="start" x="13" y="-506.8" font-family="Helvetica,sans-Serif" font-size="11.00" fill="#000000">&lt; 0</text>
<polygon fill="#ffffff" stroke="transparent" points="63,-500.7 63,-519.7 107,-519.7 107,-500.7 63,-500.7"/>
<polygon fill="none" stroke="#000000" points="63,-500.7 63,-519.7 107,-519.7 107,-500.7 63,-500.7"/>
<text text-anchor="start" x="97.8862" y="-506.8" font-family="Helvetica,sans-Serif" font-size="11.00" fill="#000000"> &#160;</text>
<polygon fill="#ffffff" stroke="transparent" points="107,-500.7 107,-519.7 174,-519.7 174,-500.7 107,-500.7"/>
<polygon fill="none" stroke="#000000" points="107,-500.7 107,-519.7 174,-519.7 174,-500.7 107,-500.7"/>
<text text-anchor="start" x="155.4053" y="-506.8" font-family="Helvetica,sans-Serif" font-size="11.00" fill="#000000">7 &gt;</text>
<polygon fill="none" stroke="#000000" stroke-width="2" points="9,-499.7 9,-587.7 175,-587.7 175,-499.7 9,-499.7"/>
</a>
</g>
</g>
<!-- allocation&#45;&gt;policy -->
<g id="edge1" class="edge">
<title>allocation:w&#45;&gt;policy:e</title>
<path fill="none" stroke="#000000" d="M279.5892,-1105.7755C247.591,-1101.3218 235.2271,-1080.9208 217,-1047.7 190.4442,-999.2994 229.2071,-552.7 174,-552.7"/>
<polygon fill="#000000" stroke="#000000" points="286.0164,-1106.1878 293.7695,-1110.2926 290.0082,-1106.4439 294,-1106.7 294,-1106.7 294,-1106.7 290.0082,-1106.4439 294.2305,-1103.1074 286.0164,-1106.1878 286.0164,-1106.1878"/>
<ellipse fill="none" stroke="#000000" cx="282.823" cy="-1105.9829" rx="3.2" ry="3.2"/>
</g>
<!-- prison_configuration -->
<g id="node3" class="node">
<title>prison_configuration</title>
<g id="a_node3"><a xlink:href="../../tables/prison_configuration.html" xlink:title="prison_configuration" target="_top">
<polygon fill="#ffffff" stroke="transparent" points="225,-910.2 225,-1037.2 537,-1037.2 537,-910.2 225,-910.2"/>
<polygon fill="#f5f5f5" stroke="transparent" points="225,-1013.7 225,-1036.7 537,-1036.7 537,-1013.7 225,-1013.7"/>
<polygon fill="none" stroke="#000000" points="225,-1013.7 225,-1036.7 537,-1036.7 537,-1013.7 225,-1013.7"/>
<text text-anchor="start" x="230" y="-1022.3" font-family="Helvetica,sans-Serif" font-weight="bold" font-size="11.00" fill="#000000">prison_configuration</text>
<text text-anchor="start" x="502.0437" y="-1021.8" font-family="Helvetica,sans-Serif" font-size="11.00" fill="#000000">[table]</text>
<polygon fill="#ffffff" stroke="transparent" points="225,-991.7 225,-1013.7 537,-1013.7 537,-991.7 225,-991.7"/>
<polygon fill="none" stroke="#000000" points="225,-991.7 225,-1013.7 537,-1013.7 537,-991.7 225,-991.7"/>
<image xlink:href="../../images/foreignKeys.png" width="11px" height="12px" preserveAspectRatio="xMinYMin meet" x="230" y="-1008.7"/>
<text text-anchor="start" x="245" y="-998.8" font-family="Helvetica,sans-Serif" font-size="11.00" fill="#000000">prison_code</text>
<polygon fill="#ffffff" stroke="transparent" points="225,-969.7 225,-991.7 537,-991.7 537,-969.7 225,-969.7"/>
<polygon fill="none" stroke="#000000" points="225,-969.7 225,-991.7 537,-991.7 537,-969.7 225,-969.7"/>
<image xlink:href="../../images/foreignKeys.png" width="11px" height="12px" preserveAspectRatio="xMinYMin meet" x="230" y="-986.7"/>
<text text-anchor="start" x="245" y="-976.8" font-family="Helvetica,sans-Serif" font-size="11.00" fill="#000000">policy_code</text>
<polygon fill="none" stroke="#000000" points="225,-947.7 225,-969.7 537,-969.7 537,-947.7 225,-947.7"/>
<image xlink:href="../../images/primaryKeys.png" width="11px" height="12px" preserveAspectRatio="xMinYMin meet" x="230" y="-964.7"/>
<text text-anchor="start" x="245" y="-954.8" font-family="Helvetica,sans-Serif" font-size="11.00" fill="#000000">id</text>
<polygon fill="none" stroke="#000000" points="225,-928.7 225,-947.7 537,-947.7 537,-928.7 225,-928.7"/>
<text text-anchor="start" x="228" y="-934.8" font-family="Helvetica,sans-Serif" font-size="11.00" fill="#000000">...</text>
<polygon fill="#ffffff" stroke="transparent" points="225,-909.7 225,-928.7 363,-928.7 363,-909.7 225,-909.7"/>
<polygon fill="none" stroke="#000000" points="225,-909.7 225,-928.7 363,-928.7 363,-909.7 225,-909.7"/>
<text text-anchor="start" x="228" y="-915.8" font-family="Helvetica,sans-Serif" font-size="11.00" fill="#000000">&lt; 1</text>
<polygon fill="#ffffff" stroke="transparent" points="363,-909.7 363,-928.7 466,-928.7 466,-909.7 363,-909.7"/>
<polygon fill="none" stroke="#000000" points="363,-909.7 363,-928.7 466,-928.7 466,-909.7 363,-909.7"/>
<text text-anchor="start" x="424.4956" y="-915.8" font-family="Helvetica,sans-Serif" font-size="11.00" fill="#000000">12 rows</text>
<polygon fill="#ffffff" stroke="transparent" points="466,-909.7 466,-928.7 537,-928.7 537,-909.7 466,-909.7"/>
<polygon fill="none" stroke="#000000" points="466,-909.7 466,-928.7 537,-928.7 537,-909.7 466,-909.7"/>
<text text-anchor="start" x="527.8862" y="-915.8" font-family="Helvetica,sans-Serif" font-size="11.00" fill="#000000"> &#160;</text>
</a>
</g>
</g>
<!-- prison_configuration&#45;&gt;policy -->
<g id="edge2" class="edge">
<title>prison_configuration:w&#45;&gt;policy:e</title>
<path fill="none" stroke="#000000" d="M210.9131,-976.7363C144.3815,-933.5887 264.3587,-552.7 174,-552.7"/>
<polygon fill="#000000" stroke="#000000" points="217.299,-978.5331 224.0249,-984.1654 221.1495,-979.6165 225,-980.7 225,-980.7 225,-980.7 221.1495,-979.6165 225.9751,-977.2346 217.299,-978.5331 217.299,-978.5331"/>
<ellipse fill="none" stroke="#000000" cx="214.2187" cy="-977.6663" rx="3.2" ry="3.2"/>
</g>
<!-- prison_statistic -->
<g id="node4" class="node">
<title>prison_statistic</title>
<g id="a_node4"><a xlink:href="../../tables/prison_statistic.html" xlink:title="prison_statistic" target="_top">
<polygon fill="#ffffff" stroke="transparent" points="233,-740.2 233,-889.2 529,-889.2 529,-740.2 233,-740.2"/>
<polygon fill="#f5f5f5" stroke="transparent" points="233,-865.7 233,-888.7 529,-888.7 529,-865.7 233,-865.7"/>
<polygon fill="none" stroke="#000000" points="233,-865.7 233,-888.7 529,-888.7 529,-865.7 233,-865.7"/>
<text text-anchor="start" x="238" y="-874.3" font-family="Helvetica,sans-Serif" font-weight="bold" font-size="11.00" fill="#000000">prison_statistic</text>
<text text-anchor="start" x="494.0437" y="-873.8" font-family="Helvetica,sans-Serif" font-size="11.00" fill="#000000">[table]</text>
<polygon fill="none" stroke="#000000" points="233,-843.7 233,-865.7 529,-865.7 529,-843.7 233,-843.7"/>
<image xlink:href="../../images/primaryKeys.png" width="11px" height="12px" preserveAspectRatio="xMinYMin meet" x="238" y="-860.7"/>
<text text-anchor="start" x="253" y="-850.8" font-family="Helvetica,sans-Serif" font-size="11.00" fill="#000000">id</text>
<polygon fill="#ffffff" stroke="transparent" points="233,-821.7 233,-843.7 529,-843.7 529,-821.7 233,-821.7"/>
<polygon fill="none" stroke="#000000" points="233,-821.7 233,-843.7 529,-843.7 529,-821.7 233,-821.7"/>
<image xlink:href="../../images/foreignKeys.png" width="11px" height="12px" preserveAspectRatio="xMinYMin meet" x="238" y="-838.7"/>
<text text-anchor="start" x="253" y="-828.8" font-family="Helvetica,sans-Serif" font-size="11.00" fill="#000000">prison_code</text>
<polygon fill="#ffffff" stroke="transparent" points="233,-799.7 233,-821.7 529,-821.7 529,-799.7 233,-799.7"/>
<polygon fill="none" stroke="#000000" points="233,-799.7 233,-821.7 529,-821.7 529,-799.7 233,-799.7"/>
<text text-anchor="start" x="253" y="-806.8" font-family="Helvetica,sans-Serif" font-size="11.00" fill="#000000">statistic_date</text>
<polygon fill="none" stroke="#000000" points="233,-777.7 233,-799.7 529,-799.7 529,-777.7 233,-777.7"/>
<image xlink:href="../../images/foreignKeys.png" width="11px" height="12px" preserveAspectRatio="xMinYMin meet" x="238" y="-794.7"/>
<text text-anchor="start" x="253" y="-784.8" font-family="Helvetica,sans-Serif" font-size="11.00" fill="#000000">policy_code</text>
<polygon fill="none" stroke="#000000" points="233,-758.7 233,-777.7 529,-777.7 529,-758.7 233,-758.7"/>
<text text-anchor="start" x="236" y="-764.8" font-family="Helvetica,sans-Serif" font-size="11.00" fill="#000000">...</text>
<polygon fill="#ffffff" stroke="transparent" points="233,-739.7 233,-758.7 379,-758.7 379,-739.7 233,-739.7"/>
<polygon fill="none" stroke="#000000" points="233,-739.7 233,-758.7 379,-758.7 379,-739.7 233,-739.7"/>
<text text-anchor="start" x="236" y="-745.8" font-family="Helvetica,sans-Serif" font-size="11.00" fill="#000000">&lt; 1</text>
<polygon fill="#ffffff" stroke="transparent" points="379,-739.7 379,-758.7 454,-758.7 454,-739.7 379,-739.7"/>
<polygon fill="none" stroke="#000000" points="379,-739.7 379,-758.7 454,-758.7 454,-739.7 379,-739.7"/>
<text text-anchor="start" x="444.8862" y="-745.8" font-family="Helvetica,sans-Serif" font-size="11.00" fill="#000000"> &#160;</text>
<polygon fill="#ffffff" stroke="transparent" points="454,-739.7 454,-758.7 529,-758.7 529,-739.7 454,-739.7"/>
<polygon fill="none" stroke="#000000" points="454,-739.7 454,-758.7 529,-758.7 529,-739.7 454,-739.7"/>
<text text-anchor="start" x="519.8862" y="-745.8" font-family="Helvetica,sans-Serif" font-size="11.00" fill="#000000"> &#160;</text>
</a>
</g>
</g>
<!-- prison_statistic&#45;&gt;policy -->
<g id="edge3" class="edge">
<title>prison_statistic:w&#45;&gt;policy:e</title>
<path fill="none" stroke="#000000" d="M218.5124,-786.9361C140.1678,-765.3398 276.6267,-552.7 174,-552.7"/>
<polygon fill="#000000" stroke="#000000" points="225.0586,-787.7331 232.5649,-792.2736 229.0293,-788.2165 233,-788.7 233,-788.7 233,-788.7 229.0293,-788.2165 233.4351,-785.1264 225.0586,-787.7331 225.0586,-787.7331"/>
<ellipse fill="none" stroke="#000000" cx="221.8821" cy="-787.3463" rx="3.2" ry="3.2"/>
</g>
<!-- recorded_event -->
<g id="node5" class="node">
<title>recorded_event</title>
<g id="a_node5"><a xlink:href="../../tables/recorded_event.html" xlink:title="recorded_event" target="_top">
<polygon fill="#ffffff" stroke="transparent" points="309,-482.2 309,-719.2 453,-719.2 453,-482.2 309,-482.2"/>
<polygon fill="#f5f5f5" stroke="transparent" points="309,-695.7 309,-718.7 453,-718.7 453,-695.7 309,-695.7"/>
<polygon fill="none" stroke="#000000" points="309,-695.7 309,-718.7 453,-718.7 453,-695.7 309,-695.7"/>
<text text-anchor="start" x="314" y="-704.3" font-family="Helvetica,sans-Serif" font-weight="bold" font-size="11.00" fill="#000000">recorded_event</text>
<text text-anchor="start" x="418.5219" y="-703.8" font-family="Helvetica,sans-Serif" font-size="11.00" fill="#000000">[table]</text>
<polygon fill="none" stroke="#000000" points="309,-673.7 309,-695.7 453,-695.7 453,-673.7 309,-673.7"/>
<image xlink:href="../../images/primaryKeys.png" width="11px" height="12px" preserveAspectRatio="xMinYMin meet" x="314" y="-690.7"/>
<text text-anchor="start" x="333" y="-680.8" font-family="Helvetica,sans-Serif" font-size="11.00" fill="#000000">id</text>
<polygon fill="#ffffff" stroke="transparent" points="309,-651.7 309,-673.7 453,-673.7 453,-651.7 309,-651.7"/>
<polygon fill="none" stroke="#000000" points="309,-651.7 309,-673.7 453,-673.7 453,-651.7 309,-651.7"/>
<image xlink:href="../../images/foreignKeys.png" width="11px" height="12px" preserveAspectRatio="xMinYMin meet" x="314" y="-668.7"/>
<text text-anchor="start" x="333" y="-658.8" font-family="Helvetica,sans-Serif" font-size="11.00" fill="#000000">prison_code</text>
<polygon fill="#ffffff" stroke="transparent" points="309,-629.7 309,-651.7 453,-651.7 453,-629.7 309,-629.7"/>
<polygon fill="none" stroke="#000000" points="309,-629.7 309,-651.7 453,-651.7 453,-629.7 309,-629.7"/>
<text text-anchor="start" x="333" y="-636.8" font-family="Helvetica,sans-Serif" font-size="11.00" fill="#000000">person_identifier</text>
<polygon fill="#ffffff" stroke="transparent" points="309,-607.7 309,-629.7 453,-629.7 453,-607.7 309,-607.7"/>
<polygon fill="none" stroke="#000000" points="309,-607.7 309,-629.7 453,-629.7 453,-607.7 309,-607.7"/>
<text text-anchor="start" x="333" y="-614.8" font-family="Helvetica,sans-Serif" font-size="11.00" fill="#000000">staff_id</text>
<polygon fill="#ffffff" stroke="transparent" points="309,-585.7 309,-607.7 453,-607.7 453,-585.7 309,-585.7"/>
<polygon fill="none" stroke="#000000" points="309,-585.7 309,-607.7 453,-607.7 453,-585.7 309,-585.7"/>
<text text-anchor="start" x="333" y="-592.8" font-family="Helvetica,sans-Serif" font-size="11.00" fill="#000000">occurred_at</text>
<polygon fill="#ffffff" stroke="transparent" points="309,-563.7 309,-585.7 453,-585.7 453,-563.7 309,-563.7"/>
<polygon fill="none" stroke="#000000" points="309,-563.7 309,-585.7 453,-585.7 453,-563.7 309,-563.7"/>
<text text-anchor="start" x="333" y="-570.8" font-family="Helvetica,sans-Serif" font-size="11.00" fill="#000000">created_at</text>
<polygon fill="#ffffff" stroke="transparent" points="309,-541.7 309,-563.7 453,-563.7 453,-541.7 309,-541.7"/>
<polygon fill="none" stroke="#000000" points="309,-541.7 309,-563.7 453,-563.7 453,-541.7 309,-541.7"/>
<image xlink:href="../../images/foreignKeys.png" width="11px" height="12px" preserveAspectRatio="xMinYMin meet" x="314" y="-558.7"/>
<text text-anchor="start" x="333" y="-548.8" font-family="Helvetica,sans-Serif" font-size="11.00" fill="#000000">policy_code</text>
<polygon fill="#ffffff" stroke="transparent" points="309,-519.7 309,-541.7 453,-541.7 453,-519.7 309,-519.7"/>
<polygon fill="none" stroke="#000000" points="309,-519.7 309,-541.7 453,-541.7 453,-519.7 309,-519.7"/>
<image xlink:href="../../images/foreignKeys.png" width="11px" height="12px" preserveAspectRatio="xMinYMin meet" x="314" y="-536.7"/>
<text text-anchor="start" x="333" y="-526.8" font-family="Helvetica,sans-Serif" font-size="11.00" fill="#000000">type_id</text>
<polygon fill="none" stroke="#000000" points="309,-500.7 309,-519.7 453,-519.7 453,-500.7 309,-500.7"/>
<text text-anchor="start" x="312" y="-506.8" font-family="Helvetica,sans-Serif" font-size="11.00" fill="#000000">...</text>
<polygon fill="#ffffff" stroke="transparent" points="309,-481.7 309,-500.7 379,-500.7 379,-481.7 309,-481.7"/>
<polygon fill="none" stroke="#000000" points="309,-481.7 309,-500.7 379,-500.7 379,-481.7 309,-481.7"/>
<text text-anchor="start" x="312" y="-487.8" font-family="Helvetica,sans-Serif" font-size="11.00" fill="#000000">&lt; 2</text>
<polygon fill="#ffffff" stroke="transparent" points="379,-481.7 379,-500.7 416,-500.7 416,-481.7 379,-481.7"/>
<polygon fill="none" stroke="#000000" points="379,-481.7 379,-500.7 416,-500.7 416,-481.7 379,-481.7"/>
<text text-anchor="start" x="406.8862" y="-487.8" font-family="Helvetica,sans-Serif" font-size="11.00" fill="#000000"> &#160;</text>
<polygon fill="#ffffff" stroke="transparent" points="416,-481.7 416,-500.7 453,-500.7 453,-481.7 416,-481.7"/>
<polygon fill="none" stroke="#000000" points="416,-481.7 416,-500.7 453,-500.7 453,-481.7 416,-481.7"/>
<text text-anchor="start" x="443.8862" y="-487.8" font-family="Helvetica,sans-Serif" font-size="11.00" fill="#000000"> &#160;</text>
</a>
</g>
</g>
<!-- recorded_event&#45;&gt;policy -->
<g id="edge4" class="edge">
<title>recorded_event:w&#45;&gt;policy:e</title>
<path fill="none" stroke="#000000" d="M294.4711,-552.7C246.0895,-552.7 228.8438,-552.7 174,-552.7"/>
<polygon fill="#000000" stroke="#000000" points="301,-552.7001 309,-556.3 305,-552.7 309,-552.7 309,-552.7 309,-552.7 305,-552.7 309,-549.1 301,-552.7001 301,-552.7001"/>
<ellipse fill="none" stroke="#000000" cx="297.8" cy="-552.7001" rx="3.2" ry="3.2"/>
</g>
<!-- recorded_event_audit -->
<g id="node6" class="node">
<title>recorded_event_audit</title>
<g id="a_node6"><a xlink:href="../../tables/recorded_event_audit.html" xlink:title="recorded_event_audit" target="_top">
<polygon fill="#ffffff" stroke="transparent" points="288.5,-334.2 288.5,-461.2 473.5,-461.2 473.5,-334.2 288.5,-334.2"/>
<polygon fill="#f5f5f5" stroke="transparent" points="289,-437.7 289,-460.7 474,-460.7 474,-437.7 289,-437.7"/>
<polygon fill="none" stroke="#000000" points="289,-437.7 289,-460.7 474,-460.7 474,-437.7 289,-437.7"/>
<text text-anchor="start" x="294" y="-446.3" font-family="Helvetica,sans-Serif" font-weight="bold" font-size="11.00" fill="#000000">recorded_event_audit</text>
<text text-anchor="start" x="439.5219" y="-445.8" font-family="Helvetica,sans-Serif" font-size="11.00" fill="#000000">[table]</text>
<polygon fill="none" stroke="#000000" points="289,-415.7 289,-437.7 474,-437.7 474,-415.7 289,-415.7"/>
<image xlink:href="../../images/foreignKeys.png" width="11px" height="12px" preserveAspectRatio="xMinYMin meet" x="294" y="-432.7"/>
<text text-anchor="start" x="318" y="-422.8" font-family="Helvetica,sans-Serif" font-size="11.00" fill="#000000">rev_id</text>
<polygon fill="none" stroke="#000000" points="289,-393.7 289,-415.7 474,-415.7 474,-393.7 289,-393.7"/>
<image xlink:href="../../images/foreignKeys.png" width="11px" height="12px" preserveAspectRatio="xMinYMin meet" x="294" y="-410.7"/>
<text text-anchor="start" x="318" y="-400.8" font-family="Helvetica,sans-Serif" font-size="11.00" fill="#000000">prison_code</text>
<polygon fill="none" stroke="#000000" points="289,-371.7 289,-393.7 474,-393.7 474,-371.7 289,-371.7"/>
<image xlink:href="../../images/foreignKeys.png" width="11px" height="12px" preserveAspectRatio="xMinYMin meet" x="294" y="-388.7"/>
<text text-anchor="start" x="318" y="-378.8" font-family="Helvetica,sans-Serif" font-size="11.00" fill="#000000">policy_code</text>
<polygon fill="none" stroke="#000000" points="289,-352.7 289,-371.7 474,-371.7 474,-352.7 289,-352.7"/>
<text text-anchor="start" x="292" y="-358.8" font-family="Helvetica,sans-Serif" font-size="11.00" fill="#000000">...</text>
<polygon fill="#ffffff" stroke="transparent" points="289,-333.7 289,-352.7 380,-352.7 380,-333.7 289,-333.7"/>
<polygon fill="none" stroke="#000000" points="289,-333.7 289,-352.7 380,-352.7 380,-333.7 289,-333.7"/>
<text text-anchor="start" x="292" y="-339.8" font-family="Helvetica,sans-Serif" font-size="11.00" fill="#000000">&lt; 2</text>
<polygon fill="#ffffff" stroke="transparent" points="380,-333.7 380,-352.7 427,-352.7 427,-333.7 380,-333.7"/>
<polygon fill="none" stroke="#000000" points="380,-333.7 380,-352.7 427,-352.7 427,-333.7 380,-333.7"/>
<text text-anchor="start" x="417.8862" y="-339.8" font-family="Helvetica,sans-Serif" font-size="11.00" fill="#000000"> &#160;</text>
<polygon fill="#ffffff" stroke="transparent" points="427,-333.7 427,-352.7 474,-352.7 474,-333.7 427,-333.7"/>
<polygon fill="none" stroke="#000000" points="427,-333.7 427,-352.7 474,-352.7 474,-333.7 427,-333.7"/>
<text text-anchor="start" x="464.8862" y="-339.8" font-family="Helvetica,sans-Serif" font-size="11.00" fill="#000000"> &#160;</text>
</a>
</g>
</g>
<!-- recorded_event_audit&#45;&gt;policy -->
<g id="edge5" class="edge">
<title>recorded_event_audit:w&#45;&gt;policy:e</title>
<path fill="none" stroke="#000000" d="M274.2589,-384.3046C239.22,-392.8351 241.9888,-433.8992 217,-471.7 194.5234,-505.7005 214.7582,-552.7 174,-552.7"/>
<polygon fill="#000000" stroke="#000000" points="281.047,-383.5657 289.3896,-386.2789 285.0235,-383.1329 289,-382.7 289,-382.7 289,-382.7 285.0235,-383.1329 288.6104,-379.1211 281.047,-383.5657 281.047,-383.5657"/>
<ellipse fill="none" stroke="#000000" cx="277.8658" cy="-383.912" rx="3.2" ry="3.2"/>
</g>
<!-- reference_data_policy -->
<g id="node7" class="node">
<title>reference_data_policy</title>
<g id="a_node7"><a xlink:href="../../tables/reference_data_policy.html" xlink:title="reference_data_policy" target="_top">
<polygon fill="#ffffff" stroke="transparent" points="288,-208.2 288,-313.2 474,-313.2 474,-208.2 288,-208.2"/>
<polygon fill="#f5f5f5" stroke="transparent" points="288,-289.7 288,-312.7 474,-312.7 474,-289.7 288,-289.7"/>
<polygon fill="none" stroke="#000000" points="288,-289.7 288,-312.7 474,-312.7 474,-289.7 288,-289.7"/>
<text text-anchor="start" x="293" y="-298.3" font-family="Helvetica,sans-Serif" font-weight="bold" font-size="11.00" fill="#000000">reference_data_policy</text>
<text text-anchor="start" x="439.5219" y="-297.8" font-family="Helvetica,sans-Serif" font-size="11.00" fill="#000000">[table]</text>
<polygon fill="#ffffff" stroke="transparent" points="288,-267.7 288,-289.7 474,-289.7 474,-267.7 288,-267.7"/>
<polygon fill="none" stroke="#000000" points="288,-267.7 288,-289.7 474,-289.7 474,-267.7 288,-267.7"/>
<image xlink:href="../../images/foreignKeys.png" width="11px" height="12px" preserveAspectRatio="xMinYMin meet" x="293" y="-284.7"/>
<text text-anchor="start" x="317" y="-274.8" font-family="Helvetica,sans-Serif" font-size="11.00" fill="#000000">id</text>
<polygon fill="#ffffff" stroke="transparent" points="288,-245.7 288,-267.7 474,-267.7 474,-245.7 288,-245.7"/>
<polygon fill="none" stroke="#000000" points="288,-245.7 288,-267.7 474,-267.7 474,-245.7 288,-245.7"/>
<image xlink:href="../../images/foreignKeys.png" width="11px" height="12px" preserveAspectRatio="xMinYMin meet" x="293" y="-262.7"/>
<text text-anchor="start" x="317" y="-252.8" font-family="Helvetica,sans-Serif" font-size="11.00" fill="#000000">policy_code</text>
<polygon fill="none" stroke="#000000" points="288,-226.7 288,-245.7 474,-245.7 474,-226.7 288,-226.7"/>
<text text-anchor="start" x="291" y="-232.8" font-family="Helvetica,sans-Serif" font-size="11.00" fill="#000000">...</text>
<polygon fill="#ffffff" stroke="transparent" points="288,-207.7 288,-226.7 363,-226.7 363,-207.7 288,-207.7"/>
<polygon fill="none" stroke="#000000" points="288,-207.7 288,-226.7 363,-226.7 363,-207.7 288,-207.7"/>
<text text-anchor="start" x="291" y="-213.8" font-family="Helvetica,sans-Serif" font-size="11.00" fill="#000000">&lt; 2</text>
<polygon fill="#ffffff" stroke="transparent" points="363,-207.7 363,-226.7 434,-226.7 434,-207.7 363,-207.7"/>
<polygon fill="none" stroke="#000000" points="363,-207.7 363,-226.7 434,-226.7 434,-207.7 363,-207.7"/>
<text text-anchor="start" x="392.4956" y="-213.8" font-family="Helvetica,sans-Serif" font-size="11.00" fill="#000000">84 rows</text>
<polygon fill="#ffffff" stroke="transparent" points="434,-207.7 434,-226.7 474,-226.7 474,-207.7 434,-207.7"/>
<polygon fill="none" stroke="#000000" points="434,-207.7 434,-226.7 474,-226.7 474,-207.7 434,-207.7"/>
<text text-anchor="start" x="464.8862" y="-213.8" font-family="Helvetica,sans-Serif" font-size="11.00" fill="#000000"> &#160;</text>
</a>
</g>
</g>
<!-- reference_data_policy&#45;&gt;policy -->
<g id="edge6" class="edge">
<title>reference_data_policy:w&#45;&gt;policy:e</title>
<path fill="none" stroke="#000000" d="M273.3454,-258.0172C242.691,-264.074 235.2007,-290.3833 217,-323.7 192.1765,-369.1399 225.7783,-552.7 174,-552.7"/>
<polygon fill="#000000" stroke="#000000" points="280.0321,-257.4162 288.3223,-260.2855 284.0161,-257.0581 288,-256.7 288,-256.7 288,-256.7 284.0161,-257.0581 287.6777,-253.1145 280.0321,-257.4162 280.0321,-257.4162"/>
<ellipse fill="none" stroke="#000000" cx="276.845" cy="-257.7027" rx="3.2" ry="3.2"/>
</g>
<!-- staff_configuration -->
<g id="node8" class="node">
<title>staff_configuration</title>
<g id="a_node8"><a xlink:href="../../tables/staff_configuration.html" xlink:title="staff_configuration" target="_top">
<polygon fill="#ffffff" stroke="transparent" points="297.5,-38.2 297.5,-187.2 464.5,-187.2 464.5,-38.2 297.5,-38.2"/>
<polygon fill="#f5f5f5" stroke="transparent" points="298,-163.7 298,-186.7 465,-186.7 465,-163.7 298,-163.7"/>
<polygon fill="none" stroke="#000000" points="298,-163.7 298,-186.7 465,-186.7 465,-163.7 298,-163.7"/>
<text text-anchor="start" x="303" y="-172.3" font-family="Helvetica,sans-Serif" font-weight="bold" font-size="11.00" fill="#000000">staff_configuration</text>
<text text-anchor="start" x="430.5219" y="-171.8" font-family="Helvetica,sans-Serif" font-size="11.00" fill="#000000">[table]</text>
<polygon fill="#ffffff" stroke="transparent" points="298,-141.7 298,-163.7 465,-163.7 465,-141.7 298,-141.7"/>
<polygon fill="none" stroke="#000000" points="298,-141.7 298,-163.7 465,-163.7 465,-141.7 298,-141.7"/>
<text text-anchor="start" x="319" y="-148.8" font-family="Helvetica,sans-Serif" font-size="11.00" fill="#000000">staff_id</text>
<polygon fill="none" stroke="#000000" points="298,-119.7 298,-141.7 465,-141.7 465,-119.7 298,-119.7"/>
<image xlink:href="../../images/foreignKeys.png" width="11px" height="12px" preserveAspectRatio="xMinYMin meet" x="303" y="-136.7"/>
<text text-anchor="start" x="319" y="-126.8" font-family="Helvetica,sans-Serif" font-size="11.00" fill="#000000">status_id</text>
<polygon fill="#ffffff" stroke="transparent" points="298,-97.7 298,-119.7 465,-119.7 465,-97.7 298,-97.7"/>
<polygon fill="none" stroke="#000000" points="298,-97.7 298,-119.7 465,-119.7 465,-97.7 298,-97.7"/>
<image xlink:href="../../images/foreignKeys.png" width="11px" height="12px" preserveAspectRatio="xMinYMin meet" x="303" y="-114.7"/>
<text text-anchor="start" x="319" y="-104.8" font-family="Helvetica,sans-Serif" font-size="11.00" fill="#000000">policy_code</text>
<polygon fill="none" stroke="#000000" points="298,-75.7 298,-97.7 465,-97.7 465,-75.7 298,-75.7"/>
<image xlink:href="../../images/primaryKeys.png" width="11px" height="12px" preserveAspectRatio="xMinYMin meet" x="303" y="-92.7"/>
<text text-anchor="start" x="319" y="-82.8" font-family="Helvetica,sans-Serif" font-size="11.00" fill="#000000">id</text>
<polygon fill="none" stroke="#000000" points="298,-56.7 298,-75.7 465,-75.7 465,-56.7 298,-56.7"/>
<text text-anchor="start" x="301" y="-62.8" font-family="Helvetica,sans-Serif" font-size="11.00" fill="#000000">...</text>
<polygon fill="#ffffff" stroke="transparent" points="298,-37.7 298,-56.7 380,-56.7 380,-37.7 298,-37.7"/>
<polygon fill="none" stroke="#000000" points="298,-37.7 298,-56.7 380,-56.7 380,-37.7 298,-37.7"/>
<text text-anchor="start" x="301" y="-43.8" font-family="Helvetica,sans-Serif" font-size="11.00" fill="#000000">&lt; 2</text>
<polygon fill="#ffffff" stroke="transparent" points="380,-37.7 380,-56.7 422,-56.7 422,-37.7 380,-37.7"/>
<polygon fill="none" stroke="#000000" points="380,-37.7 380,-56.7 422,-56.7 422,-37.7 380,-37.7"/>
<text text-anchor="start" x="412.8862" y="-43.8" font-family="Helvetica,sans-Serif" font-size="11.00" fill="#000000"> &#160;</text>
<polygon fill="#ffffff" stroke="transparent" points="422,-37.7 422,-56.7 465,-56.7 465,-37.7 422,-37.7"/>
<polygon fill="none" stroke="#000000" points="422,-37.7 422,-56.7 465,-56.7 465,-37.7 422,-37.7"/>
<text text-anchor="start" x="455.8862" y="-43.8" font-family="Helvetica,sans-Serif" font-size="11.00" fill="#000000"> &#160;</text>
</a>
</g>
</g>
<!-- staff_configuration&#45;&gt;policy -->
<g id="edge7" class="edge">
<title>staff_configuration:w&#45;&gt;policy:e</title>
<path fill="none" stroke="#000000" d="M283.3886,-109.87C243.3012,-116.8248 237.0516,-153.9157 217,-197.7 183.9124,-269.9494 253.4655,-552.7 174,-552.7"/>
<polygon fill="#000000" stroke="#000000" points="290.0255,-109.3386 298.2874,-112.2885 294.0128,-109.0193 298,-108.7 298,-108.7 298,-108.7 294.0128,-109.0193 297.7126,-105.1115 290.0255,-109.3386 290.0255,-109.3386"/>
<ellipse fill="none" stroke="#000000" cx="286.8357" cy="-109.594" rx="3.2" ry="3.2"/>
</g>
</g>
</svg>
