<?xml version="1.0" encoding="UTF-8" standalone="no"?>
<!DOCTYPE svg PUBLIC "-//W3C//DTD SVG 1.1//EN"
 "http://www.w3.org/Graphics/SVG/1.1/DTD/svg11.dtd">
<!-- Generated by graphviz version 2.40.1 (20161225.0304)
 -->
<!-- Title: oneDegreeRelationshipsDiagram Pages: 1 -->
<svg width="553pt" height="1351pt"
 viewBox="0.00 0.00 553.00 1351.20" xmlns="http://www.w3.org/2000/svg" xmlns:xlink="http://www.w3.org/1999/xlink">
<g id="graph0" class="graph" transform="scale(1 1) rotate(0) translate(4 1347.2)">
<title>oneDegreeRelationshipsDiagram</title>
<polygon fill="#ffffff" stroke="transparent" points="-4,4 -4,-1347.2 549,-1347.2 549,4 -4,4"/>
<text text-anchor="middle" x="72.4936" y="-7.3" font-family="Helvetica,sans-Serif" font-size="11.00" fill="#000000">Generated by SchemaSpy</text>
<!-- allocation -->
<g id="node1" class="node">
<title>allocation</title>
<g id="a_node1"><a xlink:href="../../tables/allocation.html" xlink:title="allocation" target="_top">
<polygon fill="#ffffff" stroke="transparent" points="294,-1080.2 294,-1339.2 468,-1339.2 468,-1080.2 294,-1080.2"/>
<polygon fill="#f5f5f5" stroke="transparent" points="294,-1315.7 294,-1338.7 468,-1338.7 468,-1315.7 294,-1315.7"/>
<polygon fill="none" stroke="#000000" points="294,-1315.7 294,-1338.7 468,-1338.7 468,-1315.7 294,-1315.7"/>
<text text-anchor="start" x="299" y="-1324.3" font-family="Helvetica,sans-Serif" font-weight="bold" font-size="11.00" fill="#000000">allocation</text>
<text text-anchor="start" x="433.0437" y="-1323.8" font-family="Helvetica,sans-Serif" font-size="11.00" fill="#000000">[table]</text>
<polygon fill="none" stroke="#000000" points="294,-1293.7 294,-1315.7 468,-1315.7 468,-1293.7 294,-1293.7"/>
<image xlink:href="../../images/primaryKeys.png" width="11px" height="12px" preserveAspectRatio="xMinYMin meet" x="299" y="-1310.7"/>
<text text-anchor="start" x="314" y="-1300.8" font-family="Helvetica,sans-Serif" font-size="11.00" fill="#000000">id</text>
<polygon fill="#ffffff" stroke="transparent" points="294,-1271.7 294,-1293.7 468,-1293.7 468,-1271.7 294,-1271.7"/>
<polygon fill="none" stroke="#000000" points="294,-1271.7 294,-1293.7 468,-1293.7 468,-1271.7 294,-1271.7"/>
<image xlink:href="../../images/foreignKeys.png" width="11px" height="12px" preserveAspectRatio="xMinYMin meet" x="299" y="-1288.7"/>
<text text-anchor="start" x="314" y="-1278.8" font-family="Helvetica,sans-Serif" font-size="11.00" fill="#000000">prison_code</text>
<polygon fill="#ffffff" stroke="transparent" points="294,-1249.7 294,-1271.7 468,-1271.7 468,-1249.7 294,-1249.7"/>
<polygon fill="none" stroke="#000000" points="294,-1249.7 294,-1271.7 468,-1271.7 468,-1249.7 294,-1249.7"/>
<text text-anchor="start" x="314" y="-1256.8" font-family="Helvetica,sans-Serif" font-size="11.00" fill="#000000">staff_id</text>
<polygon fill="#ffffff" stroke="transparent" points="294,-1227.7 294,-1249.7 468,-1249.7 468,-1227.7 294,-1227.7"/>
<polygon fill="none" stroke="#000000" points="294,-1227.7 294,-1249.7 468,-1249.7 468,-1227.7 294,-1227.7"/>
<text text-anchor="start" x="314" y="-1234.8" font-family="Helvetica,sans-Serif" font-size="11.00" fill="#000000">person_identifier</text>
<polygon fill="#ffffff" stroke="transparent" points="294,-1205.7 294,-1227.7 468,-1227.7 468,-1205.7 294,-1205.7"/>
<polygon fill="none" stroke="#000000" points="294,-1205.7 294,-1227.7 468,-1227.7 468,-1205.7 294,-1205.7"/>
<text text-anchor="start" x="314" y="-1212.8" font-family="Helvetica,sans-Serif" font-size="11.00" fill="#000000">allocated_at</text>
<polygon fill="none" stroke="#000000" points="294,-1183.7 294,-1205.7 468,-1205.7 468,-1183.7 294,-1183.7"/>
<image xlink:href="../../images/foreignKeys.png" width="11px" height="12px" preserveAspectRatio="xMinYMin meet" x="299" y="-1200.7"/>
<text text-anchor="start" x="314" y="-1190.8" font-family="Helvetica,sans-Serif" font-size="11.00" fill="#000000">allocation_reason_id</text>
<polygon fill="#ffffff" stroke="transparent" points="294,-1161.7 294,-1183.7 468,-1183.7 468,-1161.7 294,-1161.7"/>
<polygon fill="none" stroke="#000000" points="294,-1161.7 294,-1183.7 468,-1183.7 468,-1161.7 294,-1161.7"/>
<text text-anchor="start" x="314" y="-1168.8" font-family="Helvetica,sans-Serif" font-size="11.00" fill="#000000">deallocated_at</text>
<polygon fill="none" stroke="#000000" points="294,-1139.7 294,-1161.7 468,-1161.7 468,-1139.7 294,-1139.7"/>
<image xlink:href="../../images/foreignKeys.png" width="11px" height="12px" preserveAspectRatio="xMinYMin meet" x="299" y="-1156.7"/>
<text text-anchor="start" x="314" y="-1146.8" font-family="Helvetica,sans-Serif" font-size="11.00" fill="#000000">deallocation_reason_id</text>
<polygon fill="#ffffff" stroke="transparent" points="294,-1117.7 294,-1139.7 468,-1139.7 468,-1117.7 294,-1117.7"/>
<polygon fill="none" stroke="#000000" points="294,-1117.7 294,-1139.7 468,-1139.7 468,-1117.7 294,-1117.7"/>
<image xlink:href="../../images/foreignKeys.png" width="11px" height="12px" preserveAspectRatio="xMinYMin meet" x="299" y="-1134.7"/>
<text text-anchor="start" x="314" y="-1124.8" font-family="Helvetica,sans-Serif" font-size="11.00" fill="#000000">policy_code</text>
<polygon fill="none" stroke="#000000" points="294,-1098.7 294,-1117.7 468,-1117.7 468,-1098.7 294,-1098.7"/>
<text text-anchor="start" x="297" y="-1104.8" font-family="Helvetica,sans-Serif" font-size="11.00" fill="#000000">...</text>
<polygon fill="#ffffff" stroke="transparent" points="294,-1079.7 294,-1098.7 379,-1098.7 379,-1079.7 294,-1079.7"/>
<polygon fill="none" stroke="#000000" points="294,-1079.7 294,-1098.7 379,-1098.7 379,-1079.7 294,-1079.7"/>
<text text-anchor="start" x="297" y="-1085.8" font-family="Helvetica,sans-Serif" font-size="11.00" fill="#000000">&lt; 3</text>
<polygon fill="#ffffff" stroke="transparent" points="379,-1079.7 379,-1098.7 423,-1098.7 423,-1079.7 379,-1079.7"/>
<polygon fill="none" stroke="#000000" points="379,-1079.7 379,-1098.7 423,-1098.7 423,-1079.7 379,-1079.7"/>
<text text-anchor="start" x="413.8862" y="-1085.8" font-family="Helvetica,sans-Serif" font-size="11.00" fill="#000000"> &#160;</text>
<polygon fill="#ffffff" stroke="transparent" points="423,-1079.7 423,-1098.7 468,-1098.7 468,-1079.7 423,-1079.7"/>
<polygon fill="none" stroke="#000000" points="423,-1079.7 423,-1098.7 468,-1098.7 468,-1079.7 423,-1079.7"/>
<text text-anchor="start" x="458.8862" y="-1085.8" font-family="Helvetica,sans-Serif" font-size="11.00" fill="#000000"> &#160;</text>
</a>
</g>
</g>
<!-- policy -->
<g id="node2" class="node">
<title>policy</title>
<g id="a_node2"><a xlink:href="../../tables/policy.html" xlink:title="policy" target="_top">
<polygon fill="#ffffff" stroke="transparent" points="8,-520.7 8,-610.7 176,-610.7 176,-520.7 8,-520.7"/>
<polygon fill="#f5f5f5" stroke="transparent" points="10,-585.7 10,-608.7 174,-608.7 174,-585.7 10,-585.7"/>
<polygon fill="none" stroke="#000000" points="10,-585.7 10,-608.7 174,-608.7 174,-585.7 10,-585.7"/>
<text text-anchor="start" x="15" y="-594.3" font-family="Helvetica,sans-Serif" font-weight="bold" font-size="11.00" fill="#000000">policy</text>
<text text-anchor="start" x="139.0437" y="-593.8" font-family="Helvetica,sans-Serif" font-size="11.00" fill="#000000">[table]</text>
<polygon fill="none" stroke="#000000" points="10,-563.7 10,-585.7 107,-585.7 107,-563.7 10,-563.7"/>
<image xlink:href="../../images/primaryKeys.png" width="11px" height="12px" preserveAspectRatio="xMinYMin meet" x="15" y="-580.7"/>
<text text-anchor="start" x="30" y="-570.8" font-family="Helvetica,sans-Serif" font-size="11.00" fill="#000000">code</text>
<polygon fill="none" stroke="#000000" points="107,-563.7 107,-585.7 174,-585.7 174,-563.7 107,-563.7"/>
<text text-anchor="start" x="110" y="-571.4" font-family="Helvetica,sans-Serif" font-size="11.00" fill="#000000">varchar[16]</text>
<polygon fill="none" stroke="#000000" points="10,-541.7 10,-563.7 107,-563.7 107,-541.7 10,-541.7"/>
<text text-anchor="start" x="30" y="-548.8" font-family="Helvetica,sans-Serif" font-size="11.00" fill="#000000">description</text>
<polygon fill="none" stroke="#000000" points="107,-541.7 107,-563.7 174,-563.7 174,-541.7 107,-541.7"/>
<text text-anchor="start" x="109.9365" y="-549.4" font-family="Helvetica,sans-Serif" font-size="11.00" fill="#000000">varchar[255]</text>
<polygon fill="#ffffff" stroke="transparent" points="10,-522.7 10,-541.7 63,-541.7 63,-522.7 10,-522.7"/>
<polygon fill="none" stroke="#000000" points="10,-522.7 10,-541.7 63,-541.7 63,-522.7 10,-522.7"/>
<text text-anchor="start" x="13" y="-528.8" font-family="Helvetica,sans-Serif" font-size="11.00" fill="#000000">&lt; 0</text>
<polygon fill="#ffffff" stroke="transparent" points="63,-522.7 63,-541.7 107,-541.7 107,-522.7 63,-522.7"/>
<polygon fill="none" stroke="#000000" points="63,-522.7 63,-541.7 107,-541.7 107,-522.7 63,-522.7"/>
<text text-anchor="start" x="97.8862" y="-528.8" font-family="Helvetica,sans-Serif" font-size="11.00" fill="#000000"> &#160;</text>
<polygon fill="#ffffff" stroke="transparent" points="107,-522.7 107,-541.7 174,-541.7 174,-522.7 107,-522.7"/>
<polygon fill="none" stroke="#000000" points="107,-522.7 107,-541.7 174,-541.7 174,-522.7 107,-522.7"/>
<text text-anchor="start" x="155.4053" y="-528.8" font-family="Helvetica,sans-Serif" font-size="11.00" fill="#000000">7 &gt;</text>
<polygon fill="none" stroke="#000000" stroke-width="2" points="9,-521.7 9,-609.7 175,-609.7 175,-521.7 9,-521.7"/>
</a>
</g>
</g>
<!-- allocation&#45;&gt;policy -->
<g id="edge1" class="edge">
<title>allocation:w&#45;&gt;policy:e</title>
<path fill="none" stroke="#000000" d="M279.5892,-1127.7755C247.591,-1123.3218 235.2271,-1102.9208 217,-1069.7 190.4442,-1021.2994 229.2071,-574.7 174,-574.7"/>
<polygon fill="#000000" stroke="#000000" points="286.0164,-1128.1878 293.7695,-1132.2926 290.0082,-1128.4439 294,-1128.7 294,-1128.7 294,-1128.7 290.0082,-1128.4439 294.2305,-1125.1074 286.0164,-1128.1878 286.0164,-1128.1878"/>
<ellipse fill="none" stroke="#000000" cx="282.823" cy="-1127.9829" rx="3.2" ry="3.2"/>
</g>
<!-- prison_configuration -->
<g id="node3" class="node">
<title>prison_configuration</title>
<g id="a_node3"><a xlink:href="../../tables/prison_configuration.html" xlink:title="prison_configuration" target="_top">
<polygon fill="#ffffff" stroke="transparent" points="225,-932.2 225,-1059.2 537,-1059.2 537,-932.2 225,-932.2"/>
<polygon fill="#f5f5f5" stroke="transparent" points="225,-1035.7 225,-1058.7 537,-1058.7 537,-1035.7 225,-1035.7"/>
<polygon fill="none" stroke="#000000" points="225,-1035.7 225,-1058.7 537,-1058.7 537,-1035.7 225,-1035.7"/>
<text text-anchor="start" x="230" y="-1044.3" font-family="Helvetica,sans-Serif" font-weight="bold" font-size="11.00" fill="#000000">prison_configuration</text>
<text text-anchor="start" x="502.0437" y="-1043.8" font-family="Helvetica,sans-Serif" font-size="11.00" fill="#000000">[table]</text>
<polygon fill="#ffffff" stroke="transparent" points="225,-1013.7 225,-1035.7 537,-1035.7 537,-1013.7 225,-1013.7"/>
<polygon fill="none" stroke="#000000" points="225,-1013.7 225,-1035.7 537,-1035.7 537,-1013.7 225,-1013.7"/>
<image xlink:href="../../images/foreignKeys.png" width="11px" height="12px" preserveAspectRatio="xMinYMin meet" x="230" y="-1030.7"/>
<text text-anchor="start" x="245" y="-1020.8" font-family="Helvetica,sans-Serif" font-size="11.00" fill="#000000">prison_code</text>
<polygon fill="#ffffff" stroke="transparent" points="225,-991.7 225,-1013.7 537,-1013.7 537,-991.7 225,-991.7"/>
<polygon fill="none" stroke="#000000" points="225,-991.7 225,-1013.7 537,-1013.7 537,-991.7 225,-991.7"/>
<image xlink:href="../../images/foreignKeys.png" width="11px" height="12px" preserveAspectRatio="xMinYMin meet" x="230" y="-1008.7"/>
<text text-anchor="start" x="245" y="-998.8" font-family="Helvetica,sans-Serif" font-size="11.00" fill="#000000">policy_code</text>
<polygon fill="none" stroke="#000000" points="225,-969.7 225,-991.7 537,-991.7 537,-969.7 225,-969.7"/>
<image xlink:href="../../images/primaryKeys.png" width="11px" height="12px" preserveAspectRatio="xMinYMin meet" x="230" y="-986.7"/>
<text text-anchor="start" x="245" y="-976.8" font-family="Helvetica,sans-Serif" font-size="11.00" fill="#000000">id</text>
<polygon fill="none" stroke="#000000" points="225,-950.7 225,-969.7 537,-969.7 537,-950.7 225,-950.7"/>
<text text-anchor="start" x="228" y="-956.8" font-family="Helvetica,sans-Serif" font-size="11.00" fill="#000000">...</text>
<polygon fill="#ffffff" stroke="transparent" points="225,-931.7 225,-950.7 363,-950.7 363,-931.7 225,-931.7"/>
<polygon fill="none" stroke="#000000" points="225,-931.7 225,-950.7 363,-950.7 363,-931.7 225,-931.7"/>
<text text-anchor="start" x="228" y="-937.8" font-family="Helvetica,sans-Serif" font-size="11.00" fill="#000000">&lt; 1</text>
<polygon fill="#ffffff" stroke="transparent" points="363,-931.7 363,-950.7 466,-950.7 466,-931.7 363,-931.7"/>
<polygon fill="none" stroke="#000000" points="363,-931.7 363,-950.7 466,-950.7 466,-931.7 363,-931.7"/>
<text text-anchor="start" x="424.4956" y="-937.8" font-family="Helvetica,sans-Serif" font-size="11.00" fill="#000000">12 rows</text>
<polygon fill="#ffffff" stroke="transparent" points="466,-931.7 466,-950.7 537,-950.7 537,-931.7 466,-931.7"/>
<polygon fill="none" stroke="#000000" points="466,-931.7 466,-950.7 537,-950.7 537,-931.7 466,-931.7"/>
<text text-anchor="start" x="527.8862" y="-937.8" font-family="Helvetica,sans-Serif" font-size="11.00" fill="#000000"> &#160;</text>
</a>
</g>
</g>
<!-- prison_configuration&#45;&gt;policy -->
<g id="edge2" class="edge">
<title>prison_configuration:w&#45;&gt;policy:e</title>
<path fill="none" stroke="#000000" d="M210.9131,-998.7363C144.3815,-955.5887 264.3587,-574.7 174,-574.7"/>
<polygon fill="#000000" stroke="#000000" points="217.299,-1000.5331 224.0249,-1006.1654 221.1495,-1001.6165 225,-1002.7 225,-1002.7 225,-1002.7 221.1495,-1001.6165 225.9751,-999.2346 217.299,-1000.5331 217.299,-1000.5331"/>
<ellipse fill="none" stroke="#000000" cx="214.2187" cy="-999.6663" rx="3.2" ry="3.2"/>
</g>
<!-- prison_statistic -->
<g id="node4" class="node">
<title>prison_statistic</title>
<g id="a_node4"><a xlink:href="../../tables/prison_statistic.html" xlink:title="prison_statistic" target="_top">
<polygon fill="#ffffff" stroke="transparent" points="233,-762.2 233,-911.2 529,-911.2 529,-762.2 233,-762.2"/>
<polygon fill="#f5f5f5" stroke="transparent" points="233,-887.7 233,-910.7 529,-910.7 529,-887.7 233,-887.7"/>
<polygon fill="none" stroke="#000000" points="233,-887.7 233,-910.7 529,-910.7 529,-887.7 233,-887.7"/>
<text text-anchor="start" x="238" y="-896.3" font-family="Helvetica,sans-Serif" font-weight="bold" font-size="11.00" fill="#000000">prison_statistic</text>
<text text-anchor="start" x="494.0437" y="-895.8" font-family="Helvetica,sans-Serif" font-size="11.00" fill="#000000">[table]</text>
<polygon fill="none" stroke="#000000" points="233,-865.7 233,-887.7 529,-887.7 529,-865.7 233,-865.7"/>
<image xlink:href="../../images/primaryKeys.png" width="11px" height="12px" preserveAspectRatio="xMinYMin meet" x="238" y="-882.7"/>
<text text-anchor="start" x="253" y="-872.8" font-family="Helvetica,sans-Serif" font-size="11.00" fill="#000000">id</text>
<polygon fill="#ffffff" stroke="transparent" points="233,-843.7 233,-865.7 529,-865.7 529,-843.7 233,-843.7"/>
<polygon fill="none" stroke="#000000" points="233,-843.7 233,-865.7 529,-865.7 529,-843.7 233,-843.7"/>
<image xlink:href="../../images/foreignKeys.png" width="11px" height="12px" preserveAspectRatio="xMinYMin meet" x="238" y="-860.7"/>
<text text-anchor="start" x="253" y="-850.8" font-family="Helvetica,sans-Serif" font-size="11.00" fill="#000000">prison_code</text>
<polygon fill="#ffffff" stroke="transparent" points="233,-821.7 233,-843.7 529,-843.7 529,-821.7 233,-821.7"/>
<polygon fill="none" stroke="#000000" points="233,-821.7 233,-843.7 529,-843.7 529,-821.7 233,-821.7"/>
<text text-anchor="start" x="253" y="-828.8" font-family="Helvetica,sans-Serif" font-size="11.00" fill="#000000">statistic_date</text>
<polygon fill="none" stroke="#000000" points="233,-799.7 233,-821.7 529,-821.7 529,-799.7 233,-799.7"/>
<image xlink:href="../../images/foreignKeys.png" width="11px" height="12px" preserveAspectRatio="xMinYMin meet" x="238" y="-816.7"/>
<text text-anchor="start" x="253" y="-806.8" font-family="Helvetica,sans-Serif" font-size="11.00" fill="#000000">policy_code</text>
<polygon fill="none" stroke="#000000" points="233,-780.7 233,-799.7 529,-799.7 529,-780.7 233,-780.7"/>
<text text-anchor="start" x="236" y="-786.8" font-family="Helvetica,sans-Serif" font-size="11.00" fill="#000000">...</text>
<polygon fill="#ffffff" stroke="transparent" points="233,-761.7 233,-780.7 379,-780.7 379,-761.7 233,-761.7"/>
<polygon fill="none" stroke="#000000" points="233,-761.7 233,-780.7 379,-780.7 379,-761.7 233,-761.7"/>
<text text-anchor="start" x="236" y="-767.8" font-family="Helvetica,sans-Serif" font-size="11.00" fill="#000000">&lt; 1</text>
<polygon fill="#ffffff" stroke="transparent" points="379,-761.7 379,-780.7 454,-780.7 454,-761.7 379,-761.7"/>
<polygon fill="none" stroke="#000000" points="379,-761.7 379,-780.7 454,-780.7 454,-761.7 379,-761.7"/>
<text text-anchor="start" x="444.8862" y="-767.8" font-family="Helvetica,sans-Serif" font-size="11.00" fill="#000000"> &#160;</text>
<polygon fill="#ffffff" stroke="transparent" points="454,-761.7 454,-780.7 529,-780.7 529,-761.7 454,-761.7"/>
<polygon fill="none" stroke="#000000" points="454,-761.7 454,-780.7 529,-780.7 529,-761.7 454,-761.7"/>
<text text-anchor="start" x="519.8862" y="-767.8" font-family="Helvetica,sans-Serif" font-size="11.00" fill="#000000"> &#160;</text>
</a>
</g>
</g>
<!-- prison_statistic&#45;&gt;policy -->
<g id="edge3" class="edge">
<title>prison_statistic:w&#45;&gt;policy:e</title>
<path fill="none" stroke="#000000" d="M218.5124,-808.9361C140.1678,-787.3398 276.6267,-574.7 174,-574.7"/>
<polygon fill="#000000" stroke="#000000" points="225.0586,-809.7331 232.5649,-814.2736 229.0293,-810.2165 233,-810.7 233,-810.7 233,-810.7 229.0293,-810.2165 233.4351,-807.1264 225.0586,-809.7331 225.0586,-809.7331"/>
<ellipse fill="none" stroke="#000000" cx="221.8821" cy="-809.3463" rx="3.2" ry="3.2"/>
</g>
<!-- recorded_event -->
<g id="node5" class="node">
<title>recorded_event</title>
<g id="a_node5"><a xlink:href="../../tables/recorded_event.html" xlink:title="recorded_event" target="_top">
<polygon fill="#ffffff" stroke="transparent" points="309,-504.2 309,-741.2 453,-741.2 453,-504.2 309,-504.2"/>
<polygon fill="#f5f5f5" stroke="transparent" points="309,-717.7 309,-740.7 453,-740.7 453,-717.7 309,-717.7"/>
<polygon fill="none" stroke="#000000" points="309,-717.7 309,-740.7 453,-740.7 453,-717.7 309,-717.7"/>
<text text-anchor="start" x="314" y="-726.3" font-family="Helvetica,sans-Serif" font-weight="bold" font-size="11.00" fill="#000000">recorded_event</text>
<text text-anchor="start" x="418.5219" y="-725.8" font-family="Helvetica,sans-Serif" font-size="11.00" fill="#000000">[table]</text>
<polygon fill="none" stroke="#000000" points="309,-695.7 309,-717.7 453,-717.7 453,-695.7 309,-695.7"/>
<image xlink:href="../../images/primaryKeys.png" width="11px" height="12px" preserveAspectRatio="xMinYMin meet" x="314" y="-712.7"/>
<text text-anchor="start" x="333" y="-702.8" font-family="Helvetica,sans-Serif" font-size="11.00" fill="#000000">id</text>
<polygon fill="#ffffff" stroke="transparent" points="309,-673.7 309,-695.7 453,-695.7 453,-673.7 309,-673.7"/>
<polygon fill="none" stroke="#000000" points="309,-673.7 309,-695.7 453,-695.7 453,-673.7 309,-673.7"/>
<image xlink:href="../../images/foreignKeys.png" width="11px" height="12px" preserveAspectRatio="xMinYMin meet" x="314" y="-690.7"/>
<text text-anchor="start" x="333" y="-680.8" font-family="Helvetica,sans-Serif" font-size="11.00" fill="#000000">prison_code</text>
<polygon fill="#ffffff" stroke="transparent" points="309,-651.7 309,-673.7 453,-673.7 453,-651.7 309,-651.7"/>
<polygon fill="none" stroke="#000000" points="309,-651.7 309,-673.7 453,-673.7 453,-651.7 309,-651.7"/>
<text text-anchor="start" x="333" y="-658.8" font-family="Helvetica,sans-Serif" font-size="11.00" fill="#000000">person_identifier</text>
<polygon fill="#ffffff" stroke="transparent" points="309,-629.7 309,-651.7 453,-651.7 453,-629.7 309,-629.7"/>
<polygon fill="none" stroke="#000000" points="309,-629.7 309,-651.7 453,-651.7 453,-629.7 309,-629.7"/>
<text text-anchor="start" x="333" y="-636.8" font-family="Helvetica,sans-Serif" font-size="11.00" fill="#000000">staff_id</text>
<polygon fill="#ffffff" stroke="transparent" points="309,-607.7 309,-629.7 453,-629.7 453,-607.7 309,-607.7"/>
<polygon fill="none" stroke="#000000" points="309,-607.7 309,-629.7 453,-629.7 453,-607.7 309,-607.7"/>
<text text-anchor="start" x="333" y="-614.8" font-family="Helvetica,sans-Serif" font-size="11.00" fill="#000000">occurred_at</text>
<polygon fill="#ffffff" stroke="transparent" points="309,-585.7 309,-607.7 453,-607.7 453,-585.7 309,-585.7"/>
<polygon fill="none" stroke="#000000" points="309,-585.7 309,-607.7 453,-607.7 453,-585.7 309,-585.7"/>
<text text-anchor="start" x="333" y="-592.8" font-family="Helvetica,sans-Serif" font-size="11.00" fill="#000000">created_at</text>
<polygon fill="#ffffff" stroke="transparent" points="309,-563.7 309,-585.7 453,-585.7 453,-563.7 309,-563.7"/>
<polygon fill="none" stroke="#000000" points="309,-563.7 309,-585.7 453,-585.7 453,-563.7 309,-563.7"/>
<image xlink:href="../../images/foreignKeys.png" width="11px" height="12px" preserveAspectRatio="xMinYMin meet" x="314" y="-580.7"/>
<text text-anchor="start" x="333" y="-570.8" font-family="Helvetica,sans-Serif" font-size="11.00" fill="#000000">policy_code</text>
<polygon fill="#ffffff" stroke="transparent" points="309,-541.7 309,-563.7 453,-563.7 453,-541.7 309,-541.7"/>
<polygon fill="none" stroke="#000000" points="309,-541.7 309,-563.7 453,-563.7 453,-541.7 309,-541.7"/>
<image xlink:href="../../images/foreignKeys.png" width="11px" height="12px" preserveAspectRatio="xMinYMin meet" x="314" y="-558.7"/>
<text text-anchor="start" x="333" y="-548.8" font-family="Helvetica,sans-Serif" font-size="11.00" fill="#000000">type_id</text>
<polygon fill="none" stroke="#000000" points="309,-522.7 309,-541.7 453,-541.7 453,-522.7 309,-522.7"/>
<text text-anchor="start" x="312" y="-528.8" font-family="Helvetica,sans-Serif" font-size="11.00" fill="#000000">...</text>
<polygon fill="#ffffff" stroke="transparent" points="309,-503.7 309,-522.7 379,-522.7 379,-503.7 309,-503.7"/>
<polygon fill="none" stroke="#000000" points="309,-503.7 309,-522.7 379,-522.7 379,-503.7 309,-503.7"/>
<text text-anchor="start" x="312" y="-509.8" font-family="Helvetica,sans-Serif" font-size="11.00" fill="#000000">&lt; 2</text>
<polygon fill="#ffffff" stroke="transparent" points="379,-503.7 379,-522.7 416,-522.7 416,-503.7 379,-503.7"/>
<polygon fill="none" stroke="#000000" points="379,-503.7 379,-522.7 416,-522.7 416,-503.7 379,-503.7"/>
<text text-anchor="start" x="406.8862" y="-509.8" font-family="Helvetica,sans-Serif" font-size="11.00" fill="#000000"> &#160;</text>
<polygon fill="#ffffff" stroke="transparent" points="416,-503.7 416,-522.7 453,-522.7 453,-503.7 416,-503.7"/>
<polygon fill="none" stroke="#000000" points="416,-503.7 416,-522.7 453,-522.7 453,-503.7 416,-503.7"/>
<text text-anchor="start" x="443.8862" y="-509.8" font-family="Helvetica,sans-Serif" font-size="11.00" fill="#000000"> &#160;</text>
</a>
</g>
</g>
<!-- recorded_event&#45;&gt;policy -->
<g id="edge4" class="edge">
<title>recorded_event:w&#45;&gt;policy:e</title>
<path fill="none" stroke="#000000" d="M294.4711,-574.7C246.0895,-574.7 228.8438,-574.7 174,-574.7"/>
<polygon fill="#000000" stroke="#000000" points="301,-574.7001 309,-578.3 305,-574.7 309,-574.7 309,-574.7 309,-574.7 305,-574.7 309,-571.1 301,-574.7001 301,-574.7001"/>
<ellipse fill="none" stroke="#000000" cx="297.8" cy="-574.7001" rx="3.2" ry="3.2"/>
</g>
<!-- recorded_event_audit -->
<g id="node6" class="node">
<title>recorded_event_audit</title>
<g id="a_node6"><a xlink:href="../../tables/recorded_event_audit.html" xlink:title="recorded_event_audit" target="_top">
<polygon fill="#ffffff" stroke="transparent" points="288.5,-334.2 288.5,-483.2 473.5,-483.2 473.5,-334.2 288.5,-334.2"/>
<polygon fill="#f5f5f5" stroke="transparent" points="289,-459.7 289,-482.7 474,-482.7 474,-459.7 289,-459.7"/>
<polygon fill="none" stroke="#000000" points="289,-459.7 289,-482.7 474,-482.7 474,-459.7 289,-459.7"/>
<text text-anchor="start" x="294" y="-468.3" font-family="Helvetica,sans-Serif" font-weight="bold" font-size="11.00" fill="#000000">recorded_event_audit</text>
<text text-anchor="start" x="439.5219" y="-467.8" font-family="Helvetica,sans-Serif" font-size="11.00" fill="#000000">[table]</text>
<polygon fill="#ffffff" stroke="transparent" points="289,-437.7 289,-459.7 474,-459.7 474,-437.7 289,-437.7"/>
<polygon fill="none" stroke="#000000" points="289,-437.7 289,-459.7 474,-459.7 474,-437.7 289,-437.7"/>
<image xlink:href="../../images/foreignKeys.png" width="11px" height="12px" preserveAspectRatio="xMinYMin meet" x="294" y="-454.7"/>
<text text-anchor="start" x="318" y="-444.8" font-family="Helvetica,sans-Serif" font-size="11.00" fill="#000000">rev_id</text>
<polygon fill="#ffffff" stroke="transparent" points="289,-415.7 289,-437.7 474,-437.7 474,-415.7 289,-415.7"/>
<polygon fill="none" stroke="#000000" points="289,-415.7 289,-437.7 474,-437.7 474,-415.7 289,-415.7"/>
<text text-anchor="start" x="318" y="-422.8" font-family="Helvetica,sans-Serif" font-size="11.00" fill="#000000">id</text>
<polygon fill="none" stroke="#000000" points="289,-393.7 289,-415.7 474,-415.7 474,-393.7 289,-393.7"/>
<image xlink:href="../../images/foreignKeys.png" width="11px" height="12px" preserveAspectRatio="xMinYMin meet" x="294" y="-410.7"/>
<text text-anchor="start" x="318" y="-400.8" font-family="Helvetica,sans-Serif" font-size="11.00" fill="#000000">prison_code</text>
<polygon fill="none" stroke="#000000" points="289,-371.7 289,-393.7 474,-393.7 474,-371.7 289,-371.7"/>
<image xlink:href="../../images/foreignKeys.png" width="11px" height="12px" preserveAspectRatio="xMinYMin meet" x="294" y="-388.7"/>
<text text-anchor="start" x="318" y="-378.8" font-family="Helvetica,sans-Serif" font-size="11.00" fill="#000000">policy_code</text>
<polygon fill="none" stroke="#000000" points="289,-352.7 289,-371.7 474,-371.7 474,-352.7 289,-352.7"/>
<text text-anchor="start" x="292" y="-358.8" font-family="Helvetica,sans-Serif" font-size="11.00" fill="#000000">...</text>
<polygon fill="#ffffff" stroke="transparent" points="289,-333.7 289,-352.7 380,-352.7 380,-333.7 289,-333.7"/>
<polygon fill="none" stroke="#000000" points="289,-333.7 289,-352.7 380,-352.7 380,-333.7 289,-333.7"/>
<text text-anchor="start" x="292" y="-339.8" font-family="Helvetica,sans-Serif" font-size="11.00" fill="#000000">&lt; 2</text>
<polygon fill="#ffffff" stroke="transparent" points="380,-333.7 380,-352.7 427,-352.7 427,-333.7 380,-333.7"/>
<polygon fill="none" stroke="#000000" points="380,-333.7 380,-352.7 427,-352.7 427,-333.7 380,-333.7"/>
<text text-anchor="start" x="417.8862" y="-339.8" font-family="Helvetica,sans-Serif" font-size="11.00" fill="#000000"> &#160;</text>
<polygon fill="#ffffff" stroke="transparent" points="427,-333.7 427,-352.7 474,-352.7 474,-333.7 427,-333.7"/>
<polygon fill="none" stroke="#000000" points="427,-333.7 427,-352.7 474,-352.7 474,-333.7 427,-333.7"/>
<text text-anchor="start" x="464.8862" y="-339.8" font-family="Helvetica,sans-Serif" font-size="11.00" fill="#000000"> &#160;</text>
</a>
</g>
</g>
<!-- recorded_event_audit&#45;&gt;policy -->
<g id="edge5" class="edge">
<title>recorded_event_audit:w&#45;&gt;policy:e</title>
<path fill="none" stroke="#000000" d="M274.6186,-384.1707C232.8567,-393.6925 244.0776,-447.6686 217,-493.7 196.3346,-528.8308 214.7582,-574.7 174,-574.7"/>
<polygon fill="#000000" stroke="#000000" points="281.0415,-383.5139 289.3663,-386.2813 285.0208,-383.107 289,-382.7 289,-382.7 289,-382.7 285.0208,-383.107 288.6337,-379.1187 281.0415,-383.5139 281.0415,-383.5139"/>
<ellipse fill="none" stroke="#000000" cx="277.8581" cy="-383.8395" rx="3.2" ry="3.2"/>
</g>
<!-- reference_data_policy -->
<g id="node7" class="node">
<title>reference_data_policy</title>
<g id="a_node7"><a xlink:href="../../tables/reference_data_policy.html" xlink:title="reference_data_policy" target="_top">
<polygon fill="#ffffff" stroke="transparent" points="288,-208.2 288,-313.2 474,-313.2 474,-208.2 288,-208.2"/>
<polygon fill="#f5f5f5" stroke="transparent" points="288,-289.7 288,-312.7 474,-312.7 474,-289.7 288,-289.7"/>
<polygon fill="none" stroke="#000000" points="288,-289.7 288,-312.7 474,-312.7 474,-289.7 288,-289.7"/>
<text text-anchor="start" x="293" y="-298.3" font-family="Helvetica,sans-Serif" font-weight="bold" font-size="11.00" fill="#000000">reference_data_policy</text>
<text text-anchor="start" x="439.5219" y="-297.8" font-family="Helvetica,sans-Serif" font-size="11.00" fill="#000000">[table]</text>
<polygon fill="#ffffff" stroke="transparent" points="288,-267.7 288,-289.7 474,-289.7 474,-267.7 288,-267.7"/>
<polygon fill="none" stroke="#000000" points="288,-267.7 288,-289.7 474,-289.7 474,-267.7 288,-267.7"/>
<image xlink:href="../../images/foreignKeys.png" width="11px" height="12px" preserveAspectRatio="xMinYMin meet" x="293" y="-284.7"/>
<text text-anchor="start" x="317" y="-274.8" font-family="Helvetica,sans-Serif" font-size="11.00" fill="#000000">id</text>
<polygon fill="#ffffff" stroke="transparent" points="288,-245.7 288,-267.7 474,-267.7 474,-245.7 288,-245.7"/>
<polygon fill="none" stroke="#000000" points="288,-245.7 288,-267.7 474,-267.7 474,-245.7 288,-245.7"/>
<image xlink:href="../../images/foreignKeys.png" width="11px" height="12px" preserveAspectRatio="xMinYMin meet" x="293" y="-262.7"/>
<text text-anchor="start" x="317" y="-252.8" font-family="Helvetica,sans-Serif" font-size="11.00" fill="#000000">policy_code</text>
<polygon fill="none" stroke="#000000" points="288,-226.7 288,-245.7 474,-245.7 474,-226.7 288,-226.7"/>
<text text-anchor="start" x="291" y="-232.8" font-family="Helvetica,sans-Serif" font-size="11.00" fill="#000000">...</text>
<polygon fill="#ffffff" stroke="transparent" points="288,-207.7 288,-226.7 363,-226.7 363,-207.7 288,-207.7"/>
<polygon fill="none" stroke="#000000" points="288,-207.7 288,-226.7 363,-226.7 363,-207.7 288,-207.7"/>
<text text-anchor="start" x="291" y="-213.8" font-family="Helvetica,sans-Serif" font-size="11.00" fill="#000000">&lt; 2</text>
<polygon fill="#ffffff" stroke="transparent" points="363,-207.7 363,-226.7 434,-226.7 434,-207.7 363,-207.7"/>
<polygon fill="none" stroke="#000000" points="363,-207.7 363,-226.7 434,-226.7 434,-207.7 363,-207.7"/>
<text text-anchor="start" x="392.4956" y="-213.8" font-family="Helvetica,sans-Serif" font-size="11.00" fill="#000000">84 rows</text>
<polygon fill="#ffffff" stroke="transparent" points="434,-207.7 434,-226.7 474,-226.7 474,-207.7 434,-207.7"/>
<polygon fill="none" stroke="#000000" points="434,-207.7 434,-226.7 474,-226.7 474,-207.7 434,-207.7"/>
<text text-anchor="start" x="464.8862" y="-213.8" font-family="Helvetica,sans-Serif" font-size="11.00" fill="#000000"> &#160;</text>
</a>
</g>
</g>
<!-- reference_data_policy&#45;&gt;policy -->
<g id="edge6" class="edge">
<title>reference_data_policy:w&#45;&gt;policy:e</title>
<path fill="none" stroke="#000000" d="M273.333,-258.0104C242.6245,-264.038 234.9345,-290.2393 217,-323.7 190.2662,-373.5776 230.5904,-574.7 174,-574.7"/>
<polygon fill="#000000" stroke="#000000" points="280.0317,-257.412 288.3204,-260.2857 284.0159,-257.056 288,-256.7 288,-256.7 288,-256.7 284.0159,-257.056 287.6796,-253.1143 280.0317,-257.412 280.0317,-257.412"/>
<ellipse fill="none" stroke="#000000" cx="276.8444" cy="-257.6968" rx="3.2" ry="3.2"/>
</g>
<!-- staff_configuration -->
<g id="node8" class="node">
<title>staff_configuration</title>
<g id="a_node8"><a xlink:href="../../tables/staff_configuration.html" xlink:title="staff_configuration" target="_top">
<polygon fill="#ffffff" stroke="transparent" points="297.5,-38.2 297.5,-187.2 464.5,-187.2 464.5,-38.2 297.5,-38.2"/>
<polygon fill="#f5f5f5" stroke="transparent" points="298,-163.7 298,-186.7 465,-186.7 465,-163.7 298,-163.7"/>
<polygon fill="none" stroke="#000000" points="298,-163.7 298,-186.7 465,-186.7 465,-163.7 298,-163.7"/>
<text text-anchor="start" x="303" y="-172.3" font-family="Helvetica,sans-Serif" font-weight="bold" font-size="11.00" fill="#000000">staff_configuration</text>
<text text-anchor="start" x="430.5219" y="-171.8" font-family="Helvetica,sans-Serif" font-size="11.00" fill="#000000">[table]</text>
<polygon fill="#ffffff" stroke="transparent" points="298,-141.7 298,-163.7 465,-163.7 465,-141.7 298,-141.7"/>
<polygon fill="none" stroke="#000000" points="298,-141.7 298,-163.7 465,-163.7 465,-141.7 298,-141.7"/>
<text text-anchor="start" x="319" y="-148.8" font-family="Helvetica,sans-Serif" font-size="11.00" fill="#000000">staff_id</text>
<polygon fill="none" stroke="#000000" points="298,-119.7 298,-141.7 465,-141.7 465,-119.7 298,-119.7"/>
<image xlink:href="../../images/foreignKeys.png" width="11px" height="12px" preserveAspectRatio="xMinYMin meet" x="303" y="-136.7"/>
<text text-anchor="start" x="319" y="-126.8" font-family="Helvetica,sans-Serif" font-size="11.00" fill="#000000">status_id</text>
<polygon fill="#ffffff" stroke="transparent" points="298,-97.7 298,-119.7 465,-119.7 465,-97.7 298,-97.7"/>
<polygon fill="none" stroke="#000000" points="298,-97.7 298,-119.7 465,-119.7 465,-97.7 298,-97.7"/>
<image xlink:href="../../images/foreignKeys.png" width="11px" height="12px" preserveAspectRatio="xMinYMin meet" x="303" y="-114.7"/>
<text text-anchor="start" x="319" y="-104.8" font-family="Helvetica,sans-Serif" font-size="11.00" fill="#000000">policy_code</text>
<polygon fill="none" stroke="#000000" points="298,-75.7 298,-97.7 465,-97.7 465,-75.7 298,-75.7"/>
<image xlink:href="../../images/primaryKeys.png" width="11px" height="12px" preserveAspectRatio="xMinYMin meet" x="303" y="-92.7"/>
<text text-anchor="start" x="319" y="-82.8" font-family="Helvetica,sans-Serif" font-size="11.00" fill="#000000">id</text>
<polygon fill="none" stroke="#000000" points="298,-56.7 298,-75.7 465,-75.7 465,-56.7 298,-56.7"/>
<text text-anchor="start" x="301" y="-62.8" font-family="Helvetica,sans-Serif" font-size="11.00" fill="#000000">...</text>
<polygon fill="#ffffff" stroke="transparent" points="298,-37.7 298,-56.7 380,-56.7 380,-37.7 298,-37.7"/>
<polygon fill="none" stroke="#000000" points="298,-37.7 298,-56.7 380,-56.7 380,-37.7 298,-37.7"/>
<text text-anchor="start" x="301" y="-43.8" font-family="Helvetica,sans-Serif" font-size="11.00" fill="#000000">&lt; 2</text>
<polygon fill="#ffffff" stroke="transparent" points="380,-37.7 380,-56.7 422,-56.7 422,-37.7 380,-37.7"/>
<polygon fill="none" stroke="#000000" points="380,-37.7 380,-56.7 422,-56.7 422,-37.7 380,-37.7"/>
<text text-anchor="start" x="412.8862" y="-43.8" font-family="Helvetica,sans-Serif" font-size="11.00" fill="#000000"> &#160;</text>
<polygon fill="#ffffff" stroke="transparent" points="422,-37.7 422,-56.7 465,-56.7 465,-37.7 422,-37.7"/>
<polygon fill="none" stroke="#000000" points="422,-37.7 422,-56.7 465,-56.7 465,-37.7 422,-37.7"/>
<text text-anchor="start" x="455.8862" y="-43.8" font-family="Helvetica,sans-Serif" font-size="11.00" fill="#000000"> &#160;</text>
</a>
</g>
</g>
<!-- staff_configuration&#45;&gt;policy -->
<g id="edge7" class="edge">
<title>staff_configuration:w&#45;&gt;policy:e</title>
<path fill="none" stroke="#000000" d="M283.384,-109.8679C243.2708,-116.8109 236.8989,-153.8461 217,-197.7 182.1582,-274.4859 258.321,-574.7 174,-574.7"/>
<polygon fill="#000000" stroke="#000000" points="290.0254,-109.3373 298.2868,-112.2886 294.0127,-109.0186 298,-108.7 298,-108.7 298,-108.7 294.0127,-109.0186 297.7132,-105.1114 290.0254,-109.3373 290.0254,-109.3373"/>
<ellipse fill="none" stroke="#000000" cx="286.8356" cy="-109.5922" rx="3.2" ry="3.2"/>
</g>
</g>
</svg>
