<?xml version="1.0" encoding="UTF-8" standalone="no"?>
<!DOCTYPE svg PUBLIC "-//W3C//DTD SVG 1.1//EN"
 "http://www.w3.org/Graphics/SVG/1.1/DTD/svg11.dtd">
<!-- Generated by graphviz version 2.40.1 (20161225.0304)
 -->
<!-- Title: twoDegreesRelationshipsDiagramImplied Pages: 1 -->
<svg width="726pt" height="869pt"
 viewBox="0.00 0.00 726.00 869.20" xmlns="http://www.w3.org/2000/svg" xmlns:xlink="http://www.w3.org/1999/xlink">
<g id="graph0" class="graph" transform="scale(1 1) rotate(0) translate(4 865.2)">
<title>twoDegreesRelationshipsDiagramImplied</title>
<polygon fill="#ffffff" stroke="transparent" points="-4,4 -4,-865.2 722,-865.2 722,4 -4,4"/>
<text text-anchor="middle" x="72.4936" y="-7.3" font-family="Helvetica,sans-Serif" font-size="11.00" fill="#000000">Generated by SchemaSpy</text>
<!-- keyworker_entry -->
<g id="node1" class="node">
<title>keyworker_entry</title>
<g id="a_node1"><a xlink:href="../../tables/keyworker_entry.html" xlink:title="keyworker_entry" target="_top">
<polygon fill="#ffffff" stroke="transparent" points="429,-796.2 429,-857.2 581,-857.2 581,-796.2 429,-796.2"/>
<polygon fill="#f5f5f5" stroke="transparent" points="429,-833.7 429,-856.7 581,-856.7 581,-833.7 429,-833.7"/>
<polygon fill="none" stroke="#000000" points="429,-833.7 429,-856.7 581,-856.7 581,-833.7 429,-833.7"/>
<text text-anchor="start" x="434" y="-842.3" font-family="Helvetica,sans-Serif" font-weight="bold" font-size="11.00" fill="#000000">keyworker_entry</text>
<text text-anchor="start" x="546.5219" y="-841.8" font-family="Helvetica,sans-Serif" font-size="11.00" fill="#000000">[table]</text>
<polygon fill="none" stroke="#000000" points="429,-814.7 429,-833.7 581,-833.7 581,-814.7 429,-814.7"/>
<text text-anchor="start" x="432" y="-820.8" font-family="Helvetica,sans-Serif" font-size="11.00" fill="#000000">...</text>
<polygon fill="#ffffff" stroke="transparent" points="429,-795.7 429,-814.7 503,-814.7 503,-795.7 429,-795.7"/>
<polygon fill="none" stroke="#000000" points="429,-795.7 429,-814.7 503,-814.7 503,-795.7 429,-795.7"/>
<text text-anchor="start" x="432" y="-801.8" font-family="Helvetica,sans-Serif" font-size="11.00" fill="#000000">&lt; 1</text>
<polygon fill="#ffffff" stroke="transparent" points="503,-795.7 503,-814.7 542,-814.7 542,-795.7 503,-795.7"/>
<polygon fill="none" stroke="#000000" points="503,-795.7 503,-814.7 542,-814.7 542,-795.7 503,-795.7"/>
<text text-anchor="start" x="532.8862" y="-801.8" font-family="Helvetica,sans-Serif" font-size="11.00" fill="#000000"> &#160;</text>
<polygon fill="#ffffff" stroke="transparent" points="542,-795.7 542,-814.7 581,-814.7 581,-795.7 542,-795.7"/>
<polygon fill="none" stroke="#000000" points="542,-795.7 542,-814.7 581,-814.7 581,-795.7 542,-795.7"/>
<text text-anchor="start" x="571.8862" y="-801.8" font-family="Helvetica,sans-Serif" font-size="11.00" fill="#000000"> &#160;</text>
</a>
</g>
</g>
<!-- prison_migration_date_history -->
<g id="node2" class="node">
<title>prison_migration_date_history</title>
<g id="a_node2"><a xlink:href="../../tables/prison_migration_date_history.html" xlink:title="prison_migration_date_history" target="_top">
<polygon fill="#ffffff" stroke="transparent" points="8,-570.2 8,-653.2 251,-653.2 251,-570.2 8,-570.2"/>
<polygon fill="#f5f5f5" stroke="transparent" points="8.5,-629.7 8.5,-652.7 251.5,-652.7 251.5,-629.7 8.5,-629.7"/>
<polygon fill="none" stroke="#000000" points="8.5,-629.7 8.5,-652.7 251.5,-652.7 251.5,-629.7 8.5,-629.7"/>
<text text-anchor="start" x="13.5" y="-638.3" font-family="Helvetica,sans-Serif" font-weight="bold" font-size="11.00" fill="#000000">prison_migration_date_history</text>
<text text-anchor="start" x="217.0219" y="-637.8" font-family="Helvetica,sans-Serif" font-size="11.00" fill="#000000">[table]</text>
<polygon fill="none" stroke="#000000" points="8.5,-607.7 8.5,-629.7 251.5,-629.7 251.5,-607.7 8.5,-607.7"/>
<image xlink:href="../../images/primaryKeys.png" width="11px" height="12px" preserveAspectRatio="xMinYMin meet" x="13.5" y="-624.7"/>
<text text-anchor="start" x="37.5" y="-614.8" font-family="Helvetica,sans-Serif" font-size="11.00" fill="#000000">prison_code</text>
<polygon fill="none" stroke="#000000" points="8.5,-588.7 8.5,-607.7 251.5,-607.7 251.5,-588.7 8.5,-588.7"/>
<text text-anchor="start" x="11.5" y="-594.8" font-family="Helvetica,sans-Serif" font-size="11.00" fill="#000000">...</text>
<polygon fill="#ffffff" stroke="transparent" points="8.5,-569.7 8.5,-588.7 119.5,-588.7 119.5,-569.7 8.5,-569.7"/>
<polygon fill="none" stroke="#000000" points="8.5,-569.7 8.5,-588.7 119.5,-588.7 119.5,-569.7 8.5,-569.7"/>
<text text-anchor="start" x="11.5" y="-575.8" font-family="Helvetica,sans-Serif" font-size="11.00" fill="#000000"> &#160;</text>
<polygon fill="#ffffff" stroke="transparent" points="119.5,-569.7 119.5,-588.7 180.5,-588.7 180.5,-569.7 119.5,-569.7"/>
<polygon fill="none" stroke="#000000" points="119.5,-569.7 119.5,-588.7 180.5,-588.7 180.5,-569.7 119.5,-569.7"/>
<text text-anchor="start" x="171.3862" y="-575.8" font-family="Helvetica,sans-Serif" font-size="11.00" fill="#000000"> &#160;</text>
<polygon fill="#ffffff" stroke="transparent" points="180.5,-569.7 180.5,-588.7 251.5,-588.7 251.5,-569.7 180.5,-569.7"/>
<polygon fill="none" stroke="#000000" points="180.5,-569.7 180.5,-588.7 251.5,-588.7 251.5,-569.7 180.5,-569.7"/>
<text text-anchor="start" x="232.9053" y="-575.8" font-family="Helvetica,sans-Serif" font-size="11.00" fill="#000000">6 &gt;</text>
</a>
</g>
</g>
<!-- keyworker_entry&#45;&gt;prison_migration_date_history -->
<g id="edge1" class="edge">
<title>keyworker_entry:w&#45;&gt;prison_migration_date_history:e</title>
<path fill="none" stroke="#000000" stroke-dasharray="5,2" d="M414.4368,-823.8115C360.9386,-824.5471 332.4261,-827.468 292,-785.7 238.8844,-730.8213 327.8737,-618.7 251.5,-618.7"/>
<polygon fill="#000000" stroke="#000000" points="421.0002,-823.7613 429.0276,-827.2999 425.0001,-823.7307 429,-823.7 429,-823.7 429,-823.7 425.0001,-823.7307 428.9724,-820.1001 421.0002,-823.7613 421.0002,-823.7613"/>
<ellipse fill="none" stroke="#000000" cx="417.8003" cy="-823.7858" rx="3.2" ry="3.2"/>
</g>
<!-- keyworker_session -->
<g id="node3" class="node">
<title>keyworker_session</title>
<g id="a_node3"><a xlink:href="../../tables/keyworker_session.html" xlink:title="keyworker_session" target="_top">
<polygon fill="#ffffff" stroke="transparent" points="422,-714.2 422,-775.2 588,-775.2 588,-714.2 422,-714.2"/>
<polygon fill="#f5f5f5" stroke="transparent" points="422,-751.7 422,-774.7 588,-774.7 588,-751.7 422,-751.7"/>
<polygon fill="none" stroke="#000000" points="422,-751.7 422,-774.7 588,-774.7 588,-751.7 422,-751.7"/>
<text text-anchor="start" x="427" y="-760.3" font-family="Helvetica,sans-Serif" font-weight="bold" font-size="11.00" fill="#000000">keyworker_session</text>
<text text-anchor="start" x="553.5219" y="-759.8" font-family="Helvetica,sans-Serif" font-size="11.00" fill="#000000">[table]</text>
<polygon fill="none" stroke="#000000" points="422,-732.7 422,-751.7 588,-751.7 588,-732.7 422,-732.7"/>
<text text-anchor="start" x="425" y="-738.8" font-family="Helvetica,sans-Serif" font-size="11.00" fill="#000000">...</text>
<polygon fill="#ffffff" stroke="transparent" points="422,-713.7 422,-732.7 503,-732.7 503,-713.7 422,-713.7"/>
<polygon fill="none" stroke="#000000" points="422,-713.7 422,-732.7 503,-732.7 503,-713.7 422,-713.7"/>
<text text-anchor="start" x="425" y="-719.8" font-family="Helvetica,sans-Serif" font-size="11.00" fill="#000000">&lt; 1</text>
<polygon fill="#ffffff" stroke="transparent" points="503,-713.7 503,-732.7 545,-732.7 545,-713.7 503,-713.7"/>
<polygon fill="none" stroke="#000000" points="503,-713.7 503,-732.7 545,-732.7 545,-713.7 503,-713.7"/>
<text text-anchor="start" x="535.8862" y="-719.8" font-family="Helvetica,sans-Serif" font-size="11.00" fill="#000000"> &#160;</text>
<polygon fill="#ffffff" stroke="transparent" points="545,-713.7 545,-732.7 588,-732.7 588,-713.7 545,-713.7"/>
<polygon fill="none" stroke="#000000" points="545,-713.7 545,-732.7 588,-732.7 588,-713.7 545,-713.7"/>
<text text-anchor="start" x="578.8862" y="-719.8" font-family="Helvetica,sans-Serif" font-size="11.00" fill="#000000"> &#160;</text>
</a>
</g>
</g>
<!-- keyworker_session&#45;&gt;prison_migration_date_history -->
<g id="edge2" class="edge">
<title>keyworker_session:w&#45;&gt;prison_migration_date_history:e</title>
<path fill="none" stroke="#000000" stroke-dasharray="5,2" d="M407.5657,-741.6973C357.6241,-741.5891 333.9858,-739.4438 292,-703.7 260.1362,-676.5733 293.3469,-618.7 251.5,-618.7"/>
<polygon fill="#000000" stroke="#000000" points="414,-741.6984 421.9993,-745.3 418,-741.6992 422,-741.7 422,-741.7 422,-741.7 418,-741.6992 422.0007,-738.1 414,-741.6984 414,-741.6984"/>
<ellipse fill="none" stroke="#000000" cx="410.8" cy="-741.6978" rx="3.2" ry="3.2"/>
</g>
<!-- prison_configuration -->
<g id="node4" class="node">
<title>prison_configuration</title>
<g id="a_node4"><a xlink:href="../../tables/prison_configuration.html" xlink:title="prison_configuration" target="_top">
<polygon fill="#ffffff" stroke="transparent" points="300,-284.7 300,-528.7 710,-528.7 710,-284.7 300,-284.7"/>
<polygon fill="#f5f5f5" stroke="transparent" points="302,-503.7 302,-526.7 708,-526.7 708,-503.7 302,-503.7"/>
<polygon fill="none" stroke="#000000" points="302,-503.7 302,-526.7 708,-526.7 708,-503.7 302,-503.7"/>
<text text-anchor="start" x="307" y="-512.3" font-family="Helvetica,sans-Serif" font-weight="bold" font-size="11.00" fill="#000000">prison_configuration</text>
<text text-anchor="start" x="673.0437" y="-511.8" font-family="Helvetica,sans-Serif" font-size="11.00" fill="#000000">[table]</text>
<polygon fill="#ffffff" stroke="transparent" points="302,-481.7 302,-503.7 614,-503.7 614,-481.7 302,-481.7"/>
<polygon fill="none" stroke="#000000" points="302,-481.7 302,-503.7 614,-503.7 614,-481.7 302,-481.7"/>
<image xlink:href="../../images/foreignKeys.png" width="11px" height="12px" preserveAspectRatio="xMinYMin meet" x="307" y="-498.7"/>
<text text-anchor="start" x="322" y="-488.8" font-family="Helvetica,sans-Serif" font-size="11.00" fill="#000000">prison_code</text>
<polygon fill="none" stroke="#000000" points="614,-481.7 614,-503.7 708,-503.7 708,-481.7 614,-481.7"/>
<text text-anchor="start" x="617" y="-489.4" font-family="Helvetica,sans-Serif" font-size="11.00" fill="#000000">varchar[6]</text>
<polygon fill="none" stroke="#000000" points="302,-459.7 302,-481.7 614,-481.7 614,-459.7 302,-459.7"/>
<text text-anchor="start" x="322" y="-466.8" font-family="Helvetica,sans-Serif" font-size="11.00" fill="#000000">allow_auto_allocation</text>
<polygon fill="none" stroke="#000000" points="614,-459.7 614,-481.7 708,-481.7 708,-459.7 614,-459.7"/>
<text text-anchor="start" x="617" y="-467.4" font-family="Helvetica,sans-Serif" font-size="11.00" fill="#000000">bool[1]</text>
<polygon fill="none" stroke="#000000" points="302,-437.7 302,-459.7 614,-459.7 614,-437.7 302,-437.7"/>
<text text-anchor="start" x="322" y="-444.8" font-family="Helvetica,sans-Serif" font-size="11.00" fill="#000000">is_enabled</text>
<polygon fill="none" stroke="#000000" points="614,-437.7 614,-459.7 708,-459.7 708,-437.7 614,-437.7"/>
<text text-anchor="start" x="617" y="-445.4" font-family="Helvetica,sans-Serif" font-size="11.00" fill="#000000">bool[1]</text>
<polygon fill="none" stroke="#000000" points="302,-415.7 302,-437.7 614,-437.7 614,-415.7 302,-415.7"/>
<text text-anchor="start" x="322" y="-422.8" font-family="Helvetica,sans-Serif" font-size="11.00" fill="#000000">capacity</text>
<polygon fill="none" stroke="#000000" points="614,-415.7 614,-437.7 708,-437.7 708,-415.7 614,-415.7"/>
<text text-anchor="start" x="617" y="-423.4" font-family="Helvetica,sans-Serif" font-size="11.00" fill="#000000">int4[10]</text>
<polygon fill="none" stroke="#000000" points="302,-393.7 302,-415.7 614,-415.7 614,-393.7 302,-393.7"/>
<text text-anchor="start" x="322" y="-400.8" font-family="Helvetica,sans-Serif" font-size="11.00" fill="#000000">maximum_capacity</text>
<polygon fill="none" stroke="#000000" points="614,-393.7 614,-415.7 708,-415.7 708,-393.7 614,-393.7"/>
<text text-anchor="start" x="617" y="-401.4" font-family="Helvetica,sans-Serif" font-size="11.00" fill="#000000">int4[10]</text>
<polygon fill="none" stroke="#000000" points="302,-371.7 302,-393.7 614,-393.7 614,-371.7 302,-371.7"/>
<text text-anchor="start" x="322" y="-378.8" font-family="Helvetica,sans-Serif" font-size="11.00" fill="#000000">frequency_in_weeks</text>
<polygon fill="none" stroke="#000000" points="614,-371.7 614,-393.7 708,-393.7 708,-371.7 614,-371.7"/>
<text text-anchor="start" x="617" y="-379.4" font-family="Helvetica,sans-Serif" font-size="11.00" fill="#000000">int4[10]</text>
<polygon fill="none" stroke="#000000" points="302,-349.7 302,-371.7 614,-371.7 614,-349.7 302,-349.7"/>
<text text-anchor="start" x="322" y="-356.8" font-family="Helvetica,sans-Serif" font-size="11.00" fill="#000000">has_prisoners_with_high_complexity_needs</text>
<polygon fill="none" stroke="#000000" points="614,-349.7 614,-371.7 708,-371.7 708,-349.7 614,-349.7"/>
<text text-anchor="start" x="617" y="-357.4" font-family="Helvetica,sans-Serif" font-size="11.00" fill="#000000">bool[1]</text>
<polygon fill="#ffffff" stroke="transparent" points="302,-327.7 302,-349.7 614,-349.7 614,-327.7 302,-327.7"/>
<polygon fill="none" stroke="#000000" points="302,-327.7 302,-349.7 614,-349.7 614,-327.7 302,-327.7"/>
<image xlink:href="../../images/foreignKeys.png" width="11px" height="12px" preserveAspectRatio="xMinYMin meet" x="307" y="-344.7"/>
<text text-anchor="start" x="322" y="-334.8" font-family="Helvetica,sans-Serif" font-size="11.00" fill="#000000">policy_code</text>
<polygon fill="none" stroke="#000000" points="614,-327.7 614,-349.7 708,-349.7 708,-327.7 614,-327.7"/>
<text text-anchor="start" x="617" y="-335.4" font-family="Helvetica,sans-Serif" font-size="11.00" fill="#000000">varchar[16]</text>
<polygon fill="none" stroke="#000000" points="302,-305.7 302,-327.7 614,-327.7 614,-305.7 302,-305.7"/>
<image xlink:href="../../images/primaryKeys.png" width="11px" height="12px" preserveAspectRatio="xMinYMin meet" x="307" y="-322.7"/>
<text text-anchor="start" x="322" y="-312.8" font-family="Helvetica,sans-Serif" font-size="11.00" fill="#000000">id</text>
<polygon fill="none" stroke="#000000" points="614,-305.7 614,-327.7 708,-327.7 708,-305.7 614,-305.7"/>
<text text-anchor="start" x="616.9758" y="-313.4" font-family="Helvetica,sans-Serif" font-size="11.00" fill="#000000">uuid[2147483647]</text>
<polygon fill="#ffffff" stroke="transparent" points="302,-286.7 302,-305.7 446,-305.7 446,-286.7 302,-286.7"/>
<polygon fill="none" stroke="#000000" points="302,-286.7 302,-305.7 446,-305.7 446,-286.7 302,-286.7"/>
<text text-anchor="start" x="305" y="-292.8" font-family="Helvetica,sans-Serif" font-size="11.00" fill="#000000">&lt; 2</text>
<polygon fill="#ffffff" stroke="transparent" points="446,-286.7 446,-305.7 614,-305.7 614,-286.7 446,-286.7"/>
<polygon fill="none" stroke="#000000" points="446,-286.7 446,-305.7 614,-305.7 614,-286.7 446,-286.7"/>
<text text-anchor="start" x="572.4956" y="-292.8" font-family="Helvetica,sans-Serif" font-size="11.00" fill="#000000">12 rows</text>
<polygon fill="#ffffff" stroke="transparent" points="614,-286.7 614,-305.7 708,-305.7 708,-286.7 614,-286.7"/>
<polygon fill="none" stroke="#000000" points="614,-286.7 614,-305.7 708,-305.7 708,-286.7 614,-286.7"/>
<text text-anchor="start" x="689.4053" y="-292.8" font-family="Helvetica,sans-Serif" font-size="11.00" fill="#000000">0 &gt;</text>
<polygon fill="none" stroke="#000000" stroke-width="2" points="301,-285.7 301,-527.7 709,-527.7 709,-285.7 301,-285.7"/>
</a>
</g>
</g>
<!-- prison_configuration&#45;&gt;prison_migration_date_history -->
<g id="edge4" class="edge">
<title>prison_configuration:w&#45;&gt;prison_migration_date_history:e</title>
<path fill="none" stroke="#000000" stroke-dasharray="5,2" d="M287.8154,-496.0702C254.1284,-516.1077 305.9387,-618.7 251.5,-618.7"/>
<polygon fill="#000000" stroke="#000000" points="294.2167,-494.5493 302.8322,-496.2025 298.1083,-493.6247 302,-492.7 302,-492.7 302,-492.7 298.1083,-493.6247 301.1678,-489.1975 294.2167,-494.5493 294.2167,-494.5493"/>
<ellipse fill="none" stroke="#000000" cx="291.1033" cy="-495.2891" rx="3.2" ry="3.2"/>
</g>
<!-- policy -->
<g id="node5" class="node">
<title>policy</title>
<g id="a_node5"><a xlink:href="../../tables/policy.html" xlink:title="policy" target="_top">
<polygon fill="#ffffff" stroke="transparent" points="81,-236.2 81,-319.2 178,-319.2 178,-236.2 81,-236.2"/>
<polygon fill="#f5f5f5" stroke="transparent" points="81.5,-295.7 81.5,-318.7 178.5,-318.7 178.5,-295.7 81.5,-295.7"/>
<polygon fill="none" stroke="#000000" points="81.5,-295.7 81.5,-318.7 178.5,-318.7 178.5,-295.7 81.5,-295.7"/>
<text text-anchor="start" x="86.5" y="-304.3" font-family="Helvetica,sans-Serif" font-weight="bold" font-size="11.00" fill="#000000">policy</text>
<text text-anchor="start" x="143.5437" y="-303.8" font-family="Helvetica,sans-Serif" font-size="11.00" fill="#000000">[table]</text>
<polygon fill="none" stroke="#000000" points="81.5,-273.7 81.5,-295.7 178.5,-295.7 178.5,-273.7 81.5,-273.7"/>
<image xlink:href="../../images/primaryKeys.png" width="11px" height="12px" preserveAspectRatio="xMinYMin meet" x="86.5" y="-290.7"/>
<text text-anchor="start" x="101.5" y="-280.8" font-family="Helvetica,sans-Serif" font-size="11.00" fill="#000000">code</text>
<polygon fill="none" stroke="#000000" points="81.5,-254.7 81.5,-273.7 178.5,-273.7 178.5,-254.7 81.5,-254.7"/>
<text text-anchor="start" x="84.5" y="-260.8" font-family="Helvetica,sans-Serif" font-size="11.00" fill="#000000">...</text>
<polygon fill="#ffffff" stroke="transparent" points="81.5,-235.7 81.5,-254.7 119.5,-254.7 119.5,-235.7 81.5,-235.7"/>
<polygon fill="none" stroke="#000000" points="81.5,-235.7 81.5,-254.7 119.5,-254.7 119.5,-235.7 81.5,-235.7"/>
<text text-anchor="start" x="84.5" y="-241.8" font-family="Helvetica,sans-Serif" font-size="11.00" fill="#000000"> &#160;</text>
<polygon fill="#ffffff" stroke="transparent" points="119.5,-235.7 119.5,-254.7 144.5,-254.7 144.5,-235.7 119.5,-235.7"/>
<polygon fill="none" stroke="#000000" points="119.5,-235.7 119.5,-254.7 144.5,-254.7 144.5,-235.7 119.5,-235.7"/>
<text text-anchor="start" x="135.3862" y="-241.8" font-family="Helvetica,sans-Serif" font-size="11.00" fill="#000000"> &#160;</text>
<polygon fill="#ffffff" stroke="transparent" points="144.5,-235.7 144.5,-254.7 178.5,-254.7 178.5,-235.7 144.5,-235.7"/>
<polygon fill="none" stroke="#000000" points="144.5,-235.7 144.5,-254.7 178.5,-254.7 178.5,-235.7 144.5,-235.7"/>
<text text-anchor="start" x="159.9053" y="-241.8" font-family="Helvetica,sans-Serif" font-size="11.00" fill="#000000">6 &gt;</text>
</a>
</g>
</g>
<!-- prison_configuration&#45;&gt;policy -->
<g id="edge3" class="edge">
<title>prison_configuration:w&#45;&gt;policy:e</title>
<path fill="none" stroke="#000000" d="M287.4308,-337.5219C241.0111,-329.6249 233.1413,-284.7 178.5,-284.7"/>
<polygon fill="#000000" stroke="#000000" points="294.026,-338.0552 301.7098,-342.2883 298.013,-338.3776 302,-338.7 302,-338.7 302,-338.7 298.013,-338.3776 302.2902,-335.1117 294.026,-338.0552 294.026,-338.0552"/>
<ellipse fill="none" stroke="#000000" cx="290.8364" cy="-337.7972" rx="3.2" ry="3.2"/>
</g>
<!-- prison_configuration_audit -->
<g id="node6" class="node">
<title>prison_configuration_audit</title>
<g id="a_node6"><a xlink:href="../../tables/prison_configuration_audit.html" xlink:title="prison_configuration_audit" target="_top">
<polygon fill="#ffffff" stroke="transparent" points="395.5,-202.2 395.5,-263.2 614.5,-263.2 614.5,-202.2 395.5,-202.2"/>
<polygon fill="#f5f5f5" stroke="transparent" points="396,-239.7 396,-262.7 615,-262.7 615,-239.7 396,-239.7"/>
<polygon fill="none" stroke="#000000" points="396,-239.7 396,-262.7 615,-262.7 615,-239.7 396,-239.7"/>
<text text-anchor="start" x="401" y="-248.3" font-family="Helvetica,sans-Serif" font-weight="bold" font-size="11.00" fill="#000000">prison_configuration_audit</text>
<text text-anchor="start" x="580.5219" y="-247.8" font-family="Helvetica,sans-Serif" font-size="11.00" fill="#000000">[table]</text>
<polygon fill="none" stroke="#000000" points="396,-220.7 396,-239.7 615,-239.7 615,-220.7 396,-220.7"/>
<text text-anchor="start" x="399" y="-226.8" font-family="Helvetica,sans-Serif" font-size="11.00" fill="#000000">...</text>
<polygon fill="#ffffff" stroke="transparent" points="396,-201.7 396,-220.7 504,-220.7 504,-201.7 396,-201.7"/>
<polygon fill="none" stroke="#000000" points="396,-201.7 396,-220.7 504,-220.7 504,-201.7 396,-201.7"/>
<text text-anchor="start" x="399" y="-207.8" font-family="Helvetica,sans-Serif" font-size="11.00" fill="#000000">&lt; 3</text>
<polygon fill="#ffffff" stroke="transparent" points="504,-201.7 504,-220.7 559,-220.7 559,-201.7 504,-201.7"/>
<polygon fill="none" stroke="#000000" points="504,-201.7 504,-220.7 559,-220.7 559,-201.7 504,-201.7"/>
<text text-anchor="start" x="549.8862" y="-207.8" font-family="Helvetica,sans-Serif" font-size="11.00" fill="#000000"> &#160;</text>
<polygon fill="#ffffff" stroke="transparent" points="559,-201.7 559,-220.7 615,-220.7 615,-201.7 559,-201.7"/>
<polygon fill="none" stroke="#000000" points="559,-201.7 559,-220.7 615,-220.7 615,-201.7 559,-201.7"/>
<text text-anchor="start" x="605.8862" y="-207.8" font-family="Helvetica,sans-Serif" font-size="11.00" fill="#000000"> &#160;</text>
</a>
</g>
</g>
<!-- prison_configuration_audit&#45;&gt;prison_migration_date_history -->
<g id="edge6" class="edge">
<title>prison_configuration_audit:w&#45;&gt;prison_migration_date_history:e</title>
<path fill="none" stroke="#000000" stroke-dasharray="5,2" d="M381.4936,-229.8533C340.9329,-230.8574 319.0623,-237.6324 292,-273.7 245.6715,-335.445 328.6931,-618.7 251.5,-618.7"/>
<polygon fill="#000000" stroke="#000000" points="388.0004,-229.7846 396.0381,-233.2998 392.0002,-229.7423 396,-229.7 396,-229.7 396,-229.7 392.0002,-229.7423 395.9619,-226.1002 388.0004,-229.7846 388.0004,-229.7846"/>
<ellipse fill="none" stroke="#000000" cx="384.8006" cy="-229.8184" rx="3.2" ry="3.2"/>
</g>
<!-- prison_configuration_audit&#45;&gt;policy -->
<g id="edge5" class="edge">
<title>prison_configuration_audit:w&#45;&gt;policy:e</title>
<path fill="none" stroke="#000000" stroke-dasharray="5,2" d="M381.42,-230.1111C294.2437,-235.1441 273.1461,-284.7 178.5,-284.7"/>
<polygon fill="#000000" stroke="#000000" points="388.0032,-229.9255 396.1015,-233.2986 392.0016,-229.8128 396,-229.7 396,-229.7 396,-229.7 392.0016,-229.8128 395.8985,-226.1014 388.0032,-229.9255 388.0032,-229.9255"/>
<ellipse fill="none" stroke="#000000" cx="384.8044" cy="-230.0157" rx="3.2" ry="3.2"/>
</g>
<!-- staff_configuration -->
<g id="node7" class="node">
<title>staff_configuration</title>
<g id="a_node7"><a xlink:href="../../tables/staff_configuration.html" xlink:title="staff_configuration" target="_top">
<polygon fill="#ffffff" stroke="transparent" points="421.5,-120.2 421.5,-181.2 588.5,-181.2 588.5,-120.2 421.5,-120.2"/>
<polygon fill="#f5f5f5" stroke="transparent" points="422,-157.7 422,-180.7 589,-180.7 589,-157.7 422,-157.7"/>
<polygon fill="none" stroke="#000000" points="422,-157.7 422,-180.7 589,-180.7 589,-157.7 422,-157.7"/>
<text text-anchor="start" x="427" y="-166.3" font-family="Helvetica,sans-Serif" font-weight="bold" font-size="11.00" fill="#000000">staff_configuration</text>
<text text-anchor="start" x="554.5219" y="-165.8" font-family="Helvetica,sans-Serif" font-size="11.00" fill="#000000">[table]</text>
<polygon fill="none" stroke="#000000" points="422,-138.7 422,-157.7 589,-157.7 589,-138.7 422,-138.7"/>
<text text-anchor="start" x="425" y="-144.8" font-family="Helvetica,sans-Serif" font-size="11.00" fill="#000000">...</text>
<polygon fill="#ffffff" stroke="transparent" points="422,-119.7 422,-138.7 504,-138.7 504,-119.7 422,-119.7"/>
<polygon fill="none" stroke="#000000" points="422,-119.7 422,-138.7 504,-138.7 504,-119.7 422,-119.7"/>
<text text-anchor="start" x="425" y="-125.8" font-family="Helvetica,sans-Serif" font-size="11.00" fill="#000000">&lt; 2</text>
<polygon fill="#ffffff" stroke="transparent" points="504,-119.7 504,-138.7 546,-138.7 546,-119.7 504,-119.7"/>
<polygon fill="none" stroke="#000000" points="504,-119.7 504,-138.7 546,-138.7 546,-119.7 504,-119.7"/>
<text text-anchor="start" x="536.8862" y="-125.8" font-family="Helvetica,sans-Serif" font-size="11.00" fill="#000000"> &#160;</text>
<polygon fill="#ffffff" stroke="transparent" points="546,-119.7 546,-138.7 589,-138.7 589,-119.7 546,-119.7"/>
<polygon fill="none" stroke="#000000" points="546,-119.7 546,-138.7 589,-138.7 589,-119.7 546,-119.7"/>
<text text-anchor="start" x="579.8862" y="-125.8" font-family="Helvetica,sans-Serif" font-size="11.00" fill="#000000"> &#160;</text>
</a>
</g>
</g>
<!-- staff_configuration&#45;&gt;policy -->
<g id="edge7" class="edge">
<title>staff_configuration:w&#45;&gt;policy:e</title>
<path fill="none" stroke="#000000" d="M407.5417,-148.0055C358.1063,-150.2281 340.8621,-164.5988 292,-191.7 234.9692,-223.3319 243.7157,-284.7 178.5,-284.7"/>
<polygon fill="#000000" stroke="#000000" points="414.0018,-147.869 422.0761,-151.2992 418.0009,-147.7845 422,-147.7 422,-147.7 422,-147.7 418.0009,-147.7845 421.9239,-144.1008 414.0018,-147.869 414.0018,-147.869"/>
<ellipse fill="none" stroke="#000000" cx="410.8025" cy="-147.9366" rx="3.2" ry="3.2"/>
</g>
<!-- staff_configuration_audit -->
<g id="node8" class="node">
<title>staff_configuration_audit</title>
<g id="a_node8"><a xlink:href="../../tables/staff_configuration_audit.html" xlink:title="staff_configuration_audit" target="_top">
<polygon fill="#ffffff" stroke="transparent" points="401,-38.2 401,-99.2 609,-99.2 609,-38.2 401,-38.2"/>
<polygon fill="#f5f5f5" stroke="transparent" points="401,-75.7 401,-98.7 609,-98.7 609,-75.7 401,-75.7"/>
<polygon fill="none" stroke="#000000" points="401,-75.7 401,-98.7 609,-98.7 609,-75.7 401,-75.7"/>
<text text-anchor="start" x="406" y="-84.3" font-family="Helvetica,sans-Serif" font-weight="bold" font-size="11.00" fill="#000000">staff_configuration_audit</text>
<text text-anchor="start" x="574.5219" y="-83.8" font-family="Helvetica,sans-Serif" font-size="11.00" fill="#000000">[table]</text>
<polygon fill="none" stroke="#000000" points="401,-56.7 401,-75.7 609,-75.7 609,-56.7 401,-56.7"/>
<text text-anchor="start" x="404" y="-62.8" font-family="Helvetica,sans-Serif" font-size="11.00" fill="#000000">...</text>
<polygon fill="#ffffff" stroke="transparent" points="401,-37.7 401,-56.7 503,-56.7 503,-37.7 401,-37.7"/>
<polygon fill="none" stroke="#000000" points="401,-37.7 401,-56.7 503,-56.7 503,-37.7 401,-37.7"/>
<text text-anchor="start" x="404" y="-43.8" font-family="Helvetica,sans-Serif" font-size="11.00" fill="#000000">&lt; 2</text>
<polygon fill="#ffffff" stroke="transparent" points="503,-37.7 503,-56.7 556,-56.7 556,-37.7 503,-37.7"/>
<polygon fill="none" stroke="#000000" points="503,-37.7 503,-56.7 556,-56.7 556,-37.7 503,-37.7"/>
<text text-anchor="start" x="546.8862" y="-43.8" font-family="Helvetica,sans-Serif" font-size="11.00" fill="#000000"> &#160;</text>
<polygon fill="#ffffff" stroke="transparent" points="556,-37.7 556,-56.7 609,-56.7 609,-37.7 556,-37.7"/>
<polygon fill="none" stroke="#000000" points="556,-37.7 556,-56.7 609,-56.7 609,-37.7 556,-37.7"/>
<text text-anchor="start" x="599.8862" y="-43.8" font-family="Helvetica,sans-Serif" font-size="11.00" fill="#000000"> &#160;</text>
</a>
</g>
</g>
<!-- staff_configuration_audit&#45;&gt;policy -->
<g id="edge8" class="edge">
<title>staff_configuration_audit:w&#45;&gt;policy:e</title>
<path fill="none" stroke="#000000" stroke-dasharray="5,2" d="M386.3949,-66.032C345.2435,-68.0674 328.292,-79.7746 292,-109.7 220.4757,-168.6771 271.204,-284.7 178.5,-284.7"/>
<polygon fill="#000000" stroke="#000000" points="393.0021,-65.8818 401.0818,-69.2991 397.001,-65.7909 401,-65.7 401,-65.7 401,-65.7 397.001,-65.7909 400.9182,-62.1009 393.0021,-65.8818 393.0021,-65.8818"/>
<ellipse fill="none" stroke="#000000" cx="389.8029" cy="-65.9546" rx="3.2" ry="3.2"/>
</g>
<!-- staff_role -->
<g id="node9" class="node">
<title>staff_role</title>
<g id="a_node9"><a xlink:href="../../tables/staff_role.html" xlink:title="staff_role" target="_top">
<polygon fill="#ffffff" stroke="transparent" points="454,-632.2 454,-693.2 556,-693.2 556,-632.2 454,-632.2"/>
<polygon fill="#f5f5f5" stroke="transparent" points="454,-669.7 454,-692.7 556,-692.7 556,-669.7 454,-669.7"/>
<polygon fill="none" stroke="#000000" points="454,-669.7 454,-692.7 556,-692.7 556,-669.7 454,-669.7"/>
<text text-anchor="start" x="459" y="-678.3" font-family="Helvetica,sans-Serif" font-weight="bold" font-size="11.00" fill="#000000">staff_role</text>
<text text-anchor="start" x="521.5219" y="-677.8" font-family="Helvetica,sans-Serif" font-size="11.00" fill="#000000">[table]</text>
<polygon fill="none" stroke="#000000" points="454,-650.7 454,-669.7 556,-669.7 556,-650.7 454,-650.7"/>
<text text-anchor="start" x="457" y="-656.8" font-family="Helvetica,sans-Serif" font-size="11.00" fill="#000000">...</text>
<polygon fill="#ffffff" stroke="transparent" points="454,-631.7 454,-650.7 503,-650.7 503,-631.7 454,-631.7"/>
<polygon fill="none" stroke="#000000" points="454,-631.7 454,-650.7 503,-650.7 503,-631.7 454,-631.7"/>
<text text-anchor="start" x="457" y="-637.8" font-family="Helvetica,sans-Serif" font-size="11.00" fill="#000000">&lt; 2</text>
<polygon fill="#ffffff" stroke="transparent" points="503,-631.7 503,-650.7 529,-650.7 529,-631.7 503,-631.7"/>
<polygon fill="none" stroke="#000000" points="503,-631.7 503,-650.7 529,-650.7 529,-631.7 503,-631.7"/>
<text text-anchor="start" x="519.8862" y="-637.8" font-family="Helvetica,sans-Serif" font-size="11.00" fill="#000000"> &#160;</text>
<polygon fill="#ffffff" stroke="transparent" points="529,-631.7 529,-650.7 556,-650.7 556,-631.7 529,-631.7"/>
<polygon fill="none" stroke="#000000" points="529,-631.7 529,-650.7 556,-650.7 556,-631.7 529,-631.7"/>
<text text-anchor="start" x="546.8862" y="-637.8" font-family="Helvetica,sans-Serif" font-size="11.00" fill="#000000"> &#160;</text>
</a>
</g>
</g>
<!-- staff_role&#45;&gt;prison_migration_date_history -->
<g id="edge10" class="edge">
<title>staff_role:w&#45;&gt;prison_migration_date_history:e</title>
<path fill="none" stroke="#000000" stroke-dasharray="5,2" d="M439.5657,-659.3456C359.8941,-655.3382 338.3044,-618.7 251.5,-618.7"/>
<polygon fill="#000000" stroke="#000000" points="446.0024,-659.5036 453.9116,-663.2989 450.0012,-659.6018 454,-659.7 454,-659.7 454,-659.7 450.0012,-659.6018 454.0884,-656.1011 446.0024,-659.5036 446.0024,-659.5036"/>
<ellipse fill="none" stroke="#000000" cx="442.8034" cy="-659.425" rx="3.2" ry="3.2"/>
</g>
<!-- staff_role&#45;&gt;policy -->
<g id="edge9" class="edge">
<title>staff_role:w&#45;&gt;policy:e</title>
<path fill="none" stroke="#000000" stroke-dasharray="5,2" d="M439.3831,-659.8415C375.3875,-661.0211 342.9646,-668.0643 292,-621.7 233.5471,-568.5233 257.5222,-284.7 178.5,-284.7"/>
<polygon fill="#000000" stroke="#000000" points="446.0004,-659.7775 454.0349,-663.2998 450.0002,-659.7388 454,-659.7 454,-659.7 454,-659.7 450.0002,-659.7388 453.9651,-656.1002 446.0004,-659.7775 446.0004,-659.7775"/>
<ellipse fill="none" stroke="#000000" cx="442.8005" cy="-659.8085" rx="3.2" ry="3.2"/>
</g>
<!-- staff_role_audit -->
<g id="node10" class="node">
<title>staff_role_audit</title>
<g id="a_node10"><a xlink:href="../../tables/staff_role_audit.html" xlink:title="staff_role_audit" target="_top">
<polygon fill="#ffffff" stroke="transparent" points="433.5,-550.2 433.5,-611.2 576.5,-611.2 576.5,-550.2 433.5,-550.2"/>
<polygon fill="#f5f5f5" stroke="transparent" points="434,-587.7 434,-610.7 577,-610.7 577,-587.7 434,-587.7"/>
<polygon fill="none" stroke="#000000" points="434,-587.7 434,-610.7 577,-610.7 577,-587.7 434,-587.7"/>
<text text-anchor="start" x="439" y="-596.3" font-family="Helvetica,sans-Serif" font-weight="bold" font-size="11.00" fill="#000000">staff_role_audit</text>
<text text-anchor="start" x="542.5219" y="-595.8" font-family="Helvetica,sans-Serif" font-size="11.00" fill="#000000">[table]</text>
<polygon fill="none" stroke="#000000" points="434,-568.7 434,-587.7 577,-587.7 577,-568.7 434,-568.7"/>
<text text-anchor="start" x="437" y="-574.8" font-family="Helvetica,sans-Serif" font-size="11.00" fill="#000000">...</text>
<polygon fill="#ffffff" stroke="transparent" points="434,-549.7 434,-568.7 504,-568.7 504,-549.7 434,-549.7"/>
<polygon fill="none" stroke="#000000" points="434,-549.7 434,-568.7 504,-568.7 504,-549.7 434,-549.7"/>
<text text-anchor="start" x="437" y="-555.8" font-family="Helvetica,sans-Serif" font-size="11.00" fill="#000000">&lt; 3</text>
<polygon fill="#ffffff" stroke="transparent" points="504,-549.7 504,-568.7 540,-568.7 540,-549.7 504,-549.7"/>
<polygon fill="none" stroke="#000000" points="504,-549.7 504,-568.7 540,-568.7 540,-549.7 504,-549.7"/>
<text text-anchor="start" x="530.8862" y="-555.8" font-family="Helvetica,sans-Serif" font-size="11.00" fill="#000000"> &#160;</text>
<polygon fill="#ffffff" stroke="transparent" points="540,-549.7 540,-568.7 577,-568.7 577,-549.7 540,-549.7"/>
<polygon fill="none" stroke="#000000" points="540,-549.7 540,-568.7 577,-568.7 577,-549.7 540,-549.7"/>
<text text-anchor="start" x="567.8862" y="-555.8" font-family="Helvetica,sans-Serif" font-size="11.00" fill="#000000"> &#160;</text>
</a>
</g>
</g>
<!-- staff_role_audit&#45;&gt;prison_migration_date_history -->
<g id="edge12" class="edge">
<title>staff_role_audit:w&#45;&gt;prison_migration_date_history:e</title>
<path fill="none" stroke="#000000" stroke-dasharray="5,2" d="M419.6057,-578.1327C348.6561,-582.5145 329.5994,-618.7 251.5,-618.7"/>
<polygon fill="#000000" stroke="#000000" points="426.0036,-577.9404 434.1082,-581.2984 430.0018,-577.8202 434,-577.7 434,-577.7 434,-577.7 430.0018,-577.8202 433.8918,-574.1016 426.0036,-577.9404 426.0036,-577.9404"/>
<ellipse fill="none" stroke="#000000" cx="422.8051" cy="-578.0366" rx="3.2" ry="3.2"/>
</g>
<!-- staff_role_audit&#45;&gt;policy -->
<g id="edge11" class="edge">
<title>staff_role_audit:w&#45;&gt;policy:e</title>
<path fill="none" stroke="#000000" stroke-dasharray="5,2" d="M419.3609,-577.7566C364.3132,-578.1054 337.8017,-578.81 292,-539.7 197.661,-459.1442 302.5528,-284.7 178.5,-284.7"/>
<polygon fill="#000000" stroke="#000000" points="426.0001,-577.731 434.0139,-581.3 430,-577.7155 434,-577.7 434,-577.7 434,-577.7 430,-577.7155 433.9861,-574.1 426.0001,-577.731 426.0001,-577.731"/>
<ellipse fill="none" stroke="#000000" cx="422.8001" cy="-577.7434" rx="3.2" ry="3.2"/>
</g>
</g>
</svg>
