<?xml version="1.0" encoding="UTF-8" standalone="no"?>
<!DOCTYPE svg PUBLIC "-//W3C//DTD SVG 1.1//EN"
 "http://www.w3.org/Graphics/SVG/1.1/DTD/svg11.dtd">
<!-- Generated by graphviz version 2.40.1 (20161225.0304)
 -->
<!-- Title: twoDegreesRelationshipsDiagram Pages: 1 -->
<svg width="554pt" height="629pt"
 viewBox="0.00 0.00 554.00 629.20" xmlns="http://www.w3.org/2000/svg" xmlns:xlink="http://www.w3.org/1999/xlink">
<g id="graph0" class="graph" transform="scale(1 1) rotate(0) translate(4 625.2)">
<title>twoDegreesRelationshipsDiagram</title>
<polygon fill="#ffffff" stroke="transparent" points="-4,4 -4,-625.2 550,-625.2 550,4 -4,4"/>
<text text-anchor="middle" x="72.4936" y="-7.3" font-family="Helvetica,sans-Serif" font-size="11.00" fill="#000000">Generated by SchemaSpy</text>
<!-- allocation -->
<g id="node1" class="node">
<title>allocation</title>
<g id="a_node1"><a xlink:href="../../tables/allocation.html" xlink:title="allocation" target="_top">
<polygon fill="#ffffff" stroke="transparent" points="293.5,-556.2 293.5,-617.2 398.5,-617.2 398.5,-556.2 293.5,-556.2"/>
<polygon fill="#f5f5f5" stroke="transparent" points="294,-593.7 294,-616.7 399,-616.7 399,-593.7 294,-593.7"/>
<polygon fill="none" stroke="#000000" points="294,-593.7 294,-616.7 399,-616.7 399,-593.7 294,-593.7"/>
<text text-anchor="start" x="299" y="-602.3" font-family="Helvetica,sans-Serif" font-weight="bold" font-size="11.00" fill="#000000">allocation</text>
<text text-anchor="start" x="364.5219" y="-601.8" font-family="Helvetica,sans-Serif" font-size="11.00" fill="#000000">[table]</text>
<polygon fill="none" stroke="#000000" points="294,-574.7 294,-593.7 399,-593.7 399,-574.7 294,-574.7"/>
<text text-anchor="start" x="297" y="-580.8" font-family="Helvetica,sans-Serif" font-size="11.00" fill="#000000">...</text>
<polygon fill="#ffffff" stroke="transparent" points="294,-555.7 294,-574.7 345,-574.7 345,-555.7 294,-555.7"/>
<polygon fill="none" stroke="#000000" points="294,-555.7 294,-574.7 345,-574.7 345,-555.7 294,-555.7"/>
<text text-anchor="start" x="297" y="-561.8" font-family="Helvetica,sans-Serif" font-size="11.00" fill="#000000">&lt; 3</text>
<polygon fill="#ffffff" stroke="transparent" points="345,-555.7 345,-574.7 372,-574.7 372,-555.7 345,-555.7"/>
<polygon fill="none" stroke="#000000" points="345,-555.7 345,-574.7 372,-574.7 372,-555.7 345,-555.7"/>
<text text-anchor="start" x="362.8862" y="-561.8" font-family="Helvetica,sans-Serif" font-size="11.00" fill="#000000"> &#160;</text>
<polygon fill="#ffffff" stroke="transparent" points="372,-555.7 372,-574.7 399,-574.7 399,-555.7 372,-555.7"/>
<polygon fill="none" stroke="#000000" points="372,-555.7 372,-574.7 399,-574.7 399,-555.7 372,-555.7"/>
<text text-anchor="start" x="389.8862" y="-561.8" font-family="Helvetica,sans-Serif" font-size="11.00" fill="#000000"> &#160;</text>
</a>
</g>
</g>
<!-- policy -->
<g id="node2" class="node">
<title>policy</title>
<g id="a_node2"><a xlink:href="../../tables/policy.html" xlink:title="policy" target="_top">
<polygon fill="#ffffff" stroke="transparent" points="8,-278.2 8,-361.2 105,-361.2 105,-278.2 8,-278.2"/>
<polygon fill="#f5f5f5" stroke="transparent" points="8.5,-337.7 8.5,-360.7 105.5,-360.7 105.5,-337.7 8.5,-337.7"/>
<polygon fill="none" stroke="#000000" points="8.5,-337.7 8.5,-360.7 105.5,-360.7 105.5,-337.7 8.5,-337.7"/>
<text text-anchor="start" x="13.5" y="-346.3" font-family="Helvetica,sans-Serif" font-weight="bold" font-size="11.00" fill="#000000">policy</text>
<text text-anchor="start" x="70.5437" y="-345.8" font-family="Helvetica,sans-Serif" font-size="11.00" fill="#000000">[table]</text>
<polygon fill="none" stroke="#000000" points="8.5,-315.7 8.5,-337.7 105.5,-337.7 105.5,-315.7 8.5,-315.7"/>
<image xlink:href="../../images/primaryKeys.png" width="11px" height="12px" preserveAspectRatio="xMinYMin meet" x="13.5" y="-332.7"/>
<text text-anchor="start" x="28.5" y="-322.8" font-family="Helvetica,sans-Serif" font-size="11.00" fill="#000000">code</text>
<polygon fill="none" stroke="#000000" points="8.5,-296.7 8.5,-315.7 105.5,-315.7 105.5,-296.7 8.5,-296.7"/>
<text text-anchor="start" x="11.5" y="-302.8" font-family="Helvetica,sans-Serif" font-size="11.00" fill="#000000">...</text>
<polygon fill="#ffffff" stroke="transparent" points="8.5,-277.7 8.5,-296.7 46.5,-296.7 46.5,-277.7 8.5,-277.7"/>
<polygon fill="none" stroke="#000000" points="8.5,-277.7 8.5,-296.7 46.5,-296.7 46.5,-277.7 8.5,-277.7"/>
<text text-anchor="start" x="11.5" y="-283.8" font-family="Helvetica,sans-Serif" font-size="11.00" fill="#000000"> &#160;</text>
<polygon fill="#ffffff" stroke="transparent" points="46.5,-277.7 46.5,-296.7 71.5,-296.7 71.5,-277.7 46.5,-277.7"/>
<polygon fill="none" stroke="#000000" points="46.5,-277.7 46.5,-296.7 71.5,-296.7 71.5,-277.7 46.5,-277.7"/>
<text text-anchor="start" x="62.3862" y="-283.8" font-family="Helvetica,sans-Serif" font-size="11.00" fill="#000000"> &#160;</text>
<polygon fill="#ffffff" stroke="transparent" points="71.5,-277.7 71.5,-296.7 105.5,-296.7 105.5,-277.7 71.5,-277.7"/>
<polygon fill="none" stroke="#000000" points="71.5,-277.7 71.5,-296.7 105.5,-296.7 105.5,-277.7 71.5,-277.7"/>
<text text-anchor="start" x="86.9053" y="-283.8" font-family="Helvetica,sans-Serif" font-size="11.00" fill="#000000">4 &gt;</text>
</a>
</g>
</g>
<!-- allocation&#45;&gt;policy -->
<g id="edge1" class="edge">
<title>allocation:w&#45;&gt;policy:e</title>
<path fill="none" stroke="#000000" d="M279.4247,-583.8625C221.011,-585.0897 188.909,-591.652 146,-545.7 78.4444,-473.3535 204.4837,-326.7 105.5,-326.7"/>
<polygon fill="#000000" stroke="#000000" points="286.0005,-583.7892 294.0402,-587.2998 290.0002,-583.7446 294,-583.7 294,-583.7 294,-583.7 290.0002,-583.7446 293.9598,-580.1002 286.0005,-583.7892 286.0005,-583.7892"/>
<ellipse fill="none" stroke="#000000" cx="282.8007" cy="-583.8249" rx="3.2" ry="3.2"/>
</g>
<!-- prison_configuration -->
<g id="node3" class="node">
<title>prison_configuration</title>
<g id="a_node3"><a xlink:href="../../tables/prison_configuration.html" xlink:title="prison_configuration" target="_top">
<polygon fill="#ffffff" stroke="transparent" points="257,-474.2 257,-535.2 435,-535.2 435,-474.2 257,-474.2"/>
<polygon fill="#f5f5f5" stroke="transparent" points="257,-511.7 257,-534.7 435,-534.7 435,-511.7 257,-511.7"/>
<polygon fill="none" stroke="#000000" points="257,-511.7 257,-534.7 435,-534.7 435,-511.7 257,-511.7"/>
<text text-anchor="start" x="262" y="-520.3" font-family="Helvetica,sans-Serif" font-weight="bold" font-size="11.00" fill="#000000">prison_configuration</text>
<text text-anchor="start" x="400.5219" y="-519.8" font-family="Helvetica,sans-Serif" font-size="11.00" fill="#000000">[table]</text>
<polygon fill="none" stroke="#000000" points="257,-492.7 257,-511.7 435,-511.7 435,-492.7 257,-492.7"/>
<text text-anchor="start" x="260" y="-498.8" font-family="Helvetica,sans-Serif" font-size="11.00" fill="#000000">...</text>
<polygon fill="#ffffff" stroke="transparent" points="257,-473.7 257,-492.7 328,-492.7 328,-473.7 257,-473.7"/>
<polygon fill="none" stroke="#000000" points="257,-473.7 257,-492.7 328,-492.7 328,-473.7 257,-473.7"/>
<text text-anchor="start" x="260" y="-479.8" font-family="Helvetica,sans-Serif" font-size="11.00" fill="#000000">&lt; 1</text>
<polygon fill="#ffffff" stroke="transparent" points="328,-473.7 328,-492.7 397,-492.7 397,-473.7 328,-473.7"/>
<polygon fill="none" stroke="#000000" points="328,-473.7 328,-492.7 397,-492.7 397,-473.7 328,-473.7"/>
<text text-anchor="start" x="355.4956" y="-479.8" font-family="Helvetica,sans-Serif" font-size="11.00" fill="#000000">12 rows</text>
<polygon fill="#ffffff" stroke="transparent" points="397,-473.7 397,-492.7 435,-492.7 435,-473.7 397,-473.7"/>
<polygon fill="none" stroke="#000000" points="397,-473.7 397,-492.7 435,-492.7 435,-473.7 397,-473.7"/>
<text text-anchor="start" x="425.8862" y="-479.8" font-family="Helvetica,sans-Serif" font-size="11.00" fill="#000000"> &#160;</text>
</a>
</g>
</g>
<!-- prison_configuration&#45;&gt;policy -->
<g id="edge2" class="edge">
<title>prison_configuration:w&#45;&gt;policy:e</title>
<path fill="none" stroke="#000000" d="M242.5239,-501.6554C200.2808,-501.275 178.5579,-497.6686 146,-463.7 102.065,-417.8614 168.9938,-326.7 105.5,-326.7"/>
<polygon fill="#000000" stroke="#000000" points="249,-501.6753 256.9889,-505.3 253,-501.6877 257,-501.7 257,-501.7 257,-501.7 253,-501.6877 257.0111,-498.1 249,-501.6753 249,-501.6753"/>
<ellipse fill="none" stroke="#000000" cx="245.8001" cy="-501.6654" rx="3.2" ry="3.2"/>
</g>
<!-- prison_statistic -->
<g id="node4" class="node">
<title>prison_statistic</title>
<g id="a_node4"><a xlink:href="../../tables/prison_statistic.html" xlink:title="prison_statistic" target="_top">
<polygon fill="#ffffff" stroke="transparent" points="154,-120.7 154,-452.7 538,-452.7 538,-120.7 154,-120.7"/>
<polygon fill="#f5f5f5" stroke="transparent" points="156,-427.7 156,-450.7 536,-450.7 536,-427.7 156,-427.7"/>
<polygon fill="none" stroke="#000000" points="156,-427.7 156,-450.7 536,-450.7 536,-427.7 156,-427.7"/>
<text text-anchor="start" x="161" y="-436.3" font-family="Helvetica,sans-Serif" font-weight="bold" font-size="11.00" fill="#000000">prison_statistic</text>
<text text-anchor="start" x="501.0437" y="-435.8" font-family="Helvetica,sans-Serif" font-size="11.00" fill="#000000">[table]</text>
<polygon fill="none" stroke="#000000" points="156,-405.7 156,-427.7 452,-427.7 452,-405.7 156,-405.7"/>
<image xlink:href="../../images/primaryKeys.png" width="11px" height="12px" preserveAspectRatio="xMinYMin meet" x="161" y="-422.7"/>
<text text-anchor="start" x="176" y="-412.8" font-family="Helvetica,sans-Serif" font-size="11.00" fill="#000000">id</text>
<polygon fill="none" stroke="#000000" points="452,-405.7 452,-427.7 536,-427.7 536,-405.7 452,-405.7"/>
<text text-anchor="start" x="455" y="-413.4" font-family="Helvetica,sans-Serif" font-size="11.00" fill="#000000">bigserial[19]</text>
<polygon fill="#ffffff" stroke="transparent" points="156,-383.7 156,-405.7 452,-405.7 452,-383.7 156,-383.7"/>
<polygon fill="none" stroke="#000000" points="156,-383.7 156,-405.7 452,-405.7 452,-383.7 156,-383.7"/>
<image xlink:href="../../images/foreignKeys.png" width="11px" height="12px" preserveAspectRatio="xMinYMin meet" x="161" y="-400.7"/>
<text text-anchor="start" x="176" y="-390.8" font-family="Helvetica,sans-Serif" font-size="11.00" fill="#000000">prison_code</text>
<polygon fill="none" stroke="#000000" points="452,-383.7 452,-405.7 536,-405.7 536,-383.7 452,-383.7"/>
<text text-anchor="start" x="455" y="-391.4" font-family="Helvetica,sans-Serif" font-size="11.00" fill="#000000">varchar[6]</text>
<polygon fill="#ffffff" stroke="transparent" points="156,-361.7 156,-383.7 452,-383.7 452,-361.7 156,-361.7"/>
<polygon fill="none" stroke="#000000" points="156,-361.7 156,-383.7 452,-383.7 452,-361.7 156,-361.7"/>
<text text-anchor="start" x="176" y="-368.8" font-family="Helvetica,sans-Serif" font-size="11.00" fill="#000000">statistic_date</text>
<polygon fill="none" stroke="#000000" points="452,-361.7 452,-383.7 536,-383.7 536,-361.7 452,-361.7"/>
<text text-anchor="start" x="454.8807" y="-369.4" font-family="Helvetica,sans-Serif" font-size="11.00" fill="#000000">timestamp[29,6]</text>
<polygon fill="none" stroke="#000000" points="156,-339.7 156,-361.7 452,-361.7 452,-339.7 156,-339.7"/>
<text text-anchor="start" x="176" y="-346.8" font-family="Helvetica,sans-Serif" font-size="11.00" fill="#000000">prisoners_assigned_count</text>
<polygon fill="none" stroke="#000000" points="452,-339.7 452,-361.7 536,-361.7 536,-339.7 452,-339.7"/>
<text text-anchor="start" x="455" y="-347.4" font-family="Helvetica,sans-Serif" font-size="11.00" fill="#000000">int4[10]</text>
<polygon fill="none" stroke="#000000" points="156,-317.7 156,-339.7 452,-339.7 452,-317.7 156,-317.7"/>
<text text-anchor="start" x="176" y="-324.8" font-family="Helvetica,sans-Serif" font-size="11.00" fill="#000000">prisoner_count</text>
<polygon fill="none" stroke="#000000" points="452,-317.7 452,-339.7 536,-339.7 536,-317.7 452,-317.7"/>
<text text-anchor="start" x="455" y="-325.4" font-family="Helvetica,sans-Serif" font-size="11.00" fill="#000000">int4[10]</text>
<polygon fill="none" stroke="#000000" points="156,-295.7 156,-317.7 452,-317.7 452,-295.7 156,-295.7"/>
<text text-anchor="start" x="176" y="-302.8" font-family="Helvetica,sans-Serif" font-size="11.00" fill="#000000">recorded_session_count</text>
<polygon fill="none" stroke="#000000" points="452,-295.7 452,-317.7 536,-317.7 536,-295.7 452,-295.7"/>
<text text-anchor="start" x="455" y="-303.4" font-family="Helvetica,sans-Serif" font-size="11.00" fill="#000000">int4[10]</text>
<polygon fill="none" stroke="#000000" points="156,-273.7 156,-295.7 452,-295.7 452,-273.7 156,-273.7"/>
<text text-anchor="start" x="176" y="-280.8" font-family="Helvetica,sans-Serif" font-size="11.00" fill="#000000">recorded_entry_count</text>
<polygon fill="none" stroke="#000000" points="452,-273.7 452,-295.7 536,-295.7 536,-273.7 452,-273.7"/>
<text text-anchor="start" x="455" y="-281.4" font-family="Helvetica,sans-Serif" font-size="11.00" fill="#000000">int4[10]</text>
<polygon fill="none" stroke="#000000" points="156,-251.7 156,-273.7 452,-273.7 452,-251.7 156,-251.7"/>
<text text-anchor="start" x="176" y="-258.8" font-family="Helvetica,sans-Serif" font-size="11.00" fill="#000000">eligible_staff_count</text>
<polygon fill="none" stroke="#000000" points="452,-251.7 452,-273.7 536,-273.7 536,-251.7 452,-251.7"/>
<text text-anchor="start" x="455" y="-259.4" font-family="Helvetica,sans-Serif" font-size="11.00" fill="#000000">int4[10]</text>
<polygon fill="none" stroke="#000000" points="156,-229.7 156,-251.7 452,-251.7 452,-229.7 156,-229.7"/>
<text text-anchor="start" x="176" y="-236.8" font-family="Helvetica,sans-Serif" font-size="11.00" fill="#000000">reception_to_allocation_days</text>
<polygon fill="none" stroke="#000000" points="452,-229.7 452,-251.7 536,-251.7 536,-229.7 452,-229.7"/>
<text text-anchor="start" x="455" y="-237.4" font-family="Helvetica,sans-Serif" font-size="11.00" fill="#000000">int4[10]</text>
<polygon fill="none" stroke="#000000" points="156,-207.7 156,-229.7 452,-229.7 452,-207.7 156,-207.7"/>
<text text-anchor="start" x="176" y="-214.8" font-family="Helvetica,sans-Serif" font-size="11.00" fill="#000000">reception_to_recorded_event_days</text>
<polygon fill="none" stroke="#000000" points="452,-207.7 452,-229.7 536,-229.7 536,-207.7 452,-207.7"/>
<text text-anchor="start" x="455" y="-215.4" font-family="Helvetica,sans-Serif" font-size="11.00" fill="#000000">int4[10]</text>
<polygon fill="none" stroke="#000000" points="156,-185.7 156,-207.7 452,-207.7 452,-185.7 156,-185.7"/>
<text text-anchor="start" x="176" y="-192.8" font-family="Helvetica,sans-Serif" font-size="11.00" fill="#000000">eligible_prisoner_count</text>
<polygon fill="none" stroke="#000000" points="452,-185.7 452,-207.7 536,-207.7 536,-185.7 452,-185.7"/>
<text text-anchor="start" x="455" y="-193.4" font-family="Helvetica,sans-Serif" font-size="11.00" fill="#000000">int4[10]</text>
<polygon fill="none" stroke="#000000" points="156,-163.7 156,-185.7 452,-185.7 452,-163.7 156,-163.7"/>
<text text-anchor="start" x="176" y="-170.8" font-family="Helvetica,sans-Serif" font-size="11.00" fill="#000000">high_complexity_of_need_prisoner_count</text>
<polygon fill="none" stroke="#000000" points="452,-163.7 452,-185.7 536,-185.7 536,-163.7 452,-163.7"/>
<text text-anchor="start" x="455" y="-171.4" font-family="Helvetica,sans-Serif" font-size="11.00" fill="#000000">int4[10]</text>
<polygon fill="none" stroke="#000000" points="156,-141.7 156,-163.7 452,-163.7 452,-141.7 156,-141.7"/>
<image xlink:href="../../images/foreignKeys.png" width="11px" height="12px" preserveAspectRatio="xMinYMin meet" x="161" y="-158.7"/>
<text text-anchor="start" x="176" y="-148.8" font-family="Helvetica,sans-Serif" font-size="11.00" fill="#000000">policy_code</text>
<polygon fill="none" stroke="#000000" points="452,-141.7 452,-163.7 536,-163.7 536,-141.7 452,-141.7"/>
<text text-anchor="start" x="455" y="-149.4" font-family="Helvetica,sans-Serif" font-size="11.00" fill="#000000">varchar[16]</text>
<polygon fill="#ffffff" stroke="transparent" points="156,-122.7 156,-141.7 308,-141.7 308,-122.7 156,-122.7"/>
<polygon fill="none" stroke="#000000" points="156,-122.7 156,-141.7 308,-141.7 308,-122.7 156,-122.7"/>
<text text-anchor="start" x="159" y="-128.8" font-family="Helvetica,sans-Serif" font-size="11.00" fill="#000000">&lt; 1</text>
<polygon fill="#ffffff" stroke="transparent" points="308,-122.7 308,-141.7 452,-141.7 452,-122.7 308,-122.7"/>
<polygon fill="none" stroke="#000000" points="308,-122.7 308,-141.7 452,-141.7 452,-122.7 308,-122.7"/>
<text text-anchor="start" x="442.8862" y="-128.8" font-family="Helvetica,sans-Serif" font-size="11.00" fill="#000000"> &#160;</text>
<polygon fill="#ffffff" stroke="transparent" points="452,-122.7 452,-141.7 536,-141.7 536,-122.7 452,-122.7"/>
<polygon fill="none" stroke="#000000" points="452,-122.7 452,-141.7 536,-141.7 536,-122.7 452,-122.7"/>
<text text-anchor="start" x="517.4053" y="-128.8" font-family="Helvetica,sans-Serif" font-size="11.00" fill="#000000">0 &gt;</text>
<polygon fill="none" stroke="#000000" stroke-width="2" points="155,-121.7 155,-451.7 537,-451.7 537,-121.7 155,-121.7"/>
</a>
</g>
</g>
<!-- prison_statistic&#45;&gt;policy -->
<g id="edge3" class="edge">
<title>prison_statistic:w&#45;&gt;policy:e</title>
<path fill="none" stroke="#000000" d="M141.7154,-155.1597C90.0768,-176.3085 180.3626,-326.7 105.5,-326.7"/>
<polygon fill="#000000" stroke="#000000" points="148.116,-154.0576 156.6109,-156.2478 152.058,-153.3788 156,-152.7 156,-152.7 156,-152.7 152.058,-153.3788 155.3891,-149.1522 148.116,-154.0576 148.116,-154.0576"/>
<ellipse fill="none" stroke="#000000" cx="144.9624" cy="-154.6007" rx="3.2" ry="3.2"/>
</g>
<!-- staff_configuration -->
<g id="node5" class="node">
<title>staff_configuration</title>
<g id="a_node5"><a xlink:href="../../tables/staff_configuration.html" xlink:title="staff_configuration" target="_top">
<polygon fill="#ffffff" stroke="transparent" points="262.5,-38.2 262.5,-99.2 429.5,-99.2 429.5,-38.2 262.5,-38.2"/>
<polygon fill="#f5f5f5" stroke="transparent" points="263,-75.7 263,-98.7 430,-98.7 430,-75.7 263,-75.7"/>
<polygon fill="none" stroke="#000000" points="263,-75.7 263,-98.7 430,-98.7 430,-75.7 263,-75.7"/>
<text text-anchor="start" x="268" y="-84.3" font-family="Helvetica,sans-Serif" font-weight="bold" font-size="11.00" fill="#000000">staff_configuration</text>
<text text-anchor="start" x="395.5219" y="-83.8" font-family="Helvetica,sans-Serif" font-size="11.00" fill="#000000">[table]</text>
<polygon fill="none" stroke="#000000" points="263,-56.7 263,-75.7 430,-75.7 430,-56.7 263,-56.7"/>
<text text-anchor="start" x="266" y="-62.8" font-family="Helvetica,sans-Serif" font-size="11.00" fill="#000000">...</text>
<polygon fill="#ffffff" stroke="transparent" points="263,-37.7 263,-56.7 345,-56.7 345,-37.7 263,-37.7"/>
<polygon fill="none" stroke="#000000" points="263,-37.7 263,-56.7 345,-56.7 345,-37.7 263,-37.7"/>
<text text-anchor="start" x="266" y="-43.8" font-family="Helvetica,sans-Serif" font-size="11.00" fill="#000000">&lt; 2</text>
<polygon fill="#ffffff" stroke="transparent" points="345,-37.7 345,-56.7 387,-56.7 387,-37.7 345,-37.7"/>
<polygon fill="none" stroke="#000000" points="345,-37.7 345,-56.7 387,-56.7 387,-37.7 345,-37.7"/>
<text text-anchor="start" x="377.8862" y="-43.8" font-family="Helvetica,sans-Serif" font-size="11.00" fill="#000000"> &#160;</text>
<polygon fill="#ffffff" stroke="transparent" points="387,-37.7 387,-56.7 430,-56.7 430,-37.7 387,-37.7"/>
<polygon fill="none" stroke="#000000" points="387,-37.7 387,-56.7 430,-56.7 430,-37.7 387,-37.7"/>
<text text-anchor="start" x="420.8862" y="-43.8" font-family="Helvetica,sans-Serif" font-size="11.00" fill="#000000"> &#160;</text>
</a>
</g>
</g>
<!-- staff_configuration&#45;&gt;policy -->
<g id="edge4" class="edge">
<title>staff_configuration:w&#45;&gt;policy:e</title>
<path fill="none" stroke="#000000" d="M248.3865,-65.7851C202.4964,-66.4445 178.383,-71.8204 146,-110.7 83.4903,-185.7502 203.1729,-326.7 105.5,-326.7"/>
<polygon fill="#000000" stroke="#000000" points="255.0001,-65.7466 263.021,-69.2999 259.0001,-65.7233 263,-65.7 263,-65.7 263,-65.7 259.0001,-65.7233 262.979,-62.1001 255.0001,-65.7466 255.0001,-65.7466"/>
<ellipse fill="none" stroke="#000000" cx="251.8002" cy="-65.7653" rx="3.2" ry="3.2"/>
</g>
</g>
</svg>
