<?xml version="1.0" encoding="UTF-8" standalone="no"?>
<!DOCTYPE svg PUBLIC "-//W3C//DTD SVG 1.1//EN"
 "http://www.w3.org/Graphics/SVG/1.1/DTD/svg11.dtd">
<!-- Generated by graphviz version 2.40.1 (20161225.0304)
 -->
<!-- Title: twoDegreesRelationshipsDiagramImplied Pages: 1 -->
<svg width="732pt" height="413pt"
 viewBox="0.00 0.00 732.00 413.20" xmlns="http://www.w3.org/2000/svg" xmlns:xlink="http://www.w3.org/1999/xlink">
<g id="graph0" class="graph" transform="scale(1 1) rotate(0) translate(4 409.2)">
<title>twoDegreesRelationshipsDiagramImplied</title>
<polygon fill="#ffffff" stroke="transparent" points="-4,4 -4,-409.2 728,-409.2 728,4 -4,4"/>
<text text-anchor="middle" x="72.4936" y="-7.3" font-family="Helvetica,sans-Serif" font-size="11.00" fill="#000000">Generated by SchemaSpy</text>
<!-- keyworker_stats -->
<g id="node1" class="node">
<title>keyworker_stats</title>
<g id="a_node1"><a xlink:href="../../tables/keyworker_stats.html" xlink:title="keyworker_stats" target="_top">
<polygon fill="#ffffff" stroke="transparent" points="457,-274.2 457,-401.2 716,-401.2 716,-274.2 457,-274.2"/>
<polygon fill="#f5f5f5" stroke="transparent" points="457.5,-377.7 457.5,-400.7 716.5,-400.7 716.5,-377.7 457.5,-377.7"/>
<polygon fill="none" stroke="#000000" points="457.5,-377.7 457.5,-400.7 716.5,-400.7 716.5,-377.7 457.5,-377.7"/>
<text text-anchor="start" x="462.5" y="-386.3" font-family="Helvetica,sans-Serif" font-weight="bold" font-size="11.00" fill="#000000">keyworker_stats</text>
<text text-anchor="start" x="681.5437" y="-385.8" font-family="Helvetica,sans-Serif" font-size="11.00" fill="#000000">[table]</text>
<polygon fill="none" stroke="#000000" points="457.5,-355.7 457.5,-377.7 716.5,-377.7 716.5,-355.7 457.5,-355.7"/>
<image xlink:href="../../images/primaryKeys.png" width="11px" height="12px" preserveAspectRatio="xMinYMin meet" x="462.5" y="-372.7"/>
<text text-anchor="start" x="477.5" y="-362.8" font-family="Helvetica,sans-Serif" font-size="11.00" fill="#000000">keyworker_stats_id</text>
<polygon fill="#ffffff" stroke="transparent" points="457.5,-333.7 457.5,-355.7 716.5,-355.7 716.5,-333.7 457.5,-333.7"/>
<polygon fill="none" stroke="#000000" points="457.5,-333.7 457.5,-355.7 716.5,-355.7 716.5,-333.7 457.5,-333.7"/>
<image xlink:href="../../images/foreignKeys.png" width="11px" height="12px" preserveAspectRatio="xMinYMin meet" x="462.5" y="-350.7"/>
<text text-anchor="start" x="477.5" y="-340.8" font-family="Helvetica,sans-Serif" font-size="11.00" fill="#000000">prison_id</text>
<polygon fill="#ffffff" stroke="transparent" points="457.5,-311.7 457.5,-333.7 716.5,-333.7 716.5,-311.7 457.5,-311.7"/>
<polygon fill="none" stroke="#000000" points="457.5,-311.7 457.5,-333.7 716.5,-333.7 716.5,-311.7 457.5,-311.7"/>
<text text-anchor="start" x="477.5" y="-318.8" font-family="Helvetica,sans-Serif" font-size="11.00" fill="#000000">snapshot_date</text>
<polygon fill="none" stroke="#000000" points="457.5,-292.7 457.5,-311.7 716.5,-311.7 716.5,-292.7 457.5,-292.7"/>
<text text-anchor="start" x="460.5" y="-298.8" font-family="Helvetica,sans-Serif" font-size="11.00" fill="#000000">...</text>
<polygon fill="#ffffff" stroke="transparent" points="457.5,-273.7 457.5,-292.7 585.5,-292.7 585.5,-273.7 457.5,-273.7"/>
<polygon fill="none" stroke="#000000" points="457.5,-273.7 457.5,-292.7 585.5,-292.7 585.5,-273.7 457.5,-273.7"/>
<text text-anchor="start" x="460.5" y="-279.8" font-family="Helvetica,sans-Serif" font-size="11.00" fill="#000000">&lt; 1</text>
<polygon fill="#ffffff" stroke="transparent" points="585.5,-273.7 585.5,-292.7 650.5,-292.7 650.5,-273.7 585.5,-273.7"/>
<polygon fill="none" stroke="#000000" points="585.5,-273.7 585.5,-292.7 650.5,-292.7 650.5,-273.7 585.5,-273.7"/>
<text text-anchor="start" x="641.3862" y="-279.8" font-family="Helvetica,sans-Serif" font-size="11.00" fill="#000000"> &#160;</text>
<polygon fill="#ffffff" stroke="transparent" points="650.5,-273.7 650.5,-292.7 716.5,-292.7 716.5,-273.7 650.5,-273.7"/>
<polygon fill="none" stroke="#000000" points="650.5,-273.7 650.5,-292.7 716.5,-292.7 716.5,-273.7 650.5,-273.7"/>
<text text-anchor="start" x="707.3862" y="-279.8" font-family="Helvetica,sans-Serif" font-size="11.00" fill="#000000"> &#160;</text>
</a>
</g>
</g>
<!-- prison_supported -->
<g id="node2" class="node">
<title>prison_supported</title>
<g id="a_node2"><a xlink:href="../../tables/prison_supported.html" xlink:title="prison_supported" target="_top">
<polygon fill="#ffffff" stroke="transparent" points="8,-153.7 8,-375.7 408,-375.7 408,-153.7 8,-153.7"/>
<polygon fill="#f5f5f5" stroke="transparent" points="10,-350.7 10,-373.7 406,-373.7 406,-350.7 10,-350.7"/>
<polygon fill="none" stroke="#000000" points="10,-350.7 10,-373.7 406,-373.7 406,-350.7 10,-350.7"/>
<text text-anchor="start" x="15" y="-359.3" font-family="Helvetica,sans-Serif" font-weight="bold" font-size="11.00" fill="#000000">prison_supported</text>
<text text-anchor="start" x="371.0437" y="-358.8" font-family="Helvetica,sans-Serif" font-size="11.00" fill="#000000">[table]</text>
<polygon fill="none" stroke="#000000" points="10,-328.7 10,-350.7 322,-350.7 322,-328.7 10,-328.7"/>
<image xlink:href="../../images/primaryKeys.png" width="11px" height="12px" preserveAspectRatio="xMinYMin meet" x="15" y="-345.7"/>
<text text-anchor="start" x="30" y="-335.8" font-family="Helvetica,sans-Serif" font-size="11.00" fill="#000000">prison_id</text>
<polygon fill="none" stroke="#000000" points="322,-328.7 322,-350.7 406,-350.7 406,-328.7 322,-328.7"/>
<text text-anchor="start" x="325" y="-336.4" font-family="Helvetica,sans-Serif" font-size="11.00" fill="#000000">varchar[6]</text>
<polygon fill="none" stroke="#000000" points="10,-306.7 10,-328.7 322,-328.7 322,-306.7 10,-306.7"/>
<text text-anchor="start" x="30" y="-313.8" font-family="Helvetica,sans-Serif" font-size="11.00" fill="#000000">auto_allocate</text>
<polygon fill="none" stroke="#000000" points="322,-306.7 322,-328.7 406,-328.7 406,-306.7 322,-306.7"/>
<text text-anchor="start" x="325" y="-314.4" font-family="Helvetica,sans-Serif" font-size="11.00" fill="#000000">bool[1]</text>
<polygon fill="none" stroke="#000000" points="10,-284.7 10,-306.7 322,-306.7 322,-284.7 10,-284.7"/>
<text text-anchor="start" x="30" y="-291.8" font-family="Helvetica,sans-Serif" font-size="11.00" fill="#000000">migrated</text>
<polygon fill="none" stroke="#000000" points="322,-284.7 322,-306.7 406,-306.7 406,-284.7 322,-284.7"/>
<text text-anchor="start" x="325" y="-292.4" font-family="Helvetica,sans-Serif" font-size="11.00" fill="#000000">bool[1]</text>
<polygon fill="none" stroke="#000000" points="10,-262.7 10,-284.7 322,-284.7 322,-262.7 10,-262.7"/>
<text text-anchor="start" x="30" y="-269.8" font-family="Helvetica,sans-Serif" font-size="11.00" fill="#000000">migrated_date_time</text>
<polygon fill="none" stroke="#000000" points="322,-262.7 322,-284.7 406,-284.7 406,-262.7 322,-262.7"/>
<text text-anchor="start" x="324.8807" y="-270.4" font-family="Helvetica,sans-Serif" font-size="11.00" fill="#000000">timestamp[29,6]</text>
<polygon fill="none" stroke="#000000" points="10,-240.7 10,-262.7 322,-262.7 322,-240.7 10,-240.7"/>
<text text-anchor="start" x="30" y="-247.8" font-family="Helvetica,sans-Serif" font-size="11.00" fill="#000000">capacity_tier_1</text>
<polygon fill="none" stroke="#000000" points="322,-240.7 322,-262.7 406,-262.7 406,-240.7 322,-240.7"/>
<text text-anchor="start" x="325" y="-248.4" font-family="Helvetica,sans-Serif" font-size="11.00" fill="#000000">int4[10]</text>
<polygon fill="none" stroke="#000000" points="10,-218.7 10,-240.7 322,-240.7 322,-218.7 10,-218.7"/>
<text text-anchor="start" x="30" y="-225.8" font-family="Helvetica,sans-Serif" font-size="11.00" fill="#000000">capacity_tier_2</text>
<polygon fill="none" stroke="#000000" points="322,-218.7 322,-240.7 406,-240.7 406,-218.7 322,-218.7"/>
<text text-anchor="start" x="325" y="-226.4" font-family="Helvetica,sans-Serif" font-size="11.00" fill="#000000">int4[10]</text>
<polygon fill="none" stroke="#000000" points="10,-196.7 10,-218.7 322,-218.7 322,-196.7 10,-196.7"/>
<text text-anchor="start" x="30" y="-203.8" font-family="Helvetica,sans-Serif" font-size="11.00" fill="#000000">kw_session_freq_weeks</text>
<polygon fill="none" stroke="#000000" points="322,-196.7 322,-218.7 406,-218.7 406,-196.7 322,-196.7"/>
<text text-anchor="start" x="325" y="-204.4" font-family="Helvetica,sans-Serif" font-size="11.00" fill="#000000">int4[10]</text>
<polygon fill="none" stroke="#000000" points="10,-174.7 10,-196.7 322,-196.7 322,-174.7 10,-174.7"/>
<text text-anchor="start" x="30" y="-181.8" font-family="Helvetica,sans-Serif" font-size="11.00" fill="#000000">has_prisoners_with_high_complexity_needs</text>
<polygon fill="none" stroke="#000000" points="322,-174.7 322,-196.7 406,-196.7 406,-174.7 322,-174.7"/>
<text text-anchor="start" x="325" y="-182.4" font-family="Helvetica,sans-Serif" font-size="11.00" fill="#000000">bool[1]</text>
<polygon fill="#ffffff" stroke="transparent" points="10,-155.7 10,-174.7 170,-174.7 170,-155.7 10,-155.7"/>
<polygon fill="none" stroke="#000000" points="10,-155.7 10,-174.7 170,-174.7 170,-155.7 10,-155.7"/>
<text text-anchor="start" x="13" y="-161.8" font-family="Helvetica,sans-Serif" font-size="11.00" fill="#000000">&lt; 0</text>
<polygon fill="#ffffff" stroke="transparent" points="170,-155.7 170,-174.7 322,-174.7 322,-155.7 170,-155.7"/>
<polygon fill="none" stroke="#000000" points="170,-155.7 170,-174.7 322,-174.7 322,-155.7 170,-155.7"/>
<text text-anchor="start" x="312.8862" y="-161.8" font-family="Helvetica,sans-Serif" font-size="11.00" fill="#000000"> &#160;</text>
<polygon fill="#ffffff" stroke="transparent" points="322,-155.7 322,-174.7 406,-174.7 406,-155.7 322,-155.7"/>
<polygon fill="none" stroke="#000000" points="322,-155.7 322,-174.7 406,-174.7 406,-155.7 322,-155.7"/>
<text text-anchor="start" x="387.4053" y="-161.8" font-family="Helvetica,sans-Serif" font-size="11.00" fill="#000000">2 &gt;</text>
<polygon fill="none" stroke="#000000" stroke-width="2" points="9,-154.7 9,-374.7 407,-374.7 407,-154.7 9,-154.7"/>
</a>
</g>
</g>
<!-- keyworker_stats&#45;&gt;prison_supported -->
<g id="edge1" class="edge">
<title>keyworker_stats:w&#45;&gt;prison_supported:e</title>
<path fill="none" stroke="#000000" stroke-dasharray="5,2" d="M442.9854,-343.9188C430.6569,-342.5125 423.2474,-339.7 406,-339.7"/>
<polygon fill="#000000" stroke="#000000" points="449.5116,-344.27 457.3065,-348.2948 453.5058,-344.485 457.5,-344.7 457.5,-344.7 457.5,-344.7 453.5058,-344.485 457.6935,-341.1052 449.5116,-344.27 449.5116,-344.27"/>
<ellipse fill="none" stroke="#000000" cx="446.3162" cy="-344.098" rx="3.2" ry="3.2"/>
</g>
<!-- offender_key_worker -->
<g id="node3" class="node">
<title>offender_key_worker</title>
<g id="a_node3"><a xlink:href="../../tables/offender_key_worker.html" xlink:title="offender_key_worker" target="_top">
<polygon fill="#ffffff" stroke="transparent" points="496.5,-38.2 496.5,-253.2 676.5,-253.2 676.5,-38.2 496.5,-38.2"/>
<polygon fill="#f5f5f5" stroke="transparent" points="496.5,-229.7 496.5,-252.7 676.5,-252.7 676.5,-229.7 496.5,-229.7"/>
<polygon fill="none" stroke="#000000" points="496.5,-229.7 496.5,-252.7 676.5,-252.7 676.5,-229.7 496.5,-229.7"/>
<text text-anchor="start" x="501.5" y="-238.3" font-family="Helvetica,sans-Serif" font-weight="bold" font-size="11.00" fill="#000000">offender_key_worker</text>
<text text-anchor="start" x="642.0219" y="-237.8" font-family="Helvetica,sans-Serif" font-size="11.00" fill="#000000">[table]</text>
<polygon fill="none" stroke="#000000" points="496.5,-207.7 496.5,-229.7 676.5,-229.7 676.5,-207.7 496.5,-207.7"/>
<image xlink:href="../../images/primaryKeys.png" width="11px" height="12px" preserveAspectRatio="xMinYMin meet" x="501.5" y="-224.7"/>
<text text-anchor="start" x="519.5" y="-214.8" font-family="Helvetica,sans-Serif" font-size="11.00" fill="#000000">offender_keyworker_id</text>
<polygon fill="#ffffff" stroke="transparent" points="496.5,-185.7 496.5,-207.7 676.5,-207.7 676.5,-185.7 496.5,-185.7"/>
<polygon fill="none" stroke="#000000" points="496.5,-185.7 496.5,-207.7 676.5,-207.7 676.5,-185.7 496.5,-185.7"/>
<text text-anchor="start" x="519.5" y="-192.8" font-family="Helvetica,sans-Serif" font-size="11.00" fill="#000000">offender_no</text>
<polygon fill="#ffffff" stroke="transparent" points="496.5,-163.7 496.5,-185.7 676.5,-185.7 676.5,-163.7 496.5,-163.7"/>
<polygon fill="none" stroke="#000000" points="496.5,-163.7 496.5,-185.7 676.5,-185.7 676.5,-163.7 496.5,-163.7"/>
<text text-anchor="start" x="519.5" y="-170.8" font-family="Helvetica,sans-Serif" font-size="11.00" fill="#000000">staff_id</text>
<polygon fill="#ffffff" stroke="transparent" points="496.5,-141.7 496.5,-163.7 676.5,-163.7 676.5,-141.7 496.5,-141.7"/>
<polygon fill="none" stroke="#000000" points="496.5,-141.7 496.5,-163.7 676.5,-163.7 676.5,-141.7 496.5,-141.7"/>
<text text-anchor="start" x="519.5" y="-148.8" font-family="Helvetica,sans-Serif" font-size="11.00" fill="#000000">assigned_date_time</text>
<polygon fill="#ffffff" stroke="transparent" points="496.5,-119.7 496.5,-141.7 676.5,-141.7 676.5,-119.7 496.5,-119.7"/>
<polygon fill="none" stroke="#000000" points="496.5,-119.7 496.5,-141.7 676.5,-141.7 676.5,-119.7 496.5,-119.7"/>
<image xlink:href="../../images/foreignKeys.png" width="11px" height="12px" preserveAspectRatio="xMinYMin meet" x="501.5" y="-136.7"/>
<text text-anchor="start" x="519.5" y="-126.8" font-family="Helvetica,sans-Serif" font-size="11.00" fill="#000000">prison_id</text>
<polygon fill="none" stroke="#000000" points="496.5,-97.7 496.5,-119.7 676.5,-119.7 676.5,-97.7 496.5,-97.7"/>
<image xlink:href="../../images/foreignKeys.png" width="11px" height="12px" preserveAspectRatio="xMinYMin meet" x="501.5" y="-114.7"/>
<text text-anchor="start" x="519.5" y="-104.8" font-family="Helvetica,sans-Serif" font-size="11.00" fill="#000000">allocation_reason_id</text>
<polygon fill="none" stroke="#000000" points="496.5,-75.7 496.5,-97.7 676.5,-97.7 676.5,-75.7 496.5,-75.7"/>
<image xlink:href="../../images/foreignKeys.png" width="11px" height="12px" preserveAspectRatio="xMinYMin meet" x="501.5" y="-92.7"/>
<text text-anchor="start" x="519.5" y="-82.8" font-family="Helvetica,sans-Serif" font-size="11.00" fill="#000000">deallocation_reason_id</text>
<polygon fill="none" stroke="#000000" points="496.5,-56.7 496.5,-75.7 676.5,-75.7 676.5,-56.7 496.5,-56.7"/>
<text text-anchor="start" x="499.5" y="-62.8" font-family="Helvetica,sans-Serif" font-size="11.00" fill="#000000">...</text>
<polygon fill="#ffffff" stroke="transparent" points="496.5,-37.7 496.5,-56.7 584.5,-56.7 584.5,-37.7 496.5,-37.7"/>
<polygon fill="none" stroke="#000000" points="496.5,-37.7 496.5,-56.7 584.5,-56.7 584.5,-37.7 496.5,-37.7"/>
<text text-anchor="start" x="499.5" y="-43.8" font-family="Helvetica,sans-Serif" font-size="11.00" fill="#000000">&lt; 3</text>
<polygon fill="#ffffff" stroke="transparent" points="584.5,-37.7 584.5,-56.7 630.5,-56.7 630.5,-37.7 584.5,-37.7"/>
<polygon fill="none" stroke="#000000" points="584.5,-37.7 584.5,-56.7 630.5,-56.7 630.5,-37.7 584.5,-37.7"/>
<text text-anchor="start" x="621.3862" y="-43.8" font-family="Helvetica,sans-Serif" font-size="11.00" fill="#000000"> &#160;</text>
<polygon fill="#ffffff" stroke="transparent" points="630.5,-37.7 630.5,-56.7 676.5,-56.7 676.5,-37.7 630.5,-37.7"/>
<polygon fill="none" stroke="#000000" points="630.5,-37.7 630.5,-56.7 676.5,-56.7 676.5,-37.7 630.5,-37.7"/>
<text text-anchor="start" x="667.3862" y="-43.8" font-family="Helvetica,sans-Serif" font-size="11.00" fill="#000000"> &#160;</text>
</a>
</g>
</g>
<!-- offender_key_worker&#45;&gt;prison_supported -->
<g id="edge4" class="edge">
<title>offender_key_worker:w&#45;&gt;prison_supported:e</title>
<path fill="none" stroke="#000000" stroke-dasharray="5,2" d="M482.8487,-136.7296C447.4338,-170.9973 451.4714,-339.7 406,-339.7"/>
<polygon fill="#000000" stroke="#000000" points="489.182,-133.9323 497.9545,-133.9931 492.841,-132.3161 496.5,-130.7 496.5,-130.7 496.5,-130.7 492.841,-132.3161 495.0455,-127.4069 489.182,-133.9323 489.182,-133.9323"/>
<ellipse fill="none" stroke="#000000" cx="486.2548" cy="-135.2252" rx="3.2" ry="3.2"/>
</g>
<!-- reference_data -->
<g id="node4" class="node">
<title>reference_data</title>
<g id="a_node4"><a xlink:href="../../tables/reference_data.html" xlink:title="reference_data" target="_top">
<polygon fill="#ffffff" stroke="transparent" points="138,-67.2 138,-128.2 278,-128.2 278,-67.2 138,-67.2"/>
<polygon fill="#f5f5f5" stroke="transparent" points="138,-104.7 138,-127.7 278,-127.7 278,-104.7 138,-104.7"/>
<polygon fill="none" stroke="#000000" points="138,-104.7 138,-127.7 278,-127.7 278,-104.7 138,-104.7"/>
<text text-anchor="start" x="143" y="-113.3" font-family="Helvetica,sans-Serif" font-weight="bold" font-size="11.00" fill="#000000">reference_data</text>
<text text-anchor="start" x="243.5219" y="-112.8" font-family="Helvetica,sans-Serif" font-size="11.00" fill="#000000">[table]</text>
<polygon fill="none" stroke="#000000" points="138,-85.7 138,-104.7 278,-104.7 278,-85.7 138,-85.7"/>
<text text-anchor="start" x="141" y="-91.8" font-family="Helvetica,sans-Serif" font-size="11.00" fill="#000000">...</text>
<polygon fill="#ffffff" stroke="transparent" points="138,-66.7 138,-85.7 197,-85.7 197,-66.7 138,-66.7"/>
<polygon fill="none" stroke="#000000" points="138,-66.7 138,-85.7 197,-85.7 197,-66.7 138,-66.7"/>
<text text-anchor="start" x="141" y="-72.8" font-family="Helvetica,sans-Serif" font-size="11.00" fill="#000000"> &#160;</text>
<polygon fill="#ffffff" stroke="transparent" points="197,-66.7 197,-85.7 233,-85.7 233,-66.7 197,-66.7"/>
<polygon fill="none" stroke="#000000" points="197,-66.7 197,-85.7 233,-85.7 233,-66.7 197,-66.7"/>
<text text-anchor="start" x="223.8862" y="-72.8" font-family="Helvetica,sans-Serif" font-size="11.00" fill="#000000"> &#160;</text>
<polygon fill="#ffffff" stroke="transparent" points="233,-66.7 233,-85.7 278,-85.7 278,-66.7 233,-66.7"/>
<polygon fill="none" stroke="#000000" points="233,-66.7 233,-85.7 278,-85.7 278,-66.7 233,-66.7"/>
<text text-anchor="start" x="259.4053" y="-72.8" font-family="Helvetica,sans-Serif" font-size="11.00" fill="#000000">3 &gt;</text>
</a>
</g>
</g>
<!-- offender_key_worker&#45;&gt;reference_data -->
<g id="edge2" class="edge">
<title>offender_key_worker:w&#45;&gt;reference_data:e</title>
<path fill="none" stroke="#000000" d="M481.9601,-108.5914C396.5211,-107.2883 370.2737,-94.7 278,-94.7"/>
<polygon fill="#000000" stroke="#000000" points="488.5002,-108.6402 496.4731,-112.2999 492.5001,-108.6701 496.5,-108.7 496.5,-108.7 496.5,-108.7 492.5001,-108.6701 496.5269,-105.1001 488.5002,-108.6402 488.5002,-108.6402"/>
<ellipse fill="none" stroke="#000000" cx="485.3003" cy="-108.6162" rx="3.2" ry="3.2"/>
</g>
<!-- offender_key_worker&#45;&gt;reference_data -->
<g id="edge3" class="edge">
<title>offender_key_worker:w&#45;&gt;reference_data:e</title>
<path fill="none" stroke="#000000" d="M481.9778,-86.7621C396.6285,-87.5067 370.1466,-94.7 278,-94.7"/>
<polygon fill="#000000" stroke="#000000" points="488.5001,-86.7343 496.5154,-90.3 492.5,-86.7171 496.5,-86.7 496.5,-86.7 496.5,-86.7 492.5,-86.7171 496.4846,-83.1 488.5001,-86.7343 488.5001,-86.7343"/>
<ellipse fill="none" stroke="#000000" cx="485.3001" cy="-86.748" rx="3.2" ry="3.2"/>
</g>
</g>
</svg>
