<?xml version="1.0" encoding="UTF-8" standalone="no"?>
<!DOCTYPE svg PUBLIC "-//W3C//DTD SVG 1.1//EN"
 "http://www.w3.org/Graphics/SVG/1.1/DTD/svg11.dtd">
<!-- Generated by graphviz version 2.40.1 (20161225.0304)
 -->
<!-- Title: oneDegreeRelationshipsDiagramImplied Pages: 1 -->
<svg width="763pt" height="1625pt"
 viewBox="0.00 0.00 763.00 1625.20" xmlns="http://www.w3.org/2000/svg" xmlns:xlink="http://www.w3.org/1999/xlink">
<g id="graph0" class="graph" transform="scale(1 1) rotate(0) translate(4 1621.2)">
<title>oneDegreeRelationshipsDiagramImplied</title>
<polygon fill="#ffffff" stroke="transparent" points="-4,4 -4,-1621.2 759,-1621.2 759,4 -4,4"/>
<text text-anchor="middle" x="72.4936" y="-7.3" font-family="Helvetica,sans-Serif" font-size="11.00" fill="#000000">Generated by SchemaSpy</text>
<!-- allocation -->
<g id="node1" class="node">
<title>allocation</title>
<g id="a_node1"><a xlink:href="../../tables/allocation.html" xlink:title="allocation" target="_top">
<polygon fill="#ffffff" stroke="transparent" points="471.5,-1376.2 471.5,-1613.2 645.5,-1613.2 645.5,-1376.2 471.5,-1376.2"/>
<polygon fill="#f5f5f5" stroke="transparent" points="471.5,-1589.7 471.5,-1612.7 645.5,-1612.7 645.5,-1589.7 471.5,-1589.7"/>
<polygon fill="none" stroke="#000000" points="471.5,-1589.7 471.5,-1612.7 645.5,-1612.7 645.5,-1589.7 471.5,-1589.7"/>
<text text-anchor="start" x="476.5" y="-1598.3" font-family="Helvetica,sans-Serif" font-weight="bold" font-size="11.00" fill="#000000">allocation</text>
<text text-anchor="start" x="610.5437" y="-1597.8" font-family="Helvetica,sans-Serif" font-size="11.00" fill="#000000">[table]</text>
<polygon fill="none" stroke="#000000" points="471.5,-1567.7 471.5,-1589.7 645.5,-1589.7 645.5,-1567.7 471.5,-1567.7"/>
<image xlink:href="../../images/primaryKeys.png" width="11px" height="12px" preserveAspectRatio="xMinYMin meet" x="476.5" y="-1584.7"/>
<text text-anchor="start" x="491.5" y="-1574.8" font-family="Helvetica,sans-Serif" font-size="11.00" fill="#000000">id</text>
<polygon fill="#ffffff" stroke="transparent" points="471.5,-1545.7 471.5,-1567.7 645.5,-1567.7 645.5,-1545.7 471.5,-1545.7"/>
<polygon fill="none" stroke="#000000" points="471.5,-1545.7 471.5,-1567.7 645.5,-1567.7 645.5,-1545.7 471.5,-1545.7"/>
<image xlink:href="../../images/foreignKeys.png" width="11px" height="12px" preserveAspectRatio="xMinYMin meet" x="476.5" y="-1562.7"/>
<text text-anchor="start" x="491.5" y="-1552.8" font-family="Helvetica,sans-Serif" font-size="11.00" fill="#000000">prison_code</text>
<polygon fill="#ffffff" stroke="transparent" points="471.5,-1523.7 471.5,-1545.7 645.5,-1545.7 645.5,-1523.7 471.5,-1523.7"/>
<polygon fill="none" stroke="#000000" points="471.5,-1523.7 471.5,-1545.7 645.5,-1545.7 645.5,-1523.7 471.5,-1523.7"/>
<text text-anchor="start" x="491.5" y="-1530.8" font-family="Helvetica,sans-Serif" font-size="11.00" fill="#000000">staff_id</text>
<polygon fill="#ffffff" stroke="transparent" points="471.5,-1501.7 471.5,-1523.7 645.5,-1523.7 645.5,-1501.7 471.5,-1501.7"/>
<polygon fill="none" stroke="#000000" points="471.5,-1501.7 471.5,-1523.7 645.5,-1523.7 645.5,-1501.7 471.5,-1501.7"/>
<text text-anchor="start" x="491.5" y="-1508.8" font-family="Helvetica,sans-Serif" font-size="11.00" fill="#000000">person_identifier</text>
<polygon fill="#ffffff" stroke="transparent" points="471.5,-1479.7 471.5,-1501.7 645.5,-1501.7 645.5,-1479.7 471.5,-1479.7"/>
<polygon fill="none" stroke="#000000" points="471.5,-1479.7 471.5,-1501.7 645.5,-1501.7 645.5,-1479.7 471.5,-1479.7"/>
<text text-anchor="start" x="491.5" y="-1486.8" font-family="Helvetica,sans-Serif" font-size="11.00" fill="#000000">allocated_at</text>
<polygon fill="none" stroke="#000000" points="471.5,-1457.7 471.5,-1479.7 645.5,-1479.7 645.5,-1457.7 471.5,-1457.7"/>
<image xlink:href="../../images/foreignKeys.png" width="11px" height="12px" preserveAspectRatio="xMinYMin meet" x="476.5" y="-1474.7"/>
<text text-anchor="start" x="491.5" y="-1464.8" font-family="Helvetica,sans-Serif" font-size="11.00" fill="#000000">allocation_reason_id</text>
<polygon fill="none" stroke="#000000" points="471.5,-1435.7 471.5,-1457.7 645.5,-1457.7 645.5,-1435.7 471.5,-1435.7"/>
<image xlink:href="../../images/foreignKeys.png" width="11px" height="12px" preserveAspectRatio="xMinYMin meet" x="476.5" y="-1452.7"/>
<text text-anchor="start" x="491.5" y="-1442.8" font-family="Helvetica,sans-Serif" font-size="11.00" fill="#000000">deallocation_reason_id</text>
<polygon fill="#ffffff" stroke="transparent" points="471.5,-1413.7 471.5,-1435.7 645.5,-1435.7 645.5,-1413.7 471.5,-1413.7"/>
<polygon fill="none" stroke="#000000" points="471.5,-1413.7 471.5,-1435.7 645.5,-1435.7 645.5,-1413.7 471.5,-1413.7"/>
<image xlink:href="../../images/foreignKeys.png" width="11px" height="12px" preserveAspectRatio="xMinYMin meet" x="476.5" y="-1430.7"/>
<text text-anchor="start" x="491.5" y="-1420.8" font-family="Helvetica,sans-Serif" font-size="11.00" fill="#000000">policy_code</text>
<polygon fill="none" stroke="#000000" points="471.5,-1394.7 471.5,-1413.7 645.5,-1413.7 645.5,-1394.7 471.5,-1394.7"/>
<text text-anchor="start" x="474.5" y="-1400.8" font-family="Helvetica,sans-Serif" font-size="11.00" fill="#000000">...</text>
<polygon fill="#ffffff" stroke="transparent" points="471.5,-1375.7 471.5,-1394.7 556.5,-1394.7 556.5,-1375.7 471.5,-1375.7"/>
<polygon fill="none" stroke="#000000" points="471.5,-1375.7 471.5,-1394.7 556.5,-1394.7 556.5,-1375.7 471.5,-1375.7"/>
<text text-anchor="start" x="474.5" y="-1381.8" font-family="Helvetica,sans-Serif" font-size="11.00" fill="#000000">&lt; 4</text>
<polygon fill="#ffffff" stroke="transparent" points="556.5,-1375.7 556.5,-1394.7 600.5,-1394.7 600.5,-1375.7 556.5,-1375.7"/>
<polygon fill="none" stroke="#000000" points="556.5,-1375.7 556.5,-1394.7 600.5,-1394.7 600.5,-1375.7 556.5,-1375.7"/>
<text text-anchor="start" x="591.3862" y="-1381.8" font-family="Helvetica,sans-Serif" font-size="11.00" fill="#000000"> &#160;</text>
<polygon fill="#ffffff" stroke="transparent" points="600.5,-1375.7 600.5,-1394.7 645.5,-1394.7 645.5,-1375.7 600.5,-1375.7"/>
<polygon fill="none" stroke="#000000" points="600.5,-1375.7 600.5,-1394.7 645.5,-1394.7 645.5,-1375.7 600.5,-1375.7"/>
<text text-anchor="start" x="636.3862" y="-1381.8" font-family="Helvetica,sans-Serif" font-size="11.00" fill="#000000"> &#160;</text>
</a>
</g>
</g>
<!-- prison_migration_date_history -->
<g id="node2" class="node">
<title>prison_migration_date_history</title>
<g id="a_node2"><a xlink:href="../../tables/prison_migration_date_history.html" xlink:title="prison_migration_date_history" target="_top">
<polygon fill="#ffffff" stroke="transparent" points="8,-756.7 8,-846.7 321,-846.7 321,-756.7 8,-756.7"/>
<polygon fill="#f5f5f5" stroke="transparent" points="10.5,-821.7 10.5,-844.7 319.5,-844.7 319.5,-821.7 10.5,-821.7"/>
<polygon fill="none" stroke="#000000" points="10.5,-821.7 10.5,-844.7 319.5,-844.7 319.5,-821.7 10.5,-821.7"/>
<text text-anchor="start" x="15.5" y="-830.3" font-family="Helvetica,sans-Serif" font-weight="bold" font-size="11.00" fill="#000000">prison_migration_date_history</text>
<text text-anchor="start" x="284.5437" y="-829.8" font-family="Helvetica,sans-Serif" font-size="11.00" fill="#000000">[table]</text>
<polygon fill="none" stroke="#000000" points="10.5,-799.7 10.5,-821.7 235.5,-821.7 235.5,-799.7 10.5,-799.7"/>
<image xlink:href="../../images/primaryKeys.png" width="11px" height="12px" preserveAspectRatio="xMinYMin meet" x="15.5" y="-816.7"/>
<text text-anchor="start" x="30.5" y="-806.8" font-family="Helvetica,sans-Serif" font-size="11.00" fill="#000000">prison_code</text>
<polygon fill="none" stroke="#000000" points="235.5,-799.7 235.5,-821.7 319.5,-821.7 319.5,-799.7 235.5,-799.7"/>
<text text-anchor="start" x="238.5" y="-807.4" font-family="Helvetica,sans-Serif" font-size="11.00" fill="#000000">varchar[6]</text>
<polygon fill="none" stroke="#000000" points="10.5,-777.7 10.5,-799.7 235.5,-799.7 235.5,-777.7 10.5,-777.7"/>
<text text-anchor="start" x="30.5" y="-784.8" font-family="Helvetica,sans-Serif" font-size="11.00" fill="#000000">migration_date</text>
<polygon fill="none" stroke="#000000" points="235.5,-777.7 235.5,-799.7 319.5,-799.7 319.5,-777.7 235.5,-777.7"/>
<text text-anchor="start" x="238.3807" y="-785.4" font-family="Helvetica,sans-Serif" font-size="11.00" fill="#000000">timestamp[29,6]</text>
<polygon fill="#ffffff" stroke="transparent" points="10.5,-758.7 10.5,-777.7 127.5,-777.7 127.5,-758.7 10.5,-758.7"/>
<polygon fill="none" stroke="#000000" points="10.5,-758.7 10.5,-777.7 127.5,-777.7 127.5,-758.7 10.5,-758.7"/>
<text text-anchor="start" x="13.5" y="-764.8" font-family="Helvetica,sans-Serif" font-size="11.00" fill="#000000">&lt; 0</text>
<polygon fill="#ffffff" stroke="transparent" points="127.5,-758.7 127.5,-777.7 235.5,-777.7 235.5,-758.7 127.5,-758.7"/>
<polygon fill="none" stroke="#000000" points="127.5,-758.7 127.5,-777.7 235.5,-777.7 235.5,-758.7 127.5,-758.7"/>
<text text-anchor="start" x="226.3862" y="-764.8" font-family="Helvetica,sans-Serif" font-size="11.00" fill="#000000"> &#160;</text>
<polygon fill="#ffffff" stroke="transparent" points="235.5,-758.7 235.5,-777.7 319.5,-777.7 319.5,-758.7 235.5,-758.7"/>
<polygon fill="none" stroke="#000000" points="235.5,-758.7 235.5,-777.7 319.5,-777.7 319.5,-758.7 235.5,-758.7"/>
<text text-anchor="start" x="300.9053" y="-764.8" font-family="Helvetica,sans-Serif" font-size="11.00" fill="#000000">9 &gt;</text>
<polygon fill="none" stroke="#000000" stroke-width="2" points="9,-757.7 9,-845.7 320,-845.7 320,-757.7 9,-757.7"/>
</a>
</g>
</g>
<!-- allocation&#45;&gt;prison_migration_date_history -->
<g id="edge1" class="edge">
<title>allocation:w&#45;&gt;prison_migration_date_history:e</title>
<path fill="none" stroke="#000000" stroke-dasharray="5,2" d="M456.9555,-1555.9016C375.3288,-1546.4302 389.258,-1454.2911 362,-1365.7 343.8121,-1306.5876 381.3472,-810.7 319.5,-810.7"/>
<polygon fill="#000000" stroke="#000000" points="463.512,-1556.2615 471.3027,-1560.2946 467.506,-1556.4807 471.5,-1556.7 471.5,-1556.7 471.5,-1556.7 467.506,-1556.4807 471.6973,-1553.1054 463.512,-1556.2615 463.512,-1556.2615"/>
<ellipse fill="none" stroke="#000000" cx="460.3168" cy="-1556.0861" rx="3.2" ry="3.2"/>
</g>
<!-- allocation_audit -->
<g id="node3" class="node">
<title>allocation_audit</title>
<g id="a_node3"><a xlink:href="../../tables/allocation_audit.html" xlink:title="allocation_audit" target="_top">
<polygon fill="#ffffff" stroke="transparent" points="448,-1206.2 448,-1355.2 669,-1355.2 669,-1206.2 448,-1206.2"/>
<polygon fill="#f5f5f5" stroke="transparent" points="448.5,-1331.7 448.5,-1354.7 669.5,-1354.7 669.5,-1331.7 448.5,-1331.7"/>
<polygon fill="none" stroke="#000000" points="448.5,-1331.7 448.5,-1354.7 669.5,-1354.7 669.5,-1331.7 448.5,-1331.7"/>
<text text-anchor="start" x="453.5" y="-1340.3" font-family="Helvetica,sans-Serif" font-weight="bold" font-size="11.00" fill="#000000">allocation_audit</text>
<text text-anchor="start" x="634.5437" y="-1339.8" font-family="Helvetica,sans-Serif" font-size="11.00" fill="#000000">[table]</text>
<polygon fill="none" stroke="#000000" points="448.5,-1309.7 448.5,-1331.7 669.5,-1331.7 669.5,-1309.7 448.5,-1309.7"/>
<image xlink:href="../../images/primaryKeys.png" width="11px" height="12px" preserveAspectRatio="xMinYMin meet" x="453.5" y="-1326.7"/>
<text text-anchor="start" x="468.5" y="-1316.8" font-family="Helvetica,sans-Serif" font-size="11.00" fill="#000000">rev_id</text>
<polygon fill="none" stroke="#000000" points="448.5,-1287.7 448.5,-1309.7 669.5,-1309.7 669.5,-1287.7 448.5,-1287.7"/>
<image xlink:href="../../images/primaryKeys.png" width="11px" height="12px" preserveAspectRatio="xMinYMin meet" x="453.5" y="-1304.7"/>
<text text-anchor="start" x="468.5" y="-1294.8" font-family="Helvetica,sans-Serif" font-size="11.00" fill="#000000">id</text>
<polygon fill="none" stroke="#000000" points="448.5,-1265.7 448.5,-1287.7 669.5,-1287.7 669.5,-1265.7 448.5,-1265.7"/>
<image xlink:href="../../images/foreignKeys.png" width="11px" height="12px" preserveAspectRatio="xMinYMin meet" x="453.5" y="-1282.7"/>
<text text-anchor="start" x="468.5" y="-1272.8" font-family="Helvetica,sans-Serif" font-size="11.00" fill="#000000">prison_code</text>
<polygon fill="none" stroke="#000000" points="448.5,-1243.7 448.5,-1265.7 669.5,-1265.7 669.5,-1243.7 448.5,-1243.7"/>
<image xlink:href="../../images/foreignKeys.png" width="11px" height="12px" preserveAspectRatio="xMinYMin meet" x="453.5" y="-1260.7"/>
<text text-anchor="start" x="468.5" y="-1250.8" font-family="Helvetica,sans-Serif" font-size="11.00" fill="#000000">policy_code</text>
<polygon fill="none" stroke="#000000" points="448.5,-1224.7 448.5,-1243.7 669.5,-1243.7 669.5,-1224.7 448.5,-1224.7"/>
<text text-anchor="start" x="451.5" y="-1230.8" font-family="Helvetica,sans-Serif" font-size="11.00" fill="#000000">...</text>
<polygon fill="#ffffff" stroke="transparent" points="448.5,-1205.7 448.5,-1224.7 557.5,-1224.7 557.5,-1205.7 448.5,-1205.7"/>
<polygon fill="none" stroke="#000000" points="448.5,-1205.7 448.5,-1224.7 557.5,-1224.7 557.5,-1205.7 448.5,-1205.7"/>
<text text-anchor="start" x="451.5" y="-1211.8" font-family="Helvetica,sans-Serif" font-size="11.00" fill="#000000">&lt; 3</text>
<polygon fill="#ffffff" stroke="transparent" points="557.5,-1205.7 557.5,-1224.7 613.5,-1224.7 613.5,-1205.7 557.5,-1205.7"/>
<polygon fill="none" stroke="#000000" points="557.5,-1205.7 557.5,-1224.7 613.5,-1224.7 613.5,-1205.7 557.5,-1205.7"/>
<text text-anchor="start" x="604.3862" y="-1211.8" font-family="Helvetica,sans-Serif" font-size="11.00" fill="#000000"> &#160;</text>
<polygon fill="#ffffff" stroke="transparent" points="613.5,-1205.7 613.5,-1224.7 669.5,-1224.7 669.5,-1205.7 613.5,-1205.7"/>
<polygon fill="none" stroke="#000000" points="613.5,-1205.7 613.5,-1224.7 669.5,-1224.7 669.5,-1205.7 613.5,-1205.7"/>
<text text-anchor="start" x="660.3862" y="-1211.8" font-family="Helvetica,sans-Serif" font-size="11.00" fill="#000000"> &#160;</text>
</a>
</g>
</g>
<!-- allocation_audit&#45;&gt;prison_migration_date_history -->
<g id="edge2" class="edge">
<title>allocation_audit:w&#45;&gt;prison_migration_date_history:e</title>
<path fill="none" stroke="#000000" stroke-dasharray="5,2" d="M433.9685,-1275.7113C393.656,-1269.8151 383.2264,-1238.1065 362,-1195.7 323.4724,-1118.7287 405.5753,-810.7 319.5,-810.7"/>
<polygon fill="#000000" stroke="#000000" points="440.5185,-1276.1569 448.2556,-1280.2917 444.5092,-1276.4285 448.5,-1276.7 448.5,-1276.7 448.5,-1276.7 444.5092,-1276.4285 448.7444,-1273.1083 440.5185,-1276.1569 440.5185,-1276.1569"/>
<ellipse fill="none" stroke="#000000" cx="437.3258" cy="-1275.9397" rx="3.2" ry="3.2"/>
</g>
<!-- prison_configuration -->
<g id="node4" class="node">
<title>prison_configuration</title>
<g id="a_node4"><a xlink:href="../../tables/prison_configuration.html" xlink:title="prison_configuration" target="_top">
<polygon fill="#ffffff" stroke="transparent" points="402.5,-1058.2 402.5,-1185.2 714.5,-1185.2 714.5,-1058.2 402.5,-1058.2"/>
<polygon fill="#f5f5f5" stroke="transparent" points="402.5,-1161.7 402.5,-1184.7 714.5,-1184.7 714.5,-1161.7 402.5,-1161.7"/>
<polygon fill="none" stroke="#000000" points="402.5,-1161.7 402.5,-1184.7 714.5,-1184.7 714.5,-1161.7 402.5,-1161.7"/>
<text text-anchor="start" x="407.5" y="-1170.3" font-family="Helvetica,sans-Serif" font-weight="bold" font-size="11.00" fill="#000000">prison_configuration</text>
<text text-anchor="start" x="679.5437" y="-1169.8" font-family="Helvetica,sans-Serif" font-size="11.00" fill="#000000">[table]</text>
<polygon fill="#ffffff" stroke="transparent" points="402.5,-1139.7 402.5,-1161.7 714.5,-1161.7 714.5,-1139.7 402.5,-1139.7"/>
<polygon fill="none" stroke="#000000" points="402.5,-1139.7 402.5,-1161.7 714.5,-1161.7 714.5,-1139.7 402.5,-1139.7"/>
<image xlink:href="../../images/foreignKeys.png" width="11px" height="12px" preserveAspectRatio="xMinYMin meet" x="407.5" y="-1156.7"/>
<text text-anchor="start" x="422.5" y="-1146.8" font-family="Helvetica,sans-Serif" font-size="11.00" fill="#000000">prison_code</text>
<polygon fill="#ffffff" stroke="transparent" points="402.5,-1117.7 402.5,-1139.7 714.5,-1139.7 714.5,-1117.7 402.5,-1117.7"/>
<polygon fill="none" stroke="#000000" points="402.5,-1117.7 402.5,-1139.7 714.5,-1139.7 714.5,-1117.7 402.5,-1117.7"/>
<image xlink:href="../../images/foreignKeys.png" width="11px" height="12px" preserveAspectRatio="xMinYMin meet" x="407.5" y="-1134.7"/>
<text text-anchor="start" x="422.5" y="-1124.8" font-family="Helvetica,sans-Serif" font-size="11.00" fill="#000000">policy_code</text>
<polygon fill="none" stroke="#000000" points="402.5,-1095.7 402.5,-1117.7 714.5,-1117.7 714.5,-1095.7 402.5,-1095.7"/>
<image xlink:href="../../images/primaryKeys.png" width="11px" height="12px" preserveAspectRatio="xMinYMin meet" x="407.5" y="-1112.7"/>
<text text-anchor="start" x="422.5" y="-1102.8" font-family="Helvetica,sans-Serif" font-size="11.00" fill="#000000">id</text>
<polygon fill="none" stroke="#000000" points="402.5,-1076.7 402.5,-1095.7 714.5,-1095.7 714.5,-1076.7 402.5,-1076.7"/>
<text text-anchor="start" x="405.5" y="-1082.8" font-family="Helvetica,sans-Serif" font-size="11.00" fill="#000000">...</text>
<polygon fill="#ffffff" stroke="transparent" points="402.5,-1057.7 402.5,-1076.7 540.5,-1076.7 540.5,-1057.7 402.5,-1057.7"/>
<polygon fill="none" stroke="#000000" points="402.5,-1057.7 402.5,-1076.7 540.5,-1076.7 540.5,-1057.7 402.5,-1057.7"/>
<text text-anchor="start" x="405.5" y="-1063.8" font-family="Helvetica,sans-Serif" font-size="11.00" fill="#000000">&lt; 2</text>
<polygon fill="#ffffff" stroke="transparent" points="540.5,-1057.7 540.5,-1076.7 643.5,-1076.7 643.5,-1057.7 540.5,-1057.7"/>
<polygon fill="none" stroke="#000000" points="540.5,-1057.7 540.5,-1076.7 643.5,-1076.7 643.5,-1057.7 540.5,-1057.7"/>
<text text-anchor="start" x="601.9956" y="-1063.8" font-family="Helvetica,sans-Serif" font-size="11.00" fill="#000000">12 rows</text>
<polygon fill="#ffffff" stroke="transparent" points="643.5,-1057.7 643.5,-1076.7 714.5,-1076.7 714.5,-1057.7 643.5,-1057.7"/>
<polygon fill="none" stroke="#000000" points="643.5,-1057.7 643.5,-1076.7 714.5,-1076.7 714.5,-1057.7 643.5,-1057.7"/>
<text text-anchor="start" x="705.3862" y="-1063.8" font-family="Helvetica,sans-Serif" font-size="11.00" fill="#000000"> &#160;</text>
</a>
</g>
</g>
<!-- prison_configuration&#45;&gt;prison_migration_date_history -->
<g id="edge3" class="edge">
<title>prison_configuration:w&#45;&gt;prison_migration_date_history:e</title>
<path fill="none" stroke="#000000" stroke-dasharray="5,2" d="M387.9718,-1148.5094C358.0017,-1137.7663 373.8353,-1089.4812 362,-1047.7 347.417,-996.2188 373.0068,-810.7 319.5,-810.7"/>
<polygon fill="#000000" stroke="#000000" points="394.5894,-1149.5072 401.9632,-1154.2598 398.5447,-1150.1036 402.5,-1150.7 402.5,-1150.7 402.5,-1150.7 398.5447,-1150.1036 403.0368,-1147.1402 394.5894,-1149.5072 394.5894,-1149.5072"/>
<ellipse fill="none" stroke="#000000" cx="391.4252" cy="-1149.03" rx="3.2" ry="3.2"/>
</g>
<!-- prison_configuration_audit -->
<g id="node5" class="node">
<title>prison_configuration_audit</title>
<g id="a_node5"><a xlink:href="../../tables/prison_configuration_audit.html" xlink:title="prison_configuration_audit" target="_top">
<polygon fill="#ffffff" stroke="transparent" points="370,-888.2 370,-1037.2 747,-1037.2 747,-888.2 370,-888.2"/>
<polygon fill="#f5f5f5" stroke="transparent" points="370.5,-1013.7 370.5,-1036.7 747.5,-1036.7 747.5,-1013.7 370.5,-1013.7"/>
<polygon fill="none" stroke="#000000" points="370.5,-1013.7 370.5,-1036.7 747.5,-1036.7 747.5,-1013.7 370.5,-1013.7"/>
<text text-anchor="start" x="375.5" y="-1022.3" font-family="Helvetica,sans-Serif" font-weight="bold" font-size="11.00" fill="#000000">prison_configuration_audit</text>
<text text-anchor="start" x="712.5437" y="-1021.8" font-family="Helvetica,sans-Serif" font-size="11.00" fill="#000000">[table]</text>
<polygon fill="none" stroke="#000000" points="370.5,-991.7 370.5,-1013.7 747.5,-1013.7 747.5,-991.7 370.5,-991.7"/>
<image xlink:href="../../images/primaryKeys.png" width="11px" height="12px" preserveAspectRatio="xMinYMin meet" x="375.5" y="-1008.7"/>
<text text-anchor="start" x="390.5" y="-998.8" font-family="Helvetica,sans-Serif" font-size="11.00" fill="#000000">rev_id</text>
<polygon fill="none" stroke="#000000" points="370.5,-969.7 370.5,-991.7 747.5,-991.7 747.5,-969.7 370.5,-969.7"/>
<image xlink:href="../../images/primaryKeys.png" width="11px" height="12px" preserveAspectRatio="xMinYMin meet" x="375.5" y="-986.7"/>
<text text-anchor="start" x="390.5" y="-976.8" font-family="Helvetica,sans-Serif" font-size="11.00" fill="#000000">id</text>
<polygon fill="none" stroke="#000000" points="370.5,-947.7 370.5,-969.7 747.5,-969.7 747.5,-947.7 370.5,-947.7"/>
<image xlink:href="../../images/foreignKeys.png" width="11px" height="12px" preserveAspectRatio="xMinYMin meet" x="375.5" y="-964.7"/>
<text text-anchor="start" x="390.5" y="-954.8" font-family="Helvetica,sans-Serif" font-size="11.00" fill="#000000">prison_code</text>
<polygon fill="none" stroke="#000000" points="370.5,-925.7 370.5,-947.7 747.5,-947.7 747.5,-925.7 370.5,-925.7"/>
<image xlink:href="../../images/foreignKeys.png" width="11px" height="12px" preserveAspectRatio="xMinYMin meet" x="375.5" y="-942.7"/>
<text text-anchor="start" x="390.5" y="-932.8" font-family="Helvetica,sans-Serif" font-size="11.00" fill="#000000">policy_code</text>
<polygon fill="none" stroke="#000000" points="370.5,-906.7 370.5,-925.7 747.5,-925.7 747.5,-906.7 370.5,-906.7"/>
<text text-anchor="start" x="373.5" y="-912.8" font-family="Helvetica,sans-Serif" font-size="11.00" fill="#000000">...</text>
<polygon fill="#ffffff" stroke="transparent" points="370.5,-887.7 370.5,-906.7 557.5,-906.7 557.5,-887.7 370.5,-887.7"/>
<polygon fill="none" stroke="#000000" points="370.5,-887.7 370.5,-906.7 557.5,-906.7 557.5,-887.7 370.5,-887.7"/>
<text text-anchor="start" x="373.5" y="-893.8" font-family="Helvetica,sans-Serif" font-size="11.00" fill="#000000">&lt; 3</text>
<polygon fill="#ffffff" stroke="transparent" points="557.5,-887.7 557.5,-906.7 652.5,-906.7 652.5,-887.7 557.5,-887.7"/>
<polygon fill="none" stroke="#000000" points="557.5,-887.7 557.5,-906.7 652.5,-906.7 652.5,-887.7 557.5,-887.7"/>
<text text-anchor="start" x="643.3862" y="-893.8" font-family="Helvetica,sans-Serif" font-size="11.00" fill="#000000"> &#160;</text>
<polygon fill="#ffffff" stroke="transparent" points="652.5,-887.7 652.5,-906.7 747.5,-906.7 747.5,-887.7 652.5,-887.7"/>
<polygon fill="none" stroke="#000000" points="652.5,-887.7 652.5,-906.7 747.5,-906.7 747.5,-887.7 652.5,-887.7"/>
<text text-anchor="start" x="738.3862" y="-893.8" font-family="Helvetica,sans-Serif" font-size="11.00" fill="#000000"> &#160;</text>
</a>
</g>
</g>
<!-- prison_configuration_audit&#45;&gt;prison_migration_date_history -->
<g id="edge4" class="edge">
<title>prison_configuration_audit:w&#45;&gt;prison_migration_date_history:e</title>
<path fill="none" stroke="#000000" stroke-dasharray="5,2" d="M356.1212,-955.7436C314.6199,-934.8845 383.2306,-810.7 319.5,-810.7"/>
<polygon fill="#000000" stroke="#000000" points="362.6639,-957.0888 369.775,-962.2262 366.582,-957.8944 370.5,-958.7 370.5,-958.7 370.5,-958.7 366.582,-957.8944 371.225,-955.1738 362.6639,-957.0888 362.6639,-957.0888"/>
<ellipse fill="none" stroke="#000000" cx="359.5295" cy="-956.4443" rx="3.2" ry="3.2"/>
</g>
<!-- prison_statistic -->
<g id="node6" class="node">
<title>prison_statistic</title>
<g id="a_node6"><a xlink:href="../../tables/prison_statistic.html" xlink:title="prison_statistic" target="_top">
<polygon fill="#ffffff" stroke="transparent" points="410.5,-718.2 410.5,-867.2 706.5,-867.2 706.5,-718.2 410.5,-718.2"/>
<polygon fill="#f5f5f5" stroke="transparent" points="410.5,-843.7 410.5,-866.7 706.5,-866.7 706.5,-843.7 410.5,-843.7"/>
<polygon fill="none" stroke="#000000" points="410.5,-843.7 410.5,-866.7 706.5,-866.7 706.5,-843.7 410.5,-843.7"/>
<text text-anchor="start" x="415.5" y="-852.3" font-family="Helvetica,sans-Serif" font-weight="bold" font-size="11.00" fill="#000000">prison_statistic</text>
<text text-anchor="start" x="671.5437" y="-851.8" font-family="Helvetica,sans-Serif" font-size="11.00" fill="#000000">[table]</text>
<polygon fill="none" stroke="#000000" points="410.5,-821.7 410.5,-843.7 706.5,-843.7 706.5,-821.7 410.5,-821.7"/>
<image xlink:href="../../images/primaryKeys.png" width="11px" height="12px" preserveAspectRatio="xMinYMin meet" x="415.5" y="-838.7"/>
<text text-anchor="start" x="430.5" y="-828.8" font-family="Helvetica,sans-Serif" font-size="11.00" fill="#000000">id</text>
<polygon fill="#ffffff" stroke="transparent" points="410.5,-799.7 410.5,-821.7 706.5,-821.7 706.5,-799.7 410.5,-799.7"/>
<polygon fill="none" stroke="#000000" points="410.5,-799.7 410.5,-821.7 706.5,-821.7 706.5,-799.7 410.5,-799.7"/>
<image xlink:href="../../images/foreignKeys.png" width="11px" height="12px" preserveAspectRatio="xMinYMin meet" x="415.5" y="-816.7"/>
<text text-anchor="start" x="430.5" y="-806.8" font-family="Helvetica,sans-Serif" font-size="11.00" fill="#000000">prison_code</text>
<polygon fill="#ffffff" stroke="transparent" points="410.5,-777.7 410.5,-799.7 706.5,-799.7 706.5,-777.7 410.5,-777.7"/>
<polygon fill="none" stroke="#000000" points="410.5,-777.7 410.5,-799.7 706.5,-799.7 706.5,-777.7 410.5,-777.7"/>
<text text-anchor="start" x="430.5" y="-784.8" font-family="Helvetica,sans-Serif" font-size="11.00" fill="#000000">statistic_date</text>
<polygon fill="none" stroke="#000000" points="410.5,-755.7 410.5,-777.7 706.5,-777.7 706.5,-755.7 410.5,-755.7"/>
<image xlink:href="../../images/foreignKeys.png" width="11px" height="12px" preserveAspectRatio="xMinYMin meet" x="415.5" y="-772.7"/>
<text text-anchor="start" x="430.5" y="-762.8" font-family="Helvetica,sans-Serif" font-size="11.00" fill="#000000">policy_code</text>
<polygon fill="none" stroke="#000000" points="410.5,-736.7 410.5,-755.7 706.5,-755.7 706.5,-736.7 410.5,-736.7"/>
<text text-anchor="start" x="413.5" y="-742.8" font-family="Helvetica,sans-Serif" font-size="11.00" fill="#000000">...</text>
<polygon fill="#ffffff" stroke="transparent" points="410.5,-717.7 410.5,-736.7 556.5,-736.7 556.5,-717.7 410.5,-717.7"/>
<polygon fill="none" stroke="#000000" points="410.5,-717.7 410.5,-736.7 556.5,-736.7 556.5,-717.7 410.5,-717.7"/>
<text text-anchor="start" x="413.5" y="-723.8" font-family="Helvetica,sans-Serif" font-size="11.00" fill="#000000">&lt; 2</text>
<polygon fill="#ffffff" stroke="transparent" points="556.5,-717.7 556.5,-736.7 631.5,-736.7 631.5,-717.7 556.5,-717.7"/>
<polygon fill="none" stroke="#000000" points="556.5,-717.7 556.5,-736.7 631.5,-736.7 631.5,-717.7 556.5,-717.7"/>
<text text-anchor="start" x="622.3862" y="-723.8" font-family="Helvetica,sans-Serif" font-size="11.00" fill="#000000"> &#160;</text>
<polygon fill="#ffffff" stroke="transparent" points="631.5,-717.7 631.5,-736.7 706.5,-736.7 706.5,-717.7 631.5,-717.7"/>
<polygon fill="none" stroke="#000000" points="631.5,-717.7 631.5,-736.7 706.5,-736.7 706.5,-717.7 631.5,-717.7"/>
<text text-anchor="start" x="697.3862" y="-723.8" font-family="Helvetica,sans-Serif" font-size="11.00" fill="#000000"> &#160;</text>
</a>
</g>
</g>
<!-- prison_statistic&#45;&gt;prison_migration_date_history -->
<g id="edge5" class="edge">
<title>prison_statistic:w&#45;&gt;prison_migration_date_history:e</title>
<path fill="none" stroke="#000000" stroke-dasharray="5,2" d="M395.8485,-810.7C366.8347,-810.7 354.5729,-810.7 319.5,-810.7"/>
<polygon fill="#000000" stroke="#000000" points="402.5,-810.7001 410.5,-814.3 406.5,-810.7 410.5,-810.7 410.5,-810.7 410.5,-810.7 406.5,-810.7 410.5,-807.1 402.5,-810.7001 402.5,-810.7001"/>
<ellipse fill="none" stroke="#000000" cx="399.3" cy="-810.7001" rx="3.2" ry="3.2"/>
</g>
<!-- recorded_event -->
<g id="node7" class="node">
<title>recorded_event</title>
<g id="a_node7"><a xlink:href="../../tables/recorded_event.html" xlink:title="recorded_event" target="_top">
<polygon fill="#ffffff" stroke="transparent" points="486.5,-526.2 486.5,-697.2 630.5,-697.2 630.5,-526.2 486.5,-526.2"/>
<polygon fill="#f5f5f5" stroke="transparent" points="486.5,-673.7 486.5,-696.7 630.5,-696.7 630.5,-673.7 486.5,-673.7"/>
<polygon fill="none" stroke="#000000" points="486.5,-673.7 486.5,-696.7 630.5,-696.7 630.5,-673.7 486.5,-673.7"/>
<text text-anchor="start" x="491.5" y="-682.3" font-family="Helvetica,sans-Serif" font-weight="bold" font-size="11.00" fill="#000000">recorded_event</text>
<text text-anchor="start" x="596.0219" y="-681.8" font-family="Helvetica,sans-Serif" font-size="11.00" fill="#000000">[table]</text>
<polygon fill="none" stroke="#000000" points="486.5,-651.7 486.5,-673.7 630.5,-673.7 630.5,-651.7 486.5,-651.7"/>
<image xlink:href="../../images/primaryKeys.png" width="11px" height="12px" preserveAspectRatio="xMinYMin meet" x="491.5" y="-668.7"/>
<text text-anchor="start" x="510.5" y="-658.8" font-family="Helvetica,sans-Serif" font-size="11.00" fill="#000000">id</text>
<polygon fill="none" stroke="#000000" points="486.5,-629.7 486.5,-651.7 630.5,-651.7 630.5,-629.7 486.5,-629.7"/>
<image xlink:href="../../images/foreignKeys.png" width="11px" height="12px" preserveAspectRatio="xMinYMin meet" x="491.5" y="-646.7"/>
<text text-anchor="start" x="510.5" y="-636.8" font-family="Helvetica,sans-Serif" font-size="11.00" fill="#000000">prison_code</text>
<polygon fill="#ffffff" stroke="transparent" points="486.5,-607.7 486.5,-629.7 630.5,-629.7 630.5,-607.7 486.5,-607.7"/>
<polygon fill="none" stroke="#000000" points="486.5,-607.7 486.5,-629.7 630.5,-629.7 630.5,-607.7 486.5,-607.7"/>
<text text-anchor="start" x="510.5" y="-614.8" font-family="Helvetica,sans-Serif" font-size="11.00" fill="#000000">person_identifier</text>
<polygon fill="none" stroke="#000000" points="486.5,-585.7 486.5,-607.7 630.5,-607.7 630.5,-585.7 486.5,-585.7"/>
<image xlink:href="../../images/foreignKeys.png" width="11px" height="12px" preserveAspectRatio="xMinYMin meet" x="491.5" y="-602.7"/>
<text text-anchor="start" x="510.5" y="-592.8" font-family="Helvetica,sans-Serif" font-size="11.00" fill="#000000">policy_code</text>
<polygon fill="#ffffff" stroke="transparent" points="486.5,-563.7 486.5,-585.7 630.5,-585.7 630.5,-563.7 486.5,-563.7"/>
<polygon fill="none" stroke="#000000" points="486.5,-563.7 486.5,-585.7 630.5,-585.7 630.5,-563.7 486.5,-563.7"/>
<image xlink:href="../../images/foreignKeys.png" width="11px" height="12px" preserveAspectRatio="xMinYMin meet" x="491.5" y="-580.7"/>
<text text-anchor="start" x="510.5" y="-570.8" font-family="Helvetica,sans-Serif" font-size="11.00" fill="#000000">type_id</text>
<polygon fill="none" stroke="#000000" points="486.5,-544.7 486.5,-563.7 630.5,-563.7 630.5,-544.7 486.5,-544.7"/>
<text text-anchor="start" x="489.5" y="-550.8" font-family="Helvetica,sans-Serif" font-size="11.00" fill="#000000">...</text>
<polygon fill="#ffffff" stroke="transparent" points="486.5,-525.7 486.5,-544.7 556.5,-544.7 556.5,-525.7 486.5,-525.7"/>
<polygon fill="none" stroke="#000000" points="486.5,-525.7 486.5,-544.7 556.5,-544.7 556.5,-525.7 486.5,-525.7"/>
<text text-anchor="start" x="489.5" y="-531.8" font-family="Helvetica,sans-Serif" font-size="11.00" fill="#000000">&lt; 3</text>
<polygon fill="#ffffff" stroke="transparent" points="556.5,-525.7 556.5,-544.7 593.5,-544.7 593.5,-525.7 556.5,-525.7"/>
<polygon fill="none" stroke="#000000" points="556.5,-525.7 556.5,-544.7 593.5,-544.7 593.5,-525.7 556.5,-525.7"/>
<text text-anchor="start" x="584.3862" y="-531.8" font-family="Helvetica,sans-Serif" font-size="11.00" fill="#000000"> &#160;</text>
<polygon fill="#ffffff" stroke="transparent" points="593.5,-525.7 593.5,-544.7 630.5,-544.7 630.5,-525.7 593.5,-525.7"/>
<polygon fill="none" stroke="#000000" points="593.5,-525.7 593.5,-544.7 630.5,-544.7 630.5,-525.7 593.5,-525.7"/>
<text text-anchor="start" x="621.3862" y="-531.8" font-family="Helvetica,sans-Serif" font-size="11.00" fill="#000000"> &#160;</text>
</a>
</g>
</g>
<!-- recorded_event&#45;&gt;prison_migration_date_history -->
<g id="edge6" class="edge">
<title>recorded_event:w&#45;&gt;prison_migration_date_history:e</title>
<path fill="none" stroke="#000000" stroke-dasharray="5,2" d="M471.8735,-641.1141C420.3019,-644.216 400.6476,-664.8791 362,-707.7 328.8202,-744.4627 369.0217,-810.7 319.5,-810.7"/>
<polygon fill="#000000" stroke="#000000" points="478.5032,-640.9265 486.6019,-644.2986 482.5016,-640.8132 486.5,-640.7 486.5,-640.7 486.5,-640.7 482.5016,-640.8132 486.3981,-637.1014 478.5032,-640.9265 478.5032,-640.9265"/>
<ellipse fill="none" stroke="#000000" cx="475.3045" cy="-641.0171" rx="3.2" ry="3.2"/>
</g>
<!-- recorded_event_audit -->
<g id="node8" class="node">
<title>recorded_event_audit</title>
<g id="a_node8"><a xlink:href="../../tables/recorded_event_audit.html" xlink:title="recorded_event_audit" target="_top">
<polygon fill="#ffffff" stroke="transparent" points="466,-378.2 466,-505.2 651,-505.2 651,-378.2 466,-378.2"/>
<polygon fill="#f5f5f5" stroke="transparent" points="466.5,-481.7 466.5,-504.7 651.5,-504.7 651.5,-481.7 466.5,-481.7"/>
<polygon fill="none" stroke="#000000" points="466.5,-481.7 466.5,-504.7 651.5,-504.7 651.5,-481.7 466.5,-481.7"/>
<text text-anchor="start" x="471.5" y="-490.3" font-family="Helvetica,sans-Serif" font-weight="bold" font-size="11.00" fill="#000000">recorded_event_audit</text>
<text text-anchor="start" x="617.0219" y="-489.8" font-family="Helvetica,sans-Serif" font-size="11.00" fill="#000000">[table]</text>
<polygon fill="none" stroke="#000000" points="466.5,-459.7 466.5,-481.7 651.5,-481.7 651.5,-459.7 466.5,-459.7"/>
<image xlink:href="../../images/foreignKeys.png" width="11px" height="12px" preserveAspectRatio="xMinYMin meet" x="471.5" y="-476.7"/>
<text text-anchor="start" x="495.5" y="-466.8" font-family="Helvetica,sans-Serif" font-size="11.00" fill="#000000">rev_id</text>
<polygon fill="none" stroke="#000000" points="466.5,-437.7 466.5,-459.7 651.5,-459.7 651.5,-437.7 466.5,-437.7"/>
<image xlink:href="../../images/foreignKeys.png" width="11px" height="12px" preserveAspectRatio="xMinYMin meet" x="471.5" y="-454.7"/>
<text text-anchor="start" x="495.5" y="-444.8" font-family="Helvetica,sans-Serif" font-size="11.00" fill="#000000">prison_code</text>
<polygon fill="none" stroke="#000000" points="466.5,-415.7 466.5,-437.7 651.5,-437.7 651.5,-415.7 466.5,-415.7"/>
<image xlink:href="../../images/foreignKeys.png" width="11px" height="12px" preserveAspectRatio="xMinYMin meet" x="471.5" y="-432.7"/>
<text text-anchor="start" x="495.5" y="-422.8" font-family="Helvetica,sans-Serif" font-size="11.00" fill="#000000">policy_code</text>
<polygon fill="none" stroke="#000000" points="466.5,-396.7 466.5,-415.7 651.5,-415.7 651.5,-396.7 466.5,-396.7"/>
<text text-anchor="start" x="469.5" y="-402.8" font-family="Helvetica,sans-Serif" font-size="11.00" fill="#000000">...</text>
<polygon fill="#ffffff" stroke="transparent" points="466.5,-377.7 466.5,-396.7 557.5,-396.7 557.5,-377.7 466.5,-377.7"/>
<polygon fill="none" stroke="#000000" points="466.5,-377.7 466.5,-396.7 557.5,-396.7 557.5,-377.7 466.5,-377.7"/>
<text text-anchor="start" x="469.5" y="-383.8" font-family="Helvetica,sans-Serif" font-size="11.00" fill="#000000">&lt; 3</text>
<polygon fill="#ffffff" stroke="transparent" points="557.5,-377.7 557.5,-396.7 604.5,-396.7 604.5,-377.7 557.5,-377.7"/>
<polygon fill="none" stroke="#000000" points="557.5,-377.7 557.5,-396.7 604.5,-396.7 604.5,-377.7 557.5,-377.7"/>
<text text-anchor="start" x="595.3862" y="-383.8" font-family="Helvetica,sans-Serif" font-size="11.00" fill="#000000"> &#160;</text>
<polygon fill="#ffffff" stroke="transparent" points="604.5,-377.7 604.5,-396.7 651.5,-396.7 651.5,-377.7 604.5,-377.7"/>
<polygon fill="none" stroke="#000000" points="604.5,-377.7 604.5,-396.7 651.5,-396.7 651.5,-377.7 604.5,-377.7"/>
<text text-anchor="start" x="642.3862" y="-383.8" font-family="Helvetica,sans-Serif" font-size="11.00" fill="#000000"> &#160;</text>
</a>
</g>
</g>
<!-- recorded_event_audit&#45;&gt;prison_migration_date_history -->
<g id="edge7" class="edge">
<title>recorded_event_audit:w&#45;&gt;prison_migration_date_history:e</title>
<path fill="none" stroke="#000000" stroke-dasharray="5,2" d="M451.8866,-449.2476C407.5873,-452.7906 389.0597,-473.657 362,-515.7 326.1543,-571.394 385.7324,-810.7 319.5,-810.7"/>
<polygon fill="#000000" stroke="#000000" points="458.5056,-448.9996 466.6348,-452.2975 462.5028,-448.8498 466.5,-448.7 466.5,-448.7 466.5,-448.7 462.5028,-448.8498 466.3652,-445.1025 458.5056,-448.9996 458.5056,-448.9996"/>
<ellipse fill="none" stroke="#000000" cx="455.3079" cy="-449.1195" rx="3.2" ry="3.2"/>
</g>
<!-- staff_role -->
<g id="node9" class="node">
<title>staff_role</title>
<g id="a_node9"><a xlink:href="../../tables/staff_role.html" xlink:title="staff_role" target="_top">
<polygon fill="#ffffff" stroke="transparent" points="490.5,-208.2 490.5,-357.2 626.5,-357.2 626.5,-208.2 490.5,-208.2"/>
<polygon fill="#f5f5f5" stroke="transparent" points="490.5,-333.7 490.5,-356.7 626.5,-356.7 626.5,-333.7 490.5,-333.7"/>
<polygon fill="none" stroke="#000000" points="490.5,-333.7 490.5,-356.7 626.5,-356.7 626.5,-333.7 490.5,-333.7"/>
<text text-anchor="start" x="495.5" y="-342.3" font-family="Helvetica,sans-Serif" font-weight="bold" font-size="11.00" fill="#000000">staff_role</text>
<text text-anchor="start" x="591.5437" y="-341.8" font-family="Helvetica,sans-Serif" font-size="11.00" fill="#000000">[table]</text>
<polygon fill="none" stroke="#000000" points="490.5,-311.7 490.5,-333.7 626.5,-333.7 626.5,-311.7 490.5,-311.7"/>
<image xlink:href="../../images/primaryKeys.png" width="11px" height="12px" preserveAspectRatio="xMinYMin meet" x="495.5" y="-328.7"/>
<text text-anchor="start" x="510.5" y="-318.8" font-family="Helvetica,sans-Serif" font-size="11.00" fill="#000000">id</text>
<polygon fill="#ffffff" stroke="transparent" points="490.5,-289.7 490.5,-311.7 626.5,-311.7 626.5,-289.7 490.5,-289.7"/>
<polygon fill="none" stroke="#000000" points="490.5,-289.7 490.5,-311.7 626.5,-311.7 626.5,-289.7 490.5,-289.7"/>
<image xlink:href="../../images/foreignKeys.png" width="11px" height="12px" preserveAspectRatio="xMinYMin meet" x="495.5" y="-306.7"/>
<text text-anchor="start" x="510.5" y="-296.8" font-family="Helvetica,sans-Serif" font-size="11.00" fill="#000000">policy_code</text>
<polygon fill="#ffffff" stroke="transparent" points="490.5,-267.7 490.5,-289.7 626.5,-289.7 626.5,-267.7 490.5,-267.7"/>
<polygon fill="none" stroke="#000000" points="490.5,-267.7 490.5,-289.7 626.5,-289.7 626.5,-267.7 490.5,-267.7"/>
<image xlink:href="../../images/foreignKeys.png" width="11px" height="12px" preserveAspectRatio="xMinYMin meet" x="495.5" y="-284.7"/>
<text text-anchor="start" x="510.5" y="-274.8" font-family="Helvetica,sans-Serif" font-size="11.00" fill="#000000">prison_code</text>
<polygon fill="#ffffff" stroke="transparent" points="490.5,-245.7 490.5,-267.7 626.5,-267.7 626.5,-245.7 490.5,-245.7"/>
<polygon fill="none" stroke="#000000" points="490.5,-245.7 490.5,-267.7 626.5,-267.7 626.5,-245.7 490.5,-245.7"/>
<text text-anchor="start" x="510.5" y="-252.8" font-family="Helvetica,sans-Serif" font-size="11.00" fill="#000000">staff_id</text>
<polygon fill="none" stroke="#000000" points="490.5,-226.7 490.5,-245.7 626.5,-245.7 626.5,-226.7 490.5,-226.7"/>
<text text-anchor="start" x="493.5" y="-232.8" font-family="Helvetica,sans-Serif" font-size="11.00" fill="#000000">...</text>
<polygon fill="#ffffff" stroke="transparent" points="490.5,-207.7 490.5,-226.7 556.5,-226.7 556.5,-207.7 490.5,-207.7"/>
<polygon fill="none" stroke="#000000" points="490.5,-207.7 490.5,-226.7 556.5,-226.7 556.5,-207.7 490.5,-207.7"/>
<text text-anchor="start" x="493.5" y="-213.8" font-family="Helvetica,sans-Serif" font-size="11.00" fill="#000000">&lt; 2</text>
<polygon fill="#ffffff" stroke="transparent" points="556.5,-207.7 556.5,-226.7 591.5,-226.7 591.5,-207.7 556.5,-207.7"/>
<polygon fill="none" stroke="#000000" points="556.5,-207.7 556.5,-226.7 591.5,-226.7 591.5,-207.7 556.5,-207.7"/>
<text text-anchor="start" x="582.3862" y="-213.8" font-family="Helvetica,sans-Serif" font-size="11.00" fill="#000000"> &#160;</text>
<polygon fill="#ffffff" stroke="transparent" points="591.5,-207.7 591.5,-226.7 626.5,-226.7 626.5,-207.7 591.5,-207.7"/>
<polygon fill="none" stroke="#000000" points="591.5,-207.7 591.5,-226.7 626.5,-226.7 626.5,-207.7 591.5,-207.7"/>
<text text-anchor="start" x="617.3862" y="-213.8" font-family="Helvetica,sans-Serif" font-size="11.00" fill="#000000"> &#160;</text>
</a>
</g>
</g>
<!-- staff_role&#45;&gt;prison_migration_date_history -->
<g id="edge8" class="edge">
<title>staff_role:w&#45;&gt;prison_migration_date_history:e</title>
<path fill="none" stroke="#000000" stroke-dasharray="5,2" d="M475.7617,-279.1811C417.4205,-283.1853 394.5329,-312.2193 362,-367.7 336.9875,-410.3556 368.9482,-810.7 319.5,-810.7"/>
<polygon fill="#000000" stroke="#000000" points="482.5043,-278.9611 490.6175,-282.2981 486.5021,-278.8305 490.5,-278.7 490.5,-278.7 490.5,-278.7 486.5021,-278.8305 490.3825,-275.1019 482.5043,-278.9611 482.5043,-278.9611"/>
<ellipse fill="none" stroke="#000000" cx="479.306" cy="-279.0655" rx="3.2" ry="3.2"/>
</g>
<!-- staff_role_audit -->
<g id="node10" class="node">
<title>staff_role_audit</title>
<g id="a_node10"><a xlink:href="../../tables/staff_role_audit.html" xlink:title="staff_role_audit" target="_top">
<polygon fill="#ffffff" stroke="transparent" points="461.5,-38.2 461.5,-187.2 655.5,-187.2 655.5,-38.2 461.5,-38.2"/>
<polygon fill="#f5f5f5" stroke="transparent" points="461.5,-163.7 461.5,-186.7 655.5,-186.7 655.5,-163.7 461.5,-163.7"/>
<polygon fill="none" stroke="#000000" points="461.5,-163.7 461.5,-186.7 655.5,-186.7 655.5,-163.7 461.5,-163.7"/>
<text text-anchor="start" x="466.5" y="-172.3" font-family="Helvetica,sans-Serif" font-weight="bold" font-size="11.00" fill="#000000">staff_role_audit</text>
<text text-anchor="start" x="620.5437" y="-171.8" font-family="Helvetica,sans-Serif" font-size="11.00" fill="#000000">[table]</text>
<polygon fill="none" stroke="#000000" points="461.5,-141.7 461.5,-163.7 655.5,-163.7 655.5,-141.7 461.5,-141.7"/>
<image xlink:href="../../images/primaryKeys.png" width="11px" height="12px" preserveAspectRatio="xMinYMin meet" x="466.5" y="-158.7"/>
<text text-anchor="start" x="481.5" y="-148.8" font-family="Helvetica,sans-Serif" font-size="11.00" fill="#000000">rev_id</text>
<polygon fill="none" stroke="#000000" points="461.5,-119.7 461.5,-141.7 655.5,-141.7 655.5,-119.7 461.5,-119.7"/>
<image xlink:href="../../images/primaryKeys.png" width="11px" height="12px" preserveAspectRatio="xMinYMin meet" x="466.5" y="-136.7"/>
<text text-anchor="start" x="481.5" y="-126.8" font-family="Helvetica,sans-Serif" font-size="11.00" fill="#000000">id</text>
<polygon fill="none" stroke="#000000" points="461.5,-97.7 461.5,-119.7 655.5,-119.7 655.5,-97.7 461.5,-97.7"/>
<image xlink:href="../../images/foreignKeys.png" width="11px" height="12px" preserveAspectRatio="xMinYMin meet" x="466.5" y="-114.7"/>
<text text-anchor="start" x="481.5" y="-104.8" font-family="Helvetica,sans-Serif" font-size="11.00" fill="#000000">policy_code</text>
<polygon fill="none" stroke="#000000" points="461.5,-75.7 461.5,-97.7 655.5,-97.7 655.5,-75.7 461.5,-75.7"/>
<image xlink:href="../../images/foreignKeys.png" width="11px" height="12px" preserveAspectRatio="xMinYMin meet" x="466.5" y="-92.7"/>
<text text-anchor="start" x="481.5" y="-82.8" font-family="Helvetica,sans-Serif" font-size="11.00" fill="#000000">prison_code</text>
<polygon fill="none" stroke="#000000" points="461.5,-56.7 461.5,-75.7 655.5,-75.7 655.5,-56.7 461.5,-56.7"/>
<text text-anchor="start" x="464.5" y="-62.8" font-family="Helvetica,sans-Serif" font-size="11.00" fill="#000000">...</text>
<polygon fill="#ffffff" stroke="transparent" points="461.5,-37.7 461.5,-56.7 556.5,-56.7 556.5,-37.7 461.5,-37.7"/>
<polygon fill="none" stroke="#000000" points="461.5,-37.7 461.5,-56.7 556.5,-56.7 556.5,-37.7 461.5,-37.7"/>
<text text-anchor="start" x="464.5" y="-43.8" font-family="Helvetica,sans-Serif" font-size="11.00" fill="#000000">&lt; 3</text>
<polygon fill="#ffffff" stroke="transparent" points="556.5,-37.7 556.5,-56.7 605.5,-56.7 605.5,-37.7 556.5,-37.7"/>
<polygon fill="none" stroke="#000000" points="556.5,-37.7 556.5,-56.7 605.5,-56.7 605.5,-37.7 556.5,-37.7"/>
<text text-anchor="start" x="596.3862" y="-43.8" font-family="Helvetica,sans-Serif" font-size="11.00" fill="#000000"> &#160;</text>
<polygon fill="#ffffff" stroke="transparent" points="605.5,-37.7 605.5,-56.7 655.5,-56.7 655.5,-37.7 605.5,-37.7"/>
<polygon fill="none" stroke="#000000" points="605.5,-37.7 605.5,-56.7 655.5,-56.7 655.5,-37.7 605.5,-37.7"/>
<text text-anchor="start" x="646.3862" y="-43.8" font-family="Helvetica,sans-Serif" font-size="11.00" fill="#000000"> &#160;</text>
</a>
</g>
</g>
<!-- staff_role_audit&#45;&gt;prison_migration_date_history -->
<g id="edge9" class="edge">
<title>staff_role_audit:w&#45;&gt;prison_migration_date_history:e</title>
<path fill="none" stroke="#000000" stroke-dasharray="5,2" d="M447.0121,-87.5966C393.9721,-94.5765 385.7854,-141.4454 362,-197.7 335.4113,-260.5845 387.7746,-810.7 319.5,-810.7"/>
<polygon fill="#000000" stroke="#000000" points="453.5153,-87.1942 461.7224,-90.2931 457.5076,-86.9471 461.5,-86.7 461.5,-86.7 461.5,-86.7 457.5076,-86.9471 461.2776,-83.1069 453.5153,-87.1942 453.5153,-87.1942"/>
<ellipse fill="none" stroke="#000000" cx="450.3214" cy="-87.3918" rx="3.2" ry="3.2"/>
</g>
</g>
</svg>
