<?xml version="1.0" encoding="UTF-8" standalone="no"?>
<!DOCTYPE svg PUBLIC "-//W3C//DTD SVG 1.1//EN"
 "http://www.w3.org/Graphics/SVG/1.1/DTD/svg11.dtd">
<!-- Generated by graphviz version 2.40.1 (20161225.0304)
 -->
<!-- Title: twoDegreesRelationshipsDiagramImplied Pages: 1 -->
<svg width="580pt" height="1279pt"
 viewBox="0.00 0.00 580.00 1279.20" xmlns="http://www.w3.org/2000/svg" xmlns:xlink="http://www.w3.org/1999/xlink">
<g id="graph0" class="graph" transform="scale(1 1) rotate(0) translate(4 1275.2)">
<title>twoDegreesRelationshipsDiagramImplied</title>
<polygon fill="#ffffff" stroke="transparent" points="-4,4 -4,-1275.2 576,-1275.2 576,4 -4,4"/>
<text text-anchor="middle" x="72.4936" y="-7.3" font-family="Helvetica,sans-Serif" font-size="11.00" fill="#000000">Generated by SchemaSpy</text>
<!-- allocation -->
<g id="node1" class="node">
<title>allocation</title>
<g id="a_node1"><a xlink:href="../../tables/allocation.html" xlink:title="allocation" target="_top">
<polygon fill="#ffffff" stroke="transparent" points="306.5,-1206.2 306.5,-1267.2 411.5,-1267.2 411.5,-1206.2 306.5,-1206.2"/>
<polygon fill="#f5f5f5" stroke="transparent" points="307,-1243.7 307,-1266.7 412,-1266.7 412,-1243.7 307,-1243.7"/>
<polygon fill="none" stroke="#000000" points="307,-1243.7 307,-1266.7 412,-1266.7 412,-1243.7 307,-1243.7"/>
<text text-anchor="start" x="312" y="-1252.3" font-family="Helvetica,sans-Serif" font-weight="bold" font-size="11.00" fill="#000000">allocation</text>
<text text-anchor="start" x="377.5219" y="-1251.8" font-family="Helvetica,sans-Serif" font-size="11.00" fill="#000000">[table]</text>
<polygon fill="none" stroke="#000000" points="307,-1224.7 307,-1243.7 412,-1243.7 412,-1224.7 307,-1224.7"/>
<text text-anchor="start" x="310" y="-1230.8" font-family="Helvetica,sans-Serif" font-size="11.00" fill="#000000">...</text>
<polygon fill="#ffffff" stroke="transparent" points="307,-1205.7 307,-1224.7 358,-1224.7 358,-1205.7 307,-1205.7"/>
<polygon fill="none" stroke="#000000" points="307,-1205.7 307,-1224.7 358,-1224.7 358,-1205.7 307,-1205.7"/>
<text text-anchor="start" x="310" y="-1211.8" font-family="Helvetica,sans-Serif" font-size="11.00" fill="#000000">&lt; 3</text>
<polygon fill="#ffffff" stroke="transparent" points="358,-1205.7 358,-1224.7 385,-1224.7 385,-1205.7 358,-1205.7"/>
<polygon fill="none" stroke="#000000" points="358,-1205.7 358,-1224.7 385,-1224.7 385,-1205.7 358,-1205.7"/>
<text text-anchor="start" x="375.8862" y="-1211.8" font-family="Helvetica,sans-Serif" font-size="11.00" fill="#000000"> &#160;</text>
<polygon fill="#ffffff" stroke="transparent" points="385,-1205.7 385,-1224.7 412,-1224.7 412,-1205.7 385,-1205.7"/>
<polygon fill="none" stroke="#000000" points="385,-1205.7 385,-1224.7 412,-1224.7 412,-1205.7 385,-1205.7"/>
<text text-anchor="start" x="402.8862" y="-1211.8" font-family="Helvetica,sans-Serif" font-size="11.00" fill="#000000"> &#160;</text>
</a>
</g>
</g>
<!-- policy -->
<g id="node2" class="node">
<title>policy</title>
<g id="a_node2"><a xlink:href="../../tables/policy.html" xlink:title="policy" target="_top">
<polygon fill="#ffffff" stroke="transparent" points="8,-509.2 8,-592.2 105,-592.2 105,-509.2 8,-509.2"/>
<polygon fill="#f5f5f5" stroke="transparent" points="8.5,-568.7 8.5,-591.7 105.5,-591.7 105.5,-568.7 8.5,-568.7"/>
<polygon fill="none" stroke="#000000" points="8.5,-568.7 8.5,-591.7 105.5,-591.7 105.5,-568.7 8.5,-568.7"/>
<text text-anchor="start" x="13.5" y="-577.3" font-family="Helvetica,sans-Serif" font-weight="bold" font-size="11.00" fill="#000000">policy</text>
<text text-anchor="start" x="70.5437" y="-576.8" font-family="Helvetica,sans-Serif" font-size="11.00" fill="#000000">[table]</text>
<polygon fill="none" stroke="#000000" points="8.5,-546.7 8.5,-568.7 105.5,-568.7 105.5,-546.7 8.5,-546.7"/>
<image xlink:href="../../images/primaryKeys.png" width="11px" height="12px" preserveAspectRatio="xMinYMin meet" x="13.5" y="-563.7"/>
<text text-anchor="start" x="28.5" y="-553.8" font-family="Helvetica,sans-Serif" font-size="11.00" fill="#000000">code</text>
<polygon fill="none" stroke="#000000" points="8.5,-527.7 8.5,-546.7 105.5,-546.7 105.5,-527.7 8.5,-527.7"/>
<text text-anchor="start" x="11.5" y="-533.8" font-family="Helvetica,sans-Serif" font-size="11.00" fill="#000000">...</text>
<polygon fill="#ffffff" stroke="transparent" points="8.5,-508.7 8.5,-527.7 43.5,-527.7 43.5,-508.7 8.5,-508.7"/>
<polygon fill="none" stroke="#000000" points="8.5,-508.7 8.5,-527.7 43.5,-527.7 43.5,-508.7 8.5,-508.7"/>
<text text-anchor="start" x="11.5" y="-514.8" font-family="Helvetica,sans-Serif" font-size="11.00" fill="#000000"> &#160;</text>
<polygon fill="#ffffff" stroke="transparent" points="43.5,-508.7 43.5,-527.7 66.5,-527.7 66.5,-508.7 43.5,-508.7"/>
<polygon fill="none" stroke="#000000" points="43.5,-508.7 43.5,-527.7 66.5,-527.7 66.5,-508.7 43.5,-508.7"/>
<text text-anchor="start" x="57.3862" y="-514.8" font-family="Helvetica,sans-Serif" font-size="11.00" fill="#000000"> &#160;</text>
<polygon fill="#ffffff" stroke="transparent" points="66.5,-508.7 66.5,-527.7 105.5,-527.7 105.5,-508.7 66.5,-508.7"/>
<polygon fill="none" stroke="#000000" points="66.5,-508.7 66.5,-527.7 105.5,-527.7 105.5,-508.7 66.5,-508.7"/>
<text text-anchor="start" x="80.7904" y="-514.8" font-family="Helvetica,sans-Serif" font-size="11.00" fill="#000000">13 &gt;</text>
</a>
</g>
</g>
<!-- allocation&#45;&gt;policy -->
<g id="edge1" class="edge">
<title>allocation:w&#45;&gt;policy:e</title>
<path fill="none" stroke="#000000" d="M292.3786,-1233.9252C227.9687,-1235.8375 190.1892,-1248.0353 146,-1195.7 100.1748,-1141.4272 176.5316,-557.7 105.5,-557.7"/>
<polygon fill="#000000" stroke="#000000" points="299.0009,-1233.8233 307.0555,-1237.2996 303.0005,-1233.7616 307,-1233.7 307,-1233.7 307,-1233.7 303.0005,-1233.7616 306.9445,-1230.1004 299.0009,-1233.8233 299.0009,-1233.8233"/>
<ellipse fill="none" stroke="#000000" cx="295.8013" cy="-1233.8726" rx="3.2" ry="3.2"/>
</g>
<!-- allocation_audit -->
<g id="node3" class="node">
<title>allocation_audit</title>
<g id="a_node3"><a xlink:href="../../tables/allocation_audit.html" xlink:title="allocation_audit" target="_top">
<polygon fill="#ffffff" stroke="transparent" points="286,-1124.2 286,-1185.2 432,-1185.2 432,-1124.2 286,-1124.2"/>
<polygon fill="#f5f5f5" stroke="transparent" points="286,-1161.7 286,-1184.7 432,-1184.7 432,-1161.7 286,-1161.7"/>
<polygon fill="none" stroke="#000000" points="286,-1161.7 286,-1184.7 432,-1184.7 432,-1161.7 286,-1161.7"/>
<text text-anchor="start" x="291" y="-1170.3" font-family="Helvetica,sans-Serif" font-weight="bold" font-size="11.00" fill="#000000">allocation_audit</text>
<text text-anchor="start" x="397.5219" y="-1169.8" font-family="Helvetica,sans-Serif" font-size="11.00" fill="#000000">[table]</text>
<polygon fill="none" stroke="#000000" points="286,-1142.7 286,-1161.7 432,-1161.7 432,-1142.7 286,-1142.7"/>
<text text-anchor="start" x="289" y="-1148.8" font-family="Helvetica,sans-Serif" font-size="11.00" fill="#000000">...</text>
<polygon fill="#ffffff" stroke="transparent" points="286,-1123.7 286,-1142.7 357,-1142.7 357,-1123.7 286,-1123.7"/>
<polygon fill="none" stroke="#000000" points="286,-1123.7 286,-1142.7 357,-1142.7 357,-1123.7 286,-1123.7"/>
<text text-anchor="start" x="289" y="-1129.8" font-family="Helvetica,sans-Serif" font-size="11.00" fill="#000000">&lt; 2</text>
<polygon fill="#ffffff" stroke="transparent" points="357,-1123.7 357,-1142.7 394,-1142.7 394,-1123.7 357,-1123.7"/>
<polygon fill="none" stroke="#000000" points="357,-1123.7 357,-1142.7 394,-1142.7 394,-1123.7 357,-1123.7"/>
<text text-anchor="start" x="384.8862" y="-1129.8" font-family="Helvetica,sans-Serif" font-size="11.00" fill="#000000"> &#160;</text>
<polygon fill="#ffffff" stroke="transparent" points="394,-1123.7 394,-1142.7 432,-1142.7 432,-1123.7 394,-1123.7"/>
<polygon fill="none" stroke="#000000" points="394,-1123.7 394,-1142.7 432,-1142.7 432,-1123.7 394,-1123.7"/>
<text text-anchor="start" x="422.8862" y="-1129.8" font-family="Helvetica,sans-Serif" font-size="11.00" fill="#000000"> &#160;</text>
</a>
</g>
</g>
<!-- allocation_audit&#45;&gt;policy -->
<g id="edge2" class="edge">
<title>allocation_audit:w&#45;&gt;policy:e</title>
<path fill="none" stroke="#000000" stroke-dasharray="5,2" d="M271.42,-1151.8803C216.0924,-1153.1615 183.7984,-1159.5692 146,-1113.7 106.6086,-1065.8977 167.4415,-557.7 105.5,-557.7"/>
<polygon fill="#000000" stroke="#000000" points="278.0006,-1151.799 286.0445,-1155.2997 282.0003,-1151.7495 286,-1151.7 286,-1151.7 286,-1151.7 282.0003,-1151.7495 285.9555,-1148.1003 278.0006,-1151.799 278.0006,-1151.799"/>
<ellipse fill="none" stroke="#000000" cx="274.8009" cy="-1151.8386" rx="3.2" ry="3.2"/>
</g>
<!-- case_note_type_recorded_event_type -->
<g id="node4" class="node">
<title>case_note_type_recorded_event_type</title>
<g id="a_node4"><a xlink:href="../../tables/case_note_type_recorded_event_type.html" xlink:title="case_note_type_recorded_event_type" target="_top">
<polygon fill="#ffffff" stroke="transparent" points="214.5,-1042.2 214.5,-1103.2 503.5,-1103.2 503.5,-1042.2 214.5,-1042.2"/>
<polygon fill="#f5f5f5" stroke="transparent" points="215,-1079.7 215,-1102.7 504,-1102.7 504,-1079.7 215,-1079.7"/>
<polygon fill="none" stroke="#000000" points="215,-1079.7 215,-1102.7 504,-1102.7 504,-1079.7 215,-1079.7"/>
<text text-anchor="start" x="220" y="-1088.3" font-family="Helvetica,sans-Serif" font-weight="bold" font-size="11.00" fill="#000000">case_note_type_recorded_event_type</text>
<text text-anchor="start" x="469.5219" y="-1087.8" font-family="Helvetica,sans-Serif" font-size="11.00" fill="#000000">[table]</text>
<polygon fill="none" stroke="#000000" points="215,-1060.7 215,-1079.7 504,-1079.7 504,-1060.7 215,-1060.7"/>
<text text-anchor="start" x="218" y="-1066.8" font-family="Helvetica,sans-Serif" font-size="11.00" fill="#000000">...</text>
<polygon fill="#ffffff" stroke="transparent" points="215,-1041.7 215,-1060.7 358,-1060.7 358,-1041.7 215,-1041.7"/>
<polygon fill="none" stroke="#000000" points="215,-1041.7 215,-1060.7 358,-1060.7 358,-1041.7 215,-1041.7"/>
<text text-anchor="start" x="218" y="-1047.8" font-family="Helvetica,sans-Serif" font-size="11.00" fill="#000000">&lt; 1</text>
<polygon fill="#ffffff" stroke="transparent" points="358,-1041.7 358,-1060.7 431,-1060.7 431,-1041.7 358,-1041.7"/>
<polygon fill="none" stroke="#000000" points="358,-1041.7 358,-1060.7 431,-1060.7 431,-1041.7 358,-1041.7"/>
<text text-anchor="start" x="421.8862" y="-1047.8" font-family="Helvetica,sans-Serif" font-size="11.00" fill="#000000"> &#160;</text>
<polygon fill="#ffffff" stroke="transparent" points="431,-1041.7 431,-1060.7 504,-1060.7 504,-1041.7 431,-1041.7"/>
<polygon fill="none" stroke="#000000" points="431,-1041.7 431,-1060.7 504,-1060.7 504,-1041.7 431,-1041.7"/>
<text text-anchor="start" x="494.8862" y="-1047.8" font-family="Helvetica,sans-Serif" font-size="11.00" fill="#000000"> &#160;</text>
</a>
</g>
</g>
<!-- case_note_type_recorded_event_type&#45;&gt;policy -->
<g id="edge3" class="edge">
<title>case_note_type_recorded_event_type:w&#45;&gt;policy:e</title>
<path fill="none" stroke="#000000" stroke-dasharray="5,2" d="M200.313,-1069.0554C175.3501,-1066.5853 162.1717,-1056.5828 146,-1031.7 117.1953,-987.3794 158.3586,-557.7 105.5,-557.7"/>
<polygon fill="#000000" stroke="#000000" points="207.0077,-1069.3492 214.8421,-1073.2965 211.0038,-1069.5246 215,-1069.7 215,-1069.7 215,-1069.7 211.0038,-1069.5246 215.1579,-1066.1035 207.0077,-1069.3492 207.0077,-1069.3492"/>
<ellipse fill="none" stroke="#000000" cx="203.8108" cy="-1069.2089" rx="3.2" ry="3.2"/>
</g>
<!-- prison_configuration -->
<g id="node5" class="node">
<title>prison_configuration</title>
<g id="a_node5"><a xlink:href="../../tables/prison_configuration.html" xlink:title="prison_configuration" target="_top">
<polygon fill="#ffffff" stroke="transparent" points="154,-776.7 154,-1020.7 564,-1020.7 564,-776.7 154,-776.7"/>
<polygon fill="#f5f5f5" stroke="transparent" points="156,-995.7 156,-1018.7 562,-1018.7 562,-995.7 156,-995.7"/>
<polygon fill="none" stroke="#000000" points="156,-995.7 156,-1018.7 562,-1018.7 562,-995.7 156,-995.7"/>
<text text-anchor="start" x="161" y="-1004.3" font-family="Helvetica,sans-Serif" font-weight="bold" font-size="11.00" fill="#000000">prison_configuration</text>
<text text-anchor="start" x="527.0437" y="-1003.8" font-family="Helvetica,sans-Serif" font-size="11.00" fill="#000000">[table]</text>
<polygon fill="#ffffff" stroke="transparent" points="156,-973.7 156,-995.7 468,-995.7 468,-973.7 156,-973.7"/>
<polygon fill="none" stroke="#000000" points="156,-973.7 156,-995.7 468,-995.7 468,-973.7 156,-973.7"/>
<text text-anchor="start" x="176" y="-980.8" font-family="Helvetica,sans-Serif" font-size="11.00" fill="#000000">prison_code</text>
<polygon fill="none" stroke="#000000" points="468,-973.7 468,-995.7 562,-995.7 562,-973.7 468,-973.7"/>
<text text-anchor="start" x="471" y="-981.4" font-family="Helvetica,sans-Serif" font-size="11.00" fill="#000000">varchar[6]</text>
<polygon fill="none" stroke="#000000" points="156,-951.7 156,-973.7 468,-973.7 468,-951.7 156,-951.7"/>
<text text-anchor="start" x="176" y="-958.8" font-family="Helvetica,sans-Serif" font-size="11.00" fill="#000000">allow_auto_allocation</text>
<polygon fill="none" stroke="#000000" points="468,-951.7 468,-973.7 562,-973.7 562,-951.7 468,-951.7"/>
<text text-anchor="start" x="471" y="-959.4" font-family="Helvetica,sans-Serif" font-size="11.00" fill="#000000">bool[1]</text>
<polygon fill="none" stroke="#000000" points="156,-929.7 156,-951.7 468,-951.7 468,-929.7 156,-929.7"/>
<text text-anchor="start" x="176" y="-936.8" font-family="Helvetica,sans-Serif" font-size="11.00" fill="#000000">is_enabled</text>
<polygon fill="none" stroke="#000000" points="468,-929.7 468,-951.7 562,-951.7 562,-929.7 468,-929.7"/>
<text text-anchor="start" x="471" y="-937.4" font-family="Helvetica,sans-Serif" font-size="11.00" fill="#000000">bool[1]</text>
<polygon fill="none" stroke="#000000" points="156,-907.7 156,-929.7 468,-929.7 468,-907.7 156,-907.7"/>
<text text-anchor="start" x="176" y="-914.8" font-family="Helvetica,sans-Serif" font-size="11.00" fill="#000000">capacity</text>
<polygon fill="none" stroke="#000000" points="468,-907.7 468,-929.7 562,-929.7 562,-907.7 468,-907.7"/>
<text text-anchor="start" x="471" y="-915.4" font-family="Helvetica,sans-Serif" font-size="11.00" fill="#000000">int4[10]</text>
<polygon fill="none" stroke="#000000" points="156,-885.7 156,-907.7 468,-907.7 468,-885.7 156,-885.7"/>
<text text-anchor="start" x="176" y="-892.8" font-family="Helvetica,sans-Serif" font-size="11.00" fill="#000000">frequency_in_weeks</text>
<polygon fill="none" stroke="#000000" points="468,-885.7 468,-907.7 562,-907.7 562,-885.7 468,-885.7"/>
<text text-anchor="start" x="471" y="-893.4" font-family="Helvetica,sans-Serif" font-size="11.00" fill="#000000">int4[10]</text>
<polygon fill="none" stroke="#000000" points="156,-863.7 156,-885.7 468,-885.7 468,-863.7 156,-863.7"/>
<text text-anchor="start" x="176" y="-870.8" font-family="Helvetica,sans-Serif" font-size="11.00" fill="#000000">has_prisoners_with_high_complexity_needs</text>
<polygon fill="none" stroke="#000000" points="468,-863.7 468,-885.7 562,-885.7 562,-863.7 468,-863.7"/>
<text text-anchor="start" x="471" y="-871.4" font-family="Helvetica,sans-Serif" font-size="11.00" fill="#000000">bool[1]</text>
<polygon fill="#ffffff" stroke="transparent" points="156,-841.7 156,-863.7 468,-863.7 468,-841.7 156,-841.7"/>
<polygon fill="none" stroke="#000000" points="156,-841.7 156,-863.7 468,-863.7 468,-841.7 156,-841.7"/>
<image xlink:href="../../images/foreignKeys.png" width="11px" height="12px" preserveAspectRatio="xMinYMin meet" x="161" y="-858.7"/>
<text text-anchor="start" x="176" y="-848.8" font-family="Helvetica,sans-Serif" font-size="11.00" fill="#000000">policy_code</text>
<polygon fill="none" stroke="#000000" points="468,-841.7 468,-863.7 562,-863.7 562,-841.7 468,-841.7"/>
<text text-anchor="start" x="471" y="-849.4" font-family="Helvetica,sans-Serif" font-size="11.00" fill="#000000">varchar[16]</text>
<polygon fill="none" stroke="#000000" points="156,-819.7 156,-841.7 468,-841.7 468,-819.7 156,-819.7"/>
<image xlink:href="../../images/primaryKeys.png" width="11px" height="12px" preserveAspectRatio="xMinYMin meet" x="161" y="-836.7"/>
<text text-anchor="start" x="176" y="-826.8" font-family="Helvetica,sans-Serif" font-size="11.00" fill="#000000">id</text>
<polygon fill="none" stroke="#000000" points="468,-819.7 468,-841.7 562,-841.7 562,-819.7 468,-819.7"/>
<text text-anchor="start" x="470.9758" y="-827.4" font-family="Helvetica,sans-Serif" font-size="11.00" fill="#000000">uuid[2147483647]</text>
<polygon fill="none" stroke="#000000" points="156,-797.7 156,-819.7 468,-819.7 468,-797.7 156,-797.7"/>
<text text-anchor="start" x="176" y="-804.8" font-family="Helvetica,sans-Serif" font-size="11.00" fill="#000000">allocation_order</text>
<polygon fill="none" stroke="#000000" points="468,-797.7 468,-819.7 562,-819.7 562,-797.7 468,-797.7"/>
<text text-anchor="start" x="471" y="-805.4" font-family="Helvetica,sans-Serif" font-size="11.00" fill="#000000">varchar[15]</text>
<polygon fill="#ffffff" stroke="transparent" points="156,-778.7 156,-797.7 300,-797.7 300,-778.7 156,-778.7"/>
<polygon fill="none" stroke="#000000" points="156,-778.7 156,-797.7 300,-797.7 300,-778.7 156,-778.7"/>
<text text-anchor="start" x="159" y="-784.8" font-family="Helvetica,sans-Serif" font-size="11.00" fill="#000000">&lt; 1</text>
<polygon fill="#ffffff" stroke="transparent" points="300,-778.7 300,-797.7 468,-797.7 468,-778.7 300,-778.7"/>
<polygon fill="none" stroke="#000000" points="300,-778.7 300,-797.7 468,-797.7 468,-778.7 300,-778.7"/>
<text text-anchor="start" x="426.4956" y="-784.8" font-family="Helvetica,sans-Serif" font-size="11.00" fill="#000000">12 rows</text>
<polygon fill="#ffffff" stroke="transparent" points="468,-778.7 468,-797.7 562,-797.7 562,-778.7 468,-778.7"/>
<polygon fill="none" stroke="#000000" points="468,-778.7 468,-797.7 562,-797.7 562,-778.7 468,-778.7"/>
<text text-anchor="start" x="543.4053" y="-784.8" font-family="Helvetica,sans-Serif" font-size="11.00" fill="#000000">0 &gt;</text>
<polygon fill="none" stroke="#000000" stroke-width="2" points="155,-777.7 155,-1019.7 563,-1019.7 563,-777.7 155,-777.7"/>
</a>
</g>
</g>
<!-- prison_configuration&#45;&gt;policy -->
<g id="edge4" class="edge">
<title>prison_configuration:w&#45;&gt;policy:e</title>
<path fill="none" stroke="#000000" d="M142.4765,-847.0704C102.0262,-806.2867 166.5533,-557.7 105.5,-557.7"/>
<polygon fill="#000000" stroke="#000000" points="148.6144,-849.6255 154.6165,-856.0235 152.3072,-851.1627 156,-852.7 156,-852.7 156,-852.7 152.3072,-851.1627 157.3835,-849.3765 148.6144,-849.6255 148.6144,-849.6255"/>
<ellipse fill="none" stroke="#000000" cx="145.6601" cy="-848.3957" rx="3.2" ry="3.2"/>
</g>
<!-- prison_configuration_audit -->
<g id="node6" class="node">
<title>prison_configuration_audit</title>
<g id="a_node6"><a xlink:href="../../tables/prison_configuration_audit.html" xlink:title="prison_configuration_audit" target="_top">
<polygon fill="#ffffff" stroke="transparent" points="249.5,-694.2 249.5,-755.2 468.5,-755.2 468.5,-694.2 249.5,-694.2"/>
<polygon fill="#f5f5f5" stroke="transparent" points="250,-731.7 250,-754.7 469,-754.7 469,-731.7 250,-731.7"/>
<polygon fill="none" stroke="#000000" points="250,-731.7 250,-754.7 469,-754.7 469,-731.7 250,-731.7"/>
<text text-anchor="start" x="255" y="-740.3" font-family="Helvetica,sans-Serif" font-weight="bold" font-size="11.00" fill="#000000">prison_configuration_audit</text>
<text text-anchor="start" x="434.5219" y="-739.8" font-family="Helvetica,sans-Serif" font-size="11.00" fill="#000000">[table]</text>
<polygon fill="none" stroke="#000000" points="250,-712.7 250,-731.7 469,-731.7 469,-712.7 250,-712.7"/>
<text text-anchor="start" x="253" y="-718.8" font-family="Helvetica,sans-Serif" font-size="11.00" fill="#000000">...</text>
<polygon fill="#ffffff" stroke="transparent" points="250,-693.7 250,-712.7 358,-712.7 358,-693.7 250,-693.7"/>
<polygon fill="none" stroke="#000000" points="250,-693.7 250,-712.7 358,-712.7 358,-693.7 250,-693.7"/>
<text text-anchor="start" x="253" y="-699.8" font-family="Helvetica,sans-Serif" font-size="11.00" fill="#000000">&lt; 2</text>
<polygon fill="#ffffff" stroke="transparent" points="358,-693.7 358,-712.7 413,-712.7 413,-693.7 358,-693.7"/>
<polygon fill="none" stroke="#000000" points="358,-693.7 358,-712.7 413,-712.7 413,-693.7 358,-693.7"/>
<text text-anchor="start" x="403.8862" y="-699.8" font-family="Helvetica,sans-Serif" font-size="11.00" fill="#000000"> &#160;</text>
<polygon fill="#ffffff" stroke="transparent" points="413,-693.7 413,-712.7 469,-712.7 469,-693.7 413,-693.7"/>
<polygon fill="none" stroke="#000000" points="413,-693.7 413,-712.7 469,-712.7 469,-693.7 413,-693.7"/>
<text text-anchor="start" x="459.8862" y="-699.8" font-family="Helvetica,sans-Serif" font-size="11.00" fill="#000000"> &#160;</text>
</a>
</g>
</g>
<!-- prison_configuration_audit&#45;&gt;policy -->
<g id="edge5" class="edge">
<title>prison_configuration_audit:w&#45;&gt;policy:e</title>
<path fill="none" stroke="#000000" stroke-dasharray="5,2" d="M235.5882,-721.5851C196.3632,-720.8241 176.5762,-715.5026 146,-683.7 105.2324,-641.2972 164.3218,-557.7 105.5,-557.7"/>
<polygon fill="#000000" stroke="#000000" points="242.0003,-721.6362 249.9713,-725.2999 246.0001,-721.6681 250,-721.7 250,-721.7 250,-721.7 246.0001,-721.6681 250.0287,-718.1001 242.0003,-721.6362 242.0003,-721.6362"/>
<ellipse fill="none" stroke="#000000" cx="238.8004" cy="-721.6106" rx="3.2" ry="3.2"/>
</g>
<!-- prison_statistic -->
<g id="node7" class="node">
<title>prison_statistic</title>
<g id="a_node7"><a xlink:href="../../tables/prison_statistic.html" xlink:title="prison_statistic" target="_top">
<polygon fill="#ffffff" stroke="transparent" points="288,-612.2 288,-673.2 430,-673.2 430,-612.2 288,-612.2"/>
<polygon fill="#f5f5f5" stroke="transparent" points="288,-649.7 288,-672.7 430,-672.7 430,-649.7 288,-649.7"/>
<polygon fill="none" stroke="#000000" points="288,-649.7 288,-672.7 430,-672.7 430,-649.7 288,-649.7"/>
<text text-anchor="start" x="293" y="-658.3" font-family="Helvetica,sans-Serif" font-weight="bold" font-size="11.00" fill="#000000">prison_statistic</text>
<text text-anchor="start" x="395.5219" y="-657.8" font-family="Helvetica,sans-Serif" font-size="11.00" fill="#000000">[table]</text>
<polygon fill="none" stroke="#000000" points="288,-630.7 288,-649.7 430,-649.7 430,-630.7 288,-630.7"/>
<text text-anchor="start" x="291" y="-636.8" font-family="Helvetica,sans-Serif" font-size="11.00" fill="#000000">...</text>
<polygon fill="#ffffff" stroke="transparent" points="288,-611.7 288,-630.7 357,-630.7 357,-611.7 288,-611.7"/>
<polygon fill="none" stroke="#000000" points="288,-611.7 288,-630.7 357,-630.7 357,-611.7 288,-611.7"/>
<text text-anchor="start" x="291" y="-617.8" font-family="Helvetica,sans-Serif" font-size="11.00" fill="#000000">&lt; 1</text>
<polygon fill="#ffffff" stroke="transparent" points="357,-611.7 357,-630.7 393,-630.7 393,-611.7 357,-611.7"/>
<polygon fill="none" stroke="#000000" points="357,-611.7 357,-630.7 393,-630.7 393,-611.7 357,-611.7"/>
<text text-anchor="start" x="383.8862" y="-617.8" font-family="Helvetica,sans-Serif" font-size="11.00" fill="#000000"> &#160;</text>
<polygon fill="#ffffff" stroke="transparent" points="393,-611.7 393,-630.7 430,-630.7 430,-611.7 393,-611.7"/>
<polygon fill="none" stroke="#000000" points="393,-611.7 393,-630.7 430,-630.7 430,-611.7 393,-611.7"/>
<text text-anchor="start" x="420.8862" y="-617.8" font-family="Helvetica,sans-Serif" font-size="11.00" fill="#000000"> &#160;</text>
</a>
</g>
</g>
<!-- prison_statistic&#45;&gt;policy -->
<g id="edge6" class="edge">
<title>prison_statistic:w&#45;&gt;policy:e</title>
<path fill="none" stroke="#000000" d="M273.4658,-639.6113C219.2082,-638.8661 197.5293,-632.8787 146,-601.7 123.2601,-587.9408 132.0786,-557.7 105.5,-557.7"/>
<polygon fill="#000000" stroke="#000000" points="280.0001,-639.6511 287.978,-643.2999 284.0001,-639.6756 288,-639.7 288,-639.7 288,-639.7 284.0001,-639.6756 288.022,-636.1001 280.0001,-639.6511 280.0001,-639.6511"/>
<ellipse fill="none" stroke="#000000" cx="276.8002" cy="-639.6316" rx="3.2" ry="3.2"/>
</g>
<!-- recorded_event -->
<g id="node8" class="node">
<title>recorded_event</title>
<g id="a_node8"><a xlink:href="../../tables/recorded_event.html" xlink:title="recorded_event" target="_top">
<polygon fill="#ffffff" stroke="transparent" points="287,-530.2 287,-591.2 431,-591.2 431,-530.2 287,-530.2"/>
<polygon fill="#f5f5f5" stroke="transparent" points="287,-567.7 287,-590.7 431,-590.7 431,-567.7 287,-567.7"/>
<polygon fill="none" stroke="#000000" points="287,-567.7 287,-590.7 431,-590.7 431,-567.7 287,-567.7"/>
<text text-anchor="start" x="292" y="-576.3" font-family="Helvetica,sans-Serif" font-weight="bold" font-size="11.00" fill="#000000">recorded_event</text>
<text text-anchor="start" x="396.5219" y="-575.8" font-family="Helvetica,sans-Serif" font-size="11.00" fill="#000000">[table]</text>
<polygon fill="none" stroke="#000000" points="287,-548.7 287,-567.7 431,-567.7 431,-548.7 287,-548.7"/>
<text text-anchor="start" x="290" y="-554.8" font-family="Helvetica,sans-Serif" font-size="11.00" fill="#000000">...</text>
<polygon fill="#ffffff" stroke="transparent" points="287,-529.7 287,-548.7 357,-548.7 357,-529.7 287,-529.7"/>
<polygon fill="none" stroke="#000000" points="287,-529.7 287,-548.7 357,-548.7 357,-529.7 287,-529.7"/>
<text text-anchor="start" x="290" y="-535.8" font-family="Helvetica,sans-Serif" font-size="11.00" fill="#000000">&lt; 2</text>
<polygon fill="#ffffff" stroke="transparent" points="357,-529.7 357,-548.7 394,-548.7 394,-529.7 357,-529.7"/>
<polygon fill="none" stroke="#000000" points="357,-529.7 357,-548.7 394,-548.7 394,-529.7 357,-529.7"/>
<text text-anchor="start" x="384.8862" y="-535.8" font-family="Helvetica,sans-Serif" font-size="11.00" fill="#000000"> &#160;</text>
<polygon fill="#ffffff" stroke="transparent" points="394,-529.7 394,-548.7 431,-548.7 431,-529.7 394,-529.7"/>
<polygon fill="none" stroke="#000000" points="394,-529.7 394,-548.7 431,-548.7 431,-529.7 394,-529.7"/>
<text text-anchor="start" x="421.8862" y="-535.8" font-family="Helvetica,sans-Serif" font-size="11.00" fill="#000000"> &#160;</text>
</a>
</g>
</g>
<!-- recorded_event&#45;&gt;policy -->
<g id="edge7" class="edge">
<title>recorded_event:w&#45;&gt;policy:e</title>
<path fill="none" stroke="#000000" d="M272.5544,-557.7C203.5762,-557.7 181.125,-557.7 105.5,-557.7"/>
<polygon fill="#000000" stroke="#000000" points="279,-557.7001 287,-561.3 283,-557.7 287,-557.7 287,-557.7 287,-557.7 283,-557.7 287,-554.1 279,-557.7001 279,-557.7001"/>
<ellipse fill="none" stroke="#000000" cx="275.8" cy="-557.7001" rx="3.2" ry="3.2"/>
</g>
<!-- recorded_event_audit -->
<g id="node9" class="node">
<title>recorded_event_audit</title>
<g id="a_node9"><a xlink:href="../../tables/recorded_event_audit.html" xlink:title="recorded_event_audit" target="_top">
<polygon fill="#ffffff" stroke="transparent" points="266.5,-448.2 266.5,-509.2 451.5,-509.2 451.5,-448.2 266.5,-448.2"/>
<polygon fill="#f5f5f5" stroke="transparent" points="267,-485.7 267,-508.7 452,-508.7 452,-485.7 267,-485.7"/>
<polygon fill="none" stroke="#000000" points="267,-485.7 267,-508.7 452,-508.7 452,-485.7 267,-485.7"/>
<text text-anchor="start" x="272" y="-494.3" font-family="Helvetica,sans-Serif" font-weight="bold" font-size="11.00" fill="#000000">recorded_event_audit</text>
<text text-anchor="start" x="417.5219" y="-493.8" font-family="Helvetica,sans-Serif" font-size="11.00" fill="#000000">[table]</text>
<polygon fill="none" stroke="#000000" points="267,-466.7 267,-485.7 452,-485.7 452,-466.7 267,-466.7"/>
<text text-anchor="start" x="270" y="-472.8" font-family="Helvetica,sans-Serif" font-size="11.00" fill="#000000">...</text>
<polygon fill="#ffffff" stroke="transparent" points="267,-447.7 267,-466.7 358,-466.7 358,-447.7 267,-447.7"/>
<polygon fill="none" stroke="#000000" points="267,-447.7 267,-466.7 358,-466.7 358,-447.7 267,-447.7"/>
<text text-anchor="start" x="270" y="-453.8" font-family="Helvetica,sans-Serif" font-size="11.00" fill="#000000">&lt; 2</text>
<polygon fill="#ffffff" stroke="transparent" points="358,-447.7 358,-466.7 405,-466.7 405,-447.7 358,-447.7"/>
<polygon fill="none" stroke="#000000" points="358,-447.7 358,-466.7 405,-466.7 405,-447.7 358,-447.7"/>
<text text-anchor="start" x="395.8862" y="-453.8" font-family="Helvetica,sans-Serif" font-size="11.00" fill="#000000"> &#160;</text>
<polygon fill="#ffffff" stroke="transparent" points="405,-447.7 405,-466.7 452,-466.7 452,-447.7 405,-447.7"/>
<polygon fill="none" stroke="#000000" points="405,-447.7 405,-466.7 452,-466.7 452,-447.7 405,-447.7"/>
<text text-anchor="start" x="442.8862" y="-453.8" font-family="Helvetica,sans-Serif" font-size="11.00" fill="#000000"> &#160;</text>
</a>
</g>
</g>
<!-- recorded_event_audit&#45;&gt;policy -->
<g id="edge8" class="edge">
<title>recorded_event_audit:w&#45;&gt;policy:e</title>
<path fill="none" stroke="#000000" d="M252.5433,-476.0412C206.8045,-478.3502 190.3693,-492.4257 146,-519.7 124.9725,-532.6259 130.1827,-557.7 105.5,-557.7"/>
<polygon fill="#000000" stroke="#000000" points="259.0022,-475.8888 267.085,-479.299 263.0011,-475.7944 267,-475.7 267,-475.7 267,-475.7 263.0011,-475.7944 266.915,-472.101 259.0022,-475.8888 259.0022,-475.8888"/>
<ellipse fill="none" stroke="#000000" cx="255.8031" cy="-475.9643" rx="3.2" ry="3.2"/>
</g>
<!-- reference_data_policy -->
<g id="node10" class="node">
<title>reference_data_policy</title>
<g id="a_node10"><a xlink:href="../../tables/reference_data_policy.html" xlink:title="reference_data_policy" target="_top">
<polygon fill="#ffffff" stroke="transparent" points="266,-366.2 266,-427.2 452,-427.2 452,-366.2 266,-366.2"/>
<polygon fill="#f5f5f5" stroke="transparent" points="266,-403.7 266,-426.7 452,-426.7 452,-403.7 266,-403.7"/>
<polygon fill="none" stroke="#000000" points="266,-403.7 266,-426.7 452,-426.7 452,-403.7 266,-403.7"/>
<text text-anchor="start" x="271" y="-412.3" font-family="Helvetica,sans-Serif" font-weight="bold" font-size="11.00" fill="#000000">reference_data_policy</text>
<text text-anchor="start" x="417.5219" y="-411.8" font-family="Helvetica,sans-Serif" font-size="11.00" fill="#000000">[table]</text>
<polygon fill="none" stroke="#000000" points="266,-384.7 266,-403.7 452,-403.7 452,-384.7 266,-384.7"/>
<text text-anchor="start" x="269" y="-390.8" font-family="Helvetica,sans-Serif" font-size="11.00" fill="#000000">...</text>
<polygon fill="#ffffff" stroke="transparent" points="266,-365.7 266,-384.7 341,-384.7 341,-365.7 266,-365.7"/>
<polygon fill="none" stroke="#000000" points="266,-365.7 266,-384.7 341,-384.7 341,-365.7 266,-365.7"/>
<text text-anchor="start" x="269" y="-371.8" font-family="Helvetica,sans-Serif" font-size="11.00" fill="#000000">&lt; 2</text>
<polygon fill="#ffffff" stroke="transparent" points="341,-365.7 341,-384.7 412,-384.7 412,-365.7 341,-365.7"/>
<polygon fill="none" stroke="#000000" points="341,-365.7 341,-384.7 412,-384.7 412,-365.7 341,-365.7"/>
<text text-anchor="start" x="370.4956" y="-371.8" font-family="Helvetica,sans-Serif" font-size="11.00" fill="#000000">84 rows</text>
<polygon fill="#ffffff" stroke="transparent" points="412,-365.7 412,-384.7 452,-384.7 452,-365.7 412,-365.7"/>
<polygon fill="none" stroke="#000000" points="412,-365.7 412,-384.7 452,-384.7 452,-365.7 412,-365.7"/>
<text text-anchor="start" x="442.8862" y="-371.8" font-family="Helvetica,sans-Serif" font-size="11.00" fill="#000000"> &#160;</text>
</a>
</g>
</g>
<!-- reference_data_policy&#45;&gt;policy -->
<g id="edge9" class="edge">
<title>reference_data_policy:w&#45;&gt;policy:e</title>
<path fill="none" stroke="#000000" d="M251.4586,-393.805C204.8327,-394.5973 182.0814,-400.67 146,-437.7 106.7175,-478.0153 161.7889,-557.7 105.5,-557.7"/>
<polygon fill="#000000" stroke="#000000" points="258.0002,-393.7578 266.026,-397.2999 262.0001,-393.7289 266,-393.7 266,-393.7 266,-393.7 262.0001,-393.7289 265.974,-390.1001 258.0002,-393.7578 258.0002,-393.7578"/>
<ellipse fill="none" stroke="#000000" cx="254.8003" cy="-393.7809" rx="3.2" ry="3.2"/>
</g>
<!-- staff_configuration -->
<g id="node11" class="node">
<title>staff_configuration</title>
<g id="a_node11"><a xlink:href="../../tables/staff_configuration.html" xlink:title="staff_configuration" target="_top">
<polygon fill="#ffffff" stroke="transparent" points="275.5,-284.2 275.5,-345.2 442.5,-345.2 442.5,-284.2 275.5,-284.2"/>
<polygon fill="#f5f5f5" stroke="transparent" points="276,-321.7 276,-344.7 443,-344.7 443,-321.7 276,-321.7"/>
<polygon fill="none" stroke="#000000" points="276,-321.7 276,-344.7 443,-344.7 443,-321.7 276,-321.7"/>
<text text-anchor="start" x="281" y="-330.3" font-family="Helvetica,sans-Serif" font-weight="bold" font-size="11.00" fill="#000000">staff_configuration</text>
<text text-anchor="start" x="408.5219" y="-329.8" font-family="Helvetica,sans-Serif" font-size="11.00" fill="#000000">[table]</text>
<polygon fill="none" stroke="#000000" points="276,-302.7 276,-321.7 443,-321.7 443,-302.7 276,-302.7"/>
<text text-anchor="start" x="279" y="-308.8" font-family="Helvetica,sans-Serif" font-size="11.00" fill="#000000">...</text>
<polygon fill="#ffffff" stroke="transparent" points="276,-283.7 276,-302.7 358,-302.7 358,-283.7 276,-283.7"/>
<polygon fill="none" stroke="#000000" points="276,-283.7 276,-302.7 358,-302.7 358,-283.7 276,-283.7"/>
<text text-anchor="start" x="279" y="-289.8" font-family="Helvetica,sans-Serif" font-size="11.00" fill="#000000">&lt; 2</text>
<polygon fill="#ffffff" stroke="transparent" points="358,-283.7 358,-302.7 400,-302.7 400,-283.7 358,-283.7"/>
<polygon fill="none" stroke="#000000" points="358,-283.7 358,-302.7 400,-302.7 400,-283.7 358,-283.7"/>
<text text-anchor="start" x="390.8862" y="-289.8" font-family="Helvetica,sans-Serif" font-size="11.00" fill="#000000"> &#160;</text>
<polygon fill="#ffffff" stroke="transparent" points="400,-283.7 400,-302.7 443,-302.7 443,-283.7 400,-283.7"/>
<polygon fill="none" stroke="#000000" points="400,-283.7 400,-302.7 443,-302.7 443,-283.7 400,-283.7"/>
<text text-anchor="start" x="433.8862" y="-289.8" font-family="Helvetica,sans-Serif" font-size="11.00" fill="#000000"> &#160;</text>
</a>
</g>
</g>
<!-- staff_configuration&#45;&gt;policy -->
<g id="edge10" class="edge">
<title>staff_configuration:w&#45;&gt;policy:e</title>
<path fill="none" stroke="#000000" d="M261.2884,-311.6909C210.0956,-311.7316 182.8914,-313.7357 146,-355.7 85.5444,-424.4689 197.0645,-557.7 105.5,-557.7"/>
<polygon fill="#000000" stroke="#000000" points="268,-311.695 275.9978,-315.3 272,-311.6975 276,-311.7 276,-311.7 276,-311.7 272,-311.6975 276.0022,-308.1 268,-311.695 268,-311.695"/>
<ellipse fill="none" stroke="#000000" cx="264.8" cy="-311.693" rx="3.2" ry="3.2"/>
</g>
<!-- staff_configuration_audit -->
<g id="node12" class="node">
<title>staff_configuration_audit</title>
<g id="a_node12"><a xlink:href="../../tables/staff_configuration_audit.html" xlink:title="staff_configuration_audit" target="_top">
<polygon fill="#ffffff" stroke="transparent" points="255,-202.2 255,-263.2 463,-263.2 463,-202.2 255,-202.2"/>
<polygon fill="#f5f5f5" stroke="transparent" points="255,-239.7 255,-262.7 463,-262.7 463,-239.7 255,-239.7"/>
<polygon fill="none" stroke="#000000" points="255,-239.7 255,-262.7 463,-262.7 463,-239.7 255,-239.7"/>
<text text-anchor="start" x="260" y="-248.3" font-family="Helvetica,sans-Serif" font-weight="bold" font-size="11.00" fill="#000000">staff_configuration_audit</text>
<text text-anchor="start" x="428.5219" y="-247.8" font-family="Helvetica,sans-Serif" font-size="11.00" fill="#000000">[table]</text>
<polygon fill="none" stroke="#000000" points="255,-220.7 255,-239.7 463,-239.7 463,-220.7 255,-220.7"/>
<text text-anchor="start" x="258" y="-226.8" font-family="Helvetica,sans-Serif" font-size="11.00" fill="#000000">...</text>
<polygon fill="#ffffff" stroke="transparent" points="255,-201.7 255,-220.7 357,-220.7 357,-201.7 255,-201.7"/>
<polygon fill="none" stroke="#000000" points="255,-201.7 255,-220.7 357,-220.7 357,-201.7 255,-201.7"/>
<text text-anchor="start" x="258" y="-207.8" font-family="Helvetica,sans-Serif" font-size="11.00" fill="#000000">&lt; 2</text>
<polygon fill="#ffffff" stroke="transparent" points="357,-201.7 357,-220.7 410,-220.7 410,-201.7 357,-201.7"/>
<polygon fill="none" stroke="#000000" points="357,-201.7 357,-220.7 410,-220.7 410,-201.7 357,-201.7"/>
<text text-anchor="start" x="400.8862" y="-207.8" font-family="Helvetica,sans-Serif" font-size="11.00" fill="#000000"> &#160;</text>
<polygon fill="#ffffff" stroke="transparent" points="410,-201.7 410,-220.7 463,-220.7 463,-201.7 410,-201.7"/>
<polygon fill="none" stroke="#000000" points="410,-201.7 410,-220.7 463,-220.7 463,-201.7 410,-201.7"/>
<text text-anchor="start" x="453.8862" y="-207.8" font-family="Helvetica,sans-Serif" font-size="11.00" fill="#000000"> &#160;</text>
</a>
</g>
</g>
<!-- staff_configuration_audit&#45;&gt;policy -->
<g id="edge11" class="edge">
<title>staff_configuration_audit:w&#45;&gt;policy:e</title>
<path fill="none" stroke="#000000" stroke-dasharray="5,2" d="M240.454,-229.8151C197.8902,-230.6254 175.066,-236.5864 146,-273.7 106.6933,-323.8896 169.2496,-557.7 105.5,-557.7"/>
<polygon fill="#000000" stroke="#000000" points="247.0003,-229.7633 255.0285,-233.2999 251.0001,-229.7317 255,-229.7 255,-229.7 255,-229.7 251.0001,-229.7317 254.9715,-226.1001 247.0003,-229.7633 247.0003,-229.7633"/>
<ellipse fill="none" stroke="#000000" cx="243.8004" cy="-229.7887" rx="3.2" ry="3.2"/>
</g>
<!-- staff_role -->
<g id="node13" class="node">
<title>staff_role</title>
<g id="a_node13"><a xlink:href="../../tables/staff_role.html" xlink:title="staff_role" target="_top">
<polygon fill="#ffffff" stroke="transparent" points="308,-120.2 308,-181.2 410,-181.2 410,-120.2 308,-120.2"/>
<polygon fill="#f5f5f5" stroke="transparent" points="308,-157.7 308,-180.7 410,-180.7 410,-157.7 308,-157.7"/>
<polygon fill="none" stroke="#000000" points="308,-157.7 308,-180.7 410,-180.7 410,-157.7 308,-157.7"/>
<text text-anchor="start" x="313" y="-166.3" font-family="Helvetica,sans-Serif" font-weight="bold" font-size="11.00" fill="#000000">staff_role</text>
<text text-anchor="start" x="375.5219" y="-165.8" font-family="Helvetica,sans-Serif" font-size="11.00" fill="#000000">[table]</text>
<polygon fill="none" stroke="#000000" points="308,-138.7 308,-157.7 410,-157.7 410,-138.7 308,-138.7"/>
<text text-anchor="start" x="311" y="-144.8" font-family="Helvetica,sans-Serif" font-size="11.00" fill="#000000">...</text>
<polygon fill="#ffffff" stroke="transparent" points="308,-119.7 308,-138.7 357,-138.7 357,-119.7 308,-119.7"/>
<polygon fill="none" stroke="#000000" points="308,-119.7 308,-138.7 357,-138.7 357,-119.7 308,-119.7"/>
<text text-anchor="start" x="311" y="-125.8" font-family="Helvetica,sans-Serif" font-size="11.00" fill="#000000">&lt; 1</text>
<polygon fill="#ffffff" stroke="transparent" points="357,-119.7 357,-138.7 383,-138.7 383,-119.7 357,-119.7"/>
<polygon fill="none" stroke="#000000" points="357,-119.7 357,-138.7 383,-138.7 383,-119.7 357,-119.7"/>
<text text-anchor="start" x="373.8862" y="-125.8" font-family="Helvetica,sans-Serif" font-size="11.00" fill="#000000"> &#160;</text>
<polygon fill="#ffffff" stroke="transparent" points="383,-119.7 383,-138.7 410,-138.7 410,-119.7 383,-119.7"/>
<polygon fill="none" stroke="#000000" points="383,-119.7 383,-138.7 410,-138.7 410,-119.7 383,-119.7"/>
<text text-anchor="start" x="400.8862" y="-125.8" font-family="Helvetica,sans-Serif" font-size="11.00" fill="#000000"> &#160;</text>
</a>
</g>
</g>
<!-- staff_role&#45;&gt;policy -->
<g id="edge12" class="edge">
<title>staff_role:w&#45;&gt;policy:e</title>
<path fill="none" stroke="#000000" stroke-dasharray="5,2" d="M293.596,-147.5562C228.1855,-146.3215 191.2917,-138.7818 146,-191.7 92.7911,-253.8685 187.3298,-557.7 105.5,-557.7"/>
<polygon fill="#000000" stroke="#000000" points="300.0004,-147.6201 307.964,-151.2998 304.0002,-147.6601 308,-147.7 308,-147.7 308,-147.7 304.0002,-147.6601 308.036,-144.1002 300.0004,-147.6201 300.0004,-147.6201"/>
<ellipse fill="none" stroke="#000000" cx="296.8006" cy="-147.5882" rx="3.2" ry="3.2"/>
</g>
<!-- staff_role_audit -->
<g id="node14" class="node">
<title>staff_role_audit</title>
<g id="a_node14"><a xlink:href="../../tables/staff_role_audit.html" xlink:title="staff_role_audit" target="_top">
<polygon fill="#ffffff" stroke="transparent" points="287.5,-38.2 287.5,-99.2 430.5,-99.2 430.5,-38.2 287.5,-38.2"/>
<polygon fill="#f5f5f5" stroke="transparent" points="288,-75.7 288,-98.7 431,-98.7 431,-75.7 288,-75.7"/>
<polygon fill="none" stroke="#000000" points="288,-75.7 288,-98.7 431,-98.7 431,-75.7 288,-75.7"/>
<text text-anchor="start" x="293" y="-84.3" font-family="Helvetica,sans-Serif" font-weight="bold" font-size="11.00" fill="#000000">staff_role_audit</text>
<text text-anchor="start" x="396.5219" y="-83.8" font-family="Helvetica,sans-Serif" font-size="11.00" fill="#000000">[table]</text>
<polygon fill="none" stroke="#000000" points="288,-56.7 288,-75.7 431,-75.7 431,-56.7 288,-56.7"/>
<text text-anchor="start" x="291" y="-62.8" font-family="Helvetica,sans-Serif" font-size="11.00" fill="#000000">...</text>
<polygon fill="#ffffff" stroke="transparent" points="288,-37.7 288,-56.7 358,-56.7 358,-37.7 288,-37.7"/>
<polygon fill="none" stroke="#000000" points="288,-37.7 288,-56.7 358,-56.7 358,-37.7 288,-37.7"/>
<text text-anchor="start" x="291" y="-43.8" font-family="Helvetica,sans-Serif" font-size="11.00" fill="#000000">&lt; 2</text>
<polygon fill="#ffffff" stroke="transparent" points="358,-37.7 358,-56.7 394,-56.7 394,-37.7 358,-37.7"/>
<polygon fill="none" stroke="#000000" points="358,-37.7 358,-56.7 394,-56.7 394,-37.7 358,-37.7"/>
<text text-anchor="start" x="384.8862" y="-43.8" font-family="Helvetica,sans-Serif" font-size="11.00" fill="#000000"> &#160;</text>
<polygon fill="#ffffff" stroke="transparent" points="394,-37.7 394,-56.7 431,-56.7 431,-37.7 394,-37.7"/>
<polygon fill="none" stroke="#000000" points="394,-37.7 394,-56.7 431,-56.7 431,-37.7 394,-37.7"/>
<text text-anchor="start" x="421.8862" y="-43.8" font-family="Helvetica,sans-Serif" font-size="11.00" fill="#000000"> &#160;</text>
</a>
</g>
</g>
<!-- staff_role_audit&#45;&gt;policy -->
<g id="edge13" class="edge">
<title>staff_role_audit:w&#45;&gt;policy:e</title>
<path fill="none" stroke="#000000" stroke-dasharray="5,2" d="M273.4363,-65.601C216.6507,-64.9187 184.392,-62.2472 146,-109.7 114.5632,-148.5562 155.4808,-557.7 105.5,-557.7"/>
<polygon fill="#000000" stroke="#000000" points="280.0002,-65.6456 287.9755,-69.2999 284.0001,-65.6728 288,-65.7 288,-65.7 288,-65.7 284.0001,-65.6728 288.0245,-62.1001 280.0002,-65.6456 280.0002,-65.6456"/>
<ellipse fill="none" stroke="#000000" cx="276.8003" cy="-65.6238" rx="3.2" ry="3.2"/>
</g>
</g>
</svg>
