<?xml version="1.0" encoding="UTF-8" standalone="no"?>
<!DOCTYPE svg PUBLIC "-//W3C//DTD SVG 1.1//EN"
 "http://www.w3.org/Graphics/SVG/1.1/DTD/svg11.dtd">
<!-- Generated by graphviz version 2.40.1 (20161225.0304)
 -->
<!-- Title: twoDegreesRelationshipsDiagramImplied Pages: 1 -->
<svg width="726pt" height="1033pt"
 viewBox="0.00 0.00 726.00 1033.20" xmlns="http://www.w3.org/2000/svg" xmlns:xlink="http://www.w3.org/1999/xlink">
<g id="graph0" class="graph" transform="scale(1 1) rotate(0) translate(4 1029.2)">
<title>twoDegreesRelationshipsDiagramImplied</title>
<polygon fill="#ffffff" stroke="transparent" points="-4,4 -4,-1029.2 722,-1029.2 722,4 -4,4"/>
<text text-anchor="middle" x="72.4936" y="-7.3" font-family="Helvetica,sans-Serif" font-size="11.00" fill="#000000">Generated by SchemaSpy</text>
<!-- allocation -->
<g id="node1" class="node">
<title>allocation</title>
<g id="a_node1"><a xlink:href="../../tables/allocation.html" xlink:title="allocation" target="_top">
<polygon fill="#ffffff" stroke="transparent" points="452.5,-796.2 452.5,-857.2 557.5,-857.2 557.5,-796.2 452.5,-796.2"/>
<polygon fill="#f5f5f5" stroke="transparent" points="453,-833.7 453,-856.7 558,-856.7 558,-833.7 453,-833.7"/>
<polygon fill="none" stroke="#000000" points="453,-833.7 453,-856.7 558,-856.7 558,-833.7 453,-833.7"/>
<text text-anchor="start" x="458" y="-842.3" font-family="Helvetica,sans-Serif" font-weight="bold" font-size="11.00" fill="#000000">allocation</text>
<text text-anchor="start" x="523.5219" y="-841.8" font-family="Helvetica,sans-Serif" font-size="11.00" fill="#000000">[table]</text>
<polygon fill="none" stroke="#000000" points="453,-814.7 453,-833.7 558,-833.7 558,-814.7 453,-814.7"/>
<text text-anchor="start" x="456" y="-820.8" font-family="Helvetica,sans-Serif" font-size="11.00" fill="#000000">...</text>
<polygon fill="#ffffff" stroke="transparent" points="453,-795.7 453,-814.7 504,-814.7 504,-795.7 453,-795.7"/>
<polygon fill="none" stroke="#000000" points="453,-795.7 453,-814.7 504,-814.7 504,-795.7 453,-795.7"/>
<text text-anchor="start" x="456" y="-801.8" font-family="Helvetica,sans-Serif" font-size="11.00" fill="#000000">&lt; 4</text>
<polygon fill="#ffffff" stroke="transparent" points="504,-795.7 504,-814.7 531,-814.7 531,-795.7 504,-795.7"/>
<polygon fill="none" stroke="#000000" points="504,-795.7 504,-814.7 531,-814.7 531,-795.7 504,-795.7"/>
<text text-anchor="start" x="521.8862" y="-801.8" font-family="Helvetica,sans-Serif" font-size="11.00" fill="#000000"> &#160;</text>
<polygon fill="#ffffff" stroke="transparent" points="531,-795.7 531,-814.7 558,-814.7 558,-795.7 531,-795.7"/>
<polygon fill="none" stroke="#000000" points="531,-795.7 531,-814.7 558,-814.7 558,-795.7 531,-795.7"/>
<text text-anchor="start" x="548.8862" y="-801.8" font-family="Helvetica,sans-Serif" font-size="11.00" fill="#000000"> &#160;</text>
</a>
</g>
</g>
<!-- policy -->
<g id="node2" class="node">
<title>policy</title>
<g id="a_node2"><a xlink:href="../../tables/policy.html" xlink:title="policy" target="_top">
<polygon fill="#ffffff" stroke="transparent" points="81,-304.2 81,-387.2 178,-387.2 178,-304.2 81,-304.2"/>
<polygon fill="#f5f5f5" stroke="transparent" points="81.5,-363.7 81.5,-386.7 178.5,-386.7 178.5,-363.7 81.5,-363.7"/>
<polygon fill="none" stroke="#000000" points="81.5,-363.7 81.5,-386.7 178.5,-386.7 178.5,-363.7 81.5,-363.7"/>
<text text-anchor="start" x="86.5" y="-372.3" font-family="Helvetica,sans-Serif" font-weight="bold" font-size="11.00" fill="#000000">policy</text>
<text text-anchor="start" x="143.5437" y="-371.8" font-family="Helvetica,sans-Serif" font-size="11.00" fill="#000000">[table]</text>
<polygon fill="none" stroke="#000000" points="81.5,-341.7 81.5,-363.7 178.5,-363.7 178.5,-341.7 81.5,-341.7"/>
<image xlink:href="../../images/primaryKeys.png" width="11px" height="12px" preserveAspectRatio="xMinYMin meet" x="86.5" y="-358.7"/>
<text text-anchor="start" x="101.5" y="-348.8" font-family="Helvetica,sans-Serif" font-size="11.00" fill="#000000">code</text>
<polygon fill="none" stroke="#000000" points="81.5,-322.7 81.5,-341.7 178.5,-341.7 178.5,-322.7 81.5,-322.7"/>
<text text-anchor="start" x="84.5" y="-328.8" font-family="Helvetica,sans-Serif" font-size="11.00" fill="#000000">...</text>
<polygon fill="#ffffff" stroke="transparent" points="81.5,-303.7 81.5,-322.7 119.5,-322.7 119.5,-303.7 81.5,-303.7"/>
<polygon fill="none" stroke="#000000" points="81.5,-303.7 81.5,-322.7 119.5,-322.7 119.5,-303.7 81.5,-303.7"/>
<text text-anchor="start" x="84.5" y="-309.8" font-family="Helvetica,sans-Serif" font-size="11.00" fill="#000000"> &#160;</text>
<polygon fill="#ffffff" stroke="transparent" points="119.5,-303.7 119.5,-322.7 144.5,-322.7 144.5,-303.7 119.5,-303.7"/>
<polygon fill="none" stroke="#000000" points="119.5,-303.7 119.5,-322.7 144.5,-322.7 144.5,-303.7 119.5,-303.7"/>
<text text-anchor="start" x="135.3862" y="-309.8" font-family="Helvetica,sans-Serif" font-size="11.00" fill="#000000"> &#160;</text>
<polygon fill="#ffffff" stroke="transparent" points="144.5,-303.7 144.5,-322.7 178.5,-322.7 178.5,-303.7 144.5,-303.7"/>
<polygon fill="none" stroke="#000000" points="144.5,-303.7 144.5,-322.7 178.5,-322.7 178.5,-303.7 144.5,-303.7"/>
<text text-anchor="start" x="159.9053" y="-309.8" font-family="Helvetica,sans-Serif" font-size="11.00" fill="#000000">8 &gt;</text>
</a>
</g>
</g>
<!-- allocation&#45;&gt;policy -->
<g id="edge1" class="edge">
<title>allocation:w&#45;&gt;policy:e</title>
<path fill="none" stroke="#000000" d="M438.4348,-823.8738C374.5175,-825.3354 340.2034,-834.3631 292,-785.7 245.1829,-738.4365 275.3218,-704.1925 259,-639.7 226.497,-511.2709 310.9782,-352.7 178.5,-352.7"/>
<polygon fill="#000000" stroke="#000000" points="445.0006,-823.7955 453.043,-827.2997 449.0003,-823.7477 453,-823.7 453,-823.7 453,-823.7 449.0003,-823.7477 452.957,-820.1003 445.0006,-823.7955 445.0006,-823.7955"/>
<ellipse fill="none" stroke="#000000" cx="441.8008" cy="-823.8337" rx="3.2" ry="3.2"/>
</g>
<!-- prison_migration_date_history -->
<g id="node3" class="node">
<title>prison_migration_date_history</title>
<g id="a_node3"><a xlink:href="../../tables/prison_migration_date_history.html" xlink:title="prison_migration_date_history" target="_top">
<polygon fill="#ffffff" stroke="transparent" points="8,-650.2 8,-733.2 251,-733.2 251,-650.2 8,-650.2"/>
<polygon fill="#f5f5f5" stroke="transparent" points="8.5,-709.7 8.5,-732.7 251.5,-732.7 251.5,-709.7 8.5,-709.7"/>
<polygon fill="none" stroke="#000000" points="8.5,-709.7 8.5,-732.7 251.5,-732.7 251.5,-709.7 8.5,-709.7"/>
<text text-anchor="start" x="13.5" y="-718.3" font-family="Helvetica,sans-Serif" font-weight="bold" font-size="11.00" fill="#000000">prison_migration_date_history</text>
<text text-anchor="start" x="217.0219" y="-717.8" font-family="Helvetica,sans-Serif" font-size="11.00" fill="#000000">[table]</text>
<polygon fill="none" stroke="#000000" points="8.5,-687.7 8.5,-709.7 251.5,-709.7 251.5,-687.7 8.5,-687.7"/>
<image xlink:href="../../images/primaryKeys.png" width="11px" height="12px" preserveAspectRatio="xMinYMin meet" x="13.5" y="-704.7"/>
<text text-anchor="start" x="37.5" y="-694.8" font-family="Helvetica,sans-Serif" font-size="11.00" fill="#000000">prison_code</text>
<polygon fill="none" stroke="#000000" points="8.5,-668.7 8.5,-687.7 251.5,-687.7 251.5,-668.7 8.5,-668.7"/>
<text text-anchor="start" x="11.5" y="-674.8" font-family="Helvetica,sans-Serif" font-size="11.00" fill="#000000">...</text>
<polygon fill="#ffffff" stroke="transparent" points="8.5,-649.7 8.5,-668.7 119.5,-668.7 119.5,-649.7 8.5,-649.7"/>
<polygon fill="none" stroke="#000000" points="8.5,-649.7 8.5,-668.7 119.5,-668.7 119.5,-649.7 8.5,-649.7"/>
<text text-anchor="start" x="11.5" y="-655.8" font-family="Helvetica,sans-Serif" font-size="11.00" fill="#000000"> &#160;</text>
<polygon fill="#ffffff" stroke="transparent" points="119.5,-649.7 119.5,-668.7 180.5,-668.7 180.5,-649.7 119.5,-649.7"/>
<polygon fill="none" stroke="#000000" points="119.5,-649.7 119.5,-668.7 180.5,-668.7 180.5,-649.7 119.5,-649.7"/>
<text text-anchor="start" x="171.3862" y="-655.8" font-family="Helvetica,sans-Serif" font-size="11.00" fill="#000000"> &#160;</text>
<polygon fill="#ffffff" stroke="transparent" points="180.5,-649.7 180.5,-668.7 251.5,-668.7 251.5,-649.7 180.5,-649.7"/>
<polygon fill="none" stroke="#000000" points="180.5,-649.7 180.5,-668.7 251.5,-668.7 251.5,-649.7 180.5,-649.7"/>
<text text-anchor="start" x="232.9053" y="-655.8" font-family="Helvetica,sans-Serif" font-size="11.00" fill="#000000">8 &gt;</text>
</a>
</g>
</g>
<!-- allocation&#45;&gt;prison_migration_date_history -->
<g id="edge2" class="edge">
<title>allocation:w&#45;&gt;prison_migration_date_history:e</title>
<path fill="none" stroke="#000000" stroke-dasharray="5,2" d="M438.5036,-823.7979C375.1886,-824.5958 345.1116,-828.953 292,-785.7 258.9284,-758.7671 294.151,-698.7 251.5,-698.7"/>
<polygon fill="#000000" stroke="#000000" points="445.0002,-823.7541 453.0243,-827.2999 449.0001,-823.727 453,-823.7 453,-823.7 453,-823.7 449.0001,-823.727 452.9757,-820.1001 445.0002,-823.7541 445.0002,-823.7541"/>
<ellipse fill="none" stroke="#000000" cx="441.8003" cy="-823.7757" rx="3.2" ry="3.2"/>
</g>
<!-- allocation_audit -->
<g id="node4" class="node">
<title>allocation_audit</title>
<g id="a_node4"><a xlink:href="../../tables/allocation_audit.html" xlink:title="allocation_audit" target="_top">
<polygon fill="#ffffff" stroke="transparent" points="432,-714.2 432,-775.2 578,-775.2 578,-714.2 432,-714.2"/>
<polygon fill="#f5f5f5" stroke="transparent" points="432,-751.7 432,-774.7 578,-774.7 578,-751.7 432,-751.7"/>
<polygon fill="none" stroke="#000000" points="432,-751.7 432,-774.7 578,-774.7 578,-751.7 432,-751.7"/>
<text text-anchor="start" x="437" y="-760.3" font-family="Helvetica,sans-Serif" font-weight="bold" font-size="11.00" fill="#000000">allocation_audit</text>
<text text-anchor="start" x="543.5219" y="-759.8" font-family="Helvetica,sans-Serif" font-size="11.00" fill="#000000">[table]</text>
<polygon fill="none" stroke="#000000" points="432,-732.7 432,-751.7 578,-751.7 578,-732.7 432,-732.7"/>
<text text-anchor="start" x="435" y="-738.8" font-family="Helvetica,sans-Serif" font-size="11.00" fill="#000000">...</text>
<polygon fill="#ffffff" stroke="transparent" points="432,-713.7 432,-732.7 503,-732.7 503,-713.7 432,-713.7"/>
<polygon fill="none" stroke="#000000" points="432,-713.7 432,-732.7 503,-732.7 503,-713.7 432,-713.7"/>
<text text-anchor="start" x="435" y="-719.8" font-family="Helvetica,sans-Serif" font-size="11.00" fill="#000000">&lt; 3</text>
<polygon fill="#ffffff" stroke="transparent" points="503,-713.7 503,-732.7 540,-732.7 540,-713.7 503,-713.7"/>
<polygon fill="none" stroke="#000000" points="503,-713.7 503,-732.7 540,-732.7 540,-713.7 503,-713.7"/>
<text text-anchor="start" x="530.8862" y="-719.8" font-family="Helvetica,sans-Serif" font-size="11.00" fill="#000000"> &#160;</text>
<polygon fill="#ffffff" stroke="transparent" points="540,-713.7 540,-732.7 578,-732.7 578,-713.7 540,-713.7"/>
<polygon fill="none" stroke="#000000" points="540,-713.7 540,-732.7 578,-732.7 578,-713.7 540,-713.7"/>
<text text-anchor="start" x="568.8862" y="-719.8" font-family="Helvetica,sans-Serif" font-size="11.00" fill="#000000"> &#160;</text>
</a>
</g>
</g>
<!-- allocation_audit&#45;&gt;policy -->
<g id="edge3" class="edge">
<title>allocation_audit:w&#45;&gt;policy:e</title>
<path fill="none" stroke="#000000" stroke-dasharray="5,2" d="M417.5156,-741.7914C362.908,-742.4028 335.0185,-744.7136 292,-703.7 232.6677,-647.1328 260.4766,-352.7 178.5,-352.7"/>
<polygon fill="#000000" stroke="#000000" points="424.0002,-741.7505 432.0227,-745.2999 428.0001,-741.7253 432,-741.7 432,-741.7 432,-741.7 428.0001,-741.7253 431.9773,-738.1001 424.0002,-741.7505 424.0002,-741.7505"/>
<ellipse fill="none" stroke="#000000" cx="420.8002" cy="-741.7708" rx="3.2" ry="3.2"/>
</g>
<!-- allocation_audit&#45;&gt;prison_migration_date_history -->
<g id="edge4" class="edge">
<title>allocation_audit:w&#45;&gt;prison_migration_date_history:e</title>
<path fill="none" stroke="#000000" stroke-dasharray="5,2" d="M417.4951,-740.4131C371.0792,-733.2584 288.4653,-698.7 251.5,-698.7"/>
<polygon fill="#000000" stroke="#000000" points="424.0313,-740.9929 431.6818,-745.2859 428.0157,-741.3465 432,-741.7 432,-741.7 432,-741.7 428.0157,-741.3465 432.3182,-738.1141 424.0313,-740.9929 424.0313,-740.9929"/>
<ellipse fill="none" stroke="#000000" cx="420.8438" cy="-740.7101" rx="3.2" ry="3.2"/>
</g>
<!-- keyworker_entry -->
<g id="node5" class="node">
<title>keyworker_entry</title>
<g id="a_node5"><a xlink:href="../../tables/keyworker_entry.html" xlink:title="keyworker_entry" target="_top">
<polygon fill="#ffffff" stroke="transparent" points="429,-960.2 429,-1021.2 581,-1021.2 581,-960.2 429,-960.2"/>
<polygon fill="#f5f5f5" stroke="transparent" points="429,-997.7 429,-1020.7 581,-1020.7 581,-997.7 429,-997.7"/>
<polygon fill="none" stroke="#000000" points="429,-997.7 429,-1020.7 581,-1020.7 581,-997.7 429,-997.7"/>
<text text-anchor="start" x="434" y="-1006.3" font-family="Helvetica,sans-Serif" font-weight="bold" font-size="11.00" fill="#000000">keyworker_entry</text>
<text text-anchor="start" x="546.5219" y="-1005.8" font-family="Helvetica,sans-Serif" font-size="11.00" fill="#000000">[table]</text>
<polygon fill="none" stroke="#000000" points="429,-978.7 429,-997.7 581,-997.7 581,-978.7 429,-978.7"/>
<text text-anchor="start" x="432" y="-984.8" font-family="Helvetica,sans-Serif" font-size="11.00" fill="#000000">...</text>
<polygon fill="#ffffff" stroke="transparent" points="429,-959.7 429,-978.7 503,-978.7 503,-959.7 429,-959.7"/>
<polygon fill="none" stroke="#000000" points="429,-959.7 429,-978.7 503,-978.7 503,-959.7 429,-959.7"/>
<text text-anchor="start" x="432" y="-965.8" font-family="Helvetica,sans-Serif" font-size="11.00" fill="#000000">&lt; 1</text>
<polygon fill="#ffffff" stroke="transparent" points="503,-959.7 503,-978.7 542,-978.7 542,-959.7 503,-959.7"/>
<polygon fill="none" stroke="#000000" points="503,-959.7 503,-978.7 542,-978.7 542,-959.7 503,-959.7"/>
<text text-anchor="start" x="532.8862" y="-965.8" font-family="Helvetica,sans-Serif" font-size="11.00" fill="#000000"> &#160;</text>
<polygon fill="#ffffff" stroke="transparent" points="542,-959.7 542,-978.7 581,-978.7 581,-959.7 542,-959.7"/>
<polygon fill="none" stroke="#000000" points="542,-959.7 542,-978.7 581,-978.7 581,-959.7 542,-959.7"/>
<text text-anchor="start" x="571.8862" y="-965.8" font-family="Helvetica,sans-Serif" font-size="11.00" fill="#000000"> &#160;</text>
</a>
</g>
</g>
<!-- keyworker_entry&#45;&gt;prison_migration_date_history -->
<g id="edge5" class="edge">
<title>keyworker_entry:w&#45;&gt;prison_migration_date_history:e</title>
<path fill="none" stroke="#000000" stroke-dasharray="5,2" d="M414.4049,-987.8412C360.673,-988.7943 330.768,-993.0114 292,-949.7 254.3181,-907.602 307.9992,-698.7 251.5,-698.7"/>
<polygon fill="#000000" stroke="#000000" points="421.0004,-987.7774 429.0349,-991.2998 425.0002,-987.7387 429,-987.7 429,-987.7 429,-987.7 425.0002,-987.7387 428.9651,-984.1002 421.0004,-987.7774 421.0004,-987.7774"/>
<ellipse fill="none" stroke="#000000" cx="417.8005" cy="-987.8084" rx="3.2" ry="3.2"/>
</g>
<!-- keyworker_session -->
<g id="node6" class="node">
<title>keyworker_session</title>
<g id="a_node6"><a xlink:href="../../tables/keyworker_session.html" xlink:title="keyworker_session" target="_top">
<polygon fill="#ffffff" stroke="transparent" points="422,-878.2 422,-939.2 588,-939.2 588,-878.2 422,-878.2"/>
<polygon fill="#f5f5f5" stroke="transparent" points="422,-915.7 422,-938.7 588,-938.7 588,-915.7 422,-915.7"/>
<polygon fill="none" stroke="#000000" points="422,-915.7 422,-938.7 588,-938.7 588,-915.7 422,-915.7"/>
<text text-anchor="start" x="427" y="-924.3" font-family="Helvetica,sans-Serif" font-weight="bold" font-size="11.00" fill="#000000">keyworker_session</text>
<text text-anchor="start" x="553.5219" y="-923.8" font-family="Helvetica,sans-Serif" font-size="11.00" fill="#000000">[table]</text>
<polygon fill="none" stroke="#000000" points="422,-896.7 422,-915.7 588,-915.7 588,-896.7 422,-896.7"/>
<text text-anchor="start" x="425" y="-902.8" font-family="Helvetica,sans-Serif" font-size="11.00" fill="#000000">...</text>
<polygon fill="#ffffff" stroke="transparent" points="422,-877.7 422,-896.7 503,-896.7 503,-877.7 422,-877.7"/>
<polygon fill="none" stroke="#000000" points="422,-877.7 422,-896.7 503,-896.7 503,-877.7 422,-877.7"/>
<text text-anchor="start" x="425" y="-883.8" font-family="Helvetica,sans-Serif" font-size="11.00" fill="#000000">&lt; 1</text>
<polygon fill="#ffffff" stroke="transparent" points="503,-877.7 503,-896.7 545,-896.7 545,-877.7 503,-877.7"/>
<polygon fill="none" stroke="#000000" points="503,-877.7 503,-896.7 545,-896.7 545,-877.7 503,-877.7"/>
<text text-anchor="start" x="535.8862" y="-883.8" font-family="Helvetica,sans-Serif" font-size="11.00" fill="#000000"> &#160;</text>
<polygon fill="#ffffff" stroke="transparent" points="545,-877.7 545,-896.7 588,-896.7 588,-877.7 545,-877.7"/>
<polygon fill="none" stroke="#000000" points="545,-877.7 545,-896.7 588,-896.7 588,-877.7 545,-877.7"/>
<text text-anchor="start" x="578.8862" y="-883.8" font-family="Helvetica,sans-Serif" font-size="11.00" fill="#000000"> &#160;</text>
</a>
</g>
</g>
<!-- keyworker_session&#45;&gt;prison_migration_date_history -->
<g id="edge6" class="edge">
<title>keyworker_session:w&#45;&gt;prison_migration_date_history:e</title>
<path fill="none" stroke="#000000" stroke-dasharray="5,2" d="M407.4818,-905.786C356.9579,-906.2933 330.0196,-907.6367 292,-867.7 238.7439,-811.7584 328.7378,-698.7 251.5,-698.7"/>
<polygon fill="#000000" stroke="#000000" points="414.0001,-905.7474 422.0213,-909.2999 418.0001,-905.7237 422,-905.7 422,-905.7 422,-905.7 418.0001,-905.7237 421.9787,-902.1001 414.0001,-905.7474 414.0001,-905.7474"/>
<ellipse fill="none" stroke="#000000" cx="410.8002" cy="-905.7664" rx="3.2" ry="3.2"/>
</g>
<!-- prison_configuration -->
<g id="node7" class="node">
<title>prison_configuration</title>
<g id="a_node7"><a xlink:href="../../tables/prison_configuration.html" xlink:title="prison_configuration" target="_top">
<polygon fill="#ffffff" stroke="transparent" points="300,-448.7 300,-692.7 710,-692.7 710,-448.7 300,-448.7"/>
<polygon fill="#f5f5f5" stroke="transparent" points="302,-667.7 302,-690.7 708,-690.7 708,-667.7 302,-667.7"/>
<polygon fill="none" stroke="#000000" points="302,-667.7 302,-690.7 708,-690.7 708,-667.7 302,-667.7"/>
<text text-anchor="start" x="307" y="-676.3" font-family="Helvetica,sans-Serif" font-weight="bold" font-size="11.00" fill="#000000">prison_configuration</text>
<text text-anchor="start" x="673.0437" y="-675.8" font-family="Helvetica,sans-Serif" font-size="11.00" fill="#000000">[table]</text>
<polygon fill="#ffffff" stroke="transparent" points="302,-645.7 302,-667.7 614,-667.7 614,-645.7 302,-645.7"/>
<polygon fill="none" stroke="#000000" points="302,-645.7 302,-667.7 614,-667.7 614,-645.7 302,-645.7"/>
<image xlink:href="../../images/foreignKeys.png" width="11px" height="12px" preserveAspectRatio="xMinYMin meet" x="307" y="-662.7"/>
<text text-anchor="start" x="322" y="-652.8" font-family="Helvetica,sans-Serif" font-size="11.00" fill="#000000">prison_code</text>
<polygon fill="none" stroke="#000000" points="614,-645.7 614,-667.7 708,-667.7 708,-645.7 614,-645.7"/>
<text text-anchor="start" x="617" y="-653.4" font-family="Helvetica,sans-Serif" font-size="11.00" fill="#000000">varchar[6]</text>
<polygon fill="none" stroke="#000000" points="302,-623.7 302,-645.7 614,-645.7 614,-623.7 302,-623.7"/>
<text text-anchor="start" x="322" y="-630.8" font-family="Helvetica,sans-Serif" font-size="11.00" fill="#000000">allow_auto_allocation</text>
<polygon fill="none" stroke="#000000" points="614,-623.7 614,-645.7 708,-645.7 708,-623.7 614,-623.7"/>
<text text-anchor="start" x="617" y="-631.4" font-family="Helvetica,sans-Serif" font-size="11.00" fill="#000000">bool[1]</text>
<polygon fill="none" stroke="#000000" points="302,-601.7 302,-623.7 614,-623.7 614,-601.7 302,-601.7"/>
<text text-anchor="start" x="322" y="-608.8" font-family="Helvetica,sans-Serif" font-size="11.00" fill="#000000">is_enabled</text>
<polygon fill="none" stroke="#000000" points="614,-601.7 614,-623.7 708,-623.7 708,-601.7 614,-601.7"/>
<text text-anchor="start" x="617" y="-609.4" font-family="Helvetica,sans-Serif" font-size="11.00" fill="#000000">bool[1]</text>
<polygon fill="none" stroke="#000000" points="302,-579.7 302,-601.7 614,-601.7 614,-579.7 302,-579.7"/>
<text text-anchor="start" x="322" y="-586.8" font-family="Helvetica,sans-Serif" font-size="11.00" fill="#000000">capacity</text>
<polygon fill="none" stroke="#000000" points="614,-579.7 614,-601.7 708,-601.7 708,-579.7 614,-579.7"/>
<text text-anchor="start" x="617" y="-587.4" font-family="Helvetica,sans-Serif" font-size="11.00" fill="#000000">int4[10]</text>
<polygon fill="none" stroke="#000000" points="302,-557.7 302,-579.7 614,-579.7 614,-557.7 302,-557.7"/>
<text text-anchor="start" x="322" y="-564.8" font-family="Helvetica,sans-Serif" font-size="11.00" fill="#000000">maximum_capacity</text>
<polygon fill="none" stroke="#000000" points="614,-557.7 614,-579.7 708,-579.7 708,-557.7 614,-557.7"/>
<text text-anchor="start" x="617" y="-565.4" font-family="Helvetica,sans-Serif" font-size="11.00" fill="#000000">int4[10]</text>
<polygon fill="none" stroke="#000000" points="302,-535.7 302,-557.7 614,-557.7 614,-535.7 302,-535.7"/>
<text text-anchor="start" x="322" y="-542.8" font-family="Helvetica,sans-Serif" font-size="11.00" fill="#000000">frequency_in_weeks</text>
<polygon fill="none" stroke="#000000" points="614,-535.7 614,-557.7 708,-557.7 708,-535.7 614,-535.7"/>
<text text-anchor="start" x="617" y="-543.4" font-family="Helvetica,sans-Serif" font-size="11.00" fill="#000000">int4[10]</text>
<polygon fill="none" stroke="#000000" points="302,-513.7 302,-535.7 614,-535.7 614,-513.7 302,-513.7"/>
<text text-anchor="start" x="322" y="-520.8" font-family="Helvetica,sans-Serif" font-size="11.00" fill="#000000">has_prisoners_with_high_complexity_needs</text>
<polygon fill="none" stroke="#000000" points="614,-513.7 614,-535.7 708,-535.7 708,-513.7 614,-513.7"/>
<text text-anchor="start" x="617" y="-521.4" font-family="Helvetica,sans-Serif" font-size="11.00" fill="#000000">bool[1]</text>
<polygon fill="#ffffff" stroke="transparent" points="302,-491.7 302,-513.7 614,-513.7 614,-491.7 302,-491.7"/>
<polygon fill="none" stroke="#000000" points="302,-491.7 302,-513.7 614,-513.7 614,-491.7 302,-491.7"/>
<image xlink:href="../../images/foreignKeys.png" width="11px" height="12px" preserveAspectRatio="xMinYMin meet" x="307" y="-508.7"/>
<text text-anchor="start" x="322" y="-498.8" font-family="Helvetica,sans-Serif" font-size="11.00" fill="#000000">policy_code</text>
<polygon fill="none" stroke="#000000" points="614,-491.7 614,-513.7 708,-513.7 708,-491.7 614,-491.7"/>
<text text-anchor="start" x="617" y="-499.4" font-family="Helvetica,sans-Serif" font-size="11.00" fill="#000000">varchar[16]</text>
<polygon fill="none" stroke="#000000" points="302,-469.7 302,-491.7 614,-491.7 614,-469.7 302,-469.7"/>
<image xlink:href="../../images/primaryKeys.png" width="11px" height="12px" preserveAspectRatio="xMinYMin meet" x="307" y="-486.7"/>
<text text-anchor="start" x="322" y="-476.8" font-family="Helvetica,sans-Serif" font-size="11.00" fill="#000000">id</text>
<polygon fill="none" stroke="#000000" points="614,-469.7 614,-491.7 708,-491.7 708,-469.7 614,-469.7"/>
<text text-anchor="start" x="616.9758" y="-477.4" font-family="Helvetica,sans-Serif" font-size="11.00" fill="#000000">uuid[2147483647]</text>
<polygon fill="#ffffff" stroke="transparent" points="302,-450.7 302,-469.7 446,-469.7 446,-450.7 302,-450.7"/>
<polygon fill="none" stroke="#000000" points="302,-450.7 302,-469.7 446,-469.7 446,-450.7 302,-450.7"/>
<text text-anchor="start" x="305" y="-456.8" font-family="Helvetica,sans-Serif" font-size="11.00" fill="#000000">&lt; 2</text>
<polygon fill="#ffffff" stroke="transparent" points="446,-450.7 446,-469.7 614,-469.7 614,-450.7 446,-450.7"/>
<polygon fill="none" stroke="#000000" points="446,-450.7 446,-469.7 614,-469.7 614,-450.7 446,-450.7"/>
<text text-anchor="start" x="572.4956" y="-456.8" font-family="Helvetica,sans-Serif" font-size="11.00" fill="#000000">12 rows</text>
<polygon fill="#ffffff" stroke="transparent" points="614,-450.7 614,-469.7 708,-469.7 708,-450.7 614,-450.7"/>
<polygon fill="none" stroke="#000000" points="614,-450.7 614,-469.7 708,-469.7 708,-450.7 614,-450.7"/>
<text text-anchor="start" x="689.4053" y="-456.8" font-family="Helvetica,sans-Serif" font-size="11.00" fill="#000000">0 &gt;</text>
<polygon fill="none" stroke="#000000" stroke-width="2" points="301,-449.7 301,-691.7 709,-691.7 709,-449.7 301,-449.7"/>
</a>
</g>
</g>
<!-- prison_configuration&#45;&gt;policy -->
<g id="edge7" class="edge">
<title>prison_configuration:w&#45;&gt;policy:e</title>
<path fill="none" stroke="#000000" d="M287.3309,-501.0154C221.2665,-484.5359 259.4581,-352.7 178.5,-352.7"/>
<polygon fill="#000000" stroke="#000000" points="294.0522,-501.7872 301.5893,-506.2765 298.0261,-502.2436 302,-502.7 302,-502.7 302,-502.7 298.0261,-502.2436 302.4107,-499.1235 294.0522,-501.7872 294.0522,-501.7872"/>
<ellipse fill="none" stroke="#000000" cx="290.8731" cy="-501.4221" rx="3.2" ry="3.2"/>
</g>
<!-- prison_configuration&#45;&gt;prison_migration_date_history -->
<g id="edge8" class="edge">
<title>prison_configuration:w&#45;&gt;prison_migration_date_history:e</title>
<path fill="none" stroke="#000000" stroke-dasharray="5,2" d="M288.1788,-661.1947C274.481,-672.0296 274.7627,-698.7 251.5,-698.7"/>
<polygon fill="#000000" stroke="#000000" points="294.3922,-659.1741 303.1134,-660.1235 298.1961,-657.9371 302,-656.7 302,-656.7 302,-656.7 298.1961,-657.9371 300.8866,-653.2765 294.3922,-659.1741 294.3922,-659.1741"/>
<ellipse fill="none" stroke="#000000" cx="291.3491" cy="-660.1638" rx="3.2" ry="3.2"/>
</g>
<!-- prison_configuration_audit -->
<g id="node8" class="node">
<title>prison_configuration_audit</title>
<g id="a_node8"><a xlink:href="../../tables/prison_configuration_audit.html" xlink:title="prison_configuration_audit" target="_top">
<polygon fill="#ffffff" stroke="transparent" points="395.5,-366.2 395.5,-427.2 614.5,-427.2 614.5,-366.2 395.5,-366.2"/>
<polygon fill="#f5f5f5" stroke="transparent" points="396,-403.7 396,-426.7 615,-426.7 615,-403.7 396,-403.7"/>
<polygon fill="none" stroke="#000000" points="396,-403.7 396,-426.7 615,-426.7 615,-403.7 396,-403.7"/>
<text text-anchor="start" x="401" y="-412.3" font-family="Helvetica,sans-Serif" font-weight="bold" font-size="11.00" fill="#000000">prison_configuration_audit</text>
<text text-anchor="start" x="580.5219" y="-411.8" font-family="Helvetica,sans-Serif" font-size="11.00" fill="#000000">[table]</text>
<polygon fill="none" stroke="#000000" points="396,-384.7 396,-403.7 615,-403.7 615,-384.7 396,-384.7"/>
<text text-anchor="start" x="399" y="-390.8" font-family="Helvetica,sans-Serif" font-size="11.00" fill="#000000">...</text>
<polygon fill="#ffffff" stroke="transparent" points="396,-365.7 396,-384.7 504,-384.7 504,-365.7 396,-365.7"/>
<polygon fill="none" stroke="#000000" points="396,-365.7 396,-384.7 504,-384.7 504,-365.7 396,-365.7"/>
<text text-anchor="start" x="399" y="-371.8" font-family="Helvetica,sans-Serif" font-size="11.00" fill="#000000">&lt; 3</text>
<polygon fill="#ffffff" stroke="transparent" points="504,-365.7 504,-384.7 559,-384.7 559,-365.7 504,-365.7"/>
<polygon fill="none" stroke="#000000" points="504,-365.7 504,-384.7 559,-384.7 559,-365.7 504,-365.7"/>
<text text-anchor="start" x="549.8862" y="-371.8" font-family="Helvetica,sans-Serif" font-size="11.00" fill="#000000"> &#160;</text>
<polygon fill="#ffffff" stroke="transparent" points="559,-365.7 559,-384.7 615,-384.7 615,-365.7 559,-365.7"/>
<polygon fill="none" stroke="#000000" points="559,-365.7 559,-384.7 615,-384.7 615,-365.7 559,-365.7"/>
<text text-anchor="start" x="605.8862" y="-371.8" font-family="Helvetica,sans-Serif" font-size="11.00" fill="#000000"> &#160;</text>
</a>
</g>
</g>
<!-- prison_configuration_audit&#45;&gt;policy -->
<g id="edge9" class="edge">
<title>prison_configuration_audit:w&#45;&gt;policy:e</title>
<path fill="none" stroke="#000000" stroke-dasharray="5,2" d="M381.5941,-393.3936C295.3221,-389.6417 271.8739,-352.7 178.5,-352.7"/>
<polygon fill="#000000" stroke="#000000" points="388.0018,-393.5298 395.9234,-397.2992 392.0009,-393.6149 396,-393.7 396,-393.7 396,-393.7 392.0009,-393.6149 396.0766,-390.1008 388.0018,-393.5298 388.0018,-393.5298"/>
<ellipse fill="none" stroke="#000000" cx="384.8025" cy="-393.4617" rx="3.2" ry="3.2"/>
</g>
<!-- prison_configuration_audit&#45;&gt;prison_migration_date_history -->
<g id="edge10" class="edge">
<title>prison_configuration_audit:w&#45;&gt;prison_migration_date_history:e</title>
<path fill="none" stroke="#000000" stroke-dasharray="5,2" d="M381.47,-393.8908C340.9189,-395.107 319.6882,-402.9118 292,-438.7 256.2186,-484.9489 309.9745,-698.7 251.5,-698.7"/>
<polygon fill="#000000" stroke="#000000" points="388.0007,-393.8051 396.0473,-397.2997 392.0003,-393.7525 396,-393.7 396,-393.7 396,-393.7 392.0003,-393.7525 395.9527,-390.1003 388.0007,-393.8051 388.0007,-393.8051"/>
<ellipse fill="none" stroke="#000000" cx="384.801" cy="-393.8471" rx="3.2" ry="3.2"/>
</g>
<!-- staff_configuration -->
<g id="node9" class="node">
<title>staff_configuration</title>
<g id="a_node9"><a xlink:href="../../tables/staff_configuration.html" xlink:title="staff_configuration" target="_top">
<polygon fill="#ffffff" stroke="transparent" points="421.5,-120.2 421.5,-181.2 588.5,-181.2 588.5,-120.2 421.5,-120.2"/>
<polygon fill="#f5f5f5" stroke="transparent" points="422,-157.7 422,-180.7 589,-180.7 589,-157.7 422,-157.7"/>
<polygon fill="none" stroke="#000000" points="422,-157.7 422,-180.7 589,-180.7 589,-157.7 422,-157.7"/>
<text text-anchor="start" x="427" y="-166.3" font-family="Helvetica,sans-Serif" font-weight="bold" font-size="11.00" fill="#000000">staff_configuration</text>
<text text-anchor="start" x="554.5219" y="-165.8" font-family="Helvetica,sans-Serif" font-size="11.00" fill="#000000">[table]</text>
<polygon fill="none" stroke="#000000" points="422,-138.7 422,-157.7 589,-157.7 589,-138.7 422,-138.7"/>
<text text-anchor="start" x="425" y="-144.8" font-family="Helvetica,sans-Serif" font-size="11.00" fill="#000000">...</text>
<polygon fill="#ffffff" stroke="transparent" points="422,-119.7 422,-138.7 504,-138.7 504,-119.7 422,-119.7"/>
<polygon fill="none" stroke="#000000" points="422,-119.7 422,-138.7 504,-138.7 504,-119.7 422,-119.7"/>
<text text-anchor="start" x="425" y="-125.8" font-family="Helvetica,sans-Serif" font-size="11.00" fill="#000000">&lt; 2</text>
<polygon fill="#ffffff" stroke="transparent" points="504,-119.7 504,-138.7 546,-138.7 546,-119.7 504,-119.7"/>
<polygon fill="none" stroke="#000000" points="504,-119.7 504,-138.7 546,-138.7 546,-119.7 504,-119.7"/>
<text text-anchor="start" x="536.8862" y="-125.8" font-family="Helvetica,sans-Serif" font-size="11.00" fill="#000000"> &#160;</text>
<polygon fill="#ffffff" stroke="transparent" points="546,-119.7 546,-138.7 589,-138.7 589,-119.7 546,-119.7"/>
<polygon fill="none" stroke="#000000" points="546,-119.7 546,-138.7 589,-138.7 589,-119.7 546,-119.7"/>
<text text-anchor="start" x="579.8862" y="-125.8" font-family="Helvetica,sans-Serif" font-size="11.00" fill="#000000"> &#160;</text>
</a>
</g>
</g>
<!-- staff_configuration&#45;&gt;policy -->
<g id="edge11" class="edge">
<title>staff_configuration:w&#45;&gt;policy:e</title>
<path fill="none" stroke="#000000" d="M407.455,-147.8714C357.4181,-149.1638 336.765,-158.2624 292,-191.7 221.8584,-244.0928 266.0491,-352.7 178.5,-352.7"/>
<polygon fill="#000000" stroke="#000000" points="414.0006,-147.7943 422.0424,-151.2998 418.0003,-147.7472 422,-147.7 422,-147.7 422,-147.7 418.0003,-147.7472 421.9576,-144.1002 414.0006,-147.7943 414.0006,-147.7943"/>
<ellipse fill="none" stroke="#000000" cx="410.8008" cy="-147.832" rx="3.2" ry="3.2"/>
</g>
<!-- staff_configuration_audit -->
<g id="node10" class="node">
<title>staff_configuration_audit</title>
<g id="a_node10"><a xlink:href="../../tables/staff_configuration_audit.html" xlink:title="staff_configuration_audit" target="_top">
<polygon fill="#ffffff" stroke="transparent" points="401,-38.2 401,-99.2 609,-99.2 609,-38.2 401,-38.2"/>
<polygon fill="#f5f5f5" stroke="transparent" points="401,-75.7 401,-98.7 609,-98.7 609,-75.7 401,-75.7"/>
<polygon fill="none" stroke="#000000" points="401,-75.7 401,-98.7 609,-98.7 609,-75.7 401,-75.7"/>
<text text-anchor="start" x="406" y="-84.3" font-family="Helvetica,sans-Serif" font-weight="bold" font-size="11.00" fill="#000000">staff_configuration_audit</text>
<text text-anchor="start" x="574.5219" y="-83.8" font-family="Helvetica,sans-Serif" font-size="11.00" fill="#000000">[table]</text>
<polygon fill="none" stroke="#000000" points="401,-56.7 401,-75.7 609,-75.7 609,-56.7 401,-56.7"/>
<text text-anchor="start" x="404" y="-62.8" font-family="Helvetica,sans-Serif" font-size="11.00" fill="#000000">...</text>
<polygon fill="#ffffff" stroke="transparent" points="401,-37.7 401,-56.7 503,-56.7 503,-37.7 401,-37.7"/>
<polygon fill="none" stroke="#000000" points="401,-37.7 401,-56.7 503,-56.7 503,-37.7 401,-37.7"/>
<text text-anchor="start" x="404" y="-43.8" font-family="Helvetica,sans-Serif" font-size="11.00" fill="#000000">&lt; 2</text>
<polygon fill="#ffffff" stroke="transparent" points="503,-37.7 503,-56.7 556,-56.7 556,-37.7 503,-37.7"/>
<polygon fill="none" stroke="#000000" points="503,-37.7 503,-56.7 556,-56.7 556,-37.7 503,-37.7"/>
<text text-anchor="start" x="546.8862" y="-43.8" font-family="Helvetica,sans-Serif" font-size="11.00" fill="#000000"> &#160;</text>
<polygon fill="#ffffff" stroke="transparent" points="556,-37.7 556,-56.7 609,-56.7 609,-37.7 556,-37.7"/>
<polygon fill="none" stroke="#000000" points="556,-37.7 556,-56.7 609,-56.7 609,-37.7 556,-37.7"/>
<text text-anchor="start" x="599.8862" y="-43.8" font-family="Helvetica,sans-Serif" font-size="11.00" fill="#000000"> &#160;</text>
</a>
</g>
</g>
<!-- staff_configuration_audit&#45;&gt;policy -->
<g id="edge12" class="edge">
<title>staff_configuration_audit:w&#45;&gt;policy:e</title>
<path fill="none" stroke="#000000" stroke-dasharray="5,2" d="M386.6012,-65.949C344.8949,-67.5395 326.2099,-77.2665 292,-109.7 205.4968,-191.7113 297.7,-352.7 178.5,-352.7"/>
<polygon fill="#000000" stroke="#000000" points="393.0012,-65.8384 401.0623,-69.2995 397.0006,-65.7692 401,-65.7 401,-65.7 401,-65.7 397.0006,-65.7692 400.9377,-62.1005 393.0012,-65.8384 393.0012,-65.8384"/>
<ellipse fill="none" stroke="#000000" cx="389.8017" cy="-65.8937" rx="3.2" ry="3.2"/>
</g>
<!-- staff_role -->
<g id="node11" class="node">
<title>staff_role</title>
<g id="a_node11"><a xlink:href="../../tables/staff_role.html" xlink:title="staff_role" target="_top">
<polygon fill="#ffffff" stroke="transparent" points="454,-284.2 454,-345.2 556,-345.2 556,-284.2 454,-284.2"/>
<polygon fill="#f5f5f5" stroke="transparent" points="454,-321.7 454,-344.7 556,-344.7 556,-321.7 454,-321.7"/>
<polygon fill="none" stroke="#000000" points="454,-321.7 454,-344.7 556,-344.7 556,-321.7 454,-321.7"/>
<text text-anchor="start" x="459" y="-330.3" font-family="Helvetica,sans-Serif" font-weight="bold" font-size="11.00" fill="#000000">staff_role</text>
<text text-anchor="start" x="521.5219" y="-329.8" font-family="Helvetica,sans-Serif" font-size="11.00" fill="#000000">[table]</text>
<polygon fill="none" stroke="#000000" points="454,-302.7 454,-321.7 556,-321.7 556,-302.7 454,-302.7"/>
<text text-anchor="start" x="457" y="-308.8" font-family="Helvetica,sans-Serif" font-size="11.00" fill="#000000">...</text>
<polygon fill="#ffffff" stroke="transparent" points="454,-283.7 454,-302.7 503,-302.7 503,-283.7 454,-283.7"/>
<polygon fill="none" stroke="#000000" points="454,-283.7 454,-302.7 503,-302.7 503,-283.7 454,-283.7"/>
<text text-anchor="start" x="457" y="-289.8" font-family="Helvetica,sans-Serif" font-size="11.00" fill="#000000">&lt; 2</text>
<polygon fill="#ffffff" stroke="transparent" points="503,-283.7 503,-302.7 529,-302.7 529,-283.7 503,-283.7"/>
<polygon fill="none" stroke="#000000" points="503,-283.7 503,-302.7 529,-302.7 529,-283.7 503,-283.7"/>
<text text-anchor="start" x="519.8862" y="-289.8" font-family="Helvetica,sans-Serif" font-size="11.00" fill="#000000"> &#160;</text>
<polygon fill="#ffffff" stroke="transparent" points="529,-283.7 529,-302.7 556,-302.7 556,-283.7 529,-283.7"/>
<polygon fill="none" stroke="#000000" points="529,-283.7 529,-302.7 556,-302.7 556,-283.7 529,-283.7"/>
<text text-anchor="start" x="546.8862" y="-289.8" font-family="Helvetica,sans-Serif" font-size="11.00" fill="#000000"> &#160;</text>
</a>
</g>
</g>
<!-- staff_role&#45;&gt;policy -->
<g id="edge13" class="edge">
<title>staff_role:w&#45;&gt;policy:e</title>
<path fill="none" stroke="#000000" stroke-dasharray="5,2" d="M439.5791,-311.8919C327.818,-314.9175 297.3364,-352.7 178.5,-352.7"/>
<polygon fill="#000000" stroke="#000000" points="446.0007,-311.8065 454.0479,-315.2997 450.0004,-311.7533 454,-311.7 454,-311.7 454,-311.7 450.0004,-311.7533 453.9521,-308.1003 446.0007,-311.8065 446.0007,-311.8065"/>
<ellipse fill="none" stroke="#000000" cx="442.801" cy="-311.8491" rx="3.2" ry="3.2"/>
</g>
<!-- staff_role&#45;&gt;prison_migration_date_history -->
<g id="edge14" class="edge">
<title>staff_role:w&#45;&gt;prison_migration_date_history:e</title>
<path fill="none" stroke="#000000" stroke-dasharray="5,2" d="M439.5986,-311.5584C374.2112,-310.3436 337.4852,-302.948 292,-355.7 241.8799,-413.8274 328.2517,-698.7 251.5,-698.7"/>
<polygon fill="#000000" stroke="#000000" points="446.0004,-311.6213 453.9646,-315.2998 450.0002,-311.6607 454,-311.7 454,-311.7 454,-311.7 450.0002,-311.6607 454.0354,-308.1002 446.0004,-311.6213 446.0004,-311.6213"/>
<ellipse fill="none" stroke="#000000" cx="442.8005" cy="-311.5898" rx="3.2" ry="3.2"/>
</g>
<!-- staff_role_audit -->
<g id="node12" class="node">
<title>staff_role_audit</title>
<g id="a_node12"><a xlink:href="../../tables/staff_role_audit.html" xlink:title="staff_role_audit" target="_top">
<polygon fill="#ffffff" stroke="transparent" points="433.5,-202.2 433.5,-263.2 576.5,-263.2 576.5,-202.2 433.5,-202.2"/>
<polygon fill="#f5f5f5" stroke="transparent" points="434,-239.7 434,-262.7 577,-262.7 577,-239.7 434,-239.7"/>
<polygon fill="none" stroke="#000000" points="434,-239.7 434,-262.7 577,-262.7 577,-239.7 434,-239.7"/>
<text text-anchor="start" x="439" y="-248.3" font-family="Helvetica,sans-Serif" font-weight="bold" font-size="11.00" fill="#000000">staff_role_audit</text>
<text text-anchor="start" x="542.5219" y="-247.8" font-family="Helvetica,sans-Serif" font-size="11.00" fill="#000000">[table]</text>
<polygon fill="none" stroke="#000000" points="434,-220.7 434,-239.7 577,-239.7 577,-220.7 434,-220.7"/>
<text text-anchor="start" x="437" y="-226.8" font-family="Helvetica,sans-Serif" font-size="11.00" fill="#000000">...</text>
<polygon fill="#ffffff" stroke="transparent" points="434,-201.7 434,-220.7 504,-220.7 504,-201.7 434,-201.7"/>
<polygon fill="none" stroke="#000000" points="434,-201.7 434,-220.7 504,-220.7 504,-201.7 434,-201.7"/>
<text text-anchor="start" x="437" y="-207.8" font-family="Helvetica,sans-Serif" font-size="11.00" fill="#000000">&lt; 3</text>
<polygon fill="#ffffff" stroke="transparent" points="504,-201.7 504,-220.7 540,-220.7 540,-201.7 504,-201.7"/>
<polygon fill="none" stroke="#000000" points="504,-201.7 504,-220.7 540,-220.7 540,-201.7 504,-201.7"/>
<text text-anchor="start" x="530.8862" y="-207.8" font-family="Helvetica,sans-Serif" font-size="11.00" fill="#000000"> &#160;</text>
<polygon fill="#ffffff" stroke="transparent" points="540,-201.7 540,-220.7 577,-220.7 577,-201.7 540,-201.7"/>
<polygon fill="none" stroke="#000000" points="540,-201.7 540,-220.7 577,-220.7 577,-201.7 540,-201.7"/>
<text text-anchor="start" x="567.8862" y="-207.8" font-family="Helvetica,sans-Serif" font-size="11.00" fill="#000000"> &#160;</text>
</a>
</g>
</g>
<!-- staff_role_audit&#45;&gt;policy -->
<g id="edge15" class="edge">
<title>staff_role_audit:w&#45;&gt;policy:e</title>
<path fill="none" stroke="#000000" stroke-dasharray="5,2" d="M419.3771,-229.9743C365.0801,-232.1303 346.7323,-246.9726 292,-273.7 236.7724,-300.6693 239.9608,-352.7 178.5,-352.7"/>
<polygon fill="#000000" stroke="#000000" points="426.0014,-229.8501 434.0675,-233.2994 430.0007,-229.775 434,-229.7 434,-229.7 434,-229.7 430.0007,-229.775 433.9325,-226.1006 426.0014,-229.8501 426.0014,-229.8501"/>
<ellipse fill="none" stroke="#000000" cx="422.802" cy="-229.9101" rx="3.2" ry="3.2"/>
</g>
<!-- staff_role_audit&#45;&gt;prison_migration_date_history -->
<g id="edge16" class="edge">
<title>staff_role_audit:w&#45;&gt;prison_migration_date_history:e</title>
<path fill="none" stroke="#000000" stroke-dasharray="5,2" d="M419.4383,-229.6026C362.6682,-228.9329 330.5069,-226.3404 292,-273.7 232.1487,-347.311 346.3723,-698.7 251.5,-698.7"/>
<polygon fill="#000000" stroke="#000000" points="426.0002,-229.6465 433.9759,-233.2999 430.0001,-229.6732 434,-229.7 434,-229.7 434,-229.7 430.0001,-229.6732 434.0241,-226.1001 426.0002,-229.6465 426.0002,-229.6465"/>
<ellipse fill="none" stroke="#000000" cx="422.8003" cy="-229.625" rx="3.2" ry="3.2"/>
</g>
</g>
</svg>
