<?xml version="1.0" encoding="UTF-8" standalone="no"?>
<!DOCTYPE svg PUBLIC "-//W3C//DTD SVG 1.1//EN"
 "http://www.w3.org/Graphics/SVG/1.1/DTD/svg11.dtd">
<!-- Generated by graphviz version 2.40.1 (20161225.0304)
 -->
<!-- Title: twoDegreesRelationshipsDiagramImplied Pages: 1 -->
<svg width="740pt" height="1350pt"
 viewBox="0.00 0.00 740.00 1350.20" xmlns="http://www.w3.org/2000/svg" xmlns:xlink="http://www.w3.org/1999/xlink">
<g id="graph0" class="graph" transform="scale(1 1) rotate(0) translate(4 1346.2)">
<title>twoDegreesRelationshipsDiagramImplied</title>
<polygon fill="#ffffff" stroke="transparent" points="-4,4 -4,-1346.2 736,-1346.2 736,4 -4,4"/>
<text text-anchor="middle" x="72.4936" y="-7.3" font-family="Helvetica,sans-Serif" font-size="11.00" fill="#000000">Generated by SchemaSpy</text>
<!-- allocation -->
<g id="node1" class="node">
<title>allocation</title>
<g id="a_node1"><a xlink:href="../../tables/allocation.html" xlink:title="allocation" target="_top">
<polygon fill="#ffffff" stroke="transparent" points="274.5,-1277.2 274.5,-1338.2 379.5,-1338.2 379.5,-1277.2 274.5,-1277.2"/>
<polygon fill="#f5f5f5" stroke="transparent" points="275,-1314.7 275,-1337.7 380,-1337.7 380,-1314.7 275,-1314.7"/>
<polygon fill="none" stroke="#000000" points="275,-1314.7 275,-1337.7 380,-1337.7 380,-1314.7 275,-1314.7"/>
<text text-anchor="start" x="280" y="-1323.3" font-family="Helvetica,sans-Serif" font-weight="bold" font-size="11.00" fill="#000000">allocation</text>
<text text-anchor="start" x="345.5219" y="-1322.8" font-family="Helvetica,sans-Serif" font-size="11.00" fill="#000000">[table]</text>
<polygon fill="none" stroke="#000000" points="275,-1295.7 275,-1314.7 380,-1314.7 380,-1295.7 275,-1295.7"/>
<text text-anchor="start" x="278" y="-1301.8" font-family="Helvetica,sans-Serif" font-size="11.00" fill="#000000">...</text>
<polygon fill="#ffffff" stroke="transparent" points="275,-1276.7 275,-1295.7 326,-1295.7 326,-1276.7 275,-1276.7"/>
<polygon fill="none" stroke="#000000" points="275,-1276.7 275,-1295.7 326,-1295.7 326,-1276.7 275,-1276.7"/>
<text text-anchor="start" x="278" y="-1282.8" font-family="Helvetica,sans-Serif" font-size="11.00" fill="#000000">&lt; 3</text>
<polygon fill="#ffffff" stroke="transparent" points="326,-1276.7 326,-1295.7 353,-1295.7 353,-1276.7 326,-1276.7"/>
<polygon fill="none" stroke="#000000" points="326,-1276.7 326,-1295.7 353,-1295.7 353,-1276.7 326,-1276.7"/>
<text text-anchor="start" x="343.8862" y="-1282.8" font-family="Helvetica,sans-Serif" font-size="11.00" fill="#000000"> &#160;</text>
<polygon fill="#ffffff" stroke="transparent" points="353,-1276.7 353,-1295.7 380,-1295.7 380,-1276.7 353,-1276.7"/>
<polygon fill="none" stroke="#000000" points="353,-1276.7 353,-1295.7 380,-1295.7 380,-1276.7 353,-1276.7"/>
<text text-anchor="start" x="370.8862" y="-1282.8" font-family="Helvetica,sans-Serif" font-size="11.00" fill="#000000"> &#160;</text>
</a>
</g>
</g>
<!-- policy -->
<g id="node2" class="node">
<title>policy</title>
<g id="a_node2"><a xlink:href="../../tables/policy.html" xlink:title="policy" target="_top">
<polygon fill="#ffffff" stroke="transparent" points="8,-570.2 8,-631.2 86,-631.2 86,-570.2 8,-570.2"/>
<polygon fill="#f5f5f5" stroke="transparent" points="8,-607.7 8,-630.7 86,-630.7 86,-607.7 8,-607.7"/>
<polygon fill="none" stroke="#000000" points="8,-607.7 8,-630.7 86,-630.7 86,-607.7 8,-607.7"/>
<text text-anchor="start" x="13" y="-616.3" font-family="Helvetica,sans-Serif" font-weight="bold" font-size="11.00" fill="#000000">policy</text>
<text text-anchor="start" x="51.5219" y="-615.8" font-family="Helvetica,sans-Serif" font-size="11.00" fill="#000000">[table]</text>
<polygon fill="none" stroke="#000000" points="8,-588.7 8,-607.7 86,-607.7 86,-588.7 8,-588.7"/>
<text text-anchor="start" x="11" y="-594.8" font-family="Helvetica,sans-Serif" font-size="11.00" fill="#000000">...</text>
<polygon fill="#ffffff" stroke="transparent" points="8,-569.7 8,-588.7 33,-588.7 33,-569.7 8,-569.7"/>
<polygon fill="none" stroke="#000000" points="8,-569.7 8,-588.7 33,-588.7 33,-569.7 8,-569.7"/>
<text text-anchor="start" x="11" y="-575.8" font-family="Helvetica,sans-Serif" font-size="11.00" fill="#000000"> &#160;</text>
<polygon fill="#ffffff" stroke="transparent" points="33,-569.7 33,-588.7 52,-588.7 52,-569.7 33,-569.7"/>
<polygon fill="none" stroke="#000000" points="33,-569.7 33,-588.7 52,-588.7 52,-569.7 33,-569.7"/>
<text text-anchor="start" x="42.8862" y="-575.8" font-family="Helvetica,sans-Serif" font-size="11.00" fill="#000000"> &#160;</text>
<polygon fill="#ffffff" stroke="transparent" points="52,-569.7 52,-588.7 86,-588.7 86,-569.7 52,-569.7"/>
<polygon fill="none" stroke="#000000" points="52,-569.7 52,-588.7 86,-588.7 86,-569.7 52,-569.7"/>
<text text-anchor="start" x="61.2904" y="-575.8" font-family="Helvetica,sans-Serif" font-size="11.00" fill="#000000">14 &gt;</text>
</a>
</g>
</g>
<!-- allocation&#45;&gt;policy -->
<g id="edge1" class="edge">
<title>allocation:w&#45;&gt;policy:e</title>
<path fill="none" stroke="#000000" d="M260.4003,-1304.8845C201.7919,-1306.2879 168.4329,-1313.9872 127,-1266.7 84.9814,-1218.7444 56.3079,-765.4412 48.8971,-635.41"/>
<polygon fill="#000000" stroke="#000000" points="267.0006,-1304.8012 275.0455,-1308.2997 271.0003,-1304.7506 275,-1304.7 275,-1304.7 275,-1304.7 271.0003,-1304.7506 274.9545,-1301.1003 267.0006,-1304.8012 267.0006,-1304.8012"/>
<ellipse fill="none" stroke="#000000" cx="263.8009" cy="-1304.8416" rx="3.2" ry="3.2"/>
</g>
<!-- allocation_audit -->
<g id="node3" class="node">
<title>allocation_audit</title>
<g id="a_node3"><a xlink:href="../../tables/allocation_audit.html" xlink:title="allocation_audit" target="_top">
<polygon fill="#ffffff" stroke="transparent" points="254,-1195.2 254,-1256.2 400,-1256.2 400,-1195.2 254,-1195.2"/>
<polygon fill="#f5f5f5" stroke="transparent" points="254,-1232.7 254,-1255.7 400,-1255.7 400,-1232.7 254,-1232.7"/>
<polygon fill="none" stroke="#000000" points="254,-1232.7 254,-1255.7 400,-1255.7 400,-1232.7 254,-1232.7"/>
<text text-anchor="start" x="259" y="-1241.3" font-family="Helvetica,sans-Serif" font-weight="bold" font-size="11.00" fill="#000000">allocation_audit</text>
<text text-anchor="start" x="365.5219" y="-1240.8" font-family="Helvetica,sans-Serif" font-size="11.00" fill="#000000">[table]</text>
<polygon fill="none" stroke="#000000" points="254,-1213.7 254,-1232.7 400,-1232.7 400,-1213.7 254,-1213.7"/>
<text text-anchor="start" x="257" y="-1219.8" font-family="Helvetica,sans-Serif" font-size="11.00" fill="#000000">...</text>
<polygon fill="#ffffff" stroke="transparent" points="254,-1194.7 254,-1213.7 325,-1213.7 325,-1194.7 254,-1194.7"/>
<polygon fill="none" stroke="#000000" points="254,-1194.7 254,-1213.7 325,-1213.7 325,-1194.7 254,-1194.7"/>
<text text-anchor="start" x="257" y="-1200.8" font-family="Helvetica,sans-Serif" font-size="11.00" fill="#000000">&lt; 2</text>
<polygon fill="#ffffff" stroke="transparent" points="325,-1194.7 325,-1213.7 362,-1213.7 362,-1194.7 325,-1194.7"/>
<polygon fill="none" stroke="#000000" points="325,-1194.7 325,-1213.7 362,-1213.7 362,-1194.7 325,-1194.7"/>
<text text-anchor="start" x="352.8862" y="-1200.8" font-family="Helvetica,sans-Serif" font-size="11.00" fill="#000000"> &#160;</text>
<polygon fill="#ffffff" stroke="transparent" points="362,-1194.7 362,-1213.7 400,-1213.7 400,-1194.7 362,-1194.7"/>
<polygon fill="none" stroke="#000000" points="362,-1194.7 362,-1213.7 400,-1213.7 400,-1194.7 362,-1194.7"/>
<text text-anchor="start" x="390.8862" y="-1200.8" font-family="Helvetica,sans-Serif" font-size="11.00" fill="#000000"> &#160;</text>
</a>
</g>
</g>
<!-- allocation_audit&#45;&gt;policy -->
<g id="edge2" class="edge">
<title>allocation_audit:w&#45;&gt;policy:e</title>
<path fill="none" stroke="#000000" stroke-dasharray="5,2" d="M239.4324,-1222.8126C189.9042,-1223.4803 162.0261,-1225.6073 127,-1184.7 91.0169,-1142.675 58.7405,-754.9285 49.5847,-635.5282"/>
<polygon fill="#000000" stroke="#000000" points="246.0002,-1222.7619 254.0279,-1226.2999 250.0001,-1222.731 254,-1222.7 254,-1222.7 254,-1222.7 250.0001,-1222.731 253.9721,-1219.1001 246.0002,-1222.7619 246.0002,-1222.7619"/>
<ellipse fill="none" stroke="#000000" cx="242.8003" cy="-1222.7867" rx="3.2" ry="3.2"/>
</g>
<!-- case_note_type_recorded_event_type -->
<g id="node4" class="node">
<title>case_note_type_recorded_event_type</title>
<g id="a_node4"><a xlink:href="../../tables/case_note_type_recorded_event_type.html" xlink:title="case_note_type_recorded_event_type" target="_top">
<polygon fill="#ffffff" stroke="transparent" points="182.5,-1113.2 182.5,-1174.2 471.5,-1174.2 471.5,-1113.2 182.5,-1113.2"/>
<polygon fill="#f5f5f5" stroke="transparent" points="183,-1150.7 183,-1173.7 472,-1173.7 472,-1150.7 183,-1150.7"/>
<polygon fill="none" stroke="#000000" points="183,-1150.7 183,-1173.7 472,-1173.7 472,-1150.7 183,-1150.7"/>
<text text-anchor="start" x="188" y="-1159.3" font-family="Helvetica,sans-Serif" font-weight="bold" font-size="11.00" fill="#000000">case_note_type_recorded_event_type</text>
<text text-anchor="start" x="437.5219" y="-1158.8" font-family="Helvetica,sans-Serif" font-size="11.00" fill="#000000">[table]</text>
<polygon fill="none" stroke="#000000" points="183,-1131.7 183,-1150.7 472,-1150.7 472,-1131.7 183,-1131.7"/>
<text text-anchor="start" x="186" y="-1137.8" font-family="Helvetica,sans-Serif" font-size="11.00" fill="#000000">...</text>
<polygon fill="#ffffff" stroke="transparent" points="183,-1112.7 183,-1131.7 326,-1131.7 326,-1112.7 183,-1112.7"/>
<polygon fill="none" stroke="#000000" points="183,-1112.7 183,-1131.7 326,-1131.7 326,-1112.7 183,-1112.7"/>
<text text-anchor="start" x="186" y="-1118.8" font-family="Helvetica,sans-Serif" font-size="11.00" fill="#000000">&lt; 1</text>
<polygon fill="#ffffff" stroke="transparent" points="326,-1112.7 326,-1131.7 399,-1131.7 399,-1112.7 326,-1112.7"/>
<polygon fill="none" stroke="#000000" points="326,-1112.7 326,-1131.7 399,-1131.7 399,-1112.7 326,-1112.7"/>
<text text-anchor="start" x="389.8862" y="-1118.8" font-family="Helvetica,sans-Serif" font-size="11.00" fill="#000000"> &#160;</text>
<polygon fill="#ffffff" stroke="transparent" points="399,-1112.7 399,-1131.7 472,-1131.7 472,-1112.7 399,-1112.7"/>
<polygon fill="none" stroke="#000000" points="399,-1112.7 399,-1131.7 472,-1131.7 472,-1112.7 399,-1112.7"/>
<text text-anchor="start" x="462.8862" y="-1118.8" font-family="Helvetica,sans-Serif" font-size="11.00" fill="#000000"> &#160;</text>
</a>
</g>
</g>
<!-- case_note_type_recorded_event_type&#45;&gt;policy -->
<g id="edge3" class="edge">
<title>case_note_type_recorded_event_type:w&#45;&gt;policy:e</title>
<path fill="none" stroke="#000000" stroke-dasharray="5,2" d="M168.5972,-1139.477C149.2006,-1135.7534 140.2379,-1123.5215 127,-1102.7 77.1643,-1024.3152 55.1953,-735.424 48.9603,-635.2084"/>
<polygon fill="#000000" stroke="#000000" points="175.0287,-1140.0231 182.6954,-1144.2871 179.0143,-1140.3615 183,-1140.7 183,-1140.7 183,-1140.7 179.0143,-1140.3615 183.3046,-1137.1129 175.0287,-1140.0231 175.0287,-1140.0231"/>
<ellipse fill="none" stroke="#000000" cx="171.8402" cy="-1139.7523" rx="3.2" ry="3.2"/>
</g>
<!-- prison_configuration -->
<g id="node5" class="node">
<title>prison_configuration</title>
<g id="a_node5"><a xlink:href="../../tables/prison_configuration.html" xlink:title="prison_configuration" target="_top">
<polygon fill="#ffffff" stroke="transparent" points="238,-1031.2 238,-1092.2 416,-1092.2 416,-1031.2 238,-1031.2"/>
<polygon fill="#f5f5f5" stroke="transparent" points="238,-1068.7 238,-1091.7 416,-1091.7 416,-1068.7 238,-1068.7"/>
<polygon fill="none" stroke="#000000" points="238,-1068.7 238,-1091.7 416,-1091.7 416,-1068.7 238,-1068.7"/>
<text text-anchor="start" x="243" y="-1077.3" font-family="Helvetica,sans-Serif" font-weight="bold" font-size="11.00" fill="#000000">prison_configuration</text>
<text text-anchor="start" x="381.5219" y="-1076.8" font-family="Helvetica,sans-Serif" font-size="11.00" fill="#000000">[table]</text>
<polygon fill="none" stroke="#000000" points="238,-1049.7 238,-1068.7 416,-1068.7 416,-1049.7 238,-1049.7"/>
<text text-anchor="start" x="241" y="-1055.8" font-family="Helvetica,sans-Serif" font-size="11.00" fill="#000000">...</text>
<polygon fill="#ffffff" stroke="transparent" points="238,-1030.7 238,-1049.7 309,-1049.7 309,-1030.7 238,-1030.7"/>
<polygon fill="none" stroke="#000000" points="238,-1030.7 238,-1049.7 309,-1049.7 309,-1030.7 238,-1030.7"/>
<text text-anchor="start" x="241" y="-1036.8" font-family="Helvetica,sans-Serif" font-size="11.00" fill="#000000">&lt; 1</text>
<polygon fill="#ffffff" stroke="transparent" points="309,-1030.7 309,-1049.7 378,-1049.7 378,-1030.7 309,-1030.7"/>
<polygon fill="none" stroke="#000000" points="309,-1030.7 309,-1049.7 378,-1049.7 378,-1030.7 309,-1030.7"/>
<text text-anchor="start" x="336.4956" y="-1036.8" font-family="Helvetica,sans-Serif" font-size="11.00" fill="#000000">12 rows</text>
<polygon fill="#ffffff" stroke="transparent" points="378,-1030.7 378,-1049.7 416,-1049.7 416,-1030.7 378,-1030.7"/>
<polygon fill="none" stroke="#000000" points="378,-1030.7 378,-1049.7 416,-1049.7 416,-1030.7 378,-1030.7"/>
<text text-anchor="start" x="406.8862" y="-1036.8" font-family="Helvetica,sans-Serif" font-size="11.00" fill="#000000"> &#160;</text>
</a>
</g>
</g>
<!-- prison_configuration&#45;&gt;policy -->
<g id="edge4" class="edge">
<title>prison_configuration:w&#45;&gt;policy:e</title>
<path fill="none" stroke="#000000" d="M223.4746,-1058.7004C180.944,-1058.5822 157.8335,-1056.2412 127,-1020.7 76.7772,-962.8091 55.5244,-725.0315 49.1832,-635.2428"/>
<polygon fill="#000000" stroke="#000000" points="230,-1058.7003 238.0001,-1062.3 234,-1058.7001 238,-1058.7 238,-1058.7 238,-1058.7 234,-1058.7001 237.9999,-1055.1 230,-1058.7003 230,-1058.7003"/>
<ellipse fill="none" stroke="#000000" cx="226.8" cy="-1058.7004" rx="3.2" ry="3.2"/>
</g>
<!-- prison_configuration_audit -->
<g id="node6" class="node">
<title>prison_configuration_audit</title>
<g id="a_node6"><a xlink:href="../../tables/prison_configuration_audit.html" xlink:title="prison_configuration_audit" target="_top">
<polygon fill="#ffffff" stroke="transparent" points="217.5,-949.2 217.5,-1010.2 436.5,-1010.2 436.5,-949.2 217.5,-949.2"/>
<polygon fill="#f5f5f5" stroke="transparent" points="218,-986.7 218,-1009.7 437,-1009.7 437,-986.7 218,-986.7"/>
<polygon fill="none" stroke="#000000" points="218,-986.7 218,-1009.7 437,-1009.7 437,-986.7 218,-986.7"/>
<text text-anchor="start" x="223" y="-995.3" font-family="Helvetica,sans-Serif" font-weight="bold" font-size="11.00" fill="#000000">prison_configuration_audit</text>
<text text-anchor="start" x="402.5219" y="-994.8" font-family="Helvetica,sans-Serif" font-size="11.00" fill="#000000">[table]</text>
<polygon fill="none" stroke="#000000" points="218,-967.7 218,-986.7 437,-986.7 437,-967.7 218,-967.7"/>
<text text-anchor="start" x="221" y="-973.8" font-family="Helvetica,sans-Serif" font-size="11.00" fill="#000000">...</text>
<polygon fill="#ffffff" stroke="transparent" points="218,-948.7 218,-967.7 326,-967.7 326,-948.7 218,-948.7"/>
<polygon fill="none" stroke="#000000" points="218,-948.7 218,-967.7 326,-967.7 326,-948.7 218,-948.7"/>
<text text-anchor="start" x="221" y="-954.8" font-family="Helvetica,sans-Serif" font-size="11.00" fill="#000000">&lt; 2</text>
<polygon fill="#ffffff" stroke="transparent" points="326,-948.7 326,-967.7 381,-967.7 381,-948.7 326,-948.7"/>
<polygon fill="none" stroke="#000000" points="326,-948.7 326,-967.7 381,-967.7 381,-948.7 326,-948.7"/>
<text text-anchor="start" x="371.8862" y="-954.8" font-family="Helvetica,sans-Serif" font-size="11.00" fill="#000000"> &#160;</text>
<polygon fill="#ffffff" stroke="transparent" points="381,-948.7 381,-967.7 437,-967.7 437,-948.7 381,-948.7"/>
<polygon fill="none" stroke="#000000" points="381,-948.7 381,-967.7 437,-967.7 437,-948.7 381,-948.7"/>
<text text-anchor="start" x="427.8862" y="-954.8" font-family="Helvetica,sans-Serif" font-size="11.00" fill="#000000"> &#160;</text>
</a>
</g>
</g>
<!-- prison_configuration_audit&#45;&gt;policy -->
<g id="edge5" class="edge">
<title>prison_configuration_audit:w&#45;&gt;policy:e</title>
<path fill="none" stroke="#000000" stroke-dasharray="5,2" d="M203.3662,-976.3577C169.0491,-974.5604 151.9324,-965.1101 127,-934.7 89.243,-888.6476 61.7015,-711.1141 51.4211,-635.3198"/>
<polygon fill="#000000" stroke="#000000" points="210.0022,-976.5129 217.9158,-980.299 214.0011,-976.6064 218,-976.7 218,-976.7 218,-976.7 214.0011,-976.6064 218.0842,-973.101 210.0022,-976.5129 210.0022,-976.5129"/>
<ellipse fill="none" stroke="#000000" cx="206.8031" cy="-976.438" rx="3.2" ry="3.2"/>
</g>
<!-- prison_statistic -->
<g id="node7" class="node">
<title>prison_statistic</title>
<g id="a_node7"><a xlink:href="../../tables/prison_statistic.html" xlink:title="prison_statistic" target="_top">
<polygon fill="#ffffff" stroke="transparent" points="135,-612.7 135,-900.7 519,-900.7 519,-612.7 135,-612.7"/>
<polygon fill="#f5f5f5" stroke="transparent" points="137,-875.7 137,-898.7 517,-898.7 517,-875.7 137,-875.7"/>
<polygon fill="none" stroke="#000000" points="137,-875.7 137,-898.7 517,-898.7 517,-875.7 137,-875.7"/>
<text text-anchor="start" x="142" y="-884.3" font-family="Helvetica,sans-Serif" font-weight="bold" font-size="11.00" fill="#000000">prison_statistic</text>
<text text-anchor="start" x="482.0437" y="-883.8" font-family="Helvetica,sans-Serif" font-size="11.00" fill="#000000">[table]</text>
<polygon fill="none" stroke="#000000" points="137,-853.7 137,-875.7 433,-875.7 433,-853.7 137,-853.7"/>
<image xlink:href="../../images/primaryKeys.png" width="11px" height="12px" preserveAspectRatio="xMinYMin meet" x="142" y="-870.7"/>
<text text-anchor="start" x="157" y="-860.8" font-family="Helvetica,sans-Serif" font-size="11.00" fill="#000000">id</text>
<polygon fill="none" stroke="#000000" points="433,-853.7 433,-875.7 517,-875.7 517,-853.7 433,-853.7"/>
<text text-anchor="start" x="436" y="-861.4" font-family="Helvetica,sans-Serif" font-size="11.00" fill="#000000">bigserial[19]</text>
<polygon fill="#ffffff" stroke="transparent" points="137,-831.7 137,-853.7 433,-853.7 433,-831.7 137,-831.7"/>
<polygon fill="none" stroke="#000000" points="137,-831.7 137,-853.7 433,-853.7 433,-831.7 137,-831.7"/>
<text text-anchor="start" x="157" y="-838.8" font-family="Helvetica,sans-Serif" font-size="11.00" fill="#000000">prison_code</text>
<polygon fill="none" stroke="#000000" points="433,-831.7 433,-853.7 517,-853.7 517,-831.7 433,-831.7"/>
<text text-anchor="start" x="436" y="-839.4" font-family="Helvetica,sans-Serif" font-size="11.00" fill="#000000">varchar[6]</text>
<polygon fill="#ffffff" stroke="transparent" points="137,-809.7 137,-831.7 433,-831.7 433,-809.7 137,-809.7"/>
<polygon fill="none" stroke="#000000" points="137,-809.7 137,-831.7 433,-831.7 433,-809.7 137,-809.7"/>
<text text-anchor="start" x="157" y="-816.8" font-family="Helvetica,sans-Serif" font-size="11.00" fill="#000000">statistic_date</text>
<polygon fill="none" stroke="#000000" points="433,-809.7 433,-831.7 517,-831.7 517,-809.7 433,-809.7"/>
<text text-anchor="start" x="435.8807" y="-817.4" font-family="Helvetica,sans-Serif" font-size="11.00" fill="#000000">timestamp[29,6]</text>
<polygon fill="none" stroke="#000000" points="137,-787.7 137,-809.7 433,-809.7 433,-787.7 137,-787.7"/>
<text text-anchor="start" x="157" y="-794.8" font-family="Helvetica,sans-Serif" font-size="11.00" fill="#000000">prisoners_assigned_count</text>
<polygon fill="none" stroke="#000000" points="433,-787.7 433,-809.7 517,-809.7 517,-787.7 433,-787.7"/>
<text text-anchor="start" x="436" y="-795.4" font-family="Helvetica,sans-Serif" font-size="11.00" fill="#000000">int4[10]</text>
<polygon fill="none" stroke="#000000" points="137,-765.7 137,-787.7 433,-787.7 433,-765.7 137,-765.7"/>
<text text-anchor="start" x="157" y="-772.8" font-family="Helvetica,sans-Serif" font-size="11.00" fill="#000000">prisoner_count</text>
<polygon fill="none" stroke="#000000" points="433,-765.7 433,-787.7 517,-787.7 517,-765.7 433,-765.7"/>
<text text-anchor="start" x="436" y="-773.4" font-family="Helvetica,sans-Serif" font-size="11.00" fill="#000000">int4[10]</text>
<polygon fill="none" stroke="#000000" points="137,-743.7 137,-765.7 433,-765.7 433,-743.7 137,-743.7"/>
<text text-anchor="start" x="157" y="-750.8" font-family="Helvetica,sans-Serif" font-size="11.00" fill="#000000">eligible_staff_count</text>
<polygon fill="none" stroke="#000000" points="433,-743.7 433,-765.7 517,-765.7 517,-743.7 433,-743.7"/>
<text text-anchor="start" x="436" y="-751.4" font-family="Helvetica,sans-Serif" font-size="11.00" fill="#000000">int4[10]</text>
<polygon fill="none" stroke="#000000" points="137,-721.7 137,-743.7 433,-743.7 433,-721.7 137,-721.7"/>
<text text-anchor="start" x="157" y="-728.8" font-family="Helvetica,sans-Serif" font-size="11.00" fill="#000000">reception_to_allocation_days</text>
<polygon fill="none" stroke="#000000" points="433,-721.7 433,-743.7 517,-743.7 517,-721.7 433,-721.7"/>
<text text-anchor="start" x="436" y="-729.4" font-family="Helvetica,sans-Serif" font-size="11.00" fill="#000000">int4[10]</text>
<polygon fill="none" stroke="#000000" points="137,-699.7 137,-721.7 433,-721.7 433,-699.7 137,-699.7"/>
<text text-anchor="start" x="157" y="-706.8" font-family="Helvetica,sans-Serif" font-size="11.00" fill="#000000">reception_to_recorded_event_days</text>
<polygon fill="none" stroke="#000000" points="433,-699.7 433,-721.7 517,-721.7 517,-699.7 433,-699.7"/>
<text text-anchor="start" x="436" y="-707.4" font-family="Helvetica,sans-Serif" font-size="11.00" fill="#000000">int4[10]</text>
<polygon fill="none" stroke="#000000" points="137,-677.7 137,-699.7 433,-699.7 433,-677.7 137,-677.7"/>
<text text-anchor="start" x="157" y="-684.8" font-family="Helvetica,sans-Serif" font-size="11.00" fill="#000000">eligible_prisoner_count</text>
<polygon fill="none" stroke="#000000" points="433,-677.7 433,-699.7 517,-699.7 517,-677.7 433,-677.7"/>
<text text-anchor="start" x="436" y="-685.4" font-family="Helvetica,sans-Serif" font-size="11.00" fill="#000000">int4[10]</text>
<polygon fill="none" stroke="#000000" points="137,-655.7 137,-677.7 433,-677.7 433,-655.7 137,-655.7"/>
<text text-anchor="start" x="157" y="-662.8" font-family="Helvetica,sans-Serif" font-size="11.00" fill="#000000">high_complexity_of_need_prisoner_count</text>
<polygon fill="none" stroke="#000000" points="433,-655.7 433,-677.7 517,-677.7 517,-655.7 433,-655.7"/>
<text text-anchor="start" x="436" y="-663.4" font-family="Helvetica,sans-Serif" font-size="11.00" fill="#000000">int4[10]</text>
<polygon fill="none" stroke="#000000" points="137,-633.7 137,-655.7 433,-655.7 433,-633.7 137,-633.7"/>
<image xlink:href="../../images/foreignKeys.png" width="11px" height="12px" preserveAspectRatio="xMinYMin meet" x="142" y="-650.7"/>
<text text-anchor="start" x="157" y="-640.8" font-family="Helvetica,sans-Serif" font-size="11.00" fill="#000000">policy_code</text>
<polygon fill="none" stroke="#000000" points="433,-633.7 433,-655.7 517,-655.7 517,-633.7 433,-633.7"/>
<text text-anchor="start" x="436" y="-641.4" font-family="Helvetica,sans-Serif" font-size="11.00" fill="#000000">varchar[16]</text>
<polygon fill="#ffffff" stroke="transparent" points="137,-614.7 137,-633.7 289,-633.7 289,-614.7 137,-614.7"/>
<polygon fill="none" stroke="#000000" points="137,-614.7 137,-633.7 289,-633.7 289,-614.7 137,-614.7"/>
<text text-anchor="start" x="140" y="-620.8" font-family="Helvetica,sans-Serif" font-size="11.00" fill="#000000">&lt; 1</text>
<polygon fill="#ffffff" stroke="transparent" points="289,-614.7 289,-633.7 433,-633.7 433,-614.7 289,-614.7"/>
<polygon fill="none" stroke="#000000" points="289,-614.7 289,-633.7 433,-633.7 433,-614.7 289,-614.7"/>
<text text-anchor="start" x="423.8862" y="-620.8" font-family="Helvetica,sans-Serif" font-size="11.00" fill="#000000"> &#160;</text>
<polygon fill="#ffffff" stroke="transparent" points="433,-614.7 433,-633.7 517,-633.7 517,-614.7 433,-614.7"/>
<polygon fill="none" stroke="#000000" points="433,-614.7 433,-633.7 517,-633.7 517,-614.7 433,-614.7"/>
<text text-anchor="start" x="498.4053" y="-620.8" font-family="Helvetica,sans-Serif" font-size="11.00" fill="#000000">1 &gt;</text>
<polygon fill="none" stroke="#000000" stroke-width="2" points="136,-613.7 136,-899.7 518,-899.7 518,-613.7 136,-613.7"/>
</a>
</g>
</g>
<!-- prison_statistic&#45;&gt;policy -->
<g id="edge6" class="edge">
<title>prison_statistic:w&#45;&gt;policy:e</title>
<path fill="none" stroke="#000000" d="M122.4737,-643.247C112.6177,-641.3412 102.9661,-637.7229 94.0344,-633.3689"/>
<polygon fill="#000000" stroke="#000000" points="129.0397,-643.9037 136.6417,-648.2821 133.0199,-644.3019 137,-644.7 137,-644.7 137,-644.7 133.0199,-644.3019 137.3583,-641.1179 129.0397,-643.9037 129.0397,-643.9037"/>
<ellipse fill="none" stroke="#000000" cx="125.8556" cy="-643.5852" rx="3.2" ry="3.2"/>
</g>
<!-- prisoner_statistic -->
<g id="node8" class="node">
<title>prisoner_statistic</title>
<g id="a_node8"><a xlink:href="../../tables/prisoner_statistic.html" xlink:title="prisoner_statistic" target="_top">
<polygon fill="#ffffff" stroke="transparent" points="568,-864.2 568,-925.2 724,-925.2 724,-864.2 568,-864.2"/>
<polygon fill="#f5f5f5" stroke="transparent" points="568,-901.7 568,-924.7 724,-924.7 724,-901.7 568,-901.7"/>
<polygon fill="none" stroke="#000000" points="568,-901.7 568,-924.7 724,-924.7 724,-901.7 568,-901.7"/>
<text text-anchor="start" x="573" y="-910.3" font-family="Helvetica,sans-Serif" font-weight="bold" font-size="11.00" fill="#000000">prisoner_statistic</text>
<text text-anchor="start" x="689.5219" y="-909.8" font-family="Helvetica,sans-Serif" font-size="11.00" fill="#000000">[table]</text>
<polygon fill="none" stroke="#000000" points="568,-882.7 568,-901.7 724,-901.7 724,-882.7 568,-882.7"/>
<text text-anchor="start" x="571" y="-888.8" font-family="Helvetica,sans-Serif" font-size="11.00" fill="#000000">...</text>
<polygon fill="#ffffff" stroke="transparent" points="568,-863.7 568,-882.7 644,-882.7 644,-863.7 568,-863.7"/>
<polygon fill="none" stroke="#000000" points="568,-863.7 568,-882.7 644,-882.7 644,-863.7 568,-863.7"/>
<text text-anchor="start" x="571" y="-869.8" font-family="Helvetica,sans-Serif" font-size="11.00" fill="#000000">&lt; 2</text>
<polygon fill="#ffffff" stroke="transparent" points="644,-863.7 644,-882.7 684,-882.7 684,-863.7 644,-863.7"/>
<polygon fill="none" stroke="#000000" points="644,-863.7 644,-882.7 684,-882.7 684,-863.7 644,-863.7"/>
<text text-anchor="start" x="674.8862" y="-869.8" font-family="Helvetica,sans-Serif" font-size="11.00" fill="#000000"> &#160;</text>
<polygon fill="#ffffff" stroke="transparent" points="684,-863.7 684,-882.7 724,-882.7 724,-863.7 684,-863.7"/>
<polygon fill="none" stroke="#000000" points="684,-863.7 684,-882.7 724,-882.7 724,-863.7 684,-863.7"/>
<text text-anchor="start" x="714.8862" y="-869.8" font-family="Helvetica,sans-Serif" font-size="11.00" fill="#000000"> &#160;</text>
</a>
</g>
</g>
<!-- prisoner_statistic&#45;&gt;policy -->
<g id="edge7" class="edge">
<title>prisoner_statistic:w&#45;&gt;policy:e</title>
<path fill="none" stroke="#000000" d="M545.2735,-910.1036C539.0997,-910.7328 532.9719,-911.2756 527,-911.7 438.3347,-918.0012 197.2482,-966.1649 127,-911.7 83.2159,-877.7533 59.1972,-709.0628 50.6442,-635.3111"/>
<polygon fill="#000000" stroke="#000000" points="551.76,-909.3801 560.1098,-912.0711 555.7353,-908.9367 559.7107,-908.4933 559.7107,-908.4933 559.7107,-908.4933 555.7353,-908.9367 559.3116,-904.9154 551.76,-909.3801 551.76,-909.3801"/>
<ellipse fill="none" stroke="#000000" cx="548.5797" cy="-909.7348" rx="3.2" ry="3.2"/>
</g>
<!-- prisoner_statistic&#45;&gt;prison_statistic -->
<g id="edge8" class="edge">
<title>prisoner_statistic:w&#45;&gt;prison_statistic:e</title>
<path fill="none" stroke="#000000" d="M545.4667,-866.7157C535.9106,-865.4511 526.3142,-864.7 517,-864.7"/>
<polygon fill="#000000" stroke="#000000" points="551.9951,-867.7483 559.3344,-872.5541 555.946,-868.3733 559.8969,-868.9983 559.8969,-868.9983 559.8969,-868.9983 555.946,-868.3733 560.4594,-865.4425 551.9951,-867.7483 551.9951,-867.7483"/>
<ellipse fill="none" stroke="#000000" cx="548.8344" cy="-867.2483" rx="3.2" ry="3.2"/>
</g>
<!-- recorded_event -->
<g id="node9" class="node">
<title>recorded_event</title>
<g id="a_node9"><a xlink:href="../../tables/recorded_event.html" xlink:title="recorded_event" target="_top">
<polygon fill="#ffffff" stroke="transparent" points="255,-530.2 255,-591.2 399,-591.2 399,-530.2 255,-530.2"/>
<polygon fill="#f5f5f5" stroke="transparent" points="255,-567.7 255,-590.7 399,-590.7 399,-567.7 255,-567.7"/>
<polygon fill="none" stroke="#000000" points="255,-567.7 255,-590.7 399,-590.7 399,-567.7 255,-567.7"/>
<text text-anchor="start" x="260" y="-576.3" font-family="Helvetica,sans-Serif" font-weight="bold" font-size="11.00" fill="#000000">recorded_event</text>
<text text-anchor="start" x="364.5219" y="-575.8" font-family="Helvetica,sans-Serif" font-size="11.00" fill="#000000">[table]</text>
<polygon fill="none" stroke="#000000" points="255,-548.7 255,-567.7 399,-567.7 399,-548.7 255,-548.7"/>
<text text-anchor="start" x="258" y="-554.8" font-family="Helvetica,sans-Serif" font-size="11.00" fill="#000000">...</text>
<polygon fill="#ffffff" stroke="transparent" points="255,-529.7 255,-548.7 325,-548.7 325,-529.7 255,-529.7"/>
<polygon fill="none" stroke="#000000" points="255,-529.7 255,-548.7 325,-548.7 325,-529.7 255,-529.7"/>
<text text-anchor="start" x="258" y="-535.8" font-family="Helvetica,sans-Serif" font-size="11.00" fill="#000000">&lt; 2</text>
<polygon fill="#ffffff" stroke="transparent" points="325,-529.7 325,-548.7 362,-548.7 362,-529.7 325,-529.7"/>
<polygon fill="none" stroke="#000000" points="325,-529.7 325,-548.7 362,-548.7 362,-529.7 325,-529.7"/>
<text text-anchor="start" x="352.8862" y="-535.8" font-family="Helvetica,sans-Serif" font-size="11.00" fill="#000000"> &#160;</text>
<polygon fill="#ffffff" stroke="transparent" points="362,-529.7 362,-548.7 399,-548.7 399,-529.7 362,-529.7"/>
<polygon fill="none" stroke="#000000" points="362,-529.7 362,-548.7 399,-548.7 399,-529.7 362,-529.7"/>
<text text-anchor="start" x="389.8862" y="-535.8" font-family="Helvetica,sans-Serif" font-size="11.00" fill="#000000"> &#160;</text>
</a>
</g>
</g>
<!-- recorded_event&#45;&gt;policy -->
<g id="edge9" class="edge">
<title>recorded_event:w&#45;&gt;policy:e</title>
<path fill="none" stroke="#000000" d="M240.4174,-558.0244C188.3088,-560.2845 132.5403,-573.9177 94.3417,-585.176"/>
<polygon fill="#000000" stroke="#000000" points="247.002,-557.878 255.0801,-561.2991 251.001,-557.789 255,-557.7 255,-557.7 255,-557.7 251.001,-557.789 254.9199,-554.1009 247.002,-557.878 247.002,-557.878"/>
<ellipse fill="none" stroke="#000000" cx="243.8028" cy="-557.9492" rx="3.2" ry="3.2"/>
</g>
<!-- recorded_event_audit -->
<g id="node10" class="node">
<title>recorded_event_audit</title>
<g id="a_node10"><a xlink:href="../../tables/recorded_event_audit.html" xlink:title="recorded_event_audit" target="_top">
<polygon fill="#ffffff" stroke="transparent" points="234.5,-448.2 234.5,-509.2 419.5,-509.2 419.5,-448.2 234.5,-448.2"/>
<polygon fill="#f5f5f5" stroke="transparent" points="235,-485.7 235,-508.7 420,-508.7 420,-485.7 235,-485.7"/>
<polygon fill="none" stroke="#000000" points="235,-485.7 235,-508.7 420,-508.7 420,-485.7 235,-485.7"/>
<text text-anchor="start" x="240" y="-494.3" font-family="Helvetica,sans-Serif" font-weight="bold" font-size="11.00" fill="#000000">recorded_event_audit</text>
<text text-anchor="start" x="385.5219" y="-493.8" font-family="Helvetica,sans-Serif" font-size="11.00" fill="#000000">[table]</text>
<polygon fill="none" stroke="#000000" points="235,-466.7 235,-485.7 420,-485.7 420,-466.7 235,-466.7"/>
<text text-anchor="start" x="238" y="-472.8" font-family="Helvetica,sans-Serif" font-size="11.00" fill="#000000">...</text>
<polygon fill="#ffffff" stroke="transparent" points="235,-447.7 235,-466.7 326,-466.7 326,-447.7 235,-447.7"/>
<polygon fill="none" stroke="#000000" points="235,-447.7 235,-466.7 326,-466.7 326,-447.7 235,-447.7"/>
<text text-anchor="start" x="238" y="-453.8" font-family="Helvetica,sans-Serif" font-size="11.00" fill="#000000">&lt; 2</text>
<polygon fill="#ffffff" stroke="transparent" points="326,-447.7 326,-466.7 373,-466.7 373,-447.7 326,-447.7"/>
<polygon fill="none" stroke="#000000" points="326,-447.7 326,-466.7 373,-466.7 373,-447.7 326,-447.7"/>
<text text-anchor="start" x="363.8862" y="-453.8" font-family="Helvetica,sans-Serif" font-size="11.00" fill="#000000"> &#160;</text>
<polygon fill="#ffffff" stroke="transparent" points="373,-447.7 373,-466.7 420,-466.7 420,-447.7 373,-447.7"/>
<polygon fill="none" stroke="#000000" points="373,-447.7 373,-466.7 420,-466.7 420,-447.7 373,-447.7"/>
<text text-anchor="start" x="410.8862" y="-453.8" font-family="Helvetica,sans-Serif" font-size="11.00" fill="#000000"> &#160;</text>
</a>
</g>
</g>
<!-- recorded_event_audit&#45;&gt;policy -->
<g id="edge10" class="edge">
<title>recorded_event_audit:w&#45;&gt;policy:e</title>
<path fill="none" stroke="#000000" d="M220.5236,-476.5507C160.7735,-483.5067 106.9718,-531.6391 75.6346,-565.8805"/>
<polygon fill="#000000" stroke="#000000" points="227.0138,-476.1693 235.2112,-479.2938 231.0069,-475.9347 235,-475.7 235,-475.7 235,-475.7 231.0069,-475.9347 234.7888,-472.1062 227.0138,-476.1693 227.0138,-476.1693"/>
<ellipse fill="none" stroke="#000000" cx="223.8193" cy="-476.3571" rx="3.2" ry="3.2"/>
</g>
<!-- reference_data_policy -->
<g id="node11" class="node">
<title>reference_data_policy</title>
<g id="a_node11"><a xlink:href="../../tables/reference_data_policy.html" xlink:title="reference_data_policy" target="_top">
<polygon fill="#ffffff" stroke="transparent" points="234,-366.2 234,-427.2 420,-427.2 420,-366.2 234,-366.2"/>
<polygon fill="#f5f5f5" stroke="transparent" points="234,-403.7 234,-426.7 420,-426.7 420,-403.7 234,-403.7"/>
<polygon fill="none" stroke="#000000" points="234,-403.7 234,-426.7 420,-426.7 420,-403.7 234,-403.7"/>
<text text-anchor="start" x="239" y="-412.3" font-family="Helvetica,sans-Serif" font-weight="bold" font-size="11.00" fill="#000000">reference_data_policy</text>
<text text-anchor="start" x="385.5219" y="-411.8" font-family="Helvetica,sans-Serif" font-size="11.00" fill="#000000">[table]</text>
<polygon fill="none" stroke="#000000" points="234,-384.7 234,-403.7 420,-403.7 420,-384.7 234,-384.7"/>
<text text-anchor="start" x="237" y="-390.8" font-family="Helvetica,sans-Serif" font-size="11.00" fill="#000000">...</text>
<polygon fill="#ffffff" stroke="transparent" points="234,-365.7 234,-384.7 325,-384.7 325,-365.7 234,-365.7"/>
<polygon fill="none" stroke="#000000" points="234,-365.7 234,-384.7 325,-384.7 325,-365.7 234,-365.7"/>
<text text-anchor="start" x="237" y="-371.8" font-family="Helvetica,sans-Serif" font-size="11.00" fill="#000000">&lt; 2</text>
<polygon fill="#ffffff" stroke="transparent" points="325,-365.7 325,-384.7 372,-384.7 372,-365.7 325,-365.7"/>
<polygon fill="none" stroke="#000000" points="325,-365.7 325,-384.7 372,-384.7 372,-365.7 325,-365.7"/>
<text text-anchor="start" x="362.8862" y="-371.8" font-family="Helvetica,sans-Serif" font-size="11.00" fill="#000000"> &#160;</text>
<polygon fill="#ffffff" stroke="transparent" points="372,-365.7 372,-384.7 420,-384.7 420,-365.7 372,-365.7"/>
<polygon fill="none" stroke="#000000" points="372,-365.7 372,-384.7 420,-384.7 420,-365.7 372,-365.7"/>
<text text-anchor="start" x="410.8862" y="-371.8" font-family="Helvetica,sans-Serif" font-size="11.00" fill="#000000"> &#160;</text>
</a>
</g>
</g>
<!-- reference_data_policy&#45;&gt;policy -->
<g id="edge11" class="edge">
<title>reference_data_policy:w&#45;&gt;policy:e</title>
<path fill="none" stroke="#000000" d="M219.5758,-393.981C178.7933,-395.7263 160.8015,-406.0627 127,-437.7 89.3706,-472.92 67.1748,-529.6399 56.0476,-566.0307"/>
<polygon fill="#000000" stroke="#000000" points="226.0015,-393.8559 234.0701,-397.2993 230.0008,-393.7779 234,-393.7 234,-393.7 234,-393.7 230.0008,-393.7779 233.9299,-390.1007 226.0015,-393.8559 226.0015,-393.8559"/>
<ellipse fill="none" stroke="#000000" cx="222.8021" cy="-393.9182" rx="3.2" ry="3.2"/>
</g>
<!-- staff_configuration -->
<g id="node12" class="node">
<title>staff_configuration</title>
<g id="a_node12"><a xlink:href="../../tables/staff_configuration.html" xlink:title="staff_configuration" target="_top">
<polygon fill="#ffffff" stroke="transparent" points="243.5,-284.2 243.5,-345.2 410.5,-345.2 410.5,-284.2 243.5,-284.2"/>
<polygon fill="#f5f5f5" stroke="transparent" points="244,-321.7 244,-344.7 411,-344.7 411,-321.7 244,-321.7"/>
<polygon fill="none" stroke="#000000" points="244,-321.7 244,-344.7 411,-344.7 411,-321.7 244,-321.7"/>
<text text-anchor="start" x="249" y="-330.3" font-family="Helvetica,sans-Serif" font-weight="bold" font-size="11.00" fill="#000000">staff_configuration</text>
<text text-anchor="start" x="376.5219" y="-329.8" font-family="Helvetica,sans-Serif" font-size="11.00" fill="#000000">[table]</text>
<polygon fill="none" stroke="#000000" points="244,-302.7 244,-321.7 411,-321.7 411,-302.7 244,-302.7"/>
<text text-anchor="start" x="247" y="-308.8" font-family="Helvetica,sans-Serif" font-size="11.00" fill="#000000">...</text>
<polygon fill="#ffffff" stroke="transparent" points="244,-283.7 244,-302.7 326,-302.7 326,-283.7 244,-283.7"/>
<polygon fill="none" stroke="#000000" points="244,-283.7 244,-302.7 326,-302.7 326,-283.7 244,-283.7"/>
<text text-anchor="start" x="247" y="-289.8" font-family="Helvetica,sans-Serif" font-size="11.00" fill="#000000">&lt; 2</text>
<polygon fill="#ffffff" stroke="transparent" points="326,-283.7 326,-302.7 368,-302.7 368,-283.7 326,-283.7"/>
<polygon fill="none" stroke="#000000" points="326,-283.7 326,-302.7 368,-302.7 368,-283.7 326,-283.7"/>
<text text-anchor="start" x="358.8862" y="-289.8" font-family="Helvetica,sans-Serif" font-size="11.00" fill="#000000"> &#160;</text>
<polygon fill="#ffffff" stroke="transparent" points="368,-283.7 368,-302.7 411,-302.7 411,-283.7 368,-283.7"/>
<polygon fill="none" stroke="#000000" points="368,-283.7 368,-302.7 411,-302.7 411,-283.7 368,-283.7"/>
<text text-anchor="start" x="401.8862" y="-289.8" font-family="Helvetica,sans-Serif" font-size="11.00" fill="#000000"> &#160;</text>
</a>
</g>
</g>
<!-- staff_configuration&#45;&gt;policy -->
<g id="edge12" class="edge">
<title>staff_configuration:w&#45;&gt;policy:e</title>
<path fill="none" stroke="#000000" d="M229.4856,-311.8227C184.0856,-312.7144 161.8824,-319.2446 127,-355.7 70.6996,-414.5391 54.0168,-513.5472 49.0763,-565.8699"/>
<polygon fill="#000000" stroke="#000000" points="236.0003,-311.7677 244.0304,-315.2999 240.0001,-311.7338 244,-311.7 244,-311.7 244,-311.7 240.0001,-311.7338 243.9696,-308.1001 236.0003,-311.7677 236.0003,-311.7677"/>
<ellipse fill="none" stroke="#000000" cx="232.8004" cy="-311.7947" rx="3.2" ry="3.2"/>
</g>
<!-- staff_configuration_audit -->
<g id="node13" class="node">
<title>staff_configuration_audit</title>
<g id="a_node13"><a xlink:href="../../tables/staff_configuration_audit.html" xlink:title="staff_configuration_audit" target="_top">
<polygon fill="#ffffff" stroke="transparent" points="223,-202.2 223,-263.2 431,-263.2 431,-202.2 223,-202.2"/>
<polygon fill="#f5f5f5" stroke="transparent" points="223,-239.7 223,-262.7 431,-262.7 431,-239.7 223,-239.7"/>
<polygon fill="none" stroke="#000000" points="223,-239.7 223,-262.7 431,-262.7 431,-239.7 223,-239.7"/>
<text text-anchor="start" x="228" y="-248.3" font-family="Helvetica,sans-Serif" font-weight="bold" font-size="11.00" fill="#000000">staff_configuration_audit</text>
<text text-anchor="start" x="396.5219" y="-247.8" font-family="Helvetica,sans-Serif" font-size="11.00" fill="#000000">[table]</text>
<polygon fill="none" stroke="#000000" points="223,-220.7 223,-239.7 431,-239.7 431,-220.7 223,-220.7"/>
<text text-anchor="start" x="226" y="-226.8" font-family="Helvetica,sans-Serif" font-size="11.00" fill="#000000">...</text>
<polygon fill="#ffffff" stroke="transparent" points="223,-201.7 223,-220.7 325,-220.7 325,-201.7 223,-201.7"/>
<polygon fill="none" stroke="#000000" points="223,-201.7 223,-220.7 325,-220.7 325,-201.7 223,-201.7"/>
<text text-anchor="start" x="226" y="-207.8" font-family="Helvetica,sans-Serif" font-size="11.00" fill="#000000">&lt; 2</text>
<polygon fill="#ffffff" stroke="transparent" points="325,-201.7 325,-220.7 378,-220.7 378,-201.7 325,-201.7"/>
<polygon fill="none" stroke="#000000" points="325,-201.7 325,-220.7 378,-220.7 378,-201.7 325,-201.7"/>
<text text-anchor="start" x="368.8862" y="-207.8" font-family="Helvetica,sans-Serif" font-size="11.00" fill="#000000"> &#160;</text>
<polygon fill="#ffffff" stroke="transparent" points="378,-201.7 378,-220.7 431,-220.7 431,-201.7 378,-201.7"/>
<polygon fill="none" stroke="#000000" points="378,-201.7 378,-220.7 431,-220.7 431,-201.7 378,-201.7"/>
<text text-anchor="start" x="421.8862" y="-207.8" font-family="Helvetica,sans-Serif" font-size="11.00" fill="#000000"> &#160;</text>
</a>
</g>
</g>
<!-- staff_configuration_audit&#45;&gt;policy -->
<g id="edge13" class="edge">
<title>staff_configuration_audit:w&#45;&gt;policy:e</title>
<path fill="none" stroke="#000000" stroke-dasharray="5,2" d="M208.5456,-230.0074C171.7432,-231.7492 153.6236,-241.4739 127,-273.7 89.9618,-318.5322 62.1654,-491.2584 51.6235,-565.953"/>
<polygon fill="#000000" stroke="#000000" points="215.0018,-229.8702 223.0766,-233.2992 219.0009,-229.7851 223,-229.7 223,-229.7 223,-229.7 219.0009,-229.7851 222.9234,-226.1008 215.0018,-229.8702 215.0018,-229.8702"/>
<ellipse fill="none" stroke="#000000" cx="211.8025" cy="-229.9382" rx="3.2" ry="3.2"/>
</g>
<!-- staff_role -->
<g id="node14" class="node">
<title>staff_role</title>
<g id="a_node14"><a xlink:href="../../tables/staff_role.html" xlink:title="staff_role" target="_top">
<polygon fill="#ffffff" stroke="transparent" points="276,-120.2 276,-181.2 378,-181.2 378,-120.2 276,-120.2"/>
<polygon fill="#f5f5f5" stroke="transparent" points="276,-157.7 276,-180.7 378,-180.7 378,-157.7 276,-157.7"/>
<polygon fill="none" stroke="#000000" points="276,-157.7 276,-180.7 378,-180.7 378,-157.7 276,-157.7"/>
<text text-anchor="start" x="281" y="-166.3" font-family="Helvetica,sans-Serif" font-weight="bold" font-size="11.00" fill="#000000">staff_role</text>
<text text-anchor="start" x="343.5219" y="-165.8" font-family="Helvetica,sans-Serif" font-size="11.00" fill="#000000">[table]</text>
<polygon fill="none" stroke="#000000" points="276,-138.7 276,-157.7 378,-157.7 378,-138.7 276,-138.7"/>
<text text-anchor="start" x="279" y="-144.8" font-family="Helvetica,sans-Serif" font-size="11.00" fill="#000000">...</text>
<polygon fill="#ffffff" stroke="transparent" points="276,-119.7 276,-138.7 325,-138.7 325,-119.7 276,-119.7"/>
<polygon fill="none" stroke="#000000" points="276,-119.7 276,-138.7 325,-138.7 325,-119.7 276,-119.7"/>
<text text-anchor="start" x="279" y="-125.8" font-family="Helvetica,sans-Serif" font-size="11.00" fill="#000000">&lt; 1</text>
<polygon fill="#ffffff" stroke="transparent" points="325,-119.7 325,-138.7 351,-138.7 351,-119.7 325,-119.7"/>
<polygon fill="none" stroke="#000000" points="325,-119.7 325,-138.7 351,-138.7 351,-119.7 325,-119.7"/>
<text text-anchor="start" x="341.8862" y="-125.8" font-family="Helvetica,sans-Serif" font-size="11.00" fill="#000000"> &#160;</text>
<polygon fill="#ffffff" stroke="transparent" points="351,-119.7 351,-138.7 378,-138.7 378,-119.7 351,-119.7"/>
<polygon fill="none" stroke="#000000" points="351,-119.7 351,-138.7 378,-138.7 378,-119.7 351,-119.7"/>
<text text-anchor="start" x="368.8862" y="-125.8" font-family="Helvetica,sans-Serif" font-size="11.00" fill="#000000"> &#160;</text>
</a>
</g>
</g>
<!-- staff_role&#45;&gt;policy -->
<g id="edge14" class="edge">
<title>staff_role:w&#45;&gt;policy:e</title>
<path fill="none" stroke="#000000" stroke-dasharray="5,2" d="M261.5694,-147.6139C202.0449,-146.9825 170.1191,-144.3254 127,-191.7 76.8985,-246.746 55.6552,-477.5039 49.2459,-565.9736"/>
<polygon fill="#000000" stroke="#000000" points="268.0001,-147.6522 275.9785,-151.2999 272.0001,-147.6761 276,-147.7 276,-147.7 276,-147.7 272.0001,-147.6761 276.0215,-144.1001 268.0001,-147.6522 268.0001,-147.6522"/>
<ellipse fill="none" stroke="#000000" cx="264.8002" cy="-147.6331" rx="3.2" ry="3.2"/>
</g>
<!-- staff_role_audit -->
<g id="node15" class="node">
<title>staff_role_audit</title>
<g id="a_node15"><a xlink:href="../../tables/staff_role_audit.html" xlink:title="staff_role_audit" target="_top">
<polygon fill="#ffffff" stroke="transparent" points="255.5,-38.2 255.5,-99.2 398.5,-99.2 398.5,-38.2 255.5,-38.2"/>
<polygon fill="#f5f5f5" stroke="transparent" points="256,-75.7 256,-98.7 399,-98.7 399,-75.7 256,-75.7"/>
<polygon fill="none" stroke="#000000" points="256,-75.7 256,-98.7 399,-98.7 399,-75.7 256,-75.7"/>
<text text-anchor="start" x="261" y="-84.3" font-family="Helvetica,sans-Serif" font-weight="bold" font-size="11.00" fill="#000000">staff_role_audit</text>
<text text-anchor="start" x="364.5219" y="-83.8" font-family="Helvetica,sans-Serif" font-size="11.00" fill="#000000">[table]</text>
<polygon fill="none" stroke="#000000" points="256,-56.7 256,-75.7 399,-75.7 399,-56.7 256,-56.7"/>
<text text-anchor="start" x="259" y="-62.8" font-family="Helvetica,sans-Serif" font-size="11.00" fill="#000000">...</text>
<polygon fill="#ffffff" stroke="transparent" points="256,-37.7 256,-56.7 326,-56.7 326,-37.7 256,-37.7"/>
<polygon fill="none" stroke="#000000" points="256,-37.7 256,-56.7 326,-56.7 326,-37.7 256,-37.7"/>
<text text-anchor="start" x="259" y="-43.8" font-family="Helvetica,sans-Serif" font-size="11.00" fill="#000000">&lt; 2</text>
<polygon fill="#ffffff" stroke="transparent" points="326,-37.7 326,-56.7 362,-56.7 362,-37.7 326,-37.7"/>
<polygon fill="none" stroke="#000000" points="326,-37.7 326,-56.7 362,-56.7 362,-37.7 326,-37.7"/>
<text text-anchor="start" x="352.8862" y="-43.8" font-family="Helvetica,sans-Serif" font-size="11.00" fill="#000000"> &#160;</text>
<polygon fill="#ffffff" stroke="transparent" points="362,-37.7 362,-56.7 399,-56.7 399,-37.7 362,-37.7"/>
<polygon fill="none" stroke="#000000" points="362,-37.7 362,-56.7 399,-56.7 399,-37.7 362,-37.7"/>
<text text-anchor="start" x="389.8862" y="-43.8" font-family="Helvetica,sans-Serif" font-size="11.00" fill="#000000"> &#160;</text>
</a>
</g>
</g>
<!-- staff_role_audit&#45;&gt;policy -->
<g id="edge15" class="edge">
<title>staff_role_audit:w&#45;&gt;policy:e</title>
<path fill="none" stroke="#000000" stroke-dasharray="5,2" d="M241.3747,-65.6822C190.4302,-65.6624 162.8234,-67.3239 127,-109.7 68.3844,-179.0373 52.0882,-465.6699 48.1357,-565.9042"/>
<polygon fill="#000000" stroke="#000000" points="248,-65.6902 255.9956,-69.3 252,-65.6951 256,-65.7 256,-65.7 256,-65.7 252,-65.6951 256.0044,-62.1 248,-65.6902 248,-65.6902"/>
<ellipse fill="none" stroke="#000000" cx="244.8" cy="-65.6863" rx="3.2" ry="3.2"/>
</g>
</g>
</svg>
