<?xml version="1.0" encoding="UTF-8" standalone="no"?>
<!DOCTYPE svg PUBLIC "-//W3C//DTD SVG 1.1//EN"
 "http://www.w3.org/Graphics/SVG/1.1/DTD/svg11.dtd">
<!-- Generated by graphviz version 2.40.1 (20161225.0304)
 -->
<!-- Title: twoDegreesRelationshipsDiagram Pages: 1 -->
<svg width="682pt" height="799pt"
 viewBox="0.00 0.00 682.00 799.20" xmlns="http://www.w3.org/2000/svg" xmlns:xlink="http://www.w3.org/1999/xlink">
<g id="graph0" class="graph" transform="scale(1 1) rotate(0) translate(4 795.2)">
<title>twoDegreesRelationshipsDiagram</title>
<polygon fill="#ffffff" stroke="transparent" points="-4,4 -4,-795.2 678,-795.2 678,4 -4,4"/>
<text text-anchor="middle" x="72.4936" y="-7.3" font-family="Helvetica,sans-Serif" font-size="11.00" fill="#000000">Generated by SchemaSpy</text>
<!-- allocation_audit -->
<g id="node1" class="node">
<title>allocation_audit</title>
<g id="a_node1"><a xlink:href="../../tables/allocation_audit.html" xlink:title="allocation_audit" target="_top">
<polygon fill="#ffffff" stroke="transparent" points="355.5,-726.2 355.5,-787.2 501.5,-787.2 501.5,-726.2 355.5,-726.2"/>
<polygon fill="#f5f5f5" stroke="transparent" points="355.5,-763.7 355.5,-786.7 501.5,-786.7 501.5,-763.7 355.5,-763.7"/>
<polygon fill="none" stroke="#000000" points="355.5,-763.7 355.5,-786.7 501.5,-786.7 501.5,-763.7 355.5,-763.7"/>
<text text-anchor="start" x="360.5" y="-772.3" font-family="Helvetica,sans-Serif" font-weight="bold" font-size="11.00" fill="#000000">allocation_audit</text>
<text text-anchor="start" x="467.0219" y="-771.8" font-family="Helvetica,sans-Serif" font-size="11.00" fill="#000000">[table]</text>
<polygon fill="none" stroke="#000000" points="355.5,-744.7 355.5,-763.7 501.5,-763.7 501.5,-744.7 355.5,-744.7"/>
<text text-anchor="start" x="358.5" y="-750.8" font-family="Helvetica,sans-Serif" font-size="11.00" fill="#000000">...</text>
<polygon fill="#ffffff" stroke="transparent" points="355.5,-725.7 355.5,-744.7 426.5,-744.7 426.5,-725.7 355.5,-725.7"/>
<polygon fill="none" stroke="#000000" points="355.5,-725.7 355.5,-744.7 426.5,-744.7 426.5,-725.7 355.5,-725.7"/>
<text text-anchor="start" x="358.5" y="-731.8" font-family="Helvetica,sans-Serif" font-size="11.00" fill="#000000">&lt; 1</text>
<polygon fill="#ffffff" stroke="transparent" points="426.5,-725.7 426.5,-744.7 463.5,-744.7 463.5,-725.7 426.5,-725.7"/>
<polygon fill="none" stroke="#000000" points="426.5,-725.7 426.5,-744.7 463.5,-744.7 463.5,-725.7 426.5,-725.7"/>
<text text-anchor="start" x="454.3862" y="-731.8" font-family="Helvetica,sans-Serif" font-size="11.00" fill="#000000"> &#160;</text>
<polygon fill="#ffffff" stroke="transparent" points="463.5,-725.7 463.5,-744.7 501.5,-744.7 501.5,-725.7 463.5,-725.7"/>
<polygon fill="none" stroke="#000000" points="463.5,-725.7 463.5,-744.7 501.5,-744.7 501.5,-725.7 463.5,-725.7"/>
<text text-anchor="start" x="492.3862" y="-731.8" font-family="Helvetica,sans-Serif" font-size="11.00" fill="#000000"> &#160;</text>
</a>
</g>
</g>
<!-- audit_revision -->
<g id="node2" class="node">
<title>audit_revision</title>
<g id="a_node2"><a xlink:href="../../tables/audit_revision.html" xlink:title="audit_revision" target="_top">
<polygon fill="#ffffff" stroke="transparent" points="8,-181.2 8,-264.2 142,-264.2 142,-181.2 8,-181.2"/>
<polygon fill="#f5f5f5" stroke="transparent" points="8,-240.7 8,-263.7 142,-263.7 142,-240.7 8,-240.7"/>
<polygon fill="none" stroke="#000000" points="8,-240.7 8,-263.7 142,-263.7 142,-240.7 8,-240.7"/>
<text text-anchor="start" x="13" y="-249.3" font-family="Helvetica,sans-Serif" font-weight="bold" font-size="11.00" fill="#000000">audit_revision</text>
<text text-anchor="start" x="107.5219" y="-248.8" font-family="Helvetica,sans-Serif" font-size="11.00" fill="#000000">[table]</text>
<polygon fill="none" stroke="#000000" points="8,-218.7 8,-240.7 142,-240.7 142,-218.7 8,-218.7"/>
<image xlink:href="../../images/primaryKeys.png" width="11px" height="12px" preserveAspectRatio="xMinYMin meet" x="13" y="-235.7"/>
<text text-anchor="start" x="28" y="-225.8" font-family="Helvetica,sans-Serif" font-size="11.00" fill="#000000">id</text>
<polygon fill="none" stroke="#000000" points="8,-199.7 8,-218.7 142,-218.7 142,-199.7 8,-199.7"/>
<text text-anchor="start" x="11" y="-205.8" font-family="Helvetica,sans-Serif" font-size="11.00" fill="#000000">...</text>
<polygon fill="#ffffff" stroke="transparent" points="8,-180.7 8,-199.7 64,-199.7 64,-180.7 8,-180.7"/>
<polygon fill="none" stroke="#000000" points="8,-180.7 8,-199.7 64,-199.7 64,-180.7 8,-180.7"/>
<text text-anchor="start" x="11" y="-186.8" font-family="Helvetica,sans-Serif" font-size="11.00" fill="#000000"> &#160;</text>
<polygon fill="#ffffff" stroke="transparent" points="64,-180.7 64,-199.7 98,-199.7 98,-180.7 64,-180.7"/>
<polygon fill="none" stroke="#000000" points="64,-180.7 64,-199.7 98,-199.7 98,-180.7 64,-180.7"/>
<text text-anchor="start" x="88.8862" y="-186.8" font-family="Helvetica,sans-Serif" font-size="11.00" fill="#000000"> &#160;</text>
<polygon fill="#ffffff" stroke="transparent" points="98,-180.7 98,-199.7 142,-199.7 142,-180.7 98,-180.7"/>
<polygon fill="none" stroke="#000000" points="98,-180.7 98,-199.7 142,-199.7 142,-180.7 98,-180.7"/>
<text text-anchor="start" x="123.4053" y="-186.8" font-family="Helvetica,sans-Serif" font-size="11.00" fill="#000000">5 &gt;</text>
</a>
</g>
</g>
<!-- allocation_audit&#45;&gt;audit_revision -->
<g id="edge1" class="edge">
<title>allocation_audit:w&#45;&gt;audit_revision:e</title>
<path fill="none" stroke="#000000" d="M340.7595,-753.9355C271.5051,-756.083 231.3769,-770.9615 183,-715.7 147.3048,-674.9249 196.1918,-229.7 142,-229.7"/>
<polygon fill="#000000" stroke="#000000" points="347.501,-753.8278 355.5575,-757.2995 351.5005,-753.7639 355.5,-753.7 355.5,-753.7 355.5,-753.7 351.5005,-753.7639 355.4425,-750.1005 347.501,-753.8278 347.501,-753.8278"/>
<ellipse fill="none" stroke="#000000" cx="344.3014" cy="-753.879" rx="3.2" ry="3.2"/>
</g>
<!-- prison_configuration_audit -->
<g id="node3" class="node">
<title>prison_configuration_audit</title>
<g id="a_node3"><a xlink:href="../../tables/prison_configuration_audit.html" xlink:title="prison_configuration_audit" target="_top">
<polygon fill="#ffffff" stroke="transparent" points="191,-284.7 191,-704.7 666,-704.7 666,-284.7 191,-284.7"/>
<polygon fill="#f5f5f5" stroke="transparent" points="193.5,-679.7 193.5,-702.7 664.5,-702.7 664.5,-679.7 193.5,-679.7"/>
<polygon fill="none" stroke="#000000" points="193.5,-679.7 193.5,-702.7 664.5,-702.7 664.5,-679.7 193.5,-679.7"/>
<text text-anchor="start" x="198.5" y="-688.3" font-family="Helvetica,sans-Serif" font-weight="bold" font-size="11.00" fill="#000000">prison_configuration_audit</text>
<text text-anchor="start" x="629.5437" y="-687.8" font-family="Helvetica,sans-Serif" font-size="11.00" fill="#000000">[table]</text>
<polygon fill="none" stroke="#000000" points="193.5,-657.7 193.5,-679.7 570.5,-679.7 570.5,-657.7 193.5,-657.7"/>
<image xlink:href="../../images/primaryKeys.png" width="11px" height="12px" preserveAspectRatio="xMinYMin meet" x="198.5" y="-674.7"/>
<text text-anchor="start" x="213.5" y="-664.8" font-family="Helvetica,sans-Serif" font-size="11.00" fill="#000000">rev_id</text>
<polygon fill="none" stroke="#000000" points="570.5,-657.7 570.5,-679.7 664.5,-679.7 664.5,-657.7 570.5,-657.7"/>
<text text-anchor="start" x="573.5" y="-665.4" font-family="Helvetica,sans-Serif" font-size="11.00" fill="#000000">int8[19]</text>
<polygon fill="none" stroke="#000000" points="193.5,-635.7 193.5,-657.7 570.5,-657.7 570.5,-635.7 193.5,-635.7"/>
<text text-anchor="start" x="213.5" y="-642.8" font-family="Helvetica,sans-Serif" font-size="11.00" fill="#000000">rev_type</text>
<polygon fill="none" stroke="#000000" points="570.5,-635.7 570.5,-657.7 664.5,-657.7 664.5,-635.7 570.5,-635.7"/>
<text text-anchor="start" x="573.5" y="-643.4" font-family="Helvetica,sans-Serif" font-size="11.00" fill="#000000">int2[5]</text>
<polygon fill="none" stroke="#000000" points="193.5,-613.7 193.5,-635.7 570.5,-635.7 570.5,-613.7 193.5,-613.7"/>
<image xlink:href="../../images/primaryKeys.png" width="11px" height="12px" preserveAspectRatio="xMinYMin meet" x="198.5" y="-630.7"/>
<text text-anchor="start" x="213.5" y="-620.8" font-family="Helvetica,sans-Serif" font-size="11.00" fill="#000000">id</text>
<polygon fill="none" stroke="#000000" points="570.5,-613.7 570.5,-635.7 664.5,-635.7 664.5,-613.7 570.5,-613.7"/>
<text text-anchor="start" x="573.4758" y="-621.4" font-family="Helvetica,sans-Serif" font-size="11.00" fill="#000000">uuid[2147483647]</text>
<polygon fill="none" stroke="#000000" points="193.5,-591.7 193.5,-613.7 570.5,-613.7 570.5,-591.7 193.5,-591.7"/>
<image xlink:href="../../images/foreignKeys.png" width="11px" height="12px" preserveAspectRatio="xMinYMin meet" x="198.5" y="-608.7"/>
<text text-anchor="start" x="213.5" y="-598.8" font-family="Helvetica,sans-Serif" font-size="11.00" fill="#000000">prison_code</text>
<polygon fill="none" stroke="#000000" points="570.5,-591.7 570.5,-613.7 664.5,-613.7 664.5,-591.7 570.5,-591.7"/>
<text text-anchor="start" x="573.5" y="-599.4" font-family="Helvetica,sans-Serif" font-size="11.00" fill="#000000">varchar[6]</text>
<polygon fill="none" stroke="#000000" points="193.5,-569.7 193.5,-591.7 570.5,-591.7 570.5,-569.7 193.5,-569.7"/>
<text text-anchor="start" x="213.5" y="-576.8" font-family="Helvetica,sans-Serif" font-size="11.00" fill="#000000">is_enabled</text>
<polygon fill="none" stroke="#000000" points="570.5,-569.7 570.5,-591.7 664.5,-591.7 664.5,-569.7 570.5,-569.7"/>
<text text-anchor="start" x="573.5" y="-577.4" font-family="Helvetica,sans-Serif" font-size="11.00" fill="#000000">bool[1]</text>
<polygon fill="none" stroke="#000000" points="193.5,-547.7 193.5,-569.7 570.5,-569.7 570.5,-547.7 193.5,-547.7"/>
<text text-anchor="start" x="213.5" y="-554.8" font-family="Helvetica,sans-Serif" font-size="11.00" fill="#000000">capacity</text>
<polygon fill="none" stroke="#000000" points="570.5,-547.7 570.5,-569.7 664.5,-569.7 664.5,-547.7 570.5,-547.7"/>
<text text-anchor="start" x="573.5" y="-555.4" font-family="Helvetica,sans-Serif" font-size="11.00" fill="#000000">int4[10]</text>
<polygon fill="none" stroke="#000000" points="193.5,-525.7 193.5,-547.7 570.5,-547.7 570.5,-525.7 193.5,-525.7"/>
<text text-anchor="start" x="213.5" y="-532.8" font-family="Helvetica,sans-Serif" font-size="11.00" fill="#000000">allow_auto_allocation</text>
<polygon fill="none" stroke="#000000" points="570.5,-525.7 570.5,-547.7 664.5,-547.7 664.5,-525.7 570.5,-525.7"/>
<text text-anchor="start" x="573.5" y="-533.4" font-family="Helvetica,sans-Serif" font-size="11.00" fill="#000000">bool[1]</text>
<polygon fill="none" stroke="#000000" points="193.5,-503.7 193.5,-525.7 570.5,-525.7 570.5,-503.7 193.5,-503.7"/>
<text text-anchor="start" x="213.5" y="-510.8" font-family="Helvetica,sans-Serif" font-size="11.00" fill="#000000">frequency_in_weeks</text>
<polygon fill="none" stroke="#000000" points="570.5,-503.7 570.5,-525.7 664.5,-525.7 664.5,-503.7 570.5,-503.7"/>
<text text-anchor="start" x="573.5" y="-511.4" font-family="Helvetica,sans-Serif" font-size="11.00" fill="#000000">int4[10]</text>
<polygon fill="none" stroke="#000000" points="193.5,-481.7 193.5,-503.7 570.5,-503.7 570.5,-481.7 193.5,-481.7"/>
<text text-anchor="start" x="213.5" y="-488.8" font-family="Helvetica,sans-Serif" font-size="11.00" fill="#000000">has_prisoners_with_high_complexity_needs</text>
<polygon fill="none" stroke="#000000" points="570.5,-481.7 570.5,-503.7 664.5,-503.7 664.5,-481.7 570.5,-481.7"/>
<text text-anchor="start" x="573.5" y="-489.4" font-family="Helvetica,sans-Serif" font-size="11.00" fill="#000000">bool[1]</text>
<polygon fill="none" stroke="#000000" points="193.5,-459.7 193.5,-481.7 570.5,-481.7 570.5,-459.7 193.5,-459.7"/>
<image xlink:href="../../images/foreignKeys.png" width="11px" height="12px" preserveAspectRatio="xMinYMin meet" x="198.5" y="-476.7"/>
<text text-anchor="start" x="213.5" y="-466.8" font-family="Helvetica,sans-Serif" font-size="11.00" fill="#000000">policy_code</text>
<polygon fill="none" stroke="#000000" points="570.5,-459.7 570.5,-481.7 664.5,-481.7 664.5,-459.7 570.5,-459.7"/>
<text text-anchor="start" x="573.5" y="-467.4" font-family="Helvetica,sans-Serif" font-size="11.00" fill="#000000">varchar[16]</text>
<polygon fill="none" stroke="#000000" points="193.5,-437.7 193.5,-459.7 570.5,-459.7 570.5,-437.7 193.5,-437.7"/>
<text text-anchor="start" x="213.5" y="-444.8" font-family="Helvetica,sans-Serif" font-size="11.00" fill="#000000">is_enabled_modified</text>
<polygon fill="none" stroke="#000000" points="570.5,-437.7 570.5,-459.7 664.5,-459.7 664.5,-437.7 570.5,-437.7"/>
<text text-anchor="start" x="573.5" y="-445.4" font-family="Helvetica,sans-Serif" font-size="11.00" fill="#000000">bool[1]</text>
<polygon fill="none" stroke="#000000" points="193.5,-415.7 193.5,-437.7 570.5,-437.7 570.5,-415.7 193.5,-415.7"/>
<text text-anchor="start" x="213.5" y="-422.8" font-family="Helvetica,sans-Serif" font-size="11.00" fill="#000000">capacity_modified</text>
<polygon fill="none" stroke="#000000" points="570.5,-415.7 570.5,-437.7 664.5,-437.7 664.5,-415.7 570.5,-415.7"/>
<text text-anchor="start" x="573.5" y="-423.4" font-family="Helvetica,sans-Serif" font-size="11.00" fill="#000000">bool[1]</text>
<polygon fill="none" stroke="#000000" points="193.5,-393.7 193.5,-415.7 570.5,-415.7 570.5,-393.7 193.5,-393.7"/>
<text text-anchor="start" x="213.5" y="-400.8" font-family="Helvetica,sans-Serif" font-size="11.00" fill="#000000">allow_auto_allocation_modified</text>
<polygon fill="none" stroke="#000000" points="570.5,-393.7 570.5,-415.7 664.5,-415.7 664.5,-393.7 570.5,-393.7"/>
<text text-anchor="start" x="573.5" y="-401.4" font-family="Helvetica,sans-Serif" font-size="11.00" fill="#000000">bool[1]</text>
<polygon fill="none" stroke="#000000" points="193.5,-371.7 193.5,-393.7 570.5,-393.7 570.5,-371.7 193.5,-371.7"/>
<text text-anchor="start" x="213.5" y="-378.8" font-family="Helvetica,sans-Serif" font-size="11.00" fill="#000000">frequency_in_weeks_modified</text>
<polygon fill="none" stroke="#000000" points="570.5,-371.7 570.5,-393.7 664.5,-393.7 664.5,-371.7 570.5,-371.7"/>
<text text-anchor="start" x="573.5" y="-379.4" font-family="Helvetica,sans-Serif" font-size="11.00" fill="#000000">bool[1]</text>
<polygon fill="none" stroke="#000000" points="193.5,-349.7 193.5,-371.7 570.5,-371.7 570.5,-349.7 193.5,-349.7"/>
<text text-anchor="start" x="213.5" y="-356.8" font-family="Helvetica,sans-Serif" font-size="11.00" fill="#000000">has_prisoners_with_high_complexity_needs_modified</text>
<polygon fill="none" stroke="#000000" points="570.5,-349.7 570.5,-371.7 664.5,-371.7 664.5,-349.7 570.5,-349.7"/>
<text text-anchor="start" x="573.5" y="-357.4" font-family="Helvetica,sans-Serif" font-size="11.00" fill="#000000">bool[1]</text>
<polygon fill="none" stroke="#000000" points="193.5,-327.7 193.5,-349.7 570.5,-349.7 570.5,-327.7 193.5,-327.7"/>
<text text-anchor="start" x="213.5" y="-334.8" font-family="Helvetica,sans-Serif" font-size="11.00" fill="#000000">allocation_order</text>
<polygon fill="none" stroke="#000000" points="570.5,-327.7 570.5,-349.7 664.5,-349.7 664.5,-327.7 570.5,-327.7"/>
<text text-anchor="start" x="573.5" y="-335.4" font-family="Helvetica,sans-Serif" font-size="11.00" fill="#000000">varchar[15]</text>
<polygon fill="none" stroke="#000000" points="193.5,-305.7 193.5,-327.7 570.5,-327.7 570.5,-305.7 193.5,-305.7"/>
<text text-anchor="start" x="213.5" y="-312.8" font-family="Helvetica,sans-Serif" font-size="11.00" fill="#000000">allocation_order_modified</text>
<polygon fill="none" stroke="#000000" points="570.5,-305.7 570.5,-327.7 664.5,-327.7 664.5,-305.7 570.5,-305.7"/>
<text text-anchor="start" x="573.5" y="-313.4" font-family="Helvetica,sans-Serif" font-size="11.00" fill="#000000">bool[1]</text>
<polygon fill="#ffffff" stroke="transparent" points="193.5,-286.7 193.5,-305.7 386.5,-305.7 386.5,-286.7 193.5,-286.7"/>
<polygon fill="none" stroke="#000000" points="193.5,-286.7 193.5,-305.7 386.5,-305.7 386.5,-286.7 193.5,-286.7"/>
<text text-anchor="start" x="196.5" y="-292.8" font-family="Helvetica,sans-Serif" font-size="11.00" fill="#000000">&lt; 1</text>
<polygon fill="#ffffff" stroke="transparent" points="386.5,-286.7 386.5,-305.7 570.5,-305.7 570.5,-286.7 386.5,-286.7"/>
<polygon fill="none" stroke="#000000" points="386.5,-286.7 386.5,-305.7 570.5,-305.7 570.5,-286.7 386.5,-286.7"/>
<text text-anchor="start" x="561.3862" y="-292.8" font-family="Helvetica,sans-Serif" font-size="11.00" fill="#000000"> &#160;</text>
<polygon fill="#ffffff" stroke="transparent" points="570.5,-286.7 570.5,-305.7 664.5,-305.7 664.5,-286.7 570.5,-286.7"/>
<polygon fill="none" stroke="#000000" points="570.5,-286.7 570.5,-305.7 664.5,-305.7 664.5,-286.7 570.5,-286.7"/>
<text text-anchor="start" x="645.9053" y="-292.8" font-family="Helvetica,sans-Serif" font-size="11.00" fill="#000000">0 &gt;</text>
<polygon fill="none" stroke="#000000" stroke-width="2" points="192,-285.7 192,-703.7 665,-703.7 665,-285.7 192,-285.7"/>
</a>
</g>
</g>
<!-- prison_configuration_audit&#45;&gt;audit_revision -->
<g id="edge2" class="edge">
<title>prison_configuration_audit:w&#45;&gt;audit_revision:e</title>
<path fill="none" stroke="#000000" d="M179.4873,-664.9048C110.402,-621.9973 234.8529,-229.7 142,-229.7"/>
<polygon fill="#000000" stroke="#000000" points="185.7782,-666.6086 192.5589,-672.1748 189.6391,-667.6543 193.5,-668.7 193.5,-668.7 193.5,-668.7 189.6391,-667.6543 194.4411,-665.2252 185.7782,-666.6086 185.7782,-666.6086"/>
<ellipse fill="none" stroke="#000000" cx="182.6895" cy="-665.772" rx="3.2" ry="3.2"/>
</g>
<!-- recorded_event_audit -->
<g id="node4" class="node">
<title>recorded_event_audit</title>
<g id="a_node4"><a xlink:href="../../tables/recorded_event_audit.html" xlink:title="recorded_event_audit" target="_top">
<polygon fill="#ffffff" stroke="transparent" points="336,-202.2 336,-263.2 521,-263.2 521,-202.2 336,-202.2"/>
<polygon fill="#f5f5f5" stroke="transparent" points="336.5,-239.7 336.5,-262.7 521.5,-262.7 521.5,-239.7 336.5,-239.7"/>
<polygon fill="none" stroke="#000000" points="336.5,-239.7 336.5,-262.7 521.5,-262.7 521.5,-239.7 336.5,-239.7"/>
<text text-anchor="start" x="341.5" y="-248.3" font-family="Helvetica,sans-Serif" font-weight="bold" font-size="11.00" fill="#000000">recorded_event_audit</text>
<text text-anchor="start" x="487.0219" y="-247.8" font-family="Helvetica,sans-Serif" font-size="11.00" fill="#000000">[table]</text>
<polygon fill="none" stroke="#000000" points="336.5,-220.7 336.5,-239.7 521.5,-239.7 521.5,-220.7 336.5,-220.7"/>
<text text-anchor="start" x="339.5" y="-226.8" font-family="Helvetica,sans-Serif" font-size="11.00" fill="#000000">...</text>
<polygon fill="#ffffff" stroke="transparent" points="336.5,-201.7 336.5,-220.7 427.5,-220.7 427.5,-201.7 336.5,-201.7"/>
<polygon fill="none" stroke="#000000" points="336.5,-201.7 336.5,-220.7 427.5,-220.7 427.5,-201.7 336.5,-201.7"/>
<text text-anchor="start" x="339.5" y="-207.8" font-family="Helvetica,sans-Serif" font-size="11.00" fill="#000000">&lt; 2</text>
<polygon fill="#ffffff" stroke="transparent" points="427.5,-201.7 427.5,-220.7 474.5,-220.7 474.5,-201.7 427.5,-201.7"/>
<polygon fill="none" stroke="#000000" points="427.5,-201.7 427.5,-220.7 474.5,-220.7 474.5,-201.7 427.5,-201.7"/>
<text text-anchor="start" x="465.3862" y="-207.8" font-family="Helvetica,sans-Serif" font-size="11.00" fill="#000000"> &#160;</text>
<polygon fill="#ffffff" stroke="transparent" points="474.5,-201.7 474.5,-220.7 521.5,-220.7 521.5,-201.7 474.5,-201.7"/>
<polygon fill="none" stroke="#000000" points="474.5,-201.7 474.5,-220.7 521.5,-220.7 521.5,-201.7 474.5,-201.7"/>
<text text-anchor="start" x="512.3862" y="-207.8" font-family="Helvetica,sans-Serif" font-size="11.00" fill="#000000"> &#160;</text>
</a>
</g>
</g>
<!-- recorded_event_audit&#45;&gt;audit_revision -->
<g id="edge3" class="edge">
<title>recorded_event_audit:w&#45;&gt;audit_revision:e</title>
<path fill="none" stroke="#000000" d="M321.9464,-229.7C247.3004,-229.7 223.3793,-229.7 142,-229.7"/>
<polygon fill="#000000" stroke="#000000" points="328.5,-229.7001 336.5,-233.3 332.5,-229.7 336.5,-229.7 336.5,-229.7 336.5,-229.7 332.5,-229.7 336.5,-226.1 328.5,-229.7001 328.5,-229.7001"/>
<ellipse fill="none" stroke="#000000" cx="325.3" cy="-229.7001" rx="3.2" ry="3.2"/>
</g>
<!-- staff_configuration_audit -->
<g id="node5" class="node">
<title>staff_configuration_audit</title>
<g id="a_node5"><a xlink:href="../../tables/staff_configuration_audit.html" xlink:title="staff_configuration_audit" target="_top">
<polygon fill="#ffffff" stroke="transparent" points="324.5,-120.2 324.5,-181.2 532.5,-181.2 532.5,-120.2 324.5,-120.2"/>
<polygon fill="#f5f5f5" stroke="transparent" points="324.5,-157.7 324.5,-180.7 532.5,-180.7 532.5,-157.7 324.5,-157.7"/>
<polygon fill="none" stroke="#000000" points="324.5,-157.7 324.5,-180.7 532.5,-180.7 532.5,-157.7 324.5,-157.7"/>
<text text-anchor="start" x="329.5" y="-166.3" font-family="Helvetica,sans-Serif" font-weight="bold" font-size="11.00" fill="#000000">staff_configuration_audit</text>
<text text-anchor="start" x="498.0219" y="-165.8" font-family="Helvetica,sans-Serif" font-size="11.00" fill="#000000">[table]</text>
<polygon fill="none" stroke="#000000" points="324.5,-138.7 324.5,-157.7 532.5,-157.7 532.5,-138.7 324.5,-138.7"/>
<text text-anchor="start" x="327.5" y="-144.8" font-family="Helvetica,sans-Serif" font-size="11.00" fill="#000000">...</text>
<polygon fill="#ffffff" stroke="transparent" points="324.5,-119.7 324.5,-138.7 426.5,-138.7 426.5,-119.7 324.5,-119.7"/>
<polygon fill="none" stroke="#000000" points="324.5,-119.7 324.5,-138.7 426.5,-138.7 426.5,-119.7 324.5,-119.7"/>
<text text-anchor="start" x="327.5" y="-125.8" font-family="Helvetica,sans-Serif" font-size="11.00" fill="#000000">&lt; 1</text>
<polygon fill="#ffffff" stroke="transparent" points="426.5,-119.7 426.5,-138.7 479.5,-138.7 479.5,-119.7 426.5,-119.7"/>
<polygon fill="none" stroke="#000000" points="426.5,-119.7 426.5,-138.7 479.5,-138.7 479.5,-119.7 426.5,-119.7"/>
<text text-anchor="start" x="470.3862" y="-125.8" font-family="Helvetica,sans-Serif" font-size="11.00" fill="#000000"> &#160;</text>
<polygon fill="#ffffff" stroke="transparent" points="479.5,-119.7 479.5,-138.7 532.5,-138.7 532.5,-119.7 479.5,-119.7"/>
<polygon fill="none" stroke="#000000" points="479.5,-119.7 479.5,-138.7 532.5,-138.7 532.5,-119.7 479.5,-119.7"/>
<text text-anchor="start" x="523.3862" y="-125.8" font-family="Helvetica,sans-Serif" font-size="11.00" fill="#000000"> &#160;</text>
</a>
</g>
</g>
<!-- staff_configuration_audit&#45;&gt;audit_revision -->
<g id="edge4" class="edge">
<title>staff_configuration_audit:w&#45;&gt;audit_revision:e</title>
<path fill="none" stroke="#000000" d="M309.8882,-147.907C255.4951,-149.5561 235.5537,-161.2978 183,-191.7 161.4941,-204.1411 166.8452,-229.7 142,-229.7"/>
<polygon fill="#000000" stroke="#000000" points="316.5008,-147.8134 324.551,-151.2996 320.5004,-147.7567 324.5,-147.7 324.5,-147.7 324.5,-147.7 320.5004,-147.7567 324.449,-144.1004 316.5008,-147.8134 316.5008,-147.8134"/>
<ellipse fill="none" stroke="#000000" cx="313.3011" cy="-147.8587" rx="3.2" ry="3.2"/>
</g>
<!-- staff_role_audit -->
<g id="node6" class="node">
<title>staff_role_audit</title>
<g id="a_node6"><a xlink:href="../../tables/staff_role_audit.html" xlink:title="staff_role_audit" target="_top">
<polygon fill="#ffffff" stroke="transparent" points="357,-38.2 357,-99.2 500,-99.2 500,-38.2 357,-38.2"/>
<polygon fill="#f5f5f5" stroke="transparent" points="357.5,-75.7 357.5,-98.7 500.5,-98.7 500.5,-75.7 357.5,-75.7"/>
<polygon fill="none" stroke="#000000" points="357.5,-75.7 357.5,-98.7 500.5,-98.7 500.5,-75.7 357.5,-75.7"/>
<text text-anchor="start" x="362.5" y="-84.3" font-family="Helvetica,sans-Serif" font-weight="bold" font-size="11.00" fill="#000000">staff_role_audit</text>
<text text-anchor="start" x="466.0219" y="-83.8" font-family="Helvetica,sans-Serif" font-size="11.00" fill="#000000">[table]</text>
<polygon fill="none" stroke="#000000" points="357.5,-56.7 357.5,-75.7 500.5,-75.7 500.5,-56.7 357.5,-56.7"/>
<text text-anchor="start" x="360.5" y="-62.8" font-family="Helvetica,sans-Serif" font-size="11.00" fill="#000000">...</text>
<polygon fill="#ffffff" stroke="transparent" points="357.5,-37.7 357.5,-56.7 427.5,-56.7 427.5,-37.7 357.5,-37.7"/>
<polygon fill="none" stroke="#000000" points="357.5,-37.7 357.5,-56.7 427.5,-56.7 427.5,-37.7 357.5,-37.7"/>
<text text-anchor="start" x="360.5" y="-43.8" font-family="Helvetica,sans-Serif" font-size="11.00" fill="#000000">&lt; 1</text>
<polygon fill="#ffffff" stroke="transparent" points="427.5,-37.7 427.5,-56.7 463.5,-56.7 463.5,-37.7 427.5,-37.7"/>
<polygon fill="none" stroke="#000000" points="427.5,-37.7 427.5,-56.7 463.5,-56.7 463.5,-37.7 427.5,-37.7"/>
<text text-anchor="start" x="454.3862" y="-43.8" font-family="Helvetica,sans-Serif" font-size="11.00" fill="#000000"> &#160;</text>
<polygon fill="#ffffff" stroke="transparent" points="463.5,-37.7 463.5,-56.7 500.5,-56.7 500.5,-37.7 463.5,-37.7"/>
<polygon fill="none" stroke="#000000" points="463.5,-37.7 463.5,-56.7 500.5,-56.7 500.5,-37.7 463.5,-37.7"/>
<text text-anchor="start" x="491.3862" y="-43.8" font-family="Helvetica,sans-Serif" font-size="11.00" fill="#000000"> &#160;</text>
</a>
</g>
</g>
<!-- staff_role_audit&#45;&gt;audit_revision -->
<g id="edge5" class="edge">
<title>staff_role_audit:w&#45;&gt;audit_revision:e</title>
<path fill="none" stroke="#000000" d="M343.0059,-65.5989C272.9661,-64.6784 238.1564,-58.9025 183,-109.7 141.5427,-147.881 198.3604,-229.7 142,-229.7"/>
<polygon fill="#000000" stroke="#000000" points="349.5002,-65.6441 357.4749,-69.2999 353.5001,-65.6721 357.5,-65.7 357.5,-65.7 357.5,-65.7 353.5001,-65.6721 357.5251,-62.1001 349.5002,-65.6441 349.5002,-65.6441"/>
<ellipse fill="none" stroke="#000000" cx="346.3003" cy="-65.6218" rx="3.2" ry="3.2"/>
</g>
</g>
</svg>
