<?xml version="1.0" encoding="UTF-8" standalone="no"?>
<!DOCTYPE svg PUBLIC "-//W3C//DTD SVG 1.1//EN"
 "http://www.w3.org/Graphics/SVG/1.1/DTD/svg11.dtd">
<!-- Generated by graphviz version 2.40.1 (20161225.0304)
 -->
<!-- Title: twoDegreesRelationshipsDiagram Pages: 1 -->
<svg width="580pt" height="459pt"
 viewBox="0.00 0.00 580.00 459.20" xmlns="http://www.w3.org/2000/svg" xmlns:xlink="http://www.w3.org/1999/xlink">
<g id="graph0" class="graph" transform="scale(1 1) rotate(0) translate(4 455.2)">
<title>twoDegreesRelationshipsDiagram</title>
<polygon fill="#ffffff" stroke="transparent" points="-4,4 -4,-455.2 576,-455.2 576,4 -4,4"/>
<text text-anchor="middle" x="72.4936" y="-7.3" font-family="Helvetica,sans-Serif" font-size="11.00" fill="#000000">Generated by SchemaSpy</text>
<!-- allocation -->
<g id="node1" class="node">
<title>allocation</title>
<g id="a_node1"><a xlink:href="../../tables/allocation.html" xlink:title="allocation" target="_top">
<polygon fill="#ffffff" stroke="transparent" points="306.5,-386.2 306.5,-447.2 411.5,-447.2 411.5,-386.2 306.5,-386.2"/>
<polygon fill="#f5f5f5" stroke="transparent" points="307,-423.7 307,-446.7 412,-446.7 412,-423.7 307,-423.7"/>
<polygon fill="none" stroke="#000000" points="307,-423.7 307,-446.7 412,-446.7 412,-423.7 307,-423.7"/>
<text text-anchor="start" x="312" y="-432.3" font-family="Helvetica,sans-Serif" font-weight="bold" font-size="11.00" fill="#000000">allocation</text>
<text text-anchor="start" x="377.5219" y="-431.8" font-family="Helvetica,sans-Serif" font-size="11.00" fill="#000000">[table]</text>
<polygon fill="none" stroke="#000000" points="307,-404.7 307,-423.7 412,-423.7 412,-404.7 307,-404.7"/>
<text text-anchor="start" x="310" y="-410.8" font-family="Helvetica,sans-Serif" font-size="11.00" fill="#000000">...</text>
<polygon fill="#ffffff" stroke="transparent" points="307,-385.7 307,-404.7 358,-404.7 358,-385.7 307,-385.7"/>
<polygon fill="none" stroke="#000000" points="307,-385.7 307,-404.7 358,-404.7 358,-385.7 307,-385.7"/>
<text text-anchor="start" x="310" y="-391.8" font-family="Helvetica,sans-Serif" font-size="11.00" fill="#000000">&lt; 3</text>
<polygon fill="#ffffff" stroke="transparent" points="358,-385.7 358,-404.7 385,-404.7 385,-385.7 358,-385.7"/>
<polygon fill="none" stroke="#000000" points="358,-385.7 358,-404.7 385,-404.7 385,-385.7 358,-385.7"/>
<text text-anchor="start" x="375.8862" y="-391.8" font-family="Helvetica,sans-Serif" font-size="11.00" fill="#000000"> &#160;</text>
<polygon fill="#ffffff" stroke="transparent" points="385,-385.7 385,-404.7 412,-404.7 412,-385.7 385,-385.7"/>
<polygon fill="none" stroke="#000000" points="385,-385.7 385,-404.7 412,-404.7 412,-385.7 385,-385.7"/>
<text text-anchor="start" x="402.8862" y="-391.8" font-family="Helvetica,sans-Serif" font-size="11.00" fill="#000000"> &#160;</text>
</a>
</g>
</g>
<!-- policy -->
<g id="node2" class="node">
<title>policy</title>
<g id="a_node2"><a xlink:href="../../tables/policy.html" xlink:title="policy" target="_top">
<polygon fill="#ffffff" stroke="transparent" points="8,-126.2 8,-209.2 105,-209.2 105,-126.2 8,-126.2"/>
<polygon fill="#f5f5f5" stroke="transparent" points="8.5,-185.7 8.5,-208.7 105.5,-208.7 105.5,-185.7 8.5,-185.7"/>
<polygon fill="none" stroke="#000000" points="8.5,-185.7 8.5,-208.7 105.5,-208.7 105.5,-185.7 8.5,-185.7"/>
<text text-anchor="start" x="13.5" y="-194.3" font-family="Helvetica,sans-Serif" font-weight="bold" font-size="11.00" fill="#000000">policy</text>
<text text-anchor="start" x="70.5437" y="-193.8" font-family="Helvetica,sans-Serif" font-size="11.00" fill="#000000">[table]</text>
<polygon fill="none" stroke="#000000" points="8.5,-163.7 8.5,-185.7 105.5,-185.7 105.5,-163.7 8.5,-163.7"/>
<image xlink:href="../../images/primaryKeys.png" width="11px" height="12px" preserveAspectRatio="xMinYMin meet" x="13.5" y="-180.7"/>
<text text-anchor="start" x="28.5" y="-170.8" font-family="Helvetica,sans-Serif" font-size="11.00" fill="#000000">code</text>
<polygon fill="none" stroke="#000000" points="8.5,-144.7 8.5,-163.7 105.5,-163.7 105.5,-144.7 8.5,-144.7"/>
<text text-anchor="start" x="11.5" y="-150.8" font-family="Helvetica,sans-Serif" font-size="11.00" fill="#000000">...</text>
<polygon fill="#ffffff" stroke="transparent" points="8.5,-125.7 8.5,-144.7 46.5,-144.7 46.5,-125.7 8.5,-125.7"/>
<polygon fill="none" stroke="#000000" points="8.5,-125.7 8.5,-144.7 46.5,-144.7 46.5,-125.7 8.5,-125.7"/>
<text text-anchor="start" x="11.5" y="-131.8" font-family="Helvetica,sans-Serif" font-size="11.00" fill="#000000"> &#160;</text>
<polygon fill="#ffffff" stroke="transparent" points="46.5,-125.7 46.5,-144.7 71.5,-144.7 71.5,-125.7 46.5,-125.7"/>
<polygon fill="none" stroke="#000000" points="46.5,-125.7 46.5,-144.7 71.5,-144.7 71.5,-125.7 46.5,-125.7"/>
<text text-anchor="start" x="62.3862" y="-131.8" font-family="Helvetica,sans-Serif" font-size="11.00" fill="#000000"> &#160;</text>
<polygon fill="#ffffff" stroke="transparent" points="71.5,-125.7 71.5,-144.7 105.5,-144.7 105.5,-125.7 71.5,-125.7"/>
<polygon fill="none" stroke="#000000" points="71.5,-125.7 71.5,-144.7 105.5,-144.7 105.5,-125.7 71.5,-125.7"/>
<text text-anchor="start" x="86.9053" y="-131.8" font-family="Helvetica,sans-Serif" font-size="11.00" fill="#000000">3 &gt;</text>
</a>
</g>
</g>
<!-- allocation&#45;&gt;policy -->
<g id="edge1" class="edge">
<title>allocation:w&#45;&gt;policy:e</title>
<path fill="none" stroke="#000000" d="M292.4268,-413.8816C228.439,-415.4123 193.6293,-424.9252 146,-375.7 82.6327,-310.2094 196.6287,-174.7 105.5,-174.7"/>
<polygon fill="#000000" stroke="#000000" points="299.0006,-413.7998 307.0449,-417.2997 303.0003,-413.7499 307,-413.7 307,-413.7 307,-413.7 303.0003,-413.7499 306.9551,-410.1003 299.0006,-413.7998 299.0006,-413.7998"/>
<ellipse fill="none" stroke="#000000" cx="295.8009" cy="-413.8397" rx="3.2" ry="3.2"/>
</g>
<!-- prison_configuration -->
<g id="node3" class="node">
<title>prison_configuration</title>
<g id="a_node3"><a xlink:href="../../tables/prison_configuration.html" xlink:title="prison_configuration" target="_top">
<polygon fill="#ffffff" stroke="transparent" points="154,-120.7 154,-364.7 564,-364.7 564,-120.7 154,-120.7"/>
<polygon fill="#f5f5f5" stroke="transparent" points="156,-339.7 156,-362.7 562,-362.7 562,-339.7 156,-339.7"/>
<polygon fill="none" stroke="#000000" points="156,-339.7 156,-362.7 562,-362.7 562,-339.7 156,-339.7"/>
<text text-anchor="start" x="161" y="-348.3" font-family="Helvetica,sans-Serif" font-weight="bold" font-size="11.00" fill="#000000">prison_configuration</text>
<text text-anchor="start" x="527.0437" y="-347.8" font-family="Helvetica,sans-Serif" font-size="11.00" fill="#000000">[table]</text>
<polygon fill="#ffffff" stroke="transparent" points="156,-317.7 156,-339.7 468,-339.7 468,-317.7 156,-317.7"/>
<polygon fill="none" stroke="#000000" points="156,-317.7 156,-339.7 468,-339.7 468,-317.7 156,-317.7"/>
<image xlink:href="../../images/foreignKeys.png" width="11px" height="12px" preserveAspectRatio="xMinYMin meet" x="161" y="-334.7"/>
<text text-anchor="start" x="176" y="-324.8" font-family="Helvetica,sans-Serif" font-size="11.00" fill="#000000">prison_code</text>
<polygon fill="none" stroke="#000000" points="468,-317.7 468,-339.7 562,-339.7 562,-317.7 468,-317.7"/>
<text text-anchor="start" x="471" y="-325.4" font-family="Helvetica,sans-Serif" font-size="11.00" fill="#000000">varchar[6]</text>
<polygon fill="none" stroke="#000000" points="156,-295.7 156,-317.7 468,-317.7 468,-295.7 156,-295.7"/>
<text text-anchor="start" x="176" y="-302.8" font-family="Helvetica,sans-Serif" font-size="11.00" fill="#000000">allow_auto_allocation</text>
<polygon fill="none" stroke="#000000" points="468,-295.7 468,-317.7 562,-317.7 562,-295.7 468,-295.7"/>
<text text-anchor="start" x="471" y="-303.4" font-family="Helvetica,sans-Serif" font-size="11.00" fill="#000000">bool[1]</text>
<polygon fill="none" stroke="#000000" points="156,-273.7 156,-295.7 468,-295.7 468,-273.7 156,-273.7"/>
<text text-anchor="start" x="176" y="-280.8" font-family="Helvetica,sans-Serif" font-size="11.00" fill="#000000">is_enabled</text>
<polygon fill="none" stroke="#000000" points="468,-273.7 468,-295.7 562,-295.7 562,-273.7 468,-273.7"/>
<text text-anchor="start" x="471" y="-281.4" font-family="Helvetica,sans-Serif" font-size="11.00" fill="#000000">bool[1]</text>
<polygon fill="none" stroke="#000000" points="156,-251.7 156,-273.7 468,-273.7 468,-251.7 156,-251.7"/>
<text text-anchor="start" x="176" y="-258.8" font-family="Helvetica,sans-Serif" font-size="11.00" fill="#000000">capacity</text>
<polygon fill="none" stroke="#000000" points="468,-251.7 468,-273.7 562,-273.7 562,-251.7 468,-251.7"/>
<text text-anchor="start" x="471" y="-259.4" font-family="Helvetica,sans-Serif" font-size="11.00" fill="#000000">int4[10]</text>
<polygon fill="none" stroke="#000000" points="156,-229.7 156,-251.7 468,-251.7 468,-229.7 156,-229.7"/>
<text text-anchor="start" x="176" y="-236.8" font-family="Helvetica,sans-Serif" font-size="11.00" fill="#000000">maximum_capacity</text>
<polygon fill="none" stroke="#000000" points="468,-229.7 468,-251.7 562,-251.7 562,-229.7 468,-229.7"/>
<text text-anchor="start" x="471" y="-237.4" font-family="Helvetica,sans-Serif" font-size="11.00" fill="#000000">int4[10]</text>
<polygon fill="none" stroke="#000000" points="156,-207.7 156,-229.7 468,-229.7 468,-207.7 156,-207.7"/>
<text text-anchor="start" x="176" y="-214.8" font-family="Helvetica,sans-Serif" font-size="11.00" fill="#000000">frequency_in_weeks</text>
<polygon fill="none" stroke="#000000" points="468,-207.7 468,-229.7 562,-229.7 562,-207.7 468,-207.7"/>
<text text-anchor="start" x="471" y="-215.4" font-family="Helvetica,sans-Serif" font-size="11.00" fill="#000000">int4[10]</text>
<polygon fill="none" stroke="#000000" points="156,-185.7 156,-207.7 468,-207.7 468,-185.7 156,-185.7"/>
<text text-anchor="start" x="176" y="-192.8" font-family="Helvetica,sans-Serif" font-size="11.00" fill="#000000">has_prisoners_with_high_complexity_needs</text>
<polygon fill="none" stroke="#000000" points="468,-185.7 468,-207.7 562,-207.7 562,-185.7 468,-185.7"/>
<text text-anchor="start" x="471" y="-193.4" font-family="Helvetica,sans-Serif" font-size="11.00" fill="#000000">bool[1]</text>
<polygon fill="#ffffff" stroke="transparent" points="156,-163.7 156,-185.7 468,-185.7 468,-163.7 156,-163.7"/>
<polygon fill="none" stroke="#000000" points="156,-163.7 156,-185.7 468,-185.7 468,-163.7 156,-163.7"/>
<image xlink:href="../../images/foreignKeys.png" width="11px" height="12px" preserveAspectRatio="xMinYMin meet" x="161" y="-180.7"/>
<text text-anchor="start" x="176" y="-170.8" font-family="Helvetica,sans-Serif" font-size="11.00" fill="#000000">policy_code</text>
<polygon fill="none" stroke="#000000" points="468,-163.7 468,-185.7 562,-185.7 562,-163.7 468,-163.7"/>
<text text-anchor="start" x="471" y="-171.4" font-family="Helvetica,sans-Serif" font-size="11.00" fill="#000000">varchar[16]</text>
<polygon fill="none" stroke="#000000" points="156,-141.7 156,-163.7 468,-163.7 468,-141.7 156,-141.7"/>
<image xlink:href="../../images/primaryKeys.png" width="11px" height="12px" preserveAspectRatio="xMinYMin meet" x="161" y="-158.7"/>
<text text-anchor="start" x="176" y="-148.8" font-family="Helvetica,sans-Serif" font-size="11.00" fill="#000000">id</text>
<polygon fill="none" stroke="#000000" points="468,-141.7 468,-163.7 562,-163.7 562,-141.7 468,-141.7"/>
<text text-anchor="start" x="470.9758" y="-149.4" font-family="Helvetica,sans-Serif" font-size="11.00" fill="#000000">uuid[2147483647]</text>
<polygon fill="#ffffff" stroke="transparent" points="156,-122.7 156,-141.7 300,-141.7 300,-122.7 156,-122.7"/>
<polygon fill="none" stroke="#000000" points="156,-122.7 156,-141.7 300,-141.7 300,-122.7 156,-122.7"/>
<text text-anchor="start" x="159" y="-128.8" font-family="Helvetica,sans-Serif" font-size="11.00" fill="#000000">&lt; 1</text>
<polygon fill="#ffffff" stroke="transparent" points="300,-122.7 300,-141.7 468,-141.7 468,-122.7 300,-122.7"/>
<polygon fill="none" stroke="#000000" points="300,-122.7 300,-141.7 468,-141.7 468,-122.7 300,-122.7"/>
<text text-anchor="start" x="426.4956" y="-128.8" font-family="Helvetica,sans-Serif" font-size="11.00" fill="#000000">12 rows</text>
<polygon fill="#ffffff" stroke="transparent" points="468,-122.7 468,-141.7 562,-141.7 562,-122.7 468,-122.7"/>
<polygon fill="none" stroke="#000000" points="468,-122.7 468,-141.7 562,-141.7 562,-122.7 468,-122.7"/>
<text text-anchor="start" x="543.4053" y="-128.8" font-family="Helvetica,sans-Serif" font-size="11.00" fill="#000000">0 &gt;</text>
<polygon fill="none" stroke="#000000" stroke-width="2" points="155,-121.7 155,-363.7 563,-363.7 563,-121.7 155,-121.7"/>
</a>
</g>
</g>
<!-- prison_configuration&#45;&gt;policy -->
<g id="edge2" class="edge">
<title>prison_configuration:w&#45;&gt;policy:e</title>
<path fill="none" stroke="#000000" d="M141.4203,-174.7C129.5435,-174.7 122.158,-174.7 105.5,-174.7"/>
<polygon fill="#000000" stroke="#000000" points="148,-174.7001 156,-178.3 152,-174.7 156,-174.7 156,-174.7 156,-174.7 152,-174.7 156,-171.1 148,-174.7001 148,-174.7001"/>
<ellipse fill="none" stroke="#000000" cx="144.8" cy="-174.7001" rx="3.2" ry="3.2"/>
</g>
<!-- staff_configuration -->
<g id="node4" class="node">
<title>staff_configuration</title>
<g id="a_node4"><a xlink:href="../../tables/staff_configuration.html" xlink:title="staff_configuration" target="_top">
<polygon fill="#ffffff" stroke="transparent" points="275.5,-38.2 275.5,-99.2 442.5,-99.2 442.5,-38.2 275.5,-38.2"/>
<polygon fill="#f5f5f5" stroke="transparent" points="276,-75.7 276,-98.7 443,-98.7 443,-75.7 276,-75.7"/>
<polygon fill="none" stroke="#000000" points="276,-75.7 276,-98.7 443,-98.7 443,-75.7 276,-75.7"/>
<text text-anchor="start" x="281" y="-84.3" font-family="Helvetica,sans-Serif" font-weight="bold" font-size="11.00" fill="#000000">staff_configuration</text>
<text text-anchor="start" x="408.5219" y="-83.8" font-family="Helvetica,sans-Serif" font-size="11.00" fill="#000000">[table]</text>
<polygon fill="none" stroke="#000000" points="276,-56.7 276,-75.7 443,-75.7 443,-56.7 276,-56.7"/>
<text text-anchor="start" x="279" y="-62.8" font-family="Helvetica,sans-Serif" font-size="11.00" fill="#000000">...</text>
<polygon fill="#ffffff" stroke="transparent" points="276,-37.7 276,-56.7 358,-56.7 358,-37.7 276,-37.7"/>
<polygon fill="none" stroke="#000000" points="276,-37.7 276,-56.7 358,-56.7 358,-37.7 276,-37.7"/>
<text text-anchor="start" x="279" y="-43.8" font-family="Helvetica,sans-Serif" font-size="11.00" fill="#000000">&lt; 2</text>
<polygon fill="#ffffff" stroke="transparent" points="358,-37.7 358,-56.7 400,-56.7 400,-37.7 358,-37.7"/>
<polygon fill="none" stroke="#000000" points="358,-37.7 358,-56.7 400,-56.7 400,-37.7 358,-37.7"/>
<text text-anchor="start" x="390.8862" y="-43.8" font-family="Helvetica,sans-Serif" font-size="11.00" fill="#000000"> &#160;</text>
<polygon fill="#ffffff" stroke="transparent" points="400,-37.7 400,-56.7 443,-56.7 443,-37.7 400,-37.7"/>
<polygon fill="none" stroke="#000000" points="400,-37.7 400,-56.7 443,-56.7 443,-37.7 400,-37.7"/>
<text text-anchor="start" x="433.8862" y="-43.8" font-family="Helvetica,sans-Serif" font-size="11.00" fill="#000000"> &#160;</text>
</a>
</g>
</g>
<!-- staff_configuration&#45;&gt;policy -->
<g id="edge3" class="edge">
<title>staff_configuration:w&#45;&gt;policy:e</title>
<path fill="none" stroke="#000000" d="M261.4063,-65.863C211.1523,-67.0999 189.9018,-75.9242 146,-110.7 119.6139,-131.6012 139.1613,-174.7 105.5,-174.7"/>
<polygon fill="#000000" stroke="#000000" points="268.0005,-65.7894 276.0402,-69.2998 272.0002,-65.7447 276,-65.7 276,-65.7 276,-65.7 272.0002,-65.7447 275.9598,-62.1002 268.0005,-65.7894 268.0005,-65.7894"/>
<ellipse fill="none" stroke="#000000" cx="264.8007" cy="-65.8252" rx="3.2" ry="3.2"/>
</g>
</g>
</svg>
