<?xml version="1.0" encoding="UTF-8" standalone="no"?>
<!DOCTYPE svg PUBLIC "-//W3C//DTD SVG 1.1//EN"
 "http://www.w3.org/Graphics/SVG/1.1/DTD/svg11.dtd">
<!-- Generated by graphviz version 2.40.1 (20161225.0304)
 -->
<!-- Title: oneDegreeRelationshipsDiagram Pages: 1 -->
<svg width="398pt" height="338pt"
 viewBox="0.00 0.00 398.00 338.20" xmlns="http://www.w3.org/2000/svg" xmlns:xlink="http://www.w3.org/1999/xlink">
<g id="graph0" class="graph" transform="scale(1 1) rotate(0) translate(4 334.2)">
<title>oneDegreeRelationshipsDiagram</title>
<polygon fill="#ffffff" stroke="transparent" points="-4,4 -4,-334.2 394,-334.2 394,4 -4,4"/>
<text text-anchor="middle" x="72.4936" y="-7.3" font-family="Helvetica,sans-Serif" font-size="11.00" fill="#000000">Generated by SchemaSpy</text>
<!-- prison_statistic -->
<g id="node1" class="node">
<title>prison_statistic</title>
<g id="a_node1"><a xlink:href="../../tables/prison_statistic.html" xlink:title="prison_statistic" target="_top">
<polygon fill="#ffffff" stroke="transparent" points="8,-38.2 8,-326.2 382,-326.2 382,-38.2 8,-38.2"/>
<polygon fill="#f5f5f5" stroke="transparent" points="10,-301.2 10,-324.2 380,-324.2 380,-301.2 10,-301.2"/>
<polygon fill="none" stroke="#000000" points="10,-301.2 10,-324.2 380,-324.2 380,-301.2 10,-301.2"/>
<text text-anchor="start" x="15" y="-309.8" font-family="Helvetica,sans-Serif" font-weight="bold" font-size="11.00" fill="#000000">prison_statistic</text>
<text text-anchor="start" x="345.0437" y="-309.3" font-family="Helvetica,sans-Serif" font-size="11.00" fill="#000000">[table]</text>
<polygon fill="none" stroke="#000000" points="10,-279.2 10,-301.2 286,-301.2 286,-279.2 10,-279.2"/>
<image xlink:href="../../images/primaryKeys.png" width="11px" height="12px" preserveAspectRatio="xMinYMin meet" x="15" y="-296.2"/>
<text text-anchor="start" x="30" y="-286.3" font-family="Helvetica,sans-Serif" font-size="11.00" fill="#000000">id</text>
<polygon fill="none" stroke="#000000" points="286,-279.2 286,-301.2 380,-301.2 380,-279.2 286,-279.2"/>
<text text-anchor="start" x="288.9758" y="-286.9" font-family="Helvetica,sans-Serif" font-size="11.00" fill="#000000">uuid[2147483647]</text>
<polygon fill="#ffffff" stroke="transparent" points="10,-257.2 10,-279.2 286,-279.2 286,-257.2 10,-257.2"/>
<polygon fill="none" stroke="#000000" points="10,-257.2 10,-279.2 286,-279.2 286,-257.2 10,-257.2"/>
<text text-anchor="start" x="30" y="-264.3" font-family="Helvetica,sans-Serif" font-size="11.00" fill="#000000">prison_code</text>
<polygon fill="none" stroke="#000000" points="286,-257.2 286,-279.2 380,-279.2 380,-257.2 286,-257.2"/>
<text text-anchor="start" x="289" y="-264.9" font-family="Helvetica,sans-Serif" font-size="11.00" fill="#000000">varchar[6]</text>
<polygon fill="#ffffff" stroke="transparent" points="10,-235.2 10,-257.2 286,-257.2 286,-235.2 10,-235.2"/>
<polygon fill="none" stroke="#000000" points="10,-235.2 10,-257.2 286,-257.2 286,-235.2 10,-235.2"/>
<text text-anchor="start" x="30" y="-242.3" font-family="Helvetica,sans-Serif" font-size="11.00" fill="#000000">date</text>
<polygon fill="none" stroke="#000000" points="286,-235.2 286,-257.2 380,-257.2 380,-235.2 286,-235.2"/>
<text text-anchor="start" x="289" y="-242.9" font-family="Helvetica,sans-Serif" font-size="11.00" fill="#000000">date[13]</text>
<polygon fill="none" stroke="#000000" points="10,-213.2 10,-235.2 286,-235.2 286,-213.2 10,-213.2"/>
<text text-anchor="start" x="30" y="-220.3" font-family="Helvetica,sans-Serif" font-size="11.00" fill="#000000">total_prisoners</text>
<polygon fill="none" stroke="#000000" points="286,-213.2 286,-235.2 380,-235.2 380,-213.2 286,-213.2"/>
<text text-anchor="start" x="289" y="-220.9" font-family="Helvetica,sans-Serif" font-size="11.00" fill="#000000">int4[10]</text>
<polygon fill="none" stroke="#000000" points="10,-191.2 10,-213.2 286,-213.2 286,-191.2 10,-191.2"/>
<text text-anchor="start" x="30" y="-198.3" font-family="Helvetica,sans-Serif" font-size="11.00" fill="#000000">eligible_prisoners</text>
<polygon fill="none" stroke="#000000" points="286,-191.2 286,-213.2 380,-213.2 380,-191.2 286,-191.2"/>
<text text-anchor="start" x="289" y="-198.9" font-family="Helvetica,sans-Serif" font-size="11.00" fill="#000000">int4[10]</text>
<polygon fill="none" stroke="#000000" points="10,-169.2 10,-191.2 286,-191.2 286,-169.2 10,-169.2"/>
<text text-anchor="start" x="30" y="-176.3" font-family="Helvetica,sans-Serif" font-size="11.00" fill="#000000">assigned_keyworker</text>
<polygon fill="none" stroke="#000000" points="286,-169.2 286,-191.2 380,-191.2 380,-169.2 286,-169.2"/>
<text text-anchor="start" x="289" y="-176.9" font-family="Helvetica,sans-Serif" font-size="11.00" fill="#000000">int4[10]</text>
<polygon fill="none" stroke="#000000" points="10,-147.2 10,-169.2 286,-169.2 286,-147.2 10,-147.2"/>
<text text-anchor="start" x="30" y="-154.3" font-family="Helvetica,sans-Serif" font-size="11.00" fill="#000000">active_keyworkers</text>
<polygon fill="none" stroke="#000000" points="286,-147.2 286,-169.2 380,-169.2 380,-147.2 286,-147.2"/>
<text text-anchor="start" x="289" y="-154.9" font-family="Helvetica,sans-Serif" font-size="11.00" fill="#000000">int4[10]</text>
<polygon fill="none" stroke="#000000" points="10,-125.2 10,-147.2 286,-147.2 286,-125.2 10,-125.2"/>
<text text-anchor="start" x="30" y="-132.3" font-family="Helvetica,sans-Serif" font-size="11.00" fill="#000000">keyworker_sessions</text>
<polygon fill="none" stroke="#000000" points="286,-125.2 286,-147.2 380,-147.2 380,-125.2 286,-125.2"/>
<text text-anchor="start" x="289" y="-132.9" font-family="Helvetica,sans-Serif" font-size="11.00" fill="#000000">int4[10]</text>
<polygon fill="none" stroke="#000000" points="10,-103.2 10,-125.2 286,-125.2 286,-103.2 10,-103.2"/>
<text text-anchor="start" x="30" y="-110.3" font-family="Helvetica,sans-Serif" font-size="11.00" fill="#000000">keyworker_entries</text>
<polygon fill="none" stroke="#000000" points="286,-103.2 286,-125.2 380,-125.2 380,-103.2 286,-103.2"/>
<text text-anchor="start" x="289" y="-110.9" font-family="Helvetica,sans-Serif" font-size="11.00" fill="#000000">int4[10]</text>
<polygon fill="none" stroke="#000000" points="10,-81.2 10,-103.2 286,-103.2 286,-81.2 10,-81.2"/>
<text text-anchor="start" x="30" y="-88.3" font-family="Helvetica,sans-Serif" font-size="11.00" fill="#000000">average_reception_to_allocation_days</text>
<polygon fill="none" stroke="#000000" points="286,-81.2 286,-103.2 380,-103.2 380,-81.2 286,-81.2"/>
<text text-anchor="start" x="289" y="-88.9" font-family="Helvetica,sans-Serif" font-size="11.00" fill="#000000">int4[10]</text>
<polygon fill="none" stroke="#000000" points="10,-59.2 10,-81.2 286,-81.2 286,-59.2 10,-59.2"/>
<text text-anchor="start" x="30" y="-66.3" font-family="Helvetica,sans-Serif" font-size="11.00" fill="#000000">average_reception_to_session_days</text>
<polygon fill="none" stroke="#000000" points="286,-59.2 286,-81.2 380,-81.2 380,-59.2 286,-59.2"/>
<text text-anchor="start" x="289" y="-66.9" font-family="Helvetica,sans-Serif" font-size="11.00" fill="#000000">int4[10]</text>
<polygon fill="#ffffff" stroke="transparent" points="10,-40.2 10,-59.2 152,-59.2 152,-40.2 10,-40.2"/>
<polygon fill="none" stroke="#000000" points="10,-40.2 10,-59.2 152,-59.2 152,-40.2 10,-40.2"/>
<text text-anchor="start" x="13" y="-46.3" font-family="Helvetica,sans-Serif" font-size="11.00" fill="#000000">&lt; 0</text>
<polygon fill="#ffffff" stroke="transparent" points="152,-40.2 152,-59.2 286,-59.2 286,-40.2 152,-40.2"/>
<polygon fill="none" stroke="#000000" points="152,-40.2 152,-59.2 286,-59.2 286,-40.2 152,-40.2"/>
<text text-anchor="start" x="276.8862" y="-46.3" font-family="Helvetica,sans-Serif" font-size="11.00" fill="#000000"> &#160;</text>
<polygon fill="#ffffff" stroke="transparent" points="286,-40.2 286,-59.2 380,-59.2 380,-40.2 286,-40.2"/>
<polygon fill="none" stroke="#000000" points="286,-40.2 286,-59.2 380,-59.2 380,-40.2 286,-40.2"/>
<text text-anchor="start" x="361.4053" y="-46.3" font-family="Helvetica,sans-Serif" font-size="11.00" fill="#000000">0 &gt;</text>
<polygon fill="none" stroke="#000000" stroke-width="2" points="9,-39.2 9,-325.2 381,-325.2 381,-39.2 9,-39.2"/>
</a>
</g>
</g>
</g>
</svg>
