<?xml version="1.0" encoding="UTF-8" standalone="no"?>
<!DOCTYPE svg PUBLIC "-//W3C//DTD SVG 1.1//EN"
 "http://www.w3.org/Graphics/SVG/1.1/DTD/svg11.dtd">
<!-- Generated by graphviz version 2.40.1 (20161225.0304)
 -->
<!-- Title: twoDegreesRelationshipsDiagramImplied Pages: 1 -->
<svg width="791pt" height="799pt"
 viewBox="0.00 0.00 791.00 799.20" xmlns="http://www.w3.org/2000/svg" xmlns:xlink="http://www.w3.org/1999/xlink">
<g id="graph0" class="graph" transform="scale(1 1) rotate(0) translate(4 795.2)">
<title>twoDegreesRelationshipsDiagramImplied</title>
<polygon fill="#ffffff" stroke="transparent" points="-4,4 -4,-795.2 787,-795.2 787,4 -4,4"/>
<text text-anchor="middle" x="72.4936" y="-7.3" font-family="Helvetica,sans-Serif" font-size="11.00" fill="#000000">Generated by SchemaSpy</text>
<!-- keyworker_configuration_audit -->
<g id="node1" class="node">
<title>keyworker_configuration_audit</title>
<g id="a_node1"><a xlink:href="../../tables/keyworker_configuration_audit.html" xlink:title="keyworker_configuration_audit" target="_top">
<polygon fill="#ffffff" stroke="transparent" points="413.5,-726.2 413.5,-787.2 661.5,-787.2 661.5,-726.2 413.5,-726.2"/>
<polygon fill="#f5f5f5" stroke="transparent" points="413.5,-763.7 413.5,-786.7 661.5,-786.7 661.5,-763.7 413.5,-763.7"/>
<polygon fill="none" stroke="#000000" points="413.5,-763.7 413.5,-786.7 661.5,-786.7 661.5,-763.7 413.5,-763.7"/>
<text text-anchor="start" x="418.5" y="-772.3" font-family="Helvetica,sans-Serif" font-weight="bold" font-size="11.00" fill="#000000">keyworker_configuration_audit</text>
<text text-anchor="start" x="627.0219" y="-771.8" font-family="Helvetica,sans-Serif" font-size="11.00" fill="#000000">[table]</text>
<polygon fill="none" stroke="#000000" points="413.5,-744.7 413.5,-763.7 661.5,-763.7 661.5,-744.7 413.5,-744.7"/>
<text text-anchor="start" x="416.5" y="-750.8" font-family="Helvetica,sans-Serif" font-size="11.00" fill="#000000">...</text>
<polygon fill="#ffffff" stroke="transparent" points="413.5,-725.7 413.5,-744.7 535.5,-744.7 535.5,-725.7 413.5,-725.7"/>
<polygon fill="none" stroke="#000000" points="413.5,-725.7 413.5,-744.7 535.5,-744.7 535.5,-725.7 413.5,-725.7"/>
<text text-anchor="start" x="416.5" y="-731.8" font-family="Helvetica,sans-Serif" font-size="11.00" fill="#000000">&lt; 1</text>
<polygon fill="#ffffff" stroke="transparent" points="535.5,-725.7 535.5,-744.7 598.5,-744.7 598.5,-725.7 535.5,-725.7"/>
<polygon fill="none" stroke="#000000" points="535.5,-725.7 535.5,-744.7 598.5,-744.7 598.5,-725.7 535.5,-725.7"/>
<text text-anchor="start" x="589.3862" y="-731.8" font-family="Helvetica,sans-Serif" font-size="11.00" fill="#000000"> &#160;</text>
<polygon fill="#ffffff" stroke="transparent" points="598.5,-725.7 598.5,-744.7 661.5,-744.7 661.5,-725.7 598.5,-725.7"/>
<polygon fill="none" stroke="#000000" points="598.5,-725.7 598.5,-744.7 661.5,-744.7 661.5,-725.7 598.5,-725.7"/>
<text text-anchor="start" x="652.3862" y="-731.8" font-family="Helvetica,sans-Serif" font-size="11.00" fill="#000000"> &#160;</text>
</a>
</g>
</g>
<!-- audit_revision -->
<g id="node2" class="node">
<title>audit_revision</title>
<g id="a_node2"><a xlink:href="../../tables/audit_revision.html" xlink:title="audit_revision" target="_top">
<polygon fill="#ffffff" stroke="transparent" points="62.5,-662.2 62.5,-745.2 196.5,-745.2 196.5,-662.2 62.5,-662.2"/>
<polygon fill="#f5f5f5" stroke="transparent" points="62.5,-721.7 62.5,-744.7 196.5,-744.7 196.5,-721.7 62.5,-721.7"/>
<polygon fill="none" stroke="#000000" points="62.5,-721.7 62.5,-744.7 196.5,-744.7 196.5,-721.7 62.5,-721.7"/>
<text text-anchor="start" x="67.5" y="-730.3" font-family="Helvetica,sans-Serif" font-weight="bold" font-size="11.00" fill="#000000">audit_revision</text>
<text text-anchor="start" x="162.0219" y="-729.8" font-family="Helvetica,sans-Serif" font-size="11.00" fill="#000000">[table]</text>
<polygon fill="none" stroke="#000000" points="62.5,-699.7 62.5,-721.7 196.5,-721.7 196.5,-699.7 62.5,-699.7"/>
<image xlink:href="../../images/primaryKeys.png" width="11px" height="12px" preserveAspectRatio="xMinYMin meet" x="67.5" y="-716.7"/>
<text text-anchor="start" x="82.5" y="-706.8" font-family="Helvetica,sans-Serif" font-size="11.00" fill="#000000">id</text>
<polygon fill="none" stroke="#000000" points="62.5,-680.7 62.5,-699.7 196.5,-699.7 196.5,-680.7 62.5,-680.7"/>
<text text-anchor="start" x="65.5" y="-686.8" font-family="Helvetica,sans-Serif" font-size="11.00" fill="#000000">...</text>
<polygon fill="#ffffff" stroke="transparent" points="62.5,-661.7 62.5,-680.7 118.5,-680.7 118.5,-661.7 62.5,-661.7"/>
<polygon fill="none" stroke="#000000" points="62.5,-661.7 62.5,-680.7 118.5,-680.7 118.5,-661.7 62.5,-661.7"/>
<text text-anchor="start" x="65.5" y="-667.8" font-family="Helvetica,sans-Serif" font-size="11.00" fill="#000000"> &#160;</text>
<polygon fill="#ffffff" stroke="transparent" points="118.5,-661.7 118.5,-680.7 152.5,-680.7 152.5,-661.7 118.5,-661.7"/>
<polygon fill="none" stroke="#000000" points="118.5,-661.7 118.5,-680.7 152.5,-680.7 152.5,-661.7 118.5,-661.7"/>
<text text-anchor="start" x="143.3862" y="-667.8" font-family="Helvetica,sans-Serif" font-size="11.00" fill="#000000"> &#160;</text>
<polygon fill="#ffffff" stroke="transparent" points="152.5,-661.7 152.5,-680.7 196.5,-680.7 196.5,-661.7 152.5,-661.7"/>
<polygon fill="none" stroke="#000000" points="152.5,-661.7 152.5,-680.7 196.5,-680.7 196.5,-661.7 152.5,-661.7"/>
<text text-anchor="start" x="177.9053" y="-667.8" font-family="Helvetica,sans-Serif" font-size="11.00" fill="#000000">2 &gt;</text>
</a>
</g>
</g>
<!-- keyworker_configuration_audit&#45;&gt;audit_revision -->
<g id="edge1" class="edge">
<title>keyworker_configuration_audit:w&#45;&gt;audit_revision:e</title>
<path fill="none" stroke="#000000" d="M398.8385,-753.3663C312.8638,-749.364 289.7309,-710.7 196.5,-710.7"/>
<polygon fill="#000000" stroke="#000000" points="405.5021,-753.5179 413.4181,-757.2991 409.501,-753.609 413.5,-753.7 413.5,-753.7 413.5,-753.7 409.501,-753.609 413.5819,-750.1009 405.5021,-753.5179 405.5021,-753.5179"/>
<ellipse fill="none" stroke="#000000" cx="402.3029" cy="-753.4451" rx="3.2" ry="3.2"/>
</g>
<!-- keyworker_entry -->
<g id="node3" class="node">
<title>keyworker_entry</title>
<g id="a_node3"><a xlink:href="../../tables/keyworker_entry.html" xlink:title="keyworker_entry" target="_top">
<polygon fill="#ffffff" stroke="transparent" points="461.5,-38.2 461.5,-99.2 613.5,-99.2 613.5,-38.2 461.5,-38.2"/>
<polygon fill="#f5f5f5" stroke="transparent" points="461.5,-75.7 461.5,-98.7 613.5,-98.7 613.5,-75.7 461.5,-75.7"/>
<polygon fill="none" stroke="#000000" points="461.5,-75.7 461.5,-98.7 613.5,-98.7 613.5,-75.7 461.5,-75.7"/>
<text text-anchor="start" x="466.5" y="-84.3" font-family="Helvetica,sans-Serif" font-weight="bold" font-size="11.00" fill="#000000">keyworker_entry</text>
<text text-anchor="start" x="579.0219" y="-83.8" font-family="Helvetica,sans-Serif" font-size="11.00" fill="#000000">[table]</text>
<polygon fill="none" stroke="#000000" points="461.5,-56.7 461.5,-75.7 613.5,-75.7 613.5,-56.7 461.5,-56.7"/>
<text text-anchor="start" x="464.5" y="-62.8" font-family="Helvetica,sans-Serif" font-size="11.00" fill="#000000">...</text>
<polygon fill="#ffffff" stroke="transparent" points="461.5,-37.7 461.5,-56.7 535.5,-56.7 535.5,-37.7 461.5,-37.7"/>
<polygon fill="none" stroke="#000000" points="461.5,-37.7 461.5,-56.7 535.5,-56.7 535.5,-37.7 461.5,-37.7"/>
<text text-anchor="start" x="464.5" y="-43.8" font-family="Helvetica,sans-Serif" font-size="11.00" fill="#000000">&lt; 1</text>
<polygon fill="#ffffff" stroke="transparent" points="535.5,-37.7 535.5,-56.7 574.5,-56.7 574.5,-37.7 535.5,-37.7"/>
<polygon fill="none" stroke="#000000" points="535.5,-37.7 535.5,-56.7 574.5,-56.7 574.5,-37.7 535.5,-37.7"/>
<text text-anchor="start" x="565.3862" y="-43.8" font-family="Helvetica,sans-Serif" font-size="11.00" fill="#000000"> &#160;</text>
<polygon fill="#ffffff" stroke="transparent" points="574.5,-37.7 574.5,-56.7 613.5,-56.7 613.5,-37.7 574.5,-37.7"/>
<polygon fill="none" stroke="#000000" points="574.5,-37.7 574.5,-56.7 613.5,-56.7 613.5,-37.7 574.5,-37.7"/>
<text text-anchor="start" x="604.3862" y="-43.8" font-family="Helvetica,sans-Serif" font-size="11.00" fill="#000000"> &#160;</text>
</a>
</g>
</g>
<!-- prison_migration_date_history -->
<g id="node4" class="node">
<title>prison_migration_date_history</title>
<g id="a_node4"><a xlink:href="../../tables/prison_migration_date_history.html" xlink:title="prison_migration_date_history" target="_top">
<polygon fill="#ffffff" stroke="transparent" points="8,-140.2 8,-223.2 251,-223.2 251,-140.2 8,-140.2"/>
<polygon fill="#f5f5f5" stroke="transparent" points="8.5,-199.7 8.5,-222.7 251.5,-222.7 251.5,-199.7 8.5,-199.7"/>
<polygon fill="none" stroke="#000000" points="8.5,-199.7 8.5,-222.7 251.5,-222.7 251.5,-199.7 8.5,-199.7"/>
<text text-anchor="start" x="13.5" y="-208.3" font-family="Helvetica,sans-Serif" font-weight="bold" font-size="11.00" fill="#000000">prison_migration_date_history</text>
<text text-anchor="start" x="217.0219" y="-207.8" font-family="Helvetica,sans-Serif" font-size="11.00" fill="#000000">[table]</text>
<polygon fill="none" stroke="#000000" points="8.5,-177.7 8.5,-199.7 251.5,-199.7 251.5,-177.7 8.5,-177.7"/>
<image xlink:href="../../images/primaryKeys.png" width="11px" height="12px" preserveAspectRatio="xMinYMin meet" x="13.5" y="-194.7"/>
<text text-anchor="start" x="37.5" y="-184.8" font-family="Helvetica,sans-Serif" font-size="11.00" fill="#000000">prison_code</text>
<polygon fill="none" stroke="#000000" points="8.5,-158.7 8.5,-177.7 251.5,-177.7 251.5,-158.7 8.5,-158.7"/>
<text text-anchor="start" x="11.5" y="-164.8" font-family="Helvetica,sans-Serif" font-size="11.00" fill="#000000">...</text>
<polygon fill="#ffffff" stroke="transparent" points="8.5,-139.7 8.5,-158.7 119.5,-158.7 119.5,-139.7 8.5,-139.7"/>
<polygon fill="none" stroke="#000000" points="8.5,-139.7 8.5,-158.7 119.5,-158.7 119.5,-139.7 8.5,-139.7"/>
<text text-anchor="start" x="11.5" y="-145.8" font-family="Helvetica,sans-Serif" font-size="11.00" fill="#000000"> &#160;</text>
<polygon fill="#ffffff" stroke="transparent" points="119.5,-139.7 119.5,-158.7 180.5,-158.7 180.5,-139.7 119.5,-139.7"/>
<polygon fill="none" stroke="#000000" points="119.5,-139.7 119.5,-158.7 180.5,-158.7 180.5,-139.7 119.5,-139.7"/>
<text text-anchor="start" x="171.3862" y="-145.8" font-family="Helvetica,sans-Serif" font-size="11.00" fill="#000000"> &#160;</text>
<polygon fill="#ffffff" stroke="transparent" points="180.5,-139.7 180.5,-158.7 251.5,-158.7 251.5,-139.7 180.5,-139.7"/>
<polygon fill="none" stroke="#000000" points="180.5,-139.7 180.5,-158.7 251.5,-158.7 251.5,-139.7 180.5,-139.7"/>
<text text-anchor="start" x="232.9053" y="-145.8" font-family="Helvetica,sans-Serif" font-size="11.00" fill="#000000">4 &gt;</text>
</a>
</g>
</g>
<!-- keyworker_entry&#45;&gt;prison_migration_date_history -->
<g id="edge2" class="edge">
<title>keyworker_entry:w&#45;&gt;prison_migration_date_history:e</title>
<path fill="none" stroke="#000000" stroke-dasharray="5,2" d="M447.0147,-65.6574C379.5586,-65.3198 348.8222,-64.1689 292,-109.7 261.2093,-134.3723 290.9562,-188.7 251.5,-188.7"/>
<polygon fill="#000000" stroke="#000000" points="453.5,-65.6764 461.4894,-69.3 457.5,-65.6882 461.5,-65.7 461.5,-65.7 461.5,-65.7 457.5,-65.6882 461.5106,-62.1 453.5,-65.6764 453.5,-65.6764"/>
<ellipse fill="none" stroke="#000000" cx="450.3" cy="-65.667" rx="3.2" ry="3.2"/>
</g>
<!-- keyworker_session -->
<g id="node5" class="node">
<title>keyworker_session</title>
<g id="a_node5"><a xlink:href="../../tables/keyworker_session.html" xlink:title="keyworker_session" target="_top">
<polygon fill="#ffffff" stroke="transparent" points="454.5,-120.2 454.5,-181.2 620.5,-181.2 620.5,-120.2 454.5,-120.2"/>
<polygon fill="#f5f5f5" stroke="transparent" points="454.5,-157.7 454.5,-180.7 620.5,-180.7 620.5,-157.7 454.5,-157.7"/>
<polygon fill="none" stroke="#000000" points="454.5,-157.7 454.5,-180.7 620.5,-180.7 620.5,-157.7 454.5,-157.7"/>
<text text-anchor="start" x="459.5" y="-166.3" font-family="Helvetica,sans-Serif" font-weight="bold" font-size="11.00" fill="#000000">keyworker_session</text>
<text text-anchor="start" x="586.0219" y="-165.8" font-family="Helvetica,sans-Serif" font-size="11.00" fill="#000000">[table]</text>
<polygon fill="none" stroke="#000000" points="454.5,-138.7 454.5,-157.7 620.5,-157.7 620.5,-138.7 454.5,-138.7"/>
<text text-anchor="start" x="457.5" y="-144.8" font-family="Helvetica,sans-Serif" font-size="11.00" fill="#000000">...</text>
<polygon fill="#ffffff" stroke="transparent" points="454.5,-119.7 454.5,-138.7 535.5,-138.7 535.5,-119.7 454.5,-119.7"/>
<polygon fill="none" stroke="#000000" points="454.5,-119.7 454.5,-138.7 535.5,-138.7 535.5,-119.7 454.5,-119.7"/>
<text text-anchor="start" x="457.5" y="-125.8" font-family="Helvetica,sans-Serif" font-size="11.00" fill="#000000">&lt; 1</text>
<polygon fill="#ffffff" stroke="transparent" points="535.5,-119.7 535.5,-138.7 577.5,-138.7 577.5,-119.7 535.5,-119.7"/>
<polygon fill="none" stroke="#000000" points="535.5,-119.7 535.5,-138.7 577.5,-138.7 577.5,-119.7 535.5,-119.7"/>
<text text-anchor="start" x="568.3862" y="-125.8" font-family="Helvetica,sans-Serif" font-size="11.00" fill="#000000"> &#160;</text>
<polygon fill="#ffffff" stroke="transparent" points="577.5,-119.7 577.5,-138.7 620.5,-138.7 620.5,-119.7 577.5,-119.7"/>
<polygon fill="none" stroke="#000000" points="577.5,-119.7 577.5,-138.7 620.5,-138.7 620.5,-119.7 577.5,-119.7"/>
<text text-anchor="start" x="611.3862" y="-125.8" font-family="Helvetica,sans-Serif" font-size="11.00" fill="#000000"> &#160;</text>
</a>
</g>
</g>
<!-- keyworker_session&#45;&gt;prison_migration_date_history -->
<g id="edge3" class="edge">
<title>keyworker_session:w&#45;&gt;prison_migration_date_history:e</title>
<path fill="none" stroke="#000000" stroke-dasharray="5,2" d="M440.0313,-148.0544C360.1688,-152.0618 338.5103,-188.7 251.5,-188.7"/>
<polygon fill="#000000" stroke="#000000" points="446.5024,-147.896 454.5882,-151.2989 450.5012,-147.798 454.5,-147.7 454.5,-147.7 454.5,-147.7 450.5012,-147.798 454.4118,-144.1011 446.5024,-147.896 446.5024,-147.896"/>
<ellipse fill="none" stroke="#000000" cx="443.3034" cy="-147.9744" rx="3.2" ry="3.2"/>
</g>
<!-- prison_configuration -->
<g id="node6" class="node">
<title>prison_configuration</title>
<g id="a_node6"><a xlink:href="../../tables/prison_configuration.html" xlink:title="prison_configuration" target="_top">
<polygon fill="#ffffff" stroke="transparent" points="448.5,-202.2 448.5,-263.2 626.5,-263.2 626.5,-202.2 448.5,-202.2"/>
<polygon fill="#f5f5f5" stroke="transparent" points="448.5,-239.7 448.5,-262.7 626.5,-262.7 626.5,-239.7 448.5,-239.7"/>
<polygon fill="none" stroke="#000000" points="448.5,-239.7 448.5,-262.7 626.5,-262.7 626.5,-239.7 448.5,-239.7"/>
<text text-anchor="start" x="453.5" y="-248.3" font-family="Helvetica,sans-Serif" font-weight="bold" font-size="11.00" fill="#000000">prison_configuration</text>
<text text-anchor="start" x="592.0219" y="-247.8" font-family="Helvetica,sans-Serif" font-size="11.00" fill="#000000">[table]</text>
<polygon fill="none" stroke="#000000" points="448.5,-220.7 448.5,-239.7 626.5,-239.7 626.5,-220.7 448.5,-220.7"/>
<text text-anchor="start" x="451.5" y="-226.8" font-family="Helvetica,sans-Serif" font-size="11.00" fill="#000000">...</text>
<polygon fill="#ffffff" stroke="transparent" points="448.5,-201.7 448.5,-220.7 519.5,-220.7 519.5,-201.7 448.5,-201.7"/>
<polygon fill="none" stroke="#000000" points="448.5,-201.7 448.5,-220.7 519.5,-220.7 519.5,-201.7 448.5,-201.7"/>
<text text-anchor="start" x="451.5" y="-207.8" font-family="Helvetica,sans-Serif" font-size="11.00" fill="#000000">&lt; 2</text>
<polygon fill="#ffffff" stroke="transparent" points="519.5,-201.7 519.5,-220.7 588.5,-220.7 588.5,-201.7 519.5,-201.7"/>
<polygon fill="none" stroke="#000000" points="519.5,-201.7 519.5,-220.7 588.5,-220.7 588.5,-201.7 519.5,-201.7"/>
<text text-anchor="start" x="546.9956" y="-207.8" font-family="Helvetica,sans-Serif" font-size="11.00" fill="#000000">12 rows</text>
<polygon fill="#ffffff" stroke="transparent" points="588.5,-201.7 588.5,-220.7 626.5,-220.7 626.5,-201.7 588.5,-201.7"/>
<polygon fill="none" stroke="#000000" points="588.5,-201.7 588.5,-220.7 626.5,-220.7 626.5,-201.7 588.5,-201.7"/>
<text text-anchor="start" x="617.3862" y="-207.8" font-family="Helvetica,sans-Serif" font-size="11.00" fill="#000000"> &#160;</text>
</a>
</g>
</g>
<!-- prison_configuration&#45;&gt;prison_migration_date_history -->
<g id="edge5" class="edge">
<title>prison_configuration:w&#45;&gt;prison_migration_date_history:e</title>
<path fill="none" stroke="#000000" stroke-dasharray="5,2" d="M433.9639,-229.3203C356.7851,-225.187 335.8662,-188.7 251.5,-188.7"/>
<polygon fill="#000000" stroke="#000000" points="440.5027,-229.491 448.406,-233.2988 444.5014,-229.5955 448.5,-229.7 448.5,-229.7 448.5,-229.7 444.5014,-229.5955 448.594,-226.1012 440.5027,-229.491 440.5027,-229.491"/>
<ellipse fill="none" stroke="#000000" cx="437.3038" cy="-229.4075" rx="3.2" ry="3.2"/>
</g>
<!-- policy -->
<g id="node7" class="node">
<title>policy</title>
<g id="a_node7"><a xlink:href="../../tables/policy.html" xlink:title="policy" target="_top">
<polygon fill="#ffffff" stroke="transparent" points="81,-302.2 81,-385.2 178,-385.2 178,-302.2 81,-302.2"/>
<polygon fill="#f5f5f5" stroke="transparent" points="81.5,-361.7 81.5,-384.7 178.5,-384.7 178.5,-361.7 81.5,-361.7"/>
<polygon fill="none" stroke="#000000" points="81.5,-361.7 81.5,-384.7 178.5,-384.7 178.5,-361.7 81.5,-361.7"/>
<text text-anchor="start" x="86.5" y="-370.3" font-family="Helvetica,sans-Serif" font-weight="bold" font-size="11.00" fill="#000000">policy</text>
<text text-anchor="start" x="143.5437" y="-369.8" font-family="Helvetica,sans-Serif" font-size="11.00" fill="#000000">[table]</text>
<polygon fill="none" stroke="#000000" points="81.5,-339.7 81.5,-361.7 178.5,-361.7 178.5,-339.7 81.5,-339.7"/>
<image xlink:href="../../images/primaryKeys.png" width="11px" height="12px" preserveAspectRatio="xMinYMin meet" x="86.5" y="-356.7"/>
<text text-anchor="start" x="101.5" y="-346.8" font-family="Helvetica,sans-Serif" font-size="11.00" fill="#000000">code</text>
<polygon fill="none" stroke="#000000" points="81.5,-320.7 81.5,-339.7 178.5,-339.7 178.5,-320.7 81.5,-320.7"/>
<text text-anchor="start" x="84.5" y="-326.8" font-family="Helvetica,sans-Serif" font-size="11.00" fill="#000000">...</text>
<polygon fill="#ffffff" stroke="transparent" points="81.5,-301.7 81.5,-320.7 119.5,-320.7 119.5,-301.7 81.5,-301.7"/>
<polygon fill="none" stroke="#000000" points="81.5,-301.7 81.5,-320.7 119.5,-320.7 119.5,-301.7 81.5,-301.7"/>
<text text-anchor="start" x="84.5" y="-307.8" font-family="Helvetica,sans-Serif" font-size="11.00" fill="#000000"> &#160;</text>
<polygon fill="#ffffff" stroke="transparent" points="119.5,-301.7 119.5,-320.7 144.5,-320.7 144.5,-301.7 119.5,-301.7"/>
<polygon fill="none" stroke="#000000" points="119.5,-301.7 119.5,-320.7 144.5,-320.7 144.5,-301.7 119.5,-301.7"/>
<text text-anchor="start" x="135.3862" y="-307.8" font-family="Helvetica,sans-Serif" font-size="11.00" fill="#000000"> &#160;</text>
<polygon fill="#ffffff" stroke="transparent" points="144.5,-301.7 144.5,-320.7 178.5,-320.7 178.5,-301.7 144.5,-301.7"/>
<polygon fill="none" stroke="#000000" points="144.5,-301.7 144.5,-320.7 178.5,-320.7 178.5,-301.7 144.5,-301.7"/>
<text text-anchor="start" x="159.9053" y="-307.8" font-family="Helvetica,sans-Serif" font-size="11.00" fill="#000000">2 &gt;</text>
</a>
</g>
</g>
<!-- prison_configuration&#45;&gt;policy -->
<g id="edge4" class="edge">
<title>prison_configuration:w&#45;&gt;policy:e</title>
<path fill="none" stroke="#000000" d="M433.9977,-229.9156C373.2925,-231.8182 353.0185,-246.3448 292,-274.7 236.9451,-300.2839 239.209,-350.7 178.5,-350.7"/>
<polygon fill="#000000" stroke="#000000" points="440.5009,-229.819 448.5535,-233.2996 444.5004,-229.7595 448.5,-229.7 448.5,-229.7 448.5,-229.7 444.5004,-229.7595 448.4465,-226.1004 440.5009,-229.819 440.5009,-229.819"/>
<ellipse fill="none" stroke="#000000" cx="437.3012" cy="-229.8665" rx="3.2" ry="3.2"/>
</g>
<!-- prison_configuration_audit -->
<g id="node8" class="node">
<title>prison_configuration_audit</title>
<g id="a_node8"><a xlink:href="../../tables/prison_configuration_audit.html" xlink:title="prison_configuration_audit" target="_top">
<polygon fill="#ffffff" stroke="transparent" points="300,-284.7 300,-704.7 775,-704.7 775,-284.7 300,-284.7"/>
<polygon fill="#f5f5f5" stroke="transparent" points="302.5,-679.7 302.5,-702.7 773.5,-702.7 773.5,-679.7 302.5,-679.7"/>
<polygon fill="none" stroke="#000000" points="302.5,-679.7 302.5,-702.7 773.5,-702.7 773.5,-679.7 302.5,-679.7"/>
<text text-anchor="start" x="307.5" y="-688.3" font-family="Helvetica,sans-Serif" font-weight="bold" font-size="11.00" fill="#000000">prison_configuration_audit</text>
<text text-anchor="start" x="738.5437" y="-687.8" font-family="Helvetica,sans-Serif" font-size="11.00" fill="#000000">[table]</text>
<polygon fill="none" stroke="#000000" points="302.5,-657.7 302.5,-679.7 679.5,-679.7 679.5,-657.7 302.5,-657.7"/>
<image xlink:href="../../images/primaryKeys.png" width="11px" height="12px" preserveAspectRatio="xMinYMin meet" x="307.5" y="-674.7"/>
<text text-anchor="start" x="322.5" y="-664.8" font-family="Helvetica,sans-Serif" font-size="11.00" fill="#000000">rev_id</text>
<polygon fill="none" stroke="#000000" points="679.5,-657.7 679.5,-679.7 773.5,-679.7 773.5,-657.7 679.5,-657.7"/>
<text text-anchor="start" x="682.5" y="-665.4" font-family="Helvetica,sans-Serif" font-size="11.00" fill="#000000">int8[19]</text>
<polygon fill="none" stroke="#000000" points="302.5,-635.7 302.5,-657.7 679.5,-657.7 679.5,-635.7 302.5,-635.7"/>
<text text-anchor="start" x="322.5" y="-642.8" font-family="Helvetica,sans-Serif" font-size="11.00" fill="#000000">rev_type</text>
<polygon fill="none" stroke="#000000" points="679.5,-635.7 679.5,-657.7 773.5,-657.7 773.5,-635.7 679.5,-635.7"/>
<text text-anchor="start" x="682.5" y="-643.4" font-family="Helvetica,sans-Serif" font-size="11.00" fill="#000000">int2[5]</text>
<polygon fill="none" stroke="#000000" points="302.5,-613.7 302.5,-635.7 679.5,-635.7 679.5,-613.7 302.5,-613.7"/>
<image xlink:href="../../images/primaryKeys.png" width="11px" height="12px" preserveAspectRatio="xMinYMin meet" x="307.5" y="-630.7"/>
<text text-anchor="start" x="322.5" y="-620.8" font-family="Helvetica,sans-Serif" font-size="11.00" fill="#000000">id</text>
<polygon fill="none" stroke="#000000" points="679.5,-613.7 679.5,-635.7 773.5,-635.7 773.5,-613.7 679.5,-613.7"/>
<text text-anchor="start" x="682.4758" y="-621.4" font-family="Helvetica,sans-Serif" font-size="11.00" fill="#000000">uuid[2147483647]</text>
<polygon fill="none" stroke="#000000" points="302.5,-591.7 302.5,-613.7 679.5,-613.7 679.5,-591.7 302.5,-591.7"/>
<image xlink:href="../../images/foreignKeys.png" width="11px" height="12px" preserveAspectRatio="xMinYMin meet" x="307.5" y="-608.7"/>
<text text-anchor="start" x="322.5" y="-598.8" font-family="Helvetica,sans-Serif" font-size="11.00" fill="#000000">prison_code</text>
<polygon fill="none" stroke="#000000" points="679.5,-591.7 679.5,-613.7 773.5,-613.7 773.5,-591.7 679.5,-591.7"/>
<text text-anchor="start" x="682.5" y="-599.4" font-family="Helvetica,sans-Serif" font-size="11.00" fill="#000000">varchar[6]</text>
<polygon fill="none" stroke="#000000" points="302.5,-569.7 302.5,-591.7 679.5,-591.7 679.5,-569.7 302.5,-569.7"/>
<text text-anchor="start" x="322.5" y="-576.8" font-family="Helvetica,sans-Serif" font-size="11.00" fill="#000000">is_enabled</text>
<polygon fill="none" stroke="#000000" points="679.5,-569.7 679.5,-591.7 773.5,-591.7 773.5,-569.7 679.5,-569.7"/>
<text text-anchor="start" x="682.5" y="-577.4" font-family="Helvetica,sans-Serif" font-size="11.00" fill="#000000">bool[1]</text>
<polygon fill="none" stroke="#000000" points="302.5,-547.7 302.5,-569.7 679.5,-569.7 679.5,-547.7 302.5,-547.7"/>
<text text-anchor="start" x="322.5" y="-554.8" font-family="Helvetica,sans-Serif" font-size="11.00" fill="#000000">capacity</text>
<polygon fill="none" stroke="#000000" points="679.5,-547.7 679.5,-569.7 773.5,-569.7 773.5,-547.7 679.5,-547.7"/>
<text text-anchor="start" x="682.5" y="-555.4" font-family="Helvetica,sans-Serif" font-size="11.00" fill="#000000">int4[10]</text>
<polygon fill="none" stroke="#000000" points="302.5,-525.7 302.5,-547.7 679.5,-547.7 679.5,-525.7 302.5,-525.7"/>
<text text-anchor="start" x="322.5" y="-532.8" font-family="Helvetica,sans-Serif" font-size="11.00" fill="#000000">maximum_capacity</text>
<polygon fill="none" stroke="#000000" points="679.5,-525.7 679.5,-547.7 773.5,-547.7 773.5,-525.7 679.5,-525.7"/>
<text text-anchor="start" x="682.5" y="-533.4" font-family="Helvetica,sans-Serif" font-size="11.00" fill="#000000">int4[10]</text>
<polygon fill="none" stroke="#000000" points="302.5,-503.7 302.5,-525.7 679.5,-525.7 679.5,-503.7 302.5,-503.7"/>
<text text-anchor="start" x="322.5" y="-510.8" font-family="Helvetica,sans-Serif" font-size="11.00" fill="#000000">allow_auto_allocation</text>
<polygon fill="none" stroke="#000000" points="679.5,-503.7 679.5,-525.7 773.5,-525.7 773.5,-503.7 679.5,-503.7"/>
<text text-anchor="start" x="682.5" y="-511.4" font-family="Helvetica,sans-Serif" font-size="11.00" fill="#000000">bool[1]</text>
<polygon fill="none" stroke="#000000" points="302.5,-481.7 302.5,-503.7 679.5,-503.7 679.5,-481.7 302.5,-481.7"/>
<text text-anchor="start" x="322.5" y="-488.8" font-family="Helvetica,sans-Serif" font-size="11.00" fill="#000000">frequency_in_weeks</text>
<polygon fill="none" stroke="#000000" points="679.5,-481.7 679.5,-503.7 773.5,-503.7 773.5,-481.7 679.5,-481.7"/>
<text text-anchor="start" x="682.5" y="-489.4" font-family="Helvetica,sans-Serif" font-size="11.00" fill="#000000">int4[10]</text>
<polygon fill="none" stroke="#000000" points="302.5,-459.7 302.5,-481.7 679.5,-481.7 679.5,-459.7 302.5,-459.7"/>
<text text-anchor="start" x="322.5" y="-466.8" font-family="Helvetica,sans-Serif" font-size="11.00" fill="#000000">has_prisoners_with_high_complexity_needs</text>
<polygon fill="none" stroke="#000000" points="679.5,-459.7 679.5,-481.7 773.5,-481.7 773.5,-459.7 679.5,-459.7"/>
<text text-anchor="start" x="682.5" y="-467.4" font-family="Helvetica,sans-Serif" font-size="11.00" fill="#000000">bool[1]</text>
<polygon fill="none" stroke="#000000" points="302.5,-437.7 302.5,-459.7 679.5,-459.7 679.5,-437.7 302.5,-437.7"/>
<image xlink:href="../../images/foreignKeys.png" width="11px" height="12px" preserveAspectRatio="xMinYMin meet" x="307.5" y="-454.7"/>
<text text-anchor="start" x="322.5" y="-444.8" font-family="Helvetica,sans-Serif" font-size="11.00" fill="#000000">policy_code</text>
<polygon fill="none" stroke="#000000" points="679.5,-437.7 679.5,-459.7 773.5,-459.7 773.5,-437.7 679.5,-437.7"/>
<text text-anchor="start" x="682.5" y="-445.4" font-family="Helvetica,sans-Serif" font-size="11.00" fill="#000000">varchar[16]</text>
<polygon fill="none" stroke="#000000" points="302.5,-415.7 302.5,-437.7 679.5,-437.7 679.5,-415.7 302.5,-415.7"/>
<text text-anchor="start" x="322.5" y="-422.8" font-family="Helvetica,sans-Serif" font-size="11.00" fill="#000000">is_enabled_modified</text>
<polygon fill="none" stroke="#000000" points="679.5,-415.7 679.5,-437.7 773.5,-437.7 773.5,-415.7 679.5,-415.7"/>
<text text-anchor="start" x="682.5" y="-423.4" font-family="Helvetica,sans-Serif" font-size="11.00" fill="#000000">bool[1]</text>
<polygon fill="none" stroke="#000000" points="302.5,-393.7 302.5,-415.7 679.5,-415.7 679.5,-393.7 302.5,-393.7"/>
<text text-anchor="start" x="322.5" y="-400.8" font-family="Helvetica,sans-Serif" font-size="11.00" fill="#000000">capacity_modified</text>
<polygon fill="none" stroke="#000000" points="679.5,-393.7 679.5,-415.7 773.5,-415.7 773.5,-393.7 679.5,-393.7"/>
<text text-anchor="start" x="682.5" y="-401.4" font-family="Helvetica,sans-Serif" font-size="11.00" fill="#000000">bool[1]</text>
<polygon fill="none" stroke="#000000" points="302.5,-371.7 302.5,-393.7 679.5,-393.7 679.5,-371.7 302.5,-371.7"/>
<text text-anchor="start" x="322.5" y="-378.8" font-family="Helvetica,sans-Serif" font-size="11.00" fill="#000000">maximum_capacity_modified</text>
<polygon fill="none" stroke="#000000" points="679.5,-371.7 679.5,-393.7 773.5,-393.7 773.5,-371.7 679.5,-371.7"/>
<text text-anchor="start" x="682.5" y="-379.4" font-family="Helvetica,sans-Serif" font-size="11.00" fill="#000000">bool[1]</text>
<polygon fill="none" stroke="#000000" points="302.5,-349.7 302.5,-371.7 679.5,-371.7 679.5,-349.7 302.5,-349.7"/>
<text text-anchor="start" x="322.5" y="-356.8" font-family="Helvetica,sans-Serif" font-size="11.00" fill="#000000">allow_auto_allocation_modified</text>
<polygon fill="none" stroke="#000000" points="679.5,-349.7 679.5,-371.7 773.5,-371.7 773.5,-349.7 679.5,-349.7"/>
<text text-anchor="start" x="682.5" y="-357.4" font-family="Helvetica,sans-Serif" font-size="11.00" fill="#000000">bool[1]</text>
<polygon fill="none" stroke="#000000" points="302.5,-327.7 302.5,-349.7 679.5,-349.7 679.5,-327.7 302.5,-327.7"/>
<text text-anchor="start" x="322.5" y="-334.8" font-family="Helvetica,sans-Serif" font-size="11.00" fill="#000000">frequency_in_weeks_modified</text>
<polygon fill="none" stroke="#000000" points="679.5,-327.7 679.5,-349.7 773.5,-349.7 773.5,-327.7 679.5,-327.7"/>
<text text-anchor="start" x="682.5" y="-335.4" font-family="Helvetica,sans-Serif" font-size="11.00" fill="#000000">bool[1]</text>
<polygon fill="none" stroke="#000000" points="302.5,-305.7 302.5,-327.7 679.5,-327.7 679.5,-305.7 302.5,-305.7"/>
<text text-anchor="start" x="322.5" y="-312.8" font-family="Helvetica,sans-Serif" font-size="11.00" fill="#000000">has_prisoners_with_high_complexity_needs_modified</text>
<polygon fill="none" stroke="#000000" points="679.5,-305.7 679.5,-327.7 773.5,-327.7 773.5,-305.7 679.5,-305.7"/>
<text text-anchor="start" x="682.5" y="-313.4" font-family="Helvetica,sans-Serif" font-size="11.00" fill="#000000">bool[1]</text>
<polygon fill="#ffffff" stroke="transparent" points="302.5,-286.7 302.5,-305.7 495.5,-305.7 495.5,-286.7 302.5,-286.7"/>
<polygon fill="none" stroke="#000000" points="302.5,-286.7 302.5,-305.7 495.5,-305.7 495.5,-286.7 302.5,-286.7"/>
<text text-anchor="start" x="305.5" y="-292.8" font-family="Helvetica,sans-Serif" font-size="11.00" fill="#000000">&lt; 3</text>
<polygon fill="#ffffff" stroke="transparent" points="495.5,-286.7 495.5,-305.7 679.5,-305.7 679.5,-286.7 495.5,-286.7"/>
<polygon fill="none" stroke="#000000" points="495.5,-286.7 495.5,-305.7 679.5,-305.7 679.5,-286.7 495.5,-286.7"/>
<text text-anchor="start" x="670.3862" y="-292.8" font-family="Helvetica,sans-Serif" font-size="11.00" fill="#000000"> &#160;</text>
<polygon fill="#ffffff" stroke="transparent" points="679.5,-286.7 679.5,-305.7 773.5,-305.7 773.5,-286.7 679.5,-286.7"/>
<polygon fill="none" stroke="#000000" points="679.5,-286.7 679.5,-305.7 773.5,-305.7 773.5,-286.7 679.5,-286.7"/>
<text text-anchor="start" x="754.9053" y="-292.8" font-family="Helvetica,sans-Serif" font-size="11.00" fill="#000000">0 &gt;</text>
<polygon fill="none" stroke="#000000" stroke-width="2" points="301,-285.7 301,-703.7 774,-703.7 774,-285.7 301,-285.7"/>
</a>
</g>
</g>
<!-- prison_configuration_audit&#45;&gt;audit_revision -->
<g id="edge8" class="edge">
<title>prison_configuration_audit:w&#45;&gt;audit_revision:e</title>
<path fill="none" stroke="#000000" d="M287.8941,-670.003C250.3325,-677.0922 241.8299,-710.7 196.5,-710.7"/>
<polygon fill="#000000" stroke="#000000" points="294.5316,-669.4109 302.8199,-672.2858 298.5158,-669.0555 302.5,-668.7 302.5,-668.7 302.5,-668.7 298.5158,-669.0555 302.1801,-665.1142 294.5316,-669.4109 294.5316,-669.4109"/>
<ellipse fill="none" stroke="#000000" cx="291.3443" cy="-669.6953" rx="3.2" ry="3.2"/>
</g>
<!-- prison_configuration_audit&#45;&gt;prison_migration_date_history -->
<g id="edge7" class="edge">
<title>prison_configuration_audit:w&#45;&gt;prison_migration_date_history:e</title>
<path fill="none" stroke="#000000" stroke-dasharray="5,2" d="M288.4534,-598.6025C224.7739,-555.6057 338.7641,-188.7 251.5,-188.7"/>
<polygon fill="#000000" stroke="#000000" points="294.8201,-600.4597 301.4918,-606.156 298.66,-601.5798 302.5,-602.7 302.5,-602.7 302.5,-602.7 298.66,-601.5798 303.5082,-599.244 294.8201,-600.4597 294.8201,-600.4597"/>
<ellipse fill="none" stroke="#000000" cx="291.7481" cy="-599.5635" rx="3.2" ry="3.2"/>
</g>
<!-- prison_configuration_audit&#45;&gt;policy -->
<g id="edge6" class="edge">
<title>prison_configuration_audit:w&#45;&gt;policy:e</title>
<path fill="none" stroke="#000000" stroke-dasharray="5,2" d="M287.8811,-447.0808C234.2641,-434.3389 243.394,-350.7 178.5,-350.7"/>
<polygon fill="#000000" stroke="#000000" points="294.5486,-447.8192 302.1037,-452.2781 298.5243,-448.2596 302.5,-448.7 302.5,-448.7 302.5,-448.7 298.5243,-448.2596 302.8963,-445.1219 294.5486,-447.8192 294.5486,-447.8192"/>
<ellipse fill="none" stroke="#000000" cx="291.3681" cy="-447.4669" rx="3.2" ry="3.2"/>
</g>
</g>
</svg>
