<?xml version="1.0" encoding="UTF-8" standalone="no"?>
<!DOCTYPE svg PUBLIC "-//W3C//DTD SVG 1.1//EN"
 "http://www.w3.org/Graphics/SVG/1.1/DTD/svg11.dtd">
<!-- Generated by graphviz version 2.40.1 (20161225.0304)
 -->
<!-- Title: twoDegreesRelationshipsDiagram Pages: 1 -->
<svg width="554pt" height="711pt"
 viewBox="0.00 0.00 554.00 711.20" xmlns="http://www.w3.org/2000/svg" xmlns:xlink="http://www.w3.org/1999/xlink">
<g id="graph0" class="graph" transform="scale(1 1) rotate(0) translate(4 707.2)">
<title>twoDegreesRelationshipsDiagram</title>
<polygon fill="#ffffff" stroke="transparent" points="-4,4 -4,-707.2 550,-707.2 550,4 -4,4"/>
<text text-anchor="middle" x="72.4936" y="-7.3" font-family="Helvetica,sans-Serif" font-size="11.00" fill="#000000">Generated by SchemaSpy</text>
<!-- allocation -->
<g id="node1" class="node">
<title>allocation</title>
<g id="a_node1"><a xlink:href="../../tables/allocation.html" xlink:title="allocation" target="_top">
<polygon fill="#ffffff" stroke="transparent" points="293.5,-638.2 293.5,-699.2 398.5,-699.2 398.5,-638.2 293.5,-638.2"/>
<polygon fill="#f5f5f5" stroke="transparent" points="294,-675.7 294,-698.7 399,-698.7 399,-675.7 294,-675.7"/>
<polygon fill="none" stroke="#000000" points="294,-675.7 294,-698.7 399,-698.7 399,-675.7 294,-675.7"/>
<text text-anchor="start" x="299" y="-684.3" font-family="Helvetica,sans-Serif" font-weight="bold" font-size="11.00" fill="#000000">allocation</text>
<text text-anchor="start" x="364.5219" y="-683.8" font-family="Helvetica,sans-Serif" font-size="11.00" fill="#000000">[table]</text>
<polygon fill="none" stroke="#000000" points="294,-656.7 294,-675.7 399,-675.7 399,-656.7 294,-656.7"/>
<text text-anchor="start" x="297" y="-662.8" font-family="Helvetica,sans-Serif" font-size="11.00" fill="#000000">...</text>
<polygon fill="#ffffff" stroke="transparent" points="294,-637.7 294,-656.7 345,-656.7 345,-637.7 294,-637.7"/>
<polygon fill="none" stroke="#000000" points="294,-637.7 294,-656.7 345,-656.7 345,-637.7 294,-637.7"/>
<text text-anchor="start" x="297" y="-643.8" font-family="Helvetica,sans-Serif" font-size="11.00" fill="#000000">&lt; 3</text>
<polygon fill="#ffffff" stroke="transparent" points="345,-637.7 345,-656.7 372,-656.7 372,-637.7 345,-637.7"/>
<polygon fill="none" stroke="#000000" points="345,-637.7 345,-656.7 372,-656.7 372,-637.7 345,-637.7"/>
<text text-anchor="start" x="362.8862" y="-643.8" font-family="Helvetica,sans-Serif" font-size="11.00" fill="#000000"> &#160;</text>
<polygon fill="#ffffff" stroke="transparent" points="372,-637.7 372,-656.7 399,-656.7 399,-637.7 372,-637.7"/>
<polygon fill="none" stroke="#000000" points="372,-637.7 372,-656.7 399,-656.7 399,-637.7 372,-637.7"/>
<text text-anchor="start" x="389.8862" y="-643.8" font-family="Helvetica,sans-Serif" font-size="11.00" fill="#000000"> &#160;</text>
</a>
</g>
</g>
<!-- policy -->
<g id="node2" class="node">
<title>policy</title>
<g id="a_node2"><a xlink:href="../../tables/policy.html" xlink:title="policy" target="_top">
<polygon fill="#ffffff" stroke="transparent" points="8,-186.2 8,-269.2 105,-269.2 105,-186.2 8,-186.2"/>
<polygon fill="#f5f5f5" stroke="transparent" points="8.5,-245.7 8.5,-268.7 105.5,-268.7 105.5,-245.7 8.5,-245.7"/>
<polygon fill="none" stroke="#000000" points="8.5,-245.7 8.5,-268.7 105.5,-268.7 105.5,-245.7 8.5,-245.7"/>
<text text-anchor="start" x="13.5" y="-254.3" font-family="Helvetica,sans-Serif" font-weight="bold" font-size="11.00" fill="#000000">policy</text>
<text text-anchor="start" x="70.5437" y="-253.8" font-family="Helvetica,sans-Serif" font-size="11.00" fill="#000000">[table]</text>
<polygon fill="none" stroke="#000000" points="8.5,-223.7 8.5,-245.7 105.5,-245.7 105.5,-223.7 8.5,-223.7"/>
<image xlink:href="../../images/primaryKeys.png" width="11px" height="12px" preserveAspectRatio="xMinYMin meet" x="13.5" y="-240.7"/>
<text text-anchor="start" x="28.5" y="-230.8" font-family="Helvetica,sans-Serif" font-size="11.00" fill="#000000">code</text>
<polygon fill="none" stroke="#000000" points="8.5,-204.7 8.5,-223.7 105.5,-223.7 105.5,-204.7 8.5,-204.7"/>
<text text-anchor="start" x="11.5" y="-210.8" font-family="Helvetica,sans-Serif" font-size="11.00" fill="#000000">...</text>
<polygon fill="#ffffff" stroke="transparent" points="8.5,-185.7 8.5,-204.7 46.5,-204.7 46.5,-185.7 8.5,-185.7"/>
<polygon fill="none" stroke="#000000" points="8.5,-185.7 8.5,-204.7 46.5,-204.7 46.5,-185.7 8.5,-185.7"/>
<text text-anchor="start" x="11.5" y="-191.8" font-family="Helvetica,sans-Serif" font-size="11.00" fill="#000000"> &#160;</text>
<polygon fill="#ffffff" stroke="transparent" points="46.5,-185.7 46.5,-204.7 71.5,-204.7 71.5,-185.7 46.5,-185.7"/>
<polygon fill="none" stroke="#000000" points="46.5,-185.7 46.5,-204.7 71.5,-204.7 71.5,-185.7 46.5,-185.7"/>
<text text-anchor="start" x="62.3862" y="-191.8" font-family="Helvetica,sans-Serif" font-size="11.00" fill="#000000"> &#160;</text>
<polygon fill="#ffffff" stroke="transparent" points="71.5,-185.7 71.5,-204.7 105.5,-204.7 105.5,-185.7 71.5,-185.7"/>
<polygon fill="none" stroke="#000000" points="71.5,-185.7 71.5,-204.7 105.5,-204.7 105.5,-185.7 71.5,-185.7"/>
<text text-anchor="start" x="86.9053" y="-191.8" font-family="Helvetica,sans-Serif" font-size="11.00" fill="#000000">5 &gt;</text>
</a>
</g>
</g>
<!-- allocation&#45;&gt;policy -->
<g id="edge1" class="edge">
<title>allocation:w&#45;&gt;policy:e</title>
<path fill="none" stroke="#000000" d="M279.3937,-665.8903C220.7325,-667.3395 187.0329,-675.3347 146,-627.7 88.6998,-561.1808 193.2958,-234.7 105.5,-234.7"/>
<polygon fill="#000000" stroke="#000000" points="286.0007,-665.8043 294.0469,-669.2997 290.0003,-665.7521 294,-665.7 294,-665.7 294,-665.7 290.0003,-665.7521 293.9531,-662.1003 286.0007,-665.8043 286.0007,-665.8043"/>
<ellipse fill="none" stroke="#000000" cx="282.801" cy="-665.846" rx="3.2" ry="3.2"/>
</g>
<!-- prison_configuration -->
<g id="node3" class="node">
<title>prison_configuration</title>
<g id="a_node3"><a xlink:href="../../tables/prison_configuration.html" xlink:title="prison_configuration" target="_top">
<polygon fill="#ffffff" stroke="transparent" points="257,-556.2 257,-617.2 435,-617.2 435,-556.2 257,-556.2"/>
<polygon fill="#f5f5f5" stroke="transparent" points="257,-593.7 257,-616.7 435,-616.7 435,-593.7 257,-593.7"/>
<polygon fill="none" stroke="#000000" points="257,-593.7 257,-616.7 435,-616.7 435,-593.7 257,-593.7"/>
<text text-anchor="start" x="262" y="-602.3" font-family="Helvetica,sans-Serif" font-weight="bold" font-size="11.00" fill="#000000">prison_configuration</text>
<text text-anchor="start" x="400.5219" y="-601.8" font-family="Helvetica,sans-Serif" font-size="11.00" fill="#000000">[table]</text>
<polygon fill="none" stroke="#000000" points="257,-574.7 257,-593.7 435,-593.7 435,-574.7 257,-574.7"/>
<text text-anchor="start" x="260" y="-580.8" font-family="Helvetica,sans-Serif" font-size="11.00" fill="#000000">...</text>
<polygon fill="#ffffff" stroke="transparent" points="257,-555.7 257,-574.7 328,-574.7 328,-555.7 257,-555.7"/>
<polygon fill="none" stroke="#000000" points="257,-555.7 257,-574.7 328,-574.7 328,-555.7 257,-555.7"/>
<text text-anchor="start" x="260" y="-561.8" font-family="Helvetica,sans-Serif" font-size="11.00" fill="#000000">&lt; 1</text>
<polygon fill="#ffffff" stroke="transparent" points="328,-555.7 328,-574.7 397,-574.7 397,-555.7 328,-555.7"/>
<polygon fill="none" stroke="#000000" points="328,-555.7 328,-574.7 397,-574.7 397,-555.7 328,-555.7"/>
<text text-anchor="start" x="355.4956" y="-561.8" font-family="Helvetica,sans-Serif" font-size="11.00" fill="#000000">12 rows</text>
<polygon fill="#ffffff" stroke="transparent" points="397,-555.7 397,-574.7 435,-574.7 435,-555.7 397,-555.7"/>
<polygon fill="none" stroke="#000000" points="397,-555.7 397,-574.7 435,-574.7 435,-555.7 397,-555.7"/>
<text text-anchor="start" x="425.8862" y="-561.8" font-family="Helvetica,sans-Serif" font-size="11.00" fill="#000000"> &#160;</text>
</a>
</g>
</g>
<!-- prison_configuration&#45;&gt;policy -->
<g id="edge2" class="edge">
<title>prison_configuration:w&#45;&gt;policy:e</title>
<path fill="none" stroke="#000000" d="M242.4444,-583.7259C199.7376,-583.756 175.7768,-582.1311 146,-545.7 101.8938,-491.7372 175.1947,-234.7 105.5,-234.7"/>
<polygon fill="#000000" stroke="#000000" points="249,-583.7143 257.0064,-587.3 253,-583.7071 257,-583.7 257,-583.7 257,-583.7 253,-583.7071 256.9936,-580.1 249,-583.7143 249,-583.7143"/>
<ellipse fill="none" stroke="#000000" cx="245.8" cy="-583.72" rx="3.2" ry="3.2"/>
</g>
<!-- prison_statistic -->
<g id="node4" class="node">
<title>prison_statistic</title>
<g id="a_node4"><a xlink:href="../../tables/prison_statistic.html" xlink:title="prison_statistic" target="_top">
<polygon fill="#ffffff" stroke="transparent" points="154,-202.7 154,-534.7 538,-534.7 538,-202.7 154,-202.7"/>
<polygon fill="#f5f5f5" stroke="transparent" points="156,-509.7 156,-532.7 536,-532.7 536,-509.7 156,-509.7"/>
<polygon fill="none" stroke="#000000" points="156,-509.7 156,-532.7 536,-532.7 536,-509.7 156,-509.7"/>
<text text-anchor="start" x="161" y="-518.3" font-family="Helvetica,sans-Serif" font-weight="bold" font-size="11.00" fill="#000000">prison_statistic</text>
<text text-anchor="start" x="501.0437" y="-517.8" font-family="Helvetica,sans-Serif" font-size="11.00" fill="#000000">[table]</text>
<polygon fill="none" stroke="#000000" points="156,-487.7 156,-509.7 452,-509.7 452,-487.7 156,-487.7"/>
<image xlink:href="../../images/primaryKeys.png" width="11px" height="12px" preserveAspectRatio="xMinYMin meet" x="161" y="-504.7"/>
<text text-anchor="start" x="176" y="-494.8" font-family="Helvetica,sans-Serif" font-size="11.00" fill="#000000">id</text>
<polygon fill="none" stroke="#000000" points="452,-487.7 452,-509.7 536,-509.7 536,-487.7 452,-487.7"/>
<text text-anchor="start" x="455" y="-495.4" font-family="Helvetica,sans-Serif" font-size="11.00" fill="#000000">bigserial[19]</text>
<polygon fill="#ffffff" stroke="transparent" points="156,-465.7 156,-487.7 452,-487.7 452,-465.7 156,-465.7"/>
<polygon fill="none" stroke="#000000" points="156,-465.7 156,-487.7 452,-487.7 452,-465.7 156,-465.7"/>
<image xlink:href="../../images/foreignKeys.png" width="11px" height="12px" preserveAspectRatio="xMinYMin meet" x="161" y="-482.7"/>
<text text-anchor="start" x="176" y="-472.8" font-family="Helvetica,sans-Serif" font-size="11.00" fill="#000000">prison_code</text>
<polygon fill="none" stroke="#000000" points="452,-465.7 452,-487.7 536,-487.7 536,-465.7 452,-465.7"/>
<text text-anchor="start" x="455" y="-473.4" font-family="Helvetica,sans-Serif" font-size="11.00" fill="#000000">varchar[6]</text>
<polygon fill="#ffffff" stroke="transparent" points="156,-443.7 156,-465.7 452,-465.7 452,-443.7 156,-443.7"/>
<polygon fill="none" stroke="#000000" points="156,-443.7 156,-465.7 452,-465.7 452,-443.7 156,-443.7"/>
<text text-anchor="start" x="176" y="-450.8" font-family="Helvetica,sans-Serif" font-size="11.00" fill="#000000">statistic_date</text>
<polygon fill="none" stroke="#000000" points="452,-443.7 452,-465.7 536,-465.7 536,-443.7 452,-443.7"/>
<text text-anchor="start" x="454.8807" y="-451.4" font-family="Helvetica,sans-Serif" font-size="11.00" fill="#000000">timestamp[29,6]</text>
<polygon fill="none" stroke="#000000" points="156,-421.7 156,-443.7 452,-443.7 452,-421.7 156,-421.7"/>
<text text-anchor="start" x="176" y="-428.8" font-family="Helvetica,sans-Serif" font-size="11.00" fill="#000000">prisoners_assigned_count</text>
<polygon fill="none" stroke="#000000" points="452,-421.7 452,-443.7 536,-443.7 536,-421.7 452,-421.7"/>
<text text-anchor="start" x="455" y="-429.4" font-family="Helvetica,sans-Serif" font-size="11.00" fill="#000000">int4[10]</text>
<polygon fill="none" stroke="#000000" points="156,-399.7 156,-421.7 452,-421.7 452,-399.7 156,-399.7"/>
<text text-anchor="start" x="176" y="-406.8" font-family="Helvetica,sans-Serif" font-size="11.00" fill="#000000">prisoner_count</text>
<polygon fill="none" stroke="#000000" points="452,-399.7 452,-421.7 536,-421.7 536,-399.7 452,-399.7"/>
<text text-anchor="start" x="455" y="-407.4" font-family="Helvetica,sans-Serif" font-size="11.00" fill="#000000">int4[10]</text>
<polygon fill="none" stroke="#000000" points="156,-377.7 156,-399.7 452,-399.7 452,-377.7 156,-377.7"/>
<text text-anchor="start" x="176" y="-384.8" font-family="Helvetica,sans-Serif" font-size="11.00" fill="#000000">recorded_session_count</text>
<polygon fill="none" stroke="#000000" points="452,-377.7 452,-399.7 536,-399.7 536,-377.7 452,-377.7"/>
<text text-anchor="start" x="455" y="-385.4" font-family="Helvetica,sans-Serif" font-size="11.00" fill="#000000">int4[10]</text>
<polygon fill="none" stroke="#000000" points="156,-355.7 156,-377.7 452,-377.7 452,-355.7 156,-355.7"/>
<text text-anchor="start" x="176" y="-362.8" font-family="Helvetica,sans-Serif" font-size="11.00" fill="#000000">recorded_entry_count</text>
<polygon fill="none" stroke="#000000" points="452,-355.7 452,-377.7 536,-377.7 536,-355.7 452,-355.7"/>
<text text-anchor="start" x="455" y="-363.4" font-family="Helvetica,sans-Serif" font-size="11.00" fill="#000000">int4[10]</text>
<polygon fill="none" stroke="#000000" points="156,-333.7 156,-355.7 452,-355.7 452,-333.7 156,-333.7"/>
<text text-anchor="start" x="176" y="-340.8" font-family="Helvetica,sans-Serif" font-size="11.00" fill="#000000">eligible_staff_count</text>
<polygon fill="none" stroke="#000000" points="452,-333.7 452,-355.7 536,-355.7 536,-333.7 452,-333.7"/>
<text text-anchor="start" x="455" y="-341.4" font-family="Helvetica,sans-Serif" font-size="11.00" fill="#000000">int4[10]</text>
<polygon fill="none" stroke="#000000" points="156,-311.7 156,-333.7 452,-333.7 452,-311.7 156,-311.7"/>
<text text-anchor="start" x="176" y="-318.8" font-family="Helvetica,sans-Serif" font-size="11.00" fill="#000000">reception_to_allocation_days</text>
<polygon fill="none" stroke="#000000" points="452,-311.7 452,-333.7 536,-333.7 536,-311.7 452,-311.7"/>
<text text-anchor="start" x="455" y="-319.4" font-family="Helvetica,sans-Serif" font-size="11.00" fill="#000000">int4[10]</text>
<polygon fill="none" stroke="#000000" points="156,-289.7 156,-311.7 452,-311.7 452,-289.7 156,-289.7"/>
<text text-anchor="start" x="176" y="-296.8" font-family="Helvetica,sans-Serif" font-size="11.00" fill="#000000">reception_to_recorded_event_days</text>
<polygon fill="none" stroke="#000000" points="452,-289.7 452,-311.7 536,-311.7 536,-289.7 452,-289.7"/>
<text text-anchor="start" x="455" y="-297.4" font-family="Helvetica,sans-Serif" font-size="11.00" fill="#000000">int4[10]</text>
<polygon fill="none" stroke="#000000" points="156,-267.7 156,-289.7 452,-289.7 452,-267.7 156,-267.7"/>
<text text-anchor="start" x="176" y="-274.8" font-family="Helvetica,sans-Serif" font-size="11.00" fill="#000000">eligible_prisoner_count</text>
<polygon fill="none" stroke="#000000" points="452,-267.7 452,-289.7 536,-289.7 536,-267.7 452,-267.7"/>
<text text-anchor="start" x="455" y="-275.4" font-family="Helvetica,sans-Serif" font-size="11.00" fill="#000000">int4[10]</text>
<polygon fill="none" stroke="#000000" points="156,-245.7 156,-267.7 452,-267.7 452,-245.7 156,-245.7"/>
<text text-anchor="start" x="176" y="-252.8" font-family="Helvetica,sans-Serif" font-size="11.00" fill="#000000">high_complexity_of_need_prisoner_count</text>
<polygon fill="none" stroke="#000000" points="452,-245.7 452,-267.7 536,-267.7 536,-245.7 452,-245.7"/>
<text text-anchor="start" x="455" y="-253.4" font-family="Helvetica,sans-Serif" font-size="11.00" fill="#000000">int4[10]</text>
<polygon fill="none" stroke="#000000" points="156,-223.7 156,-245.7 452,-245.7 452,-223.7 156,-223.7"/>
<image xlink:href="../../images/foreignKeys.png" width="11px" height="12px" preserveAspectRatio="xMinYMin meet" x="161" y="-240.7"/>
<text text-anchor="start" x="176" y="-230.8" font-family="Helvetica,sans-Serif" font-size="11.00" fill="#000000">policy_code</text>
<polygon fill="none" stroke="#000000" points="452,-223.7 452,-245.7 536,-245.7 536,-223.7 452,-223.7"/>
<text text-anchor="start" x="455" y="-231.4" font-family="Helvetica,sans-Serif" font-size="11.00" fill="#000000">varchar[16]</text>
<polygon fill="#ffffff" stroke="transparent" points="156,-204.7 156,-223.7 308,-223.7 308,-204.7 156,-204.7"/>
<polygon fill="none" stroke="#000000" points="156,-204.7 156,-223.7 308,-223.7 308,-204.7 156,-204.7"/>
<text text-anchor="start" x="159" y="-210.8" font-family="Helvetica,sans-Serif" font-size="11.00" fill="#000000">&lt; 1</text>
<polygon fill="#ffffff" stroke="transparent" points="308,-204.7 308,-223.7 452,-223.7 452,-204.7 308,-204.7"/>
<polygon fill="none" stroke="#000000" points="308,-204.7 308,-223.7 452,-223.7 452,-204.7 308,-204.7"/>
<text text-anchor="start" x="442.8862" y="-210.8" font-family="Helvetica,sans-Serif" font-size="11.00" fill="#000000"> &#160;</text>
<polygon fill="#ffffff" stroke="transparent" points="452,-204.7 452,-223.7 536,-223.7 536,-204.7 452,-204.7"/>
<polygon fill="none" stroke="#000000" points="452,-204.7 452,-223.7 536,-223.7 536,-204.7 452,-204.7"/>
<text text-anchor="start" x="517.4053" y="-210.8" font-family="Helvetica,sans-Serif" font-size="11.00" fill="#000000">0 &gt;</text>
<polygon fill="none" stroke="#000000" stroke-width="2" points="155,-203.7 155,-533.7 537,-533.7 537,-203.7 155,-203.7"/>
</a>
</g>
</g>
<!-- prison_statistic&#45;&gt;policy -->
<g id="edge3" class="edge">
<title>prison_statistic:w&#45;&gt;policy:e</title>
<path fill="none" stroke="#000000" d="M141.4203,-234.7C129.5435,-234.7 122.158,-234.7 105.5,-234.7"/>
<polygon fill="#000000" stroke="#000000" points="148,-234.7001 156,-238.3 152,-234.7 156,-234.7 156,-234.7 156,-234.7 152,-234.7 156,-231.1 148,-234.7001 148,-234.7001"/>
<ellipse fill="none" stroke="#000000" cx="144.8" cy="-234.7001" rx="3.2" ry="3.2"/>
</g>
<!-- reference_data_policy -->
<g id="node5" class="node">
<title>reference_data_policy</title>
<g id="a_node5"><a xlink:href="../../tables/reference_data_policy.html" xlink:title="reference_data_policy" target="_top">
<polygon fill="#ffffff" stroke="transparent" points="253,-120.2 253,-181.2 439,-181.2 439,-120.2 253,-120.2"/>
<polygon fill="#f5f5f5" stroke="transparent" points="253,-157.7 253,-180.7 439,-180.7 439,-157.7 253,-157.7"/>
<polygon fill="none" stroke="#000000" points="253,-157.7 253,-180.7 439,-180.7 439,-157.7 253,-157.7"/>
<text text-anchor="start" x="258" y="-166.3" font-family="Helvetica,sans-Serif" font-weight="bold" font-size="11.00" fill="#000000">reference_data_policy</text>
<text text-anchor="start" x="404.5219" y="-165.8" font-family="Helvetica,sans-Serif" font-size="11.00" fill="#000000">[table]</text>
<polygon fill="none" stroke="#000000" points="253,-138.7 253,-157.7 439,-157.7 439,-138.7 253,-138.7"/>
<text text-anchor="start" x="256" y="-144.8" font-family="Helvetica,sans-Serif" font-size="11.00" fill="#000000">...</text>
<polygon fill="#ffffff" stroke="transparent" points="253,-119.7 253,-138.7 344,-138.7 344,-119.7 253,-119.7"/>
<polygon fill="none" stroke="#000000" points="253,-119.7 253,-138.7 344,-138.7 344,-119.7 253,-119.7"/>
<text text-anchor="start" x="256" y="-125.8" font-family="Helvetica,sans-Serif" font-size="11.00" fill="#000000">&lt; 2</text>
<polygon fill="#ffffff" stroke="transparent" points="344,-119.7 344,-138.7 391,-138.7 391,-119.7 344,-119.7"/>
<polygon fill="none" stroke="#000000" points="344,-119.7 344,-138.7 391,-138.7 391,-119.7 344,-119.7"/>
<text text-anchor="start" x="381.8862" y="-125.8" font-family="Helvetica,sans-Serif" font-size="11.00" fill="#000000"> &#160;</text>
<polygon fill="#ffffff" stroke="transparent" points="391,-119.7 391,-138.7 439,-138.7 439,-119.7 391,-119.7"/>
<polygon fill="none" stroke="#000000" points="391,-119.7 391,-138.7 439,-138.7 439,-119.7 391,-119.7"/>
<text text-anchor="start" x="429.8862" y="-125.8" font-family="Helvetica,sans-Serif" font-size="11.00" fill="#000000"> &#160;</text>
</a>
</g>
</g>
<!-- reference_data_policy&#45;&gt;policy -->
<g id="edge4" class="edge">
<title>reference_data_policy:w&#45;&gt;policy:e</title>
<path fill="none" stroke="#000000" d="M238.4081,-148.1874C198.4924,-151.0538 184.2326,-166.4964 146,-192.7 124.6101,-207.36 131.4315,-234.7 105.5,-234.7"/>
<polygon fill="#000000" stroke="#000000" points="245.0045,-147.9671 253.1202,-151.298 249.0022,-147.8336 253,-147.7 253,-147.7 253,-147.7 249.0022,-147.8336 252.8798,-144.102 245.0045,-147.9671 245.0045,-147.9671"/>
<ellipse fill="none" stroke="#000000" cx="241.8062" cy="-148.0739" rx="3.2" ry="3.2"/>
</g>
<!-- staff_configuration -->
<g id="node6" class="node">
<title>staff_configuration</title>
<g id="a_node6"><a xlink:href="../../tables/staff_configuration.html" xlink:title="staff_configuration" target="_top">
<polygon fill="#ffffff" stroke="transparent" points="262.5,-38.2 262.5,-99.2 429.5,-99.2 429.5,-38.2 262.5,-38.2"/>
<polygon fill="#f5f5f5" stroke="transparent" points="263,-75.7 263,-98.7 430,-98.7 430,-75.7 263,-75.7"/>
<polygon fill="none" stroke="#000000" points="263,-75.7 263,-98.7 430,-98.7 430,-75.7 263,-75.7"/>
<text text-anchor="start" x="268" y="-84.3" font-family="Helvetica,sans-Serif" font-weight="bold" font-size="11.00" fill="#000000">staff_configuration</text>
<text text-anchor="start" x="395.5219" y="-83.8" font-family="Helvetica,sans-Serif" font-size="11.00" fill="#000000">[table]</text>
<polygon fill="none" stroke="#000000" points="263,-56.7 263,-75.7 430,-75.7 430,-56.7 263,-56.7"/>
<text text-anchor="start" x="266" y="-62.8" font-family="Helvetica,sans-Serif" font-size="11.00" fill="#000000">...</text>
<polygon fill="#ffffff" stroke="transparent" points="263,-37.7 263,-56.7 345,-56.7 345,-37.7 263,-37.7"/>
<polygon fill="none" stroke="#000000" points="263,-37.7 263,-56.7 345,-56.7 345,-37.7 263,-37.7"/>
<text text-anchor="start" x="266" y="-43.8" font-family="Helvetica,sans-Serif" font-size="11.00" fill="#000000">&lt; 2</text>
<polygon fill="#ffffff" stroke="transparent" points="345,-37.7 345,-56.7 387,-56.7 387,-37.7 345,-37.7"/>
<polygon fill="none" stroke="#000000" points="345,-37.7 345,-56.7 387,-56.7 387,-37.7 345,-37.7"/>
<text text-anchor="start" x="377.8862" y="-43.8" font-family="Helvetica,sans-Serif" font-size="11.00" fill="#000000"> &#160;</text>
<polygon fill="#ffffff" stroke="transparent" points="387,-37.7 387,-56.7 430,-56.7 430,-37.7 387,-37.7"/>
<polygon fill="none" stroke="#000000" points="387,-37.7 387,-56.7 430,-56.7 430,-37.7 387,-37.7"/>
<text text-anchor="start" x="420.8862" y="-43.8" font-family="Helvetica,sans-Serif" font-size="11.00" fill="#000000"> &#160;</text>
</a>
</g>
</g>
<!-- staff_configuration&#45;&gt;policy -->
<g id="edge5" class="edge">
<title>staff_configuration:w&#45;&gt;policy:e</title>
<path fill="none" stroke="#000000" d="M248.4845,-65.8216C203.0779,-66.707 180.8407,-73.2047 146,-109.7 105.6744,-151.9406 163.8988,-234.7 105.5,-234.7"/>
<polygon fill="#000000" stroke="#000000" points="255.0003,-65.7671 263.0302,-69.2999 259.0001,-65.7335 263,-65.7 263,-65.7 263,-65.7 259.0001,-65.7335 262.9698,-62.1001 255.0003,-65.7671 255.0003,-65.7671"/>
<ellipse fill="none" stroke="#000000" cx="251.8004" cy="-65.7939" rx="3.2" ry="3.2"/>
</g>
</g>
</svg>
