<?xml version="1.0" encoding="UTF-8" standalone="no"?>
<!DOCTYPE svg PUBLIC "-//W3C//DTD SVG 1.1//EN"
 "http://www.w3.org/Graphics/SVG/1.1/DTD/svg11.dtd">
<!-- Generated by graphviz version 2.40.1 (20161225.0304)
 -->
<!-- Title: twoDegreesRelationshipsDiagramImplied Pages: 1 -->
<svg width="700pt" height="1285pt"
 viewBox="0.00 0.00 700.00 1285.20" xmlns="http://www.w3.org/2000/svg" xmlns:xlink="http://www.w3.org/1999/xlink">
<g id="graph0" class="graph" transform="scale(1 1) rotate(0) translate(4 1281.2)">
<title>twoDegreesRelationshipsDiagramImplied</title>
<polygon fill="#ffffff" stroke="transparent" points="-4,4 -4,-1281.2 696,-1281.2 696,4 -4,4"/>
<text text-anchor="middle" x="72.4936" y="-7.3" font-family="Helvetica,sans-Serif" font-size="11.00" fill="#000000">Generated by SchemaSpy</text>
<!-- allocation -->
<g id="node1" class="node">
<title>allocation</title>
<g id="a_node1"><a xlink:href="../../tables/allocation.html" xlink:title="allocation" target="_top">
<polygon fill="#ffffff" stroke="transparent" points="439.5,-1048.2 439.5,-1109.2 544.5,-1109.2 544.5,-1048.2 439.5,-1048.2"/>
<polygon fill="#f5f5f5" stroke="transparent" points="440,-1085.7 440,-1108.7 545,-1108.7 545,-1085.7 440,-1085.7"/>
<polygon fill="none" stroke="#000000" points="440,-1085.7 440,-1108.7 545,-1108.7 545,-1085.7 440,-1085.7"/>
<text text-anchor="start" x="445" y="-1094.3" font-family="Helvetica,sans-Serif" font-weight="bold" font-size="11.00" fill="#000000">allocation</text>
<text text-anchor="start" x="510.5219" y="-1093.8" font-family="Helvetica,sans-Serif" font-size="11.00" fill="#000000">[table]</text>
<polygon fill="none" stroke="#000000" points="440,-1066.7 440,-1085.7 545,-1085.7 545,-1066.7 440,-1066.7"/>
<text text-anchor="start" x="443" y="-1072.8" font-family="Helvetica,sans-Serif" font-size="11.00" fill="#000000">...</text>
<polygon fill="#ffffff" stroke="transparent" points="440,-1047.7 440,-1066.7 491,-1066.7 491,-1047.7 440,-1047.7"/>
<polygon fill="none" stroke="#000000" points="440,-1047.7 440,-1066.7 491,-1066.7 491,-1047.7 440,-1047.7"/>
<text text-anchor="start" x="443" y="-1053.8" font-family="Helvetica,sans-Serif" font-size="11.00" fill="#000000">&lt; 4</text>
<polygon fill="#ffffff" stroke="transparent" points="491,-1047.7 491,-1066.7 518,-1066.7 518,-1047.7 491,-1047.7"/>
<polygon fill="none" stroke="#000000" points="491,-1047.7 491,-1066.7 518,-1066.7 518,-1047.7 491,-1047.7"/>
<text text-anchor="start" x="508.8862" y="-1053.8" font-family="Helvetica,sans-Serif" font-size="11.00" fill="#000000"> &#160;</text>
<polygon fill="#ffffff" stroke="transparent" points="518,-1047.7 518,-1066.7 545,-1066.7 545,-1047.7 518,-1047.7"/>
<polygon fill="none" stroke="#000000" points="518,-1047.7 518,-1066.7 545,-1066.7 545,-1047.7 518,-1047.7"/>
<text text-anchor="start" x="535.8862" y="-1053.8" font-family="Helvetica,sans-Serif" font-size="11.00" fill="#000000"> &#160;</text>
</a>
</g>
</g>
<!-- policy -->
<g id="node2" class="node">
<title>policy</title>
<g id="a_node2"><a xlink:href="../../tables/policy.html" xlink:title="policy" target="_top">
<polygon fill="#ffffff" stroke="transparent" points="81,-389.2 81,-472.2 178,-472.2 178,-389.2 81,-389.2"/>
<polygon fill="#f5f5f5" stroke="transparent" points="81.5,-448.7 81.5,-471.7 178.5,-471.7 178.5,-448.7 81.5,-448.7"/>
<polygon fill="none" stroke="#000000" points="81.5,-448.7 81.5,-471.7 178.5,-471.7 178.5,-448.7 81.5,-448.7"/>
<text text-anchor="start" x="86.5" y="-457.3" font-family="Helvetica,sans-Serif" font-weight="bold" font-size="11.00" fill="#000000">policy</text>
<text text-anchor="start" x="143.5437" y="-456.8" font-family="Helvetica,sans-Serif" font-size="11.00" fill="#000000">[table]</text>
<polygon fill="none" stroke="#000000" points="81.5,-426.7 81.5,-448.7 178.5,-448.7 178.5,-426.7 81.5,-426.7"/>
<image xlink:href="../../images/primaryKeys.png" width="11px" height="12px" preserveAspectRatio="xMinYMin meet" x="86.5" y="-443.7"/>
<text text-anchor="start" x="101.5" y="-433.8" font-family="Helvetica,sans-Serif" font-size="11.00" fill="#000000">code</text>
<polygon fill="none" stroke="#000000" points="81.5,-407.7 81.5,-426.7 178.5,-426.7 178.5,-407.7 81.5,-407.7"/>
<text text-anchor="start" x="84.5" y="-413.8" font-family="Helvetica,sans-Serif" font-size="11.00" fill="#000000">...</text>
<polygon fill="#ffffff" stroke="transparent" points="81.5,-388.7 81.5,-407.7 116.5,-407.7 116.5,-388.7 81.5,-388.7"/>
<polygon fill="none" stroke="#000000" points="81.5,-388.7 81.5,-407.7 116.5,-407.7 116.5,-388.7 81.5,-388.7"/>
<text text-anchor="start" x="84.5" y="-394.8" font-family="Helvetica,sans-Serif" font-size="11.00" fill="#000000"> &#160;</text>
<polygon fill="#ffffff" stroke="transparent" points="116.5,-388.7 116.5,-407.7 139.5,-407.7 139.5,-388.7 116.5,-388.7"/>
<polygon fill="none" stroke="#000000" points="116.5,-388.7 116.5,-407.7 139.5,-407.7 139.5,-388.7 116.5,-388.7"/>
<text text-anchor="start" x="130.3862" y="-394.8" font-family="Helvetica,sans-Serif" font-size="11.00" fill="#000000"> &#160;</text>
<polygon fill="#ffffff" stroke="transparent" points="139.5,-388.7 139.5,-407.7 178.5,-407.7 178.5,-388.7 139.5,-388.7"/>
<polygon fill="none" stroke="#000000" points="139.5,-388.7 139.5,-407.7 178.5,-407.7 178.5,-388.7 139.5,-388.7"/>
<text text-anchor="start" x="153.7904" y="-394.8" font-family="Helvetica,sans-Serif" font-size="11.00" fill="#000000">10 &gt;</text>
</a>
</g>
</g>
<!-- allocation&#45;&gt;policy -->
<g id="edge1" class="edge">
<title>allocation:w&#45;&gt;policy:e</title>
<path fill="none" stroke="#000000" d="M425.4223,-1075.8647C366.9893,-1077.1099 334.763,-1083.7879 292,-1037.7 235.1921,-976.4753 274.286,-934.8093 259,-852.7 224.6135,-667.9911 366.3824,-437.7 178.5,-437.7"/>
<polygon fill="#000000" stroke="#000000" points="432.0005,-1075.7904 440.0407,-1079.2998 436.0003,-1075.7452 440,-1075.7 440,-1075.7 440,-1075.7 436.0003,-1075.7452 439.9593,-1072.1002 432.0005,-1075.7904 432.0005,-1075.7904"/>
<ellipse fill="none" stroke="#000000" cx="428.8007" cy="-1075.8266" rx="3.2" ry="3.2"/>
</g>
<!-- prison_migration_date_history -->
<g id="node3" class="node">
<title>prison_migration_date_history</title>
<g id="a_node3"><a xlink:href="../../tables/prison_migration_date_history.html" xlink:title="prison_migration_date_history" target="_top">
<polygon fill="#ffffff" stroke="transparent" points="8,-863.2 8,-946.2 251,-946.2 251,-863.2 8,-863.2"/>
<polygon fill="#f5f5f5" stroke="transparent" points="8.5,-922.7 8.5,-945.7 251.5,-945.7 251.5,-922.7 8.5,-922.7"/>
<polygon fill="none" stroke="#000000" points="8.5,-922.7 8.5,-945.7 251.5,-945.7 251.5,-922.7 8.5,-922.7"/>
<text text-anchor="start" x="13.5" y="-931.3" font-family="Helvetica,sans-Serif" font-weight="bold" font-size="11.00" fill="#000000">prison_migration_date_history</text>
<text text-anchor="start" x="217.0219" y="-930.8" font-family="Helvetica,sans-Serif" font-size="11.00" fill="#000000">[table]</text>
<polygon fill="none" stroke="#000000" points="8.5,-900.7 8.5,-922.7 251.5,-922.7 251.5,-900.7 8.5,-900.7"/>
<image xlink:href="../../images/primaryKeys.png" width="11px" height="12px" preserveAspectRatio="xMinYMin meet" x="13.5" y="-917.7"/>
<text text-anchor="start" x="37.5" y="-907.8" font-family="Helvetica,sans-Serif" font-size="11.00" fill="#000000">prison_code</text>
<polygon fill="none" stroke="#000000" points="8.5,-881.7 8.5,-900.7 251.5,-900.7 251.5,-881.7 8.5,-881.7"/>
<text text-anchor="start" x="11.5" y="-887.8" font-family="Helvetica,sans-Serif" font-size="11.00" fill="#000000">...</text>
<polygon fill="#ffffff" stroke="transparent" points="8.5,-862.7 8.5,-881.7 119.5,-881.7 119.5,-862.7 8.5,-862.7"/>
<polygon fill="none" stroke="#000000" points="8.5,-862.7 8.5,-881.7 119.5,-881.7 119.5,-862.7 8.5,-862.7"/>
<text text-anchor="start" x="11.5" y="-868.8" font-family="Helvetica,sans-Serif" font-size="11.00" fill="#000000"> &#160;</text>
<polygon fill="#ffffff" stroke="transparent" points="119.5,-862.7 119.5,-881.7 180.5,-881.7 180.5,-862.7 119.5,-862.7"/>
<polygon fill="none" stroke="#000000" points="119.5,-862.7 119.5,-881.7 180.5,-881.7 180.5,-862.7 119.5,-862.7"/>
<text text-anchor="start" x="171.3862" y="-868.8" font-family="Helvetica,sans-Serif" font-size="11.00" fill="#000000"> &#160;</text>
<polygon fill="#ffffff" stroke="transparent" points="180.5,-862.7 180.5,-881.7 251.5,-881.7 251.5,-862.7 180.5,-862.7"/>
<polygon fill="none" stroke="#000000" points="180.5,-862.7 180.5,-881.7 251.5,-881.7 251.5,-862.7 180.5,-862.7"/>
<text text-anchor="start" x="232.9053" y="-868.8" font-family="Helvetica,sans-Serif" font-size="11.00" fill="#000000">9 &gt;</text>
</a>
</g>
</g>
<!-- allocation&#45;&gt;prison_migration_date_history -->
<g id="edge2" class="edge">
<title>allocation:w&#45;&gt;prison_migration_date_history:e</title>
<path fill="none" stroke="#000000" stroke-dasharray="5,2" d="M425.4718,-1075.8155C367.4346,-1076.6679 337.7629,-1080.8106 292,-1037.7 249.1845,-997.366 310.3218,-911.7 251.5,-911.7"/>
<polygon fill="#000000" stroke="#000000" points="432.0003,-1075.7637 440.0287,-1079.2999 436.0001,-1075.7318 440,-1075.7 440,-1075.7 440,-1075.7 436.0001,-1075.7318 439.9713,-1072.1001 432.0003,-1075.7637 432.0003,-1075.7637"/>
<ellipse fill="none" stroke="#000000" cx="428.8004" cy="-1075.7891" rx="3.2" ry="3.2"/>
</g>
<!-- allocation_audit -->
<g id="node4" class="node">
<title>allocation_audit</title>
<g id="a_node4"><a xlink:href="../../tables/allocation_audit.html" xlink:title="allocation_audit" target="_top">
<polygon fill="#ffffff" stroke="transparent" points="419,-966.2 419,-1027.2 565,-1027.2 565,-966.2 419,-966.2"/>
<polygon fill="#f5f5f5" stroke="transparent" points="419,-1003.7 419,-1026.7 565,-1026.7 565,-1003.7 419,-1003.7"/>
<polygon fill="none" stroke="#000000" points="419,-1003.7 419,-1026.7 565,-1026.7 565,-1003.7 419,-1003.7"/>
<text text-anchor="start" x="424" y="-1012.3" font-family="Helvetica,sans-Serif" font-weight="bold" font-size="11.00" fill="#000000">allocation_audit</text>
<text text-anchor="start" x="530.5219" y="-1011.8" font-family="Helvetica,sans-Serif" font-size="11.00" fill="#000000">[table]</text>
<polygon fill="none" stroke="#000000" points="419,-984.7 419,-1003.7 565,-1003.7 565,-984.7 419,-984.7"/>
<text text-anchor="start" x="422" y="-990.8" font-family="Helvetica,sans-Serif" font-size="11.00" fill="#000000">...</text>
<polygon fill="#ffffff" stroke="transparent" points="419,-965.7 419,-984.7 490,-984.7 490,-965.7 419,-965.7"/>
<polygon fill="none" stroke="#000000" points="419,-965.7 419,-984.7 490,-984.7 490,-965.7 419,-965.7"/>
<text text-anchor="start" x="422" y="-971.8" font-family="Helvetica,sans-Serif" font-size="11.00" fill="#000000">&lt; 3</text>
<polygon fill="#ffffff" stroke="transparent" points="490,-965.7 490,-984.7 527,-984.7 527,-965.7 490,-965.7"/>
<polygon fill="none" stroke="#000000" points="490,-965.7 490,-984.7 527,-984.7 527,-965.7 490,-965.7"/>
<text text-anchor="start" x="517.8862" y="-971.8" font-family="Helvetica,sans-Serif" font-size="11.00" fill="#000000"> &#160;</text>
<polygon fill="#ffffff" stroke="transparent" points="527,-965.7 527,-984.7 565,-984.7 565,-965.7 527,-965.7"/>
<polygon fill="none" stroke="#000000" points="527,-965.7 527,-984.7 565,-984.7 565,-965.7 527,-965.7"/>
<text text-anchor="start" x="555.8862" y="-971.8" font-family="Helvetica,sans-Serif" font-size="11.00" fill="#000000"> &#160;</text>
</a>
</g>
</g>
<!-- allocation_audit&#45;&gt;policy -->
<g id="edge3" class="edge">
<title>allocation_audit:w&#45;&gt;policy:e</title>
<path fill="none" stroke="#000000" stroke-dasharray="5,2" d="M404.4679,-993.7811C355.179,-994.2353 328.6253,-995.1819 292,-955.7 251.9286,-912.5032 237.421,-437.7 178.5,-437.7"/>
<polygon fill="#000000" stroke="#000000" points="411.0001,-993.7447 419.0201,-997.2999 415.0001,-993.7223 419,-993.7 419,-993.7 419,-993.7 415.0001,-993.7223 418.9799,-990.1001 411.0001,-993.7447 411.0001,-993.7447"/>
<ellipse fill="none" stroke="#000000" cx="407.8002" cy="-993.7626" rx="3.2" ry="3.2"/>
</g>
<!-- allocation_audit&#45;&gt;prison_migration_date_history -->
<g id="edge4" class="edge">
<title>allocation_audit:w&#45;&gt;prison_migration_date_history:e</title>
<path fill="none" stroke="#000000" stroke-dasharray="5,2" d="M404.3612,-993.5312C356.6508,-992.3217 337.5656,-984.189 292,-955.7 269.4638,-941.6097 278.0786,-911.7 251.5,-911.7"/>
<polygon fill="#000000" stroke="#000000" points="411.0005,-993.6077 418.9585,-997.2998 415.0003,-993.6538 419,-993.7 419,-993.7 419,-993.7 415.0003,-993.6538 419.0415,-990.1002 411.0005,-993.6077 411.0005,-993.6077"/>
<ellipse fill="none" stroke="#000000" cx="407.8007" cy="-993.5708" rx="3.2" ry="3.2"/>
</g>
<!-- allocation_case_note -->
<g id="node5" class="node">
<title>allocation_case_note</title>
<g id="a_node5"><a xlink:href="../../tables/allocation_case_note.html" xlink:title="allocation_case_note" target="_top">
<polygon fill="#ffffff" stroke="transparent" points="403,-1212.2 403,-1273.2 581,-1273.2 581,-1212.2 403,-1212.2"/>
<polygon fill="#f5f5f5" stroke="transparent" points="403,-1249.7 403,-1272.7 581,-1272.7 581,-1249.7 403,-1249.7"/>
<polygon fill="none" stroke="#000000" points="403,-1249.7 403,-1272.7 581,-1272.7 581,-1249.7 403,-1249.7"/>
<text text-anchor="start" x="408" y="-1258.3" font-family="Helvetica,sans-Serif" font-weight="bold" font-size="11.00" fill="#000000">allocation_case_note</text>
<text text-anchor="start" x="546.5219" y="-1257.8" font-family="Helvetica,sans-Serif" font-size="11.00" fill="#000000">[table]</text>
<polygon fill="none" stroke="#000000" points="403,-1230.7 403,-1249.7 581,-1249.7 581,-1230.7 403,-1230.7"/>
<text text-anchor="start" x="406" y="-1236.8" font-family="Helvetica,sans-Serif" font-size="11.00" fill="#000000">...</text>
<polygon fill="#ffffff" stroke="transparent" points="403,-1211.7 403,-1230.7 490,-1230.7 490,-1211.7 403,-1211.7"/>
<polygon fill="none" stroke="#000000" points="403,-1211.7 403,-1230.7 490,-1230.7 490,-1211.7 403,-1211.7"/>
<text text-anchor="start" x="406" y="-1217.8" font-family="Helvetica,sans-Serif" font-size="11.00" fill="#000000">&lt; 1</text>
<polygon fill="#ffffff" stroke="transparent" points="490,-1211.7 490,-1230.7 535,-1230.7 535,-1211.7 490,-1211.7"/>
<polygon fill="none" stroke="#000000" points="490,-1211.7 490,-1230.7 535,-1230.7 535,-1211.7 490,-1211.7"/>
<text text-anchor="start" x="525.8862" y="-1217.8" font-family="Helvetica,sans-Serif" font-size="11.00" fill="#000000"> &#160;</text>
<polygon fill="#ffffff" stroke="transparent" points="535,-1211.7 535,-1230.7 581,-1230.7 581,-1211.7 535,-1211.7"/>
<polygon fill="none" stroke="#000000" points="535,-1211.7 535,-1230.7 581,-1230.7 581,-1211.7 535,-1211.7"/>
<text text-anchor="start" x="571.8862" y="-1217.8" font-family="Helvetica,sans-Serif" font-size="11.00" fill="#000000"> &#160;</text>
</a>
</g>
</g>
<!-- allocation_case_note&#45;&gt;prison_migration_date_history -->
<g id="edge5" class="edge">
<title>allocation_case_note:w&#45;&gt;prison_migration_date_history:e</title>
<path fill="none" stroke="#000000" stroke-dasharray="5,2" d="M388.4492,-1239.7219C345.7705,-1239.729 321.9452,-1237.9929 292,-1201.7 250.5877,-1151.5093 316.5699,-911.7 251.5,-911.7"/>
<polygon fill="#000000" stroke="#000000" points="395,-1239.7121 403.0055,-1243.3 399,-1239.7061 403,-1239.7 403,-1239.7 403,-1239.7 399,-1239.7061 402.9945,-1236.1 395,-1239.7121 395,-1239.7121"/>
<ellipse fill="none" stroke="#000000" cx="391.8" cy="-1239.717" rx="3.2" ry="3.2"/>
</g>
<!-- allocation_case_note_audit -->
<g id="node6" class="node">
<title>allocation_case_note_audit</title>
<g id="a_node6"><a xlink:href="../../tables/allocation_case_note_audit.html" xlink:title="allocation_case_note_audit" target="_top">
<polygon fill="#ffffff" stroke="transparent" points="382.5,-1130.2 382.5,-1191.2 601.5,-1191.2 601.5,-1130.2 382.5,-1130.2"/>
<polygon fill="#f5f5f5" stroke="transparent" points="383,-1167.7 383,-1190.7 602,-1190.7 602,-1167.7 383,-1167.7"/>
<polygon fill="none" stroke="#000000" points="383,-1167.7 383,-1190.7 602,-1190.7 602,-1167.7 383,-1167.7"/>
<text text-anchor="start" x="388" y="-1176.3" font-family="Helvetica,sans-Serif" font-weight="bold" font-size="11.00" fill="#000000">allocation_case_note_audit</text>
<text text-anchor="start" x="567.5219" y="-1175.8" font-family="Helvetica,sans-Serif" font-size="11.00" fill="#000000">[table]</text>
<polygon fill="none" stroke="#000000" points="383,-1148.7 383,-1167.7 602,-1167.7 602,-1148.7 383,-1148.7"/>
<text text-anchor="start" x="386" y="-1154.8" font-family="Helvetica,sans-Serif" font-size="11.00" fill="#000000">...</text>
<polygon fill="#ffffff" stroke="transparent" points="383,-1129.7 383,-1148.7 491,-1148.7 491,-1129.7 383,-1129.7"/>
<polygon fill="none" stroke="#000000" points="383,-1129.7 383,-1148.7 491,-1148.7 491,-1129.7 383,-1129.7"/>
<text text-anchor="start" x="386" y="-1135.8" font-family="Helvetica,sans-Serif" font-size="11.00" fill="#000000">&lt; 2</text>
<polygon fill="#ffffff" stroke="transparent" points="491,-1129.7 491,-1148.7 546,-1148.7 546,-1129.7 491,-1129.7"/>
<polygon fill="none" stroke="#000000" points="491,-1129.7 491,-1148.7 546,-1148.7 546,-1129.7 491,-1129.7"/>
<text text-anchor="start" x="536.8862" y="-1135.8" font-family="Helvetica,sans-Serif" font-size="11.00" fill="#000000"> &#160;</text>
<polygon fill="#ffffff" stroke="transparent" points="546,-1129.7 546,-1148.7 602,-1148.7 602,-1129.7 546,-1129.7"/>
<polygon fill="none" stroke="#000000" points="546,-1129.7 546,-1148.7 602,-1148.7 602,-1129.7 546,-1129.7"/>
<text text-anchor="start" x="592.8862" y="-1135.8" font-family="Helvetica,sans-Serif" font-size="11.00" fill="#000000"> &#160;</text>
</a>
</g>
</g>
<!-- allocation_case_note_audit&#45;&gt;prison_migration_date_history -->
<g id="edge6" class="edge">
<title>allocation_case_note_audit:w&#45;&gt;prison_migration_date_history:e</title>
<path fill="none" stroke="#000000" stroke-dasharray="5,2" d="M368.542,-1157.4925C334.4918,-1156.3456 316.4429,-1149.6947 292,-1119.7 232.5046,-1046.6913 345.6805,-911.7 251.5,-911.7"/>
<polygon fill="#000000" stroke="#000000" points="375.0008,-1157.5851 382.9483,-1161.2996 379.0004,-1157.6426 383,-1157.7 383,-1157.7 383,-1157.7 379.0004,-1157.6426 383.0517,-1154.1004 375.0008,-1157.5851 375.0008,-1157.5851"/>
<ellipse fill="none" stroke="#000000" cx="371.8012" cy="-1157.5392" rx="3.2" ry="3.2"/>
</g>
<!-- prison_configuration -->
<g id="node7" class="node">
<title>prison_configuration</title>
<g id="a_node7"><a xlink:href="../../tables/prison_configuration.html" xlink:title="prison_configuration" target="_top">
<polygon fill="#ffffff" stroke="transparent" points="403,-884.2 403,-945.2 581,-945.2 581,-884.2 403,-884.2"/>
<polygon fill="#f5f5f5" stroke="transparent" points="403,-921.7 403,-944.7 581,-944.7 581,-921.7 403,-921.7"/>
<polygon fill="none" stroke="#000000" points="403,-921.7 403,-944.7 581,-944.7 581,-921.7 403,-921.7"/>
<text text-anchor="start" x="408" y="-930.3" font-family="Helvetica,sans-Serif" font-weight="bold" font-size="11.00" fill="#000000">prison_configuration</text>
<text text-anchor="start" x="546.5219" y="-929.8" font-family="Helvetica,sans-Serif" font-size="11.00" fill="#000000">[table]</text>
<polygon fill="none" stroke="#000000" points="403,-902.7 403,-921.7 581,-921.7 581,-902.7 403,-902.7"/>
<text text-anchor="start" x="406" y="-908.8" font-family="Helvetica,sans-Serif" font-size="11.00" fill="#000000">...</text>
<polygon fill="#ffffff" stroke="transparent" points="403,-883.7 403,-902.7 474,-902.7 474,-883.7 403,-883.7"/>
<polygon fill="none" stroke="#000000" points="403,-883.7 403,-902.7 474,-902.7 474,-883.7 403,-883.7"/>
<text text-anchor="start" x="406" y="-889.8" font-family="Helvetica,sans-Serif" font-size="11.00" fill="#000000">&lt; 2</text>
<polygon fill="#ffffff" stroke="transparent" points="474,-883.7 474,-902.7 543,-902.7 543,-883.7 474,-883.7"/>
<polygon fill="none" stroke="#000000" points="474,-883.7 474,-902.7 543,-902.7 543,-883.7 474,-883.7"/>
<text text-anchor="start" x="501.4956" y="-889.8" font-family="Helvetica,sans-Serif" font-size="11.00" fill="#000000">12 rows</text>
<polygon fill="#ffffff" stroke="transparent" points="543,-883.7 543,-902.7 581,-902.7 581,-883.7 543,-883.7"/>
<polygon fill="none" stroke="#000000" points="543,-883.7 543,-902.7 581,-902.7 581,-883.7 543,-883.7"/>
<text text-anchor="start" x="571.8862" y="-889.8" font-family="Helvetica,sans-Serif" font-size="11.00" fill="#000000"> &#160;</text>
</a>
</g>
</g>
<!-- prison_configuration&#45;&gt;policy -->
<g id="edge7" class="edge">
<title>prison_configuration:w&#45;&gt;policy:e</title>
<path fill="none" stroke="#000000" d="M388.5079,-911.6706C346.1713,-911.3783 323.9971,-908.1974 292,-873.7 155.8319,-726.8915 378.736,-437.7 178.5,-437.7"/>
<polygon fill="#000000" stroke="#000000" points="395,-911.6837 402.9927,-915.3 399,-911.6918 403,-911.7 403,-911.7 403,-911.7 399,-911.6918 403.0073,-908.1 395,-911.6837 395,-911.6837"/>
<ellipse fill="none" stroke="#000000" cx="391.8" cy="-911.6772" rx="3.2" ry="3.2"/>
</g>
<!-- prison_configuration&#45;&gt;prison_migration_date_history -->
<g id="edge8" class="edge">
<title>prison_configuration:w&#45;&gt;prison_migration_date_history:e</title>
<path fill="none" stroke="#000000" stroke-dasharray="5,2" d="M388.4477,-911.7C332.8092,-911.7 313.7044,-911.7 251.5,-911.7"/>
<polygon fill="#000000" stroke="#000000" points="395,-911.7001 403,-915.3 399,-911.7 403,-911.7 403,-911.7 403,-911.7 399,-911.7 403,-908.1 395,-911.7001 395,-911.7001"/>
<ellipse fill="none" stroke="#000000" cx="391.8" cy="-911.7001" rx="3.2" ry="3.2"/>
</g>
<!-- prison_configuration_audit -->
<g id="node8" class="node">
<title>prison_configuration_audit</title>
<g id="a_node8"><a xlink:href="../../tables/prison_configuration_audit.html" xlink:title="prison_configuration_audit" target="_top">
<polygon fill="#ffffff" stroke="transparent" points="382.5,-802.2 382.5,-863.2 601.5,-863.2 601.5,-802.2 382.5,-802.2"/>
<polygon fill="#f5f5f5" stroke="transparent" points="383,-839.7 383,-862.7 602,-862.7 602,-839.7 383,-839.7"/>
<polygon fill="none" stroke="#000000" points="383,-839.7 383,-862.7 602,-862.7 602,-839.7 383,-839.7"/>
<text text-anchor="start" x="388" y="-848.3" font-family="Helvetica,sans-Serif" font-weight="bold" font-size="11.00" fill="#000000">prison_configuration_audit</text>
<text text-anchor="start" x="567.5219" y="-847.8" font-family="Helvetica,sans-Serif" font-size="11.00" fill="#000000">[table]</text>
<polygon fill="none" stroke="#000000" points="383,-820.7 383,-839.7 602,-839.7 602,-820.7 383,-820.7"/>
<text text-anchor="start" x="386" y="-826.8" font-family="Helvetica,sans-Serif" font-size="11.00" fill="#000000">...</text>
<polygon fill="#ffffff" stroke="transparent" points="383,-801.7 383,-820.7 491,-820.7 491,-801.7 383,-801.7"/>
<polygon fill="none" stroke="#000000" points="383,-801.7 383,-820.7 491,-820.7 491,-801.7 383,-801.7"/>
<text text-anchor="start" x="386" y="-807.8" font-family="Helvetica,sans-Serif" font-size="11.00" fill="#000000">&lt; 3</text>
<polygon fill="#ffffff" stroke="transparent" points="491,-801.7 491,-820.7 546,-820.7 546,-801.7 491,-801.7"/>
<polygon fill="none" stroke="#000000" points="491,-801.7 491,-820.7 546,-820.7 546,-801.7 491,-801.7"/>
<text text-anchor="start" x="536.8862" y="-807.8" font-family="Helvetica,sans-Serif" font-size="11.00" fill="#000000"> &#160;</text>
<polygon fill="#ffffff" stroke="transparent" points="546,-801.7 546,-820.7 602,-820.7 602,-801.7 546,-801.7"/>
<polygon fill="none" stroke="#000000" points="546,-801.7 546,-820.7 602,-820.7 602,-801.7 546,-801.7"/>
<text text-anchor="start" x="592.8862" y="-807.8" font-family="Helvetica,sans-Serif" font-size="11.00" fill="#000000"> &#160;</text>
</a>
</g>
</g>
<!-- prison_configuration_audit&#45;&gt;policy -->
<g id="edge9" class="edge">
<title>prison_configuration_audit:w&#45;&gt;policy:e</title>
<path fill="none" stroke="#000000" stroke-dasharray="5,2" d="M368.1665,-829.4116C334.7481,-827.9263 318.0527,-820.0756 292,-791.7 180.258,-669.9949 343.7223,-437.7 178.5,-437.7"/>
<polygon fill="#000000" stroke="#000000" points="375.0015,-829.5444 382.93,-833.2993 379.0008,-829.6222 383,-829.7 383,-829.7 383,-829.7 379.0008,-829.6222 383.07,-826.1007 375.0015,-829.5444 375.0015,-829.5444"/>
<ellipse fill="none" stroke="#000000" cx="371.8021" cy="-829.4822" rx="3.2" ry="3.2"/>
</g>
<!-- prison_configuration_audit&#45;&gt;prison_migration_date_history -->
<g id="edge10" class="edge">
<title>prison_configuration_audit:w&#45;&gt;prison_migration_date_history:e</title>
<path fill="none" stroke="#000000" stroke-dasharray="5,2" d="M368.5816,-830.4459C335.571,-834.1447 324.6883,-851.2422 292,-873.7 271.656,-887.677 276.1827,-911.7 251.5,-911.7"/>
<polygon fill="#000000" stroke="#000000" points="375.0107,-830.1134 383.186,-833.2952 379.0053,-829.9067 383,-829.7 383,-829.7 383,-829.7 379.0053,-829.9067 382.814,-826.1048 375.0107,-830.1134 375.0107,-830.1134"/>
<ellipse fill="none" stroke="#000000" cx="371.815" cy="-830.2787" rx="3.2" ry="3.2"/>
</g>
<!-- prison_statistic -->
<g id="node9" class="node">
<title>prison_statistic</title>
<g id="a_node9"><a xlink:href="../../tables/prison_statistic.html" xlink:title="prison_statistic" target="_top">
<polygon fill="#ffffff" stroke="transparent" points="300,-448.7 300,-780.7 684,-780.7 684,-448.7 300,-448.7"/>
<polygon fill="#f5f5f5" stroke="transparent" points="302,-755.7 302,-778.7 682,-778.7 682,-755.7 302,-755.7"/>
<polygon fill="none" stroke="#000000" points="302,-755.7 302,-778.7 682,-778.7 682,-755.7 302,-755.7"/>
<text text-anchor="start" x="307" y="-764.3" font-family="Helvetica,sans-Serif" font-weight="bold" font-size="11.00" fill="#000000">prison_statistic</text>
<text text-anchor="start" x="647.0437" y="-763.8" font-family="Helvetica,sans-Serif" font-size="11.00" fill="#000000">[table]</text>
<polygon fill="none" stroke="#000000" points="302,-733.7 302,-755.7 598,-755.7 598,-733.7 302,-733.7"/>
<image xlink:href="../../images/primaryKeys.png" width="11px" height="12px" preserveAspectRatio="xMinYMin meet" x="307" y="-750.7"/>
<text text-anchor="start" x="322" y="-740.8" font-family="Helvetica,sans-Serif" font-size="11.00" fill="#000000">id</text>
<polygon fill="none" stroke="#000000" points="598,-733.7 598,-755.7 682,-755.7 682,-733.7 598,-733.7"/>
<text text-anchor="start" x="601" y="-741.4" font-family="Helvetica,sans-Serif" font-size="11.00" fill="#000000">bigserial[19]</text>
<polygon fill="#ffffff" stroke="transparent" points="302,-711.7 302,-733.7 598,-733.7 598,-711.7 302,-711.7"/>
<polygon fill="none" stroke="#000000" points="302,-711.7 302,-733.7 598,-733.7 598,-711.7 302,-711.7"/>
<image xlink:href="../../images/foreignKeys.png" width="11px" height="12px" preserveAspectRatio="xMinYMin meet" x="307" y="-728.7"/>
<text text-anchor="start" x="322" y="-718.8" font-family="Helvetica,sans-Serif" font-size="11.00" fill="#000000">prison_code</text>
<polygon fill="none" stroke="#000000" points="598,-711.7 598,-733.7 682,-733.7 682,-711.7 598,-711.7"/>
<text text-anchor="start" x="601" y="-719.4" font-family="Helvetica,sans-Serif" font-size="11.00" fill="#000000">varchar[6]</text>
<polygon fill="#ffffff" stroke="transparent" points="302,-689.7 302,-711.7 598,-711.7 598,-689.7 302,-689.7"/>
<polygon fill="none" stroke="#000000" points="302,-689.7 302,-711.7 598,-711.7 598,-689.7 302,-689.7"/>
<text text-anchor="start" x="322" y="-696.8" font-family="Helvetica,sans-Serif" font-size="11.00" fill="#000000">statistic_date</text>
<polygon fill="none" stroke="#000000" points="598,-689.7 598,-711.7 682,-711.7 682,-689.7 598,-689.7"/>
<text text-anchor="start" x="600.8807" y="-697.4" font-family="Helvetica,sans-Serif" font-size="11.00" fill="#000000">timestamp[29,6]</text>
<polygon fill="none" stroke="#000000" points="302,-667.7 302,-689.7 598,-689.7 598,-667.7 302,-667.7"/>
<text text-anchor="start" x="322" y="-674.8" font-family="Helvetica,sans-Serif" font-size="11.00" fill="#000000">prisoners_assigned_count</text>
<polygon fill="none" stroke="#000000" points="598,-667.7 598,-689.7 682,-689.7 682,-667.7 598,-667.7"/>
<text text-anchor="start" x="601" y="-675.4" font-family="Helvetica,sans-Serif" font-size="11.00" fill="#000000">int4[10]</text>
<polygon fill="none" stroke="#000000" points="302,-645.7 302,-667.7 598,-667.7 598,-645.7 302,-645.7"/>
<text text-anchor="start" x="322" y="-652.8" font-family="Helvetica,sans-Serif" font-size="11.00" fill="#000000">prisoner_count</text>
<polygon fill="none" stroke="#000000" points="598,-645.7 598,-667.7 682,-667.7 682,-645.7 598,-645.7"/>
<text text-anchor="start" x="601" y="-653.4" font-family="Helvetica,sans-Serif" font-size="11.00" fill="#000000">int4[10]</text>
<polygon fill="none" stroke="#000000" points="302,-623.7 302,-645.7 598,-645.7 598,-623.7 302,-623.7"/>
<text text-anchor="start" x="322" y="-630.8" font-family="Helvetica,sans-Serif" font-size="11.00" fill="#000000">recorded_session_count</text>
<polygon fill="none" stroke="#000000" points="598,-623.7 598,-645.7 682,-645.7 682,-623.7 598,-623.7"/>
<text text-anchor="start" x="601" y="-631.4" font-family="Helvetica,sans-Serif" font-size="11.00" fill="#000000">int4[10]</text>
<polygon fill="none" stroke="#000000" points="302,-601.7 302,-623.7 598,-623.7 598,-601.7 302,-601.7"/>
<text text-anchor="start" x="322" y="-608.8" font-family="Helvetica,sans-Serif" font-size="11.00" fill="#000000">recorded_entry_count</text>
<polygon fill="none" stroke="#000000" points="598,-601.7 598,-623.7 682,-623.7 682,-601.7 598,-601.7"/>
<text text-anchor="start" x="601" y="-609.4" font-family="Helvetica,sans-Serif" font-size="11.00" fill="#000000">int4[10]</text>
<polygon fill="none" stroke="#000000" points="302,-579.7 302,-601.7 598,-601.7 598,-579.7 302,-579.7"/>
<text text-anchor="start" x="322" y="-586.8" font-family="Helvetica,sans-Serif" font-size="11.00" fill="#000000">eligible_staff_count</text>
<polygon fill="none" stroke="#000000" points="598,-579.7 598,-601.7 682,-601.7 682,-579.7 598,-579.7"/>
<text text-anchor="start" x="601" y="-587.4" font-family="Helvetica,sans-Serif" font-size="11.00" fill="#000000">int4[10]</text>
<polygon fill="none" stroke="#000000" points="302,-557.7 302,-579.7 598,-579.7 598,-557.7 302,-557.7"/>
<text text-anchor="start" x="322" y="-564.8" font-family="Helvetica,sans-Serif" font-size="11.00" fill="#000000">reception_to_allocation_days</text>
<polygon fill="none" stroke="#000000" points="598,-557.7 598,-579.7 682,-579.7 682,-557.7 598,-557.7"/>
<text text-anchor="start" x="601" y="-565.4" font-family="Helvetica,sans-Serif" font-size="11.00" fill="#000000">int4[10]</text>
<polygon fill="none" stroke="#000000" points="302,-535.7 302,-557.7 598,-557.7 598,-535.7 302,-535.7"/>
<text text-anchor="start" x="322" y="-542.8" font-family="Helvetica,sans-Serif" font-size="11.00" fill="#000000">reception_to_recorded_event_days</text>
<polygon fill="none" stroke="#000000" points="598,-535.7 598,-557.7 682,-557.7 682,-535.7 598,-535.7"/>
<text text-anchor="start" x="601" y="-543.4" font-family="Helvetica,sans-Serif" font-size="11.00" fill="#000000">int4[10]</text>
<polygon fill="none" stroke="#000000" points="302,-513.7 302,-535.7 598,-535.7 598,-513.7 302,-513.7"/>
<text text-anchor="start" x="322" y="-520.8" font-family="Helvetica,sans-Serif" font-size="11.00" fill="#000000">eligible_prisoner_count</text>
<polygon fill="none" stroke="#000000" points="598,-513.7 598,-535.7 682,-535.7 682,-513.7 598,-513.7"/>
<text text-anchor="start" x="601" y="-521.4" font-family="Helvetica,sans-Serif" font-size="11.00" fill="#000000">int4[10]</text>
<polygon fill="none" stroke="#000000" points="302,-491.7 302,-513.7 598,-513.7 598,-491.7 302,-491.7"/>
<text text-anchor="start" x="322" y="-498.8" font-family="Helvetica,sans-Serif" font-size="11.00" fill="#000000">high_complexity_of_need_prisoner_count</text>
<polygon fill="none" stroke="#000000" points="598,-491.7 598,-513.7 682,-513.7 682,-491.7 598,-491.7"/>
<text text-anchor="start" x="601" y="-499.4" font-family="Helvetica,sans-Serif" font-size="11.00" fill="#000000">int4[10]</text>
<polygon fill="none" stroke="#000000" points="302,-469.7 302,-491.7 598,-491.7 598,-469.7 302,-469.7"/>
<image xlink:href="../../images/foreignKeys.png" width="11px" height="12px" preserveAspectRatio="xMinYMin meet" x="307" y="-486.7"/>
<text text-anchor="start" x="322" y="-476.8" font-family="Helvetica,sans-Serif" font-size="11.00" fill="#000000">policy_code</text>
<polygon fill="none" stroke="#000000" points="598,-469.7 598,-491.7 682,-491.7 682,-469.7 598,-469.7"/>
<text text-anchor="start" x="601" y="-477.4" font-family="Helvetica,sans-Serif" font-size="11.00" fill="#000000">varchar[16]</text>
<polygon fill="#ffffff" stroke="transparent" points="302,-450.7 302,-469.7 454,-469.7 454,-450.7 302,-450.7"/>
<polygon fill="none" stroke="#000000" points="302,-450.7 302,-469.7 454,-469.7 454,-450.7 302,-450.7"/>
<text text-anchor="start" x="305" y="-456.8" font-family="Helvetica,sans-Serif" font-size="11.00" fill="#000000">&lt; 2</text>
<polygon fill="#ffffff" stroke="transparent" points="454,-450.7 454,-469.7 598,-469.7 598,-450.7 454,-450.7"/>
<polygon fill="none" stroke="#000000" points="454,-450.7 454,-469.7 598,-469.7 598,-450.7 454,-450.7"/>
<text text-anchor="start" x="588.8862" y="-456.8" font-family="Helvetica,sans-Serif" font-size="11.00" fill="#000000"> &#160;</text>
<polygon fill="#ffffff" stroke="transparent" points="598,-450.7 598,-469.7 682,-469.7 682,-450.7 598,-450.7"/>
<polygon fill="none" stroke="#000000" points="598,-450.7 598,-469.7 682,-469.7 682,-450.7 598,-450.7"/>
<text text-anchor="start" x="663.4053" y="-456.8" font-family="Helvetica,sans-Serif" font-size="11.00" fill="#000000">0 &gt;</text>
<polygon fill="none" stroke="#000000" stroke-width="2" points="301,-449.7 301,-779.7 683,-779.7 683,-449.7 301,-449.7"/>
</a>
</g>
</g>
<!-- prison_statistic&#45;&gt;policy -->
<g id="edge11" class="edge">
<title>prison_statistic:w&#45;&gt;policy:e</title>
<path fill="none" stroke="#000000" d="M287.4925,-479.7211C242.1644,-473.3205 231.399,-437.7 178.5,-437.7"/>
<polygon fill="#000000" stroke="#000000" points="294.0181,-480.1614 301.7576,-484.2918 298.0091,-480.4307 302,-480.7 302,-480.7 302,-480.7 298.0091,-480.4307 302.2424,-477.1082 294.0181,-480.1614 294.0181,-480.1614"/>
<ellipse fill="none" stroke="#000000" cx="290.8254" cy="-479.9459" rx="3.2" ry="3.2"/>
</g>
<!-- prison_statistic&#45;&gt;prison_migration_date_history -->
<g id="edge12" class="edge">
<title>prison_statistic:w&#45;&gt;prison_migration_date_history:e</title>
<path fill="none" stroke="#000000" stroke-dasharray="5,2" d="M287.6968,-724.9542C230.0856,-746.2781 332.8428,-911.7 251.5,-911.7"/>
<polygon fill="#000000" stroke="#000000" points="294.0975,-723.9455 302.5605,-726.2561 298.0488,-723.3227 302,-722.7 302,-722.7 302,-722.7 298.0488,-723.3227 301.4395,-719.1439 294.0975,-723.9455 294.0975,-723.9455"/>
<ellipse fill="none" stroke="#000000" cx="290.9366" cy="-724.4437" rx="3.2" ry="3.2"/>
</g>
<!-- reference_data_policy -->
<g id="node10" class="node">
<title>reference_data_policy</title>
<g id="a_node10"><a xlink:href="../../tables/reference_data_policy.html" xlink:title="reference_data_policy" target="_top">
<polygon fill="#ffffff" stroke="transparent" points="399,-202.2 399,-263.2 585,-263.2 585,-202.2 399,-202.2"/>
<polygon fill="#f5f5f5" stroke="transparent" points="399,-239.7 399,-262.7 585,-262.7 585,-239.7 399,-239.7"/>
<polygon fill="none" stroke="#000000" points="399,-239.7 399,-262.7 585,-262.7 585,-239.7 399,-239.7"/>
<text text-anchor="start" x="404" y="-248.3" font-family="Helvetica,sans-Serif" font-weight="bold" font-size="11.00" fill="#000000">reference_data_policy</text>
<text text-anchor="start" x="550.5219" y="-247.8" font-family="Helvetica,sans-Serif" font-size="11.00" fill="#000000">[table]</text>
<polygon fill="none" stroke="#000000" points="399,-220.7 399,-239.7 585,-239.7 585,-220.7 399,-220.7"/>
<text text-anchor="start" x="402" y="-226.8" font-family="Helvetica,sans-Serif" font-size="11.00" fill="#000000">...</text>
<polygon fill="#ffffff" stroke="transparent" points="399,-201.7 399,-220.7 490,-220.7 490,-201.7 399,-201.7"/>
<polygon fill="none" stroke="#000000" points="399,-201.7 399,-220.7 490,-220.7 490,-201.7 399,-201.7"/>
<text text-anchor="start" x="402" y="-207.8" font-family="Helvetica,sans-Serif" font-size="11.00" fill="#000000">&lt; 2</text>
<polygon fill="#ffffff" stroke="transparent" points="490,-201.7 490,-220.7 537,-220.7 537,-201.7 490,-201.7"/>
<polygon fill="none" stroke="#000000" points="490,-201.7 490,-220.7 537,-220.7 537,-201.7 490,-201.7"/>
<text text-anchor="start" x="527.8862" y="-207.8" font-family="Helvetica,sans-Serif" font-size="11.00" fill="#000000"> &#160;</text>
<polygon fill="#ffffff" stroke="transparent" points="537,-201.7 537,-220.7 585,-220.7 585,-201.7 537,-201.7"/>
<polygon fill="none" stroke="#000000" points="537,-201.7 537,-220.7 585,-220.7 585,-201.7 537,-201.7"/>
<text text-anchor="start" x="575.8862" y="-207.8" font-family="Helvetica,sans-Serif" font-size="11.00" fill="#000000"> &#160;</text>
</a>
</g>
</g>
<!-- reference_data_policy&#45;&gt;policy -->
<g id="edge13" class="edge">
<title>reference_data_policy:w&#45;&gt;policy:e</title>
<path fill="none" stroke="#000000" d="M384.3806,-230.073C344.1738,-232.2994 327.9862,-244.7316 292,-273.7 222.9504,-329.284 267.1422,-437.7 178.5,-437.7"/>
<polygon fill="#000000" stroke="#000000" points="391.0026,-229.9041 399.0918,-233.2988 395.0013,-229.802 399,-229.7 399,-229.7 399,-229.7 395.0013,-229.802 398.9082,-226.1012 391.0026,-229.9041 391.0026,-229.9041"/>
<ellipse fill="none" stroke="#000000" cx="387.8036" cy="-229.9857" rx="3.2" ry="3.2"/>
</g>
<!-- staff_configuration -->
<g id="node11" class="node">
<title>staff_configuration</title>
<g id="a_node11"><a xlink:href="../../tables/staff_configuration.html" xlink:title="staff_configuration" target="_top">
<polygon fill="#ffffff" stroke="transparent" points="408.5,-120.2 408.5,-181.2 575.5,-181.2 575.5,-120.2 408.5,-120.2"/>
<polygon fill="#f5f5f5" stroke="transparent" points="409,-157.7 409,-180.7 576,-180.7 576,-157.7 409,-157.7"/>
<polygon fill="none" stroke="#000000" points="409,-157.7 409,-180.7 576,-180.7 576,-157.7 409,-157.7"/>
<text text-anchor="start" x="414" y="-166.3" font-family="Helvetica,sans-Serif" font-weight="bold" font-size="11.00" fill="#000000">staff_configuration</text>
<text text-anchor="start" x="541.5219" y="-165.8" font-family="Helvetica,sans-Serif" font-size="11.00" fill="#000000">[table]</text>
<polygon fill="none" stroke="#000000" points="409,-138.7 409,-157.7 576,-157.7 576,-138.7 409,-138.7"/>
<text text-anchor="start" x="412" y="-144.8" font-family="Helvetica,sans-Serif" font-size="11.00" fill="#000000">...</text>
<polygon fill="#ffffff" stroke="transparent" points="409,-119.7 409,-138.7 491,-138.7 491,-119.7 409,-119.7"/>
<polygon fill="none" stroke="#000000" points="409,-119.7 409,-138.7 491,-138.7 491,-119.7 409,-119.7"/>
<text text-anchor="start" x="412" y="-125.8" font-family="Helvetica,sans-Serif" font-size="11.00" fill="#000000">&lt; 2</text>
<polygon fill="#ffffff" stroke="transparent" points="491,-119.7 491,-138.7 533,-138.7 533,-119.7 491,-119.7"/>
<polygon fill="none" stroke="#000000" points="491,-119.7 491,-138.7 533,-138.7 533,-119.7 491,-119.7"/>
<text text-anchor="start" x="523.8862" y="-125.8" font-family="Helvetica,sans-Serif" font-size="11.00" fill="#000000"> &#160;</text>
<polygon fill="#ffffff" stroke="transparent" points="533,-119.7 533,-138.7 576,-138.7 576,-119.7 533,-119.7"/>
<polygon fill="none" stroke="#000000" points="533,-119.7 533,-138.7 576,-138.7 576,-119.7 533,-119.7"/>
<text text-anchor="start" x="566.8862" y="-125.8" font-family="Helvetica,sans-Serif" font-size="11.00" fill="#000000"> &#160;</text>
</a>
</g>
</g>
<!-- staff_configuration&#45;&gt;policy -->
<g id="edge14" class="edge">
<title>staff_configuration:w&#45;&gt;policy:e</title>
<path fill="none" stroke="#000000" d="M394.5378,-147.8756C349.4649,-149.0991 328.9484,-157.3402 292,-191.7 203.825,-273.6975 298.9094,-437.7 178.5,-437.7"/>
<polygon fill="#000000" stroke="#000000" points="401.0006,-147.7972 409.0437,-151.2997 405.0003,-147.7486 409,-147.7 409,-147.7 409,-147.7 405.0003,-147.7486 408.9563,-144.1003 401.0006,-147.7972 401.0006,-147.7972"/>
<ellipse fill="none" stroke="#000000" cx="397.8008" cy="-147.8361" rx="3.2" ry="3.2"/>
</g>
<!-- staff_configuration_audit -->
<g id="node12" class="node">
<title>staff_configuration_audit</title>
<g id="a_node12"><a xlink:href="../../tables/staff_configuration_audit.html" xlink:title="staff_configuration_audit" target="_top">
<polygon fill="#ffffff" stroke="transparent" points="388,-38.2 388,-99.2 596,-99.2 596,-38.2 388,-38.2"/>
<polygon fill="#f5f5f5" stroke="transparent" points="388,-75.7 388,-98.7 596,-98.7 596,-75.7 388,-75.7"/>
<polygon fill="none" stroke="#000000" points="388,-75.7 388,-98.7 596,-98.7 596,-75.7 388,-75.7"/>
<text text-anchor="start" x="393" y="-84.3" font-family="Helvetica,sans-Serif" font-weight="bold" font-size="11.00" fill="#000000">staff_configuration_audit</text>
<text text-anchor="start" x="561.5219" y="-83.8" font-family="Helvetica,sans-Serif" font-size="11.00" fill="#000000">[table]</text>
<polygon fill="none" stroke="#000000" points="388,-56.7 388,-75.7 596,-75.7 596,-56.7 388,-56.7"/>
<text text-anchor="start" x="391" y="-62.8" font-family="Helvetica,sans-Serif" font-size="11.00" fill="#000000">...</text>
<polygon fill="#ffffff" stroke="transparent" points="388,-37.7 388,-56.7 490,-56.7 490,-37.7 388,-37.7"/>
<polygon fill="none" stroke="#000000" points="388,-37.7 388,-56.7 490,-56.7 490,-37.7 388,-37.7"/>
<text text-anchor="start" x="391" y="-43.8" font-family="Helvetica,sans-Serif" font-size="11.00" fill="#000000">&lt; 2</text>
<polygon fill="#ffffff" stroke="transparent" points="490,-37.7 490,-56.7 543,-56.7 543,-37.7 490,-37.7"/>
<polygon fill="none" stroke="#000000" points="490,-37.7 490,-56.7 543,-56.7 543,-37.7 490,-37.7"/>
<text text-anchor="start" x="533.8862" y="-43.8" font-family="Helvetica,sans-Serif" font-size="11.00" fill="#000000"> &#160;</text>
<polygon fill="#ffffff" stroke="transparent" points="543,-37.7 543,-56.7 596,-56.7 596,-37.7 543,-37.7"/>
<polygon fill="none" stroke="#000000" points="543,-37.7 543,-56.7 596,-56.7 596,-37.7 543,-37.7"/>
<text text-anchor="start" x="586.8862" y="-43.8" font-family="Helvetica,sans-Serif" font-size="11.00" fill="#000000"> &#160;</text>
</a>
</g>
</g>
<!-- staff_configuration_audit&#45;&gt;policy -->
<g id="edge15" class="edge">
<title>staff_configuration_audit:w&#45;&gt;policy:e</title>
<path fill="none" stroke="#000000" stroke-dasharray="5,2" d="M373.5984,-66.0532C337.0652,-68.0281 320.096,-78.7491 292,-109.7 188.3174,-223.9179 332.7589,-437.7 178.5,-437.7"/>
<polygon fill="#000000" stroke="#000000" points="380.0024,-65.8962 388.0883,-69.2989 384.0012,-65.7981 388,-65.7 388,-65.7 388,-65.7 384.0012,-65.7981 387.9117,-62.1011 380.0024,-65.8962 380.0024,-65.8962"/>
<ellipse fill="none" stroke="#000000" cx="376.8034" cy="-65.9747" rx="3.2" ry="3.2"/>
</g>
<!-- staff_role -->
<g id="node13" class="node">
<title>staff_role</title>
<g id="a_node13"><a xlink:href="../../tables/staff_role.html" xlink:title="staff_role" target="_top">
<polygon fill="#ffffff" stroke="transparent" points="441,-366.2 441,-427.2 543,-427.2 543,-366.2 441,-366.2"/>
<polygon fill="#f5f5f5" stroke="transparent" points="441,-403.7 441,-426.7 543,-426.7 543,-403.7 441,-403.7"/>
<polygon fill="none" stroke="#000000" points="441,-403.7 441,-426.7 543,-426.7 543,-403.7 441,-403.7"/>
<text text-anchor="start" x="446" y="-412.3" font-family="Helvetica,sans-Serif" font-weight="bold" font-size="11.00" fill="#000000">staff_role</text>
<text text-anchor="start" x="508.5219" y="-411.8" font-family="Helvetica,sans-Serif" font-size="11.00" fill="#000000">[table]</text>
<polygon fill="none" stroke="#000000" points="441,-384.7 441,-403.7 543,-403.7 543,-384.7 441,-384.7"/>
<text text-anchor="start" x="444" y="-390.8" font-family="Helvetica,sans-Serif" font-size="11.00" fill="#000000">...</text>
<polygon fill="#ffffff" stroke="transparent" points="441,-365.7 441,-384.7 490,-384.7 490,-365.7 441,-365.7"/>
<polygon fill="none" stroke="#000000" points="441,-365.7 441,-384.7 490,-384.7 490,-365.7 441,-365.7"/>
<text text-anchor="start" x="444" y="-371.8" font-family="Helvetica,sans-Serif" font-size="11.00" fill="#000000">&lt; 2</text>
<polygon fill="#ffffff" stroke="transparent" points="490,-365.7 490,-384.7 516,-384.7 516,-365.7 490,-365.7"/>
<polygon fill="none" stroke="#000000" points="490,-365.7 490,-384.7 516,-384.7 516,-365.7 490,-365.7"/>
<text text-anchor="start" x="506.8862" y="-371.8" font-family="Helvetica,sans-Serif" font-size="11.00" fill="#000000"> &#160;</text>
<polygon fill="#ffffff" stroke="transparent" points="516,-365.7 516,-384.7 543,-384.7 543,-365.7 516,-365.7"/>
<polygon fill="none" stroke="#000000" points="516,-365.7 516,-384.7 543,-384.7 543,-365.7 516,-365.7"/>
<text text-anchor="start" x="533.8862" y="-371.8" font-family="Helvetica,sans-Serif" font-size="11.00" fill="#000000"> &#160;</text>
</a>
</g>
</g>
<!-- staff_role&#45;&gt;policy -->
<g id="edge16" class="edge">
<title>staff_role:w&#45;&gt;policy:e</title>
<path fill="none" stroke="#000000" stroke-dasharray="5,2" d="M426.5727,-393.9262C320.3667,-397.3177 291.8268,-437.7 178.5,-437.7"/>
<polygon fill="#000000" stroke="#000000" points="433.001,-393.8255 441.0565,-397.2996 437.0005,-393.7627 441,-393.7 441,-393.7 441,-393.7 437.0005,-393.7627 440.9435,-390.1004 433.001,-393.8255 433.001,-393.8255"/>
<ellipse fill="none" stroke="#000000" cx="429.8014" cy="-393.8757" rx="3.2" ry="3.2"/>
</g>
<!-- staff_role&#45;&gt;prison_migration_date_history -->
<g id="edge17" class="edge">
<title>staff_role:w&#45;&gt;prison_migration_date_history:e</title>
<path fill="none" stroke="#000000" stroke-dasharray="5,2" d="M426.5035,-393.5901C366.5463,-392.7649 332.4268,-388.8562 292,-438.7 258.7729,-479.667 304.2479,-911.7 251.5,-911.7"/>
<polygon fill="#000000" stroke="#000000" points="433.0002,-393.6393 440.9727,-397.2999 437.0001,-393.6697 441,-393.7 441,-393.7 441,-393.7 437.0001,-393.6697 441.0273,-390.1001 433.0002,-393.6393 433.0002,-393.6393"/>
<ellipse fill="none" stroke="#000000" cx="429.8003" cy="-393.6151" rx="3.2" ry="3.2"/>
</g>
<!-- staff_role_audit -->
<g id="node14" class="node">
<title>staff_role_audit</title>
<g id="a_node14"><a xlink:href="../../tables/staff_role_audit.html" xlink:title="staff_role_audit" target="_top">
<polygon fill="#ffffff" stroke="transparent" points="420.5,-284.2 420.5,-345.2 563.5,-345.2 563.5,-284.2 420.5,-284.2"/>
<polygon fill="#f5f5f5" stroke="transparent" points="421,-321.7 421,-344.7 564,-344.7 564,-321.7 421,-321.7"/>
<polygon fill="none" stroke="#000000" points="421,-321.7 421,-344.7 564,-344.7 564,-321.7 421,-321.7"/>
<text text-anchor="start" x="426" y="-330.3" font-family="Helvetica,sans-Serif" font-weight="bold" font-size="11.00" fill="#000000">staff_role_audit</text>
<text text-anchor="start" x="529.5219" y="-329.8" font-family="Helvetica,sans-Serif" font-size="11.00" fill="#000000">[table]</text>
<polygon fill="none" stroke="#000000" points="421,-302.7 421,-321.7 564,-321.7 564,-302.7 421,-302.7"/>
<text text-anchor="start" x="424" y="-308.8" font-family="Helvetica,sans-Serif" font-size="11.00" fill="#000000">...</text>
<polygon fill="#ffffff" stroke="transparent" points="421,-283.7 421,-302.7 491,-302.7 491,-283.7 421,-283.7"/>
<polygon fill="none" stroke="#000000" points="421,-283.7 421,-302.7 491,-302.7 491,-283.7 421,-283.7"/>
<text text-anchor="start" x="424" y="-289.8" font-family="Helvetica,sans-Serif" font-size="11.00" fill="#000000">&lt; 3</text>
<polygon fill="#ffffff" stroke="transparent" points="491,-283.7 491,-302.7 527,-302.7 527,-283.7 491,-283.7"/>
<polygon fill="none" stroke="#000000" points="491,-283.7 491,-302.7 527,-302.7 527,-283.7 491,-283.7"/>
<text text-anchor="start" x="517.8862" y="-289.8" font-family="Helvetica,sans-Serif" font-size="11.00" fill="#000000"> &#160;</text>
<polygon fill="#ffffff" stroke="transparent" points="527,-283.7 527,-302.7 564,-302.7 564,-283.7 527,-283.7"/>
<polygon fill="none" stroke="#000000" points="527,-283.7 527,-302.7 564,-302.7 564,-283.7 527,-283.7"/>
<text text-anchor="start" x="554.8862" y="-289.8" font-family="Helvetica,sans-Serif" font-size="11.00" fill="#000000"> &#160;</text>
</a>
</g>
</g>
<!-- staff_role_audit&#45;&gt;policy -->
<g id="edge18" class="edge">
<title>staff_role_audit:w&#45;&gt;policy:e</title>
<path fill="none" stroke="#000000" stroke-dasharray="5,2" d="M406.3469,-312.0556C357.6222,-314.5667 341.1856,-330.2696 292,-355.7 236.7195,-384.2816 240.7321,-437.7 178.5,-437.7"/>
<polygon fill="#000000" stroke="#000000" points="413.0024,-311.8941 421.0874,-315.2989 417.0012,-311.7971 421,-311.7 421,-311.7 421,-311.7 417.0012,-311.7971 420.9126,-308.1011 413.0024,-311.8941 413.0024,-311.8941"/>
<ellipse fill="none" stroke="#000000" cx="409.8033" cy="-311.9718" rx="3.2" ry="3.2"/>
</g>
<!-- staff_role_audit&#45;&gt;prison_migration_date_history -->
<g id="edge19" class="edge">
<title>staff_role_audit:w&#45;&gt;prison_migration_date_history:e</title>
<path fill="none" stroke="#000000" stroke-dasharray="5,2" d="M406.3341,-311.6495C355.1083,-311.4024 325.9072,-311.7757 292,-355.7 254.15,-404.7319 313.4415,-911.7 251.5,-911.7"/>
<polygon fill="#000000" stroke="#000000" points="413,-311.6724 420.9876,-315.3 417,-311.6862 421,-311.7 421,-311.7 421,-311.7 417,-311.6862 421.0124,-308.1 413,-311.6724 413,-311.6724"/>
<ellipse fill="none" stroke="#000000" cx="409.8001" cy="-311.6613" rx="3.2" ry="3.2"/>
</g>
</g>
</svg>
