<?xml version="1.0" encoding="UTF-8" standalone="no"?>
<!DOCTYPE svg PUBLIC "-//W3C//DTD SVG 1.1//EN"
 "http://www.w3.org/Graphics/SVG/1.1/DTD/svg11.dtd">
<!-- Generated by graphviz version 2.40.1 (20161225.0304)
 -->
<!-- Title: oneDegreeRelationshipsDiagramImplied Pages: 1 -->
<svg width="763pt" height="1735pt"
 viewBox="0.00 0.00 763.00 1735.20" xmlns="http://www.w3.org/2000/svg" xmlns:xlink="http://www.w3.org/1999/xlink">
<g id="graph0" class="graph" transform="scale(1 1) rotate(0) translate(4 1731.2)">
<title>oneDegreeRelationshipsDiagramImplied</title>
<polygon fill="#ffffff" stroke="transparent" points="-4,4 -4,-1731.2 759,-1731.2 759,4 -4,4"/>
<text text-anchor="middle" x="72.4936" y="-7.3" font-family="Helvetica,sans-Serif" font-size="11.00" fill="#000000">Generated by SchemaSpy</text>
<!-- allocation -->
<g id="node1" class="node">
<title>allocation</title>
<g id="a_node1"><a xlink:href="../../tables/allocation.html" xlink:title="allocation" target="_top">
<polygon fill="#ffffff" stroke="transparent" points="471.5,-1464.2 471.5,-1723.2 645.5,-1723.2 645.5,-1464.2 471.5,-1464.2"/>
<polygon fill="#f5f5f5" stroke="transparent" points="471.5,-1699.7 471.5,-1722.7 645.5,-1722.7 645.5,-1699.7 471.5,-1699.7"/>
<polygon fill="none" stroke="#000000" points="471.5,-1699.7 471.5,-1722.7 645.5,-1722.7 645.5,-1699.7 471.5,-1699.7"/>
<text text-anchor="start" x="476.5" y="-1708.3" font-family="Helvetica,sans-Serif" font-weight="bold" font-size="11.00" fill="#000000">allocation</text>
<text text-anchor="start" x="610.5437" y="-1707.8" font-family="Helvetica,sans-Serif" font-size="11.00" fill="#000000">[table]</text>
<polygon fill="none" stroke="#000000" points="471.5,-1677.7 471.5,-1699.7 645.5,-1699.7 645.5,-1677.7 471.5,-1677.7"/>
<image xlink:href="../../images/primaryKeys.png" width="11px" height="12px" preserveAspectRatio="xMinYMin meet" x="476.5" y="-1694.7"/>
<text text-anchor="start" x="491.5" y="-1684.8" font-family="Helvetica,sans-Serif" font-size="11.00" fill="#000000">id</text>
<polygon fill="#ffffff" stroke="transparent" points="471.5,-1655.7 471.5,-1677.7 645.5,-1677.7 645.5,-1655.7 471.5,-1655.7"/>
<polygon fill="none" stroke="#000000" points="471.5,-1655.7 471.5,-1677.7 645.5,-1677.7 645.5,-1655.7 471.5,-1655.7"/>
<image xlink:href="../../images/foreignKeys.png" width="11px" height="12px" preserveAspectRatio="xMinYMin meet" x="476.5" y="-1672.7"/>
<text text-anchor="start" x="491.5" y="-1662.8" font-family="Helvetica,sans-Serif" font-size="11.00" fill="#000000">prison_code</text>
<polygon fill="#ffffff" stroke="transparent" points="471.5,-1633.7 471.5,-1655.7 645.5,-1655.7 645.5,-1633.7 471.5,-1633.7"/>
<polygon fill="none" stroke="#000000" points="471.5,-1633.7 471.5,-1655.7 645.5,-1655.7 645.5,-1633.7 471.5,-1633.7"/>
<text text-anchor="start" x="491.5" y="-1640.8" font-family="Helvetica,sans-Serif" font-size="11.00" fill="#000000">staff_id</text>
<polygon fill="#ffffff" stroke="transparent" points="471.5,-1611.7 471.5,-1633.7 645.5,-1633.7 645.5,-1611.7 471.5,-1611.7"/>
<polygon fill="none" stroke="#000000" points="471.5,-1611.7 471.5,-1633.7 645.5,-1633.7 645.5,-1611.7 471.5,-1611.7"/>
<text text-anchor="start" x="491.5" y="-1618.8" font-family="Helvetica,sans-Serif" font-size="11.00" fill="#000000">person_identifier</text>
<polygon fill="#ffffff" stroke="transparent" points="471.5,-1589.7 471.5,-1611.7 645.5,-1611.7 645.5,-1589.7 471.5,-1589.7"/>
<polygon fill="none" stroke="#000000" points="471.5,-1589.7 471.5,-1611.7 645.5,-1611.7 645.5,-1589.7 471.5,-1589.7"/>
<text text-anchor="start" x="491.5" y="-1596.8" font-family="Helvetica,sans-Serif" font-size="11.00" fill="#000000">allocated_at</text>
<polygon fill="none" stroke="#000000" points="471.5,-1567.7 471.5,-1589.7 645.5,-1589.7 645.5,-1567.7 471.5,-1567.7"/>
<image xlink:href="../../images/foreignKeys.png" width="11px" height="12px" preserveAspectRatio="xMinYMin meet" x="476.5" y="-1584.7"/>
<text text-anchor="start" x="491.5" y="-1574.8" font-family="Helvetica,sans-Serif" font-size="11.00" fill="#000000">allocation_reason_id</text>
<polygon fill="#ffffff" stroke="transparent" points="471.5,-1545.7 471.5,-1567.7 645.5,-1567.7 645.5,-1545.7 471.5,-1545.7"/>
<polygon fill="none" stroke="#000000" points="471.5,-1545.7 471.5,-1567.7 645.5,-1567.7 645.5,-1545.7 471.5,-1545.7"/>
<text text-anchor="start" x="491.5" y="-1552.8" font-family="Helvetica,sans-Serif" font-size="11.00" fill="#000000">deallocated_at</text>
<polygon fill="none" stroke="#000000" points="471.5,-1523.7 471.5,-1545.7 645.5,-1545.7 645.5,-1523.7 471.5,-1523.7"/>
<image xlink:href="../../images/foreignKeys.png" width="11px" height="12px" preserveAspectRatio="xMinYMin meet" x="476.5" y="-1540.7"/>
<text text-anchor="start" x="491.5" y="-1530.8" font-family="Helvetica,sans-Serif" font-size="11.00" fill="#000000">deallocation_reason_id</text>
<polygon fill="#ffffff" stroke="transparent" points="471.5,-1501.7 471.5,-1523.7 645.5,-1523.7 645.5,-1501.7 471.5,-1501.7"/>
<polygon fill="none" stroke="#000000" points="471.5,-1501.7 471.5,-1523.7 645.5,-1523.7 645.5,-1501.7 471.5,-1501.7"/>
<image xlink:href="../../images/foreignKeys.png" width="11px" height="12px" preserveAspectRatio="xMinYMin meet" x="476.5" y="-1518.7"/>
<text text-anchor="start" x="491.5" y="-1508.8" font-family="Helvetica,sans-Serif" font-size="11.00" fill="#000000">policy_code</text>
<polygon fill="none" stroke="#000000" points="471.5,-1482.7 471.5,-1501.7 645.5,-1501.7 645.5,-1482.7 471.5,-1482.7"/>
<text text-anchor="start" x="474.5" y="-1488.8" font-family="Helvetica,sans-Serif" font-size="11.00" fill="#000000">...</text>
<polygon fill="#ffffff" stroke="transparent" points="471.5,-1463.7 471.5,-1482.7 556.5,-1482.7 556.5,-1463.7 471.5,-1463.7"/>
<polygon fill="none" stroke="#000000" points="471.5,-1463.7 471.5,-1482.7 556.5,-1482.7 556.5,-1463.7 471.5,-1463.7"/>
<text text-anchor="start" x="474.5" y="-1469.8" font-family="Helvetica,sans-Serif" font-size="11.00" fill="#000000">&lt; 4</text>
<polygon fill="#ffffff" stroke="transparent" points="556.5,-1463.7 556.5,-1482.7 600.5,-1482.7 600.5,-1463.7 556.5,-1463.7"/>
<polygon fill="none" stroke="#000000" points="556.5,-1463.7 556.5,-1482.7 600.5,-1482.7 600.5,-1463.7 556.5,-1463.7"/>
<text text-anchor="start" x="591.3862" y="-1469.8" font-family="Helvetica,sans-Serif" font-size="11.00" fill="#000000"> &#160;</text>
<polygon fill="#ffffff" stroke="transparent" points="600.5,-1463.7 600.5,-1482.7 645.5,-1482.7 645.5,-1463.7 600.5,-1463.7"/>
<polygon fill="none" stroke="#000000" points="600.5,-1463.7 600.5,-1482.7 645.5,-1482.7 645.5,-1463.7 600.5,-1463.7"/>
<text text-anchor="start" x="636.3862" y="-1469.8" font-family="Helvetica,sans-Serif" font-size="11.00" fill="#000000"> &#160;</text>
</a>
</g>
</g>
<!-- prison_migration_date_history -->
<g id="node2" class="node">
<title>prison_migration_date_history</title>
<g id="a_node2"><a xlink:href="../../tables/prison_migration_date_history.html" xlink:title="prison_migration_date_history" target="_top">
<polygon fill="#ffffff" stroke="transparent" points="8,-844.7 8,-934.7 321,-934.7 321,-844.7 8,-844.7"/>
<polygon fill="#f5f5f5" stroke="transparent" points="10.5,-909.7 10.5,-932.7 319.5,-932.7 319.5,-909.7 10.5,-909.7"/>
<polygon fill="none" stroke="#000000" points="10.5,-909.7 10.5,-932.7 319.5,-932.7 319.5,-909.7 10.5,-909.7"/>
<text text-anchor="start" x="15.5" y="-918.3" font-family="Helvetica,sans-Serif" font-weight="bold" font-size="11.00" fill="#000000">prison_migration_date_history</text>
<text text-anchor="start" x="284.5437" y="-917.8" font-family="Helvetica,sans-Serif" font-size="11.00" fill="#000000">[table]</text>
<polygon fill="none" stroke="#000000" points="10.5,-887.7 10.5,-909.7 235.5,-909.7 235.5,-887.7 10.5,-887.7"/>
<image xlink:href="../../images/primaryKeys.png" width="11px" height="12px" preserveAspectRatio="xMinYMin meet" x="15.5" y="-904.7"/>
<text text-anchor="start" x="30.5" y="-894.8" font-family="Helvetica,sans-Serif" font-size="11.00" fill="#000000">prison_code</text>
<polygon fill="none" stroke="#000000" points="235.5,-887.7 235.5,-909.7 319.5,-909.7 319.5,-887.7 235.5,-887.7"/>
<text text-anchor="start" x="238.5" y="-895.4" font-family="Helvetica,sans-Serif" font-size="11.00" fill="#000000">varchar[6]</text>
<polygon fill="none" stroke="#000000" points="10.5,-865.7 10.5,-887.7 235.5,-887.7 235.5,-865.7 10.5,-865.7"/>
<text text-anchor="start" x="30.5" y="-872.8" font-family="Helvetica,sans-Serif" font-size="11.00" fill="#000000">migration_date</text>
<polygon fill="none" stroke="#000000" points="235.5,-865.7 235.5,-887.7 319.5,-887.7 319.5,-865.7 235.5,-865.7"/>
<text text-anchor="start" x="238.3807" y="-873.4" font-family="Helvetica,sans-Serif" font-size="11.00" fill="#000000">timestamp[29,6]</text>
<polygon fill="#ffffff" stroke="transparent" points="10.5,-846.7 10.5,-865.7 127.5,-865.7 127.5,-846.7 10.5,-846.7"/>
<polygon fill="none" stroke="#000000" points="10.5,-846.7 10.5,-865.7 127.5,-865.7 127.5,-846.7 10.5,-846.7"/>
<text text-anchor="start" x="13.5" y="-852.8" font-family="Helvetica,sans-Serif" font-size="11.00" fill="#000000">&lt; 0</text>
<polygon fill="#ffffff" stroke="transparent" points="127.5,-846.7 127.5,-865.7 235.5,-865.7 235.5,-846.7 127.5,-846.7"/>
<polygon fill="none" stroke="#000000" points="127.5,-846.7 127.5,-865.7 235.5,-865.7 235.5,-846.7 127.5,-846.7"/>
<text text-anchor="start" x="226.3862" y="-852.8" font-family="Helvetica,sans-Serif" font-size="11.00" fill="#000000"> &#160;</text>
<polygon fill="#ffffff" stroke="transparent" points="235.5,-846.7 235.5,-865.7 319.5,-865.7 319.5,-846.7 235.5,-846.7"/>
<polygon fill="none" stroke="#000000" points="235.5,-846.7 235.5,-865.7 319.5,-865.7 319.5,-846.7 235.5,-846.7"/>
<text text-anchor="start" x="300.9053" y="-852.8" font-family="Helvetica,sans-Serif" font-size="11.00" fill="#000000">9 &gt;</text>
<polygon fill="none" stroke="#000000" stroke-width="2" points="9,-845.7 9,-933.7 320,-933.7 320,-845.7 9,-845.7"/>
</a>
</g>
</g>
<!-- allocation&#45;&gt;prison_migration_date_history -->
<g id="edge1" class="edge">
<title>allocation:w&#45;&gt;prison_migration_date_history:e</title>
<path fill="none" stroke="#000000" stroke-dasharray="5,2" d="M457.1082,-1665.9534C367.4108,-1656.1363 389.5837,-1551.2242 362,-1453.7 345.1675,-1394.1874 381.3472,-898.7 319.5,-898.7"/>
<polygon fill="#000000" stroke="#000000" points="463.5107,-1666.2855 471.3135,-1670.2952 467.5054,-1666.4928 471.5,-1666.7 471.5,-1666.7 471.5,-1666.7 467.5054,-1666.4928 471.6865,-1663.1048 463.5107,-1666.2855 463.5107,-1666.2855"/>
<ellipse fill="none" stroke="#000000" cx="460.315" cy="-1666.1197" rx="3.2" ry="3.2"/>
</g>
<!-- allocation_audit -->
<g id="node3" class="node">
<title>allocation_audit</title>
<g id="a_node3"><a xlink:href="../../tables/allocation_audit.html" xlink:title="allocation_audit" target="_top">
<polygon fill="#ffffff" stroke="transparent" points="448,-1294.2 448,-1443.2 669,-1443.2 669,-1294.2 448,-1294.2"/>
<polygon fill="#f5f5f5" stroke="transparent" points="448.5,-1419.7 448.5,-1442.7 669.5,-1442.7 669.5,-1419.7 448.5,-1419.7"/>
<polygon fill="none" stroke="#000000" points="448.5,-1419.7 448.5,-1442.7 669.5,-1442.7 669.5,-1419.7 448.5,-1419.7"/>
<text text-anchor="start" x="453.5" y="-1428.3" font-family="Helvetica,sans-Serif" font-weight="bold" font-size="11.00" fill="#000000">allocation_audit</text>
<text text-anchor="start" x="634.5437" y="-1427.8" font-family="Helvetica,sans-Serif" font-size="11.00" fill="#000000">[table]</text>
<polygon fill="none" stroke="#000000" points="448.5,-1397.7 448.5,-1419.7 669.5,-1419.7 669.5,-1397.7 448.5,-1397.7"/>
<image xlink:href="../../images/primaryKeys.png" width="11px" height="12px" preserveAspectRatio="xMinYMin meet" x="453.5" y="-1414.7"/>
<text text-anchor="start" x="468.5" y="-1404.8" font-family="Helvetica,sans-Serif" font-size="11.00" fill="#000000">rev_id</text>
<polygon fill="none" stroke="#000000" points="448.5,-1375.7 448.5,-1397.7 669.5,-1397.7 669.5,-1375.7 448.5,-1375.7"/>
<image xlink:href="../../images/primaryKeys.png" width="11px" height="12px" preserveAspectRatio="xMinYMin meet" x="453.5" y="-1392.7"/>
<text text-anchor="start" x="468.5" y="-1382.8" font-family="Helvetica,sans-Serif" font-size="11.00" fill="#000000">id</text>
<polygon fill="none" stroke="#000000" points="448.5,-1353.7 448.5,-1375.7 669.5,-1375.7 669.5,-1353.7 448.5,-1353.7"/>
<image xlink:href="../../images/foreignKeys.png" width="11px" height="12px" preserveAspectRatio="xMinYMin meet" x="453.5" y="-1370.7"/>
<text text-anchor="start" x="468.5" y="-1360.8" font-family="Helvetica,sans-Serif" font-size="11.00" fill="#000000">prison_code</text>
<polygon fill="none" stroke="#000000" points="448.5,-1331.7 448.5,-1353.7 669.5,-1353.7 669.5,-1331.7 448.5,-1331.7"/>
<image xlink:href="../../images/foreignKeys.png" width="11px" height="12px" preserveAspectRatio="xMinYMin meet" x="453.5" y="-1348.7"/>
<text text-anchor="start" x="468.5" y="-1338.8" font-family="Helvetica,sans-Serif" font-size="11.00" fill="#000000">policy_code</text>
<polygon fill="none" stroke="#000000" points="448.5,-1312.7 448.5,-1331.7 669.5,-1331.7 669.5,-1312.7 448.5,-1312.7"/>
<text text-anchor="start" x="451.5" y="-1318.8" font-family="Helvetica,sans-Serif" font-size="11.00" fill="#000000">...</text>
<polygon fill="#ffffff" stroke="transparent" points="448.5,-1293.7 448.5,-1312.7 557.5,-1312.7 557.5,-1293.7 448.5,-1293.7"/>
<polygon fill="none" stroke="#000000" points="448.5,-1293.7 448.5,-1312.7 557.5,-1312.7 557.5,-1293.7 448.5,-1293.7"/>
<text text-anchor="start" x="451.5" y="-1299.8" font-family="Helvetica,sans-Serif" font-size="11.00" fill="#000000">&lt; 3</text>
<polygon fill="#ffffff" stroke="transparent" points="557.5,-1293.7 557.5,-1312.7 613.5,-1312.7 613.5,-1293.7 557.5,-1293.7"/>
<polygon fill="none" stroke="#000000" points="557.5,-1293.7 557.5,-1312.7 613.5,-1312.7 613.5,-1293.7 557.5,-1293.7"/>
<text text-anchor="start" x="604.3862" y="-1299.8" font-family="Helvetica,sans-Serif" font-size="11.00" fill="#000000"> &#160;</text>
<polygon fill="#ffffff" stroke="transparent" points="613.5,-1293.7 613.5,-1312.7 669.5,-1312.7 669.5,-1293.7 613.5,-1293.7"/>
<polygon fill="none" stroke="#000000" points="613.5,-1293.7 613.5,-1312.7 669.5,-1312.7 669.5,-1293.7 613.5,-1293.7"/>
<text text-anchor="start" x="660.3862" y="-1299.8" font-family="Helvetica,sans-Serif" font-size="11.00" fill="#000000"> &#160;</text>
</a>
</g>
</g>
<!-- allocation_audit&#45;&gt;prison_migration_date_history -->
<g id="edge2" class="edge">
<title>allocation_audit:w&#45;&gt;prison_migration_date_history:e</title>
<path fill="none" stroke="#000000" stroke-dasharray="5,2" d="M433.9685,-1363.7113C393.656,-1357.8151 383.2264,-1326.1065 362,-1283.7 323.4724,-1206.7287 405.5753,-898.7 319.5,-898.7"/>
<polygon fill="#000000" stroke="#000000" points="440.5185,-1364.1569 448.2556,-1368.2917 444.5092,-1364.4285 448.5,-1364.7 448.5,-1364.7 448.5,-1364.7 444.5092,-1364.4285 448.7444,-1361.1083 440.5185,-1364.1569 440.5185,-1364.1569"/>
<ellipse fill="none" stroke="#000000" cx="437.3258" cy="-1363.9397" rx="3.2" ry="3.2"/>
</g>
<!-- prison_configuration -->
<g id="node4" class="node">
<title>prison_configuration</title>
<g id="a_node4"><a xlink:href="../../tables/prison_configuration.html" xlink:title="prison_configuration" target="_top">
<polygon fill="#ffffff" stroke="transparent" points="402.5,-1146.2 402.5,-1273.2 714.5,-1273.2 714.5,-1146.2 402.5,-1146.2"/>
<polygon fill="#f5f5f5" stroke="transparent" points="402.5,-1249.7 402.5,-1272.7 714.5,-1272.7 714.5,-1249.7 402.5,-1249.7"/>
<polygon fill="none" stroke="#000000" points="402.5,-1249.7 402.5,-1272.7 714.5,-1272.7 714.5,-1249.7 402.5,-1249.7"/>
<text text-anchor="start" x="407.5" y="-1258.3" font-family="Helvetica,sans-Serif" font-weight="bold" font-size="11.00" fill="#000000">prison_configuration</text>
<text text-anchor="start" x="679.5437" y="-1257.8" font-family="Helvetica,sans-Serif" font-size="11.00" fill="#000000">[table]</text>
<polygon fill="#ffffff" stroke="transparent" points="402.5,-1227.7 402.5,-1249.7 714.5,-1249.7 714.5,-1227.7 402.5,-1227.7"/>
<polygon fill="none" stroke="#000000" points="402.5,-1227.7 402.5,-1249.7 714.5,-1249.7 714.5,-1227.7 402.5,-1227.7"/>
<image xlink:href="../../images/foreignKeys.png" width="11px" height="12px" preserveAspectRatio="xMinYMin meet" x="407.5" y="-1244.7"/>
<text text-anchor="start" x="422.5" y="-1234.8" font-family="Helvetica,sans-Serif" font-size="11.00" fill="#000000">prison_code</text>
<polygon fill="#ffffff" stroke="transparent" points="402.5,-1205.7 402.5,-1227.7 714.5,-1227.7 714.5,-1205.7 402.5,-1205.7"/>
<polygon fill="none" stroke="#000000" points="402.5,-1205.7 402.5,-1227.7 714.5,-1227.7 714.5,-1205.7 402.5,-1205.7"/>
<image xlink:href="../../images/foreignKeys.png" width="11px" height="12px" preserveAspectRatio="xMinYMin meet" x="407.5" y="-1222.7"/>
<text text-anchor="start" x="422.5" y="-1212.8" font-family="Helvetica,sans-Serif" font-size="11.00" fill="#000000">policy_code</text>
<polygon fill="none" stroke="#000000" points="402.5,-1183.7 402.5,-1205.7 714.5,-1205.7 714.5,-1183.7 402.5,-1183.7"/>
<image xlink:href="../../images/primaryKeys.png" width="11px" height="12px" preserveAspectRatio="xMinYMin meet" x="407.5" y="-1200.7"/>
<text text-anchor="start" x="422.5" y="-1190.8" font-family="Helvetica,sans-Serif" font-size="11.00" fill="#000000">id</text>
<polygon fill="none" stroke="#000000" points="402.5,-1164.7 402.5,-1183.7 714.5,-1183.7 714.5,-1164.7 402.5,-1164.7"/>
<text text-anchor="start" x="405.5" y="-1170.8" font-family="Helvetica,sans-Serif" font-size="11.00" fill="#000000">...</text>
<polygon fill="#ffffff" stroke="transparent" points="402.5,-1145.7 402.5,-1164.7 540.5,-1164.7 540.5,-1145.7 402.5,-1145.7"/>
<polygon fill="none" stroke="#000000" points="402.5,-1145.7 402.5,-1164.7 540.5,-1164.7 540.5,-1145.7 402.5,-1145.7"/>
<text text-anchor="start" x="405.5" y="-1151.8" font-family="Helvetica,sans-Serif" font-size="11.00" fill="#000000">&lt; 2</text>
<polygon fill="#ffffff" stroke="transparent" points="540.5,-1145.7 540.5,-1164.7 643.5,-1164.7 643.5,-1145.7 540.5,-1145.7"/>
<polygon fill="none" stroke="#000000" points="540.5,-1145.7 540.5,-1164.7 643.5,-1164.7 643.5,-1145.7 540.5,-1145.7"/>
<text text-anchor="start" x="601.9956" y="-1151.8" font-family="Helvetica,sans-Serif" font-size="11.00" fill="#000000">12 rows</text>
<polygon fill="#ffffff" stroke="transparent" points="643.5,-1145.7 643.5,-1164.7 714.5,-1164.7 714.5,-1145.7 643.5,-1145.7"/>
<polygon fill="none" stroke="#000000" points="643.5,-1145.7 643.5,-1164.7 714.5,-1164.7 714.5,-1145.7 643.5,-1145.7"/>
<text text-anchor="start" x="705.3862" y="-1151.8" font-family="Helvetica,sans-Serif" font-size="11.00" fill="#000000"> &#160;</text>
</a>
</g>
</g>
<!-- prison_configuration&#45;&gt;prison_migration_date_history -->
<g id="edge3" class="edge">
<title>prison_configuration:w&#45;&gt;prison_migration_date_history:e</title>
<path fill="none" stroke="#000000" stroke-dasharray="5,2" d="M387.9718,-1236.5094C358.0017,-1225.7663 373.8353,-1177.4812 362,-1135.7 347.417,-1084.2188 373.0068,-898.7 319.5,-898.7"/>
<polygon fill="#000000" stroke="#000000" points="394.5894,-1237.5072 401.9632,-1242.2598 398.5447,-1238.1036 402.5,-1238.7 402.5,-1238.7 402.5,-1238.7 398.5447,-1238.1036 403.0368,-1235.1402 394.5894,-1237.5072 394.5894,-1237.5072"/>
<ellipse fill="none" stroke="#000000" cx="391.4252" cy="-1237.03" rx="3.2" ry="3.2"/>
</g>
<!-- prison_configuration_audit -->
<g id="node5" class="node">
<title>prison_configuration_audit</title>
<g id="a_node5"><a xlink:href="../../tables/prison_configuration_audit.html" xlink:title="prison_configuration_audit" target="_top">
<polygon fill="#ffffff" stroke="transparent" points="370,-976.2 370,-1125.2 747,-1125.2 747,-976.2 370,-976.2"/>
<polygon fill="#f5f5f5" stroke="transparent" points="370.5,-1101.7 370.5,-1124.7 747.5,-1124.7 747.5,-1101.7 370.5,-1101.7"/>
<polygon fill="none" stroke="#000000" points="370.5,-1101.7 370.5,-1124.7 747.5,-1124.7 747.5,-1101.7 370.5,-1101.7"/>
<text text-anchor="start" x="375.5" y="-1110.3" font-family="Helvetica,sans-Serif" font-weight="bold" font-size="11.00" fill="#000000">prison_configuration_audit</text>
<text text-anchor="start" x="712.5437" y="-1109.8" font-family="Helvetica,sans-Serif" font-size="11.00" fill="#000000">[table]</text>
<polygon fill="none" stroke="#000000" points="370.5,-1079.7 370.5,-1101.7 747.5,-1101.7 747.5,-1079.7 370.5,-1079.7"/>
<image xlink:href="../../images/primaryKeys.png" width="11px" height="12px" preserveAspectRatio="xMinYMin meet" x="375.5" y="-1096.7"/>
<text text-anchor="start" x="390.5" y="-1086.8" font-family="Helvetica,sans-Serif" font-size="11.00" fill="#000000">rev_id</text>
<polygon fill="none" stroke="#000000" points="370.5,-1057.7 370.5,-1079.7 747.5,-1079.7 747.5,-1057.7 370.5,-1057.7"/>
<image xlink:href="../../images/primaryKeys.png" width="11px" height="12px" preserveAspectRatio="xMinYMin meet" x="375.5" y="-1074.7"/>
<text text-anchor="start" x="390.5" y="-1064.8" font-family="Helvetica,sans-Serif" font-size="11.00" fill="#000000">id</text>
<polygon fill="none" stroke="#000000" points="370.5,-1035.7 370.5,-1057.7 747.5,-1057.7 747.5,-1035.7 370.5,-1035.7"/>
<image xlink:href="../../images/foreignKeys.png" width="11px" height="12px" preserveAspectRatio="xMinYMin meet" x="375.5" y="-1052.7"/>
<text text-anchor="start" x="390.5" y="-1042.8" font-family="Helvetica,sans-Serif" font-size="11.00" fill="#000000">prison_code</text>
<polygon fill="none" stroke="#000000" points="370.5,-1013.7 370.5,-1035.7 747.5,-1035.7 747.5,-1013.7 370.5,-1013.7"/>
<image xlink:href="../../images/foreignKeys.png" width="11px" height="12px" preserveAspectRatio="xMinYMin meet" x="375.5" y="-1030.7"/>
<text text-anchor="start" x="390.5" y="-1020.8" font-family="Helvetica,sans-Serif" font-size="11.00" fill="#000000">policy_code</text>
<polygon fill="none" stroke="#000000" points="370.5,-994.7 370.5,-1013.7 747.5,-1013.7 747.5,-994.7 370.5,-994.7"/>
<text text-anchor="start" x="373.5" y="-1000.8" font-family="Helvetica,sans-Serif" font-size="11.00" fill="#000000">...</text>
<polygon fill="#ffffff" stroke="transparent" points="370.5,-975.7 370.5,-994.7 557.5,-994.7 557.5,-975.7 370.5,-975.7"/>
<polygon fill="none" stroke="#000000" points="370.5,-975.7 370.5,-994.7 557.5,-994.7 557.5,-975.7 370.5,-975.7"/>
<text text-anchor="start" x="373.5" y="-981.8" font-family="Helvetica,sans-Serif" font-size="11.00" fill="#000000">&lt; 3</text>
<polygon fill="#ffffff" stroke="transparent" points="557.5,-975.7 557.5,-994.7 652.5,-994.7 652.5,-975.7 557.5,-975.7"/>
<polygon fill="none" stroke="#000000" points="557.5,-975.7 557.5,-994.7 652.5,-994.7 652.5,-975.7 557.5,-975.7"/>
<text text-anchor="start" x="643.3862" y="-981.8" font-family="Helvetica,sans-Serif" font-size="11.00" fill="#000000"> &#160;</text>
<polygon fill="#ffffff" stroke="transparent" points="652.5,-975.7 652.5,-994.7 747.5,-994.7 747.5,-975.7 652.5,-975.7"/>
<polygon fill="none" stroke="#000000" points="652.5,-975.7 652.5,-994.7 747.5,-994.7 747.5,-975.7 652.5,-975.7"/>
<text text-anchor="start" x="738.3862" y="-981.8" font-family="Helvetica,sans-Serif" font-size="11.00" fill="#000000"> &#160;</text>
</a>
</g>
</g>
<!-- prison_configuration_audit&#45;&gt;prison_migration_date_history -->
<g id="edge4" class="edge">
<title>prison_configuration_audit:w&#45;&gt;prison_migration_date_history:e</title>
<path fill="none" stroke="#000000" stroke-dasharray="5,2" d="M356.1212,-1043.7436C314.6199,-1022.8845 383.2306,-898.7 319.5,-898.7"/>
<polygon fill="#000000" stroke="#000000" points="362.6639,-1045.0888 369.775,-1050.2262 366.582,-1045.8944 370.5,-1046.7 370.5,-1046.7 370.5,-1046.7 366.582,-1045.8944 371.225,-1043.1738 362.6639,-1045.0888 362.6639,-1045.0888"/>
<ellipse fill="none" stroke="#000000" cx="359.5295" cy="-1044.4443" rx="3.2" ry="3.2"/>
</g>
<!-- prison_statistic -->
<g id="node6" class="node">
<title>prison_statistic</title>
<g id="a_node6"><a xlink:href="../../tables/prison_statistic.html" xlink:title="prison_statistic" target="_top">
<polygon fill="#ffffff" stroke="transparent" points="410.5,-806.2 410.5,-955.2 706.5,-955.2 706.5,-806.2 410.5,-806.2"/>
<polygon fill="#f5f5f5" stroke="transparent" points="410.5,-931.7 410.5,-954.7 706.5,-954.7 706.5,-931.7 410.5,-931.7"/>
<polygon fill="none" stroke="#000000" points="410.5,-931.7 410.5,-954.7 706.5,-954.7 706.5,-931.7 410.5,-931.7"/>
<text text-anchor="start" x="415.5" y="-940.3" font-family="Helvetica,sans-Serif" font-weight="bold" font-size="11.00" fill="#000000">prison_statistic</text>
<text text-anchor="start" x="671.5437" y="-939.8" font-family="Helvetica,sans-Serif" font-size="11.00" fill="#000000">[table]</text>
<polygon fill="none" stroke="#000000" points="410.5,-909.7 410.5,-931.7 706.5,-931.7 706.5,-909.7 410.5,-909.7"/>
<image xlink:href="../../images/primaryKeys.png" width="11px" height="12px" preserveAspectRatio="xMinYMin meet" x="415.5" y="-926.7"/>
<text text-anchor="start" x="430.5" y="-916.8" font-family="Helvetica,sans-Serif" font-size="11.00" fill="#000000">id</text>
<polygon fill="#ffffff" stroke="transparent" points="410.5,-887.7 410.5,-909.7 706.5,-909.7 706.5,-887.7 410.5,-887.7"/>
<polygon fill="none" stroke="#000000" points="410.5,-887.7 410.5,-909.7 706.5,-909.7 706.5,-887.7 410.5,-887.7"/>
<image xlink:href="../../images/foreignKeys.png" width="11px" height="12px" preserveAspectRatio="xMinYMin meet" x="415.5" y="-904.7"/>
<text text-anchor="start" x="430.5" y="-894.8" font-family="Helvetica,sans-Serif" font-size="11.00" fill="#000000">prison_code</text>
<polygon fill="#ffffff" stroke="transparent" points="410.5,-865.7 410.5,-887.7 706.5,-887.7 706.5,-865.7 410.5,-865.7"/>
<polygon fill="none" stroke="#000000" points="410.5,-865.7 410.5,-887.7 706.5,-887.7 706.5,-865.7 410.5,-865.7"/>
<text text-anchor="start" x="430.5" y="-872.8" font-family="Helvetica,sans-Serif" font-size="11.00" fill="#000000">statistic_date</text>
<polygon fill="none" stroke="#000000" points="410.5,-843.7 410.5,-865.7 706.5,-865.7 706.5,-843.7 410.5,-843.7"/>
<image xlink:href="../../images/foreignKeys.png" width="11px" height="12px" preserveAspectRatio="xMinYMin meet" x="415.5" y="-860.7"/>
<text text-anchor="start" x="430.5" y="-850.8" font-family="Helvetica,sans-Serif" font-size="11.00" fill="#000000">policy_code</text>
<polygon fill="none" stroke="#000000" points="410.5,-824.7 410.5,-843.7 706.5,-843.7 706.5,-824.7 410.5,-824.7"/>
<text text-anchor="start" x="413.5" y="-830.8" font-family="Helvetica,sans-Serif" font-size="11.00" fill="#000000">...</text>
<polygon fill="#ffffff" stroke="transparent" points="410.5,-805.7 410.5,-824.7 556.5,-824.7 556.5,-805.7 410.5,-805.7"/>
<polygon fill="none" stroke="#000000" points="410.5,-805.7 410.5,-824.7 556.5,-824.7 556.5,-805.7 410.5,-805.7"/>
<text text-anchor="start" x="413.5" y="-811.8" font-family="Helvetica,sans-Serif" font-size="11.00" fill="#000000">&lt; 2</text>
<polygon fill="#ffffff" stroke="transparent" points="556.5,-805.7 556.5,-824.7 631.5,-824.7 631.5,-805.7 556.5,-805.7"/>
<polygon fill="none" stroke="#000000" points="556.5,-805.7 556.5,-824.7 631.5,-824.7 631.5,-805.7 556.5,-805.7"/>
<text text-anchor="start" x="622.3862" y="-811.8" font-family="Helvetica,sans-Serif" font-size="11.00" fill="#000000"> &#160;</text>
<polygon fill="#ffffff" stroke="transparent" points="631.5,-805.7 631.5,-824.7 706.5,-824.7 706.5,-805.7 631.5,-805.7"/>
<polygon fill="none" stroke="#000000" points="631.5,-805.7 631.5,-824.7 706.5,-824.7 706.5,-805.7 631.5,-805.7"/>
<text text-anchor="start" x="697.3862" y="-811.8" font-family="Helvetica,sans-Serif" font-size="11.00" fill="#000000"> &#160;</text>
</a>
</g>
</g>
<!-- prison_statistic&#45;&gt;prison_migration_date_history -->
<g id="edge5" class="edge">
<title>prison_statistic:w&#45;&gt;prison_migration_date_history:e</title>
<path fill="none" stroke="#000000" stroke-dasharray="5,2" d="M395.8485,-898.7C366.8347,-898.7 354.5729,-898.7 319.5,-898.7"/>
<polygon fill="#000000" stroke="#000000" points="402.5,-898.7001 410.5,-902.3 406.5,-898.7 410.5,-898.7 410.5,-898.7 410.5,-898.7 406.5,-898.7 410.5,-895.1 402.5,-898.7001 402.5,-898.7001"/>
<ellipse fill="none" stroke="#000000" cx="399.3" cy="-898.7001" rx="3.2" ry="3.2"/>
</g>
<!-- recorded_event -->
<g id="node7" class="node">
<title>recorded_event</title>
<g id="a_node7"><a xlink:href="../../tables/recorded_event.html" xlink:title="recorded_event" target="_top">
<polygon fill="#ffffff" stroke="transparent" points="486.5,-548.2 486.5,-785.2 630.5,-785.2 630.5,-548.2 486.5,-548.2"/>
<polygon fill="#f5f5f5" stroke="transparent" points="486.5,-761.7 486.5,-784.7 630.5,-784.7 630.5,-761.7 486.5,-761.7"/>
<polygon fill="none" stroke="#000000" points="486.5,-761.7 486.5,-784.7 630.5,-784.7 630.5,-761.7 486.5,-761.7"/>
<text text-anchor="start" x="491.5" y="-770.3" font-family="Helvetica,sans-Serif" font-weight="bold" font-size="11.00" fill="#000000">recorded_event</text>
<text text-anchor="start" x="596.0219" y="-769.8" font-family="Helvetica,sans-Serif" font-size="11.00" fill="#000000">[table]</text>
<polygon fill="none" stroke="#000000" points="486.5,-739.7 486.5,-761.7 630.5,-761.7 630.5,-739.7 486.5,-739.7"/>
<image xlink:href="../../images/primaryKeys.png" width="11px" height="12px" preserveAspectRatio="xMinYMin meet" x="491.5" y="-756.7"/>
<text text-anchor="start" x="510.5" y="-746.8" font-family="Helvetica,sans-Serif" font-size="11.00" fill="#000000">id</text>
<polygon fill="#ffffff" stroke="transparent" points="486.5,-717.7 486.5,-739.7 630.5,-739.7 630.5,-717.7 486.5,-717.7"/>
<polygon fill="none" stroke="#000000" points="486.5,-717.7 486.5,-739.7 630.5,-739.7 630.5,-717.7 486.5,-717.7"/>
<image xlink:href="../../images/foreignKeys.png" width="11px" height="12px" preserveAspectRatio="xMinYMin meet" x="491.5" y="-734.7"/>
<text text-anchor="start" x="510.5" y="-724.8" font-family="Helvetica,sans-Serif" font-size="11.00" fill="#000000">prison_code</text>
<polygon fill="#ffffff" stroke="transparent" points="486.5,-695.7 486.5,-717.7 630.5,-717.7 630.5,-695.7 486.5,-695.7"/>
<polygon fill="none" stroke="#000000" points="486.5,-695.7 486.5,-717.7 630.5,-717.7 630.5,-695.7 486.5,-695.7"/>
<text text-anchor="start" x="510.5" y="-702.8" font-family="Helvetica,sans-Serif" font-size="11.00" fill="#000000">person_identifier</text>
<polygon fill="#ffffff" stroke="transparent" points="486.5,-673.7 486.5,-695.7 630.5,-695.7 630.5,-673.7 486.5,-673.7"/>
<polygon fill="none" stroke="#000000" points="486.5,-673.7 486.5,-695.7 630.5,-695.7 630.5,-673.7 486.5,-673.7"/>
<text text-anchor="start" x="510.5" y="-680.8" font-family="Helvetica,sans-Serif" font-size="11.00" fill="#000000">staff_id</text>
<polygon fill="#ffffff" stroke="transparent" points="486.5,-651.7 486.5,-673.7 630.5,-673.7 630.5,-651.7 486.5,-651.7"/>
<polygon fill="none" stroke="#000000" points="486.5,-651.7 486.5,-673.7 630.5,-673.7 630.5,-651.7 486.5,-651.7"/>
<text text-anchor="start" x="510.5" y="-658.8" font-family="Helvetica,sans-Serif" font-size="11.00" fill="#000000">occurred_at</text>
<polygon fill="#ffffff" stroke="transparent" points="486.5,-629.7 486.5,-651.7 630.5,-651.7 630.5,-629.7 486.5,-629.7"/>
<polygon fill="none" stroke="#000000" points="486.5,-629.7 486.5,-651.7 630.5,-651.7 630.5,-629.7 486.5,-629.7"/>
<text text-anchor="start" x="510.5" y="-636.8" font-family="Helvetica,sans-Serif" font-size="11.00" fill="#000000">created_at</text>
<polygon fill="#ffffff" stroke="transparent" points="486.5,-607.7 486.5,-629.7 630.5,-629.7 630.5,-607.7 486.5,-607.7"/>
<polygon fill="none" stroke="#000000" points="486.5,-607.7 486.5,-629.7 630.5,-629.7 630.5,-607.7 486.5,-607.7"/>
<image xlink:href="../../images/foreignKeys.png" width="11px" height="12px" preserveAspectRatio="xMinYMin meet" x="491.5" y="-624.7"/>
<text text-anchor="start" x="510.5" y="-614.8" font-family="Helvetica,sans-Serif" font-size="11.00" fill="#000000">policy_code</text>
<polygon fill="#ffffff" stroke="transparent" points="486.5,-585.7 486.5,-607.7 630.5,-607.7 630.5,-585.7 486.5,-585.7"/>
<polygon fill="none" stroke="#000000" points="486.5,-585.7 486.5,-607.7 630.5,-607.7 630.5,-585.7 486.5,-585.7"/>
<image xlink:href="../../images/foreignKeys.png" width="11px" height="12px" preserveAspectRatio="xMinYMin meet" x="491.5" y="-602.7"/>
<text text-anchor="start" x="510.5" y="-592.8" font-family="Helvetica,sans-Serif" font-size="11.00" fill="#000000">type_id</text>
<polygon fill="none" stroke="#000000" points="486.5,-566.7 486.5,-585.7 630.5,-585.7 630.5,-566.7 486.5,-566.7"/>
<text text-anchor="start" x="489.5" y="-572.8" font-family="Helvetica,sans-Serif" font-size="11.00" fill="#000000">...</text>
<polygon fill="#ffffff" stroke="transparent" points="486.5,-547.7 486.5,-566.7 556.5,-566.7 556.5,-547.7 486.5,-547.7"/>
<polygon fill="none" stroke="#000000" points="486.5,-547.7 486.5,-566.7 556.5,-566.7 556.5,-547.7 486.5,-547.7"/>
<text text-anchor="start" x="489.5" y="-553.8" font-family="Helvetica,sans-Serif" font-size="11.00" fill="#000000">&lt; 3</text>
<polygon fill="#ffffff" stroke="transparent" points="556.5,-547.7 556.5,-566.7 593.5,-566.7 593.5,-547.7 556.5,-547.7"/>
<polygon fill="none" stroke="#000000" points="556.5,-547.7 556.5,-566.7 593.5,-566.7 593.5,-547.7 556.5,-547.7"/>
<text text-anchor="start" x="584.3862" y="-553.8" font-family="Helvetica,sans-Serif" font-size="11.00" fill="#000000"> &#160;</text>
<polygon fill="#ffffff" stroke="transparent" points="593.5,-547.7 593.5,-566.7 630.5,-566.7 630.5,-547.7 593.5,-547.7"/>
<polygon fill="none" stroke="#000000" points="593.5,-547.7 593.5,-566.7 630.5,-566.7 630.5,-547.7 593.5,-547.7"/>
<text text-anchor="start" x="621.3862" y="-553.8" font-family="Helvetica,sans-Serif" font-size="11.00" fill="#000000"> &#160;</text>
</a>
</g>
</g>
<!-- recorded_event&#45;&gt;prison_migration_date_history -->
<g id="edge6" class="edge">
<title>recorded_event:w&#45;&gt;prison_migration_date_history:e</title>
<path fill="none" stroke="#000000" stroke-dasharray="5,2" d="M471.8735,-729.1141C420.3019,-732.216 400.6476,-752.8791 362,-795.7 328.8202,-832.4627 369.0217,-898.7 319.5,-898.7"/>
<polygon fill="#000000" stroke="#000000" points="478.5032,-728.9265 486.6019,-732.2986 482.5016,-728.8132 486.5,-728.7 486.5,-728.7 486.5,-728.7 482.5016,-728.8132 486.3981,-725.1014 478.5032,-728.9265 478.5032,-728.9265"/>
<ellipse fill="none" stroke="#000000" cx="475.3045" cy="-729.0171" rx="3.2" ry="3.2"/>
</g>
<!-- recorded_event_audit -->
<g id="node8" class="node">
<title>recorded_event_audit</title>
<g id="a_node8"><a xlink:href="../../tables/recorded_event_audit.html" xlink:title="recorded_event_audit" target="_top">
<polygon fill="#ffffff" stroke="transparent" points="466,-378.2 466,-527.2 651,-527.2 651,-378.2 466,-378.2"/>
<polygon fill="#f5f5f5" stroke="transparent" points="466.5,-503.7 466.5,-526.7 651.5,-526.7 651.5,-503.7 466.5,-503.7"/>
<polygon fill="none" stroke="#000000" points="466.5,-503.7 466.5,-526.7 651.5,-526.7 651.5,-503.7 466.5,-503.7"/>
<text text-anchor="start" x="471.5" y="-512.3" font-family="Helvetica,sans-Serif" font-weight="bold" font-size="11.00" fill="#000000">recorded_event_audit</text>
<text text-anchor="start" x="617.0219" y="-511.8" font-family="Helvetica,sans-Serif" font-size="11.00" fill="#000000">[table]</text>
<polygon fill="#ffffff" stroke="transparent" points="466.5,-481.7 466.5,-503.7 651.5,-503.7 651.5,-481.7 466.5,-481.7"/>
<polygon fill="none" stroke="#000000" points="466.5,-481.7 466.5,-503.7 651.5,-503.7 651.5,-481.7 466.5,-481.7"/>
<image xlink:href="../../images/foreignKeys.png" width="11px" height="12px" preserveAspectRatio="xMinYMin meet" x="471.5" y="-498.7"/>
<text text-anchor="start" x="495.5" y="-488.8" font-family="Helvetica,sans-Serif" font-size="11.00" fill="#000000">rev_id</text>
<polygon fill="#ffffff" stroke="transparent" points="466.5,-459.7 466.5,-481.7 651.5,-481.7 651.5,-459.7 466.5,-459.7"/>
<polygon fill="none" stroke="#000000" points="466.5,-459.7 466.5,-481.7 651.5,-481.7 651.5,-459.7 466.5,-459.7"/>
<text text-anchor="start" x="495.5" y="-466.8" font-family="Helvetica,sans-Serif" font-size="11.00" fill="#000000">id</text>
<polygon fill="none" stroke="#000000" points="466.5,-437.7 466.5,-459.7 651.5,-459.7 651.5,-437.7 466.5,-437.7"/>
<image xlink:href="../../images/foreignKeys.png" width="11px" height="12px" preserveAspectRatio="xMinYMin meet" x="471.5" y="-454.7"/>
<text text-anchor="start" x="495.5" y="-444.8" font-family="Helvetica,sans-Serif" font-size="11.00" fill="#000000">prison_code</text>
<polygon fill="none" stroke="#000000" points="466.5,-415.7 466.5,-437.7 651.5,-437.7 651.5,-415.7 466.5,-415.7"/>
<image xlink:href="../../images/foreignKeys.png" width="11px" height="12px" preserveAspectRatio="xMinYMin meet" x="471.5" y="-432.7"/>
<text text-anchor="start" x="495.5" y="-422.8" font-family="Helvetica,sans-Serif" font-size="11.00" fill="#000000">policy_code</text>
<polygon fill="none" stroke="#000000" points="466.5,-396.7 466.5,-415.7 651.5,-415.7 651.5,-396.7 466.5,-396.7"/>
<text text-anchor="start" x="469.5" y="-402.8" font-family="Helvetica,sans-Serif" font-size="11.00" fill="#000000">...</text>
<polygon fill="#ffffff" stroke="transparent" points="466.5,-377.7 466.5,-396.7 557.5,-396.7 557.5,-377.7 466.5,-377.7"/>
<polygon fill="none" stroke="#000000" points="466.5,-377.7 466.5,-396.7 557.5,-396.7 557.5,-377.7 466.5,-377.7"/>
<text text-anchor="start" x="469.5" y="-383.8" font-family="Helvetica,sans-Serif" font-size="11.00" fill="#000000">&lt; 3</text>
<polygon fill="#ffffff" stroke="transparent" points="557.5,-377.7 557.5,-396.7 604.5,-396.7 604.5,-377.7 557.5,-377.7"/>
<polygon fill="none" stroke="#000000" points="557.5,-377.7 557.5,-396.7 604.5,-396.7 604.5,-377.7 557.5,-377.7"/>
<text text-anchor="start" x="595.3862" y="-383.8" font-family="Helvetica,sans-Serif" font-size="11.00" fill="#000000"> &#160;</text>
<polygon fill="#ffffff" stroke="transparent" points="604.5,-377.7 604.5,-396.7 651.5,-396.7 651.5,-377.7 604.5,-377.7"/>
<polygon fill="none" stroke="#000000" points="604.5,-377.7 604.5,-396.7 651.5,-396.7 651.5,-377.7 604.5,-377.7"/>
<text text-anchor="start" x="642.3862" y="-383.8" font-family="Helvetica,sans-Serif" font-size="11.00" fill="#000000"> &#160;</text>
</a>
</g>
</g>
<!-- recorded_event_audit&#45;&gt;prison_migration_date_history -->
<g id="edge7" class="edge">
<title>recorded_event_audit:w&#45;&gt;prison_migration_date_history:e</title>
<path fill="none" stroke="#000000" stroke-dasharray="5,2" d="M452.0731,-449.4352C402.9231,-454.745 388.3618,-488.4263 362,-537.7 323.8948,-608.9236 400.2762,-898.7 319.5,-898.7"/>
<polygon fill="#000000" stroke="#000000" points="458.5104,-449.1072 466.6832,-452.2953 462.5052,-448.9036 466.5,-448.7 466.5,-448.7 466.5,-448.7 462.5052,-448.9036 466.3168,-445.1047 458.5104,-449.1072 458.5104,-449.1072"/>
<ellipse fill="none" stroke="#000000" cx="455.3145" cy="-449.2701" rx="3.2" ry="3.2"/>
</g>
<!-- staff_role -->
<g id="node9" class="node">
<title>staff_role</title>
<g id="a_node9"><a xlink:href="../../tables/staff_role.html" xlink:title="staff_role" target="_top">
<polygon fill="#ffffff" stroke="transparent" points="490.5,-208.2 490.5,-357.2 626.5,-357.2 626.5,-208.2 490.5,-208.2"/>
<polygon fill="#f5f5f5" stroke="transparent" points="490.5,-333.7 490.5,-356.7 626.5,-356.7 626.5,-333.7 490.5,-333.7"/>
<polygon fill="none" stroke="#000000" points="490.5,-333.7 490.5,-356.7 626.5,-356.7 626.5,-333.7 490.5,-333.7"/>
<text text-anchor="start" x="495.5" y="-342.3" font-family="Helvetica,sans-Serif" font-weight="bold" font-size="11.00" fill="#000000">staff_role</text>
<text text-anchor="start" x="591.5437" y="-341.8" font-family="Helvetica,sans-Serif" font-size="11.00" fill="#000000">[table]</text>
<polygon fill="none" stroke="#000000" points="490.5,-311.7 490.5,-333.7 626.5,-333.7 626.5,-311.7 490.5,-311.7"/>
<image xlink:href="../../images/primaryKeys.png" width="11px" height="12px" preserveAspectRatio="xMinYMin meet" x="495.5" y="-328.7"/>
<text text-anchor="start" x="510.5" y="-318.8" font-family="Helvetica,sans-Serif" font-size="11.00" fill="#000000">id</text>
<polygon fill="#ffffff" stroke="transparent" points="490.5,-289.7 490.5,-311.7 626.5,-311.7 626.5,-289.7 490.5,-289.7"/>
<polygon fill="none" stroke="#000000" points="490.5,-289.7 490.5,-311.7 626.5,-311.7 626.5,-289.7 490.5,-289.7"/>
<image xlink:href="../../images/foreignKeys.png" width="11px" height="12px" preserveAspectRatio="xMinYMin meet" x="495.5" y="-306.7"/>
<text text-anchor="start" x="510.5" y="-296.8" font-family="Helvetica,sans-Serif" font-size="11.00" fill="#000000">policy_code</text>
<polygon fill="#ffffff" stroke="transparent" points="490.5,-267.7 490.5,-289.7 626.5,-289.7 626.5,-267.7 490.5,-267.7"/>
<polygon fill="none" stroke="#000000" points="490.5,-267.7 490.5,-289.7 626.5,-289.7 626.5,-267.7 490.5,-267.7"/>
<image xlink:href="../../images/foreignKeys.png" width="11px" height="12px" preserveAspectRatio="xMinYMin meet" x="495.5" y="-284.7"/>
<text text-anchor="start" x="510.5" y="-274.8" font-family="Helvetica,sans-Serif" font-size="11.00" fill="#000000">prison_code</text>
<polygon fill="#ffffff" stroke="transparent" points="490.5,-245.7 490.5,-267.7 626.5,-267.7 626.5,-245.7 490.5,-245.7"/>
<polygon fill="none" stroke="#000000" points="490.5,-245.7 490.5,-267.7 626.5,-267.7 626.5,-245.7 490.5,-245.7"/>
<text text-anchor="start" x="510.5" y="-252.8" font-family="Helvetica,sans-Serif" font-size="11.00" fill="#000000">staff_id</text>
<polygon fill="none" stroke="#000000" points="490.5,-226.7 490.5,-245.7 626.5,-245.7 626.5,-226.7 490.5,-226.7"/>
<text text-anchor="start" x="493.5" y="-232.8" font-family="Helvetica,sans-Serif" font-size="11.00" fill="#000000">...</text>
<polygon fill="#ffffff" stroke="transparent" points="490.5,-207.7 490.5,-226.7 556.5,-226.7 556.5,-207.7 490.5,-207.7"/>
<polygon fill="none" stroke="#000000" points="490.5,-207.7 490.5,-226.7 556.5,-226.7 556.5,-207.7 490.5,-207.7"/>
<text text-anchor="start" x="493.5" y="-213.8" font-family="Helvetica,sans-Serif" font-size="11.00" fill="#000000">&lt; 2</text>
<polygon fill="#ffffff" stroke="transparent" points="556.5,-207.7 556.5,-226.7 591.5,-226.7 591.5,-207.7 556.5,-207.7"/>
<polygon fill="none" stroke="#000000" points="556.5,-207.7 556.5,-226.7 591.5,-226.7 591.5,-207.7 556.5,-207.7"/>
<text text-anchor="start" x="582.3862" y="-213.8" font-family="Helvetica,sans-Serif" font-size="11.00" fill="#000000"> &#160;</text>
<polygon fill="#ffffff" stroke="transparent" points="591.5,-207.7 591.5,-226.7 626.5,-226.7 626.5,-207.7 591.5,-207.7"/>
<polygon fill="none" stroke="#000000" points="591.5,-207.7 591.5,-226.7 626.5,-226.7 626.5,-207.7 591.5,-207.7"/>
<text text-anchor="start" x="617.3862" y="-213.8" font-family="Helvetica,sans-Serif" font-size="11.00" fill="#000000"> &#160;</text>
</a>
</g>
</g>
<!-- staff_role&#45;&gt;prison_migration_date_history -->
<g id="edge8" class="edge">
<title>staff_role:w&#45;&gt;prison_migration_date_history:e</title>
<path fill="none" stroke="#000000" stroke-dasharray="5,2" d="M475.7545,-279.1769C417.3554,-283.1474 394.0943,-311.9644 362,-367.7 332.4641,-418.9926 378.6887,-898.7 319.5,-898.7"/>
<polygon fill="#000000" stroke="#000000" points="482.5042,-278.9587 490.6164,-282.2981 486.5021,-278.8293 490.5,-278.7 490.5,-278.7 490.5,-278.7 486.5021,-278.8293 490.3836,-275.1019 482.5042,-278.9587 482.5042,-278.9587"/>
<ellipse fill="none" stroke="#000000" cx="479.3059" cy="-279.0621" rx="3.2" ry="3.2"/>
</g>
<!-- staff_role_audit -->
<g id="node10" class="node">
<title>staff_role_audit</title>
<g id="a_node10"><a xlink:href="../../tables/staff_role_audit.html" xlink:title="staff_role_audit" target="_top">
<polygon fill="#ffffff" stroke="transparent" points="461.5,-38.2 461.5,-187.2 655.5,-187.2 655.5,-38.2 461.5,-38.2"/>
<polygon fill="#f5f5f5" stroke="transparent" points="461.5,-163.7 461.5,-186.7 655.5,-186.7 655.5,-163.7 461.5,-163.7"/>
<polygon fill="none" stroke="#000000" points="461.5,-163.7 461.5,-186.7 655.5,-186.7 655.5,-163.7 461.5,-163.7"/>
<text text-anchor="start" x="466.5" y="-172.3" font-family="Helvetica,sans-Serif" font-weight="bold" font-size="11.00" fill="#000000">staff_role_audit</text>
<text text-anchor="start" x="620.5437" y="-171.8" font-family="Helvetica,sans-Serif" font-size="11.00" fill="#000000">[table]</text>
<polygon fill="none" stroke="#000000" points="461.5,-141.7 461.5,-163.7 655.5,-163.7 655.5,-141.7 461.5,-141.7"/>
<image xlink:href="../../images/primaryKeys.png" width="11px" height="12px" preserveAspectRatio="xMinYMin meet" x="466.5" y="-158.7"/>
<text text-anchor="start" x="481.5" y="-148.8" font-family="Helvetica,sans-Serif" font-size="11.00" fill="#000000">rev_id</text>
<polygon fill="none" stroke="#000000" points="461.5,-119.7 461.5,-141.7 655.5,-141.7 655.5,-119.7 461.5,-119.7"/>
<image xlink:href="../../images/primaryKeys.png" width="11px" height="12px" preserveAspectRatio="xMinYMin meet" x="466.5" y="-136.7"/>
<text text-anchor="start" x="481.5" y="-126.8" font-family="Helvetica,sans-Serif" font-size="11.00" fill="#000000">id</text>
<polygon fill="none" stroke="#000000" points="461.5,-97.7 461.5,-119.7 655.5,-119.7 655.5,-97.7 461.5,-97.7"/>
<image xlink:href="../../images/foreignKeys.png" width="11px" height="12px" preserveAspectRatio="xMinYMin meet" x="466.5" y="-114.7"/>
<text text-anchor="start" x="481.5" y="-104.8" font-family="Helvetica,sans-Serif" font-size="11.00" fill="#000000">policy_code</text>
<polygon fill="none" stroke="#000000" points="461.5,-75.7 461.5,-97.7 655.5,-97.7 655.5,-75.7 461.5,-75.7"/>
<image xlink:href="../../images/foreignKeys.png" width="11px" height="12px" preserveAspectRatio="xMinYMin meet" x="466.5" y="-92.7"/>
<text text-anchor="start" x="481.5" y="-82.8" font-family="Helvetica,sans-Serif" font-size="11.00" fill="#000000">prison_code</text>
<polygon fill="none" stroke="#000000" points="461.5,-56.7 461.5,-75.7 655.5,-75.7 655.5,-56.7 461.5,-56.7"/>
<text text-anchor="start" x="464.5" y="-62.8" font-family="Helvetica,sans-Serif" font-size="11.00" fill="#000000">...</text>
<polygon fill="#ffffff" stroke="transparent" points="461.5,-37.7 461.5,-56.7 556.5,-56.7 556.5,-37.7 461.5,-37.7"/>
<polygon fill="none" stroke="#000000" points="461.5,-37.7 461.5,-56.7 556.5,-56.7 556.5,-37.7 461.5,-37.7"/>
<text text-anchor="start" x="464.5" y="-43.8" font-family="Helvetica,sans-Serif" font-size="11.00" fill="#000000">&lt; 3</text>
<polygon fill="#ffffff" stroke="transparent" points="556.5,-37.7 556.5,-56.7 605.5,-56.7 605.5,-37.7 556.5,-37.7"/>
<polygon fill="none" stroke="#000000" points="556.5,-37.7 556.5,-56.7 605.5,-56.7 605.5,-37.7 556.5,-37.7"/>
<text text-anchor="start" x="596.3862" y="-43.8" font-family="Helvetica,sans-Serif" font-size="11.00" fill="#000000"> &#160;</text>
<polygon fill="#ffffff" stroke="transparent" points="605.5,-37.7 605.5,-56.7 655.5,-56.7 655.5,-37.7 605.5,-37.7"/>
<polygon fill="none" stroke="#000000" points="605.5,-37.7 605.5,-56.7 655.5,-56.7 655.5,-37.7 605.5,-37.7"/>
<text text-anchor="start" x="646.3862" y="-43.8" font-family="Helvetica,sans-Serif" font-size="11.00" fill="#000000"> &#160;</text>
</a>
</g>
</g>
<!-- staff_role_audit&#45;&gt;prison_migration_date_history -->
<g id="edge9" class="edge">
<title>staff_role_audit:w&#45;&gt;prison_migration_date_history:e</title>
<path fill="none" stroke="#000000" stroke-dasharray="5,2" d="M447.0076,-87.5947C393.9339,-94.5604 385.5414,-141.3428 362,-197.7 331.9232,-269.7025 397.5319,-898.7 319.5,-898.7"/>
<polygon fill="#000000" stroke="#000000" points="453.5152,-87.193 461.7218,-90.2932 457.5076,-86.9465 461.5,-86.7 461.5,-86.7 461.5,-86.7 457.5076,-86.9465 461.2782,-83.1068 453.5152,-87.193 453.5152,-87.193"/>
<ellipse fill="none" stroke="#000000" cx="450.3213" cy="-87.3902" rx="3.2" ry="3.2"/>
</g>
</g>
</svg>
