<?xml version="1.0" encoding="UTF-8" standalone="no"?>
<!DOCTYPE svg PUBLIC "-//W3C//DTD SVG 1.1//EN"
 "http://www.w3.org/Graphics/SVG/1.1/DTD/svg11.dtd">
<!-- Generated by graphviz version 2.40.1 (20161225.0304)
 -->
<!-- Title: twoDegreesRelationshipsDiagramImplied Pages: 1 -->
<svg width="726pt" height="1197pt"
 viewBox="0.00 0.00 726.00 1197.20" xmlns="http://www.w3.org/2000/svg" xmlns:xlink="http://www.w3.org/1999/xlink">
<g id="graph0" class="graph" transform="scale(1 1) rotate(0) translate(4 1193.2)">
<title>twoDegreesRelationshipsDiagramImplied</title>
<polygon fill="#ffffff" stroke="transparent" points="-4,4 -4,-1193.2 722,-1193.2 722,4 -4,4"/>
<text text-anchor="middle" x="72.4936" y="-7.3" font-family="Helvetica,sans-Serif" font-size="11.00" fill="#000000">Generated by SchemaSpy</text>
<!-- allocation -->
<g id="node1" class="node">
<title>allocation</title>
<g id="a_node1"><a xlink:href="../../tables/allocation.html" xlink:title="allocation" target="_top">
<polygon fill="#ffffff" stroke="transparent" points="452.5,-960.2 452.5,-1021.2 557.5,-1021.2 557.5,-960.2 452.5,-960.2"/>
<polygon fill="#f5f5f5" stroke="transparent" points="453,-997.7 453,-1020.7 558,-1020.7 558,-997.7 453,-997.7"/>
<polygon fill="none" stroke="#000000" points="453,-997.7 453,-1020.7 558,-1020.7 558,-997.7 453,-997.7"/>
<text text-anchor="start" x="458" y="-1006.3" font-family="Helvetica,sans-Serif" font-weight="bold" font-size="11.00" fill="#000000">allocation</text>
<text text-anchor="start" x="523.5219" y="-1005.8" font-family="Helvetica,sans-Serif" font-size="11.00" fill="#000000">[table]</text>
<polygon fill="none" stroke="#000000" points="453,-978.7 453,-997.7 558,-997.7 558,-978.7 453,-978.7"/>
<text text-anchor="start" x="456" y="-984.8" font-family="Helvetica,sans-Serif" font-size="11.00" fill="#000000">...</text>
<polygon fill="#ffffff" stroke="transparent" points="453,-959.7 453,-978.7 504,-978.7 504,-959.7 453,-959.7"/>
<polygon fill="none" stroke="#000000" points="453,-959.7 453,-978.7 504,-978.7 504,-959.7 453,-959.7"/>
<text text-anchor="start" x="456" y="-965.8" font-family="Helvetica,sans-Serif" font-size="11.00" fill="#000000">&lt; 4</text>
<polygon fill="#ffffff" stroke="transparent" points="504,-959.7 504,-978.7 531,-978.7 531,-959.7 504,-959.7"/>
<polygon fill="none" stroke="#000000" points="504,-959.7 504,-978.7 531,-978.7 531,-959.7 504,-959.7"/>
<text text-anchor="start" x="521.8862" y="-965.8" font-family="Helvetica,sans-Serif" font-size="11.00" fill="#000000"> &#160;</text>
<polygon fill="#ffffff" stroke="transparent" points="531,-959.7 531,-978.7 558,-978.7 558,-959.7 531,-959.7"/>
<polygon fill="none" stroke="#000000" points="531,-959.7 531,-978.7 558,-978.7 558,-959.7 531,-959.7"/>
<text text-anchor="start" x="548.8862" y="-965.8" font-family="Helvetica,sans-Serif" font-size="11.00" fill="#000000"> &#160;</text>
</a>
</g>
</g>
<!-- policy -->
<g id="node2" class="node">
<title>policy</title>
<g id="a_node2"><a xlink:href="../../tables/policy.html" xlink:title="policy" target="_top">
<polygon fill="#ffffff" stroke="transparent" points="81,-386.2 81,-469.2 178,-469.2 178,-386.2 81,-386.2"/>
<polygon fill="#f5f5f5" stroke="transparent" points="81.5,-445.7 81.5,-468.7 178.5,-468.7 178.5,-445.7 81.5,-445.7"/>
<polygon fill="none" stroke="#000000" points="81.5,-445.7 81.5,-468.7 178.5,-468.7 178.5,-445.7 81.5,-445.7"/>
<text text-anchor="start" x="86.5" y="-454.3" font-family="Helvetica,sans-Serif" font-weight="bold" font-size="11.00" fill="#000000">policy</text>
<text text-anchor="start" x="143.5437" y="-453.8" font-family="Helvetica,sans-Serif" font-size="11.00" fill="#000000">[table]</text>
<polygon fill="none" stroke="#000000" points="81.5,-423.7 81.5,-445.7 178.5,-445.7 178.5,-423.7 81.5,-423.7"/>
<image xlink:href="../../images/primaryKeys.png" width="11px" height="12px" preserveAspectRatio="xMinYMin meet" x="86.5" y="-440.7"/>
<text text-anchor="start" x="101.5" y="-430.8" font-family="Helvetica,sans-Serif" font-size="11.00" fill="#000000">code</text>
<polygon fill="none" stroke="#000000" points="81.5,-404.7 81.5,-423.7 178.5,-423.7 178.5,-404.7 81.5,-404.7"/>
<text text-anchor="start" x="84.5" y="-410.8" font-family="Helvetica,sans-Serif" font-size="11.00" fill="#000000">...</text>
<polygon fill="#ffffff" stroke="transparent" points="81.5,-385.7 81.5,-404.7 116.5,-404.7 116.5,-385.7 81.5,-385.7"/>
<polygon fill="none" stroke="#000000" points="81.5,-385.7 81.5,-404.7 116.5,-404.7 116.5,-385.7 81.5,-385.7"/>
<text text-anchor="start" x="84.5" y="-391.8" font-family="Helvetica,sans-Serif" font-size="11.00" fill="#000000"> &#160;</text>
<polygon fill="#ffffff" stroke="transparent" points="116.5,-385.7 116.5,-404.7 139.5,-404.7 139.5,-385.7 116.5,-385.7"/>
<polygon fill="none" stroke="#000000" points="116.5,-385.7 116.5,-404.7 139.5,-404.7 139.5,-385.7 116.5,-385.7"/>
<text text-anchor="start" x="130.3862" y="-391.8" font-family="Helvetica,sans-Serif" font-size="11.00" fill="#000000"> &#160;</text>
<polygon fill="#ffffff" stroke="transparent" points="139.5,-385.7 139.5,-404.7 178.5,-404.7 178.5,-385.7 139.5,-385.7"/>
<polygon fill="none" stroke="#000000" points="139.5,-385.7 139.5,-404.7 178.5,-404.7 178.5,-385.7 139.5,-385.7"/>
<text text-anchor="start" x="153.7904" y="-391.8" font-family="Helvetica,sans-Serif" font-size="11.00" fill="#000000">10 &gt;</text>
</a>
</g>
</g>
<!-- allocation&#45;&gt;policy -->
<g id="edge1" class="edge">
<title>allocation:w&#45;&gt;policy:e</title>
<path fill="none" stroke="#000000" d="M438.4181,-987.89C374.3542,-989.4934 339.0085,-999.5183 292,-949.7 233.7792,-887.9992 276.4826,-844.7121 259,-761.7 228.1552,-615.2404 328.1724,-434.7 178.5,-434.7"/>
<polygon fill="#000000" stroke="#000000" points="445.0007,-987.8043 453.0469,-991.2997 449.0003,-987.7521 453,-987.7 453,-987.7 453,-987.7 449.0003,-987.7521 452.9531,-984.1003 445.0007,-987.8043 445.0007,-987.8043"/>
<ellipse fill="none" stroke="#000000" cx="441.801" cy="-987.846" rx="3.2" ry="3.2"/>
</g>
<!-- prison_migration_date_history -->
<g id="node3" class="node">
<title>prison_migration_date_history</title>
<g id="a_node3"><a xlink:href="../../tables/prison_migration_date_history.html" xlink:title="prison_migration_date_history" target="_top">
<polygon fill="#ffffff" stroke="transparent" points="8,-772.2 8,-855.2 251,-855.2 251,-772.2 8,-772.2"/>
<polygon fill="#f5f5f5" stroke="transparent" points="8.5,-831.7 8.5,-854.7 251.5,-854.7 251.5,-831.7 8.5,-831.7"/>
<polygon fill="none" stroke="#000000" points="8.5,-831.7 8.5,-854.7 251.5,-854.7 251.5,-831.7 8.5,-831.7"/>
<text text-anchor="start" x="13.5" y="-840.3" font-family="Helvetica,sans-Serif" font-weight="bold" font-size="11.00" fill="#000000">prison_migration_date_history</text>
<text text-anchor="start" x="217.0219" y="-839.8" font-family="Helvetica,sans-Serif" font-size="11.00" fill="#000000">[table]</text>
<polygon fill="none" stroke="#000000" points="8.5,-809.7 8.5,-831.7 251.5,-831.7 251.5,-809.7 8.5,-809.7"/>
<image xlink:href="../../images/primaryKeys.png" width="11px" height="12px" preserveAspectRatio="xMinYMin meet" x="13.5" y="-826.7"/>
<text text-anchor="start" x="37.5" y="-816.8" font-family="Helvetica,sans-Serif" font-size="11.00" fill="#000000">prison_code</text>
<polygon fill="none" stroke="#000000" points="8.5,-790.7 8.5,-809.7 251.5,-809.7 251.5,-790.7 8.5,-790.7"/>
<text text-anchor="start" x="11.5" y="-796.8" font-family="Helvetica,sans-Serif" font-size="11.00" fill="#000000">...</text>
<polygon fill="#ffffff" stroke="transparent" points="8.5,-771.7 8.5,-790.7 119.5,-790.7 119.5,-771.7 8.5,-771.7"/>
<polygon fill="none" stroke="#000000" points="8.5,-771.7 8.5,-790.7 119.5,-790.7 119.5,-771.7 8.5,-771.7"/>
<text text-anchor="start" x="11.5" y="-777.8" font-family="Helvetica,sans-Serif" font-size="11.00" fill="#000000"> &#160;</text>
<polygon fill="#ffffff" stroke="transparent" points="119.5,-771.7 119.5,-790.7 180.5,-790.7 180.5,-771.7 119.5,-771.7"/>
<polygon fill="none" stroke="#000000" points="119.5,-771.7 119.5,-790.7 180.5,-790.7 180.5,-771.7 119.5,-771.7"/>
<text text-anchor="start" x="171.3862" y="-777.8" font-family="Helvetica,sans-Serif" font-size="11.00" fill="#000000"> &#160;</text>
<polygon fill="#ffffff" stroke="transparent" points="180.5,-771.7 180.5,-790.7 251.5,-790.7 251.5,-771.7 180.5,-771.7"/>
<polygon fill="none" stroke="#000000" points="180.5,-771.7 180.5,-790.7 251.5,-790.7 251.5,-771.7 180.5,-771.7"/>
<text text-anchor="start" x="232.9053" y="-777.8" font-family="Helvetica,sans-Serif" font-size="11.00" fill="#000000">9 &gt;</text>
</a>
</g>
</g>
<!-- allocation&#45;&gt;prison_migration_date_history -->
<g id="edge2" class="edge">
<title>allocation:w&#45;&gt;prison_migration_date_history:e</title>
<path fill="none" stroke="#000000" stroke-dasharray="5,2" d="M438.4622,-987.8455C374.7844,-989.06 342.1556,-996.3485 292,-949.7 247.9976,-908.7744 311.5925,-820.7 251.5,-820.7"/>
<polygon fill="#000000" stroke="#000000" points="445.0004,-987.7801 453.0361,-991.2998 449.0002,-987.7401 453,-987.7 453,-987.7 453,-987.7 449.0002,-987.7401 452.9639,-984.1002 445.0004,-987.7801 445.0004,-987.7801"/>
<ellipse fill="none" stroke="#000000" cx="441.8006" cy="-987.8122" rx="3.2" ry="3.2"/>
</g>
<!-- allocation_audit -->
<g id="node4" class="node">
<title>allocation_audit</title>
<g id="a_node4"><a xlink:href="../../tables/allocation_audit.html" xlink:title="allocation_audit" target="_top">
<polygon fill="#ffffff" stroke="transparent" points="432,-878.2 432,-939.2 578,-939.2 578,-878.2 432,-878.2"/>
<polygon fill="#f5f5f5" stroke="transparent" points="432,-915.7 432,-938.7 578,-938.7 578,-915.7 432,-915.7"/>
<polygon fill="none" stroke="#000000" points="432,-915.7 432,-938.7 578,-938.7 578,-915.7 432,-915.7"/>
<text text-anchor="start" x="437" y="-924.3" font-family="Helvetica,sans-Serif" font-weight="bold" font-size="11.00" fill="#000000">allocation_audit</text>
<text text-anchor="start" x="543.5219" y="-923.8" font-family="Helvetica,sans-Serif" font-size="11.00" fill="#000000">[table]</text>
<polygon fill="none" stroke="#000000" points="432,-896.7 432,-915.7 578,-915.7 578,-896.7 432,-896.7"/>
<text text-anchor="start" x="435" y="-902.8" font-family="Helvetica,sans-Serif" font-size="11.00" fill="#000000">...</text>
<polygon fill="#ffffff" stroke="transparent" points="432,-877.7 432,-896.7 503,-896.7 503,-877.7 432,-877.7"/>
<polygon fill="none" stroke="#000000" points="432,-877.7 432,-896.7 503,-896.7 503,-877.7 432,-877.7"/>
<text text-anchor="start" x="435" y="-883.8" font-family="Helvetica,sans-Serif" font-size="11.00" fill="#000000">&lt; 3</text>
<polygon fill="#ffffff" stroke="transparent" points="503,-877.7 503,-896.7 540,-896.7 540,-877.7 503,-877.7"/>
<polygon fill="none" stroke="#000000" points="503,-877.7 503,-896.7 540,-896.7 540,-877.7 503,-877.7"/>
<text text-anchor="start" x="530.8862" y="-883.8" font-family="Helvetica,sans-Serif" font-size="11.00" fill="#000000"> &#160;</text>
<polygon fill="#ffffff" stroke="transparent" points="540,-877.7 540,-896.7 578,-896.7 578,-877.7 540,-877.7"/>
<polygon fill="none" stroke="#000000" points="540,-877.7 540,-896.7 578,-896.7 578,-877.7 540,-877.7"/>
<text text-anchor="start" x="568.8862" y="-883.8" font-family="Helvetica,sans-Serif" font-size="11.00" fill="#000000"> &#160;</text>
</a>
</g>
</g>
<!-- allocation_audit&#45;&gt;policy -->
<g id="edge3" class="edge">
<title>allocation_audit:w&#45;&gt;policy:e</title>
<path fill="none" stroke="#000000" stroke-dasharray="5,2" d="M417.4941,-905.8133C362.7247,-906.5898 333.8451,-909.9101 292,-867.7 256.984,-832.3786 228.2365,-434.7 178.5,-434.7"/>
<polygon fill="#000000" stroke="#000000" points="424.0002,-905.7626 432.0281,-909.2999 428.0001,-905.7313 432,-905.7 432,-905.7 432,-905.7 428.0001,-905.7313 431.9719,-902.1001 424.0002,-905.7626 424.0002,-905.7626"/>
<ellipse fill="none" stroke="#000000" cx="420.8003" cy="-905.7876" rx="3.2" ry="3.2"/>
</g>
<!-- allocation_audit&#45;&gt;prison_migration_date_history -->
<g id="edge4" class="edge">
<title>allocation_audit:w&#45;&gt;prison_migration_date_history:e</title>
<path fill="none" stroke="#000000" stroke-dasharray="5,2" d="M417.3084,-905.6163C363.9512,-904.9219 342.1788,-899.3202 292,-867.7 268.6712,-852.9993 279.0744,-820.7 251.5,-820.7"/>
<polygon fill="#000000" stroke="#000000" points="424.0001,-905.6544 431.9795,-909.2999 428.0001,-905.6772 432,-905.7 432,-905.7 432,-905.7 428.0001,-905.6772 432.0205,-902.1001 424.0001,-905.6544 424.0001,-905.6544"/>
<ellipse fill="none" stroke="#000000" cx="420.8002" cy="-905.6361" rx="3.2" ry="3.2"/>
</g>
<!-- allocation_case_note -->
<g id="node5" class="node">
<title>allocation_case_note</title>
<g id="a_node5"><a xlink:href="../../tables/allocation_case_note.html" xlink:title="allocation_case_note" target="_top">
<polygon fill="#ffffff" stroke="transparent" points="416,-1124.2 416,-1185.2 594,-1185.2 594,-1124.2 416,-1124.2"/>
<polygon fill="#f5f5f5" stroke="transparent" points="416,-1161.7 416,-1184.7 594,-1184.7 594,-1161.7 416,-1161.7"/>
<polygon fill="none" stroke="#000000" points="416,-1161.7 416,-1184.7 594,-1184.7 594,-1161.7 416,-1161.7"/>
<text text-anchor="start" x="421" y="-1170.3" font-family="Helvetica,sans-Serif" font-weight="bold" font-size="11.00" fill="#000000">allocation_case_note</text>
<text text-anchor="start" x="559.5219" y="-1169.8" font-family="Helvetica,sans-Serif" font-size="11.00" fill="#000000">[table]</text>
<polygon fill="none" stroke="#000000" points="416,-1142.7 416,-1161.7 594,-1161.7 594,-1142.7 416,-1142.7"/>
<text text-anchor="start" x="419" y="-1148.8" font-family="Helvetica,sans-Serif" font-size="11.00" fill="#000000">...</text>
<polygon fill="#ffffff" stroke="transparent" points="416,-1123.7 416,-1142.7 503,-1142.7 503,-1123.7 416,-1123.7"/>
<polygon fill="none" stroke="#000000" points="416,-1123.7 416,-1142.7 503,-1142.7 503,-1123.7 416,-1123.7"/>
<text text-anchor="start" x="419" y="-1129.8" font-family="Helvetica,sans-Serif" font-size="11.00" fill="#000000">&lt; 1</text>
<polygon fill="#ffffff" stroke="transparent" points="503,-1123.7 503,-1142.7 548,-1142.7 548,-1123.7 503,-1123.7"/>
<polygon fill="none" stroke="#000000" points="503,-1123.7 503,-1142.7 548,-1142.7 548,-1123.7 503,-1123.7"/>
<text text-anchor="start" x="538.8862" y="-1129.8" font-family="Helvetica,sans-Serif" font-size="11.00" fill="#000000"> &#160;</text>
<polygon fill="#ffffff" stroke="transparent" points="548,-1123.7 548,-1142.7 594,-1142.7 594,-1123.7 548,-1123.7"/>
<polygon fill="none" stroke="#000000" points="548,-1123.7 548,-1142.7 594,-1142.7 594,-1123.7 548,-1123.7"/>
<text text-anchor="start" x="584.8862" y="-1129.8" font-family="Helvetica,sans-Serif" font-size="11.00" fill="#000000"> &#160;</text>
</a>
</g>
</g>
<!-- allocation_case_note&#45;&gt;prison_migration_date_history -->
<g id="edge5" class="edge">
<title>allocation_case_note:w&#45;&gt;prison_migration_date_history:e</title>
<path fill="none" stroke="#000000" stroke-dasharray="5,2" d="M401.4406,-1151.7986C353.1987,-1152.3501 326.086,-1153.7282 292,-1113.7 249.3849,-1063.6559 317.2302,-820.7 251.5,-820.7"/>
<polygon fill="#000000" stroke="#000000" points="408.0002,-1151.7542 416.0244,-1155.2999 412.0001,-1151.7271 416,-1151.7 416,-1151.7 416,-1151.7 412.0001,-1151.7271 415.9756,-1148.1001 408.0002,-1151.7542 408.0002,-1151.7542"/>
<ellipse fill="none" stroke="#000000" cx="404.8003" cy="-1151.7759" rx="3.2" ry="3.2"/>
</g>
<!-- allocation_case_note_audit -->
<g id="node6" class="node">
<title>allocation_case_note_audit</title>
<g id="a_node6"><a xlink:href="../../tables/allocation_case_note_audit.html" xlink:title="allocation_case_note_audit" target="_top">
<polygon fill="#ffffff" stroke="transparent" points="395.5,-1042.2 395.5,-1103.2 614.5,-1103.2 614.5,-1042.2 395.5,-1042.2"/>
<polygon fill="#f5f5f5" stroke="transparent" points="396,-1079.7 396,-1102.7 615,-1102.7 615,-1079.7 396,-1079.7"/>
<polygon fill="none" stroke="#000000" points="396,-1079.7 396,-1102.7 615,-1102.7 615,-1079.7 396,-1079.7"/>
<text text-anchor="start" x="401" y="-1088.3" font-family="Helvetica,sans-Serif" font-weight="bold" font-size="11.00" fill="#000000">allocation_case_note_audit</text>
<text text-anchor="start" x="580.5219" y="-1087.8" font-family="Helvetica,sans-Serif" font-size="11.00" fill="#000000">[table]</text>
<polygon fill="none" stroke="#000000" points="396,-1060.7 396,-1079.7 615,-1079.7 615,-1060.7 396,-1060.7"/>
<text text-anchor="start" x="399" y="-1066.8" font-family="Helvetica,sans-Serif" font-size="11.00" fill="#000000">...</text>
<polygon fill="#ffffff" stroke="transparent" points="396,-1041.7 396,-1060.7 504,-1060.7 504,-1041.7 396,-1041.7"/>
<polygon fill="none" stroke="#000000" points="396,-1041.7 396,-1060.7 504,-1060.7 504,-1041.7 396,-1041.7"/>
<text text-anchor="start" x="399" y="-1047.8" font-family="Helvetica,sans-Serif" font-size="11.00" fill="#000000">&lt; 2</text>
<polygon fill="#ffffff" stroke="transparent" points="504,-1041.7 504,-1060.7 559,-1060.7 559,-1041.7 504,-1041.7"/>
<polygon fill="none" stroke="#000000" points="504,-1041.7 504,-1060.7 559,-1060.7 559,-1041.7 504,-1041.7"/>
<text text-anchor="start" x="549.8862" y="-1047.8" font-family="Helvetica,sans-Serif" font-size="11.00" fill="#000000"> &#160;</text>
<polygon fill="#ffffff" stroke="transparent" points="559,-1041.7 559,-1060.7 615,-1060.7 615,-1041.7 559,-1041.7"/>
<polygon fill="none" stroke="#000000" points="559,-1041.7 559,-1060.7 615,-1060.7 615,-1041.7 559,-1041.7"/>
<text text-anchor="start" x="605.8862" y="-1047.8" font-family="Helvetica,sans-Serif" font-size="11.00" fill="#000000"> &#160;</text>
</a>
</g>
</g>
<!-- allocation_case_note_audit&#45;&gt;prison_migration_date_history -->
<g id="edge6" class="edge">
<title>allocation_case_note_audit:w&#45;&gt;prison_migration_date_history:e</title>
<path fill="none" stroke="#000000" stroke-dasharray="5,2" d="M381.5244,-1069.6428C341.9523,-1069.1959 320.5913,-1065.2983 292,-1031.7 230.1152,-958.9777 346.9896,-820.7 251.5,-820.7"/>
<polygon fill="#000000" stroke="#000000" points="388.0001,-1069.6683 395.9858,-1073.3 392,-1069.6842 396,-1069.7 396,-1069.7 396,-1069.7 392,-1069.6842 396.0142,-1066.1 388.0001,-1069.6683 388.0001,-1069.6683"/>
<ellipse fill="none" stroke="#000000" cx="384.8001" cy="-1069.6557" rx="3.2" ry="3.2"/>
</g>
<!-- prison_configuration -->
<g id="node7" class="node">
<title>prison_configuration</title>
<g id="a_node7"><a xlink:href="../../tables/prison_configuration.html" xlink:title="prison_configuration" target="_top">
<polygon fill="#ffffff" stroke="transparent" points="300,-612.7 300,-856.7 710,-856.7 710,-612.7 300,-612.7"/>
<polygon fill="#f5f5f5" stroke="transparent" points="302,-831.7 302,-854.7 708,-854.7 708,-831.7 302,-831.7"/>
<polygon fill="none" stroke="#000000" points="302,-831.7 302,-854.7 708,-854.7 708,-831.7 302,-831.7"/>
<text text-anchor="start" x="307" y="-840.3" font-family="Helvetica,sans-Serif" font-weight="bold" font-size="11.00" fill="#000000">prison_configuration</text>
<text text-anchor="start" x="673.0437" y="-839.8" font-family="Helvetica,sans-Serif" font-size="11.00" fill="#000000">[table]</text>
<polygon fill="#ffffff" stroke="transparent" points="302,-809.7 302,-831.7 614,-831.7 614,-809.7 302,-809.7"/>
<polygon fill="none" stroke="#000000" points="302,-809.7 302,-831.7 614,-831.7 614,-809.7 302,-809.7"/>
<image xlink:href="../../images/foreignKeys.png" width="11px" height="12px" preserveAspectRatio="xMinYMin meet" x="307" y="-826.7"/>
<text text-anchor="start" x="322" y="-816.8" font-family="Helvetica,sans-Serif" font-size="11.00" fill="#000000">prison_code</text>
<polygon fill="none" stroke="#000000" points="614,-809.7 614,-831.7 708,-831.7 708,-809.7 614,-809.7"/>
<text text-anchor="start" x="617" y="-817.4" font-family="Helvetica,sans-Serif" font-size="11.00" fill="#000000">varchar[6]</text>
<polygon fill="none" stroke="#000000" points="302,-787.7 302,-809.7 614,-809.7 614,-787.7 302,-787.7"/>
<text text-anchor="start" x="322" y="-794.8" font-family="Helvetica,sans-Serif" font-size="11.00" fill="#000000">allow_auto_allocation</text>
<polygon fill="none" stroke="#000000" points="614,-787.7 614,-809.7 708,-809.7 708,-787.7 614,-787.7"/>
<text text-anchor="start" x="617" y="-795.4" font-family="Helvetica,sans-Serif" font-size="11.00" fill="#000000">bool[1]</text>
<polygon fill="none" stroke="#000000" points="302,-765.7 302,-787.7 614,-787.7 614,-765.7 302,-765.7"/>
<text text-anchor="start" x="322" y="-772.8" font-family="Helvetica,sans-Serif" font-size="11.00" fill="#000000">is_enabled</text>
<polygon fill="none" stroke="#000000" points="614,-765.7 614,-787.7 708,-787.7 708,-765.7 614,-765.7"/>
<text text-anchor="start" x="617" y="-773.4" font-family="Helvetica,sans-Serif" font-size="11.00" fill="#000000">bool[1]</text>
<polygon fill="none" stroke="#000000" points="302,-743.7 302,-765.7 614,-765.7 614,-743.7 302,-743.7"/>
<text text-anchor="start" x="322" y="-750.8" font-family="Helvetica,sans-Serif" font-size="11.00" fill="#000000">capacity</text>
<polygon fill="none" stroke="#000000" points="614,-743.7 614,-765.7 708,-765.7 708,-743.7 614,-743.7"/>
<text text-anchor="start" x="617" y="-751.4" font-family="Helvetica,sans-Serif" font-size="11.00" fill="#000000">int4[10]</text>
<polygon fill="none" stroke="#000000" points="302,-721.7 302,-743.7 614,-743.7 614,-721.7 302,-721.7"/>
<text text-anchor="start" x="322" y="-728.8" font-family="Helvetica,sans-Serif" font-size="11.00" fill="#000000">maximum_capacity</text>
<polygon fill="none" stroke="#000000" points="614,-721.7 614,-743.7 708,-743.7 708,-721.7 614,-721.7"/>
<text text-anchor="start" x="617" y="-729.4" font-family="Helvetica,sans-Serif" font-size="11.00" fill="#000000">int4[10]</text>
<polygon fill="none" stroke="#000000" points="302,-699.7 302,-721.7 614,-721.7 614,-699.7 302,-699.7"/>
<text text-anchor="start" x="322" y="-706.8" font-family="Helvetica,sans-Serif" font-size="11.00" fill="#000000">frequency_in_weeks</text>
<polygon fill="none" stroke="#000000" points="614,-699.7 614,-721.7 708,-721.7 708,-699.7 614,-699.7"/>
<text text-anchor="start" x="617" y="-707.4" font-family="Helvetica,sans-Serif" font-size="11.00" fill="#000000">int4[10]</text>
<polygon fill="none" stroke="#000000" points="302,-677.7 302,-699.7 614,-699.7 614,-677.7 302,-677.7"/>
<text text-anchor="start" x="322" y="-684.8" font-family="Helvetica,sans-Serif" font-size="11.00" fill="#000000">has_prisoners_with_high_complexity_needs</text>
<polygon fill="none" stroke="#000000" points="614,-677.7 614,-699.7 708,-699.7 708,-677.7 614,-677.7"/>
<text text-anchor="start" x="617" y="-685.4" font-family="Helvetica,sans-Serif" font-size="11.00" fill="#000000">bool[1]</text>
<polygon fill="#ffffff" stroke="transparent" points="302,-655.7 302,-677.7 614,-677.7 614,-655.7 302,-655.7"/>
<polygon fill="none" stroke="#000000" points="302,-655.7 302,-677.7 614,-677.7 614,-655.7 302,-655.7"/>
<image xlink:href="../../images/foreignKeys.png" width="11px" height="12px" preserveAspectRatio="xMinYMin meet" x="307" y="-672.7"/>
<text text-anchor="start" x="322" y="-662.8" font-family="Helvetica,sans-Serif" font-size="11.00" fill="#000000">policy_code</text>
<polygon fill="none" stroke="#000000" points="614,-655.7 614,-677.7 708,-677.7 708,-655.7 614,-655.7"/>
<text text-anchor="start" x="617" y="-663.4" font-family="Helvetica,sans-Serif" font-size="11.00" fill="#000000">varchar[16]</text>
<polygon fill="none" stroke="#000000" points="302,-633.7 302,-655.7 614,-655.7 614,-633.7 302,-633.7"/>
<image xlink:href="../../images/primaryKeys.png" width="11px" height="12px" preserveAspectRatio="xMinYMin meet" x="307" y="-650.7"/>
<text text-anchor="start" x="322" y="-640.8" font-family="Helvetica,sans-Serif" font-size="11.00" fill="#000000">id</text>
<polygon fill="none" stroke="#000000" points="614,-633.7 614,-655.7 708,-655.7 708,-633.7 614,-633.7"/>
<text text-anchor="start" x="616.9758" y="-641.4" font-family="Helvetica,sans-Serif" font-size="11.00" fill="#000000">uuid[2147483647]</text>
<polygon fill="#ffffff" stroke="transparent" points="302,-614.7 302,-633.7 446,-633.7 446,-614.7 302,-614.7"/>
<polygon fill="none" stroke="#000000" points="302,-614.7 302,-633.7 446,-633.7 446,-614.7 302,-614.7"/>
<text text-anchor="start" x="305" y="-620.8" font-family="Helvetica,sans-Serif" font-size="11.00" fill="#000000">&lt; 2</text>
<polygon fill="#ffffff" stroke="transparent" points="446,-614.7 446,-633.7 614,-633.7 614,-614.7 446,-614.7"/>
<polygon fill="none" stroke="#000000" points="446,-614.7 446,-633.7 614,-633.7 614,-614.7 446,-614.7"/>
<text text-anchor="start" x="572.4956" y="-620.8" font-family="Helvetica,sans-Serif" font-size="11.00" fill="#000000">12 rows</text>
<polygon fill="#ffffff" stroke="transparent" points="614,-614.7 614,-633.7 708,-633.7 708,-614.7 614,-614.7"/>
<polygon fill="none" stroke="#000000" points="614,-614.7 614,-633.7 708,-633.7 708,-614.7 614,-614.7"/>
<text text-anchor="start" x="689.4053" y="-620.8" font-family="Helvetica,sans-Serif" font-size="11.00" fill="#000000">0 &gt;</text>
<polygon fill="none" stroke="#000000" stroke-width="2" points="301,-613.7 301,-855.7 709,-855.7 709,-613.7 301,-613.7"/>
</a>
</g>
</g>
<!-- prison_configuration&#45;&gt;policy -->
<g id="edge7" class="edge">
<title>prison_configuration:w&#45;&gt;policy:e</title>
<path fill="none" stroke="#000000" d="M287.5906,-665.3376C194.6252,-646.3244 290.0631,-434.7 178.5,-434.7"/>
<polygon fill="#000000" stroke="#000000" points="294.0355,-665.9469 301.6611,-670.284 298.0178,-666.3234 302,-666.7 302,-666.7 302,-666.7 298.0178,-666.3234 302.3389,-663.116 294.0355,-665.9469 294.0355,-665.9469"/>
<ellipse fill="none" stroke="#000000" cx="290.8497" cy="-665.6456" rx="3.2" ry="3.2"/>
</g>
<!-- prison_configuration&#45;&gt;prison_migration_date_history -->
<g id="edge8" class="edge">
<title>prison_configuration:w&#45;&gt;prison_migration_date_history:e</title>
<path fill="none" stroke="#000000" stroke-dasharray="5,2" d="M287.4203,-820.7C275.5435,-820.7 268.158,-820.7 251.5,-820.7"/>
<polygon fill="#000000" stroke="#000000" points="294,-820.7001 302,-824.3 298,-820.7 302,-820.7 302,-820.7 302,-820.7 298,-820.7 302,-817.1 294,-820.7001 294,-820.7001"/>
<ellipse fill="none" stroke="#000000" cx="290.8" cy="-820.7001" rx="3.2" ry="3.2"/>
</g>
<!-- prison_configuration_audit -->
<g id="node8" class="node">
<title>prison_configuration_audit</title>
<g id="a_node8"><a xlink:href="../../tables/prison_configuration_audit.html" xlink:title="prison_configuration_audit" target="_top">
<polygon fill="#ffffff" stroke="transparent" points="395.5,-530.2 395.5,-591.2 614.5,-591.2 614.5,-530.2 395.5,-530.2"/>
<polygon fill="#f5f5f5" stroke="transparent" points="396,-567.7 396,-590.7 615,-590.7 615,-567.7 396,-567.7"/>
<polygon fill="none" stroke="#000000" points="396,-567.7 396,-590.7 615,-590.7 615,-567.7 396,-567.7"/>
<text text-anchor="start" x="401" y="-576.3" font-family="Helvetica,sans-Serif" font-weight="bold" font-size="11.00" fill="#000000">prison_configuration_audit</text>
<text text-anchor="start" x="580.5219" y="-575.8" font-family="Helvetica,sans-Serif" font-size="11.00" fill="#000000">[table]</text>
<polygon fill="none" stroke="#000000" points="396,-548.7 396,-567.7 615,-567.7 615,-548.7 396,-548.7"/>
<text text-anchor="start" x="399" y="-554.8" font-family="Helvetica,sans-Serif" font-size="11.00" fill="#000000">...</text>
<polygon fill="#ffffff" stroke="transparent" points="396,-529.7 396,-548.7 504,-548.7 504,-529.7 396,-529.7"/>
<polygon fill="none" stroke="#000000" points="396,-529.7 396,-548.7 504,-548.7 504,-529.7 396,-529.7"/>
<text text-anchor="start" x="399" y="-535.8" font-family="Helvetica,sans-Serif" font-size="11.00" fill="#000000">&lt; 3</text>
<polygon fill="#ffffff" stroke="transparent" points="504,-529.7 504,-548.7 559,-548.7 559,-529.7 504,-529.7"/>
<polygon fill="none" stroke="#000000" points="504,-529.7 504,-548.7 559,-548.7 559,-529.7 504,-529.7"/>
<text text-anchor="start" x="549.8862" y="-535.8" font-family="Helvetica,sans-Serif" font-size="11.00" fill="#000000"> &#160;</text>
<polygon fill="#ffffff" stroke="transparent" points="559,-529.7 559,-548.7 615,-548.7 615,-529.7 559,-529.7"/>
<polygon fill="none" stroke="#000000" points="559,-529.7 559,-548.7 615,-548.7 615,-529.7 559,-529.7"/>
<text text-anchor="start" x="605.8862" y="-535.8" font-family="Helvetica,sans-Serif" font-size="11.00" fill="#000000"> &#160;</text>
</a>
</g>
</g>
<!-- prison_configuration_audit&#45;&gt;policy -->
<g id="edge9" class="edge">
<title>prison_configuration_audit:w&#45;&gt;policy:e</title>
<path fill="none" stroke="#000000" stroke-dasharray="5,2" d="M381.6056,-557.2209C344.0056,-554.5307 330.7044,-540.6715 292,-519.7 236.589,-489.6762 241.5222,-434.7 178.5,-434.7"/>
<polygon fill="#000000" stroke="#000000" points="388.0044,-557.4338 395.8802,-561.298 392.0022,-557.5669 396,-557.7 396,-557.7 396,-557.7 392.0022,-557.5669 396.1198,-554.102 388.0044,-557.4338 388.0044,-557.4338"/>
<ellipse fill="none" stroke="#000000" cx="384.8062" cy="-557.3274" rx="3.2" ry="3.2"/>
</g>
<!-- prison_configuration_audit&#45;&gt;prison_migration_date_history -->
<g id="edge10" class="edge">
<title>prison_configuration_audit:w&#45;&gt;prison_migration_date_history:e</title>
<path fill="none" stroke="#000000" stroke-dasharray="5,2" d="M381.486,-557.9034C341.0243,-559.1897 320.207,-567.3193 292,-602.7 261.284,-641.2278 300.7734,-820.7 251.5,-820.7"/>
<polygon fill="#000000" stroke="#000000" points="388.0008,-557.8121 396.0505,-561.2996 392.0004,-557.7561 396,-557.7 396,-557.7 396,-557.7 392.0004,-557.7561 395.9495,-554.1004 388.0008,-557.8121 388.0008,-557.8121"/>
<ellipse fill="none" stroke="#000000" cx="384.8011" cy="-557.857" rx="3.2" ry="3.2"/>
</g>
<!-- prison_statistic -->
<g id="node9" class="node">
<title>prison_statistic</title>
<g id="a_node9"><a xlink:href="../../tables/prison_statistic.html" xlink:title="prison_statistic" target="_top">
<polygon fill="#ffffff" stroke="transparent" points="434,-448.2 434,-509.2 576,-509.2 576,-448.2 434,-448.2"/>
<polygon fill="#f5f5f5" stroke="transparent" points="434,-485.7 434,-508.7 576,-508.7 576,-485.7 434,-485.7"/>
<polygon fill="none" stroke="#000000" points="434,-485.7 434,-508.7 576,-508.7 576,-485.7 434,-485.7"/>
<text text-anchor="start" x="439" y="-494.3" font-family="Helvetica,sans-Serif" font-weight="bold" font-size="11.00" fill="#000000">prison_statistic</text>
<text text-anchor="start" x="541.5219" y="-493.8" font-family="Helvetica,sans-Serif" font-size="11.00" fill="#000000">[table]</text>
<polygon fill="none" stroke="#000000" points="434,-466.7 434,-485.7 576,-485.7 576,-466.7 434,-466.7"/>
<text text-anchor="start" x="437" y="-472.8" font-family="Helvetica,sans-Serif" font-size="11.00" fill="#000000">...</text>
<polygon fill="#ffffff" stroke="transparent" points="434,-447.7 434,-466.7 503,-466.7 503,-447.7 434,-447.7"/>
<polygon fill="none" stroke="#000000" points="434,-447.7 434,-466.7 503,-466.7 503,-447.7 434,-447.7"/>
<text text-anchor="start" x="437" y="-453.8" font-family="Helvetica,sans-Serif" font-size="11.00" fill="#000000">&lt; 2</text>
<polygon fill="#ffffff" stroke="transparent" points="503,-447.7 503,-466.7 539,-466.7 539,-447.7 503,-447.7"/>
<polygon fill="none" stroke="#000000" points="503,-447.7 503,-466.7 539,-466.7 539,-447.7 503,-447.7"/>
<text text-anchor="start" x="529.8862" y="-453.8" font-family="Helvetica,sans-Serif" font-size="11.00" fill="#000000"> &#160;</text>
<polygon fill="#ffffff" stroke="transparent" points="539,-447.7 539,-466.7 576,-466.7 576,-447.7 539,-447.7"/>
<polygon fill="none" stroke="#000000" points="539,-447.7 539,-466.7 576,-466.7 576,-447.7 539,-447.7"/>
<text text-anchor="start" x="566.8862" y="-453.8" font-family="Helvetica,sans-Serif" font-size="11.00" fill="#000000"> &#160;</text>
</a>
</g>
</g>
<!-- prison_statistic&#45;&gt;policy -->
<g id="edge11" class="edge">
<title>prison_statistic:w&#45;&gt;policy:e</title>
<path fill="none" stroke="#000000" d="M419.3412,-475.4694C316.579,-472.1757 288.4542,-434.7 178.5,-434.7"/>
<polygon fill="#000000" stroke="#000000" points="426.001,-475.5741 433.9434,-479.2996 430.0005,-475.6371 434,-475.7 434,-475.7 434,-475.7 430.0005,-475.6371 434.0566,-472.1004 426.001,-475.5741 426.001,-475.5741"/>
<ellipse fill="none" stroke="#000000" cx="422.8014" cy="-475.5238" rx="3.2" ry="3.2"/>
</g>
<!-- prison_statistic&#45;&gt;prison_migration_date_history -->
<g id="edge12" class="edge">
<title>prison_statistic:w&#45;&gt;prison_migration_date_history:e</title>
<path fill="none" stroke="#000000" stroke-dasharray="5,2" d="M419.4541,-475.6158C362.8068,-475.0479 331.417,-473.0951 292,-519.7 248.4158,-571.2319 318.9917,-820.7 251.5,-820.7"/>
<polygon fill="#000000" stroke="#000000" points="426.0001,-475.6536 433.9791,-479.2999 430.0001,-475.6768 434,-475.7 434,-475.7 434,-475.7 430.0001,-475.6768 434.0209,-472.1001 426.0001,-475.6536 426.0001,-475.6536"/>
<ellipse fill="none" stroke="#000000" cx="422.8002" cy="-475.6351" rx="3.2" ry="3.2"/>
</g>
<!-- reference_data_policy -->
<g id="node10" class="node">
<title>reference_data_policy</title>
<g id="a_node10"><a xlink:href="../../tables/reference_data_policy.html" xlink:title="reference_data_policy" target="_top">
<polygon fill="#ffffff" stroke="transparent" points="412,-202.2 412,-263.2 598,-263.2 598,-202.2 412,-202.2"/>
<polygon fill="#f5f5f5" stroke="transparent" points="412,-239.7 412,-262.7 598,-262.7 598,-239.7 412,-239.7"/>
<polygon fill="none" stroke="#000000" points="412,-239.7 412,-262.7 598,-262.7 598,-239.7 412,-239.7"/>
<text text-anchor="start" x="417" y="-248.3" font-family="Helvetica,sans-Serif" font-weight="bold" font-size="11.00" fill="#000000">reference_data_policy</text>
<text text-anchor="start" x="563.5219" y="-247.8" font-family="Helvetica,sans-Serif" font-size="11.00" fill="#000000">[table]</text>
<polygon fill="none" stroke="#000000" points="412,-220.7 412,-239.7 598,-239.7 598,-220.7 412,-220.7"/>
<text text-anchor="start" x="415" y="-226.8" font-family="Helvetica,sans-Serif" font-size="11.00" fill="#000000">...</text>
<polygon fill="#ffffff" stroke="transparent" points="412,-201.7 412,-220.7 503,-220.7 503,-201.7 412,-201.7"/>
<polygon fill="none" stroke="#000000" points="412,-201.7 412,-220.7 503,-220.7 503,-201.7 412,-201.7"/>
<text text-anchor="start" x="415" y="-207.8" font-family="Helvetica,sans-Serif" font-size="11.00" fill="#000000">&lt; 2</text>
<polygon fill="#ffffff" stroke="transparent" points="503,-201.7 503,-220.7 550,-220.7 550,-201.7 503,-201.7"/>
<polygon fill="none" stroke="#000000" points="503,-201.7 503,-220.7 550,-220.7 550,-201.7 503,-201.7"/>
<text text-anchor="start" x="540.8862" y="-207.8" font-family="Helvetica,sans-Serif" font-size="11.00" fill="#000000"> &#160;</text>
<polygon fill="#ffffff" stroke="transparent" points="550,-201.7 550,-220.7 598,-220.7 598,-201.7 550,-201.7"/>
<polygon fill="none" stroke="#000000" points="550,-201.7 550,-220.7 598,-220.7 598,-201.7 550,-201.7"/>
<text text-anchor="start" x="588.8862" y="-207.8" font-family="Helvetica,sans-Serif" font-size="11.00" fill="#000000"> &#160;</text>
</a>
</g>
</g>
<!-- reference_data_policy&#45;&gt;policy -->
<g id="edge13" class="edge">
<title>reference_data_policy:w&#45;&gt;policy:e</title>
<path fill="none" stroke="#000000" d="M397.5785,-229.9399C351.722,-231.5986 333.0306,-242.2425 292,-273.7 222.5211,-326.9684 266.0491,-434.7 178.5,-434.7"/>
<polygon fill="#000000" stroke="#000000" points="404.0011,-229.8331 412.0599,-233.2995 408.0006,-229.7666 412,-229.7 412,-229.7 412,-229.7 408.0006,-229.7666 411.9401,-226.1005 404.0011,-229.8331 404.0011,-229.8331"/>
<ellipse fill="none" stroke="#000000" cx="400.8015" cy="-229.8864" rx="3.2" ry="3.2"/>
</g>
<!-- staff_configuration -->
<g id="node11" class="node">
<title>staff_configuration</title>
<g id="a_node11"><a xlink:href="../../tables/staff_configuration.html" xlink:title="staff_configuration" target="_top">
<polygon fill="#ffffff" stroke="transparent" points="421.5,-120.2 421.5,-181.2 588.5,-181.2 588.5,-120.2 421.5,-120.2"/>
<polygon fill="#f5f5f5" stroke="transparent" points="422,-157.7 422,-180.7 589,-180.7 589,-157.7 422,-157.7"/>
<polygon fill="none" stroke="#000000" points="422,-157.7 422,-180.7 589,-180.7 589,-157.7 422,-157.7"/>
<text text-anchor="start" x="427" y="-166.3" font-family="Helvetica,sans-Serif" font-weight="bold" font-size="11.00" fill="#000000">staff_configuration</text>
<text text-anchor="start" x="554.5219" y="-165.8" font-family="Helvetica,sans-Serif" font-size="11.00" fill="#000000">[table]</text>
<polygon fill="none" stroke="#000000" points="422,-138.7 422,-157.7 589,-157.7 589,-138.7 422,-138.7"/>
<text text-anchor="start" x="425" y="-144.8" font-family="Helvetica,sans-Serif" font-size="11.00" fill="#000000">...</text>
<polygon fill="#ffffff" stroke="transparent" points="422,-119.7 422,-138.7 504,-138.7 504,-119.7 422,-119.7"/>
<polygon fill="none" stroke="#000000" points="422,-119.7 422,-138.7 504,-138.7 504,-119.7 422,-119.7"/>
<text text-anchor="start" x="425" y="-125.8" font-family="Helvetica,sans-Serif" font-size="11.00" fill="#000000">&lt; 2</text>
<polygon fill="#ffffff" stroke="transparent" points="504,-119.7 504,-138.7 546,-138.7 546,-119.7 504,-119.7"/>
<polygon fill="none" stroke="#000000" points="504,-119.7 504,-138.7 546,-138.7 546,-119.7 504,-119.7"/>
<text text-anchor="start" x="536.8862" y="-125.8" font-family="Helvetica,sans-Serif" font-size="11.00" fill="#000000"> &#160;</text>
<polygon fill="#ffffff" stroke="transparent" points="546,-119.7 546,-138.7 589,-138.7 589,-119.7 546,-119.7"/>
<polygon fill="none" stroke="#000000" points="546,-119.7 546,-138.7 589,-138.7 589,-119.7 546,-119.7"/>
<text text-anchor="start" x="579.8862" y="-125.8" font-family="Helvetica,sans-Serif" font-size="11.00" fill="#000000"> &#160;</text>
</a>
</g>
</g>
<!-- staff_configuration&#45;&gt;policy -->
<g id="edge14" class="edge">
<title>staff_configuration:w&#45;&gt;policy:e</title>
<path fill="none" stroke="#000000" d="M407.3887,-147.7904C356.892,-148.5209 333.6328,-154.4349 292,-191.7 203.1828,-271.1993 297.7,-434.7 178.5,-434.7"/>
<polygon fill="#000000" stroke="#000000" points="414.0002,-147.7495 422.0223,-151.2999 418.0001,-147.7248 422,-147.7 422,-147.7 422,-147.7 418.0001,-147.7248 421.9777,-144.1001 414.0002,-147.7495 414.0002,-147.7495"/>
<ellipse fill="none" stroke="#000000" cx="410.8002" cy="-147.7694" rx="3.2" ry="3.2"/>
</g>
<!-- staff_configuration_audit -->
<g id="node12" class="node">
<title>staff_configuration_audit</title>
<g id="a_node12"><a xlink:href="../../tables/staff_configuration_audit.html" xlink:title="staff_configuration_audit" target="_top">
<polygon fill="#ffffff" stroke="transparent" points="401,-38.2 401,-99.2 609,-99.2 609,-38.2 401,-38.2"/>
<polygon fill="#f5f5f5" stroke="transparent" points="401,-75.7 401,-98.7 609,-98.7 609,-75.7 401,-75.7"/>
<polygon fill="none" stroke="#000000" points="401,-75.7 401,-98.7 609,-98.7 609,-75.7 401,-75.7"/>
<text text-anchor="start" x="406" y="-84.3" font-family="Helvetica,sans-Serif" font-weight="bold" font-size="11.00" fill="#000000">staff_configuration_audit</text>
<text text-anchor="start" x="574.5219" y="-83.8" font-family="Helvetica,sans-Serif" font-size="11.00" fill="#000000">[table]</text>
<polygon fill="none" stroke="#000000" points="401,-56.7 401,-75.7 609,-75.7 609,-56.7 401,-56.7"/>
<text text-anchor="start" x="404" y="-62.8" font-family="Helvetica,sans-Serif" font-size="11.00" fill="#000000">...</text>
<polygon fill="#ffffff" stroke="transparent" points="401,-37.7 401,-56.7 503,-56.7 503,-37.7 401,-37.7"/>
<polygon fill="none" stroke="#000000" points="401,-37.7 401,-56.7 503,-56.7 503,-37.7 401,-37.7"/>
<text text-anchor="start" x="404" y="-43.8" font-family="Helvetica,sans-Serif" font-size="11.00" fill="#000000">&lt; 2</text>
<polygon fill="#ffffff" stroke="transparent" points="503,-37.7 503,-56.7 556,-56.7 556,-37.7 503,-37.7"/>
<polygon fill="none" stroke="#000000" points="503,-37.7 503,-56.7 556,-56.7 556,-37.7 503,-37.7"/>
<text text-anchor="start" x="546.8862" y="-43.8" font-family="Helvetica,sans-Serif" font-size="11.00" fill="#000000"> &#160;</text>
<polygon fill="#ffffff" stroke="transparent" points="556,-37.7 556,-56.7 609,-56.7 609,-37.7 556,-37.7"/>
<polygon fill="none" stroke="#000000" points="556,-37.7 556,-56.7 609,-56.7 609,-37.7 556,-37.7"/>
<text text-anchor="start" x="599.8862" y="-43.8" font-family="Helvetica,sans-Serif" font-size="11.00" fill="#000000"> &#160;</text>
</a>
</g>
</g>
<!-- staff_configuration_audit&#45;&gt;policy -->
<g id="edge15" class="edge">
<title>staff_configuration_audit:w&#45;&gt;policy:e</title>
<path fill="none" stroke="#000000" stroke-dasharray="5,2" d="M386.5531,-65.9008C344.5667,-67.2103 324.5295,-75.5814 292,-109.7 186.4225,-220.435 331.4995,-434.7 178.5,-434.7"/>
<polygon fill="#000000" stroke="#000000" points="393.0008,-65.8112 401.05,-69.2997 397.0004,-65.7556 401,-65.7 401,-65.7 401,-65.7 397.0004,-65.7556 400.95,-62.1003 393.0008,-65.8112 393.0008,-65.8112"/>
<ellipse fill="none" stroke="#000000" cx="389.8011" cy="-65.8557" rx="3.2" ry="3.2"/>
</g>
<!-- staff_role -->
<g id="node13" class="node">
<title>staff_role</title>
<g id="a_node13"><a xlink:href="../../tables/staff_role.html" xlink:title="staff_role" target="_top">
<polygon fill="#ffffff" stroke="transparent" points="454,-366.2 454,-427.2 556,-427.2 556,-366.2 454,-366.2"/>
<polygon fill="#f5f5f5" stroke="transparent" points="454,-403.7 454,-426.7 556,-426.7 556,-403.7 454,-403.7"/>
<polygon fill="none" stroke="#000000" points="454,-403.7 454,-426.7 556,-426.7 556,-403.7 454,-403.7"/>
<text text-anchor="start" x="459" y="-412.3" font-family="Helvetica,sans-Serif" font-weight="bold" font-size="11.00" fill="#000000">staff_role</text>
<text text-anchor="start" x="521.5219" y="-411.8" font-family="Helvetica,sans-Serif" font-size="11.00" fill="#000000">[table]</text>
<polygon fill="none" stroke="#000000" points="454,-384.7 454,-403.7 556,-403.7 556,-384.7 454,-384.7"/>
<text text-anchor="start" x="457" y="-390.8" font-family="Helvetica,sans-Serif" font-size="11.00" fill="#000000">...</text>
<polygon fill="#ffffff" stroke="transparent" points="454,-365.7 454,-384.7 503,-384.7 503,-365.7 454,-365.7"/>
<polygon fill="none" stroke="#000000" points="454,-365.7 454,-384.7 503,-384.7 503,-365.7 454,-365.7"/>
<text text-anchor="start" x="457" y="-371.8" font-family="Helvetica,sans-Serif" font-size="11.00" fill="#000000">&lt; 2</text>
<polygon fill="#ffffff" stroke="transparent" points="503,-365.7 503,-384.7 529,-384.7 529,-365.7 503,-365.7"/>
<polygon fill="none" stroke="#000000" points="503,-365.7 503,-384.7 529,-384.7 529,-365.7 503,-365.7"/>
<text text-anchor="start" x="519.8862" y="-371.8" font-family="Helvetica,sans-Serif" font-size="11.00" fill="#000000"> &#160;</text>
<polygon fill="#ffffff" stroke="transparent" points="529,-365.7 529,-384.7 556,-384.7 556,-365.7 529,-365.7"/>
<polygon fill="none" stroke="#000000" points="529,-365.7 529,-384.7 556,-384.7 556,-365.7 529,-365.7"/>
<text text-anchor="start" x="546.8862" y="-371.8" font-family="Helvetica,sans-Serif" font-size="11.00" fill="#000000"> &#160;</text>
</a>
</g>
</g>
<!-- staff_role&#45;&gt;policy -->
<g id="edge16" class="edge">
<title>staff_role:w&#45;&gt;policy:e</title>
<path fill="none" stroke="#000000" stroke-dasharray="5,2" d="M439.5791,-393.8919C327.818,-396.9175 297.3364,-434.7 178.5,-434.7"/>
<polygon fill="#000000" stroke="#000000" points="446.0007,-393.8065 454.0479,-397.2997 450.0004,-393.7533 454,-393.7 454,-393.7 454,-393.7 450.0004,-393.7533 453.9521,-390.1003 446.0007,-393.8065 446.0007,-393.8065"/>
<ellipse fill="none" stroke="#000000" cx="442.801" cy="-393.8491" rx="3.2" ry="3.2"/>
</g>
<!-- staff_role&#45;&gt;prison_migration_date_history -->
<g id="edge17" class="edge">
<title>staff_role:w&#45;&gt;prison_migration_date_history:e</title>
<path fill="none" stroke="#000000" stroke-dasharray="5,2" d="M439.5943,-393.5548C374.1685,-392.3069 337.1631,-384.672 292,-437.7 236.5069,-502.8569 337.0856,-820.7 251.5,-820.7"/>
<polygon fill="#000000" stroke="#000000" points="446.0004,-393.6193 453.9637,-397.2998 450.0002,-393.6597 454,-393.7 454,-393.7 454,-393.7 450.0002,-393.6597 454.0363,-390.1002 446.0004,-393.6193 446.0004,-393.6193"/>
<ellipse fill="none" stroke="#000000" cx="442.8006" cy="-393.587" rx="3.2" ry="3.2"/>
</g>
<!-- staff_role_audit -->
<g id="node14" class="node">
<title>staff_role_audit</title>
<g id="a_node14"><a xlink:href="../../tables/staff_role_audit.html" xlink:title="staff_role_audit" target="_top">
<polygon fill="#ffffff" stroke="transparent" points="433.5,-284.2 433.5,-345.2 576.5,-345.2 576.5,-284.2 433.5,-284.2"/>
<polygon fill="#f5f5f5" stroke="transparent" points="434,-321.7 434,-344.7 577,-344.7 577,-321.7 434,-321.7"/>
<polygon fill="none" stroke="#000000" points="434,-321.7 434,-344.7 577,-344.7 577,-321.7 434,-321.7"/>
<text text-anchor="start" x="439" y="-330.3" font-family="Helvetica,sans-Serif" font-weight="bold" font-size="11.00" fill="#000000">staff_role_audit</text>
<text text-anchor="start" x="542.5219" y="-329.8" font-family="Helvetica,sans-Serif" font-size="11.00" fill="#000000">[table]</text>
<polygon fill="none" stroke="#000000" points="434,-302.7 434,-321.7 577,-321.7 577,-302.7 434,-302.7"/>
<text text-anchor="start" x="437" y="-308.8" font-family="Helvetica,sans-Serif" font-size="11.00" fill="#000000">...</text>
<polygon fill="#ffffff" stroke="transparent" points="434,-283.7 434,-302.7 504,-302.7 504,-283.7 434,-283.7"/>
<polygon fill="none" stroke="#000000" points="434,-283.7 434,-302.7 504,-302.7 504,-283.7 434,-283.7"/>
<text text-anchor="start" x="437" y="-289.8" font-family="Helvetica,sans-Serif" font-size="11.00" fill="#000000">&lt; 3</text>
<polygon fill="#ffffff" stroke="transparent" points="504,-283.7 504,-302.7 540,-302.7 540,-283.7 504,-283.7"/>
<polygon fill="none" stroke="#000000" points="504,-283.7 504,-302.7 540,-302.7 540,-283.7 504,-283.7"/>
<text text-anchor="start" x="530.8862" y="-289.8" font-family="Helvetica,sans-Serif" font-size="11.00" fill="#000000"> &#160;</text>
<polygon fill="#ffffff" stroke="transparent" points="540,-283.7 540,-302.7 577,-302.7 577,-283.7 540,-283.7"/>
<polygon fill="none" stroke="#000000" points="540,-283.7 540,-302.7 577,-302.7 577,-283.7 540,-283.7"/>
<text text-anchor="start" x="567.8862" y="-289.8" font-family="Helvetica,sans-Serif" font-size="11.00" fill="#000000"> &#160;</text>
</a>
</g>
</g>
<!-- staff_role_audit&#45;&gt;policy -->
<g id="edge18" class="edge">
<title>staff_role_audit:w&#45;&gt;policy:e</title>
<path fill="none" stroke="#000000" stroke-dasharray="5,2" d="M419.3771,-311.9743C365.0801,-314.1303 346.7323,-328.9726 292,-355.7 236.7724,-382.6693 239.9608,-434.7 178.5,-434.7"/>
<polygon fill="#000000" stroke="#000000" points="426.0014,-311.8501 434.0675,-315.2994 430.0007,-311.775 434,-311.7 434,-311.7 434,-311.7 430.0007,-311.775 433.9325,-308.1006 426.0014,-311.8501 426.0014,-311.8501"/>
<ellipse fill="none" stroke="#000000" cx="422.802" cy="-311.9101" rx="3.2" ry="3.2"/>
</g>
<!-- staff_role_audit&#45;&gt;prison_migration_date_history -->
<g id="edge19" class="edge">
<title>staff_role_audit:w&#45;&gt;prison_migration_date_history:e</title>
<path fill="none" stroke="#000000" stroke-dasharray="5,2" d="M419.4349,-311.5999C362.6388,-310.9091 330.3141,-308.1843 292,-355.7 259.4459,-396.0724 303.3623,-820.7 251.5,-820.7"/>
<polygon fill="#000000" stroke="#000000" points="426.0002,-311.645 433.9752,-315.2999 430.0001,-311.6725 434,-311.7 434,-311.7 434,-311.7 430.0001,-311.6725 434.0248,-308.1001 426.0002,-311.645 426.0002,-311.645"/>
<ellipse fill="none" stroke="#000000" cx="422.8003" cy="-311.623" rx="3.2" ry="3.2"/>
</g>
</g>
</svg>
