<?xml version="1.0" encoding="UTF-8" standalone="no"?>
<!DOCTYPE svg PUBLIC "-//W3C//DTD SVG 1.1//EN"
 "http://www.w3.org/Graphics/SVG/1.1/DTD/svg11.dtd">
<!-- Generated by graphviz version 2.40.1 (20161225.0304)
 -->
<!-- Title: oneDegreeRelationshipsDiagramImplied Pages: 1 -->
<svg width="687pt" height="400pt"
 viewBox="0.00 0.00 687.00 399.70" xmlns="http://www.w3.org/2000/svg" xmlns:xlink="http://www.w3.org/1999/xlink">
<g id="graph0" class="graph" transform="scale(1 1) rotate(0) translate(4 395.7)">
<title>oneDegreeRelationshipsDiagramImplied</title>
<polygon fill="#ffffff" stroke="transparent" points="-4,4 -4,-395.7 683,-395.7 683,4 -4,4"/>
<text text-anchor="middle" x="72.4936" y="-7.3" font-family="Helvetica,sans-Serif" font-size="11.00" fill="#000000">Generated by SchemaSpy</text>
<!-- keyworker_stats -->
<g id="node1" class="node">
<title>keyworker_stats</title>
<g id="a_node1"><a xlink:href="../../tables/keyworker_stats.html" xlink:title="keyworker_stats" target="_top">
<polygon fill="#ffffff" stroke="transparent" points="457,-260.7 457,-387.7 671,-387.7 671,-260.7 457,-260.7"/>
<polygon fill="#f5f5f5" stroke="transparent" points="457,-364.2 457,-387.2 671,-387.2 671,-364.2 457,-364.2"/>
<polygon fill="none" stroke="#000000" points="457,-364.2 457,-387.2 671,-387.2 671,-364.2 457,-364.2"/>
<text text-anchor="start" x="462" y="-372.8" font-family="Helvetica,sans-Serif" font-weight="bold" font-size="11.00" fill="#000000">keyworker_stats</text>
<text text-anchor="start" x="636.0437" y="-372.3" font-family="Helvetica,sans-Serif" font-size="11.00" fill="#000000">[table]</text>
<polygon fill="none" stroke="#000000" points="457,-342.2 457,-364.2 671,-364.2 671,-342.2 457,-342.2"/>
<image xlink:href="../../images/primaryKeys.png" width="11px" height="12px" preserveAspectRatio="xMinYMin meet" x="462" y="-359.2"/>
<text text-anchor="start" x="477" y="-349.3" font-family="Helvetica,sans-Serif" font-size="11.00" fill="#000000">keyworker_stats_id</text>
<polygon fill="#ffffff" stroke="transparent" points="457,-320.2 457,-342.2 671,-342.2 671,-320.2 457,-320.2"/>
<polygon fill="none" stroke="#000000" points="457,-320.2 457,-342.2 671,-342.2 671,-320.2 457,-320.2"/>
<image xlink:href="../../images/foreignKeys.png" width="11px" height="12px" preserveAspectRatio="xMinYMin meet" x="462" y="-337.2"/>
<text text-anchor="start" x="477" y="-327.3" font-family="Helvetica,sans-Serif" font-size="11.00" fill="#000000">prison_id</text>
<polygon fill="#ffffff" stroke="transparent" points="457,-298.2 457,-320.2 671,-320.2 671,-298.2 457,-298.2"/>
<polygon fill="none" stroke="#000000" points="457,-298.2 457,-320.2 671,-320.2 671,-298.2 457,-298.2"/>
<text text-anchor="start" x="477" y="-305.3" font-family="Helvetica,sans-Serif" font-size="11.00" fill="#000000">snapshot_date</text>
<polygon fill="none" stroke="#000000" points="457,-279.2 457,-298.2 671,-298.2 671,-279.2 457,-279.2"/>
<text text-anchor="start" x="460" y="-285.3" font-family="Helvetica,sans-Serif" font-size="11.00" fill="#000000">...</text>
<polygon fill="#ffffff" stroke="transparent" points="457,-260.2 457,-279.2 562,-279.2 562,-260.2 457,-260.2"/>
<polygon fill="none" stroke="#000000" points="457,-260.2 457,-279.2 562,-279.2 562,-260.2 457,-260.2"/>
<text text-anchor="start" x="460" y="-266.3" font-family="Helvetica,sans-Serif" font-size="11.00" fill="#000000">&lt; 1</text>
<polygon fill="#ffffff" stroke="transparent" points="562,-260.2 562,-279.2 616,-279.2 616,-260.2 562,-260.2"/>
<polygon fill="none" stroke="#000000" points="562,-260.2 562,-279.2 616,-279.2 616,-260.2 562,-260.2"/>
<text text-anchor="start" x="606.8862" y="-266.3" font-family="Helvetica,sans-Serif" font-size="11.00" fill="#000000"> &#160;</text>
<polygon fill="#ffffff" stroke="transparent" points="616,-260.2 616,-279.2 671,-279.2 671,-260.2 616,-260.2"/>
<polygon fill="none" stroke="#000000" points="616,-260.2 616,-279.2 671,-279.2 671,-260.2 616,-260.2"/>
<text text-anchor="start" x="661.8862" y="-266.3" font-family="Helvetica,sans-Serif" font-size="11.00" fill="#000000"> &#160;</text>
</a>
</g>
</g>
<!-- prison_supported -->
<g id="node2" class="node">
<title>prison_supported</title>
<g id="a_node2"><a xlink:href="../../tables/prison_supported.html" xlink:title="prison_supported" target="_top">
<polygon fill="#ffffff" stroke="transparent" points="8,-38.2 8,-260.2 408,-260.2 408,-38.2 8,-38.2"/>
<polygon fill="#f5f5f5" stroke="transparent" points="10,-235.2 10,-258.2 406,-258.2 406,-235.2 10,-235.2"/>
<polygon fill="none" stroke="#000000" points="10,-235.2 10,-258.2 406,-258.2 406,-235.2 10,-235.2"/>
<text text-anchor="start" x="15" y="-243.8" font-family="Helvetica,sans-Serif" font-weight="bold" font-size="11.00" fill="#000000">prison_supported</text>
<text text-anchor="start" x="371.0437" y="-243.3" font-family="Helvetica,sans-Serif" font-size="11.00" fill="#000000">[table]</text>
<polygon fill="none" stroke="#000000" points="10,-213.2 10,-235.2 322,-235.2 322,-213.2 10,-213.2"/>
<image xlink:href="../../images/primaryKeys.png" width="11px" height="12px" preserveAspectRatio="xMinYMin meet" x="15" y="-230.2"/>
<text text-anchor="start" x="30" y="-220.3" font-family="Helvetica,sans-Serif" font-size="11.00" fill="#000000">prison_id</text>
<polygon fill="none" stroke="#000000" points="322,-213.2 322,-235.2 406,-235.2 406,-213.2 322,-213.2"/>
<text text-anchor="start" x="325" y="-220.9" font-family="Helvetica,sans-Serif" font-size="11.00" fill="#000000">varchar[6]</text>
<polygon fill="none" stroke="#000000" points="10,-191.2 10,-213.2 322,-213.2 322,-191.2 10,-191.2"/>
<text text-anchor="start" x="30" y="-198.3" font-family="Helvetica,sans-Serif" font-size="11.00" fill="#000000">auto_allocate</text>
<polygon fill="none" stroke="#000000" points="322,-191.2 322,-213.2 406,-213.2 406,-191.2 322,-191.2"/>
<text text-anchor="start" x="325" y="-198.9" font-family="Helvetica,sans-Serif" font-size="11.00" fill="#000000">bool[1]</text>
<polygon fill="none" stroke="#000000" points="10,-169.2 10,-191.2 322,-191.2 322,-169.2 10,-169.2"/>
<text text-anchor="start" x="30" y="-176.3" font-family="Helvetica,sans-Serif" font-size="11.00" fill="#000000">migrated</text>
<polygon fill="none" stroke="#000000" points="322,-169.2 322,-191.2 406,-191.2 406,-169.2 322,-169.2"/>
<text text-anchor="start" x="325" y="-176.9" font-family="Helvetica,sans-Serif" font-size="11.00" fill="#000000">bool[1]</text>
<polygon fill="none" stroke="#000000" points="10,-147.2 10,-169.2 322,-169.2 322,-147.2 10,-147.2"/>
<text text-anchor="start" x="30" y="-154.3" font-family="Helvetica,sans-Serif" font-size="11.00" fill="#000000">migrated_date_time</text>
<polygon fill="none" stroke="#000000" points="322,-147.2 322,-169.2 406,-169.2 406,-147.2 322,-147.2"/>
<text text-anchor="start" x="324.8807" y="-154.9" font-family="Helvetica,sans-Serif" font-size="11.00" fill="#000000">timestamp[29,6]</text>
<polygon fill="none" stroke="#000000" points="10,-125.2 10,-147.2 322,-147.2 322,-125.2 10,-125.2"/>
<text text-anchor="start" x="30" y="-132.3" font-family="Helvetica,sans-Serif" font-size="11.00" fill="#000000">capacity_tier_1</text>
<polygon fill="none" stroke="#000000" points="322,-125.2 322,-147.2 406,-147.2 406,-125.2 322,-125.2"/>
<text text-anchor="start" x="325" y="-132.9" font-family="Helvetica,sans-Serif" font-size="11.00" fill="#000000">int4[10]</text>
<polygon fill="none" stroke="#000000" points="10,-103.2 10,-125.2 322,-125.2 322,-103.2 10,-103.2"/>
<text text-anchor="start" x="30" y="-110.3" font-family="Helvetica,sans-Serif" font-size="11.00" fill="#000000">capacity_tier_2</text>
<polygon fill="none" stroke="#000000" points="322,-103.2 322,-125.2 406,-125.2 406,-103.2 322,-103.2"/>
<text text-anchor="start" x="325" y="-110.9" font-family="Helvetica,sans-Serif" font-size="11.00" fill="#000000">int4[10]</text>
<polygon fill="none" stroke="#000000" points="10,-81.2 10,-103.2 322,-103.2 322,-81.2 10,-81.2"/>
<text text-anchor="start" x="30" y="-88.3" font-family="Helvetica,sans-Serif" font-size="11.00" fill="#000000">kw_session_freq_weeks</text>
<polygon fill="none" stroke="#000000" points="322,-81.2 322,-103.2 406,-103.2 406,-81.2 322,-81.2"/>
<text text-anchor="start" x="325" y="-88.9" font-family="Helvetica,sans-Serif" font-size="11.00" fill="#000000">int4[10]</text>
<polygon fill="none" stroke="#000000" points="10,-59.2 10,-81.2 322,-81.2 322,-59.2 10,-59.2"/>
<text text-anchor="start" x="30" y="-66.3" font-family="Helvetica,sans-Serif" font-size="11.00" fill="#000000">has_prisoners_with_high_complexity_needs</text>
<polygon fill="none" stroke="#000000" points="322,-59.2 322,-81.2 406,-81.2 406,-59.2 322,-59.2"/>
<text text-anchor="start" x="325" y="-66.9" font-family="Helvetica,sans-Serif" font-size="11.00" fill="#000000">bool[1]</text>
<polygon fill="#ffffff" stroke="transparent" points="10,-40.2 10,-59.2 170,-59.2 170,-40.2 10,-40.2"/>
<polygon fill="none" stroke="#000000" points="10,-40.2 10,-59.2 170,-59.2 170,-40.2 10,-40.2"/>
<text text-anchor="start" x="13" y="-46.3" font-family="Helvetica,sans-Serif" font-size="11.00" fill="#000000">&lt; 0</text>
<polygon fill="#ffffff" stroke="transparent" points="170,-40.2 170,-59.2 322,-59.2 322,-40.2 170,-40.2"/>
<polygon fill="none" stroke="#000000" points="170,-40.2 170,-59.2 322,-59.2 322,-40.2 170,-40.2"/>
<text text-anchor="start" x="312.8862" y="-46.3" font-family="Helvetica,sans-Serif" font-size="11.00" fill="#000000"> &#160;</text>
<polygon fill="#ffffff" stroke="transparent" points="322,-40.2 322,-59.2 406,-59.2 406,-40.2 322,-40.2"/>
<polygon fill="none" stroke="#000000" points="322,-40.2 322,-59.2 406,-59.2 406,-40.2 322,-40.2"/>
<text text-anchor="start" x="387.4053" y="-46.3" font-family="Helvetica,sans-Serif" font-size="11.00" fill="#000000">2 &gt;</text>
<polygon fill="none" stroke="#000000" stroke-width="2" points="9,-39.2 9,-259.2 407,-259.2 407,-39.2 9,-39.2"/>
</a>
</g>
</g>
<!-- keyworker_stats&#45;&gt;prison_supported -->
<g id="edge1" class="edge">
<title>keyworker_stats:w&#45;&gt;prison_supported:e</title>
<path fill="none" stroke="#000000" stroke-dasharray="5,2" d="M442.9064,-327.3918C415.2616,-308.3309 452.7134,-224.2 406,-224.2"/>
<polygon fill="#000000" stroke="#000000" points="449.277,-329.1131 456.0609,-334.6754 453.1385,-330.1566 457,-331.2 457,-331.2 457,-331.2 453.1385,-330.1566 457.9391,-327.7246 449.277,-329.1131 449.277,-329.1131"/>
<ellipse fill="none" stroke="#000000" cx="446.1878" cy="-328.2784" rx="3.2" ry="3.2"/>
</g>
<!-- offender_key_worker -->
<g id="node3" class="node">
<title>offender_key_worker</title>
<g id="a_node3"><a xlink:href="../../tables/offender_key_worker.html" xlink:title="offender_key_worker" target="_top">
<polygon fill="#ffffff" stroke="transparent" points="474,-68.7 474,-239.7 654,-239.7 654,-68.7 474,-68.7"/>
<polygon fill="#f5f5f5" stroke="transparent" points="474,-216.2 474,-239.2 654,-239.2 654,-216.2 474,-216.2"/>
<polygon fill="none" stroke="#000000" points="474,-216.2 474,-239.2 654,-239.2 654,-216.2 474,-216.2"/>
<text text-anchor="start" x="479" y="-224.8" font-family="Helvetica,sans-Serif" font-weight="bold" font-size="11.00" fill="#000000">offender_key_worker</text>
<text text-anchor="start" x="619.5219" y="-224.3" font-family="Helvetica,sans-Serif" font-size="11.00" fill="#000000">[table]</text>
<polygon fill="none" stroke="#000000" points="474,-194.2 474,-216.2 654,-216.2 654,-194.2 474,-194.2"/>
<image xlink:href="../../images/primaryKeys.png" width="11px" height="12px" preserveAspectRatio="xMinYMin meet" x="479" y="-211.2"/>
<text text-anchor="start" x="497" y="-201.3" font-family="Helvetica,sans-Serif" font-size="11.00" fill="#000000">offender_keyworker_id</text>
<polygon fill="#ffffff" stroke="transparent" points="474,-172.2 474,-194.2 654,-194.2 654,-172.2 474,-172.2"/>
<polygon fill="none" stroke="#000000" points="474,-172.2 474,-194.2 654,-194.2 654,-172.2 474,-172.2"/>
<text text-anchor="start" x="497" y="-179.3" font-family="Helvetica,sans-Serif" font-size="11.00" fill="#000000">offender_no</text>
<polygon fill="#ffffff" stroke="transparent" points="474,-150.2 474,-172.2 654,-172.2 654,-150.2 474,-150.2"/>
<polygon fill="none" stroke="#000000" points="474,-150.2 474,-172.2 654,-172.2 654,-150.2 474,-150.2"/>
<text text-anchor="start" x="497" y="-157.3" font-family="Helvetica,sans-Serif" font-size="11.00" fill="#000000">staff_id</text>
<polygon fill="#ffffff" stroke="transparent" points="474,-128.2 474,-150.2 654,-150.2 654,-128.2 474,-128.2"/>
<polygon fill="none" stroke="#000000" points="474,-128.2 474,-150.2 654,-150.2 654,-128.2 474,-128.2"/>
<text text-anchor="start" x="497" y="-135.3" font-family="Helvetica,sans-Serif" font-size="11.00" fill="#000000">assigned_date_time</text>
<polygon fill="#ffffff" stroke="transparent" points="474,-106.2 474,-128.2 654,-128.2 654,-106.2 474,-106.2"/>
<polygon fill="none" stroke="#000000" points="474,-106.2 474,-128.2 654,-128.2 654,-106.2 474,-106.2"/>
<image xlink:href="../../images/foreignKeys.png" width="11px" height="12px" preserveAspectRatio="xMinYMin meet" x="479" y="-123.2"/>
<text text-anchor="start" x="497" y="-113.3" font-family="Helvetica,sans-Serif" font-size="11.00" fill="#000000">prison_id</text>
<polygon fill="none" stroke="#000000" points="474,-87.2 474,-106.2 654,-106.2 654,-87.2 474,-87.2"/>
<text text-anchor="start" x="477" y="-93.3" font-family="Helvetica,sans-Serif" font-size="11.00" fill="#000000">...</text>
<polygon fill="#ffffff" stroke="transparent" points="474,-68.2 474,-87.2 562,-87.2 562,-68.2 474,-68.2"/>
<polygon fill="none" stroke="#000000" points="474,-68.2 474,-87.2 562,-87.2 562,-68.2 474,-68.2"/>
<text text-anchor="start" x="477" y="-74.3" font-family="Helvetica,sans-Serif" font-size="11.00" fill="#000000">&lt; 1</text>
<polygon fill="#ffffff" stroke="transparent" points="562,-68.2 562,-87.2 608,-87.2 608,-68.2 562,-68.2"/>
<polygon fill="none" stroke="#000000" points="562,-68.2 562,-87.2 608,-87.2 608,-68.2 562,-68.2"/>
<text text-anchor="start" x="598.8862" y="-74.3" font-family="Helvetica,sans-Serif" font-size="11.00" fill="#000000"> &#160;</text>
<polygon fill="#ffffff" stroke="transparent" points="608,-68.2 608,-87.2 654,-87.2 654,-68.2 608,-68.2"/>
<polygon fill="none" stroke="#000000" points="608,-68.2 608,-87.2 654,-87.2 654,-68.2 608,-68.2"/>
<text text-anchor="start" x="644.8862" y="-74.3" font-family="Helvetica,sans-Serif" font-size="11.00" fill="#000000"> &#160;</text>
</a>
</g>
</g>
<!-- offender_key_worker&#45;&gt;prison_supported -->
<g id="edge2" class="edge">
<title>offender_key_worker:w&#45;&gt;prison_supported:e</title>
<path fill="none" stroke="#000000" stroke-dasharray="5,2" d="M459.7469,-120.2869C425.6896,-137.8307 456.6237,-224.2 406,-224.2"/>
<polygon fill="#000000" stroke="#000000" points="466.1813,-118.8934 474.762,-120.7184 470.0906,-118.0467 474,-117.2 474,-117.2 474,-117.2 470.0906,-118.0467 473.238,-113.6816 466.1813,-118.8934 466.1813,-118.8934"/>
<ellipse fill="none" stroke="#000000" cx="463.0538" cy="-119.5708" rx="3.2" ry="3.2"/>
</g>
</g>
</svg>
