<?xml version="1.0" encoding="UTF-8" standalone="no"?>
<!DOCTYPE svg PUBLIC "-//W3C//DTD SVG 1.1//EN"
 "http://www.w3.org/Graphics/SVG/1.1/DTD/svg11.dtd">
<!-- Generated by graphviz version 2.40.1 (20161225.0304)
 -->
<!-- Title: twoDegreesRelationshipsDiagramImplied Pages: 1 -->
<svg width="554pt" height="1323pt"
 viewBox="0.00 0.00 554.00 1323.20" xmlns="http://www.w3.org/2000/svg" xmlns:xlink="http://www.w3.org/1999/xlink">
<g id="graph0" class="graph" transform="scale(1 1) rotate(0) translate(4 1319.2)">
<title>twoDegreesRelationshipsDiagramImplied</title>
<polygon fill="#ffffff" stroke="transparent" points="-4,4 -4,-1319.2 550,-1319.2 550,4 -4,4"/>
<text text-anchor="middle" x="72.4936" y="-7.3" font-family="Helvetica,sans-Serif" font-size="11.00" fill="#000000">Generated by SchemaSpy</text>
<!-- allocation -->
<g id="node1" class="node">
<title>allocation</title>
<g id="a_node1"><a xlink:href="../../tables/allocation.html" xlink:title="allocation" target="_top">
<polygon fill="#ffffff" stroke="transparent" points="293.5,-1250.2 293.5,-1311.2 398.5,-1311.2 398.5,-1250.2 293.5,-1250.2"/>
<polygon fill="#f5f5f5" stroke="transparent" points="294,-1287.7 294,-1310.7 399,-1310.7 399,-1287.7 294,-1287.7"/>
<polygon fill="none" stroke="#000000" points="294,-1287.7 294,-1310.7 399,-1310.7 399,-1287.7 294,-1287.7"/>
<text text-anchor="start" x="299" y="-1296.3" font-family="Helvetica,sans-Serif" font-weight="bold" font-size="11.00" fill="#000000">allocation</text>
<text text-anchor="start" x="364.5219" y="-1295.8" font-family="Helvetica,sans-Serif" font-size="11.00" fill="#000000">[table]</text>
<polygon fill="none" stroke="#000000" points="294,-1268.7 294,-1287.7 399,-1287.7 399,-1268.7 294,-1268.7"/>
<text text-anchor="start" x="297" y="-1274.8" font-family="Helvetica,sans-Serif" font-size="11.00" fill="#000000">...</text>
<polygon fill="#ffffff" stroke="transparent" points="294,-1249.7 294,-1268.7 345,-1268.7 345,-1249.7 294,-1249.7"/>
<polygon fill="none" stroke="#000000" points="294,-1249.7 294,-1268.7 345,-1268.7 345,-1249.7 294,-1249.7"/>
<text text-anchor="start" x="297" y="-1255.8" font-family="Helvetica,sans-Serif" font-size="11.00" fill="#000000">&lt; 3</text>
<polygon fill="#ffffff" stroke="transparent" points="345,-1249.7 345,-1268.7 372,-1268.7 372,-1249.7 345,-1249.7"/>
<polygon fill="none" stroke="#000000" points="345,-1249.7 345,-1268.7 372,-1268.7 372,-1249.7 345,-1249.7"/>
<text text-anchor="start" x="362.8862" y="-1255.8" font-family="Helvetica,sans-Serif" font-size="11.00" fill="#000000"> &#160;</text>
<polygon fill="#ffffff" stroke="transparent" points="372,-1249.7 372,-1268.7 399,-1268.7 399,-1249.7 372,-1249.7"/>
<polygon fill="none" stroke="#000000" points="372,-1249.7 372,-1268.7 399,-1268.7 399,-1249.7 372,-1249.7"/>
<text text-anchor="start" x="389.8862" y="-1255.8" font-family="Helvetica,sans-Serif" font-size="11.00" fill="#000000"> &#160;</text>
</a>
</g>
</g>
<!-- policy -->
<g id="node2" class="node">
<title>policy</title>
<g id="a_node2"><a xlink:href="../../tables/policy.html" xlink:title="policy" target="_top">
<polygon fill="#ffffff" stroke="transparent" points="8,-509.2 8,-592.2 105,-592.2 105,-509.2 8,-509.2"/>
<polygon fill="#f5f5f5" stroke="transparent" points="8.5,-568.7 8.5,-591.7 105.5,-591.7 105.5,-568.7 8.5,-568.7"/>
<polygon fill="none" stroke="#000000" points="8.5,-568.7 8.5,-591.7 105.5,-591.7 105.5,-568.7 8.5,-568.7"/>
<text text-anchor="start" x="13.5" y="-577.3" font-family="Helvetica,sans-Serif" font-weight="bold" font-size="11.00" fill="#000000">policy</text>
<text text-anchor="start" x="70.5437" y="-576.8" font-family="Helvetica,sans-Serif" font-size="11.00" fill="#000000">[table]</text>
<polygon fill="none" stroke="#000000" points="8.5,-546.7 8.5,-568.7 105.5,-568.7 105.5,-546.7 8.5,-546.7"/>
<image xlink:href="../../images/primaryKeys.png" width="11px" height="12px" preserveAspectRatio="xMinYMin meet" x="13.5" y="-563.7"/>
<text text-anchor="start" x="28.5" y="-553.8" font-family="Helvetica,sans-Serif" font-size="11.00" fill="#000000">code</text>
<polygon fill="none" stroke="#000000" points="8.5,-527.7 8.5,-546.7 105.5,-546.7 105.5,-527.7 8.5,-527.7"/>
<text text-anchor="start" x="11.5" y="-533.8" font-family="Helvetica,sans-Serif" font-size="11.00" fill="#000000">...</text>
<polygon fill="#ffffff" stroke="transparent" points="8.5,-508.7 8.5,-527.7 43.5,-527.7 43.5,-508.7 8.5,-508.7"/>
<polygon fill="none" stroke="#000000" points="8.5,-508.7 8.5,-527.7 43.5,-527.7 43.5,-508.7 8.5,-508.7"/>
<text text-anchor="start" x="11.5" y="-514.8" font-family="Helvetica,sans-Serif" font-size="11.00" fill="#000000"> &#160;</text>
<polygon fill="#ffffff" stroke="transparent" points="43.5,-508.7 43.5,-527.7 66.5,-527.7 66.5,-508.7 43.5,-508.7"/>
<polygon fill="none" stroke="#000000" points="43.5,-508.7 43.5,-527.7 66.5,-527.7 66.5,-508.7 43.5,-508.7"/>
<text text-anchor="start" x="57.3862" y="-514.8" font-family="Helvetica,sans-Serif" font-size="11.00" fill="#000000"> &#160;</text>
<polygon fill="#ffffff" stroke="transparent" points="66.5,-508.7 66.5,-527.7 105.5,-527.7 105.5,-508.7 66.5,-508.7"/>
<polygon fill="none" stroke="#000000" points="66.5,-508.7 66.5,-527.7 105.5,-527.7 105.5,-508.7 66.5,-508.7"/>
<text text-anchor="start" x="80.7904" y="-514.8" font-family="Helvetica,sans-Serif" font-size="11.00" fill="#000000">13 &gt;</text>
</a>
</g>
</g>
<!-- allocation&#45;&gt;policy -->
<g id="edge1" class="edge">
<title>allocation:w&#45;&gt;policy:e</title>
<path fill="none" stroke="#000000" d="M279.3765,-1277.9048C220.5777,-1279.4699 185.9902,-1288.2134 146,-1239.7 97.7153,-1181.1243 181.4113,-557.7 105.5,-557.7"/>
<polygon fill="#000000" stroke="#000000" points="286.0008,-1277.8121 294.0504,-1281.2996 290.0004,-1277.756 294,-1277.7 294,-1277.7 294,-1277.7 290.0004,-1277.756 293.9496,-1274.1004 286.0008,-1277.8121 286.0008,-1277.8121"/>
<ellipse fill="none" stroke="#000000" cx="282.8011" cy="-1277.8569" rx="3.2" ry="3.2"/>
</g>
<!-- allocation_audit -->
<g id="node3" class="node">
<title>allocation_audit</title>
<g id="a_node3"><a xlink:href="../../tables/allocation_audit.html" xlink:title="allocation_audit" target="_top">
<polygon fill="#ffffff" stroke="transparent" points="273,-1168.2 273,-1229.2 419,-1229.2 419,-1168.2 273,-1168.2"/>
<polygon fill="#f5f5f5" stroke="transparent" points="273,-1205.7 273,-1228.7 419,-1228.7 419,-1205.7 273,-1205.7"/>
<polygon fill="none" stroke="#000000" points="273,-1205.7 273,-1228.7 419,-1228.7 419,-1205.7 273,-1205.7"/>
<text text-anchor="start" x="278" y="-1214.3" font-family="Helvetica,sans-Serif" font-weight="bold" font-size="11.00" fill="#000000">allocation_audit</text>
<text text-anchor="start" x="384.5219" y="-1213.8" font-family="Helvetica,sans-Serif" font-size="11.00" fill="#000000">[table]</text>
<polygon fill="none" stroke="#000000" points="273,-1186.7 273,-1205.7 419,-1205.7 419,-1186.7 273,-1186.7"/>
<text text-anchor="start" x="276" y="-1192.8" font-family="Helvetica,sans-Serif" font-size="11.00" fill="#000000">...</text>
<polygon fill="#ffffff" stroke="transparent" points="273,-1167.7 273,-1186.7 344,-1186.7 344,-1167.7 273,-1167.7"/>
<polygon fill="none" stroke="#000000" points="273,-1167.7 273,-1186.7 344,-1186.7 344,-1167.7 273,-1167.7"/>
<text text-anchor="start" x="276" y="-1173.8" font-family="Helvetica,sans-Serif" font-size="11.00" fill="#000000">&lt; 2</text>
<polygon fill="#ffffff" stroke="transparent" points="344,-1167.7 344,-1186.7 381,-1186.7 381,-1167.7 344,-1167.7"/>
<polygon fill="none" stroke="#000000" points="344,-1167.7 344,-1186.7 381,-1186.7 381,-1167.7 344,-1167.7"/>
<text text-anchor="start" x="371.8862" y="-1173.8" font-family="Helvetica,sans-Serif" font-size="11.00" fill="#000000"> &#160;</text>
<polygon fill="#ffffff" stroke="transparent" points="381,-1167.7 381,-1186.7 419,-1186.7 419,-1167.7 381,-1167.7"/>
<polygon fill="none" stroke="#000000" points="381,-1167.7 381,-1186.7 419,-1186.7 419,-1167.7 381,-1167.7"/>
<text text-anchor="start" x="409.8862" y="-1173.8" font-family="Helvetica,sans-Serif" font-size="11.00" fill="#000000"> &#160;</text>
</a>
</g>
</g>
<!-- allocation_audit&#45;&gt;policy -->
<g id="edge2" class="edge">
<title>allocation_audit:w&#45;&gt;policy:e</title>
<path fill="none" stroke="#000000" stroke-dasharray="5,2" d="M258.4008,-1195.8388C208.659,-1196.683 179.5997,-1199.7867 146,-1157.7 104.3117,-1105.4814 172.3184,-557.7 105.5,-557.7"/>
<polygon fill="#000000" stroke="#000000" points="265.0004,-1195.7761 273.0342,-1199.2998 269.0002,-1195.738 273,-1195.7 273,-1195.7 273,-1195.7 269.0002,-1195.738 272.9658,-1192.1002 265.0004,-1195.7761 265.0004,-1195.7761"/>
<ellipse fill="none" stroke="#000000" cx="261.8005" cy="-1195.8065" rx="3.2" ry="3.2"/>
</g>
<!-- case_note_type_recorded_event_type -->
<g id="node4" class="node">
<title>case_note_type_recorded_event_type</title>
<g id="a_node4"><a xlink:href="../../tables/case_note_type_recorded_event_type.html" xlink:title="case_note_type_recorded_event_type" target="_top">
<polygon fill="#ffffff" stroke="transparent" points="201.5,-1086.2 201.5,-1147.2 490.5,-1147.2 490.5,-1086.2 201.5,-1086.2"/>
<polygon fill="#f5f5f5" stroke="transparent" points="202,-1123.7 202,-1146.7 491,-1146.7 491,-1123.7 202,-1123.7"/>
<polygon fill="none" stroke="#000000" points="202,-1123.7 202,-1146.7 491,-1146.7 491,-1123.7 202,-1123.7"/>
<text text-anchor="start" x="207" y="-1132.3" font-family="Helvetica,sans-Serif" font-weight="bold" font-size="11.00" fill="#000000">case_note_type_recorded_event_type</text>
<text text-anchor="start" x="456.5219" y="-1131.8" font-family="Helvetica,sans-Serif" font-size="11.00" fill="#000000">[table]</text>
<polygon fill="none" stroke="#000000" points="202,-1104.7 202,-1123.7 491,-1123.7 491,-1104.7 202,-1104.7"/>
<text text-anchor="start" x="205" y="-1110.8" font-family="Helvetica,sans-Serif" font-size="11.00" fill="#000000">...</text>
<polygon fill="#ffffff" stroke="transparent" points="202,-1085.7 202,-1104.7 345,-1104.7 345,-1085.7 202,-1085.7"/>
<polygon fill="none" stroke="#000000" points="202,-1085.7 202,-1104.7 345,-1104.7 345,-1085.7 202,-1085.7"/>
<text text-anchor="start" x="205" y="-1091.8" font-family="Helvetica,sans-Serif" font-size="11.00" fill="#000000">&lt; 1</text>
<polygon fill="#ffffff" stroke="transparent" points="345,-1085.7 345,-1104.7 418,-1104.7 418,-1085.7 345,-1085.7"/>
<polygon fill="none" stroke="#000000" points="345,-1085.7 345,-1104.7 418,-1104.7 418,-1085.7 345,-1085.7"/>
<text text-anchor="start" x="408.8862" y="-1091.8" font-family="Helvetica,sans-Serif" font-size="11.00" fill="#000000"> &#160;</text>
<polygon fill="#ffffff" stroke="transparent" points="418,-1085.7 418,-1104.7 491,-1104.7 491,-1085.7 418,-1085.7"/>
<polygon fill="none" stroke="#000000" points="418,-1085.7 418,-1104.7 491,-1104.7 491,-1085.7 418,-1085.7"/>
<text text-anchor="start" x="481.8862" y="-1091.8" font-family="Helvetica,sans-Serif" font-size="11.00" fill="#000000"> &#160;</text>
</a>
</g>
</g>
<!-- case_note_type_recorded_event_type&#45;&gt;policy -->
<g id="edge3" class="edge">
<title>case_note_type_recorded_event_type:w&#45;&gt;policy:e</title>
<path fill="none" stroke="#000000" stroke-dasharray="5,2" d="M187.5155,-1112.5266C167.8975,-1108.9377 158.3946,-1097.0343 146,-1075.7 116.9989,-1025.7818 163.2312,-557.7 105.5,-557.7"/>
<polygon fill="#000000" stroke="#000000" points="194.0261,-1113.054 201.7093,-1117.2882 198.0131,-1113.377 202,-1113.7 202,-1113.7 202,-1113.7 198.0131,-1113.377 202.2907,-1110.1118 194.0261,-1113.054 194.0261,-1113.054"/>
<ellipse fill="none" stroke="#000000" cx="190.8366" cy="-1112.7956" rx="3.2" ry="3.2"/>
</g>
<!-- prison_configuration -->
<g id="node5" class="node">
<title>prison_configuration</title>
<g id="a_node5"><a xlink:href="../../tables/prison_configuration.html" xlink:title="prison_configuration" target="_top">
<polygon fill="#ffffff" stroke="transparent" points="257,-1004.2 257,-1065.2 435,-1065.2 435,-1004.2 257,-1004.2"/>
<polygon fill="#f5f5f5" stroke="transparent" points="257,-1041.7 257,-1064.7 435,-1064.7 435,-1041.7 257,-1041.7"/>
<polygon fill="none" stroke="#000000" points="257,-1041.7 257,-1064.7 435,-1064.7 435,-1041.7 257,-1041.7"/>
<text text-anchor="start" x="262" y="-1050.3" font-family="Helvetica,sans-Serif" font-weight="bold" font-size="11.00" fill="#000000">prison_configuration</text>
<text text-anchor="start" x="400.5219" y="-1049.8" font-family="Helvetica,sans-Serif" font-size="11.00" fill="#000000">[table]</text>
<polygon fill="none" stroke="#000000" points="257,-1022.7 257,-1041.7 435,-1041.7 435,-1022.7 257,-1022.7"/>
<text text-anchor="start" x="260" y="-1028.8" font-family="Helvetica,sans-Serif" font-size="11.00" fill="#000000">...</text>
<polygon fill="#ffffff" stroke="transparent" points="257,-1003.7 257,-1022.7 328,-1022.7 328,-1003.7 257,-1003.7"/>
<polygon fill="none" stroke="#000000" points="257,-1003.7 257,-1022.7 328,-1022.7 328,-1003.7 257,-1003.7"/>
<text text-anchor="start" x="260" y="-1009.8" font-family="Helvetica,sans-Serif" font-size="11.00" fill="#000000">&lt; 1</text>
<polygon fill="#ffffff" stroke="transparent" points="328,-1003.7 328,-1022.7 397,-1022.7 397,-1003.7 328,-1003.7"/>
<polygon fill="none" stroke="#000000" points="328,-1003.7 328,-1022.7 397,-1022.7 397,-1003.7 328,-1003.7"/>
<text text-anchor="start" x="355.4956" y="-1009.8" font-family="Helvetica,sans-Serif" font-size="11.00" fill="#000000">12 rows</text>
<polygon fill="#ffffff" stroke="transparent" points="397,-1003.7 397,-1022.7 435,-1022.7 435,-1003.7 397,-1003.7"/>
<polygon fill="none" stroke="#000000" points="397,-1003.7 397,-1022.7 435,-1022.7 435,-1003.7 397,-1003.7"/>
<text text-anchor="start" x="425.8862" y="-1009.8" font-family="Helvetica,sans-Serif" font-size="11.00" fill="#000000"> &#160;</text>
</a>
</g>
</g>
<!-- prison_configuration&#45;&gt;policy -->
<g id="edge4" class="edge">
<title>prison_configuration:w&#45;&gt;policy:e</title>
<path fill="none" stroke="#000000" d="M242.425,-1031.7414C199.6055,-1031.862 175.1001,-1030.6739 146,-993.7 85.8193,-917.236 202.806,-557.7 105.5,-557.7"/>
<polygon fill="#000000" stroke="#000000" points="249,-1031.7228 257.0103,-1035.3 253,-1031.7114 257,-1031.7 257,-1031.7 257,-1031.7 253,-1031.7114 256.9897,-1028.1 249,-1031.7228 249,-1031.7228"/>
<ellipse fill="none" stroke="#000000" cx="245.8" cy="-1031.7319" rx="3.2" ry="3.2"/>
</g>
<!-- prison_configuration_audit -->
<g id="node6" class="node">
<title>prison_configuration_audit</title>
<g id="a_node6"><a xlink:href="../../tables/prison_configuration_audit.html" xlink:title="prison_configuration_audit" target="_top">
<polygon fill="#ffffff" stroke="transparent" points="236.5,-922.2 236.5,-983.2 455.5,-983.2 455.5,-922.2 236.5,-922.2"/>
<polygon fill="#f5f5f5" stroke="transparent" points="237,-959.7 237,-982.7 456,-982.7 456,-959.7 237,-959.7"/>
<polygon fill="none" stroke="#000000" points="237,-959.7 237,-982.7 456,-982.7 456,-959.7 237,-959.7"/>
<text text-anchor="start" x="242" y="-968.3" font-family="Helvetica,sans-Serif" font-weight="bold" font-size="11.00" fill="#000000">prison_configuration_audit</text>
<text text-anchor="start" x="421.5219" y="-967.8" font-family="Helvetica,sans-Serif" font-size="11.00" fill="#000000">[table]</text>
<polygon fill="none" stroke="#000000" points="237,-940.7 237,-959.7 456,-959.7 456,-940.7 237,-940.7"/>
<text text-anchor="start" x="240" y="-946.8" font-family="Helvetica,sans-Serif" font-size="11.00" fill="#000000">...</text>
<polygon fill="#ffffff" stroke="transparent" points="237,-921.7 237,-940.7 345,-940.7 345,-921.7 237,-921.7"/>
<polygon fill="none" stroke="#000000" points="237,-921.7 237,-940.7 345,-940.7 345,-921.7 237,-921.7"/>
<text text-anchor="start" x="240" y="-927.8" font-family="Helvetica,sans-Serif" font-size="11.00" fill="#000000">&lt; 2</text>
<polygon fill="#ffffff" stroke="transparent" points="345,-921.7 345,-940.7 400,-940.7 400,-921.7 345,-921.7"/>
<polygon fill="none" stroke="#000000" points="345,-921.7 345,-940.7 400,-940.7 400,-921.7 345,-921.7"/>
<text text-anchor="start" x="390.8862" y="-927.8" font-family="Helvetica,sans-Serif" font-size="11.00" fill="#000000"> &#160;</text>
<polygon fill="#ffffff" stroke="transparent" points="400,-921.7 400,-940.7 456,-940.7 456,-921.7 400,-921.7"/>
<polygon fill="none" stroke="#000000" points="400,-921.7 400,-940.7 456,-940.7 456,-921.7 400,-921.7"/>
<text text-anchor="start" x="446.8862" y="-927.8" font-family="Helvetica,sans-Serif" font-size="11.00" fill="#000000"> &#160;</text>
</a>
</g>
</g>
<!-- prison_configuration_audit&#45;&gt;policy -->
<g id="edge5" class="edge">
<title>prison_configuration_audit:w&#45;&gt;policy:e</title>
<path fill="none" stroke="#000000" stroke-dasharray="5,2" d="M222.4928,-949.531C188.212,-948.5647 169.2487,-942.6295 146,-911.7 98.4245,-848.4069 184.6798,-557.7 105.5,-557.7"/>
<polygon fill="#000000" stroke="#000000" points="229.0005,-949.6068 236.958,-953.2998 233.0003,-949.6534 237,-949.7 237,-949.7 237,-949.7 233.0003,-949.6534 237.042,-946.1002 229.0005,-949.6068 229.0005,-949.6068"/>
<ellipse fill="none" stroke="#000000" cx="225.8008" cy="-949.5695" rx="3.2" ry="3.2"/>
</g>
<!-- prison_statistic -->
<g id="node7" class="node">
<title>prison_statistic</title>
<g id="a_node7"><a xlink:href="../../tables/prison_statistic.html" xlink:title="prison_statistic" target="_top">
<polygon fill="#ffffff" stroke="transparent" points="154,-612.7 154,-900.7 538,-900.7 538,-612.7 154,-612.7"/>
<polygon fill="#f5f5f5" stroke="transparent" points="156,-875.7 156,-898.7 536,-898.7 536,-875.7 156,-875.7"/>
<polygon fill="none" stroke="#000000" points="156,-875.7 156,-898.7 536,-898.7 536,-875.7 156,-875.7"/>
<text text-anchor="start" x="161" y="-884.3" font-family="Helvetica,sans-Serif" font-weight="bold" font-size="11.00" fill="#000000">prison_statistic</text>
<text text-anchor="start" x="501.0437" y="-883.8" font-family="Helvetica,sans-Serif" font-size="11.00" fill="#000000">[table]</text>
<polygon fill="none" stroke="#000000" points="156,-853.7 156,-875.7 452,-875.7 452,-853.7 156,-853.7"/>
<image xlink:href="../../images/primaryKeys.png" width="11px" height="12px" preserveAspectRatio="xMinYMin meet" x="161" y="-870.7"/>
<text text-anchor="start" x="176" y="-860.8" font-family="Helvetica,sans-Serif" font-size="11.00" fill="#000000">id</text>
<polygon fill="none" stroke="#000000" points="452,-853.7 452,-875.7 536,-875.7 536,-853.7 452,-853.7"/>
<text text-anchor="start" x="455" y="-861.4" font-family="Helvetica,sans-Serif" font-size="11.00" fill="#000000">bigserial[19]</text>
<polygon fill="#ffffff" stroke="transparent" points="156,-831.7 156,-853.7 452,-853.7 452,-831.7 156,-831.7"/>
<polygon fill="none" stroke="#000000" points="156,-831.7 156,-853.7 452,-853.7 452,-831.7 156,-831.7"/>
<text text-anchor="start" x="176" y="-838.8" font-family="Helvetica,sans-Serif" font-size="11.00" fill="#000000">prison_code</text>
<polygon fill="none" stroke="#000000" points="452,-831.7 452,-853.7 536,-853.7 536,-831.7 452,-831.7"/>
<text text-anchor="start" x="455" y="-839.4" font-family="Helvetica,sans-Serif" font-size="11.00" fill="#000000">varchar[6]</text>
<polygon fill="#ffffff" stroke="transparent" points="156,-809.7 156,-831.7 452,-831.7 452,-809.7 156,-809.7"/>
<polygon fill="none" stroke="#000000" points="156,-809.7 156,-831.7 452,-831.7 452,-809.7 156,-809.7"/>
<text text-anchor="start" x="176" y="-816.8" font-family="Helvetica,sans-Serif" font-size="11.00" fill="#000000">statistic_date</text>
<polygon fill="none" stroke="#000000" points="452,-809.7 452,-831.7 536,-831.7 536,-809.7 452,-809.7"/>
<text text-anchor="start" x="454.8807" y="-817.4" font-family="Helvetica,sans-Serif" font-size="11.00" fill="#000000">timestamp[29,6]</text>
<polygon fill="none" stroke="#000000" points="156,-787.7 156,-809.7 452,-809.7 452,-787.7 156,-787.7"/>
<text text-anchor="start" x="176" y="-794.8" font-family="Helvetica,sans-Serif" font-size="11.00" fill="#000000">prisoners_assigned_count</text>
<polygon fill="none" stroke="#000000" points="452,-787.7 452,-809.7 536,-809.7 536,-787.7 452,-787.7"/>
<text text-anchor="start" x="455" y="-795.4" font-family="Helvetica,sans-Serif" font-size="11.00" fill="#000000">int4[10]</text>
<polygon fill="none" stroke="#000000" points="156,-765.7 156,-787.7 452,-787.7 452,-765.7 156,-765.7"/>
<text text-anchor="start" x="176" y="-772.8" font-family="Helvetica,sans-Serif" font-size="11.00" fill="#000000">prisoner_count</text>
<polygon fill="none" stroke="#000000" points="452,-765.7 452,-787.7 536,-787.7 536,-765.7 452,-765.7"/>
<text text-anchor="start" x="455" y="-773.4" font-family="Helvetica,sans-Serif" font-size="11.00" fill="#000000">int4[10]</text>
<polygon fill="none" stroke="#000000" points="156,-743.7 156,-765.7 452,-765.7 452,-743.7 156,-743.7"/>
<text text-anchor="start" x="176" y="-750.8" font-family="Helvetica,sans-Serif" font-size="11.00" fill="#000000">eligible_staff_count</text>
<polygon fill="none" stroke="#000000" points="452,-743.7 452,-765.7 536,-765.7 536,-743.7 452,-743.7"/>
<text text-anchor="start" x="455" y="-751.4" font-family="Helvetica,sans-Serif" font-size="11.00" fill="#000000">int4[10]</text>
<polygon fill="none" stroke="#000000" points="156,-721.7 156,-743.7 452,-743.7 452,-721.7 156,-721.7"/>
<text text-anchor="start" x="176" y="-728.8" font-family="Helvetica,sans-Serif" font-size="11.00" fill="#000000">reception_to_allocation_days</text>
<polygon fill="none" stroke="#000000" points="452,-721.7 452,-743.7 536,-743.7 536,-721.7 452,-721.7"/>
<text text-anchor="start" x="455" y="-729.4" font-family="Helvetica,sans-Serif" font-size="11.00" fill="#000000">int4[10]</text>
<polygon fill="none" stroke="#000000" points="156,-699.7 156,-721.7 452,-721.7 452,-699.7 156,-699.7"/>
<text text-anchor="start" x="176" y="-706.8" font-family="Helvetica,sans-Serif" font-size="11.00" fill="#000000">reception_to_recorded_event_days</text>
<polygon fill="none" stroke="#000000" points="452,-699.7 452,-721.7 536,-721.7 536,-699.7 452,-699.7"/>
<text text-anchor="start" x="455" y="-707.4" font-family="Helvetica,sans-Serif" font-size="11.00" fill="#000000">int4[10]</text>
<polygon fill="none" stroke="#000000" points="156,-677.7 156,-699.7 452,-699.7 452,-677.7 156,-677.7"/>
<text text-anchor="start" x="176" y="-684.8" font-family="Helvetica,sans-Serif" font-size="11.00" fill="#000000">eligible_prisoner_count</text>
<polygon fill="none" stroke="#000000" points="452,-677.7 452,-699.7 536,-699.7 536,-677.7 452,-677.7"/>
<text text-anchor="start" x="455" y="-685.4" font-family="Helvetica,sans-Serif" font-size="11.00" fill="#000000">int4[10]</text>
<polygon fill="none" stroke="#000000" points="156,-655.7 156,-677.7 452,-677.7 452,-655.7 156,-655.7"/>
<text text-anchor="start" x="176" y="-662.8" font-family="Helvetica,sans-Serif" font-size="11.00" fill="#000000">high_complexity_of_need_prisoner_count</text>
<polygon fill="none" stroke="#000000" points="452,-655.7 452,-677.7 536,-677.7 536,-655.7 452,-655.7"/>
<text text-anchor="start" x="455" y="-663.4" font-family="Helvetica,sans-Serif" font-size="11.00" fill="#000000">int4[10]</text>
<polygon fill="none" stroke="#000000" points="156,-633.7 156,-655.7 452,-655.7 452,-633.7 156,-633.7"/>
<image xlink:href="../../images/foreignKeys.png" width="11px" height="12px" preserveAspectRatio="xMinYMin meet" x="161" y="-650.7"/>
<text text-anchor="start" x="176" y="-640.8" font-family="Helvetica,sans-Serif" font-size="11.00" fill="#000000">policy_code</text>
<polygon fill="none" stroke="#000000" points="452,-633.7 452,-655.7 536,-655.7 536,-633.7 452,-633.7"/>
<text text-anchor="start" x="455" y="-641.4" font-family="Helvetica,sans-Serif" font-size="11.00" fill="#000000">varchar[16]</text>
<polygon fill="#ffffff" stroke="transparent" points="156,-614.7 156,-633.7 308,-633.7 308,-614.7 156,-614.7"/>
<polygon fill="none" stroke="#000000" points="156,-614.7 156,-633.7 308,-633.7 308,-614.7 156,-614.7"/>
<text text-anchor="start" x="159" y="-620.8" font-family="Helvetica,sans-Serif" font-size="11.00" fill="#000000">&lt; 1</text>
<polygon fill="#ffffff" stroke="transparent" points="308,-614.7 308,-633.7 452,-633.7 452,-614.7 308,-614.7"/>
<polygon fill="none" stroke="#000000" points="308,-614.7 308,-633.7 452,-633.7 452,-614.7 308,-614.7"/>
<text text-anchor="start" x="442.8862" y="-620.8" font-family="Helvetica,sans-Serif" font-size="11.00" fill="#000000"> &#160;</text>
<polygon fill="#ffffff" stroke="transparent" points="452,-614.7 452,-633.7 536,-633.7 536,-614.7 452,-614.7"/>
<polygon fill="none" stroke="#000000" points="452,-614.7 452,-633.7 536,-633.7 536,-614.7 452,-614.7"/>
<text text-anchor="start" x="517.4053" y="-620.8" font-family="Helvetica,sans-Serif" font-size="11.00" fill="#000000">0 &gt;</text>
<polygon fill="none" stroke="#000000" stroke-width="2" points="155,-613.7 155,-899.7 537,-899.7 537,-613.7 155,-613.7"/>
</a>
</g>
</g>
<!-- prison_statistic&#45;&gt;policy -->
<g id="edge6" class="edge">
<title>prison_statistic:w&#45;&gt;policy:e</title>
<path fill="none" stroke="#000000" d="M142.2198,-640.5038C120.1537,-623.1252 144.2708,-557.7 105.5,-557.7"/>
<polygon fill="#000000" stroke="#000000" points="148.347,-642.3695 154.9513,-648.1439 152.1735,-643.5348 156,-644.7 156,-644.7 156,-644.7 152.1735,-643.5348 157.0487,-641.2561 148.347,-642.3695 148.347,-642.3695"/>
<ellipse fill="none" stroke="#000000" cx="145.2857" cy="-641.4373" rx="3.2" ry="3.2"/>
</g>
<!-- recorded_event -->
<g id="node8" class="node">
<title>recorded_event</title>
<g id="a_node8"><a xlink:href="../../tables/recorded_event.html" xlink:title="recorded_event" target="_top">
<polygon fill="#ffffff" stroke="transparent" points="274,-530.2 274,-591.2 418,-591.2 418,-530.2 274,-530.2"/>
<polygon fill="#f5f5f5" stroke="transparent" points="274,-567.7 274,-590.7 418,-590.7 418,-567.7 274,-567.7"/>
<polygon fill="none" stroke="#000000" points="274,-567.7 274,-590.7 418,-590.7 418,-567.7 274,-567.7"/>
<text text-anchor="start" x="279" y="-576.3" font-family="Helvetica,sans-Serif" font-weight="bold" font-size="11.00" fill="#000000">recorded_event</text>
<text text-anchor="start" x="383.5219" y="-575.8" font-family="Helvetica,sans-Serif" font-size="11.00" fill="#000000">[table]</text>
<polygon fill="none" stroke="#000000" points="274,-548.7 274,-567.7 418,-567.7 418,-548.7 274,-548.7"/>
<text text-anchor="start" x="277" y="-554.8" font-family="Helvetica,sans-Serif" font-size="11.00" fill="#000000">...</text>
<polygon fill="#ffffff" stroke="transparent" points="274,-529.7 274,-548.7 344,-548.7 344,-529.7 274,-529.7"/>
<polygon fill="none" stroke="#000000" points="274,-529.7 274,-548.7 344,-548.7 344,-529.7 274,-529.7"/>
<text text-anchor="start" x="277" y="-535.8" font-family="Helvetica,sans-Serif" font-size="11.00" fill="#000000">&lt; 2</text>
<polygon fill="#ffffff" stroke="transparent" points="344,-529.7 344,-548.7 381,-548.7 381,-529.7 344,-529.7"/>
<polygon fill="none" stroke="#000000" points="344,-529.7 344,-548.7 381,-548.7 381,-529.7 344,-529.7"/>
<text text-anchor="start" x="371.8862" y="-535.8" font-family="Helvetica,sans-Serif" font-size="11.00" fill="#000000"> &#160;</text>
<polygon fill="#ffffff" stroke="transparent" points="381,-529.7 381,-548.7 418,-548.7 418,-529.7 381,-529.7"/>
<polygon fill="none" stroke="#000000" points="381,-529.7 381,-548.7 418,-548.7 418,-529.7 381,-529.7"/>
<text text-anchor="start" x="408.8862" y="-535.8" font-family="Helvetica,sans-Serif" font-size="11.00" fill="#000000"> &#160;</text>
</a>
</g>
</g>
<!-- recorded_event&#45;&gt;policy -->
<g id="edge7" class="edge">
<title>recorded_event:w&#45;&gt;policy:e</title>
<path fill="none" stroke="#000000" d="M259.3934,-557.7C196.289,-557.7 175.2695,-557.7 105.5,-557.7"/>
<polygon fill="#000000" stroke="#000000" points="266,-557.7001 274,-561.3 270,-557.7 274,-557.7 274,-557.7 274,-557.7 270,-557.7 274,-554.1 266,-557.7001 266,-557.7001"/>
<ellipse fill="none" stroke="#000000" cx="262.8" cy="-557.7001" rx="3.2" ry="3.2"/>
</g>
<!-- recorded_event_audit -->
<g id="node9" class="node">
<title>recorded_event_audit</title>
<g id="a_node9"><a xlink:href="../../tables/recorded_event_audit.html" xlink:title="recorded_event_audit" target="_top">
<polygon fill="#ffffff" stroke="transparent" points="253.5,-448.2 253.5,-509.2 438.5,-509.2 438.5,-448.2 253.5,-448.2"/>
<polygon fill="#f5f5f5" stroke="transparent" points="254,-485.7 254,-508.7 439,-508.7 439,-485.7 254,-485.7"/>
<polygon fill="none" stroke="#000000" points="254,-485.7 254,-508.7 439,-508.7 439,-485.7 254,-485.7"/>
<text text-anchor="start" x="259" y="-494.3" font-family="Helvetica,sans-Serif" font-weight="bold" font-size="11.00" fill="#000000">recorded_event_audit</text>
<text text-anchor="start" x="404.5219" y="-493.8" font-family="Helvetica,sans-Serif" font-size="11.00" fill="#000000">[table]</text>
<polygon fill="none" stroke="#000000" points="254,-466.7 254,-485.7 439,-485.7 439,-466.7 254,-466.7"/>
<text text-anchor="start" x="257" y="-472.8" font-family="Helvetica,sans-Serif" font-size="11.00" fill="#000000">...</text>
<polygon fill="#ffffff" stroke="transparent" points="254,-447.7 254,-466.7 345,-466.7 345,-447.7 254,-447.7"/>
<polygon fill="none" stroke="#000000" points="254,-447.7 254,-466.7 345,-466.7 345,-447.7 254,-447.7"/>
<text text-anchor="start" x="257" y="-453.8" font-family="Helvetica,sans-Serif" font-size="11.00" fill="#000000">&lt; 2</text>
<polygon fill="#ffffff" stroke="transparent" points="345,-447.7 345,-466.7 392,-466.7 392,-447.7 345,-447.7"/>
<polygon fill="none" stroke="#000000" points="345,-447.7 345,-466.7 392,-466.7 392,-447.7 345,-447.7"/>
<text text-anchor="start" x="382.8862" y="-453.8" font-family="Helvetica,sans-Serif" font-size="11.00" fill="#000000"> &#160;</text>
<polygon fill="#ffffff" stroke="transparent" points="392,-447.7 392,-466.7 439,-466.7 439,-447.7 392,-447.7"/>
<polygon fill="none" stroke="#000000" points="392,-447.7 392,-466.7 439,-466.7 439,-447.7 392,-447.7"/>
<text text-anchor="start" x="429.8862" y="-453.8" font-family="Helvetica,sans-Serif" font-size="11.00" fill="#000000"> &#160;</text>
</a>
</g>
</g>
<!-- recorded_event_audit&#45;&gt;policy -->
<g id="edge8" class="edge">
<title>recorded_event_audit:w&#45;&gt;policy:e</title>
<path fill="none" stroke="#000000" d="M239.35,-476.1915C199.3016,-479.0776 185.199,-494.5626 146,-519.7 125.2225,-533.0241 130.1827,-557.7 105.5,-557.7"/>
<polygon fill="#000000" stroke="#000000" points="246.0045,-475.9683 254.1207,-479.298 250.0022,-475.8342 254,-475.7 254,-475.7 254,-475.7 250.0022,-475.8342 253.8793,-472.102 246.0045,-475.9683 246.0045,-475.9683"/>
<ellipse fill="none" stroke="#000000" cx="242.8063" cy="-476.0756" rx="3.2" ry="3.2"/>
</g>
<!-- reference_data_policy -->
<g id="node10" class="node">
<title>reference_data_policy</title>
<g id="a_node10"><a xlink:href="../../tables/reference_data_policy.html" xlink:title="reference_data_policy" target="_top">
<polygon fill="#ffffff" stroke="transparent" points="253,-366.2 253,-427.2 439,-427.2 439,-366.2 253,-366.2"/>
<polygon fill="#f5f5f5" stroke="transparent" points="253,-403.7 253,-426.7 439,-426.7 439,-403.7 253,-403.7"/>
<polygon fill="none" stroke="#000000" points="253,-403.7 253,-426.7 439,-426.7 439,-403.7 253,-403.7"/>
<text text-anchor="start" x="258" y="-412.3" font-family="Helvetica,sans-Serif" font-weight="bold" font-size="11.00" fill="#000000">reference_data_policy</text>
<text text-anchor="start" x="404.5219" y="-411.8" font-family="Helvetica,sans-Serif" font-size="11.00" fill="#000000">[table]</text>
<polygon fill="none" stroke="#000000" points="253,-384.7 253,-403.7 439,-403.7 439,-384.7 253,-384.7"/>
<text text-anchor="start" x="256" y="-390.8" font-family="Helvetica,sans-Serif" font-size="11.00" fill="#000000">...</text>
<polygon fill="#ffffff" stroke="transparent" points="253,-365.7 253,-384.7 328,-384.7 328,-365.7 253,-365.7"/>
<polygon fill="none" stroke="#000000" points="253,-365.7 253,-384.7 328,-384.7 328,-365.7 253,-365.7"/>
<text text-anchor="start" x="256" y="-371.8" font-family="Helvetica,sans-Serif" font-size="11.00" fill="#000000">&lt; 2</text>
<polygon fill="#ffffff" stroke="transparent" points="328,-365.7 328,-384.7 399,-384.7 399,-365.7 328,-365.7"/>
<polygon fill="none" stroke="#000000" points="328,-365.7 328,-384.7 399,-384.7 399,-365.7 328,-365.7"/>
<text text-anchor="start" x="357.4956" y="-371.8" font-family="Helvetica,sans-Serif" font-size="11.00" fill="#000000">84 rows</text>
<polygon fill="#ffffff" stroke="transparent" points="399,-365.7 399,-384.7 439,-384.7 439,-365.7 399,-365.7"/>
<polygon fill="none" stroke="#000000" points="399,-365.7 399,-384.7 439,-384.7 439,-365.7 399,-365.7"/>
<text text-anchor="start" x="429.8862" y="-371.8" font-family="Helvetica,sans-Serif" font-size="11.00" fill="#000000"> &#160;</text>
</a>
</g>
</g>
<!-- reference_data_policy&#45;&gt;policy -->
<g id="edge9" class="edge">
<title>reference_data_policy:w&#45;&gt;policy:e</title>
<path fill="none" stroke="#000000" d="M238.5121,-393.9173C197.3671,-395.2998 177.6623,-403.9219 146,-437.7 107.5047,-478.7677 161.7889,-557.7 105.5,-557.7"/>
<polygon fill="#000000" stroke="#000000" points="245.0009,-393.82 253.054,-397.2996 249.0004,-393.76 253,-393.7 253,-393.7 253,-393.7 249.0004,-393.76 252.946,-390.1004 245.0009,-393.82 245.0009,-393.82"/>
<ellipse fill="none" stroke="#000000" cx="241.8013" cy="-393.868" rx="3.2" ry="3.2"/>
</g>
<!-- staff_configuration -->
<g id="node11" class="node">
<title>staff_configuration</title>
<g id="a_node11"><a xlink:href="../../tables/staff_configuration.html" xlink:title="staff_configuration" target="_top">
<polygon fill="#ffffff" stroke="transparent" points="262.5,-284.2 262.5,-345.2 429.5,-345.2 429.5,-284.2 262.5,-284.2"/>
<polygon fill="#f5f5f5" stroke="transparent" points="263,-321.7 263,-344.7 430,-344.7 430,-321.7 263,-321.7"/>
<polygon fill="none" stroke="#000000" points="263,-321.7 263,-344.7 430,-344.7 430,-321.7 263,-321.7"/>
<text text-anchor="start" x="268" y="-330.3" font-family="Helvetica,sans-Serif" font-weight="bold" font-size="11.00" fill="#000000">staff_configuration</text>
<text text-anchor="start" x="395.5219" y="-329.8" font-family="Helvetica,sans-Serif" font-size="11.00" fill="#000000">[table]</text>
<polygon fill="none" stroke="#000000" points="263,-302.7 263,-321.7 430,-321.7 430,-302.7 263,-302.7"/>
<text text-anchor="start" x="266" y="-308.8" font-family="Helvetica,sans-Serif" font-size="11.00" fill="#000000">...</text>
<polygon fill="#ffffff" stroke="transparent" points="263,-283.7 263,-302.7 345,-302.7 345,-283.7 263,-283.7"/>
<polygon fill="none" stroke="#000000" points="263,-283.7 263,-302.7 345,-302.7 345,-283.7 263,-283.7"/>
<text text-anchor="start" x="266" y="-289.8" font-family="Helvetica,sans-Serif" font-size="11.00" fill="#000000">&lt; 2</text>
<polygon fill="#ffffff" stroke="transparent" points="345,-283.7 345,-302.7 387,-302.7 387,-283.7 345,-283.7"/>
<polygon fill="none" stroke="#000000" points="345,-283.7 345,-302.7 387,-302.7 387,-283.7 345,-283.7"/>
<text text-anchor="start" x="377.8862" y="-289.8" font-family="Helvetica,sans-Serif" font-size="11.00" fill="#000000"> &#160;</text>
<polygon fill="#ffffff" stroke="transparent" points="387,-283.7 387,-302.7 430,-302.7 430,-283.7 387,-283.7"/>
<polygon fill="none" stroke="#000000" points="387,-283.7 387,-302.7 430,-302.7 430,-283.7 387,-283.7"/>
<text text-anchor="start" x="420.8862" y="-289.8" font-family="Helvetica,sans-Serif" font-size="11.00" fill="#000000"> &#160;</text>
</a>
</g>
</g>
<!-- staff_configuration&#45;&gt;policy -->
<g id="edge10" class="edge">
<title>staff_configuration:w&#45;&gt;policy:e</title>
<path fill="none" stroke="#000000" d="M248.4298,-311.7724C202.6807,-312.3492 178.677,-317.2554 146,-355.7 86.6994,-425.4674 197.0645,-557.7 105.5,-557.7"/>
<polygon fill="#000000" stroke="#000000" points="255.0001,-311.7398 263.0179,-315.3 259,-311.7199 263,-311.7 263,-311.7 263,-311.7 259,-311.7199 262.9821,-308.1 255.0001,-311.7398 255.0001,-311.7398"/>
<ellipse fill="none" stroke="#000000" cx="251.8001" cy="-311.7557" rx="3.2" ry="3.2"/>
</g>
<!-- staff_configuration_audit -->
<g id="node12" class="node">
<title>staff_configuration_audit</title>
<g id="a_node12"><a xlink:href="../../tables/staff_configuration_audit.html" xlink:title="staff_configuration_audit" target="_top">
<polygon fill="#ffffff" stroke="transparent" points="242,-202.2 242,-263.2 450,-263.2 450,-202.2 242,-202.2"/>
<polygon fill="#f5f5f5" stroke="transparent" points="242,-239.7 242,-262.7 450,-262.7 450,-239.7 242,-239.7"/>
<polygon fill="none" stroke="#000000" points="242,-239.7 242,-262.7 450,-262.7 450,-239.7 242,-239.7"/>
<text text-anchor="start" x="247" y="-248.3" font-family="Helvetica,sans-Serif" font-weight="bold" font-size="11.00" fill="#000000">staff_configuration_audit</text>
<text text-anchor="start" x="415.5219" y="-247.8" font-family="Helvetica,sans-Serif" font-size="11.00" fill="#000000">[table]</text>
<polygon fill="none" stroke="#000000" points="242,-220.7 242,-239.7 450,-239.7 450,-220.7 242,-220.7"/>
<text text-anchor="start" x="245" y="-226.8" font-family="Helvetica,sans-Serif" font-size="11.00" fill="#000000">...</text>
<polygon fill="#ffffff" stroke="transparent" points="242,-201.7 242,-220.7 344,-220.7 344,-201.7 242,-201.7"/>
<polygon fill="none" stroke="#000000" points="242,-201.7 242,-220.7 344,-220.7 344,-201.7 242,-201.7"/>
<text text-anchor="start" x="245" y="-207.8" font-family="Helvetica,sans-Serif" font-size="11.00" fill="#000000">&lt; 2</text>
<polygon fill="#ffffff" stroke="transparent" points="344,-201.7 344,-220.7 397,-220.7 397,-201.7 344,-201.7"/>
<polygon fill="none" stroke="#000000" points="344,-201.7 344,-220.7 397,-220.7 397,-201.7 344,-201.7"/>
<text text-anchor="start" x="387.8862" y="-207.8" font-family="Helvetica,sans-Serif" font-size="11.00" fill="#000000"> &#160;</text>
<polygon fill="#ffffff" stroke="transparent" points="397,-201.7 397,-220.7 450,-220.7 450,-201.7 397,-201.7"/>
<polygon fill="none" stroke="#000000" points="397,-201.7 397,-220.7 450,-220.7 450,-201.7 397,-201.7"/>
<text text-anchor="start" x="440.8862" y="-207.8" font-family="Helvetica,sans-Serif" font-size="11.00" fill="#000000"> &#160;</text>
</a>
</g>
</g>
<!-- staff_configuration_audit&#45;&gt;policy -->
<g id="edge11" class="edge">
<title>staff_configuration_audit:w&#45;&gt;policy:e</title>
<path fill="none" stroke="#000000" stroke-dasharray="5,2" d="M227.4876,-229.9619C190.3898,-231.4716 171.0085,-240.205 146,-273.7 107.8604,-324.7821 169.2496,-557.7 105.5,-557.7"/>
<polygon fill="#000000" stroke="#000000" points="234.0013,-229.8444 242.065,-233.2994 238.0007,-229.7722 242,-229.7 242,-229.7 242,-229.7 238.0007,-229.7722 241.935,-226.1006 234.0013,-229.8444 234.0013,-229.8444"/>
<ellipse fill="none" stroke="#000000" cx="230.8018" cy="-229.9021" rx="3.2" ry="3.2"/>
</g>
<!-- staff_role -->
<g id="node13" class="node">
<title>staff_role</title>
<g id="a_node13"><a xlink:href="../../tables/staff_role.html" xlink:title="staff_role" target="_top">
<polygon fill="#ffffff" stroke="transparent" points="295,-120.2 295,-181.2 397,-181.2 397,-120.2 295,-120.2"/>
<polygon fill="#f5f5f5" stroke="transparent" points="295,-157.7 295,-180.7 397,-180.7 397,-157.7 295,-157.7"/>
<polygon fill="none" stroke="#000000" points="295,-157.7 295,-180.7 397,-180.7 397,-157.7 295,-157.7"/>
<text text-anchor="start" x="300" y="-166.3" font-family="Helvetica,sans-Serif" font-weight="bold" font-size="11.00" fill="#000000">staff_role</text>
<text text-anchor="start" x="362.5219" y="-165.8" font-family="Helvetica,sans-Serif" font-size="11.00" fill="#000000">[table]</text>
<polygon fill="none" stroke="#000000" points="295,-138.7 295,-157.7 397,-157.7 397,-138.7 295,-138.7"/>
<text text-anchor="start" x="298" y="-144.8" font-family="Helvetica,sans-Serif" font-size="11.00" fill="#000000">...</text>
<polygon fill="#ffffff" stroke="transparent" points="295,-119.7 295,-138.7 344,-138.7 344,-119.7 295,-119.7"/>
<polygon fill="none" stroke="#000000" points="295,-119.7 295,-138.7 344,-138.7 344,-119.7 295,-119.7"/>
<text text-anchor="start" x="298" y="-125.8" font-family="Helvetica,sans-Serif" font-size="11.00" fill="#000000">&lt; 1</text>
<polygon fill="#ffffff" stroke="transparent" points="344,-119.7 344,-138.7 370,-138.7 370,-119.7 344,-119.7"/>
<polygon fill="none" stroke="#000000" points="344,-119.7 344,-138.7 370,-138.7 370,-119.7 344,-119.7"/>
<text text-anchor="start" x="360.8862" y="-125.8" font-family="Helvetica,sans-Serif" font-size="11.00" fill="#000000"> &#160;</text>
<polygon fill="#ffffff" stroke="transparent" points="370,-119.7 370,-138.7 397,-138.7 397,-119.7 370,-119.7"/>
<polygon fill="none" stroke="#000000" points="370,-119.7 370,-138.7 397,-138.7 397,-119.7 370,-119.7"/>
<text text-anchor="start" x="387.8862" y="-125.8" font-family="Helvetica,sans-Serif" font-size="11.00" fill="#000000"> &#160;</text>
</a>
</g>
</g>
<!-- staff_role&#45;&gt;policy -->
<g id="edge12" class="edge">
<title>staff_role:w&#45;&gt;policy:e</title>
<path fill="none" stroke="#000000" stroke-dasharray="5,2" d="M280.538,-147.5865C220.7557,-146.73 187.1176,-142.5783 146,-191.7 93.4761,-254.4483 187.3298,-557.7 105.5,-557.7"/>
<polygon fill="#000000" stroke="#000000" points="287.0002,-147.6372 294.9717,-151.2999 291.0001,-147.6686 295,-147.7 295,-147.7 295,-147.7 291.0001,-147.6686 295.0283,-144.1001 287.0002,-147.6372 287.0002,-147.6372"/>
<ellipse fill="none" stroke="#000000" cx="283.8003" cy="-147.6121" rx="3.2" ry="3.2"/>
</g>
<!-- staff_role_audit -->
<g id="node14" class="node">
<title>staff_role_audit</title>
<g id="a_node14"><a xlink:href="../../tables/staff_role_audit.html" xlink:title="staff_role_audit" target="_top">
<polygon fill="#ffffff" stroke="transparent" points="274.5,-38.2 274.5,-99.2 417.5,-99.2 417.5,-38.2 274.5,-38.2"/>
<polygon fill="#f5f5f5" stroke="transparent" points="275,-75.7 275,-98.7 418,-98.7 418,-75.7 275,-75.7"/>
<polygon fill="none" stroke="#000000" points="275,-75.7 275,-98.7 418,-98.7 418,-75.7 275,-75.7"/>
<text text-anchor="start" x="280" y="-84.3" font-family="Helvetica,sans-Serif" font-weight="bold" font-size="11.00" fill="#000000">staff_role_audit</text>
<text text-anchor="start" x="383.5219" y="-83.8" font-family="Helvetica,sans-Serif" font-size="11.00" fill="#000000">[table]</text>
<polygon fill="none" stroke="#000000" points="275,-56.7 275,-75.7 418,-75.7 418,-56.7 275,-56.7"/>
<text text-anchor="start" x="278" y="-62.8" font-family="Helvetica,sans-Serif" font-size="11.00" fill="#000000">...</text>
<polygon fill="#ffffff" stroke="transparent" points="275,-37.7 275,-56.7 345,-56.7 345,-37.7 275,-37.7"/>
<polygon fill="none" stroke="#000000" points="275,-37.7 275,-56.7 345,-56.7 345,-37.7 275,-37.7"/>
<text text-anchor="start" x="278" y="-43.8" font-family="Helvetica,sans-Serif" font-size="11.00" fill="#000000">&lt; 2</text>
<polygon fill="#ffffff" stroke="transparent" points="345,-37.7 345,-56.7 381,-56.7 381,-37.7 345,-37.7"/>
<polygon fill="none" stroke="#000000" points="345,-37.7 345,-56.7 381,-56.7 381,-37.7 345,-37.7"/>
<text text-anchor="start" x="371.8862" y="-43.8" font-family="Helvetica,sans-Serif" font-size="11.00" fill="#000000"> &#160;</text>
<polygon fill="#ffffff" stroke="transparent" points="381,-37.7 381,-56.7 418,-56.7 418,-37.7 381,-37.7"/>
<polygon fill="none" stroke="#000000" points="381,-37.7 381,-56.7 418,-56.7 418,-37.7 381,-37.7"/>
<text text-anchor="start" x="408.8862" y="-43.8" font-family="Helvetica,sans-Serif" font-size="11.00" fill="#000000"> &#160;</text>
</a>
</g>
</g>
<!-- staff_role_audit&#45;&gt;policy -->
<g id="edge13" class="edge">
<title>staff_role_audit:w&#45;&gt;policy:e</title>
<path fill="none" stroke="#000000" stroke-dasharray="5,2" d="M260.3422,-65.6558C209.1725,-65.4523 180.289,-66.0731 146,-109.7 115.1148,-148.9961 155.4808,-557.7 105.5,-557.7"/>
<polygon fill="#000000" stroke="#000000" points="267,-65.6758 274.9891,-69.3 271,-65.6879 275,-65.7 275,-65.7 275,-65.7 271,-65.6879 275.0109,-62.1 267,-65.6758 267,-65.6758"/>
<ellipse fill="none" stroke="#000000" cx="263.8001" cy="-65.6661" rx="3.2" ry="3.2"/>
</g>
</g>
</svg>
