<?xml version="1.0" encoding="UTF-8" standalone="no"?>
<!DOCTYPE svg PUBLIC "-//W3C//DTD SVG 1.1//EN"
 "http://www.w3.org/Graphics/SVG/1.1/DTD/svg11.dtd">
<!-- Generated by graphviz version 2.40.1 (20161225.0304)
 -->
<!-- Title: oneDegreeRelationshipsDiagram Pages: 1 -->
<svg width="796pt" height="396pt"
 viewBox="0.00 0.00 796.00 395.81" xmlns="http://www.w3.org/2000/svg" xmlns:xlink="http://www.w3.org/1999/xlink">
<g id="graph0" class="graph" transform="scale(1 1) rotate(0) translate(4 391.8113)">
<title>oneDegreeRelationshipsDiagram</title>
<polygon fill="#ffffff" stroke="transparent" points="-4,4 -4,-391.8113 792,-391.8113 792,4 -4,4"/>
<text text-anchor="middle" x="72.4936" y="-7.3" font-family="Helvetica,sans-Serif" font-size="11.00" fill="#000000">Generated by SchemaSpy</text>
<!-- prison_statistic -->
<g id="node1" class="node">
<title>prison_statistic</title>
<g id="a_node1"><a xlink:href="../../tables/prison_statistic.html" xlink:title="prison_statistic" target="_top">
<polygon fill="#ffffff" stroke="transparent" points="154,-95.8113 154,-383.8113 538,-383.8113 538,-95.8113 154,-95.8113"/>
<polygon fill="#f5f5f5" stroke="transparent" points="156,-358.8113 156,-381.8113 536,-381.8113 536,-358.8113 156,-358.8113"/>
<polygon fill="none" stroke="#000000" points="156,-358.8113 156,-381.8113 536,-381.8113 536,-358.8113 156,-358.8113"/>
<text text-anchor="start" x="161" y="-367.4113" font-family="Helvetica,sans-Serif" font-weight="bold" font-size="11.00" fill="#000000">prison_statistic</text>
<text text-anchor="start" x="501.0437" y="-366.9113" font-family="Helvetica,sans-Serif" font-size="11.00" fill="#000000">[table]</text>
<polygon fill="none" stroke="#000000" points="156,-336.8113 156,-358.8113 452,-358.8113 452,-336.8113 156,-336.8113"/>
<image xlink:href="../../images/primaryKeys.png" width="11px" height="12px" preserveAspectRatio="xMinYMin meet" x="161" y="-353.811"/>
<text text-anchor="start" x="176" y="-343.9113" font-family="Helvetica,sans-Serif" font-size="11.00" fill="#000000">id</text>
<polygon fill="none" stroke="#000000" points="452,-336.8113 452,-358.8113 536,-358.8113 536,-336.8113 452,-336.8113"/>
<text text-anchor="start" x="455" y="-344.5113" font-family="Helvetica,sans-Serif" font-size="11.00" fill="#000000">bigserial[19]</text>
<polygon fill="#ffffff" stroke="transparent" points="156,-314.8113 156,-336.8113 452,-336.8113 452,-314.8113 156,-314.8113"/>
<polygon fill="none" stroke="#000000" points="156,-314.8113 156,-336.8113 452,-336.8113 452,-314.8113 156,-314.8113"/>
<text text-anchor="start" x="176" y="-321.9113" font-family="Helvetica,sans-Serif" font-size="11.00" fill="#000000">prison_code</text>
<polygon fill="none" stroke="#000000" points="452,-314.8113 452,-336.8113 536,-336.8113 536,-314.8113 452,-314.8113"/>
<text text-anchor="start" x="455" y="-322.5113" font-family="Helvetica,sans-Serif" font-size="11.00" fill="#000000">varchar[6]</text>
<polygon fill="#ffffff" stroke="transparent" points="156,-292.8113 156,-314.8113 452,-314.8113 452,-292.8113 156,-292.8113"/>
<polygon fill="none" stroke="#000000" points="156,-292.8113 156,-314.8113 452,-314.8113 452,-292.8113 156,-292.8113"/>
<text text-anchor="start" x="176" y="-299.9113" font-family="Helvetica,sans-Serif" font-size="11.00" fill="#000000">statistic_date</text>
<polygon fill="none" stroke="#000000" points="452,-292.8113 452,-314.8113 536,-314.8113 536,-292.8113 452,-292.8113"/>
<text text-anchor="start" x="454.8807" y="-300.5113" font-family="Helvetica,sans-Serif" font-size="11.00" fill="#000000">timestamp[29,6]</text>
<polygon fill="none" stroke="#000000" points="156,-270.8113 156,-292.8113 452,-292.8113 452,-270.8113 156,-270.8113"/>
<text text-anchor="start" x="176" y="-277.9113" font-family="Helvetica,sans-Serif" font-size="11.00" fill="#000000">prisoners_assigned_count</text>
<polygon fill="none" stroke="#000000" points="452,-270.8113 452,-292.8113 536,-292.8113 536,-270.8113 452,-270.8113"/>
<text text-anchor="start" x="455" y="-278.5113" font-family="Helvetica,sans-Serif" font-size="11.00" fill="#000000">int4[10]</text>
<polygon fill="none" stroke="#000000" points="156,-248.8113 156,-270.8113 452,-270.8113 452,-248.8113 156,-248.8113"/>
<text text-anchor="start" x="176" y="-255.9113" font-family="Helvetica,sans-Serif" font-size="11.00" fill="#000000">prisoner_count</text>
<polygon fill="none" stroke="#000000" points="452,-248.8113 452,-270.8113 536,-270.8113 536,-248.8113 452,-248.8113"/>
<text text-anchor="start" x="455" y="-256.5113" font-family="Helvetica,sans-Serif" font-size="11.00" fill="#000000">int4[10]</text>
<polygon fill="none" stroke="#000000" points="156,-226.8113 156,-248.8113 452,-248.8113 452,-226.8113 156,-226.8113"/>
<text text-anchor="start" x="176" y="-233.9113" font-family="Helvetica,sans-Serif" font-size="11.00" fill="#000000">eligible_staff_count</text>
<polygon fill="none" stroke="#000000" points="452,-226.8113 452,-248.8113 536,-248.8113 536,-226.8113 452,-226.8113"/>
<text text-anchor="start" x="455" y="-234.5113" font-family="Helvetica,sans-Serif" font-size="11.00" fill="#000000">int4[10]</text>
<polygon fill="none" stroke="#000000" points="156,-204.8113 156,-226.8113 452,-226.8113 452,-204.8113 156,-204.8113"/>
<text text-anchor="start" x="176" y="-211.9113" font-family="Helvetica,sans-Serif" font-size="11.00" fill="#000000">reception_to_allocation_days</text>
<polygon fill="none" stroke="#000000" points="452,-204.8113 452,-226.8113 536,-226.8113 536,-204.8113 452,-204.8113"/>
<text text-anchor="start" x="455" y="-212.5113" font-family="Helvetica,sans-Serif" font-size="11.00" fill="#000000">int4[10]</text>
<polygon fill="none" stroke="#000000" points="156,-182.8113 156,-204.8113 452,-204.8113 452,-182.8113 156,-182.8113"/>
<text text-anchor="start" x="176" y="-189.9113" font-family="Helvetica,sans-Serif" font-size="11.00" fill="#000000">reception_to_recorded_event_days</text>
<polygon fill="none" stroke="#000000" points="452,-182.8113 452,-204.8113 536,-204.8113 536,-182.8113 452,-182.8113"/>
<text text-anchor="start" x="455" y="-190.5113" font-family="Helvetica,sans-Serif" font-size="11.00" fill="#000000">int4[10]</text>
<polygon fill="none" stroke="#000000" points="156,-160.8113 156,-182.8113 452,-182.8113 452,-160.8113 156,-160.8113"/>
<text text-anchor="start" x="176" y="-167.9113" font-family="Helvetica,sans-Serif" font-size="11.00" fill="#000000">eligible_prisoner_count</text>
<polygon fill="none" stroke="#000000" points="452,-160.8113 452,-182.8113 536,-182.8113 536,-160.8113 452,-160.8113"/>
<text text-anchor="start" x="455" y="-168.5113" font-family="Helvetica,sans-Serif" font-size="11.00" fill="#000000">int4[10]</text>
<polygon fill="none" stroke="#000000" points="156,-138.8113 156,-160.8113 452,-160.8113 452,-138.8113 156,-138.8113"/>
<text text-anchor="start" x="176" y="-145.9113" font-family="Helvetica,sans-Serif" font-size="11.00" fill="#000000">high_complexity_of_need_prisoner_count</text>
<polygon fill="none" stroke="#000000" points="452,-138.8113 452,-160.8113 536,-160.8113 536,-138.8113 452,-138.8113"/>
<text text-anchor="start" x="455" y="-146.5113" font-family="Helvetica,sans-Serif" font-size="11.00" fill="#000000">int4[10]</text>
<polygon fill="none" stroke="#000000" points="156,-116.8113 156,-138.8113 452,-138.8113 452,-116.8113 156,-116.8113"/>
<image xlink:href="../../images/foreignKeys.png" width="11px" height="12px" preserveAspectRatio="xMinYMin meet" x="161" y="-133.811"/>
<text text-anchor="start" x="176" y="-123.9113" font-family="Helvetica,sans-Serif" font-size="11.00" fill="#000000">policy_code</text>
<polygon fill="none" stroke="#000000" points="452,-116.8113 452,-138.8113 536,-138.8113 536,-116.8113 452,-116.8113"/>
<text text-anchor="start" x="455" y="-124.5113" font-family="Helvetica,sans-Serif" font-size="11.00" fill="#000000">varchar[16]</text>
<polygon fill="#ffffff" stroke="transparent" points="156,-97.8113 156,-116.8113 308,-116.8113 308,-97.8113 156,-97.8113"/>
<polygon fill="none" stroke="#000000" points="156,-97.8113 156,-116.8113 308,-116.8113 308,-97.8113 156,-97.8113"/>
<text text-anchor="start" x="159" y="-103.9113" font-family="Helvetica,sans-Serif" font-size="11.00" fill="#000000">&lt; 1</text>
<polygon fill="#ffffff" stroke="transparent" points="308,-97.8113 308,-116.8113 452,-116.8113 452,-97.8113 308,-97.8113"/>
<polygon fill="none" stroke="#000000" points="308,-97.8113 308,-116.8113 452,-116.8113 452,-97.8113 308,-97.8113"/>
<text text-anchor="start" x="442.8862" y="-103.9113" font-family="Helvetica,sans-Serif" font-size="11.00" fill="#000000"> &#160;</text>
<polygon fill="#ffffff" stroke="transparent" points="452,-97.8113 452,-116.8113 536,-116.8113 536,-97.8113 452,-97.8113"/>
<polygon fill="none" stroke="#000000" points="452,-97.8113 452,-116.8113 536,-116.8113 536,-97.8113 452,-97.8113"/>
<text text-anchor="start" x="517.4053" y="-103.9113" font-family="Helvetica,sans-Serif" font-size="11.00" fill="#000000">1 &gt;</text>
<polygon fill="none" stroke="#000000" stroke-width="2" points="155,-96.8113 155,-382.8113 537,-382.8113 537,-96.8113 155,-96.8113"/>
</a>
</g>
</g>
<!-- policy -->
<g id="node2" class="node">
<title>policy</title>
<g id="a_node2"><a xlink:href="../../tables/policy.html" xlink:title="policy" target="_top">
<polygon fill="#ffffff" stroke="transparent" points="8,-51.3113 8,-134.3113 105,-134.3113 105,-51.3113 8,-51.3113"/>
<polygon fill="#f5f5f5" stroke="transparent" points="8.5,-110.8113 8.5,-133.8113 105.5,-133.8113 105.5,-110.8113 8.5,-110.8113"/>
<polygon fill="none" stroke="#000000" points="8.5,-110.8113 8.5,-133.8113 105.5,-133.8113 105.5,-110.8113 8.5,-110.8113"/>
<text text-anchor="start" x="13.5" y="-119.4113" font-family="Helvetica,sans-Serif" font-weight="bold" font-size="11.00" fill="#000000">policy</text>
<text text-anchor="start" x="70.5437" y="-118.9113" font-family="Helvetica,sans-Serif" font-size="11.00" fill="#000000">[table]</text>
<polygon fill="none" stroke="#000000" points="8.5,-88.8113 8.5,-110.8113 105.5,-110.8113 105.5,-88.8113 8.5,-88.8113"/>
<image xlink:href="../../images/primaryKeys.png" width="11px" height="12px" preserveAspectRatio="xMinYMin meet" x="13.5" y="-105.811"/>
<text text-anchor="start" x="28.5" y="-95.9113" font-family="Helvetica,sans-Serif" font-size="11.00" fill="#000000">code</text>
<polygon fill="none" stroke="#000000" points="8.5,-69.8113 8.5,-88.8113 105.5,-88.8113 105.5,-69.8113 8.5,-69.8113"/>
<text text-anchor="start" x="11.5" y="-75.9113" font-family="Helvetica,sans-Serif" font-size="11.00" fill="#000000">...</text>
<polygon fill="#ffffff" stroke="transparent" points="8.5,-50.8113 8.5,-69.8113 46.5,-69.8113 46.5,-50.8113 8.5,-50.8113"/>
<polygon fill="none" stroke="#000000" points="8.5,-50.8113 8.5,-69.8113 46.5,-69.8113 46.5,-50.8113 8.5,-50.8113"/>
<text text-anchor="start" x="11.5" y="-56.9113" font-family="Helvetica,sans-Serif" font-size="11.00" fill="#000000"> &#160;</text>
<polygon fill="#ffffff" stroke="transparent" points="46.5,-50.8113 46.5,-69.8113 71.5,-69.8113 71.5,-50.8113 46.5,-50.8113"/>
<polygon fill="none" stroke="#000000" points="46.5,-50.8113 46.5,-69.8113 71.5,-69.8113 71.5,-50.8113 46.5,-50.8113"/>
<text text-anchor="start" x="62.3862" y="-56.9113" font-family="Helvetica,sans-Serif" font-size="11.00" fill="#000000"> &#160;</text>
<polygon fill="#ffffff" stroke="transparent" points="71.5,-50.8113 71.5,-69.8113 105.5,-69.8113 105.5,-50.8113 71.5,-50.8113"/>
<polygon fill="none" stroke="#000000" points="71.5,-50.8113 71.5,-69.8113 105.5,-69.8113 105.5,-50.8113 71.5,-50.8113"/>
<text text-anchor="start" x="86.9053" y="-56.9113" font-family="Helvetica,sans-Serif" font-size="11.00" fill="#000000">8 &gt;</text>
</a>
</g>
</g>
<!-- prison_statistic&#45;&gt;policy -->
<g id="edge1" class="edge">
<title>prison_statistic:w&#45;&gt;policy:e</title>
<path fill="none" stroke="#000000" d="M142.02,-124.1508C129.3515,-116.561 125.3491,-99.8113 105.5,-99.8113"/>
<polygon fill="#000000" stroke="#000000" points="148.2609,-125.7849 155.0881,-131.2939 152.1304,-126.7981 156,-127.8113 156,-127.8113 156,-127.8113 152.1304,-126.7981 156.9119,-124.3287 148.2609,-125.7849 148.2609,-125.7849"/>
<ellipse fill="none" stroke="#000000" cx="145.1653" cy="-124.9743" rx="3.2" ry="3.2"/>
</g>
<!-- prisoner_statistic -->
<g id="node3" class="node">
<title>prisoner_statistic</title>
<g id="a_node3"><a xlink:href="../../tables/prisoner_statistic.html" xlink:title="prisoner_statistic" target="_top">
<polygon fill="#ffffff" stroke="transparent" points="587,-139.3113 587,-288.3113 780,-288.3113 780,-139.3113 587,-139.3113"/>
<polygon fill="#f5f5f5" stroke="transparent" points="587.5,-264.8113 587.5,-287.8113 780.5,-287.8113 780.5,-264.8113 587.5,-264.8113"/>
<polygon fill="none" stroke="#000000" points="587.5,-264.8113 587.5,-287.8113 780.5,-287.8113 780.5,-264.8113 587.5,-264.8113"/>
<text text-anchor="start" x="592.5" y="-273.4113" font-family="Helvetica,sans-Serif" font-weight="bold" font-size="11.00" fill="#000000">prisoner_statistic</text>
<text text-anchor="start" x="745.5437" y="-272.9113" font-family="Helvetica,sans-Serif" font-size="11.00" fill="#000000">[table]</text>
<polygon fill="none" stroke="#000000" points="587.5,-242.8113 587.5,-264.8113 780.5,-264.8113 780.5,-242.8113 587.5,-242.8113"/>
<image xlink:href="../../images/primaryKeys.png" width="11px" height="12px" preserveAspectRatio="xMinYMin meet" x="592.5" y="-259.811"/>
<text text-anchor="start" x="607.5" y="-249.9113" font-family="Helvetica,sans-Serif" font-size="11.00" fill="#000000">id</text>
<polygon fill="#ffffff" stroke="transparent" points="587.5,-220.8113 587.5,-242.8113 780.5,-242.8113 780.5,-220.8113 587.5,-220.8113"/>
<polygon fill="none" stroke="#000000" points="587.5,-220.8113 587.5,-242.8113 780.5,-242.8113 780.5,-220.8113 587.5,-220.8113"/>
<image xlink:href="../../images/foreignKeys.png" width="11px" height="12px" preserveAspectRatio="xMinYMin meet" x="592.5" y="-237.811"/>
<text text-anchor="start" x="607.5" y="-227.9113" font-family="Helvetica,sans-Serif" font-size="11.00" fill="#000000">prison_statistic_id</text>
<polygon fill="#ffffff" stroke="transparent" points="587.5,-198.8113 587.5,-220.8113 780.5,-220.8113 780.5,-198.8113 587.5,-198.8113"/>
<polygon fill="none" stroke="#000000" points="587.5,-198.8113 587.5,-220.8113 780.5,-220.8113 780.5,-198.8113 587.5,-198.8113"/>
<text text-anchor="start" x="607.5" y="-205.9113" font-family="Helvetica,sans-Serif" font-size="11.00" fill="#000000">person_identifier</text>
<polygon fill="none" stroke="#000000" points="587.5,-176.8113 587.5,-198.8113 780.5,-198.8113 780.5,-176.8113 587.5,-176.8113"/>
<image xlink:href="../../images/foreignKeys.png" width="11px" height="12px" preserveAspectRatio="xMinYMin meet" x="592.5" y="-193.811"/>
<text text-anchor="start" x="607.5" y="-183.9113" font-family="Helvetica,sans-Serif" font-size="11.00" fill="#000000">policy_code</text>
<polygon fill="none" stroke="#000000" points="587.5,-157.8113 587.5,-176.8113 780.5,-176.8113 780.5,-157.8113 587.5,-157.8113"/>
<text text-anchor="start" x="590.5" y="-163.9113" font-family="Helvetica,sans-Serif" font-size="11.00" fill="#000000">...</text>
<polygon fill="#ffffff" stroke="transparent" points="587.5,-138.8113 587.5,-157.8113 682.5,-157.8113 682.5,-138.8113 587.5,-138.8113"/>
<polygon fill="none" stroke="#000000" points="587.5,-138.8113 587.5,-157.8113 682.5,-157.8113 682.5,-138.8113 587.5,-138.8113"/>
<text text-anchor="start" x="590.5" y="-144.9113" font-family="Helvetica,sans-Serif" font-size="11.00" fill="#000000">&lt; 2</text>
<polygon fill="#ffffff" stroke="transparent" points="682.5,-138.8113 682.5,-157.8113 731.5,-157.8113 731.5,-138.8113 682.5,-138.8113"/>
<polygon fill="none" stroke="#000000" points="682.5,-138.8113 682.5,-157.8113 731.5,-157.8113 731.5,-138.8113 682.5,-138.8113"/>
<text text-anchor="start" x="722.3862" y="-144.9113" font-family="Helvetica,sans-Serif" font-size="11.00" fill="#000000"> &#160;</text>
<polygon fill="#ffffff" stroke="transparent" points="731.5,-138.8113 731.5,-157.8113 780.5,-157.8113 780.5,-138.8113 731.5,-138.8113"/>
<polygon fill="none" stroke="#000000" points="731.5,-138.8113 731.5,-157.8113 780.5,-157.8113 780.5,-138.8113 731.5,-138.8113"/>
<text text-anchor="start" x="771.3862" y="-144.9113" font-family="Helvetica,sans-Serif" font-size="11.00" fill="#000000"> &#160;</text>
</a>
</g>
</g>
<!-- prisoner_statistic&#45;&gt;prison_statistic -->
<g id="edge3" class="edge">
<title>prisoner_statistic:w&#45;&gt;prison_statistic:e</title>
<path fill="none" stroke="#000000" d="M573.3045,-235.4101C542.7162,-254.9897 586.4588,-347.8113 536,-347.8113"/>
<polygon fill="#000000" stroke="#000000" points="579.7453,-233.7773 588.3847,-235.3009 583.6227,-232.7943 587.5,-231.8113 587.5,-231.8113 587.5,-231.8113 583.6227,-232.7943 586.6153,-228.3217 579.7453,-233.7773 579.7453,-233.7773"/>
<ellipse fill="none" stroke="#000000" cx="576.6435" cy="-234.5637" rx="3.2" ry="3.2"/>
</g>
<!-- prisoner_statistic&#45;&gt;policy -->
<g id="edge2" class="edge">
<title>prisoner_statistic:w&#45;&gt;policy:e</title>
<path fill="none" stroke="#000000" d="M573.3307,-184.549C549.1853,-169.881 581.532,-109.715 546,-85.8113 398.4946,13.4212 321.3219,-56.3636 146,-85.8113 127.218,-88.966 124.5451,-99.8113 105.5,-99.8113"/>
<polygon fill="#000000" stroke="#000000" points="579.704,-186.0163 586.6923,-191.3195 583.602,-186.9138 587.5,-187.8113 587.5,-187.8113 587.5,-187.8113 583.602,-186.9138 588.3077,-184.3031 579.704,-186.0163 579.704,-186.0163"/>
<ellipse fill="none" stroke="#000000" cx="576.5855" cy="-185.2983" rx="3.2" ry="3.2"/>
</g>
</g>
</svg>
