<?xml version="1.0" encoding="UTF-8" standalone="no"?>
<!DOCTYPE svg PUBLIC "-//W3C//DTD SVG 1.1//EN"
 "http://www.w3.org/Graphics/SVG/1.1/DTD/svg11.dtd">
<!-- Generated by graphviz version 2.40.1 (20161225.0304)
 -->
<!-- Title: twoDegreesRelationshipsDiagram Pages: 1 -->
<svg width="580pt" height="809pt"
 viewBox="0.00 0.00 580.00 809.20" xmlns="http://www.w3.org/2000/svg" xmlns:xlink="http://www.w3.org/1999/xlink">
<g id="graph0" class="graph" transform="scale(1 1) rotate(0) translate(4 805.2)">
<title>twoDegreesRelationshipsDiagram</title>
<polygon fill="#ffffff" stroke="transparent" points="-4,4 -4,-805.2 576,-805.2 576,4 -4,4"/>
<text text-anchor="middle" x="72.4936" y="-7.3" font-family="Helvetica,sans-Serif" font-size="11.00" fill="#000000">Generated by SchemaSpy</text>
<!-- allocation -->
<g id="node1" class="node">
<title>allocation</title>
<g id="a_node1"><a xlink:href="../../tables/allocation.html" xlink:title="allocation" target="_top">
<polygon fill="#ffffff" stroke="transparent" points="306.5,-736.2 306.5,-797.2 411.5,-797.2 411.5,-736.2 306.5,-736.2"/>
<polygon fill="#f5f5f5" stroke="transparent" points="307,-773.7 307,-796.7 412,-796.7 412,-773.7 307,-773.7"/>
<polygon fill="none" stroke="#000000" points="307,-773.7 307,-796.7 412,-796.7 412,-773.7 307,-773.7"/>
<text text-anchor="start" x="312" y="-782.3" font-family="Helvetica,sans-Serif" font-weight="bold" font-size="11.00" fill="#000000">allocation</text>
<text text-anchor="start" x="377.5219" y="-781.8" font-family="Helvetica,sans-Serif" font-size="11.00" fill="#000000">[table]</text>
<polygon fill="none" stroke="#000000" points="307,-754.7 307,-773.7 412,-773.7 412,-754.7 307,-754.7"/>
<text text-anchor="start" x="310" y="-760.8" font-family="Helvetica,sans-Serif" font-size="11.00" fill="#000000">...</text>
<polygon fill="#ffffff" stroke="transparent" points="307,-735.7 307,-754.7 358,-754.7 358,-735.7 307,-735.7"/>
<polygon fill="none" stroke="#000000" points="307,-735.7 307,-754.7 358,-754.7 358,-735.7 307,-735.7"/>
<text text-anchor="start" x="310" y="-741.8" font-family="Helvetica,sans-Serif" font-size="11.00" fill="#000000">&lt; 3</text>
<polygon fill="#ffffff" stroke="transparent" points="358,-735.7 358,-754.7 385,-754.7 385,-735.7 358,-735.7"/>
<polygon fill="none" stroke="#000000" points="358,-735.7 358,-754.7 385,-754.7 385,-735.7 358,-735.7"/>
<text text-anchor="start" x="375.8862" y="-741.8" font-family="Helvetica,sans-Serif" font-size="11.00" fill="#000000"> &#160;</text>
<polygon fill="#ffffff" stroke="transparent" points="385,-735.7 385,-754.7 412,-754.7 412,-735.7 385,-735.7"/>
<polygon fill="none" stroke="#000000" points="385,-735.7 385,-754.7 412,-754.7 412,-735.7 385,-735.7"/>
<text text-anchor="start" x="402.8862" y="-741.8" font-family="Helvetica,sans-Serif" font-size="11.00" fill="#000000"> &#160;</text>
</a>
</g>
</g>
<!-- policy -->
<g id="node2" class="node">
<title>policy</title>
<g id="a_node2"><a xlink:href="../../tables/policy.html" xlink:title="policy" target="_top">
<polygon fill="#ffffff" stroke="transparent" points="8,-263.2 8,-346.2 105,-346.2 105,-263.2 8,-263.2"/>
<polygon fill="#f5f5f5" stroke="transparent" points="8.5,-322.7 8.5,-345.7 105.5,-345.7 105.5,-322.7 8.5,-322.7"/>
<polygon fill="none" stroke="#000000" points="8.5,-322.7 8.5,-345.7 105.5,-345.7 105.5,-322.7 8.5,-322.7"/>
<text text-anchor="start" x="13.5" y="-331.3" font-family="Helvetica,sans-Serif" font-weight="bold" font-size="11.00" fill="#000000">policy</text>
<text text-anchor="start" x="70.5437" y="-330.8" font-family="Helvetica,sans-Serif" font-size="11.00" fill="#000000">[table]</text>
<polygon fill="none" stroke="#000000" points="8.5,-300.7 8.5,-322.7 105.5,-322.7 105.5,-300.7 8.5,-300.7"/>
<image xlink:href="../../images/primaryKeys.png" width="11px" height="12px" preserveAspectRatio="xMinYMin meet" x="13.5" y="-317.7"/>
<text text-anchor="start" x="28.5" y="-307.8" font-family="Helvetica,sans-Serif" font-size="11.00" fill="#000000">code</text>
<polygon fill="none" stroke="#000000" points="8.5,-281.7 8.5,-300.7 105.5,-300.7 105.5,-281.7 8.5,-281.7"/>
<text text-anchor="start" x="11.5" y="-287.8" font-family="Helvetica,sans-Serif" font-size="11.00" fill="#000000">...</text>
<polygon fill="#ffffff" stroke="transparent" points="8.5,-262.7 8.5,-281.7 46.5,-281.7 46.5,-262.7 8.5,-262.7"/>
<polygon fill="none" stroke="#000000" points="8.5,-262.7 8.5,-281.7 46.5,-281.7 46.5,-262.7 8.5,-262.7"/>
<text text-anchor="start" x="11.5" y="-268.8" font-family="Helvetica,sans-Serif" font-size="11.00" fill="#000000"> &#160;</text>
<polygon fill="#ffffff" stroke="transparent" points="46.5,-262.7 46.5,-281.7 71.5,-281.7 71.5,-262.7 46.5,-262.7"/>
<polygon fill="none" stroke="#000000" points="46.5,-262.7 46.5,-281.7 71.5,-281.7 71.5,-262.7 46.5,-262.7"/>
<text text-anchor="start" x="62.3862" y="-268.8" font-family="Helvetica,sans-Serif" font-size="11.00" fill="#000000"> &#160;</text>
<polygon fill="#ffffff" stroke="transparent" points="71.5,-262.7 71.5,-281.7 105.5,-281.7 105.5,-262.7 71.5,-262.7"/>
<polygon fill="none" stroke="#000000" points="71.5,-262.7 71.5,-281.7 105.5,-281.7 105.5,-262.7 71.5,-262.7"/>
<text text-anchor="start" x="86.9053" y="-268.8" font-family="Helvetica,sans-Serif" font-size="11.00" fill="#000000">7 &gt;</text>
</a>
</g>
</g>
<!-- allocation&#45;&gt;policy -->
<g id="edge1" class="edge">
<title>allocation:w&#45;&gt;policy:e</title>
<path fill="none" stroke="#000000" d="M292.391,-763.9146C228.0899,-765.7334 191.0756,-777.2738 146,-725.7 85.1677,-656.098 197.9392,-311.7 105.5,-311.7"/>
<polygon fill="#000000" stroke="#000000" points="299.0009,-763.8175 307.0529,-767.2996 303.0004,-763.7588 307,-763.7 307,-763.7 307,-763.7 303.0004,-763.7588 306.9471,-760.1004 299.0009,-763.8175 299.0009,-763.8175"/>
<ellipse fill="none" stroke="#000000" cx="295.8012" cy="-763.8646" rx="3.2" ry="3.2"/>
</g>
<!-- prison_configuration -->
<g id="node3" class="node">
<title>prison_configuration</title>
<g id="a_node3"><a xlink:href="../../tables/prison_configuration.html" xlink:title="prison_configuration" target="_top">
<polygon fill="#ffffff" stroke="transparent" points="154,-448.7 154,-714.7 564,-714.7 564,-448.7 154,-448.7"/>
<polygon fill="#f5f5f5" stroke="transparent" points="156,-689.7 156,-712.7 562,-712.7 562,-689.7 156,-689.7"/>
<polygon fill="none" stroke="#000000" points="156,-689.7 156,-712.7 562,-712.7 562,-689.7 156,-689.7"/>
<text text-anchor="start" x="161" y="-698.3" font-family="Helvetica,sans-Serif" font-weight="bold" font-size="11.00" fill="#000000">prison_configuration</text>
<text text-anchor="start" x="527.0437" y="-697.8" font-family="Helvetica,sans-Serif" font-size="11.00" fill="#000000">[table]</text>
<polygon fill="#ffffff" stroke="transparent" points="156,-667.7 156,-689.7 468,-689.7 468,-667.7 156,-667.7"/>
<polygon fill="none" stroke="#000000" points="156,-667.7 156,-689.7 468,-689.7 468,-667.7 156,-667.7"/>
<image xlink:href="../../images/foreignKeys.png" width="11px" height="12px" preserveAspectRatio="xMinYMin meet" x="161" y="-684.7"/>
<text text-anchor="start" x="176" y="-674.8" font-family="Helvetica,sans-Serif" font-size="11.00" fill="#000000">prison_code</text>
<polygon fill="none" stroke="#000000" points="468,-667.7 468,-689.7 562,-689.7 562,-667.7 468,-667.7"/>
<text text-anchor="start" x="471" y="-675.4" font-family="Helvetica,sans-Serif" font-size="11.00" fill="#000000">varchar[6]</text>
<polygon fill="none" stroke="#000000" points="156,-645.7 156,-667.7 468,-667.7 468,-645.7 156,-645.7"/>
<text text-anchor="start" x="176" y="-652.8" font-family="Helvetica,sans-Serif" font-size="11.00" fill="#000000">allow_auto_allocation</text>
<polygon fill="none" stroke="#000000" points="468,-645.7 468,-667.7 562,-667.7 562,-645.7 468,-645.7"/>
<text text-anchor="start" x="471" y="-653.4" font-family="Helvetica,sans-Serif" font-size="11.00" fill="#000000">bool[1]</text>
<polygon fill="none" stroke="#000000" points="156,-623.7 156,-645.7 468,-645.7 468,-623.7 156,-623.7"/>
<text text-anchor="start" x="176" y="-630.8" font-family="Helvetica,sans-Serif" font-size="11.00" fill="#000000">is_enabled</text>
<polygon fill="none" stroke="#000000" points="468,-623.7 468,-645.7 562,-645.7 562,-623.7 468,-623.7"/>
<text text-anchor="start" x="471" y="-631.4" font-family="Helvetica,sans-Serif" font-size="11.00" fill="#000000">bool[1]</text>
<polygon fill="none" stroke="#000000" points="156,-601.7 156,-623.7 468,-623.7 468,-601.7 156,-601.7"/>
<text text-anchor="start" x="176" y="-608.8" font-family="Helvetica,sans-Serif" font-size="11.00" fill="#000000">capacity</text>
<polygon fill="none" stroke="#000000" points="468,-601.7 468,-623.7 562,-623.7 562,-601.7 468,-601.7"/>
<text text-anchor="start" x="471" y="-609.4" font-family="Helvetica,sans-Serif" font-size="11.00" fill="#000000">int4[10]</text>
<polygon fill="none" stroke="#000000" points="156,-579.7 156,-601.7 468,-601.7 468,-579.7 156,-579.7"/>
<text text-anchor="start" x="176" y="-586.8" font-family="Helvetica,sans-Serif" font-size="11.00" fill="#000000">maximum_capacity</text>
<polygon fill="none" stroke="#000000" points="468,-579.7 468,-601.7 562,-601.7 562,-579.7 468,-579.7"/>
<text text-anchor="start" x="471" y="-587.4" font-family="Helvetica,sans-Serif" font-size="11.00" fill="#000000">int4[10]</text>
<polygon fill="none" stroke="#000000" points="156,-557.7 156,-579.7 468,-579.7 468,-557.7 156,-557.7"/>
<text text-anchor="start" x="176" y="-564.8" font-family="Helvetica,sans-Serif" font-size="11.00" fill="#000000">frequency_in_weeks</text>
<polygon fill="none" stroke="#000000" points="468,-557.7 468,-579.7 562,-579.7 562,-557.7 468,-557.7"/>
<text text-anchor="start" x="471" y="-565.4" font-family="Helvetica,sans-Serif" font-size="11.00" fill="#000000">int4[10]</text>
<polygon fill="none" stroke="#000000" points="156,-535.7 156,-557.7 468,-557.7 468,-535.7 156,-535.7"/>
<text text-anchor="start" x="176" y="-542.8" font-family="Helvetica,sans-Serif" font-size="11.00" fill="#000000">has_prisoners_with_high_complexity_needs</text>
<polygon fill="none" stroke="#000000" points="468,-535.7 468,-557.7 562,-557.7 562,-535.7 468,-535.7"/>
<text text-anchor="start" x="471" y="-543.4" font-family="Helvetica,sans-Serif" font-size="11.00" fill="#000000">bool[1]</text>
<polygon fill="#ffffff" stroke="transparent" points="156,-513.7 156,-535.7 468,-535.7 468,-513.7 156,-513.7"/>
<polygon fill="none" stroke="#000000" points="156,-513.7 156,-535.7 468,-535.7 468,-513.7 156,-513.7"/>
<image xlink:href="../../images/foreignKeys.png" width="11px" height="12px" preserveAspectRatio="xMinYMin meet" x="161" y="-530.7"/>
<text text-anchor="start" x="176" y="-520.8" font-family="Helvetica,sans-Serif" font-size="11.00" fill="#000000">policy_code</text>
<polygon fill="none" stroke="#000000" points="468,-513.7 468,-535.7 562,-535.7 562,-513.7 468,-513.7"/>
<text text-anchor="start" x="471" y="-521.4" font-family="Helvetica,sans-Serif" font-size="11.00" fill="#000000">varchar[16]</text>
<polygon fill="none" stroke="#000000" points="156,-491.7 156,-513.7 468,-513.7 468,-491.7 156,-491.7"/>
<image xlink:href="../../images/primaryKeys.png" width="11px" height="12px" preserveAspectRatio="xMinYMin meet" x="161" y="-508.7"/>
<text text-anchor="start" x="176" y="-498.8" font-family="Helvetica,sans-Serif" font-size="11.00" fill="#000000">id</text>
<polygon fill="none" stroke="#000000" points="468,-491.7 468,-513.7 562,-513.7 562,-491.7 468,-491.7"/>
<text text-anchor="start" x="470.9758" y="-499.4" font-family="Helvetica,sans-Serif" font-size="11.00" fill="#000000">uuid[2147483647]</text>
<polygon fill="none" stroke="#000000" points="156,-469.7 156,-491.7 468,-491.7 468,-469.7 156,-469.7"/>
<text text-anchor="start" x="176" y="-476.8" font-family="Helvetica,sans-Serif" font-size="11.00" fill="#000000">allocation_order</text>
<polygon fill="none" stroke="#000000" points="468,-469.7 468,-491.7 562,-491.7 562,-469.7 468,-469.7"/>
<text text-anchor="start" x="471" y="-477.4" font-family="Helvetica,sans-Serif" font-size="11.00" fill="#000000">varchar[15]</text>
<polygon fill="#ffffff" stroke="transparent" points="156,-450.7 156,-469.7 300,-469.7 300,-450.7 156,-450.7"/>
<polygon fill="none" stroke="#000000" points="156,-450.7 156,-469.7 300,-469.7 300,-450.7 156,-450.7"/>
<text text-anchor="start" x="159" y="-456.8" font-family="Helvetica,sans-Serif" font-size="11.00" fill="#000000">&lt; 1</text>
<polygon fill="#ffffff" stroke="transparent" points="300,-450.7 300,-469.7 468,-469.7 468,-450.7 300,-450.7"/>
<polygon fill="none" stroke="#000000" points="300,-450.7 300,-469.7 468,-469.7 468,-450.7 300,-450.7"/>
<text text-anchor="start" x="426.4956" y="-456.8" font-family="Helvetica,sans-Serif" font-size="11.00" fill="#000000">12 rows</text>
<polygon fill="#ffffff" stroke="transparent" points="468,-450.7 468,-469.7 562,-469.7 562,-450.7 468,-450.7"/>
<polygon fill="none" stroke="#000000" points="468,-450.7 468,-469.7 562,-469.7 562,-450.7 468,-450.7"/>
<text text-anchor="start" x="543.4053" y="-456.8" font-family="Helvetica,sans-Serif" font-size="11.00" fill="#000000">0 &gt;</text>
<polygon fill="none" stroke="#000000" stroke-width="2" points="155,-449.7 155,-713.7 563,-713.7 563,-449.7 155,-449.7"/>
</a>
</g>
</g>
<!-- prison_configuration&#45;&gt;policy -->
<g id="edge2" class="edge">
<title>prison_configuration:w&#45;&gt;policy:e</title>
<path fill="none" stroke="#000000" d="M141.7035,-522.7274C74.2565,-501.2544 197.2803,-311.7 105.5,-311.7"/>
<polygon fill="#000000" stroke="#000000" points="148.0751,-523.6065 155.5079,-528.2662 152.0375,-524.1532 156,-524.7 156,-524.7 156,-524.7 152.0375,-524.1532 156.4921,-521.1338 148.0751,-523.6065 148.0751,-523.6065"/>
<ellipse fill="none" stroke="#000000" cx="144.9051" cy="-523.1691" rx="3.2" ry="3.2"/>
</g>
<!-- prison_statistic -->
<g id="node4" class="node">
<title>prison_statistic</title>
<g id="a_node4"><a xlink:href="../../tables/prison_statistic.html" xlink:title="prison_statistic" target="_top">
<polygon fill="#ffffff" stroke="transparent" points="288,-366.2 288,-427.2 430,-427.2 430,-366.2 288,-366.2"/>
<polygon fill="#f5f5f5" stroke="transparent" points="288,-403.7 288,-426.7 430,-426.7 430,-403.7 288,-403.7"/>
<polygon fill="none" stroke="#000000" points="288,-403.7 288,-426.7 430,-426.7 430,-403.7 288,-403.7"/>
<text text-anchor="start" x="293" y="-412.3" font-family="Helvetica,sans-Serif" font-weight="bold" font-size="11.00" fill="#000000">prison_statistic</text>
<text text-anchor="start" x="395.5219" y="-411.8" font-family="Helvetica,sans-Serif" font-size="11.00" fill="#000000">[table]</text>
<polygon fill="none" stroke="#000000" points="288,-384.7 288,-403.7 430,-403.7 430,-384.7 288,-384.7"/>
<text text-anchor="start" x="291" y="-390.8" font-family="Helvetica,sans-Serif" font-size="11.00" fill="#000000">...</text>
<polygon fill="#ffffff" stroke="transparent" points="288,-365.7 288,-384.7 357,-384.7 357,-365.7 288,-365.7"/>
<polygon fill="none" stroke="#000000" points="288,-365.7 288,-384.7 357,-384.7 357,-365.7 288,-365.7"/>
<text text-anchor="start" x="291" y="-371.8" font-family="Helvetica,sans-Serif" font-size="11.00" fill="#000000">&lt; 1</text>
<polygon fill="#ffffff" stroke="transparent" points="357,-365.7 357,-384.7 393,-384.7 393,-365.7 357,-365.7"/>
<polygon fill="none" stroke="#000000" points="357,-365.7 357,-384.7 393,-384.7 393,-365.7 357,-365.7"/>
<text text-anchor="start" x="383.8862" y="-371.8" font-family="Helvetica,sans-Serif" font-size="11.00" fill="#000000"> &#160;</text>
<polygon fill="#ffffff" stroke="transparent" points="393,-365.7 393,-384.7 430,-384.7 430,-365.7 393,-365.7"/>
<polygon fill="none" stroke="#000000" points="393,-365.7 393,-384.7 430,-384.7 430,-365.7 393,-365.7"/>
<text text-anchor="start" x="420.8862" y="-371.8" font-family="Helvetica,sans-Serif" font-size="11.00" fill="#000000"> &#160;</text>
</a>
</g>
</g>
<!-- prison_statistic&#45;&gt;policy -->
<g id="edge3" class="edge">
<title>prison_statistic:w&#45;&gt;policy:e</title>
<path fill="none" stroke="#000000" d="M273.4658,-393.6113C219.2082,-392.8661 197.5293,-386.8787 146,-355.7 123.2601,-341.9408 132.0786,-311.7 105.5,-311.7"/>
<polygon fill="#000000" stroke="#000000" points="280.0001,-393.6511 287.978,-397.2999 284.0001,-393.6756 288,-393.7 288,-393.7 288,-393.7 284.0001,-393.6756 288.022,-390.1001 280.0001,-393.6511 280.0001,-393.6511"/>
<ellipse fill="none" stroke="#000000" cx="276.8002" cy="-393.6316" rx="3.2" ry="3.2"/>
</g>
<!-- recorded_event -->
<g id="node5" class="node">
<title>recorded_event</title>
<g id="a_node5"><a xlink:href="../../tables/recorded_event.html" xlink:title="recorded_event" target="_top">
<polygon fill="#ffffff" stroke="transparent" points="287,-284.2 287,-345.2 431,-345.2 431,-284.2 287,-284.2"/>
<polygon fill="#f5f5f5" stroke="transparent" points="287,-321.7 287,-344.7 431,-344.7 431,-321.7 287,-321.7"/>
<polygon fill="none" stroke="#000000" points="287,-321.7 287,-344.7 431,-344.7 431,-321.7 287,-321.7"/>
<text text-anchor="start" x="292" y="-330.3" font-family="Helvetica,sans-Serif" font-weight="bold" font-size="11.00" fill="#000000">recorded_event</text>
<text text-anchor="start" x="396.5219" y="-329.8" font-family="Helvetica,sans-Serif" font-size="11.00" fill="#000000">[table]</text>
<polygon fill="none" stroke="#000000" points="287,-302.7 287,-321.7 431,-321.7 431,-302.7 287,-302.7"/>
<text text-anchor="start" x="290" y="-308.8" font-family="Helvetica,sans-Serif" font-size="11.00" fill="#000000">...</text>
<polygon fill="#ffffff" stroke="transparent" points="287,-283.7 287,-302.7 357,-302.7 357,-283.7 287,-283.7"/>
<polygon fill="none" stroke="#000000" points="287,-283.7 287,-302.7 357,-302.7 357,-283.7 287,-283.7"/>
<text text-anchor="start" x="290" y="-289.8" font-family="Helvetica,sans-Serif" font-size="11.00" fill="#000000">&lt; 2</text>
<polygon fill="#ffffff" stroke="transparent" points="357,-283.7 357,-302.7 394,-302.7 394,-283.7 357,-283.7"/>
<polygon fill="none" stroke="#000000" points="357,-283.7 357,-302.7 394,-302.7 394,-283.7 357,-283.7"/>
<text text-anchor="start" x="384.8862" y="-289.8" font-family="Helvetica,sans-Serif" font-size="11.00" fill="#000000"> &#160;</text>
<polygon fill="#ffffff" stroke="transparent" points="394,-283.7 394,-302.7 431,-302.7 431,-283.7 394,-283.7"/>
<polygon fill="none" stroke="#000000" points="394,-283.7 394,-302.7 431,-302.7 431,-283.7 394,-283.7"/>
<text text-anchor="start" x="421.8862" y="-289.8" font-family="Helvetica,sans-Serif" font-size="11.00" fill="#000000"> &#160;</text>
</a>
</g>
</g>
<!-- recorded_event&#45;&gt;policy -->
<g id="edge4" class="edge">
<title>recorded_event:w&#45;&gt;policy:e</title>
<path fill="none" stroke="#000000" d="M272.5544,-311.7C203.5762,-311.7 181.125,-311.7 105.5,-311.7"/>
<polygon fill="#000000" stroke="#000000" points="279,-311.7001 287,-315.3 283,-311.7 287,-311.7 287,-311.7 287,-311.7 283,-311.7 287,-308.1 279,-311.7001 279,-311.7001"/>
<ellipse fill="none" stroke="#000000" cx="275.8" cy="-311.7001" rx="3.2" ry="3.2"/>
</g>
<!-- recorded_event_audit -->
<g id="node6" class="node">
<title>recorded_event_audit</title>
<g id="a_node6"><a xlink:href="../../tables/recorded_event_audit.html" xlink:title="recorded_event_audit" target="_top">
<polygon fill="#ffffff" stroke="transparent" points="266.5,-202.2 266.5,-263.2 451.5,-263.2 451.5,-202.2 266.5,-202.2"/>
<polygon fill="#f5f5f5" stroke="transparent" points="267,-239.7 267,-262.7 452,-262.7 452,-239.7 267,-239.7"/>
<polygon fill="none" stroke="#000000" points="267,-239.7 267,-262.7 452,-262.7 452,-239.7 267,-239.7"/>
<text text-anchor="start" x="272" y="-248.3" font-family="Helvetica,sans-Serif" font-weight="bold" font-size="11.00" fill="#000000">recorded_event_audit</text>
<text text-anchor="start" x="417.5219" y="-247.8" font-family="Helvetica,sans-Serif" font-size="11.00" fill="#000000">[table]</text>
<polygon fill="none" stroke="#000000" points="267,-220.7 267,-239.7 452,-239.7 452,-220.7 267,-220.7"/>
<text text-anchor="start" x="270" y="-226.8" font-family="Helvetica,sans-Serif" font-size="11.00" fill="#000000">...</text>
<polygon fill="#ffffff" stroke="transparent" points="267,-201.7 267,-220.7 358,-220.7 358,-201.7 267,-201.7"/>
<polygon fill="none" stroke="#000000" points="267,-201.7 267,-220.7 358,-220.7 358,-201.7 267,-201.7"/>
<text text-anchor="start" x="270" y="-207.8" font-family="Helvetica,sans-Serif" font-size="11.00" fill="#000000">&lt; 2</text>
<polygon fill="#ffffff" stroke="transparent" points="358,-201.7 358,-220.7 405,-220.7 405,-201.7 358,-201.7"/>
<polygon fill="none" stroke="#000000" points="358,-201.7 358,-220.7 405,-220.7 405,-201.7 358,-201.7"/>
<text text-anchor="start" x="395.8862" y="-207.8" font-family="Helvetica,sans-Serif" font-size="11.00" fill="#000000"> &#160;</text>
<polygon fill="#ffffff" stroke="transparent" points="405,-201.7 405,-220.7 452,-220.7 452,-201.7 405,-201.7"/>
<polygon fill="none" stroke="#000000" points="405,-201.7 405,-220.7 452,-220.7 452,-201.7 405,-201.7"/>
<text text-anchor="start" x="442.8862" y="-207.8" font-family="Helvetica,sans-Serif" font-size="11.00" fill="#000000"> &#160;</text>
</a>
</g>
</g>
<!-- recorded_event_audit&#45;&gt;policy -->
<g id="edge5" class="edge">
<title>recorded_event_audit:w&#45;&gt;policy:e</title>
<path fill="none" stroke="#000000" d="M252.5433,-230.0412C206.8045,-232.3502 190.3693,-246.4257 146,-273.7 124.9725,-286.6259 130.1827,-311.7 105.5,-311.7"/>
<polygon fill="#000000" stroke="#000000" points="259.0022,-229.8888 267.085,-233.299 263.0011,-229.7944 267,-229.7 267,-229.7 267,-229.7 263.0011,-229.7944 266.915,-226.101 259.0022,-229.8888 259.0022,-229.8888"/>
<ellipse fill="none" stroke="#000000" cx="255.8031" cy="-229.9643" rx="3.2" ry="3.2"/>
</g>
<!-- reference_data_policy -->
<g id="node7" class="node">
<title>reference_data_policy</title>
<g id="a_node7"><a xlink:href="../../tables/reference_data_policy.html" xlink:title="reference_data_policy" target="_top">
<polygon fill="#ffffff" stroke="transparent" points="266,-120.2 266,-181.2 452,-181.2 452,-120.2 266,-120.2"/>
<polygon fill="#f5f5f5" stroke="transparent" points="266,-157.7 266,-180.7 452,-180.7 452,-157.7 266,-157.7"/>
<polygon fill="none" stroke="#000000" points="266,-157.7 266,-180.7 452,-180.7 452,-157.7 266,-157.7"/>
<text text-anchor="start" x="271" y="-166.3" font-family="Helvetica,sans-Serif" font-weight="bold" font-size="11.00" fill="#000000">reference_data_policy</text>
<text text-anchor="start" x="417.5219" y="-165.8" font-family="Helvetica,sans-Serif" font-size="11.00" fill="#000000">[table]</text>
<polygon fill="none" stroke="#000000" points="266,-138.7 266,-157.7 452,-157.7 452,-138.7 266,-138.7"/>
<text text-anchor="start" x="269" y="-144.8" font-family="Helvetica,sans-Serif" font-size="11.00" fill="#000000">...</text>
<polygon fill="#ffffff" stroke="transparent" points="266,-119.7 266,-138.7 357,-138.7 357,-119.7 266,-119.7"/>
<polygon fill="none" stroke="#000000" points="266,-119.7 266,-138.7 357,-138.7 357,-119.7 266,-119.7"/>
<text text-anchor="start" x="269" y="-125.8" font-family="Helvetica,sans-Serif" font-size="11.00" fill="#000000">&lt; 2</text>
<polygon fill="#ffffff" stroke="transparent" points="357,-119.7 357,-138.7 404,-138.7 404,-119.7 357,-119.7"/>
<polygon fill="none" stroke="#000000" points="357,-119.7 357,-138.7 404,-138.7 404,-119.7 357,-119.7"/>
<text text-anchor="start" x="394.8862" y="-125.8" font-family="Helvetica,sans-Serif" font-size="11.00" fill="#000000"> &#160;</text>
<polygon fill="#ffffff" stroke="transparent" points="404,-119.7 404,-138.7 452,-138.7 452,-119.7 404,-119.7"/>
<polygon fill="none" stroke="#000000" points="404,-119.7 404,-138.7 452,-138.7 452,-119.7 404,-119.7"/>
<text text-anchor="start" x="442.8862" y="-125.8" font-family="Helvetica,sans-Serif" font-size="11.00" fill="#000000"> &#160;</text>
</a>
</g>
</g>
<!-- reference_data_policy&#45;&gt;policy -->
<g id="edge6" class="edge">
<title>reference_data_policy:w&#45;&gt;policy:e</title>
<path fill="none" stroke="#000000" d="M251.4586,-147.805C204.8327,-148.5973 182.0814,-154.67 146,-191.7 106.7175,-232.0153 161.7889,-311.7 105.5,-311.7"/>
<polygon fill="#000000" stroke="#000000" points="258.0002,-147.7578 266.026,-151.2999 262.0001,-147.7289 266,-147.7 266,-147.7 266,-147.7 262.0001,-147.7289 265.974,-144.1001 258.0002,-147.7578 258.0002,-147.7578"/>
<ellipse fill="none" stroke="#000000" cx="254.8003" cy="-147.7809" rx="3.2" ry="3.2"/>
</g>
<!-- staff_configuration -->
<g id="node8" class="node">
<title>staff_configuration</title>
<g id="a_node8"><a xlink:href="../../tables/staff_configuration.html" xlink:title="staff_configuration" target="_top">
<polygon fill="#ffffff" stroke="transparent" points="275.5,-38.2 275.5,-99.2 442.5,-99.2 442.5,-38.2 275.5,-38.2"/>
<polygon fill="#f5f5f5" stroke="transparent" points="276,-75.7 276,-98.7 443,-98.7 443,-75.7 276,-75.7"/>
<polygon fill="none" stroke="#000000" points="276,-75.7 276,-98.7 443,-98.7 443,-75.7 276,-75.7"/>
<text text-anchor="start" x="281" y="-84.3" font-family="Helvetica,sans-Serif" font-weight="bold" font-size="11.00" fill="#000000">staff_configuration</text>
<text text-anchor="start" x="408.5219" y="-83.8" font-family="Helvetica,sans-Serif" font-size="11.00" fill="#000000">[table]</text>
<polygon fill="none" stroke="#000000" points="276,-56.7 276,-75.7 443,-75.7 443,-56.7 276,-56.7"/>
<text text-anchor="start" x="279" y="-62.8" font-family="Helvetica,sans-Serif" font-size="11.00" fill="#000000">...</text>
<polygon fill="#ffffff" stroke="transparent" points="276,-37.7 276,-56.7 358,-56.7 358,-37.7 276,-37.7"/>
<polygon fill="none" stroke="#000000" points="276,-37.7 276,-56.7 358,-56.7 358,-37.7 276,-37.7"/>
<text text-anchor="start" x="279" y="-43.8" font-family="Helvetica,sans-Serif" font-size="11.00" fill="#000000">&lt; 2</text>
<polygon fill="#ffffff" stroke="transparent" points="358,-37.7 358,-56.7 400,-56.7 400,-37.7 358,-37.7"/>
<polygon fill="none" stroke="#000000" points="358,-37.7 358,-56.7 400,-56.7 400,-37.7 358,-37.7"/>
<text text-anchor="start" x="390.8862" y="-43.8" font-family="Helvetica,sans-Serif" font-size="11.00" fill="#000000"> &#160;</text>
<polygon fill="#ffffff" stroke="transparent" points="400,-37.7 400,-56.7 443,-56.7 443,-37.7 400,-37.7"/>
<polygon fill="none" stroke="#000000" points="400,-37.7 400,-56.7 443,-56.7 443,-37.7 400,-37.7"/>
<text text-anchor="start" x="433.8862" y="-43.8" font-family="Helvetica,sans-Serif" font-size="11.00" fill="#000000"> &#160;</text>
</a>
</g>
</g>
<!-- staff_configuration&#45;&gt;policy -->
<g id="edge7" class="edge">
<title>staff_configuration:w&#45;&gt;policy:e</title>
<path fill="none" stroke="#000000" d="M261.2884,-65.6909C210.0956,-65.7316 182.8914,-67.7357 146,-109.7 85.5444,-178.4689 197.0645,-311.7 105.5,-311.7"/>
<polygon fill="#000000" stroke="#000000" points="268,-65.695 275.9978,-69.3 272,-65.6975 276,-65.7 276,-65.7 276,-65.7 272,-65.6975 276.0022,-62.1 268,-65.695 268,-65.695"/>
<ellipse fill="none" stroke="#000000" cx="264.8" cy="-65.693" rx="3.2" ry="3.2"/>
</g>
</g>
</svg>
