<?xml version="1.0" encoding="UTF-8" standalone="no"?>
<!DOCTYPE svg PUBLIC "-//W3C//DTD SVG 1.1//EN"
 "http://www.w3.org/Graphics/SVG/1.1/DTD/svg11.dtd">
<!-- Generated by graphviz version 2.40.1 (20161225.0304)
 -->
<!-- Title: oneDegreeRelationshipsDiagramImplied Pages: 1 -->
<svg width="726pt" height="316pt"
 viewBox="0.00 0.00 726.00 316.20" xmlns="http://www.w3.org/2000/svg" xmlns:xlink="http://www.w3.org/1999/xlink">
<g id="graph0" class="graph" transform="scale(1 1) rotate(0) translate(4 312.2)">
<title>oneDegreeRelationshipsDiagramImplied</title>
<polygon fill="#ffffff" stroke="transparent" points="-4,4 -4,-312.2 722,-312.2 722,4 -4,4"/>
<text text-anchor="middle" x="72.4936" y="-7.3" font-family="Helvetica,sans-Serif" font-size="11.00" fill="#000000">Generated by SchemaSpy</text>
<!-- prison_configuration -->
<g id="node1" class="node">
<title>prison_configuration</title>
<g id="a_node1"><a xlink:href="../../tables/prison_configuration.html" xlink:title="prison_configuration" target="_top">
<polygon fill="#ffffff" stroke="transparent" points="300,-38.2 300,-304.2 710,-304.2 710,-38.2 300,-38.2"/>
<polygon fill="#f5f5f5" stroke="transparent" points="302,-279.2 302,-302.2 708,-302.2 708,-279.2 302,-279.2"/>
<polygon fill="none" stroke="#000000" points="302,-279.2 302,-302.2 708,-302.2 708,-279.2 302,-279.2"/>
<text text-anchor="start" x="307" y="-287.8" font-family="Helvetica,sans-Serif" font-weight="bold" font-size="11.00" fill="#000000">prison_configuration</text>
<text text-anchor="start" x="673.0437" y="-287.3" font-family="Helvetica,sans-Serif" font-size="11.00" fill="#000000">[table]</text>
<polygon fill="#ffffff" stroke="transparent" points="302,-257.2 302,-279.2 614,-279.2 614,-257.2 302,-257.2"/>
<polygon fill="none" stroke="#000000" points="302,-257.2 302,-279.2 614,-279.2 614,-257.2 302,-257.2"/>
<image xlink:href="../../images/foreignKeys.png" width="11px" height="12px" preserveAspectRatio="xMinYMin meet" x="307" y="-274.2"/>
<text text-anchor="start" x="322" y="-264.3" font-family="Helvetica,sans-Serif" font-size="11.00" fill="#000000">prison_code</text>
<polygon fill="none" stroke="#000000" points="614,-257.2 614,-279.2 708,-279.2 708,-257.2 614,-257.2"/>
<text text-anchor="start" x="617" y="-264.9" font-family="Helvetica,sans-Serif" font-size="11.00" fill="#000000">varchar[6]</text>
<polygon fill="none" stroke="#000000" points="302,-235.2 302,-257.2 614,-257.2 614,-235.2 302,-235.2"/>
<text text-anchor="start" x="322" y="-242.3" font-family="Helvetica,sans-Serif" font-size="11.00" fill="#000000">allow_auto_allocation</text>
<polygon fill="none" stroke="#000000" points="614,-235.2 614,-257.2 708,-257.2 708,-235.2 614,-235.2"/>
<text text-anchor="start" x="617" y="-242.9" font-family="Helvetica,sans-Serif" font-size="11.00" fill="#000000">bool[1]</text>
<polygon fill="none" stroke="#000000" points="302,-213.2 302,-235.2 614,-235.2 614,-213.2 302,-213.2"/>
<text text-anchor="start" x="322" y="-220.3" font-family="Helvetica,sans-Serif" font-size="11.00" fill="#000000">is_enabled</text>
<polygon fill="none" stroke="#000000" points="614,-213.2 614,-235.2 708,-235.2 708,-213.2 614,-213.2"/>
<text text-anchor="start" x="617" y="-220.9" font-family="Helvetica,sans-Serif" font-size="11.00" fill="#000000">bool[1]</text>
<polygon fill="none" stroke="#000000" points="302,-191.2 302,-213.2 614,-213.2 614,-191.2 302,-191.2"/>
<text text-anchor="start" x="322" y="-198.3" font-family="Helvetica,sans-Serif" font-size="11.00" fill="#000000">capacity</text>
<polygon fill="none" stroke="#000000" points="614,-191.2 614,-213.2 708,-213.2 708,-191.2 614,-191.2"/>
<text text-anchor="start" x="617" y="-198.9" font-family="Helvetica,sans-Serif" font-size="11.00" fill="#000000">int4[10]</text>
<polygon fill="none" stroke="#000000" points="302,-169.2 302,-191.2 614,-191.2 614,-169.2 302,-169.2"/>
<text text-anchor="start" x="322" y="-176.3" font-family="Helvetica,sans-Serif" font-size="11.00" fill="#000000">maximum_capacity</text>
<polygon fill="none" stroke="#000000" points="614,-169.2 614,-191.2 708,-191.2 708,-169.2 614,-169.2"/>
<text text-anchor="start" x="617" y="-176.9" font-family="Helvetica,sans-Serif" font-size="11.00" fill="#000000">int4[10]</text>
<polygon fill="none" stroke="#000000" points="302,-147.2 302,-169.2 614,-169.2 614,-147.2 302,-147.2"/>
<text text-anchor="start" x="322" y="-154.3" font-family="Helvetica,sans-Serif" font-size="11.00" fill="#000000">frequency_in_weeks</text>
<polygon fill="none" stroke="#000000" points="614,-147.2 614,-169.2 708,-169.2 708,-147.2 614,-147.2"/>
<text text-anchor="start" x="617" y="-154.9" font-family="Helvetica,sans-Serif" font-size="11.00" fill="#000000">int4[10]</text>
<polygon fill="none" stroke="#000000" points="302,-125.2 302,-147.2 614,-147.2 614,-125.2 302,-125.2"/>
<text text-anchor="start" x="322" y="-132.3" font-family="Helvetica,sans-Serif" font-size="11.00" fill="#000000">has_prisoners_with_high_complexity_needs</text>
<polygon fill="none" stroke="#000000" points="614,-125.2 614,-147.2 708,-147.2 708,-125.2 614,-125.2"/>
<text text-anchor="start" x="617" y="-132.9" font-family="Helvetica,sans-Serif" font-size="11.00" fill="#000000">bool[1]</text>
<polygon fill="#ffffff" stroke="transparent" points="302,-103.2 302,-125.2 614,-125.2 614,-103.2 302,-103.2"/>
<polygon fill="none" stroke="#000000" points="302,-103.2 302,-125.2 614,-125.2 614,-103.2 302,-103.2"/>
<image xlink:href="../../images/foreignKeys.png" width="11px" height="12px" preserveAspectRatio="xMinYMin meet" x="307" y="-120.2"/>
<text text-anchor="start" x="322" y="-110.3" font-family="Helvetica,sans-Serif" font-size="11.00" fill="#000000">policy_code</text>
<polygon fill="none" stroke="#000000" points="614,-103.2 614,-125.2 708,-125.2 708,-103.2 614,-103.2"/>
<text text-anchor="start" x="617" y="-110.9" font-family="Helvetica,sans-Serif" font-size="11.00" fill="#000000">varchar[16]</text>
<polygon fill="none" stroke="#000000" points="302,-81.2 302,-103.2 614,-103.2 614,-81.2 302,-81.2"/>
<image xlink:href="../../images/primaryKeys.png" width="11px" height="12px" preserveAspectRatio="xMinYMin meet" x="307" y="-98.2"/>
<text text-anchor="start" x="322" y="-88.3" font-family="Helvetica,sans-Serif" font-size="11.00" fill="#000000">id</text>
<polygon fill="none" stroke="#000000" points="614,-81.2 614,-103.2 708,-103.2 708,-81.2 614,-81.2"/>
<text text-anchor="start" x="616.9758" y="-88.9" font-family="Helvetica,sans-Serif" font-size="11.00" fill="#000000">uuid[2147483647]</text>
<polygon fill="none" stroke="#000000" points="302,-59.2 302,-81.2 614,-81.2 614,-59.2 302,-59.2"/>
<text text-anchor="start" x="322" y="-66.3" font-family="Helvetica,sans-Serif" font-size="11.00" fill="#000000">allocation_order</text>
<polygon fill="none" stroke="#000000" points="614,-59.2 614,-81.2 708,-81.2 708,-59.2 614,-59.2"/>
<text text-anchor="start" x="617" y="-66.9" font-family="Helvetica,sans-Serif" font-size="11.00" fill="#000000">varchar[15]</text>
<polygon fill="#ffffff" stroke="transparent" points="302,-40.2 302,-59.2 446,-59.2 446,-40.2 302,-40.2"/>
<polygon fill="none" stroke="#000000" points="302,-40.2 302,-59.2 446,-59.2 446,-40.2 302,-40.2"/>
<text text-anchor="start" x="305" y="-46.3" font-family="Helvetica,sans-Serif" font-size="11.00" fill="#000000">&lt; 2</text>
<polygon fill="#ffffff" stroke="transparent" points="446,-40.2 446,-59.2 614,-59.2 614,-40.2 446,-40.2"/>
<polygon fill="none" stroke="#000000" points="446,-40.2 446,-59.2 614,-59.2 614,-40.2 446,-40.2"/>
<text text-anchor="start" x="572.4956" y="-46.3" font-family="Helvetica,sans-Serif" font-size="11.00" fill="#000000">12 rows</text>
<polygon fill="#ffffff" stroke="transparent" points="614,-40.2 614,-59.2 708,-59.2 708,-40.2 614,-40.2"/>
<polygon fill="none" stroke="#000000" points="614,-40.2 614,-59.2 708,-59.2 708,-40.2 614,-40.2"/>
<text text-anchor="start" x="689.4053" y="-46.3" font-family="Helvetica,sans-Serif" font-size="11.00" fill="#000000">0 &gt;</text>
<polygon fill="none" stroke="#000000" stroke-width="2" points="301,-39.2 301,-303.2 709,-303.2 709,-39.2 301,-39.2"/>
</a>
</g>
</g>
<!-- policy -->
<g id="node2" class="node">
<title>policy</title>
<g id="a_node2"><a xlink:href="../../tables/policy.html" xlink:title="policy" target="_top">
<polygon fill="#ffffff" stroke="transparent" points="81,-65.7 81,-148.7 178,-148.7 178,-65.7 81,-65.7"/>
<polygon fill="#f5f5f5" stroke="transparent" points="81.5,-125.2 81.5,-148.2 178.5,-148.2 178.5,-125.2 81.5,-125.2"/>
<polygon fill="none" stroke="#000000" points="81.5,-125.2 81.5,-148.2 178.5,-148.2 178.5,-125.2 81.5,-125.2"/>
<text text-anchor="start" x="86.5" y="-133.8" font-family="Helvetica,sans-Serif" font-weight="bold" font-size="11.00" fill="#000000">policy</text>
<text text-anchor="start" x="143.5437" y="-133.3" font-family="Helvetica,sans-Serif" font-size="11.00" fill="#000000">[table]</text>
<polygon fill="none" stroke="#000000" points="81.5,-103.2 81.5,-125.2 178.5,-125.2 178.5,-103.2 81.5,-103.2"/>
<image xlink:href="../../images/primaryKeys.png" width="11px" height="12px" preserveAspectRatio="xMinYMin meet" x="86.5" y="-120.2"/>
<text text-anchor="start" x="101.5" y="-110.3" font-family="Helvetica,sans-Serif" font-size="11.00" fill="#000000">code</text>
<polygon fill="none" stroke="#000000" points="81.5,-84.2 81.5,-103.2 178.5,-103.2 178.5,-84.2 81.5,-84.2"/>
<text text-anchor="start" x="84.5" y="-90.3" font-family="Helvetica,sans-Serif" font-size="11.00" fill="#000000">...</text>
<polygon fill="#ffffff" stroke="transparent" points="81.5,-65.2 81.5,-84.2 119.5,-84.2 119.5,-65.2 81.5,-65.2"/>
<polygon fill="none" stroke="#000000" points="81.5,-65.2 81.5,-84.2 119.5,-84.2 119.5,-65.2 81.5,-65.2"/>
<text text-anchor="start" x="84.5" y="-71.3" font-family="Helvetica,sans-Serif" font-size="11.00" fill="#000000"> &#160;</text>
<polygon fill="#ffffff" stroke="transparent" points="119.5,-65.2 119.5,-84.2 144.5,-84.2 144.5,-65.2 119.5,-65.2"/>
<polygon fill="none" stroke="#000000" points="119.5,-65.2 119.5,-84.2 144.5,-84.2 144.5,-65.2 119.5,-65.2"/>
<text text-anchor="start" x="135.3862" y="-71.3" font-family="Helvetica,sans-Serif" font-size="11.00" fill="#000000"> &#160;</text>
<polygon fill="#ffffff" stroke="transparent" points="144.5,-65.2 144.5,-84.2 178.5,-84.2 178.5,-65.2 144.5,-65.2"/>
<polygon fill="none" stroke="#000000" points="144.5,-65.2 144.5,-84.2 178.5,-84.2 178.5,-65.2 144.5,-65.2"/>
<text text-anchor="start" x="159.9053" y="-71.3" font-family="Helvetica,sans-Serif" font-size="11.00" fill="#000000">7 &gt;</text>
</a>
</g>
</g>
<!-- prison_configuration&#45;&gt;policy -->
<g id="edge1" class="edge">
<title>prison_configuration:w&#45;&gt;policy:e</title>
<path fill="none" stroke="#000000" d="M287.5801,-114.2C244.1764,-114.2 228.2431,-114.2 178.5,-114.2"/>
<polygon fill="#000000" stroke="#000000" points="294,-114.2001 302,-117.8 298,-114.2 302,-114.2 302,-114.2 302,-114.2 298,-114.2 302,-110.6 294,-114.2001 294,-114.2001"/>
<ellipse fill="none" stroke="#000000" cx="290.8" cy="-114.2001" rx="3.2" ry="3.2"/>
</g>
<!-- prison_migration_date_history -->
<g id="node3" class="node">
<title>prison_migration_date_history</title>
<g id="a_node3"><a xlink:href="../../tables/prison_migration_date_history.html" xlink:title="prison_migration_date_history" target="_top">
<polygon fill="#ffffff" stroke="transparent" points="8,-219.7 8,-302.7 251,-302.7 251,-219.7 8,-219.7"/>
<polygon fill="#f5f5f5" stroke="transparent" points="8.5,-279.2 8.5,-302.2 251.5,-302.2 251.5,-279.2 8.5,-279.2"/>
<polygon fill="none" stroke="#000000" points="8.5,-279.2 8.5,-302.2 251.5,-302.2 251.5,-279.2 8.5,-279.2"/>
<text text-anchor="start" x="13.5" y="-287.8" font-family="Helvetica,sans-Serif" font-weight="bold" font-size="11.00" fill="#000000">prison_migration_date_history</text>
<text text-anchor="start" x="217.0219" y="-287.3" font-family="Helvetica,sans-Serif" font-size="11.00" fill="#000000">[table]</text>
<polygon fill="none" stroke="#000000" points="8.5,-257.2 8.5,-279.2 251.5,-279.2 251.5,-257.2 8.5,-257.2"/>
<image xlink:href="../../images/primaryKeys.png" width="11px" height="12px" preserveAspectRatio="xMinYMin meet" x="13.5" y="-274.2"/>
<text text-anchor="start" x="37.5" y="-264.3" font-family="Helvetica,sans-Serif" font-size="11.00" fill="#000000">prison_code</text>
<polygon fill="none" stroke="#000000" points="8.5,-238.2 8.5,-257.2 251.5,-257.2 251.5,-238.2 8.5,-238.2"/>
<text text-anchor="start" x="11.5" y="-244.3" font-family="Helvetica,sans-Serif" font-size="11.00" fill="#000000">...</text>
<polygon fill="#ffffff" stroke="transparent" points="8.5,-219.2 8.5,-238.2 119.5,-238.2 119.5,-219.2 8.5,-219.2"/>
<polygon fill="none" stroke="#000000" points="8.5,-219.2 8.5,-238.2 119.5,-238.2 119.5,-219.2 8.5,-219.2"/>
<text text-anchor="start" x="11.5" y="-225.3" font-family="Helvetica,sans-Serif" font-size="11.00" fill="#000000"> &#160;</text>
<polygon fill="#ffffff" stroke="transparent" points="119.5,-219.2 119.5,-238.2 180.5,-238.2 180.5,-219.2 119.5,-219.2"/>
<polygon fill="none" stroke="#000000" points="119.5,-219.2 119.5,-238.2 180.5,-238.2 180.5,-219.2 119.5,-219.2"/>
<text text-anchor="start" x="171.3862" y="-225.3" font-family="Helvetica,sans-Serif" font-size="11.00" fill="#000000"> &#160;</text>
<polygon fill="#ffffff" stroke="transparent" points="180.5,-219.2 180.5,-238.2 251.5,-238.2 251.5,-219.2 180.5,-219.2"/>
<polygon fill="none" stroke="#000000" points="180.5,-219.2 180.5,-238.2 251.5,-238.2 251.5,-219.2 180.5,-219.2"/>
<text text-anchor="start" x="232.9053" y="-225.3" font-family="Helvetica,sans-Serif" font-size="11.00" fill="#000000">9 &gt;</text>
</a>
</g>
</g>
<!-- prison_configuration&#45;&gt;prison_migration_date_history -->
<g id="edge2" class="edge">
<title>prison_configuration:w&#45;&gt;prison_migration_date_history:e</title>
<path fill="none" stroke="#000000" stroke-dasharray="5,2" d="M287.4203,-268.2C275.5435,-268.2 268.158,-268.2 251.5,-268.2"/>
<polygon fill="#000000" stroke="#000000" points="294,-268.2001 302,-271.8 298,-268.2 302,-268.2 302,-268.2 302,-268.2 298,-268.2 302,-264.6 294,-268.2001 294,-268.2001"/>
<ellipse fill="none" stroke="#000000" cx="290.8" cy="-268.2001" rx="3.2" ry="3.2"/>
</g>
</g>
</svg>
