<?xml version="1.0" encoding="UTF-8" standalone="no"?>
<!DOCTYPE svg PUBLIC "-//W3C//DTD SVG 1.1//EN"
 "http://www.w3.org/Graphics/SVG/1.1/DTD/svg11.dtd">
<!-- Generated by graphviz version 2.40.1 (20161225.0304)
 -->
<!-- Title: oneDegreeRelationshipsDiagramImplied Pages: 1 -->
<svg width="791pt" height="488pt"
 viewBox="0.00 0.00 791.00 487.70" xmlns="http://www.w3.org/2000/svg" xmlns:xlink="http://www.w3.org/1999/xlink">
<g id="graph0" class="graph" transform="scale(1 1) rotate(0) translate(4 483.7)">
<title>oneDegreeRelationshipsDiagramImplied</title>
<polygon fill="#ffffff" stroke="transparent" points="-4,4 -4,-483.7 787,-483.7 787,4 -4,4"/>
<text text-anchor="middle" x="72.4936" y="-7.3" font-family="Helvetica,sans-Serif" font-size="11.00" fill="#000000">Generated by SchemaSpy</text>
<!-- prison_configuration_audit -->
<g id="node1" class="node">
<title>prison_configuration_audit</title>
<g id="a_node1"><a xlink:href="../../tables/prison_configuration_audit.html" xlink:title="prison_configuration_audit" target="_top">
<polygon fill="#ffffff" stroke="transparent" points="300,-38.2 300,-458.2 775,-458.2 775,-38.2 300,-38.2"/>
<polygon fill="#f5f5f5" stroke="transparent" points="302.5,-433.2 302.5,-456.2 773.5,-456.2 773.5,-433.2 302.5,-433.2"/>
<polygon fill="none" stroke="#000000" points="302.5,-433.2 302.5,-456.2 773.5,-456.2 773.5,-433.2 302.5,-433.2"/>
<text text-anchor="start" x="307.5" y="-441.8" font-family="Helvetica,sans-Serif" font-weight="bold" font-size="11.00" fill="#000000">prison_configuration_audit</text>
<text text-anchor="start" x="738.5437" y="-441.3" font-family="Helvetica,sans-Serif" font-size="11.00" fill="#000000">[table]</text>
<polygon fill="none" stroke="#000000" points="302.5,-411.2 302.5,-433.2 679.5,-433.2 679.5,-411.2 302.5,-411.2"/>
<image xlink:href="../../images/primaryKeys.png" width="11px" height="12px" preserveAspectRatio="xMinYMin meet" x="307.5" y="-428.2"/>
<text text-anchor="start" x="322.5" y="-418.3" font-family="Helvetica,sans-Serif" font-size="11.00" fill="#000000">rev_id</text>
<polygon fill="none" stroke="#000000" points="679.5,-411.2 679.5,-433.2 773.5,-433.2 773.5,-411.2 679.5,-411.2"/>
<text text-anchor="start" x="682.5" y="-418.9" font-family="Helvetica,sans-Serif" font-size="11.00" fill="#000000">int8[19]</text>
<polygon fill="none" stroke="#000000" points="302.5,-389.2 302.5,-411.2 679.5,-411.2 679.5,-389.2 302.5,-389.2"/>
<text text-anchor="start" x="322.5" y="-396.3" font-family="Helvetica,sans-Serif" font-size="11.00" fill="#000000">rev_type</text>
<polygon fill="none" stroke="#000000" points="679.5,-389.2 679.5,-411.2 773.5,-411.2 773.5,-389.2 679.5,-389.2"/>
<text text-anchor="start" x="682.5" y="-396.9" font-family="Helvetica,sans-Serif" font-size="11.00" fill="#000000">int2[5]</text>
<polygon fill="none" stroke="#000000" points="302.5,-367.2 302.5,-389.2 679.5,-389.2 679.5,-367.2 302.5,-367.2"/>
<image xlink:href="../../images/primaryKeys.png" width="11px" height="12px" preserveAspectRatio="xMinYMin meet" x="307.5" y="-384.2"/>
<text text-anchor="start" x="322.5" y="-374.3" font-family="Helvetica,sans-Serif" font-size="11.00" fill="#000000">id</text>
<polygon fill="none" stroke="#000000" points="679.5,-367.2 679.5,-389.2 773.5,-389.2 773.5,-367.2 679.5,-367.2"/>
<text text-anchor="start" x="682.4758" y="-374.9" font-family="Helvetica,sans-Serif" font-size="11.00" fill="#000000">uuid[2147483647]</text>
<polygon fill="none" stroke="#000000" points="302.5,-345.2 302.5,-367.2 679.5,-367.2 679.5,-345.2 302.5,-345.2"/>
<image xlink:href="../../images/foreignKeys.png" width="11px" height="12px" preserveAspectRatio="xMinYMin meet" x="307.5" y="-362.2"/>
<text text-anchor="start" x="322.5" y="-352.3" font-family="Helvetica,sans-Serif" font-size="11.00" fill="#000000">prison_code</text>
<polygon fill="none" stroke="#000000" points="679.5,-345.2 679.5,-367.2 773.5,-367.2 773.5,-345.2 679.5,-345.2"/>
<text text-anchor="start" x="682.5" y="-352.9" font-family="Helvetica,sans-Serif" font-size="11.00" fill="#000000">varchar[6]</text>
<polygon fill="none" stroke="#000000" points="302.5,-323.2 302.5,-345.2 679.5,-345.2 679.5,-323.2 302.5,-323.2"/>
<text text-anchor="start" x="322.5" y="-330.3" font-family="Helvetica,sans-Serif" font-size="11.00" fill="#000000">is_enabled</text>
<polygon fill="none" stroke="#000000" points="679.5,-323.2 679.5,-345.2 773.5,-345.2 773.5,-323.2 679.5,-323.2"/>
<text text-anchor="start" x="682.5" y="-330.9" font-family="Helvetica,sans-Serif" font-size="11.00" fill="#000000">bool[1]</text>
<polygon fill="none" stroke="#000000" points="302.5,-301.2 302.5,-323.2 679.5,-323.2 679.5,-301.2 302.5,-301.2"/>
<text text-anchor="start" x="322.5" y="-308.3" font-family="Helvetica,sans-Serif" font-size="11.00" fill="#000000">capacity</text>
<polygon fill="none" stroke="#000000" points="679.5,-301.2 679.5,-323.2 773.5,-323.2 773.5,-301.2 679.5,-301.2"/>
<text text-anchor="start" x="682.5" y="-308.9" font-family="Helvetica,sans-Serif" font-size="11.00" fill="#000000">int4[10]</text>
<polygon fill="none" stroke="#000000" points="302.5,-279.2 302.5,-301.2 679.5,-301.2 679.5,-279.2 302.5,-279.2"/>
<text text-anchor="start" x="322.5" y="-286.3" font-family="Helvetica,sans-Serif" font-size="11.00" fill="#000000">maximum_capacity</text>
<polygon fill="none" stroke="#000000" points="679.5,-279.2 679.5,-301.2 773.5,-301.2 773.5,-279.2 679.5,-279.2"/>
<text text-anchor="start" x="682.5" y="-286.9" font-family="Helvetica,sans-Serif" font-size="11.00" fill="#000000">int4[10]</text>
<polygon fill="none" stroke="#000000" points="302.5,-257.2 302.5,-279.2 679.5,-279.2 679.5,-257.2 302.5,-257.2"/>
<text text-anchor="start" x="322.5" y="-264.3" font-family="Helvetica,sans-Serif" font-size="11.00" fill="#000000">allow_auto_allocation</text>
<polygon fill="none" stroke="#000000" points="679.5,-257.2 679.5,-279.2 773.5,-279.2 773.5,-257.2 679.5,-257.2"/>
<text text-anchor="start" x="682.5" y="-264.9" font-family="Helvetica,sans-Serif" font-size="11.00" fill="#000000">bool[1]</text>
<polygon fill="none" stroke="#000000" points="302.5,-235.2 302.5,-257.2 679.5,-257.2 679.5,-235.2 302.5,-235.2"/>
<text text-anchor="start" x="322.5" y="-242.3" font-family="Helvetica,sans-Serif" font-size="11.00" fill="#000000">frequency_in_weeks</text>
<polygon fill="none" stroke="#000000" points="679.5,-235.2 679.5,-257.2 773.5,-257.2 773.5,-235.2 679.5,-235.2"/>
<text text-anchor="start" x="682.5" y="-242.9" font-family="Helvetica,sans-Serif" font-size="11.00" fill="#000000">int4[10]</text>
<polygon fill="none" stroke="#000000" points="302.5,-213.2 302.5,-235.2 679.5,-235.2 679.5,-213.2 302.5,-213.2"/>
<text text-anchor="start" x="322.5" y="-220.3" font-family="Helvetica,sans-Serif" font-size="11.00" fill="#000000">has_prisoners_with_high_complexity_needs</text>
<polygon fill="none" stroke="#000000" points="679.5,-213.2 679.5,-235.2 773.5,-235.2 773.5,-213.2 679.5,-213.2"/>
<text text-anchor="start" x="682.5" y="-220.9" font-family="Helvetica,sans-Serif" font-size="11.00" fill="#000000">bool[1]</text>
<polygon fill="none" stroke="#000000" points="302.5,-191.2 302.5,-213.2 679.5,-213.2 679.5,-191.2 302.5,-191.2"/>
<image xlink:href="../../images/foreignKeys.png" width="11px" height="12px" preserveAspectRatio="xMinYMin meet" x="307.5" y="-208.2"/>
<text text-anchor="start" x="322.5" y="-198.3" font-family="Helvetica,sans-Serif" font-size="11.00" fill="#000000">policy_code</text>
<polygon fill="none" stroke="#000000" points="679.5,-191.2 679.5,-213.2 773.5,-213.2 773.5,-191.2 679.5,-191.2"/>
<text text-anchor="start" x="682.5" y="-198.9" font-family="Helvetica,sans-Serif" font-size="11.00" fill="#000000">varchar[16]</text>
<polygon fill="none" stroke="#000000" points="302.5,-169.2 302.5,-191.2 679.5,-191.2 679.5,-169.2 302.5,-169.2"/>
<text text-anchor="start" x="322.5" y="-176.3" font-family="Helvetica,sans-Serif" font-size="11.00" fill="#000000">is_enabled_modified</text>
<polygon fill="none" stroke="#000000" points="679.5,-169.2 679.5,-191.2 773.5,-191.2 773.5,-169.2 679.5,-169.2"/>
<text text-anchor="start" x="682.5" y="-176.9" font-family="Helvetica,sans-Serif" font-size="11.00" fill="#000000">bool[1]</text>
<polygon fill="none" stroke="#000000" points="302.5,-147.2 302.5,-169.2 679.5,-169.2 679.5,-147.2 302.5,-147.2"/>
<text text-anchor="start" x="322.5" y="-154.3" font-family="Helvetica,sans-Serif" font-size="11.00" fill="#000000">capacity_modified</text>
<polygon fill="none" stroke="#000000" points="679.5,-147.2 679.5,-169.2 773.5,-169.2 773.5,-147.2 679.5,-147.2"/>
<text text-anchor="start" x="682.5" y="-154.9" font-family="Helvetica,sans-Serif" font-size="11.00" fill="#000000">bool[1]</text>
<polygon fill="none" stroke="#000000" points="302.5,-125.2 302.5,-147.2 679.5,-147.2 679.5,-125.2 302.5,-125.2"/>
<text text-anchor="start" x="322.5" y="-132.3" font-family="Helvetica,sans-Serif" font-size="11.00" fill="#000000">maximum_capacity_modified</text>
<polygon fill="none" stroke="#000000" points="679.5,-125.2 679.5,-147.2 773.5,-147.2 773.5,-125.2 679.5,-125.2"/>
<text text-anchor="start" x="682.5" y="-132.9" font-family="Helvetica,sans-Serif" font-size="11.00" fill="#000000">bool[1]</text>
<polygon fill="none" stroke="#000000" points="302.5,-103.2 302.5,-125.2 679.5,-125.2 679.5,-103.2 302.5,-103.2"/>
<text text-anchor="start" x="322.5" y="-110.3" font-family="Helvetica,sans-Serif" font-size="11.00" fill="#000000">allow_auto_allocation_modified</text>
<polygon fill="none" stroke="#000000" points="679.5,-103.2 679.5,-125.2 773.5,-125.2 773.5,-103.2 679.5,-103.2"/>
<text text-anchor="start" x="682.5" y="-110.9" font-family="Helvetica,sans-Serif" font-size="11.00" fill="#000000">bool[1]</text>
<polygon fill="none" stroke="#000000" points="302.5,-81.2 302.5,-103.2 679.5,-103.2 679.5,-81.2 302.5,-81.2"/>
<text text-anchor="start" x="322.5" y="-88.3" font-family="Helvetica,sans-Serif" font-size="11.00" fill="#000000">frequency_in_weeks_modified</text>
<polygon fill="none" stroke="#000000" points="679.5,-81.2 679.5,-103.2 773.5,-103.2 773.5,-81.2 679.5,-81.2"/>
<text text-anchor="start" x="682.5" y="-88.9" font-family="Helvetica,sans-Serif" font-size="11.00" fill="#000000">bool[1]</text>
<polygon fill="none" stroke="#000000" points="302.5,-59.2 302.5,-81.2 679.5,-81.2 679.5,-59.2 302.5,-59.2"/>
<text text-anchor="start" x="322.5" y="-66.3" font-family="Helvetica,sans-Serif" font-size="11.00" fill="#000000">has_prisoners_with_high_complexity_needs_modified</text>
<polygon fill="none" stroke="#000000" points="679.5,-59.2 679.5,-81.2 773.5,-81.2 773.5,-59.2 679.5,-59.2"/>
<text text-anchor="start" x="682.5" y="-66.9" font-family="Helvetica,sans-Serif" font-size="11.00" fill="#000000">bool[1]</text>
<polygon fill="#ffffff" stroke="transparent" points="302.5,-40.2 302.5,-59.2 495.5,-59.2 495.5,-40.2 302.5,-40.2"/>
<polygon fill="none" stroke="#000000" points="302.5,-40.2 302.5,-59.2 495.5,-59.2 495.5,-40.2 302.5,-40.2"/>
<text text-anchor="start" x="305.5" y="-46.3" font-family="Helvetica,sans-Serif" font-size="11.00" fill="#000000">&lt; 3</text>
<polygon fill="#ffffff" stroke="transparent" points="495.5,-40.2 495.5,-59.2 679.5,-59.2 679.5,-40.2 495.5,-40.2"/>
<polygon fill="none" stroke="#000000" points="495.5,-40.2 495.5,-59.2 679.5,-59.2 679.5,-40.2 495.5,-40.2"/>
<text text-anchor="start" x="670.3862" y="-46.3" font-family="Helvetica,sans-Serif" font-size="11.00" fill="#000000"> &#160;</text>
<polygon fill="#ffffff" stroke="transparent" points="679.5,-40.2 679.5,-59.2 773.5,-59.2 773.5,-40.2 679.5,-40.2"/>
<polygon fill="none" stroke="#000000" points="679.5,-40.2 679.5,-59.2 773.5,-59.2 773.5,-40.2 679.5,-40.2"/>
<text text-anchor="start" x="754.9053" y="-46.3" font-family="Helvetica,sans-Serif" font-size="11.00" fill="#000000">0 &gt;</text>
<polygon fill="none" stroke="#000000" stroke-width="2" points="301,-39.2 301,-457.2 774,-457.2 774,-39.2 301,-39.2"/>
</a>
</g>
</g>
<!-- policy -->
<g id="node2" class="node">
<title>policy</title>
<g id="a_node2"><a xlink:href="../../tables/policy.html" xlink:title="policy" target="_top">
<polygon fill="#ffffff" stroke="transparent" points="81,-153.7 81,-236.7 178,-236.7 178,-153.7 81,-153.7"/>
<polygon fill="#f5f5f5" stroke="transparent" points="81.5,-213.2 81.5,-236.2 178.5,-236.2 178.5,-213.2 81.5,-213.2"/>
<polygon fill="none" stroke="#000000" points="81.5,-213.2 81.5,-236.2 178.5,-236.2 178.5,-213.2 81.5,-213.2"/>
<text text-anchor="start" x="86.5" y="-221.8" font-family="Helvetica,sans-Serif" font-weight="bold" font-size="11.00" fill="#000000">policy</text>
<text text-anchor="start" x="143.5437" y="-221.3" font-family="Helvetica,sans-Serif" font-size="11.00" fill="#000000">[table]</text>
<polygon fill="none" stroke="#000000" points="81.5,-191.2 81.5,-213.2 178.5,-213.2 178.5,-191.2 81.5,-191.2"/>
<image xlink:href="../../images/primaryKeys.png" width="11px" height="12px" preserveAspectRatio="xMinYMin meet" x="86.5" y="-208.2"/>
<text text-anchor="start" x="101.5" y="-198.3" font-family="Helvetica,sans-Serif" font-size="11.00" fill="#000000">code</text>
<polygon fill="none" stroke="#000000" points="81.5,-172.2 81.5,-191.2 178.5,-191.2 178.5,-172.2 81.5,-172.2"/>
<text text-anchor="start" x="84.5" y="-178.3" font-family="Helvetica,sans-Serif" font-size="11.00" fill="#000000">...</text>
<polygon fill="#ffffff" stroke="transparent" points="81.5,-153.2 81.5,-172.2 116.5,-172.2 116.5,-153.2 81.5,-153.2"/>
<polygon fill="none" stroke="#000000" points="81.5,-153.2 81.5,-172.2 116.5,-172.2 116.5,-153.2 81.5,-153.2"/>
<text text-anchor="start" x="84.5" y="-159.3" font-family="Helvetica,sans-Serif" font-size="11.00" fill="#000000"> &#160;</text>
<polygon fill="#ffffff" stroke="transparent" points="116.5,-153.2 116.5,-172.2 139.5,-172.2 139.5,-153.2 116.5,-153.2"/>
<polygon fill="none" stroke="#000000" points="116.5,-153.2 116.5,-172.2 139.5,-172.2 139.5,-153.2 116.5,-153.2"/>
<text text-anchor="start" x="130.3862" y="-159.3" font-family="Helvetica,sans-Serif" font-size="11.00" fill="#000000"> &#160;</text>
<polygon fill="#ffffff" stroke="transparent" points="139.5,-153.2 139.5,-172.2 178.5,-172.2 178.5,-153.2 139.5,-153.2"/>
<polygon fill="none" stroke="#000000" points="139.5,-153.2 139.5,-172.2 178.5,-172.2 178.5,-153.2 139.5,-153.2"/>
<text text-anchor="start" x="153.7904" y="-159.3" font-family="Helvetica,sans-Serif" font-size="11.00" fill="#000000">13 &gt;</text>
</a>
</g>
</g>
<!-- prison_configuration_audit&#45;&gt;policy -->
<g id="edge1" class="edge">
<title>prison_configuration_audit:w&#45;&gt;policy:e</title>
<path fill="none" stroke="#000000" stroke-dasharray="5,2" d="M288.0217,-202.2C244.4423,-202.2 228.4444,-202.2 178.5,-202.2"/>
<polygon fill="#000000" stroke="#000000" points="294.5,-202.2001 302.5,-205.8 298.5,-202.2 302.5,-202.2 302.5,-202.2 302.5,-202.2 298.5,-202.2 302.5,-198.6 294.5,-202.2001 294.5,-202.2001"/>
<ellipse fill="none" stroke="#000000" cx="291.3" cy="-202.2001" rx="3.2" ry="3.2"/>
</g>
<!-- prison_migration_date_history -->
<g id="node3" class="node">
<title>prison_migration_date_history</title>
<g id="a_node3"><a xlink:href="../../tables/prison_migration_date_history.html" xlink:title="prison_migration_date_history" target="_top">
<polygon fill="#ffffff" stroke="transparent" points="8,-288.7 8,-371.7 251,-371.7 251,-288.7 8,-288.7"/>
<polygon fill="#f5f5f5" stroke="transparent" points="8.5,-348.2 8.5,-371.2 251.5,-371.2 251.5,-348.2 8.5,-348.2"/>
<polygon fill="none" stroke="#000000" points="8.5,-348.2 8.5,-371.2 251.5,-371.2 251.5,-348.2 8.5,-348.2"/>
<text text-anchor="start" x="13.5" y="-356.8" font-family="Helvetica,sans-Serif" font-weight="bold" font-size="11.00" fill="#000000">prison_migration_date_history</text>
<text text-anchor="start" x="217.0219" y="-356.3" font-family="Helvetica,sans-Serif" font-size="11.00" fill="#000000">[table]</text>
<polygon fill="none" stroke="#000000" points="8.5,-326.2 8.5,-348.2 251.5,-348.2 251.5,-326.2 8.5,-326.2"/>
<image xlink:href="../../images/primaryKeys.png" width="11px" height="12px" preserveAspectRatio="xMinYMin meet" x="13.5" y="-343.2"/>
<text text-anchor="start" x="37.5" y="-333.3" font-family="Helvetica,sans-Serif" font-size="11.00" fill="#000000">prison_code</text>
<polygon fill="none" stroke="#000000" points="8.5,-307.2 8.5,-326.2 251.5,-326.2 251.5,-307.2 8.5,-307.2"/>
<text text-anchor="start" x="11.5" y="-313.3" font-family="Helvetica,sans-Serif" font-size="11.00" fill="#000000">...</text>
<polygon fill="#ffffff" stroke="transparent" points="8.5,-288.2 8.5,-307.2 119.5,-307.2 119.5,-288.2 8.5,-288.2"/>
<polygon fill="none" stroke="#000000" points="8.5,-288.2 8.5,-307.2 119.5,-307.2 119.5,-288.2 8.5,-288.2"/>
<text text-anchor="start" x="11.5" y="-294.3" font-family="Helvetica,sans-Serif" font-size="11.00" fill="#000000"> &#160;</text>
<polygon fill="#ffffff" stroke="transparent" points="119.5,-288.2 119.5,-307.2 180.5,-307.2 180.5,-288.2 119.5,-288.2"/>
<polygon fill="none" stroke="#000000" points="119.5,-288.2 119.5,-307.2 180.5,-307.2 180.5,-288.2 119.5,-288.2"/>
<text text-anchor="start" x="171.3862" y="-294.3" font-family="Helvetica,sans-Serif" font-size="11.00" fill="#000000"> &#160;</text>
<polygon fill="#ffffff" stroke="transparent" points="180.5,-288.2 180.5,-307.2 251.5,-307.2 251.5,-288.2 180.5,-288.2"/>
<polygon fill="none" stroke="#000000" points="180.5,-288.2 180.5,-307.2 251.5,-307.2 251.5,-288.2 180.5,-288.2"/>
<text text-anchor="start" x="232.9053" y="-294.3" font-family="Helvetica,sans-Serif" font-size="11.00" fill="#000000">9 &gt;</text>
</a>
</g>
</g>
<!-- prison_configuration_audit&#45;&gt;prison_migration_date_history -->
<g id="edge2" class="edge">
<title>prison_configuration_audit:w&#45;&gt;prison_migration_date_history:e</title>
<path fill="none" stroke="#000000" stroke-dasharray="5,2" d="M288.1076,-353.3965C275.7761,-348.1113 269.8304,-337.2 251.5,-337.2"/>
<polygon fill="#000000" stroke="#000000" points="294.6476,-354.6704 301.8117,-359.7336 298.5738,-355.4352 302.5,-356.2 302.5,-356.2 302.5,-356.2 298.5738,-355.4352 303.1883,-352.6664 294.6476,-354.6704 294.6476,-354.6704"/>
<ellipse fill="none" stroke="#000000" cx="291.5066" cy="-354.0585" rx="3.2" ry="3.2"/>
</g>
<!-- audit_revision -->
<g id="node4" class="node">
<title>audit_revision</title>
<g id="a_node4"><a xlink:href="../../tables/audit_revision.html" xlink:title="audit_revision" target="_top">
<polygon fill="#ffffff" stroke="transparent" points="62.5,-392.7 62.5,-475.7 196.5,-475.7 196.5,-392.7 62.5,-392.7"/>
<polygon fill="#f5f5f5" stroke="transparent" points="62.5,-452.2 62.5,-475.2 196.5,-475.2 196.5,-452.2 62.5,-452.2"/>
<polygon fill="none" stroke="#000000" points="62.5,-452.2 62.5,-475.2 196.5,-475.2 196.5,-452.2 62.5,-452.2"/>
<text text-anchor="start" x="67.5" y="-460.8" font-family="Helvetica,sans-Serif" font-weight="bold" font-size="11.00" fill="#000000">audit_revision</text>
<text text-anchor="start" x="162.0219" y="-460.3" font-family="Helvetica,sans-Serif" font-size="11.00" fill="#000000">[table]</text>
<polygon fill="none" stroke="#000000" points="62.5,-430.2 62.5,-452.2 196.5,-452.2 196.5,-430.2 62.5,-430.2"/>
<image xlink:href="../../images/primaryKeys.png" width="11px" height="12px" preserveAspectRatio="xMinYMin meet" x="67.5" y="-447.2"/>
<text text-anchor="start" x="82.5" y="-437.3" font-family="Helvetica,sans-Serif" font-size="11.00" fill="#000000">id</text>
<polygon fill="none" stroke="#000000" points="62.5,-411.2 62.5,-430.2 196.5,-430.2 196.5,-411.2 62.5,-411.2"/>
<text text-anchor="start" x="65.5" y="-417.3" font-family="Helvetica,sans-Serif" font-size="11.00" fill="#000000">...</text>
<polygon fill="#ffffff" stroke="transparent" points="62.5,-392.2 62.5,-411.2 118.5,-411.2 118.5,-392.2 62.5,-392.2"/>
<polygon fill="none" stroke="#000000" points="62.5,-392.2 62.5,-411.2 118.5,-411.2 118.5,-392.2 62.5,-392.2"/>
<text text-anchor="start" x="65.5" y="-398.3" font-family="Helvetica,sans-Serif" font-size="11.00" fill="#000000"> &#160;</text>
<polygon fill="#ffffff" stroke="transparent" points="118.5,-392.2 118.5,-411.2 152.5,-411.2 152.5,-392.2 118.5,-392.2"/>
<polygon fill="none" stroke="#000000" points="118.5,-392.2 118.5,-411.2 152.5,-411.2 152.5,-392.2 118.5,-392.2"/>
<text text-anchor="start" x="143.3862" y="-398.3" font-family="Helvetica,sans-Serif" font-size="11.00" fill="#000000"> &#160;</text>
<polygon fill="#ffffff" stroke="transparent" points="152.5,-392.2 152.5,-411.2 196.5,-411.2 196.5,-392.2 152.5,-392.2"/>
<polygon fill="none" stroke="#000000" points="152.5,-392.2 152.5,-411.2 196.5,-411.2 196.5,-392.2 152.5,-392.2"/>
<text text-anchor="start" x="177.9053" y="-398.3" font-family="Helvetica,sans-Serif" font-size="11.00" fill="#000000">5 &gt;</text>
</a>
</g>
</g>
<!-- prison_configuration_audit&#45;&gt;audit_revision -->
<g id="edge3" class="edge">
<title>prison_configuration_audit:w&#45;&gt;audit_revision:e</title>
<path fill="none" stroke="#000000" d="M288.0458,-422.8322C251.9405,-426.129 239.127,-441.2 196.5,-441.2"/>
<polygon fill="#000000" stroke="#000000" points="294.5076,-422.5496 302.6573,-425.7966 298.5038,-422.3748 302.5,-422.2 302.5,-422.2 302.5,-422.2 298.5038,-422.3748 302.3427,-418.6034 294.5076,-422.5496 294.5076,-422.5496"/>
<ellipse fill="none" stroke="#000000" cx="291.3107" cy="-422.6894" rx="3.2" ry="3.2"/>
</g>
</g>
</svg>
