<?xml version="1.0" encoding="UTF-8" standalone="no"?>
<!DOCTYPE svg PUBLIC "-//W3C//DTD SVG 1.1//EN"
 "http://www.w3.org/Graphics/SVG/1.1/DTD/svg11.dtd">
<!-- Generated by graphviz version 2.40.1 (20161225.0304)
 -->
<!-- Title: twoDegreesRelationshipsDiagramImplied Pages: 1 -->
<svg width="763pt" height="731pt"
 viewBox="0.00 0.00 763.00 731.20" xmlns="http://www.w3.org/2000/svg" xmlns:xlink="http://www.w3.org/1999/xlink">
<g id="graph0" class="graph" transform="scale(1 1) rotate(0) translate(4 727.2)">
<title>twoDegreesRelationshipsDiagramImplied</title>
<polygon fill="#ffffff" stroke="transparent" points="-4,4 -4,-727.2 759,-727.2 759,4 -4,4"/>
<text text-anchor="middle" x="72.4936" y="-7.3" font-family="Helvetica,sans-Serif" font-size="11.00" fill="#000000">Generated by SchemaSpy</text>
<!-- keyworker_entry -->
<g id="node1" class="node">
<title>keyworker_entry</title>
<g id="a_node1"><a xlink:href="../../tables/keyworker_entry.html" xlink:title="keyworker_entry" target="_top">
<polygon fill="#ffffff" stroke="transparent" points="482.5,-548.2 482.5,-719.2 634.5,-719.2 634.5,-548.2 482.5,-548.2"/>
<polygon fill="#f5f5f5" stroke="transparent" points="482.5,-695.7 482.5,-718.7 634.5,-718.7 634.5,-695.7 482.5,-695.7"/>
<polygon fill="none" stroke="#000000" points="482.5,-695.7 482.5,-718.7 634.5,-718.7 634.5,-695.7 482.5,-695.7"/>
<text text-anchor="start" x="487.5" y="-704.3" font-family="Helvetica,sans-Serif" font-weight="bold" font-size="11.00" fill="#000000">keyworker_entry</text>
<text text-anchor="start" x="600.0219" y="-703.8" font-family="Helvetica,sans-Serif" font-size="11.00" fill="#000000">[table]</text>
<polygon fill="none" stroke="#000000" points="482.5,-673.7 482.5,-695.7 634.5,-695.7 634.5,-673.7 482.5,-673.7"/>
<image xlink:href="../../images/primaryKeys.png" width="11px" height="12px" preserveAspectRatio="xMinYMin meet" x="487.5" y="-690.7"/>
<text text-anchor="start" x="506.5" y="-680.8" font-family="Helvetica,sans-Serif" font-size="11.00" fill="#000000">id</text>
<polygon fill="#ffffff" stroke="transparent" points="482.5,-651.7 482.5,-673.7 634.5,-673.7 634.5,-651.7 482.5,-651.7"/>
<polygon fill="none" stroke="#000000" points="482.5,-651.7 482.5,-673.7 634.5,-673.7 634.5,-651.7 482.5,-651.7"/>
<text text-anchor="start" x="506.5" y="-658.8" font-family="Helvetica,sans-Serif" font-size="11.00" fill="#000000">occurred_at</text>
<polygon fill="#ffffff" stroke="transparent" points="482.5,-629.7 482.5,-651.7 634.5,-651.7 634.5,-629.7 482.5,-629.7"/>
<polygon fill="none" stroke="#000000" points="482.5,-629.7 482.5,-651.7 634.5,-651.7 634.5,-629.7 482.5,-629.7"/>
<text text-anchor="start" x="506.5" y="-636.8" font-family="Helvetica,sans-Serif" font-size="11.00" fill="#000000">person_identifier</text>
<polygon fill="#ffffff" stroke="transparent" points="482.5,-607.7 482.5,-629.7 634.5,-629.7 634.5,-607.7 482.5,-607.7"/>
<polygon fill="none" stroke="#000000" points="482.5,-607.7 482.5,-629.7 634.5,-629.7 634.5,-607.7 482.5,-607.7"/>
<text text-anchor="start" x="506.5" y="-614.8" font-family="Helvetica,sans-Serif" font-size="11.00" fill="#000000">staff_id</text>
<polygon fill="#ffffff" stroke="transparent" points="482.5,-585.7 482.5,-607.7 634.5,-607.7 634.5,-585.7 482.5,-585.7"/>
<polygon fill="none" stroke="#000000" points="482.5,-585.7 482.5,-607.7 634.5,-607.7 634.5,-585.7 482.5,-585.7"/>
<image xlink:href="../../images/foreignKeys.png" width="11px" height="12px" preserveAspectRatio="xMinYMin meet" x="487.5" y="-602.7"/>
<text text-anchor="start" x="506.5" y="-592.8" font-family="Helvetica,sans-Serif" font-size="11.00" fill="#000000">prison_code</text>
<polygon fill="none" stroke="#000000" points="482.5,-566.7 482.5,-585.7 634.5,-585.7 634.5,-566.7 482.5,-566.7"/>
<text text-anchor="start" x="485.5" y="-572.8" font-family="Helvetica,sans-Serif" font-size="11.00" fill="#000000">...</text>
<polygon fill="#ffffff" stroke="transparent" points="482.5,-547.7 482.5,-566.7 556.5,-566.7 556.5,-547.7 482.5,-547.7"/>
<polygon fill="none" stroke="#000000" points="482.5,-547.7 482.5,-566.7 556.5,-566.7 556.5,-547.7 482.5,-547.7"/>
<text text-anchor="start" x="485.5" y="-553.8" font-family="Helvetica,sans-Serif" font-size="11.00" fill="#000000">&lt; 1</text>
<polygon fill="#ffffff" stroke="transparent" points="556.5,-547.7 556.5,-566.7 595.5,-566.7 595.5,-547.7 556.5,-547.7"/>
<polygon fill="none" stroke="#000000" points="556.5,-547.7 556.5,-566.7 595.5,-566.7 595.5,-547.7 556.5,-547.7"/>
<text text-anchor="start" x="586.3862" y="-553.8" font-family="Helvetica,sans-Serif" font-size="11.00" fill="#000000"> &#160;</text>
<polygon fill="#ffffff" stroke="transparent" points="595.5,-547.7 595.5,-566.7 634.5,-566.7 634.5,-547.7 595.5,-547.7"/>
<polygon fill="none" stroke="#000000" points="595.5,-547.7 595.5,-566.7 634.5,-566.7 634.5,-547.7 595.5,-547.7"/>
<text text-anchor="start" x="625.3862" y="-553.8" font-family="Helvetica,sans-Serif" font-size="11.00" fill="#000000"> &#160;</text>
</a>
</g>
</g>
<!-- prison_migration_date_history -->
<g id="node2" class="node">
<title>prison_migration_date_history</title>
<g id="a_node2"><a xlink:href="../../tables/prison_migration_date_history.html" xlink:title="prison_migration_date_history" target="_top">
<polygon fill="#ffffff" stroke="transparent" points="8,-202.7 8,-292.7 321,-292.7 321,-202.7 8,-202.7"/>
<polygon fill="#f5f5f5" stroke="transparent" points="10.5,-267.7 10.5,-290.7 319.5,-290.7 319.5,-267.7 10.5,-267.7"/>
<polygon fill="none" stroke="#000000" points="10.5,-267.7 10.5,-290.7 319.5,-290.7 319.5,-267.7 10.5,-267.7"/>
<text text-anchor="start" x="15.5" y="-276.3" font-family="Helvetica,sans-Serif" font-weight="bold" font-size="11.00" fill="#000000">prison_migration_date_history</text>
<text text-anchor="start" x="284.5437" y="-275.8" font-family="Helvetica,sans-Serif" font-size="11.00" fill="#000000">[table]</text>
<polygon fill="none" stroke="#000000" points="10.5,-245.7 10.5,-267.7 235.5,-267.7 235.5,-245.7 10.5,-245.7"/>
<image xlink:href="../../images/primaryKeys.png" width="11px" height="12px" preserveAspectRatio="xMinYMin meet" x="15.5" y="-262.7"/>
<text text-anchor="start" x="30.5" y="-252.8" font-family="Helvetica,sans-Serif" font-size="11.00" fill="#000000">prison_code</text>
<polygon fill="none" stroke="#000000" points="235.5,-245.7 235.5,-267.7 319.5,-267.7 319.5,-245.7 235.5,-245.7"/>
<text text-anchor="start" x="238.5" y="-253.4" font-family="Helvetica,sans-Serif" font-size="11.00" fill="#000000">varchar[6]</text>
<polygon fill="none" stroke="#000000" points="10.5,-223.7 10.5,-245.7 235.5,-245.7 235.5,-223.7 10.5,-223.7"/>
<text text-anchor="start" x="30.5" y="-230.8" font-family="Helvetica,sans-Serif" font-size="11.00" fill="#000000">migration_date</text>
<polygon fill="none" stroke="#000000" points="235.5,-223.7 235.5,-245.7 319.5,-245.7 319.5,-223.7 235.5,-223.7"/>
<text text-anchor="start" x="238.3807" y="-231.4" font-family="Helvetica,sans-Serif" font-size="11.00" fill="#000000">timestamp[29,6]</text>
<polygon fill="#ffffff" stroke="transparent" points="10.5,-204.7 10.5,-223.7 127.5,-223.7 127.5,-204.7 10.5,-204.7"/>
<polygon fill="none" stroke="#000000" points="10.5,-204.7 10.5,-223.7 127.5,-223.7 127.5,-204.7 10.5,-204.7"/>
<text text-anchor="start" x="13.5" y="-210.8" font-family="Helvetica,sans-Serif" font-size="11.00" fill="#000000">&lt; 0</text>
<polygon fill="#ffffff" stroke="transparent" points="127.5,-204.7 127.5,-223.7 235.5,-223.7 235.5,-204.7 127.5,-204.7"/>
<polygon fill="none" stroke="#000000" points="127.5,-204.7 127.5,-223.7 235.5,-223.7 235.5,-204.7 127.5,-204.7"/>
<text text-anchor="start" x="226.3862" y="-210.8" font-family="Helvetica,sans-Serif" font-size="11.00" fill="#000000"> &#160;</text>
<polygon fill="#ffffff" stroke="transparent" points="235.5,-204.7 235.5,-223.7 319.5,-223.7 319.5,-204.7 235.5,-204.7"/>
<polygon fill="none" stroke="#000000" points="235.5,-204.7 235.5,-223.7 319.5,-223.7 319.5,-204.7 235.5,-204.7"/>
<text text-anchor="start" x="300.9053" y="-210.8" font-family="Helvetica,sans-Serif" font-size="11.00" fill="#000000">4 &gt;</text>
<polygon fill="none" stroke="#000000" stroke-width="2" points="9,-203.7 9,-291.7 320,-291.7 320,-203.7 9,-203.7"/>
</a>
</g>
</g>
<!-- keyworker_entry&#45;&gt;prison_migration_date_history -->
<g id="edge1" class="edge">
<title>keyworker_entry:w&#45;&gt;prison_migration_date_history:e</title>
<path fill="none" stroke="#000000" stroke-dasharray="5,2" d="M467.8478,-596.4451C418.3596,-594.5771 394.0146,-581.8132 362,-537.7 324.9056,-486.5873 382.6546,-256.7 319.5,-256.7"/>
<polygon fill="#000000" stroke="#000000" points="474.5012,-596.5608 482.4373,-600.2995 478.5006,-596.6304 482.5,-596.7 482.5,-596.7 482.5,-596.7 478.5006,-596.6304 482.5627,-593.1005 474.5012,-596.5608 474.5012,-596.5608"/>
<ellipse fill="none" stroke="#000000" cx="471.3017" cy="-596.5051" rx="3.2" ry="3.2"/>
</g>
<!-- keyworker_session -->
<g id="node3" class="node">
<title>keyworker_session</title>
<g id="a_node3"><a xlink:href="../../tables/keyworker_session.html" xlink:title="keyworker_session" target="_top">
<polygon fill="#ffffff" stroke="transparent" points="475.5,-356.2 475.5,-527.2 641.5,-527.2 641.5,-356.2 475.5,-356.2"/>
<polygon fill="#f5f5f5" stroke="transparent" points="475.5,-503.7 475.5,-526.7 641.5,-526.7 641.5,-503.7 475.5,-503.7"/>
<polygon fill="none" stroke="#000000" points="475.5,-503.7 475.5,-526.7 641.5,-526.7 641.5,-503.7 475.5,-503.7"/>
<text text-anchor="start" x="480.5" y="-512.3" font-family="Helvetica,sans-Serif" font-weight="bold" font-size="11.00" fill="#000000">keyworker_session</text>
<text text-anchor="start" x="607.0219" y="-511.8" font-family="Helvetica,sans-Serif" font-size="11.00" fill="#000000">[table]</text>
<polygon fill="none" stroke="#000000" points="475.5,-481.7 475.5,-503.7 641.5,-503.7 641.5,-481.7 475.5,-481.7"/>
<image xlink:href="../../images/primaryKeys.png" width="11px" height="12px" preserveAspectRatio="xMinYMin meet" x="480.5" y="-498.7"/>
<text text-anchor="start" x="504.5" y="-488.8" font-family="Helvetica,sans-Serif" font-size="11.00" fill="#000000">id</text>
<polygon fill="#ffffff" stroke="transparent" points="475.5,-459.7 475.5,-481.7 641.5,-481.7 641.5,-459.7 475.5,-459.7"/>
<polygon fill="none" stroke="#000000" points="475.5,-459.7 475.5,-481.7 641.5,-481.7 641.5,-459.7 475.5,-459.7"/>
<text text-anchor="start" x="504.5" y="-466.8" font-family="Helvetica,sans-Serif" font-size="11.00" fill="#000000">occurred_at</text>
<polygon fill="#ffffff" stroke="transparent" points="475.5,-437.7 475.5,-459.7 641.5,-459.7 641.5,-437.7 475.5,-437.7"/>
<polygon fill="none" stroke="#000000" points="475.5,-437.7 475.5,-459.7 641.5,-459.7 641.5,-437.7 475.5,-437.7"/>
<text text-anchor="start" x="504.5" y="-444.8" font-family="Helvetica,sans-Serif" font-size="11.00" fill="#000000">person_identifier</text>
<polygon fill="#ffffff" stroke="transparent" points="475.5,-415.7 475.5,-437.7 641.5,-437.7 641.5,-415.7 475.5,-415.7"/>
<polygon fill="none" stroke="#000000" points="475.5,-415.7 475.5,-437.7 641.5,-437.7 641.5,-415.7 475.5,-415.7"/>
<text text-anchor="start" x="504.5" y="-422.8" font-family="Helvetica,sans-Serif" font-size="11.00" fill="#000000">staff_id</text>
<polygon fill="#ffffff" stroke="transparent" points="475.5,-393.7 475.5,-415.7 641.5,-415.7 641.5,-393.7 475.5,-393.7"/>
<polygon fill="none" stroke="#000000" points="475.5,-393.7 475.5,-415.7 641.5,-415.7 641.5,-393.7 475.5,-393.7"/>
<image xlink:href="../../images/foreignKeys.png" width="11px" height="12px" preserveAspectRatio="xMinYMin meet" x="480.5" y="-410.7"/>
<text text-anchor="start" x="504.5" y="-400.8" font-family="Helvetica,sans-Serif" font-size="11.00" fill="#000000">prison_code</text>
<polygon fill="none" stroke="#000000" points="475.5,-374.7 475.5,-393.7 641.5,-393.7 641.5,-374.7 475.5,-374.7"/>
<text text-anchor="start" x="478.5" y="-380.8" font-family="Helvetica,sans-Serif" font-size="11.00" fill="#000000">...</text>
<polygon fill="#ffffff" stroke="transparent" points="475.5,-355.7 475.5,-374.7 556.5,-374.7 556.5,-355.7 475.5,-355.7"/>
<polygon fill="none" stroke="#000000" points="475.5,-355.7 475.5,-374.7 556.5,-374.7 556.5,-355.7 475.5,-355.7"/>
<text text-anchor="start" x="478.5" y="-361.8" font-family="Helvetica,sans-Serif" font-size="11.00" fill="#000000">&lt; 1</text>
<polygon fill="#ffffff" stroke="transparent" points="556.5,-355.7 556.5,-374.7 598.5,-374.7 598.5,-355.7 556.5,-355.7"/>
<polygon fill="none" stroke="#000000" points="556.5,-355.7 556.5,-374.7 598.5,-374.7 598.5,-355.7 556.5,-355.7"/>
<text text-anchor="start" x="589.3862" y="-361.8" font-family="Helvetica,sans-Serif" font-size="11.00" fill="#000000"> &#160;</text>
<polygon fill="#ffffff" stroke="transparent" points="598.5,-355.7 598.5,-374.7 641.5,-374.7 641.5,-355.7 598.5,-355.7"/>
<polygon fill="none" stroke="#000000" points="598.5,-355.7 598.5,-374.7 641.5,-374.7 641.5,-355.7 598.5,-355.7"/>
<text text-anchor="start" x="632.3862" y="-361.8" font-family="Helvetica,sans-Serif" font-size="11.00" fill="#000000"> &#160;</text>
</a>
</g>
</g>
<!-- keyworker_session&#45;&gt;prison_migration_date_history -->
<g id="edge2" class="edge">
<title>keyworker_session:w&#45;&gt;prison_migration_date_history:e</title>
<path fill="none" stroke="#000000" stroke-dasharray="5,2" d="M461.0932,-404.2578C415.388,-401.2597 397.9643,-382.9036 362,-345.7 331.5339,-314.1841 363.3341,-256.7 319.5,-256.7"/>
<polygon fill="#000000" stroke="#000000" points="467.5038,-404.4545 475.3895,-408.2983 471.5019,-404.5772 475.5,-404.7 475.5,-404.7 475.5,-404.7 471.5019,-404.5772 475.6105,-401.1017 467.5038,-404.4545 467.5038,-404.4545"/>
<ellipse fill="none" stroke="#000000" cx="464.3053" cy="-404.3563" rx="3.2" ry="3.2"/>
</g>
<!-- prison_configuration -->
<g id="node4" class="node">
<title>prison_configuration</title>
<g id="a_node4"><a xlink:href="../../tables/prison_configuration.html" xlink:title="prison_configuration" target="_top">
<polygon fill="#ffffff" stroke="transparent" points="402.5,-38.2 402.5,-165.2 714.5,-165.2 714.5,-38.2 402.5,-38.2"/>
<polygon fill="#f5f5f5" stroke="transparent" points="402.5,-141.7 402.5,-164.7 714.5,-164.7 714.5,-141.7 402.5,-141.7"/>
<polygon fill="none" stroke="#000000" points="402.5,-141.7 402.5,-164.7 714.5,-164.7 714.5,-141.7 402.5,-141.7"/>
<text text-anchor="start" x="407.5" y="-150.3" font-family="Helvetica,sans-Serif" font-weight="bold" font-size="11.00" fill="#000000">prison_configuration</text>
<text text-anchor="start" x="679.5437" y="-149.8" font-family="Helvetica,sans-Serif" font-size="11.00" fill="#000000">[table]</text>
<polygon fill="#ffffff" stroke="transparent" points="402.5,-119.7 402.5,-141.7 714.5,-141.7 714.5,-119.7 402.5,-119.7"/>
<polygon fill="none" stroke="#000000" points="402.5,-119.7 402.5,-141.7 714.5,-141.7 714.5,-119.7 402.5,-119.7"/>
<image xlink:href="../../images/foreignKeys.png" width="11px" height="12px" preserveAspectRatio="xMinYMin meet" x="407.5" y="-136.7"/>
<text text-anchor="start" x="422.5" y="-126.8" font-family="Helvetica,sans-Serif" font-size="11.00" fill="#000000">prison_code</text>
<polygon fill="#ffffff" stroke="transparent" points="402.5,-97.7 402.5,-119.7 714.5,-119.7 714.5,-97.7 402.5,-97.7"/>
<polygon fill="none" stroke="#000000" points="402.5,-97.7 402.5,-119.7 714.5,-119.7 714.5,-97.7 402.5,-97.7"/>
<image xlink:href="../../images/foreignKeys.png" width="11px" height="12px" preserveAspectRatio="xMinYMin meet" x="407.5" y="-114.7"/>
<text text-anchor="start" x="422.5" y="-104.8" font-family="Helvetica,sans-Serif" font-size="11.00" fill="#000000">policy_code</text>
<polygon fill="none" stroke="#000000" points="402.5,-75.7 402.5,-97.7 714.5,-97.7 714.5,-75.7 402.5,-75.7"/>
<image xlink:href="../../images/primaryKeys.png" width="11px" height="12px" preserveAspectRatio="xMinYMin meet" x="407.5" y="-92.7"/>
<text text-anchor="start" x="422.5" y="-82.8" font-family="Helvetica,sans-Serif" font-size="11.00" fill="#000000">id</text>
<polygon fill="none" stroke="#000000" points="402.5,-56.7 402.5,-75.7 714.5,-75.7 714.5,-56.7 402.5,-56.7"/>
<text text-anchor="start" x="405.5" y="-62.8" font-family="Helvetica,sans-Serif" font-size="11.00" fill="#000000">...</text>
<polygon fill="#ffffff" stroke="transparent" points="402.5,-37.7 402.5,-56.7 540.5,-56.7 540.5,-37.7 402.5,-37.7"/>
<polygon fill="none" stroke="#000000" points="402.5,-37.7 402.5,-56.7 540.5,-56.7 540.5,-37.7 402.5,-37.7"/>
<text text-anchor="start" x="405.5" y="-43.8" font-family="Helvetica,sans-Serif" font-size="11.00" fill="#000000">&lt; 2</text>
<polygon fill="#ffffff" stroke="transparent" points="540.5,-37.7 540.5,-56.7 643.5,-56.7 643.5,-37.7 540.5,-37.7"/>
<polygon fill="none" stroke="#000000" points="540.5,-37.7 540.5,-56.7 643.5,-56.7 643.5,-37.7 540.5,-37.7"/>
<text text-anchor="start" x="601.9956" y="-43.8" font-family="Helvetica,sans-Serif" font-size="11.00" fill="#000000">12 rows</text>
<polygon fill="#ffffff" stroke="transparent" points="643.5,-37.7 643.5,-56.7 714.5,-56.7 714.5,-37.7 643.5,-37.7"/>
<polygon fill="none" stroke="#000000" points="643.5,-37.7 643.5,-56.7 714.5,-56.7 714.5,-37.7 643.5,-37.7"/>
<text text-anchor="start" x="705.3862" y="-43.8" font-family="Helvetica,sans-Serif" font-size="11.00" fill="#000000"> &#160;</text>
</a>
</g>
</g>
<!-- prison_configuration&#45;&gt;prison_migration_date_history -->
<g id="edge4" class="edge">
<title>prison_configuration:w&#45;&gt;prison_migration_date_history:e</title>
<path fill="none" stroke="#000000" stroke-dasharray="5,2" d="M388.0957,-133.9526C375.518,-141.0407 373.888,-158.6186 362,-175.7 338.7767,-209.0687 360.1545,-256.7 319.5,-256.7"/>
<polygon fill="#000000" stroke="#000000" points="394.6965,-132.4621 403.293,-134.2116 398.5982,-131.5811 402.5,-130.7 402.5,-130.7 402.5,-130.7 398.5982,-131.5811 401.707,-127.1884 394.6965,-132.4621 394.6965,-132.4621"/>
<ellipse fill="none" stroke="#000000" cx="391.5751" cy="-133.167" rx="3.2" ry="3.2"/>
</g>
<!-- policy -->
<g id="node5" class="node">
<title>policy</title>
<g id="a_node5"><a xlink:href="../../tables/policy.html" xlink:title="policy" target="_top">
<polygon fill="#ffffff" stroke="transparent" points="125.5,-101.2 125.5,-162.2 203.5,-162.2 203.5,-101.2 125.5,-101.2"/>
<polygon fill="#f5f5f5" stroke="transparent" points="125.5,-138.7 125.5,-161.7 203.5,-161.7 203.5,-138.7 125.5,-138.7"/>
<polygon fill="none" stroke="#000000" points="125.5,-138.7 125.5,-161.7 203.5,-161.7 203.5,-138.7 125.5,-138.7"/>
<text text-anchor="start" x="130.5" y="-147.3" font-family="Helvetica,sans-Serif" font-weight="bold" font-size="11.00" fill="#000000">policy</text>
<text text-anchor="start" x="169.0219" y="-146.8" font-family="Helvetica,sans-Serif" font-size="11.00" fill="#000000">[table]</text>
<polygon fill="none" stroke="#000000" points="125.5,-119.7 125.5,-138.7 203.5,-138.7 203.5,-119.7 125.5,-119.7"/>
<text text-anchor="start" x="128.5" y="-125.8" font-family="Helvetica,sans-Serif" font-size="11.00" fill="#000000">...</text>
<polygon fill="#ffffff" stroke="transparent" points="125.5,-100.7 125.5,-119.7 153.5,-119.7 153.5,-100.7 125.5,-100.7"/>
<polygon fill="none" stroke="#000000" points="125.5,-100.7 125.5,-119.7 153.5,-119.7 153.5,-100.7 125.5,-100.7"/>
<text text-anchor="start" x="128.5" y="-106.8" font-family="Helvetica,sans-Serif" font-size="11.00" fill="#000000"> &#160;</text>
<polygon fill="#ffffff" stroke="transparent" points="153.5,-100.7 153.5,-119.7 173.5,-119.7 173.5,-100.7 153.5,-100.7"/>
<polygon fill="none" stroke="#000000" points="153.5,-100.7 153.5,-119.7 173.5,-119.7 173.5,-100.7 153.5,-100.7"/>
<text text-anchor="start" x="164.3862" y="-106.8" font-family="Helvetica,sans-Serif" font-size="11.00" fill="#000000"> &#160;</text>
<polygon fill="#ffffff" stroke="transparent" points="173.5,-100.7 173.5,-119.7 203.5,-119.7 203.5,-100.7 173.5,-100.7"/>
<polygon fill="none" stroke="#000000" points="173.5,-100.7 173.5,-119.7 203.5,-119.7 203.5,-100.7 173.5,-100.7"/>
<text text-anchor="start" x="184.9053" y="-106.8" font-family="Helvetica,sans-Serif" font-size="11.00" fill="#000000">2 &gt;</text>
</a>
</g>
</g>
<!-- prison_configuration&#45;&gt;policy -->
<g id="edge3" class="edge">
<title>prison_configuration:w&#45;&gt;policy:e</title>
<path fill="none" stroke="#000000" d="M388.0223,-108.8852C310.9891,-110.9015 287.3552,-128.7 203.5,-128.7"/>
<polygon fill="#000000" stroke="#000000" points="394.5007,-108.8024 402.5461,-112.2997 398.5003,-108.7512 402.5,-108.7 402.5,-108.7 402.5,-108.7 398.5003,-108.7512 402.4539,-105.1003 394.5007,-108.8024 394.5007,-108.8024"/>
<ellipse fill="none" stroke="#000000" cx="391.3009" cy="-108.8434" rx="3.2" ry="3.2"/>
</g>
<!-- prison_configuration_audit -->
<g id="node6" class="node">
<title>prison_configuration_audit</title>
<g id="a_node6"><a xlink:href="../../tables/prison_configuration_audit.html" xlink:title="prison_configuration_audit" target="_top">
<polygon fill="#ffffff" stroke="transparent" points="370,-186.2 370,-335.2 747,-335.2 747,-186.2 370,-186.2"/>
<polygon fill="#f5f5f5" stroke="transparent" points="370.5,-311.7 370.5,-334.7 747.5,-334.7 747.5,-311.7 370.5,-311.7"/>
<polygon fill="none" stroke="#000000" points="370.5,-311.7 370.5,-334.7 747.5,-334.7 747.5,-311.7 370.5,-311.7"/>
<text text-anchor="start" x="375.5" y="-320.3" font-family="Helvetica,sans-Serif" font-weight="bold" font-size="11.00" fill="#000000">prison_configuration_audit</text>
<text text-anchor="start" x="712.5437" y="-319.8" font-family="Helvetica,sans-Serif" font-size="11.00" fill="#000000">[table]</text>
<polygon fill="none" stroke="#000000" points="370.5,-289.7 370.5,-311.7 747.5,-311.7 747.5,-289.7 370.5,-289.7"/>
<image xlink:href="../../images/primaryKeys.png" width="11px" height="12px" preserveAspectRatio="xMinYMin meet" x="375.5" y="-306.7"/>
<text text-anchor="start" x="390.5" y="-296.8" font-family="Helvetica,sans-Serif" font-size="11.00" fill="#000000">rev_id</text>
<polygon fill="none" stroke="#000000" points="370.5,-267.7 370.5,-289.7 747.5,-289.7 747.5,-267.7 370.5,-267.7"/>
<image xlink:href="../../images/primaryKeys.png" width="11px" height="12px" preserveAspectRatio="xMinYMin meet" x="375.5" y="-284.7"/>
<text text-anchor="start" x="390.5" y="-274.8" font-family="Helvetica,sans-Serif" font-size="11.00" fill="#000000">id</text>
<polygon fill="none" stroke="#000000" points="370.5,-245.7 370.5,-267.7 747.5,-267.7 747.5,-245.7 370.5,-245.7"/>
<image xlink:href="../../images/foreignKeys.png" width="11px" height="12px" preserveAspectRatio="xMinYMin meet" x="375.5" y="-262.7"/>
<text text-anchor="start" x="390.5" y="-252.8" font-family="Helvetica,sans-Serif" font-size="11.00" fill="#000000">prison_code</text>
<polygon fill="none" stroke="#000000" points="370.5,-223.7 370.5,-245.7 747.5,-245.7 747.5,-223.7 370.5,-223.7"/>
<image xlink:href="../../images/foreignKeys.png" width="11px" height="12px" preserveAspectRatio="xMinYMin meet" x="375.5" y="-240.7"/>
<text text-anchor="start" x="390.5" y="-230.8" font-family="Helvetica,sans-Serif" font-size="11.00" fill="#000000">policy_code</text>
<polygon fill="none" stroke="#000000" points="370.5,-204.7 370.5,-223.7 747.5,-223.7 747.5,-204.7 370.5,-204.7"/>
<text text-anchor="start" x="373.5" y="-210.8" font-family="Helvetica,sans-Serif" font-size="11.00" fill="#000000">...</text>
<polygon fill="#ffffff" stroke="transparent" points="370.5,-185.7 370.5,-204.7 557.5,-204.7 557.5,-185.7 370.5,-185.7"/>
<polygon fill="none" stroke="#000000" points="370.5,-185.7 370.5,-204.7 557.5,-204.7 557.5,-185.7 370.5,-185.7"/>
<text text-anchor="start" x="373.5" y="-191.8" font-family="Helvetica,sans-Serif" font-size="11.00" fill="#000000">&lt; 3</text>
<polygon fill="#ffffff" stroke="transparent" points="557.5,-185.7 557.5,-204.7 652.5,-204.7 652.5,-185.7 557.5,-185.7"/>
<polygon fill="none" stroke="#000000" points="557.5,-185.7 557.5,-204.7 652.5,-204.7 652.5,-185.7 557.5,-185.7"/>
<text text-anchor="start" x="643.3862" y="-191.8" font-family="Helvetica,sans-Serif" font-size="11.00" fill="#000000"> &#160;</text>
<polygon fill="#ffffff" stroke="transparent" points="652.5,-185.7 652.5,-204.7 747.5,-204.7 747.5,-185.7 652.5,-185.7"/>
<polygon fill="none" stroke="#000000" points="652.5,-185.7 652.5,-204.7 747.5,-204.7 747.5,-185.7 652.5,-185.7"/>
<text text-anchor="start" x="738.3862" y="-191.8" font-family="Helvetica,sans-Serif" font-size="11.00" fill="#000000"> &#160;</text>
</a>
</g>
</g>
<!-- prison_configuration_audit&#45;&gt;prison_migration_date_history -->
<g id="edge6" class="edge">
<title>prison_configuration_audit:w&#45;&gt;prison_migration_date_history:e</title>
<path fill="none" stroke="#000000" stroke-dasharray="5,2" d="M355.776,-256.7C343.7815,-256.7 336.3229,-256.7 319.5,-256.7"/>
<polygon fill="#000000" stroke="#000000" points="362.5,-256.7001 370.5,-260.3 366.5,-256.7 370.5,-256.7 370.5,-256.7 370.5,-256.7 366.5,-256.7 370.5,-253.1 362.5,-256.7001 362.5,-256.7001"/>
<ellipse fill="none" stroke="#000000" cx="359.3" cy="-256.7001" rx="3.2" ry="3.2"/>
</g>
<!-- prison_configuration_audit&#45;&gt;policy -->
<g id="edge5" class="edge">
<title>prison_configuration_audit:w&#45;&gt;policy:e</title>
<path fill="none" stroke="#000000" stroke-dasharray="5,2" d="M356.5862,-230.8147C345.5456,-222.8794 345.2169,-204.5609 329,-192.7 278.4627,-155.7375 266.1119,-128.7 203.5,-128.7"/>
<polygon fill="#000000" stroke="#000000" points="362.7948,-232.5483 369.5318,-238.1674 366.6474,-233.6242 370.5,-234.7 370.5,-234.7 370.5,-234.7 366.6474,-233.6242 371.4682,-231.2326 362.7948,-232.5483 362.7948,-232.5483"/>
<ellipse fill="none" stroke="#000000" cx="359.7127" cy="-231.6877" rx="3.2" ry="3.2"/>
</g>
<!-- audit_revision -->
<g id="node7" class="node">
<title>audit_revision</title>
<g id="a_node7"><a xlink:href="../../tables/audit_revision.html" xlink:title="audit_revision" target="_top">
<polygon fill="#ffffff" stroke="transparent" points="97.5,-314.2 97.5,-375.2 231.5,-375.2 231.5,-314.2 97.5,-314.2"/>
<polygon fill="#f5f5f5" stroke="transparent" points="97.5,-351.7 97.5,-374.7 231.5,-374.7 231.5,-351.7 97.5,-351.7"/>
<polygon fill="none" stroke="#000000" points="97.5,-351.7 97.5,-374.7 231.5,-374.7 231.5,-351.7 97.5,-351.7"/>
<text text-anchor="start" x="102.5" y="-360.3" font-family="Helvetica,sans-Serif" font-weight="bold" font-size="11.00" fill="#000000">audit_revision</text>
<text text-anchor="start" x="197.0219" y="-359.8" font-family="Helvetica,sans-Serif" font-size="11.00" fill="#000000">[table]</text>
<polygon fill="none" stroke="#000000" points="97.5,-332.7 97.5,-351.7 231.5,-351.7 231.5,-332.7 97.5,-332.7"/>
<text text-anchor="start" x="100.5" y="-338.8" font-family="Helvetica,sans-Serif" font-size="11.00" fill="#000000">...</text>
<polygon fill="#ffffff" stroke="transparent" points="97.5,-313.7 97.5,-332.7 153.5,-332.7 153.5,-313.7 97.5,-313.7"/>
<polygon fill="none" stroke="#000000" points="97.5,-313.7 97.5,-332.7 153.5,-332.7 153.5,-313.7 97.5,-313.7"/>
<text text-anchor="start" x="100.5" y="-319.8" font-family="Helvetica,sans-Serif" font-size="11.00" fill="#000000"> &#160;</text>
<polygon fill="#ffffff" stroke="transparent" points="153.5,-313.7 153.5,-332.7 187.5,-332.7 187.5,-313.7 153.5,-313.7"/>
<polygon fill="none" stroke="#000000" points="153.5,-313.7 153.5,-332.7 187.5,-332.7 187.5,-313.7 153.5,-313.7"/>
<text text-anchor="start" x="178.3862" y="-319.8" font-family="Helvetica,sans-Serif" font-size="11.00" fill="#000000"> &#160;</text>
<polygon fill="#ffffff" stroke="transparent" points="187.5,-313.7 187.5,-332.7 231.5,-332.7 231.5,-313.7 187.5,-313.7"/>
<polygon fill="none" stroke="#000000" points="187.5,-313.7 187.5,-332.7 231.5,-332.7 231.5,-313.7 187.5,-313.7"/>
<text text-anchor="start" x="212.9053" y="-319.8" font-family="Helvetica,sans-Serif" font-size="11.00" fill="#000000">2 &gt;</text>
</a>
</g>
</g>
<!-- prison_configuration_audit&#45;&gt;audit_revision -->
<g id="edge7" class="edge">
<title>prison_configuration_audit:w&#45;&gt;audit_revision:e</title>
<path fill="none" stroke="#000000" d="M356.0142,-301.4466C304.1124,-307.0035 290.7514,-341.7 231.5,-341.7"/>
<polygon fill="#000000" stroke="#000000" points="362.5106,-301.1118 370.6853,-304.2952 366.5053,-300.9059 370.5,-300.7 370.5,-300.7 370.5,-300.7 366.5053,-300.9059 370.3147,-297.1048 362.5106,-301.1118 362.5106,-301.1118"/>
<ellipse fill="none" stroke="#000000" cx="359.3148" cy="-301.2766" rx="3.2" ry="3.2"/>
</g>
</g>
</svg>
