<?xml version="1.0" encoding="UTF-8" standalone="no"?>
<!DOCTYPE svg PUBLIC "-//W3C//DTD SVG 1.1//EN"
 "http://www.w3.org/Graphics/SVG/1.1/DTD/svg11.dtd">
<!-- Generated by graphviz version 2.40.1 (20161225.0304)
 -->
<!-- Title: oneDegreeRelationshipsDiagramImplied Pages: 1 -->
<svg width="687pt" height="413pt"
 viewBox="0.00 0.00 687.00 413.20" xmlns="http://www.w3.org/2000/svg" xmlns:xlink="http://www.w3.org/1999/xlink">
<g id="graph0" class="graph" transform="scale(1 1) rotate(0) translate(4 409.2)">
<title>oneDegreeRelationshipsDiagramImplied</title>
<polygon fill="#ffffff" stroke="transparent" points="-4,4 -4,-409.2 683,-409.2 683,4 -4,4"/>
<text text-anchor="middle" x="72.4936" y="-7.3" font-family="Helvetica,sans-Serif" font-size="11.00" fill="#000000">Generated by SchemaSpy</text>
<!-- keyworker_stats -->
<g id="node1" class="node">
<title>keyworker_stats</title>
<g id="a_node1"><a xlink:href="../../tables/keyworker_stats.html" xlink:title="keyworker_stats" target="_top">
<polygon fill="#ffffff" stroke="transparent" points="457,-274.2 457,-401.2 671,-401.2 671,-274.2 457,-274.2"/>
<polygon fill="#f5f5f5" stroke="transparent" points="457,-377.7 457,-400.7 671,-400.7 671,-377.7 457,-377.7"/>
<polygon fill="none" stroke="#000000" points="457,-377.7 457,-400.7 671,-400.7 671,-377.7 457,-377.7"/>
<text text-anchor="start" x="462" y="-386.3" font-family="Helvetica,sans-Serif" font-weight="bold" font-size="11.00" fill="#000000">keyworker_stats</text>
<text text-anchor="start" x="636.0437" y="-385.8" font-family="Helvetica,sans-Serif" font-size="11.00" fill="#000000">[table]</text>
<polygon fill="none" stroke="#000000" points="457,-355.7 457,-377.7 671,-377.7 671,-355.7 457,-355.7"/>
<image xlink:href="../../images/primaryKeys.png" width="11px" height="12px" preserveAspectRatio="xMinYMin meet" x="462" y="-372.7"/>
<text text-anchor="start" x="477" y="-362.8" font-family="Helvetica,sans-Serif" font-size="11.00" fill="#000000">keyworker_stats_id</text>
<polygon fill="#ffffff" stroke="transparent" points="457,-333.7 457,-355.7 671,-355.7 671,-333.7 457,-333.7"/>
<polygon fill="none" stroke="#000000" points="457,-333.7 457,-355.7 671,-355.7 671,-333.7 457,-333.7"/>
<image xlink:href="../../images/foreignKeys.png" width="11px" height="12px" preserveAspectRatio="xMinYMin meet" x="462" y="-350.7"/>
<text text-anchor="start" x="477" y="-340.8" font-family="Helvetica,sans-Serif" font-size="11.00" fill="#000000">prison_id</text>
<polygon fill="#ffffff" stroke="transparent" points="457,-311.7 457,-333.7 671,-333.7 671,-311.7 457,-311.7"/>
<polygon fill="none" stroke="#000000" points="457,-311.7 457,-333.7 671,-333.7 671,-311.7 457,-311.7"/>
<text text-anchor="start" x="477" y="-318.8" font-family="Helvetica,sans-Serif" font-size="11.00" fill="#000000">snapshot_date</text>
<polygon fill="none" stroke="#000000" points="457,-292.7 457,-311.7 671,-311.7 671,-292.7 457,-292.7"/>
<text text-anchor="start" x="460" y="-298.8" font-family="Helvetica,sans-Serif" font-size="11.00" fill="#000000">...</text>
<polygon fill="#ffffff" stroke="transparent" points="457,-273.7 457,-292.7 562,-292.7 562,-273.7 457,-273.7"/>
<polygon fill="none" stroke="#000000" points="457,-273.7 457,-292.7 562,-292.7 562,-273.7 457,-273.7"/>
<text text-anchor="start" x="460" y="-279.8" font-family="Helvetica,sans-Serif" font-size="11.00" fill="#000000">&lt; 1</text>
<polygon fill="#ffffff" stroke="transparent" points="562,-273.7 562,-292.7 616,-292.7 616,-273.7 562,-273.7"/>
<polygon fill="none" stroke="#000000" points="562,-273.7 562,-292.7 616,-292.7 616,-273.7 562,-273.7"/>
<text text-anchor="start" x="606.8862" y="-279.8" font-family="Helvetica,sans-Serif" font-size="11.00" fill="#000000"> &#160;</text>
<polygon fill="#ffffff" stroke="transparent" points="616,-273.7 616,-292.7 671,-292.7 671,-273.7 616,-273.7"/>
<polygon fill="none" stroke="#000000" points="616,-273.7 616,-292.7 671,-292.7 671,-273.7 616,-273.7"/>
<text text-anchor="start" x="661.8862" y="-279.8" font-family="Helvetica,sans-Serif" font-size="11.00" fill="#000000"> &#160;</text>
</a>
</g>
</g>
<!-- prison_supported -->
<g id="node2" class="node">
<title>prison_supported</title>
<g id="a_node2"><a xlink:href="../../tables/prison_supported.html" xlink:title="prison_supported" target="_top">
<polygon fill="#ffffff" stroke="transparent" points="8,-51.7 8,-273.7 408,-273.7 408,-51.7 8,-51.7"/>
<polygon fill="#f5f5f5" stroke="transparent" points="10,-248.7 10,-271.7 406,-271.7 406,-248.7 10,-248.7"/>
<polygon fill="none" stroke="#000000" points="10,-248.7 10,-271.7 406,-271.7 406,-248.7 10,-248.7"/>
<text text-anchor="start" x="15" y="-257.3" font-family="Helvetica,sans-Serif" font-weight="bold" font-size="11.00" fill="#000000">prison_supported</text>
<text text-anchor="start" x="371.0437" y="-256.8" font-family="Helvetica,sans-Serif" font-size="11.00" fill="#000000">[table]</text>
<polygon fill="none" stroke="#000000" points="10,-226.7 10,-248.7 322,-248.7 322,-226.7 10,-226.7"/>
<image xlink:href="../../images/primaryKeys.png" width="11px" height="12px" preserveAspectRatio="xMinYMin meet" x="15" y="-243.7"/>
<text text-anchor="start" x="30" y="-233.8" font-family="Helvetica,sans-Serif" font-size="11.00" fill="#000000">prison_id</text>
<polygon fill="none" stroke="#000000" points="322,-226.7 322,-248.7 406,-248.7 406,-226.7 322,-226.7"/>
<text text-anchor="start" x="325" y="-234.4" font-family="Helvetica,sans-Serif" font-size="11.00" fill="#000000">varchar[6]</text>
<polygon fill="none" stroke="#000000" points="10,-204.7 10,-226.7 322,-226.7 322,-204.7 10,-204.7"/>
<text text-anchor="start" x="30" y="-211.8" font-family="Helvetica,sans-Serif" font-size="11.00" fill="#000000">auto_allocate</text>
<polygon fill="none" stroke="#000000" points="322,-204.7 322,-226.7 406,-226.7 406,-204.7 322,-204.7"/>
<text text-anchor="start" x="325" y="-212.4" font-family="Helvetica,sans-Serif" font-size="11.00" fill="#000000">bool[1]</text>
<polygon fill="none" stroke="#000000" points="10,-182.7 10,-204.7 322,-204.7 322,-182.7 10,-182.7"/>
<text text-anchor="start" x="30" y="-189.8" font-family="Helvetica,sans-Serif" font-size="11.00" fill="#000000">migrated</text>
<polygon fill="none" stroke="#000000" points="322,-182.7 322,-204.7 406,-204.7 406,-182.7 322,-182.7"/>
<text text-anchor="start" x="325" y="-190.4" font-family="Helvetica,sans-Serif" font-size="11.00" fill="#000000">bool[1]</text>
<polygon fill="none" stroke="#000000" points="10,-160.7 10,-182.7 322,-182.7 322,-160.7 10,-160.7"/>
<text text-anchor="start" x="30" y="-167.8" font-family="Helvetica,sans-Serif" font-size="11.00" fill="#000000">migrated_date_time</text>
<polygon fill="none" stroke="#000000" points="322,-160.7 322,-182.7 406,-182.7 406,-160.7 322,-160.7"/>
<text text-anchor="start" x="324.8807" y="-168.4" font-family="Helvetica,sans-Serif" font-size="11.00" fill="#000000">timestamp[29,6]</text>
<polygon fill="none" stroke="#000000" points="10,-138.7 10,-160.7 322,-160.7 322,-138.7 10,-138.7"/>
<text text-anchor="start" x="30" y="-145.8" font-family="Helvetica,sans-Serif" font-size="11.00" fill="#000000">capacity_tier_1</text>
<polygon fill="none" stroke="#000000" points="322,-138.7 322,-160.7 406,-160.7 406,-138.7 322,-138.7"/>
<text text-anchor="start" x="325" y="-146.4" font-family="Helvetica,sans-Serif" font-size="11.00" fill="#000000">int4[10]</text>
<polygon fill="none" stroke="#000000" points="10,-116.7 10,-138.7 322,-138.7 322,-116.7 10,-116.7"/>
<text text-anchor="start" x="30" y="-123.8" font-family="Helvetica,sans-Serif" font-size="11.00" fill="#000000">capacity_tier_2</text>
<polygon fill="none" stroke="#000000" points="322,-116.7 322,-138.7 406,-138.7 406,-116.7 322,-116.7"/>
<text text-anchor="start" x="325" y="-124.4" font-family="Helvetica,sans-Serif" font-size="11.00" fill="#000000">int4[10]</text>
<polygon fill="none" stroke="#000000" points="10,-94.7 10,-116.7 322,-116.7 322,-94.7 10,-94.7"/>
<text text-anchor="start" x="30" y="-101.8" font-family="Helvetica,sans-Serif" font-size="11.00" fill="#000000">kw_session_freq_weeks</text>
<polygon fill="none" stroke="#000000" points="322,-94.7 322,-116.7 406,-116.7 406,-94.7 322,-94.7"/>
<text text-anchor="start" x="325" y="-102.4" font-family="Helvetica,sans-Serif" font-size="11.00" fill="#000000">int4[10]</text>
<polygon fill="none" stroke="#000000" points="10,-72.7 10,-94.7 322,-94.7 322,-72.7 10,-72.7"/>
<text text-anchor="start" x="30" y="-79.8" font-family="Helvetica,sans-Serif" font-size="11.00" fill="#000000">has_prisoners_with_high_complexity_needs</text>
<polygon fill="none" stroke="#000000" points="322,-72.7 322,-94.7 406,-94.7 406,-72.7 322,-72.7"/>
<text text-anchor="start" x="325" y="-80.4" font-family="Helvetica,sans-Serif" font-size="11.00" fill="#000000">bool[1]</text>
<polygon fill="#ffffff" stroke="transparent" points="10,-53.7 10,-72.7 170,-72.7 170,-53.7 10,-53.7"/>
<polygon fill="none" stroke="#000000" points="10,-53.7 10,-72.7 170,-72.7 170,-53.7 10,-53.7"/>
<text text-anchor="start" x="13" y="-59.8" font-family="Helvetica,sans-Serif" font-size="11.00" fill="#000000">&lt; 0</text>
<polygon fill="#ffffff" stroke="transparent" points="170,-53.7 170,-72.7 322,-72.7 322,-53.7 170,-53.7"/>
<polygon fill="none" stroke="#000000" points="170,-53.7 170,-72.7 322,-72.7 322,-53.7 170,-53.7"/>
<text text-anchor="start" x="312.8862" y="-59.8" font-family="Helvetica,sans-Serif" font-size="11.00" fill="#000000"> &#160;</text>
<polygon fill="#ffffff" stroke="transparent" points="322,-53.7 322,-72.7 406,-72.7 406,-53.7 322,-53.7"/>
<polygon fill="none" stroke="#000000" points="322,-53.7 322,-72.7 406,-72.7 406,-53.7 322,-53.7"/>
<text text-anchor="start" x="387.4053" y="-59.8" font-family="Helvetica,sans-Serif" font-size="11.00" fill="#000000">2 &gt;</text>
<polygon fill="none" stroke="#000000" stroke-width="2" points="9,-52.7 9,-272.7 407,-272.7 407,-52.7 9,-52.7"/>
</a>
</g>
</g>
<!-- keyworker_stats&#45;&gt;prison_supported -->
<g id="edge1" class="edge">
<title>keyworker_stats:w&#45;&gt;prison_supported:e</title>
<path fill="none" stroke="#000000" stroke-dasharray="5,2" d="M442.9064,-340.8918C415.2616,-321.8309 452.7134,-237.7 406,-237.7"/>
<polygon fill="#000000" stroke="#000000" points="449.277,-342.6131 456.0609,-348.1754 453.1385,-343.6566 457,-344.7 457,-344.7 457,-344.7 453.1385,-343.6566 457.9391,-341.2246 449.277,-342.6131 449.277,-342.6131"/>
<ellipse fill="none" stroke="#000000" cx="446.1878" cy="-341.7784" rx="3.2" ry="3.2"/>
</g>
<!-- offender_key_worker -->
<g id="node3" class="node">
<title>offender_key_worker</title>
<g id="a_node3"><a xlink:href="../../tables/offender_key_worker.html" xlink:title="offender_key_worker" target="_top">
<polygon fill="#ffffff" stroke="transparent" points="474,-38.2 474,-253.2 654,-253.2 654,-38.2 474,-38.2"/>
<polygon fill="#f5f5f5" stroke="transparent" points="474,-229.7 474,-252.7 654,-252.7 654,-229.7 474,-229.7"/>
<polygon fill="none" stroke="#000000" points="474,-229.7 474,-252.7 654,-252.7 654,-229.7 474,-229.7"/>
<text text-anchor="start" x="479" y="-238.3" font-family="Helvetica,sans-Serif" font-weight="bold" font-size="11.00" fill="#000000">offender_key_worker</text>
<text text-anchor="start" x="619.5219" y="-237.8" font-family="Helvetica,sans-Serif" font-size="11.00" fill="#000000">[table]</text>
<polygon fill="none" stroke="#000000" points="474,-207.7 474,-229.7 654,-229.7 654,-207.7 474,-207.7"/>
<image xlink:href="../../images/primaryKeys.png" width="11px" height="12px" preserveAspectRatio="xMinYMin meet" x="479" y="-224.7"/>
<text text-anchor="start" x="497" y="-214.8" font-family="Helvetica,sans-Serif" font-size="11.00" fill="#000000">offender_keyworker_id</text>
<polygon fill="#ffffff" stroke="transparent" points="474,-185.7 474,-207.7 654,-207.7 654,-185.7 474,-185.7"/>
<polygon fill="none" stroke="#000000" points="474,-185.7 474,-207.7 654,-207.7 654,-185.7 474,-185.7"/>
<text text-anchor="start" x="497" y="-192.8" font-family="Helvetica,sans-Serif" font-size="11.00" fill="#000000">offender_no</text>
<polygon fill="#ffffff" stroke="transparent" points="474,-163.7 474,-185.7 654,-185.7 654,-163.7 474,-163.7"/>
<polygon fill="none" stroke="#000000" points="474,-163.7 474,-185.7 654,-185.7 654,-163.7 474,-163.7"/>
<text text-anchor="start" x="497" y="-170.8" font-family="Helvetica,sans-Serif" font-size="11.00" fill="#000000">staff_id</text>
<polygon fill="#ffffff" stroke="transparent" points="474,-141.7 474,-163.7 654,-163.7 654,-141.7 474,-141.7"/>
<polygon fill="none" stroke="#000000" points="474,-141.7 474,-163.7 654,-163.7 654,-141.7 474,-141.7"/>
<text text-anchor="start" x="497" y="-148.8" font-family="Helvetica,sans-Serif" font-size="11.00" fill="#000000">assigned_date_time</text>
<polygon fill="#ffffff" stroke="transparent" points="474,-119.7 474,-141.7 654,-141.7 654,-119.7 474,-119.7"/>
<polygon fill="none" stroke="#000000" points="474,-119.7 474,-141.7 654,-141.7 654,-119.7 474,-119.7"/>
<image xlink:href="../../images/foreignKeys.png" width="11px" height="12px" preserveAspectRatio="xMinYMin meet" x="479" y="-136.7"/>
<text text-anchor="start" x="497" y="-126.8" font-family="Helvetica,sans-Serif" font-size="11.00" fill="#000000">prison_id</text>
<polygon fill="none" stroke="#000000" points="474,-97.7 474,-119.7 654,-119.7 654,-97.7 474,-97.7"/>
<image xlink:href="../../images/foreignKeys.png" width="11px" height="12px" preserveAspectRatio="xMinYMin meet" x="479" y="-114.7"/>
<text text-anchor="start" x="497" y="-104.8" font-family="Helvetica,sans-Serif" font-size="11.00" fill="#000000">allocation_reason_id</text>
<polygon fill="none" stroke="#000000" points="474,-75.7 474,-97.7 654,-97.7 654,-75.7 474,-75.7"/>
<image xlink:href="../../images/foreignKeys.png" width="11px" height="12px" preserveAspectRatio="xMinYMin meet" x="479" y="-92.7"/>
<text text-anchor="start" x="497" y="-82.8" font-family="Helvetica,sans-Serif" font-size="11.00" fill="#000000">deallocation_reason_id</text>
<polygon fill="none" stroke="#000000" points="474,-56.7 474,-75.7 654,-75.7 654,-56.7 474,-56.7"/>
<text text-anchor="start" x="477" y="-62.8" font-family="Helvetica,sans-Serif" font-size="11.00" fill="#000000">...</text>
<polygon fill="#ffffff" stroke="transparent" points="474,-37.7 474,-56.7 562,-56.7 562,-37.7 474,-37.7"/>
<polygon fill="none" stroke="#000000" points="474,-37.7 474,-56.7 562,-56.7 562,-37.7 474,-37.7"/>
<text text-anchor="start" x="477" y="-43.8" font-family="Helvetica,sans-Serif" font-size="11.00" fill="#000000">&lt; 3</text>
<polygon fill="#ffffff" stroke="transparent" points="562,-37.7 562,-56.7 608,-56.7 608,-37.7 562,-37.7"/>
<polygon fill="none" stroke="#000000" points="562,-37.7 562,-56.7 608,-56.7 608,-37.7 562,-37.7"/>
<text text-anchor="start" x="598.8862" y="-43.8" font-family="Helvetica,sans-Serif" font-size="11.00" fill="#000000"> &#160;</text>
<polygon fill="#ffffff" stroke="transparent" points="608,-37.7 608,-56.7 654,-56.7 654,-37.7 608,-37.7"/>
<polygon fill="none" stroke="#000000" points="608,-37.7 608,-56.7 654,-56.7 654,-37.7 608,-37.7"/>
<text text-anchor="start" x="644.8862" y="-43.8" font-family="Helvetica,sans-Serif" font-size="11.00" fill="#000000"> &#160;</text>
</a>
</g>
</g>
<!-- offender_key_worker&#45;&gt;prison_supported -->
<g id="edge2" class="edge">
<title>offender_key_worker:w&#45;&gt;prison_supported:e</title>
<path fill="none" stroke="#000000" stroke-dasharray="5,2" d="M459.7469,-133.7869C425.6896,-151.3307 456.6237,-237.7 406,-237.7"/>
<polygon fill="#000000" stroke="#000000" points="466.1813,-132.3934 474.762,-134.2184 470.0906,-131.5467 474,-130.7 474,-130.7 474,-130.7 470.0906,-131.5467 473.238,-127.1816 466.1813,-132.3934 466.1813,-132.3934"/>
<ellipse fill="none" stroke="#000000" cx="463.0538" cy="-133.0708" rx="3.2" ry="3.2"/>
</g>
</g>
</svg>
