<?xml version="1.0" encoding="UTF-8" standalone="no"?>
<!DOCTYPE svg PUBLIC "-//W3C//DTD SVG 1.1//EN"
 "http://www.w3.org/Graphics/SVG/1.1/DTD/svg11.dtd">
<!-- Generated by graphviz version 2.40.1 (20161225.0304)
 -->
<!-- Title: twoDegreesRelationshipsDiagramImplied Pages: 1 -->
<svg width="785pt" height="1329pt"
 viewBox="0.00 0.00 785.00 1329.20" xmlns="http://www.w3.org/2000/svg" xmlns:xlink="http://www.w3.org/1999/xlink">
<g id="graph0" class="graph" transform="scale(1 1) rotate(0) translate(4 1325.2)">
<title>twoDegreesRelationshipsDiagramImplied</title>
<polygon fill="#ffffff" stroke="transparent" points="-4,4 -4,-1325.2 781,-1325.2 781,4 -4,4"/>
<text text-anchor="middle" x="72.4936" y="-7.3" font-family="Helvetica,sans-Serif" font-size="11.00" fill="#000000">Generated by SchemaSpy</text>
<!-- allocation -->
<g id="node1" class="node">
<title>allocation</title>
<g id="a_node1"><a xlink:href="../../tables/allocation.html" xlink:title="allocation" target="_top">
<polygon fill="#ffffff" stroke="transparent" points="306.5,-1256.2 306.5,-1317.2 411.5,-1317.2 411.5,-1256.2 306.5,-1256.2"/>
<polygon fill="#f5f5f5" stroke="transparent" points="307,-1293.7 307,-1316.7 412,-1316.7 412,-1293.7 307,-1293.7"/>
<polygon fill="none" stroke="#000000" points="307,-1293.7 307,-1316.7 412,-1316.7 412,-1293.7 307,-1293.7"/>
<text text-anchor="start" x="312" y="-1302.3" font-family="Helvetica,sans-Serif" font-weight="bold" font-size="11.00" fill="#000000">allocation</text>
<text text-anchor="start" x="377.5219" y="-1301.8" font-family="Helvetica,sans-Serif" font-size="11.00" fill="#000000">[table]</text>
<polygon fill="none" stroke="#000000" points="307,-1274.7 307,-1293.7 412,-1293.7 412,-1274.7 307,-1274.7"/>
<text text-anchor="start" x="310" y="-1280.8" font-family="Helvetica,sans-Serif" font-size="11.00" fill="#000000">...</text>
<polygon fill="#ffffff" stroke="transparent" points="307,-1255.7 307,-1274.7 358,-1274.7 358,-1255.7 307,-1255.7"/>
<polygon fill="none" stroke="#000000" points="307,-1255.7 307,-1274.7 358,-1274.7 358,-1255.7 307,-1255.7"/>
<text text-anchor="start" x="310" y="-1261.8" font-family="Helvetica,sans-Serif" font-size="11.00" fill="#000000">&lt; 3</text>
<polygon fill="#ffffff" stroke="transparent" points="358,-1255.7 358,-1274.7 385,-1274.7 385,-1255.7 358,-1255.7"/>
<polygon fill="none" stroke="#000000" points="358,-1255.7 358,-1274.7 385,-1274.7 385,-1255.7 358,-1255.7"/>
<text text-anchor="start" x="375.8862" y="-1261.8" font-family="Helvetica,sans-Serif" font-size="11.00" fill="#000000"> &#160;</text>
<polygon fill="#ffffff" stroke="transparent" points="385,-1255.7 385,-1274.7 412,-1274.7 412,-1255.7 385,-1255.7"/>
<polygon fill="none" stroke="#000000" points="385,-1255.7 385,-1274.7 412,-1274.7 412,-1255.7 385,-1255.7"/>
<text text-anchor="start" x="402.8862" y="-1261.8" font-family="Helvetica,sans-Serif" font-size="11.00" fill="#000000"> &#160;</text>
</a>
</g>
</g>
<!-- policy -->
<g id="node2" class="node">
<title>policy</title>
<g id="a_node2"><a xlink:href="../../tables/policy.html" xlink:title="policy" target="_top">
<polygon fill="#ffffff" stroke="transparent" points="8,-550.2 8,-633.2 105,-633.2 105,-550.2 8,-550.2"/>
<polygon fill="#f5f5f5" stroke="transparent" points="8.5,-609.7 8.5,-632.7 105.5,-632.7 105.5,-609.7 8.5,-609.7"/>
<polygon fill="none" stroke="#000000" points="8.5,-609.7 8.5,-632.7 105.5,-632.7 105.5,-609.7 8.5,-609.7"/>
<text text-anchor="start" x="13.5" y="-618.3" font-family="Helvetica,sans-Serif" font-weight="bold" font-size="11.00" fill="#000000">policy</text>
<text text-anchor="start" x="70.5437" y="-617.8" font-family="Helvetica,sans-Serif" font-size="11.00" fill="#000000">[table]</text>
<polygon fill="none" stroke="#000000" points="8.5,-587.7 8.5,-609.7 105.5,-609.7 105.5,-587.7 8.5,-587.7"/>
<image xlink:href="../../images/primaryKeys.png" width="11px" height="12px" preserveAspectRatio="xMinYMin meet" x="13.5" y="-604.7"/>
<text text-anchor="start" x="28.5" y="-594.8" font-family="Helvetica,sans-Serif" font-size="11.00" fill="#000000">code</text>
<polygon fill="none" stroke="#000000" points="8.5,-568.7 8.5,-587.7 105.5,-587.7 105.5,-568.7 8.5,-568.7"/>
<text text-anchor="start" x="11.5" y="-574.8" font-family="Helvetica,sans-Serif" font-size="11.00" fill="#000000">...</text>
<polygon fill="#ffffff" stroke="transparent" points="8.5,-549.7 8.5,-568.7 43.5,-568.7 43.5,-549.7 8.5,-549.7"/>
<polygon fill="none" stroke="#000000" points="8.5,-549.7 8.5,-568.7 43.5,-568.7 43.5,-549.7 8.5,-549.7"/>
<text text-anchor="start" x="11.5" y="-555.8" font-family="Helvetica,sans-Serif" font-size="11.00" fill="#000000"> &#160;</text>
<polygon fill="#ffffff" stroke="transparent" points="43.5,-549.7 43.5,-568.7 66.5,-568.7 66.5,-549.7 43.5,-549.7"/>
<polygon fill="none" stroke="#000000" points="43.5,-549.7 43.5,-568.7 66.5,-568.7 66.5,-549.7 43.5,-549.7"/>
<text text-anchor="start" x="57.3862" y="-555.8" font-family="Helvetica,sans-Serif" font-size="11.00" fill="#000000"> &#160;</text>
<polygon fill="#ffffff" stroke="transparent" points="66.5,-549.7 66.5,-568.7 105.5,-568.7 105.5,-549.7 66.5,-549.7"/>
<polygon fill="none" stroke="#000000" points="66.5,-549.7 66.5,-568.7 105.5,-568.7 105.5,-549.7 66.5,-549.7"/>
<text text-anchor="start" x="80.7904" y="-555.8" font-family="Helvetica,sans-Serif" font-size="11.00" fill="#000000">14 &gt;</text>
</a>
</g>
</g>
<!-- allocation&#45;&gt;policy -->
<g id="edge1" class="edge">
<title>allocation:w&#45;&gt;policy:e</title>
<path fill="none" stroke="#000000" d="M292.3782,-1283.9255C227.9656,-1285.8401 190.1662,-1298.0547 146,-1245.7 99.5552,-1190.6442 177.5296,-598.7 105.5,-598.7"/>
<polygon fill="#000000" stroke="#000000" points="299.001,-1283.8234 307.0555,-1287.2996 303.0005,-1283.7617 307,-1283.7 307,-1283.7 307,-1283.7 303.0005,-1283.7617 306.9445,-1280.1004 299.001,-1283.8234 299.001,-1283.8234"/>
<ellipse fill="none" stroke="#000000" cx="295.8013" cy="-1283.8728" rx="3.2" ry="3.2"/>
</g>
<!-- allocation_audit -->
<g id="node3" class="node">
<title>allocation_audit</title>
<g id="a_node3"><a xlink:href="../../tables/allocation_audit.html" xlink:title="allocation_audit" target="_top">
<polygon fill="#ffffff" stroke="transparent" points="286,-1174.2 286,-1235.2 432,-1235.2 432,-1174.2 286,-1174.2"/>
<polygon fill="#f5f5f5" stroke="transparent" points="286,-1211.7 286,-1234.7 432,-1234.7 432,-1211.7 286,-1211.7"/>
<polygon fill="none" stroke="#000000" points="286,-1211.7 286,-1234.7 432,-1234.7 432,-1211.7 286,-1211.7"/>
<text text-anchor="start" x="291" y="-1220.3" font-family="Helvetica,sans-Serif" font-weight="bold" font-size="11.00" fill="#000000">allocation_audit</text>
<text text-anchor="start" x="397.5219" y="-1219.8" font-family="Helvetica,sans-Serif" font-size="11.00" fill="#000000">[table]</text>
<polygon fill="none" stroke="#000000" points="286,-1192.7 286,-1211.7 432,-1211.7 432,-1192.7 286,-1192.7"/>
<text text-anchor="start" x="289" y="-1198.8" font-family="Helvetica,sans-Serif" font-size="11.00" fill="#000000">...</text>
<polygon fill="#ffffff" stroke="transparent" points="286,-1173.7 286,-1192.7 357,-1192.7 357,-1173.7 286,-1173.7"/>
<polygon fill="none" stroke="#000000" points="286,-1173.7 286,-1192.7 357,-1192.7 357,-1173.7 286,-1173.7"/>
<text text-anchor="start" x="289" y="-1179.8" font-family="Helvetica,sans-Serif" font-size="11.00" fill="#000000">&lt; 2</text>
<polygon fill="#ffffff" stroke="transparent" points="357,-1173.7 357,-1192.7 394,-1192.7 394,-1173.7 357,-1173.7"/>
<polygon fill="none" stroke="#000000" points="357,-1173.7 357,-1192.7 394,-1192.7 394,-1173.7 357,-1173.7"/>
<text text-anchor="start" x="384.8862" y="-1179.8" font-family="Helvetica,sans-Serif" font-size="11.00" fill="#000000"> &#160;</text>
<polygon fill="#ffffff" stroke="transparent" points="394,-1173.7 394,-1192.7 432,-1192.7 432,-1173.7 394,-1173.7"/>
<polygon fill="none" stroke="#000000" points="394,-1173.7 394,-1192.7 432,-1192.7 432,-1173.7 394,-1173.7"/>
<text text-anchor="start" x="422.8862" y="-1179.8" font-family="Helvetica,sans-Serif" font-size="11.00" fill="#000000"> &#160;</text>
</a>
</g>
</g>
<!-- allocation_audit&#45;&gt;policy -->
<g id="edge2" class="edge">
<title>allocation_audit:w&#45;&gt;policy:e</title>
<path fill="none" stroke="#000000" stroke-dasharray="5,2" d="M271.4195,-1201.8807C216.0883,-1203.1649 183.7719,-1209.591 146,-1163.7 106.0023,-1115.1049 168.4389,-598.7 105.5,-598.7"/>
<polygon fill="#000000" stroke="#000000" points="278.0006,-1201.7992 286.0446,-1205.2997 282.0003,-1201.7496 286,-1201.7 286,-1201.7 286,-1201.7 282.0003,-1201.7496 285.9554,-1198.1003 278.0006,-1201.7992 278.0006,-1201.7992"/>
<ellipse fill="none" stroke="#000000" cx="274.8009" cy="-1201.8389" rx="3.2" ry="3.2"/>
</g>
<!-- case_note_type_recorded_event_type -->
<g id="node4" class="node">
<title>case_note_type_recorded_event_type</title>
<g id="a_node4"><a xlink:href="../../tables/case_note_type_recorded_event_type.html" xlink:title="case_note_type_recorded_event_type" target="_top">
<polygon fill="#ffffff" stroke="transparent" points="214.5,-1092.2 214.5,-1153.2 503.5,-1153.2 503.5,-1092.2 214.5,-1092.2"/>
<polygon fill="#f5f5f5" stroke="transparent" points="215,-1129.7 215,-1152.7 504,-1152.7 504,-1129.7 215,-1129.7"/>
<polygon fill="none" stroke="#000000" points="215,-1129.7 215,-1152.7 504,-1152.7 504,-1129.7 215,-1129.7"/>
<text text-anchor="start" x="220" y="-1138.3" font-family="Helvetica,sans-Serif" font-weight="bold" font-size="11.00" fill="#000000">case_note_type_recorded_event_type</text>
<text text-anchor="start" x="469.5219" y="-1137.8" font-family="Helvetica,sans-Serif" font-size="11.00" fill="#000000">[table]</text>
<polygon fill="none" stroke="#000000" points="215,-1110.7 215,-1129.7 504,-1129.7 504,-1110.7 215,-1110.7"/>
<text text-anchor="start" x="218" y="-1116.8" font-family="Helvetica,sans-Serif" font-size="11.00" fill="#000000">...</text>
<polygon fill="#ffffff" stroke="transparent" points="215,-1091.7 215,-1110.7 358,-1110.7 358,-1091.7 215,-1091.7"/>
<polygon fill="none" stroke="#000000" points="215,-1091.7 215,-1110.7 358,-1110.7 358,-1091.7 215,-1091.7"/>
<text text-anchor="start" x="218" y="-1097.8" font-family="Helvetica,sans-Serif" font-size="11.00" fill="#000000">&lt; 1</text>
<polygon fill="#ffffff" stroke="transparent" points="358,-1091.7 358,-1110.7 431,-1110.7 431,-1091.7 358,-1091.7"/>
<polygon fill="none" stroke="#000000" points="358,-1091.7 358,-1110.7 431,-1110.7 431,-1091.7 358,-1091.7"/>
<text text-anchor="start" x="421.8862" y="-1097.8" font-family="Helvetica,sans-Serif" font-size="11.00" fill="#000000"> &#160;</text>
<polygon fill="#ffffff" stroke="transparent" points="431,-1091.7 431,-1110.7 504,-1110.7 504,-1091.7 431,-1091.7"/>
<polygon fill="none" stroke="#000000" points="431,-1091.7 431,-1110.7 504,-1110.7 504,-1091.7 431,-1091.7"/>
<text text-anchor="start" x="494.8862" y="-1097.8" font-family="Helvetica,sans-Serif" font-size="11.00" fill="#000000"> &#160;</text>
</a>
</g>
</g>
<!-- case_note_type_recorded_event_type&#45;&gt;policy -->
<g id="edge3" class="edge">
<title>case_note_type_recorded_event_type:w&#45;&gt;policy:e</title>
<path fill="none" stroke="#000000" stroke-dasharray="5,2" d="M200.3116,-1119.0563C175.3441,-1116.5892 162.152,-1106.5955 146,-1081.7 116.688,-1036.5207 159.355,-598.7 105.5,-598.7"/>
<polygon fill="#000000" stroke="#000000" points="207.0077,-1119.3497 214.8424,-1123.2965 211.0038,-1119.5248 215,-1119.7 215,-1119.7 215,-1119.7 211.0038,-1119.5248 215.1576,-1116.1035 207.0077,-1119.3497 207.0077,-1119.3497"/>
<ellipse fill="none" stroke="#000000" cx="203.8107" cy="-1119.2096" rx="3.2" ry="3.2"/>
</g>
<!-- prison_configuration -->
<g id="node5" class="node">
<title>prison_configuration</title>
<g id="a_node5"><a xlink:href="../../tables/prison_configuration.html" xlink:title="prison_configuration" target="_top">
<polygon fill="#ffffff" stroke="transparent" points="154,-804.7 154,-1070.7 564,-1070.7 564,-804.7 154,-804.7"/>
<polygon fill="#f5f5f5" stroke="transparent" points="156,-1045.7 156,-1068.7 562,-1068.7 562,-1045.7 156,-1045.7"/>
<polygon fill="none" stroke="#000000" points="156,-1045.7 156,-1068.7 562,-1068.7 562,-1045.7 156,-1045.7"/>
<text text-anchor="start" x="161" y="-1054.3" font-family="Helvetica,sans-Serif" font-weight="bold" font-size="11.00" fill="#000000">prison_configuration</text>
<text text-anchor="start" x="527.0437" y="-1053.8" font-family="Helvetica,sans-Serif" font-size="11.00" fill="#000000">[table]</text>
<polygon fill="#ffffff" stroke="transparent" points="156,-1023.7 156,-1045.7 468,-1045.7 468,-1023.7 156,-1023.7"/>
<polygon fill="none" stroke="#000000" points="156,-1023.7 156,-1045.7 468,-1045.7 468,-1023.7 156,-1023.7"/>
<text text-anchor="start" x="176" y="-1030.8" font-family="Helvetica,sans-Serif" font-size="11.00" fill="#000000">prison_code</text>
<polygon fill="none" stroke="#000000" points="468,-1023.7 468,-1045.7 562,-1045.7 562,-1023.7 468,-1023.7"/>
<text text-anchor="start" x="471" y="-1031.4" font-family="Helvetica,sans-Serif" font-size="11.00" fill="#000000">varchar[6]</text>
<polygon fill="none" stroke="#000000" points="156,-1001.7 156,-1023.7 468,-1023.7 468,-1001.7 156,-1001.7"/>
<text text-anchor="start" x="176" y="-1008.8" font-family="Helvetica,sans-Serif" font-size="11.00" fill="#000000">allow_auto_allocation</text>
<polygon fill="none" stroke="#000000" points="468,-1001.7 468,-1023.7 562,-1023.7 562,-1001.7 468,-1001.7"/>
<text text-anchor="start" x="471" y="-1009.4" font-family="Helvetica,sans-Serif" font-size="11.00" fill="#000000">bool[1]</text>
<polygon fill="none" stroke="#000000" points="156,-979.7 156,-1001.7 468,-1001.7 468,-979.7 156,-979.7"/>
<text text-anchor="start" x="176" y="-986.8" font-family="Helvetica,sans-Serif" font-size="11.00" fill="#000000">is_enabled</text>
<polygon fill="none" stroke="#000000" points="468,-979.7 468,-1001.7 562,-1001.7 562,-979.7 468,-979.7"/>
<text text-anchor="start" x="471" y="-987.4" font-family="Helvetica,sans-Serif" font-size="11.00" fill="#000000">bool[1]</text>
<polygon fill="none" stroke="#000000" points="156,-957.7 156,-979.7 468,-979.7 468,-957.7 156,-957.7"/>
<text text-anchor="start" x="176" y="-964.8" font-family="Helvetica,sans-Serif" font-size="11.00" fill="#000000">capacity</text>
<polygon fill="none" stroke="#000000" points="468,-957.7 468,-979.7 562,-979.7 562,-957.7 468,-957.7"/>
<text text-anchor="start" x="471" y="-965.4" font-family="Helvetica,sans-Serif" font-size="11.00" fill="#000000">int4[10]</text>
<polygon fill="none" stroke="#000000" points="156,-935.7 156,-957.7 468,-957.7 468,-935.7 156,-935.7"/>
<text text-anchor="start" x="176" y="-942.8" font-family="Helvetica,sans-Serif" font-size="11.00" fill="#000000">frequency_in_weeks</text>
<polygon fill="none" stroke="#000000" points="468,-935.7 468,-957.7 562,-957.7 562,-935.7 468,-935.7"/>
<text text-anchor="start" x="471" y="-943.4" font-family="Helvetica,sans-Serif" font-size="11.00" fill="#000000">int4[10]</text>
<polygon fill="none" stroke="#000000" points="156,-913.7 156,-935.7 468,-935.7 468,-913.7 156,-913.7"/>
<text text-anchor="start" x="176" y="-920.8" font-family="Helvetica,sans-Serif" font-size="11.00" fill="#000000">has_prisoners_with_high_complexity_needs</text>
<polygon fill="none" stroke="#000000" points="468,-913.7 468,-935.7 562,-935.7 562,-913.7 468,-913.7"/>
<text text-anchor="start" x="471" y="-921.4" font-family="Helvetica,sans-Serif" font-size="11.00" fill="#000000">bool[1]</text>
<polygon fill="#ffffff" stroke="transparent" points="156,-891.7 156,-913.7 468,-913.7 468,-891.7 156,-891.7"/>
<polygon fill="none" stroke="#000000" points="156,-891.7 156,-913.7 468,-913.7 468,-891.7 156,-891.7"/>
<image xlink:href="../../images/foreignKeys.png" width="11px" height="12px" preserveAspectRatio="xMinYMin meet" x="161" y="-908.7"/>
<text text-anchor="start" x="176" y="-898.8" font-family="Helvetica,sans-Serif" font-size="11.00" fill="#000000">policy_code</text>
<polygon fill="none" stroke="#000000" points="468,-891.7 468,-913.7 562,-913.7 562,-891.7 468,-891.7"/>
<text text-anchor="start" x="471" y="-899.4" font-family="Helvetica,sans-Serif" font-size="11.00" fill="#000000">varchar[16]</text>
<polygon fill="none" stroke="#000000" points="156,-869.7 156,-891.7 468,-891.7 468,-869.7 156,-869.7"/>
<image xlink:href="../../images/primaryKeys.png" width="11px" height="12px" preserveAspectRatio="xMinYMin meet" x="161" y="-886.7"/>
<text text-anchor="start" x="176" y="-876.8" font-family="Helvetica,sans-Serif" font-size="11.00" fill="#000000">id</text>
<polygon fill="none" stroke="#000000" points="468,-869.7 468,-891.7 562,-891.7 562,-869.7 468,-869.7"/>
<text text-anchor="start" x="470.9758" y="-877.4" font-family="Helvetica,sans-Serif" font-size="11.00" fill="#000000">uuid[2147483647]</text>
<polygon fill="none" stroke="#000000" points="156,-847.7 156,-869.7 468,-869.7 468,-847.7 156,-847.7"/>
<text text-anchor="start" x="176" y="-854.8" font-family="Helvetica,sans-Serif" font-size="11.00" fill="#000000">allocation_order</text>
<polygon fill="none" stroke="#000000" points="468,-847.7 468,-869.7 562,-869.7 562,-847.7 468,-847.7"/>
<text text-anchor="start" x="471" y="-855.4" font-family="Helvetica,sans-Serif" font-size="11.00" fill="#000000">varchar[15]</text>
<polygon fill="none" stroke="#000000" points="156,-825.7 156,-847.7 468,-847.7 468,-825.7 156,-825.7"/>
<text text-anchor="start" x="176" y="-832.8" font-family="Helvetica,sans-Serif" font-size="11.00" fill="#000000">version</text>
<polygon fill="none" stroke="#000000" points="468,-825.7 468,-847.7 562,-847.7 562,-825.7 468,-825.7"/>
<text text-anchor="start" x="471" y="-833.4" font-family="Helvetica,sans-Serif" font-size="11.00" fill="#000000">int4[10]</text>
<polygon fill="#ffffff" stroke="transparent" points="156,-806.7 156,-825.7 300,-825.7 300,-806.7 156,-806.7"/>
<polygon fill="none" stroke="#000000" points="156,-806.7 156,-825.7 300,-825.7 300,-806.7 156,-806.7"/>
<text text-anchor="start" x="159" y="-812.8" font-family="Helvetica,sans-Serif" font-size="11.00" fill="#000000">&lt; 1</text>
<polygon fill="#ffffff" stroke="transparent" points="300,-806.7 300,-825.7 468,-825.7 468,-806.7 300,-806.7"/>
<polygon fill="none" stroke="#000000" points="300,-806.7 300,-825.7 468,-825.7 468,-806.7 300,-806.7"/>
<text text-anchor="start" x="426.4956" y="-812.8" font-family="Helvetica,sans-Serif" font-size="11.00" fill="#000000">12 rows</text>
<polygon fill="#ffffff" stroke="transparent" points="468,-806.7 468,-825.7 562,-825.7 562,-806.7 468,-806.7"/>
<polygon fill="none" stroke="#000000" points="468,-806.7 468,-825.7 562,-825.7 562,-806.7 468,-806.7"/>
<text text-anchor="start" x="543.4053" y="-812.8" font-family="Helvetica,sans-Serif" font-size="11.00" fill="#000000">0 &gt;</text>
<polygon fill="none" stroke="#000000" stroke-width="2" points="155,-805.7 155,-1069.7 563,-1069.7 563,-805.7 155,-805.7"/>
</a>
</g>
</g>
<!-- prison_configuration&#45;&gt;policy -->
<g id="edge4" class="edge">
<title>prison_configuration:w&#45;&gt;policy:e</title>
<path fill="none" stroke="#000000" d="M142.37,-897.164C100.3726,-855.9619 168.4975,-598.7 105.5,-598.7"/>
<polygon fill="#000000" stroke="#000000" points="148.588,-899.6895 154.6453,-906.0354 152.294,-901.1947 156,-902.7 156,-902.7 156,-902.7 152.294,-901.1947 157.3547,-899.3646 148.588,-899.6895 148.588,-899.6895"/>
<ellipse fill="none" stroke="#000000" cx="145.6233" cy="-898.4853" rx="3.2" ry="3.2"/>
</g>
<!-- prison_configuration_audit -->
<g id="node6" class="node">
<title>prison_configuration_audit</title>
<g id="a_node6"><a xlink:href="../../tables/prison_configuration_audit.html" xlink:title="prison_configuration_audit" target="_top">
<polygon fill="#ffffff" stroke="transparent" points="249.5,-722.2 249.5,-783.2 468.5,-783.2 468.5,-722.2 249.5,-722.2"/>
<polygon fill="#f5f5f5" stroke="transparent" points="250,-759.7 250,-782.7 469,-782.7 469,-759.7 250,-759.7"/>
<polygon fill="none" stroke="#000000" points="250,-759.7 250,-782.7 469,-782.7 469,-759.7 250,-759.7"/>
<text text-anchor="start" x="255" y="-768.3" font-family="Helvetica,sans-Serif" font-weight="bold" font-size="11.00" fill="#000000">prison_configuration_audit</text>
<text text-anchor="start" x="434.5219" y="-767.8" font-family="Helvetica,sans-Serif" font-size="11.00" fill="#000000">[table]</text>
<polygon fill="none" stroke="#000000" points="250,-740.7 250,-759.7 469,-759.7 469,-740.7 250,-740.7"/>
<text text-anchor="start" x="253" y="-746.8" font-family="Helvetica,sans-Serif" font-size="11.00" fill="#000000">...</text>
<polygon fill="#ffffff" stroke="transparent" points="250,-721.7 250,-740.7 358,-740.7 358,-721.7 250,-721.7"/>
<polygon fill="none" stroke="#000000" points="250,-721.7 250,-740.7 358,-740.7 358,-721.7 250,-721.7"/>
<text text-anchor="start" x="253" y="-727.8" font-family="Helvetica,sans-Serif" font-size="11.00" fill="#000000">&lt; 2</text>
<polygon fill="#ffffff" stroke="transparent" points="358,-721.7 358,-740.7 413,-740.7 413,-721.7 358,-721.7"/>
<polygon fill="none" stroke="#000000" points="358,-721.7 358,-740.7 413,-740.7 413,-721.7 358,-721.7"/>
<text text-anchor="start" x="403.8862" y="-727.8" font-family="Helvetica,sans-Serif" font-size="11.00" fill="#000000"> &#160;</text>
<polygon fill="#ffffff" stroke="transparent" points="413,-721.7 413,-740.7 469,-740.7 469,-721.7 413,-721.7"/>
<polygon fill="none" stroke="#000000" points="413,-721.7 413,-740.7 469,-740.7 469,-721.7 413,-721.7"/>
<text text-anchor="start" x="459.8862" y="-727.8" font-family="Helvetica,sans-Serif" font-size="11.00" fill="#000000"> &#160;</text>
</a>
</g>
</g>
<!-- prison_configuration_audit&#45;&gt;policy -->
<g id="edge5" class="edge">
<title>prison_configuration_audit:w&#45;&gt;policy:e</title>
<path fill="none" stroke="#000000" stroke-dasharray="5,2" d="M235.4475,-749.473C195.9699,-748.0881 177.1533,-739.7402 146,-707.7 109.9728,-670.6472 157.1804,-598.7 105.5,-598.7"/>
<polygon fill="#000000" stroke="#000000" points="242.001,-749.5752 249.9438,-753.2996 246.0005,-749.6376 250,-749.7 250,-749.7 250,-749.7 246.0005,-749.6376 250.0562,-746.1004 242.001,-749.5752 242.001,-749.5752"/>
<ellipse fill="none" stroke="#000000" cx="238.8014" cy="-749.5252" rx="3.2" ry="3.2"/>
</g>
<!-- prison_statistic -->
<g id="node7" class="node">
<title>prison_statistic</title>
<g id="a_node7"><a xlink:href="../../tables/prison_statistic.html" xlink:title="prison_statistic" target="_top">
<polygon fill="#ffffff" stroke="transparent" points="288,-612.2 288,-673.2 430,-673.2 430,-612.2 288,-612.2"/>
<polygon fill="#f5f5f5" stroke="transparent" points="288,-649.7 288,-672.7 430,-672.7 430,-649.7 288,-649.7"/>
<polygon fill="none" stroke="#000000" points="288,-649.7 288,-672.7 430,-672.7 430,-649.7 288,-649.7"/>
<text text-anchor="start" x="293" y="-658.3" font-family="Helvetica,sans-Serif" font-weight="bold" font-size="11.00" fill="#000000">prison_statistic</text>
<text text-anchor="start" x="395.5219" y="-657.8" font-family="Helvetica,sans-Serif" font-size="11.00" fill="#000000">[table]</text>
<polygon fill="none" stroke="#000000" points="288,-630.7 288,-649.7 430,-649.7 430,-630.7 288,-630.7"/>
<text text-anchor="start" x="291" y="-636.8" font-family="Helvetica,sans-Serif" font-size="11.00" fill="#000000">...</text>
<polygon fill="#ffffff" stroke="transparent" points="288,-611.7 288,-630.7 353,-630.7 353,-611.7 288,-611.7"/>
<polygon fill="none" stroke="#000000" points="288,-611.7 288,-630.7 353,-630.7 353,-611.7 288,-611.7"/>
<text text-anchor="start" x="291" y="-617.8" font-family="Helvetica,sans-Serif" font-size="11.00" fill="#000000">&lt; 1</text>
<polygon fill="#ffffff" stroke="transparent" points="353,-611.7 353,-630.7 387,-630.7 387,-611.7 353,-611.7"/>
<polygon fill="none" stroke="#000000" points="353,-611.7 353,-630.7 387,-630.7 387,-611.7 353,-611.7"/>
<text text-anchor="start" x="377.8862" y="-617.8" font-family="Helvetica,sans-Serif" font-size="11.00" fill="#000000"> &#160;</text>
<polygon fill="#ffffff" stroke="transparent" points="387,-611.7 387,-630.7 430,-630.7 430,-611.7 387,-611.7"/>
<polygon fill="none" stroke="#000000" points="387,-611.7 387,-630.7 430,-630.7 430,-611.7 387,-611.7"/>
<text text-anchor="start" x="411.4053" y="-617.8" font-family="Helvetica,sans-Serif" font-size="11.00" fill="#000000">1 &gt;</text>
</a>
</g>
</g>
<!-- prison_statistic&#45;&gt;policy -->
<g id="edge6" class="edge">
<title>prison_statistic:w&#45;&gt;policy:e</title>
<path fill="none" stroke="#000000" d="M273.6057,-639.2673C202.6561,-634.8855 183.5994,-598.7 105.5,-598.7"/>
<polygon fill="#000000" stroke="#000000" points="280.0036,-639.4596 287.8918,-643.2984 284.0018,-639.5798 288,-639.7 288,-639.7 288,-639.7 284.0018,-639.5798 288.1082,-636.1016 280.0036,-639.4596 280.0036,-639.4596"/>
<ellipse fill="none" stroke="#000000" cx="276.8051" cy="-639.3634" rx="3.2" ry="3.2"/>
</g>
<!-- prisoner_statistic -->
<g id="node8" class="node">
<title>prisoner_statistic</title>
<g id="a_node8"><a xlink:href="../../tables/prisoner_statistic.html" xlink:title="prisoner_statistic" target="_top">
<polygon fill="#ffffff" stroke="transparent" points="613,-641.2 613,-702.2 769,-702.2 769,-641.2 613,-641.2"/>
<polygon fill="#f5f5f5" stroke="transparent" points="613,-678.7 613,-701.7 769,-701.7 769,-678.7 613,-678.7"/>
<polygon fill="none" stroke="#000000" points="613,-678.7 613,-701.7 769,-701.7 769,-678.7 613,-678.7"/>
<text text-anchor="start" x="618" y="-687.3" font-family="Helvetica,sans-Serif" font-weight="bold" font-size="11.00" fill="#000000">prisoner_statistic</text>
<text text-anchor="start" x="734.5219" y="-686.8" font-family="Helvetica,sans-Serif" font-size="11.00" fill="#000000">[table]</text>
<polygon fill="none" stroke="#000000" points="613,-659.7 613,-678.7 769,-678.7 769,-659.7 613,-659.7"/>
<text text-anchor="start" x="616" y="-665.8" font-family="Helvetica,sans-Serif" font-size="11.00" fill="#000000">...</text>
<polygon fill="#ffffff" stroke="transparent" points="613,-640.7 613,-659.7 689,-659.7 689,-640.7 613,-640.7"/>
<polygon fill="none" stroke="#000000" points="613,-640.7 613,-659.7 689,-659.7 689,-640.7 613,-640.7"/>
<text text-anchor="start" x="616" y="-646.8" font-family="Helvetica,sans-Serif" font-size="11.00" fill="#000000">&lt; 2</text>
<polygon fill="#ffffff" stroke="transparent" points="689,-640.7 689,-659.7 729,-659.7 729,-640.7 689,-640.7"/>
<polygon fill="none" stroke="#000000" points="689,-640.7 689,-659.7 729,-659.7 729,-640.7 689,-640.7"/>
<text text-anchor="start" x="719.8862" y="-646.8" font-family="Helvetica,sans-Serif" font-size="11.00" fill="#000000"> &#160;</text>
<polygon fill="#ffffff" stroke="transparent" points="729,-640.7 729,-659.7 769,-659.7 769,-640.7 729,-640.7"/>
<polygon fill="none" stroke="#000000" points="729,-640.7 729,-659.7 769,-659.7 769,-640.7 729,-640.7"/>
<text text-anchor="start" x="759.8862" y="-646.8" font-family="Helvetica,sans-Serif" font-size="11.00" fill="#000000"> &#160;</text>
</a>
</g>
</g>
<!-- prisoner_statistic&#45;&gt;policy -->
<g id="edge7" class="edge">
<title>prisoner_statistic:w&#45;&gt;policy:e</title>
<path fill="none" stroke="#000000" d="M598.741,-671.4972C590.4173,-675.1556 585.1353,-681.3726 572,-683.7 478.7852,-700.2162 226.0518,-734.232 146,-683.7 110.6135,-661.3626 147.3469,-598.7 105.5,-598.7"/>
<polygon fill="#000000" stroke="#000000" points="605.1496,-670.24 613.693,-672.2327 609.0748,-669.47 613,-668.7 613,-668.7 613,-668.7 609.0748,-669.47 612.307,-665.1673 605.1496,-670.24 605.1496,-670.24"/>
<ellipse fill="none" stroke="#000000" cx="602.0095" cy="-670.8561" rx="3.2" ry="3.2"/>
</g>
<!-- prisoner_statistic&#45;&gt;prison_statistic -->
<g id="edge8" class="edge">
<title>prisoner_statistic:w&#45;&gt;prison_statistic:e</title>
<path fill="none" stroke="#000000" d="M598.279,-668.3743C528.1136,-665.1883 507.2015,-639.7 430,-639.7"/>
<polygon fill="#000000" stroke="#000000" points="605.002,-668.523 612.9204,-672.2991 609.001,-668.6115 613,-668.7 613,-668.7 613,-668.7 609.001,-668.6115 613.0796,-665.1009 605.002,-668.523 605.002,-668.523"/>
<ellipse fill="none" stroke="#000000" cx="601.8027" cy="-668.4522" rx="3.2" ry="3.2"/>
</g>
<!-- recorded_event -->
<g id="node9" class="node">
<title>recorded_event</title>
<g id="a_node9"><a xlink:href="../../tables/recorded_event.html" xlink:title="recorded_event" target="_top">
<polygon fill="#ffffff" stroke="transparent" points="287,-530.2 287,-591.2 431,-591.2 431,-530.2 287,-530.2"/>
<polygon fill="#f5f5f5" stroke="transparent" points="287,-567.7 287,-590.7 431,-590.7 431,-567.7 287,-567.7"/>
<polygon fill="none" stroke="#000000" points="287,-567.7 287,-590.7 431,-590.7 431,-567.7 287,-567.7"/>
<text text-anchor="start" x="292" y="-576.3" font-family="Helvetica,sans-Serif" font-weight="bold" font-size="11.00" fill="#000000">recorded_event</text>
<text text-anchor="start" x="396.5219" y="-575.8" font-family="Helvetica,sans-Serif" font-size="11.00" fill="#000000">[table]</text>
<polygon fill="none" stroke="#000000" points="287,-548.7 287,-567.7 431,-567.7 431,-548.7 287,-548.7"/>
<text text-anchor="start" x="290" y="-554.8" font-family="Helvetica,sans-Serif" font-size="11.00" fill="#000000">...</text>
<polygon fill="#ffffff" stroke="transparent" points="287,-529.7 287,-548.7 357,-548.7 357,-529.7 287,-529.7"/>
<polygon fill="none" stroke="#000000" points="287,-529.7 287,-548.7 357,-548.7 357,-529.7 287,-529.7"/>
<text text-anchor="start" x="290" y="-535.8" font-family="Helvetica,sans-Serif" font-size="11.00" fill="#000000">&lt; 2</text>
<polygon fill="#ffffff" stroke="transparent" points="357,-529.7 357,-548.7 394,-548.7 394,-529.7 357,-529.7"/>
<polygon fill="none" stroke="#000000" points="357,-529.7 357,-548.7 394,-548.7 394,-529.7 357,-529.7"/>
<text text-anchor="start" x="384.8862" y="-535.8" font-family="Helvetica,sans-Serif" font-size="11.00" fill="#000000"> &#160;</text>
<polygon fill="#ffffff" stroke="transparent" points="394,-529.7 394,-548.7 431,-548.7 431,-529.7 394,-529.7"/>
<polygon fill="none" stroke="#000000" points="394,-529.7 394,-548.7 431,-548.7 431,-529.7 394,-529.7"/>
<text text-anchor="start" x="421.8862" y="-535.8" font-family="Helvetica,sans-Serif" font-size="11.00" fill="#000000"> &#160;</text>
</a>
</g>
</g>
<!-- recorded_event&#45;&gt;policy -->
<g id="edge9" class="edge">
<title>recorded_event:w&#45;&gt;policy:e</title>
<path fill="none" stroke="#000000" d="M272.2418,-558.1604C202.0279,-562.6648 183.0305,-598.7 105.5,-598.7"/>
<polygon fill="#000000" stroke="#000000" points="279.0039,-557.9495 287.1123,-561.2982 283.0019,-557.8248 287,-557.7 287,-557.7 287,-557.7 283.0019,-557.8248 286.8877,-554.1018 279.0039,-557.9495 279.0039,-557.9495"/>
<ellipse fill="none" stroke="#000000" cx="275.8054" cy="-558.0493" rx="3.2" ry="3.2"/>
</g>
<!-- recorded_event_audit -->
<g id="node10" class="node">
<title>recorded_event_audit</title>
<g id="a_node10"><a xlink:href="../../tables/recorded_event_audit.html" xlink:title="recorded_event_audit" target="_top">
<polygon fill="#ffffff" stroke="transparent" points="266.5,-448.2 266.5,-509.2 451.5,-509.2 451.5,-448.2 266.5,-448.2"/>
<polygon fill="#f5f5f5" stroke="transparent" points="267,-485.7 267,-508.7 452,-508.7 452,-485.7 267,-485.7"/>
<polygon fill="none" stroke="#000000" points="267,-485.7 267,-508.7 452,-508.7 452,-485.7 267,-485.7"/>
<text text-anchor="start" x="272" y="-494.3" font-family="Helvetica,sans-Serif" font-weight="bold" font-size="11.00" fill="#000000">recorded_event_audit</text>
<text text-anchor="start" x="417.5219" y="-493.8" font-family="Helvetica,sans-Serif" font-size="11.00" fill="#000000">[table]</text>
<polygon fill="none" stroke="#000000" points="267,-466.7 267,-485.7 452,-485.7 452,-466.7 267,-466.7"/>
<text text-anchor="start" x="270" y="-472.8" font-family="Helvetica,sans-Serif" font-size="11.00" fill="#000000">...</text>
<polygon fill="#ffffff" stroke="transparent" points="267,-447.7 267,-466.7 358,-466.7 358,-447.7 267,-447.7"/>
<polygon fill="none" stroke="#000000" points="267,-447.7 267,-466.7 358,-466.7 358,-447.7 267,-447.7"/>
<text text-anchor="start" x="270" y="-453.8" font-family="Helvetica,sans-Serif" font-size="11.00" fill="#000000">&lt; 2</text>
<polygon fill="#ffffff" stroke="transparent" points="358,-447.7 358,-466.7 405,-466.7 405,-447.7 358,-447.7"/>
<polygon fill="none" stroke="#000000" points="358,-447.7 358,-466.7 405,-466.7 405,-447.7 358,-447.7"/>
<text text-anchor="start" x="395.8862" y="-453.8" font-family="Helvetica,sans-Serif" font-size="11.00" fill="#000000"> &#160;</text>
<polygon fill="#ffffff" stroke="transparent" points="405,-447.7 405,-466.7 452,-466.7 452,-447.7 405,-447.7"/>
<polygon fill="none" stroke="#000000" points="405,-447.7 405,-466.7 452,-466.7 452,-447.7 405,-447.7"/>
<text text-anchor="start" x="442.8862" y="-453.8" font-family="Helvetica,sans-Serif" font-size="11.00" fill="#000000"> &#160;</text>
</a>
</g>
</g>
<!-- recorded_event_audit&#45;&gt;policy -->
<g id="edge10" class="edge">
<title>recorded_event_audit:w&#45;&gt;policy:e</title>
<path fill="none" stroke="#000000" d="M252.4147,-475.8673C205.8496,-477.0597 185.0549,-485.2438 146,-519.7 116.4128,-545.8034 144.9562,-598.7 105.5,-598.7"/>
<polygon fill="#000000" stroke="#000000" points="259.0005,-475.7918 267.0413,-479.2998 263.0003,-475.7459 267,-475.7 267,-475.7 267,-475.7 263.0003,-475.7459 266.9587,-472.1002 259.0005,-475.7918 259.0005,-475.7918"/>
<ellipse fill="none" stroke="#000000" cx="255.8007" cy="-475.8285" rx="3.2" ry="3.2"/>
</g>
<!-- reference_data_policy -->
<g id="node11" class="node">
<title>reference_data_policy</title>
<g id="a_node11"><a xlink:href="../../tables/reference_data_policy.html" xlink:title="reference_data_policy" target="_top">
<polygon fill="#ffffff" stroke="transparent" points="266,-366.2 266,-427.2 452,-427.2 452,-366.2 266,-366.2"/>
<polygon fill="#f5f5f5" stroke="transparent" points="266,-403.7 266,-426.7 452,-426.7 452,-403.7 266,-403.7"/>
<polygon fill="none" stroke="#000000" points="266,-403.7 266,-426.7 452,-426.7 452,-403.7 266,-403.7"/>
<text text-anchor="start" x="271" y="-412.3" font-family="Helvetica,sans-Serif" font-weight="bold" font-size="11.00" fill="#000000">reference_data_policy</text>
<text text-anchor="start" x="417.5219" y="-411.8" font-family="Helvetica,sans-Serif" font-size="11.00" fill="#000000">[table]</text>
<polygon fill="none" stroke="#000000" points="266,-384.7 266,-403.7 452,-403.7 452,-384.7 266,-384.7"/>
<text text-anchor="start" x="269" y="-390.8" font-family="Helvetica,sans-Serif" font-size="11.00" fill="#000000">...</text>
<polygon fill="#ffffff" stroke="transparent" points="266,-365.7 266,-384.7 341,-384.7 341,-365.7 266,-365.7"/>
<polygon fill="none" stroke="#000000" points="266,-365.7 266,-384.7 341,-384.7 341,-365.7 266,-365.7"/>
<text text-anchor="start" x="269" y="-371.8" font-family="Helvetica,sans-Serif" font-size="11.00" fill="#000000">&lt; 2</text>
<polygon fill="#ffffff" stroke="transparent" points="341,-365.7 341,-384.7 412,-384.7 412,-365.7 341,-365.7"/>
<polygon fill="none" stroke="#000000" points="341,-365.7 341,-384.7 412,-384.7 412,-365.7 341,-365.7"/>
<text text-anchor="start" x="370.4956" y="-371.8" font-family="Helvetica,sans-Serif" font-size="11.00" fill="#000000">84 rows</text>
<polygon fill="#ffffff" stroke="transparent" points="412,-365.7 412,-384.7 452,-384.7 452,-365.7 412,-365.7"/>
<polygon fill="none" stroke="#000000" points="412,-365.7 412,-384.7 452,-384.7 452,-365.7 412,-365.7"/>
<text text-anchor="start" x="442.8862" y="-371.8" font-family="Helvetica,sans-Serif" font-size="11.00" fill="#000000"> &#160;</text>
</a>
</g>
</g>
<!-- reference_data_policy&#45;&gt;policy -->
<g id="edge11" class="edge">
<title>reference_data_policy:w&#45;&gt;policy:e</title>
<path fill="none" stroke="#000000" d="M251.4225,-393.7711C204.5647,-394.3462 180.5898,-399.2731 146,-437.7 96.6362,-492.5398 179.2848,-598.7 105.5,-598.7"/>
<polygon fill="#000000" stroke="#000000" points="258.0001,-393.7391 266.0176,-397.3 262,-393.7195 266,-393.7 266,-393.7 266,-393.7 262,-393.7195 265.9824,-390.1 258.0001,-393.7391 258.0001,-393.7391"/>
<ellipse fill="none" stroke="#000000" cx="254.8001" cy="-393.7547" rx="3.2" ry="3.2"/>
</g>
<!-- staff_configuration -->
<g id="node12" class="node">
<title>staff_configuration</title>
<g id="a_node12"><a xlink:href="../../tables/staff_configuration.html" xlink:title="staff_configuration" target="_top">
<polygon fill="#ffffff" stroke="transparent" points="275.5,-284.2 275.5,-345.2 442.5,-345.2 442.5,-284.2 275.5,-284.2"/>
<polygon fill="#f5f5f5" stroke="transparent" points="276,-321.7 276,-344.7 443,-344.7 443,-321.7 276,-321.7"/>
<polygon fill="none" stroke="#000000" points="276,-321.7 276,-344.7 443,-344.7 443,-321.7 276,-321.7"/>
<text text-anchor="start" x="281" y="-330.3" font-family="Helvetica,sans-Serif" font-weight="bold" font-size="11.00" fill="#000000">staff_configuration</text>
<text text-anchor="start" x="408.5219" y="-329.8" font-family="Helvetica,sans-Serif" font-size="11.00" fill="#000000">[table]</text>
<polygon fill="none" stroke="#000000" points="276,-302.7 276,-321.7 443,-321.7 443,-302.7 276,-302.7"/>
<text text-anchor="start" x="279" y="-308.8" font-family="Helvetica,sans-Serif" font-size="11.00" fill="#000000">...</text>
<polygon fill="#ffffff" stroke="transparent" points="276,-283.7 276,-302.7 358,-302.7 358,-283.7 276,-283.7"/>
<polygon fill="none" stroke="#000000" points="276,-283.7 276,-302.7 358,-302.7 358,-283.7 276,-283.7"/>
<text text-anchor="start" x="279" y="-289.8" font-family="Helvetica,sans-Serif" font-size="11.00" fill="#000000">&lt; 2</text>
<polygon fill="#ffffff" stroke="transparent" points="358,-283.7 358,-302.7 400,-302.7 400,-283.7 358,-283.7"/>
<polygon fill="none" stroke="#000000" points="358,-283.7 358,-302.7 400,-302.7 400,-283.7 358,-283.7"/>
<text text-anchor="start" x="390.8862" y="-289.8" font-family="Helvetica,sans-Serif" font-size="11.00" fill="#000000"> &#160;</text>
<polygon fill="#ffffff" stroke="transparent" points="400,-283.7 400,-302.7 443,-302.7 443,-283.7 400,-283.7"/>
<polygon fill="none" stroke="#000000" points="400,-283.7 400,-302.7 443,-302.7 443,-283.7 400,-283.7"/>
<text text-anchor="start" x="433.8862" y="-289.8" font-family="Helvetica,sans-Serif" font-size="11.00" fill="#000000"> &#160;</text>
</a>
</g>
</g>
<!-- staff_configuration&#45;&gt;policy -->
<g id="edge12" class="edge">
<title>staff_configuration:w&#45;&gt;policy:e</title>
<path fill="none" stroke="#000000" d="M261.2737,-311.6783C209.9794,-311.6311 182.1998,-313.1377 146,-355.7 110.5321,-397.4017 160.2449,-598.7 105.5,-598.7"/>
<polygon fill="#000000" stroke="#000000" points="268,-311.6882 275.9947,-315.3 272,-311.6941 276,-311.7 276,-311.7 276,-311.7 272,-311.6941 276.0053,-308.1 268,-311.6882 268,-311.6882"/>
<ellipse fill="none" stroke="#000000" cx="264.8" cy="-311.6834" rx="3.2" ry="3.2"/>
</g>
<!-- staff_configuration_audit -->
<g id="node13" class="node">
<title>staff_configuration_audit</title>
<g id="a_node13"><a xlink:href="../../tables/staff_configuration_audit.html" xlink:title="staff_configuration_audit" target="_top">
<polygon fill="#ffffff" stroke="transparent" points="255,-202.2 255,-263.2 463,-263.2 463,-202.2 255,-202.2"/>
<polygon fill="#f5f5f5" stroke="transparent" points="255,-239.7 255,-262.7 463,-262.7 463,-239.7 255,-239.7"/>
<polygon fill="none" stroke="#000000" points="255,-239.7 255,-262.7 463,-262.7 463,-239.7 255,-239.7"/>
<text text-anchor="start" x="260" y="-248.3" font-family="Helvetica,sans-Serif" font-weight="bold" font-size="11.00" fill="#000000">staff_configuration_audit</text>
<text text-anchor="start" x="428.5219" y="-247.8" font-family="Helvetica,sans-Serif" font-size="11.00" fill="#000000">[table]</text>
<polygon fill="none" stroke="#000000" points="255,-220.7 255,-239.7 463,-239.7 463,-220.7 255,-220.7"/>
<text text-anchor="start" x="258" y="-226.8" font-family="Helvetica,sans-Serif" font-size="11.00" fill="#000000">...</text>
<polygon fill="#ffffff" stroke="transparent" points="255,-201.7 255,-220.7 357,-220.7 357,-201.7 255,-201.7"/>
<polygon fill="none" stroke="#000000" points="255,-201.7 255,-220.7 357,-220.7 357,-201.7 255,-201.7"/>
<text text-anchor="start" x="258" y="-207.8" font-family="Helvetica,sans-Serif" font-size="11.00" fill="#000000">&lt; 2</text>
<polygon fill="#ffffff" stroke="transparent" points="357,-201.7 357,-220.7 410,-220.7 410,-201.7 357,-201.7"/>
<polygon fill="none" stroke="#000000" points="357,-201.7 357,-220.7 410,-220.7 410,-201.7 357,-201.7"/>
<text text-anchor="start" x="400.8862" y="-207.8" font-family="Helvetica,sans-Serif" font-size="11.00" fill="#000000"> &#160;</text>
<polygon fill="#ffffff" stroke="transparent" points="410,-201.7 410,-220.7 463,-220.7 463,-201.7 410,-201.7"/>
<polygon fill="none" stroke="#000000" points="410,-201.7 410,-220.7 463,-220.7 463,-201.7 410,-201.7"/>
<text text-anchor="start" x="453.8862" y="-207.8" font-family="Helvetica,sans-Serif" font-size="11.00" fill="#000000"> &#160;</text>
</a>
</g>
</g>
<!-- staff_configuration_audit&#45;&gt;policy -->
<g id="edge13" class="edge">
<title>staff_configuration_audit:w&#45;&gt;policy:e</title>
<path fill="none" stroke="#000000" stroke-dasharray="5,2" d="M240.4446,-229.8078C197.826,-230.5755 174.7369,-236.331 146,-273.7 101.633,-331.3941 178.2808,-598.7 105.5,-598.7"/>
<polygon fill="#000000" stroke="#000000" points="247.0002,-229.7593 255.0267,-233.2999 251.0001,-229.7296 255,-229.7 255,-229.7 255,-229.7 251.0001,-229.7296 254.9733,-226.1001 247.0002,-229.7593 247.0002,-229.7593"/>
<ellipse fill="none" stroke="#000000" cx="243.8003" cy="-229.783" rx="3.2" ry="3.2"/>
</g>
<!-- staff_role -->
<g id="node14" class="node">
<title>staff_role</title>
<g id="a_node14"><a xlink:href="../../tables/staff_role.html" xlink:title="staff_role" target="_top">
<polygon fill="#ffffff" stroke="transparent" points="308,-120.2 308,-181.2 410,-181.2 410,-120.2 308,-120.2"/>
<polygon fill="#f5f5f5" stroke="transparent" points="308,-157.7 308,-180.7 410,-180.7 410,-157.7 308,-157.7"/>
<polygon fill="none" stroke="#000000" points="308,-157.7 308,-180.7 410,-180.7 410,-157.7 308,-157.7"/>
<text text-anchor="start" x="313" y="-166.3" font-family="Helvetica,sans-Serif" font-weight="bold" font-size="11.00" fill="#000000">staff_role</text>
<text text-anchor="start" x="375.5219" y="-165.8" font-family="Helvetica,sans-Serif" font-size="11.00" fill="#000000">[table]</text>
<polygon fill="none" stroke="#000000" points="308,-138.7 308,-157.7 410,-157.7 410,-138.7 308,-138.7"/>
<text text-anchor="start" x="311" y="-144.8" font-family="Helvetica,sans-Serif" font-size="11.00" fill="#000000">...</text>
<polygon fill="#ffffff" stroke="transparent" points="308,-119.7 308,-138.7 357,-138.7 357,-119.7 308,-119.7"/>
<polygon fill="none" stroke="#000000" points="308,-119.7 308,-138.7 357,-138.7 357,-119.7 308,-119.7"/>
<text text-anchor="start" x="311" y="-125.8" font-family="Helvetica,sans-Serif" font-size="11.00" fill="#000000">&lt; 1</text>
<polygon fill="#ffffff" stroke="transparent" points="357,-119.7 357,-138.7 383,-138.7 383,-119.7 357,-119.7"/>
<polygon fill="none" stroke="#000000" points="357,-119.7 357,-138.7 383,-138.7 383,-119.7 357,-119.7"/>
<text text-anchor="start" x="373.8862" y="-125.8" font-family="Helvetica,sans-Serif" font-size="11.00" fill="#000000"> &#160;</text>
<polygon fill="#ffffff" stroke="transparent" points="383,-119.7 383,-138.7 410,-138.7 410,-119.7 383,-119.7"/>
<polygon fill="none" stroke="#000000" points="383,-119.7 383,-138.7 410,-138.7 410,-119.7 383,-119.7"/>
<text text-anchor="start" x="400.8862" y="-125.8" font-family="Helvetica,sans-Serif" font-size="11.00" fill="#000000"> &#160;</text>
</a>
</g>
</g>
<!-- staff_role&#45;&gt;policy -->
<g id="edge14" class="edge">
<title>staff_role:w&#45;&gt;policy:e</title>
<path fill="none" stroke="#000000" stroke-dasharray="5,2" d="M293.5921,-147.553C228.1467,-146.2885 190.9993,-138.5329 146,-191.7 87.2806,-261.0775 196.3911,-598.7 105.5,-598.7"/>
<polygon fill="#000000" stroke="#000000" points="300.0004,-147.6183 307.9632,-151.2998 304.0002,-147.6592 308,-147.7 308,-147.7 308,-147.7 304.0002,-147.6592 308.0368,-144.1002 300.0004,-147.6183 300.0004,-147.6183"/>
<ellipse fill="none" stroke="#000000" cx="296.8006" cy="-147.5856" rx="3.2" ry="3.2"/>
</g>
<!-- staff_role_audit -->
<g id="node15" class="node">
<title>staff_role_audit</title>
<g id="a_node15"><a xlink:href="../../tables/staff_role_audit.html" xlink:title="staff_role_audit" target="_top">
<polygon fill="#ffffff" stroke="transparent" points="287.5,-38.2 287.5,-99.2 430.5,-99.2 430.5,-38.2 287.5,-38.2"/>
<polygon fill="#f5f5f5" stroke="transparent" points="288,-75.7 288,-98.7 431,-98.7 431,-75.7 288,-75.7"/>
<polygon fill="none" stroke="#000000" points="288,-75.7 288,-98.7 431,-98.7 431,-75.7 288,-75.7"/>
<text text-anchor="start" x="293" y="-84.3" font-family="Helvetica,sans-Serif" font-weight="bold" font-size="11.00" fill="#000000">staff_role_audit</text>
<text text-anchor="start" x="396.5219" y="-83.8" font-family="Helvetica,sans-Serif" font-size="11.00" fill="#000000">[table]</text>
<polygon fill="none" stroke="#000000" points="288,-56.7 288,-75.7 431,-75.7 431,-56.7 288,-56.7"/>
<text text-anchor="start" x="291" y="-62.8" font-family="Helvetica,sans-Serif" font-size="11.00" fill="#000000">...</text>
<polygon fill="#ffffff" stroke="transparent" points="288,-37.7 288,-56.7 358,-56.7 358,-37.7 288,-37.7"/>
<polygon fill="none" stroke="#000000" points="288,-37.7 288,-56.7 358,-56.7 358,-37.7 288,-37.7"/>
<text text-anchor="start" x="291" y="-43.8" font-family="Helvetica,sans-Serif" font-size="11.00" fill="#000000">&lt; 2</text>
<polygon fill="#ffffff" stroke="transparent" points="358,-37.7 358,-56.7 394,-56.7 394,-37.7 358,-37.7"/>
<polygon fill="none" stroke="#000000" points="358,-37.7 358,-56.7 394,-56.7 394,-37.7 358,-37.7"/>
<text text-anchor="start" x="384.8862" y="-43.8" font-family="Helvetica,sans-Serif" font-size="11.00" fill="#000000"> &#160;</text>
<polygon fill="#ffffff" stroke="transparent" points="394,-37.7 394,-56.7 431,-56.7 431,-37.7 394,-37.7"/>
<polygon fill="none" stroke="#000000" points="394,-37.7 394,-56.7 431,-56.7 431,-37.7 394,-37.7"/>
<text text-anchor="start" x="421.8862" y="-43.8" font-family="Helvetica,sans-Serif" font-size="11.00" fill="#000000"> &#160;</text>
</a>
</g>
</g>
<!-- staff_role_audit&#45;&gt;policy -->
<g id="edge15" class="edge">
<title>staff_role_audit:w&#45;&gt;policy:e</title>
<path fill="none" stroke="#000000" stroke-dasharray="5,2" d="M273.4331,-65.5985C216.6234,-64.8967 184.2132,-62.1031 146,-109.7 111.8682,-152.2133 160.0194,-598.7 105.5,-598.7"/>
<polygon fill="#000000" stroke="#000000" points="280.0002,-65.6442 287.9749,-69.2999 284.0001,-65.6721 288,-65.7 288,-65.7 288,-65.7 284.0001,-65.6721 288.0251,-62.1001 280.0002,-65.6442 280.0002,-65.6442"/>
<ellipse fill="none" stroke="#000000" cx="276.8003" cy="-65.6219" rx="3.2" ry="3.2"/>
</g>
</g>
</svg>
