<?xml version="1.0" encoding="UTF-8" standalone="no"?>
<!DOCTYPE svg PUBLIC "-//W3C//DTD SVG 1.1//EN"
 "http://www.w3.org/Graphics/SVG/1.1/DTD/svg11.dtd">
<!-- Generated by graphviz version 2.40.1 (20161225.0304)
 -->
<!-- Title: twoDegreesRelationshipsDiagramImplied Pages: 1 -->
<svg width="751pt" height="1123pt"
 viewBox="0.00 0.00 751.00 1123.20" xmlns="http://www.w3.org/2000/svg" xmlns:xlink="http://www.w3.org/1999/xlink">
<g id="graph0" class="graph" transform="scale(1 1) rotate(0) translate(4 1119.2)">
<title>twoDegreesRelationshipsDiagramImplied</title>
<polygon fill="#ffffff" stroke="transparent" points="-4,4 -4,-1119.2 747,-1119.2 747,4 -4,4"/>
<text text-anchor="middle" x="72.4936" y="-7.3" font-family="Helvetica,sans-Serif" font-size="11.00" fill="#000000">Generated by SchemaSpy</text>
<!-- allocation -->
<g id="node1" class="node">
<title>allocation</title>
<g id="a_node1"><a xlink:href="../../tables/allocation.html" xlink:title="allocation" target="_top">
<polygon fill="#ffffff" stroke="transparent" points="227,-1050.2 227,-1111.2 332,-1111.2 332,-1050.2 227,-1050.2"/>
<polygon fill="#f5f5f5" stroke="transparent" points="227.5,-1087.7 227.5,-1110.7 332.5,-1110.7 332.5,-1087.7 227.5,-1087.7"/>
<polygon fill="none" stroke="#000000" points="227.5,-1087.7 227.5,-1110.7 332.5,-1110.7 332.5,-1087.7 227.5,-1087.7"/>
<text text-anchor="start" x="232.5" y="-1096.3" font-family="Helvetica,sans-Serif" font-weight="bold" font-size="11.00" fill="#000000">allocation</text>
<text text-anchor="start" x="298.0219" y="-1095.8" font-family="Helvetica,sans-Serif" font-size="11.00" fill="#000000">[table]</text>
<polygon fill="none" stroke="#000000" points="227.5,-1068.7 227.5,-1087.7 332.5,-1087.7 332.5,-1068.7 227.5,-1068.7"/>
<text text-anchor="start" x="230.5" y="-1074.8" font-family="Helvetica,sans-Serif" font-size="11.00" fill="#000000">...</text>
<polygon fill="#ffffff" stroke="transparent" points="227.5,-1049.7 227.5,-1068.7 278.5,-1068.7 278.5,-1049.7 227.5,-1049.7"/>
<polygon fill="none" stroke="#000000" points="227.5,-1049.7 227.5,-1068.7 278.5,-1068.7 278.5,-1049.7 227.5,-1049.7"/>
<text text-anchor="start" x="230.5" y="-1055.8" font-family="Helvetica,sans-Serif" font-size="11.00" fill="#000000">&lt; 3</text>
<polygon fill="#ffffff" stroke="transparent" points="278.5,-1049.7 278.5,-1068.7 305.5,-1068.7 305.5,-1049.7 278.5,-1049.7"/>
<polygon fill="none" stroke="#000000" points="278.5,-1049.7 278.5,-1068.7 305.5,-1068.7 305.5,-1049.7 278.5,-1049.7"/>
<text text-anchor="start" x="296.3862" y="-1055.8" font-family="Helvetica,sans-Serif" font-size="11.00" fill="#000000"> &#160;</text>
<polygon fill="#ffffff" stroke="transparent" points="305.5,-1049.7 305.5,-1068.7 332.5,-1068.7 332.5,-1049.7 305.5,-1049.7"/>
<polygon fill="none" stroke="#000000" points="305.5,-1049.7 305.5,-1068.7 332.5,-1068.7 332.5,-1049.7 305.5,-1049.7"/>
<text text-anchor="start" x="323.3862" y="-1055.8" font-family="Helvetica,sans-Serif" font-size="11.00" fill="#000000"> &#160;</text>
</a>
</g>
</g>
<!-- policy -->
<g id="node2" class="node">
<title>policy</title>
<g id="a_node2"><a xlink:href="../../tables/policy.html" xlink:title="policy" target="_top">
<polygon fill="#ffffff" stroke="transparent" points="8,-556.2 8,-617.2 86,-617.2 86,-556.2 8,-556.2"/>
<polygon fill="#f5f5f5" stroke="transparent" points="8,-593.7 8,-616.7 86,-616.7 86,-593.7 8,-593.7"/>
<polygon fill="none" stroke="#000000" points="8,-593.7 8,-616.7 86,-616.7 86,-593.7 8,-593.7"/>
<text text-anchor="start" x="13" y="-602.3" font-family="Helvetica,sans-Serif" font-weight="bold" font-size="11.00" fill="#000000">policy</text>
<text text-anchor="start" x="51.5219" y="-601.8" font-family="Helvetica,sans-Serif" font-size="11.00" fill="#000000">[table]</text>
<polygon fill="none" stroke="#000000" points="8,-574.7 8,-593.7 86,-593.7 86,-574.7 8,-574.7"/>
<text text-anchor="start" x="11" y="-580.8" font-family="Helvetica,sans-Serif" font-size="11.00" fill="#000000">...</text>
<polygon fill="#ffffff" stroke="transparent" points="8,-555.7 8,-574.7 33,-574.7 33,-555.7 8,-555.7"/>
<polygon fill="none" stroke="#000000" points="8,-555.7 8,-574.7 33,-574.7 33,-555.7 8,-555.7"/>
<text text-anchor="start" x="11" y="-561.8" font-family="Helvetica,sans-Serif" font-size="11.00" fill="#000000"> &#160;</text>
<polygon fill="#ffffff" stroke="transparent" points="33,-555.7 33,-574.7 52,-574.7 52,-555.7 33,-555.7"/>
<polygon fill="none" stroke="#000000" points="33,-555.7 33,-574.7 52,-574.7 52,-555.7 33,-555.7"/>
<text text-anchor="start" x="42.8862" y="-561.8" font-family="Helvetica,sans-Serif" font-size="11.00" fill="#000000"> &#160;</text>
<polygon fill="#ffffff" stroke="transparent" points="52,-555.7 52,-574.7 86,-574.7 86,-555.7 52,-555.7"/>
<polygon fill="none" stroke="#000000" points="52,-555.7 52,-574.7 86,-574.7 86,-555.7 52,-555.7"/>
<text text-anchor="start" x="61.2904" y="-561.8" font-family="Helvetica,sans-Serif" font-size="11.00" fill="#000000">14 &gt;</text>
</a>
</g>
</g>
<!-- allocation&#45;&gt;policy -->
<g id="edge1" class="edge">
<title>allocation:w&#45;&gt;policy:e</title>
<path fill="none" stroke="#000000" d="M212.9511,-1077.6148C174.8668,-1077.025 154.1986,-1072.5173 127,-1039.7 73.936,-975.674 54.2651,-716.0452 48.7731,-621.419"/>
<polygon fill="#000000" stroke="#000000" points="219.5001,-1077.6531 227.4789,-1081.2999 223.5001,-1077.6765 227.5,-1077.7 227.5,-1077.7 227.5,-1077.7 223.5001,-1077.6765 227.5211,-1074.1001 219.5001,-1077.6531 219.5001,-1077.6531"/>
<ellipse fill="none" stroke="#000000" cx="216.3002" cy="-1077.6343" rx="3.2" ry="3.2"/>
</g>
<!-- allocation_audit -->
<g id="node3" class="node">
<title>allocation_audit</title>
<g id="a_node3"><a xlink:href="../../tables/allocation_audit.html" xlink:title="allocation_audit" target="_top">
<polygon fill="#ffffff" stroke="transparent" points="206.5,-968.2 206.5,-1029.2 352.5,-1029.2 352.5,-968.2 206.5,-968.2"/>
<polygon fill="#f5f5f5" stroke="transparent" points="206.5,-1005.7 206.5,-1028.7 352.5,-1028.7 352.5,-1005.7 206.5,-1005.7"/>
<polygon fill="none" stroke="#000000" points="206.5,-1005.7 206.5,-1028.7 352.5,-1028.7 352.5,-1005.7 206.5,-1005.7"/>
<text text-anchor="start" x="211.5" y="-1014.3" font-family="Helvetica,sans-Serif" font-weight="bold" font-size="11.00" fill="#000000">allocation_audit</text>
<text text-anchor="start" x="318.0219" y="-1013.8" font-family="Helvetica,sans-Serif" font-size="11.00" fill="#000000">[table]</text>
<polygon fill="none" stroke="#000000" points="206.5,-986.7 206.5,-1005.7 352.5,-1005.7 352.5,-986.7 206.5,-986.7"/>
<text text-anchor="start" x="209.5" y="-992.8" font-family="Helvetica,sans-Serif" font-size="11.00" fill="#000000">...</text>
<polygon fill="#ffffff" stroke="transparent" points="206.5,-967.7 206.5,-986.7 277.5,-986.7 277.5,-967.7 206.5,-967.7"/>
<polygon fill="none" stroke="#000000" points="206.5,-967.7 206.5,-986.7 277.5,-986.7 277.5,-967.7 206.5,-967.7"/>
<text text-anchor="start" x="209.5" y="-973.8" font-family="Helvetica,sans-Serif" font-size="11.00" fill="#000000">&lt; 2</text>
<polygon fill="#ffffff" stroke="transparent" points="277.5,-967.7 277.5,-986.7 314.5,-986.7 314.5,-967.7 277.5,-967.7"/>
<polygon fill="none" stroke="#000000" points="277.5,-967.7 277.5,-986.7 314.5,-986.7 314.5,-967.7 277.5,-967.7"/>
<text text-anchor="start" x="305.3862" y="-973.8" font-family="Helvetica,sans-Serif" font-size="11.00" fill="#000000"> &#160;</text>
<polygon fill="#ffffff" stroke="transparent" points="314.5,-967.7 314.5,-986.7 352.5,-986.7 352.5,-967.7 314.5,-967.7"/>
<polygon fill="none" stroke="#000000" points="314.5,-967.7 314.5,-986.7 352.5,-986.7 352.5,-967.7 314.5,-967.7"/>
<text text-anchor="start" x="343.3862" y="-973.8" font-family="Helvetica,sans-Serif" font-size="11.00" fill="#000000"> &#160;</text>
</a>
</g>
</g>
<!-- allocation_audit&#45;&gt;policy -->
<g id="edge2" class="edge">
<title>allocation_audit:w&#45;&gt;policy:e</title>
<path fill="none" stroke="#000000" stroke-dasharray="5,2" d="M192.0454,-995.2773C162.9269,-993.3549 148.0533,-984.3479 127,-957.7 85.5914,-905.2877 59.5932,-703.1853 50.5692,-621.3753"/>
<polygon fill="#000000" stroke="#000000" points="198.5034,-995.4661 206.3947,-999.2985 202.5017,-995.5831 206.5,-995.7 206.5,-995.7 206.5,-995.7 202.5017,-995.5831 206.6053,-992.1015 198.5034,-995.4661 198.5034,-995.4661"/>
<ellipse fill="none" stroke="#000000" cx="195.3048" cy="-995.3726" rx="3.2" ry="3.2"/>
</g>
<!-- case_note_type_recorded_event_type -->
<g id="node4" class="node">
<title>case_note_type_recorded_event_type</title>
<g id="a_node4"><a xlink:href="../../tables/case_note_type_recorded_event_type.html" xlink:title="case_note_type_recorded_event_type" target="_top">
<polygon fill="#ffffff" stroke="transparent" points="135,-886.2 135,-947.2 424,-947.2 424,-886.2 135,-886.2"/>
<polygon fill="#f5f5f5" stroke="transparent" points="135.5,-923.7 135.5,-946.7 424.5,-946.7 424.5,-923.7 135.5,-923.7"/>
<polygon fill="none" stroke="#000000" points="135.5,-923.7 135.5,-946.7 424.5,-946.7 424.5,-923.7 135.5,-923.7"/>
<text text-anchor="start" x="140.5" y="-932.3" font-family="Helvetica,sans-Serif" font-weight="bold" font-size="11.00" fill="#000000">case_note_type_recorded_event_type</text>
<text text-anchor="start" x="390.0219" y="-931.8" font-family="Helvetica,sans-Serif" font-size="11.00" fill="#000000">[table]</text>
<polygon fill="none" stroke="#000000" points="135.5,-904.7 135.5,-923.7 424.5,-923.7 424.5,-904.7 135.5,-904.7"/>
<text text-anchor="start" x="138.5" y="-910.8" font-family="Helvetica,sans-Serif" font-size="11.00" fill="#000000">...</text>
<polygon fill="#ffffff" stroke="transparent" points="135.5,-885.7 135.5,-904.7 278.5,-904.7 278.5,-885.7 135.5,-885.7"/>
<polygon fill="none" stroke="#000000" points="135.5,-885.7 135.5,-904.7 278.5,-904.7 278.5,-885.7 135.5,-885.7"/>
<text text-anchor="start" x="138.5" y="-891.8" font-family="Helvetica,sans-Serif" font-size="11.00" fill="#000000">&lt; 1</text>
<polygon fill="#ffffff" stroke="transparent" points="278.5,-885.7 278.5,-904.7 351.5,-904.7 351.5,-885.7 278.5,-885.7"/>
<polygon fill="none" stroke="#000000" points="278.5,-885.7 278.5,-904.7 351.5,-904.7 351.5,-885.7 278.5,-885.7"/>
<text text-anchor="start" x="342.3862" y="-891.8" font-family="Helvetica,sans-Serif" font-size="11.00" fill="#000000"> &#160;</text>
<polygon fill="#ffffff" stroke="transparent" points="351.5,-885.7 351.5,-904.7 424.5,-904.7 424.5,-885.7 351.5,-885.7"/>
<polygon fill="none" stroke="#000000" points="351.5,-885.7 351.5,-904.7 424.5,-904.7 424.5,-885.7 351.5,-885.7"/>
<text text-anchor="start" x="415.3862" y="-891.8" font-family="Helvetica,sans-Serif" font-size="11.00" fill="#000000"> &#160;</text>
</a>
</g>
</g>
<!-- case_note_type_recorded_event_type&#45;&gt;policy -->
<g id="edge3" class="edge">
<title>case_note_type_recorded_event_type:w&#45;&gt;policy:e</title>
<path fill="none" stroke="#000000" stroke-dasharray="5,2" d="M121.5027,-909.6812C72.1633,-880.3836 54.4001,-698.639 49.024,-621.3851"/>
<polygon fill="#000000" stroke="#000000" points="127.8107,-911.4923 134.5065,-917.1602 131.6553,-912.5961 135.5,-913.7 135.5,-913.7 135.5,-913.7 131.6553,-912.5961 136.4935,-910.2398 127.8107,-911.4923 127.8107,-911.4923"/>
<ellipse fill="none" stroke="#000000" cx="124.7349" cy="-910.6092" rx="3.2" ry="3.2"/>
</g>
<!-- prison_configuration -->
<g id="node5" class="node">
<title>prison_configuration</title>
<g id="a_node5"><a xlink:href="../../tables/prison_configuration.html" xlink:title="prison_configuration" target="_top">
<polygon fill="#ffffff" stroke="transparent" points="190.5,-804.2 190.5,-865.2 368.5,-865.2 368.5,-804.2 190.5,-804.2"/>
<polygon fill="#f5f5f5" stroke="transparent" points="190.5,-841.7 190.5,-864.7 368.5,-864.7 368.5,-841.7 190.5,-841.7"/>
<polygon fill="none" stroke="#000000" points="190.5,-841.7 190.5,-864.7 368.5,-864.7 368.5,-841.7 190.5,-841.7"/>
<text text-anchor="start" x="195.5" y="-850.3" font-family="Helvetica,sans-Serif" font-weight="bold" font-size="11.00" fill="#000000">prison_configuration</text>
<text text-anchor="start" x="334.0219" y="-849.8" font-family="Helvetica,sans-Serif" font-size="11.00" fill="#000000">[table]</text>
<polygon fill="none" stroke="#000000" points="190.5,-822.7 190.5,-841.7 368.5,-841.7 368.5,-822.7 190.5,-822.7"/>
<text text-anchor="start" x="193.5" y="-828.8" font-family="Helvetica,sans-Serif" font-size="11.00" fill="#000000">...</text>
<polygon fill="#ffffff" stroke="transparent" points="190.5,-803.7 190.5,-822.7 261.5,-822.7 261.5,-803.7 190.5,-803.7"/>
<polygon fill="none" stroke="#000000" points="190.5,-803.7 190.5,-822.7 261.5,-822.7 261.5,-803.7 190.5,-803.7"/>
<text text-anchor="start" x="193.5" y="-809.8" font-family="Helvetica,sans-Serif" font-size="11.00" fill="#000000">&lt; 1</text>
<polygon fill="#ffffff" stroke="transparent" points="261.5,-803.7 261.5,-822.7 330.5,-822.7 330.5,-803.7 261.5,-803.7"/>
<polygon fill="none" stroke="#000000" points="261.5,-803.7 261.5,-822.7 330.5,-822.7 330.5,-803.7 261.5,-803.7"/>
<text text-anchor="start" x="288.9956" y="-809.8" font-family="Helvetica,sans-Serif" font-size="11.00" fill="#000000">12 rows</text>
<polygon fill="#ffffff" stroke="transparent" points="330.5,-803.7 330.5,-822.7 368.5,-822.7 368.5,-803.7 330.5,-803.7"/>
<polygon fill="none" stroke="#000000" points="330.5,-803.7 330.5,-822.7 368.5,-822.7 368.5,-803.7 330.5,-803.7"/>
<text text-anchor="start" x="359.3862" y="-809.8" font-family="Helvetica,sans-Serif" font-size="11.00" fill="#000000"> &#160;</text>
</a>
</g>
</g>
<!-- prison_configuration&#45;&gt;policy -->
<g id="edge4" class="edge">
<title>prison_configuration:w&#45;&gt;policy:e</title>
<path fill="none" stroke="#000000" d="M176.0411,-830.582C90.7892,-817.1113 60.7365,-685.3219 51.1087,-621.2829"/>
<polygon fill="#000000" stroke="#000000" points="182.5238,-831.0832 190.2224,-835.2893 186.5119,-831.3916 190.5,-831.7 190.5,-831.7 190.5,-831.7 186.5119,-831.3916 190.7776,-828.1107 182.5238,-831.0832 182.5238,-831.0832"/>
<ellipse fill="none" stroke="#000000" cx="179.3333" cy="-830.8365" rx="3.2" ry="3.2"/>
</g>
<!-- prison_configuration_audit -->
<g id="node6" class="node">
<title>prison_configuration_audit</title>
<g id="a_node6"><a xlink:href="../../tables/prison_configuration_audit.html" xlink:title="prison_configuration_audit" target="_top">
<polygon fill="#ffffff" stroke="transparent" points="170,-722.2 170,-783.2 389,-783.2 389,-722.2 170,-722.2"/>
<polygon fill="#f5f5f5" stroke="transparent" points="170.5,-759.7 170.5,-782.7 389.5,-782.7 389.5,-759.7 170.5,-759.7"/>
<polygon fill="none" stroke="#000000" points="170.5,-759.7 170.5,-782.7 389.5,-782.7 389.5,-759.7 170.5,-759.7"/>
<text text-anchor="start" x="175.5" y="-768.3" font-family="Helvetica,sans-Serif" font-weight="bold" font-size="11.00" fill="#000000">prison_configuration_audit</text>
<text text-anchor="start" x="355.0219" y="-767.8" font-family="Helvetica,sans-Serif" font-size="11.00" fill="#000000">[table]</text>
<polygon fill="none" stroke="#000000" points="170.5,-740.7 170.5,-759.7 389.5,-759.7 389.5,-740.7 170.5,-740.7"/>
<text text-anchor="start" x="173.5" y="-746.8" font-family="Helvetica,sans-Serif" font-size="11.00" fill="#000000">...</text>
<polygon fill="#ffffff" stroke="transparent" points="170.5,-721.7 170.5,-740.7 278.5,-740.7 278.5,-721.7 170.5,-721.7"/>
<polygon fill="none" stroke="#000000" points="170.5,-721.7 170.5,-740.7 278.5,-740.7 278.5,-721.7 170.5,-721.7"/>
<text text-anchor="start" x="173.5" y="-727.8" font-family="Helvetica,sans-Serif" font-size="11.00" fill="#000000">&lt; 2</text>
<polygon fill="#ffffff" stroke="transparent" points="278.5,-721.7 278.5,-740.7 333.5,-740.7 333.5,-721.7 278.5,-721.7"/>
<polygon fill="none" stroke="#000000" points="278.5,-721.7 278.5,-740.7 333.5,-740.7 333.5,-721.7 278.5,-721.7"/>
<text text-anchor="start" x="324.3862" y="-727.8" font-family="Helvetica,sans-Serif" font-size="11.00" fill="#000000"> &#160;</text>
<polygon fill="#ffffff" stroke="transparent" points="333.5,-721.7 333.5,-740.7 389.5,-740.7 389.5,-721.7 333.5,-721.7"/>
<polygon fill="none" stroke="#000000" points="333.5,-721.7 333.5,-740.7 389.5,-740.7 389.5,-721.7 333.5,-721.7"/>
<text text-anchor="start" x="380.3862" y="-727.8" font-family="Helvetica,sans-Serif" font-size="11.00" fill="#000000"> &#160;</text>
</a>
</g>
</g>
<!-- prison_configuration_audit&#45;&gt;policy -->
<g id="edge5" class="edge">
<title>prison_configuration_audit:w&#45;&gt;policy:e</title>
<path fill="none" stroke="#000000" stroke-dasharray="5,2" d="M156.0451,-748.2785C101.2309,-737.3085 70.3108,-665.3772 56.2939,-621.2681"/>
<polygon fill="#000000" stroke="#000000" points="162.5384,-748.917 170.1476,-753.2827 166.5192,-749.3085 170.5,-749.7 170.5,-749.7 170.5,-749.7 166.5192,-749.3085 170.8524,-746.1173 162.5384,-748.917 162.5384,-748.917"/>
<ellipse fill="none" stroke="#000000" cx="159.3538" cy="-748.6038" rx="3.2" ry="3.2"/>
</g>
<!-- prison_statistic -->
<g id="node7" class="node">
<title>prison_statistic</title>
<g id="a_node7"><a xlink:href="../../tables/prison_statistic.html" xlink:title="prison_statistic" target="_top">
<polygon fill="#ffffff" stroke="transparent" points="208.5,-640.2 208.5,-701.2 350.5,-701.2 350.5,-640.2 208.5,-640.2"/>
<polygon fill="#f5f5f5" stroke="transparent" points="208.5,-677.7 208.5,-700.7 350.5,-700.7 350.5,-677.7 208.5,-677.7"/>
<polygon fill="none" stroke="#000000" points="208.5,-677.7 208.5,-700.7 350.5,-700.7 350.5,-677.7 208.5,-677.7"/>
<text text-anchor="start" x="213.5" y="-686.3" font-family="Helvetica,sans-Serif" font-weight="bold" font-size="11.00" fill="#000000">prison_statistic</text>
<text text-anchor="start" x="316.0219" y="-685.8" font-family="Helvetica,sans-Serif" font-size="11.00" fill="#000000">[table]</text>
<polygon fill="none" stroke="#000000" points="208.5,-658.7 208.5,-677.7 350.5,-677.7 350.5,-658.7 208.5,-658.7"/>
<text text-anchor="start" x="211.5" y="-664.8" font-family="Helvetica,sans-Serif" font-size="11.00" fill="#000000">...</text>
<polygon fill="#ffffff" stroke="transparent" points="208.5,-639.7 208.5,-658.7 273.5,-658.7 273.5,-639.7 208.5,-639.7"/>
<polygon fill="none" stroke="#000000" points="208.5,-639.7 208.5,-658.7 273.5,-658.7 273.5,-639.7 208.5,-639.7"/>
<text text-anchor="start" x="211.5" y="-645.8" font-family="Helvetica,sans-Serif" font-size="11.00" fill="#000000">&lt; 1</text>
<polygon fill="#ffffff" stroke="transparent" points="273.5,-639.7 273.5,-658.7 307.5,-658.7 307.5,-639.7 273.5,-639.7"/>
<polygon fill="none" stroke="#000000" points="273.5,-639.7 273.5,-658.7 307.5,-658.7 307.5,-639.7 273.5,-639.7"/>
<text text-anchor="start" x="298.3862" y="-645.8" font-family="Helvetica,sans-Serif" font-size="11.00" fill="#000000"> &#160;</text>
<polygon fill="#ffffff" stroke="transparent" points="307.5,-639.7 307.5,-658.7 350.5,-658.7 350.5,-639.7 307.5,-639.7"/>
<polygon fill="none" stroke="#000000" points="307.5,-639.7 307.5,-658.7 350.5,-658.7 350.5,-639.7 307.5,-639.7"/>
<text text-anchor="start" x="331.9053" y="-645.8" font-family="Helvetica,sans-Serif" font-size="11.00" fill="#000000">1 &gt;</text>
</a>
</g>
</g>
<!-- prison_statistic&#45;&gt;policy -->
<g id="edge6" class="edge">
<title>prison_statistic:w&#45;&gt;policy:e</title>
<path fill="none" stroke="#000000" d="M186.3977,-645.9122C166.5844,-639.8927 145.9353,-633.0501 127,-625.7 116.1968,-621.5065 104.8572,-616.4227 94.2226,-611.3303"/>
<polygon fill="#000000" stroke="#000000" points="192.6256,-647.7641 199.2676,-653.4951 196.4596,-648.9043 200.2937,-650.0444 200.2937,-650.0444 200.2937,-650.0444 196.4596,-648.9043 201.3198,-646.5938 192.6256,-647.7641 192.6256,-647.7641"/>
<ellipse fill="none" stroke="#000000" cx="189.5583" cy="-646.852" rx="3.2" ry="3.2"/>
</g>
<!-- prisoner_statistic -->
<g id="node8" class="node">
<title>prisoner_statistic</title>
<g id="a_node8"><a xlink:href="../../tables/prisoner_statistic.html" xlink:title="prisoner_statistic" target="_top">
<polygon fill="#ffffff" stroke="transparent" points="473,-567.7 473,-745.7 735,-745.7 735,-567.7 473,-567.7"/>
<polygon fill="#f5f5f5" stroke="transparent" points="475,-720.7 475,-743.7 733,-743.7 733,-720.7 475,-720.7"/>
<polygon fill="none" stroke="#000000" points="475,-720.7 475,-743.7 733,-743.7 733,-720.7 475,-720.7"/>
<text text-anchor="start" x="480" y="-729.3" font-family="Helvetica,sans-Serif" font-weight="bold" font-size="11.00" fill="#000000">prisoner_statistic</text>
<text text-anchor="start" x="698.0437" y="-728.8" font-family="Helvetica,sans-Serif" font-size="11.00" fill="#000000">[table]</text>
<polygon fill="none" stroke="#000000" points="475,-698.7 475,-720.7 668,-720.7 668,-698.7 475,-698.7"/>
<image xlink:href="../../images/primaryKeys.png" width="11px" height="12px" preserveAspectRatio="xMinYMin meet" x="480" y="-715.7"/>
<text text-anchor="start" x="495" y="-705.8" font-family="Helvetica,sans-Serif" font-size="11.00" fill="#000000">id</text>
<polygon fill="none" stroke="#000000" points="668,-698.7 668,-720.7 733,-720.7 733,-698.7 668,-698.7"/>
<text text-anchor="start" x="670.8561" y="-706.4" font-family="Helvetica,sans-Serif" font-size="11.00" fill="#000000">bigserial[19]</text>
<polygon fill="#ffffff" stroke="transparent" points="475,-676.7 475,-698.7 668,-698.7 668,-676.7 475,-676.7"/>
<polygon fill="none" stroke="#000000" points="475,-676.7 475,-698.7 668,-698.7 668,-676.7 475,-676.7"/>
<image xlink:href="../../images/foreignKeys.png" width="11px" height="12px" preserveAspectRatio="xMinYMin meet" x="480" y="-693.7"/>
<text text-anchor="start" x="495" y="-683.8" font-family="Helvetica,sans-Serif" font-size="11.00" fill="#000000">prison_statistic_id</text>
<polygon fill="none" stroke="#000000" points="668,-676.7 668,-698.7 733,-698.7 733,-676.7 668,-676.7"/>
<text text-anchor="start" x="671" y="-684.4" font-family="Helvetica,sans-Serif" font-size="11.00" fill="#000000">int8[19]</text>
<polygon fill="#ffffff" stroke="transparent" points="475,-654.7 475,-676.7 668,-676.7 668,-654.7 475,-654.7"/>
<polygon fill="none" stroke="#000000" points="475,-654.7 475,-676.7 668,-676.7 668,-654.7 475,-654.7"/>
<text text-anchor="start" x="495" y="-661.8" font-family="Helvetica,sans-Serif" font-size="11.00" fill="#000000">person_identifier</text>
<polygon fill="none" stroke="#000000" points="668,-654.7 668,-676.7 733,-676.7 733,-654.7 668,-654.7"/>
<text text-anchor="start" x="671" y="-662.4" font-family="Helvetica,sans-Serif" font-size="11.00" fill="#000000">varchar[7]</text>
<polygon fill="none" stroke="#000000" points="475,-632.7 475,-654.7 668,-654.7 668,-632.7 475,-632.7"/>
<text text-anchor="start" x="495" y="-639.8" font-family="Helvetica,sans-Serif" font-size="11.00" fill="#000000">cell_location</text>
<polygon fill="none" stroke="#000000" points="668,-632.7 668,-654.7 733,-654.7 733,-632.7 668,-632.7"/>
<text text-anchor="start" x="671" y="-640.4" font-family="Helvetica,sans-Serif" font-size="11.00" fill="#000000">varchar[64]</text>
<polygon fill="none" stroke="#000000" points="475,-610.7 475,-632.7 668,-632.7 668,-610.7 475,-610.7"/>
<text text-anchor="start" x="495" y="-617.8" font-family="Helvetica,sans-Serif" font-size="11.00" fill="#000000">allocation_eligibility_date</text>
<polygon fill="none" stroke="#000000" points="668,-610.7 668,-632.7 733,-632.7 733,-610.7 668,-610.7"/>
<text text-anchor="start" x="671" y="-618.4" font-family="Helvetica,sans-Serif" font-size="11.00" fill="#000000">date[13]</text>
<polygon fill="none" stroke="#000000" points="475,-588.7 475,-610.7 668,-610.7 668,-588.7 475,-588.7"/>
<image xlink:href="../../images/foreignKeys.png" width="11px" height="12px" preserveAspectRatio="xMinYMin meet" x="480" y="-605.7"/>
<text text-anchor="start" x="495" y="-595.8" font-family="Helvetica,sans-Serif" font-size="11.00" fill="#000000">policy_code</text>
<polygon fill="none" stroke="#000000" points="668,-588.7 668,-610.7 733,-610.7 733,-588.7 668,-588.7"/>
<text text-anchor="start" x="671" y="-596.4" font-family="Helvetica,sans-Serif" font-size="11.00" fill="#000000">varchar[16]</text>
<polygon fill="#ffffff" stroke="transparent" points="475,-569.7 475,-588.7 576,-588.7 576,-569.7 475,-569.7"/>
<polygon fill="none" stroke="#000000" points="475,-569.7 475,-588.7 576,-588.7 576,-569.7 475,-569.7"/>
<text text-anchor="start" x="478" y="-575.8" font-family="Helvetica,sans-Serif" font-size="11.00" fill="#000000">&lt; 2</text>
<polygon fill="#ffffff" stroke="transparent" points="576,-569.7 576,-588.7 668,-588.7 668,-569.7 576,-569.7"/>
<polygon fill="none" stroke="#000000" points="576,-569.7 576,-588.7 668,-588.7 668,-569.7 576,-569.7"/>
<text text-anchor="start" x="658.8862" y="-575.8" font-family="Helvetica,sans-Serif" font-size="11.00" fill="#000000"> &#160;</text>
<polygon fill="#ffffff" stroke="transparent" points="668,-569.7 668,-588.7 733,-588.7 733,-569.7 668,-569.7"/>
<polygon fill="none" stroke="#000000" points="668,-569.7 668,-588.7 733,-588.7 733,-569.7 668,-569.7"/>
<text text-anchor="start" x="714.4053" y="-575.8" font-family="Helvetica,sans-Serif" font-size="11.00" fill="#000000">0 &gt;</text>
<polygon fill="none" stroke="#000000" stroke-width="2" points="474,-568.7 474,-744.7 734,-744.7 734,-568.7 474,-568.7"/>
</a>
</g>
</g>
<!-- prisoner_statistic&#45;&gt;policy -->
<g id="edge7" class="edge">
<title>prisoner_statistic:w&#45;&gt;policy:e</title>
<path fill="none" stroke="#000000" d="M460.4017,-600.0743C451.4999,-600.5637 445.1495,-601.3944 432,-601.7 296.481,-604.8499 261.9739,-614.2445 127,-601.7 116.3066,-600.7062 104.9116,-598.9804 94.1741,-597.0449"/>
<polygon fill="#000000" stroke="#000000" points="467.0026,-599.9051 475.0923,-603.2988 471.0013,-599.8026 475,-599.7 475,-599.7 475,-599.7 471.0013,-599.8026 474.9077,-596.1012 467.0026,-599.9051 467.0026,-599.9051"/>
<ellipse fill="none" stroke="#000000" cx="463.8037" cy="-599.9872" rx="3.2" ry="3.2"/>
</g>
<!-- prisoner_statistic&#45;&gt;prison_statistic -->
<g id="edge8" class="edge">
<title>prisoner_statistic:w&#45;&gt;prison_statistic:e</title>
<path fill="none" stroke="#000000" d="M460.4579,-687.5517C426.1813,-686.873 389.8404,-683.9569 358.7894,-680.7364"/>
<polygon fill="#000000" stroke="#000000" points="467.0004,-687.6184 474.9633,-691.2998 471.0002,-687.6592 475,-687.7 475,-687.7 475,-687.7 471.0002,-687.6592 475.0367,-684.1002 467.0004,-687.6184 467.0004,-687.6184"/>
<ellipse fill="none" stroke="#000000" cx="463.8006" cy="-687.5857" rx="3.2" ry="3.2"/>
</g>
<!-- recorded_event -->
<g id="node9" class="node">
<title>recorded_event</title>
<g id="a_node9"><a xlink:href="../../tables/recorded_event.html" xlink:title="recorded_event" target="_top">
<polygon fill="#ffffff" stroke="transparent" points="207.5,-530.2 207.5,-591.2 351.5,-591.2 351.5,-530.2 207.5,-530.2"/>
<polygon fill="#f5f5f5" stroke="transparent" points="207.5,-567.7 207.5,-590.7 351.5,-590.7 351.5,-567.7 207.5,-567.7"/>
<polygon fill="none" stroke="#000000" points="207.5,-567.7 207.5,-590.7 351.5,-590.7 351.5,-567.7 207.5,-567.7"/>
<text text-anchor="start" x="212.5" y="-576.3" font-family="Helvetica,sans-Serif" font-weight="bold" font-size="11.00" fill="#000000">recorded_event</text>
<text text-anchor="start" x="317.0219" y="-575.8" font-family="Helvetica,sans-Serif" font-size="11.00" fill="#000000">[table]</text>
<polygon fill="none" stroke="#000000" points="207.5,-548.7 207.5,-567.7 351.5,-567.7 351.5,-548.7 207.5,-548.7"/>
<text text-anchor="start" x="210.5" y="-554.8" font-family="Helvetica,sans-Serif" font-size="11.00" fill="#000000">...</text>
<polygon fill="#ffffff" stroke="transparent" points="207.5,-529.7 207.5,-548.7 277.5,-548.7 277.5,-529.7 207.5,-529.7"/>
<polygon fill="none" stroke="#000000" points="207.5,-529.7 207.5,-548.7 277.5,-548.7 277.5,-529.7 207.5,-529.7"/>
<text text-anchor="start" x="210.5" y="-535.8" font-family="Helvetica,sans-Serif" font-size="11.00" fill="#000000">&lt; 2</text>
<polygon fill="#ffffff" stroke="transparent" points="277.5,-529.7 277.5,-548.7 314.5,-548.7 314.5,-529.7 277.5,-529.7"/>
<polygon fill="none" stroke="#000000" points="277.5,-529.7 277.5,-548.7 314.5,-548.7 314.5,-529.7 277.5,-529.7"/>
<text text-anchor="start" x="305.3862" y="-535.8" font-family="Helvetica,sans-Serif" font-size="11.00" fill="#000000"> &#160;</text>
<polygon fill="#ffffff" stroke="transparent" points="314.5,-529.7 314.5,-548.7 351.5,-548.7 351.5,-529.7 314.5,-529.7"/>
<polygon fill="none" stroke="#000000" points="314.5,-529.7 314.5,-548.7 351.5,-548.7 351.5,-529.7 314.5,-529.7"/>
<text text-anchor="start" x="342.3862" y="-535.8" font-family="Helvetica,sans-Serif" font-size="11.00" fill="#000000"> &#160;</text>
</a>
</g>
</g>
<!-- recorded_event&#45;&gt;policy -->
<g id="edge9" class="edge">
<title>recorded_event:w&#45;&gt;policy:e</title>
<path fill="none" stroke="#000000" d="M192.8296,-558.0693C158.2591,-559.7527 121.8118,-566.907 94.002,-573.6422"/>
<polygon fill="#000000" stroke="#000000" points="199.5025,-557.9014 207.5906,-561.2989 203.5013,-557.8007 207.5,-557.7 207.5,-557.7 207.5,-557.7 203.5013,-557.8007 207.4094,-554.1011 199.5025,-557.9014 199.5025,-557.9014"/>
<ellipse fill="none" stroke="#000000" cx="196.3035" cy="-557.9819" rx="3.2" ry="3.2"/>
</g>
<!-- recorded_event_audit -->
<g id="node10" class="node">
<title>recorded_event_audit</title>
<g id="a_node10"><a xlink:href="../../tables/recorded_event_audit.html" xlink:title="recorded_event_audit" target="_top">
<polygon fill="#ffffff" stroke="transparent" points="187,-448.2 187,-509.2 372,-509.2 372,-448.2 187,-448.2"/>
<polygon fill="#f5f5f5" stroke="transparent" points="187.5,-485.7 187.5,-508.7 372.5,-508.7 372.5,-485.7 187.5,-485.7"/>
<polygon fill="none" stroke="#000000" points="187.5,-485.7 187.5,-508.7 372.5,-508.7 372.5,-485.7 187.5,-485.7"/>
<text text-anchor="start" x="192.5" y="-494.3" font-family="Helvetica,sans-Serif" font-weight="bold" font-size="11.00" fill="#000000">recorded_event_audit</text>
<text text-anchor="start" x="338.0219" y="-493.8" font-family="Helvetica,sans-Serif" font-size="11.00" fill="#000000">[table]</text>
<polygon fill="none" stroke="#000000" points="187.5,-466.7 187.5,-485.7 372.5,-485.7 372.5,-466.7 187.5,-466.7"/>
<text text-anchor="start" x="190.5" y="-472.8" font-family="Helvetica,sans-Serif" font-size="11.00" fill="#000000">...</text>
<polygon fill="#ffffff" stroke="transparent" points="187.5,-447.7 187.5,-466.7 278.5,-466.7 278.5,-447.7 187.5,-447.7"/>
<polygon fill="none" stroke="#000000" points="187.5,-447.7 187.5,-466.7 278.5,-466.7 278.5,-447.7 187.5,-447.7"/>
<text text-anchor="start" x="190.5" y="-453.8" font-family="Helvetica,sans-Serif" font-size="11.00" fill="#000000">&lt; 2</text>
<polygon fill="#ffffff" stroke="transparent" points="278.5,-447.7 278.5,-466.7 325.5,-466.7 325.5,-447.7 278.5,-447.7"/>
<polygon fill="none" stroke="#000000" points="278.5,-447.7 278.5,-466.7 325.5,-466.7 325.5,-447.7 278.5,-447.7"/>
<text text-anchor="start" x="316.3862" y="-453.8" font-family="Helvetica,sans-Serif" font-size="11.00" fill="#000000"> &#160;</text>
<polygon fill="#ffffff" stroke="transparent" points="325.5,-447.7 325.5,-466.7 372.5,-466.7 372.5,-447.7 325.5,-447.7"/>
<polygon fill="none" stroke="#000000" points="325.5,-447.7 325.5,-466.7 372.5,-466.7 372.5,-447.7 325.5,-447.7"/>
<text text-anchor="start" x="363.3862" y="-453.8" font-family="Helvetica,sans-Serif" font-size="11.00" fill="#000000"> &#160;</text>
</a>
</g>
</g>
<!-- recorded_event_audit&#45;&gt;policy -->
<g id="edge10" class="edge">
<title>recorded_event_audit:w&#45;&gt;policy:e</title>
<path fill="none" stroke="#000000" d="M173.0582,-476.9046C129.2883,-484.1669 92.364,-522.7851 70.0082,-552.1874"/>
<polygon fill="#000000" stroke="#000000" points="179.5277,-476.3651 187.7993,-479.2875 183.5138,-476.0325 187.5,-475.7 187.5,-475.7 187.5,-475.7 183.5138,-476.0325 187.2007,-472.1125 179.5277,-476.3651 179.5277,-476.3651"/>
<ellipse fill="none" stroke="#000000" cx="176.3388" cy="-476.6311" rx="3.2" ry="3.2"/>
</g>
<!-- reference_data_policy -->
<g id="node11" class="node">
<title>reference_data_policy</title>
<g id="a_node11"><a xlink:href="../../tables/reference_data_policy.html" xlink:title="reference_data_policy" target="_top">
<polygon fill="#ffffff" stroke="transparent" points="186.5,-366.2 186.5,-427.2 372.5,-427.2 372.5,-366.2 186.5,-366.2"/>
<polygon fill="#f5f5f5" stroke="transparent" points="186.5,-403.7 186.5,-426.7 372.5,-426.7 372.5,-403.7 186.5,-403.7"/>
<polygon fill="none" stroke="#000000" points="186.5,-403.7 186.5,-426.7 372.5,-426.7 372.5,-403.7 186.5,-403.7"/>
<text text-anchor="start" x="191.5" y="-412.3" font-family="Helvetica,sans-Serif" font-weight="bold" font-size="11.00" fill="#000000">reference_data_policy</text>
<text text-anchor="start" x="338.0219" y="-411.8" font-family="Helvetica,sans-Serif" font-size="11.00" fill="#000000">[table]</text>
<polygon fill="none" stroke="#000000" points="186.5,-384.7 186.5,-403.7 372.5,-403.7 372.5,-384.7 186.5,-384.7"/>
<text text-anchor="start" x="189.5" y="-390.8" font-family="Helvetica,sans-Serif" font-size="11.00" fill="#000000">...</text>
<polygon fill="#ffffff" stroke="transparent" points="186.5,-365.7 186.5,-384.7 261.5,-384.7 261.5,-365.7 186.5,-365.7"/>
<polygon fill="none" stroke="#000000" points="186.5,-365.7 186.5,-384.7 261.5,-384.7 261.5,-365.7 186.5,-365.7"/>
<text text-anchor="start" x="189.5" y="-371.8" font-family="Helvetica,sans-Serif" font-size="11.00" fill="#000000">&lt; 2</text>
<polygon fill="#ffffff" stroke="transparent" points="261.5,-365.7 261.5,-384.7 332.5,-384.7 332.5,-365.7 261.5,-365.7"/>
<polygon fill="none" stroke="#000000" points="261.5,-365.7 261.5,-384.7 332.5,-384.7 332.5,-365.7 261.5,-365.7"/>
<text text-anchor="start" x="290.9956" y="-371.8" font-family="Helvetica,sans-Serif" font-size="11.00" fill="#000000">84 rows</text>
<polygon fill="#ffffff" stroke="transparent" points="332.5,-365.7 332.5,-384.7 372.5,-384.7 372.5,-365.7 332.5,-365.7"/>
<polygon fill="none" stroke="#000000" points="332.5,-365.7 332.5,-384.7 372.5,-384.7 372.5,-365.7 332.5,-365.7"/>
<text text-anchor="start" x="363.3862" y="-371.8" font-family="Helvetica,sans-Serif" font-size="11.00" fill="#000000"> &#160;</text>
</a>
</g>
</g>
<!-- reference_data_policy&#45;&gt;policy -->
<g id="edge11" class="edge">
<title>reference_data_policy:w&#45;&gt;policy:e</title>
<path fill="none" stroke="#000000" d="M172.027,-394.9431C104.2843,-406.7778 69.403,-500.2599 55.0904,-552.1955"/>
<polygon fill="#000000" stroke="#000000" points="178.5293,-394.3847 186.8081,-397.2868 182.5147,-394.0423 186.5,-393.7 186.5,-393.7 186.5,-393.7 182.5147,-394.0423 186.1919,-390.1132 178.5293,-394.3847 178.5293,-394.3847"/>
<ellipse fill="none" stroke="#000000" cx="175.3411" cy="-394.6585" rx="3.2" ry="3.2"/>
</g>
<!-- staff_configuration -->
<g id="node12" class="node">
<title>staff_configuration</title>
<g id="a_node12"><a xlink:href="../../tables/staff_configuration.html" xlink:title="staff_configuration" target="_top">
<polygon fill="#ffffff" stroke="transparent" points="196,-284.2 196,-345.2 363,-345.2 363,-284.2 196,-284.2"/>
<polygon fill="#f5f5f5" stroke="transparent" points="196.5,-321.7 196.5,-344.7 363.5,-344.7 363.5,-321.7 196.5,-321.7"/>
<polygon fill="none" stroke="#000000" points="196.5,-321.7 196.5,-344.7 363.5,-344.7 363.5,-321.7 196.5,-321.7"/>
<text text-anchor="start" x="201.5" y="-330.3" font-family="Helvetica,sans-Serif" font-weight="bold" font-size="11.00" fill="#000000">staff_configuration</text>
<text text-anchor="start" x="329.0219" y="-329.8" font-family="Helvetica,sans-Serif" font-size="11.00" fill="#000000">[table]</text>
<polygon fill="none" stroke="#000000" points="196.5,-302.7 196.5,-321.7 363.5,-321.7 363.5,-302.7 196.5,-302.7"/>
<text text-anchor="start" x="199.5" y="-308.8" font-family="Helvetica,sans-Serif" font-size="11.00" fill="#000000">...</text>
<polygon fill="#ffffff" stroke="transparent" points="196.5,-283.7 196.5,-302.7 278.5,-302.7 278.5,-283.7 196.5,-283.7"/>
<polygon fill="none" stroke="#000000" points="196.5,-283.7 196.5,-302.7 278.5,-302.7 278.5,-283.7 196.5,-283.7"/>
<text text-anchor="start" x="199.5" y="-289.8" font-family="Helvetica,sans-Serif" font-size="11.00" fill="#000000">&lt; 2</text>
<polygon fill="#ffffff" stroke="transparent" points="278.5,-283.7 278.5,-302.7 320.5,-302.7 320.5,-283.7 278.5,-283.7"/>
<polygon fill="none" stroke="#000000" points="278.5,-283.7 278.5,-302.7 320.5,-302.7 320.5,-283.7 278.5,-283.7"/>
<text text-anchor="start" x="311.3862" y="-289.8" font-family="Helvetica,sans-Serif" font-size="11.00" fill="#000000"> &#160;</text>
<polygon fill="#ffffff" stroke="transparent" points="320.5,-283.7 320.5,-302.7 363.5,-302.7 363.5,-283.7 320.5,-283.7"/>
<polygon fill="none" stroke="#000000" points="320.5,-283.7 320.5,-302.7 363.5,-302.7 363.5,-283.7 320.5,-283.7"/>
<text text-anchor="start" x="354.3862" y="-289.8" font-family="Helvetica,sans-Serif" font-size="11.00" fill="#000000"> &#160;</text>
</a>
</g>
</g>
<!-- staff_configuration&#45;&gt;policy -->
<g id="edge12" class="edge">
<title>staff_configuration:w&#45;&gt;policy:e</title>
<path fill="none" stroke="#000000" d="M182.0783,-312.7278C85.4894,-326.7971 57.5579,-481.6802 49.8202,-552.1495"/>
<polygon fill="#000000" stroke="#000000" points="188.5202,-312.2687 196.7559,-315.2909 192.5101,-311.9844 196.5,-311.7 196.5,-311.7 196.5,-311.7 192.5101,-311.9844 196.2441,-308.1091 188.5202,-312.2687 188.5202,-312.2687"/>
<ellipse fill="none" stroke="#000000" cx="185.3283" cy="-312.4962" rx="3.2" ry="3.2"/>
</g>
<!-- staff_configuration_audit -->
<g id="node13" class="node">
<title>staff_configuration_audit</title>
<g id="a_node13"><a xlink:href="../../tables/staff_configuration_audit.html" xlink:title="staff_configuration_audit" target="_top">
<polygon fill="#ffffff" stroke="transparent" points="175.5,-202.2 175.5,-263.2 383.5,-263.2 383.5,-202.2 175.5,-202.2"/>
<polygon fill="#f5f5f5" stroke="transparent" points="175.5,-239.7 175.5,-262.7 383.5,-262.7 383.5,-239.7 175.5,-239.7"/>
<polygon fill="none" stroke="#000000" points="175.5,-239.7 175.5,-262.7 383.5,-262.7 383.5,-239.7 175.5,-239.7"/>
<text text-anchor="start" x="180.5" y="-248.3" font-family="Helvetica,sans-Serif" font-weight="bold" font-size="11.00" fill="#000000">staff_configuration_audit</text>
<text text-anchor="start" x="349.0219" y="-247.8" font-family="Helvetica,sans-Serif" font-size="11.00" fill="#000000">[table]</text>
<polygon fill="none" stroke="#000000" points="175.5,-220.7 175.5,-239.7 383.5,-239.7 383.5,-220.7 175.5,-220.7"/>
<text text-anchor="start" x="178.5" y="-226.8" font-family="Helvetica,sans-Serif" font-size="11.00" fill="#000000">...</text>
<polygon fill="#ffffff" stroke="transparent" points="175.5,-201.7 175.5,-220.7 277.5,-220.7 277.5,-201.7 175.5,-201.7"/>
<polygon fill="none" stroke="#000000" points="175.5,-201.7 175.5,-220.7 277.5,-220.7 277.5,-201.7 175.5,-201.7"/>
<text text-anchor="start" x="178.5" y="-207.8" font-family="Helvetica,sans-Serif" font-size="11.00" fill="#000000">&lt; 2</text>
<polygon fill="#ffffff" stroke="transparent" points="277.5,-201.7 277.5,-220.7 330.5,-220.7 330.5,-201.7 277.5,-201.7"/>
<polygon fill="none" stroke="#000000" points="277.5,-201.7 277.5,-220.7 330.5,-220.7 330.5,-201.7 277.5,-201.7"/>
<text text-anchor="start" x="321.3862" y="-207.8" font-family="Helvetica,sans-Serif" font-size="11.00" fill="#000000"> &#160;</text>
<polygon fill="#ffffff" stroke="transparent" points="330.5,-201.7 330.5,-220.7 383.5,-220.7 383.5,-201.7 330.5,-201.7"/>
<polygon fill="none" stroke="#000000" points="330.5,-201.7 330.5,-220.7 383.5,-220.7 383.5,-201.7 330.5,-201.7"/>
<text text-anchor="start" x="374.3862" y="-207.8" font-family="Helvetica,sans-Serif" font-size="11.00" fill="#000000"> &#160;</text>
</a>
</g>
</g>
<!-- staff_configuration_audit&#45;&gt;policy -->
<g id="edge13" class="edge">
<title>staff_configuration_audit:w&#45;&gt;policy:e</title>
<path fill="none" stroke="#000000" stroke-dasharray="5,2" d="M161.1481,-233.2061C101.4941,-262.6062 64.5024,-469.0262 51.877,-552.145"/>
<polygon fill="#000000" stroke="#000000" points="167.7285,-231.5986 176.3544,-233.1972 171.6143,-230.6493 175.5,-229.7 175.5,-229.7 175.5,-229.7 171.6143,-230.6493 174.6456,-226.2028 167.7285,-231.5986 167.7285,-231.5986"/>
<ellipse fill="none" stroke="#000000" cx="164.62" cy="-232.358" rx="3.2" ry="3.2"/>
</g>
<!-- staff_role -->
<g id="node14" class="node">
<title>staff_role</title>
<g id="a_node14"><a xlink:href="../../tables/staff_role.html" xlink:title="staff_role" target="_top">
<polygon fill="#ffffff" stroke="transparent" points="228.5,-120.2 228.5,-181.2 330.5,-181.2 330.5,-120.2 228.5,-120.2"/>
<polygon fill="#f5f5f5" stroke="transparent" points="228.5,-157.7 228.5,-180.7 330.5,-180.7 330.5,-157.7 228.5,-157.7"/>
<polygon fill="none" stroke="#000000" points="228.5,-157.7 228.5,-180.7 330.5,-180.7 330.5,-157.7 228.5,-157.7"/>
<text text-anchor="start" x="233.5" y="-166.3" font-family="Helvetica,sans-Serif" font-weight="bold" font-size="11.00" fill="#000000">staff_role</text>
<text text-anchor="start" x="296.0219" y="-165.8" font-family="Helvetica,sans-Serif" font-size="11.00" fill="#000000">[table]</text>
<polygon fill="none" stroke="#000000" points="228.5,-138.7 228.5,-157.7 330.5,-157.7 330.5,-138.7 228.5,-138.7"/>
<text text-anchor="start" x="231.5" y="-144.8" font-family="Helvetica,sans-Serif" font-size="11.00" fill="#000000">...</text>
<polygon fill="#ffffff" stroke="transparent" points="228.5,-119.7 228.5,-138.7 277.5,-138.7 277.5,-119.7 228.5,-119.7"/>
<polygon fill="none" stroke="#000000" points="228.5,-119.7 228.5,-138.7 277.5,-138.7 277.5,-119.7 228.5,-119.7"/>
<text text-anchor="start" x="231.5" y="-125.8" font-family="Helvetica,sans-Serif" font-size="11.00" fill="#000000">&lt; 1</text>
<polygon fill="#ffffff" stroke="transparent" points="277.5,-119.7 277.5,-138.7 303.5,-138.7 303.5,-119.7 277.5,-119.7"/>
<polygon fill="none" stroke="#000000" points="277.5,-119.7 277.5,-138.7 303.5,-138.7 303.5,-119.7 277.5,-119.7"/>
<text text-anchor="start" x="294.3862" y="-125.8" font-family="Helvetica,sans-Serif" font-size="11.00" fill="#000000"> &#160;</text>
<polygon fill="#ffffff" stroke="transparent" points="303.5,-119.7 303.5,-138.7 330.5,-138.7 330.5,-119.7 303.5,-119.7"/>
<polygon fill="none" stroke="#000000" points="303.5,-119.7 303.5,-138.7 330.5,-138.7 330.5,-119.7 303.5,-119.7"/>
<text text-anchor="start" x="321.3862" y="-125.8" font-family="Helvetica,sans-Serif" font-size="11.00" fill="#000000"> &#160;</text>
</a>
</g>
</g>
<!-- staff_role&#45;&gt;policy -->
<g id="edge14" class="edge">
<title>staff_role:w&#45;&gt;policy:e</title>
<path fill="none" stroke="#000000" stroke-dasharray="5,2" d="M214.0829,-147.9158C174.8025,-149.2467 154.7429,-157.4482 127,-191.7 81.9703,-247.2944 57.8325,-466.128 49.9431,-551.9244"/>
<polygon fill="#000000" stroke="#000000" points="220.5009,-147.8198 228.5539,-151.2996 224.5004,-147.7599 228.5,-147.7 228.5,-147.7 228.5,-147.7 224.5004,-147.7599 228.4461,-144.1004 220.5009,-147.8198 220.5009,-147.8198"/>
<ellipse fill="none" stroke="#000000" cx="217.3013" cy="-147.8677" rx="3.2" ry="3.2"/>
</g>
<!-- staff_role_audit -->
<g id="node15" class="node">
<title>staff_role_audit</title>
<g id="a_node15"><a xlink:href="../../tables/staff_role_audit.html" xlink:title="staff_role_audit" target="_top">
<polygon fill="#ffffff" stroke="transparent" points="208,-38.2 208,-99.2 351,-99.2 351,-38.2 208,-38.2"/>
<polygon fill="#f5f5f5" stroke="transparent" points="208.5,-75.7 208.5,-98.7 351.5,-98.7 351.5,-75.7 208.5,-75.7"/>
<polygon fill="none" stroke="#000000" points="208.5,-75.7 208.5,-98.7 351.5,-98.7 351.5,-75.7 208.5,-75.7"/>
<text text-anchor="start" x="213.5" y="-84.3" font-family="Helvetica,sans-Serif" font-weight="bold" font-size="11.00" fill="#000000">staff_role_audit</text>
<text text-anchor="start" x="317.0219" y="-83.8" font-family="Helvetica,sans-Serif" font-size="11.00" fill="#000000">[table]</text>
<polygon fill="none" stroke="#000000" points="208.5,-56.7 208.5,-75.7 351.5,-75.7 351.5,-56.7 208.5,-56.7"/>
<text text-anchor="start" x="211.5" y="-62.8" font-family="Helvetica,sans-Serif" font-size="11.00" fill="#000000">...</text>
<polygon fill="#ffffff" stroke="transparent" points="208.5,-37.7 208.5,-56.7 278.5,-56.7 278.5,-37.7 208.5,-37.7"/>
<polygon fill="none" stroke="#000000" points="208.5,-37.7 208.5,-56.7 278.5,-56.7 278.5,-37.7 208.5,-37.7"/>
<text text-anchor="start" x="211.5" y="-43.8" font-family="Helvetica,sans-Serif" font-size="11.00" fill="#000000">&lt; 2</text>
<polygon fill="#ffffff" stroke="transparent" points="278.5,-37.7 278.5,-56.7 314.5,-56.7 314.5,-37.7 278.5,-37.7"/>
<polygon fill="none" stroke="#000000" points="278.5,-37.7 278.5,-56.7 314.5,-56.7 314.5,-37.7 278.5,-37.7"/>
<text text-anchor="start" x="305.3862" y="-43.8" font-family="Helvetica,sans-Serif" font-size="11.00" fill="#000000"> &#160;</text>
<polygon fill="#ffffff" stroke="transparent" points="314.5,-37.7 314.5,-56.7 351.5,-56.7 351.5,-37.7 314.5,-37.7"/>
<polygon fill="none" stroke="#000000" points="314.5,-37.7 314.5,-56.7 351.5,-56.7 351.5,-37.7 314.5,-37.7"/>
<text text-anchor="start" x="342.3862" y="-43.8" font-family="Helvetica,sans-Serif" font-size="11.00" fill="#000000"> &#160;</text>
</a>
</g>
</g>
<!-- staff_role_audit&#45;&gt;policy -->
<g id="edge15" class="edge">
<title>staff_role_audit:w&#45;&gt;policy:e</title>
<path fill="none" stroke="#000000" stroke-dasharray="5,2" d="M193.747,-66.2511C162.9858,-68.7938 147.8627,-80.5363 127,-109.7 75.8857,-181.1522 54.8821,-454.4875 48.9155,-551.9361"/>
<polygon fill="#000000" stroke="#000000" points="200.5056,-65.9987 208.6344,-69.2975 204.5028,-65.8493 208.5,-65.7 208.5,-65.7 208.5,-65.7 204.5028,-65.8493 208.3656,-62.1025 200.5056,-65.9987 200.5056,-65.9987"/>
<ellipse fill="none" stroke="#000000" cx="197.3078" cy="-66.1182" rx="3.2" ry="3.2"/>
</g>
</g>
</svg>
