<?xml version="1.0" encoding="UTF-8" standalone="no"?>
<!DOCTYPE svg PUBLIC "-//W3C//DTD SVG 1.1//EN"
 "http://www.w3.org/Graphics/SVG/1.1/DTD/svg11.dtd">
<!-- Generated by graphviz version 2.40.1 (20161225.0304)
 -->
<!-- Title: twoDegreesRelationshipsDiagram Pages: 1 -->
<svg width="682pt" height="553pt"
 viewBox="0.00 0.00 682.00 552.70" xmlns="http://www.w3.org/2000/svg" xmlns:xlink="http://www.w3.org/1999/xlink">
<g id="graph0" class="graph" transform="scale(1 1) rotate(0) translate(4 548.7)">
<title>twoDegreesRelationshipsDiagram</title>
<polygon fill="#ffffff" stroke="transparent" points="-4,4 -4,-548.7 678,-548.7 678,4 -4,4"/>
<text text-anchor="middle" x="72.4936" y="-7.3" font-family="Helvetica,sans-Serif" font-size="11.00" fill="#000000">Generated by SchemaSpy</text>
<!-- keyworker_configuration_audit -->
<g id="node1" class="node">
<title>keyworker_configuration_audit</title>
<g id="a_node1"><a xlink:href="../../tables/keyworker_configuration_audit.html" xlink:title="keyworker_configuration_audit" target="_top">
<polygon fill="#ffffff" stroke="transparent" points="304.5,-479.7 304.5,-540.7 552.5,-540.7 552.5,-479.7 304.5,-479.7"/>
<polygon fill="#f5f5f5" stroke="transparent" points="304.5,-517.2 304.5,-540.2 552.5,-540.2 552.5,-517.2 304.5,-517.2"/>
<polygon fill="none" stroke="#000000" points="304.5,-517.2 304.5,-540.2 552.5,-540.2 552.5,-517.2 304.5,-517.2"/>
<text text-anchor="start" x="309.5" y="-525.8" font-family="Helvetica,sans-Serif" font-weight="bold" font-size="11.00" fill="#000000">keyworker_configuration_audit</text>
<text text-anchor="start" x="518.0219" y="-525.3" font-family="Helvetica,sans-Serif" font-size="11.00" fill="#000000">[table]</text>
<polygon fill="none" stroke="#000000" points="304.5,-498.2 304.5,-517.2 552.5,-517.2 552.5,-498.2 304.5,-498.2"/>
<text text-anchor="start" x="307.5" y="-504.3" font-family="Helvetica,sans-Serif" font-size="11.00" fill="#000000">...</text>
<polygon fill="#ffffff" stroke="transparent" points="304.5,-479.2 304.5,-498.2 426.5,-498.2 426.5,-479.2 304.5,-479.2"/>
<polygon fill="none" stroke="#000000" points="304.5,-479.2 304.5,-498.2 426.5,-498.2 426.5,-479.2 304.5,-479.2"/>
<text text-anchor="start" x="307.5" y="-485.3" font-family="Helvetica,sans-Serif" font-size="11.00" fill="#000000">&lt; 1</text>
<polygon fill="#ffffff" stroke="transparent" points="426.5,-479.2 426.5,-498.2 489.5,-498.2 489.5,-479.2 426.5,-479.2"/>
<polygon fill="none" stroke="#000000" points="426.5,-479.2 426.5,-498.2 489.5,-498.2 489.5,-479.2 426.5,-479.2"/>
<text text-anchor="start" x="480.3862" y="-485.3" font-family="Helvetica,sans-Serif" font-size="11.00" fill="#000000"> &#160;</text>
<polygon fill="#ffffff" stroke="transparent" points="489.5,-479.2 489.5,-498.2 552.5,-498.2 552.5,-479.2 489.5,-479.2"/>
<polygon fill="none" stroke="#000000" points="489.5,-479.2 489.5,-498.2 552.5,-498.2 552.5,-479.2 489.5,-479.2"/>
<text text-anchor="start" x="543.3862" y="-485.3" font-family="Helvetica,sans-Serif" font-size="11.00" fill="#000000"> &#160;</text>
</a>
</g>
</g>
<!-- audit_revision -->
<g id="node2" class="node">
<title>audit_revision</title>
<g id="a_node2"><a xlink:href="../../tables/audit_revision.html" xlink:title="audit_revision" target="_top">
<polygon fill="#ffffff" stroke="transparent" points="8,-415.7 8,-498.7 142,-498.7 142,-415.7 8,-415.7"/>
<polygon fill="#f5f5f5" stroke="transparent" points="8,-475.2 8,-498.2 142,-498.2 142,-475.2 8,-475.2"/>
<polygon fill="none" stroke="#000000" points="8,-475.2 8,-498.2 142,-498.2 142,-475.2 8,-475.2"/>
<text text-anchor="start" x="13" y="-483.8" font-family="Helvetica,sans-Serif" font-weight="bold" font-size="11.00" fill="#000000">audit_revision</text>
<text text-anchor="start" x="107.5219" y="-483.3" font-family="Helvetica,sans-Serif" font-size="11.00" fill="#000000">[table]</text>
<polygon fill="none" stroke="#000000" points="8,-453.2 8,-475.2 142,-475.2 142,-453.2 8,-453.2"/>
<image xlink:href="../../images/primaryKeys.png" width="11px" height="12px" preserveAspectRatio="xMinYMin meet" x="13" y="-470.2"/>
<text text-anchor="start" x="28" y="-460.3" font-family="Helvetica,sans-Serif" font-size="11.00" fill="#000000">id</text>
<polygon fill="none" stroke="#000000" points="8,-434.2 8,-453.2 142,-453.2 142,-434.2 8,-434.2"/>
<text text-anchor="start" x="11" y="-440.3" font-family="Helvetica,sans-Serif" font-size="11.00" fill="#000000">...</text>
<polygon fill="#ffffff" stroke="transparent" points="8,-415.2 8,-434.2 64,-434.2 64,-415.2 8,-415.2"/>
<polygon fill="none" stroke="#000000" points="8,-415.2 8,-434.2 64,-434.2 64,-415.2 8,-415.2"/>
<text text-anchor="start" x="11" y="-421.3" font-family="Helvetica,sans-Serif" font-size="11.00" fill="#000000"> &#160;</text>
<polygon fill="#ffffff" stroke="transparent" points="64,-415.2 64,-434.2 98,-434.2 98,-415.2 64,-415.2"/>
<polygon fill="none" stroke="#000000" points="64,-415.2 64,-434.2 98,-434.2 98,-415.2 64,-415.2"/>
<text text-anchor="start" x="88.8862" y="-421.3" font-family="Helvetica,sans-Serif" font-size="11.00" fill="#000000"> &#160;</text>
<polygon fill="#ffffff" stroke="transparent" points="98,-415.2 98,-434.2 142,-434.2 142,-415.2 98,-415.2"/>
<polygon fill="none" stroke="#000000" points="98,-415.2 98,-434.2 142,-434.2 142,-415.2 98,-415.2"/>
<text text-anchor="start" x="123.4053" y="-421.3" font-family="Helvetica,sans-Serif" font-size="11.00" fill="#000000">2 &gt;</text>
</a>
</g>
</g>
<!-- keyworker_configuration_audit&#45;&gt;audit_revision -->
<g id="edge1" class="edge">
<title>keyworker_configuration_audit:w&#45;&gt;audit_revision:e</title>
<path fill="none" stroke="#000000" d="M290.0036,-506.6247C227.7152,-501.522 211.601,-464.2 142,-464.2"/>
<polygon fill="#000000" stroke="#000000" points="296.5063,-506.8827 304.3572,-510.7972 300.5031,-507.0413 304.5,-507.2 304.5,-507.2 304.5,-507.2 300.5031,-507.0413 304.6428,-503.6028 296.5063,-506.8827 296.5063,-506.8827"/>
<ellipse fill="none" stroke="#000000" cx="293.3088" cy="-506.7558" rx="3.2" ry="3.2"/>
</g>
<!-- prison_configuration_audit -->
<g id="node3" class="node">
<title>prison_configuration_audit</title>
<g id="a_node3"><a xlink:href="../../tables/prison_configuration_audit.html" xlink:title="prison_configuration_audit" target="_top">
<polygon fill="#ffffff" stroke="transparent" points="191,-38.2 191,-458.2 666,-458.2 666,-38.2 191,-38.2"/>
<polygon fill="#f5f5f5" stroke="transparent" points="193.5,-433.2 193.5,-456.2 664.5,-456.2 664.5,-433.2 193.5,-433.2"/>
<polygon fill="none" stroke="#000000" points="193.5,-433.2 193.5,-456.2 664.5,-456.2 664.5,-433.2 193.5,-433.2"/>
<text text-anchor="start" x="198.5" y="-441.8" font-family="Helvetica,sans-Serif" font-weight="bold" font-size="11.00" fill="#000000">prison_configuration_audit</text>
<text text-anchor="start" x="629.5437" y="-441.3" font-family="Helvetica,sans-Serif" font-size="11.00" fill="#000000">[table]</text>
<polygon fill="none" stroke="#000000" points="193.5,-411.2 193.5,-433.2 570.5,-433.2 570.5,-411.2 193.5,-411.2"/>
<image xlink:href="../../images/primaryKeys.png" width="11px" height="12px" preserveAspectRatio="xMinYMin meet" x="198.5" y="-428.2"/>
<text text-anchor="start" x="213.5" y="-418.3" font-family="Helvetica,sans-Serif" font-size="11.00" fill="#000000">rev_id</text>
<polygon fill="none" stroke="#000000" points="570.5,-411.2 570.5,-433.2 664.5,-433.2 664.5,-411.2 570.5,-411.2"/>
<text text-anchor="start" x="573.5" y="-418.9" font-family="Helvetica,sans-Serif" font-size="11.00" fill="#000000">int8[19]</text>
<polygon fill="none" stroke="#000000" points="193.5,-389.2 193.5,-411.2 570.5,-411.2 570.5,-389.2 193.5,-389.2"/>
<text text-anchor="start" x="213.5" y="-396.3" font-family="Helvetica,sans-Serif" font-size="11.00" fill="#000000">rev_type</text>
<polygon fill="none" stroke="#000000" points="570.5,-389.2 570.5,-411.2 664.5,-411.2 664.5,-389.2 570.5,-389.2"/>
<text text-anchor="start" x="573.5" y="-396.9" font-family="Helvetica,sans-Serif" font-size="11.00" fill="#000000">int2[5]</text>
<polygon fill="none" stroke="#000000" points="193.5,-367.2 193.5,-389.2 570.5,-389.2 570.5,-367.2 193.5,-367.2"/>
<image xlink:href="../../images/primaryKeys.png" width="11px" height="12px" preserveAspectRatio="xMinYMin meet" x="198.5" y="-384.2"/>
<text text-anchor="start" x="213.5" y="-374.3" font-family="Helvetica,sans-Serif" font-size="11.00" fill="#000000">id</text>
<polygon fill="none" stroke="#000000" points="570.5,-367.2 570.5,-389.2 664.5,-389.2 664.5,-367.2 570.5,-367.2"/>
<text text-anchor="start" x="573.4758" y="-374.9" font-family="Helvetica,sans-Serif" font-size="11.00" fill="#000000">uuid[2147483647]</text>
<polygon fill="none" stroke="#000000" points="193.5,-345.2 193.5,-367.2 570.5,-367.2 570.5,-345.2 193.5,-345.2"/>
<image xlink:href="../../images/foreignKeys.png" width="11px" height="12px" preserveAspectRatio="xMinYMin meet" x="198.5" y="-362.2"/>
<text text-anchor="start" x="213.5" y="-352.3" font-family="Helvetica,sans-Serif" font-size="11.00" fill="#000000">prison_code</text>
<polygon fill="none" stroke="#000000" points="570.5,-345.2 570.5,-367.2 664.5,-367.2 664.5,-345.2 570.5,-345.2"/>
<text text-anchor="start" x="573.5" y="-352.9" font-family="Helvetica,sans-Serif" font-size="11.00" fill="#000000">varchar[6]</text>
<polygon fill="none" stroke="#000000" points="193.5,-323.2 193.5,-345.2 570.5,-345.2 570.5,-323.2 193.5,-323.2"/>
<text text-anchor="start" x="213.5" y="-330.3" font-family="Helvetica,sans-Serif" font-size="11.00" fill="#000000">is_enabled</text>
<polygon fill="none" stroke="#000000" points="570.5,-323.2 570.5,-345.2 664.5,-345.2 664.5,-323.2 570.5,-323.2"/>
<text text-anchor="start" x="573.5" y="-330.9" font-family="Helvetica,sans-Serif" font-size="11.00" fill="#000000">bool[1]</text>
<polygon fill="none" stroke="#000000" points="193.5,-301.2 193.5,-323.2 570.5,-323.2 570.5,-301.2 193.5,-301.2"/>
<text text-anchor="start" x="213.5" y="-308.3" font-family="Helvetica,sans-Serif" font-size="11.00" fill="#000000">capacity</text>
<polygon fill="none" stroke="#000000" points="570.5,-301.2 570.5,-323.2 664.5,-323.2 664.5,-301.2 570.5,-301.2"/>
<text text-anchor="start" x="573.5" y="-308.9" font-family="Helvetica,sans-Serif" font-size="11.00" fill="#000000">int4[10]</text>
<polygon fill="none" stroke="#000000" points="193.5,-279.2 193.5,-301.2 570.5,-301.2 570.5,-279.2 193.5,-279.2"/>
<text text-anchor="start" x="213.5" y="-286.3" font-family="Helvetica,sans-Serif" font-size="11.00" fill="#000000">maximum_capacity</text>
<polygon fill="none" stroke="#000000" points="570.5,-279.2 570.5,-301.2 664.5,-301.2 664.5,-279.2 570.5,-279.2"/>
<text text-anchor="start" x="573.5" y="-286.9" font-family="Helvetica,sans-Serif" font-size="11.00" fill="#000000">int4[10]</text>
<polygon fill="none" stroke="#000000" points="193.5,-257.2 193.5,-279.2 570.5,-279.2 570.5,-257.2 193.5,-257.2"/>
<text text-anchor="start" x="213.5" y="-264.3" font-family="Helvetica,sans-Serif" font-size="11.00" fill="#000000">allow_auto_allocation</text>
<polygon fill="none" stroke="#000000" points="570.5,-257.2 570.5,-279.2 664.5,-279.2 664.5,-257.2 570.5,-257.2"/>
<text text-anchor="start" x="573.5" y="-264.9" font-family="Helvetica,sans-Serif" font-size="11.00" fill="#000000">bool[1]</text>
<polygon fill="none" stroke="#000000" points="193.5,-235.2 193.5,-257.2 570.5,-257.2 570.5,-235.2 193.5,-235.2"/>
<text text-anchor="start" x="213.5" y="-242.3" font-family="Helvetica,sans-Serif" font-size="11.00" fill="#000000">frequency_in_weeks</text>
<polygon fill="none" stroke="#000000" points="570.5,-235.2 570.5,-257.2 664.5,-257.2 664.5,-235.2 570.5,-235.2"/>
<text text-anchor="start" x="573.5" y="-242.9" font-family="Helvetica,sans-Serif" font-size="11.00" fill="#000000">int4[10]</text>
<polygon fill="none" stroke="#000000" points="193.5,-213.2 193.5,-235.2 570.5,-235.2 570.5,-213.2 193.5,-213.2"/>
<text text-anchor="start" x="213.5" y="-220.3" font-family="Helvetica,sans-Serif" font-size="11.00" fill="#000000">has_prisoners_with_high_complexity_needs</text>
<polygon fill="none" stroke="#000000" points="570.5,-213.2 570.5,-235.2 664.5,-235.2 664.5,-213.2 570.5,-213.2"/>
<text text-anchor="start" x="573.5" y="-220.9" font-family="Helvetica,sans-Serif" font-size="11.00" fill="#000000">bool[1]</text>
<polygon fill="none" stroke="#000000" points="193.5,-191.2 193.5,-213.2 570.5,-213.2 570.5,-191.2 193.5,-191.2"/>
<image xlink:href="../../images/foreignKeys.png" width="11px" height="12px" preserveAspectRatio="xMinYMin meet" x="198.5" y="-208.2"/>
<text text-anchor="start" x="213.5" y="-198.3" font-family="Helvetica,sans-Serif" font-size="11.00" fill="#000000">policy_code</text>
<polygon fill="none" stroke="#000000" points="570.5,-191.2 570.5,-213.2 664.5,-213.2 664.5,-191.2 570.5,-191.2"/>
<text text-anchor="start" x="573.5" y="-198.9" font-family="Helvetica,sans-Serif" font-size="11.00" fill="#000000">varchar[16]</text>
<polygon fill="none" stroke="#000000" points="193.5,-169.2 193.5,-191.2 570.5,-191.2 570.5,-169.2 193.5,-169.2"/>
<text text-anchor="start" x="213.5" y="-176.3" font-family="Helvetica,sans-Serif" font-size="11.00" fill="#000000">is_enabled_modified</text>
<polygon fill="none" stroke="#000000" points="570.5,-169.2 570.5,-191.2 664.5,-191.2 664.5,-169.2 570.5,-169.2"/>
<text text-anchor="start" x="573.5" y="-176.9" font-family="Helvetica,sans-Serif" font-size="11.00" fill="#000000">bool[1]</text>
<polygon fill="none" stroke="#000000" points="193.5,-147.2 193.5,-169.2 570.5,-169.2 570.5,-147.2 193.5,-147.2"/>
<text text-anchor="start" x="213.5" y="-154.3" font-family="Helvetica,sans-Serif" font-size="11.00" fill="#000000">capacity_modified</text>
<polygon fill="none" stroke="#000000" points="570.5,-147.2 570.5,-169.2 664.5,-169.2 664.5,-147.2 570.5,-147.2"/>
<text text-anchor="start" x="573.5" y="-154.9" font-family="Helvetica,sans-Serif" font-size="11.00" fill="#000000">bool[1]</text>
<polygon fill="none" stroke="#000000" points="193.5,-125.2 193.5,-147.2 570.5,-147.2 570.5,-125.2 193.5,-125.2"/>
<text text-anchor="start" x="213.5" y="-132.3" font-family="Helvetica,sans-Serif" font-size="11.00" fill="#000000">maximum_capacity_modified</text>
<polygon fill="none" stroke="#000000" points="570.5,-125.2 570.5,-147.2 664.5,-147.2 664.5,-125.2 570.5,-125.2"/>
<text text-anchor="start" x="573.5" y="-132.9" font-family="Helvetica,sans-Serif" font-size="11.00" fill="#000000">bool[1]</text>
<polygon fill="none" stroke="#000000" points="193.5,-103.2 193.5,-125.2 570.5,-125.2 570.5,-103.2 193.5,-103.2"/>
<text text-anchor="start" x="213.5" y="-110.3" font-family="Helvetica,sans-Serif" font-size="11.00" fill="#000000">allow_auto_allocation_modified</text>
<polygon fill="none" stroke="#000000" points="570.5,-103.2 570.5,-125.2 664.5,-125.2 664.5,-103.2 570.5,-103.2"/>
<text text-anchor="start" x="573.5" y="-110.9" font-family="Helvetica,sans-Serif" font-size="11.00" fill="#000000">bool[1]</text>
<polygon fill="none" stroke="#000000" points="193.5,-81.2 193.5,-103.2 570.5,-103.2 570.5,-81.2 193.5,-81.2"/>
<text text-anchor="start" x="213.5" y="-88.3" font-family="Helvetica,sans-Serif" font-size="11.00" fill="#000000">frequency_in_weeks_modified</text>
<polygon fill="none" stroke="#000000" points="570.5,-81.2 570.5,-103.2 664.5,-103.2 664.5,-81.2 570.5,-81.2"/>
<text text-anchor="start" x="573.5" y="-88.9" font-family="Helvetica,sans-Serif" font-size="11.00" fill="#000000">bool[1]</text>
<polygon fill="none" stroke="#000000" points="193.5,-59.2 193.5,-81.2 570.5,-81.2 570.5,-59.2 193.5,-59.2"/>
<text text-anchor="start" x="213.5" y="-66.3" font-family="Helvetica,sans-Serif" font-size="11.00" fill="#000000">has_prisoners_with_high_complexity_needs_modified</text>
<polygon fill="none" stroke="#000000" points="570.5,-59.2 570.5,-81.2 664.5,-81.2 664.5,-59.2 570.5,-59.2"/>
<text text-anchor="start" x="573.5" y="-66.9" font-family="Helvetica,sans-Serif" font-size="11.00" fill="#000000">bool[1]</text>
<polygon fill="#ffffff" stroke="transparent" points="193.5,-40.2 193.5,-59.2 386.5,-59.2 386.5,-40.2 193.5,-40.2"/>
<polygon fill="none" stroke="#000000" points="193.5,-40.2 193.5,-59.2 386.5,-59.2 386.5,-40.2 193.5,-40.2"/>
<text text-anchor="start" x="196.5" y="-46.3" font-family="Helvetica,sans-Serif" font-size="11.00" fill="#000000">&lt; 1</text>
<polygon fill="#ffffff" stroke="transparent" points="386.5,-40.2 386.5,-59.2 570.5,-59.2 570.5,-40.2 386.5,-40.2"/>
<polygon fill="none" stroke="#000000" points="386.5,-40.2 386.5,-59.2 570.5,-59.2 570.5,-40.2 386.5,-40.2"/>
<text text-anchor="start" x="561.3862" y="-46.3" font-family="Helvetica,sans-Serif" font-size="11.00" fill="#000000"> &#160;</text>
<polygon fill="#ffffff" stroke="transparent" points="570.5,-40.2 570.5,-59.2 664.5,-59.2 664.5,-40.2 570.5,-40.2"/>
<polygon fill="none" stroke="#000000" points="570.5,-40.2 570.5,-59.2 664.5,-59.2 664.5,-40.2 570.5,-40.2"/>
<text text-anchor="start" x="645.9053" y="-46.3" font-family="Helvetica,sans-Serif" font-size="11.00" fill="#000000">0 &gt;</text>
<polygon fill="none" stroke="#000000" stroke-width="2" points="192,-39.2 192,-457.2 665,-457.2 665,-39.2 192,-39.2"/>
</a>
</g>
</g>
<!-- prison_configuration_audit&#45;&gt;audit_revision -->
<g id="edge2" class="edge">
<title>prison_configuration_audit:w&#45;&gt;audit_revision:e</title>
<path fill="none" stroke="#000000" d="M179.4729,-426.6947C165.5092,-437.5296 165.5361,-464.2 142,-464.2"/>
<polygon fill="#000000" stroke="#000000" points="185.8816,-424.6412 194.5986,-425.6283 189.6908,-423.4206 193.5,-422.2 193.5,-422.2 193.5,-422.2 189.6908,-423.4206 192.4014,-418.7717 185.8816,-424.6412 185.8816,-424.6412"/>
<ellipse fill="none" stroke="#000000" cx="182.8342" cy="-425.6177" rx="3.2" ry="3.2"/>
</g>
</g>
</svg>
