<?xml version="1.0" encoding="UTF-8" standalone="no"?>
<!DOCTYPE svg PUBLIC "-//W3C//DTD SVG 1.1//EN"
 "http://www.w3.org/Graphics/SVG/1.1/DTD/svg11.dtd">
<!-- Generated by graphviz version 2.40.1 (20161225.0304)
 -->
<!-- Title: oneDegreeRelationshipsDiagramImplied Pages: 1 -->
<svg width="763pt" height="1521pt"
 viewBox="0.00 0.00 763.00 1521.20" xmlns="http://www.w3.org/2000/svg" xmlns:xlink="http://www.w3.org/1999/xlink">
<g id="graph0" class="graph" transform="scale(1 1) rotate(0) translate(4 1517.2)">
<title>oneDegreeRelationshipsDiagramImplied</title>
<polygon fill="#ffffff" stroke="transparent" points="-4,4 -4,-1517.2 759,-1517.2 759,4 -4,4"/>
<text text-anchor="middle" x="72.4936" y="-7.3" font-family="Helvetica,sans-Serif" font-size="11.00" fill="#000000">Generated by SchemaSpy</text>
<!-- allocation -->
<g id="node1" class="node">
<title>allocation</title>
<g id="a_node1"><a xlink:href="../../tables/allocation.html" xlink:title="allocation" target="_top">
<polygon fill="#ffffff" stroke="transparent" points="471.5,-1250.2 471.5,-1509.2 645.5,-1509.2 645.5,-1250.2 471.5,-1250.2"/>
<polygon fill="#f5f5f5" stroke="transparent" points="471.5,-1485.7 471.5,-1508.7 645.5,-1508.7 645.5,-1485.7 471.5,-1485.7"/>
<polygon fill="none" stroke="#000000" points="471.5,-1485.7 471.5,-1508.7 645.5,-1508.7 645.5,-1485.7 471.5,-1485.7"/>
<text text-anchor="start" x="476.5" y="-1494.3" font-family="Helvetica,sans-Serif" font-weight="bold" font-size="11.00" fill="#000000">allocation</text>
<text text-anchor="start" x="610.5437" y="-1493.8" font-family="Helvetica,sans-Serif" font-size="11.00" fill="#000000">[table]</text>
<polygon fill="none" stroke="#000000" points="471.5,-1463.7 471.5,-1485.7 645.5,-1485.7 645.5,-1463.7 471.5,-1463.7"/>
<image xlink:href="../../images/primaryKeys.png" width="11px" height="12px" preserveAspectRatio="xMinYMin meet" x="476.5" y="-1480.7"/>
<text text-anchor="start" x="491.5" y="-1470.8" font-family="Helvetica,sans-Serif" font-size="11.00" fill="#000000">id</text>
<polygon fill="none" stroke="#000000" points="471.5,-1441.7 471.5,-1463.7 645.5,-1463.7 645.5,-1441.7 471.5,-1441.7"/>
<image xlink:href="../../images/foreignKeys.png" width="11px" height="12px" preserveAspectRatio="xMinYMin meet" x="476.5" y="-1458.7"/>
<text text-anchor="start" x="491.5" y="-1448.8" font-family="Helvetica,sans-Serif" font-size="11.00" fill="#000000">prison_code</text>
<polygon fill="#ffffff" stroke="transparent" points="471.5,-1419.7 471.5,-1441.7 645.5,-1441.7 645.5,-1419.7 471.5,-1419.7"/>
<polygon fill="none" stroke="#000000" points="471.5,-1419.7 471.5,-1441.7 645.5,-1441.7 645.5,-1419.7 471.5,-1419.7"/>
<text text-anchor="start" x="491.5" y="-1426.8" font-family="Helvetica,sans-Serif" font-size="11.00" fill="#000000">staff_id</text>
<polygon fill="#ffffff" stroke="transparent" points="471.5,-1397.7 471.5,-1419.7 645.5,-1419.7 645.5,-1397.7 471.5,-1397.7"/>
<polygon fill="none" stroke="#000000" points="471.5,-1397.7 471.5,-1419.7 645.5,-1419.7 645.5,-1397.7 471.5,-1397.7"/>
<text text-anchor="start" x="491.5" y="-1404.8" font-family="Helvetica,sans-Serif" font-size="11.00" fill="#000000">person_identifier</text>
<polygon fill="#ffffff" stroke="transparent" points="471.5,-1375.7 471.5,-1397.7 645.5,-1397.7 645.5,-1375.7 471.5,-1375.7"/>
<polygon fill="none" stroke="#000000" points="471.5,-1375.7 471.5,-1397.7 645.5,-1397.7 645.5,-1375.7 471.5,-1375.7"/>
<text text-anchor="start" x="491.5" y="-1382.8" font-family="Helvetica,sans-Serif" font-size="11.00" fill="#000000">allocated_at</text>
<polygon fill="none" stroke="#000000" points="471.5,-1353.7 471.5,-1375.7 645.5,-1375.7 645.5,-1353.7 471.5,-1353.7"/>
<image xlink:href="../../images/foreignKeys.png" width="11px" height="12px" preserveAspectRatio="xMinYMin meet" x="476.5" y="-1370.7"/>
<text text-anchor="start" x="491.5" y="-1360.8" font-family="Helvetica,sans-Serif" font-size="11.00" fill="#000000">allocation_reason_id</text>
<polygon fill="none" stroke="#000000" points="471.5,-1331.7 471.5,-1353.7 645.5,-1353.7 645.5,-1331.7 471.5,-1331.7"/>
<image xlink:href="../../images/foreignKeys.png" width="11px" height="12px" preserveAspectRatio="xMinYMin meet" x="476.5" y="-1348.7"/>
<text text-anchor="start" x="491.5" y="-1338.8" font-family="Helvetica,sans-Serif" font-size="11.00" fill="#000000">deallocation_reason_id</text>
<polygon fill="#ffffff" stroke="transparent" points="471.5,-1309.7 471.5,-1331.7 645.5,-1331.7 645.5,-1309.7 471.5,-1309.7"/>
<polygon fill="none" stroke="#000000" points="471.5,-1309.7 471.5,-1331.7 645.5,-1331.7 645.5,-1309.7 471.5,-1309.7"/>
<image xlink:href="../../images/foreignKeys.png" width="11px" height="12px" preserveAspectRatio="xMinYMin meet" x="476.5" y="-1326.7"/>
<text text-anchor="start" x="491.5" y="-1316.8" font-family="Helvetica,sans-Serif" font-size="11.00" fill="#000000">policy_code</text>
<polygon fill="#ffffff" stroke="transparent" points="471.5,-1287.7 471.5,-1309.7 645.5,-1309.7 645.5,-1287.7 471.5,-1287.7"/>
<polygon fill="none" stroke="#000000" points="471.5,-1287.7 471.5,-1309.7 645.5,-1309.7 645.5,-1287.7 471.5,-1287.7"/>
<text text-anchor="start" x="491.5" y="-1294.8" font-family="Helvetica,sans-Serif" font-size="11.00" fill="#000000">legacy_id</text>
<polygon fill="none" stroke="#000000" points="471.5,-1268.7 471.5,-1287.7 645.5,-1287.7 645.5,-1268.7 471.5,-1268.7"/>
<text text-anchor="start" x="474.5" y="-1274.8" font-family="Helvetica,sans-Serif" font-size="11.00" fill="#000000">...</text>
<polygon fill="#ffffff" stroke="transparent" points="471.5,-1249.7 471.5,-1268.7 556.5,-1268.7 556.5,-1249.7 471.5,-1249.7"/>
<polygon fill="none" stroke="#000000" points="471.5,-1249.7 471.5,-1268.7 556.5,-1268.7 556.5,-1249.7 471.5,-1249.7"/>
<text text-anchor="start" x="474.5" y="-1255.8" font-family="Helvetica,sans-Serif" font-size="11.00" fill="#000000">&lt; 4</text>
<polygon fill="#ffffff" stroke="transparent" points="556.5,-1249.7 556.5,-1268.7 600.5,-1268.7 600.5,-1249.7 556.5,-1249.7"/>
<polygon fill="none" stroke="#000000" points="556.5,-1249.7 556.5,-1268.7 600.5,-1268.7 600.5,-1249.7 556.5,-1249.7"/>
<text text-anchor="start" x="591.3862" y="-1255.8" font-family="Helvetica,sans-Serif" font-size="11.00" fill="#000000"> &#160;</text>
<polygon fill="#ffffff" stroke="transparent" points="600.5,-1249.7 600.5,-1268.7 645.5,-1268.7 645.5,-1249.7 600.5,-1249.7"/>
<polygon fill="none" stroke="#000000" points="600.5,-1249.7 600.5,-1268.7 645.5,-1268.7 645.5,-1249.7 600.5,-1249.7"/>
<text text-anchor="start" x="636.3862" y="-1255.8" font-family="Helvetica,sans-Serif" font-size="11.00" fill="#000000"> &#160;</text>
</a>
</g>
</g>
<!-- prison_migration_date_history -->
<g id="node2" class="node">
<title>prison_migration_date_history</title>
<g id="a_node2"><a xlink:href="../../tables/prison_migration_date_history.html" xlink:title="prison_migration_date_history" target="_top">
<polygon fill="#ffffff" stroke="transparent" points="8,-638.7 8,-728.7 321,-728.7 321,-638.7 8,-638.7"/>
<polygon fill="#f5f5f5" stroke="transparent" points="10.5,-703.7 10.5,-726.7 319.5,-726.7 319.5,-703.7 10.5,-703.7"/>
<polygon fill="none" stroke="#000000" points="10.5,-703.7 10.5,-726.7 319.5,-726.7 319.5,-703.7 10.5,-703.7"/>
<text text-anchor="start" x="15.5" y="-712.3" font-family="Helvetica,sans-Serif" font-weight="bold" font-size="11.00" fill="#000000">prison_migration_date_history</text>
<text text-anchor="start" x="284.5437" y="-711.8" font-family="Helvetica,sans-Serif" font-size="11.00" fill="#000000">[table]</text>
<polygon fill="none" stroke="#000000" points="10.5,-681.7 10.5,-703.7 235.5,-703.7 235.5,-681.7 10.5,-681.7"/>
<image xlink:href="../../images/primaryKeys.png" width="11px" height="12px" preserveAspectRatio="xMinYMin meet" x="15.5" y="-698.7"/>
<text text-anchor="start" x="30.5" y="-688.8" font-family="Helvetica,sans-Serif" font-size="11.00" fill="#000000">prison_code</text>
<polygon fill="none" stroke="#000000" points="235.5,-681.7 235.5,-703.7 319.5,-703.7 319.5,-681.7 235.5,-681.7"/>
<text text-anchor="start" x="238.5" y="-689.4" font-family="Helvetica,sans-Serif" font-size="11.00" fill="#000000">varchar[6]</text>
<polygon fill="none" stroke="#000000" points="10.5,-659.7 10.5,-681.7 235.5,-681.7 235.5,-659.7 10.5,-659.7"/>
<text text-anchor="start" x="30.5" y="-666.8" font-family="Helvetica,sans-Serif" font-size="11.00" fill="#000000">migration_date</text>
<polygon fill="none" stroke="#000000" points="235.5,-659.7 235.5,-681.7 319.5,-681.7 319.5,-659.7 235.5,-659.7"/>
<text text-anchor="start" x="238.3807" y="-667.4" font-family="Helvetica,sans-Serif" font-size="11.00" fill="#000000">timestamp[29,6]</text>
<polygon fill="#ffffff" stroke="transparent" points="10.5,-640.7 10.5,-659.7 127.5,-659.7 127.5,-640.7 10.5,-640.7"/>
<polygon fill="none" stroke="#000000" points="10.5,-640.7 10.5,-659.7 127.5,-659.7 127.5,-640.7 10.5,-640.7"/>
<text text-anchor="start" x="13.5" y="-646.8" font-family="Helvetica,sans-Serif" font-size="11.00" fill="#000000">&lt; 0</text>
<polygon fill="#ffffff" stroke="transparent" points="127.5,-640.7 127.5,-659.7 235.5,-659.7 235.5,-640.7 127.5,-640.7"/>
<polygon fill="none" stroke="#000000" points="127.5,-640.7 127.5,-659.7 235.5,-659.7 235.5,-640.7 127.5,-640.7"/>
<text text-anchor="start" x="226.3862" y="-646.8" font-family="Helvetica,sans-Serif" font-size="11.00" fill="#000000"> &#160;</text>
<polygon fill="#ffffff" stroke="transparent" points="235.5,-640.7 235.5,-659.7 319.5,-659.7 319.5,-640.7 235.5,-640.7"/>
<polygon fill="none" stroke="#000000" points="235.5,-640.7 235.5,-659.7 319.5,-659.7 319.5,-640.7 235.5,-640.7"/>
<text text-anchor="start" x="300.9053" y="-646.8" font-family="Helvetica,sans-Serif" font-size="11.00" fill="#000000">8 &gt;</text>
<polygon fill="none" stroke="#000000" stroke-width="2" points="9,-639.7 9,-727.7 320,-727.7 320,-639.7 9,-639.7"/>
</a>
</g>
</g>
<!-- allocation&#45;&gt;prison_migration_date_history -->
<g id="edge1" class="edge">
<title>allocation:w&#45;&gt;prison_migration_date_history:e</title>
<path fill="none" stroke="#000000" stroke-dasharray="5,2" d="M457.1086,-1451.9533C367.416,-1442.1349 389.6379,-1337.2088 362,-1239.7 345.3761,-1181.0495 380.461,-692.7 319.5,-692.7"/>
<polygon fill="#000000" stroke="#000000" points="463.5107,-1452.2854 471.3134,-1456.2952 467.5054,-1452.4927 471.5,-1452.7 471.5,-1452.7 471.5,-1452.7 467.5054,-1452.4927 471.6866,-1449.1048 463.5107,-1452.2854 463.5107,-1452.2854"/>
<ellipse fill="none" stroke="#000000" cx="460.315" cy="-1452.1196" rx="3.2" ry="3.2"/>
</g>
<!-- allocation_audit -->
<g id="node3" class="node">
<title>allocation_audit</title>
<g id="a_node3"><a xlink:href="../../tables/allocation_audit.html" xlink:title="allocation_audit" target="_top">
<polygon fill="#ffffff" stroke="transparent" points="448,-1080.2 448,-1229.2 669,-1229.2 669,-1080.2 448,-1080.2"/>
<polygon fill="#f5f5f5" stroke="transparent" points="448.5,-1205.7 448.5,-1228.7 669.5,-1228.7 669.5,-1205.7 448.5,-1205.7"/>
<polygon fill="none" stroke="#000000" points="448.5,-1205.7 448.5,-1228.7 669.5,-1228.7 669.5,-1205.7 448.5,-1205.7"/>
<text text-anchor="start" x="453.5" y="-1214.3" font-family="Helvetica,sans-Serif" font-weight="bold" font-size="11.00" fill="#000000">allocation_audit</text>
<text text-anchor="start" x="634.5437" y="-1213.8" font-family="Helvetica,sans-Serif" font-size="11.00" fill="#000000">[table]</text>
<polygon fill="none" stroke="#000000" points="448.5,-1183.7 448.5,-1205.7 669.5,-1205.7 669.5,-1183.7 448.5,-1183.7"/>
<image xlink:href="../../images/primaryKeys.png" width="11px" height="12px" preserveAspectRatio="xMinYMin meet" x="453.5" y="-1200.7"/>
<text text-anchor="start" x="468.5" y="-1190.8" font-family="Helvetica,sans-Serif" font-size="11.00" fill="#000000">rev_id</text>
<polygon fill="none" stroke="#000000" points="448.5,-1161.7 448.5,-1183.7 669.5,-1183.7 669.5,-1161.7 448.5,-1161.7"/>
<image xlink:href="../../images/primaryKeys.png" width="11px" height="12px" preserveAspectRatio="xMinYMin meet" x="453.5" y="-1178.7"/>
<text text-anchor="start" x="468.5" y="-1168.8" font-family="Helvetica,sans-Serif" font-size="11.00" fill="#000000">id</text>
<polygon fill="none" stroke="#000000" points="448.5,-1139.7 448.5,-1161.7 669.5,-1161.7 669.5,-1139.7 448.5,-1139.7"/>
<image xlink:href="../../images/foreignKeys.png" width="11px" height="12px" preserveAspectRatio="xMinYMin meet" x="453.5" y="-1156.7"/>
<text text-anchor="start" x="468.5" y="-1146.8" font-family="Helvetica,sans-Serif" font-size="11.00" fill="#000000">prison_code</text>
<polygon fill="none" stroke="#000000" points="448.5,-1117.7 448.5,-1139.7 669.5,-1139.7 669.5,-1117.7 448.5,-1117.7"/>
<image xlink:href="../../images/foreignKeys.png" width="11px" height="12px" preserveAspectRatio="xMinYMin meet" x="453.5" y="-1134.7"/>
<text text-anchor="start" x="468.5" y="-1124.8" font-family="Helvetica,sans-Serif" font-size="11.00" fill="#000000">policy_code</text>
<polygon fill="none" stroke="#000000" points="448.5,-1098.7 448.5,-1117.7 669.5,-1117.7 669.5,-1098.7 448.5,-1098.7"/>
<text text-anchor="start" x="451.5" y="-1104.8" font-family="Helvetica,sans-Serif" font-size="11.00" fill="#000000">...</text>
<polygon fill="#ffffff" stroke="transparent" points="448.5,-1079.7 448.5,-1098.7 557.5,-1098.7 557.5,-1079.7 448.5,-1079.7"/>
<polygon fill="none" stroke="#000000" points="448.5,-1079.7 448.5,-1098.7 557.5,-1098.7 557.5,-1079.7 448.5,-1079.7"/>
<text text-anchor="start" x="451.5" y="-1085.8" font-family="Helvetica,sans-Serif" font-size="11.00" fill="#000000">&lt; 3</text>
<polygon fill="#ffffff" stroke="transparent" points="557.5,-1079.7 557.5,-1098.7 613.5,-1098.7 613.5,-1079.7 557.5,-1079.7"/>
<polygon fill="none" stroke="#000000" points="557.5,-1079.7 557.5,-1098.7 613.5,-1098.7 613.5,-1079.7 557.5,-1079.7"/>
<text text-anchor="start" x="604.3862" y="-1085.8" font-family="Helvetica,sans-Serif" font-size="11.00" fill="#000000"> &#160;</text>
<polygon fill="#ffffff" stroke="transparent" points="613.5,-1079.7 613.5,-1098.7 669.5,-1098.7 669.5,-1079.7 613.5,-1079.7"/>
<polygon fill="none" stroke="#000000" points="613.5,-1079.7 613.5,-1098.7 669.5,-1098.7 669.5,-1079.7 613.5,-1079.7"/>
<text text-anchor="start" x="660.3862" y="-1085.8" font-family="Helvetica,sans-Serif" font-size="11.00" fill="#000000"> &#160;</text>
</a>
</g>
</g>
<!-- allocation_audit&#45;&gt;prison_migration_date_history -->
<g id="edge2" class="edge">
<title>allocation_audit:w&#45;&gt;prison_migration_date_history:e</title>
<path fill="none" stroke="#000000" stroke-dasharray="5,2" d="M433.97,-1149.7106C393.6657,-1143.8102 383.2754,-1112.0819 362,-1069.7 324.1761,-994.3524 403.8084,-692.7 319.5,-692.7"/>
<polygon fill="#000000" stroke="#000000" points="440.5185,-1150.1565 448.2554,-1154.2917 444.5092,-1150.4282 448.5,-1150.7 448.5,-1150.7 448.5,-1150.7 444.5092,-1150.4282 448.7446,-1147.1083 440.5185,-1150.1565 440.5185,-1150.1565"/>
<ellipse fill="none" stroke="#000000" cx="437.3259" cy="-1149.939" rx="3.2" ry="3.2"/>
</g>
<!-- keyworker_entry -->
<g id="node4" class="node">
<title>keyworker_entry</title>
<g id="a_node4"><a xlink:href="../../tables/keyworker_entry.html" xlink:title="keyworker_entry" target="_top">
<polygon fill="#ffffff" stroke="transparent" points="482.5,-888.2 482.5,-1059.2 634.5,-1059.2 634.5,-888.2 482.5,-888.2"/>
<polygon fill="#f5f5f5" stroke="transparent" points="482.5,-1035.7 482.5,-1058.7 634.5,-1058.7 634.5,-1035.7 482.5,-1035.7"/>
<polygon fill="none" stroke="#000000" points="482.5,-1035.7 482.5,-1058.7 634.5,-1058.7 634.5,-1035.7 482.5,-1035.7"/>
<text text-anchor="start" x="487.5" y="-1044.3" font-family="Helvetica,sans-Serif" font-weight="bold" font-size="11.00" fill="#000000">keyworker_entry</text>
<text text-anchor="start" x="600.0219" y="-1043.8" font-family="Helvetica,sans-Serif" font-size="11.00" fill="#000000">[table]</text>
<polygon fill="none" stroke="#000000" points="482.5,-1013.7 482.5,-1035.7 634.5,-1035.7 634.5,-1013.7 482.5,-1013.7"/>
<image xlink:href="../../images/primaryKeys.png" width="11px" height="12px" preserveAspectRatio="xMinYMin meet" x="487.5" y="-1030.7"/>
<text text-anchor="start" x="506.5" y="-1020.8" font-family="Helvetica,sans-Serif" font-size="11.00" fill="#000000">id</text>
<polygon fill="#ffffff" stroke="transparent" points="482.5,-991.7 482.5,-1013.7 634.5,-1013.7 634.5,-991.7 482.5,-991.7"/>
<polygon fill="none" stroke="#000000" points="482.5,-991.7 482.5,-1013.7 634.5,-1013.7 634.5,-991.7 482.5,-991.7"/>
<text text-anchor="start" x="506.5" y="-998.8" font-family="Helvetica,sans-Serif" font-size="11.00" fill="#000000">occurred_at</text>
<polygon fill="#ffffff" stroke="transparent" points="482.5,-969.7 482.5,-991.7 634.5,-991.7 634.5,-969.7 482.5,-969.7"/>
<polygon fill="none" stroke="#000000" points="482.5,-969.7 482.5,-991.7 634.5,-991.7 634.5,-969.7 482.5,-969.7"/>
<text text-anchor="start" x="506.5" y="-976.8" font-family="Helvetica,sans-Serif" font-size="11.00" fill="#000000">person_identifier</text>
<polygon fill="#ffffff" stroke="transparent" points="482.5,-947.7 482.5,-969.7 634.5,-969.7 634.5,-947.7 482.5,-947.7"/>
<polygon fill="none" stroke="#000000" points="482.5,-947.7 482.5,-969.7 634.5,-969.7 634.5,-947.7 482.5,-947.7"/>
<text text-anchor="start" x="506.5" y="-954.8" font-family="Helvetica,sans-Serif" font-size="11.00" fill="#000000">staff_id</text>
<polygon fill="#ffffff" stroke="transparent" points="482.5,-925.7 482.5,-947.7 634.5,-947.7 634.5,-925.7 482.5,-925.7"/>
<polygon fill="none" stroke="#000000" points="482.5,-925.7 482.5,-947.7 634.5,-947.7 634.5,-925.7 482.5,-925.7"/>
<image xlink:href="../../images/foreignKeys.png" width="11px" height="12px" preserveAspectRatio="xMinYMin meet" x="487.5" y="-942.7"/>
<text text-anchor="start" x="506.5" y="-932.8" font-family="Helvetica,sans-Serif" font-size="11.00" fill="#000000">prison_code</text>
<polygon fill="none" stroke="#000000" points="482.5,-906.7 482.5,-925.7 634.5,-925.7 634.5,-906.7 482.5,-906.7"/>
<text text-anchor="start" x="485.5" y="-912.8" font-family="Helvetica,sans-Serif" font-size="11.00" fill="#000000">...</text>
<polygon fill="#ffffff" stroke="transparent" points="482.5,-887.7 482.5,-906.7 556.5,-906.7 556.5,-887.7 482.5,-887.7"/>
<polygon fill="none" stroke="#000000" points="482.5,-887.7 482.5,-906.7 556.5,-906.7 556.5,-887.7 482.5,-887.7"/>
<text text-anchor="start" x="485.5" y="-893.8" font-family="Helvetica,sans-Serif" font-size="11.00" fill="#000000">&lt; 1</text>
<polygon fill="#ffffff" stroke="transparent" points="556.5,-887.7 556.5,-906.7 595.5,-906.7 595.5,-887.7 556.5,-887.7"/>
<polygon fill="none" stroke="#000000" points="556.5,-887.7 556.5,-906.7 595.5,-906.7 595.5,-887.7 556.5,-887.7"/>
<text text-anchor="start" x="586.3862" y="-893.8" font-family="Helvetica,sans-Serif" font-size="11.00" fill="#000000"> &#160;</text>
<polygon fill="#ffffff" stroke="transparent" points="595.5,-887.7 595.5,-906.7 634.5,-906.7 634.5,-887.7 595.5,-887.7"/>
<polygon fill="none" stroke="#000000" points="595.5,-887.7 595.5,-906.7 634.5,-906.7 634.5,-887.7 595.5,-887.7"/>
<text text-anchor="start" x="625.3862" y="-893.8" font-family="Helvetica,sans-Serif" font-size="11.00" fill="#000000"> &#160;</text>
</a>
</g>
</g>
<!-- keyworker_entry&#45;&gt;prison_migration_date_history -->
<g id="edge3" class="edge">
<title>keyworker_entry:w&#45;&gt;prison_migration_date_history:e</title>
<path fill="none" stroke="#000000" stroke-dasharray="5,2" d="M467.889,-936.4138C418.6793,-934.3344 395.8751,-920.4011 362,-877.7 309.5684,-811.6076 403.864,-692.7 319.5,-692.7"/>
<polygon fill="#000000" stroke="#000000" points="474.5015,-936.5433 482.4295,-940.2993 478.5008,-936.6216 482.5,-936.7 482.5,-936.7 482.5,-936.7 478.5008,-936.6216 482.5705,-933.1007 474.5015,-936.5433 474.5015,-936.5433"/>
<ellipse fill="none" stroke="#000000" cx="471.3021" cy="-936.4806" rx="3.2" ry="3.2"/>
</g>
<!-- keyworker_session -->
<g id="node5" class="node">
<title>keyworker_session</title>
<g id="a_node5"><a xlink:href="../../tables/keyworker_session.html" xlink:title="keyworker_session" target="_top">
<polygon fill="#ffffff" stroke="transparent" points="475.5,-696.2 475.5,-867.2 641.5,-867.2 641.5,-696.2 475.5,-696.2"/>
<polygon fill="#f5f5f5" stroke="transparent" points="475.5,-843.7 475.5,-866.7 641.5,-866.7 641.5,-843.7 475.5,-843.7"/>
<polygon fill="none" stroke="#000000" points="475.5,-843.7 475.5,-866.7 641.5,-866.7 641.5,-843.7 475.5,-843.7"/>
<text text-anchor="start" x="480.5" y="-852.3" font-family="Helvetica,sans-Serif" font-weight="bold" font-size="11.00" fill="#000000">keyworker_session</text>
<text text-anchor="start" x="607.0219" y="-851.8" font-family="Helvetica,sans-Serif" font-size="11.00" fill="#000000">[table]</text>
<polygon fill="none" stroke="#000000" points="475.5,-821.7 475.5,-843.7 641.5,-843.7 641.5,-821.7 475.5,-821.7"/>
<image xlink:href="../../images/primaryKeys.png" width="11px" height="12px" preserveAspectRatio="xMinYMin meet" x="480.5" y="-838.7"/>
<text text-anchor="start" x="504.5" y="-828.8" font-family="Helvetica,sans-Serif" font-size="11.00" fill="#000000">id</text>
<polygon fill="#ffffff" stroke="transparent" points="475.5,-799.7 475.5,-821.7 641.5,-821.7 641.5,-799.7 475.5,-799.7"/>
<polygon fill="none" stroke="#000000" points="475.5,-799.7 475.5,-821.7 641.5,-821.7 641.5,-799.7 475.5,-799.7"/>
<text text-anchor="start" x="504.5" y="-806.8" font-family="Helvetica,sans-Serif" font-size="11.00" fill="#000000">occurred_at</text>
<polygon fill="#ffffff" stroke="transparent" points="475.5,-777.7 475.5,-799.7 641.5,-799.7 641.5,-777.7 475.5,-777.7"/>
<polygon fill="none" stroke="#000000" points="475.5,-777.7 475.5,-799.7 641.5,-799.7 641.5,-777.7 475.5,-777.7"/>
<text text-anchor="start" x="504.5" y="-784.8" font-family="Helvetica,sans-Serif" font-size="11.00" fill="#000000">person_identifier</text>
<polygon fill="#ffffff" stroke="transparent" points="475.5,-755.7 475.5,-777.7 641.5,-777.7 641.5,-755.7 475.5,-755.7"/>
<polygon fill="none" stroke="#000000" points="475.5,-755.7 475.5,-777.7 641.5,-777.7 641.5,-755.7 475.5,-755.7"/>
<text text-anchor="start" x="504.5" y="-762.8" font-family="Helvetica,sans-Serif" font-size="11.00" fill="#000000">staff_id</text>
<polygon fill="#ffffff" stroke="transparent" points="475.5,-733.7 475.5,-755.7 641.5,-755.7 641.5,-733.7 475.5,-733.7"/>
<polygon fill="none" stroke="#000000" points="475.5,-733.7 475.5,-755.7 641.5,-755.7 641.5,-733.7 475.5,-733.7"/>
<image xlink:href="../../images/foreignKeys.png" width="11px" height="12px" preserveAspectRatio="xMinYMin meet" x="480.5" y="-750.7"/>
<text text-anchor="start" x="504.5" y="-740.8" font-family="Helvetica,sans-Serif" font-size="11.00" fill="#000000">prison_code</text>
<polygon fill="none" stroke="#000000" points="475.5,-714.7 475.5,-733.7 641.5,-733.7 641.5,-714.7 475.5,-714.7"/>
<text text-anchor="start" x="478.5" y="-720.8" font-family="Helvetica,sans-Serif" font-size="11.00" fill="#000000">...</text>
<polygon fill="#ffffff" stroke="transparent" points="475.5,-695.7 475.5,-714.7 556.5,-714.7 556.5,-695.7 475.5,-695.7"/>
<polygon fill="none" stroke="#000000" points="475.5,-695.7 475.5,-714.7 556.5,-714.7 556.5,-695.7 475.5,-695.7"/>
<text text-anchor="start" x="478.5" y="-701.8" font-family="Helvetica,sans-Serif" font-size="11.00" fill="#000000">&lt; 1</text>
<polygon fill="#ffffff" stroke="transparent" points="556.5,-695.7 556.5,-714.7 598.5,-714.7 598.5,-695.7 556.5,-695.7"/>
<polygon fill="none" stroke="#000000" points="556.5,-695.7 556.5,-714.7 598.5,-714.7 598.5,-695.7 556.5,-695.7"/>
<text text-anchor="start" x="589.3862" y="-701.8" font-family="Helvetica,sans-Serif" font-size="11.00" fill="#000000"> &#160;</text>
<polygon fill="#ffffff" stroke="transparent" points="598.5,-695.7 598.5,-714.7 641.5,-714.7 641.5,-695.7 598.5,-695.7"/>
<polygon fill="none" stroke="#000000" points="598.5,-695.7 598.5,-714.7 641.5,-714.7 641.5,-695.7 598.5,-695.7"/>
<text text-anchor="start" x="632.3862" y="-701.8" font-family="Helvetica,sans-Serif" font-size="11.00" fill="#000000"> &#160;</text>
</a>
</g>
</g>
<!-- keyworker_session&#45;&gt;prison_migration_date_history -->
<g id="edge4" class="edge">
<title>keyworker_session:w&#45;&gt;prison_migration_date_history:e</title>
<path fill="none" stroke="#000000" stroke-dasharray="5,2" d="M460.978,-743.9649C400.7208,-737.6446 387.445,-692.7 319.5,-692.7"/>
<polygon fill="#000000" stroke="#000000" points="467.5102,-744.2955 475.318,-748.2954 471.5051,-744.4978 475.5,-744.7 475.5,-744.7 475.5,-744.7 471.5051,-744.4978 475.682,-741.1046 467.5102,-744.2955 467.5102,-744.2955"/>
<ellipse fill="none" stroke="#000000" cx="464.3143" cy="-744.1337" rx="3.2" ry="3.2"/>
</g>
<!-- prison_configuration -->
<g id="node6" class="node">
<title>prison_configuration</title>
<g id="a_node6"><a xlink:href="../../tables/prison_configuration.html" xlink:title="prison_configuration" target="_top">
<polygon fill="#ffffff" stroke="transparent" points="402.5,-548.2 402.5,-675.2 714.5,-675.2 714.5,-548.2 402.5,-548.2"/>
<polygon fill="#f5f5f5" stroke="transparent" points="402.5,-651.7 402.5,-674.7 714.5,-674.7 714.5,-651.7 402.5,-651.7"/>
<polygon fill="none" stroke="#000000" points="402.5,-651.7 402.5,-674.7 714.5,-674.7 714.5,-651.7 402.5,-651.7"/>
<text text-anchor="start" x="407.5" y="-660.3" font-family="Helvetica,sans-Serif" font-weight="bold" font-size="11.00" fill="#000000">prison_configuration</text>
<text text-anchor="start" x="679.5437" y="-659.8" font-family="Helvetica,sans-Serif" font-size="11.00" fill="#000000">[table]</text>
<polygon fill="#ffffff" stroke="transparent" points="402.5,-629.7 402.5,-651.7 714.5,-651.7 714.5,-629.7 402.5,-629.7"/>
<polygon fill="none" stroke="#000000" points="402.5,-629.7 402.5,-651.7 714.5,-651.7 714.5,-629.7 402.5,-629.7"/>
<image xlink:href="../../images/foreignKeys.png" width="11px" height="12px" preserveAspectRatio="xMinYMin meet" x="407.5" y="-646.7"/>
<text text-anchor="start" x="422.5" y="-636.8" font-family="Helvetica,sans-Serif" font-size="11.00" fill="#000000">prison_code</text>
<polygon fill="#ffffff" stroke="transparent" points="402.5,-607.7 402.5,-629.7 714.5,-629.7 714.5,-607.7 402.5,-607.7"/>
<polygon fill="none" stroke="#000000" points="402.5,-607.7 402.5,-629.7 714.5,-629.7 714.5,-607.7 402.5,-607.7"/>
<image xlink:href="../../images/foreignKeys.png" width="11px" height="12px" preserveAspectRatio="xMinYMin meet" x="407.5" y="-624.7"/>
<text text-anchor="start" x="422.5" y="-614.8" font-family="Helvetica,sans-Serif" font-size="11.00" fill="#000000">policy_code</text>
<polygon fill="none" stroke="#000000" points="402.5,-585.7 402.5,-607.7 714.5,-607.7 714.5,-585.7 402.5,-585.7"/>
<image xlink:href="../../images/primaryKeys.png" width="11px" height="12px" preserveAspectRatio="xMinYMin meet" x="407.5" y="-602.7"/>
<text text-anchor="start" x="422.5" y="-592.8" font-family="Helvetica,sans-Serif" font-size="11.00" fill="#000000">id</text>
<polygon fill="none" stroke="#000000" points="402.5,-566.7 402.5,-585.7 714.5,-585.7 714.5,-566.7 402.5,-566.7"/>
<text text-anchor="start" x="405.5" y="-572.8" font-family="Helvetica,sans-Serif" font-size="11.00" fill="#000000">...</text>
<polygon fill="#ffffff" stroke="transparent" points="402.5,-547.7 402.5,-566.7 540.5,-566.7 540.5,-547.7 402.5,-547.7"/>
<polygon fill="none" stroke="#000000" points="402.5,-547.7 402.5,-566.7 540.5,-566.7 540.5,-547.7 402.5,-547.7"/>
<text text-anchor="start" x="405.5" y="-553.8" font-family="Helvetica,sans-Serif" font-size="11.00" fill="#000000">&lt; 2</text>
<polygon fill="#ffffff" stroke="transparent" points="540.5,-547.7 540.5,-566.7 643.5,-566.7 643.5,-547.7 540.5,-547.7"/>
<polygon fill="none" stroke="#000000" points="540.5,-547.7 540.5,-566.7 643.5,-566.7 643.5,-547.7 540.5,-547.7"/>
<text text-anchor="start" x="601.9956" y="-553.8" font-family="Helvetica,sans-Serif" font-size="11.00" fill="#000000">12 rows</text>
<polygon fill="#ffffff" stroke="transparent" points="643.5,-547.7 643.5,-566.7 714.5,-566.7 714.5,-547.7 643.5,-547.7"/>
<polygon fill="none" stroke="#000000" points="643.5,-547.7 643.5,-566.7 714.5,-566.7 714.5,-547.7 643.5,-547.7"/>
<text text-anchor="start" x="705.3862" y="-553.8" font-family="Helvetica,sans-Serif" font-size="11.00" fill="#000000"> &#160;</text>
</a>
</g>
</g>
<!-- prison_configuration&#45;&gt;prison_migration_date_history -->
<g id="edge5" class="edge">
<title>prison_configuration:w&#45;&gt;prison_migration_date_history:e</title>
<path fill="none" stroke="#000000" stroke-dasharray="5,2" d="M388.221,-642.9344C359.2411,-652.8875 357.5893,-692.7 319.5,-692.7"/>
<polygon fill="#000000" stroke="#000000" points="394.5962,-641.9368 403.0566,-644.2567 398.5481,-641.3184 402.5,-640.7 402.5,-640.7 402.5,-640.7 398.5481,-641.3184 401.9434,-637.1433 394.5962,-641.9368 394.5962,-641.9368"/>
<ellipse fill="none" stroke="#000000" cx="391.4347" cy="-642.4316" rx="3.2" ry="3.2"/>
</g>
<!-- prison_configuration_audit -->
<g id="node7" class="node">
<title>prison_configuration_audit</title>
<g id="a_node7"><a xlink:href="../../tables/prison_configuration_audit.html" xlink:title="prison_configuration_audit" target="_top">
<polygon fill="#ffffff" stroke="transparent" points="370,-378.2 370,-527.2 747,-527.2 747,-378.2 370,-378.2"/>
<polygon fill="#f5f5f5" stroke="transparent" points="370.5,-503.7 370.5,-526.7 747.5,-526.7 747.5,-503.7 370.5,-503.7"/>
<polygon fill="none" stroke="#000000" points="370.5,-503.7 370.5,-526.7 747.5,-526.7 747.5,-503.7 370.5,-503.7"/>
<text text-anchor="start" x="375.5" y="-512.3" font-family="Helvetica,sans-Serif" font-weight="bold" font-size="11.00" fill="#000000">prison_configuration_audit</text>
<text text-anchor="start" x="712.5437" y="-511.8" font-family="Helvetica,sans-Serif" font-size="11.00" fill="#000000">[table]</text>
<polygon fill="none" stroke="#000000" points="370.5,-481.7 370.5,-503.7 747.5,-503.7 747.5,-481.7 370.5,-481.7"/>
<image xlink:href="../../images/primaryKeys.png" width="11px" height="12px" preserveAspectRatio="xMinYMin meet" x="375.5" y="-498.7"/>
<text text-anchor="start" x="390.5" y="-488.8" font-family="Helvetica,sans-Serif" font-size="11.00" fill="#000000">rev_id</text>
<polygon fill="none" stroke="#000000" points="370.5,-459.7 370.5,-481.7 747.5,-481.7 747.5,-459.7 370.5,-459.7"/>
<image xlink:href="../../images/primaryKeys.png" width="11px" height="12px" preserveAspectRatio="xMinYMin meet" x="375.5" y="-476.7"/>
<text text-anchor="start" x="390.5" y="-466.8" font-family="Helvetica,sans-Serif" font-size="11.00" fill="#000000">id</text>
<polygon fill="none" stroke="#000000" points="370.5,-437.7 370.5,-459.7 747.5,-459.7 747.5,-437.7 370.5,-437.7"/>
<image xlink:href="../../images/foreignKeys.png" width="11px" height="12px" preserveAspectRatio="xMinYMin meet" x="375.5" y="-454.7"/>
<text text-anchor="start" x="390.5" y="-444.8" font-family="Helvetica,sans-Serif" font-size="11.00" fill="#000000">prison_code</text>
<polygon fill="none" stroke="#000000" points="370.5,-415.7 370.5,-437.7 747.5,-437.7 747.5,-415.7 370.5,-415.7"/>
<image xlink:href="../../images/foreignKeys.png" width="11px" height="12px" preserveAspectRatio="xMinYMin meet" x="375.5" y="-432.7"/>
<text text-anchor="start" x="390.5" y="-422.8" font-family="Helvetica,sans-Serif" font-size="11.00" fill="#000000">policy_code</text>
<polygon fill="none" stroke="#000000" points="370.5,-396.7 370.5,-415.7 747.5,-415.7 747.5,-396.7 370.5,-396.7"/>
<text text-anchor="start" x="373.5" y="-402.8" font-family="Helvetica,sans-Serif" font-size="11.00" fill="#000000">...</text>
<polygon fill="#ffffff" stroke="transparent" points="370.5,-377.7 370.5,-396.7 557.5,-396.7 557.5,-377.7 370.5,-377.7"/>
<polygon fill="none" stroke="#000000" points="370.5,-377.7 370.5,-396.7 557.5,-396.7 557.5,-377.7 370.5,-377.7"/>
<text text-anchor="start" x="373.5" y="-383.8" font-family="Helvetica,sans-Serif" font-size="11.00" fill="#000000">&lt; 3</text>
<polygon fill="#ffffff" stroke="transparent" points="557.5,-377.7 557.5,-396.7 652.5,-396.7 652.5,-377.7 557.5,-377.7"/>
<polygon fill="none" stroke="#000000" points="557.5,-377.7 557.5,-396.7 652.5,-396.7 652.5,-377.7 557.5,-377.7"/>
<text text-anchor="start" x="643.3862" y="-383.8" font-family="Helvetica,sans-Serif" font-size="11.00" fill="#000000"> &#160;</text>
<polygon fill="#ffffff" stroke="transparent" points="652.5,-377.7 652.5,-396.7 747.5,-396.7 747.5,-377.7 652.5,-377.7"/>
<polygon fill="none" stroke="#000000" points="652.5,-377.7 652.5,-396.7 747.5,-396.7 747.5,-377.7 652.5,-377.7"/>
<text text-anchor="start" x="738.3862" y="-383.8" font-family="Helvetica,sans-Serif" font-size="11.00" fill="#000000"> &#160;</text>
</a>
</g>
</g>
<!-- prison_configuration_audit&#45;&gt;prison_migration_date_history -->
<g id="edge6" class="edge">
<title>prison_configuration_audit:w&#45;&gt;prison_migration_date_history:e</title>
<path fill="none" stroke="#000000" stroke-dasharray="5,2" d="M355.7251,-450.5237C276.3106,-472.852 424.662,-692.7 319.5,-692.7"/>
<polygon fill="#000000" stroke="#000000" points="362.5603,-449.6801 370.941,-452.2729 366.5301,-449.19 370.5,-448.7 370.5,-448.7 370.5,-448.7 366.5301,-449.19 370.059,-445.1271 362.5603,-449.6801 362.5603,-449.6801"/>
<ellipse fill="none" stroke="#000000" cx="359.3844" cy="-450.0721" rx="3.2" ry="3.2"/>
</g>
<!-- staff_role -->
<g id="node8" class="node">
<title>staff_role</title>
<g id="a_node8"><a xlink:href="../../tables/staff_role.html" xlink:title="staff_role" target="_top">
<polygon fill="#ffffff" stroke="transparent" points="490.5,-208.2 490.5,-357.2 626.5,-357.2 626.5,-208.2 490.5,-208.2"/>
<polygon fill="#f5f5f5" stroke="transparent" points="490.5,-333.7 490.5,-356.7 626.5,-356.7 626.5,-333.7 490.5,-333.7"/>
<polygon fill="none" stroke="#000000" points="490.5,-333.7 490.5,-356.7 626.5,-356.7 626.5,-333.7 490.5,-333.7"/>
<text text-anchor="start" x="495.5" y="-342.3" font-family="Helvetica,sans-Serif" font-weight="bold" font-size="11.00" fill="#000000">staff_role</text>
<text text-anchor="start" x="591.5437" y="-341.8" font-family="Helvetica,sans-Serif" font-size="11.00" fill="#000000">[table]</text>
<polygon fill="none" stroke="#000000" points="490.5,-311.7 490.5,-333.7 626.5,-333.7 626.5,-311.7 490.5,-311.7"/>
<image xlink:href="../../images/primaryKeys.png" width="11px" height="12px" preserveAspectRatio="xMinYMin meet" x="495.5" y="-328.7"/>
<text text-anchor="start" x="510.5" y="-318.8" font-family="Helvetica,sans-Serif" font-size="11.00" fill="#000000">id</text>
<polygon fill="#ffffff" stroke="transparent" points="490.5,-289.7 490.5,-311.7 626.5,-311.7 626.5,-289.7 490.5,-289.7"/>
<polygon fill="none" stroke="#000000" points="490.5,-289.7 490.5,-311.7 626.5,-311.7 626.5,-289.7 490.5,-289.7"/>
<image xlink:href="../../images/foreignKeys.png" width="11px" height="12px" preserveAspectRatio="xMinYMin meet" x="495.5" y="-306.7"/>
<text text-anchor="start" x="510.5" y="-296.8" font-family="Helvetica,sans-Serif" font-size="11.00" fill="#000000">policy_code</text>
<polygon fill="#ffffff" stroke="transparent" points="490.5,-267.7 490.5,-289.7 626.5,-289.7 626.5,-267.7 490.5,-267.7"/>
<polygon fill="none" stroke="#000000" points="490.5,-267.7 490.5,-289.7 626.5,-289.7 626.5,-267.7 490.5,-267.7"/>
<image xlink:href="../../images/foreignKeys.png" width="11px" height="12px" preserveAspectRatio="xMinYMin meet" x="495.5" y="-284.7"/>
<text text-anchor="start" x="510.5" y="-274.8" font-family="Helvetica,sans-Serif" font-size="11.00" fill="#000000">prison_code</text>
<polygon fill="#ffffff" stroke="transparent" points="490.5,-245.7 490.5,-267.7 626.5,-267.7 626.5,-245.7 490.5,-245.7"/>
<polygon fill="none" stroke="#000000" points="490.5,-245.7 490.5,-267.7 626.5,-267.7 626.5,-245.7 490.5,-245.7"/>
<text text-anchor="start" x="510.5" y="-252.8" font-family="Helvetica,sans-Serif" font-size="11.00" fill="#000000">staff_id</text>
<polygon fill="none" stroke="#000000" points="490.5,-226.7 490.5,-245.7 626.5,-245.7 626.5,-226.7 490.5,-226.7"/>
<text text-anchor="start" x="493.5" y="-232.8" font-family="Helvetica,sans-Serif" font-size="11.00" fill="#000000">...</text>
<polygon fill="#ffffff" stroke="transparent" points="490.5,-207.7 490.5,-226.7 556.5,-226.7 556.5,-207.7 490.5,-207.7"/>
<polygon fill="none" stroke="#000000" points="490.5,-207.7 490.5,-226.7 556.5,-226.7 556.5,-207.7 490.5,-207.7"/>
<text text-anchor="start" x="493.5" y="-213.8" font-family="Helvetica,sans-Serif" font-size="11.00" fill="#000000">&lt; 2</text>
<polygon fill="#ffffff" stroke="transparent" points="556.5,-207.7 556.5,-226.7 591.5,-226.7 591.5,-207.7 556.5,-207.7"/>
<polygon fill="none" stroke="#000000" points="556.5,-207.7 556.5,-226.7 591.5,-226.7 591.5,-207.7 556.5,-207.7"/>
<text text-anchor="start" x="582.3862" y="-213.8" font-family="Helvetica,sans-Serif" font-size="11.00" fill="#000000"> &#160;</text>
<polygon fill="#ffffff" stroke="transparent" points="591.5,-207.7 591.5,-226.7 626.5,-226.7 626.5,-207.7 591.5,-207.7"/>
<polygon fill="none" stroke="#000000" points="591.5,-207.7 591.5,-226.7 626.5,-226.7 626.5,-207.7 591.5,-207.7"/>
<text text-anchor="start" x="617.3862" y="-213.8" font-family="Helvetica,sans-Serif" font-size="11.00" fill="#000000"> &#160;</text>
</a>
</g>
</g>
<!-- staff_role&#45;&gt;prison_migration_date_history -->
<g id="edge7" class="edge">
<title>staff_role:w&#45;&gt;prison_migration_date_history:e</title>
<path fill="none" stroke="#000000" stroke-dasharray="5,2" d="M475.7774,-279.1905C417.5614,-283.2695 395.482,-312.7868 362,-367.7 324.0818,-429.8889 392.3371,-692.7 319.5,-692.7"/>
<polygon fill="#000000" stroke="#000000" points="482.5044,-278.9664 490.6199,-282.298 486.5022,-278.8332 490.5,-278.7 490.5,-278.7 490.5,-278.7 486.5022,-278.8332 490.3801,-275.102 482.5044,-278.9664 482.5044,-278.9664"/>
<ellipse fill="none" stroke="#000000" cx="479.3062" cy="-279.073" rx="3.2" ry="3.2"/>
</g>
<!-- staff_role_audit -->
<g id="node9" class="node">
<title>staff_role_audit</title>
<g id="a_node9"><a xlink:href="../../tables/staff_role_audit.html" xlink:title="staff_role_audit" target="_top">
<polygon fill="#ffffff" stroke="transparent" points="461.5,-38.2 461.5,-187.2 655.5,-187.2 655.5,-38.2 461.5,-38.2"/>
<polygon fill="#f5f5f5" stroke="transparent" points="461.5,-163.7 461.5,-186.7 655.5,-186.7 655.5,-163.7 461.5,-163.7"/>
<polygon fill="none" stroke="#000000" points="461.5,-163.7 461.5,-186.7 655.5,-186.7 655.5,-163.7 461.5,-163.7"/>
<text text-anchor="start" x="466.5" y="-172.3" font-family="Helvetica,sans-Serif" font-weight="bold" font-size="11.00" fill="#000000">staff_role_audit</text>
<text text-anchor="start" x="620.5437" y="-171.8" font-family="Helvetica,sans-Serif" font-size="11.00" fill="#000000">[table]</text>
<polygon fill="none" stroke="#000000" points="461.5,-141.7 461.5,-163.7 655.5,-163.7 655.5,-141.7 461.5,-141.7"/>
<image xlink:href="../../images/primaryKeys.png" width="11px" height="12px" preserveAspectRatio="xMinYMin meet" x="466.5" y="-158.7"/>
<text text-anchor="start" x="481.5" y="-148.8" font-family="Helvetica,sans-Serif" font-size="11.00" fill="#000000">rev_id</text>
<polygon fill="none" stroke="#000000" points="461.5,-119.7 461.5,-141.7 655.5,-141.7 655.5,-119.7 461.5,-119.7"/>
<image xlink:href="../../images/primaryKeys.png" width="11px" height="12px" preserveAspectRatio="xMinYMin meet" x="466.5" y="-136.7"/>
<text text-anchor="start" x="481.5" y="-126.8" font-family="Helvetica,sans-Serif" font-size="11.00" fill="#000000">id</text>
<polygon fill="none" stroke="#000000" points="461.5,-97.7 461.5,-119.7 655.5,-119.7 655.5,-97.7 461.5,-97.7"/>
<image xlink:href="../../images/foreignKeys.png" width="11px" height="12px" preserveAspectRatio="xMinYMin meet" x="466.5" y="-114.7"/>
<text text-anchor="start" x="481.5" y="-104.8" font-family="Helvetica,sans-Serif" font-size="11.00" fill="#000000">policy_code</text>
<polygon fill="none" stroke="#000000" points="461.5,-75.7 461.5,-97.7 655.5,-97.7 655.5,-75.7 461.5,-75.7"/>
<image xlink:href="../../images/foreignKeys.png" width="11px" height="12px" preserveAspectRatio="xMinYMin meet" x="466.5" y="-92.7"/>
<text text-anchor="start" x="481.5" y="-82.8" font-family="Helvetica,sans-Serif" font-size="11.00" fill="#000000">prison_code</text>
<polygon fill="none" stroke="#000000" points="461.5,-56.7 461.5,-75.7 655.5,-75.7 655.5,-56.7 461.5,-56.7"/>
<text text-anchor="start" x="464.5" y="-62.8" font-family="Helvetica,sans-Serif" font-size="11.00" fill="#000000">...</text>
<polygon fill="#ffffff" stroke="transparent" points="461.5,-37.7 461.5,-56.7 556.5,-56.7 556.5,-37.7 461.5,-37.7"/>
<polygon fill="none" stroke="#000000" points="461.5,-37.7 461.5,-56.7 556.5,-56.7 556.5,-37.7 461.5,-37.7"/>
<text text-anchor="start" x="464.5" y="-43.8" font-family="Helvetica,sans-Serif" font-size="11.00" fill="#000000">&lt; 3</text>
<polygon fill="#ffffff" stroke="transparent" points="556.5,-37.7 556.5,-56.7 605.5,-56.7 605.5,-37.7 556.5,-37.7"/>
<polygon fill="none" stroke="#000000" points="556.5,-37.7 556.5,-56.7 605.5,-56.7 605.5,-37.7 556.5,-37.7"/>
<text text-anchor="start" x="596.3862" y="-43.8" font-family="Helvetica,sans-Serif" font-size="11.00" fill="#000000"> &#160;</text>
<polygon fill="#ffffff" stroke="transparent" points="605.5,-37.7 605.5,-56.7 655.5,-56.7 655.5,-37.7 605.5,-37.7"/>
<polygon fill="none" stroke="#000000" points="605.5,-37.7 605.5,-56.7 655.5,-56.7 655.5,-37.7 605.5,-37.7"/>
<text text-anchor="start" x="646.3862" y="-43.8" font-family="Helvetica,sans-Serif" font-size="11.00" fill="#000000"> &#160;</text>
</a>
</g>
</g>
<!-- staff_role_audit&#45;&gt;prison_migration_date_history -->
<g id="edge8" class="edge">
<title>staff_role_audit:w&#45;&gt;prison_migration_date_history:e</title>
<path fill="none" stroke="#000000" stroke-dasharray="5,2" d="M447.0205,-87.6002C394.0441,-94.6073 386.2467,-141.6426 362,-197.7 340.0852,-248.366 374.7023,-692.7 319.5,-692.7"/>
<polygon fill="#000000" stroke="#000000" points="453.5154,-87.1964 461.7234,-90.2931 457.5077,-86.9482 461.5,-86.7 461.5,-86.7 461.5,-86.7 457.5077,-86.9482 461.2766,-83.1069 453.5154,-87.1964 453.5154,-87.1964"/>
<ellipse fill="none" stroke="#000000" cx="450.3216" cy="-87.395" rx="3.2" ry="3.2"/>
</g>
</g>
</svg>
