<?xml version="1.0" encoding="UTF-8" standalone="no"?>
<!DOCTYPE svg PUBLIC "-//W3C//DTD SVG 1.1//EN"
 "http://www.w3.org/Graphics/SVG/1.1/DTD/svg11.dtd">
<!-- Generated by graphviz version 2.40.1 (20161225.0304)
 -->
<!-- Title: twoDegreesRelationshipsDiagramImplied Pages: 1 -->
<svg width="763pt" height="1071pt"
 viewBox="0.00 0.00 763.00 1071.20" xmlns="http://www.w3.org/2000/svg" xmlns:xlink="http://www.w3.org/1999/xlink">
<g id="graph0" class="graph" transform="scale(1 1) rotate(0) translate(4 1067.2)">
<title>twoDegreesRelationshipsDiagramImplied</title>
<polygon fill="#ffffff" stroke="transparent" points="-4,4 -4,-1067.2 759,-1067.2 759,4 -4,4"/>
<text text-anchor="middle" x="72.4936" y="-7.3" font-family="Helvetica,sans-Serif" font-size="11.00" fill="#000000">Generated by SchemaSpy</text>
<!-- keyworker_entry -->
<g id="node1" class="node">
<title>keyworker_entry</title>
<g id="a_node1"><a xlink:href="../../tables/keyworker_entry.html" xlink:title="keyworker_entry" target="_top">
<polygon fill="#ffffff" stroke="transparent" points="482.5,-888.2 482.5,-1059.2 634.5,-1059.2 634.5,-888.2 482.5,-888.2"/>
<polygon fill="#f5f5f5" stroke="transparent" points="482.5,-1035.7 482.5,-1058.7 634.5,-1058.7 634.5,-1035.7 482.5,-1035.7"/>
<polygon fill="none" stroke="#000000" points="482.5,-1035.7 482.5,-1058.7 634.5,-1058.7 634.5,-1035.7 482.5,-1035.7"/>
<text text-anchor="start" x="487.5" y="-1044.3" font-family="Helvetica,sans-Serif" font-weight="bold" font-size="11.00" fill="#000000">keyworker_entry</text>
<text text-anchor="start" x="600.0219" y="-1043.8" font-family="Helvetica,sans-Serif" font-size="11.00" fill="#000000">[table]</text>
<polygon fill="none" stroke="#000000" points="482.5,-1013.7 482.5,-1035.7 634.5,-1035.7 634.5,-1013.7 482.5,-1013.7"/>
<image xlink:href="../../images/primaryKeys.png" width="11px" height="12px" preserveAspectRatio="xMinYMin meet" x="487.5" y="-1030.7"/>
<text text-anchor="start" x="506.5" y="-1020.8" font-family="Helvetica,sans-Serif" font-size="11.00" fill="#000000">id</text>
<polygon fill="#ffffff" stroke="transparent" points="482.5,-991.7 482.5,-1013.7 634.5,-1013.7 634.5,-991.7 482.5,-991.7"/>
<polygon fill="none" stroke="#000000" points="482.5,-991.7 482.5,-1013.7 634.5,-1013.7 634.5,-991.7 482.5,-991.7"/>
<text text-anchor="start" x="506.5" y="-998.8" font-family="Helvetica,sans-Serif" font-size="11.00" fill="#000000">occurred_at</text>
<polygon fill="#ffffff" stroke="transparent" points="482.5,-969.7 482.5,-991.7 634.5,-991.7 634.5,-969.7 482.5,-969.7"/>
<polygon fill="none" stroke="#000000" points="482.5,-969.7 482.5,-991.7 634.5,-991.7 634.5,-969.7 482.5,-969.7"/>
<text text-anchor="start" x="506.5" y="-976.8" font-family="Helvetica,sans-Serif" font-size="11.00" fill="#000000">person_identifier</text>
<polygon fill="#ffffff" stroke="transparent" points="482.5,-947.7 482.5,-969.7 634.5,-969.7 634.5,-947.7 482.5,-947.7"/>
<polygon fill="none" stroke="#000000" points="482.5,-947.7 482.5,-969.7 634.5,-969.7 634.5,-947.7 482.5,-947.7"/>
<text text-anchor="start" x="506.5" y="-954.8" font-family="Helvetica,sans-Serif" font-size="11.00" fill="#000000">staff_id</text>
<polygon fill="#ffffff" stroke="transparent" points="482.5,-925.7 482.5,-947.7 634.5,-947.7 634.5,-925.7 482.5,-925.7"/>
<polygon fill="none" stroke="#000000" points="482.5,-925.7 482.5,-947.7 634.5,-947.7 634.5,-925.7 482.5,-925.7"/>
<image xlink:href="../../images/foreignKeys.png" width="11px" height="12px" preserveAspectRatio="xMinYMin meet" x="487.5" y="-942.7"/>
<text text-anchor="start" x="506.5" y="-932.8" font-family="Helvetica,sans-Serif" font-size="11.00" fill="#000000">prison_code</text>
<polygon fill="none" stroke="#000000" points="482.5,-906.7 482.5,-925.7 634.5,-925.7 634.5,-906.7 482.5,-906.7"/>
<text text-anchor="start" x="485.5" y="-912.8" font-family="Helvetica,sans-Serif" font-size="11.00" fill="#000000">...</text>
<polygon fill="#ffffff" stroke="transparent" points="482.5,-887.7 482.5,-906.7 556.5,-906.7 556.5,-887.7 482.5,-887.7"/>
<polygon fill="none" stroke="#000000" points="482.5,-887.7 482.5,-906.7 556.5,-906.7 556.5,-887.7 482.5,-887.7"/>
<text text-anchor="start" x="485.5" y="-893.8" font-family="Helvetica,sans-Serif" font-size="11.00" fill="#000000">&lt; 1</text>
<polygon fill="#ffffff" stroke="transparent" points="556.5,-887.7 556.5,-906.7 595.5,-906.7 595.5,-887.7 556.5,-887.7"/>
<polygon fill="none" stroke="#000000" points="556.5,-887.7 556.5,-906.7 595.5,-906.7 595.5,-887.7 556.5,-887.7"/>
<text text-anchor="start" x="586.3862" y="-893.8" font-family="Helvetica,sans-Serif" font-size="11.00" fill="#000000"> &#160;</text>
<polygon fill="#ffffff" stroke="transparent" points="595.5,-887.7 595.5,-906.7 634.5,-906.7 634.5,-887.7 595.5,-887.7"/>
<polygon fill="none" stroke="#000000" points="595.5,-887.7 595.5,-906.7 634.5,-906.7 634.5,-887.7 595.5,-887.7"/>
<text text-anchor="start" x="625.3862" y="-893.8" font-family="Helvetica,sans-Serif" font-size="11.00" fill="#000000"> &#160;</text>
</a>
</g>
</g>
<!-- prison_migration_date_history -->
<g id="node2" class="node">
<title>prison_migration_date_history</title>
<g id="a_node2"><a xlink:href="../../tables/prison_migration_date_history.html" xlink:title="prison_migration_date_history" target="_top">
<polygon fill="#ffffff" stroke="transparent" points="8,-490.7 8,-580.7 321,-580.7 321,-490.7 8,-490.7"/>
<polygon fill="#f5f5f5" stroke="transparent" points="10.5,-555.7 10.5,-578.7 319.5,-578.7 319.5,-555.7 10.5,-555.7"/>
<polygon fill="none" stroke="#000000" points="10.5,-555.7 10.5,-578.7 319.5,-578.7 319.5,-555.7 10.5,-555.7"/>
<text text-anchor="start" x="15.5" y="-564.3" font-family="Helvetica,sans-Serif" font-weight="bold" font-size="11.00" fill="#000000">prison_migration_date_history</text>
<text text-anchor="start" x="284.5437" y="-563.8" font-family="Helvetica,sans-Serif" font-size="11.00" fill="#000000">[table]</text>
<polygon fill="none" stroke="#000000" points="10.5,-533.7 10.5,-555.7 235.5,-555.7 235.5,-533.7 10.5,-533.7"/>
<image xlink:href="../../images/primaryKeys.png" width="11px" height="12px" preserveAspectRatio="xMinYMin meet" x="15.5" y="-550.7"/>
<text text-anchor="start" x="30.5" y="-540.8" font-family="Helvetica,sans-Serif" font-size="11.00" fill="#000000">prison_code</text>
<polygon fill="none" stroke="#000000" points="235.5,-533.7 235.5,-555.7 319.5,-555.7 319.5,-533.7 235.5,-533.7"/>
<text text-anchor="start" x="238.5" y="-541.4" font-family="Helvetica,sans-Serif" font-size="11.00" fill="#000000">varchar[6]</text>
<polygon fill="none" stroke="#000000" points="10.5,-511.7 10.5,-533.7 235.5,-533.7 235.5,-511.7 10.5,-511.7"/>
<text text-anchor="start" x="30.5" y="-518.8" font-family="Helvetica,sans-Serif" font-size="11.00" fill="#000000">migration_date</text>
<polygon fill="none" stroke="#000000" points="235.5,-511.7 235.5,-533.7 319.5,-533.7 319.5,-511.7 235.5,-511.7"/>
<text text-anchor="start" x="238.3807" y="-519.4" font-family="Helvetica,sans-Serif" font-size="11.00" fill="#000000">timestamp[29,6]</text>
<polygon fill="#ffffff" stroke="transparent" points="10.5,-492.7 10.5,-511.7 127.5,-511.7 127.5,-492.7 10.5,-492.7"/>
<polygon fill="none" stroke="#000000" points="10.5,-492.7 10.5,-511.7 127.5,-511.7 127.5,-492.7 10.5,-492.7"/>
<text text-anchor="start" x="13.5" y="-498.8" font-family="Helvetica,sans-Serif" font-size="11.00" fill="#000000">&lt; 0</text>
<polygon fill="#ffffff" stroke="transparent" points="127.5,-492.7 127.5,-511.7 235.5,-511.7 235.5,-492.7 127.5,-492.7"/>
<polygon fill="none" stroke="#000000" points="127.5,-492.7 127.5,-511.7 235.5,-511.7 235.5,-492.7 127.5,-492.7"/>
<text text-anchor="start" x="226.3862" y="-498.8" font-family="Helvetica,sans-Serif" font-size="11.00" fill="#000000"> &#160;</text>
<polygon fill="#ffffff" stroke="transparent" points="235.5,-492.7 235.5,-511.7 319.5,-511.7 319.5,-492.7 235.5,-492.7"/>
<polygon fill="none" stroke="#000000" points="235.5,-492.7 235.5,-511.7 319.5,-511.7 319.5,-492.7 235.5,-492.7"/>
<text text-anchor="start" x="300.9053" y="-498.8" font-family="Helvetica,sans-Serif" font-size="11.00" fill="#000000">6 &gt;</text>
<polygon fill="none" stroke="#000000" stroke-width="2" points="9,-491.7 9,-579.7 320,-579.7 320,-491.7 9,-491.7"/>
</a>
</g>
</g>
<!-- keyworker_entry&#45;&gt;prison_migration_date_history -->
<g id="edge1" class="edge">
<title>keyworker_entry:w&#45;&gt;prison_migration_date_history:e</title>
<path fill="none" stroke="#000000" stroke-dasharray="5,2" d="M467.8413,-936.4497C418.3096,-934.6131 393.7237,-922.0229 362,-877.7 318.5811,-817.037 394.1003,-544.7 319.5,-544.7"/>
<polygon fill="#000000" stroke="#000000" points="474.5012,-936.5634 482.4385,-940.2995 478.5006,-936.6317 482.5,-936.7 482.5,-936.7 482.5,-936.7 478.5006,-936.6317 482.5615,-933.1005 474.5012,-936.5634 474.5012,-936.5634"/>
<ellipse fill="none" stroke="#000000" cx="471.3016" cy="-936.5087" rx="3.2" ry="3.2"/>
</g>
<!-- keyworker_session -->
<g id="node3" class="node">
<title>keyworker_session</title>
<g id="a_node3"><a xlink:href="../../tables/keyworker_session.html" xlink:title="keyworker_session" target="_top">
<polygon fill="#ffffff" stroke="transparent" points="475.5,-696.2 475.5,-867.2 641.5,-867.2 641.5,-696.2 475.5,-696.2"/>
<polygon fill="#f5f5f5" stroke="transparent" points="475.5,-843.7 475.5,-866.7 641.5,-866.7 641.5,-843.7 475.5,-843.7"/>
<polygon fill="none" stroke="#000000" points="475.5,-843.7 475.5,-866.7 641.5,-866.7 641.5,-843.7 475.5,-843.7"/>
<text text-anchor="start" x="480.5" y="-852.3" font-family="Helvetica,sans-Serif" font-weight="bold" font-size="11.00" fill="#000000">keyworker_session</text>
<text text-anchor="start" x="607.0219" y="-851.8" font-family="Helvetica,sans-Serif" font-size="11.00" fill="#000000">[table]</text>
<polygon fill="none" stroke="#000000" points="475.5,-821.7 475.5,-843.7 641.5,-843.7 641.5,-821.7 475.5,-821.7"/>
<image xlink:href="../../images/primaryKeys.png" width="11px" height="12px" preserveAspectRatio="xMinYMin meet" x="480.5" y="-838.7"/>
<text text-anchor="start" x="504.5" y="-828.8" font-family="Helvetica,sans-Serif" font-size="11.00" fill="#000000">id</text>
<polygon fill="#ffffff" stroke="transparent" points="475.5,-799.7 475.5,-821.7 641.5,-821.7 641.5,-799.7 475.5,-799.7"/>
<polygon fill="none" stroke="#000000" points="475.5,-799.7 475.5,-821.7 641.5,-821.7 641.5,-799.7 475.5,-799.7"/>
<text text-anchor="start" x="504.5" y="-806.8" font-family="Helvetica,sans-Serif" font-size="11.00" fill="#000000">occurred_at</text>
<polygon fill="#ffffff" stroke="transparent" points="475.5,-777.7 475.5,-799.7 641.5,-799.7 641.5,-777.7 475.5,-777.7"/>
<polygon fill="none" stroke="#000000" points="475.5,-777.7 475.5,-799.7 641.5,-799.7 641.5,-777.7 475.5,-777.7"/>
<text text-anchor="start" x="504.5" y="-784.8" font-family="Helvetica,sans-Serif" font-size="11.00" fill="#000000">person_identifier</text>
<polygon fill="#ffffff" stroke="transparent" points="475.5,-755.7 475.5,-777.7 641.5,-777.7 641.5,-755.7 475.5,-755.7"/>
<polygon fill="none" stroke="#000000" points="475.5,-755.7 475.5,-777.7 641.5,-777.7 641.5,-755.7 475.5,-755.7"/>
<text text-anchor="start" x="504.5" y="-762.8" font-family="Helvetica,sans-Serif" font-size="11.00" fill="#000000">staff_id</text>
<polygon fill="#ffffff" stroke="transparent" points="475.5,-733.7 475.5,-755.7 641.5,-755.7 641.5,-733.7 475.5,-733.7"/>
<polygon fill="none" stroke="#000000" points="475.5,-733.7 475.5,-755.7 641.5,-755.7 641.5,-733.7 475.5,-733.7"/>
<image xlink:href="../../images/foreignKeys.png" width="11px" height="12px" preserveAspectRatio="xMinYMin meet" x="480.5" y="-750.7"/>
<text text-anchor="start" x="504.5" y="-740.8" font-family="Helvetica,sans-Serif" font-size="11.00" fill="#000000">prison_code</text>
<polygon fill="none" stroke="#000000" points="475.5,-714.7 475.5,-733.7 641.5,-733.7 641.5,-714.7 475.5,-714.7"/>
<text text-anchor="start" x="478.5" y="-720.8" font-family="Helvetica,sans-Serif" font-size="11.00" fill="#000000">...</text>
<polygon fill="#ffffff" stroke="transparent" points="475.5,-695.7 475.5,-714.7 556.5,-714.7 556.5,-695.7 475.5,-695.7"/>
<polygon fill="none" stroke="#000000" points="475.5,-695.7 475.5,-714.7 556.5,-714.7 556.5,-695.7 475.5,-695.7"/>
<text text-anchor="start" x="478.5" y="-701.8" font-family="Helvetica,sans-Serif" font-size="11.00" fill="#000000">&lt; 1</text>
<polygon fill="#ffffff" stroke="transparent" points="556.5,-695.7 556.5,-714.7 598.5,-714.7 598.5,-695.7 556.5,-695.7"/>
<polygon fill="none" stroke="#000000" points="556.5,-695.7 556.5,-714.7 598.5,-714.7 598.5,-695.7 556.5,-695.7"/>
<text text-anchor="start" x="589.3862" y="-701.8" font-family="Helvetica,sans-Serif" font-size="11.00" fill="#000000"> &#160;</text>
<polygon fill="#ffffff" stroke="transparent" points="598.5,-695.7 598.5,-714.7 641.5,-714.7 641.5,-695.7 598.5,-695.7"/>
<polygon fill="none" stroke="#000000" points="598.5,-695.7 598.5,-714.7 641.5,-714.7 641.5,-695.7 598.5,-695.7"/>
<text text-anchor="start" x="632.3862" y="-701.8" font-family="Helvetica,sans-Serif" font-size="11.00" fill="#000000"> &#160;</text>
</a>
</g>
</g>
<!-- keyworker_session&#45;&gt;prison_migration_date_history -->
<g id="edge2" class="edge">
<title>keyworker_session:w&#45;&gt;prison_migration_date_history:e</title>
<path fill="none" stroke="#000000" stroke-dasharray="5,2" d="M461.0219,-744.3216C414.859,-741.7333 395.0208,-725.5393 362,-685.7 320.2324,-635.3078 384.9515,-544.7 319.5,-544.7"/>
<polygon fill="#000000" stroke="#000000" points="467.5027,-744.4909 475.4059,-748.2988 471.5014,-744.5955 475.5,-744.7 475.5,-744.7 475.5,-744.7 471.5014,-744.5955 475.5941,-741.1012 467.5027,-744.4909 467.5027,-744.4909"/>
<ellipse fill="none" stroke="#000000" cx="464.3038" cy="-744.4073" rx="3.2" ry="3.2"/>
</g>
<!-- prison_configuration -->
<g id="node4" class="node">
<title>prison_configuration</title>
<g id="a_node4"><a xlink:href="../../tables/prison_configuration.html" xlink:title="prison_configuration" target="_top">
<polygon fill="#ffffff" stroke="transparent" points="402.5,-548.2 402.5,-675.2 714.5,-675.2 714.5,-548.2 402.5,-548.2"/>
<polygon fill="#f5f5f5" stroke="transparent" points="402.5,-651.7 402.5,-674.7 714.5,-674.7 714.5,-651.7 402.5,-651.7"/>
<polygon fill="none" stroke="#000000" points="402.5,-651.7 402.5,-674.7 714.5,-674.7 714.5,-651.7 402.5,-651.7"/>
<text text-anchor="start" x="407.5" y="-660.3" font-family="Helvetica,sans-Serif" font-weight="bold" font-size="11.00" fill="#000000">prison_configuration</text>
<text text-anchor="start" x="679.5437" y="-659.8" font-family="Helvetica,sans-Serif" font-size="11.00" fill="#000000">[table]</text>
<polygon fill="#ffffff" stroke="transparent" points="402.5,-629.7 402.5,-651.7 714.5,-651.7 714.5,-629.7 402.5,-629.7"/>
<polygon fill="none" stroke="#000000" points="402.5,-629.7 402.5,-651.7 714.5,-651.7 714.5,-629.7 402.5,-629.7"/>
<image xlink:href="../../images/foreignKeys.png" width="11px" height="12px" preserveAspectRatio="xMinYMin meet" x="407.5" y="-646.7"/>
<text text-anchor="start" x="422.5" y="-636.8" font-family="Helvetica,sans-Serif" font-size="11.00" fill="#000000">prison_code</text>
<polygon fill="#ffffff" stroke="transparent" points="402.5,-607.7 402.5,-629.7 714.5,-629.7 714.5,-607.7 402.5,-607.7"/>
<polygon fill="none" stroke="#000000" points="402.5,-607.7 402.5,-629.7 714.5,-629.7 714.5,-607.7 402.5,-607.7"/>
<image xlink:href="../../images/foreignKeys.png" width="11px" height="12px" preserveAspectRatio="xMinYMin meet" x="407.5" y="-624.7"/>
<text text-anchor="start" x="422.5" y="-614.8" font-family="Helvetica,sans-Serif" font-size="11.00" fill="#000000">policy_code</text>
<polygon fill="none" stroke="#000000" points="402.5,-585.7 402.5,-607.7 714.5,-607.7 714.5,-585.7 402.5,-585.7"/>
<image xlink:href="../../images/primaryKeys.png" width="11px" height="12px" preserveAspectRatio="xMinYMin meet" x="407.5" y="-602.7"/>
<text text-anchor="start" x="422.5" y="-592.8" font-family="Helvetica,sans-Serif" font-size="11.00" fill="#000000">id</text>
<polygon fill="none" stroke="#000000" points="402.5,-566.7 402.5,-585.7 714.5,-585.7 714.5,-566.7 402.5,-566.7"/>
<text text-anchor="start" x="405.5" y="-572.8" font-family="Helvetica,sans-Serif" font-size="11.00" fill="#000000">...</text>
<polygon fill="#ffffff" stroke="transparent" points="402.5,-547.7 402.5,-566.7 540.5,-566.7 540.5,-547.7 402.5,-547.7"/>
<polygon fill="none" stroke="#000000" points="402.5,-547.7 402.5,-566.7 540.5,-566.7 540.5,-547.7 402.5,-547.7"/>
<text text-anchor="start" x="405.5" y="-553.8" font-family="Helvetica,sans-Serif" font-size="11.00" fill="#000000">&lt; 2</text>
<polygon fill="#ffffff" stroke="transparent" points="540.5,-547.7 540.5,-566.7 643.5,-566.7 643.5,-547.7 540.5,-547.7"/>
<polygon fill="none" stroke="#000000" points="540.5,-547.7 540.5,-566.7 643.5,-566.7 643.5,-547.7 540.5,-547.7"/>
<text text-anchor="start" x="601.9956" y="-553.8" font-family="Helvetica,sans-Serif" font-size="11.00" fill="#000000">12 rows</text>
<polygon fill="#ffffff" stroke="transparent" points="643.5,-547.7 643.5,-566.7 714.5,-566.7 714.5,-547.7 643.5,-547.7"/>
<polygon fill="none" stroke="#000000" points="643.5,-547.7 643.5,-566.7 714.5,-566.7 714.5,-547.7 643.5,-547.7"/>
<text text-anchor="start" x="705.3862" y="-553.8" font-family="Helvetica,sans-Serif" font-size="11.00" fill="#000000"> &#160;</text>
</a>
</g>
</g>
<!-- prison_configuration&#45;&gt;prison_migration_date_history -->
<g id="edge4" class="edge">
<title>prison_configuration:w&#45;&gt;prison_migration_date_history:e</title>
<path fill="none" stroke="#000000" stroke-dasharray="5,2" d="M388.2817,-638.1322C351.0967,-622.8655 370.3944,-544.7 319.5,-544.7"/>
<polygon fill="#000000" stroke="#000000" points="394.6274,-639.2782 401.8602,-644.2427 398.5637,-639.9891 402.5,-640.7 402.5,-640.7 402.5,-640.7 398.5637,-639.9891 403.1398,-637.1573 394.6274,-639.2782 394.6274,-639.2782"/>
<ellipse fill="none" stroke="#000000" cx="391.4783" cy="-638.7095" rx="3.2" ry="3.2"/>
</g>
<!-- policy -->
<g id="node5" class="node">
<title>policy</title>
<g id="a_node5"><a xlink:href="../../tables/policy.html" xlink:title="policy" target="_top">
<polygon fill="#ffffff" stroke="transparent" points="125.5,-270.2 125.5,-331.2 203.5,-331.2 203.5,-270.2 125.5,-270.2"/>
<polygon fill="#f5f5f5" stroke="transparent" points="125.5,-307.7 125.5,-330.7 203.5,-330.7 203.5,-307.7 125.5,-307.7"/>
<polygon fill="none" stroke="#000000" points="125.5,-307.7 125.5,-330.7 203.5,-330.7 203.5,-307.7 125.5,-307.7"/>
<text text-anchor="start" x="130.5" y="-316.3" font-family="Helvetica,sans-Serif" font-weight="bold" font-size="11.00" fill="#000000">policy</text>
<text text-anchor="start" x="169.0219" y="-315.8" font-family="Helvetica,sans-Serif" font-size="11.00" fill="#000000">[table]</text>
<polygon fill="none" stroke="#000000" points="125.5,-288.7 125.5,-307.7 203.5,-307.7 203.5,-288.7 125.5,-288.7"/>
<text text-anchor="start" x="128.5" y="-294.8" font-family="Helvetica,sans-Serif" font-size="11.00" fill="#000000">...</text>
<polygon fill="#ffffff" stroke="transparent" points="125.5,-269.7 125.5,-288.7 153.5,-288.7 153.5,-269.7 125.5,-269.7"/>
<polygon fill="none" stroke="#000000" points="125.5,-269.7 125.5,-288.7 153.5,-288.7 153.5,-269.7 125.5,-269.7"/>
<text text-anchor="start" x="128.5" y="-275.8" font-family="Helvetica,sans-Serif" font-size="11.00" fill="#000000"> &#160;</text>
<polygon fill="#ffffff" stroke="transparent" points="153.5,-269.7 153.5,-288.7 173.5,-288.7 173.5,-269.7 153.5,-269.7"/>
<polygon fill="none" stroke="#000000" points="153.5,-269.7 153.5,-288.7 173.5,-288.7 173.5,-269.7 153.5,-269.7"/>
<text text-anchor="start" x="164.3862" y="-275.8" font-family="Helvetica,sans-Serif" font-size="11.00" fill="#000000"> &#160;</text>
<polygon fill="#ffffff" stroke="transparent" points="173.5,-269.7 173.5,-288.7 203.5,-288.7 203.5,-269.7 173.5,-269.7"/>
<polygon fill="none" stroke="#000000" points="173.5,-269.7 173.5,-288.7 203.5,-288.7 203.5,-269.7 173.5,-269.7"/>
<text text-anchor="start" x="184.9053" y="-275.8" font-family="Helvetica,sans-Serif" font-size="11.00" fill="#000000">6 &gt;</text>
</a>
</g>
</g>
<!-- prison_configuration&#45;&gt;policy -->
<g id="edge3" class="edge">
<title>prison_configuration:w&#45;&gt;policy:e</title>
<path fill="none" stroke="#000000" d="M387.9913,-617.3077C337.5991,-606.5379 362.2248,-535.4719 329,-480.7 277.8507,-396.379 302.1219,-297.7 203.5,-297.7"/>
<polygon fill="#000000" stroke="#000000" points="394.5366,-617.9357 402.1561,-622.2835 398.5183,-618.3179 402.5,-618.7 402.5,-618.7 402.5,-618.7 398.5183,-618.3179 402.8439,-615.1165 394.5366,-617.9357 394.5366,-617.9357"/>
<ellipse fill="none" stroke="#000000" cx="391.3512" cy="-617.63" rx="3.2" ry="3.2"/>
</g>
<!-- prison_configuration_audit -->
<g id="node6" class="node">
<title>prison_configuration_audit</title>
<g id="a_node6"><a xlink:href="../../tables/prison_configuration_audit.html" xlink:title="prison_configuration_audit" target="_top">
<polygon fill="#ffffff" stroke="transparent" points="370,-208.2 370,-357.2 747,-357.2 747,-208.2 370,-208.2"/>
<polygon fill="#f5f5f5" stroke="transparent" points="370.5,-333.7 370.5,-356.7 747.5,-356.7 747.5,-333.7 370.5,-333.7"/>
<polygon fill="none" stroke="#000000" points="370.5,-333.7 370.5,-356.7 747.5,-356.7 747.5,-333.7 370.5,-333.7"/>
<text text-anchor="start" x="375.5" y="-342.3" font-family="Helvetica,sans-Serif" font-weight="bold" font-size="11.00" fill="#000000">prison_configuration_audit</text>
<text text-anchor="start" x="712.5437" y="-341.8" font-family="Helvetica,sans-Serif" font-size="11.00" fill="#000000">[table]</text>
<polygon fill="none" stroke="#000000" points="370.5,-311.7 370.5,-333.7 747.5,-333.7 747.5,-311.7 370.5,-311.7"/>
<image xlink:href="../../images/primaryKeys.png" width="11px" height="12px" preserveAspectRatio="xMinYMin meet" x="375.5" y="-328.7"/>
<text text-anchor="start" x="390.5" y="-318.8" font-family="Helvetica,sans-Serif" font-size="11.00" fill="#000000">rev_id</text>
<polygon fill="none" stroke="#000000" points="370.5,-289.7 370.5,-311.7 747.5,-311.7 747.5,-289.7 370.5,-289.7"/>
<image xlink:href="../../images/primaryKeys.png" width="11px" height="12px" preserveAspectRatio="xMinYMin meet" x="375.5" y="-306.7"/>
<text text-anchor="start" x="390.5" y="-296.8" font-family="Helvetica,sans-Serif" font-size="11.00" fill="#000000">id</text>
<polygon fill="none" stroke="#000000" points="370.5,-267.7 370.5,-289.7 747.5,-289.7 747.5,-267.7 370.5,-267.7"/>
<image xlink:href="../../images/foreignKeys.png" width="11px" height="12px" preserveAspectRatio="xMinYMin meet" x="375.5" y="-284.7"/>
<text text-anchor="start" x="390.5" y="-274.8" font-family="Helvetica,sans-Serif" font-size="11.00" fill="#000000">prison_code</text>
<polygon fill="none" stroke="#000000" points="370.5,-245.7 370.5,-267.7 747.5,-267.7 747.5,-245.7 370.5,-245.7"/>
<image xlink:href="../../images/foreignKeys.png" width="11px" height="12px" preserveAspectRatio="xMinYMin meet" x="375.5" y="-262.7"/>
<text text-anchor="start" x="390.5" y="-252.8" font-family="Helvetica,sans-Serif" font-size="11.00" fill="#000000">policy_code</text>
<polygon fill="none" stroke="#000000" points="370.5,-226.7 370.5,-245.7 747.5,-245.7 747.5,-226.7 370.5,-226.7"/>
<text text-anchor="start" x="373.5" y="-232.8" font-family="Helvetica,sans-Serif" font-size="11.00" fill="#000000">...</text>
<polygon fill="#ffffff" stroke="transparent" points="370.5,-207.7 370.5,-226.7 557.5,-226.7 557.5,-207.7 370.5,-207.7"/>
<polygon fill="none" stroke="#000000" points="370.5,-207.7 370.5,-226.7 557.5,-226.7 557.5,-207.7 370.5,-207.7"/>
<text text-anchor="start" x="373.5" y="-213.8" font-family="Helvetica,sans-Serif" font-size="11.00" fill="#000000">&lt; 3</text>
<polygon fill="#ffffff" stroke="transparent" points="557.5,-207.7 557.5,-226.7 652.5,-226.7 652.5,-207.7 557.5,-207.7"/>
<polygon fill="none" stroke="#000000" points="557.5,-207.7 557.5,-226.7 652.5,-226.7 652.5,-207.7 557.5,-207.7"/>
<text text-anchor="start" x="643.3862" y="-213.8" font-family="Helvetica,sans-Serif" font-size="11.00" fill="#000000"> &#160;</text>
<polygon fill="#ffffff" stroke="transparent" points="652.5,-207.7 652.5,-226.7 747.5,-226.7 747.5,-207.7 652.5,-207.7"/>
<polygon fill="none" stroke="#000000" points="652.5,-207.7 652.5,-226.7 747.5,-226.7 747.5,-207.7 652.5,-207.7"/>
<text text-anchor="start" x="738.3862" y="-213.8" font-family="Helvetica,sans-Serif" font-size="11.00" fill="#000000"> &#160;</text>
</a>
</g>
</g>
<!-- prison_configuration_audit&#45;&gt;prison_migration_date_history -->
<g id="edge6" class="edge">
<title>prison_configuration_audit:w&#45;&gt;prison_migration_date_history:e</title>
<path fill="none" stroke="#000000" stroke-dasharray="5,2" d="M357.2271,-284.7556C321.7323,-324.3497 374.2803,-544.7 319.5,-544.7"/>
<polygon fill="#000000" stroke="#000000" points="363.2217,-282.0206 371.9943,-281.9752 366.8608,-280.3603 370.5,-278.7 370.5,-278.7 370.5,-278.7 366.8608,-280.3603 369.0057,-275.4248 363.2217,-282.0206 363.2217,-282.0206"/>
<ellipse fill="none" stroke="#000000" cx="360.3104" cy="-283.3489" rx="3.2" ry="3.2"/>
</g>
<!-- prison_configuration_audit&#45;&gt;policy -->
<g id="edge5" class="edge">
<title>prison_configuration_audit:w&#45;&gt;policy:e</title>
<path fill="none" stroke="#000000" stroke-dasharray="5,2" d="M356.0619,-257.2184C291.9201,-261.9645 274.8512,-297.7 203.5,-297.7"/>
<polygon fill="#000000" stroke="#000000" points="362.5052,-256.9871 370.6292,-260.2977 366.5026,-256.8436 370.5,-256.7 370.5,-256.7 370.5,-256.7 366.5026,-256.8436 370.3708,-253.1023 362.5052,-256.9871 362.5052,-256.9871"/>
<ellipse fill="none" stroke="#000000" cx="359.3072" cy="-257.1019" rx="3.2" ry="3.2"/>
</g>
<!-- audit_revision -->
<g id="node7" class="node">
<title>audit_revision</title>
<g id="a_node7"><a xlink:href="../../tables/audit_revision.html" xlink:title="audit_revision" target="_top">
<polygon fill="#ffffff" stroke="transparent" points="97.5,-177.2 97.5,-238.2 231.5,-238.2 231.5,-177.2 97.5,-177.2"/>
<polygon fill="#f5f5f5" stroke="transparent" points="97.5,-214.7 97.5,-237.7 231.5,-237.7 231.5,-214.7 97.5,-214.7"/>
<polygon fill="none" stroke="#000000" points="97.5,-214.7 97.5,-237.7 231.5,-237.7 231.5,-214.7 97.5,-214.7"/>
<text text-anchor="start" x="102.5" y="-223.3" font-family="Helvetica,sans-Serif" font-weight="bold" font-size="11.00" fill="#000000">audit_revision</text>
<text text-anchor="start" x="197.0219" y="-222.8" font-family="Helvetica,sans-Serif" font-size="11.00" fill="#000000">[table]</text>
<polygon fill="none" stroke="#000000" points="97.5,-195.7 97.5,-214.7 231.5,-214.7 231.5,-195.7 97.5,-195.7"/>
<text text-anchor="start" x="100.5" y="-201.8" font-family="Helvetica,sans-Serif" font-size="11.00" fill="#000000">...</text>
<polygon fill="#ffffff" stroke="transparent" points="97.5,-176.7 97.5,-195.7 153.5,-195.7 153.5,-176.7 97.5,-176.7"/>
<polygon fill="none" stroke="#000000" points="97.5,-176.7 97.5,-195.7 153.5,-195.7 153.5,-176.7 97.5,-176.7"/>
<text text-anchor="start" x="100.5" y="-182.8" font-family="Helvetica,sans-Serif" font-size="11.00" fill="#000000"> &#160;</text>
<polygon fill="#ffffff" stroke="transparent" points="153.5,-176.7 153.5,-195.7 187.5,-195.7 187.5,-176.7 153.5,-176.7"/>
<polygon fill="none" stroke="#000000" points="153.5,-176.7 153.5,-195.7 187.5,-195.7 187.5,-176.7 153.5,-176.7"/>
<text text-anchor="start" x="178.3862" y="-182.8" font-family="Helvetica,sans-Serif" font-size="11.00" fill="#000000"> &#160;</text>
<polygon fill="#ffffff" stroke="transparent" points="187.5,-176.7 187.5,-195.7 231.5,-195.7 231.5,-176.7 187.5,-176.7"/>
<polygon fill="none" stroke="#000000" points="187.5,-176.7 187.5,-195.7 231.5,-195.7 231.5,-176.7 187.5,-176.7"/>
<text text-anchor="start" x="212.9053" y="-182.8" font-family="Helvetica,sans-Serif" font-size="11.00" fill="#000000">3 &gt;</text>
</a>
</g>
</g>
<!-- prison_configuration_audit&#45;&gt;audit_revision -->
<g id="edge7" class="edge">
<title>prison_configuration_audit:w&#45;&gt;audit_revision:e</title>
<path fill="none" stroke="#000000" d="M356.32,-318.8465C341.7302,-308.2605 348.9151,-278.2885 329,-259.7 292.6291,-225.752 281.2525,-204.7 231.5,-204.7"/>
<polygon fill="#000000" stroke="#000000" points="362.78,-320.602 369.5559,-326.174 366.64,-321.651 370.5,-322.7 370.5,-322.7 370.5,-322.7 366.64,-321.651 371.4441,-319.226 362.78,-320.602 362.78,-320.602"/>
<ellipse fill="none" stroke="#000000" cx="359.692" cy="-319.7628" rx="3.2" ry="3.2"/>
</g>
<!-- staff_role -->
<g id="node8" class="node">
<title>staff_role</title>
<g id="a_node8"><a xlink:href="../../tables/staff_role.html" xlink:title="staff_role" target="_top">
<polygon fill="#ffffff" stroke="transparent" points="490.5,-378.2 490.5,-527.2 626.5,-527.2 626.5,-378.2 490.5,-378.2"/>
<polygon fill="#f5f5f5" stroke="transparent" points="490.5,-503.7 490.5,-526.7 626.5,-526.7 626.5,-503.7 490.5,-503.7"/>
<polygon fill="none" stroke="#000000" points="490.5,-503.7 490.5,-526.7 626.5,-526.7 626.5,-503.7 490.5,-503.7"/>
<text text-anchor="start" x="495.5" y="-512.3" font-family="Helvetica,sans-Serif" font-weight="bold" font-size="11.00" fill="#000000">staff_role</text>
<text text-anchor="start" x="591.5437" y="-511.8" font-family="Helvetica,sans-Serif" font-size="11.00" fill="#000000">[table]</text>
<polygon fill="none" stroke="#000000" points="490.5,-481.7 490.5,-503.7 626.5,-503.7 626.5,-481.7 490.5,-481.7"/>
<image xlink:href="../../images/primaryKeys.png" width="11px" height="12px" preserveAspectRatio="xMinYMin meet" x="495.5" y="-498.7"/>
<text text-anchor="start" x="510.5" y="-488.8" font-family="Helvetica,sans-Serif" font-size="11.00" fill="#000000">id</text>
<polygon fill="#ffffff" stroke="transparent" points="490.5,-459.7 490.5,-481.7 626.5,-481.7 626.5,-459.7 490.5,-459.7"/>
<polygon fill="none" stroke="#000000" points="490.5,-459.7 490.5,-481.7 626.5,-481.7 626.5,-459.7 490.5,-459.7"/>
<image xlink:href="../../images/foreignKeys.png" width="11px" height="12px" preserveAspectRatio="xMinYMin meet" x="495.5" y="-476.7"/>
<text text-anchor="start" x="510.5" y="-466.8" font-family="Helvetica,sans-Serif" font-size="11.00" fill="#000000">policy_code</text>
<polygon fill="#ffffff" stroke="transparent" points="490.5,-437.7 490.5,-459.7 626.5,-459.7 626.5,-437.7 490.5,-437.7"/>
<polygon fill="none" stroke="#000000" points="490.5,-437.7 490.5,-459.7 626.5,-459.7 626.5,-437.7 490.5,-437.7"/>
<image xlink:href="../../images/foreignKeys.png" width="11px" height="12px" preserveAspectRatio="xMinYMin meet" x="495.5" y="-454.7"/>
<text text-anchor="start" x="510.5" y="-444.8" font-family="Helvetica,sans-Serif" font-size="11.00" fill="#000000">prison_code</text>
<polygon fill="#ffffff" stroke="transparent" points="490.5,-415.7 490.5,-437.7 626.5,-437.7 626.5,-415.7 490.5,-415.7"/>
<polygon fill="none" stroke="#000000" points="490.5,-415.7 490.5,-437.7 626.5,-437.7 626.5,-415.7 490.5,-415.7"/>
<text text-anchor="start" x="510.5" y="-422.8" font-family="Helvetica,sans-Serif" font-size="11.00" fill="#000000">staff_id</text>
<polygon fill="none" stroke="#000000" points="490.5,-396.7 490.5,-415.7 626.5,-415.7 626.5,-396.7 490.5,-396.7"/>
<text text-anchor="start" x="493.5" y="-402.8" font-family="Helvetica,sans-Serif" font-size="11.00" fill="#000000">...</text>
<polygon fill="#ffffff" stroke="transparent" points="490.5,-377.7 490.5,-396.7 556.5,-396.7 556.5,-377.7 490.5,-377.7"/>
<polygon fill="none" stroke="#000000" points="490.5,-377.7 490.5,-396.7 556.5,-396.7 556.5,-377.7 490.5,-377.7"/>
<text text-anchor="start" x="493.5" y="-383.8" font-family="Helvetica,sans-Serif" font-size="11.00" fill="#000000">&lt; 2</text>
<polygon fill="#ffffff" stroke="transparent" points="556.5,-377.7 556.5,-396.7 591.5,-396.7 591.5,-377.7 556.5,-377.7"/>
<polygon fill="none" stroke="#000000" points="556.5,-377.7 556.5,-396.7 591.5,-396.7 591.5,-377.7 556.5,-377.7"/>
<text text-anchor="start" x="582.3862" y="-383.8" font-family="Helvetica,sans-Serif" font-size="11.00" fill="#000000"> &#160;</text>
<polygon fill="#ffffff" stroke="transparent" points="591.5,-377.7 591.5,-396.7 626.5,-396.7 626.5,-377.7 591.5,-377.7"/>
<polygon fill="none" stroke="#000000" points="591.5,-377.7 591.5,-396.7 626.5,-396.7 626.5,-377.7 591.5,-377.7"/>
<text text-anchor="start" x="617.3862" y="-383.8" font-family="Helvetica,sans-Serif" font-size="11.00" fill="#000000"> &#160;</text>
</a>
</g>
</g>
<!-- staff_role&#45;&gt;prison_migration_date_history -->
<g id="edge9" class="edge">
<title>staff_role:w&#45;&gt;prison_migration_date_history:e</title>
<path fill="none" stroke="#000000" stroke-dasharray="5,2" d="M476.0748,-449.6501C403.4203,-459.6204 401.5507,-544.7 319.5,-544.7"/>
<polygon fill="#000000" stroke="#000000" points="482.5173,-449.2258 490.7366,-452.2922 486.5086,-448.9629 490.5,-448.7 490.5,-448.7 490.5,-448.7 486.5086,-448.9629 490.2634,-445.1078 482.5173,-449.2258 482.5173,-449.2258"/>
<ellipse fill="none" stroke="#000000" cx="479.3242" cy="-449.4362" rx="3.2" ry="3.2"/>
</g>
<!-- staff_role&#45;&gt;policy -->
<g id="edge8" class="edge">
<title>staff_role:w&#45;&gt;policy:e</title>
<path fill="none" stroke="#000000" stroke-dasharray="5,2" d="M475.7754,-470.1075C342.1194,-459.0759 347.3467,-297.7 203.5,-297.7"/>
<polygon fill="#000000" stroke="#000000" points="482.5065,-470.3783 490.3552,-474.2971 486.5032,-470.5391 490.5,-470.7 490.5,-470.7 490.5,-470.7 486.5032,-470.5391 490.6448,-467.1029 482.5065,-470.3783 482.5065,-470.3783"/>
<ellipse fill="none" stroke="#000000" cx="479.3091" cy="-470.2496" rx="3.2" ry="3.2"/>
</g>
<!-- staff_role_audit -->
<g id="node9" class="node">
<title>staff_role_audit</title>
<g id="a_node9"><a xlink:href="../../tables/staff_role_audit.html" xlink:title="staff_role_audit" target="_top">
<polygon fill="#ffffff" stroke="transparent" points="461.5,-38.2 461.5,-187.2 655.5,-187.2 655.5,-38.2 461.5,-38.2"/>
<polygon fill="#f5f5f5" stroke="transparent" points="461.5,-163.7 461.5,-186.7 655.5,-186.7 655.5,-163.7 461.5,-163.7"/>
<polygon fill="none" stroke="#000000" points="461.5,-163.7 461.5,-186.7 655.5,-186.7 655.5,-163.7 461.5,-163.7"/>
<text text-anchor="start" x="466.5" y="-172.3" font-family="Helvetica,sans-Serif" font-weight="bold" font-size="11.00" fill="#000000">staff_role_audit</text>
<text text-anchor="start" x="620.5437" y="-171.8" font-family="Helvetica,sans-Serif" font-size="11.00" fill="#000000">[table]</text>
<polygon fill="none" stroke="#000000" points="461.5,-141.7 461.5,-163.7 655.5,-163.7 655.5,-141.7 461.5,-141.7"/>
<image xlink:href="../../images/primaryKeys.png" width="11px" height="12px" preserveAspectRatio="xMinYMin meet" x="466.5" y="-158.7"/>
<text text-anchor="start" x="481.5" y="-148.8" font-family="Helvetica,sans-Serif" font-size="11.00" fill="#000000">rev_id</text>
<polygon fill="none" stroke="#000000" points="461.5,-119.7 461.5,-141.7 655.5,-141.7 655.5,-119.7 461.5,-119.7"/>
<image xlink:href="../../images/primaryKeys.png" width="11px" height="12px" preserveAspectRatio="xMinYMin meet" x="466.5" y="-136.7"/>
<text text-anchor="start" x="481.5" y="-126.8" font-family="Helvetica,sans-Serif" font-size="11.00" fill="#000000">id</text>
<polygon fill="none" stroke="#000000" points="461.5,-97.7 461.5,-119.7 655.5,-119.7 655.5,-97.7 461.5,-97.7"/>
<image xlink:href="../../images/foreignKeys.png" width="11px" height="12px" preserveAspectRatio="xMinYMin meet" x="466.5" y="-114.7"/>
<text text-anchor="start" x="481.5" y="-104.8" font-family="Helvetica,sans-Serif" font-size="11.00" fill="#000000">policy_code</text>
<polygon fill="none" stroke="#000000" points="461.5,-75.7 461.5,-97.7 655.5,-97.7 655.5,-75.7 461.5,-75.7"/>
<image xlink:href="../../images/foreignKeys.png" width="11px" height="12px" preserveAspectRatio="xMinYMin meet" x="466.5" y="-92.7"/>
<text text-anchor="start" x="481.5" y="-82.8" font-family="Helvetica,sans-Serif" font-size="11.00" fill="#000000">prison_code</text>
<polygon fill="none" stroke="#000000" points="461.5,-56.7 461.5,-75.7 655.5,-75.7 655.5,-56.7 461.5,-56.7"/>
<text text-anchor="start" x="464.5" y="-62.8" font-family="Helvetica,sans-Serif" font-size="11.00" fill="#000000">...</text>
<polygon fill="#ffffff" stroke="transparent" points="461.5,-37.7 461.5,-56.7 556.5,-56.7 556.5,-37.7 461.5,-37.7"/>
<polygon fill="none" stroke="#000000" points="461.5,-37.7 461.5,-56.7 556.5,-56.7 556.5,-37.7 461.5,-37.7"/>
<text text-anchor="start" x="464.5" y="-43.8" font-family="Helvetica,sans-Serif" font-size="11.00" fill="#000000">&lt; 3</text>
<polygon fill="#ffffff" stroke="transparent" points="556.5,-37.7 556.5,-56.7 605.5,-56.7 605.5,-37.7 556.5,-37.7"/>
<polygon fill="none" stroke="#000000" points="556.5,-37.7 556.5,-56.7 605.5,-56.7 605.5,-37.7 556.5,-37.7"/>
<text text-anchor="start" x="596.3862" y="-43.8" font-family="Helvetica,sans-Serif" font-size="11.00" fill="#000000"> &#160;</text>
<polygon fill="#ffffff" stroke="transparent" points="605.5,-37.7 605.5,-56.7 655.5,-56.7 655.5,-37.7 605.5,-37.7"/>
<polygon fill="none" stroke="#000000" points="605.5,-37.7 605.5,-56.7 655.5,-56.7 655.5,-37.7 605.5,-37.7"/>
<text text-anchor="start" x="646.3862" y="-43.8" font-family="Helvetica,sans-Serif" font-size="11.00" fill="#000000"> &#160;</text>
</a>
</g>
</g>
<!-- staff_role_audit&#45;&gt;prison_migration_date_history -->
<g id="edge11" class="edge">
<title>staff_role_audit:w&#45;&gt;prison_migration_date_history:e</title>
<path fill="none" stroke="#000000" stroke-dasharray="5,2" d="M447.039,-87.6084C394.2021,-94.6773 387.258,-142.0909 362,-197.7 329.8727,-268.433 397.1873,-544.7 319.5,-544.7"/>
<polygon fill="#000000" stroke="#000000" points="453.5157,-87.2016 461.7257,-90.2929 457.5079,-86.9508 461.5,-86.7 461.5,-86.7 461.5,-86.7 457.5079,-86.9508 461.2743,-83.1071 453.5157,-87.2016 453.5157,-87.2016"/>
<ellipse fill="none" stroke="#000000" cx="450.322" cy="-87.4022" rx="3.2" ry="3.2"/>
</g>
<!-- staff_role_audit&#45;&gt;policy -->
<g id="edge10" class="edge">
<title>staff_role_audit:w&#45;&gt;policy:e</title>
<path fill="none" stroke="#000000" stroke-dasharray="5,2" d="M447.1295,-109.6887C401.6017,-116.4285 397.1797,-156.5778 362,-197.7 344.4495,-218.2151 349.9186,-231.6324 329,-248.7 282.6049,-286.554 263.3785,-297.7 203.5,-297.7"/>
<polygon fill="#000000" stroke="#000000" points="453.5189,-109.2492 461.7471,-112.2915 457.5094,-108.9746 461.5,-108.7 461.5,-108.7 461.5,-108.7 457.5094,-108.9746 461.2529,-105.1085 453.5189,-109.2492 453.5189,-109.2492"/>
<ellipse fill="none" stroke="#000000" cx="450.3264" cy="-109.4688" rx="3.2" ry="3.2"/>
</g>
<!-- staff_role_audit&#45;&gt;audit_revision -->
<g id="edge12" class="edge">
<title>staff_role_audit:w&#45;&gt;audit_revision:e</title>
<path fill="none" stroke="#000000" d="M447.0165,-153.0458C354.5526,-157.5575 331.2873,-204.7 231.5,-204.7"/>
<polygon fill="#000000" stroke="#000000" points="453.5023,-152.891 461.586,-156.299 457.5011,-152.7955 461.5,-152.7 461.5,-152.7 461.5,-152.7 457.5011,-152.7955 461.414,-149.101 453.5023,-152.891 453.5023,-152.891"/>
<ellipse fill="none" stroke="#000000" cx="450.3032" cy="-152.9674" rx="3.2" ry="3.2"/>
</g>
</g>
</svg>
