<?xml version="1.0" encoding="UTF-8" standalone="no"?>
<!DOCTYPE svg PUBLIC "-//W3C//DTD SVG 1.1//EN"
 "http://www.w3.org/Graphics/SVG/1.1/DTD/svg11.dtd">
<!-- Generated by graphviz version 2.40.1 (20161225.0304)
 -->
<!-- Title: oneDegreeRelationshipsDiagram Pages: 1 -->
<svg width="580pt" height="294pt"
 viewBox="0.00 0.00 580.00 294.20" xmlns="http://www.w3.org/2000/svg" xmlns:xlink="http://www.w3.org/1999/xlink">
<g id="graph0" class="graph" transform="scale(1 1) rotate(0) translate(4 290.2)">
<title>oneDegreeRelationshipsDiagram</title>
<polygon fill="#ffffff" stroke="transparent" points="-4,4 -4,-290.2 576,-290.2 576,4 -4,4"/>
<text text-anchor="middle" x="72.4936" y="-7.3" font-family="Helvetica,sans-Serif" font-size="11.00" fill="#000000">Generated by SchemaSpy</text>
<!-- prison_configuration -->
<g id="node1" class="node">
<title>prison_configuration</title>
<g id="a_node1"><a xlink:href="../../tables/prison_configuration.html" xlink:title="prison_configuration" target="_top">
<polygon fill="#ffffff" stroke="transparent" points="154,-38.2 154,-282.2 564,-282.2 564,-38.2 154,-38.2"/>
<polygon fill="#f5f5f5" stroke="transparent" points="156,-257.2 156,-280.2 562,-280.2 562,-257.2 156,-257.2"/>
<polygon fill="none" stroke="#000000" points="156,-257.2 156,-280.2 562,-280.2 562,-257.2 156,-257.2"/>
<text text-anchor="start" x="161" y="-265.8" font-family="Helvetica,sans-Serif" font-weight="bold" font-size="11.00" fill="#000000">prison_configuration</text>
<text text-anchor="start" x="527.0437" y="-265.3" font-family="Helvetica,sans-Serif" font-size="11.00" fill="#000000">[table]</text>
<polygon fill="#ffffff" stroke="transparent" points="156,-235.2 156,-257.2 468,-257.2 468,-235.2 156,-235.2"/>
<polygon fill="none" stroke="#000000" points="156,-235.2 156,-257.2 468,-257.2 468,-235.2 156,-235.2"/>
<image xlink:href="../../images/foreignKeys.png" width="11px" height="12px" preserveAspectRatio="xMinYMin meet" x="161" y="-252.2"/>
<text text-anchor="start" x="176" y="-242.3" font-family="Helvetica,sans-Serif" font-size="11.00" fill="#000000">prison_code</text>
<polygon fill="none" stroke="#000000" points="468,-235.2 468,-257.2 562,-257.2 562,-235.2 468,-235.2"/>
<text text-anchor="start" x="471" y="-242.9" font-family="Helvetica,sans-Serif" font-size="11.00" fill="#000000">varchar[6]</text>
<polygon fill="none" stroke="#000000" points="156,-213.2 156,-235.2 468,-235.2 468,-213.2 156,-213.2"/>
<text text-anchor="start" x="176" y="-220.3" font-family="Helvetica,sans-Serif" font-size="11.00" fill="#000000">allow_auto_allocation</text>
<polygon fill="none" stroke="#000000" points="468,-213.2 468,-235.2 562,-235.2 562,-213.2 468,-213.2"/>
<text text-anchor="start" x="471" y="-220.9" font-family="Helvetica,sans-Serif" font-size="11.00" fill="#000000">bool[1]</text>
<polygon fill="none" stroke="#000000" points="156,-191.2 156,-213.2 468,-213.2 468,-191.2 156,-191.2"/>
<text text-anchor="start" x="176" y="-198.3" font-family="Helvetica,sans-Serif" font-size="11.00" fill="#000000">is_enabled</text>
<polygon fill="none" stroke="#000000" points="468,-191.2 468,-213.2 562,-213.2 562,-191.2 468,-191.2"/>
<text text-anchor="start" x="471" y="-198.9" font-family="Helvetica,sans-Serif" font-size="11.00" fill="#000000">bool[1]</text>
<polygon fill="none" stroke="#000000" points="156,-169.2 156,-191.2 468,-191.2 468,-169.2 156,-169.2"/>
<text text-anchor="start" x="176" y="-176.3" font-family="Helvetica,sans-Serif" font-size="11.00" fill="#000000">capacity</text>
<polygon fill="none" stroke="#000000" points="468,-169.2 468,-191.2 562,-191.2 562,-169.2 468,-169.2"/>
<text text-anchor="start" x="471" y="-176.9" font-family="Helvetica,sans-Serif" font-size="11.00" fill="#000000">int4[10]</text>
<polygon fill="none" stroke="#000000" points="156,-147.2 156,-169.2 468,-169.2 468,-147.2 156,-147.2"/>
<text text-anchor="start" x="176" y="-154.3" font-family="Helvetica,sans-Serif" font-size="11.00" fill="#000000">frequency_in_weeks</text>
<polygon fill="none" stroke="#000000" points="468,-147.2 468,-169.2 562,-169.2 562,-147.2 468,-147.2"/>
<text text-anchor="start" x="471" y="-154.9" font-family="Helvetica,sans-Serif" font-size="11.00" fill="#000000">int4[10]</text>
<polygon fill="none" stroke="#000000" points="156,-125.2 156,-147.2 468,-147.2 468,-125.2 156,-125.2"/>
<text text-anchor="start" x="176" y="-132.3" font-family="Helvetica,sans-Serif" font-size="11.00" fill="#000000">has_prisoners_with_high_complexity_needs</text>
<polygon fill="none" stroke="#000000" points="468,-125.2 468,-147.2 562,-147.2 562,-125.2 468,-125.2"/>
<text text-anchor="start" x="471" y="-132.9" font-family="Helvetica,sans-Serif" font-size="11.00" fill="#000000">bool[1]</text>
<polygon fill="#ffffff" stroke="transparent" points="156,-103.2 156,-125.2 468,-125.2 468,-103.2 156,-103.2"/>
<polygon fill="none" stroke="#000000" points="156,-103.2 156,-125.2 468,-125.2 468,-103.2 156,-103.2"/>
<image xlink:href="../../images/foreignKeys.png" width="11px" height="12px" preserveAspectRatio="xMinYMin meet" x="161" y="-120.2"/>
<text text-anchor="start" x="176" y="-110.3" font-family="Helvetica,sans-Serif" font-size="11.00" fill="#000000">policy_code</text>
<polygon fill="none" stroke="#000000" points="468,-103.2 468,-125.2 562,-125.2 562,-103.2 468,-103.2"/>
<text text-anchor="start" x="471" y="-110.9" font-family="Helvetica,sans-Serif" font-size="11.00" fill="#000000">varchar[16]</text>
<polygon fill="none" stroke="#000000" points="156,-81.2 156,-103.2 468,-103.2 468,-81.2 156,-81.2"/>
<image xlink:href="../../images/primaryKeys.png" width="11px" height="12px" preserveAspectRatio="xMinYMin meet" x="161" y="-98.2"/>
<text text-anchor="start" x="176" y="-88.3" font-family="Helvetica,sans-Serif" font-size="11.00" fill="#000000">id</text>
<polygon fill="none" stroke="#000000" points="468,-81.2 468,-103.2 562,-103.2 562,-81.2 468,-81.2"/>
<text text-anchor="start" x="470.9758" y="-88.9" font-family="Helvetica,sans-Serif" font-size="11.00" fill="#000000">uuid[2147483647]</text>
<polygon fill="none" stroke="#000000" points="156,-59.2 156,-81.2 468,-81.2 468,-59.2 156,-59.2"/>
<text text-anchor="start" x="176" y="-66.3" font-family="Helvetica,sans-Serif" font-size="11.00" fill="#000000">allocation_order</text>
<polygon fill="none" stroke="#000000" points="468,-59.2 468,-81.2 562,-81.2 562,-59.2 468,-59.2"/>
<text text-anchor="start" x="471" y="-66.9" font-family="Helvetica,sans-Serif" font-size="11.00" fill="#000000">varchar[15]</text>
<polygon fill="#ffffff" stroke="transparent" points="156,-40.2 156,-59.2 300,-59.2 300,-40.2 156,-40.2"/>
<polygon fill="none" stroke="#000000" points="156,-40.2 156,-59.2 300,-59.2 300,-40.2 156,-40.2"/>
<text text-anchor="start" x="159" y="-46.3" font-family="Helvetica,sans-Serif" font-size="11.00" fill="#000000">&lt; 1</text>
<polygon fill="#ffffff" stroke="transparent" points="300,-40.2 300,-59.2 468,-59.2 468,-40.2 300,-40.2"/>
<polygon fill="none" stroke="#000000" points="300,-40.2 300,-59.2 468,-59.2 468,-40.2 300,-40.2"/>
<text text-anchor="start" x="426.4956" y="-46.3" font-family="Helvetica,sans-Serif" font-size="11.00" fill="#000000">12 rows</text>
<polygon fill="#ffffff" stroke="transparent" points="468,-40.2 468,-59.2 562,-59.2 562,-40.2 468,-40.2"/>
<polygon fill="none" stroke="#000000" points="468,-40.2 468,-59.2 562,-59.2 562,-40.2 468,-40.2"/>
<text text-anchor="start" x="543.4053" y="-46.3" font-family="Helvetica,sans-Serif" font-size="11.00" fill="#000000">0 &gt;</text>
<polygon fill="none" stroke="#000000" stroke-width="2" points="155,-39.2 155,-281.2 563,-281.2 563,-39.2 155,-39.2"/>
</a>
</g>
</g>
<!-- policy -->
<g id="node2" class="node">
<title>policy</title>
<g id="a_node2"><a xlink:href="../../tables/policy.html" xlink:title="policy" target="_top">
<polygon fill="#ffffff" stroke="transparent" points="8,-65.7 8,-148.7 105,-148.7 105,-65.7 8,-65.7"/>
<polygon fill="#f5f5f5" stroke="transparent" points="8.5,-125.2 8.5,-148.2 105.5,-148.2 105.5,-125.2 8.5,-125.2"/>
<polygon fill="none" stroke="#000000" points="8.5,-125.2 8.5,-148.2 105.5,-148.2 105.5,-125.2 8.5,-125.2"/>
<text text-anchor="start" x="13.5" y="-133.8" font-family="Helvetica,sans-Serif" font-weight="bold" font-size="11.00" fill="#000000">policy</text>
<text text-anchor="start" x="70.5437" y="-133.3" font-family="Helvetica,sans-Serif" font-size="11.00" fill="#000000">[table]</text>
<polygon fill="none" stroke="#000000" points="8.5,-103.2 8.5,-125.2 105.5,-125.2 105.5,-103.2 8.5,-103.2"/>
<image xlink:href="../../images/primaryKeys.png" width="11px" height="12px" preserveAspectRatio="xMinYMin meet" x="13.5" y="-120.2"/>
<text text-anchor="start" x="28.5" y="-110.3" font-family="Helvetica,sans-Serif" font-size="11.00" fill="#000000">code</text>
<polygon fill="none" stroke="#000000" points="8.5,-84.2 8.5,-103.2 105.5,-103.2 105.5,-84.2 8.5,-84.2"/>
<text text-anchor="start" x="11.5" y="-90.3" font-family="Helvetica,sans-Serif" font-size="11.00" fill="#000000">...</text>
<polygon fill="#ffffff" stroke="transparent" points="8.5,-65.2 8.5,-84.2 46.5,-84.2 46.5,-65.2 8.5,-65.2"/>
<polygon fill="none" stroke="#000000" points="8.5,-65.2 8.5,-84.2 46.5,-84.2 46.5,-65.2 8.5,-65.2"/>
<text text-anchor="start" x="11.5" y="-71.3" font-family="Helvetica,sans-Serif" font-size="11.00" fill="#000000"> &#160;</text>
<polygon fill="#ffffff" stroke="transparent" points="46.5,-65.2 46.5,-84.2 71.5,-84.2 71.5,-65.2 46.5,-65.2"/>
<polygon fill="none" stroke="#000000" points="46.5,-65.2 46.5,-84.2 71.5,-84.2 71.5,-65.2 46.5,-65.2"/>
<text text-anchor="start" x="62.3862" y="-71.3" font-family="Helvetica,sans-Serif" font-size="11.00" fill="#000000"> &#160;</text>
<polygon fill="#ffffff" stroke="transparent" points="71.5,-65.2 71.5,-84.2 105.5,-84.2 105.5,-65.2 71.5,-65.2"/>
<polygon fill="none" stroke="#000000" points="71.5,-65.2 71.5,-84.2 105.5,-84.2 105.5,-65.2 71.5,-65.2"/>
<text text-anchor="start" x="86.9053" y="-71.3" font-family="Helvetica,sans-Serif" font-size="11.00" fill="#000000">7 &gt;</text>
</a>
</g>
</g>
<!-- prison_configuration&#45;&gt;policy -->
<g id="edge1" class="edge">
<title>prison_configuration:w&#45;&gt;policy:e</title>
<path fill="none" stroke="#000000" d="M141.4203,-114.2C129.5435,-114.2 122.158,-114.2 105.5,-114.2"/>
<polygon fill="#000000" stroke="#000000" points="148,-114.2001 156,-117.8 152,-114.2 156,-114.2 156,-114.2 156,-114.2 152,-114.2 156,-110.6 148,-114.2001 148,-114.2001"/>
<ellipse fill="none" stroke="#000000" cx="144.8" cy="-114.2001" rx="3.2" ry="3.2"/>
</g>
</g>
</svg>
