<?xml version="1.0" encoding="UTF-8" standalone="no"?>
<!DOCTYPE svg PUBLIC "-//W3C//DTD SVG 1.1//EN"
 "http://www.w3.org/Graphics/SVG/1.1/DTD/svg11.dtd">
<!-- Generated by graphviz version 2.40.1 (20161225.0304)
 -->
<!-- Title: twoDegreesRelationshipsDiagram Pages: 1 -->
<svg width="450pt" height="809pt"
 viewBox="0.00 0.00 450.00 809.20" xmlns="http://www.w3.org/2000/svg" xmlns:xlink="http://www.w3.org/1999/xlink">
<g id="graph0" class="graph" transform="scale(1 1) rotate(0) translate(4 805.2)">
<title>twoDegreesRelationshipsDiagram</title>
<polygon fill="#ffffff" stroke="transparent" points="-4,4 -4,-805.2 446,-805.2 446,4 -4,4"/>
<text text-anchor="middle" x="72.4936" y="-7.3" font-family="Helvetica,sans-Serif" font-size="11.00" fill="#000000">Generated by SchemaSpy</text>
<!-- allocation -->
<g id="node1" class="node">
<title>allocation</title>
<g id="a_node1"><a xlink:href="../../tables/allocation.html" xlink:title="allocation" target="_top">
<polygon fill="#ffffff" stroke="transparent" points="264.5,-736.2 264.5,-797.2 369.5,-797.2 369.5,-736.2 264.5,-736.2"/>
<polygon fill="#f5f5f5" stroke="transparent" points="265,-773.7 265,-796.7 370,-796.7 370,-773.7 265,-773.7"/>
<polygon fill="none" stroke="#000000" points="265,-773.7 265,-796.7 370,-796.7 370,-773.7 265,-773.7"/>
<text text-anchor="start" x="270" y="-782.3" font-family="Helvetica,sans-Serif" font-weight="bold" font-size="11.00" fill="#000000">allocation</text>
<text text-anchor="start" x="335.5219" y="-781.8" font-family="Helvetica,sans-Serif" font-size="11.00" fill="#000000">[table]</text>
<polygon fill="none" stroke="#000000" points="265,-754.7 265,-773.7 370,-773.7 370,-754.7 265,-754.7"/>
<text text-anchor="start" x="268" y="-760.8" font-family="Helvetica,sans-Serif" font-size="11.00" fill="#000000">...</text>
<polygon fill="#ffffff" stroke="transparent" points="265,-735.7 265,-754.7 316,-754.7 316,-735.7 265,-735.7"/>
<polygon fill="none" stroke="#000000" points="265,-735.7 265,-754.7 316,-754.7 316,-735.7 265,-735.7"/>
<text text-anchor="start" x="268" y="-741.8" font-family="Helvetica,sans-Serif" font-size="11.00" fill="#000000">&lt; 3</text>
<polygon fill="#ffffff" stroke="transparent" points="316,-735.7 316,-754.7 343,-754.7 343,-735.7 316,-735.7"/>
<polygon fill="none" stroke="#000000" points="316,-735.7 316,-754.7 343,-754.7 343,-735.7 316,-735.7"/>
<text text-anchor="start" x="333.8862" y="-741.8" font-family="Helvetica,sans-Serif" font-size="11.00" fill="#000000"> &#160;</text>
<polygon fill="#ffffff" stroke="transparent" points="343,-735.7 343,-754.7 370,-754.7 370,-735.7 343,-735.7"/>
<polygon fill="none" stroke="#000000" points="343,-735.7 343,-754.7 370,-754.7 370,-735.7 343,-735.7"/>
<text text-anchor="start" x="360.8862" y="-741.8" font-family="Helvetica,sans-Serif" font-size="11.00" fill="#000000"> &#160;</text>
</a>
</g>
</g>
<!-- reference_data -->
<g id="node2" class="node">
<title>reference_data</title>
<g id="a_node2"><a xlink:href="../../tables/reference_data.html" xlink:title="reference_data" target="_top">
<polygon fill="#ffffff" stroke="transparent" points="8,-366.2 8,-515.2 151,-515.2 151,-366.2 8,-366.2"/>
<polygon fill="#f5f5f5" stroke="transparent" points="8.5,-491.7 8.5,-514.7 151.5,-514.7 151.5,-491.7 8.5,-491.7"/>
<polygon fill="none" stroke="#000000" points="8.5,-491.7 8.5,-514.7 151.5,-514.7 151.5,-491.7 8.5,-491.7"/>
<text text-anchor="start" x="13.5" y="-500.3" font-family="Helvetica,sans-Serif" font-weight="bold" font-size="11.00" fill="#000000">reference_data</text>
<text text-anchor="start" x="116.5437" y="-499.8" font-family="Helvetica,sans-Serif" font-size="11.00" fill="#000000">[table]</text>
<polygon fill="none" stroke="#000000" points="8.5,-469.7 8.5,-491.7 151.5,-491.7 151.5,-469.7 8.5,-469.7"/>
<image xlink:href="../../images/primaryKeys.png" width="11px" height="12px" preserveAspectRatio="xMinYMin meet" x="13.5" y="-486.7"/>
<text text-anchor="start" x="28.5" y="-476.8" font-family="Helvetica,sans-Serif" font-size="11.00" fill="#000000">id</text>
<polygon fill="#ffffff" stroke="transparent" points="8.5,-447.7 8.5,-469.7 151.5,-469.7 151.5,-447.7 8.5,-447.7"/>
<polygon fill="none" stroke="#000000" points="8.5,-447.7 8.5,-469.7 151.5,-469.7 151.5,-447.7 8.5,-447.7"/>
<text text-anchor="start" x="28.5" y="-454.8" font-family="Helvetica,sans-Serif" font-size="11.00" fill="#000000">domain</text>
<polygon fill="#ffffff" stroke="transparent" points="8.5,-425.7 8.5,-447.7 151.5,-447.7 151.5,-425.7 8.5,-425.7"/>
<polygon fill="none" stroke="#000000" points="8.5,-425.7 8.5,-447.7 151.5,-447.7 151.5,-425.7 8.5,-425.7"/>
<text text-anchor="start" x="28.5" y="-432.8" font-family="Helvetica,sans-Serif" font-size="11.00" fill="#000000">code</text>
<polygon fill="#ffffff" stroke="transparent" points="8.5,-403.7 8.5,-425.7 151.5,-425.7 151.5,-403.7 8.5,-403.7"/>
<polygon fill="none" stroke="#000000" points="8.5,-403.7 8.5,-425.7 151.5,-425.7 151.5,-403.7 8.5,-403.7"/>
<text text-anchor="start" x="28.5" y="-410.8" font-family="Helvetica,sans-Serif" font-size="11.00" fill="#000000">sequence_number</text>
<polygon fill="none" stroke="#000000" points="8.5,-384.7 8.5,-403.7 151.5,-403.7 151.5,-384.7 8.5,-384.7"/>
<text text-anchor="start" x="11.5" y="-390.8" font-family="Helvetica,sans-Serif" font-size="11.00" fill="#000000">...</text>
<polygon fill="#ffffff" stroke="transparent" points="8.5,-365.7 8.5,-384.7 69.5,-384.7 69.5,-365.7 8.5,-365.7"/>
<polygon fill="none" stroke="#000000" points="8.5,-365.7 8.5,-384.7 69.5,-384.7 69.5,-365.7 8.5,-365.7"/>
<text text-anchor="start" x="11.5" y="-371.8" font-family="Helvetica,sans-Serif" font-size="11.00" fill="#000000"> &#160;</text>
<polygon fill="#ffffff" stroke="transparent" points="69.5,-365.7 69.5,-384.7 105.5,-384.7 105.5,-365.7 69.5,-365.7"/>
<polygon fill="none" stroke="#000000" points="69.5,-365.7 69.5,-384.7 105.5,-384.7 105.5,-365.7 69.5,-365.7"/>
<text text-anchor="start" x="96.3862" y="-371.8" font-family="Helvetica,sans-Serif" font-size="11.00" fill="#000000"> &#160;</text>
<polygon fill="#ffffff" stroke="transparent" points="105.5,-365.7 105.5,-384.7 151.5,-384.7 151.5,-365.7 105.5,-365.7"/>
<polygon fill="none" stroke="#000000" points="105.5,-365.7 105.5,-384.7 151.5,-384.7 151.5,-365.7 105.5,-365.7"/>
<text text-anchor="start" x="132.9053" y="-371.8" font-family="Helvetica,sans-Serif" font-size="11.00" fill="#000000">5 &gt;</text>
</a>
</g>
</g>
<!-- allocation&#45;&gt;reference_data -->
<g id="edge1" class="edge">
<title>allocation:w&#45;&gt;reference_data:e</title>
<path fill="none" stroke="#000000" d="M250.7737,-760.9747C224.0887,-754.9213 210.451,-745.1483 192,-719.7 159.608,-675.0239 206.6833,-474.7 151.5,-480.7"/>
<polygon fill="#000000" stroke="#000000" points="257.1429,-762.1948 264.3227,-767.2357 261.0714,-762.9474 265,-763.7 265,-763.7 265,-763.7 261.0714,-762.9474 265.6773,-760.1643 257.1429,-762.1948 257.1429,-762.1948"/>
<ellipse fill="none" stroke="#000000" cx="254" cy="-761.5927" rx="3.2" ry="3.2"/>
</g>
<!-- allocation&#45;&gt;reference_data -->
<g id="edge2" class="edge">
<title>allocation:w&#45;&gt;reference_data:e</title>
<path fill="none" stroke="#000000" d="M250.4106,-765.7532C223.9646,-767.8321 210.3672,-758.0326 192,-732.7 159.608,-688.0239 206.6833,-487.7 151.5,-480.7"/>
<polygon fill="#000000" stroke="#000000" points="257.0781,-764.8149 265.5017,-767.2649 261.039,-764.2575 265,-763.7 265,-763.7 265,-763.7 261.039,-764.2575 264.4983,-760.1351 257.0781,-764.8149 257.0781,-764.8149"/>
<ellipse fill="none" stroke="#000000" cx="253.9093" cy="-765.2609" rx="3.2" ry="3.2"/>
</g>
<!-- policy -->
<g id="node3" class="node">
<title>policy</title>
<g id="a_node3"><a xlink:href="../../tables/policy.html" xlink:title="policy" target="_top">
<polygon fill="#ffffff" stroke="transparent" points="31,-262.2 31,-345.2 128,-345.2 128,-262.2 31,-262.2"/>
<polygon fill="#f5f5f5" stroke="transparent" points="31.5,-321.7 31.5,-344.7 128.5,-344.7 128.5,-321.7 31.5,-321.7"/>
<polygon fill="none" stroke="#000000" points="31.5,-321.7 31.5,-344.7 128.5,-344.7 128.5,-321.7 31.5,-321.7"/>
<text text-anchor="start" x="36.5" y="-330.3" font-family="Helvetica,sans-Serif" font-weight="bold" font-size="11.00" fill="#000000">policy</text>
<text text-anchor="start" x="93.5437" y="-329.8" font-family="Helvetica,sans-Serif" font-size="11.00" fill="#000000">[table]</text>
<polygon fill="none" stroke="#000000" points="31.5,-299.7 31.5,-321.7 128.5,-321.7 128.5,-299.7 31.5,-299.7"/>
<image xlink:href="../../images/primaryKeys.png" width="11px" height="12px" preserveAspectRatio="xMinYMin meet" x="36.5" y="-316.7"/>
<text text-anchor="start" x="51.5" y="-306.8" font-family="Helvetica,sans-Serif" font-size="11.00" fill="#000000">code</text>
<polygon fill="none" stroke="#000000" points="31.5,-280.7 31.5,-299.7 128.5,-299.7 128.5,-280.7 31.5,-280.7"/>
<text text-anchor="start" x="34.5" y="-286.8" font-family="Helvetica,sans-Serif" font-size="11.00" fill="#000000">...</text>
<polygon fill="#ffffff" stroke="transparent" points="31.5,-261.7 31.5,-280.7 69.5,-280.7 69.5,-261.7 31.5,-261.7"/>
<polygon fill="none" stroke="#000000" points="31.5,-261.7 31.5,-280.7 69.5,-280.7 69.5,-261.7 31.5,-261.7"/>
<text text-anchor="start" x="34.5" y="-267.8" font-family="Helvetica,sans-Serif" font-size="11.00" fill="#000000"> &#160;</text>
<polygon fill="#ffffff" stroke="transparent" points="69.5,-261.7 69.5,-280.7 94.5,-280.7 94.5,-261.7 69.5,-261.7"/>
<polygon fill="none" stroke="#000000" points="69.5,-261.7 69.5,-280.7 94.5,-280.7 94.5,-261.7 69.5,-261.7"/>
<text text-anchor="start" x="85.3862" y="-267.8" font-family="Helvetica,sans-Serif" font-size="11.00" fill="#000000"> &#160;</text>
<polygon fill="#ffffff" stroke="transparent" points="94.5,-261.7 94.5,-280.7 128.5,-280.7 128.5,-261.7 94.5,-261.7"/>
<polygon fill="none" stroke="#000000" points="94.5,-261.7 94.5,-280.7 128.5,-280.7 128.5,-261.7 94.5,-261.7"/>
<text text-anchor="start" x="109.9053" y="-267.8" font-family="Helvetica,sans-Serif" font-size="11.00" fill="#000000">7 &gt;</text>
</a>
</g>
</g>
<!-- allocation&#45;&gt;policy -->
<g id="edge3" class="edge">
<title>allocation:w&#45;&gt;policy:e</title>
<path fill="none" stroke="#000000" d="M250.3504,-763.1776C223.6868,-761.0257 209.4062,-751.7023 192,-725.7 140.1018,-648.1717 221.7956,-310.7 128.5,-310.7"/>
<polygon fill="#000000" stroke="#000000" points="257.0051,-763.4148 264.8717,-767.2977 261.0025,-763.5574 265,-763.7 265,-763.7 265,-763.7 261.0025,-763.5574 265.1283,-760.1023 257.0051,-763.4148 257.0051,-763.4148"/>
<ellipse fill="none" stroke="#000000" cx="253.8071" cy="-763.3008" rx="3.2" ry="3.2"/>
</g>
<!-- prison_configuration -->
<g id="node4" class="node">
<title>prison_configuration</title>
<g id="a_node4"><a xlink:href="../../tables/prison_configuration.html" xlink:title="prison_configuration" target="_top">
<polygon fill="#ffffff" stroke="transparent" points="228,-202.2 228,-263.2 406,-263.2 406,-202.2 228,-202.2"/>
<polygon fill="#f5f5f5" stroke="transparent" points="228,-239.7 228,-262.7 406,-262.7 406,-239.7 228,-239.7"/>
<polygon fill="none" stroke="#000000" points="228,-239.7 228,-262.7 406,-262.7 406,-239.7 228,-239.7"/>
<text text-anchor="start" x="233" y="-248.3" font-family="Helvetica,sans-Serif" font-weight="bold" font-size="11.00" fill="#000000">prison_configuration</text>
<text text-anchor="start" x="371.5219" y="-247.8" font-family="Helvetica,sans-Serif" font-size="11.00" fill="#000000">[table]</text>
<polygon fill="none" stroke="#000000" points="228,-220.7 228,-239.7 406,-239.7 406,-220.7 228,-220.7"/>
<text text-anchor="start" x="231" y="-226.8" font-family="Helvetica,sans-Serif" font-size="11.00" fill="#000000">...</text>
<polygon fill="#ffffff" stroke="transparent" points="228,-201.7 228,-220.7 299,-220.7 299,-201.7 228,-201.7"/>
<polygon fill="none" stroke="#000000" points="228,-201.7 228,-220.7 299,-220.7 299,-201.7 228,-201.7"/>
<text text-anchor="start" x="231" y="-207.8" font-family="Helvetica,sans-Serif" font-size="11.00" fill="#000000">&lt; 1</text>
<polygon fill="#ffffff" stroke="transparent" points="299,-201.7 299,-220.7 368,-220.7 368,-201.7 299,-201.7"/>
<polygon fill="none" stroke="#000000" points="299,-201.7 299,-220.7 368,-220.7 368,-201.7 299,-201.7"/>
<text text-anchor="start" x="326.4956" y="-207.8" font-family="Helvetica,sans-Serif" font-size="11.00" fill="#000000">12 rows</text>
<polygon fill="#ffffff" stroke="transparent" points="368,-201.7 368,-220.7 406,-220.7 406,-201.7 368,-201.7"/>
<polygon fill="none" stroke="#000000" points="368,-201.7 368,-220.7 406,-220.7 406,-201.7 368,-201.7"/>
<text text-anchor="start" x="396.8862" y="-207.8" font-family="Helvetica,sans-Serif" font-size="11.00" fill="#000000"> &#160;</text>
</a>
</g>
</g>
<!-- prison_configuration&#45;&gt;policy -->
<g id="edge4" class="edge">
<title>prison_configuration:w&#45;&gt;policy:e</title>
<path fill="none" stroke="#000000" d="M213.7314,-231.7023C173.0755,-244.1756 180.177,-310.7 128.5,-310.7"/>
<polygon fill="#000000" stroke="#000000" points="220.0776,-230.8118 228.5003,-233.2651 224.0388,-230.2559 228,-229.7 228,-229.7 228,-229.7 224.0388,-230.2559 227.4997,-226.1349 220.0776,-230.8118 220.0776,-230.8118"/>
<ellipse fill="none" stroke="#000000" cx="216.9087" cy="-231.2565" rx="3.2" ry="3.2"/>
</g>
<!-- prison_statistic -->
<g id="node5" class="node">
<title>prison_statistic</title>
<g id="a_node5"><a xlink:href="../../tables/prison_statistic.html" xlink:title="prison_statistic" target="_top">
<polygon fill="#ffffff" stroke="transparent" points="246,-120.2 246,-181.2 388,-181.2 388,-120.2 246,-120.2"/>
<polygon fill="#f5f5f5" stroke="transparent" points="246,-157.7 246,-180.7 388,-180.7 388,-157.7 246,-157.7"/>
<polygon fill="none" stroke="#000000" points="246,-157.7 246,-180.7 388,-180.7 388,-157.7 246,-157.7"/>
<text text-anchor="start" x="251" y="-166.3" font-family="Helvetica,sans-Serif" font-weight="bold" font-size="11.00" fill="#000000">prison_statistic</text>
<text text-anchor="start" x="353.5219" y="-165.8" font-family="Helvetica,sans-Serif" font-size="11.00" fill="#000000">[table]</text>
<polygon fill="none" stroke="#000000" points="246,-138.7 246,-157.7 388,-157.7 388,-138.7 246,-138.7"/>
<text text-anchor="start" x="249" y="-144.8" font-family="Helvetica,sans-Serif" font-size="11.00" fill="#000000">...</text>
<polygon fill="#ffffff" stroke="transparent" points="246,-119.7 246,-138.7 315,-138.7 315,-119.7 246,-119.7"/>
<polygon fill="none" stroke="#000000" points="246,-119.7 246,-138.7 315,-138.7 315,-119.7 246,-119.7"/>
<text text-anchor="start" x="249" y="-125.8" font-family="Helvetica,sans-Serif" font-size="11.00" fill="#000000">&lt; 1</text>
<polygon fill="#ffffff" stroke="transparent" points="315,-119.7 315,-138.7 351,-138.7 351,-119.7 315,-119.7"/>
<polygon fill="none" stroke="#000000" points="315,-119.7 315,-138.7 351,-138.7 351,-119.7 315,-119.7"/>
<text text-anchor="start" x="341.8862" y="-125.8" font-family="Helvetica,sans-Serif" font-size="11.00" fill="#000000"> &#160;</text>
<polygon fill="#ffffff" stroke="transparent" points="351,-119.7 351,-138.7 388,-138.7 388,-119.7 351,-119.7"/>
<polygon fill="none" stroke="#000000" points="351,-119.7 351,-138.7 388,-138.7 388,-119.7 351,-119.7"/>
<text text-anchor="start" x="378.8862" y="-125.8" font-family="Helvetica,sans-Serif" font-size="11.00" fill="#000000"> &#160;</text>
</a>
</g>
</g>
<!-- prison_statistic&#45;&gt;policy -->
<g id="edge5" class="edge">
<title>prison_statistic:w&#45;&gt;policy:e</title>
<path fill="none" stroke="#000000" d="M231.467,-149.6314C213.2553,-155.2075 208.0615,-172.1851 192,-191.7 153.9044,-237.9866 188.4477,-310.7 128.5,-310.7"/>
<polygon fill="#000000" stroke="#000000" points="238.0697,-148.7539 246.4743,-151.2686 242.0349,-148.227 246,-147.7 246,-147.7 246,-147.7 242.0349,-148.227 245.5257,-144.1314 238.0697,-148.7539 238.0697,-148.7539"/>
<ellipse fill="none" stroke="#000000" cx="234.8976" cy="-149.1755" rx="3.2" ry="3.2"/>
</g>
<!-- recorded_event -->
<g id="node6" class="node">
<title>recorded_event</title>
<g id="a_node6"><a xlink:href="../../tables/recorded_event.html" xlink:title="recorded_event" target="_top">
<polygon fill="#ffffff" stroke="transparent" points="200,-448.7 200,-714.7 434,-714.7 434,-448.7 200,-448.7"/>
<polygon fill="#f5f5f5" stroke="transparent" points="202,-689.7 202,-712.7 432,-712.7 432,-689.7 202,-689.7"/>
<polygon fill="none" stroke="#000000" points="202,-689.7 202,-712.7 432,-712.7 432,-689.7 202,-689.7"/>
<text text-anchor="start" x="207" y="-698.3" font-family="Helvetica,sans-Serif" font-weight="bold" font-size="11.00" fill="#000000">recorded_event</text>
<text text-anchor="start" x="397.0437" y="-697.8" font-family="Helvetica,sans-Serif" font-size="11.00" fill="#000000">[table]</text>
<polygon fill="none" stroke="#000000" points="202,-667.7 202,-689.7 338,-689.7 338,-667.7 202,-667.7"/>
<image xlink:href="../../images/primaryKeys.png" width="11px" height="12px" preserveAspectRatio="xMinYMin meet" x="207" y="-684.7"/>
<text text-anchor="start" x="222" y="-674.8" font-family="Helvetica,sans-Serif" font-size="11.00" fill="#000000">id</text>
<polygon fill="none" stroke="#000000" points="338,-667.7 338,-689.7 432,-689.7 432,-667.7 338,-667.7"/>
<text text-anchor="start" x="340.9758" y="-675.4" font-family="Helvetica,sans-Serif" font-size="11.00" fill="#000000">uuid[2147483647]</text>
<polygon fill="#ffffff" stroke="transparent" points="202,-645.7 202,-667.7 338,-667.7 338,-645.7 202,-645.7"/>
<polygon fill="none" stroke="#000000" points="202,-645.7 202,-667.7 338,-667.7 338,-645.7 202,-645.7"/>
<text text-anchor="start" x="222" y="-652.8" font-family="Helvetica,sans-Serif" font-size="11.00" fill="#000000">prison_code</text>
<polygon fill="none" stroke="#000000" points="338,-645.7 338,-667.7 432,-667.7 432,-645.7 338,-645.7"/>
<text text-anchor="start" x="341" y="-653.4" font-family="Helvetica,sans-Serif" font-size="11.00" fill="#000000">varchar[6]</text>
<polygon fill="#ffffff" stroke="transparent" points="202,-623.7 202,-645.7 338,-645.7 338,-623.7 202,-623.7"/>
<polygon fill="none" stroke="#000000" points="202,-623.7 202,-645.7 338,-645.7 338,-623.7 202,-623.7"/>
<text text-anchor="start" x="222" y="-630.8" font-family="Helvetica,sans-Serif" font-size="11.00" fill="#000000">person_identifier</text>
<polygon fill="none" stroke="#000000" points="338,-623.7 338,-645.7 432,-645.7 432,-623.7 338,-623.7"/>
<text text-anchor="start" x="341" y="-631.4" font-family="Helvetica,sans-Serif" font-size="11.00" fill="#000000">varchar[7]</text>
<polygon fill="#ffffff" stroke="transparent" points="202,-601.7 202,-623.7 338,-623.7 338,-601.7 202,-601.7"/>
<polygon fill="none" stroke="#000000" points="202,-601.7 202,-623.7 338,-623.7 338,-601.7 202,-601.7"/>
<text text-anchor="start" x="222" y="-608.8" font-family="Helvetica,sans-Serif" font-size="11.00" fill="#000000">staff_id</text>
<polygon fill="none" stroke="#000000" points="338,-601.7 338,-623.7 432,-623.7 432,-601.7 338,-601.7"/>
<text text-anchor="start" x="341" y="-609.4" font-family="Helvetica,sans-Serif" font-size="11.00" fill="#000000">int8[19]</text>
<polygon fill="none" stroke="#000000" points="202,-579.7 202,-601.7 338,-601.7 338,-579.7 202,-579.7"/>
<text text-anchor="start" x="222" y="-586.8" font-family="Helvetica,sans-Serif" font-size="11.00" fill="#000000">username</text>
<polygon fill="none" stroke="#000000" points="338,-579.7 338,-601.7 432,-601.7 432,-579.7 338,-579.7"/>
<text text-anchor="start" x="341" y="-587.4" font-family="Helvetica,sans-Serif" font-size="11.00" fill="#000000">varchar[64]</text>
<polygon fill="#ffffff" stroke="transparent" points="202,-557.7 202,-579.7 338,-579.7 338,-557.7 202,-557.7"/>
<polygon fill="none" stroke="#000000" points="202,-557.7 202,-579.7 338,-579.7 338,-557.7 202,-557.7"/>
<text text-anchor="start" x="222" y="-564.8" font-family="Helvetica,sans-Serif" font-size="11.00" fill="#000000">occurred_at</text>
<polygon fill="none" stroke="#000000" points="338,-557.7 338,-579.7 432,-579.7 432,-557.7 338,-557.7"/>
<text text-anchor="start" x="341" y="-565.4" font-family="Helvetica,sans-Serif" font-size="11.00" fill="#000000">timestamp[29,6]</text>
<polygon fill="none" stroke="#000000" points="202,-535.7 202,-557.7 338,-557.7 338,-535.7 202,-535.7"/>
<text text-anchor="start" x="222" y="-542.8" font-family="Helvetica,sans-Serif" font-size="11.00" fill="#000000">version</text>
<polygon fill="none" stroke="#000000" points="338,-535.7 338,-557.7 432,-557.7 432,-535.7 338,-535.7"/>
<text text-anchor="start" x="341" y="-543.4" font-family="Helvetica,sans-Serif" font-size="11.00" fill="#000000">int4[10]</text>
<polygon fill="#ffffff" stroke="transparent" points="202,-513.7 202,-535.7 338,-535.7 338,-513.7 202,-513.7"/>
<polygon fill="none" stroke="#000000" points="202,-513.7 202,-535.7 338,-535.7 338,-513.7 202,-513.7"/>
<text text-anchor="start" x="222" y="-520.8" font-family="Helvetica,sans-Serif" font-size="11.00" fill="#000000">created_at</text>
<polygon fill="none" stroke="#000000" points="338,-513.7 338,-535.7 432,-535.7 432,-513.7 338,-513.7"/>
<text text-anchor="start" x="341" y="-521.4" font-family="Helvetica,sans-Serif" font-size="11.00" fill="#000000">timestamp[29,6]</text>
<polygon fill="#ffffff" stroke="transparent" points="202,-491.7 202,-513.7 338,-513.7 338,-491.7 202,-491.7"/>
<polygon fill="none" stroke="#000000" points="202,-491.7 202,-513.7 338,-513.7 338,-491.7 202,-491.7"/>
<image xlink:href="../../images/foreignKeys.png" width="11px" height="12px" preserveAspectRatio="xMinYMin meet" x="207" y="-508.7"/>
<text text-anchor="start" x="222" y="-498.8" font-family="Helvetica,sans-Serif" font-size="11.00" fill="#000000">policy_code</text>
<polygon fill="none" stroke="#000000" points="338,-491.7 338,-513.7 432,-513.7 432,-491.7 338,-491.7"/>
<text text-anchor="start" x="341" y="-499.4" font-family="Helvetica,sans-Serif" font-size="11.00" fill="#000000">varchar[16]</text>
<polygon fill="#ffffff" stroke="transparent" points="202,-469.7 202,-491.7 338,-491.7 338,-469.7 202,-469.7"/>
<polygon fill="none" stroke="#000000" points="202,-469.7 202,-491.7 338,-491.7 338,-469.7 202,-469.7"/>
<image xlink:href="../../images/foreignKeys.png" width="11px" height="12px" preserveAspectRatio="xMinYMin meet" x="207" y="-486.7"/>
<text text-anchor="start" x="222" y="-476.8" font-family="Helvetica,sans-Serif" font-size="11.00" fill="#000000">type_id</text>
<polygon fill="none" stroke="#000000" points="338,-469.7 338,-491.7 432,-491.7 432,-469.7 338,-469.7"/>
<text text-anchor="start" x="341" y="-477.4" font-family="Helvetica,sans-Serif" font-size="11.00" fill="#000000">int8[19]</text>
<polygon fill="#ffffff" stroke="transparent" points="202,-450.7 202,-469.7 274,-469.7 274,-450.7 202,-450.7"/>
<polygon fill="none" stroke="#000000" points="202,-450.7 202,-469.7 274,-469.7 274,-450.7 202,-450.7"/>
<text text-anchor="start" x="205" y="-456.8" font-family="Helvetica,sans-Serif" font-size="11.00" fill="#000000">&lt; 2</text>
<polygon fill="#ffffff" stroke="transparent" points="274,-450.7 274,-469.7 338,-469.7 338,-450.7 274,-450.7"/>
<polygon fill="none" stroke="#000000" points="274,-450.7 274,-469.7 338,-469.7 338,-450.7 274,-450.7"/>
<text text-anchor="start" x="328.8862" y="-456.8" font-family="Helvetica,sans-Serif" font-size="11.00" fill="#000000"> &#160;</text>
<polygon fill="#ffffff" stroke="transparent" points="338,-450.7 338,-469.7 432,-469.7 432,-450.7 338,-450.7"/>
<polygon fill="none" stroke="#000000" points="338,-450.7 338,-469.7 432,-469.7 432,-450.7 338,-450.7"/>
<text text-anchor="start" x="413.4053" y="-456.8" font-family="Helvetica,sans-Serif" font-size="11.00" fill="#000000">0 &gt;</text>
<polygon fill="none" stroke="#000000" stroke-width="2" points="201,-449.7 201,-713.7 433,-713.7 433,-449.7 201,-449.7"/>
</a>
</g>
</g>
<!-- recorded_event&#45;&gt;reference_data -->
<g id="edge7" class="edge">
<title>recorded_event:w&#45;&gt;reference_data:e</title>
<path fill="none" stroke="#000000" d="M187.4203,-480.7C175.5435,-480.7 168.158,-480.7 151.5,-480.7"/>
<polygon fill="#000000" stroke="#000000" points="194,-480.7001 202,-484.3 198,-480.7 202,-480.7 202,-480.7 202,-480.7 198,-480.7 202,-477.1 194,-480.7001 194,-480.7001"/>
<ellipse fill="none" stroke="#000000" cx="190.8" cy="-480.7001" rx="3.2" ry="3.2"/>
</g>
<!-- recorded_event&#45;&gt;policy -->
<g id="edge6" class="edge">
<title>recorded_event:w&#45;&gt;policy:e</title>
<path fill="none" stroke="#000000" d="M187.5204,-500.6737C123.1211,-480.1539 214.34,-310.7 128.5,-310.7"/>
<polygon fill="#000000" stroke="#000000" points="194.0772,-501.5912 201.501,-506.2653 198.0386,-502.1456 202,-502.7 202,-502.7 202,-502.7 198.0386,-502.1456 202.499,-499.1347 194.0772,-501.5912 194.0772,-501.5912"/>
<ellipse fill="none" stroke="#000000" cx="190.9081" cy="-501.1477" rx="3.2" ry="3.2"/>
</g>
<!-- recorded_event_audit -->
<g id="node7" class="node">
<title>recorded_event_audit</title>
<g id="a_node7"><a xlink:href="../../tables/recorded_event_audit.html" xlink:title="recorded_event_audit" target="_top">
<polygon fill="#ffffff" stroke="transparent" points="224.5,-38.2 224.5,-99.2 409.5,-99.2 409.5,-38.2 224.5,-38.2"/>
<polygon fill="#f5f5f5" stroke="transparent" points="225,-75.7 225,-98.7 410,-98.7 410,-75.7 225,-75.7"/>
<polygon fill="none" stroke="#000000" points="225,-75.7 225,-98.7 410,-98.7 410,-75.7 225,-75.7"/>
<text text-anchor="start" x="230" y="-84.3" font-family="Helvetica,sans-Serif" font-weight="bold" font-size="11.00" fill="#000000">recorded_event_audit</text>
<text text-anchor="start" x="375.5219" y="-83.8" font-family="Helvetica,sans-Serif" font-size="11.00" fill="#000000">[table]</text>
<polygon fill="none" stroke="#000000" points="225,-56.7 225,-75.7 410,-75.7 410,-56.7 225,-56.7"/>
<text text-anchor="start" x="228" y="-62.8" font-family="Helvetica,sans-Serif" font-size="11.00" fill="#000000">...</text>
<polygon fill="#ffffff" stroke="transparent" points="225,-37.7 225,-56.7 316,-56.7 316,-37.7 225,-37.7"/>
<polygon fill="none" stroke="#000000" points="225,-37.7 225,-56.7 316,-56.7 316,-37.7 225,-37.7"/>
<text text-anchor="start" x="228" y="-43.8" font-family="Helvetica,sans-Serif" font-size="11.00" fill="#000000">&lt; 2</text>
<polygon fill="#ffffff" stroke="transparent" points="316,-37.7 316,-56.7 363,-56.7 363,-37.7 316,-37.7"/>
<polygon fill="none" stroke="#000000" points="316,-37.7 316,-56.7 363,-56.7 363,-37.7 316,-37.7"/>
<text text-anchor="start" x="353.8862" y="-43.8" font-family="Helvetica,sans-Serif" font-size="11.00" fill="#000000"> &#160;</text>
<polygon fill="#ffffff" stroke="transparent" points="363,-37.7 363,-56.7 410,-56.7 410,-37.7 363,-37.7"/>
<polygon fill="none" stroke="#000000" points="363,-37.7 363,-56.7 410,-56.7 410,-37.7 363,-37.7"/>
<text text-anchor="start" x="400.8862" y="-43.8" font-family="Helvetica,sans-Serif" font-size="11.00" fill="#000000"> &#160;</text>
</a>
</g>
</g>
<!-- recorded_event_audit&#45;&gt;policy -->
<g id="edge8" class="edge">
<title>recorded_event_audit:w&#45;&gt;policy:e</title>
<path fill="none" stroke="#000000" d="M210.4452,-67.201C120.0604,-87.6741 240.1594,-310.7 128.5,-310.7"/>
<polygon fill="#000000" stroke="#000000" points="217.0422,-66.5207 225.3693,-69.281 221.0211,-66.1104 225,-65.7 225,-65.7 225,-65.7 221.0211,-66.1104 224.6307,-62.119 217.0422,-66.5207 217.0422,-66.5207"/>
<ellipse fill="none" stroke="#000000" cx="213.8591" cy="-66.849" rx="3.2" ry="3.2"/>
</g>
<!-- reference_data_policy -->
<g id="node8" class="node">
<title>reference_data_policy</title>
<g id="a_node8"><a xlink:href="../../tables/reference_data_policy.html" xlink:title="reference_data_policy" target="_top">
<polygon fill="#ffffff" stroke="transparent" points="224,-366.2 224,-427.2 410,-427.2 410,-366.2 224,-366.2"/>
<polygon fill="#f5f5f5" stroke="transparent" points="224,-403.7 224,-426.7 410,-426.7 410,-403.7 224,-403.7"/>
<polygon fill="none" stroke="#000000" points="224,-403.7 224,-426.7 410,-426.7 410,-403.7 224,-403.7"/>
<text text-anchor="start" x="229" y="-412.3" font-family="Helvetica,sans-Serif" font-weight="bold" font-size="11.00" fill="#000000">reference_data_policy</text>
<text text-anchor="start" x="375.5219" y="-411.8" font-family="Helvetica,sans-Serif" font-size="11.00" fill="#000000">[table]</text>
<polygon fill="none" stroke="#000000" points="224,-384.7 224,-403.7 410,-403.7 410,-384.7 224,-384.7"/>
<text text-anchor="start" x="227" y="-390.8" font-family="Helvetica,sans-Serif" font-size="11.00" fill="#000000">...</text>
<polygon fill="#ffffff" stroke="transparent" points="224,-365.7 224,-384.7 315,-384.7 315,-365.7 224,-365.7"/>
<polygon fill="none" stroke="#000000" points="224,-365.7 224,-384.7 315,-384.7 315,-365.7 224,-365.7"/>
<text text-anchor="start" x="227" y="-371.8" font-family="Helvetica,sans-Serif" font-size="11.00" fill="#000000">&lt; 2</text>
<polygon fill="#ffffff" stroke="transparent" points="315,-365.7 315,-384.7 362,-384.7 362,-365.7 315,-365.7"/>
<polygon fill="none" stroke="#000000" points="315,-365.7 315,-384.7 362,-384.7 362,-365.7 315,-365.7"/>
<text text-anchor="start" x="352.8862" y="-371.8" font-family="Helvetica,sans-Serif" font-size="11.00" fill="#000000"> &#160;</text>
<polygon fill="#ffffff" stroke="transparent" points="362,-365.7 362,-384.7 410,-384.7 410,-365.7 362,-365.7"/>
<polygon fill="none" stroke="#000000" points="362,-365.7 362,-384.7 410,-384.7 410,-365.7 362,-365.7"/>
<text text-anchor="start" x="400.8862" y="-371.8" font-family="Helvetica,sans-Serif" font-size="11.00" fill="#000000"> &#160;</text>
</a>
</g>
</g>
<!-- reference_data_policy&#45;&gt;reference_data -->
<g id="edge9" class="edge">
<title>reference_data_policy:w&#45;&gt;reference_data:e</title>
<path fill="none" stroke="#000000" d="M209.6885,-396.7964C179.0412,-412.2945 196.131,-480.7 151.5,-480.7"/>
<polygon fill="#000000" stroke="#000000" points="216.1809,-395.3918 224.7613,-397.2186 220.0905,-394.5459 224,-393.7 224,-393.7 224,-393.7 220.0905,-394.5459 223.2387,-390.1814 216.1809,-395.3918 216.1809,-395.3918"/>
<ellipse fill="none" stroke="#000000" cx="213.0533" cy="-396.0685" rx="3.2" ry="3.2"/>
</g>
<!-- reference_data_policy&#45;&gt;policy -->
<g id="edge10" class="edge">
<title>reference_data_policy:w&#45;&gt;policy:e</title>
<path fill="none" stroke="#000000" d="M209.7376,-391.5649C170.343,-378.5735 179.3527,-310.7 128.5,-310.7"/>
<polygon fill="#000000" stroke="#000000" points="216.0882,-392.5155 223.467,-397.2603 220.0441,-393.1078 224,-393.7 224,-393.7 224,-393.7 220.0441,-393.1078 224.533,-390.1397 216.0882,-392.5155 216.0882,-392.5155"/>
<ellipse fill="none" stroke="#000000" cx="212.9234" cy="-392.0417" rx="3.2" ry="3.2"/>
</g>
<!-- staff_configuration -->
<g id="node9" class="node">
<title>staff_configuration</title>
<g id="a_node9"><a xlink:href="../../tables/staff_configuration.html" xlink:title="staff_configuration" target="_top">
<polygon fill="#ffffff" stroke="transparent" points="233.5,-284.2 233.5,-345.2 400.5,-345.2 400.5,-284.2 233.5,-284.2"/>
<polygon fill="#f5f5f5" stroke="transparent" points="234,-321.7 234,-344.7 401,-344.7 401,-321.7 234,-321.7"/>
<polygon fill="none" stroke="#000000" points="234,-321.7 234,-344.7 401,-344.7 401,-321.7 234,-321.7"/>
<text text-anchor="start" x="239" y="-330.3" font-family="Helvetica,sans-Serif" font-weight="bold" font-size="11.00" fill="#000000">staff_configuration</text>
<text text-anchor="start" x="366.5219" y="-329.8" font-family="Helvetica,sans-Serif" font-size="11.00" fill="#000000">[table]</text>
<polygon fill="none" stroke="#000000" points="234,-302.7 234,-321.7 401,-321.7 401,-302.7 234,-302.7"/>
<text text-anchor="start" x="237" y="-308.8" font-family="Helvetica,sans-Serif" font-size="11.00" fill="#000000">...</text>
<polygon fill="#ffffff" stroke="transparent" points="234,-283.7 234,-302.7 316,-302.7 316,-283.7 234,-283.7"/>
<polygon fill="none" stroke="#000000" points="234,-283.7 234,-302.7 316,-302.7 316,-283.7 234,-283.7"/>
<text text-anchor="start" x="237" y="-289.8" font-family="Helvetica,sans-Serif" font-size="11.00" fill="#000000">&lt; 2</text>
<polygon fill="#ffffff" stroke="transparent" points="316,-283.7 316,-302.7 358,-302.7 358,-283.7 316,-283.7"/>
<polygon fill="none" stroke="#000000" points="316,-283.7 316,-302.7 358,-302.7 358,-283.7 316,-283.7"/>
<text text-anchor="start" x="348.8862" y="-289.8" font-family="Helvetica,sans-Serif" font-size="11.00" fill="#000000"> &#160;</text>
<polygon fill="#ffffff" stroke="transparent" points="358,-283.7 358,-302.7 401,-302.7 401,-283.7 358,-283.7"/>
<polygon fill="none" stroke="#000000" points="358,-283.7 358,-302.7 401,-302.7 401,-283.7 358,-283.7"/>
<text text-anchor="start" x="391.8862" y="-289.8" font-family="Helvetica,sans-Serif" font-size="11.00" fill="#000000"> &#160;</text>
</a>
</g>
</g>
<!-- staff_configuration&#45;&gt;reference_data -->
<g id="edge12" class="edge">
<title>staff_configuration:w&#45;&gt;reference_data:e</title>
<path fill="none" stroke="#000000" d="M219.5744,-314.4912C205.867,-320.9083 202.8179,-337.5601 192,-355.7 162.0885,-405.857 209.8988,-480.7 151.5,-480.7"/>
<polygon fill="#000000" stroke="#000000" points="226.1457,-313.2198 234.6839,-315.2344 230.0728,-312.4599 234,-311.7 234,-311.7 234,-311.7 230.0728,-312.4599 233.3161,-308.1656 226.1457,-313.2198 226.1457,-313.2198"/>
<ellipse fill="none" stroke="#000000" cx="223.0039" cy="-313.8277" rx="3.2" ry="3.2"/>
</g>
<!-- staff_configuration&#45;&gt;policy -->
<g id="edge11" class="edge">
<title>staff_configuration:w&#45;&gt;policy:e</title>
<path fill="none" stroke="#000000" d="M219.3162,-311.6644C184.0028,-311.4863 170.0791,-310.7 128.5,-310.7"/>
<polygon fill="#000000" stroke="#000000" points="226,-311.6806 233.9912,-315.3 230,-311.6903 234,-311.7 234,-311.7 234,-311.7 230,-311.6903 234.0088,-308.1 226,-311.6806 226,-311.6806"/>
<ellipse fill="none" stroke="#000000" cx="222.8" cy="-311.6728" rx="3.2" ry="3.2"/>
</g>
</g>
</svg>
