<?xml version="1.0" encoding="UTF-8" standalone="no"?>
<!DOCTYPE svg PUBLIC "-//W3C//DTD SVG 1.1//EN"
 "http://www.w3.org/Graphics/SVG/1.1/DTD/svg11.dtd">
<!-- Generated by graphviz version 2.40.1 (20161225.0304)
 -->
<!-- Title: oneDegreeRelationshipsDiagramImplied Pages: 1 -->
<svg width="550pt" height="456pt"
 viewBox="0.00 0.00 550.00 455.70" xmlns="http://www.w3.org/2000/svg" xmlns:xlink="http://www.w3.org/1999/xlink">
<g id="graph0" class="graph" transform="scale(1 1) rotate(0) translate(4 451.7)">
<title>oneDegreeRelationshipsDiagramImplied</title>
<polygon fill="#ffffff" stroke="transparent" points="-4,4 -4,-451.7 546,-451.7 546,4 -4,4"/>
<text text-anchor="middle" x="72.4936" y="-7.3" font-family="Helvetica,sans-Serif" font-size="11.00" fill="#000000">Generated by SchemaSpy</text>
<!-- recorded_event -->
<g id="node1" class="node">
<title>recorded_event</title>
<g id="a_node1"><a xlink:href="../../tables/recorded_event.html" xlink:title="recorded_event" target="_top">
<polygon fill="#ffffff" stroke="transparent" points="300,-177.7 300,-443.7 534,-443.7 534,-177.7 300,-177.7"/>
<polygon fill="#f5f5f5" stroke="transparent" points="302,-418.7 302,-441.7 532,-441.7 532,-418.7 302,-418.7"/>
<polygon fill="none" stroke="#000000" points="302,-418.7 302,-441.7 532,-441.7 532,-418.7 302,-418.7"/>
<text text-anchor="start" x="307" y="-427.3" font-family="Helvetica,sans-Serif" font-weight="bold" font-size="11.00" fill="#000000">recorded_event</text>
<text text-anchor="start" x="497.0437" y="-426.8" font-family="Helvetica,sans-Serif" font-size="11.00" fill="#000000">[table]</text>
<polygon fill="none" stroke="#000000" points="302,-396.7 302,-418.7 438,-418.7 438,-396.7 302,-396.7"/>
<image xlink:href="../../images/primaryKeys.png" width="11px" height="12px" preserveAspectRatio="xMinYMin meet" x="307" y="-413.7"/>
<text text-anchor="start" x="322" y="-403.8" font-family="Helvetica,sans-Serif" font-size="11.00" fill="#000000">id</text>
<polygon fill="none" stroke="#000000" points="438,-396.7 438,-418.7 532,-418.7 532,-396.7 438,-396.7"/>
<text text-anchor="start" x="440.9758" y="-404.4" font-family="Helvetica,sans-Serif" font-size="11.00" fill="#000000">uuid[2147483647]</text>
<polygon fill="#ffffff" stroke="transparent" points="302,-374.7 302,-396.7 438,-396.7 438,-374.7 302,-374.7"/>
<polygon fill="none" stroke="#000000" points="302,-374.7 302,-396.7 438,-396.7 438,-374.7 302,-374.7"/>
<image xlink:href="../../images/foreignKeys.png" width="11px" height="12px" preserveAspectRatio="xMinYMin meet" x="307" y="-391.7"/>
<text text-anchor="start" x="322" y="-381.8" font-family="Helvetica,sans-Serif" font-size="11.00" fill="#000000">prison_code</text>
<polygon fill="none" stroke="#000000" points="438,-374.7 438,-396.7 532,-396.7 532,-374.7 438,-374.7"/>
<text text-anchor="start" x="441" y="-382.4" font-family="Helvetica,sans-Serif" font-size="11.00" fill="#000000">varchar[6]</text>
<polygon fill="#ffffff" stroke="transparent" points="302,-352.7 302,-374.7 438,-374.7 438,-352.7 302,-352.7"/>
<polygon fill="none" stroke="#000000" points="302,-352.7 302,-374.7 438,-374.7 438,-352.7 302,-352.7"/>
<text text-anchor="start" x="322" y="-359.8" font-family="Helvetica,sans-Serif" font-size="11.00" fill="#000000">person_identifier</text>
<polygon fill="none" stroke="#000000" points="438,-352.7 438,-374.7 532,-374.7 532,-352.7 438,-352.7"/>
<text text-anchor="start" x="441" y="-360.4" font-family="Helvetica,sans-Serif" font-size="11.00" fill="#000000">varchar[7]</text>
<polygon fill="#ffffff" stroke="transparent" points="302,-330.7 302,-352.7 438,-352.7 438,-330.7 302,-330.7"/>
<polygon fill="none" stroke="#000000" points="302,-330.7 302,-352.7 438,-352.7 438,-330.7 302,-330.7"/>
<text text-anchor="start" x="322" y="-337.8" font-family="Helvetica,sans-Serif" font-size="11.00" fill="#000000">staff_id</text>
<polygon fill="none" stroke="#000000" points="438,-330.7 438,-352.7 532,-352.7 532,-330.7 438,-330.7"/>
<text text-anchor="start" x="441" y="-338.4" font-family="Helvetica,sans-Serif" font-size="11.00" fill="#000000">int8[19]</text>
<polygon fill="none" stroke="#000000" points="302,-308.7 302,-330.7 438,-330.7 438,-308.7 302,-308.7"/>
<text text-anchor="start" x="322" y="-315.8" font-family="Helvetica,sans-Serif" font-size="11.00" fill="#000000">username</text>
<polygon fill="none" stroke="#000000" points="438,-308.7 438,-330.7 532,-330.7 532,-308.7 438,-308.7"/>
<text text-anchor="start" x="441" y="-316.4" font-family="Helvetica,sans-Serif" font-size="11.00" fill="#000000">varchar[64]</text>
<polygon fill="#ffffff" stroke="transparent" points="302,-286.7 302,-308.7 438,-308.7 438,-286.7 302,-286.7"/>
<polygon fill="none" stroke="#000000" points="302,-286.7 302,-308.7 438,-308.7 438,-286.7 302,-286.7"/>
<text text-anchor="start" x="322" y="-293.8" font-family="Helvetica,sans-Serif" font-size="11.00" fill="#000000">occurred_at</text>
<polygon fill="none" stroke="#000000" points="438,-286.7 438,-308.7 532,-308.7 532,-286.7 438,-286.7"/>
<text text-anchor="start" x="441" y="-294.4" font-family="Helvetica,sans-Serif" font-size="11.00" fill="#000000">timestamp[29,6]</text>
<polygon fill="none" stroke="#000000" points="302,-264.7 302,-286.7 438,-286.7 438,-264.7 302,-264.7"/>
<text text-anchor="start" x="322" y="-271.8" font-family="Helvetica,sans-Serif" font-size="11.00" fill="#000000">version</text>
<polygon fill="none" stroke="#000000" points="438,-264.7 438,-286.7 532,-286.7 532,-264.7 438,-264.7"/>
<text text-anchor="start" x="441" y="-272.4" font-family="Helvetica,sans-Serif" font-size="11.00" fill="#000000">int4[10]</text>
<polygon fill="#ffffff" stroke="transparent" points="302,-242.7 302,-264.7 438,-264.7 438,-242.7 302,-242.7"/>
<polygon fill="none" stroke="#000000" points="302,-242.7 302,-264.7 438,-264.7 438,-242.7 302,-242.7"/>
<text text-anchor="start" x="322" y="-249.8" font-family="Helvetica,sans-Serif" font-size="11.00" fill="#000000">created_at</text>
<polygon fill="none" stroke="#000000" points="438,-242.7 438,-264.7 532,-264.7 532,-242.7 438,-242.7"/>
<text text-anchor="start" x="441" y="-250.4" font-family="Helvetica,sans-Serif" font-size="11.00" fill="#000000">timestamp[29,6]</text>
<polygon fill="#ffffff" stroke="transparent" points="302,-220.7 302,-242.7 438,-242.7 438,-220.7 302,-220.7"/>
<polygon fill="none" stroke="#000000" points="302,-220.7 302,-242.7 438,-242.7 438,-220.7 302,-220.7"/>
<image xlink:href="../../images/foreignKeys.png" width="11px" height="12px" preserveAspectRatio="xMinYMin meet" x="307" y="-237.7"/>
<text text-anchor="start" x="322" y="-227.8" font-family="Helvetica,sans-Serif" font-size="11.00" fill="#000000">policy_code</text>
<polygon fill="none" stroke="#000000" points="438,-220.7 438,-242.7 532,-242.7 532,-220.7 438,-220.7"/>
<text text-anchor="start" x="441" y="-228.4" font-family="Helvetica,sans-Serif" font-size="11.00" fill="#000000">varchar[16]</text>
<polygon fill="#ffffff" stroke="transparent" points="302,-198.7 302,-220.7 438,-220.7 438,-198.7 302,-198.7"/>
<polygon fill="none" stroke="#000000" points="302,-198.7 302,-220.7 438,-220.7 438,-198.7 302,-198.7"/>
<image xlink:href="../../images/foreignKeys.png" width="11px" height="12px" preserveAspectRatio="xMinYMin meet" x="307" y="-215.7"/>
<text text-anchor="start" x="322" y="-205.8" font-family="Helvetica,sans-Serif" font-size="11.00" fill="#000000">type_id</text>
<polygon fill="none" stroke="#000000" points="438,-198.7 438,-220.7 532,-220.7 532,-198.7 438,-198.7"/>
<text text-anchor="start" x="441" y="-206.4" font-family="Helvetica,sans-Serif" font-size="11.00" fill="#000000">int8[19]</text>
<polygon fill="#ffffff" stroke="transparent" points="302,-179.7 302,-198.7 374,-198.7 374,-179.7 302,-179.7"/>
<polygon fill="none" stroke="#000000" points="302,-179.7 302,-198.7 374,-198.7 374,-179.7 302,-179.7"/>
<text text-anchor="start" x="305" y="-185.8" font-family="Helvetica,sans-Serif" font-size="11.00" fill="#000000">&lt; 3</text>
<polygon fill="#ffffff" stroke="transparent" points="374,-179.7 374,-198.7 438,-198.7 438,-179.7 374,-179.7"/>
<polygon fill="none" stroke="#000000" points="374,-179.7 374,-198.7 438,-198.7 438,-179.7 374,-179.7"/>
<text text-anchor="start" x="428.8862" y="-185.8" font-family="Helvetica,sans-Serif" font-size="11.00" fill="#000000"> &#160;</text>
<polygon fill="#ffffff" stroke="transparent" points="438,-179.7 438,-198.7 532,-198.7 532,-179.7 438,-179.7"/>
<polygon fill="none" stroke="#000000" points="438,-179.7 438,-198.7 532,-198.7 532,-179.7 438,-179.7"/>
<text text-anchor="start" x="513.4053" y="-185.8" font-family="Helvetica,sans-Serif" font-size="11.00" fill="#000000">0 &gt;</text>
<polygon fill="none" stroke="#000000" stroke-width="2" points="301,-178.7 301,-442.7 533,-442.7 533,-178.7 301,-178.7"/>
</a>
</g>
</g>
<!-- policy -->
<g id="node2" class="node">
<title>policy</title>
<g id="a_node2"><a xlink:href="../../tables/policy.html" xlink:title="policy" target="_top">
<polygon fill="#ffffff" stroke="transparent" points="81,-208.2 81,-291.2 178,-291.2 178,-208.2 81,-208.2"/>
<polygon fill="#f5f5f5" stroke="transparent" points="81.5,-267.7 81.5,-290.7 178.5,-290.7 178.5,-267.7 81.5,-267.7"/>
<polygon fill="none" stroke="#000000" points="81.5,-267.7 81.5,-290.7 178.5,-290.7 178.5,-267.7 81.5,-267.7"/>
<text text-anchor="start" x="86.5" y="-276.3" font-family="Helvetica,sans-Serif" font-weight="bold" font-size="11.00" fill="#000000">policy</text>
<text text-anchor="start" x="143.5437" y="-275.8" font-family="Helvetica,sans-Serif" font-size="11.00" fill="#000000">[table]</text>
<polygon fill="none" stroke="#000000" points="81.5,-245.7 81.5,-267.7 178.5,-267.7 178.5,-245.7 81.5,-245.7"/>
<image xlink:href="../../images/primaryKeys.png" width="11px" height="12px" preserveAspectRatio="xMinYMin meet" x="86.5" y="-262.7"/>
<text text-anchor="start" x="101.5" y="-252.8" font-family="Helvetica,sans-Serif" font-size="11.00" fill="#000000">code</text>
<polygon fill="none" stroke="#000000" points="81.5,-226.7 81.5,-245.7 178.5,-245.7 178.5,-226.7 81.5,-226.7"/>
<text text-anchor="start" x="84.5" y="-232.8" font-family="Helvetica,sans-Serif" font-size="11.00" fill="#000000">...</text>
<polygon fill="#ffffff" stroke="transparent" points="81.5,-207.7 81.5,-226.7 119.5,-226.7 119.5,-207.7 81.5,-207.7"/>
<polygon fill="none" stroke="#000000" points="81.5,-207.7 81.5,-226.7 119.5,-226.7 119.5,-207.7 81.5,-207.7"/>
<text text-anchor="start" x="84.5" y="-213.8" font-family="Helvetica,sans-Serif" font-size="11.00" fill="#000000"> &#160;</text>
<polygon fill="#ffffff" stroke="transparent" points="119.5,-207.7 119.5,-226.7 144.5,-226.7 144.5,-207.7 119.5,-207.7"/>
<polygon fill="none" stroke="#000000" points="119.5,-207.7 119.5,-226.7 144.5,-226.7 144.5,-207.7 119.5,-207.7"/>
<text text-anchor="start" x="135.3862" y="-213.8" font-family="Helvetica,sans-Serif" font-size="11.00" fill="#000000"> &#160;</text>
<polygon fill="#ffffff" stroke="transparent" points="144.5,-207.7 144.5,-226.7 178.5,-226.7 178.5,-207.7 144.5,-207.7"/>
<polygon fill="none" stroke="#000000" points="144.5,-207.7 144.5,-226.7 178.5,-226.7 178.5,-207.7 144.5,-207.7"/>
<text text-anchor="start" x="159.9053" y="-213.8" font-family="Helvetica,sans-Serif" font-size="11.00" fill="#000000">7 &gt;</text>
</a>
</g>
</g>
<!-- recorded_event&#45;&gt;policy -->
<g id="edge1" class="edge">
<title>recorded_event:w&#45;&gt;policy:e</title>
<path fill="none" stroke="#000000" d="M287.3495,-232.318C243.4512,-236.1678 229.252,-256.7 178.5,-256.7"/>
<polygon fill="#000000" stroke="#000000" points="294.0071,-232.0372 302.1517,-235.2968 298.0036,-231.8686 302,-231.7 302,-231.7 302,-231.7 298.0036,-231.8686 301.8483,-228.1032 294.0071,-232.0372 294.0071,-232.0372"/>
<ellipse fill="none" stroke="#000000" cx="290.81" cy="-232.1721" rx="3.2" ry="3.2"/>
</g>
<!-- prison_migration_date_history -->
<g id="node3" class="node">
<title>prison_migration_date_history</title>
<g id="a_node3"><a xlink:href="../../tables/prison_migration_date_history.html" xlink:title="prison_migration_date_history" target="_top">
<polygon fill="#ffffff" stroke="transparent" points="8,-337.2 8,-420.2 251,-420.2 251,-337.2 8,-337.2"/>
<polygon fill="#f5f5f5" stroke="transparent" points="8.5,-396.7 8.5,-419.7 251.5,-419.7 251.5,-396.7 8.5,-396.7"/>
<polygon fill="none" stroke="#000000" points="8.5,-396.7 8.5,-419.7 251.5,-419.7 251.5,-396.7 8.5,-396.7"/>
<text text-anchor="start" x="13.5" y="-405.3" font-family="Helvetica,sans-Serif" font-weight="bold" font-size="11.00" fill="#000000">prison_migration_date_history</text>
<text text-anchor="start" x="217.0219" y="-404.8" font-family="Helvetica,sans-Serif" font-size="11.00" fill="#000000">[table]</text>
<polygon fill="none" stroke="#000000" points="8.5,-374.7 8.5,-396.7 251.5,-396.7 251.5,-374.7 8.5,-374.7"/>
<image xlink:href="../../images/primaryKeys.png" width="11px" height="12px" preserveAspectRatio="xMinYMin meet" x="13.5" y="-391.7"/>
<text text-anchor="start" x="37.5" y="-381.8" font-family="Helvetica,sans-Serif" font-size="11.00" fill="#000000">prison_code</text>
<polygon fill="none" stroke="#000000" points="8.5,-355.7 8.5,-374.7 251.5,-374.7 251.5,-355.7 8.5,-355.7"/>
<text text-anchor="start" x="11.5" y="-361.8" font-family="Helvetica,sans-Serif" font-size="11.00" fill="#000000">...</text>
<polygon fill="#ffffff" stroke="transparent" points="8.5,-336.7 8.5,-355.7 119.5,-355.7 119.5,-336.7 8.5,-336.7"/>
<polygon fill="none" stroke="#000000" points="8.5,-336.7 8.5,-355.7 119.5,-355.7 119.5,-336.7 8.5,-336.7"/>
<text text-anchor="start" x="11.5" y="-342.8" font-family="Helvetica,sans-Serif" font-size="11.00" fill="#000000"> &#160;</text>
<polygon fill="#ffffff" stroke="transparent" points="119.5,-336.7 119.5,-355.7 180.5,-355.7 180.5,-336.7 119.5,-336.7"/>
<polygon fill="none" stroke="#000000" points="119.5,-336.7 119.5,-355.7 180.5,-355.7 180.5,-336.7 119.5,-336.7"/>
<text text-anchor="start" x="171.3862" y="-342.8" font-family="Helvetica,sans-Serif" font-size="11.00" fill="#000000"> &#160;</text>
<polygon fill="#ffffff" stroke="transparent" points="180.5,-336.7 180.5,-355.7 251.5,-355.7 251.5,-336.7 180.5,-336.7"/>
<polygon fill="none" stroke="#000000" points="180.5,-336.7 180.5,-355.7 251.5,-355.7 251.5,-336.7 180.5,-336.7"/>
<text text-anchor="start" x="232.9053" y="-342.8" font-family="Helvetica,sans-Serif" font-size="11.00" fill="#000000">9 &gt;</text>
</a>
</g>
</g>
<!-- recorded_event&#45;&gt;prison_migration_date_history -->
<g id="edge2" class="edge">
<title>recorded_event:w&#45;&gt;prison_migration_date_history:e</title>
<path fill="none" stroke="#000000" stroke-dasharray="5,2" d="M287.4203,-385.7C275.5435,-385.7 268.158,-385.7 251.5,-385.7"/>
<polygon fill="#000000" stroke="#000000" points="294,-385.7001 302,-389.3 298,-385.7 302,-385.7 302,-385.7 302,-385.7 298,-385.7 302,-382.1 294,-385.7001 294,-385.7001"/>
<ellipse fill="none" stroke="#000000" cx="290.8" cy="-385.7001" rx="3.2" ry="3.2"/>
</g>
<!-- reference_data -->
<g id="node4" class="node">
<title>reference_data</title>
<g id="a_node4"><a xlink:href="../../tables/reference_data.html" xlink:title="reference_data" target="_top">
<polygon fill="#ffffff" stroke="transparent" points="58,-38.2 58,-187.2 201,-187.2 201,-38.2 58,-38.2"/>
<polygon fill="#f5f5f5" stroke="transparent" points="58.5,-163.7 58.5,-186.7 201.5,-186.7 201.5,-163.7 58.5,-163.7"/>
<polygon fill="none" stroke="#000000" points="58.5,-163.7 58.5,-186.7 201.5,-186.7 201.5,-163.7 58.5,-163.7"/>
<text text-anchor="start" x="63.5" y="-172.3" font-family="Helvetica,sans-Serif" font-weight="bold" font-size="11.00" fill="#000000">reference_data</text>
<text text-anchor="start" x="166.5437" y="-171.8" font-family="Helvetica,sans-Serif" font-size="11.00" fill="#000000">[table]</text>
<polygon fill="none" stroke="#000000" points="58.5,-141.7 58.5,-163.7 201.5,-163.7 201.5,-141.7 58.5,-141.7"/>
<image xlink:href="../../images/primaryKeys.png" width="11px" height="12px" preserveAspectRatio="xMinYMin meet" x="63.5" y="-158.7"/>
<text text-anchor="start" x="78.5" y="-148.8" font-family="Helvetica,sans-Serif" font-size="11.00" fill="#000000">id</text>
<polygon fill="#ffffff" stroke="transparent" points="58.5,-119.7 58.5,-141.7 201.5,-141.7 201.5,-119.7 58.5,-119.7"/>
<polygon fill="none" stroke="#000000" points="58.5,-119.7 58.5,-141.7 201.5,-141.7 201.5,-119.7 58.5,-119.7"/>
<text text-anchor="start" x="78.5" y="-126.8" font-family="Helvetica,sans-Serif" font-size="11.00" fill="#000000">domain</text>
<polygon fill="#ffffff" stroke="transparent" points="58.5,-97.7 58.5,-119.7 201.5,-119.7 201.5,-97.7 58.5,-97.7"/>
<polygon fill="none" stroke="#000000" points="58.5,-97.7 58.5,-119.7 201.5,-119.7 201.5,-97.7 58.5,-97.7"/>
<text text-anchor="start" x="78.5" y="-104.8" font-family="Helvetica,sans-Serif" font-size="11.00" fill="#000000">code</text>
<polygon fill="#ffffff" stroke="transparent" points="58.5,-75.7 58.5,-97.7 201.5,-97.7 201.5,-75.7 58.5,-75.7"/>
<polygon fill="none" stroke="#000000" points="58.5,-75.7 58.5,-97.7 201.5,-97.7 201.5,-75.7 58.5,-75.7"/>
<text text-anchor="start" x="78.5" y="-82.8" font-family="Helvetica,sans-Serif" font-size="11.00" fill="#000000">sequence_number</text>
<polygon fill="none" stroke="#000000" points="58.5,-56.7 58.5,-75.7 201.5,-75.7 201.5,-56.7 58.5,-56.7"/>
<text text-anchor="start" x="61.5" y="-62.8" font-family="Helvetica,sans-Serif" font-size="11.00" fill="#000000">...</text>
<polygon fill="#ffffff" stroke="transparent" points="58.5,-37.7 58.5,-56.7 119.5,-56.7 119.5,-37.7 58.5,-37.7"/>
<polygon fill="none" stroke="#000000" points="58.5,-37.7 58.5,-56.7 119.5,-56.7 119.5,-37.7 58.5,-37.7"/>
<text text-anchor="start" x="61.5" y="-43.8" font-family="Helvetica,sans-Serif" font-size="11.00" fill="#000000"> &#160;</text>
<polygon fill="#ffffff" stroke="transparent" points="119.5,-37.7 119.5,-56.7 155.5,-56.7 155.5,-37.7 119.5,-37.7"/>
<polygon fill="none" stroke="#000000" points="119.5,-37.7 119.5,-56.7 155.5,-56.7 155.5,-37.7 119.5,-37.7"/>
<text text-anchor="start" x="146.3862" y="-43.8" font-family="Helvetica,sans-Serif" font-size="11.00" fill="#000000"> &#160;</text>
<polygon fill="#ffffff" stroke="transparent" points="155.5,-37.7 155.5,-56.7 201.5,-56.7 201.5,-37.7 155.5,-37.7"/>
<polygon fill="none" stroke="#000000" points="155.5,-37.7 155.5,-56.7 201.5,-56.7 201.5,-37.7 155.5,-37.7"/>
<text text-anchor="start" x="182.9053" y="-43.8" font-family="Helvetica,sans-Serif" font-size="11.00" fill="#000000">5 &gt;</text>
</a>
</g>
</g>
<!-- recorded_event&#45;&gt;reference_data -->
<g id="edge3" class="edge">
<title>recorded_event:w&#45;&gt;reference_data:e</title>
<path fill="none" stroke="#000000" d="M287.4138,-207.9316C250.518,-198.3106 247.4348,-152.7 201.5,-152.7"/>
<polygon fill="#000000" stroke="#000000" points="294.0582,-208.7371 301.5667,-213.2738 298.0291,-209.2186 302,-209.7 302,-209.7 302,-209.7 298.0291,-209.2186 302.4333,-206.1262 294.0582,-208.7371 294.0582,-208.7371"/>
<ellipse fill="none" stroke="#000000" cx="290.8814" cy="-208.3519" rx="3.2" ry="3.2"/>
</g>
</g>
</svg>
