<?xml version="1.0" encoding="UTF-8" standalone="no"?>
<!DOCTYPE svg PUBLIC "-//W3C//DTD SVG 1.1//EN"
 "http://www.w3.org/Graphics/SVG/1.1/DTD/svg11.dtd">
<!-- Generated by graphviz version 2.40.1 (20161225.0304)
 -->
<!-- Title: twoDegreesRelationshipsDiagram Pages: 1 -->
<svg width="532pt" height="891pt"
 viewBox="0.00 0.00 532.00 891.20" xmlns="http://www.w3.org/2000/svg" xmlns:xlink="http://www.w3.org/1999/xlink">
<g id="graph0" class="graph" transform="scale(1 1) rotate(0) translate(4 887.2)">
<title>twoDegreesRelationshipsDiagram</title>
<polygon fill="#ffffff" stroke="transparent" points="-4,4 -4,-887.2 528,-887.2 528,4 -4,4"/>
<text text-anchor="middle" x="72.4936" y="-7.3" font-family="Helvetica,sans-Serif" font-size="11.00" fill="#000000">Generated by SchemaSpy</text>
<!-- allocation -->
<g id="node1" class="node">
<title>allocation</title>
<g id="a_node1"><a xlink:href="../../tables/allocation.html" xlink:title="allocation" target="_top">
<polygon fill="#ffffff" stroke="transparent" points="305.5,-736.2 305.5,-797.2 410.5,-797.2 410.5,-736.2 305.5,-736.2"/>
<polygon fill="#f5f5f5" stroke="transparent" points="306,-773.7 306,-796.7 411,-796.7 411,-773.7 306,-773.7"/>
<polygon fill="none" stroke="#000000" points="306,-773.7 306,-796.7 411,-796.7 411,-773.7 306,-773.7"/>
<text text-anchor="start" x="311" y="-782.3" font-family="Helvetica,sans-Serif" font-weight="bold" font-size="11.00" fill="#000000">allocation</text>
<text text-anchor="start" x="376.5219" y="-781.8" font-family="Helvetica,sans-Serif" font-size="11.00" fill="#000000">[table]</text>
<polygon fill="none" stroke="#000000" points="306,-754.7 306,-773.7 411,-773.7 411,-754.7 306,-754.7"/>
<text text-anchor="start" x="309" y="-760.8" font-family="Helvetica,sans-Serif" font-size="11.00" fill="#000000">...</text>
<polygon fill="#ffffff" stroke="transparent" points="306,-735.7 306,-754.7 357,-754.7 357,-735.7 306,-735.7"/>
<polygon fill="none" stroke="#000000" points="306,-735.7 306,-754.7 357,-754.7 357,-735.7 306,-735.7"/>
<text text-anchor="start" x="309" y="-741.8" font-family="Helvetica,sans-Serif" font-size="11.00" fill="#000000">&lt; 3</text>
<polygon fill="#ffffff" stroke="transparent" points="357,-735.7 357,-754.7 384,-754.7 384,-735.7 357,-735.7"/>
<polygon fill="none" stroke="#000000" points="357,-735.7 357,-754.7 384,-754.7 384,-735.7 357,-735.7"/>
<text text-anchor="start" x="374.8862" y="-741.8" font-family="Helvetica,sans-Serif" font-size="11.00" fill="#000000"> &#160;</text>
<polygon fill="#ffffff" stroke="transparent" points="384,-735.7 384,-754.7 411,-754.7 411,-735.7 384,-735.7"/>
<polygon fill="none" stroke="#000000" points="384,-735.7 384,-754.7 411,-754.7 411,-735.7 384,-735.7"/>
<text text-anchor="start" x="401.8862" y="-741.8" font-family="Helvetica,sans-Serif" font-size="11.00" fill="#000000"> &#160;</text>
</a>
</g>
</g>
<!-- reference_data -->
<g id="node2" class="node">
<title>reference_data</title>
<g id="a_node2"><a xlink:href="../../tables/reference_data.html" xlink:title="reference_data" target="_top">
<polygon fill="#ffffff" stroke="transparent" points="8,-649.2 8,-798.2 151,-798.2 151,-649.2 8,-649.2"/>
<polygon fill="#f5f5f5" stroke="transparent" points="8.5,-774.7 8.5,-797.7 151.5,-797.7 151.5,-774.7 8.5,-774.7"/>
<polygon fill="none" stroke="#000000" points="8.5,-774.7 8.5,-797.7 151.5,-797.7 151.5,-774.7 8.5,-774.7"/>
<text text-anchor="start" x="13.5" y="-783.3" font-family="Helvetica,sans-Serif" font-weight="bold" font-size="11.00" fill="#000000">reference_data</text>
<text text-anchor="start" x="116.5437" y="-782.8" font-family="Helvetica,sans-Serif" font-size="11.00" fill="#000000">[table]</text>
<polygon fill="none" stroke="#000000" points="8.5,-752.7 8.5,-774.7 151.5,-774.7 151.5,-752.7 8.5,-752.7"/>
<image xlink:href="../../images/primaryKeys.png" width="11px" height="12px" preserveAspectRatio="xMinYMin meet" x="13.5" y="-769.7"/>
<text text-anchor="start" x="28.5" y="-759.8" font-family="Helvetica,sans-Serif" font-size="11.00" fill="#000000">id</text>
<polygon fill="#ffffff" stroke="transparent" points="8.5,-730.7 8.5,-752.7 151.5,-752.7 151.5,-730.7 8.5,-730.7"/>
<polygon fill="none" stroke="#000000" points="8.5,-730.7 8.5,-752.7 151.5,-752.7 151.5,-730.7 8.5,-730.7"/>
<text text-anchor="start" x="28.5" y="-737.8" font-family="Helvetica,sans-Serif" font-size="11.00" fill="#000000">domain</text>
<polygon fill="#ffffff" stroke="transparent" points="8.5,-708.7 8.5,-730.7 151.5,-730.7 151.5,-708.7 8.5,-708.7"/>
<polygon fill="none" stroke="#000000" points="8.5,-708.7 8.5,-730.7 151.5,-730.7 151.5,-708.7 8.5,-708.7"/>
<text text-anchor="start" x="28.5" y="-715.8" font-family="Helvetica,sans-Serif" font-size="11.00" fill="#000000">code</text>
<polygon fill="#ffffff" stroke="transparent" points="8.5,-686.7 8.5,-708.7 151.5,-708.7 151.5,-686.7 8.5,-686.7"/>
<polygon fill="none" stroke="#000000" points="8.5,-686.7 8.5,-708.7 151.5,-708.7 151.5,-686.7 8.5,-686.7"/>
<text text-anchor="start" x="28.5" y="-693.8" font-family="Helvetica,sans-Serif" font-size="11.00" fill="#000000">sequence_number</text>
<polygon fill="none" stroke="#000000" points="8.5,-667.7 8.5,-686.7 151.5,-686.7 151.5,-667.7 8.5,-667.7"/>
<text text-anchor="start" x="11.5" y="-673.8" font-family="Helvetica,sans-Serif" font-size="11.00" fill="#000000">...</text>
<polygon fill="#ffffff" stroke="transparent" points="8.5,-648.7 8.5,-667.7 69.5,-667.7 69.5,-648.7 8.5,-648.7"/>
<polygon fill="none" stroke="#000000" points="8.5,-648.7 8.5,-667.7 69.5,-667.7 69.5,-648.7 8.5,-648.7"/>
<text text-anchor="start" x="11.5" y="-654.8" font-family="Helvetica,sans-Serif" font-size="11.00" fill="#000000"> &#160;</text>
<polygon fill="#ffffff" stroke="transparent" points="69.5,-648.7 69.5,-667.7 105.5,-667.7 105.5,-648.7 69.5,-648.7"/>
<polygon fill="none" stroke="#000000" points="69.5,-648.7 69.5,-667.7 105.5,-667.7 105.5,-648.7 69.5,-648.7"/>
<text text-anchor="start" x="96.3862" y="-654.8" font-family="Helvetica,sans-Serif" font-size="11.00" fill="#000000"> &#160;</text>
<polygon fill="#ffffff" stroke="transparent" points="105.5,-648.7 105.5,-667.7 151.5,-667.7 151.5,-648.7 105.5,-648.7"/>
<polygon fill="none" stroke="#000000" points="105.5,-648.7 105.5,-667.7 151.5,-667.7 151.5,-648.7 105.5,-648.7"/>
<text text-anchor="start" x="132.9053" y="-654.8" font-family="Helvetica,sans-Serif" font-size="11.00" fill="#000000">7 &gt;</text>
</a>
</g>
</g>
<!-- allocation&#45;&gt;reference_data -->
<g id="edge1" class="edge">
<title>allocation:w&#45;&gt;reference_data:e</title>
<path fill="none" stroke="#000000" d="M291.5199,-762.4632C234.5015,-757.7331 215.0703,-758.1453 151.5,-763.7"/>
<polygon fill="#000000" stroke="#000000" points="298.029,-763.0191 305.6936,-767.2869 302.0145,-763.3596 306,-763.7 306,-763.7 306,-763.7 302.0145,-763.3596 306.3064,-760.1131 298.029,-763.0191 298.029,-763.0191"/>
<ellipse fill="none" stroke="#000000" cx="294.8406" cy="-762.7468" rx="3.2" ry="3.2"/>
</g>
<!-- allocation&#45;&gt;reference_data -->
<g id="edge2" class="edge">
<title>allocation:w&#45;&gt;reference_data:e</title>
<path fill="none" stroke="#000000" d="M291.5199,-765.1429C234.5015,-770.6614 215.0703,-770.1805 151.5,-763.7"/>
<polygon fill="#000000" stroke="#000000" points="298.0394,-764.4933 306.357,-767.2823 302.0197,-764.0967 306,-763.7 306,-763.7 306,-763.7 302.0197,-764.0967 305.643,-760.1177 298.0394,-764.4933 298.0394,-764.4933"/>
<ellipse fill="none" stroke="#000000" cx="294.8552" cy="-764.8106" rx="3.2" ry="3.2"/>
</g>
<!-- policy -->
<g id="node3" class="node">
<title>policy</title>
<g id="a_node3"><a xlink:href="../../tables/policy.html" xlink:title="policy" target="_top">
<polygon fill="#ffffff" stroke="transparent" points="31,-263.2 31,-346.2 128,-346.2 128,-263.2 31,-263.2"/>
<polygon fill="#f5f5f5" stroke="transparent" points="31.5,-322.7 31.5,-345.7 128.5,-345.7 128.5,-322.7 31.5,-322.7"/>
<polygon fill="none" stroke="#000000" points="31.5,-322.7 31.5,-345.7 128.5,-345.7 128.5,-322.7 31.5,-322.7"/>
<text text-anchor="start" x="36.5" y="-331.3" font-family="Helvetica,sans-Serif" font-weight="bold" font-size="11.00" fill="#000000">policy</text>
<text text-anchor="start" x="93.5437" y="-330.8" font-family="Helvetica,sans-Serif" font-size="11.00" fill="#000000">[table]</text>
<polygon fill="none" stroke="#000000" points="31.5,-300.7 31.5,-322.7 128.5,-322.7 128.5,-300.7 31.5,-300.7"/>
<image xlink:href="../../images/primaryKeys.png" width="11px" height="12px" preserveAspectRatio="xMinYMin meet" x="36.5" y="-317.7"/>
<text text-anchor="start" x="51.5" y="-307.8" font-family="Helvetica,sans-Serif" font-size="11.00" fill="#000000">code</text>
<polygon fill="none" stroke="#000000" points="31.5,-281.7 31.5,-300.7 128.5,-300.7 128.5,-281.7 31.5,-281.7"/>
<text text-anchor="start" x="34.5" y="-287.8" font-family="Helvetica,sans-Serif" font-size="11.00" fill="#000000">...</text>
<polygon fill="#ffffff" stroke="transparent" points="31.5,-262.7 31.5,-281.7 69.5,-281.7 69.5,-262.7 31.5,-262.7"/>
<polygon fill="none" stroke="#000000" points="31.5,-262.7 31.5,-281.7 69.5,-281.7 69.5,-262.7 31.5,-262.7"/>
<text text-anchor="start" x="34.5" y="-268.8" font-family="Helvetica,sans-Serif" font-size="11.00" fill="#000000"> &#160;</text>
<polygon fill="#ffffff" stroke="transparent" points="69.5,-262.7 69.5,-281.7 94.5,-281.7 94.5,-262.7 69.5,-262.7"/>
<polygon fill="none" stroke="#000000" points="69.5,-262.7 69.5,-281.7 94.5,-281.7 94.5,-262.7 69.5,-262.7"/>
<text text-anchor="start" x="85.3862" y="-268.8" font-family="Helvetica,sans-Serif" font-size="11.00" fill="#000000"> &#160;</text>
<polygon fill="#ffffff" stroke="transparent" points="94.5,-262.7 94.5,-281.7 128.5,-281.7 128.5,-262.7 94.5,-262.7"/>
<polygon fill="none" stroke="#000000" points="94.5,-262.7 94.5,-281.7 128.5,-281.7 128.5,-262.7 94.5,-262.7"/>
<text text-anchor="start" x="109.9053" y="-268.8" font-family="Helvetica,sans-Serif" font-size="11.00" fill="#000000">7 &gt;</text>
</a>
</g>
</g>
<!-- allocation&#45;&gt;policy -->
<g id="edge3" class="edge">
<title>allocation:w&#45;&gt;policy:e</title>
<path fill="none" stroke="#000000" d="M291.3838,-763.7369C247.5095,-763.8412 223.1361,-762.6196 192,-725.7 131.9947,-654.5489 221.5759,-311.7 128.5,-311.7"/>
<polygon fill="#000000" stroke="#000000" points="298,-763.7203 306.0091,-767.3 302,-763.7101 306,-763.7 306,-763.7 306,-763.7 302,-763.7101 305.9909,-760.1 298,-763.7203 298,-763.7203"/>
<ellipse fill="none" stroke="#000000" cx="294.8" cy="-763.7284" rx="3.2" ry="3.2"/>
</g>
<!-- prison_configuration -->
<g id="node4" class="node">
<title>prison_configuration</title>
<g id="a_node4"><a xlink:href="../../tables/prison_configuration.html" xlink:title="prison_configuration" target="_top">
<polygon fill="#ffffff" stroke="transparent" points="269,-202.2 269,-263.2 447,-263.2 447,-202.2 269,-202.2"/>
<polygon fill="#f5f5f5" stroke="transparent" points="269,-239.7 269,-262.7 447,-262.7 447,-239.7 269,-239.7"/>
<polygon fill="none" stroke="#000000" points="269,-239.7 269,-262.7 447,-262.7 447,-239.7 269,-239.7"/>
<text text-anchor="start" x="274" y="-248.3" font-family="Helvetica,sans-Serif" font-weight="bold" font-size="11.00" fill="#000000">prison_configuration</text>
<text text-anchor="start" x="412.5219" y="-247.8" font-family="Helvetica,sans-Serif" font-size="11.00" fill="#000000">[table]</text>
<polygon fill="none" stroke="#000000" points="269,-220.7 269,-239.7 447,-239.7 447,-220.7 269,-220.7"/>
<text text-anchor="start" x="272" y="-226.8" font-family="Helvetica,sans-Serif" font-size="11.00" fill="#000000">...</text>
<polygon fill="#ffffff" stroke="transparent" points="269,-201.7 269,-220.7 340,-220.7 340,-201.7 269,-201.7"/>
<polygon fill="none" stroke="#000000" points="269,-201.7 269,-220.7 340,-220.7 340,-201.7 269,-201.7"/>
<text text-anchor="start" x="272" y="-207.8" font-family="Helvetica,sans-Serif" font-size="11.00" fill="#000000">&lt; 1</text>
<polygon fill="#ffffff" stroke="transparent" points="340,-201.7 340,-220.7 409,-220.7 409,-201.7 340,-201.7"/>
<polygon fill="none" stroke="#000000" points="340,-201.7 340,-220.7 409,-220.7 409,-201.7 340,-201.7"/>
<text text-anchor="start" x="367.4956" y="-207.8" font-family="Helvetica,sans-Serif" font-size="11.00" fill="#000000">12 rows</text>
<polygon fill="#ffffff" stroke="transparent" points="409,-201.7 409,-220.7 447,-220.7 447,-201.7 409,-201.7"/>
<polygon fill="none" stroke="#000000" points="409,-201.7 409,-220.7 447,-220.7 447,-201.7 409,-201.7"/>
<text text-anchor="start" x="437.8862" y="-207.8" font-family="Helvetica,sans-Serif" font-size="11.00" fill="#000000"> &#160;</text>
</a>
</g>
</g>
<!-- prison_configuration&#45;&gt;policy -->
<g id="edge4" class="edge">
<title>prison_configuration:w&#45;&gt;policy:e</title>
<path fill="none" stroke="#000000" d="M254.3143,-231.0511C227.9807,-236.3954 221.2392,-256.5995 192,-273.7 163.6094,-290.3042 161.3896,-311.7 128.5,-311.7"/>
<polygon fill="#000000" stroke="#000000" points="261.0336,-230.433 269.3298,-233.2849 265.0168,-230.0665 269,-229.7 269,-229.7 269,-229.7 265.0168,-230.0665 268.6702,-226.1151 261.0336,-230.433 261.0336,-230.433"/>
<ellipse fill="none" stroke="#000000" cx="257.8471" cy="-230.7262" rx="3.2" ry="3.2"/>
</g>
<!-- prison_statistic -->
<g id="node5" class="node">
<title>prison_statistic</title>
<g id="a_node5"><a xlink:href="../../tables/prison_statistic.html" xlink:title="prison_statistic" target="_top">
<polygon fill="#ffffff" stroke="transparent" points="287,-120.2 287,-181.2 429,-181.2 429,-120.2 287,-120.2"/>
<polygon fill="#f5f5f5" stroke="transparent" points="287,-157.7 287,-180.7 429,-180.7 429,-157.7 287,-157.7"/>
<polygon fill="none" stroke="#000000" points="287,-157.7 287,-180.7 429,-180.7 429,-157.7 287,-157.7"/>
<text text-anchor="start" x="292" y="-166.3" font-family="Helvetica,sans-Serif" font-weight="bold" font-size="11.00" fill="#000000">prison_statistic</text>
<text text-anchor="start" x="394.5219" y="-165.8" font-family="Helvetica,sans-Serif" font-size="11.00" fill="#000000">[table]</text>
<polygon fill="none" stroke="#000000" points="287,-138.7 287,-157.7 429,-157.7 429,-138.7 287,-138.7"/>
<text text-anchor="start" x="290" y="-144.8" font-family="Helvetica,sans-Serif" font-size="11.00" fill="#000000">...</text>
<polygon fill="#ffffff" stroke="transparent" points="287,-119.7 287,-138.7 356,-138.7 356,-119.7 287,-119.7"/>
<polygon fill="none" stroke="#000000" points="287,-119.7 287,-138.7 356,-138.7 356,-119.7 287,-119.7"/>
<text text-anchor="start" x="290" y="-125.8" font-family="Helvetica,sans-Serif" font-size="11.00" fill="#000000">&lt; 1</text>
<polygon fill="#ffffff" stroke="transparent" points="356,-119.7 356,-138.7 392,-138.7 392,-119.7 356,-119.7"/>
<polygon fill="none" stroke="#000000" points="356,-119.7 356,-138.7 392,-138.7 392,-119.7 356,-119.7"/>
<text text-anchor="start" x="382.8862" y="-125.8" font-family="Helvetica,sans-Serif" font-size="11.00" fill="#000000"> &#160;</text>
<polygon fill="#ffffff" stroke="transparent" points="392,-119.7 392,-138.7 429,-138.7 429,-119.7 392,-119.7"/>
<polygon fill="none" stroke="#000000" points="392,-119.7 392,-138.7 429,-138.7 429,-119.7 392,-119.7"/>
<text text-anchor="start" x="419.8862" y="-125.8" font-family="Helvetica,sans-Serif" font-size="11.00" fill="#000000"> &#160;</text>
</a>
</g>
</g>
<!-- prison_statistic&#45;&gt;policy -->
<g id="edge5" class="edge">
<title>prison_statistic:w&#45;&gt;policy:e</title>
<path fill="none" stroke="#000000" d="M272.3379,-148.1729C236.8924,-150.6715 221.9375,-163.3076 192,-191.7 148.2182,-233.2222 188.8402,-311.7 128.5,-311.7"/>
<polygon fill="#000000" stroke="#000000" points="279.0042,-147.958 287.1161,-151.2981 283.0021,-147.829 287,-147.7 287,-147.7 287,-147.7 283.0021,-147.829 286.8839,-144.1019 279.0042,-147.958 279.0042,-147.958"/>
<ellipse fill="none" stroke="#000000" cx="275.8058" cy="-148.0611" rx="3.2" ry="3.2"/>
</g>
<!-- recorded_event -->
<g id="node6" class="node">
<title>recorded_event</title>
<g id="a_node6"><a xlink:href="../../tables/recorded_event.html" xlink:title="recorded_event" target="_top">
<polygon fill="#ffffff" stroke="transparent" points="241,-448.7 241,-714.7 475,-714.7 475,-448.7 241,-448.7"/>
<polygon fill="#f5f5f5" stroke="transparent" points="243,-689.7 243,-712.7 473,-712.7 473,-689.7 243,-689.7"/>
<polygon fill="none" stroke="#000000" points="243,-689.7 243,-712.7 473,-712.7 473,-689.7 243,-689.7"/>
<text text-anchor="start" x="248" y="-698.3" font-family="Helvetica,sans-Serif" font-weight="bold" font-size="11.00" fill="#000000">recorded_event</text>
<text text-anchor="start" x="438.0437" y="-697.8" font-family="Helvetica,sans-Serif" font-size="11.00" fill="#000000">[table]</text>
<polygon fill="none" stroke="#000000" points="243,-667.7 243,-689.7 379,-689.7 379,-667.7 243,-667.7"/>
<image xlink:href="../../images/primaryKeys.png" width="11px" height="12px" preserveAspectRatio="xMinYMin meet" x="248" y="-684.7"/>
<text text-anchor="start" x="263" y="-674.8" font-family="Helvetica,sans-Serif" font-size="11.00" fill="#000000">id</text>
<polygon fill="none" stroke="#000000" points="379,-667.7 379,-689.7 473,-689.7 473,-667.7 379,-667.7"/>
<text text-anchor="start" x="381.9758" y="-675.4" font-family="Helvetica,sans-Serif" font-size="11.00" fill="#000000">uuid[2147483647]</text>
<polygon fill="#ffffff" stroke="transparent" points="243,-645.7 243,-667.7 379,-667.7 379,-645.7 243,-645.7"/>
<polygon fill="none" stroke="#000000" points="243,-645.7 243,-667.7 379,-667.7 379,-645.7 243,-645.7"/>
<image xlink:href="../../images/foreignKeys.png" width="11px" height="12px" preserveAspectRatio="xMinYMin meet" x="248" y="-662.7"/>
<text text-anchor="start" x="263" y="-652.8" font-family="Helvetica,sans-Serif" font-size="11.00" fill="#000000">prison_code</text>
<polygon fill="none" stroke="#000000" points="379,-645.7 379,-667.7 473,-667.7 473,-645.7 379,-645.7"/>
<text text-anchor="start" x="382" y="-653.4" font-family="Helvetica,sans-Serif" font-size="11.00" fill="#000000">varchar[6]</text>
<polygon fill="#ffffff" stroke="transparent" points="243,-623.7 243,-645.7 379,-645.7 379,-623.7 243,-623.7"/>
<polygon fill="none" stroke="#000000" points="243,-623.7 243,-645.7 379,-645.7 379,-623.7 243,-623.7"/>
<text text-anchor="start" x="263" y="-630.8" font-family="Helvetica,sans-Serif" font-size="11.00" fill="#000000">person_identifier</text>
<polygon fill="none" stroke="#000000" points="379,-623.7 379,-645.7 473,-645.7 473,-623.7 379,-623.7"/>
<text text-anchor="start" x="382" y="-631.4" font-family="Helvetica,sans-Serif" font-size="11.00" fill="#000000">varchar[7]</text>
<polygon fill="#ffffff" stroke="transparent" points="243,-601.7 243,-623.7 379,-623.7 379,-601.7 243,-601.7"/>
<polygon fill="none" stroke="#000000" points="243,-601.7 243,-623.7 379,-623.7 379,-601.7 243,-601.7"/>
<text text-anchor="start" x="263" y="-608.8" font-family="Helvetica,sans-Serif" font-size="11.00" fill="#000000">staff_id</text>
<polygon fill="none" stroke="#000000" points="379,-601.7 379,-623.7 473,-623.7 473,-601.7 379,-601.7"/>
<text text-anchor="start" x="382" y="-609.4" font-family="Helvetica,sans-Serif" font-size="11.00" fill="#000000">int8[19]</text>
<polygon fill="none" stroke="#000000" points="243,-579.7 243,-601.7 379,-601.7 379,-579.7 243,-579.7"/>
<text text-anchor="start" x="263" y="-586.8" font-family="Helvetica,sans-Serif" font-size="11.00" fill="#000000">username</text>
<polygon fill="none" stroke="#000000" points="379,-579.7 379,-601.7 473,-601.7 473,-579.7 379,-579.7"/>
<text text-anchor="start" x="382" y="-587.4" font-family="Helvetica,sans-Serif" font-size="11.00" fill="#000000">varchar[64]</text>
<polygon fill="#ffffff" stroke="transparent" points="243,-557.7 243,-579.7 379,-579.7 379,-557.7 243,-557.7"/>
<polygon fill="none" stroke="#000000" points="243,-557.7 243,-579.7 379,-579.7 379,-557.7 243,-557.7"/>
<text text-anchor="start" x="263" y="-564.8" font-family="Helvetica,sans-Serif" font-size="11.00" fill="#000000">occurred_at</text>
<polygon fill="none" stroke="#000000" points="379,-557.7 379,-579.7 473,-579.7 473,-557.7 379,-557.7"/>
<text text-anchor="start" x="382" y="-565.4" font-family="Helvetica,sans-Serif" font-size="11.00" fill="#000000">timestamp[29,6]</text>
<polygon fill="none" stroke="#000000" points="243,-535.7 243,-557.7 379,-557.7 379,-535.7 243,-535.7"/>
<text text-anchor="start" x="263" y="-542.8" font-family="Helvetica,sans-Serif" font-size="11.00" fill="#000000">version</text>
<polygon fill="none" stroke="#000000" points="379,-535.7 379,-557.7 473,-557.7 473,-535.7 379,-535.7"/>
<text text-anchor="start" x="382" y="-543.4" font-family="Helvetica,sans-Serif" font-size="11.00" fill="#000000">int4[10]</text>
<polygon fill="#ffffff" stroke="transparent" points="243,-513.7 243,-535.7 379,-535.7 379,-513.7 243,-513.7"/>
<polygon fill="none" stroke="#000000" points="243,-513.7 243,-535.7 379,-535.7 379,-513.7 243,-513.7"/>
<text text-anchor="start" x="263" y="-520.8" font-family="Helvetica,sans-Serif" font-size="11.00" fill="#000000">created_at</text>
<polygon fill="none" stroke="#000000" points="379,-513.7 379,-535.7 473,-535.7 473,-513.7 379,-513.7"/>
<text text-anchor="start" x="382" y="-521.4" font-family="Helvetica,sans-Serif" font-size="11.00" fill="#000000">timestamp[29,6]</text>
<polygon fill="#ffffff" stroke="transparent" points="243,-491.7 243,-513.7 379,-513.7 379,-491.7 243,-491.7"/>
<polygon fill="none" stroke="#000000" points="243,-491.7 243,-513.7 379,-513.7 379,-491.7 243,-491.7"/>
<image xlink:href="../../images/foreignKeys.png" width="11px" height="12px" preserveAspectRatio="xMinYMin meet" x="248" y="-508.7"/>
<text text-anchor="start" x="263" y="-498.8" font-family="Helvetica,sans-Serif" font-size="11.00" fill="#000000">policy_code</text>
<polygon fill="none" stroke="#000000" points="379,-491.7 379,-513.7 473,-513.7 473,-491.7 379,-491.7"/>
<text text-anchor="start" x="382" y="-499.4" font-family="Helvetica,sans-Serif" font-size="11.00" fill="#000000">varchar[16]</text>
<polygon fill="#ffffff" stroke="transparent" points="243,-469.7 243,-491.7 379,-491.7 379,-469.7 243,-469.7"/>
<polygon fill="none" stroke="#000000" points="243,-469.7 243,-491.7 379,-491.7 379,-469.7 243,-469.7"/>
<image xlink:href="../../images/foreignKeys.png" width="11px" height="12px" preserveAspectRatio="xMinYMin meet" x="248" y="-486.7"/>
<text text-anchor="start" x="263" y="-476.8" font-family="Helvetica,sans-Serif" font-size="11.00" fill="#000000">type_id</text>
<polygon fill="none" stroke="#000000" points="379,-469.7 379,-491.7 473,-491.7 473,-469.7 379,-469.7"/>
<text text-anchor="start" x="382" y="-477.4" font-family="Helvetica,sans-Serif" font-size="11.00" fill="#000000">int8[19]</text>
<polygon fill="#ffffff" stroke="transparent" points="243,-450.7 243,-469.7 315,-469.7 315,-450.7 243,-450.7"/>
<polygon fill="none" stroke="#000000" points="243,-450.7 243,-469.7 315,-469.7 315,-450.7 243,-450.7"/>
<text text-anchor="start" x="246" y="-456.8" font-family="Helvetica,sans-Serif" font-size="11.00" fill="#000000">&lt; 2</text>
<polygon fill="#ffffff" stroke="transparent" points="315,-450.7 315,-469.7 379,-469.7 379,-450.7 315,-450.7"/>
<polygon fill="none" stroke="#000000" points="315,-450.7 315,-469.7 379,-469.7 379,-450.7 315,-450.7"/>
<text text-anchor="start" x="369.8862" y="-456.8" font-family="Helvetica,sans-Serif" font-size="11.00" fill="#000000"> &#160;</text>
<polygon fill="#ffffff" stroke="transparent" points="379,-450.7 379,-469.7 473,-469.7 473,-450.7 379,-450.7"/>
<polygon fill="none" stroke="#000000" points="379,-450.7 379,-469.7 473,-469.7 473,-450.7 379,-450.7"/>
<text text-anchor="start" x="454.4053" y="-456.8" font-family="Helvetica,sans-Serif" font-size="11.00" fill="#000000">0 &gt;</text>
<polygon fill="none" stroke="#000000" stroke-width="2" points="242,-449.7 242,-713.7 474,-713.7 474,-449.7 242,-449.7"/>
</a>
</g>
</g>
<!-- recorded_event&#45;&gt;reference_data -->
<g id="edge7" class="edge">
<title>recorded_event:w&#45;&gt;reference_data:e</title>
<path fill="none" stroke="#000000" d="M229.3626,-485.612C182.6115,-523.1915 212.4307,-763.7 151.5,-763.7"/>
<polygon fill="#000000" stroke="#000000" points="235.4733,-483.411 244.22,-484.087 239.2367,-482.0555 243,-480.7 243,-480.7 243,-480.7 239.2367,-482.0555 241.78,-477.313 235.4733,-483.411 235.4733,-483.411"/>
<ellipse fill="none" stroke="#000000" cx="232.4627" cy="-484.4954" rx="3.2" ry="3.2"/>
</g>
<!-- recorded_event&#45;&gt;policy -->
<g id="edge6" class="edge">
<title>recorded_event:w&#45;&gt;policy:e</title>
<path fill="none" stroke="#000000" d="M228.3392,-501.0488C152.6078,-482.3806 222.0611,-311.7 128.5,-311.7"/>
<polygon fill="#000000" stroke="#000000" points="235.0503,-501.8046 242.5971,-506.2774 239.0251,-502.2523 243,-502.7 243,-502.7 243,-502.7 239.0251,-502.2523 243.4029,-499.1226 235.0503,-501.8046 235.0503,-501.8046"/>
<ellipse fill="none" stroke="#000000" cx="231.8704" cy="-501.4464" rx="3.2" ry="3.2"/>
</g>
<!-- recorded_event_audit -->
<g id="node7" class="node">
<title>recorded_event_audit</title>
<g id="a_node7"><a xlink:href="../../tables/recorded_event_audit.html" xlink:title="recorded_event_audit" target="_top">
<polygon fill="#ffffff" stroke="transparent" points="265.5,-38.2 265.5,-99.2 450.5,-99.2 450.5,-38.2 265.5,-38.2"/>
<polygon fill="#f5f5f5" stroke="transparent" points="266,-75.7 266,-98.7 451,-98.7 451,-75.7 266,-75.7"/>
<polygon fill="none" stroke="#000000" points="266,-75.7 266,-98.7 451,-98.7 451,-75.7 266,-75.7"/>
<text text-anchor="start" x="271" y="-84.3" font-family="Helvetica,sans-Serif" font-weight="bold" font-size="11.00" fill="#000000">recorded_event_audit</text>
<text text-anchor="start" x="416.5219" y="-83.8" font-family="Helvetica,sans-Serif" font-size="11.00" fill="#000000">[table]</text>
<polygon fill="none" stroke="#000000" points="266,-56.7 266,-75.7 451,-75.7 451,-56.7 266,-56.7"/>
<text text-anchor="start" x="269" y="-62.8" font-family="Helvetica,sans-Serif" font-size="11.00" fill="#000000">...</text>
<polygon fill="#ffffff" stroke="transparent" points="266,-37.7 266,-56.7 357,-56.7 357,-37.7 266,-37.7"/>
<polygon fill="none" stroke="#000000" points="266,-37.7 266,-56.7 357,-56.7 357,-37.7 266,-37.7"/>
<text text-anchor="start" x="269" y="-43.8" font-family="Helvetica,sans-Serif" font-size="11.00" fill="#000000">&lt; 2</text>
<polygon fill="#ffffff" stroke="transparent" points="357,-37.7 357,-56.7 404,-56.7 404,-37.7 357,-37.7"/>
<polygon fill="none" stroke="#000000" points="357,-37.7 357,-56.7 404,-56.7 404,-37.7 357,-37.7"/>
<text text-anchor="start" x="394.8862" y="-43.8" font-family="Helvetica,sans-Serif" font-size="11.00" fill="#000000"> &#160;</text>
<polygon fill="#ffffff" stroke="transparent" points="404,-37.7 404,-56.7 451,-56.7 451,-37.7 404,-37.7"/>
<polygon fill="none" stroke="#000000" points="404,-37.7 404,-56.7 451,-56.7 451,-37.7 404,-37.7"/>
<text text-anchor="start" x="441.8862" y="-43.8" font-family="Helvetica,sans-Serif" font-size="11.00" fill="#000000"> &#160;</text>
</a>
</g>
</g>
<!-- recorded_event_audit&#45;&gt;policy -->
<g id="edge8" class="edge">
<title>recorded_event_audit:w&#45;&gt;policy:e</title>
<path fill="none" stroke="#000000" d="M251.3105,-66.5359C224.1315,-69.9528 212.406,-83.9149 192,-109.7 133.5987,-183.4959 222.6092,-311.7 128.5,-311.7"/>
<polygon fill="#000000" stroke="#000000" points="258.0129,-66.1546 266.2045,-69.2942 262.0065,-65.9273 266,-65.7 266,-65.7 266,-65.7 262.0065,-65.9273 265.7955,-62.1058 258.0129,-66.1546 258.0129,-66.1546"/>
<ellipse fill="none" stroke="#000000" cx="254.8181" cy="-66.3364" rx="3.2" ry="3.2"/>
</g>
<!-- reference_data_policy -->
<g id="node8" class="node">
<title>reference_data_policy</title>
<g id="a_node8"><a xlink:href="../../tables/reference_data_policy.html" xlink:title="reference_data_policy" target="_top">
<polygon fill="#ffffff" stroke="transparent" points="265,-366.2 265,-427.2 451,-427.2 451,-366.2 265,-366.2"/>
<polygon fill="#f5f5f5" stroke="transparent" points="265,-403.7 265,-426.7 451,-426.7 451,-403.7 265,-403.7"/>
<polygon fill="none" stroke="#000000" points="265,-403.7 265,-426.7 451,-426.7 451,-403.7 265,-403.7"/>
<text text-anchor="start" x="270" y="-412.3" font-family="Helvetica,sans-Serif" font-weight="bold" font-size="11.00" fill="#000000">reference_data_policy</text>
<text text-anchor="start" x="416.5219" y="-411.8" font-family="Helvetica,sans-Serif" font-size="11.00" fill="#000000">[table]</text>
<polygon fill="none" stroke="#000000" points="265,-384.7 265,-403.7 451,-403.7 451,-384.7 265,-384.7"/>
<text text-anchor="start" x="268" y="-390.8" font-family="Helvetica,sans-Serif" font-size="11.00" fill="#000000">...</text>
<polygon fill="#ffffff" stroke="transparent" points="265,-365.7 265,-384.7 356,-384.7 356,-365.7 265,-365.7"/>
<polygon fill="none" stroke="#000000" points="265,-365.7 265,-384.7 356,-384.7 356,-365.7 265,-365.7"/>
<text text-anchor="start" x="268" y="-371.8" font-family="Helvetica,sans-Serif" font-size="11.00" fill="#000000">&lt; 2</text>
<polygon fill="#ffffff" stroke="transparent" points="356,-365.7 356,-384.7 403,-384.7 403,-365.7 356,-365.7"/>
<polygon fill="none" stroke="#000000" points="356,-365.7 356,-384.7 403,-384.7 403,-365.7 356,-365.7"/>
<text text-anchor="start" x="393.8862" y="-371.8" font-family="Helvetica,sans-Serif" font-size="11.00" fill="#000000"> &#160;</text>
<polygon fill="#ffffff" stroke="transparent" points="403,-365.7 403,-384.7 451,-384.7 451,-365.7 403,-365.7"/>
<polygon fill="none" stroke="#000000" points="403,-365.7 403,-384.7 451,-384.7 451,-365.7 403,-365.7"/>
<text text-anchor="start" x="441.8862" y="-371.8" font-family="Helvetica,sans-Serif" font-size="11.00" fill="#000000"> &#160;</text>
</a>
</g>
</g>
<!-- reference_data_policy&#45;&gt;reference_data -->
<g id="edge9" class="edge">
<title>reference_data_policy:w&#45;&gt;reference_data:e</title>
<path fill="none" stroke="#000000" d="M250.3244,-394.4459C222.9223,-397.526 209.7314,-410.3975 192,-437.7 152.2392,-498.9231 224.5014,-763.7 151.5,-763.7"/>
<polygon fill="#000000" stroke="#000000" points="257.0103,-394.1061 265.1828,-397.2954 261.0052,-393.9031 265,-393.7 265,-393.7 265,-393.7 261.0052,-393.9031 264.8172,-390.1046 257.0103,-394.1061 257.0103,-394.1061"/>
<ellipse fill="none" stroke="#000000" cx="253.8144" cy="-394.2686" rx="3.2" ry="3.2"/>
</g>
<!-- reference_data_policy&#45;&gt;policy -->
<g id="edge10" class="edge">
<title>reference_data_policy:w&#45;&gt;policy:e</title>
<path fill="none" stroke="#000000" d="M250.6034,-392.5005C226.3296,-388.0336 218.6682,-371.7929 192,-355.7 162.6026,-337.9601 162.8353,-311.7 128.5,-311.7"/>
<polygon fill="#000000" stroke="#000000" points="257.0276,-393.0357 264.7011,-397.2876 261.0138,-393.3678 265,-393.7 265,-393.7 265,-393.7 261.0138,-393.3678 265.2989,-390.1124 257.0276,-393.0357 257.0276,-393.0357"/>
<ellipse fill="none" stroke="#000000" cx="253.8387" cy="-392.77" rx="3.2" ry="3.2"/>
</g>
<!-- staff_configuration -->
<g id="node9" class="node">
<title>staff_configuration</title>
<g id="a_node9"><a xlink:href="../../tables/staff_configuration.html" xlink:title="staff_configuration" target="_top">
<polygon fill="#ffffff" stroke="transparent" points="274.5,-284.2 274.5,-345.2 441.5,-345.2 441.5,-284.2 274.5,-284.2"/>
<polygon fill="#f5f5f5" stroke="transparent" points="275,-321.7 275,-344.7 442,-344.7 442,-321.7 275,-321.7"/>
<polygon fill="none" stroke="#000000" points="275,-321.7 275,-344.7 442,-344.7 442,-321.7 275,-321.7"/>
<text text-anchor="start" x="280" y="-330.3" font-family="Helvetica,sans-Serif" font-weight="bold" font-size="11.00" fill="#000000">staff_configuration</text>
<text text-anchor="start" x="407.5219" y="-329.8" font-family="Helvetica,sans-Serif" font-size="11.00" fill="#000000">[table]</text>
<polygon fill="none" stroke="#000000" points="275,-302.7 275,-321.7 442,-321.7 442,-302.7 275,-302.7"/>
<text text-anchor="start" x="278" y="-308.8" font-family="Helvetica,sans-Serif" font-size="11.00" fill="#000000">...</text>
<polygon fill="#ffffff" stroke="transparent" points="275,-283.7 275,-302.7 357,-302.7 357,-283.7 275,-283.7"/>
<polygon fill="none" stroke="#000000" points="275,-283.7 275,-302.7 357,-302.7 357,-283.7 275,-283.7"/>
<text text-anchor="start" x="278" y="-289.8" font-family="Helvetica,sans-Serif" font-size="11.00" fill="#000000">&lt; 2</text>
<polygon fill="#ffffff" stroke="transparent" points="357,-283.7 357,-302.7 399,-302.7 399,-283.7 357,-283.7"/>
<polygon fill="none" stroke="#000000" points="357,-283.7 357,-302.7 399,-302.7 399,-283.7 357,-283.7"/>
<text text-anchor="start" x="389.8862" y="-289.8" font-family="Helvetica,sans-Serif" font-size="11.00" fill="#000000"> &#160;</text>
<polygon fill="#ffffff" stroke="transparent" points="399,-283.7 399,-302.7 442,-302.7 442,-283.7 399,-283.7"/>
<polygon fill="none" stroke="#000000" points="399,-283.7 399,-302.7 442,-302.7 442,-283.7 399,-283.7"/>
<text text-anchor="start" x="432.8862" y="-289.8" font-family="Helvetica,sans-Serif" font-size="11.00" fill="#000000"> &#160;</text>
</a>
</g>
</g>
<!-- staff_configuration&#45;&gt;reference_data -->
<g id="edge12" class="edge">
<title>staff_configuration:w&#45;&gt;reference_data:e</title>
<path fill="none" stroke="#000000" d="M260.4006,-312.1687C228.6707,-314.4292 212.3601,-325.3666 192,-355.7 141.2223,-431.3509 242.6123,-763.7 151.5,-763.7"/>
<polygon fill="#000000" stroke="#000000" points="267.0041,-311.9568 275.1156,-315.2981 271.0021,-311.8284 275,-311.7 275,-311.7 275,-311.7 271.0021,-311.8284 274.8844,-308.1019 267.0041,-311.9568 267.0041,-311.9568"/>
<ellipse fill="none" stroke="#000000" cx="263.8058" cy="-312.0595" rx="3.2" ry="3.2"/>
</g>
<!-- staff_configuration&#45;&gt;policy -->
<g id="edge11" class="edge">
<title>staff_configuration:w&#45;&gt;policy:e</title>
<path fill="none" stroke="#000000" d="M260.5872,-311.7C207.0474,-311.7 188.5243,-311.7 128.5,-311.7"/>
<polygon fill="#000000" stroke="#000000" points="267,-311.7001 275,-315.3 271,-311.7 275,-311.7 275,-311.7 275,-311.7 271,-311.7 275,-308.1 267,-311.7001 267,-311.7001"/>
<ellipse fill="none" stroke="#000000" cx="263.8" cy="-311.7001" rx="3.2" ry="3.2"/>
</g>
<!-- zz_archived_legacy_keyworker_allocation -->
<g id="node10" class="node">
<title>zz_archived_legacy_keyworker_allocation</title>
<g id="a_node10"><a xlink:href="../../tables/zz_archived_legacy_keyworker_allocation.html" xlink:title="zz_archived_legacy_keyworker_allocation" target="_top">
<polygon fill="#ffffff" stroke="transparent" points="200,-818.2 200,-879.2 516,-879.2 516,-818.2 200,-818.2"/>
<polygon fill="#f5f5f5" stroke="transparent" points="200,-855.7 200,-878.7 516,-878.7 516,-855.7 200,-855.7"/>
<polygon fill="none" stroke="#000000" points="200,-855.7 200,-878.7 516,-878.7 516,-855.7 200,-855.7"/>
<text text-anchor="start" x="205" y="-864.3" font-family="Helvetica,sans-Serif" font-weight="bold" font-size="11.00" fill="#000000">zz_archived_legacy_keyworker_allocation</text>
<text text-anchor="start" x="481.5219" y="-863.8" font-family="Helvetica,sans-Serif" font-size="11.00" fill="#000000">[table]</text>
<polygon fill="none" stroke="#000000" points="200,-836.7 200,-855.7 516,-855.7 516,-836.7 200,-836.7"/>
<text text-anchor="start" x="203" y="-842.8" font-family="Helvetica,sans-Serif" font-size="11.00" fill="#000000">...</text>
<polygon fill="#ffffff" stroke="transparent" points="200,-817.7 200,-836.7 356,-836.7 356,-817.7 200,-817.7"/>
<polygon fill="none" stroke="#000000" points="200,-817.7 200,-836.7 356,-836.7 356,-817.7 200,-817.7"/>
<text text-anchor="start" x="203" y="-823.8" font-family="Helvetica,sans-Serif" font-size="11.00" fill="#000000">&lt; 2</text>
<polygon fill="#ffffff" stroke="transparent" points="356,-817.7 356,-836.7 436,-836.7 436,-817.7 356,-817.7"/>
<polygon fill="none" stroke="#000000" points="356,-817.7 356,-836.7 436,-836.7 436,-817.7 356,-817.7"/>
<text text-anchor="start" x="426.8862" y="-823.8" font-family="Helvetica,sans-Serif" font-size="11.00" fill="#000000"> &#160;</text>
<polygon fill="#ffffff" stroke="transparent" points="436,-817.7 436,-836.7 516,-836.7 516,-817.7 436,-817.7"/>
<polygon fill="none" stroke="#000000" points="436,-817.7 436,-836.7 516,-836.7 516,-817.7 436,-817.7"/>
<text text-anchor="start" x="506.8862" y="-823.8" font-family="Helvetica,sans-Serif" font-size="11.00" fill="#000000"> &#160;</text>
</a>
</g>
</g>
<!-- zz_archived_legacy_keyworker_allocation&#45;&gt;reference_data -->
<g id="edge13" class="edge">
<title>zz_archived_legacy_keyworker_allocation:w&#45;&gt;reference_data:e</title>
<path fill="none" stroke="#000000" d="M186.9168,-839.6718C165.8843,-819.471 188.2184,-758.4969 151.5,-763.7"/>
<polygon fill="#000000" stroke="#000000" points="192.7342,-842.3522 198.4935,-848.9696 196.3671,-844.0261 200,-845.7 200,-845.7 200,-845.7 196.3671,-844.0261 201.5065,-842.4304 192.7342,-842.3522 192.7342,-842.3522"/>
<ellipse fill="none" stroke="#000000" cx="189.8278" cy="-841.0131" rx="3.2" ry="3.2"/>
</g>
<!-- zz_archived_legacy_keyworker_allocation&#45;&gt;reference_data -->
<g id="edge14" class="edge">
<title>zz_archived_legacy_keyworker_allocation:w&#45;&gt;reference_data:e</title>
<path fill="none" stroke="#000000" d="M185.5606,-843.2824C166.8604,-829.4563 187.3914,-769.6336 151.5,-763.7"/>
<polygon fill="#000000" stroke="#000000" points="192.1098,-844.3789 199.4055,-849.2506 196.0549,-845.0394 200,-845.7 200,-845.7 200,-845.7 196.0549,-845.0394 200.5945,-842.1494 192.1098,-844.3789 192.1098,-844.3789"/>
<ellipse fill="none" stroke="#000000" cx="188.9538" cy="-843.8504" rx="3.2" ry="3.2"/>
</g>
</g>
</svg>
