<?xml version="1.0" encoding="UTF-8" standalone="no"?>
<!DOCTYPE svg PUBLIC "-//W3C//DTD SVG 1.1//EN"
 "http://www.w3.org/Graphics/SVG/1.1/DTD/svg11.dtd">
<!-- Generated by graphviz version 2.40.1 (20161225.0304)
 -->
<!-- Title: oneDegreeRelationshipsDiagram Pages: 1 -->
<svg width="472pt" height="338pt"
 viewBox="0.00 0.00 472.00 338.20" xmlns="http://www.w3.org/2000/svg" xmlns:xlink="http://www.w3.org/1999/xlink">
<g id="graph0" class="graph" transform="scale(1 1) rotate(0) translate(4 334.2)">
<title>oneDegreeRelationshipsDiagram</title>
<polygon fill="#ffffff" stroke="transparent" points="-4,4 -4,-334.2 468,-334.2 468,4 -4,4"/>
<text text-anchor="middle" x="72.4936" y="-7.3" font-family="Helvetica,sans-Serif" font-size="11.00" fill="#000000">Generated by SchemaSpy</text>
<!-- recorded_event_audit -->
<g id="node1" class="node">
<title>recorded_event_audit</title>
<g id="a_node1"><a xlink:href="../../tables/recorded_event_audit.html" xlink:title="recorded_event_audit" target="_top">
<polygon fill="#ffffff" stroke="transparent" points="191,-38.2 191,-326.2 456,-326.2 456,-38.2 191,-38.2"/>
<polygon fill="#f5f5f5" stroke="transparent" points="193.5,-301.2 193.5,-324.2 454.5,-324.2 454.5,-301.2 193.5,-301.2"/>
<polygon fill="none" stroke="#000000" points="193.5,-301.2 193.5,-324.2 454.5,-324.2 454.5,-301.2 193.5,-301.2"/>
<text text-anchor="start" x="198.5" y="-309.8" font-family="Helvetica,sans-Serif" font-weight="bold" font-size="11.00" fill="#000000">recorded_event_audit</text>
<text text-anchor="start" x="419.5437" y="-309.3" font-family="Helvetica,sans-Serif" font-size="11.00" fill="#000000">[table]</text>
<polygon fill="#ffffff" stroke="transparent" points="193.5,-279.2 193.5,-301.2 360.5,-301.2 360.5,-279.2 193.5,-279.2"/>
<polygon fill="none" stroke="#000000" points="193.5,-279.2 193.5,-301.2 360.5,-301.2 360.5,-279.2 193.5,-279.2"/>
<image xlink:href="../../images/foreignKeys.png" width="11px" height="12px" preserveAspectRatio="xMinYMin meet" x="198.5" y="-296.2"/>
<text text-anchor="start" x="213.5" y="-286.3" font-family="Helvetica,sans-Serif" font-size="11.00" fill="#000000">rev_id</text>
<polygon fill="none" stroke="#000000" points="360.5,-279.2 360.5,-301.2 454.5,-301.2 454.5,-279.2 360.5,-279.2"/>
<text text-anchor="start" x="363.5" y="-286.9" font-family="Helvetica,sans-Serif" font-size="11.00" fill="#000000">int8[19]</text>
<polygon fill="none" stroke="#000000" points="193.5,-257.2 193.5,-279.2 360.5,-279.2 360.5,-257.2 193.5,-257.2"/>
<text text-anchor="start" x="213.5" y="-264.3" font-family="Helvetica,sans-Serif" font-size="11.00" fill="#000000">rev_type</text>
<polygon fill="none" stroke="#000000" points="360.5,-257.2 360.5,-279.2 454.5,-279.2 454.5,-257.2 360.5,-257.2"/>
<text text-anchor="start" x="363.5" y="-264.9" font-family="Helvetica,sans-Serif" font-size="11.00" fill="#000000">int2[5]</text>
<polygon fill="#ffffff" stroke="transparent" points="193.5,-235.2 193.5,-257.2 360.5,-257.2 360.5,-235.2 193.5,-235.2"/>
<polygon fill="none" stroke="#000000" points="193.5,-235.2 193.5,-257.2 360.5,-257.2 360.5,-235.2 193.5,-235.2"/>
<text text-anchor="start" x="213.5" y="-242.3" font-family="Helvetica,sans-Serif" font-size="11.00" fill="#000000">id</text>
<polygon fill="none" stroke="#000000" points="360.5,-235.2 360.5,-257.2 454.5,-257.2 454.5,-235.2 360.5,-235.2"/>
<text text-anchor="start" x="363.4758" y="-242.9" font-family="Helvetica,sans-Serif" font-size="11.00" fill="#000000">uuid[2147483647]</text>
<polygon fill="none" stroke="#000000" points="193.5,-213.2 193.5,-235.2 360.5,-235.2 360.5,-213.2 193.5,-213.2"/>
<text text-anchor="start" x="213.5" y="-220.3" font-family="Helvetica,sans-Serif" font-size="11.00" fill="#000000">prison_code</text>
<polygon fill="none" stroke="#000000" points="360.5,-213.2 360.5,-235.2 454.5,-235.2 454.5,-213.2 360.5,-213.2"/>
<text text-anchor="start" x="363.5" y="-220.9" font-family="Helvetica,sans-Serif" font-size="11.00" fill="#000000">varchar[6]</text>
<polygon fill="none" stroke="#000000" points="193.5,-191.2 193.5,-213.2 360.5,-213.2 360.5,-191.2 193.5,-191.2"/>
<text text-anchor="start" x="213.5" y="-198.3" font-family="Helvetica,sans-Serif" font-size="11.00" fill="#000000">person_identifier</text>
<polygon fill="none" stroke="#000000" points="360.5,-191.2 360.5,-213.2 454.5,-213.2 454.5,-191.2 360.5,-191.2"/>
<text text-anchor="start" x="363.5" y="-198.9" font-family="Helvetica,sans-Serif" font-size="11.00" fill="#000000">varchar[7]</text>
<polygon fill="none" stroke="#000000" points="193.5,-169.2 193.5,-191.2 360.5,-191.2 360.5,-169.2 193.5,-169.2"/>
<text text-anchor="start" x="213.5" y="-176.3" font-family="Helvetica,sans-Serif" font-size="11.00" fill="#000000">staff_id</text>
<polygon fill="none" stroke="#000000" points="360.5,-169.2 360.5,-191.2 454.5,-191.2 454.5,-169.2 360.5,-169.2"/>
<text text-anchor="start" x="363.5" y="-176.9" font-family="Helvetica,sans-Serif" font-size="11.00" fill="#000000">int8[19]</text>
<polygon fill="none" stroke="#000000" points="193.5,-147.2 193.5,-169.2 360.5,-169.2 360.5,-147.2 193.5,-147.2"/>
<text text-anchor="start" x="213.5" y="-154.3" font-family="Helvetica,sans-Serif" font-size="11.00" fill="#000000">username</text>
<polygon fill="none" stroke="#000000" points="360.5,-147.2 360.5,-169.2 454.5,-169.2 454.5,-147.2 360.5,-147.2"/>
<text text-anchor="start" x="363.5" y="-154.9" font-family="Helvetica,sans-Serif" font-size="11.00" fill="#000000">varchar[64]</text>
<polygon fill="none" stroke="#000000" points="193.5,-125.2 193.5,-147.2 360.5,-147.2 360.5,-125.2 193.5,-125.2"/>
<text text-anchor="start" x="213.5" y="-132.3" font-family="Helvetica,sans-Serif" font-size="11.00" fill="#000000">occurred_at</text>
<polygon fill="none" stroke="#000000" points="360.5,-125.2 360.5,-147.2 454.5,-147.2 454.5,-125.2 360.5,-125.2"/>
<text text-anchor="start" x="363.5" y="-132.9" font-family="Helvetica,sans-Serif" font-size="11.00" fill="#000000">timestamp[29,6]</text>
<polygon fill="none" stroke="#000000" points="193.5,-103.2 193.5,-125.2 360.5,-125.2 360.5,-103.2 193.5,-103.2"/>
<text text-anchor="start" x="213.5" y="-110.3" font-family="Helvetica,sans-Serif" font-size="11.00" fill="#000000">created_at</text>
<polygon fill="none" stroke="#000000" points="360.5,-103.2 360.5,-125.2 454.5,-125.2 454.5,-103.2 360.5,-103.2"/>
<text text-anchor="start" x="363.5" y="-110.9" font-family="Helvetica,sans-Serif" font-size="11.00" fill="#000000">timestamp[29,6]</text>
<polygon fill="none" stroke="#000000" points="193.5,-81.2 193.5,-103.2 360.5,-103.2 360.5,-81.2 193.5,-81.2"/>
<image xlink:href="../../images/foreignKeys.png" width="11px" height="12px" preserveAspectRatio="xMinYMin meet" x="198.5" y="-98.2"/>
<text text-anchor="start" x="213.5" y="-88.3" font-family="Helvetica,sans-Serif" font-size="11.00" fill="#000000">policy_code</text>
<polygon fill="none" stroke="#000000" points="360.5,-81.2 360.5,-103.2 454.5,-103.2 454.5,-81.2 360.5,-81.2"/>
<text text-anchor="start" x="363.5" y="-88.9" font-family="Helvetica,sans-Serif" font-size="11.00" fill="#000000">varchar[16]</text>
<polygon fill="none" stroke="#000000" points="193.5,-59.2 193.5,-81.2 360.5,-81.2 360.5,-59.2 193.5,-59.2"/>
<text text-anchor="start" x="213.5" y="-66.3" font-family="Helvetica,sans-Serif" font-size="11.00" fill="#000000">type_id</text>
<polygon fill="none" stroke="#000000" points="360.5,-59.2 360.5,-81.2 454.5,-81.2 454.5,-59.2 360.5,-59.2"/>
<text text-anchor="start" x="363.5" y="-66.9" font-family="Helvetica,sans-Serif" font-size="11.00" fill="#000000">int8[19]</text>
<polygon fill="#ffffff" stroke="transparent" points="193.5,-40.2 193.5,-59.2 281.5,-59.2 281.5,-40.2 193.5,-40.2"/>
<polygon fill="none" stroke="#000000" points="193.5,-40.2 193.5,-59.2 281.5,-59.2 281.5,-40.2 193.5,-40.2"/>
<text text-anchor="start" x="196.5" y="-46.3" font-family="Helvetica,sans-Serif" font-size="11.00" fill="#000000">&lt; 2</text>
<polygon fill="#ffffff" stroke="transparent" points="281.5,-40.2 281.5,-59.2 360.5,-59.2 360.5,-40.2 281.5,-40.2"/>
<polygon fill="none" stroke="#000000" points="281.5,-40.2 281.5,-59.2 360.5,-59.2 360.5,-40.2 281.5,-40.2"/>
<text text-anchor="start" x="351.3862" y="-46.3" font-family="Helvetica,sans-Serif" font-size="11.00" fill="#000000"> &#160;</text>
<polygon fill="#ffffff" stroke="transparent" points="360.5,-40.2 360.5,-59.2 454.5,-59.2 454.5,-40.2 360.5,-40.2"/>
<polygon fill="none" stroke="#000000" points="360.5,-40.2 360.5,-59.2 454.5,-59.2 454.5,-40.2 360.5,-40.2"/>
<text text-anchor="start" x="435.9053" y="-46.3" font-family="Helvetica,sans-Serif" font-size="11.00" fill="#000000">0 &gt;</text>
<polygon fill="none" stroke="#000000" stroke-width="2" points="192,-39.2 192,-325.2 455,-325.2 455,-39.2 192,-39.2"/>
</a>
</g>
</g>
<!-- policy -->
<g id="node2" class="node">
<title>policy</title>
<g id="a_node2"><a xlink:href="../../tables/policy.html" xlink:title="policy" target="_top">
<polygon fill="#ffffff" stroke="transparent" points="26.5,-43.7 26.5,-126.7 123.5,-126.7 123.5,-43.7 26.5,-43.7"/>
<polygon fill="#f5f5f5" stroke="transparent" points="27,-103.2 27,-126.2 124,-126.2 124,-103.2 27,-103.2"/>
<polygon fill="none" stroke="#000000" points="27,-103.2 27,-126.2 124,-126.2 124,-103.2 27,-103.2"/>
<text text-anchor="start" x="32" y="-111.8" font-family="Helvetica,sans-Serif" font-weight="bold" font-size="11.00" fill="#000000">policy</text>
<text text-anchor="start" x="89.0437" y="-111.3" font-family="Helvetica,sans-Serif" font-size="11.00" fill="#000000">[table]</text>
<polygon fill="none" stroke="#000000" points="27,-81.2 27,-103.2 124,-103.2 124,-81.2 27,-81.2"/>
<image xlink:href="../../images/primaryKeys.png" width="11px" height="12px" preserveAspectRatio="xMinYMin meet" x="32" y="-98.2"/>
<text text-anchor="start" x="47" y="-88.3" font-family="Helvetica,sans-Serif" font-size="11.00" fill="#000000">code</text>
<polygon fill="none" stroke="#000000" points="27,-62.2 27,-81.2 124,-81.2 124,-62.2 27,-62.2"/>
<text text-anchor="start" x="30" y="-68.3" font-family="Helvetica,sans-Serif" font-size="11.00" fill="#000000">...</text>
<polygon fill="#ffffff" stroke="transparent" points="27,-43.2 27,-62.2 65,-62.2 65,-43.2 27,-43.2"/>
<polygon fill="none" stroke="#000000" points="27,-43.2 27,-62.2 65,-62.2 65,-43.2 27,-43.2"/>
<text text-anchor="start" x="30" y="-49.3" font-family="Helvetica,sans-Serif" font-size="11.00" fill="#000000"> &#160;</text>
<polygon fill="#ffffff" stroke="transparent" points="65,-43.2 65,-62.2 90,-62.2 90,-43.2 65,-43.2"/>
<polygon fill="none" stroke="#000000" points="65,-43.2 65,-62.2 90,-62.2 90,-43.2 65,-43.2"/>
<text text-anchor="start" x="80.8862" y="-49.3" font-family="Helvetica,sans-Serif" font-size="11.00" fill="#000000"> &#160;</text>
<polygon fill="#ffffff" stroke="transparent" points="90,-43.2 90,-62.2 124,-62.2 124,-43.2 90,-43.2"/>
<polygon fill="none" stroke="#000000" points="90,-43.2 90,-62.2 124,-62.2 124,-43.2 90,-43.2"/>
<text text-anchor="start" x="105.4053" y="-49.3" font-family="Helvetica,sans-Serif" font-size="11.00" fill="#000000">7 &gt;</text>
</a>
</g>
</g>
<!-- recorded_event_audit&#45;&gt;policy -->
<g id="edge1" class="edge">
<title>recorded_event_audit:w&#45;&gt;policy:e</title>
<path fill="none" stroke="#000000" d="M178.8241,-92.2C159.0879,-92.2 149.3385,-92.2 124,-92.2"/>
<polygon fill="#000000" stroke="#000000" points="185.5,-92.2001 193.5,-95.8 189.5,-92.2 193.5,-92.2 193.5,-92.2 193.5,-92.2 189.5,-92.2 193.5,-88.6 185.5,-92.2001 185.5,-92.2001"/>
<ellipse fill="none" stroke="#000000" cx="182.3" cy="-92.2001" rx="3.2" ry="3.2"/>
</g>
<!-- audit_revision -->
<g id="node3" class="node">
<title>audit_revision</title>
<g id="a_node3"><a xlink:href="../../tables/audit_revision.html" xlink:title="audit_revision" target="_top">
<polygon fill="#ffffff" stroke="transparent" points="8,-241.7 8,-324.7 142,-324.7 142,-241.7 8,-241.7"/>
<polygon fill="#f5f5f5" stroke="transparent" points="8,-301.2 8,-324.2 142,-324.2 142,-301.2 8,-301.2"/>
<polygon fill="none" stroke="#000000" points="8,-301.2 8,-324.2 142,-324.2 142,-301.2 8,-301.2"/>
<text text-anchor="start" x="13" y="-309.8" font-family="Helvetica,sans-Serif" font-weight="bold" font-size="11.00" fill="#000000">audit_revision</text>
<text text-anchor="start" x="107.5219" y="-309.3" font-family="Helvetica,sans-Serif" font-size="11.00" fill="#000000">[table]</text>
<polygon fill="none" stroke="#000000" points="8,-279.2 8,-301.2 142,-301.2 142,-279.2 8,-279.2"/>
<image xlink:href="../../images/primaryKeys.png" width="11px" height="12px" preserveAspectRatio="xMinYMin meet" x="13" y="-296.2"/>
<text text-anchor="start" x="28" y="-286.3" font-family="Helvetica,sans-Serif" font-size="11.00" fill="#000000">id</text>
<polygon fill="none" stroke="#000000" points="8,-260.2 8,-279.2 142,-279.2 142,-260.2 8,-260.2"/>
<text text-anchor="start" x="11" y="-266.3" font-family="Helvetica,sans-Serif" font-size="11.00" fill="#000000">...</text>
<polygon fill="#ffffff" stroke="transparent" points="8,-241.2 8,-260.2 64,-260.2 64,-241.2 8,-241.2"/>
<polygon fill="none" stroke="#000000" points="8,-241.2 8,-260.2 64,-260.2 64,-241.2 8,-241.2"/>
<text text-anchor="start" x="11" y="-247.3" font-family="Helvetica,sans-Serif" font-size="11.00" fill="#000000"> &#160;</text>
<polygon fill="#ffffff" stroke="transparent" points="64,-241.2 64,-260.2 98,-260.2 98,-241.2 64,-241.2"/>
<polygon fill="none" stroke="#000000" points="64,-241.2 64,-260.2 98,-260.2 98,-241.2 64,-241.2"/>
<text text-anchor="start" x="88.8862" y="-247.3" font-family="Helvetica,sans-Serif" font-size="11.00" fill="#000000"> &#160;</text>
<polygon fill="#ffffff" stroke="transparent" points="98,-241.2 98,-260.2 142,-260.2 142,-241.2 98,-241.2"/>
<polygon fill="none" stroke="#000000" points="98,-241.2 98,-260.2 142,-260.2 142,-241.2 98,-241.2"/>
<text text-anchor="start" x="123.4053" y="-247.3" font-family="Helvetica,sans-Serif" font-size="11.00" fill="#000000">5 &gt;</text>
</a>
</g>
</g>
<!-- recorded_event_audit&#45;&gt;audit_revision -->
<g id="edge2" class="edge">
<title>recorded_event_audit:w&#45;&gt;audit_revision:e</title>
<path fill="none" stroke="#000000" d="M179.0156,-290.2C166.6771,-290.2 159.1667,-290.2 142,-290.2"/>
<polygon fill="#000000" stroke="#000000" points="185.5,-290.2001 193.5,-293.8 189.5,-290.2 193.5,-290.2 193.5,-290.2 193.5,-290.2 189.5,-290.2 193.5,-286.6 185.5,-290.2001 185.5,-290.2001"/>
<ellipse fill="none" stroke="#000000" cx="182.3" cy="-290.2001" rx="3.2" ry="3.2"/>
</g>
</g>
</svg>
