<?xml version="1.0" encoding="UTF-8" standalone="no"?>
<!DOCTYPE svg PUBLIC "-//W3C//DTD SVG 1.1//EN"
 "http://www.w3.org/Graphics/SVG/1.1/DTD/svg11.dtd">
<!-- Generated by graphviz version 2.40.1 (20161225.0304)
 -->
<!-- Title: oneDegreeRelationshipsDiagramImplied Pages: 1 -->
<svg width="581pt" height="361pt"
 viewBox="0.00 0.00 581.00 360.70" xmlns="http://www.w3.org/2000/svg" xmlns:xlink="http://www.w3.org/1999/xlink">
<g id="graph0" class="graph" transform="scale(1 1) rotate(0) translate(4 356.7)">
<title>oneDegreeRelationshipsDiagramImplied</title>
<polygon fill="#ffffff" stroke="transparent" points="-4,4 -4,-356.7 577,-356.7 577,4 -4,4"/>
<text text-anchor="middle" x="72.4936" y="-7.3" font-family="Helvetica,sans-Serif" font-size="11.00" fill="#000000">Generated by SchemaSpy</text>
<!-- recorded_event_audit -->
<g id="node1" class="node">
<title>recorded_event_audit</title>
<g id="a_node1"><a xlink:href="../../tables/recorded_event_audit.html" xlink:title="recorded_event_audit" target="_top">
<polygon fill="#ffffff" stroke="transparent" points="300,-38.2 300,-326.2 565,-326.2 565,-38.2 300,-38.2"/>
<polygon fill="#f5f5f5" stroke="transparent" points="302.5,-301.2 302.5,-324.2 563.5,-324.2 563.5,-301.2 302.5,-301.2"/>
<polygon fill="none" stroke="#000000" points="302.5,-301.2 302.5,-324.2 563.5,-324.2 563.5,-301.2 302.5,-301.2"/>
<text text-anchor="start" x="307.5" y="-309.8" font-family="Helvetica,sans-Serif" font-weight="bold" font-size="11.00" fill="#000000">recorded_event_audit</text>
<text text-anchor="start" x="528.5437" y="-309.3" font-family="Helvetica,sans-Serif" font-size="11.00" fill="#000000">[table]</text>
<polygon fill="none" stroke="#000000" points="302.5,-279.2 302.5,-301.2 469.5,-301.2 469.5,-279.2 302.5,-279.2"/>
<image xlink:href="../../images/foreignKeys.png" width="11px" height="12px" preserveAspectRatio="xMinYMin meet" x="307.5" y="-296.2"/>
<text text-anchor="start" x="322.5" y="-286.3" font-family="Helvetica,sans-Serif" font-size="11.00" fill="#000000">rev_id</text>
<polygon fill="none" stroke="#000000" points="469.5,-279.2 469.5,-301.2 563.5,-301.2 563.5,-279.2 469.5,-279.2"/>
<text text-anchor="start" x="472.5" y="-286.9" font-family="Helvetica,sans-Serif" font-size="11.00" fill="#000000">int8[19]</text>
<polygon fill="none" stroke="#000000" points="302.5,-257.2 302.5,-279.2 469.5,-279.2 469.5,-257.2 302.5,-257.2"/>
<text text-anchor="start" x="322.5" y="-264.3" font-family="Helvetica,sans-Serif" font-size="11.00" fill="#000000">rev_type</text>
<polygon fill="none" stroke="#000000" points="469.5,-257.2 469.5,-279.2 563.5,-279.2 563.5,-257.2 469.5,-257.2"/>
<text text-anchor="start" x="472.5" y="-264.9" font-family="Helvetica,sans-Serif" font-size="11.00" fill="#000000">int2[5]</text>
<polygon fill="none" stroke="#000000" points="302.5,-235.2 302.5,-257.2 469.5,-257.2 469.5,-235.2 302.5,-235.2"/>
<text text-anchor="start" x="322.5" y="-242.3" font-family="Helvetica,sans-Serif" font-size="11.00" fill="#000000">id</text>
<polygon fill="none" stroke="#000000" points="469.5,-235.2 469.5,-257.2 563.5,-257.2 563.5,-235.2 469.5,-235.2"/>
<text text-anchor="start" x="472.4758" y="-242.9" font-family="Helvetica,sans-Serif" font-size="11.00" fill="#000000">uuid[2147483647]</text>
<polygon fill="none" stroke="#000000" points="302.5,-213.2 302.5,-235.2 469.5,-235.2 469.5,-213.2 302.5,-213.2"/>
<image xlink:href="../../images/foreignKeys.png" width="11px" height="12px" preserveAspectRatio="xMinYMin meet" x="307.5" y="-230.2"/>
<text text-anchor="start" x="322.5" y="-220.3" font-family="Helvetica,sans-Serif" font-size="11.00" fill="#000000">prison_code</text>
<polygon fill="none" stroke="#000000" points="469.5,-213.2 469.5,-235.2 563.5,-235.2 563.5,-213.2 469.5,-213.2"/>
<text text-anchor="start" x="472.5" y="-220.9" font-family="Helvetica,sans-Serif" font-size="11.00" fill="#000000">varchar[6]</text>
<polygon fill="none" stroke="#000000" points="302.5,-191.2 302.5,-213.2 469.5,-213.2 469.5,-191.2 302.5,-191.2"/>
<text text-anchor="start" x="322.5" y="-198.3" font-family="Helvetica,sans-Serif" font-size="11.00" fill="#000000">person_identifier</text>
<polygon fill="none" stroke="#000000" points="469.5,-191.2 469.5,-213.2 563.5,-213.2 563.5,-191.2 469.5,-191.2"/>
<text text-anchor="start" x="472.5" y="-198.9" font-family="Helvetica,sans-Serif" font-size="11.00" fill="#000000">varchar[7]</text>
<polygon fill="none" stroke="#000000" points="302.5,-169.2 302.5,-191.2 469.5,-191.2 469.5,-169.2 302.5,-169.2"/>
<text text-anchor="start" x="322.5" y="-176.3" font-family="Helvetica,sans-Serif" font-size="11.00" fill="#000000">staff_id</text>
<polygon fill="none" stroke="#000000" points="469.5,-169.2 469.5,-191.2 563.5,-191.2 563.5,-169.2 469.5,-169.2"/>
<text text-anchor="start" x="472.5" y="-176.9" font-family="Helvetica,sans-Serif" font-size="11.00" fill="#000000">int8[19]</text>
<polygon fill="none" stroke="#000000" points="302.5,-147.2 302.5,-169.2 469.5,-169.2 469.5,-147.2 302.5,-147.2"/>
<text text-anchor="start" x="322.5" y="-154.3" font-family="Helvetica,sans-Serif" font-size="11.00" fill="#000000">username</text>
<polygon fill="none" stroke="#000000" points="469.5,-147.2 469.5,-169.2 563.5,-169.2 563.5,-147.2 469.5,-147.2"/>
<text text-anchor="start" x="472.5" y="-154.9" font-family="Helvetica,sans-Serif" font-size="11.00" fill="#000000">varchar[64]</text>
<polygon fill="none" stroke="#000000" points="302.5,-125.2 302.5,-147.2 469.5,-147.2 469.5,-125.2 302.5,-125.2"/>
<text text-anchor="start" x="322.5" y="-132.3" font-family="Helvetica,sans-Serif" font-size="11.00" fill="#000000">occurred_at</text>
<polygon fill="none" stroke="#000000" points="469.5,-125.2 469.5,-147.2 563.5,-147.2 563.5,-125.2 469.5,-125.2"/>
<text text-anchor="start" x="472.5" y="-132.9" font-family="Helvetica,sans-Serif" font-size="11.00" fill="#000000">timestamp[29,6]</text>
<polygon fill="none" stroke="#000000" points="302.5,-103.2 302.5,-125.2 469.5,-125.2 469.5,-103.2 302.5,-103.2"/>
<text text-anchor="start" x="322.5" y="-110.3" font-family="Helvetica,sans-Serif" font-size="11.00" fill="#000000">created_at</text>
<polygon fill="none" stroke="#000000" points="469.5,-103.2 469.5,-125.2 563.5,-125.2 563.5,-103.2 469.5,-103.2"/>
<text text-anchor="start" x="472.5" y="-110.9" font-family="Helvetica,sans-Serif" font-size="11.00" fill="#000000">timestamp[29,6]</text>
<polygon fill="none" stroke="#000000" points="302.5,-81.2 302.5,-103.2 469.5,-103.2 469.5,-81.2 302.5,-81.2"/>
<image xlink:href="../../images/foreignKeys.png" width="11px" height="12px" preserveAspectRatio="xMinYMin meet" x="307.5" y="-98.2"/>
<text text-anchor="start" x="322.5" y="-88.3" font-family="Helvetica,sans-Serif" font-size="11.00" fill="#000000">policy_code</text>
<polygon fill="none" stroke="#000000" points="469.5,-81.2 469.5,-103.2 563.5,-103.2 563.5,-81.2 469.5,-81.2"/>
<text text-anchor="start" x="472.5" y="-88.9" font-family="Helvetica,sans-Serif" font-size="11.00" fill="#000000">varchar[16]</text>
<polygon fill="none" stroke="#000000" points="302.5,-59.2 302.5,-81.2 469.5,-81.2 469.5,-59.2 302.5,-59.2"/>
<text text-anchor="start" x="322.5" y="-66.3" font-family="Helvetica,sans-Serif" font-size="11.00" fill="#000000">type_id</text>
<polygon fill="none" stroke="#000000" points="469.5,-59.2 469.5,-81.2 563.5,-81.2 563.5,-59.2 469.5,-59.2"/>
<text text-anchor="start" x="472.5" y="-66.9" font-family="Helvetica,sans-Serif" font-size="11.00" fill="#000000">int8[19]</text>
<polygon fill="#ffffff" stroke="transparent" points="302.5,-40.2 302.5,-59.2 390.5,-59.2 390.5,-40.2 302.5,-40.2"/>
<polygon fill="none" stroke="#000000" points="302.5,-40.2 302.5,-59.2 390.5,-59.2 390.5,-40.2 302.5,-40.2"/>
<text text-anchor="start" x="305.5" y="-46.3" font-family="Helvetica,sans-Serif" font-size="11.00" fill="#000000">&lt; 3</text>
<polygon fill="#ffffff" stroke="transparent" points="390.5,-40.2 390.5,-59.2 469.5,-59.2 469.5,-40.2 390.5,-40.2"/>
<polygon fill="none" stroke="#000000" points="390.5,-40.2 390.5,-59.2 469.5,-59.2 469.5,-40.2 390.5,-40.2"/>
<text text-anchor="start" x="460.3862" y="-46.3" font-family="Helvetica,sans-Serif" font-size="11.00" fill="#000000"> &#160;</text>
<polygon fill="#ffffff" stroke="transparent" points="469.5,-40.2 469.5,-59.2 563.5,-59.2 563.5,-40.2 469.5,-40.2"/>
<polygon fill="none" stroke="#000000" points="469.5,-40.2 469.5,-59.2 563.5,-59.2 563.5,-40.2 469.5,-40.2"/>
<text text-anchor="start" x="544.9053" y="-46.3" font-family="Helvetica,sans-Serif" font-size="11.00" fill="#000000">0 &gt;</text>
<polygon fill="none" stroke="#000000" stroke-width="2" points="301,-39.2 301,-325.2 564,-325.2 564,-39.2 301,-39.2"/>
</a>
</g>
</g>
<!-- policy -->
<g id="node2" class="node">
<title>policy</title>
<g id="a_node2"><a xlink:href="../../tables/policy.html" xlink:title="policy" target="_top">
<polygon fill="#ffffff" stroke="transparent" points="81,-43.7 81,-126.7 178,-126.7 178,-43.7 81,-43.7"/>
<polygon fill="#f5f5f5" stroke="transparent" points="81.5,-103.2 81.5,-126.2 178.5,-126.2 178.5,-103.2 81.5,-103.2"/>
<polygon fill="none" stroke="#000000" points="81.5,-103.2 81.5,-126.2 178.5,-126.2 178.5,-103.2 81.5,-103.2"/>
<text text-anchor="start" x="86.5" y="-111.8" font-family="Helvetica,sans-Serif" font-weight="bold" font-size="11.00" fill="#000000">policy</text>
<text text-anchor="start" x="143.5437" y="-111.3" font-family="Helvetica,sans-Serif" font-size="11.00" fill="#000000">[table]</text>
<polygon fill="none" stroke="#000000" points="81.5,-81.2 81.5,-103.2 178.5,-103.2 178.5,-81.2 81.5,-81.2"/>
<image xlink:href="../../images/primaryKeys.png" width="11px" height="12px" preserveAspectRatio="xMinYMin meet" x="86.5" y="-98.2"/>
<text text-anchor="start" x="101.5" y="-88.3" font-family="Helvetica,sans-Serif" font-size="11.00" fill="#000000">code</text>
<polygon fill="none" stroke="#000000" points="81.5,-62.2 81.5,-81.2 178.5,-81.2 178.5,-62.2 81.5,-62.2"/>
<text text-anchor="start" x="84.5" y="-68.3" font-family="Helvetica,sans-Serif" font-size="11.00" fill="#000000">...</text>
<polygon fill="#ffffff" stroke="transparent" points="81.5,-43.2 81.5,-62.2 119.5,-62.2 119.5,-43.2 81.5,-43.2"/>
<polygon fill="none" stroke="#000000" points="81.5,-43.2 81.5,-62.2 119.5,-62.2 119.5,-43.2 81.5,-43.2"/>
<text text-anchor="start" x="84.5" y="-49.3" font-family="Helvetica,sans-Serif" font-size="11.00" fill="#000000"> &#160;</text>
<polygon fill="#ffffff" stroke="transparent" points="119.5,-43.2 119.5,-62.2 144.5,-62.2 144.5,-43.2 119.5,-43.2"/>
<polygon fill="none" stroke="#000000" points="119.5,-43.2 119.5,-62.2 144.5,-62.2 144.5,-43.2 119.5,-43.2"/>
<text text-anchor="start" x="135.3862" y="-49.3" font-family="Helvetica,sans-Serif" font-size="11.00" fill="#000000"> &#160;</text>
<polygon fill="#ffffff" stroke="transparent" points="144.5,-43.2 144.5,-62.2 178.5,-62.2 178.5,-43.2 144.5,-43.2"/>
<polygon fill="none" stroke="#000000" points="144.5,-43.2 144.5,-62.2 178.5,-62.2 178.5,-43.2 144.5,-43.2"/>
<text text-anchor="start" x="159.9053" y="-49.3" font-family="Helvetica,sans-Serif" font-size="11.00" fill="#000000">7 &gt;</text>
</a>
</g>
</g>
<!-- recorded_event_audit&#45;&gt;policy -->
<g id="edge1" class="edge">
<title>recorded_event_audit:w&#45;&gt;policy:e</title>
<path fill="none" stroke="#000000" d="M288.0217,-92.2C244.4423,-92.2 228.4444,-92.2 178.5,-92.2"/>
<polygon fill="#000000" stroke="#000000" points="294.5,-92.2001 302.5,-95.8 298.5,-92.2 302.5,-92.2 302.5,-92.2 302.5,-92.2 298.5,-92.2 302.5,-88.6 294.5,-92.2001 294.5,-92.2001"/>
<ellipse fill="none" stroke="#000000" cx="291.3" cy="-92.2001" rx="3.2" ry="3.2"/>
</g>
<!-- prison_migration_date_history -->
<g id="node3" class="node">
<title>prison_migration_date_history</title>
<g id="a_node3"><a xlink:href="../../tables/prison_migration_date_history.html" xlink:title="prison_migration_date_history" target="_top">
<polygon fill="#ffffff" stroke="transparent" points="8,-161.7 8,-244.7 251,-244.7 251,-161.7 8,-161.7"/>
<polygon fill="#f5f5f5" stroke="transparent" points="8.5,-221.2 8.5,-244.2 251.5,-244.2 251.5,-221.2 8.5,-221.2"/>
<polygon fill="none" stroke="#000000" points="8.5,-221.2 8.5,-244.2 251.5,-244.2 251.5,-221.2 8.5,-221.2"/>
<text text-anchor="start" x="13.5" y="-229.8" font-family="Helvetica,sans-Serif" font-weight="bold" font-size="11.00" fill="#000000">prison_migration_date_history</text>
<text text-anchor="start" x="217.0219" y="-229.3" font-family="Helvetica,sans-Serif" font-size="11.00" fill="#000000">[table]</text>
<polygon fill="none" stroke="#000000" points="8.5,-199.2 8.5,-221.2 251.5,-221.2 251.5,-199.2 8.5,-199.2"/>
<image xlink:href="../../images/primaryKeys.png" width="11px" height="12px" preserveAspectRatio="xMinYMin meet" x="13.5" y="-216.2"/>
<text text-anchor="start" x="37.5" y="-206.3" font-family="Helvetica,sans-Serif" font-size="11.00" fill="#000000">prison_code</text>
<polygon fill="none" stroke="#000000" points="8.5,-180.2 8.5,-199.2 251.5,-199.2 251.5,-180.2 8.5,-180.2"/>
<text text-anchor="start" x="11.5" y="-186.3" font-family="Helvetica,sans-Serif" font-size="11.00" fill="#000000">...</text>
<polygon fill="#ffffff" stroke="transparent" points="8.5,-161.2 8.5,-180.2 119.5,-180.2 119.5,-161.2 8.5,-161.2"/>
<polygon fill="none" stroke="#000000" points="8.5,-161.2 8.5,-180.2 119.5,-180.2 119.5,-161.2 8.5,-161.2"/>
<text text-anchor="start" x="11.5" y="-167.3" font-family="Helvetica,sans-Serif" font-size="11.00" fill="#000000"> &#160;</text>
<polygon fill="#ffffff" stroke="transparent" points="119.5,-161.2 119.5,-180.2 180.5,-180.2 180.5,-161.2 119.5,-161.2"/>
<polygon fill="none" stroke="#000000" points="119.5,-161.2 119.5,-180.2 180.5,-180.2 180.5,-161.2 119.5,-161.2"/>
<text text-anchor="start" x="171.3862" y="-167.3" font-family="Helvetica,sans-Serif" font-size="11.00" fill="#000000"> &#160;</text>
<polygon fill="#ffffff" stroke="transparent" points="180.5,-161.2 180.5,-180.2 251.5,-180.2 251.5,-161.2 180.5,-161.2"/>
<polygon fill="none" stroke="#000000" points="180.5,-161.2 180.5,-180.2 251.5,-180.2 251.5,-161.2 180.5,-161.2"/>
<text text-anchor="start" x="232.9053" y="-167.3" font-family="Helvetica,sans-Serif" font-size="11.00" fill="#000000">9 &gt;</text>
</a>
</g>
</g>
<!-- recorded_event_audit&#45;&gt;prison_migration_date_history -->
<g id="edge2" class="edge">
<title>recorded_event_audit:w&#45;&gt;prison_migration_date_history:e</title>
<path fill="none" stroke="#000000" stroke-dasharray="5,2" d="M287.9204,-222.0125C275.7803,-218.075 269.1289,-210.2 251.5,-210.2"/>
<polygon fill="#000000" stroke="#000000" points="294.5886,-223.0129 301.9658,-227.7602 298.5443,-223.6065 302.5,-224.2 302.5,-224.2 302.5,-224.2 298.5443,-223.6065 303.0342,-220.6398 294.5886,-223.0129 294.5886,-223.0129"/>
<ellipse fill="none" stroke="#000000" cx="291.424" cy="-222.5381" rx="3.2" ry="3.2"/>
</g>
<!-- audit_revision -->
<g id="node4" class="node">
<title>audit_revision</title>
<g id="a_node4"><a xlink:href="../../tables/audit_revision.html" xlink:title="audit_revision" target="_top">
<polygon fill="#ffffff" stroke="transparent" points="62.5,-265.7 62.5,-348.7 196.5,-348.7 196.5,-265.7 62.5,-265.7"/>
<polygon fill="#f5f5f5" stroke="transparent" points="62.5,-325.2 62.5,-348.2 196.5,-348.2 196.5,-325.2 62.5,-325.2"/>
<polygon fill="none" stroke="#000000" points="62.5,-325.2 62.5,-348.2 196.5,-348.2 196.5,-325.2 62.5,-325.2"/>
<text text-anchor="start" x="67.5" y="-333.8" font-family="Helvetica,sans-Serif" font-weight="bold" font-size="11.00" fill="#000000">audit_revision</text>
<text text-anchor="start" x="162.0219" y="-333.3" font-family="Helvetica,sans-Serif" font-size="11.00" fill="#000000">[table]</text>
<polygon fill="none" stroke="#000000" points="62.5,-303.2 62.5,-325.2 196.5,-325.2 196.5,-303.2 62.5,-303.2"/>
<image xlink:href="../../images/primaryKeys.png" width="11px" height="12px" preserveAspectRatio="xMinYMin meet" x="67.5" y="-320.2"/>
<text text-anchor="start" x="82.5" y="-310.3" font-family="Helvetica,sans-Serif" font-size="11.00" fill="#000000">id</text>
<polygon fill="none" stroke="#000000" points="62.5,-284.2 62.5,-303.2 196.5,-303.2 196.5,-284.2 62.5,-284.2"/>
<text text-anchor="start" x="65.5" y="-290.3" font-family="Helvetica,sans-Serif" font-size="11.00" fill="#000000">...</text>
<polygon fill="#ffffff" stroke="transparent" points="62.5,-265.2 62.5,-284.2 118.5,-284.2 118.5,-265.2 62.5,-265.2"/>
<polygon fill="none" stroke="#000000" points="62.5,-265.2 62.5,-284.2 118.5,-284.2 118.5,-265.2 62.5,-265.2"/>
<text text-anchor="start" x="65.5" y="-271.3" font-family="Helvetica,sans-Serif" font-size="11.00" fill="#000000"> &#160;</text>
<polygon fill="#ffffff" stroke="transparent" points="118.5,-265.2 118.5,-284.2 152.5,-284.2 152.5,-265.2 118.5,-265.2"/>
<polygon fill="none" stroke="#000000" points="118.5,-265.2 118.5,-284.2 152.5,-284.2 152.5,-265.2 118.5,-265.2"/>
<text text-anchor="start" x="143.3862" y="-271.3" font-family="Helvetica,sans-Serif" font-size="11.00" fill="#000000"> &#160;</text>
<polygon fill="#ffffff" stroke="transparent" points="152.5,-265.2 152.5,-284.2 196.5,-284.2 196.5,-265.2 152.5,-265.2"/>
<polygon fill="none" stroke="#000000" points="152.5,-265.2 152.5,-284.2 196.5,-284.2 196.5,-265.2 152.5,-265.2"/>
<text text-anchor="start" x="177.9053" y="-271.3" font-family="Helvetica,sans-Serif" font-size="11.00" fill="#000000">5 &gt;</text>
</a>
</g>
</g>
<!-- recorded_event_audit&#45;&gt;audit_revision -->
<g id="edge3" class="edge">
<title>recorded_event_audit:w&#45;&gt;audit_revision:e</title>
<path fill="none" stroke="#000000" d="M287.945,-290.9985C251.6763,-295.1629 239.5204,-314.2 196.5,-314.2"/>
<polygon fill="#000000" stroke="#000000" points="294.512,-290.6383 302.6972,-293.7946 298.506,-290.4191 302.5,-290.2 302.5,-290.2 302.5,-290.2 298.506,-290.4191 302.3028,-286.6054 294.512,-290.6383 294.512,-290.6383"/>
<ellipse fill="none" stroke="#000000" cx="291.3168" cy="-290.8136" rx="3.2" ry="3.2"/>
</g>
</g>
</svg>
