<?xml version="1.0" encoding="UTF-8" standalone="no"?>
<!DOCTYPE svg PUBLIC "-//W3C//DTD SVG 1.1//EN"
 "http://www.w3.org/Graphics/SVG/1.1/DTD/svg11.dtd">
<!-- Generated by graphviz version 2.40.1 (20161225.0304)
 -->
<!-- Title: twoDegreesRelationshipsDiagram Pages: 1 -->
<svg width="677pt" height="1187pt"
 viewBox="0.00 0.00 677.00 1187.20" xmlns="http://www.w3.org/2000/svg" xmlns:xlink="http://www.w3.org/1999/xlink">
<g id="graph0" class="graph" transform="scale(1 1) rotate(0) translate(4 1183.2)">
<title>twoDegreesRelationshipsDiagram</title>
<polygon fill="#ffffff" stroke="transparent" points="-4,4 -4,-1183.2 673,-1183.2 673,4 -4,4"/>
<text text-anchor="middle" x="72.4936" y="-7.3" font-family="Helvetica,sans-Serif" font-size="11.00" fill="#000000">Generated by SchemaSpy</text>
<!-- allocation -->
<g id="node1" class="node">
<title>allocation</title>
<g id="a_node1"><a xlink:href="../../tables/allocation.html" xlink:title="allocation" target="_top">
<polygon fill="#ffffff" stroke="transparent" points="271,-1032.2 271,-1093.2 376,-1093.2 376,-1032.2 271,-1032.2"/>
<polygon fill="#f5f5f5" stroke="transparent" points="271.5,-1069.7 271.5,-1092.7 376.5,-1092.7 376.5,-1069.7 271.5,-1069.7"/>
<polygon fill="none" stroke="#000000" points="271.5,-1069.7 271.5,-1092.7 376.5,-1092.7 376.5,-1069.7 271.5,-1069.7"/>
<text text-anchor="start" x="276.5" y="-1078.3" font-family="Helvetica,sans-Serif" font-weight="bold" font-size="11.00" fill="#000000">allocation</text>
<text text-anchor="start" x="342.0219" y="-1077.8" font-family="Helvetica,sans-Serif" font-size="11.00" fill="#000000">[table]</text>
<polygon fill="none" stroke="#000000" points="271.5,-1050.7 271.5,-1069.7 376.5,-1069.7 376.5,-1050.7 271.5,-1050.7"/>
<text text-anchor="start" x="274.5" y="-1056.8" font-family="Helvetica,sans-Serif" font-size="11.00" fill="#000000">...</text>
<polygon fill="#ffffff" stroke="transparent" points="271.5,-1031.7 271.5,-1050.7 322.5,-1050.7 322.5,-1031.7 271.5,-1031.7"/>
<polygon fill="none" stroke="#000000" points="271.5,-1031.7 271.5,-1050.7 322.5,-1050.7 322.5,-1031.7 271.5,-1031.7"/>
<text text-anchor="start" x="274.5" y="-1037.8" font-family="Helvetica,sans-Serif" font-size="11.00" fill="#000000">&lt; 3</text>
<polygon fill="#ffffff" stroke="transparent" points="322.5,-1031.7 322.5,-1050.7 349.5,-1050.7 349.5,-1031.7 322.5,-1031.7"/>
<polygon fill="none" stroke="#000000" points="322.5,-1031.7 322.5,-1050.7 349.5,-1050.7 349.5,-1031.7 322.5,-1031.7"/>
<text text-anchor="start" x="340.3862" y="-1037.8" font-family="Helvetica,sans-Serif" font-size="11.00" fill="#000000"> &#160;</text>
<polygon fill="#ffffff" stroke="transparent" points="349.5,-1031.7 349.5,-1050.7 376.5,-1050.7 376.5,-1031.7 349.5,-1031.7"/>
<polygon fill="none" stroke="#000000" points="349.5,-1031.7 349.5,-1050.7 376.5,-1050.7 376.5,-1031.7 349.5,-1031.7"/>
<text text-anchor="start" x="367.3862" y="-1037.8" font-family="Helvetica,sans-Serif" font-size="11.00" fill="#000000"> &#160;</text>
</a>
</g>
</g>
<!-- policy -->
<g id="node2" class="node">
<title>policy</title>
<g id="a_node2"><a xlink:href="../../tables/policy.html" xlink:title="policy" target="_top">
<polygon fill="#ffffff" stroke="transparent" points="26.5,-821.2 26.5,-904.2 123.5,-904.2 123.5,-821.2 26.5,-821.2"/>
<polygon fill="#f5f5f5" stroke="transparent" points="27,-880.7 27,-903.7 124,-903.7 124,-880.7 27,-880.7"/>
<polygon fill="none" stroke="#000000" points="27,-880.7 27,-903.7 124,-903.7 124,-880.7 27,-880.7"/>
<text text-anchor="start" x="32" y="-889.3" font-family="Helvetica,sans-Serif" font-weight="bold" font-size="11.00" fill="#000000">policy</text>
<text text-anchor="start" x="89.0437" y="-888.8" font-family="Helvetica,sans-Serif" font-size="11.00" fill="#000000">[table]</text>
<polygon fill="none" stroke="#000000" points="27,-858.7 27,-880.7 124,-880.7 124,-858.7 27,-858.7"/>
<image xlink:href="../../images/primaryKeys.png" width="11px" height="12px" preserveAspectRatio="xMinYMin meet" x="32" y="-875.7"/>
<text text-anchor="start" x="47" y="-865.8" font-family="Helvetica,sans-Serif" font-size="11.00" fill="#000000">code</text>
<polygon fill="none" stroke="#000000" points="27,-839.7 27,-858.7 124,-858.7 124,-839.7 27,-839.7"/>
<text text-anchor="start" x="30" y="-845.8" font-family="Helvetica,sans-Serif" font-size="11.00" fill="#000000">...</text>
<polygon fill="#ffffff" stroke="transparent" points="27,-820.7 27,-839.7 65,-839.7 65,-820.7 27,-820.7"/>
<polygon fill="none" stroke="#000000" points="27,-820.7 27,-839.7 65,-839.7 65,-820.7 27,-820.7"/>
<text text-anchor="start" x="30" y="-826.8" font-family="Helvetica,sans-Serif" font-size="11.00" fill="#000000"> &#160;</text>
<polygon fill="#ffffff" stroke="transparent" points="65,-820.7 65,-839.7 90,-839.7 90,-820.7 65,-820.7"/>
<polygon fill="none" stroke="#000000" points="65,-820.7 65,-839.7 90,-839.7 90,-820.7 65,-820.7"/>
<text text-anchor="start" x="80.8862" y="-826.8" font-family="Helvetica,sans-Serif" font-size="11.00" fill="#000000"> &#160;</text>
<polygon fill="#ffffff" stroke="transparent" points="90,-820.7 90,-839.7 124,-839.7 124,-820.7 90,-820.7"/>
<polygon fill="none" stroke="#000000" points="90,-820.7 90,-839.7 124,-839.7 124,-820.7 90,-820.7"/>
<text text-anchor="start" x="105.4053" y="-826.8" font-family="Helvetica,sans-Serif" font-size="11.00" fill="#000000">8 &gt;</text>
</a>
</g>
</g>
<!-- allocation&#45;&gt;policy -->
<g id="edge1" class="edge">
<title>allocation:w&#45;&gt;policy:e</title>
<path fill="none" stroke="#000000" d="M257.0581,-1059.3541C224.6258,-1057.6098 209.1291,-1048.7686 183,-1021.7 132.6714,-969.5618 196.4663,-869.7 124,-869.7"/>
<polygon fill="#000000" stroke="#000000" points="263.5023,-1059.5084 271.4138,-1063.299 267.5011,-1059.6042 271.5,-1059.7 271.5,-1059.7 271.5,-1059.7 267.5011,-1059.6042 271.5862,-1056.101 263.5023,-1059.5084 263.5023,-1059.5084"/>
<ellipse fill="none" stroke="#000000" cx="260.3032" cy="-1059.4317" rx="3.2" ry="3.2"/>
</g>
<!-- allocation_audit -->
<g id="node3" class="node">
<title>allocation_audit</title>
<g id="a_node3"><a xlink:href="../../tables/allocation_audit.html" xlink:title="allocation_audit" target="_top">
<polygon fill="#ffffff" stroke="transparent" points="250.5,-284.2 250.5,-345.2 396.5,-345.2 396.5,-284.2 250.5,-284.2"/>
<polygon fill="#f5f5f5" stroke="transparent" points="250.5,-321.7 250.5,-344.7 396.5,-344.7 396.5,-321.7 250.5,-321.7"/>
<polygon fill="none" stroke="#000000" points="250.5,-321.7 250.5,-344.7 396.5,-344.7 396.5,-321.7 250.5,-321.7"/>
<text text-anchor="start" x="255.5" y="-330.3" font-family="Helvetica,sans-Serif" font-weight="bold" font-size="11.00" fill="#000000">allocation_audit</text>
<text text-anchor="start" x="362.0219" y="-329.8" font-family="Helvetica,sans-Serif" font-size="11.00" fill="#000000">[table]</text>
<polygon fill="none" stroke="#000000" points="250.5,-302.7 250.5,-321.7 396.5,-321.7 396.5,-302.7 250.5,-302.7"/>
<text text-anchor="start" x="253.5" y="-308.8" font-family="Helvetica,sans-Serif" font-size="11.00" fill="#000000">...</text>
<polygon fill="#ffffff" stroke="transparent" points="250.5,-283.7 250.5,-302.7 321.5,-302.7 321.5,-283.7 250.5,-283.7"/>
<polygon fill="none" stroke="#000000" points="250.5,-283.7 250.5,-302.7 321.5,-302.7 321.5,-283.7 250.5,-283.7"/>
<text text-anchor="start" x="253.5" y="-289.8" font-family="Helvetica,sans-Serif" font-size="11.00" fill="#000000">&lt; 1</text>
<polygon fill="#ffffff" stroke="transparent" points="321.5,-283.7 321.5,-302.7 358.5,-302.7 358.5,-283.7 321.5,-283.7"/>
<polygon fill="none" stroke="#000000" points="321.5,-283.7 321.5,-302.7 358.5,-302.7 358.5,-283.7 321.5,-283.7"/>
<text text-anchor="start" x="349.3862" y="-289.8" font-family="Helvetica,sans-Serif" font-size="11.00" fill="#000000"> &#160;</text>
<polygon fill="#ffffff" stroke="transparent" points="358.5,-283.7 358.5,-302.7 396.5,-302.7 396.5,-283.7 358.5,-283.7"/>
<polygon fill="none" stroke="#000000" points="358.5,-283.7 358.5,-302.7 396.5,-302.7 396.5,-283.7 358.5,-283.7"/>
<text text-anchor="start" x="387.3862" y="-289.8" font-family="Helvetica,sans-Serif" font-size="11.00" fill="#000000"> &#160;</text>
</a>
</g>
</g>
<!-- audit_revision -->
<g id="node4" class="node">
<title>audit_revision</title>
<g id="a_node4"><a xlink:href="../../tables/audit_revision.html" xlink:title="audit_revision" target="_top">
<polygon fill="#ffffff" stroke="transparent" points="8,-181.2 8,-264.2 142,-264.2 142,-181.2 8,-181.2"/>
<polygon fill="#f5f5f5" stroke="transparent" points="8,-240.7 8,-263.7 142,-263.7 142,-240.7 8,-240.7"/>
<polygon fill="none" stroke="#000000" points="8,-240.7 8,-263.7 142,-263.7 142,-240.7 8,-240.7"/>
<text text-anchor="start" x="13" y="-249.3" font-family="Helvetica,sans-Serif" font-weight="bold" font-size="11.00" fill="#000000">audit_revision</text>
<text text-anchor="start" x="107.5219" y="-248.8" font-family="Helvetica,sans-Serif" font-size="11.00" fill="#000000">[table]</text>
<polygon fill="none" stroke="#000000" points="8,-218.7 8,-240.7 142,-240.7 142,-218.7 8,-218.7"/>
<image xlink:href="../../images/primaryKeys.png" width="11px" height="12px" preserveAspectRatio="xMinYMin meet" x="13" y="-235.7"/>
<text text-anchor="start" x="28" y="-225.8" font-family="Helvetica,sans-Serif" font-size="11.00" fill="#000000">id</text>
<polygon fill="none" stroke="#000000" points="8,-199.7 8,-218.7 142,-218.7 142,-199.7 8,-199.7"/>
<text text-anchor="start" x="11" y="-205.8" font-family="Helvetica,sans-Serif" font-size="11.00" fill="#000000">...</text>
<polygon fill="#ffffff" stroke="transparent" points="8,-180.7 8,-199.7 64,-199.7 64,-180.7 8,-180.7"/>
<polygon fill="none" stroke="#000000" points="8,-180.7 8,-199.7 64,-199.7 64,-180.7 8,-180.7"/>
<text text-anchor="start" x="11" y="-186.8" font-family="Helvetica,sans-Serif" font-size="11.00" fill="#000000"> &#160;</text>
<polygon fill="#ffffff" stroke="transparent" points="64,-180.7 64,-199.7 98,-199.7 98,-180.7 64,-180.7"/>
<polygon fill="none" stroke="#000000" points="64,-180.7 64,-199.7 98,-199.7 98,-180.7 64,-180.7"/>
<text text-anchor="start" x="88.8862" y="-186.8" font-family="Helvetica,sans-Serif" font-size="11.00" fill="#000000"> &#160;</text>
<polygon fill="#ffffff" stroke="transparent" points="98,-180.7 98,-199.7 142,-199.7 142,-180.7 98,-180.7"/>
<polygon fill="none" stroke="#000000" points="98,-180.7 98,-199.7 142,-199.7 142,-180.7 98,-180.7"/>
<text text-anchor="start" x="123.4053" y="-186.8" font-family="Helvetica,sans-Serif" font-size="11.00" fill="#000000">5 &gt;</text>
</a>
</g>
</g>
<!-- allocation_audit&#45;&gt;audit_revision -->
<g id="edge2" class="edge">
<title>allocation_audit:w&#45;&gt;audit_revision:e</title>
<path fill="none" stroke="#000000" d="M235.9418,-310.464C213.6056,-306.2301 205.722,-291.5802 183,-273.7 161.9943,-257.1704 168.7296,-229.7 142,-229.7"/>
<polygon fill="#000000" stroke="#000000" points="242.5287,-311.0232 250.1954,-315.2871 246.5143,-311.3616 250.5,-311.7 250.5,-311.7 250.5,-311.7 246.5143,-311.3616 250.8046,-308.1129 242.5287,-311.0232 242.5287,-311.0232"/>
<ellipse fill="none" stroke="#000000" cx="239.3401" cy="-310.7524" rx="3.2" ry="3.2"/>
</g>
<!-- prison_configuration -->
<g id="node5" class="node">
<title>prison_configuration</title>
<g id="a_node5"><a xlink:href="../../tables/prison_configuration.html" xlink:title="prison_configuration" target="_top">
<polygon fill="#ffffff" stroke="transparent" points="234.5,-950.2 234.5,-1011.2 412.5,-1011.2 412.5,-950.2 234.5,-950.2"/>
<polygon fill="#f5f5f5" stroke="transparent" points="234.5,-987.7 234.5,-1010.7 412.5,-1010.7 412.5,-987.7 234.5,-987.7"/>
<polygon fill="none" stroke="#000000" points="234.5,-987.7 234.5,-1010.7 412.5,-1010.7 412.5,-987.7 234.5,-987.7"/>
<text text-anchor="start" x="239.5" y="-996.3" font-family="Helvetica,sans-Serif" font-weight="bold" font-size="11.00" fill="#000000">prison_configuration</text>
<text text-anchor="start" x="378.0219" y="-995.8" font-family="Helvetica,sans-Serif" font-size="11.00" fill="#000000">[table]</text>
<polygon fill="none" stroke="#000000" points="234.5,-968.7 234.5,-987.7 412.5,-987.7 412.5,-968.7 234.5,-968.7"/>
<text text-anchor="start" x="237.5" y="-974.8" font-family="Helvetica,sans-Serif" font-size="11.00" fill="#000000">...</text>
<polygon fill="#ffffff" stroke="transparent" points="234.5,-949.7 234.5,-968.7 305.5,-968.7 305.5,-949.7 234.5,-949.7"/>
<polygon fill="none" stroke="#000000" points="234.5,-949.7 234.5,-968.7 305.5,-968.7 305.5,-949.7 234.5,-949.7"/>
<text text-anchor="start" x="237.5" y="-955.8" font-family="Helvetica,sans-Serif" font-size="11.00" fill="#000000">&lt; 1</text>
<polygon fill="#ffffff" stroke="transparent" points="305.5,-949.7 305.5,-968.7 374.5,-968.7 374.5,-949.7 305.5,-949.7"/>
<polygon fill="none" stroke="#000000" points="305.5,-949.7 305.5,-968.7 374.5,-968.7 374.5,-949.7 305.5,-949.7"/>
<text text-anchor="start" x="332.9956" y="-955.8" font-family="Helvetica,sans-Serif" font-size="11.00" fill="#000000">12 rows</text>
<polygon fill="#ffffff" stroke="transparent" points="374.5,-949.7 374.5,-968.7 412.5,-968.7 412.5,-949.7 374.5,-949.7"/>
<polygon fill="none" stroke="#000000" points="374.5,-949.7 374.5,-968.7 412.5,-968.7 412.5,-949.7 374.5,-949.7"/>
<text text-anchor="start" x="403.3862" y="-955.8" font-family="Helvetica,sans-Serif" font-size="11.00" fill="#000000"> &#160;</text>
</a>
</g>
</g>
<!-- prison_configuration&#45;&gt;policy -->
<g id="edge3" class="edge">
<title>prison_configuration:w&#45;&gt;policy:e</title>
<path fill="none" stroke="#000000" d="M220.0285,-975.5521C204.3585,-970.128 199.5378,-955.2019 183,-939.7 153.3146,-911.8741 164.6879,-869.7 124,-869.7"/>
<polygon fill="#000000" stroke="#000000" points="226.5867,-976.5255 233.9715,-981.261 230.5433,-977.1127 234.5,-977.7 234.5,-977.7 234.5,-977.7 230.5433,-977.1127 235.0285,-974.139 226.5867,-976.5255 226.5867,-976.5255"/>
<ellipse fill="none" stroke="#000000" cx="223.4214" cy="-976.0557" rx="3.2" ry="3.2"/>
</g>
<!-- prison_configuration_audit -->
<g id="node6" class="node">
<title>prison_configuration_audit</title>
<g id="a_node6"><a xlink:href="../../tables/prison_configuration_audit.html" xlink:title="prison_configuration_audit" target="_top">
<polygon fill="#ffffff" stroke="transparent" points="214,-202.2 214,-263.2 433,-263.2 433,-202.2 214,-202.2"/>
<polygon fill="#f5f5f5" stroke="transparent" points="214.5,-239.7 214.5,-262.7 433.5,-262.7 433.5,-239.7 214.5,-239.7"/>
<polygon fill="none" stroke="#000000" points="214.5,-239.7 214.5,-262.7 433.5,-262.7 433.5,-239.7 214.5,-239.7"/>
<text text-anchor="start" x="219.5" y="-248.3" font-family="Helvetica,sans-Serif" font-weight="bold" font-size="11.00" fill="#000000">prison_configuration_audit</text>
<text text-anchor="start" x="399.0219" y="-247.8" font-family="Helvetica,sans-Serif" font-size="11.00" fill="#000000">[table]</text>
<polygon fill="none" stroke="#000000" points="214.5,-220.7 214.5,-239.7 433.5,-239.7 433.5,-220.7 214.5,-220.7"/>
<text text-anchor="start" x="217.5" y="-226.8" font-family="Helvetica,sans-Serif" font-size="11.00" fill="#000000">...</text>
<polygon fill="#ffffff" stroke="transparent" points="214.5,-201.7 214.5,-220.7 322.5,-220.7 322.5,-201.7 214.5,-201.7"/>
<polygon fill="none" stroke="#000000" points="214.5,-201.7 214.5,-220.7 322.5,-220.7 322.5,-201.7 214.5,-201.7"/>
<text text-anchor="start" x="217.5" y="-207.8" font-family="Helvetica,sans-Serif" font-size="11.00" fill="#000000">&lt; 1</text>
<polygon fill="#ffffff" stroke="transparent" points="322.5,-201.7 322.5,-220.7 377.5,-220.7 377.5,-201.7 322.5,-201.7"/>
<polygon fill="none" stroke="#000000" points="322.5,-201.7 322.5,-220.7 377.5,-220.7 377.5,-201.7 322.5,-201.7"/>
<text text-anchor="start" x="368.3862" y="-207.8" font-family="Helvetica,sans-Serif" font-size="11.00" fill="#000000"> &#160;</text>
<polygon fill="#ffffff" stroke="transparent" points="377.5,-201.7 377.5,-220.7 433.5,-220.7 433.5,-201.7 377.5,-201.7"/>
<polygon fill="none" stroke="#000000" points="377.5,-201.7 377.5,-220.7 433.5,-220.7 433.5,-201.7 377.5,-201.7"/>
<text text-anchor="start" x="424.3862" y="-207.8" font-family="Helvetica,sans-Serif" font-size="11.00" fill="#000000"> &#160;</text>
</a>
</g>
</g>
<!-- prison_configuration_audit&#45;&gt;audit_revision -->
<g id="edge4" class="edge">
<title>prison_configuration_audit:w&#45;&gt;audit_revision:e</title>
<path fill="none" stroke="#000000" d="M200.0794,-229.7C178.8898,-229.7 168.8099,-229.7 142,-229.7"/>
<polygon fill="#000000" stroke="#000000" points="206.5,-229.7001 214.5,-233.3 210.5,-229.7 214.5,-229.7 214.5,-229.7 214.5,-229.7 210.5,-229.7 214.5,-226.1 206.5,-229.7001 206.5,-229.7001"/>
<ellipse fill="none" stroke="#000000" cx="203.3" cy="-229.7001" rx="3.2" ry="3.2"/>
</g>
<!-- prison_statistic -->
<g id="node7" class="node">
<title>prison_statistic</title>
<g id="a_node7"><a xlink:href="../../tables/prison_statistic.html" xlink:title="prison_statistic" target="_top">
<polygon fill="#ffffff" stroke="transparent" points="252.5,-868.2 252.5,-929.2 394.5,-929.2 394.5,-868.2 252.5,-868.2"/>
<polygon fill="#f5f5f5" stroke="transparent" points="252.5,-905.7 252.5,-928.7 394.5,-928.7 394.5,-905.7 252.5,-905.7"/>
<polygon fill="none" stroke="#000000" points="252.5,-905.7 252.5,-928.7 394.5,-928.7 394.5,-905.7 252.5,-905.7"/>
<text text-anchor="start" x="257.5" y="-914.3" font-family="Helvetica,sans-Serif" font-weight="bold" font-size="11.00" fill="#000000">prison_statistic</text>
<text text-anchor="start" x="360.0219" y="-913.8" font-family="Helvetica,sans-Serif" font-size="11.00" fill="#000000">[table]</text>
<polygon fill="none" stroke="#000000" points="252.5,-886.7 252.5,-905.7 394.5,-905.7 394.5,-886.7 252.5,-886.7"/>
<text text-anchor="start" x="255.5" y="-892.8" font-family="Helvetica,sans-Serif" font-size="11.00" fill="#000000">...</text>
<polygon fill="#ffffff" stroke="transparent" points="252.5,-867.7 252.5,-886.7 317.5,-886.7 317.5,-867.7 252.5,-867.7"/>
<polygon fill="none" stroke="#000000" points="252.5,-867.7 252.5,-886.7 317.5,-886.7 317.5,-867.7 252.5,-867.7"/>
<text text-anchor="start" x="255.5" y="-873.8" font-family="Helvetica,sans-Serif" font-size="11.00" fill="#000000">&lt; 1</text>
<polygon fill="#ffffff" stroke="transparent" points="317.5,-867.7 317.5,-886.7 351.5,-886.7 351.5,-867.7 317.5,-867.7"/>
<polygon fill="none" stroke="#000000" points="317.5,-867.7 317.5,-886.7 351.5,-886.7 351.5,-867.7 317.5,-867.7"/>
<text text-anchor="start" x="342.3862" y="-873.8" font-family="Helvetica,sans-Serif" font-size="11.00" fill="#000000"> &#160;</text>
<polygon fill="#ffffff" stroke="transparent" points="351.5,-867.7 351.5,-886.7 394.5,-886.7 394.5,-867.7 351.5,-867.7"/>
<polygon fill="none" stroke="#000000" points="351.5,-867.7 351.5,-886.7 394.5,-886.7 394.5,-867.7 351.5,-867.7"/>
<text text-anchor="start" x="375.9053" y="-873.8" font-family="Helvetica,sans-Serif" font-size="11.00" fill="#000000">1 &gt;</text>
</a>
</g>
</g>
<!-- prison_statistic&#45;&gt;policy -->
<g id="edge5" class="edge">
<title>prison_statistic:w&#45;&gt;policy:e</title>
<path fill="none" stroke="#000000" d="M237.849,-895.1081C191.7082,-891.238 177.0334,-869.7 124,-869.7"/>
<polygon fill="#000000" stroke="#000000" points="244.5065,-895.377 252.3547,-899.2971 248.5033,-895.5385 252.5,-895.7 252.5,-895.7 252.5,-895.7 248.5033,-895.5385 252.6453,-892.1029 244.5065,-895.377 244.5065,-895.377"/>
<ellipse fill="none" stroke="#000000" cx="241.3091" cy="-895.2478" rx="3.2" ry="3.2"/>
</g>
<!-- prisoner_statistic -->
<g id="node8" class="node">
<title>prisoner_statistic</title>
<g id="a_node8"><a xlink:href="../../tables/prisoner_statistic.html" xlink:title="prisoner_statistic" target="_top">
<polygon fill="#ffffff" stroke="transparent" points="505,-842.2 505,-903.2 661,-903.2 661,-842.2 505,-842.2"/>
<polygon fill="#f5f5f5" stroke="transparent" points="505,-879.7 505,-902.7 661,-902.7 661,-879.7 505,-879.7"/>
<polygon fill="none" stroke="#000000" points="505,-879.7 505,-902.7 661,-902.7 661,-879.7 505,-879.7"/>
<text text-anchor="start" x="510" y="-888.3" font-family="Helvetica,sans-Serif" font-weight="bold" font-size="11.00" fill="#000000">prisoner_statistic</text>
<text text-anchor="start" x="626.5219" y="-887.8" font-family="Helvetica,sans-Serif" font-size="11.00" fill="#000000">[table]</text>
<polygon fill="none" stroke="#000000" points="505,-860.7 505,-879.7 661,-879.7 661,-860.7 505,-860.7"/>
<text text-anchor="start" x="508" y="-866.8" font-family="Helvetica,sans-Serif" font-size="11.00" fill="#000000">...</text>
<polygon fill="#ffffff" stroke="transparent" points="505,-841.7 505,-860.7 581,-860.7 581,-841.7 505,-841.7"/>
<polygon fill="none" stroke="#000000" points="505,-841.7 505,-860.7 581,-860.7 581,-841.7 505,-841.7"/>
<text text-anchor="start" x="508" y="-847.8" font-family="Helvetica,sans-Serif" font-size="11.00" fill="#000000">&lt; 2</text>
<polygon fill="#ffffff" stroke="transparent" points="581,-841.7 581,-860.7 621,-860.7 621,-841.7 581,-841.7"/>
<polygon fill="none" stroke="#000000" points="581,-841.7 581,-860.7 621,-860.7 621,-841.7 581,-841.7"/>
<text text-anchor="start" x="611.8862" y="-847.8" font-family="Helvetica,sans-Serif" font-size="11.00" fill="#000000"> &#160;</text>
<polygon fill="#ffffff" stroke="transparent" points="621,-841.7 621,-860.7 661,-860.7 661,-841.7 621,-841.7"/>
<polygon fill="none" stroke="#000000" points="621,-841.7 621,-860.7 661,-860.7 661,-841.7 621,-841.7"/>
<text text-anchor="start" x="651.8862" y="-847.8" font-family="Helvetica,sans-Serif" font-size="11.00" fill="#000000"> &#160;</text>
</a>
</g>
</g>
<!-- prisoner_statistic&#45;&gt;policy -->
<g id="edge6" class="edge">
<title>prisoner_statistic:w&#45;&gt;policy:e</title>
<path fill="none" stroke="#000000" d="M490.5783,-867.3587C482.3532,-864.4167 476.7744,-859.531 464,-857.7 340.3746,-839.9802 307.2609,-845.1914 183,-857.7 156.3755,-860.3801 150.7591,-869.7 124,-869.7"/>
<polygon fill="#000000" stroke="#000000" points="497.1034,-868.418 504.4231,-873.2535 501.0517,-869.059 505,-869.7 505,-869.7 505,-869.7 501.0517,-869.059 505.5769,-866.1465 497.1034,-868.418 497.1034,-868.418"/>
<ellipse fill="none" stroke="#000000" cx="493.9447" cy="-867.9052" rx="3.2" ry="3.2"/>
</g>
<!-- prisoner_statistic&#45;&gt;prison_statistic -->
<g id="edge7" class="edge">
<title>prisoner_statistic:w&#45;&gt;prison_statistic:e</title>
<path fill="none" stroke="#000000" d="M490.555,-870.4781C452.1234,-874.8042 439.7297,-895.7 394.5,-895.7"/>
<polygon fill="#000000" stroke="#000000" points="497.0116,-870.1304 505.1937,-873.2948 501.0058,-869.9152 505,-869.7 505,-869.7 505,-869.7 501.0058,-869.9152 504.8063,-866.1052 497.0116,-870.1304 497.0116,-870.1304"/>
<ellipse fill="none" stroke="#000000" cx="493.8162" cy="-870.3025" rx="3.2" ry="3.2"/>
</g>
<!-- recorded_event -->
<g id="node9" class="node">
<title>recorded_event</title>
<g id="a_node9"><a xlink:href="../../tables/recorded_event.html" xlink:title="recorded_event" target="_top">
<polygon fill="#ffffff" stroke="transparent" points="251.5,-758.2 251.5,-819.2 395.5,-819.2 395.5,-758.2 251.5,-758.2"/>
<polygon fill="#f5f5f5" stroke="transparent" points="251.5,-795.7 251.5,-818.7 395.5,-818.7 395.5,-795.7 251.5,-795.7"/>
<polygon fill="none" stroke="#000000" points="251.5,-795.7 251.5,-818.7 395.5,-818.7 395.5,-795.7 251.5,-795.7"/>
<text text-anchor="start" x="256.5" y="-804.3" font-family="Helvetica,sans-Serif" font-weight="bold" font-size="11.00" fill="#000000">recorded_event</text>
<text text-anchor="start" x="361.0219" y="-803.8" font-family="Helvetica,sans-Serif" font-size="11.00" fill="#000000">[table]</text>
<polygon fill="none" stroke="#000000" points="251.5,-776.7 251.5,-795.7 395.5,-795.7 395.5,-776.7 251.5,-776.7"/>
<text text-anchor="start" x="254.5" y="-782.8" font-family="Helvetica,sans-Serif" font-size="11.00" fill="#000000">...</text>
<polygon fill="#ffffff" stroke="transparent" points="251.5,-757.7 251.5,-776.7 321.5,-776.7 321.5,-757.7 251.5,-757.7"/>
<polygon fill="none" stroke="#000000" points="251.5,-757.7 251.5,-776.7 321.5,-776.7 321.5,-757.7 251.5,-757.7"/>
<text text-anchor="start" x="254.5" y="-763.8" font-family="Helvetica,sans-Serif" font-size="11.00" fill="#000000">&lt; 2</text>
<polygon fill="#ffffff" stroke="transparent" points="321.5,-757.7 321.5,-776.7 358.5,-776.7 358.5,-757.7 321.5,-757.7"/>
<polygon fill="none" stroke="#000000" points="321.5,-757.7 321.5,-776.7 358.5,-776.7 358.5,-757.7 321.5,-757.7"/>
<text text-anchor="start" x="349.3862" y="-763.8" font-family="Helvetica,sans-Serif" font-size="11.00" fill="#000000"> &#160;</text>
<polygon fill="#ffffff" stroke="transparent" points="358.5,-757.7 358.5,-776.7 395.5,-776.7 395.5,-757.7 358.5,-757.7"/>
<polygon fill="none" stroke="#000000" points="358.5,-757.7 358.5,-776.7 395.5,-776.7 395.5,-757.7 358.5,-757.7"/>
<text text-anchor="start" x="386.3862" y="-763.8" font-family="Helvetica,sans-Serif" font-size="11.00" fill="#000000"> &#160;</text>
</a>
</g>
</g>
<!-- recorded_event&#45;&gt;policy -->
<g id="edge8" class="edge">
<title>recorded_event:w&#45;&gt;policy:e</title>
<path fill="none" stroke="#000000" d="M237.2072,-789.5276C202.6215,-805.9604 153.5559,-869.7 124,-869.7"/>
<polygon fill="#000000" stroke="#000000" points="243.7723,-787.7695 252.4313,-789.1775 247.6361,-786.7348 251.5,-785.7 251.5,-785.7 251.5,-785.7 247.6361,-786.7348 250.5687,-782.2225 243.7723,-787.7695 243.7723,-787.7695"/>
<ellipse fill="none" stroke="#000000" cx="240.6812" cy="-788.5973" rx="3.2" ry="3.2"/>
</g>
<!-- recorded_event_audit -->
<g id="node10" class="node">
<title>recorded_event_audit</title>
<g id="a_node10"><a xlink:href="../../tables/recorded_event_audit.html" xlink:title="recorded_event_audit" target="_top">
<polygon fill="#ffffff" stroke="transparent" points="191,-366.7 191,-654.7 456,-654.7 456,-366.7 191,-366.7"/>
<polygon fill="#f5f5f5" stroke="transparent" points="193.5,-629.7 193.5,-652.7 454.5,-652.7 454.5,-629.7 193.5,-629.7"/>
<polygon fill="none" stroke="#000000" points="193.5,-629.7 193.5,-652.7 454.5,-652.7 454.5,-629.7 193.5,-629.7"/>
<text text-anchor="start" x="198.5" y="-638.3" font-family="Helvetica,sans-Serif" font-weight="bold" font-size="11.00" fill="#000000">recorded_event_audit</text>
<text text-anchor="start" x="419.5437" y="-637.8" font-family="Helvetica,sans-Serif" font-size="11.00" fill="#000000">[table]</text>
<polygon fill="#ffffff" stroke="transparent" points="193.5,-607.7 193.5,-629.7 360.5,-629.7 360.5,-607.7 193.5,-607.7"/>
<polygon fill="none" stroke="#000000" points="193.5,-607.7 193.5,-629.7 360.5,-629.7 360.5,-607.7 193.5,-607.7"/>
<image xlink:href="../../images/foreignKeys.png" width="11px" height="12px" preserveAspectRatio="xMinYMin meet" x="198.5" y="-624.7"/>
<text text-anchor="start" x="213.5" y="-614.8" font-family="Helvetica,sans-Serif" font-size="11.00" fill="#000000">rev_id</text>
<polygon fill="none" stroke="#000000" points="360.5,-607.7 360.5,-629.7 454.5,-629.7 454.5,-607.7 360.5,-607.7"/>
<text text-anchor="start" x="363.5" y="-615.4" font-family="Helvetica,sans-Serif" font-size="11.00" fill="#000000">int8[19]</text>
<polygon fill="none" stroke="#000000" points="193.5,-585.7 193.5,-607.7 360.5,-607.7 360.5,-585.7 193.5,-585.7"/>
<text text-anchor="start" x="213.5" y="-592.8" font-family="Helvetica,sans-Serif" font-size="11.00" fill="#000000">rev_type</text>
<polygon fill="none" stroke="#000000" points="360.5,-585.7 360.5,-607.7 454.5,-607.7 454.5,-585.7 360.5,-585.7"/>
<text text-anchor="start" x="363.5" y="-593.4" font-family="Helvetica,sans-Serif" font-size="11.00" fill="#000000">int2[5]</text>
<polygon fill="#ffffff" stroke="transparent" points="193.5,-563.7 193.5,-585.7 360.5,-585.7 360.5,-563.7 193.5,-563.7"/>
<polygon fill="none" stroke="#000000" points="193.5,-563.7 193.5,-585.7 360.5,-585.7 360.5,-563.7 193.5,-563.7"/>
<text text-anchor="start" x="213.5" y="-570.8" font-family="Helvetica,sans-Serif" font-size="11.00" fill="#000000">id</text>
<polygon fill="none" stroke="#000000" points="360.5,-563.7 360.5,-585.7 454.5,-585.7 454.5,-563.7 360.5,-563.7"/>
<text text-anchor="start" x="363.4758" y="-571.4" font-family="Helvetica,sans-Serif" font-size="11.00" fill="#000000">uuid[2147483647]</text>
<polygon fill="none" stroke="#000000" points="193.5,-541.7 193.5,-563.7 360.5,-563.7 360.5,-541.7 193.5,-541.7"/>
<text text-anchor="start" x="213.5" y="-548.8" font-family="Helvetica,sans-Serif" font-size="11.00" fill="#000000">prison_code</text>
<polygon fill="none" stroke="#000000" points="360.5,-541.7 360.5,-563.7 454.5,-563.7 454.5,-541.7 360.5,-541.7"/>
<text text-anchor="start" x="363.5" y="-549.4" font-family="Helvetica,sans-Serif" font-size="11.00" fill="#000000">varchar[6]</text>
<polygon fill="none" stroke="#000000" points="193.5,-519.7 193.5,-541.7 360.5,-541.7 360.5,-519.7 193.5,-519.7"/>
<text text-anchor="start" x="213.5" y="-526.8" font-family="Helvetica,sans-Serif" font-size="11.00" fill="#000000">person_identifier</text>
<polygon fill="none" stroke="#000000" points="360.5,-519.7 360.5,-541.7 454.5,-541.7 454.5,-519.7 360.5,-519.7"/>
<text text-anchor="start" x="363.5" y="-527.4" font-family="Helvetica,sans-Serif" font-size="11.00" fill="#000000">varchar[7]</text>
<polygon fill="none" stroke="#000000" points="193.5,-497.7 193.5,-519.7 360.5,-519.7 360.5,-497.7 193.5,-497.7"/>
<text text-anchor="start" x="213.5" y="-504.8" font-family="Helvetica,sans-Serif" font-size="11.00" fill="#000000">staff_id</text>
<polygon fill="none" stroke="#000000" points="360.5,-497.7 360.5,-519.7 454.5,-519.7 454.5,-497.7 360.5,-497.7"/>
<text text-anchor="start" x="363.5" y="-505.4" font-family="Helvetica,sans-Serif" font-size="11.00" fill="#000000">int8[19]</text>
<polygon fill="none" stroke="#000000" points="193.5,-475.7 193.5,-497.7 360.5,-497.7 360.5,-475.7 193.5,-475.7"/>
<text text-anchor="start" x="213.5" y="-482.8" font-family="Helvetica,sans-Serif" font-size="11.00" fill="#000000">username</text>
<polygon fill="none" stroke="#000000" points="360.5,-475.7 360.5,-497.7 454.5,-497.7 454.5,-475.7 360.5,-475.7"/>
<text text-anchor="start" x="363.5" y="-483.4" font-family="Helvetica,sans-Serif" font-size="11.00" fill="#000000">varchar[64]</text>
<polygon fill="none" stroke="#000000" points="193.5,-453.7 193.5,-475.7 360.5,-475.7 360.5,-453.7 193.5,-453.7"/>
<text text-anchor="start" x="213.5" y="-460.8" font-family="Helvetica,sans-Serif" font-size="11.00" fill="#000000">occurred_at</text>
<polygon fill="none" stroke="#000000" points="360.5,-453.7 360.5,-475.7 454.5,-475.7 454.5,-453.7 360.5,-453.7"/>
<text text-anchor="start" x="363.5" y="-461.4" font-family="Helvetica,sans-Serif" font-size="11.00" fill="#000000">timestamp[29,6]</text>
<polygon fill="none" stroke="#000000" points="193.5,-431.7 193.5,-453.7 360.5,-453.7 360.5,-431.7 193.5,-431.7"/>
<text text-anchor="start" x="213.5" y="-438.8" font-family="Helvetica,sans-Serif" font-size="11.00" fill="#000000">created_at</text>
<polygon fill="none" stroke="#000000" points="360.5,-431.7 360.5,-453.7 454.5,-453.7 454.5,-431.7 360.5,-431.7"/>
<text text-anchor="start" x="363.5" y="-439.4" font-family="Helvetica,sans-Serif" font-size="11.00" fill="#000000">timestamp[29,6]</text>
<polygon fill="none" stroke="#000000" points="193.5,-409.7 193.5,-431.7 360.5,-431.7 360.5,-409.7 193.5,-409.7"/>
<image xlink:href="../../images/foreignKeys.png" width="11px" height="12px" preserveAspectRatio="xMinYMin meet" x="198.5" y="-426.7"/>
<text text-anchor="start" x="213.5" y="-416.8" font-family="Helvetica,sans-Serif" font-size="11.00" fill="#000000">policy_code</text>
<polygon fill="none" stroke="#000000" points="360.5,-409.7 360.5,-431.7 454.5,-431.7 454.5,-409.7 360.5,-409.7"/>
<text text-anchor="start" x="363.5" y="-417.4" font-family="Helvetica,sans-Serif" font-size="11.00" fill="#000000">varchar[16]</text>
<polygon fill="none" stroke="#000000" points="193.5,-387.7 193.5,-409.7 360.5,-409.7 360.5,-387.7 193.5,-387.7"/>
<text text-anchor="start" x="213.5" y="-394.8" font-family="Helvetica,sans-Serif" font-size="11.00" fill="#000000">type_id</text>
<polygon fill="none" stroke="#000000" points="360.5,-387.7 360.5,-409.7 454.5,-409.7 454.5,-387.7 360.5,-387.7"/>
<text text-anchor="start" x="363.5" y="-395.4" font-family="Helvetica,sans-Serif" font-size="11.00" fill="#000000">int8[19]</text>
<polygon fill="#ffffff" stroke="transparent" points="193.5,-368.7 193.5,-387.7 281.5,-387.7 281.5,-368.7 193.5,-368.7"/>
<polygon fill="none" stroke="#000000" points="193.5,-368.7 193.5,-387.7 281.5,-387.7 281.5,-368.7 193.5,-368.7"/>
<text text-anchor="start" x="196.5" y="-374.8" font-family="Helvetica,sans-Serif" font-size="11.00" fill="#000000">&lt; 2</text>
<polygon fill="#ffffff" stroke="transparent" points="281.5,-368.7 281.5,-387.7 360.5,-387.7 360.5,-368.7 281.5,-368.7"/>
<polygon fill="none" stroke="#000000" points="281.5,-368.7 281.5,-387.7 360.5,-387.7 360.5,-368.7 281.5,-368.7"/>
<text text-anchor="start" x="351.3862" y="-374.8" font-family="Helvetica,sans-Serif" font-size="11.00" fill="#000000"> &#160;</text>
<polygon fill="#ffffff" stroke="transparent" points="360.5,-368.7 360.5,-387.7 454.5,-387.7 454.5,-368.7 360.5,-368.7"/>
<polygon fill="none" stroke="#000000" points="360.5,-368.7 360.5,-387.7 454.5,-387.7 454.5,-368.7 360.5,-368.7"/>
<text text-anchor="start" x="435.9053" y="-374.8" font-family="Helvetica,sans-Serif" font-size="11.00" fill="#000000">0 &gt;</text>
<polygon fill="none" stroke="#000000" stroke-width="2" points="192,-367.7 192,-653.7 455,-653.7 455,-367.7 192,-367.7"/>
</a>
</g>
</g>
<!-- recorded_event_audit&#45;&gt;policy -->
<g id="edge9" class="edge">
<title>recorded_event_audit:w&#45;&gt;policy:e</title>
<path fill="none" stroke="#000000" d="M179.4056,-424.3142C105.8524,-466.8068 219.6416,-869.7 124,-869.7"/>
<polygon fill="#000000" stroke="#000000" points="185.7507,-422.6872 194.3942,-424.1872 189.6254,-421.6936 193.5,-420.7 193.5,-420.7 193.5,-420.7 189.6254,-421.6936 192.6058,-417.2128 185.7507,-422.6872 185.7507,-422.6872"/>
<ellipse fill="none" stroke="#000000" cx="182.651" cy="-423.482" rx="3.2" ry="3.2"/>
</g>
<!-- recorded_event_audit&#45;&gt;audit_revision -->
<g id="edge10" class="edge">
<title>recorded_event_audit:w&#45;&gt;audit_revision:e</title>
<path fill="none" stroke="#000000" d="M179.5097,-614.3313C120.8428,-571.5945 223.7488,-229.7 142,-229.7"/>
<polygon fill="#000000" stroke="#000000" points="185.8636,-616.3154 192.4269,-622.1364 189.6818,-617.5077 193.5,-618.7 193.5,-618.7 193.5,-618.7 189.6818,-617.5077 194.5731,-615.2636 185.8636,-616.3154 185.8636,-616.3154"/>
<ellipse fill="none" stroke="#000000" cx="182.8091" cy="-615.3616" rx="3.2" ry="3.2"/>
</g>
<!-- reference_data_policy -->
<g id="node11" class="node">
<title>reference_data_policy</title>
<g id="a_node11"><a xlink:href="../../tables/reference_data_policy.html" xlink:title="reference_data_policy" target="_top">
<polygon fill="#ffffff" stroke="transparent" points="230.5,-676.2 230.5,-737.2 416.5,-737.2 416.5,-676.2 230.5,-676.2"/>
<polygon fill="#f5f5f5" stroke="transparent" points="230.5,-713.7 230.5,-736.7 416.5,-736.7 416.5,-713.7 230.5,-713.7"/>
<polygon fill="none" stroke="#000000" points="230.5,-713.7 230.5,-736.7 416.5,-736.7 416.5,-713.7 230.5,-713.7"/>
<text text-anchor="start" x="235.5" y="-722.3" font-family="Helvetica,sans-Serif" font-weight="bold" font-size="11.00" fill="#000000">reference_data_policy</text>
<text text-anchor="start" x="382.0219" y="-721.8" font-family="Helvetica,sans-Serif" font-size="11.00" fill="#000000">[table]</text>
<polygon fill="none" stroke="#000000" points="230.5,-694.7 230.5,-713.7 416.5,-713.7 416.5,-694.7 230.5,-694.7"/>
<text text-anchor="start" x="233.5" y="-700.8" font-family="Helvetica,sans-Serif" font-size="11.00" fill="#000000">...</text>
<polygon fill="#ffffff" stroke="transparent" points="230.5,-675.7 230.5,-694.7 305.5,-694.7 305.5,-675.7 230.5,-675.7"/>
<polygon fill="none" stroke="#000000" points="230.5,-675.7 230.5,-694.7 305.5,-694.7 305.5,-675.7 230.5,-675.7"/>
<text text-anchor="start" x="233.5" y="-681.8" font-family="Helvetica,sans-Serif" font-size="11.00" fill="#000000">&lt; 2</text>
<polygon fill="#ffffff" stroke="transparent" points="305.5,-675.7 305.5,-694.7 376.5,-694.7 376.5,-675.7 305.5,-675.7"/>
<polygon fill="none" stroke="#000000" points="305.5,-675.7 305.5,-694.7 376.5,-694.7 376.5,-675.7 305.5,-675.7"/>
<text text-anchor="start" x="334.9956" y="-681.8" font-family="Helvetica,sans-Serif" font-size="11.00" fill="#000000">84 rows</text>
<polygon fill="#ffffff" stroke="transparent" points="376.5,-675.7 376.5,-694.7 416.5,-694.7 416.5,-675.7 376.5,-675.7"/>
<polygon fill="none" stroke="#000000" points="376.5,-675.7 376.5,-694.7 416.5,-694.7 416.5,-675.7 376.5,-675.7"/>
<text text-anchor="start" x="407.3862" y="-681.8" font-family="Helvetica,sans-Serif" font-size="11.00" fill="#000000"> &#160;</text>
</a>
</g>
</g>
<!-- reference_data_policy&#45;&gt;policy -->
<g id="edge11" class="edge">
<title>reference_data_policy:w&#45;&gt;policy:e</title>
<path fill="none" stroke="#000000" d="M215.9696,-706.1271C200.4307,-712.2709 196.64,-729.2663 183,-747.7 147.1741,-796.1165 184.23,-869.7 124,-869.7"/>
<polygon fill="#000000" stroke="#000000" points="222.6093,-705.0181 231.0931,-707.2508 226.5547,-704.359 230.5,-703.7 230.5,-703.7 230.5,-703.7 226.5547,-704.359 229.9069,-700.1492 222.6093,-705.0181 222.6093,-705.0181"/>
<ellipse fill="none" stroke="#000000" cx="219.453" cy="-705.5453" rx="3.2" ry="3.2"/>
</g>
<!-- staff_configuration -->
<g id="node12" class="node">
<title>staff_configuration</title>
<g id="a_node12"><a xlink:href="../../tables/staff_configuration.html" xlink:title="staff_configuration" target="_top">
<polygon fill="#ffffff" stroke="transparent" points="240,-1114.2 240,-1175.2 407,-1175.2 407,-1114.2 240,-1114.2"/>
<polygon fill="#f5f5f5" stroke="transparent" points="240.5,-1151.7 240.5,-1174.7 407.5,-1174.7 407.5,-1151.7 240.5,-1151.7"/>
<polygon fill="none" stroke="#000000" points="240.5,-1151.7 240.5,-1174.7 407.5,-1174.7 407.5,-1151.7 240.5,-1151.7"/>
<text text-anchor="start" x="245.5" y="-1160.3" font-family="Helvetica,sans-Serif" font-weight="bold" font-size="11.00" fill="#000000">staff_configuration</text>
<text text-anchor="start" x="373.0219" y="-1159.8" font-family="Helvetica,sans-Serif" font-size="11.00" fill="#000000">[table]</text>
<polygon fill="none" stroke="#000000" points="240.5,-1132.7 240.5,-1151.7 407.5,-1151.7 407.5,-1132.7 240.5,-1132.7"/>
<text text-anchor="start" x="243.5" y="-1138.8" font-family="Helvetica,sans-Serif" font-size="11.00" fill="#000000">...</text>
<polygon fill="#ffffff" stroke="transparent" points="240.5,-1113.7 240.5,-1132.7 322.5,-1132.7 322.5,-1113.7 240.5,-1113.7"/>
<polygon fill="none" stroke="#000000" points="240.5,-1113.7 240.5,-1132.7 322.5,-1132.7 322.5,-1113.7 240.5,-1113.7"/>
<text text-anchor="start" x="243.5" y="-1119.8" font-family="Helvetica,sans-Serif" font-size="11.00" fill="#000000">&lt; 2</text>
<polygon fill="#ffffff" stroke="transparent" points="322.5,-1113.7 322.5,-1132.7 364.5,-1132.7 364.5,-1113.7 322.5,-1113.7"/>
<polygon fill="none" stroke="#000000" points="322.5,-1113.7 322.5,-1132.7 364.5,-1132.7 364.5,-1113.7 322.5,-1113.7"/>
<text text-anchor="start" x="355.3862" y="-1119.8" font-family="Helvetica,sans-Serif" font-size="11.00" fill="#000000"> &#160;</text>
<polygon fill="#ffffff" stroke="transparent" points="364.5,-1113.7 364.5,-1132.7 407.5,-1132.7 407.5,-1113.7 364.5,-1113.7"/>
<polygon fill="none" stroke="#000000" points="364.5,-1113.7 364.5,-1132.7 407.5,-1132.7 407.5,-1113.7 364.5,-1113.7"/>
<text text-anchor="start" x="398.3862" y="-1119.8" font-family="Helvetica,sans-Serif" font-size="11.00" fill="#000000"> &#160;</text>
</a>
</g>
</g>
<!-- staff_configuration&#45;&gt;policy -->
<g id="edge12" class="edge">
<title>staff_configuration:w&#45;&gt;policy:e</title>
<path fill="none" stroke="#000000" d="M225.8941,-1140.4455C206.3039,-1136.6365 197.5368,-1124.1961 183,-1103.7 120.9518,-1016.215 231.2549,-869.7 124,-869.7"/>
<polygon fill="#000000" stroke="#000000" points="232.5293,-1141.0153 240.1919,-1145.2868 236.5147,-1141.3577 240.5,-1141.7 240.5,-1141.7 240.5,-1141.7 236.5147,-1141.3577 240.8081,-1138.1132 232.5293,-1141.0153 232.5293,-1141.0153"/>
<ellipse fill="none" stroke="#000000" cx="229.3411" cy="-1140.7415" rx="3.2" ry="3.2"/>
</g>
<!-- staff_configuration_audit -->
<g id="node13" class="node">
<title>staff_configuration_audit</title>
<g id="a_node13"><a xlink:href="../../tables/staff_configuration_audit.html" xlink:title="staff_configuration_audit" target="_top">
<polygon fill="#ffffff" stroke="transparent" points="219.5,-120.2 219.5,-181.2 427.5,-181.2 427.5,-120.2 219.5,-120.2"/>
<polygon fill="#f5f5f5" stroke="transparent" points="219.5,-157.7 219.5,-180.7 427.5,-180.7 427.5,-157.7 219.5,-157.7"/>
<polygon fill="none" stroke="#000000" points="219.5,-157.7 219.5,-180.7 427.5,-180.7 427.5,-157.7 219.5,-157.7"/>
<text text-anchor="start" x="224.5" y="-166.3" font-family="Helvetica,sans-Serif" font-weight="bold" font-size="11.00" fill="#000000">staff_configuration_audit</text>
<text text-anchor="start" x="393.0219" y="-165.8" font-family="Helvetica,sans-Serif" font-size="11.00" fill="#000000">[table]</text>
<polygon fill="none" stroke="#000000" points="219.5,-138.7 219.5,-157.7 427.5,-157.7 427.5,-138.7 219.5,-138.7"/>
<text text-anchor="start" x="222.5" y="-144.8" font-family="Helvetica,sans-Serif" font-size="11.00" fill="#000000">...</text>
<polygon fill="#ffffff" stroke="transparent" points="219.5,-119.7 219.5,-138.7 321.5,-138.7 321.5,-119.7 219.5,-119.7"/>
<polygon fill="none" stroke="#000000" points="219.5,-119.7 219.5,-138.7 321.5,-138.7 321.5,-119.7 219.5,-119.7"/>
<text text-anchor="start" x="222.5" y="-125.8" font-family="Helvetica,sans-Serif" font-size="11.00" fill="#000000">&lt; 1</text>
<polygon fill="#ffffff" stroke="transparent" points="321.5,-119.7 321.5,-138.7 374.5,-138.7 374.5,-119.7 321.5,-119.7"/>
<polygon fill="none" stroke="#000000" points="321.5,-119.7 321.5,-138.7 374.5,-138.7 374.5,-119.7 321.5,-119.7"/>
<text text-anchor="start" x="365.3862" y="-125.8" font-family="Helvetica,sans-Serif" font-size="11.00" fill="#000000"> &#160;</text>
<polygon fill="#ffffff" stroke="transparent" points="374.5,-119.7 374.5,-138.7 427.5,-138.7 427.5,-119.7 374.5,-119.7"/>
<polygon fill="none" stroke="#000000" points="374.5,-119.7 374.5,-138.7 427.5,-138.7 427.5,-119.7 374.5,-119.7"/>
<text text-anchor="start" x="418.3862" y="-125.8" font-family="Helvetica,sans-Serif" font-size="11.00" fill="#000000"> &#160;</text>
</a>
</g>
</g>
<!-- staff_configuration_audit&#45;&gt;audit_revision -->
<g id="edge13" class="edge">
<title>staff_configuration_audit:w&#45;&gt;audit_revision:e</title>
<path fill="none" stroke="#000000" d="M205.0541,-150.6184C173.5818,-165.2258 186.4654,-229.7 142,-229.7"/>
<polygon fill="#000000" stroke="#000000" points="211.6584,-149.2842 220.2129,-151.2287 215.5792,-148.4921 219.5,-147.7 219.5,-147.7 219.5,-147.7 215.5792,-148.4921 218.7871,-144.1713 211.6584,-149.2842 211.6584,-149.2842"/>
<ellipse fill="none" stroke="#000000" cx="208.5218" cy="-149.9179" rx="3.2" ry="3.2"/>
</g>
<!-- staff_role_audit -->
<g id="node14" class="node">
<title>staff_role_audit</title>
<g id="a_node14"><a xlink:href="../../tables/staff_role_audit.html" xlink:title="staff_role_audit" target="_top">
<polygon fill="#ffffff" stroke="transparent" points="252,-38.2 252,-99.2 395,-99.2 395,-38.2 252,-38.2"/>
<polygon fill="#f5f5f5" stroke="transparent" points="252.5,-75.7 252.5,-98.7 395.5,-98.7 395.5,-75.7 252.5,-75.7"/>
<polygon fill="none" stroke="#000000" points="252.5,-75.7 252.5,-98.7 395.5,-98.7 395.5,-75.7 252.5,-75.7"/>
<text text-anchor="start" x="257.5" y="-84.3" font-family="Helvetica,sans-Serif" font-weight="bold" font-size="11.00" fill="#000000">staff_role_audit</text>
<text text-anchor="start" x="361.0219" y="-83.8" font-family="Helvetica,sans-Serif" font-size="11.00" fill="#000000">[table]</text>
<polygon fill="none" stroke="#000000" points="252.5,-56.7 252.5,-75.7 395.5,-75.7 395.5,-56.7 252.5,-56.7"/>
<text text-anchor="start" x="255.5" y="-62.8" font-family="Helvetica,sans-Serif" font-size="11.00" fill="#000000">...</text>
<polygon fill="#ffffff" stroke="transparent" points="252.5,-37.7 252.5,-56.7 322.5,-56.7 322.5,-37.7 252.5,-37.7"/>
<polygon fill="none" stroke="#000000" points="252.5,-37.7 252.5,-56.7 322.5,-56.7 322.5,-37.7 252.5,-37.7"/>
<text text-anchor="start" x="255.5" y="-43.8" font-family="Helvetica,sans-Serif" font-size="11.00" fill="#000000">&lt; 1</text>
<polygon fill="#ffffff" stroke="transparent" points="322.5,-37.7 322.5,-56.7 358.5,-56.7 358.5,-37.7 322.5,-37.7"/>
<polygon fill="none" stroke="#000000" points="322.5,-37.7 322.5,-56.7 358.5,-56.7 358.5,-37.7 322.5,-37.7"/>
<text text-anchor="start" x="349.3862" y="-43.8" font-family="Helvetica,sans-Serif" font-size="11.00" fill="#000000"> &#160;</text>
<polygon fill="#ffffff" stroke="transparent" points="358.5,-37.7 358.5,-56.7 395.5,-56.7 395.5,-37.7 358.5,-37.7"/>
<polygon fill="none" stroke="#000000" points="358.5,-37.7 358.5,-56.7 395.5,-56.7 395.5,-37.7 358.5,-37.7"/>
<text text-anchor="start" x="386.3862" y="-43.8" font-family="Helvetica,sans-Serif" font-size="11.00" fill="#000000"> &#160;</text>
</a>
</g>
</g>
<!-- staff_role_audit&#45;&gt;audit_revision -->
<g id="edge14" class="edge">
<title>staff_role_audit:w&#45;&gt;audit_revision:e</title>
<path fill="none" stroke="#000000" d="M237.8293,-66.7048C212.6111,-70.5362 202.2792,-85.2558 183,-109.7 148.0976,-153.9529 198.3604,-229.7 142,-229.7"/>
<polygon fill="#000000" stroke="#000000" points="244.5187,-66.2467 252.746,-69.2916 248.5093,-65.9734 252.5,-65.7 252.5,-65.7 252.5,-65.7 248.5093,-65.9734 252.254,-62.1084 244.5187,-66.2467 244.5187,-66.2467"/>
<ellipse fill="none" stroke="#000000" cx="241.3262" cy="-66.4654" rx="3.2" ry="3.2"/>
</g>
</g>
</svg>
