<?xml version="1.0" encoding="UTF-8" standalone="no"?>
<!DOCTYPE svg PUBLIC "-//W3C//DTD SVG 1.1//EN"
 "http://www.w3.org/Graphics/SVG/1.1/DTD/svg11.dtd">
<!-- Generated by graphviz version 2.40.1 (20161225.0304)
 -->
<!-- Title: oneDegreeRelationshipsDiagram Pages: 1 -->
<svg width="450pt" height="440pt"
 viewBox="0.00 0.00 450.00 439.70" xmlns="http://www.w3.org/2000/svg" xmlns:xlink="http://www.w3.org/1999/xlink">
<g id="graph0" class="graph" transform="scale(1 1) rotate(0) translate(4 435.7)">
<title>oneDegreeRelationshipsDiagram</title>
<polygon fill="#ffffff" stroke="transparent" points="-4,4 -4,-435.7 446,-435.7 446,4 -4,4"/>
<text text-anchor="middle" x="72.4936" y="-7.3" font-family="Helvetica,sans-Serif" font-size="11.00" fill="#000000">Generated by SchemaSpy</text>
<!-- recorded_event -->
<g id="node1" class="node">
<title>recorded_event</title>
<g id="a_node1"><a xlink:href="../../tables/recorded_event.html" xlink:title="recorded_event" target="_top">
<polygon fill="#ffffff" stroke="transparent" points="200,-161.7 200,-427.7 434,-427.7 434,-161.7 200,-161.7"/>
<polygon fill="#f5f5f5" stroke="transparent" points="202,-402.7 202,-425.7 432,-425.7 432,-402.7 202,-402.7"/>
<polygon fill="none" stroke="#000000" points="202,-402.7 202,-425.7 432,-425.7 432,-402.7 202,-402.7"/>
<text text-anchor="start" x="207" y="-411.3" font-family="Helvetica,sans-Serif" font-weight="bold" font-size="11.00" fill="#000000">recorded_event</text>
<text text-anchor="start" x="397.0437" y="-410.8" font-family="Helvetica,sans-Serif" font-size="11.00" fill="#000000">[table]</text>
<polygon fill="none" stroke="#000000" points="202,-380.7 202,-402.7 338,-402.7 338,-380.7 202,-380.7"/>
<image xlink:href="../../images/primaryKeys.png" width="11px" height="12px" preserveAspectRatio="xMinYMin meet" x="207" y="-397.7"/>
<text text-anchor="start" x="222" y="-387.8" font-family="Helvetica,sans-Serif" font-size="11.00" fill="#000000">id</text>
<polygon fill="none" stroke="#000000" points="338,-380.7 338,-402.7 432,-402.7 432,-380.7 338,-380.7"/>
<text text-anchor="start" x="340.9758" y="-388.4" font-family="Helvetica,sans-Serif" font-size="11.00" fill="#000000">uuid[2147483647]</text>
<polygon fill="#ffffff" stroke="transparent" points="202,-358.7 202,-380.7 338,-380.7 338,-358.7 202,-358.7"/>
<polygon fill="none" stroke="#000000" points="202,-358.7 202,-380.7 338,-380.7 338,-358.7 202,-358.7"/>
<image xlink:href="../../images/foreignKeys.png" width="11px" height="12px" preserveAspectRatio="xMinYMin meet" x="207" y="-375.7"/>
<text text-anchor="start" x="222" y="-365.8" font-family="Helvetica,sans-Serif" font-size="11.00" fill="#000000">prison_code</text>
<polygon fill="none" stroke="#000000" points="338,-358.7 338,-380.7 432,-380.7 432,-358.7 338,-358.7"/>
<text text-anchor="start" x="341" y="-366.4" font-family="Helvetica,sans-Serif" font-size="11.00" fill="#000000">varchar[6]</text>
<polygon fill="#ffffff" stroke="transparent" points="202,-336.7 202,-358.7 338,-358.7 338,-336.7 202,-336.7"/>
<polygon fill="none" stroke="#000000" points="202,-336.7 202,-358.7 338,-358.7 338,-336.7 202,-336.7"/>
<text text-anchor="start" x="222" y="-343.8" font-family="Helvetica,sans-Serif" font-size="11.00" fill="#000000">person_identifier</text>
<polygon fill="none" stroke="#000000" points="338,-336.7 338,-358.7 432,-358.7 432,-336.7 338,-336.7"/>
<text text-anchor="start" x="341" y="-344.4" font-family="Helvetica,sans-Serif" font-size="11.00" fill="#000000">varchar[7]</text>
<polygon fill="#ffffff" stroke="transparent" points="202,-314.7 202,-336.7 338,-336.7 338,-314.7 202,-314.7"/>
<polygon fill="none" stroke="#000000" points="202,-314.7 202,-336.7 338,-336.7 338,-314.7 202,-314.7"/>
<text text-anchor="start" x="222" y="-321.8" font-family="Helvetica,sans-Serif" font-size="11.00" fill="#000000">staff_id</text>
<polygon fill="none" stroke="#000000" points="338,-314.7 338,-336.7 432,-336.7 432,-314.7 338,-314.7"/>
<text text-anchor="start" x="341" y="-322.4" font-family="Helvetica,sans-Serif" font-size="11.00" fill="#000000">int8[19]</text>
<polygon fill="none" stroke="#000000" points="202,-292.7 202,-314.7 338,-314.7 338,-292.7 202,-292.7"/>
<text text-anchor="start" x="222" y="-299.8" font-family="Helvetica,sans-Serif" font-size="11.00" fill="#000000">username</text>
<polygon fill="none" stroke="#000000" points="338,-292.7 338,-314.7 432,-314.7 432,-292.7 338,-292.7"/>
<text text-anchor="start" x="341" y="-300.4" font-family="Helvetica,sans-Serif" font-size="11.00" fill="#000000">varchar[64]</text>
<polygon fill="#ffffff" stroke="transparent" points="202,-270.7 202,-292.7 338,-292.7 338,-270.7 202,-270.7"/>
<polygon fill="none" stroke="#000000" points="202,-270.7 202,-292.7 338,-292.7 338,-270.7 202,-270.7"/>
<text text-anchor="start" x="222" y="-277.8" font-family="Helvetica,sans-Serif" font-size="11.00" fill="#000000">occurred_at</text>
<polygon fill="none" stroke="#000000" points="338,-270.7 338,-292.7 432,-292.7 432,-270.7 338,-270.7"/>
<text text-anchor="start" x="341" y="-278.4" font-family="Helvetica,sans-Serif" font-size="11.00" fill="#000000">timestamp[29,6]</text>
<polygon fill="none" stroke="#000000" points="202,-248.7 202,-270.7 338,-270.7 338,-248.7 202,-248.7"/>
<text text-anchor="start" x="222" y="-255.8" font-family="Helvetica,sans-Serif" font-size="11.00" fill="#000000">version</text>
<polygon fill="none" stroke="#000000" points="338,-248.7 338,-270.7 432,-270.7 432,-248.7 338,-248.7"/>
<text text-anchor="start" x="341" y="-256.4" font-family="Helvetica,sans-Serif" font-size="11.00" fill="#000000">int4[10]</text>
<polygon fill="#ffffff" stroke="transparent" points="202,-226.7 202,-248.7 338,-248.7 338,-226.7 202,-226.7"/>
<polygon fill="none" stroke="#000000" points="202,-226.7 202,-248.7 338,-248.7 338,-226.7 202,-226.7"/>
<text text-anchor="start" x="222" y="-233.8" font-family="Helvetica,sans-Serif" font-size="11.00" fill="#000000">created_at</text>
<polygon fill="none" stroke="#000000" points="338,-226.7 338,-248.7 432,-248.7 432,-226.7 338,-226.7"/>
<text text-anchor="start" x="341" y="-234.4" font-family="Helvetica,sans-Serif" font-size="11.00" fill="#000000">timestamp[29,6]</text>
<polygon fill="#ffffff" stroke="transparent" points="202,-204.7 202,-226.7 338,-226.7 338,-204.7 202,-204.7"/>
<polygon fill="none" stroke="#000000" points="202,-204.7 202,-226.7 338,-226.7 338,-204.7 202,-204.7"/>
<image xlink:href="../../images/foreignKeys.png" width="11px" height="12px" preserveAspectRatio="xMinYMin meet" x="207" y="-221.7"/>
<text text-anchor="start" x="222" y="-211.8" font-family="Helvetica,sans-Serif" font-size="11.00" fill="#000000">policy_code</text>
<polygon fill="none" stroke="#000000" points="338,-204.7 338,-226.7 432,-226.7 432,-204.7 338,-204.7"/>
<text text-anchor="start" x="341" y="-212.4" font-family="Helvetica,sans-Serif" font-size="11.00" fill="#000000">varchar[16]</text>
<polygon fill="#ffffff" stroke="transparent" points="202,-182.7 202,-204.7 338,-204.7 338,-182.7 202,-182.7"/>
<polygon fill="none" stroke="#000000" points="202,-182.7 202,-204.7 338,-204.7 338,-182.7 202,-182.7"/>
<image xlink:href="../../images/foreignKeys.png" width="11px" height="12px" preserveAspectRatio="xMinYMin meet" x="207" y="-199.7"/>
<text text-anchor="start" x="222" y="-189.8" font-family="Helvetica,sans-Serif" font-size="11.00" fill="#000000">type_id</text>
<polygon fill="none" stroke="#000000" points="338,-182.7 338,-204.7 432,-204.7 432,-182.7 338,-182.7"/>
<text text-anchor="start" x="341" y="-190.4" font-family="Helvetica,sans-Serif" font-size="11.00" fill="#000000">int8[19]</text>
<polygon fill="#ffffff" stroke="transparent" points="202,-163.7 202,-182.7 274,-182.7 274,-163.7 202,-163.7"/>
<polygon fill="none" stroke="#000000" points="202,-163.7 202,-182.7 274,-182.7 274,-163.7 202,-163.7"/>
<text text-anchor="start" x="205" y="-169.8" font-family="Helvetica,sans-Serif" font-size="11.00" fill="#000000">&lt; 2</text>
<polygon fill="#ffffff" stroke="transparent" points="274,-163.7 274,-182.7 338,-182.7 338,-163.7 274,-163.7"/>
<polygon fill="none" stroke="#000000" points="274,-163.7 274,-182.7 338,-182.7 338,-163.7 274,-163.7"/>
<text text-anchor="start" x="328.8862" y="-169.8" font-family="Helvetica,sans-Serif" font-size="11.00" fill="#000000"> &#160;</text>
<polygon fill="#ffffff" stroke="transparent" points="338,-163.7 338,-182.7 432,-182.7 432,-163.7 338,-163.7"/>
<polygon fill="none" stroke="#000000" points="338,-163.7 338,-182.7 432,-182.7 432,-163.7 338,-163.7"/>
<text text-anchor="start" x="413.4053" y="-169.8" font-family="Helvetica,sans-Serif" font-size="11.00" fill="#000000">0 &gt;</text>
<polygon fill="none" stroke="#000000" stroke-width="2" points="201,-162.7 201,-426.7 433,-426.7 433,-162.7 201,-162.7"/>
</a>
</g>
</g>
<!-- policy -->
<g id="node2" class="node">
<title>policy</title>
<g id="a_node2"><a xlink:href="../../tables/policy.html" xlink:title="policy" target="_top">
<polygon fill="#ffffff" stroke="transparent" points="31,-208.2 31,-291.2 128,-291.2 128,-208.2 31,-208.2"/>
<polygon fill="#f5f5f5" stroke="transparent" points="31.5,-267.7 31.5,-290.7 128.5,-290.7 128.5,-267.7 31.5,-267.7"/>
<polygon fill="none" stroke="#000000" points="31.5,-267.7 31.5,-290.7 128.5,-290.7 128.5,-267.7 31.5,-267.7"/>
<text text-anchor="start" x="36.5" y="-276.3" font-family="Helvetica,sans-Serif" font-weight="bold" font-size="11.00" fill="#000000">policy</text>
<text text-anchor="start" x="93.5437" y="-275.8" font-family="Helvetica,sans-Serif" font-size="11.00" fill="#000000">[table]</text>
<polygon fill="none" stroke="#000000" points="31.5,-245.7 31.5,-267.7 128.5,-267.7 128.5,-245.7 31.5,-245.7"/>
<image xlink:href="../../images/primaryKeys.png" width="11px" height="12px" preserveAspectRatio="xMinYMin meet" x="36.5" y="-262.7"/>
<text text-anchor="start" x="51.5" y="-252.8" font-family="Helvetica,sans-Serif" font-size="11.00" fill="#000000">code</text>
<polygon fill="none" stroke="#000000" points="31.5,-226.7 31.5,-245.7 128.5,-245.7 128.5,-226.7 31.5,-226.7"/>
<text text-anchor="start" x="34.5" y="-232.8" font-family="Helvetica,sans-Serif" font-size="11.00" fill="#000000">...</text>
<polygon fill="#ffffff" stroke="transparent" points="31.5,-207.7 31.5,-226.7 69.5,-226.7 69.5,-207.7 31.5,-207.7"/>
<polygon fill="none" stroke="#000000" points="31.5,-207.7 31.5,-226.7 69.5,-226.7 69.5,-207.7 31.5,-207.7"/>
<text text-anchor="start" x="34.5" y="-213.8" font-family="Helvetica,sans-Serif" font-size="11.00" fill="#000000"> &#160;</text>
<polygon fill="#ffffff" stroke="transparent" points="69.5,-207.7 69.5,-226.7 94.5,-226.7 94.5,-207.7 69.5,-207.7"/>
<polygon fill="none" stroke="#000000" points="69.5,-207.7 69.5,-226.7 94.5,-226.7 94.5,-207.7 69.5,-207.7"/>
<text text-anchor="start" x="85.3862" y="-213.8" font-family="Helvetica,sans-Serif" font-size="11.00" fill="#000000"> &#160;</text>
<polygon fill="#ffffff" stroke="transparent" points="94.5,-207.7 94.5,-226.7 128.5,-226.7 128.5,-207.7 94.5,-207.7"/>
<polygon fill="none" stroke="#000000" points="94.5,-207.7 94.5,-226.7 128.5,-226.7 128.5,-207.7 94.5,-207.7"/>
<text text-anchor="start" x="109.9053" y="-213.8" font-family="Helvetica,sans-Serif" font-size="11.00" fill="#000000">7 &gt;</text>
</a>
</g>
</g>
<!-- recorded_event&#45;&gt;policy -->
<g id="edge1" class="edge">
<title>recorded_event:w&#45;&gt;policy:e</title>
<path fill="none" stroke="#000000" d="M187.6489,-218.142C164.1307,-226.9685 160.353,-256.7 128.5,-256.7"/>
<polygon fill="#000000" stroke="#000000" points="194.1134,-217.042 202.6039,-219.249 198.0567,-216.371 202,-215.7 202,-215.7 202,-215.7 198.0567,-216.371 201.3961,-212.151 194.1134,-217.042 194.1134,-217.042"/>
<ellipse fill="none" stroke="#000000" cx="190.9587" cy="-217.5788" rx="3.2" ry="3.2"/>
</g>
<!-- reference_data -->
<g id="node3" class="node">
<title>reference_data</title>
<g id="a_node3"><a xlink:href="../../tables/reference_data.html" xlink:title="reference_data" target="_top">
<polygon fill="#ffffff" stroke="transparent" points="8,-38.2 8,-187.2 151,-187.2 151,-38.2 8,-38.2"/>
<polygon fill="#f5f5f5" stroke="transparent" points="8.5,-163.7 8.5,-186.7 151.5,-186.7 151.5,-163.7 8.5,-163.7"/>
<polygon fill="none" stroke="#000000" points="8.5,-163.7 8.5,-186.7 151.5,-186.7 151.5,-163.7 8.5,-163.7"/>
<text text-anchor="start" x="13.5" y="-172.3" font-family="Helvetica,sans-Serif" font-weight="bold" font-size="11.00" fill="#000000">reference_data</text>
<text text-anchor="start" x="116.5437" y="-171.8" font-family="Helvetica,sans-Serif" font-size="11.00" fill="#000000">[table]</text>
<polygon fill="none" stroke="#000000" points="8.5,-141.7 8.5,-163.7 151.5,-163.7 151.5,-141.7 8.5,-141.7"/>
<image xlink:href="../../images/primaryKeys.png" width="11px" height="12px" preserveAspectRatio="xMinYMin meet" x="13.5" y="-158.7"/>
<text text-anchor="start" x="28.5" y="-148.8" font-family="Helvetica,sans-Serif" font-size="11.00" fill="#000000">id</text>
<polygon fill="#ffffff" stroke="transparent" points="8.5,-119.7 8.5,-141.7 151.5,-141.7 151.5,-119.7 8.5,-119.7"/>
<polygon fill="none" stroke="#000000" points="8.5,-119.7 8.5,-141.7 151.5,-141.7 151.5,-119.7 8.5,-119.7"/>
<text text-anchor="start" x="28.5" y="-126.8" font-family="Helvetica,sans-Serif" font-size="11.00" fill="#000000">domain</text>
<polygon fill="#ffffff" stroke="transparent" points="8.5,-97.7 8.5,-119.7 151.5,-119.7 151.5,-97.7 8.5,-97.7"/>
<polygon fill="none" stroke="#000000" points="8.5,-97.7 8.5,-119.7 151.5,-119.7 151.5,-97.7 8.5,-97.7"/>
<text text-anchor="start" x="28.5" y="-104.8" font-family="Helvetica,sans-Serif" font-size="11.00" fill="#000000">code</text>
<polygon fill="#ffffff" stroke="transparent" points="8.5,-75.7 8.5,-97.7 151.5,-97.7 151.5,-75.7 8.5,-75.7"/>
<polygon fill="none" stroke="#000000" points="8.5,-75.7 8.5,-97.7 151.5,-97.7 151.5,-75.7 8.5,-75.7"/>
<text text-anchor="start" x="28.5" y="-82.8" font-family="Helvetica,sans-Serif" font-size="11.00" fill="#000000">sequence_number</text>
<polygon fill="none" stroke="#000000" points="8.5,-56.7 8.5,-75.7 151.5,-75.7 151.5,-56.7 8.5,-56.7"/>
<text text-anchor="start" x="11.5" y="-62.8" font-family="Helvetica,sans-Serif" font-size="11.00" fill="#000000">...</text>
<polygon fill="#ffffff" stroke="transparent" points="8.5,-37.7 8.5,-56.7 53.5,-56.7 53.5,-37.7 8.5,-37.7"/>
<polygon fill="none" stroke="#000000" points="8.5,-37.7 8.5,-56.7 53.5,-56.7 53.5,-37.7 8.5,-37.7"/>
<text text-anchor="start" x="11.5" y="-43.8" font-family="Helvetica,sans-Serif" font-size="11.00" fill="#000000"> &#160;</text>
<polygon fill="#ffffff" stroke="transparent" points="53.5,-37.7 53.5,-56.7 113.5,-56.7 113.5,-37.7 53.5,-37.7"/>
<polygon fill="none" stroke="#000000" points="53.5,-37.7 53.5,-56.7 113.5,-56.7 113.5,-37.7 53.5,-37.7"/>
<text text-anchor="start" x="71.9956" y="-43.8" font-family="Helvetica,sans-Serif" font-size="11.00" fill="#000000">60 rows</text>
<polygon fill="#ffffff" stroke="transparent" points="113.5,-37.7 113.5,-56.7 151.5,-56.7 151.5,-37.7 113.5,-37.7"/>
<polygon fill="none" stroke="#000000" points="113.5,-37.7 113.5,-56.7 151.5,-56.7 151.5,-37.7 113.5,-37.7"/>
<text text-anchor="start" x="132.9053" y="-43.8" font-family="Helvetica,sans-Serif" font-size="11.00" fill="#000000">5 &gt;</text>
</a>
</g>
</g>
<!-- recorded_event&#45;&gt;reference_data -->
<g id="edge2" class="edge">
<title>recorded_event:w&#45;&gt;reference_data:e</title>
<path fill="none" stroke="#000000" d="M188.2601,-189.3123C174.5688,-178.7354 174.5379,-152.7 151.5,-152.7"/>
<polygon fill="#000000" stroke="#000000" points="194.3792,-191.2663 200.9048,-197.1294 198.1896,-192.4832 202,-193.7 202,-193.7 202,-193.7 198.1896,-192.4832 203.0952,-190.2706 194.3792,-191.2663 194.3792,-191.2663"/>
<ellipse fill="none" stroke="#000000" cx="191.3308" cy="-190.2928" rx="3.2" ry="3.2"/>
</g>
</g>
</svg>
