<?xml version="1.0" encoding="UTF-8" standalone="no"?>
<!DOCTYPE svg PUBLIC "-//W3C//DTD SVG 1.1//EN"
 "http://www.w3.org/Graphics/SVG/1.1/DTD/svg11.dtd">
<!-- Generated by graphviz version 2.40.1 (20161225.0304)
 -->
<!-- Title: twoDegreesRelationshipsDiagram Pages: 1 -->
<svg width="455pt" height="655pt"
 viewBox="0.00 0.00 455.00 655.20" xmlns="http://www.w3.org/2000/svg" xmlns:xlink="http://www.w3.org/1999/xlink">
<g id="graph0" class="graph" transform="scale(1 1) rotate(0) translate(4 651.2)">
<title>twoDegreesRelationshipsDiagram</title>
<polygon fill="#ffffff" stroke="transparent" points="-4,4 -4,-651.2 451,-651.2 451,4 -4,4"/>
<text text-anchor="middle" x="72.4936" y="-7.3" font-family="Helvetica,sans-Serif" font-size="11.00" fill="#000000">Generated by SchemaSpy</text>
<!-- allocation -->
<g id="node1" class="node">
<title>allocation</title>
<g id="a_node1"><a xlink:href="../../tables/allocation.html" xlink:title="allocation" target="_top">
<polygon fill="#ffffff" stroke="transparent" points="267,-582.2 267,-643.2 372,-643.2 372,-582.2 267,-582.2"/>
<polygon fill="#f5f5f5" stroke="transparent" points="267.5,-619.7 267.5,-642.7 372.5,-642.7 372.5,-619.7 267.5,-619.7"/>
<polygon fill="none" stroke="#000000" points="267.5,-619.7 267.5,-642.7 372.5,-642.7 372.5,-619.7 267.5,-619.7"/>
<text text-anchor="start" x="272.5" y="-628.3" font-family="Helvetica,sans-Serif" font-weight="bold" font-size="11.00" fill="#000000">allocation</text>
<text text-anchor="start" x="338.0219" y="-627.8" font-family="Helvetica,sans-Serif" font-size="11.00" fill="#000000">[table]</text>
<polygon fill="none" stroke="#000000" points="267.5,-600.7 267.5,-619.7 372.5,-619.7 372.5,-600.7 267.5,-600.7"/>
<text text-anchor="start" x="270.5" y="-606.8" font-family="Helvetica,sans-Serif" font-size="11.00" fill="#000000">...</text>
<polygon fill="#ffffff" stroke="transparent" points="267.5,-581.7 267.5,-600.7 318.5,-600.7 318.5,-581.7 267.5,-581.7"/>
<polygon fill="none" stroke="#000000" points="267.5,-581.7 267.5,-600.7 318.5,-600.7 318.5,-581.7 267.5,-581.7"/>
<text text-anchor="start" x="270.5" y="-587.8" font-family="Helvetica,sans-Serif" font-size="11.00" fill="#000000">&lt; 3</text>
<polygon fill="#ffffff" stroke="transparent" points="318.5,-581.7 318.5,-600.7 345.5,-600.7 345.5,-581.7 318.5,-581.7"/>
<polygon fill="none" stroke="#000000" points="318.5,-581.7 318.5,-600.7 345.5,-600.7 345.5,-581.7 318.5,-581.7"/>
<text text-anchor="start" x="336.3862" y="-587.8" font-family="Helvetica,sans-Serif" font-size="11.00" fill="#000000"> &#160;</text>
<polygon fill="#ffffff" stroke="transparent" points="345.5,-581.7 345.5,-600.7 372.5,-600.7 372.5,-581.7 345.5,-581.7"/>
<polygon fill="none" stroke="#000000" points="345.5,-581.7 345.5,-600.7 372.5,-600.7 372.5,-581.7 345.5,-581.7"/>
<text text-anchor="start" x="363.3862" y="-587.8" font-family="Helvetica,sans-Serif" font-size="11.00" fill="#000000"> &#160;</text>
</a>
</g>
</g>
<!-- reference_data -->
<g id="node2" class="node">
<title>reference_data</title>
<g id="a_node2"><a xlink:href="../../tables/reference_data.html" xlink:title="reference_data" target="_top">
<polygon fill="#ffffff" stroke="transparent" points="8,-413.2 8,-562.2 151,-562.2 151,-413.2 8,-413.2"/>
<polygon fill="#f5f5f5" stroke="transparent" points="8.5,-538.7 8.5,-561.7 151.5,-561.7 151.5,-538.7 8.5,-538.7"/>
<polygon fill="none" stroke="#000000" points="8.5,-538.7 8.5,-561.7 151.5,-561.7 151.5,-538.7 8.5,-538.7"/>
<text text-anchor="start" x="13.5" y="-547.3" font-family="Helvetica,sans-Serif" font-weight="bold" font-size="11.00" fill="#000000">reference_data</text>
<text text-anchor="start" x="116.5437" y="-546.8" font-family="Helvetica,sans-Serif" font-size="11.00" fill="#000000">[table]</text>
<polygon fill="none" stroke="#000000" points="8.5,-516.7 8.5,-538.7 151.5,-538.7 151.5,-516.7 8.5,-516.7"/>
<image xlink:href="../../images/primaryKeys.png" width="11px" height="12px" preserveAspectRatio="xMinYMin meet" x="13.5" y="-533.7"/>
<text text-anchor="start" x="28.5" y="-523.8" font-family="Helvetica,sans-Serif" font-size="11.00" fill="#000000">id</text>
<polygon fill="#ffffff" stroke="transparent" points="8.5,-494.7 8.5,-516.7 151.5,-516.7 151.5,-494.7 8.5,-494.7"/>
<polygon fill="none" stroke="#000000" points="8.5,-494.7 8.5,-516.7 151.5,-516.7 151.5,-494.7 8.5,-494.7"/>
<text text-anchor="start" x="28.5" y="-501.8" font-family="Helvetica,sans-Serif" font-size="11.00" fill="#000000">domain</text>
<polygon fill="#ffffff" stroke="transparent" points="8.5,-472.7 8.5,-494.7 151.5,-494.7 151.5,-472.7 8.5,-472.7"/>
<polygon fill="none" stroke="#000000" points="8.5,-472.7 8.5,-494.7 151.5,-494.7 151.5,-472.7 8.5,-472.7"/>
<text text-anchor="start" x="28.5" y="-479.8" font-family="Helvetica,sans-Serif" font-size="11.00" fill="#000000">code</text>
<polygon fill="#ffffff" stroke="transparent" points="8.5,-450.7 8.5,-472.7 151.5,-472.7 151.5,-450.7 8.5,-450.7"/>
<polygon fill="none" stroke="#000000" points="8.5,-450.7 8.5,-472.7 151.5,-472.7 151.5,-450.7 8.5,-450.7"/>
<text text-anchor="start" x="28.5" y="-457.8" font-family="Helvetica,sans-Serif" font-size="11.00" fill="#000000">sequence_number</text>
<polygon fill="none" stroke="#000000" points="8.5,-431.7 8.5,-450.7 151.5,-450.7 151.5,-431.7 8.5,-431.7"/>
<text text-anchor="start" x="11.5" y="-437.8" font-family="Helvetica,sans-Serif" font-size="11.00" fill="#000000">...</text>
<polygon fill="#ffffff" stroke="transparent" points="8.5,-412.7 8.5,-431.7 53.5,-431.7 53.5,-412.7 8.5,-412.7"/>
<polygon fill="none" stroke="#000000" points="8.5,-412.7 8.5,-431.7 53.5,-431.7 53.5,-412.7 8.5,-412.7"/>
<text text-anchor="start" x="11.5" y="-418.8" font-family="Helvetica,sans-Serif" font-size="11.00" fill="#000000"> &#160;</text>
<polygon fill="#ffffff" stroke="transparent" points="53.5,-412.7 53.5,-431.7 113.5,-431.7 113.5,-412.7 53.5,-412.7"/>
<polygon fill="none" stroke="#000000" points="53.5,-412.7 53.5,-431.7 113.5,-431.7 113.5,-412.7 53.5,-412.7"/>
<text text-anchor="start" x="71.9956" y="-418.8" font-family="Helvetica,sans-Serif" font-size="11.00" fill="#000000">60 rows</text>
<polygon fill="#ffffff" stroke="transparent" points="113.5,-412.7 113.5,-431.7 151.5,-431.7 151.5,-412.7 113.5,-412.7"/>
<polygon fill="none" stroke="#000000" points="113.5,-412.7 113.5,-431.7 151.5,-431.7 151.5,-412.7 113.5,-412.7"/>
<text text-anchor="start" x="132.9053" y="-418.8" font-family="Helvetica,sans-Serif" font-size="11.00" fill="#000000">5 &gt;</text>
</a>
</g>
</g>
<!-- allocation&#45;&gt;reference_data -->
<g id="edge1" class="edge">
<title>allocation:w&#45;&gt;reference_data:e</title>
<path fill="none" stroke="#000000" d="M253.2652,-606.6188C227.2623,-599.2339 217.7676,-585.1485 192,-565.7 170.7858,-549.6882 178.0786,-521.7 151.5,-527.7"/>
<polygon fill="#000000" stroke="#000000" points="259.6811,-608.0075 266.7384,-613.2185 263.5905,-608.8537 267.5,-609.7 267.5,-609.7 267.5,-609.7 263.5905,-608.8537 268.2616,-606.1815 259.6811,-608.0075 259.6811,-608.0075"/>
<ellipse fill="none" stroke="#000000" cx="256.5535" cy="-607.3305" rx="3.2" ry="3.2"/>
</g>
<!-- allocation&#45;&gt;reference_data -->
<g id="edge2" class="edge">
<title>allocation:w&#45;&gt;reference_data:e</title>
<path fill="none" stroke="#000000" d="M252.9116,-611.3789C227.1757,-612.1057 217.6505,-598.0601 192,-578.7 170.7858,-562.6882 178.0786,-534.7 151.5,-527.7"/>
<polygon fill="#000000" stroke="#000000" points="259.5525,-610.6147 267.9116,-613.2764 263.5262,-610.1574 267.5,-609.7 267.5,-609.7 267.5,-609.7 263.5262,-610.1574 267.0884,-606.1236 259.5525,-610.6147 259.5525,-610.6147"/>
<ellipse fill="none" stroke="#000000" cx="256.3734" cy="-610.9806" rx="3.2" ry="3.2"/>
</g>
<!-- policy -->
<g id="node3" class="node">
<title>policy</title>
<g id="a_node3"><a xlink:href="../../tables/policy.html" xlink:title="policy" target="_top">
<polygon fill="#ffffff" stroke="transparent" points="31,-263.2 31,-346.2 128,-346.2 128,-263.2 31,-263.2"/>
<polygon fill="#f5f5f5" stroke="transparent" points="31.5,-322.7 31.5,-345.7 128.5,-345.7 128.5,-322.7 31.5,-322.7"/>
<polygon fill="none" stroke="#000000" points="31.5,-322.7 31.5,-345.7 128.5,-345.7 128.5,-322.7 31.5,-322.7"/>
<text text-anchor="start" x="36.5" y="-331.3" font-family="Helvetica,sans-Serif" font-weight="bold" font-size="11.00" fill="#000000">policy</text>
<text text-anchor="start" x="93.5437" y="-330.8" font-family="Helvetica,sans-Serif" font-size="11.00" fill="#000000">[table]</text>
<polygon fill="none" stroke="#000000" points="31.5,-300.7 31.5,-322.7 128.5,-322.7 128.5,-300.7 31.5,-300.7"/>
<image xlink:href="../../images/primaryKeys.png" width="11px" height="12px" preserveAspectRatio="xMinYMin meet" x="36.5" y="-317.7"/>
<text text-anchor="start" x="51.5" y="-307.8" font-family="Helvetica,sans-Serif" font-size="11.00" fill="#000000">code</text>
<polygon fill="none" stroke="#000000" points="31.5,-281.7 31.5,-300.7 128.5,-300.7 128.5,-281.7 31.5,-281.7"/>
<text text-anchor="start" x="34.5" y="-287.8" font-family="Helvetica,sans-Serif" font-size="11.00" fill="#000000">...</text>
<polygon fill="#ffffff" stroke="transparent" points="31.5,-262.7 31.5,-281.7 69.5,-281.7 69.5,-262.7 31.5,-262.7"/>
<polygon fill="none" stroke="#000000" points="31.5,-262.7 31.5,-281.7 69.5,-281.7 69.5,-262.7 31.5,-262.7"/>
<text text-anchor="start" x="34.5" y="-268.8" font-family="Helvetica,sans-Serif" font-size="11.00" fill="#000000"> &#160;</text>
<polygon fill="#ffffff" stroke="transparent" points="69.5,-262.7 69.5,-281.7 94.5,-281.7 94.5,-262.7 69.5,-262.7"/>
<polygon fill="none" stroke="#000000" points="69.5,-262.7 69.5,-281.7 94.5,-281.7 94.5,-262.7 69.5,-262.7"/>
<text text-anchor="start" x="85.3862" y="-268.8" font-family="Helvetica,sans-Serif" font-size="11.00" fill="#000000"> &#160;</text>
<polygon fill="#ffffff" stroke="transparent" points="94.5,-262.7 94.5,-281.7 128.5,-281.7 128.5,-262.7 94.5,-262.7"/>
<polygon fill="none" stroke="#000000" points="94.5,-262.7 94.5,-281.7 128.5,-281.7 128.5,-262.7 94.5,-262.7"/>
<text text-anchor="start" x="109.9053" y="-268.8" font-family="Helvetica,sans-Serif" font-size="11.00" fill="#000000">7 &gt;</text>
</a>
</g>
</g>
<!-- allocation&#45;&gt;policy -->
<g id="edge3" class="edge">
<title>allocation:w&#45;&gt;policy:e</title>
<path fill="none" stroke="#000000" d="M252.8936,-609.1832C225.5005,-606.9995 211.5033,-597.4262 192,-571.7 120.1377,-476.9087 247.452,-311.7 128.5,-311.7"/>
<polygon fill="#000000" stroke="#000000" points="259.505,-609.4171 267.3727,-613.2977 263.5025,-609.5585 267.5,-609.7 267.5,-609.7 267.5,-609.7 263.5025,-609.5585 267.6273,-606.1023 259.505,-609.4171 259.505,-609.4171"/>
<ellipse fill="none" stroke="#000000" cx="256.307" cy="-609.3039" rx="3.2" ry="3.2"/>
</g>
<!-- prison_configuration -->
<g id="node4" class="node">
<title>prison_configuration</title>
<g id="a_node4"><a xlink:href="../../tables/prison_configuration.html" xlink:title="prison_configuration" target="_top">
<polygon fill="#ffffff" stroke="transparent" points="230.5,-202.2 230.5,-263.2 408.5,-263.2 408.5,-202.2 230.5,-202.2"/>
<polygon fill="#f5f5f5" stroke="transparent" points="230.5,-239.7 230.5,-262.7 408.5,-262.7 408.5,-239.7 230.5,-239.7"/>
<polygon fill="none" stroke="#000000" points="230.5,-239.7 230.5,-262.7 408.5,-262.7 408.5,-239.7 230.5,-239.7"/>
<text text-anchor="start" x="235.5" y="-248.3" font-family="Helvetica,sans-Serif" font-weight="bold" font-size="11.00" fill="#000000">prison_configuration</text>
<text text-anchor="start" x="374.0219" y="-247.8" font-family="Helvetica,sans-Serif" font-size="11.00" fill="#000000">[table]</text>
<polygon fill="none" stroke="#000000" points="230.5,-220.7 230.5,-239.7 408.5,-239.7 408.5,-220.7 230.5,-220.7"/>
<text text-anchor="start" x="233.5" y="-226.8" font-family="Helvetica,sans-Serif" font-size="11.00" fill="#000000">...</text>
<polygon fill="#ffffff" stroke="transparent" points="230.5,-201.7 230.5,-220.7 301.5,-220.7 301.5,-201.7 230.5,-201.7"/>
<polygon fill="none" stroke="#000000" points="230.5,-201.7 230.5,-220.7 301.5,-220.7 301.5,-201.7 230.5,-201.7"/>
<text text-anchor="start" x="233.5" y="-207.8" font-family="Helvetica,sans-Serif" font-size="11.00" fill="#000000">&lt; 1</text>
<polygon fill="#ffffff" stroke="transparent" points="301.5,-201.7 301.5,-220.7 370.5,-220.7 370.5,-201.7 301.5,-201.7"/>
<polygon fill="none" stroke="#000000" points="301.5,-201.7 301.5,-220.7 370.5,-220.7 370.5,-201.7 301.5,-201.7"/>
<text text-anchor="start" x="328.9956" y="-207.8" font-family="Helvetica,sans-Serif" font-size="11.00" fill="#000000">12 rows</text>
<polygon fill="#ffffff" stroke="transparent" points="370.5,-201.7 370.5,-220.7 408.5,-220.7 408.5,-201.7 370.5,-201.7"/>
<polygon fill="none" stroke="#000000" points="370.5,-201.7 370.5,-220.7 408.5,-220.7 408.5,-201.7 370.5,-201.7"/>
<text text-anchor="start" x="399.3862" y="-207.8" font-family="Helvetica,sans-Serif" font-size="11.00" fill="#000000"> &#160;</text>
</a>
</g>
</g>
<!-- prison_configuration&#45;&gt;policy -->
<g id="edge4" class="edge">
<title>prison_configuration:w&#45;&gt;policy:e</title>
<path fill="none" stroke="#000000" d="M216.2022,-231.6461C174.3542,-244.0637 181.3267,-311.7 128.5,-311.7"/>
<polygon fill="#000000" stroke="#000000" points="222.5731,-230.779 230.9855,-233.2671 226.5365,-230.2395 230.5,-229.7 230.5,-229.7 230.5,-229.7 226.5365,-230.2395 230.0145,-226.1329 222.5731,-230.779 222.5731,-230.779"/>
<ellipse fill="none" stroke="#000000" cx="219.4023" cy="-231.2106" rx="3.2" ry="3.2"/>
</g>
<!-- prison_statistic -->
<g id="node5" class="node">
<title>prison_statistic</title>
<g id="a_node5"><a xlink:href="../../tables/prison_statistic.html" xlink:title="prison_statistic" target="_top">
<polygon fill="#ffffff" stroke="transparent" points="248.5,-120.2 248.5,-181.2 390.5,-181.2 390.5,-120.2 248.5,-120.2"/>
<polygon fill="#f5f5f5" stroke="transparent" points="248.5,-157.7 248.5,-180.7 390.5,-180.7 390.5,-157.7 248.5,-157.7"/>
<polygon fill="none" stroke="#000000" points="248.5,-157.7 248.5,-180.7 390.5,-180.7 390.5,-157.7 248.5,-157.7"/>
<text text-anchor="start" x="253.5" y="-166.3" font-family="Helvetica,sans-Serif" font-weight="bold" font-size="11.00" fill="#000000">prison_statistic</text>
<text text-anchor="start" x="356.0219" y="-165.8" font-family="Helvetica,sans-Serif" font-size="11.00" fill="#000000">[table]</text>
<polygon fill="none" stroke="#000000" points="248.5,-138.7 248.5,-157.7 390.5,-157.7 390.5,-138.7 248.5,-138.7"/>
<text text-anchor="start" x="251.5" y="-144.8" font-family="Helvetica,sans-Serif" font-size="11.00" fill="#000000">...</text>
<polygon fill="#ffffff" stroke="transparent" points="248.5,-119.7 248.5,-138.7 317.5,-138.7 317.5,-119.7 248.5,-119.7"/>
<polygon fill="none" stroke="#000000" points="248.5,-119.7 248.5,-138.7 317.5,-138.7 317.5,-119.7 248.5,-119.7"/>
<text text-anchor="start" x="251.5" y="-125.8" font-family="Helvetica,sans-Serif" font-size="11.00" fill="#000000">&lt; 1</text>
<polygon fill="#ffffff" stroke="transparent" points="317.5,-119.7 317.5,-138.7 353.5,-138.7 353.5,-119.7 317.5,-119.7"/>
<polygon fill="none" stroke="#000000" points="317.5,-119.7 317.5,-138.7 353.5,-138.7 353.5,-119.7 317.5,-119.7"/>
<text text-anchor="start" x="344.3862" y="-125.8" font-family="Helvetica,sans-Serif" font-size="11.00" fill="#000000"> &#160;</text>
<polygon fill="#ffffff" stroke="transparent" points="353.5,-119.7 353.5,-138.7 390.5,-138.7 390.5,-119.7 353.5,-119.7"/>
<polygon fill="none" stroke="#000000" points="353.5,-119.7 353.5,-138.7 390.5,-138.7 390.5,-119.7 353.5,-119.7"/>
<text text-anchor="start" x="381.3862" y="-125.8" font-family="Helvetica,sans-Serif" font-size="11.00" fill="#000000"> &#160;</text>
</a>
</g>
</g>
<!-- prison_statistic&#45;&gt;policy -->
<g id="edge5" class="edge">
<title>prison_statistic:w&#45;&gt;policy:e</title>
<path fill="none" stroke="#000000" d="M234.0371,-149.4376C214.6876,-154.7431 208.8579,-171.601 192,-191.7 153.2237,-237.9313 188.8402,-311.7 128.5,-311.7"/>
<polygon fill="#000000" stroke="#000000" points="240.5571,-148.6543 248.9294,-151.2743 244.5286,-148.1772 248.5,-147.7 248.5,-147.7 248.5,-147.7 244.5286,-148.1772 248.0706,-144.1257 240.5571,-148.6543 240.5571,-148.6543"/>
<ellipse fill="none" stroke="#000000" cx="237.38" cy="-149.036" rx="3.2" ry="3.2"/>
</g>
<!-- recorded_event -->
<g id="node6" class="node">
<title>recorded_event</title>
<g id="a_node6"><a xlink:href="../../tables/recorded_event.html" xlink:title="recorded_event" target="_top">
<polygon fill="#ffffff" stroke="transparent" points="247.5,-500.2 247.5,-561.2 391.5,-561.2 391.5,-500.2 247.5,-500.2"/>
<polygon fill="#f5f5f5" stroke="transparent" points="247.5,-537.7 247.5,-560.7 391.5,-560.7 391.5,-537.7 247.5,-537.7"/>
<polygon fill="none" stroke="#000000" points="247.5,-537.7 247.5,-560.7 391.5,-560.7 391.5,-537.7 247.5,-537.7"/>
<text text-anchor="start" x="252.5" y="-546.3" font-family="Helvetica,sans-Serif" font-weight="bold" font-size="11.00" fill="#000000">recorded_event</text>
<text text-anchor="start" x="357.0219" y="-545.8" font-family="Helvetica,sans-Serif" font-size="11.00" fill="#000000">[table]</text>
<polygon fill="none" stroke="#000000" points="247.5,-518.7 247.5,-537.7 391.5,-537.7 391.5,-518.7 247.5,-518.7"/>
<text text-anchor="start" x="250.5" y="-524.8" font-family="Helvetica,sans-Serif" font-size="11.00" fill="#000000">...</text>
<polygon fill="#ffffff" stroke="transparent" points="247.5,-499.7 247.5,-518.7 317.5,-518.7 317.5,-499.7 247.5,-499.7"/>
<polygon fill="none" stroke="#000000" points="247.5,-499.7 247.5,-518.7 317.5,-518.7 317.5,-499.7 247.5,-499.7"/>
<text text-anchor="start" x="250.5" y="-505.8" font-family="Helvetica,sans-Serif" font-size="11.00" fill="#000000">&lt; 2</text>
<polygon fill="#ffffff" stroke="transparent" points="317.5,-499.7 317.5,-518.7 354.5,-518.7 354.5,-499.7 317.5,-499.7"/>
<polygon fill="none" stroke="#000000" points="317.5,-499.7 317.5,-518.7 354.5,-518.7 354.5,-499.7 317.5,-499.7"/>
<text text-anchor="start" x="345.3862" y="-505.8" font-family="Helvetica,sans-Serif" font-size="11.00" fill="#000000"> &#160;</text>
<polygon fill="#ffffff" stroke="transparent" points="354.5,-499.7 354.5,-518.7 391.5,-518.7 391.5,-499.7 354.5,-499.7"/>
<polygon fill="none" stroke="#000000" points="354.5,-499.7 354.5,-518.7 391.5,-518.7 391.5,-499.7 354.5,-499.7"/>
<text text-anchor="start" x="382.3862" y="-505.8" font-family="Helvetica,sans-Serif" font-size="11.00" fill="#000000"> &#160;</text>
</a>
</g>
</g>
<!-- recorded_event&#45;&gt;reference_data -->
<g id="edge7" class="edge">
<title>recorded_event:w&#45;&gt;reference_data:e</title>
<path fill="none" stroke="#000000" d="M232.875,-527.7C201.6667,-527.7 188.8333,-527.7 151.5,-527.7"/>
<polygon fill="#000000" stroke="#000000" points="239.5,-527.7001 247.5,-531.3 243.5,-527.7 247.5,-527.7 247.5,-527.7 247.5,-527.7 243.5,-527.7 247.5,-524.1 239.5,-527.7001 239.5,-527.7001"/>
<ellipse fill="none" stroke="#000000" cx="236.3" cy="-527.7001" rx="3.2" ry="3.2"/>
</g>
<!-- recorded_event&#45;&gt;policy -->
<g id="edge6" class="edge">
<title>recorded_event:w&#45;&gt;policy:e</title>
<path fill="none" stroke="#000000" d="M233.1067,-526.2826C214.5366,-522.1263 206.8971,-509.0321 192,-489.7 140.7311,-423.1676 212.4944,-311.7 128.5,-311.7"/>
<polygon fill="#000000" stroke="#000000" points="239.5385,-526.9159 247.1472,-531.2827 243.5193,-527.308 247.5,-527.7 247.5,-527.7 247.5,-527.7 243.5193,-527.308 247.8528,-524.1173 239.5385,-526.9159 239.5385,-526.9159"/>
<ellipse fill="none" stroke="#000000" cx="236.3539" cy="-526.6023" rx="3.2" ry="3.2"/>
</g>
<!-- recorded_event_audit -->
<g id="node7" class="node">
<title>recorded_event_audit</title>
<g id="a_node7"><a xlink:href="../../tables/recorded_event_audit.html" xlink:title="recorded_event_audit" target="_top">
<polygon fill="#ffffff" stroke="transparent" points="227,-38.2 227,-99.2 412,-99.2 412,-38.2 227,-38.2"/>
<polygon fill="#f5f5f5" stroke="transparent" points="227.5,-75.7 227.5,-98.7 412.5,-98.7 412.5,-75.7 227.5,-75.7"/>
<polygon fill="none" stroke="#000000" points="227.5,-75.7 227.5,-98.7 412.5,-98.7 412.5,-75.7 227.5,-75.7"/>
<text text-anchor="start" x="232.5" y="-84.3" font-family="Helvetica,sans-Serif" font-weight="bold" font-size="11.00" fill="#000000">recorded_event_audit</text>
<text text-anchor="start" x="378.0219" y="-83.8" font-family="Helvetica,sans-Serif" font-size="11.00" fill="#000000">[table]</text>
<polygon fill="none" stroke="#000000" points="227.5,-56.7 227.5,-75.7 412.5,-75.7 412.5,-56.7 227.5,-56.7"/>
<text text-anchor="start" x="230.5" y="-62.8" font-family="Helvetica,sans-Serif" font-size="11.00" fill="#000000">...</text>
<polygon fill="#ffffff" stroke="transparent" points="227.5,-37.7 227.5,-56.7 318.5,-56.7 318.5,-37.7 227.5,-37.7"/>
<polygon fill="none" stroke="#000000" points="227.5,-37.7 227.5,-56.7 318.5,-56.7 318.5,-37.7 227.5,-37.7"/>
<text text-anchor="start" x="230.5" y="-43.8" font-family="Helvetica,sans-Serif" font-size="11.00" fill="#000000">&lt; 2</text>
<polygon fill="#ffffff" stroke="transparent" points="318.5,-37.7 318.5,-56.7 365.5,-56.7 365.5,-37.7 318.5,-37.7"/>
<polygon fill="none" stroke="#000000" points="318.5,-37.7 318.5,-56.7 365.5,-56.7 365.5,-37.7 318.5,-37.7"/>
<text text-anchor="start" x="356.3862" y="-43.8" font-family="Helvetica,sans-Serif" font-size="11.00" fill="#000000"> &#160;</text>
<polygon fill="#ffffff" stroke="transparent" points="365.5,-37.7 365.5,-56.7 412.5,-56.7 412.5,-37.7 365.5,-37.7"/>
<polygon fill="none" stroke="#000000" points="365.5,-37.7 365.5,-56.7 412.5,-56.7 412.5,-37.7 365.5,-37.7"/>
<text text-anchor="start" x="403.3862" y="-43.8" font-family="Helvetica,sans-Serif" font-size="11.00" fill="#000000"> &#160;</text>
</a>
</g>
</g>
<!-- recorded_event_audit&#45;&gt;policy -->
<g id="edge8" class="edge">
<title>recorded_event_audit:w&#45;&gt;policy:e</title>
<path fill="none" stroke="#000000" d="M213.1122,-67.1447C121.4139,-87.3051 241.0606,-311.7 128.5,-311.7"/>
<polygon fill="#000000" stroke="#000000" points="219.54,-66.4993 227.8597,-69.282 223.52,-66.0997 227.5,-65.7 227.5,-65.7 227.5,-65.7 223.52,-66.0997 227.1403,-62.118 219.54,-66.4993 219.54,-66.4993"/>
<ellipse fill="none" stroke="#000000" cx="216.356" cy="-66.819" rx="3.2" ry="3.2"/>
</g>
<!-- reference_data_policy -->
<g id="node8" class="node">
<title>reference_data_policy</title>
<g id="a_node8"><a xlink:href="../../tables/reference_data_policy.html" xlink:title="reference_data_policy" target="_top">
<polygon fill="#ffffff" stroke="transparent" points="200,-366.7 200,-478.7 439,-478.7 439,-366.7 200,-366.7"/>
<polygon fill="#f5f5f5" stroke="transparent" points="202.5,-453.7 202.5,-476.7 437.5,-476.7 437.5,-453.7 202.5,-453.7"/>
<polygon fill="none" stroke="#000000" points="202.5,-453.7 202.5,-476.7 437.5,-476.7 437.5,-453.7 202.5,-453.7"/>
<text text-anchor="start" x="207.5" y="-462.3" font-family="Helvetica,sans-Serif" font-weight="bold" font-size="11.00" fill="#000000">reference_data_policy</text>
<text text-anchor="start" x="402.5437" y="-461.8" font-family="Helvetica,sans-Serif" font-size="11.00" fill="#000000">[table]</text>
<polygon fill="#ffffff" stroke="transparent" points="202.5,-431.7 202.5,-453.7 370.5,-453.7 370.5,-431.7 202.5,-431.7"/>
<polygon fill="none" stroke="#000000" points="202.5,-431.7 202.5,-453.7 370.5,-453.7 370.5,-431.7 202.5,-431.7"/>
<image xlink:href="../../images/foreignKeys.png" width="11px" height="12px" preserveAspectRatio="xMinYMin meet" x="207.5" y="-448.7"/>
<text text-anchor="start" x="222.5" y="-438.8" font-family="Helvetica,sans-Serif" font-size="11.00" fill="#000000">id</text>
<polygon fill="none" stroke="#000000" points="370.5,-431.7 370.5,-453.7 437.5,-453.7 437.5,-431.7 370.5,-431.7"/>
<text text-anchor="start" x="373.5" y="-439.4" font-family="Helvetica,sans-Serif" font-size="11.00" fill="#000000">int8[19]</text>
<polygon fill="#ffffff" stroke="transparent" points="202.5,-409.7 202.5,-431.7 370.5,-431.7 370.5,-409.7 202.5,-409.7"/>
<polygon fill="none" stroke="#000000" points="202.5,-409.7 202.5,-431.7 370.5,-431.7 370.5,-409.7 202.5,-409.7"/>
<image xlink:href="../../images/foreignKeys.png" width="11px" height="12px" preserveAspectRatio="xMinYMin meet" x="207.5" y="-426.7"/>
<text text-anchor="start" x="222.5" y="-416.8" font-family="Helvetica,sans-Serif" font-size="11.00" fill="#000000">policy_code</text>
<polygon fill="none" stroke="#000000" points="370.5,-409.7 370.5,-431.7 437.5,-431.7 437.5,-409.7 370.5,-409.7"/>
<text text-anchor="start" x="373.5" y="-417.4" font-family="Helvetica,sans-Serif" font-size="11.00" fill="#000000">varchar[16]</text>
<polygon fill="none" stroke="#000000" points="202.5,-387.7 202.5,-409.7 370.5,-409.7 370.5,-387.7 202.5,-387.7"/>
<text text-anchor="start" x="222.5" y="-394.8" font-family="Helvetica,sans-Serif" font-size="11.00" fill="#000000">description_override</text>
<polygon fill="none" stroke="#000000" points="370.5,-387.7 370.5,-409.7 437.5,-409.7 437.5,-387.7 370.5,-387.7"/>
<text text-anchor="start" x="373.4365" y="-395.4" font-family="Helvetica,sans-Serif" font-size="11.00" fill="#000000">varchar[128]</text>
<polygon fill="#ffffff" stroke="transparent" points="202.5,-368.7 202.5,-387.7 274.5,-387.7 274.5,-368.7 202.5,-368.7"/>
<polygon fill="none" stroke="#000000" points="202.5,-368.7 202.5,-387.7 274.5,-387.7 274.5,-368.7 202.5,-368.7"/>
<text text-anchor="start" x="205.5" y="-374.8" font-family="Helvetica,sans-Serif" font-size="11.00" fill="#000000">&lt; 2</text>
<polygon fill="#ffffff" stroke="transparent" points="274.5,-368.7 274.5,-387.7 370.5,-387.7 370.5,-368.7 274.5,-368.7"/>
<polygon fill="none" stroke="#000000" points="274.5,-368.7 274.5,-387.7 370.5,-387.7 370.5,-368.7 274.5,-368.7"/>
<text text-anchor="start" x="328.9956" y="-374.8" font-family="Helvetica,sans-Serif" font-size="11.00" fill="#000000">84 rows</text>
<polygon fill="#ffffff" stroke="transparent" points="370.5,-368.7 370.5,-387.7 437.5,-387.7 437.5,-368.7 370.5,-368.7"/>
<polygon fill="none" stroke="#000000" points="370.5,-368.7 370.5,-387.7 437.5,-387.7 437.5,-368.7 370.5,-368.7"/>
<text text-anchor="start" x="418.9053" y="-374.8" font-family="Helvetica,sans-Serif" font-size="11.00" fill="#000000">0 &gt;</text>
<polygon fill="none" stroke="#000000" stroke-width="2" points="201,-367.7 201,-477.7 438,-477.7 438,-367.7 201,-367.7"/>
</a>
</g>
</g>
<!-- reference_data_policy&#45;&gt;reference_data -->
<g id="edge9" class="edge">
<title>reference_data_policy:w&#45;&gt;reference_data:e</title>
<path fill="none" stroke="#000000" d="M188.5669,-447.032C167.0746,-464.3534 189.5328,-527.7 151.5,-527.7"/>
<polygon fill="#000000" stroke="#000000" points="194.8607,-445.0752 203.5688,-446.1377 198.6804,-443.8876 202.5,-442.7 202.5,-442.7 202.5,-442.7 198.6804,-443.8876 201.4312,-439.2623 194.8607,-445.0752 194.8607,-445.0752"/>
<ellipse fill="none" stroke="#000000" cx="191.805" cy="-446.0253" rx="3.2" ry="3.2"/>
</g>
<!-- reference_data_policy&#45;&gt;policy -->
<g id="edge10" class="edge">
<title>reference_data_policy:w&#45;&gt;policy:e</title>
<path fill="none" stroke="#000000" d="M188.0648,-417.7845C151.3962,-400.4504 181.3356,-311.7 128.5,-311.7"/>
<polygon fill="#000000" stroke="#000000" points="194.6583,-419.1162 201.7873,-424.2287 198.5792,-419.9081 202.5,-420.7 202.5,-420.7 202.5,-420.7 198.5792,-419.9081 203.2127,-417.1713 194.6583,-419.1162 194.6583,-419.1162"/>
<ellipse fill="none" stroke="#000000" cx="191.5217" cy="-418.4826" rx="3.2" ry="3.2"/>
</g>
<!-- staff_configuration -->
<g id="node9" class="node">
<title>staff_configuration</title>
<g id="a_node9"><a xlink:href="../../tables/staff_configuration.html" xlink:title="staff_configuration" target="_top">
<polygon fill="#ffffff" stroke="transparent" points="236,-284.2 236,-345.2 403,-345.2 403,-284.2 236,-284.2"/>
<polygon fill="#f5f5f5" stroke="transparent" points="236.5,-321.7 236.5,-344.7 403.5,-344.7 403.5,-321.7 236.5,-321.7"/>
<polygon fill="none" stroke="#000000" points="236.5,-321.7 236.5,-344.7 403.5,-344.7 403.5,-321.7 236.5,-321.7"/>
<text text-anchor="start" x="241.5" y="-330.3" font-family="Helvetica,sans-Serif" font-weight="bold" font-size="11.00" fill="#000000">staff_configuration</text>
<text text-anchor="start" x="369.0219" y="-329.8" font-family="Helvetica,sans-Serif" font-size="11.00" fill="#000000">[table]</text>
<polygon fill="none" stroke="#000000" points="236.5,-302.7 236.5,-321.7 403.5,-321.7 403.5,-302.7 236.5,-302.7"/>
<text text-anchor="start" x="239.5" y="-308.8" font-family="Helvetica,sans-Serif" font-size="11.00" fill="#000000">...</text>
<polygon fill="#ffffff" stroke="transparent" points="236.5,-283.7 236.5,-302.7 318.5,-302.7 318.5,-283.7 236.5,-283.7"/>
<polygon fill="none" stroke="#000000" points="236.5,-283.7 236.5,-302.7 318.5,-302.7 318.5,-283.7 236.5,-283.7"/>
<text text-anchor="start" x="239.5" y="-289.8" font-family="Helvetica,sans-Serif" font-size="11.00" fill="#000000">&lt; 2</text>
<polygon fill="#ffffff" stroke="transparent" points="318.5,-283.7 318.5,-302.7 360.5,-302.7 360.5,-283.7 318.5,-283.7"/>
<polygon fill="none" stroke="#000000" points="318.5,-283.7 318.5,-302.7 360.5,-302.7 360.5,-283.7 318.5,-283.7"/>
<text text-anchor="start" x="351.3862" y="-289.8" font-family="Helvetica,sans-Serif" font-size="11.00" fill="#000000"> &#160;</text>
<polygon fill="#ffffff" stroke="transparent" points="360.5,-283.7 360.5,-302.7 403.5,-302.7 403.5,-283.7 360.5,-283.7"/>
<polygon fill="none" stroke="#000000" points="360.5,-283.7 360.5,-302.7 403.5,-302.7 403.5,-283.7 360.5,-283.7"/>
<text text-anchor="start" x="394.3862" y="-289.8" font-family="Helvetica,sans-Serif" font-size="11.00" fill="#000000"> &#160;</text>
</a>
</g>
</g>
<!-- staff_configuration&#45;&gt;reference_data -->
<g id="edge12" class="edge">
<title>staff_configuration:w&#45;&gt;reference_data:e</title>
<path fill="none" stroke="#000000" d="M221.8699,-314.1923C206.9186,-320.2295 202.7358,-336.5587 192,-355.7 153.5822,-424.1969 230.035,-527.7 151.5,-527.7"/>
<polygon fill="#000000" stroke="#000000" points="228.6136,-313.0435 237.1046,-315.2489 232.5568,-312.3718 236.5,-311.7 236.5,-311.7 236.5,-311.7 232.5568,-312.3718 235.8954,-308.1511 228.6136,-313.0435 228.6136,-313.0435"/>
<ellipse fill="none" stroke="#000000" cx="225.4591" cy="-313.5809" rx="3.2" ry="3.2"/>
</g>
<!-- staff_configuration&#45;&gt;policy -->
<g id="edge11" class="edge">
<title>staff_configuration:w&#45;&gt;policy:e</title>
<path fill="none" stroke="#000000" d="M221.9478,-311.7C185.4443,-311.7 171.25,-311.7 128.5,-311.7"/>
<polygon fill="#000000" stroke="#000000" points="228.5,-311.7001 236.5,-315.3 232.5,-311.7 236.5,-311.7 236.5,-311.7 236.5,-311.7 232.5,-311.7 236.5,-308.1 228.5,-311.7001 228.5,-311.7001"/>
<ellipse fill="none" stroke="#000000" cx="225.3" cy="-311.7001" rx="3.2" ry="3.2"/>
</g>
</g>
</svg>
