<?xml version="1.0" encoding="UTF-8" standalone="no"?>
<!DOCTYPE svg PUBLIC "-//W3C//DTD SVG 1.1//EN"
 "http://www.w3.org/Graphics/SVG/1.1/DTD/svg11.dtd">
<!-- Generated by graphviz version 2.40.1 (20161225.0304)
 -->
<!-- Title: oneDegreeRelationshipsDiagramImplied Pages: 1 -->
<svg width="603pt" height="693pt"
 viewBox="0.00 0.00 603.00 693.20" xmlns="http://www.w3.org/2000/svg" xmlns:xlink="http://www.w3.org/1999/xlink">
<g id="graph0" class="graph" transform="scale(1 1) rotate(0) translate(4 689.2)">
<title>oneDegreeRelationshipsDiagramImplied</title>
<polygon fill="#ffffff" stroke="transparent" points="-4,4 -4,-689.2 599,-689.2 599,4 -4,4"/>
<text text-anchor="middle" x="72.4936" y="-7.3" font-family="Helvetica,sans-Serif" font-size="11.00" fill="#000000">Generated by SchemaSpy</text>
<!-- allocation -->
<g id="node1" class="node">
<title>allocation</title>
<g id="a_node1"><a xlink:href="../../tables/allocation.html" xlink:title="allocation" target="_top">
<polygon fill="#ffffff" stroke="transparent" points="342,-444.2 342,-681.2 516,-681.2 516,-444.2 342,-444.2"/>
<polygon fill="#f5f5f5" stroke="transparent" points="342,-657.7 342,-680.7 516,-680.7 516,-657.7 342,-657.7"/>
<polygon fill="none" stroke="#000000" points="342,-657.7 342,-680.7 516,-680.7 516,-657.7 342,-657.7"/>
<text text-anchor="start" x="347" y="-666.3" font-family="Helvetica,sans-Serif" font-weight="bold" font-size="11.00" fill="#000000">allocation</text>
<text text-anchor="start" x="481.0437" y="-665.8" font-family="Helvetica,sans-Serif" font-size="11.00" fill="#000000">[table]</text>
<polygon fill="none" stroke="#000000" points="342,-635.7 342,-657.7 516,-657.7 516,-635.7 342,-635.7"/>
<image xlink:href="../../images/primaryKeys.png" width="11px" height="12px" preserveAspectRatio="xMinYMin meet" x="347" y="-652.7"/>
<text text-anchor="start" x="362" y="-642.8" font-family="Helvetica,sans-Serif" font-size="11.00" fill="#000000">id</text>
<polygon fill="#ffffff" stroke="transparent" points="342,-613.7 342,-635.7 516,-635.7 516,-613.7 342,-613.7"/>
<polygon fill="none" stroke="#000000" points="342,-613.7 342,-635.7 516,-635.7 516,-613.7 342,-613.7"/>
<image xlink:href="../../images/foreignKeys.png" width="11px" height="12px" preserveAspectRatio="xMinYMin meet" x="347" y="-630.7"/>
<text text-anchor="start" x="362" y="-620.8" font-family="Helvetica,sans-Serif" font-size="11.00" fill="#000000">prison_code</text>
<polygon fill="#ffffff" stroke="transparent" points="342,-591.7 342,-613.7 516,-613.7 516,-591.7 342,-591.7"/>
<polygon fill="none" stroke="#000000" points="342,-591.7 342,-613.7 516,-613.7 516,-591.7 342,-591.7"/>
<text text-anchor="start" x="362" y="-598.8" font-family="Helvetica,sans-Serif" font-size="11.00" fill="#000000">staff_id</text>
<polygon fill="#ffffff" stroke="transparent" points="342,-569.7 342,-591.7 516,-591.7 516,-569.7 342,-569.7"/>
<polygon fill="none" stroke="#000000" points="342,-569.7 342,-591.7 516,-591.7 516,-569.7 342,-569.7"/>
<text text-anchor="start" x="362" y="-576.8" font-family="Helvetica,sans-Serif" font-size="11.00" fill="#000000">person_identifier</text>
<polygon fill="#ffffff" stroke="transparent" points="342,-547.7 342,-569.7 516,-569.7 516,-547.7 342,-547.7"/>
<polygon fill="none" stroke="#000000" points="342,-547.7 342,-569.7 516,-569.7 516,-547.7 342,-547.7"/>
<text text-anchor="start" x="362" y="-554.8" font-family="Helvetica,sans-Serif" font-size="11.00" fill="#000000">allocated_at</text>
<polygon fill="none" stroke="#000000" points="342,-525.7 342,-547.7 516,-547.7 516,-525.7 342,-525.7"/>
<image xlink:href="../../images/foreignKeys.png" width="11px" height="12px" preserveAspectRatio="xMinYMin meet" x="347" y="-542.7"/>
<text text-anchor="start" x="362" y="-532.8" font-family="Helvetica,sans-Serif" font-size="11.00" fill="#000000">allocation_reason_id</text>
<polygon fill="none" stroke="#000000" points="342,-503.7 342,-525.7 516,-525.7 516,-503.7 342,-503.7"/>
<image xlink:href="../../images/foreignKeys.png" width="11px" height="12px" preserveAspectRatio="xMinYMin meet" x="347" y="-520.7"/>
<text text-anchor="start" x="362" y="-510.8" font-family="Helvetica,sans-Serif" font-size="11.00" fill="#000000">deallocation_reason_id</text>
<polygon fill="#ffffff" stroke="transparent" points="342,-481.7 342,-503.7 516,-503.7 516,-481.7 342,-481.7"/>
<polygon fill="none" stroke="#000000" points="342,-481.7 342,-503.7 516,-503.7 516,-481.7 342,-481.7"/>
<image xlink:href="../../images/foreignKeys.png" width="11px" height="12px" preserveAspectRatio="xMinYMin meet" x="347" y="-498.7"/>
<text text-anchor="start" x="362" y="-488.8" font-family="Helvetica,sans-Serif" font-size="11.00" fill="#000000">policy_code</text>
<polygon fill="none" stroke="#000000" points="342,-462.7 342,-481.7 516,-481.7 516,-462.7 342,-462.7"/>
<text text-anchor="start" x="345" y="-468.8" font-family="Helvetica,sans-Serif" font-size="11.00" fill="#000000">...</text>
<polygon fill="#ffffff" stroke="transparent" points="342,-443.7 342,-462.7 427,-462.7 427,-443.7 342,-443.7"/>
<polygon fill="none" stroke="#000000" points="342,-443.7 342,-462.7 427,-462.7 427,-443.7 342,-443.7"/>
<text text-anchor="start" x="345" y="-449.8" font-family="Helvetica,sans-Serif" font-size="11.00" fill="#000000">&lt; 3</text>
<polygon fill="#ffffff" stroke="transparent" points="427,-443.7 427,-462.7 471,-462.7 471,-443.7 427,-443.7"/>
<polygon fill="none" stroke="#000000" points="427,-443.7 427,-462.7 471,-462.7 471,-443.7 427,-443.7"/>
<text text-anchor="start" x="461.8862" y="-449.8" font-family="Helvetica,sans-Serif" font-size="11.00" fill="#000000"> &#160;</text>
<polygon fill="#ffffff" stroke="transparent" points="471,-443.7 471,-462.7 516,-462.7 516,-443.7 471,-443.7"/>
<polygon fill="none" stroke="#000000" points="471,-443.7 471,-462.7 516,-462.7 516,-443.7 471,-443.7"/>
<text text-anchor="start" x="506.8862" y="-449.8" font-family="Helvetica,sans-Serif" font-size="11.00" fill="#000000"> &#160;</text>
</a>
</g>
</g>
<!-- reference_data -->
<g id="node2" class="node">
<title>reference_data</title>
<g id="a_node2"><a xlink:href="../../tables/reference_data.html" xlink:title="reference_data" target="_top">
<polygon fill="#ffffff" stroke="transparent" points="8,-246.7 8,-402.7 222,-402.7 222,-246.7 8,-246.7"/>
<polygon fill="#f5f5f5" stroke="transparent" points="10,-377.7 10,-400.7 220,-400.7 220,-377.7 10,-377.7"/>
<polygon fill="none" stroke="#000000" points="10,-377.7 10,-400.7 220,-400.7 220,-377.7 10,-377.7"/>
<text text-anchor="start" x="15" y="-386.3" font-family="Helvetica,sans-Serif" font-weight="bold" font-size="11.00" fill="#000000">reference_data</text>
<text text-anchor="start" x="185.0437" y="-385.8" font-family="Helvetica,sans-Serif" font-size="11.00" fill="#000000">[table]</text>
<polygon fill="none" stroke="#000000" points="10,-355.7 10,-377.7 153,-377.7 153,-355.7 10,-355.7"/>
<image xlink:href="../../images/primaryKeys.png" width="11px" height="12px" preserveAspectRatio="xMinYMin meet" x="15" y="-372.7"/>
<text text-anchor="start" x="30" y="-362.8" font-family="Helvetica,sans-Serif" font-size="11.00" fill="#000000">id</text>
<polygon fill="none" stroke="#000000" points="153,-355.7 153,-377.7 220,-377.7 220,-355.7 153,-355.7"/>
<text text-anchor="start" x="156" y="-363.4" font-family="Helvetica,sans-Serif" font-size="11.00" fill="#000000">bigserial[19]</text>
<polygon fill="#ffffff" stroke="transparent" points="10,-333.7 10,-355.7 153,-355.7 153,-333.7 10,-333.7"/>
<polygon fill="none" stroke="#000000" points="10,-333.7 10,-355.7 153,-355.7 153,-333.7 10,-333.7"/>
<text text-anchor="start" x="30" y="-340.8" font-family="Helvetica,sans-Serif" font-size="11.00" fill="#000000">domain</text>
<polygon fill="none" stroke="#000000" points="153,-333.7 153,-355.7 220,-355.7 220,-333.7 153,-333.7"/>
<text text-anchor="start" x="156" y="-341.4" font-family="Helvetica,sans-Serif" font-size="11.00" fill="#000000">varchar[32]</text>
<polygon fill="#ffffff" stroke="transparent" points="10,-311.7 10,-333.7 153,-333.7 153,-311.7 10,-311.7"/>
<polygon fill="none" stroke="#000000" points="10,-311.7 10,-333.7 153,-333.7 153,-311.7 10,-311.7"/>
<text text-anchor="start" x="30" y="-318.8" font-family="Helvetica,sans-Serif" font-size="11.00" fill="#000000">code</text>
<polygon fill="none" stroke="#000000" points="153,-311.7 153,-333.7 220,-333.7 220,-311.7 153,-311.7"/>
<text text-anchor="start" x="156" y="-319.4" font-family="Helvetica,sans-Serif" font-size="11.00" fill="#000000">varchar[32]</text>
<polygon fill="none" stroke="#000000" points="10,-289.7 10,-311.7 153,-311.7 153,-289.7 10,-289.7"/>
<text text-anchor="start" x="30" y="-296.8" font-family="Helvetica,sans-Serif" font-size="11.00" fill="#000000">description</text>
<polygon fill="none" stroke="#000000" points="153,-289.7 153,-311.7 220,-311.7 220,-289.7 153,-289.7"/>
<text text-anchor="start" x="155.9365" y="-297.4" font-family="Helvetica,sans-Serif" font-size="11.00" fill="#000000">varchar[128]</text>
<polygon fill="#ffffff" stroke="transparent" points="10,-267.7 10,-289.7 153,-289.7 153,-267.7 10,-267.7"/>
<polygon fill="none" stroke="#000000" points="10,-267.7 10,-289.7 153,-289.7 153,-267.7 10,-267.7"/>
<text text-anchor="start" x="30" y="-274.8" font-family="Helvetica,sans-Serif" font-size="11.00" fill="#000000">sequence_number</text>
<polygon fill="none" stroke="#000000" points="153,-267.7 153,-289.7 220,-289.7 220,-267.7 153,-267.7"/>
<text text-anchor="start" x="156" y="-275.4" font-family="Helvetica,sans-Serif" font-size="11.00" fill="#000000">int4[10]</text>
<polygon fill="#ffffff" stroke="transparent" points="10,-248.7 10,-267.7 70,-267.7 70,-248.7 10,-248.7"/>
<polygon fill="none" stroke="#000000" points="10,-248.7 10,-267.7 70,-267.7 70,-248.7 10,-248.7"/>
<text text-anchor="start" x="13" y="-254.8" font-family="Helvetica,sans-Serif" font-size="11.00" fill="#000000">&lt; 0</text>
<polygon fill="#ffffff" stroke="transparent" points="70,-248.7 70,-267.7 153,-267.7 153,-248.7 70,-248.7"/>
<polygon fill="none" stroke="#000000" points="70,-248.7 70,-267.7 153,-267.7 153,-248.7 70,-248.7"/>
<text text-anchor="start" x="111.4956" y="-254.8" font-family="Helvetica,sans-Serif" font-size="11.00" fill="#000000">55 rows</text>
<polygon fill="#ffffff" stroke="transparent" points="153,-248.7 153,-267.7 220,-267.7 220,-248.7 153,-248.7"/>
<polygon fill="none" stroke="#000000" points="153,-248.7 153,-267.7 220,-267.7 220,-248.7 153,-248.7"/>
<text text-anchor="start" x="201.4053" y="-254.8" font-family="Helvetica,sans-Serif" font-size="11.00" fill="#000000">5 &gt;</text>
<polygon fill="none" stroke="#000000" stroke-width="2" points="9,-247.7 9,-401.7 221,-401.7 221,-247.7 9,-247.7"/>
</a>
</g>
</g>
<!-- allocation&#45;&gt;reference_data -->
<g id="edge1" class="edge">
<title>allocation:w&#45;&gt;reference_data:e</title>
<path fill="none" stroke="#000000" d="M327.5135,-535.2819C286.1353,-526.3142 293.0558,-476.4811 263,-433.7 242.6597,-404.7479 255.3829,-366.7 220,-366.7"/>
<polygon fill="#000000" stroke="#000000" points="334.0381,-535.9206 341.6493,-540.2829 338.019,-536.3103 342,-536.7 342,-536.7 342,-536.7 338.019,-536.3103 342.3507,-533.1171 334.0381,-535.9206 334.0381,-535.9206"/>
<ellipse fill="none" stroke="#000000" cx="330.8533" cy="-535.6088" rx="3.2" ry="3.2"/>
</g>
<!-- allocation&#45;&gt;reference_data -->
<g id="edge2" class="edge">
<title>allocation:w&#45;&gt;reference_data:e</title>
<path fill="none" stroke="#000000" d="M327.2835,-513.2631C291.8727,-505.6189 290.8731,-468.7565 263,-433.7 240.9795,-406.0044 255.3829,-366.7 220,-366.7"/>
<polygon fill="#000000" stroke="#000000" points="334.0379,-513.9225 341.6501,-518.283 338.0189,-514.3113 342,-514.7 342,-514.7 342,-514.7 338.0189,-514.3113 342.3499,-511.117 334.0379,-513.9225 334.0379,-513.9225"/>
<ellipse fill="none" stroke="#000000" cx="330.853" cy="-513.6116" rx="3.2" ry="3.2"/>
</g>
<!-- staff_configuration -->
<g id="node3" class="node">
<title>staff_configuration</title>
<g id="a_node3"><a xlink:href="../../tables/staff_configuration.html" xlink:title="staff_configuration" target="_top">
<polygon fill="#ffffff" stroke="transparent" points="345.5,-274.2 345.5,-423.2 512.5,-423.2 512.5,-274.2 345.5,-274.2"/>
<polygon fill="#f5f5f5" stroke="transparent" points="346,-399.7 346,-422.7 513,-422.7 513,-399.7 346,-399.7"/>
<polygon fill="none" stroke="#000000" points="346,-399.7 346,-422.7 513,-422.7 513,-399.7 346,-399.7"/>
<text text-anchor="start" x="351" y="-408.3" font-family="Helvetica,sans-Serif" font-weight="bold" font-size="11.00" fill="#000000">staff_configuration</text>
<text text-anchor="start" x="478.5219" y="-407.8" font-family="Helvetica,sans-Serif" font-size="11.00" fill="#000000">[table]</text>
<polygon fill="#ffffff" stroke="transparent" points="346,-377.7 346,-399.7 513,-399.7 513,-377.7 346,-377.7"/>
<polygon fill="none" stroke="#000000" points="346,-377.7 346,-399.7 513,-399.7 513,-377.7 346,-377.7"/>
<text text-anchor="start" x="367" y="-384.8" font-family="Helvetica,sans-Serif" font-size="11.00" fill="#000000">staff_id</text>
<polygon fill="none" stroke="#000000" points="346,-355.7 346,-377.7 513,-377.7 513,-355.7 346,-355.7"/>
<image xlink:href="../../images/foreignKeys.png" width="11px" height="12px" preserveAspectRatio="xMinYMin meet" x="351" y="-372.7"/>
<text text-anchor="start" x="367" y="-362.8" font-family="Helvetica,sans-Serif" font-size="11.00" fill="#000000">status_id</text>
<polygon fill="#ffffff" stroke="transparent" points="346,-333.7 346,-355.7 513,-355.7 513,-333.7 346,-333.7"/>
<polygon fill="none" stroke="#000000" points="346,-333.7 346,-355.7 513,-355.7 513,-333.7 346,-333.7"/>
<image xlink:href="../../images/foreignKeys.png" width="11px" height="12px" preserveAspectRatio="xMinYMin meet" x="351" y="-350.7"/>
<text text-anchor="start" x="367" y="-340.8" font-family="Helvetica,sans-Serif" font-size="11.00" fill="#000000">policy_code</text>
<polygon fill="none" stroke="#000000" points="346,-311.7 346,-333.7 513,-333.7 513,-311.7 346,-311.7"/>
<image xlink:href="../../images/primaryKeys.png" width="11px" height="12px" preserveAspectRatio="xMinYMin meet" x="351" y="-328.7"/>
<text text-anchor="start" x="367" y="-318.8" font-family="Helvetica,sans-Serif" font-size="11.00" fill="#000000">id</text>
<polygon fill="none" stroke="#000000" points="346,-292.7 346,-311.7 513,-311.7 513,-292.7 346,-292.7"/>
<text text-anchor="start" x="349" y="-298.8" font-family="Helvetica,sans-Serif" font-size="11.00" fill="#000000">...</text>
<polygon fill="#ffffff" stroke="transparent" points="346,-273.7 346,-292.7 428,-292.7 428,-273.7 346,-273.7"/>
<polygon fill="none" stroke="#000000" points="346,-273.7 346,-292.7 428,-292.7 428,-273.7 346,-273.7"/>
<text text-anchor="start" x="349" y="-279.8" font-family="Helvetica,sans-Serif" font-size="11.00" fill="#000000">&lt; 2</text>
<polygon fill="#ffffff" stroke="transparent" points="428,-273.7 428,-292.7 470,-292.7 470,-273.7 428,-273.7"/>
<polygon fill="none" stroke="#000000" points="428,-273.7 428,-292.7 470,-292.7 470,-273.7 428,-273.7"/>
<text text-anchor="start" x="460.8862" y="-279.8" font-family="Helvetica,sans-Serif" font-size="11.00" fill="#000000"> &#160;</text>
<polygon fill="#ffffff" stroke="transparent" points="470,-273.7 470,-292.7 513,-292.7 513,-273.7 470,-273.7"/>
<polygon fill="none" stroke="#000000" points="470,-273.7 470,-292.7 513,-292.7 513,-273.7 470,-273.7"/>
<text text-anchor="start" x="503.8862" y="-279.8" font-family="Helvetica,sans-Serif" font-size="11.00" fill="#000000"> &#160;</text>
</a>
</g>
</g>
<!-- staff_configuration&#45;&gt;reference_data -->
<g id="edge3" class="edge">
<title>staff_configuration:w&#45;&gt;reference_data:e</title>
<path fill="none" stroke="#000000" d="M331.5749,-366.7C287.0758,-366.7 270.8594,-366.7 220,-366.7"/>
<polygon fill="#000000" stroke="#000000" points="338,-366.7001 346,-370.3 342,-366.7 346,-366.7 346,-366.7 346,-366.7 342,-366.7 346,-363.1 338,-366.7001 338,-366.7001"/>
<ellipse fill="none" stroke="#000000" cx="334.8" cy="-366.7001" rx="3.2" ry="3.2"/>
</g>
<!-- zz_archived_legacy_keyworker_allocation -->
<g id="node4" class="node">
<title>zz_archived_legacy_keyworker_allocation</title>
<g id="a_node4"><a xlink:href="../../tables/zz_archived_legacy_keyworker_allocation.html" xlink:title="zz_archived_legacy_keyworker_allocation" target="_top">
<polygon fill="#ffffff" stroke="transparent" points="271,-38.2 271,-253.2 587,-253.2 587,-38.2 271,-38.2"/>
<polygon fill="#f5f5f5" stroke="transparent" points="271,-229.7 271,-252.7 587,-252.7 587,-229.7 271,-229.7"/>
<polygon fill="none" stroke="#000000" points="271,-229.7 271,-252.7 587,-252.7 587,-229.7 271,-229.7"/>
<text text-anchor="start" x="276" y="-238.3" font-family="Helvetica,sans-Serif" font-weight="bold" font-size="11.00" fill="#000000">zz_archived_legacy_keyworker_allocation</text>
<text text-anchor="start" x="552.5219" y="-237.8" font-family="Helvetica,sans-Serif" font-size="11.00" fill="#000000">[table]</text>
<polygon fill="none" stroke="#000000" points="271,-207.7 271,-229.7 587,-229.7 587,-207.7 271,-207.7"/>
<image xlink:href="../../images/primaryKeys.png" width="11px" height="12px" preserveAspectRatio="xMinYMin meet" x="276" y="-224.7"/>
<text text-anchor="start" x="300" y="-214.8" font-family="Helvetica,sans-Serif" font-size="11.00" fill="#000000">offender_keyworker_id</text>
<polygon fill="#ffffff" stroke="transparent" points="271,-185.7 271,-207.7 587,-207.7 587,-185.7 271,-185.7"/>
<polygon fill="none" stroke="#000000" points="271,-185.7 271,-207.7 587,-207.7 587,-185.7 271,-185.7"/>
<text text-anchor="start" x="300" y="-192.8" font-family="Helvetica,sans-Serif" font-size="11.00" fill="#000000">offender_no</text>
<polygon fill="#ffffff" stroke="transparent" points="271,-163.7 271,-185.7 587,-185.7 587,-163.7 271,-163.7"/>
<polygon fill="none" stroke="#000000" points="271,-163.7 271,-185.7 587,-185.7 587,-163.7 271,-163.7"/>
<text text-anchor="start" x="300" y="-170.8" font-family="Helvetica,sans-Serif" font-size="11.00" fill="#000000">staff_id</text>
<polygon fill="#ffffff" stroke="transparent" points="271,-141.7 271,-163.7 587,-163.7 587,-141.7 271,-141.7"/>
<polygon fill="none" stroke="#000000" points="271,-141.7 271,-163.7 587,-163.7 587,-141.7 271,-141.7"/>
<text text-anchor="start" x="300" y="-148.8" font-family="Helvetica,sans-Serif" font-size="11.00" fill="#000000">assigned_date_time</text>
<polygon fill="#ffffff" stroke="transparent" points="271,-119.7 271,-141.7 587,-141.7 587,-119.7 271,-119.7"/>
<polygon fill="none" stroke="#000000" points="271,-119.7 271,-141.7 587,-141.7 587,-119.7 271,-119.7"/>
<text text-anchor="start" x="300" y="-126.8" font-family="Helvetica,sans-Serif" font-size="11.00" fill="#000000">prison_id</text>
<polygon fill="none" stroke="#000000" points="271,-97.7 271,-119.7 587,-119.7 587,-97.7 271,-97.7"/>
<image xlink:href="../../images/foreignKeys.png" width="11px" height="12px" preserveAspectRatio="xMinYMin meet" x="276" y="-114.7"/>
<text text-anchor="start" x="300" y="-104.8" font-family="Helvetica,sans-Serif" font-size="11.00" fill="#000000">allocation_reason_id</text>
<polygon fill="none" stroke="#000000" points="271,-75.7 271,-97.7 587,-97.7 587,-75.7 271,-75.7"/>
<image xlink:href="../../images/foreignKeys.png" width="11px" height="12px" preserveAspectRatio="xMinYMin meet" x="276" y="-92.7"/>
<text text-anchor="start" x="300" y="-82.8" font-family="Helvetica,sans-Serif" font-size="11.00" fill="#000000">deallocation_reason_id</text>
<polygon fill="none" stroke="#000000" points="271,-56.7 271,-75.7 587,-75.7 587,-56.7 271,-56.7"/>
<text text-anchor="start" x="274" y="-62.8" font-family="Helvetica,sans-Serif" font-size="11.00" fill="#000000">...</text>
<polygon fill="#ffffff" stroke="transparent" points="271,-37.7 271,-56.7 427,-56.7 427,-37.7 271,-37.7"/>
<polygon fill="none" stroke="#000000" points="271,-37.7 271,-56.7 427,-56.7 427,-37.7 271,-37.7"/>
<text text-anchor="start" x="274" y="-43.8" font-family="Helvetica,sans-Serif" font-size="11.00" fill="#000000">&lt; 2</text>
<polygon fill="#ffffff" stroke="transparent" points="427,-37.7 427,-56.7 507,-56.7 507,-37.7 427,-37.7"/>
<polygon fill="none" stroke="#000000" points="427,-37.7 427,-56.7 507,-56.7 507,-37.7 427,-37.7"/>
<text text-anchor="start" x="497.8862" y="-43.8" font-family="Helvetica,sans-Serif" font-size="11.00" fill="#000000"> &#160;</text>
<polygon fill="#ffffff" stroke="transparent" points="507,-37.7 507,-56.7 587,-56.7 587,-37.7 507,-37.7"/>
<polygon fill="none" stroke="#000000" points="507,-37.7 507,-56.7 587,-56.7 587,-37.7 507,-37.7"/>
<text text-anchor="start" x="577.8862" y="-43.8" font-family="Helvetica,sans-Serif" font-size="11.00" fill="#000000"> &#160;</text>
</a>
</g>
</g>
<!-- zz_archived_legacy_keyworker_allocation&#45;&gt;reference_data -->
<g id="edge4" class="edge">
<title>zz_archived_legacy_keyworker_allocation:w&#45;&gt;reference_data:e</title>
<path fill="none" stroke="#000000" d="M256.4765,-110.3475C170.5908,-132.3206 331.4065,-366.7 220,-366.7"/>
<polygon fill="#000000" stroke="#000000" points="263.051,-109.6018 271.4058,-112.2771 267.0255,-109.1509 271,-108.7 271,-108.7 271,-108.7 267.0255,-109.1509 270.5942,-105.1229 263.051,-109.6018 263.051,-109.6018"/>
<ellipse fill="none" stroke="#000000" cx="259.8714" cy="-109.9625" rx="3.2" ry="3.2"/>
</g>
<!-- zz_archived_legacy_keyworker_allocation&#45;&gt;reference_data -->
<g id="edge5" class="edge">
<title>zz_archived_legacy_keyworker_allocation:w&#45;&gt;reference_data:e</title>
<path fill="none" stroke="#000000" d="M257.5921,-92.5482C219.7046,-132.7571 277.8107,-366.7 220,-366.7"/>
<polygon fill="#000000" stroke="#000000" points="263.6672,-89.8984 272.4393,-89.9998 267.3336,-88.2992 271,-86.7 271,-86.7 271,-86.7 267.3336,-88.2992 269.5607,-83.4002 263.6672,-89.8984 263.6672,-89.8984"/>
<ellipse fill="none" stroke="#000000" cx="260.734" cy="-91.1778" rx="3.2" ry="3.2"/>
</g>
</g>
</svg>
