<?xml version="1.0" encoding="UTF-8" standalone="no"?>
<!DOCTYPE svg PUBLIC "-//W3C//DTD SVG 1.1//EN"
 "http://www.w3.org/Graphics/SVG/1.1/DTD/svg11.dtd">
<!-- Generated by graphviz version 2.40.1 (20161225.0304)
 -->
<!-- Title: twoDegreesRelationshipsDiagramImplied Pages: 1 -->
<svg width="632pt" height="693pt"
 viewBox="0.00 0.00 632.00 693.20" xmlns="http://www.w3.org/2000/svg" xmlns:xlink="http://www.w3.org/1999/xlink">
<g id="graph0" class="graph" transform="scale(1 1) rotate(0) translate(4 689.2)">
<title>twoDegreesRelationshipsDiagramImplied</title>
<polygon fill="#ffffff" stroke="transparent" points="-4,4 -4,-689.2 628,-689.2 628,4 -4,4"/>
<text text-anchor="middle" x="72.4936" y="-7.3" font-family="Helvetica,sans-Serif" font-size="11.00" fill="#000000">Generated by SchemaSpy</text>
<!-- allocation -->
<g id="node1" class="node">
<title>allocation</title>
<g id="a_node1"><a xlink:href="../../tables/allocation.html" xlink:title="allocation" target="_top">
<polygon fill="#ffffff" stroke="transparent" points="371,-444.2 371,-681.2 545,-681.2 545,-444.2 371,-444.2"/>
<polygon fill="#f5f5f5" stroke="transparent" points="371,-657.7 371,-680.7 545,-680.7 545,-657.7 371,-657.7"/>
<polygon fill="none" stroke="#000000" points="371,-657.7 371,-680.7 545,-680.7 545,-657.7 371,-657.7"/>
<text text-anchor="start" x="376" y="-666.3" font-family="Helvetica,sans-Serif" font-weight="bold" font-size="11.00" fill="#000000">allocation</text>
<text text-anchor="start" x="510.0437" y="-665.8" font-family="Helvetica,sans-Serif" font-size="11.00" fill="#000000">[table]</text>
<polygon fill="none" stroke="#000000" points="371,-635.7 371,-657.7 545,-657.7 545,-635.7 371,-635.7"/>
<image xlink:href="../../images/primaryKeys.png" width="11px" height="12px" preserveAspectRatio="xMinYMin meet" x="376" y="-652.7"/>
<text text-anchor="start" x="391" y="-642.8" font-family="Helvetica,sans-Serif" font-size="11.00" fill="#000000">id</text>
<polygon fill="#ffffff" stroke="transparent" points="371,-613.7 371,-635.7 545,-635.7 545,-613.7 371,-613.7"/>
<polygon fill="none" stroke="#000000" points="371,-613.7 371,-635.7 545,-635.7 545,-613.7 371,-613.7"/>
<image xlink:href="../../images/foreignKeys.png" width="11px" height="12px" preserveAspectRatio="xMinYMin meet" x="376" y="-630.7"/>
<text text-anchor="start" x="391" y="-620.8" font-family="Helvetica,sans-Serif" font-size="11.00" fill="#000000">prison_code</text>
<polygon fill="#ffffff" stroke="transparent" points="371,-591.7 371,-613.7 545,-613.7 545,-591.7 371,-591.7"/>
<polygon fill="none" stroke="#000000" points="371,-591.7 371,-613.7 545,-613.7 545,-591.7 371,-591.7"/>
<text text-anchor="start" x="391" y="-598.8" font-family="Helvetica,sans-Serif" font-size="11.00" fill="#000000">staff_id</text>
<polygon fill="#ffffff" stroke="transparent" points="371,-569.7 371,-591.7 545,-591.7 545,-569.7 371,-569.7"/>
<polygon fill="none" stroke="#000000" points="371,-569.7 371,-591.7 545,-591.7 545,-569.7 371,-569.7"/>
<text text-anchor="start" x="391" y="-576.8" font-family="Helvetica,sans-Serif" font-size="11.00" fill="#000000">person_identifier</text>
<polygon fill="#ffffff" stroke="transparent" points="371,-547.7 371,-569.7 545,-569.7 545,-547.7 371,-547.7"/>
<polygon fill="none" stroke="#000000" points="371,-547.7 371,-569.7 545,-569.7 545,-547.7 371,-547.7"/>
<text text-anchor="start" x="391" y="-554.8" font-family="Helvetica,sans-Serif" font-size="11.00" fill="#000000">allocated_at</text>
<polygon fill="none" stroke="#000000" points="371,-525.7 371,-547.7 545,-547.7 545,-525.7 371,-525.7"/>
<image xlink:href="../../images/foreignKeys.png" width="11px" height="12px" preserveAspectRatio="xMinYMin meet" x="376" y="-542.7"/>
<text text-anchor="start" x="391" y="-532.8" font-family="Helvetica,sans-Serif" font-size="11.00" fill="#000000">allocation_reason_id</text>
<polygon fill="none" stroke="#000000" points="371,-503.7 371,-525.7 545,-525.7 545,-503.7 371,-503.7"/>
<image xlink:href="../../images/foreignKeys.png" width="11px" height="12px" preserveAspectRatio="xMinYMin meet" x="376" y="-520.7"/>
<text text-anchor="start" x="391" y="-510.8" font-family="Helvetica,sans-Serif" font-size="11.00" fill="#000000">deallocation_reason_id</text>
<polygon fill="#ffffff" stroke="transparent" points="371,-481.7 371,-503.7 545,-503.7 545,-481.7 371,-481.7"/>
<polygon fill="none" stroke="#000000" points="371,-481.7 371,-503.7 545,-503.7 545,-481.7 371,-481.7"/>
<image xlink:href="../../images/foreignKeys.png" width="11px" height="12px" preserveAspectRatio="xMinYMin meet" x="376" y="-498.7"/>
<text text-anchor="start" x="391" y="-488.8" font-family="Helvetica,sans-Serif" font-size="11.00" fill="#000000">policy_code</text>
<polygon fill="none" stroke="#000000" points="371,-462.7 371,-481.7 545,-481.7 545,-462.7 371,-462.7"/>
<text text-anchor="start" x="374" y="-468.8" font-family="Helvetica,sans-Serif" font-size="11.00" fill="#000000">...</text>
<polygon fill="#ffffff" stroke="transparent" points="371,-443.7 371,-462.7 456,-462.7 456,-443.7 371,-443.7"/>
<polygon fill="none" stroke="#000000" points="371,-443.7 371,-462.7 456,-462.7 456,-443.7 371,-443.7"/>
<text text-anchor="start" x="374" y="-449.8" font-family="Helvetica,sans-Serif" font-size="11.00" fill="#000000">&lt; 4</text>
<polygon fill="#ffffff" stroke="transparent" points="456,-443.7 456,-462.7 500,-462.7 500,-443.7 456,-443.7"/>
<polygon fill="none" stroke="#000000" points="456,-443.7 456,-462.7 500,-462.7 500,-443.7 456,-443.7"/>
<text text-anchor="start" x="490.8862" y="-449.8" font-family="Helvetica,sans-Serif" font-size="11.00" fill="#000000"> &#160;</text>
<polygon fill="#ffffff" stroke="transparent" points="500,-443.7 500,-462.7 545,-462.7 545,-443.7 500,-443.7"/>
<polygon fill="none" stroke="#000000" points="500,-443.7 500,-462.7 545,-462.7 545,-443.7 500,-443.7"/>
<text text-anchor="start" x="535.8862" y="-449.8" font-family="Helvetica,sans-Serif" font-size="11.00" fill="#000000"> &#160;</text>
</a>
</g>
</g>
<!-- reference_data -->
<g id="node2" class="node">
<title>reference_data</title>
<g id="a_node2"><a xlink:href="../../tables/reference_data.html" xlink:title="reference_data" target="_top">
<polygon fill="#ffffff" stroke="transparent" points="22.5,-163.7 22.5,-319.7 236.5,-319.7 236.5,-163.7 22.5,-163.7"/>
<polygon fill="#f5f5f5" stroke="transparent" points="24.5,-294.7 24.5,-317.7 234.5,-317.7 234.5,-294.7 24.5,-294.7"/>
<polygon fill="none" stroke="#000000" points="24.5,-294.7 24.5,-317.7 234.5,-317.7 234.5,-294.7 24.5,-294.7"/>
<text text-anchor="start" x="29.5" y="-303.3" font-family="Helvetica,sans-Serif" font-weight="bold" font-size="11.00" fill="#000000">reference_data</text>
<text text-anchor="start" x="199.5437" y="-302.8" font-family="Helvetica,sans-Serif" font-size="11.00" fill="#000000">[table]</text>
<polygon fill="none" stroke="#000000" points="24.5,-272.7 24.5,-294.7 167.5,-294.7 167.5,-272.7 24.5,-272.7"/>
<image xlink:href="../../images/primaryKeys.png" width="11px" height="12px" preserveAspectRatio="xMinYMin meet" x="29.5" y="-289.7"/>
<text text-anchor="start" x="44.5" y="-279.8" font-family="Helvetica,sans-Serif" font-size="11.00" fill="#000000">id</text>
<polygon fill="none" stroke="#000000" points="167.5,-272.7 167.5,-294.7 234.5,-294.7 234.5,-272.7 167.5,-272.7"/>
<text text-anchor="start" x="170.5" y="-280.4" font-family="Helvetica,sans-Serif" font-size="11.00" fill="#000000">bigserial[19]</text>
<polygon fill="#ffffff" stroke="transparent" points="24.5,-250.7 24.5,-272.7 167.5,-272.7 167.5,-250.7 24.5,-250.7"/>
<polygon fill="none" stroke="#000000" points="24.5,-250.7 24.5,-272.7 167.5,-272.7 167.5,-250.7 24.5,-250.7"/>
<text text-anchor="start" x="44.5" y="-257.8" font-family="Helvetica,sans-Serif" font-size="11.00" fill="#000000">domain</text>
<polygon fill="none" stroke="#000000" points="167.5,-250.7 167.5,-272.7 234.5,-272.7 234.5,-250.7 167.5,-250.7"/>
<text text-anchor="start" x="170.5" y="-258.4" font-family="Helvetica,sans-Serif" font-size="11.00" fill="#000000">varchar[32]</text>
<polygon fill="#ffffff" stroke="transparent" points="24.5,-228.7 24.5,-250.7 167.5,-250.7 167.5,-228.7 24.5,-228.7"/>
<polygon fill="none" stroke="#000000" points="24.5,-228.7 24.5,-250.7 167.5,-250.7 167.5,-228.7 24.5,-228.7"/>
<text text-anchor="start" x="44.5" y="-235.8" font-family="Helvetica,sans-Serif" font-size="11.00" fill="#000000">code</text>
<polygon fill="none" stroke="#000000" points="167.5,-228.7 167.5,-250.7 234.5,-250.7 234.5,-228.7 167.5,-228.7"/>
<text text-anchor="start" x="170.5" y="-236.4" font-family="Helvetica,sans-Serif" font-size="11.00" fill="#000000">varchar[32]</text>
<polygon fill="none" stroke="#000000" points="24.5,-206.7 24.5,-228.7 167.5,-228.7 167.5,-206.7 24.5,-206.7"/>
<text text-anchor="start" x="44.5" y="-213.8" font-family="Helvetica,sans-Serif" font-size="11.00" fill="#000000">description</text>
<polygon fill="none" stroke="#000000" points="167.5,-206.7 167.5,-228.7 234.5,-228.7 234.5,-206.7 167.5,-206.7"/>
<text text-anchor="start" x="170.4365" y="-214.4" font-family="Helvetica,sans-Serif" font-size="11.00" fill="#000000">varchar[128]</text>
<polygon fill="#ffffff" stroke="transparent" points="24.5,-184.7 24.5,-206.7 167.5,-206.7 167.5,-184.7 24.5,-184.7"/>
<polygon fill="none" stroke="#000000" points="24.5,-184.7 24.5,-206.7 167.5,-206.7 167.5,-184.7 24.5,-184.7"/>
<text text-anchor="start" x="44.5" y="-191.8" font-family="Helvetica,sans-Serif" font-size="11.00" fill="#000000">sequence_number</text>
<polygon fill="none" stroke="#000000" points="167.5,-184.7 167.5,-206.7 234.5,-206.7 234.5,-184.7 167.5,-184.7"/>
<text text-anchor="start" x="170.5" y="-192.4" font-family="Helvetica,sans-Serif" font-size="11.00" fill="#000000">int4[10]</text>
<polygon fill="#ffffff" stroke="transparent" points="24.5,-165.7 24.5,-184.7 100.5,-184.7 100.5,-165.7 24.5,-165.7"/>
<polygon fill="none" stroke="#000000" points="24.5,-165.7 24.5,-184.7 100.5,-184.7 100.5,-165.7 24.5,-165.7"/>
<text text-anchor="start" x="27.5" y="-171.8" font-family="Helvetica,sans-Serif" font-size="11.00" fill="#000000">&lt; 0</text>
<polygon fill="#ffffff" stroke="transparent" points="100.5,-165.7 100.5,-184.7 167.5,-184.7 167.5,-165.7 100.5,-165.7"/>
<polygon fill="none" stroke="#000000" points="100.5,-165.7 100.5,-184.7 167.5,-184.7 167.5,-165.7 100.5,-165.7"/>
<text text-anchor="start" x="158.3862" y="-171.8" font-family="Helvetica,sans-Serif" font-size="11.00" fill="#000000"> &#160;</text>
<polygon fill="#ffffff" stroke="transparent" points="167.5,-165.7 167.5,-184.7 234.5,-184.7 234.5,-165.7 167.5,-165.7"/>
<polygon fill="none" stroke="#000000" points="167.5,-165.7 167.5,-184.7 234.5,-184.7 234.5,-165.7 167.5,-165.7"/>
<text text-anchor="start" x="215.9053" y="-171.8" font-family="Helvetica,sans-Serif" font-size="11.00" fill="#000000">5 &gt;</text>
<polygon fill="none" stroke="#000000" stroke-width="2" points="23.5,-164.7 23.5,-318.7 235.5,-318.7 235.5,-164.7 23.5,-164.7"/>
</a>
</g>
</g>
<!-- allocation&#45;&gt;reference_data -->
<g id="edge1" class="edge">
<title>allocation:w&#45;&gt;reference_data:e</title>
<path fill="none" stroke="#000000" d="M356.3942,-535.3569C314.287,-526.8476 317.5315,-479.3258 292,-433.7 257.1349,-371.3946 305.897,-283.7 234.5,-283.7"/>
<polygon fill="#000000" stroke="#000000" points="363.0336,-535.9674 370.6703,-540.2849 367.0168,-536.3337 371,-536.7 371,-536.7 371,-536.7 367.0168,-536.3337 371.3297,-533.1151 363.0336,-535.9674 363.0336,-535.9674"/>
<ellipse fill="none" stroke="#000000" cx="359.8471" cy="-535.6744" rx="3.2" ry="3.2"/>
</g>
<!-- allocation&#45;&gt;reference_data -->
<g id="edge2" class="edge">
<title>allocation:w&#45;&gt;reference_data:e</title>
<path fill="none" stroke="#000000" d="M356.6266,-513.4512C320.0919,-506.5063 316.2547,-471.5842 292,-433.7 253.5033,-373.5707 305.897,-283.7 234.5,-283.7"/>
<polygon fill="#000000" stroke="#000000" points="363.03,-514.0075 370.6884,-518.2865 367.015,-514.3538 371,-514.7 371,-514.7 371,-514.7 367.015,-514.3538 371.3116,-511.1135 363.03,-514.0075 363.03,-514.0075"/>
<ellipse fill="none" stroke="#000000" cx="359.842" cy="-513.7305" rx="3.2" ry="3.2"/>
</g>
<!-- policy -->
<g id="node3" class="node">
<title>policy</title>
<g id="a_node3"><a xlink:href="../../tables/policy.html" xlink:title="policy" target="_top">
<polygon fill="#ffffff" stroke="transparent" points="90.5,-81.2 90.5,-142.2 168.5,-142.2 168.5,-81.2 90.5,-81.2"/>
<polygon fill="#f5f5f5" stroke="transparent" points="90.5,-118.7 90.5,-141.7 168.5,-141.7 168.5,-118.7 90.5,-118.7"/>
<polygon fill="none" stroke="#000000" points="90.5,-118.7 90.5,-141.7 168.5,-141.7 168.5,-118.7 90.5,-118.7"/>
<text text-anchor="start" x="95.5" y="-127.3" font-family="Helvetica,sans-Serif" font-weight="bold" font-size="11.00" fill="#000000">policy</text>
<text text-anchor="start" x="134.0219" y="-126.8" font-family="Helvetica,sans-Serif" font-size="11.00" fill="#000000">[table]</text>
<polygon fill="none" stroke="#000000" points="90.5,-99.7 90.5,-118.7 168.5,-118.7 168.5,-99.7 90.5,-99.7"/>
<text text-anchor="start" x="93.5" y="-105.8" font-family="Helvetica,sans-Serif" font-size="11.00" fill="#000000">...</text>
<polygon fill="#ffffff" stroke="transparent" points="90.5,-80.7 90.5,-99.7 118.5,-99.7 118.5,-80.7 90.5,-80.7"/>
<polygon fill="none" stroke="#000000" points="90.5,-80.7 90.5,-99.7 118.5,-99.7 118.5,-80.7 90.5,-80.7"/>
<text text-anchor="start" x="93.5" y="-86.8" font-family="Helvetica,sans-Serif" font-size="11.00" fill="#000000"> &#160;</text>
<polygon fill="#ffffff" stroke="transparent" points="118.5,-80.7 118.5,-99.7 138.5,-99.7 138.5,-80.7 118.5,-80.7"/>
<polygon fill="none" stroke="#000000" points="118.5,-80.7 118.5,-99.7 138.5,-99.7 138.5,-80.7 118.5,-80.7"/>
<text text-anchor="start" x="129.3862" y="-86.8" font-family="Helvetica,sans-Serif" font-size="11.00" fill="#000000"> &#160;</text>
<polygon fill="#ffffff" stroke="transparent" points="138.5,-80.7 138.5,-99.7 168.5,-99.7 168.5,-80.7 138.5,-80.7"/>
<polygon fill="none" stroke="#000000" points="138.5,-80.7 138.5,-99.7 168.5,-99.7 168.5,-80.7 138.5,-80.7"/>
<text text-anchor="start" x="149.9053" y="-86.8" font-family="Helvetica,sans-Serif" font-size="11.00" fill="#000000">4 &gt;</text>
</a>
</g>
</g>
<!-- allocation&#45;&gt;policy -->
<g id="edge3" class="edge">
<title>allocation:w&#45;&gt;policy:e</title>
<path fill="none" stroke="#000000" d="M356.354,-491.7818C323.834,-487.3567 311.2416,-467.0649 292,-433.7 229.1793,-324.7692 331.8157,-255.2194 259,-152.7 233.1018,-116.2372 213.2241,-108.7 168.5,-108.7"/>
<polygon fill="#000000" stroke="#000000" points="363.0157,-492.1994 370.7747,-496.2929 367.0078,-492.4497 371,-492.7 371,-492.7 371,-492.7 367.0078,-492.4497 371.2253,-489.1071 363.0157,-492.1994 363.0157,-492.1994"/>
<ellipse fill="none" stroke="#000000" cx="359.8219" cy="-491.9992" rx="3.2" ry="3.2"/>
</g>
<!-- prison_migration_date_history -->
<g id="node4" class="node">
<title>prison_migration_date_history</title>
<g id="a_node4"><a xlink:href="../../tables/prison_migration_date_history.html" xlink:title="prison_migration_date_history" target="_top">
<polygon fill="#ffffff" stroke="transparent" points="8,-597.2 8,-658.2 251,-658.2 251,-597.2 8,-597.2"/>
<polygon fill="#f5f5f5" stroke="transparent" points="8.5,-634.7 8.5,-657.7 251.5,-657.7 251.5,-634.7 8.5,-634.7"/>
<polygon fill="none" stroke="#000000" points="8.5,-634.7 8.5,-657.7 251.5,-657.7 251.5,-634.7 8.5,-634.7"/>
<text text-anchor="start" x="13.5" y="-643.3" font-family="Helvetica,sans-Serif" font-weight="bold" font-size="11.00" fill="#000000">prison_migration_date_history</text>
<text text-anchor="start" x="217.0219" y="-642.8" font-family="Helvetica,sans-Serif" font-size="11.00" fill="#000000">[table]</text>
<polygon fill="none" stroke="#000000" points="8.5,-615.7 8.5,-634.7 251.5,-634.7 251.5,-615.7 8.5,-615.7"/>
<text text-anchor="start" x="11.5" y="-621.8" font-family="Helvetica,sans-Serif" font-size="11.00" fill="#000000">...</text>
<polygon fill="#ffffff" stroke="transparent" points="8.5,-596.7 8.5,-615.7 119.5,-615.7 119.5,-596.7 8.5,-596.7"/>
<polygon fill="none" stroke="#000000" points="8.5,-596.7 8.5,-615.7 119.5,-615.7 119.5,-596.7 8.5,-596.7"/>
<text text-anchor="start" x="11.5" y="-602.8" font-family="Helvetica,sans-Serif" font-size="11.00" fill="#000000"> &#160;</text>
<polygon fill="#ffffff" stroke="transparent" points="119.5,-596.7 119.5,-615.7 180.5,-615.7 180.5,-596.7 119.5,-596.7"/>
<polygon fill="none" stroke="#000000" points="119.5,-596.7 119.5,-615.7 180.5,-615.7 180.5,-596.7 119.5,-596.7"/>
<text text-anchor="start" x="171.3862" y="-602.8" font-family="Helvetica,sans-Serif" font-size="11.00" fill="#000000"> &#160;</text>
<polygon fill="#ffffff" stroke="transparent" points="180.5,-596.7 180.5,-615.7 251.5,-615.7 251.5,-596.7 180.5,-596.7"/>
<polygon fill="none" stroke="#000000" points="180.5,-596.7 180.5,-615.7 251.5,-615.7 251.5,-596.7 180.5,-596.7"/>
<text text-anchor="start" x="232.9053" y="-602.8" font-family="Helvetica,sans-Serif" font-size="11.00" fill="#000000">9 &gt;</text>
</a>
</g>
</g>
<!-- allocation&#45;&gt;prison_migration_date_history -->
<g id="edge4" class="edge">
<title>allocation:w&#45;&gt;prison_migration_date_history:e</title>
<path fill="none" stroke="#000000" stroke-dasharray="5,2" d="M356.5055,-624.7C314.9157,-624.7 299.4245,-624.7 251.5,-624.7"/>
<polygon fill="#000000" stroke="#000000" points="363,-624.7001 371,-628.3 367,-624.7 371,-624.7 371,-624.7 371,-624.7 367,-624.7 371,-621.1 363,-624.7001 363,-624.7001"/>
<ellipse fill="none" stroke="#000000" cx="359.8" cy="-624.7001" rx="3.2" ry="3.2"/>
</g>
<!-- staff_configuration -->
<g id="node5" class="node">
<title>staff_configuration</title>
<g id="a_node5"><a xlink:href="../../tables/staff_configuration.html" xlink:title="staff_configuration" target="_top">
<polygon fill="#ffffff" stroke="transparent" points="374.5,-38.2 374.5,-187.2 541.5,-187.2 541.5,-38.2 374.5,-38.2"/>
<polygon fill="#f5f5f5" stroke="transparent" points="375,-163.7 375,-186.7 542,-186.7 542,-163.7 375,-163.7"/>
<polygon fill="none" stroke="#000000" points="375,-163.7 375,-186.7 542,-186.7 542,-163.7 375,-163.7"/>
<text text-anchor="start" x="380" y="-172.3" font-family="Helvetica,sans-Serif" font-weight="bold" font-size="11.00" fill="#000000">staff_configuration</text>
<text text-anchor="start" x="507.5219" y="-171.8" font-family="Helvetica,sans-Serif" font-size="11.00" fill="#000000">[table]</text>
<polygon fill="#ffffff" stroke="transparent" points="375,-141.7 375,-163.7 542,-163.7 542,-141.7 375,-141.7"/>
<polygon fill="none" stroke="#000000" points="375,-141.7 375,-163.7 542,-163.7 542,-141.7 375,-141.7"/>
<text text-anchor="start" x="396" y="-148.8" font-family="Helvetica,sans-Serif" font-size="11.00" fill="#000000">staff_id</text>
<polygon fill="none" stroke="#000000" points="375,-119.7 375,-141.7 542,-141.7 542,-119.7 375,-119.7"/>
<image xlink:href="../../images/foreignKeys.png" width="11px" height="12px" preserveAspectRatio="xMinYMin meet" x="380" y="-136.7"/>
<text text-anchor="start" x="396" y="-126.8" font-family="Helvetica,sans-Serif" font-size="11.00" fill="#000000">status_id</text>
<polygon fill="#ffffff" stroke="transparent" points="375,-97.7 375,-119.7 542,-119.7 542,-97.7 375,-97.7"/>
<polygon fill="none" stroke="#000000" points="375,-97.7 375,-119.7 542,-119.7 542,-97.7 375,-97.7"/>
<image xlink:href="../../images/foreignKeys.png" width="11px" height="12px" preserveAspectRatio="xMinYMin meet" x="380" y="-114.7"/>
<text text-anchor="start" x="396" y="-104.8" font-family="Helvetica,sans-Serif" font-size="11.00" fill="#000000">policy_code</text>
<polygon fill="none" stroke="#000000" points="375,-75.7 375,-97.7 542,-97.7 542,-75.7 375,-75.7"/>
<image xlink:href="../../images/primaryKeys.png" width="11px" height="12px" preserveAspectRatio="xMinYMin meet" x="380" y="-92.7"/>
<text text-anchor="start" x="396" y="-82.8" font-family="Helvetica,sans-Serif" font-size="11.00" fill="#000000">id</text>
<polygon fill="none" stroke="#000000" points="375,-56.7 375,-75.7 542,-75.7 542,-56.7 375,-56.7"/>
<text text-anchor="start" x="378" y="-62.8" font-family="Helvetica,sans-Serif" font-size="11.00" fill="#000000">...</text>
<polygon fill="#ffffff" stroke="transparent" points="375,-37.7 375,-56.7 457,-56.7 457,-37.7 375,-37.7"/>
<polygon fill="none" stroke="#000000" points="375,-37.7 375,-56.7 457,-56.7 457,-37.7 375,-37.7"/>
<text text-anchor="start" x="378" y="-43.8" font-family="Helvetica,sans-Serif" font-size="11.00" fill="#000000">&lt; 2</text>
<polygon fill="#ffffff" stroke="transparent" points="457,-37.7 457,-56.7 499,-56.7 499,-37.7 457,-37.7"/>
<polygon fill="none" stroke="#000000" points="457,-37.7 457,-56.7 499,-56.7 499,-37.7 457,-37.7"/>
<text text-anchor="start" x="489.8862" y="-43.8" font-family="Helvetica,sans-Serif" font-size="11.00" fill="#000000"> &#160;</text>
<polygon fill="#ffffff" stroke="transparent" points="499,-37.7 499,-56.7 542,-56.7 542,-37.7 499,-37.7"/>
<polygon fill="none" stroke="#000000" points="499,-37.7 499,-56.7 542,-56.7 542,-37.7 499,-37.7"/>
<text text-anchor="start" x="532.8862" y="-43.8" font-family="Helvetica,sans-Serif" font-size="11.00" fill="#000000"> &#160;</text>
</a>
</g>
</g>
<!-- staff_configuration&#45;&gt;reference_data -->
<g id="edge6" class="edge">
<title>staff_configuration:w&#45;&gt;reference_data:e</title>
<path fill="none" stroke="#000000" d="M360.47,-131.89C326.4106,-137.9899 320.361,-166.6709 292,-197.7 260.9802,-231.6381 280.4785,-283.7 234.5,-283.7"/>
<polygon fill="#000000" stroke="#000000" points="367.0267,-131.3531 375.2939,-134.288 371.0133,-131.0265 375,-130.7 375,-130.7 375,-130.7 371.0133,-131.0265 374.7061,-127.112 367.0267,-131.3531 367.0267,-131.3531"/>
<ellipse fill="none" stroke="#000000" cx="363.8374" cy="-131.6143" rx="3.2" ry="3.2"/>
</g>
<!-- staff_configuration&#45;&gt;policy -->
<g id="edge5" class="edge">
<title>staff_configuration:w&#45;&gt;policy:e</title>
<path fill="none" stroke="#000000" d="M360.5378,-108.7C280.5068,-108.7 255.2587,-108.7 168.5,-108.7"/>
<polygon fill="#000000" stroke="#000000" points="367,-108.7001 375,-112.3 371,-108.7 375,-108.7 375,-108.7 375,-108.7 371,-108.7 375,-105.1 367,-108.7001 367,-108.7001"/>
<ellipse fill="none" stroke="#000000" cx="363.8" cy="-108.7001" rx="3.2" ry="3.2"/>
</g>
<!-- zz_archived_legacy_keyworker_allocation -->
<g id="node6" class="node">
<title>zz_archived_legacy_keyworker_allocation</title>
<g id="a_node6"><a xlink:href="../../tables/zz_archived_legacy_keyworker_allocation.html" xlink:title="zz_archived_legacy_keyworker_allocation" target="_top">
<polygon fill="#ffffff" stroke="transparent" points="300,-208.2 300,-423.2 616,-423.2 616,-208.2 300,-208.2"/>
<polygon fill="#f5f5f5" stroke="transparent" points="300,-399.7 300,-422.7 616,-422.7 616,-399.7 300,-399.7"/>
<polygon fill="none" stroke="#000000" points="300,-399.7 300,-422.7 616,-422.7 616,-399.7 300,-399.7"/>
<text text-anchor="start" x="305" y="-408.3" font-family="Helvetica,sans-Serif" font-weight="bold" font-size="11.00" fill="#000000">zz_archived_legacy_keyworker_allocation</text>
<text text-anchor="start" x="581.5219" y="-407.8" font-family="Helvetica,sans-Serif" font-size="11.00" fill="#000000">[table]</text>
<polygon fill="none" stroke="#000000" points="300,-377.7 300,-399.7 616,-399.7 616,-377.7 300,-377.7"/>
<image xlink:href="../../images/primaryKeys.png" width="11px" height="12px" preserveAspectRatio="xMinYMin meet" x="305" y="-394.7"/>
<text text-anchor="start" x="329" y="-384.8" font-family="Helvetica,sans-Serif" font-size="11.00" fill="#000000">offender_keyworker_id</text>
<polygon fill="#ffffff" stroke="transparent" points="300,-355.7 300,-377.7 616,-377.7 616,-355.7 300,-355.7"/>
<polygon fill="none" stroke="#000000" points="300,-355.7 300,-377.7 616,-377.7 616,-355.7 300,-355.7"/>
<text text-anchor="start" x="329" y="-362.8" font-family="Helvetica,sans-Serif" font-size="11.00" fill="#000000">offender_no</text>
<polygon fill="#ffffff" stroke="transparent" points="300,-333.7 300,-355.7 616,-355.7 616,-333.7 300,-333.7"/>
<polygon fill="none" stroke="#000000" points="300,-333.7 300,-355.7 616,-355.7 616,-333.7 300,-333.7"/>
<text text-anchor="start" x="329" y="-340.8" font-family="Helvetica,sans-Serif" font-size="11.00" fill="#000000">staff_id</text>
<polygon fill="#ffffff" stroke="transparent" points="300,-311.7 300,-333.7 616,-333.7 616,-311.7 300,-311.7"/>
<polygon fill="none" stroke="#000000" points="300,-311.7 300,-333.7 616,-333.7 616,-311.7 300,-311.7"/>
<text text-anchor="start" x="329" y="-318.8" font-family="Helvetica,sans-Serif" font-size="11.00" fill="#000000">assigned_date_time</text>
<polygon fill="#ffffff" stroke="transparent" points="300,-289.7 300,-311.7 616,-311.7 616,-289.7 300,-289.7"/>
<polygon fill="none" stroke="#000000" points="300,-289.7 300,-311.7 616,-311.7 616,-289.7 300,-289.7"/>
<text text-anchor="start" x="329" y="-296.8" font-family="Helvetica,sans-Serif" font-size="11.00" fill="#000000">prison_id</text>
<polygon fill="none" stroke="#000000" points="300,-267.7 300,-289.7 616,-289.7 616,-267.7 300,-267.7"/>
<image xlink:href="../../images/foreignKeys.png" width="11px" height="12px" preserveAspectRatio="xMinYMin meet" x="305" y="-284.7"/>
<text text-anchor="start" x="329" y="-274.8" font-family="Helvetica,sans-Serif" font-size="11.00" fill="#000000">allocation_reason_id</text>
<polygon fill="none" stroke="#000000" points="300,-245.7 300,-267.7 616,-267.7 616,-245.7 300,-245.7"/>
<image xlink:href="../../images/foreignKeys.png" width="11px" height="12px" preserveAspectRatio="xMinYMin meet" x="305" y="-262.7"/>
<text text-anchor="start" x="329" y="-252.8" font-family="Helvetica,sans-Serif" font-size="11.00" fill="#000000">deallocation_reason_id</text>
<polygon fill="none" stroke="#000000" points="300,-226.7 300,-245.7 616,-245.7 616,-226.7 300,-226.7"/>
<text text-anchor="start" x="303" y="-232.8" font-family="Helvetica,sans-Serif" font-size="11.00" fill="#000000">...</text>
<polygon fill="#ffffff" stroke="transparent" points="300,-207.7 300,-226.7 456,-226.7 456,-207.7 300,-207.7"/>
<polygon fill="none" stroke="#000000" points="300,-207.7 300,-226.7 456,-226.7 456,-207.7 300,-207.7"/>
<text text-anchor="start" x="303" y="-213.8" font-family="Helvetica,sans-Serif" font-size="11.00" fill="#000000">&lt; 2</text>
<polygon fill="#ffffff" stroke="transparent" points="456,-207.7 456,-226.7 536,-226.7 536,-207.7 456,-207.7"/>
<polygon fill="none" stroke="#000000" points="456,-207.7 456,-226.7 536,-226.7 536,-207.7 456,-207.7"/>
<text text-anchor="start" x="526.8862" y="-213.8" font-family="Helvetica,sans-Serif" font-size="11.00" fill="#000000"> &#160;</text>
<polygon fill="#ffffff" stroke="transparent" points="536,-207.7 536,-226.7 616,-226.7 616,-207.7 536,-207.7"/>
<polygon fill="none" stroke="#000000" points="536,-207.7 536,-226.7 616,-226.7 616,-207.7 536,-207.7"/>
<text text-anchor="start" x="606.8862" y="-213.8" font-family="Helvetica,sans-Serif" font-size="11.00" fill="#000000"> &#160;</text>
</a>
</g>
</g>
<!-- zz_archived_legacy_keyworker_allocation&#45;&gt;reference_data -->
<g id="edge7" class="edge">
<title>zz_archived_legacy_keyworker_allocation:w&#45;&gt;reference_data:e</title>
<path fill="none" stroke="#000000" d="M285.3531,-279.1794C267.2738,-280.4309 258.1075,-283.7 234.5,-283.7"/>
<polygon fill="#000000" stroke="#000000" points="292.0043,-278.9618 300.1178,-282.2981 296.0021,-278.8309 300,-278.7 300,-278.7 300,-278.7 296.0021,-278.8309 299.8822,-275.1019 292.0043,-278.9618 292.0043,-278.9618"/>
<ellipse fill="none" stroke="#000000" cx="288.806" cy="-279.0665" rx="3.2" ry="3.2"/>
</g>
<!-- zz_archived_legacy_keyworker_allocation&#45;&gt;reference_data -->
<g id="edge8" class="edge">
<title>zz_archived_legacy_keyworker_allocation:w&#45;&gt;reference_data:e</title>
<path fill="none" stroke="#000000" d="M285.7654,-258.9095C266.7299,-265.3579 260.4525,-283.7 234.5,-283.7"/>
<polygon fill="#000000" stroke="#000000" points="292.0947,-257.9271 300.5522,-260.2574 296.0473,-257.3136 300,-256.7 300,-256.7 300,-256.7 296.0473,-257.3136 299.4478,-253.1426 292.0947,-257.9271 292.0947,-257.9271"/>
<ellipse fill="none" stroke="#000000" cx="288.9325" cy="-258.418" rx="3.2" ry="3.2"/>
</g>
</g>
</svg>
