<?xml version="1.0" encoding="UTF-8" standalone="no"?>
<!DOCTYPE svg PUBLIC "-//W3C//DTD SVG 1.1//EN"
 "http://www.w3.org/Graphics/SVG/1.1/DTD/svg11.dtd">
<!-- Generated by graphviz version 2.40.1 (20161225.0304)
 -->
<!-- Title: twoDegreesRelationshipsDiagramImplied Pages: 1 -->
<svg width="494pt" height="391pt"
 viewBox="0.00 0.00 494.00 391.20" xmlns="http://www.w3.org/2000/svg" xmlns:xlink="http://www.w3.org/1999/xlink">
<g id="graph0" class="graph" transform="scale(1 1) rotate(0) translate(4 387.2)">
<title>twoDegreesRelationshipsDiagramImplied</title>
<polygon fill="#ffffff" stroke="transparent" points="-4,4 -4,-387.2 490,-387.2 490,4 -4,4"/>
<text text-anchor="middle" x="72.4936" y="-7.3" font-family="Helvetica,sans-Serif" font-size="11.00" fill="#000000">Generated by SchemaSpy</text>
<!-- keyworker_configuration -->
<g id="node1" class="node">
<title>keyworker_configuration</title>
<g id="a_node1"><a xlink:href="../../tables/keyworker_configuration.html" xlink:title="keyworker_configuration" target="_top">
<polygon fill="#ffffff" stroke="transparent" points="271,-38.2 271,-143.2 478,-143.2 478,-38.2 271,-38.2"/>
<polygon fill="#f5f5f5" stroke="transparent" points="271.5,-119.7 271.5,-142.7 478.5,-142.7 478.5,-119.7 271.5,-119.7"/>
<polygon fill="none" stroke="#000000" points="271.5,-119.7 271.5,-142.7 478.5,-142.7 478.5,-119.7 271.5,-119.7"/>
<text text-anchor="start" x="276.5" y="-128.3" font-family="Helvetica,sans-Serif" font-weight="bold" font-size="11.00" fill="#000000">keyworker_configuration</text>
<text text-anchor="start" x="444.0219" y="-127.8" font-family="Helvetica,sans-Serif" font-size="11.00" fill="#000000">[table]</text>
<polygon fill="none" stroke="#000000" points="271.5,-97.7 271.5,-119.7 478.5,-119.7 478.5,-97.7 271.5,-97.7"/>
<image xlink:href="../../images/primaryKeys.png" width="11px" height="12px" preserveAspectRatio="xMinYMin meet" x="276.5" y="-114.7"/>
<text text-anchor="start" x="300.5" y="-104.8" font-family="Helvetica,sans-Serif" font-size="11.00" fill="#000000">staff_id</text>
<polygon fill="none" stroke="#000000" points="271.5,-75.7 271.5,-97.7 478.5,-97.7 478.5,-75.7 271.5,-75.7"/>
<image xlink:href="../../images/foreignKeys.png" width="11px" height="12px" preserveAspectRatio="xMinYMin meet" x="276.5" y="-92.7"/>
<text text-anchor="start" x="300.5" y="-82.8" font-family="Helvetica,sans-Serif" font-size="11.00" fill="#000000">status_id</text>
<polygon fill="none" stroke="#000000" points="271.5,-56.7 271.5,-75.7 478.5,-75.7 478.5,-56.7 271.5,-56.7"/>
<text text-anchor="start" x="274.5" y="-62.8" font-family="Helvetica,sans-Serif" font-size="11.00" fill="#000000">...</text>
<polygon fill="#ffffff" stroke="transparent" points="271.5,-37.7 271.5,-56.7 373.5,-56.7 373.5,-37.7 271.5,-37.7"/>
<polygon fill="none" stroke="#000000" points="271.5,-37.7 271.5,-56.7 373.5,-56.7 373.5,-37.7 271.5,-37.7"/>
<text text-anchor="start" x="274.5" y="-43.8" font-family="Helvetica,sans-Serif" font-size="11.00" fill="#000000">&lt; 1</text>
<polygon fill="#ffffff" stroke="transparent" points="373.5,-37.7 373.5,-56.7 425.5,-56.7 425.5,-37.7 373.5,-37.7"/>
<polygon fill="none" stroke="#000000" points="373.5,-37.7 373.5,-56.7 425.5,-56.7 425.5,-37.7 373.5,-37.7"/>
<text text-anchor="start" x="416.3862" y="-43.8" font-family="Helvetica,sans-Serif" font-size="11.00" fill="#000000"> &#160;</text>
<polygon fill="#ffffff" stroke="transparent" points="425.5,-37.7 425.5,-56.7 478.5,-56.7 478.5,-37.7 425.5,-37.7"/>
<polygon fill="none" stroke="#000000" points="425.5,-37.7 425.5,-56.7 478.5,-56.7 478.5,-37.7 425.5,-37.7"/>
<text text-anchor="start" x="469.3862" y="-43.8" font-family="Helvetica,sans-Serif" font-size="11.00" fill="#000000"> &#160;</text>
</a>
</g>
</g>
<!-- reference_data -->
<g id="node2" class="node">
<title>reference_data</title>
<g id="a_node2"><a xlink:href="../../tables/reference_data.html" xlink:title="reference_data" target="_top">
<polygon fill="#ffffff" stroke="transparent" points="8,-71.7 8,-227.7 222,-227.7 222,-71.7 8,-71.7"/>
<polygon fill="#f5f5f5" stroke="transparent" points="10,-202.7 10,-225.7 220,-225.7 220,-202.7 10,-202.7"/>
<polygon fill="none" stroke="#000000" points="10,-202.7 10,-225.7 220,-225.7 220,-202.7 10,-202.7"/>
<text text-anchor="start" x="15" y="-211.3" font-family="Helvetica,sans-Serif" font-weight="bold" font-size="11.00" fill="#000000">reference_data</text>
<text text-anchor="start" x="185.0437" y="-210.8" font-family="Helvetica,sans-Serif" font-size="11.00" fill="#000000">[table]</text>
<polygon fill="none" stroke="#000000" points="10,-180.7 10,-202.7 153,-202.7 153,-180.7 10,-180.7"/>
<image xlink:href="../../images/primaryKeys.png" width="11px" height="12px" preserveAspectRatio="xMinYMin meet" x="15" y="-197.7"/>
<text text-anchor="start" x="30" y="-187.8" font-family="Helvetica,sans-Serif" font-size="11.00" fill="#000000">id</text>
<polygon fill="none" stroke="#000000" points="153,-180.7 153,-202.7 220,-202.7 220,-180.7 153,-180.7"/>
<text text-anchor="start" x="156" y="-188.4" font-family="Helvetica,sans-Serif" font-size="11.00" fill="#000000">bigserial[19]</text>
<polygon fill="#ffffff" stroke="transparent" points="10,-158.7 10,-180.7 153,-180.7 153,-158.7 10,-158.7"/>
<polygon fill="none" stroke="#000000" points="10,-158.7 10,-180.7 153,-180.7 153,-158.7 10,-158.7"/>
<text text-anchor="start" x="30" y="-165.8" font-family="Helvetica,sans-Serif" font-size="11.00" fill="#000000">domain</text>
<polygon fill="none" stroke="#000000" points="153,-158.7 153,-180.7 220,-180.7 220,-158.7 153,-158.7"/>
<text text-anchor="start" x="156" y="-166.4" font-family="Helvetica,sans-Serif" font-size="11.00" fill="#000000">varchar[32]</text>
<polygon fill="#ffffff" stroke="transparent" points="10,-136.7 10,-158.7 153,-158.7 153,-136.7 10,-136.7"/>
<polygon fill="none" stroke="#000000" points="10,-136.7 10,-158.7 153,-158.7 153,-136.7 10,-136.7"/>
<text text-anchor="start" x="30" y="-143.8" font-family="Helvetica,sans-Serif" font-size="11.00" fill="#000000">code</text>
<polygon fill="none" stroke="#000000" points="153,-136.7 153,-158.7 220,-158.7 220,-136.7 153,-136.7"/>
<text text-anchor="start" x="156" y="-144.4" font-family="Helvetica,sans-Serif" font-size="11.00" fill="#000000">varchar[32]</text>
<polygon fill="none" stroke="#000000" points="10,-114.7 10,-136.7 153,-136.7 153,-114.7 10,-114.7"/>
<text text-anchor="start" x="30" y="-121.8" font-family="Helvetica,sans-Serif" font-size="11.00" fill="#000000">description</text>
<polygon fill="none" stroke="#000000" points="153,-114.7 153,-136.7 220,-136.7 220,-114.7 153,-114.7"/>
<text text-anchor="start" x="155.9365" y="-122.4" font-family="Helvetica,sans-Serif" font-size="11.00" fill="#000000">varchar[128]</text>
<polygon fill="#ffffff" stroke="transparent" points="10,-92.7 10,-114.7 153,-114.7 153,-92.7 10,-92.7"/>
<polygon fill="none" stroke="#000000" points="10,-92.7 10,-114.7 153,-114.7 153,-92.7 10,-92.7"/>
<text text-anchor="start" x="30" y="-99.8" font-family="Helvetica,sans-Serif" font-size="11.00" fill="#000000">sequence_number</text>
<polygon fill="none" stroke="#000000" points="153,-92.7 153,-114.7 220,-114.7 220,-92.7 153,-92.7"/>
<text text-anchor="start" x="156" y="-100.4" font-family="Helvetica,sans-Serif" font-size="11.00" fill="#000000">int4[10]</text>
<polygon fill="#ffffff" stroke="transparent" points="10,-73.7 10,-92.7 86,-92.7 86,-73.7 10,-73.7"/>
<polygon fill="none" stroke="#000000" points="10,-73.7 10,-92.7 86,-92.7 86,-73.7 10,-73.7"/>
<text text-anchor="start" x="13" y="-79.8" font-family="Helvetica,sans-Serif" font-size="11.00" fill="#000000">&lt; 0</text>
<polygon fill="#ffffff" stroke="transparent" points="86,-73.7 86,-92.7 153,-92.7 153,-73.7 86,-73.7"/>
<polygon fill="none" stroke="#000000" points="86,-73.7 86,-92.7 153,-92.7 153,-73.7 86,-73.7"/>
<text text-anchor="start" x="143.8862" y="-79.8" font-family="Helvetica,sans-Serif" font-size="11.00" fill="#000000"> &#160;</text>
<polygon fill="#ffffff" stroke="transparent" points="153,-73.7 153,-92.7 220,-92.7 220,-73.7 153,-73.7"/>
<polygon fill="none" stroke="#000000" points="153,-73.7 153,-92.7 220,-92.7 220,-73.7 153,-73.7"/>
<text text-anchor="start" x="201.4053" y="-79.8" font-family="Helvetica,sans-Serif" font-size="11.00" fill="#000000">3 &gt;</text>
<polygon fill="none" stroke="#000000" stroke-width="2" points="9,-72.7 9,-226.7 221,-226.7 221,-72.7 9,-72.7"/>
</a>
</g>
</g>
<!-- keyworker_configuration&#45;&gt;reference_data -->
<g id="edge1" class="edge">
<title>keyworker_configuration:w&#45;&gt;reference_data:e</title>
<path fill="none" stroke="#000000" d="M257.5525,-90.437C230.0666,-109.1416 266.0896,-191.7 220,-191.7"/>
<polygon fill="#000000" stroke="#000000" points="263.7726,-88.7705 272.4317,-90.1773 267.6363,-87.7352 271.5,-86.7 271.5,-86.7 271.5,-86.7 267.6363,-87.7352 270.5683,-83.2227 263.7726,-88.7705 263.7726,-88.7705"/>
<ellipse fill="none" stroke="#000000" cx="260.6816" cy="-89.5987" rx="3.2" ry="3.2"/>
</g>
<!-- offender_key_worker -->
<g id="node3" class="node">
<title>offender_key_worker</title>
<g id="a_node3"><a xlink:href="../../tables/offender_key_worker.html" xlink:title="offender_key_worker" target="_top">
<polygon fill="#ffffff" stroke="transparent" points="284.5,-164.2 284.5,-379.2 464.5,-379.2 464.5,-164.2 284.5,-164.2"/>
<polygon fill="#f5f5f5" stroke="transparent" points="284.5,-355.7 284.5,-378.7 464.5,-378.7 464.5,-355.7 284.5,-355.7"/>
<polygon fill="none" stroke="#000000" points="284.5,-355.7 284.5,-378.7 464.5,-378.7 464.5,-355.7 284.5,-355.7"/>
<text text-anchor="start" x="289.5" y="-364.3" font-family="Helvetica,sans-Serif" font-weight="bold" font-size="11.00" fill="#000000">offender_key_worker</text>
<text text-anchor="start" x="430.0219" y="-363.8" font-family="Helvetica,sans-Serif" font-size="11.00" fill="#000000">[table]</text>
<polygon fill="none" stroke="#000000" points="284.5,-333.7 284.5,-355.7 464.5,-355.7 464.5,-333.7 284.5,-333.7"/>
<image xlink:href="../../images/primaryKeys.png" width="11px" height="12px" preserveAspectRatio="xMinYMin meet" x="289.5" y="-350.7"/>
<text text-anchor="start" x="307.5" y="-340.8" font-family="Helvetica,sans-Serif" font-size="11.00" fill="#000000">offender_keyworker_id</text>
<polygon fill="#ffffff" stroke="transparent" points="284.5,-311.7 284.5,-333.7 464.5,-333.7 464.5,-311.7 284.5,-311.7"/>
<polygon fill="none" stroke="#000000" points="284.5,-311.7 284.5,-333.7 464.5,-333.7 464.5,-311.7 284.5,-311.7"/>
<text text-anchor="start" x="307.5" y="-318.8" font-family="Helvetica,sans-Serif" font-size="11.00" fill="#000000">offender_no</text>
<polygon fill="#ffffff" stroke="transparent" points="284.5,-289.7 284.5,-311.7 464.5,-311.7 464.5,-289.7 284.5,-289.7"/>
<polygon fill="none" stroke="#000000" points="284.5,-289.7 284.5,-311.7 464.5,-311.7 464.5,-289.7 284.5,-289.7"/>
<text text-anchor="start" x="307.5" y="-296.8" font-family="Helvetica,sans-Serif" font-size="11.00" fill="#000000">staff_id</text>
<polygon fill="#ffffff" stroke="transparent" points="284.5,-267.7 284.5,-289.7 464.5,-289.7 464.5,-267.7 284.5,-267.7"/>
<polygon fill="none" stroke="#000000" points="284.5,-267.7 284.5,-289.7 464.5,-289.7 464.5,-267.7 284.5,-267.7"/>
<text text-anchor="start" x="307.5" y="-274.8" font-family="Helvetica,sans-Serif" font-size="11.00" fill="#000000">assigned_date_time</text>
<polygon fill="#ffffff" stroke="transparent" points="284.5,-245.7 284.5,-267.7 464.5,-267.7 464.5,-245.7 284.5,-245.7"/>
<polygon fill="none" stroke="#000000" points="284.5,-245.7 284.5,-267.7 464.5,-267.7 464.5,-245.7 284.5,-245.7"/>
<image xlink:href="../../images/foreignKeys.png" width="11px" height="12px" preserveAspectRatio="xMinYMin meet" x="289.5" y="-262.7"/>
<text text-anchor="start" x="307.5" y="-252.8" font-family="Helvetica,sans-Serif" font-size="11.00" fill="#000000">prison_id</text>
<polygon fill="none" stroke="#000000" points="284.5,-223.7 284.5,-245.7 464.5,-245.7 464.5,-223.7 284.5,-223.7"/>
<image xlink:href="../../images/foreignKeys.png" width="11px" height="12px" preserveAspectRatio="xMinYMin meet" x="289.5" y="-240.7"/>
<text text-anchor="start" x="307.5" y="-230.8" font-family="Helvetica,sans-Serif" font-size="11.00" fill="#000000">allocation_reason_id</text>
<polygon fill="none" stroke="#000000" points="284.5,-201.7 284.5,-223.7 464.5,-223.7 464.5,-201.7 284.5,-201.7"/>
<image xlink:href="../../images/foreignKeys.png" width="11px" height="12px" preserveAspectRatio="xMinYMin meet" x="289.5" y="-218.7"/>
<text text-anchor="start" x="307.5" y="-208.8" font-family="Helvetica,sans-Serif" font-size="11.00" fill="#000000">deallocation_reason_id</text>
<polygon fill="none" stroke="#000000" points="284.5,-182.7 284.5,-201.7 464.5,-201.7 464.5,-182.7 284.5,-182.7"/>
<text text-anchor="start" x="287.5" y="-188.8" font-family="Helvetica,sans-Serif" font-size="11.00" fill="#000000">...</text>
<polygon fill="#ffffff" stroke="transparent" points="284.5,-163.7 284.5,-182.7 372.5,-182.7 372.5,-163.7 284.5,-163.7"/>
<polygon fill="none" stroke="#000000" points="284.5,-163.7 284.5,-182.7 372.5,-182.7 372.5,-163.7 284.5,-163.7"/>
<text text-anchor="start" x="287.5" y="-169.8" font-family="Helvetica,sans-Serif" font-size="11.00" fill="#000000">&lt; 3</text>
<polygon fill="#ffffff" stroke="transparent" points="372.5,-163.7 372.5,-182.7 418.5,-182.7 418.5,-163.7 372.5,-163.7"/>
<polygon fill="none" stroke="#000000" points="372.5,-163.7 372.5,-182.7 418.5,-182.7 418.5,-163.7 372.5,-163.7"/>
<text text-anchor="start" x="409.3862" y="-169.8" font-family="Helvetica,sans-Serif" font-size="11.00" fill="#000000"> &#160;</text>
<polygon fill="#ffffff" stroke="transparent" points="418.5,-163.7 418.5,-182.7 464.5,-182.7 464.5,-163.7 418.5,-163.7"/>
<polygon fill="none" stroke="#000000" points="418.5,-163.7 418.5,-182.7 464.5,-182.7 464.5,-163.7 418.5,-163.7"/>
<text text-anchor="start" x="455.3862" y="-169.8" font-family="Helvetica,sans-Serif" font-size="11.00" fill="#000000"> &#160;</text>
</a>
</g>
</g>
<!-- offender_key_worker&#45;&gt;reference_data -->
<g id="edge2" class="edge">
<title>offender_key_worker:w&#45;&gt;reference_data:e</title>
<path fill="none" stroke="#000000" d="M270.3373,-231.6075C250.4468,-221.748 248.8006,-191.7 220,-191.7"/>
<polygon fill="#000000" stroke="#000000" points="276.6841,-232.9934 283.732,-238.2171 280.5921,-233.8467 284.5,-234.7 284.5,-234.7 284.5,-234.7 280.5921,-233.8467 285.268,-231.1829 276.6841,-232.9934 276.6841,-232.9934"/>
<ellipse fill="none" stroke="#000000" cx="273.5578" cy="-232.3107" rx="3.2" ry="3.2"/>
</g>
<!-- offender_key_worker&#45;&gt;reference_data -->
<g id="edge3" class="edge">
<title>offender_key_worker:w&#45;&gt;reference_data:e</title>
<path fill="none" stroke="#000000" d="M270.1975,-210.8364C251.9339,-205.6969 244.6128,-191.7 220,-191.7"/>
<polygon fill="#000000" stroke="#000000" points="276.5671,-211.6663 284.0348,-216.2698 280.5335,-212.1831 284.5,-212.7 284.5,-212.7 284.5,-212.7 280.5335,-212.1831 284.9652,-209.1302 276.5671,-211.6663 276.5671,-211.6663"/>
<ellipse fill="none" stroke="#000000" cx="273.3939" cy="-211.2528" rx="3.2" ry="3.2"/>
</g>
<!-- prison_supported -->
<g id="node4" class="node">
<title>prison_supported</title>
<g id="a_node4"><a xlink:href="../../tables/prison_supported.html" xlink:title="prison_supported" target="_top">
<polygon fill="#ffffff" stroke="transparent" points="36.5,-249.2 36.5,-310.2 193.5,-310.2 193.5,-249.2 36.5,-249.2"/>
<polygon fill="#f5f5f5" stroke="transparent" points="37,-286.7 37,-309.7 194,-309.7 194,-286.7 37,-286.7"/>
<polygon fill="none" stroke="#000000" points="37,-286.7 37,-309.7 194,-309.7 194,-286.7 37,-286.7"/>
<text text-anchor="start" x="42" y="-295.3" font-family="Helvetica,sans-Serif" font-weight="bold" font-size="11.00" fill="#000000">prison_supported</text>
<text text-anchor="start" x="159.5219" y="-294.8" font-family="Helvetica,sans-Serif" font-size="11.00" fill="#000000">[table]</text>
<polygon fill="none" stroke="#000000" points="37,-267.7 37,-286.7 194,-286.7 194,-267.7 37,-267.7"/>
<text text-anchor="start" x="40" y="-273.8" font-family="Helvetica,sans-Serif" font-size="11.00" fill="#000000">...</text>
<polygon fill="#ffffff" stroke="transparent" points="37,-248.7 37,-267.7 105,-267.7 105,-248.7 37,-248.7"/>
<polygon fill="none" stroke="#000000" points="37,-248.7 37,-267.7 105,-267.7 105,-248.7 37,-248.7"/>
<text text-anchor="start" x="40" y="-254.8" font-family="Helvetica,sans-Serif" font-size="11.00" fill="#000000"> &#160;</text>
<polygon fill="#ffffff" stroke="transparent" points="105,-248.7 105,-267.7 145,-267.7 145,-248.7 105,-248.7"/>
<polygon fill="none" stroke="#000000" points="105,-248.7 105,-267.7 145,-267.7 145,-248.7 105,-248.7"/>
<text text-anchor="start" x="135.8862" y="-254.8" font-family="Helvetica,sans-Serif" font-size="11.00" fill="#000000"> &#160;</text>
<polygon fill="#ffffff" stroke="transparent" points="145,-248.7 145,-267.7 194,-267.7 194,-248.7 145,-248.7"/>
<polygon fill="none" stroke="#000000" points="145,-248.7 145,-267.7 194,-267.7 194,-248.7 145,-248.7"/>
<text text-anchor="start" x="175.4053" y="-254.8" font-family="Helvetica,sans-Serif" font-size="11.00" fill="#000000">2 &gt;</text>
</a>
</g>
</g>
<!-- offender_key_worker&#45;&gt;prison_supported -->
<g id="edge4" class="edge">
<title>offender_key_worker:w&#45;&gt;prison_supported:e</title>
<path fill="none" stroke="#000000" stroke-dasharray="5,2" d="M270.0773,-257.6113C240.6656,-261.5239 229.8827,-276.7 194,-276.7"/>
<polygon fill="#000000" stroke="#000000" points="276.5159,-257.2045 284.727,-260.2928 280.508,-256.9523 284.5,-256.7 284.5,-256.7 284.5,-256.7 280.508,-256.9523 284.273,-253.1072 276.5159,-257.2045 276.5159,-257.2045"/>
<ellipse fill="none" stroke="#000000" cx="273.3223" cy="-257.4064" rx="3.2" ry="3.2"/>
</g>
</g>
</svg>
