<?xml version="1.0" encoding="UTF-8" standalone="no"?>
<!DOCTYPE svg PUBLIC "-//W3C//DTD SVG 1.1//EN"
 "http://www.w3.org/Graphics/SVG/1.1/DTD/svg11.dtd">
<!-- Generated by graphviz version 2.40.1 (20161225.0304)
 -->
<!-- Title: oneDegreeRelationshipsDiagramImplied Pages: 1 -->
<svg width="494pt" height="441pt"
 viewBox="0.00 0.00 494.00 440.70" xmlns="http://www.w3.org/2000/svg" xmlns:xlink="http://www.w3.org/1999/xlink">
<g id="graph0" class="graph" transform="scale(1 1) rotate(0) translate(4 436.7)">
<title>oneDegreeRelationshipsDiagramImplied</title>
<polygon fill="#ffffff" stroke="transparent" points="-4,4 -4,-436.7 490,-436.7 490,4 -4,4"/>
<text text-anchor="middle" x="72.4936" y="-7.3" font-family="Helvetica,sans-Serif" font-size="11.00" fill="#000000">Generated by SchemaSpy</text>
<!-- keyworker_configuration -->
<g id="node1" class="node">
<title>keyworker_configuration</title>
<g id="a_node1"><a xlink:href="../../tables/keyworker_configuration.html" xlink:title="keyworker_configuration" target="_top">
<polygon fill="#ffffff" stroke="transparent" points="271,-323.7 271,-428.7 478,-428.7 478,-323.7 271,-323.7"/>
<polygon fill="#f5f5f5" stroke="transparent" points="271.5,-405.2 271.5,-428.2 478.5,-428.2 478.5,-405.2 271.5,-405.2"/>
<polygon fill="none" stroke="#000000" points="271.5,-405.2 271.5,-428.2 478.5,-428.2 478.5,-405.2 271.5,-405.2"/>
<text text-anchor="start" x="276.5" y="-413.8" font-family="Helvetica,sans-Serif" font-weight="bold" font-size="11.00" fill="#000000">keyworker_configuration</text>
<text text-anchor="start" x="444.0219" y="-413.3" font-family="Helvetica,sans-Serif" font-size="11.00" fill="#000000">[table]</text>
<polygon fill="none" stroke="#000000" points="271.5,-383.2 271.5,-405.2 478.5,-405.2 478.5,-383.2 271.5,-383.2"/>
<image xlink:href="../../images/primaryKeys.png" width="11px" height="12px" preserveAspectRatio="xMinYMin meet" x="276.5" y="-400.2"/>
<text text-anchor="start" x="300.5" y="-390.3" font-family="Helvetica,sans-Serif" font-size="11.00" fill="#000000">staff_id</text>
<polygon fill="none" stroke="#000000" points="271.5,-361.2 271.5,-383.2 478.5,-383.2 478.5,-361.2 271.5,-361.2"/>
<image xlink:href="../../images/foreignKeys.png" width="11px" height="12px" preserveAspectRatio="xMinYMin meet" x="276.5" y="-378.2"/>
<text text-anchor="start" x="300.5" y="-368.3" font-family="Helvetica,sans-Serif" font-size="11.00" fill="#000000">status_id</text>
<polygon fill="none" stroke="#000000" points="271.5,-342.2 271.5,-361.2 478.5,-361.2 478.5,-342.2 271.5,-342.2"/>
<text text-anchor="start" x="274.5" y="-348.3" font-family="Helvetica,sans-Serif" font-size="11.00" fill="#000000">...</text>
<polygon fill="#ffffff" stroke="transparent" points="271.5,-323.2 271.5,-342.2 373.5,-342.2 373.5,-323.2 271.5,-323.2"/>
<polygon fill="none" stroke="#000000" points="271.5,-323.2 271.5,-342.2 373.5,-342.2 373.5,-323.2 271.5,-323.2"/>
<text text-anchor="start" x="274.5" y="-329.3" font-family="Helvetica,sans-Serif" font-size="11.00" fill="#000000">&lt; 1</text>
<polygon fill="#ffffff" stroke="transparent" points="373.5,-323.2 373.5,-342.2 425.5,-342.2 425.5,-323.2 373.5,-323.2"/>
<polygon fill="none" stroke="#000000" points="373.5,-323.2 373.5,-342.2 425.5,-342.2 425.5,-323.2 373.5,-323.2"/>
<text text-anchor="start" x="416.3862" y="-329.3" font-family="Helvetica,sans-Serif" font-size="11.00" fill="#000000"> &#160;</text>
<polygon fill="#ffffff" stroke="transparent" points="425.5,-323.2 425.5,-342.2 478.5,-342.2 478.5,-323.2 425.5,-323.2"/>
<polygon fill="none" stroke="#000000" points="425.5,-323.2 425.5,-342.2 478.5,-342.2 478.5,-323.2 425.5,-323.2"/>
<text text-anchor="start" x="469.3862" y="-329.3" font-family="Helvetica,sans-Serif" font-size="11.00" fill="#000000"> &#160;</text>
</a>
</g>
</g>
<!-- reference_data -->
<g id="node2" class="node">
<title>reference_data</title>
<g id="a_node2"><a xlink:href="../../tables/reference_data.html" xlink:title="reference_data" target="_top">
<polygon fill="#ffffff" stroke="transparent" points="8,-38.2 8,-194.2 222,-194.2 222,-38.2 8,-38.2"/>
<polygon fill="#f5f5f5" stroke="transparent" points="10,-169.2 10,-192.2 220,-192.2 220,-169.2 10,-169.2"/>
<polygon fill="none" stroke="#000000" points="10,-169.2 10,-192.2 220,-192.2 220,-169.2 10,-169.2"/>
<text text-anchor="start" x="15" y="-177.8" font-family="Helvetica,sans-Serif" font-weight="bold" font-size="11.00" fill="#000000">reference_data</text>
<text text-anchor="start" x="185.0437" y="-177.3" font-family="Helvetica,sans-Serif" font-size="11.00" fill="#000000">[table]</text>
<polygon fill="none" stroke="#000000" points="10,-147.2 10,-169.2 153,-169.2 153,-147.2 10,-147.2"/>
<image xlink:href="../../images/primaryKeys.png" width="11px" height="12px" preserveAspectRatio="xMinYMin meet" x="15" y="-164.2"/>
<text text-anchor="start" x="30" y="-154.3" font-family="Helvetica,sans-Serif" font-size="11.00" fill="#000000">id</text>
<polygon fill="none" stroke="#000000" points="153,-147.2 153,-169.2 220,-169.2 220,-147.2 153,-147.2"/>
<text text-anchor="start" x="156" y="-154.9" font-family="Helvetica,sans-Serif" font-size="11.00" fill="#000000">bigserial[19]</text>
<polygon fill="#ffffff" stroke="transparent" points="10,-125.2 10,-147.2 153,-147.2 153,-125.2 10,-125.2"/>
<polygon fill="none" stroke="#000000" points="10,-125.2 10,-147.2 153,-147.2 153,-125.2 10,-125.2"/>
<text text-anchor="start" x="30" y="-132.3" font-family="Helvetica,sans-Serif" font-size="11.00" fill="#000000">domain</text>
<polygon fill="none" stroke="#000000" points="153,-125.2 153,-147.2 220,-147.2 220,-125.2 153,-125.2"/>
<text text-anchor="start" x="156" y="-132.9" font-family="Helvetica,sans-Serif" font-size="11.00" fill="#000000">varchar[32]</text>
<polygon fill="#ffffff" stroke="transparent" points="10,-103.2 10,-125.2 153,-125.2 153,-103.2 10,-103.2"/>
<polygon fill="none" stroke="#000000" points="10,-103.2 10,-125.2 153,-125.2 153,-103.2 10,-103.2"/>
<text text-anchor="start" x="30" y="-110.3" font-family="Helvetica,sans-Serif" font-size="11.00" fill="#000000">code</text>
<polygon fill="none" stroke="#000000" points="153,-103.2 153,-125.2 220,-125.2 220,-103.2 153,-103.2"/>
<text text-anchor="start" x="156" y="-110.9" font-family="Helvetica,sans-Serif" font-size="11.00" fill="#000000">varchar[32]</text>
<polygon fill="none" stroke="#000000" points="10,-81.2 10,-103.2 153,-103.2 153,-81.2 10,-81.2"/>
<text text-anchor="start" x="30" y="-88.3" font-family="Helvetica,sans-Serif" font-size="11.00" fill="#000000">description</text>
<polygon fill="none" stroke="#000000" points="153,-81.2 153,-103.2 220,-103.2 220,-81.2 153,-81.2"/>
<text text-anchor="start" x="155.9365" y="-88.9" font-family="Helvetica,sans-Serif" font-size="11.00" fill="#000000">varchar[128]</text>
<polygon fill="#ffffff" stroke="transparent" points="10,-59.2 10,-81.2 153,-81.2 153,-59.2 10,-59.2"/>
<polygon fill="none" stroke="#000000" points="10,-59.2 10,-81.2 153,-81.2 153,-59.2 10,-59.2"/>
<text text-anchor="start" x="30" y="-66.3" font-family="Helvetica,sans-Serif" font-size="11.00" fill="#000000">sequence_number</text>
<polygon fill="none" stroke="#000000" points="153,-59.2 153,-81.2 220,-81.2 220,-59.2 153,-59.2"/>
<text text-anchor="start" x="156" y="-66.9" font-family="Helvetica,sans-Serif" font-size="11.00" fill="#000000">int4[10]</text>
<polygon fill="#ffffff" stroke="transparent" points="10,-40.2 10,-59.2 86,-59.2 86,-40.2 10,-40.2"/>
<polygon fill="none" stroke="#000000" points="10,-40.2 10,-59.2 86,-59.2 86,-40.2 10,-40.2"/>
<text text-anchor="start" x="13" y="-46.3" font-family="Helvetica,sans-Serif" font-size="11.00" fill="#000000">&lt; 0</text>
<polygon fill="#ffffff" stroke="transparent" points="86,-40.2 86,-59.2 153,-59.2 153,-40.2 86,-40.2"/>
<polygon fill="none" stroke="#000000" points="86,-40.2 86,-59.2 153,-59.2 153,-40.2 86,-40.2"/>
<text text-anchor="start" x="143.8862" y="-46.3" font-family="Helvetica,sans-Serif" font-size="11.00" fill="#000000"> &#160;</text>
<polygon fill="#ffffff" stroke="transparent" points="153,-40.2 153,-59.2 220,-59.2 220,-40.2 153,-40.2"/>
<polygon fill="none" stroke="#000000" points="153,-40.2 153,-59.2 220,-59.2 220,-40.2 153,-40.2"/>
<text text-anchor="start" x="201.4053" y="-46.3" font-family="Helvetica,sans-Serif" font-size="11.00" fill="#000000">3 &gt;</text>
<polygon fill="none" stroke="#000000" stroke-width="2" points="9,-39.2 9,-193.2 221,-193.2 221,-39.2 9,-39.2"/>
</a>
</g>
</g>
<!-- keyworker_configuration&#45;&gt;reference_data -->
<g id="edge1" class="edge">
<title>keyworker_configuration:w&#45;&gt;reference_data:e</title>
<path fill="none" stroke="#000000" d="M257.1181,-370.2181C189.227,-348.6444 312.2855,-158.2 220,-158.2"/>
<polygon fill="#000000" stroke="#000000" points="263.5749,-371.1078 271.0085,-375.7663 267.5374,-371.6539 271.5,-372.2 271.5,-372.2 271.5,-372.2 267.5374,-371.6539 271.9915,-368.6337 263.5749,-371.1078 263.5749,-371.1078"/>
<ellipse fill="none" stroke="#000000" cx="260.4049" cy="-370.671" rx="3.2" ry="3.2"/>
</g>
<!-- offender_key_worker -->
<g id="node3" class="node">
<title>offender_key_worker</title>
<g id="a_node3"><a xlink:href="../../tables/offender_key_worker.html" xlink:title="offender_key_worker" target="_top">
<polygon fill="#ffffff" stroke="transparent" points="284.5,-87.7 284.5,-302.7 464.5,-302.7 464.5,-87.7 284.5,-87.7"/>
<polygon fill="#f5f5f5" stroke="transparent" points="284.5,-279.2 284.5,-302.2 464.5,-302.2 464.5,-279.2 284.5,-279.2"/>
<polygon fill="none" stroke="#000000" points="284.5,-279.2 284.5,-302.2 464.5,-302.2 464.5,-279.2 284.5,-279.2"/>
<text text-anchor="start" x="289.5" y="-287.8" font-family="Helvetica,sans-Serif" font-weight="bold" font-size="11.00" fill="#000000">offender_key_worker</text>
<text text-anchor="start" x="430.0219" y="-287.3" font-family="Helvetica,sans-Serif" font-size="11.00" fill="#000000">[table]</text>
<polygon fill="none" stroke="#000000" points="284.5,-257.2 284.5,-279.2 464.5,-279.2 464.5,-257.2 284.5,-257.2"/>
<image xlink:href="../../images/primaryKeys.png" width="11px" height="12px" preserveAspectRatio="xMinYMin meet" x="289.5" y="-274.2"/>
<text text-anchor="start" x="307.5" y="-264.3" font-family="Helvetica,sans-Serif" font-size="11.00" fill="#000000">offender_keyworker_id</text>
<polygon fill="#ffffff" stroke="transparent" points="284.5,-235.2 284.5,-257.2 464.5,-257.2 464.5,-235.2 284.5,-235.2"/>
<polygon fill="none" stroke="#000000" points="284.5,-235.2 284.5,-257.2 464.5,-257.2 464.5,-235.2 284.5,-235.2"/>
<text text-anchor="start" x="307.5" y="-242.3" font-family="Helvetica,sans-Serif" font-size="11.00" fill="#000000">offender_no</text>
<polygon fill="#ffffff" stroke="transparent" points="284.5,-213.2 284.5,-235.2 464.5,-235.2 464.5,-213.2 284.5,-213.2"/>
<polygon fill="none" stroke="#000000" points="284.5,-213.2 284.5,-235.2 464.5,-235.2 464.5,-213.2 284.5,-213.2"/>
<text text-anchor="start" x="307.5" y="-220.3" font-family="Helvetica,sans-Serif" font-size="11.00" fill="#000000">staff_id</text>
<polygon fill="#ffffff" stroke="transparent" points="284.5,-191.2 284.5,-213.2 464.5,-213.2 464.5,-191.2 284.5,-191.2"/>
<polygon fill="none" stroke="#000000" points="284.5,-191.2 284.5,-213.2 464.5,-213.2 464.5,-191.2 284.5,-191.2"/>
<text text-anchor="start" x="307.5" y="-198.3" font-family="Helvetica,sans-Serif" font-size="11.00" fill="#000000">assigned_date_time</text>
<polygon fill="#ffffff" stroke="transparent" points="284.5,-169.2 284.5,-191.2 464.5,-191.2 464.5,-169.2 284.5,-169.2"/>
<polygon fill="none" stroke="#000000" points="284.5,-169.2 284.5,-191.2 464.5,-191.2 464.5,-169.2 284.5,-169.2"/>
<image xlink:href="../../images/foreignKeys.png" width="11px" height="12px" preserveAspectRatio="xMinYMin meet" x="289.5" y="-186.2"/>
<text text-anchor="start" x="307.5" y="-176.3" font-family="Helvetica,sans-Serif" font-size="11.00" fill="#000000">prison_id</text>
<polygon fill="none" stroke="#000000" points="284.5,-147.2 284.5,-169.2 464.5,-169.2 464.5,-147.2 284.5,-147.2"/>
<image xlink:href="../../images/foreignKeys.png" width="11px" height="12px" preserveAspectRatio="xMinYMin meet" x="289.5" y="-164.2"/>
<text text-anchor="start" x="307.5" y="-154.3" font-family="Helvetica,sans-Serif" font-size="11.00" fill="#000000">allocation_reason_id</text>
<polygon fill="none" stroke="#000000" points="284.5,-125.2 284.5,-147.2 464.5,-147.2 464.5,-125.2 284.5,-125.2"/>
<image xlink:href="../../images/foreignKeys.png" width="11px" height="12px" preserveAspectRatio="xMinYMin meet" x="289.5" y="-142.2"/>
<text text-anchor="start" x="307.5" y="-132.3" font-family="Helvetica,sans-Serif" font-size="11.00" fill="#000000">deallocation_reason_id</text>
<polygon fill="none" stroke="#000000" points="284.5,-106.2 284.5,-125.2 464.5,-125.2 464.5,-106.2 284.5,-106.2"/>
<text text-anchor="start" x="287.5" y="-112.3" font-family="Helvetica,sans-Serif" font-size="11.00" fill="#000000">...</text>
<polygon fill="#ffffff" stroke="transparent" points="284.5,-87.2 284.5,-106.2 372.5,-106.2 372.5,-87.2 284.5,-87.2"/>
<polygon fill="none" stroke="#000000" points="284.5,-87.2 284.5,-106.2 372.5,-106.2 372.5,-87.2 284.5,-87.2"/>
<text text-anchor="start" x="287.5" y="-93.3" font-family="Helvetica,sans-Serif" font-size="11.00" fill="#000000">&lt; 2</text>
<polygon fill="#ffffff" stroke="transparent" points="372.5,-87.2 372.5,-106.2 418.5,-106.2 418.5,-87.2 372.5,-87.2"/>
<polygon fill="none" stroke="#000000" points="372.5,-87.2 372.5,-106.2 418.5,-106.2 418.5,-87.2 372.5,-87.2"/>
<text text-anchor="start" x="409.3862" y="-93.3" font-family="Helvetica,sans-Serif" font-size="11.00" fill="#000000"> &#160;</text>
<polygon fill="#ffffff" stroke="transparent" points="418.5,-87.2 418.5,-106.2 464.5,-106.2 464.5,-87.2 418.5,-87.2"/>
<polygon fill="none" stroke="#000000" points="418.5,-87.2 418.5,-106.2 464.5,-106.2 464.5,-87.2 418.5,-87.2"/>
<text text-anchor="start" x="455.3862" y="-93.3" font-family="Helvetica,sans-Serif" font-size="11.00" fill="#000000"> &#160;</text>
</a>
</g>
</g>
<!-- offender_key_worker&#45;&gt;reference_data -->
<g id="edge2" class="edge">
<title>offender_key_worker:w&#45;&gt;reference_data:e</title>
<path fill="none" stroke="#000000" d="M269.8432,-158.2C252.2137,-158.2 243.0677,-158.2 220,-158.2"/>
<polygon fill="#000000" stroke="#000000" points="276.5,-158.2001 284.5,-161.8 280.5,-158.2 284.5,-158.2 284.5,-158.2 284.5,-158.2 280.5,-158.2 284.5,-154.6 276.5,-158.2001 276.5,-158.2001"/>
<ellipse fill="none" stroke="#000000" cx="273.3" cy="-158.2001" rx="3.2" ry="3.2"/>
</g>
<!-- offender_key_worker&#45;&gt;reference_data -->
<g id="edge3" class="edge">
<title>offender_key_worker:w&#45;&gt;reference_data:e</title>
<path fill="none" stroke="#000000" d="M270.1575,-138.1524C251.8824,-143.5366 244.7276,-158.2 220,-158.2"/>
<polygon fill="#000000" stroke="#000000" points="276.5731,-137.2791 284.9856,-139.7671 280.5366,-136.7395 284.5,-136.2 284.5,-136.2 284.5,-136.2 280.5366,-136.7395 284.0144,-132.6329 276.5731,-137.2791 276.5731,-137.2791"/>
<ellipse fill="none" stroke="#000000" cx="273.4023" cy="-137.7107" rx="3.2" ry="3.2"/>
</g>
</g>
</svg>
