<?xml version="1.0" encoding="UTF-8" standalone="no"?>
<!DOCTYPE svg PUBLIC "-//W3C//DTD SVG 1.1//EN"
 "http://www.w3.org/Graphics/SVG/1.1/DTD/svg11.dtd">
<!-- Generated by graphviz version 2.40.1 (20161225.0304)
 -->
<!-- Title: oneDegreeRelationshipsDiagram Pages: 1 -->
<svg width="473pt" height="863pt"
 viewBox="0.00 0.00 473.00 863.20" xmlns="http://www.w3.org/2000/svg" xmlns:xlink="http://www.w3.org/1999/xlink">
<g id="graph0" class="graph" transform="scale(1 1) rotate(0) translate(4 859.2)">
<title>oneDegreeRelationshipsDiagram</title>
<polygon fill="#ffffff" stroke="transparent" points="-4,4 -4,-859.2 469,-859.2 469,4 -4,4"/>
<text text-anchor="middle" x="72.4936" y="-7.3" font-family="Helvetica,sans-Serif" font-size="11.00" fill="#000000">Generated by SchemaSpy</text>
<!-- allocation -->
<g id="node1" class="node">
<title>allocation</title>
<g id="a_node1"><a xlink:href="../../tables/allocation.html" xlink:title="allocation" target="_top">
<polygon fill="#ffffff" stroke="transparent" points="277,-592.2 277,-851.2 451,-851.2 451,-592.2 277,-592.2"/>
<polygon fill="#f5f5f5" stroke="transparent" points="277,-827.7 277,-850.7 451,-850.7 451,-827.7 277,-827.7"/>
<polygon fill="none" stroke="#000000" points="277,-827.7 277,-850.7 451,-850.7 451,-827.7 277,-827.7"/>
<text text-anchor="start" x="282" y="-836.3" font-family="Helvetica,sans-Serif" font-weight="bold" font-size="11.00" fill="#000000">allocation</text>
<text text-anchor="start" x="416.0437" y="-835.8" font-family="Helvetica,sans-Serif" font-size="11.00" fill="#000000">[table]</text>
<polygon fill="none" stroke="#000000" points="277,-805.7 277,-827.7 451,-827.7 451,-805.7 277,-805.7"/>
<image xlink:href="../../images/primaryKeys.png" width="11px" height="12px" preserveAspectRatio="xMinYMin meet" x="282" y="-822.7"/>
<text text-anchor="start" x="297" y="-812.8" font-family="Helvetica,sans-Serif" font-size="11.00" fill="#000000">id</text>
<polygon fill="#ffffff" stroke="transparent" points="277,-783.7 277,-805.7 451,-805.7 451,-783.7 277,-783.7"/>
<polygon fill="none" stroke="#000000" points="277,-783.7 277,-805.7 451,-805.7 451,-783.7 277,-783.7"/>
<image xlink:href="../../images/foreignKeys.png" width="11px" height="12px" preserveAspectRatio="xMinYMin meet" x="282" y="-800.7"/>
<text text-anchor="start" x="297" y="-790.8" font-family="Helvetica,sans-Serif" font-size="11.00" fill="#000000">prison_code</text>
<polygon fill="#ffffff" stroke="transparent" points="277,-761.7 277,-783.7 451,-783.7 451,-761.7 277,-761.7"/>
<polygon fill="none" stroke="#000000" points="277,-761.7 277,-783.7 451,-783.7 451,-761.7 277,-761.7"/>
<text text-anchor="start" x="297" y="-768.8" font-family="Helvetica,sans-Serif" font-size="11.00" fill="#000000">staff_id</text>
<polygon fill="#ffffff" stroke="transparent" points="277,-739.7 277,-761.7 451,-761.7 451,-739.7 277,-739.7"/>
<polygon fill="none" stroke="#000000" points="277,-739.7 277,-761.7 451,-761.7 451,-739.7 277,-739.7"/>
<text text-anchor="start" x="297" y="-746.8" font-family="Helvetica,sans-Serif" font-size="11.00" fill="#000000">person_identifier</text>
<polygon fill="#ffffff" stroke="transparent" points="277,-717.7 277,-739.7 451,-739.7 451,-717.7 277,-717.7"/>
<polygon fill="none" stroke="#000000" points="277,-717.7 277,-739.7 451,-739.7 451,-717.7 277,-717.7"/>
<text text-anchor="start" x="297" y="-724.8" font-family="Helvetica,sans-Serif" font-size="11.00" fill="#000000">allocated_at</text>
<polygon fill="none" stroke="#000000" points="277,-695.7 277,-717.7 451,-717.7 451,-695.7 277,-695.7"/>
<image xlink:href="../../images/foreignKeys.png" width="11px" height="12px" preserveAspectRatio="xMinYMin meet" x="282" y="-712.7"/>
<text text-anchor="start" x="297" y="-702.8" font-family="Helvetica,sans-Serif" font-size="11.00" fill="#000000">allocation_reason_id</text>
<polygon fill="#ffffff" stroke="transparent" points="277,-673.7 277,-695.7 451,-695.7 451,-673.7 277,-673.7"/>
<polygon fill="none" stroke="#000000" points="277,-673.7 277,-695.7 451,-695.7 451,-673.7 277,-673.7"/>
<text text-anchor="start" x="297" y="-680.8" font-family="Helvetica,sans-Serif" font-size="11.00" fill="#000000">deallocated_at</text>
<polygon fill="none" stroke="#000000" points="277,-651.7 277,-673.7 451,-673.7 451,-651.7 277,-651.7"/>
<image xlink:href="../../images/foreignKeys.png" width="11px" height="12px" preserveAspectRatio="xMinYMin meet" x="282" y="-668.7"/>
<text text-anchor="start" x="297" y="-658.8" font-family="Helvetica,sans-Serif" font-size="11.00" fill="#000000">deallocation_reason_id</text>
<polygon fill="#ffffff" stroke="transparent" points="277,-629.7 277,-651.7 451,-651.7 451,-629.7 277,-629.7"/>
<polygon fill="none" stroke="#000000" points="277,-629.7 277,-651.7 451,-651.7 451,-629.7 277,-629.7"/>
<image xlink:href="../../images/foreignKeys.png" width="11px" height="12px" preserveAspectRatio="xMinYMin meet" x="282" y="-646.7"/>
<text text-anchor="start" x="297" y="-636.8" font-family="Helvetica,sans-Serif" font-size="11.00" fill="#000000">policy_code</text>
<polygon fill="none" stroke="#000000" points="277,-610.7 277,-629.7 451,-629.7 451,-610.7 277,-610.7"/>
<text text-anchor="start" x="280" y="-616.8" font-family="Helvetica,sans-Serif" font-size="11.00" fill="#000000">...</text>
<polygon fill="#ffffff" stroke="transparent" points="277,-591.7 277,-610.7 362,-610.7 362,-591.7 277,-591.7"/>
<polygon fill="none" stroke="#000000" points="277,-591.7 277,-610.7 362,-610.7 362,-591.7 277,-591.7"/>
<text text-anchor="start" x="280" y="-597.8" font-family="Helvetica,sans-Serif" font-size="11.00" fill="#000000">&lt; 3</text>
<polygon fill="#ffffff" stroke="transparent" points="362,-591.7 362,-610.7 406,-610.7 406,-591.7 362,-591.7"/>
<polygon fill="none" stroke="#000000" points="362,-591.7 362,-610.7 406,-610.7 406,-591.7 362,-591.7"/>
<text text-anchor="start" x="396.8862" y="-597.8" font-family="Helvetica,sans-Serif" font-size="11.00" fill="#000000"> &#160;</text>
<polygon fill="#ffffff" stroke="transparent" points="406,-591.7 406,-610.7 451,-610.7 451,-591.7 406,-591.7"/>
<polygon fill="none" stroke="#000000" points="406,-591.7 406,-610.7 451,-610.7 451,-591.7 406,-591.7"/>
<text text-anchor="start" x="441.8862" y="-597.8" font-family="Helvetica,sans-Serif" font-size="11.00" fill="#000000"> &#160;</text>
</a>
</g>
</g>
<!-- reference_data -->
<g id="node2" class="node">
<title>reference_data</title>
<g id="a_node2"><a xlink:href="../../tables/reference_data.html" xlink:title="reference_data" target="_top">
<polygon fill="#ffffff" stroke="transparent" points="8,-262.7 8,-418.7 222,-418.7 222,-262.7 8,-262.7"/>
<polygon fill="#f5f5f5" stroke="transparent" points="10,-393.7 10,-416.7 220,-416.7 220,-393.7 10,-393.7"/>
<polygon fill="none" stroke="#000000" points="10,-393.7 10,-416.7 220,-416.7 220,-393.7 10,-393.7"/>
<text text-anchor="start" x="15" y="-402.3" font-family="Helvetica,sans-Serif" font-weight="bold" font-size="11.00" fill="#000000">reference_data</text>
<text text-anchor="start" x="185.0437" y="-401.8" font-family="Helvetica,sans-Serif" font-size="11.00" fill="#000000">[table]</text>
<polygon fill="none" stroke="#000000" points="10,-371.7 10,-393.7 153,-393.7 153,-371.7 10,-371.7"/>
<image xlink:href="../../images/primaryKeys.png" width="11px" height="12px" preserveAspectRatio="xMinYMin meet" x="15" y="-388.7"/>
<text text-anchor="start" x="30" y="-378.8" font-family="Helvetica,sans-Serif" font-size="11.00" fill="#000000">id</text>
<polygon fill="none" stroke="#000000" points="153,-371.7 153,-393.7 220,-393.7 220,-371.7 153,-371.7"/>
<text text-anchor="start" x="156" y="-379.4" font-family="Helvetica,sans-Serif" font-size="11.00" fill="#000000">bigserial[19]</text>
<polygon fill="#ffffff" stroke="transparent" points="10,-349.7 10,-371.7 153,-371.7 153,-349.7 10,-349.7"/>
<polygon fill="none" stroke="#000000" points="10,-349.7 10,-371.7 153,-371.7 153,-349.7 10,-349.7"/>
<text text-anchor="start" x="30" y="-356.8" font-family="Helvetica,sans-Serif" font-size="11.00" fill="#000000">domain</text>
<polygon fill="none" stroke="#000000" points="153,-349.7 153,-371.7 220,-371.7 220,-349.7 153,-349.7"/>
<text text-anchor="start" x="156" y="-357.4" font-family="Helvetica,sans-Serif" font-size="11.00" fill="#000000">varchar[32]</text>
<polygon fill="#ffffff" stroke="transparent" points="10,-327.7 10,-349.7 153,-349.7 153,-327.7 10,-327.7"/>
<polygon fill="none" stroke="#000000" points="10,-327.7 10,-349.7 153,-349.7 153,-327.7 10,-327.7"/>
<text text-anchor="start" x="30" y="-334.8" font-family="Helvetica,sans-Serif" font-size="11.00" fill="#000000">code</text>
<polygon fill="none" stroke="#000000" points="153,-327.7 153,-349.7 220,-349.7 220,-327.7 153,-327.7"/>
<text text-anchor="start" x="156" y="-335.4" font-family="Helvetica,sans-Serif" font-size="11.00" fill="#000000">varchar[32]</text>
<polygon fill="none" stroke="#000000" points="10,-305.7 10,-327.7 153,-327.7 153,-305.7 10,-305.7"/>
<text text-anchor="start" x="30" y="-312.8" font-family="Helvetica,sans-Serif" font-size="11.00" fill="#000000">description</text>
<polygon fill="none" stroke="#000000" points="153,-305.7 153,-327.7 220,-327.7 220,-305.7 153,-305.7"/>
<text text-anchor="start" x="155.9365" y="-313.4" font-family="Helvetica,sans-Serif" font-size="11.00" fill="#000000">varchar[128]</text>
<polygon fill="#ffffff" stroke="transparent" points="10,-283.7 10,-305.7 153,-305.7 153,-283.7 10,-283.7"/>
<polygon fill="none" stroke="#000000" points="10,-283.7 10,-305.7 153,-305.7 153,-283.7 10,-283.7"/>
<text text-anchor="start" x="30" y="-290.8" font-family="Helvetica,sans-Serif" font-size="11.00" fill="#000000">sequence_number</text>
<polygon fill="none" stroke="#000000" points="153,-283.7 153,-305.7 220,-305.7 220,-283.7 153,-283.7"/>
<text text-anchor="start" x="156" y="-291.4" font-family="Helvetica,sans-Serif" font-size="11.00" fill="#000000">int4[10]</text>
<polygon fill="#ffffff" stroke="transparent" points="10,-264.7 10,-283.7 70,-283.7 70,-264.7 10,-264.7"/>
<polygon fill="none" stroke="#000000" points="10,-264.7 10,-283.7 70,-283.7 70,-264.7 10,-264.7"/>
<text text-anchor="start" x="13" y="-270.8" font-family="Helvetica,sans-Serif" font-size="11.00" fill="#000000">&lt; 0</text>
<polygon fill="#ffffff" stroke="transparent" points="70,-264.7 70,-283.7 153,-283.7 153,-264.7 70,-264.7"/>
<polygon fill="none" stroke="#000000" points="70,-264.7 70,-283.7 153,-283.7 153,-264.7 70,-264.7"/>
<text text-anchor="start" x="111.4956" y="-270.8" font-family="Helvetica,sans-Serif" font-size="11.00" fill="#000000">60 rows</text>
<polygon fill="#ffffff" stroke="transparent" points="153,-264.7 153,-283.7 220,-283.7 220,-264.7 153,-264.7"/>
<polygon fill="none" stroke="#000000" points="153,-264.7 153,-283.7 220,-283.7 220,-264.7 153,-264.7"/>
<text text-anchor="start" x="201.4053" y="-270.8" font-family="Helvetica,sans-Serif" font-size="11.00" fill="#000000">5 &gt;</text>
<polygon fill="none" stroke="#000000" stroke-width="2" points="9,-263.7 9,-417.7 221,-417.7 221,-263.7 9,-263.7"/>
</a>
</g>
</g>
<!-- allocation&#45;&gt;reference_data -->
<g id="edge1" class="edge">
<title>allocation:w&#45;&gt;reference_data:e</title>
<path fill="none" stroke="#000000" d="M263.2722,-701.6107C216.2425,-660.391 287.6799,-382.7 220,-382.7"/>
<polygon fill="#000000" stroke="#000000" points="269.4989,-703.9191 275.7486,-710.0755 273.2494,-705.3096 277,-706.7 277,-706.7 277,-706.7 273.2494,-705.3096 278.2514,-703.3245 269.4989,-703.9191 269.4989,-703.9191"/>
<ellipse fill="none" stroke="#000000" cx="266.4984" cy="-702.8067" rx="3.2" ry="3.2"/>
</g>
<!-- allocation&#45;&gt;reference_data -->
<g id="edge2" class="edge">
<title>allocation:w&#45;&gt;reference_data:e</title>
<path fill="none" stroke="#000000" d="M263.668,-657.1069C224.3173,-617.6437 278.1655,-382.7 220,-382.7"/>
<polygon fill="#000000" stroke="#000000" points="269.6229,-659.6051 275.6073,-666.0197 273.3114,-661.1525 277,-662.7 277,-662.7 277,-662.7 273.3114,-661.1525 278.3927,-659.3803 269.6229,-659.6051 269.6229,-659.6051"/>
<ellipse fill="none" stroke="#000000" cx="266.672" cy="-658.3671" rx="3.2" ry="3.2"/>
</g>
<!-- recorded_event -->
<g id="node3" class="node">
<title>recorded_event</title>
<g id="a_node3"><a xlink:href="../../tables/recorded_event.html" xlink:title="recorded_event" target="_top">
<polygon fill="#ffffff" stroke="transparent" points="292,-334.2 292,-571.2 436,-571.2 436,-334.2 292,-334.2"/>
<polygon fill="#f5f5f5" stroke="transparent" points="292,-547.7 292,-570.7 436,-570.7 436,-547.7 292,-547.7"/>
<polygon fill="none" stroke="#000000" points="292,-547.7 292,-570.7 436,-570.7 436,-547.7 292,-547.7"/>
<text text-anchor="start" x="297" y="-556.3" font-family="Helvetica,sans-Serif" font-weight="bold" font-size="11.00" fill="#000000">recorded_event</text>
<text text-anchor="start" x="401.5219" y="-555.8" font-family="Helvetica,sans-Serif" font-size="11.00" fill="#000000">[table]</text>
<polygon fill="none" stroke="#000000" points="292,-525.7 292,-547.7 436,-547.7 436,-525.7 292,-525.7"/>
<image xlink:href="../../images/primaryKeys.png" width="11px" height="12px" preserveAspectRatio="xMinYMin meet" x="297" y="-542.7"/>
<text text-anchor="start" x="316" y="-532.8" font-family="Helvetica,sans-Serif" font-size="11.00" fill="#000000">id</text>
<polygon fill="#ffffff" stroke="transparent" points="292,-503.7 292,-525.7 436,-525.7 436,-503.7 292,-503.7"/>
<polygon fill="none" stroke="#000000" points="292,-503.7 292,-525.7 436,-525.7 436,-503.7 292,-503.7"/>
<image xlink:href="../../images/foreignKeys.png" width="11px" height="12px" preserveAspectRatio="xMinYMin meet" x="297" y="-520.7"/>
<text text-anchor="start" x="316" y="-510.8" font-family="Helvetica,sans-Serif" font-size="11.00" fill="#000000">prison_code</text>
<polygon fill="#ffffff" stroke="transparent" points="292,-481.7 292,-503.7 436,-503.7 436,-481.7 292,-481.7"/>
<polygon fill="none" stroke="#000000" points="292,-481.7 292,-503.7 436,-503.7 436,-481.7 292,-481.7"/>
<text text-anchor="start" x="316" y="-488.8" font-family="Helvetica,sans-Serif" font-size="11.00" fill="#000000">person_identifier</text>
<polygon fill="#ffffff" stroke="transparent" points="292,-459.7 292,-481.7 436,-481.7 436,-459.7 292,-459.7"/>
<polygon fill="none" stroke="#000000" points="292,-459.7 292,-481.7 436,-481.7 436,-459.7 292,-459.7"/>
<text text-anchor="start" x="316" y="-466.8" font-family="Helvetica,sans-Serif" font-size="11.00" fill="#000000">staff_id</text>
<polygon fill="#ffffff" stroke="transparent" points="292,-437.7 292,-459.7 436,-459.7 436,-437.7 292,-437.7"/>
<polygon fill="none" stroke="#000000" points="292,-437.7 292,-459.7 436,-459.7 436,-437.7 292,-437.7"/>
<text text-anchor="start" x="316" y="-444.8" font-family="Helvetica,sans-Serif" font-size="11.00" fill="#000000">occurred_at</text>
<polygon fill="#ffffff" stroke="transparent" points="292,-415.7 292,-437.7 436,-437.7 436,-415.7 292,-415.7"/>
<polygon fill="none" stroke="#000000" points="292,-415.7 292,-437.7 436,-437.7 436,-415.7 292,-415.7"/>
<text text-anchor="start" x="316" y="-422.8" font-family="Helvetica,sans-Serif" font-size="11.00" fill="#000000">created_at</text>
<polygon fill="#ffffff" stroke="transparent" points="292,-393.7 292,-415.7 436,-415.7 436,-393.7 292,-393.7"/>
<polygon fill="none" stroke="#000000" points="292,-393.7 292,-415.7 436,-415.7 436,-393.7 292,-393.7"/>
<image xlink:href="../../images/foreignKeys.png" width="11px" height="12px" preserveAspectRatio="xMinYMin meet" x="297" y="-410.7"/>
<text text-anchor="start" x="316" y="-400.8" font-family="Helvetica,sans-Serif" font-size="11.00" fill="#000000">policy_code</text>
<polygon fill="#ffffff" stroke="transparent" points="292,-371.7 292,-393.7 436,-393.7 436,-371.7 292,-371.7"/>
<polygon fill="none" stroke="#000000" points="292,-371.7 292,-393.7 436,-393.7 436,-371.7 292,-371.7"/>
<image xlink:href="../../images/foreignKeys.png" width="11px" height="12px" preserveAspectRatio="xMinYMin meet" x="297" y="-388.7"/>
<text text-anchor="start" x="316" y="-378.8" font-family="Helvetica,sans-Serif" font-size="11.00" fill="#000000">type_id</text>
<polygon fill="none" stroke="#000000" points="292,-352.7 292,-371.7 436,-371.7 436,-352.7 292,-352.7"/>
<text text-anchor="start" x="295" y="-358.8" font-family="Helvetica,sans-Serif" font-size="11.00" fill="#000000">...</text>
<polygon fill="#ffffff" stroke="transparent" points="292,-333.7 292,-352.7 362,-352.7 362,-333.7 292,-333.7"/>
<polygon fill="none" stroke="#000000" points="292,-333.7 292,-352.7 362,-352.7 362,-333.7 292,-333.7"/>
<text text-anchor="start" x="295" y="-339.8" font-family="Helvetica,sans-Serif" font-size="11.00" fill="#000000">&lt; 2</text>
<polygon fill="#ffffff" stroke="transparent" points="362,-333.7 362,-352.7 399,-352.7 399,-333.7 362,-333.7"/>
<polygon fill="none" stroke="#000000" points="362,-333.7 362,-352.7 399,-352.7 399,-333.7 362,-333.7"/>
<text text-anchor="start" x="389.8862" y="-339.8" font-family="Helvetica,sans-Serif" font-size="11.00" fill="#000000"> &#160;</text>
<polygon fill="#ffffff" stroke="transparent" points="399,-333.7 399,-352.7 436,-352.7 436,-333.7 399,-333.7"/>
<polygon fill="none" stroke="#000000" points="399,-333.7 399,-352.7 436,-352.7 436,-333.7 399,-333.7"/>
<text text-anchor="start" x="426.8862" y="-339.8" font-family="Helvetica,sans-Serif" font-size="11.00" fill="#000000"> &#160;</text>
</a>
</g>
</g>
<!-- recorded_event&#45;&gt;reference_data -->
<g id="edge3" class="edge">
<title>recorded_event:w&#45;&gt;reference_data:e</title>
<path fill="none" stroke="#000000" d="M277.3832,-382.7C256.541,-382.7 246.5,-382.7 220,-382.7"/>
<polygon fill="#000000" stroke="#000000" points="284,-382.7001 292,-386.3 288,-382.7 292,-382.7 292,-382.7 292,-382.7 288,-382.7 292,-379.1 284,-382.7001 284,-382.7001"/>
<ellipse fill="none" stroke="#000000" cx="280.8" cy="-382.7001" rx="3.2" ry="3.2"/>
</g>
<!-- reference_data_policy -->
<g id="node4" class="node">
<title>reference_data_policy</title>
<g id="a_node4"><a xlink:href="../../tables/reference_data_policy.html" xlink:title="reference_data_policy" target="_top">
<polygon fill="#ffffff" stroke="transparent" points="271,-208.2 271,-313.2 457,-313.2 457,-208.2 271,-208.2"/>
<polygon fill="#f5f5f5" stroke="transparent" points="271,-289.7 271,-312.7 457,-312.7 457,-289.7 271,-289.7"/>
<polygon fill="none" stroke="#000000" points="271,-289.7 271,-312.7 457,-312.7 457,-289.7 271,-289.7"/>
<text text-anchor="start" x="276" y="-298.3" font-family="Helvetica,sans-Serif" font-weight="bold" font-size="11.00" fill="#000000">reference_data_policy</text>
<text text-anchor="start" x="422.5219" y="-297.8" font-family="Helvetica,sans-Serif" font-size="11.00" fill="#000000">[table]</text>
<polygon fill="#ffffff" stroke="transparent" points="271,-267.7 271,-289.7 457,-289.7 457,-267.7 271,-267.7"/>
<polygon fill="none" stroke="#000000" points="271,-267.7 271,-289.7 457,-289.7 457,-267.7 271,-267.7"/>
<image xlink:href="../../images/foreignKeys.png" width="11px" height="12px" preserveAspectRatio="xMinYMin meet" x="276" y="-284.7"/>
<text text-anchor="start" x="300" y="-274.8" font-family="Helvetica,sans-Serif" font-size="11.00" fill="#000000">id</text>
<polygon fill="#ffffff" stroke="transparent" points="271,-245.7 271,-267.7 457,-267.7 457,-245.7 271,-245.7"/>
<polygon fill="none" stroke="#000000" points="271,-245.7 271,-267.7 457,-267.7 457,-245.7 271,-245.7"/>
<image xlink:href="../../images/foreignKeys.png" width="11px" height="12px" preserveAspectRatio="xMinYMin meet" x="276" y="-262.7"/>
<text text-anchor="start" x="300" y="-252.8" font-family="Helvetica,sans-Serif" font-size="11.00" fill="#000000">policy_code</text>
<polygon fill="none" stroke="#000000" points="271,-226.7 271,-245.7 457,-245.7 457,-226.7 271,-226.7"/>
<text text-anchor="start" x="274" y="-232.8" font-family="Helvetica,sans-Serif" font-size="11.00" fill="#000000">...</text>
<polygon fill="#ffffff" stroke="transparent" points="271,-207.7 271,-226.7 346,-226.7 346,-207.7 271,-207.7"/>
<polygon fill="none" stroke="#000000" points="271,-207.7 271,-226.7 346,-226.7 346,-207.7 271,-207.7"/>
<text text-anchor="start" x="274" y="-213.8" font-family="Helvetica,sans-Serif" font-size="11.00" fill="#000000">&lt; 2</text>
<polygon fill="#ffffff" stroke="transparent" points="346,-207.7 346,-226.7 417,-226.7 417,-207.7 346,-207.7"/>
<polygon fill="none" stroke="#000000" points="346,-207.7 346,-226.7 417,-226.7 417,-207.7 346,-207.7"/>
<text text-anchor="start" x="375.4956" y="-213.8" font-family="Helvetica,sans-Serif" font-size="11.00" fill="#000000">84 rows</text>
<polygon fill="#ffffff" stroke="transparent" points="417,-207.7 417,-226.7 457,-226.7 457,-207.7 417,-207.7"/>
<polygon fill="none" stroke="#000000" points="417,-207.7 417,-226.7 457,-226.7 457,-207.7 417,-207.7"/>
<text text-anchor="start" x="447.8862" y="-213.8" font-family="Helvetica,sans-Serif" font-size="11.00" fill="#000000"> &#160;</text>
</a>
</g>
</g>
<!-- reference_data_policy&#45;&gt;reference_data -->
<g id="edge4" class="edge">
<title>reference_data_policy:w&#45;&gt;reference_data:e</title>
<path fill="none" stroke="#000000" d="M256.83,-282.6499C230.2771,-301.6468 265.4479,-382.7 220,-382.7"/>
<polygon fill="#000000" stroke="#000000" points="263.2938,-280.8482 271.9667,-282.1678 267.1469,-279.7741 271,-278.7 271,-278.7 271,-278.7 267.1469,-279.7741 270.0333,-275.2322 263.2938,-280.8482 263.2938,-280.8482"/>
<ellipse fill="none" stroke="#000000" cx="260.2113" cy="-281.7074" rx="3.2" ry="3.2"/>
</g>
<!-- staff_configuration -->
<g id="node5" class="node">
<title>staff_configuration</title>
<g id="a_node5"><a xlink:href="../../tables/staff_configuration.html" xlink:title="staff_configuration" target="_top">
<polygon fill="#ffffff" stroke="transparent" points="280.5,-38.2 280.5,-187.2 447.5,-187.2 447.5,-38.2 280.5,-38.2"/>
<polygon fill="#f5f5f5" stroke="transparent" points="281,-163.7 281,-186.7 448,-186.7 448,-163.7 281,-163.7"/>
<polygon fill="none" stroke="#000000" points="281,-163.7 281,-186.7 448,-186.7 448,-163.7 281,-163.7"/>
<text text-anchor="start" x="286" y="-172.3" font-family="Helvetica,sans-Serif" font-weight="bold" font-size="11.00" fill="#000000">staff_configuration</text>
<text text-anchor="start" x="413.5219" y="-171.8" font-family="Helvetica,sans-Serif" font-size="11.00" fill="#000000">[table]</text>
<polygon fill="#ffffff" stroke="transparent" points="281,-141.7 281,-163.7 448,-163.7 448,-141.7 281,-141.7"/>
<polygon fill="none" stroke="#000000" points="281,-141.7 281,-163.7 448,-163.7 448,-141.7 281,-141.7"/>
<text text-anchor="start" x="310" y="-148.8" font-family="Helvetica,sans-Serif" font-size="11.00" fill="#000000">staff_id</text>
<polygon fill="none" stroke="#000000" points="281,-119.7 281,-141.7 448,-141.7 448,-119.7 281,-119.7"/>
<image xlink:href="../../images/foreignKeys.png" width="11px" height="12px" preserveAspectRatio="xMinYMin meet" x="286" y="-136.7"/>
<text text-anchor="start" x="310" y="-126.8" font-family="Helvetica,sans-Serif" font-size="11.00" fill="#000000">status_id</text>
<polygon fill="#ffffff" stroke="transparent" points="281,-97.7 281,-119.7 448,-119.7 448,-97.7 281,-97.7"/>
<polygon fill="none" stroke="#000000" points="281,-97.7 281,-119.7 448,-119.7 448,-97.7 281,-97.7"/>
<image xlink:href="../../images/foreignKeys.png" width="11px" height="12px" preserveAspectRatio="xMinYMin meet" x="286" y="-114.7"/>
<text text-anchor="start" x="310" y="-104.8" font-family="Helvetica,sans-Serif" font-size="11.00" fill="#000000">policy_code</text>
<polygon fill="none" stroke="#000000" points="281,-75.7 281,-97.7 448,-97.7 448,-75.7 281,-75.7"/>
<image xlink:href="../../images/primaryKeys.png" width="11px" height="12px" preserveAspectRatio="xMinYMin meet" x="286" y="-92.7"/>
<text text-anchor="start" x="310" y="-82.8" font-family="Helvetica,sans-Serif" font-size="11.00" fill="#000000">id</text>
<polygon fill="none" stroke="#000000" points="281,-56.7 281,-75.7 448,-75.7 448,-56.7 281,-56.7"/>
<text text-anchor="start" x="284" y="-62.8" font-family="Helvetica,sans-Serif" font-size="11.00" fill="#000000">...</text>
<polygon fill="#ffffff" stroke="transparent" points="281,-37.7 281,-56.7 363,-56.7 363,-37.7 281,-37.7"/>
<polygon fill="none" stroke="#000000" points="281,-37.7 281,-56.7 363,-56.7 363,-37.7 281,-37.7"/>
<text text-anchor="start" x="284" y="-43.8" font-family="Helvetica,sans-Serif" font-size="11.00" fill="#000000">&lt; 2</text>
<polygon fill="#ffffff" stroke="transparent" points="363,-37.7 363,-56.7 405,-56.7 405,-37.7 363,-37.7"/>
<polygon fill="none" stroke="#000000" points="363,-37.7 363,-56.7 405,-56.7 405,-37.7 363,-37.7"/>
<text text-anchor="start" x="395.8862" y="-43.8" font-family="Helvetica,sans-Serif" font-size="11.00" fill="#000000"> &#160;</text>
<polygon fill="#ffffff" stroke="transparent" points="405,-37.7 405,-56.7 448,-56.7 448,-37.7 405,-37.7"/>
<polygon fill="none" stroke="#000000" points="405,-37.7 405,-56.7 448,-56.7 448,-37.7 405,-37.7"/>
<text text-anchor="start" x="438.8862" y="-43.8" font-family="Helvetica,sans-Serif" font-size="11.00" fill="#000000"> &#160;</text>
</a>
</g>
</g>
<!-- staff_configuration&#45;&gt;reference_data -->
<g id="edge5" class="edge">
<title>staff_configuration:w&#45;&gt;reference_data:e</title>
<path fill="none" stroke="#000000" d="M266.6132,-132.3092C181.0276,-153.7713 329.833,-382.7 220,-382.7"/>
<polygon fill="#000000" stroke="#000000" points="273.0496,-131.5893 281.4002,-134.2777 277.0248,-131.1447 281,-130.7 281,-130.7 281,-130.7 277.0248,-131.1447 280.5998,-127.1223 273.0496,-131.5893 273.0496,-131.5893"/>
<ellipse fill="none" stroke="#000000" cx="269.8694" cy="-131.9451" rx="3.2" ry="3.2"/>
</g>
</g>
</svg>
