<?xml version="1.0" encoding="UTF-8" standalone="no"?>
<!DOCTYPE svg PUBLIC "-//W3C//DTD SVG 1.1//EN"
 "http://www.w3.org/Graphics/SVG/1.1/DTD/svg11.dtd">
<!-- Generated by graphviz version 2.40.1 (20161225.0304)
 -->
<!-- Title: twoDegreesRelationshipsDiagramImplied Pages: 1 -->
<svg width="505pt" height="1147pt"
 viewBox="0.00 0.00 505.00 1147.20" xmlns="http://www.w3.org/2000/svg" xmlns:xlink="http://www.w3.org/1999/xlink">
<g id="graph0" class="graph" transform="scale(1 1) rotate(0) translate(4 1143.2)">
<title>twoDegreesRelationshipsDiagramImplied</title>
<polygon fill="#ffffff" stroke="transparent" points="-4,4 -4,-1143.2 501,-1143.2 501,4 -4,4"/>
<text text-anchor="middle" x="72.4936" y="-7.3" font-family="Helvetica,sans-Serif" font-size="11.00" fill="#000000">Generated by SchemaSpy</text>
<!-- allocation -->
<g id="node1" class="node">
<title>allocation</title>
<g id="a_node1"><a xlink:href="../../tables/allocation.html" xlink:title="allocation" target="_top">
<polygon fill="#ffffff" stroke="transparent" points="292,-1074.2 292,-1135.2 397,-1135.2 397,-1074.2 292,-1074.2"/>
<polygon fill="#f5f5f5" stroke="transparent" points="292.5,-1111.7 292.5,-1134.7 397.5,-1134.7 397.5,-1111.7 292.5,-1111.7"/>
<polygon fill="none" stroke="#000000" points="292.5,-1111.7 292.5,-1134.7 397.5,-1134.7 397.5,-1111.7 292.5,-1111.7"/>
<text text-anchor="start" x="297.5" y="-1120.3" font-family="Helvetica,sans-Serif" font-weight="bold" font-size="11.00" fill="#000000">allocation</text>
<text text-anchor="start" x="363.0219" y="-1119.8" font-family="Helvetica,sans-Serif" font-size="11.00" fill="#000000">[table]</text>
<polygon fill="none" stroke="#000000" points="292.5,-1092.7 292.5,-1111.7 397.5,-1111.7 397.5,-1092.7 292.5,-1092.7"/>
<text text-anchor="start" x="295.5" y="-1098.8" font-family="Helvetica,sans-Serif" font-size="11.00" fill="#000000">...</text>
<polygon fill="#ffffff" stroke="transparent" points="292.5,-1073.7 292.5,-1092.7 343.5,-1092.7 343.5,-1073.7 292.5,-1073.7"/>
<polygon fill="none" stroke="#000000" points="292.5,-1073.7 292.5,-1092.7 343.5,-1092.7 343.5,-1073.7 292.5,-1073.7"/>
<text text-anchor="start" x="295.5" y="-1079.8" font-family="Helvetica,sans-Serif" font-size="11.00" fill="#000000">&lt; 3</text>
<polygon fill="#ffffff" stroke="transparent" points="343.5,-1073.7 343.5,-1092.7 370.5,-1092.7 370.5,-1073.7 343.5,-1073.7"/>
<polygon fill="none" stroke="#000000" points="343.5,-1073.7 343.5,-1092.7 370.5,-1092.7 370.5,-1073.7 343.5,-1073.7"/>
<text text-anchor="start" x="361.3862" y="-1079.8" font-family="Helvetica,sans-Serif" font-size="11.00" fill="#000000"> &#160;</text>
<polygon fill="#ffffff" stroke="transparent" points="370.5,-1073.7 370.5,-1092.7 397.5,-1092.7 397.5,-1073.7 370.5,-1073.7"/>
<polygon fill="none" stroke="#000000" points="370.5,-1073.7 370.5,-1092.7 397.5,-1092.7 397.5,-1073.7 370.5,-1073.7"/>
<text text-anchor="start" x="388.3862" y="-1079.8" font-family="Helvetica,sans-Serif" font-size="11.00" fill="#000000"> &#160;</text>
</a>
</g>
</g>
<!-- reference_data -->
<g id="node2" class="node">
<title>reference_data</title>
<g id="a_node2"><a xlink:href="../../tables/reference_data.html" xlink:title="reference_data" target="_top">
<polygon fill="#ffffff" stroke="transparent" points="8,-905.2 8,-1054.2 151,-1054.2 151,-905.2 8,-905.2"/>
<polygon fill="#f5f5f5" stroke="transparent" points="8.5,-1030.7 8.5,-1053.7 151.5,-1053.7 151.5,-1030.7 8.5,-1030.7"/>
<polygon fill="none" stroke="#000000" points="8.5,-1030.7 8.5,-1053.7 151.5,-1053.7 151.5,-1030.7 8.5,-1030.7"/>
<text text-anchor="start" x="13.5" y="-1039.3" font-family="Helvetica,sans-Serif" font-weight="bold" font-size="11.00" fill="#000000">reference_data</text>
<text text-anchor="start" x="116.5437" y="-1038.8" font-family="Helvetica,sans-Serif" font-size="11.00" fill="#000000">[table]</text>
<polygon fill="none" stroke="#000000" points="8.5,-1008.7 8.5,-1030.7 151.5,-1030.7 151.5,-1008.7 8.5,-1008.7"/>
<image xlink:href="../../images/primaryKeys.png" width="11px" height="12px" preserveAspectRatio="xMinYMin meet" x="13.5" y="-1025.7"/>
<text text-anchor="start" x="28.5" y="-1015.8" font-family="Helvetica,sans-Serif" font-size="11.00" fill="#000000">id</text>
<polygon fill="#ffffff" stroke="transparent" points="8.5,-986.7 8.5,-1008.7 151.5,-1008.7 151.5,-986.7 8.5,-986.7"/>
<polygon fill="none" stroke="#000000" points="8.5,-986.7 8.5,-1008.7 151.5,-1008.7 151.5,-986.7 8.5,-986.7"/>
<text text-anchor="start" x="28.5" y="-993.8" font-family="Helvetica,sans-Serif" font-size="11.00" fill="#000000">domain</text>
<polygon fill="#ffffff" stroke="transparent" points="8.5,-964.7 8.5,-986.7 151.5,-986.7 151.5,-964.7 8.5,-964.7"/>
<polygon fill="none" stroke="#000000" points="8.5,-964.7 8.5,-986.7 151.5,-986.7 151.5,-964.7 8.5,-964.7"/>
<text text-anchor="start" x="28.5" y="-971.8" font-family="Helvetica,sans-Serif" font-size="11.00" fill="#000000">code</text>
<polygon fill="#ffffff" stroke="transparent" points="8.5,-942.7 8.5,-964.7 151.5,-964.7 151.5,-942.7 8.5,-942.7"/>
<polygon fill="none" stroke="#000000" points="8.5,-942.7 8.5,-964.7 151.5,-964.7 151.5,-942.7 8.5,-942.7"/>
<text text-anchor="start" x="28.5" y="-949.8" font-family="Helvetica,sans-Serif" font-size="11.00" fill="#000000">sequence_number</text>
<polygon fill="none" stroke="#000000" points="8.5,-923.7 8.5,-942.7 151.5,-942.7 151.5,-923.7 8.5,-923.7"/>
<text text-anchor="start" x="11.5" y="-929.8" font-family="Helvetica,sans-Serif" font-size="11.00" fill="#000000">...</text>
<polygon fill="#ffffff" stroke="transparent" points="8.5,-904.7 8.5,-923.7 53.5,-923.7 53.5,-904.7 8.5,-904.7"/>
<polygon fill="none" stroke="#000000" points="8.5,-904.7 8.5,-923.7 53.5,-923.7 53.5,-904.7 8.5,-904.7"/>
<text text-anchor="start" x="11.5" y="-910.8" font-family="Helvetica,sans-Serif" font-size="11.00" fill="#000000"> &#160;</text>
<polygon fill="#ffffff" stroke="transparent" points="53.5,-904.7 53.5,-923.7 113.5,-923.7 113.5,-904.7 53.5,-904.7"/>
<polygon fill="none" stroke="#000000" points="53.5,-904.7 53.5,-923.7 113.5,-923.7 113.5,-904.7 53.5,-904.7"/>
<text text-anchor="start" x="71.9956" y="-910.8" font-family="Helvetica,sans-Serif" font-size="11.00" fill="#000000">60 rows</text>
<polygon fill="#ffffff" stroke="transparent" points="113.5,-904.7 113.5,-923.7 151.5,-923.7 151.5,-904.7 113.5,-904.7"/>
<polygon fill="none" stroke="#000000" points="113.5,-904.7 113.5,-923.7 151.5,-923.7 151.5,-904.7 113.5,-904.7"/>
<text text-anchor="start" x="132.9053" y="-910.8" font-family="Helvetica,sans-Serif" font-size="11.00" fill="#000000">5 &gt;</text>
</a>
</g>
</g>
<!-- allocation&#45;&gt;reference_data -->
<g id="edge1" class="edge">
<title>allocation:w&#45;&gt;reference_data:e</title>
<path fill="none" stroke="#000000" d="M277.9922,-1099.5289C241.5487,-1093.0502 227.2415,-1081.5083 192,-1057.7 169.9763,-1042.8213 178.0786,-1013.7 151.5,-1019.7"/>
<polygon fill="#000000" stroke="#000000" points="284.5881,-1100.5159 291.9672,-1105.2604 288.5441,-1101.108 292.5,-1101.7 292.5,-1101.7 292.5,-1101.7 288.5441,-1101.108 293.0328,-1098.1396 284.5881,-1100.5159 284.5881,-1100.5159"/>
<ellipse fill="none" stroke="#000000" cx="281.4233" cy="-1100.0423" rx="3.2" ry="3.2"/>
</g>
<!-- allocation&#45;&gt;reference_data -->
<g id="edge2" class="edge">
<title>allocation:w&#45;&gt;reference_data:e</title>
<path fill="none" stroke="#000000" d="M277.9922,-1103.3449C241.5487,-1106.0502 227.2415,-1094.5083 192,-1070.7 169.9763,-1055.8213 178.0786,-1026.7 151.5,-1019.7"/>
<polygon fill="#000000" stroke="#000000" points="284.5509,-1102.6013 292.9056,-1105.2771 288.5255,-1102.1507 292.5,-1101.7 292.5,-1101.7 292.5,-1101.7 288.5255,-1102.1507 292.0944,-1098.1229 284.5509,-1102.6013 284.5509,-1102.6013"/>
<ellipse fill="none" stroke="#000000" cx="281.3713" cy="-1102.9619" rx="3.2" ry="3.2"/>
</g>
<!-- policy -->
<g id="node3" class="node">
<title>policy</title>
<g id="a_node3"><a xlink:href="../../tables/policy.html" xlink:title="policy" target="_top">
<polygon fill="#ffffff" stroke="transparent" points="31,-509.2 31,-592.2 128,-592.2 128,-509.2 31,-509.2"/>
<polygon fill="#f5f5f5" stroke="transparent" points="31.5,-568.7 31.5,-591.7 128.5,-591.7 128.5,-568.7 31.5,-568.7"/>
<polygon fill="none" stroke="#000000" points="31.5,-568.7 31.5,-591.7 128.5,-591.7 128.5,-568.7 31.5,-568.7"/>
<text text-anchor="start" x="36.5" y="-577.3" font-family="Helvetica,sans-Serif" font-weight="bold" font-size="11.00" fill="#000000">policy</text>
<text text-anchor="start" x="93.5437" y="-576.8" font-family="Helvetica,sans-Serif" font-size="11.00" fill="#000000">[table]</text>
<polygon fill="none" stroke="#000000" points="31.5,-546.7 31.5,-568.7 128.5,-568.7 128.5,-546.7 31.5,-546.7"/>
<image xlink:href="../../images/primaryKeys.png" width="11px" height="12px" preserveAspectRatio="xMinYMin meet" x="36.5" y="-563.7"/>
<text text-anchor="start" x="51.5" y="-553.8" font-family="Helvetica,sans-Serif" font-size="11.00" fill="#000000">code</text>
<polygon fill="none" stroke="#000000" points="31.5,-527.7 31.5,-546.7 128.5,-546.7 128.5,-527.7 31.5,-527.7"/>
<text text-anchor="start" x="34.5" y="-533.8" font-family="Helvetica,sans-Serif" font-size="11.00" fill="#000000">...</text>
<polygon fill="#ffffff" stroke="transparent" points="31.5,-508.7 31.5,-527.7 66.5,-527.7 66.5,-508.7 31.5,-508.7"/>
<polygon fill="none" stroke="#000000" points="31.5,-508.7 31.5,-527.7 66.5,-527.7 66.5,-508.7 31.5,-508.7"/>
<text text-anchor="start" x="34.5" y="-514.8" font-family="Helvetica,sans-Serif" font-size="11.00" fill="#000000"> &#160;</text>
<polygon fill="#ffffff" stroke="transparent" points="66.5,-508.7 66.5,-527.7 89.5,-527.7 89.5,-508.7 66.5,-508.7"/>
<polygon fill="none" stroke="#000000" points="66.5,-508.7 66.5,-527.7 89.5,-527.7 89.5,-508.7 66.5,-508.7"/>
<text text-anchor="start" x="80.3862" y="-514.8" font-family="Helvetica,sans-Serif" font-size="11.00" fill="#000000"> &#160;</text>
<polygon fill="#ffffff" stroke="transparent" points="89.5,-508.7 89.5,-527.7 128.5,-527.7 128.5,-508.7 89.5,-508.7"/>
<polygon fill="none" stroke="#000000" points="89.5,-508.7 89.5,-527.7 128.5,-527.7 128.5,-508.7 89.5,-508.7"/>
<text text-anchor="start" x="103.7904" y="-514.8" font-family="Helvetica,sans-Serif" font-size="11.00" fill="#000000">13 &gt;</text>
</a>
</g>
</g>
<!-- allocation&#45;&gt;policy -->
<g id="edge3" class="edge">
<title>allocation:w&#45;&gt;policy:e</title>
<path fill="none" stroke="#000000" d="M277.9225,-1101.638C239.6889,-1101.1688 218.3705,-1097.1864 192,-1063.7 121.8863,-974.6666 241.8264,-557.7 128.5,-557.7"/>
<polygon fill="#000000" stroke="#000000" points="284.5001,-1101.6659 292.4847,-1105.3 288.5,-1101.6829 292.5,-1101.7 292.5,-1101.7 292.5,-1101.7 288.5,-1101.6829 292.5153,-1098.1 284.5001,-1101.6659 284.5001,-1101.6659"/>
<ellipse fill="none" stroke="#000000" cx="281.3001" cy="-1101.6523" rx="3.2" ry="3.2"/>
</g>
<!-- allocation_audit -->
<g id="node4" class="node">
<title>allocation_audit</title>
<g id="a_node4"><a xlink:href="../../tables/allocation_audit.html" xlink:title="allocation_audit" target="_top">
<polygon fill="#ffffff" stroke="transparent" points="271.5,-448.2 271.5,-509.2 417.5,-509.2 417.5,-448.2 271.5,-448.2"/>
<polygon fill="#f5f5f5" stroke="transparent" points="271.5,-485.7 271.5,-508.7 417.5,-508.7 417.5,-485.7 271.5,-485.7"/>
<polygon fill="none" stroke="#000000" points="271.5,-485.7 271.5,-508.7 417.5,-508.7 417.5,-485.7 271.5,-485.7"/>
<text text-anchor="start" x="276.5" y="-494.3" font-family="Helvetica,sans-Serif" font-weight="bold" font-size="11.00" fill="#000000">allocation_audit</text>
<text text-anchor="start" x="383.0219" y="-493.8" font-family="Helvetica,sans-Serif" font-size="11.00" fill="#000000">[table]</text>
<polygon fill="none" stroke="#000000" points="271.5,-466.7 271.5,-485.7 417.5,-485.7 417.5,-466.7 271.5,-466.7"/>
<text text-anchor="start" x="274.5" y="-472.8" font-family="Helvetica,sans-Serif" font-size="11.00" fill="#000000">...</text>
<polygon fill="#ffffff" stroke="transparent" points="271.5,-447.7 271.5,-466.7 342.5,-466.7 342.5,-447.7 271.5,-447.7"/>
<polygon fill="none" stroke="#000000" points="271.5,-447.7 271.5,-466.7 342.5,-466.7 342.5,-447.7 271.5,-447.7"/>
<text text-anchor="start" x="274.5" y="-453.8" font-family="Helvetica,sans-Serif" font-size="11.00" fill="#000000">&lt; 3</text>
<polygon fill="#ffffff" stroke="transparent" points="342.5,-447.7 342.5,-466.7 379.5,-466.7 379.5,-447.7 342.5,-447.7"/>
<polygon fill="none" stroke="#000000" points="342.5,-447.7 342.5,-466.7 379.5,-466.7 379.5,-447.7 342.5,-447.7"/>
<text text-anchor="start" x="370.3862" y="-453.8" font-family="Helvetica,sans-Serif" font-size="11.00" fill="#000000"> &#160;</text>
<polygon fill="#ffffff" stroke="transparent" points="379.5,-447.7 379.5,-466.7 417.5,-466.7 417.5,-447.7 379.5,-447.7"/>
<polygon fill="none" stroke="#000000" points="379.5,-447.7 379.5,-466.7 417.5,-466.7 417.5,-447.7 379.5,-447.7"/>
<text text-anchor="start" x="408.3862" y="-453.8" font-family="Helvetica,sans-Serif" font-size="11.00" fill="#000000"> &#160;</text>
</a>
</g>
</g>
<!-- allocation_audit&#45;&gt;policy -->
<g id="edge4" class="edge">
<title>allocation_audit:w&#45;&gt;policy:e</title>
<path fill="none" stroke="#000000" stroke-dasharray="5,2" d="M256.7983,-476.967C229.4128,-482.1525 222.2133,-502.3055 192,-519.7 163.4967,-536.11 161.3896,-557.7 128.5,-557.7"/>
<polygon fill="#000000" stroke="#000000" points="263.5295,-476.387 271.8091,-479.2867 267.5148,-476.0435 271.5,-475.7 271.5,-475.7 271.5,-475.7 267.5148,-476.0435 271.1909,-472.1133 263.5295,-476.387 263.5295,-476.387"/>
<ellipse fill="none" stroke="#000000" cx="260.3414" cy="-476.6618" rx="3.2" ry="3.2"/>
</g>
<!-- case_note_type_recorded_event_type -->
<g id="node5" class="node">
<title>case_note_type_recorded_event_type</title>
<g id="a_node5"><a xlink:href="../../tables/case_note_type_recorded_event_type.html" xlink:title="case_note_type_recorded_event_type" target="_top">
<polygon fill="#ffffff" stroke="transparent" points="200,-366.2 200,-427.2 489,-427.2 489,-366.2 200,-366.2"/>
<polygon fill="#f5f5f5" stroke="transparent" points="200.5,-403.7 200.5,-426.7 489.5,-426.7 489.5,-403.7 200.5,-403.7"/>
<polygon fill="none" stroke="#000000" points="200.5,-403.7 200.5,-426.7 489.5,-426.7 489.5,-403.7 200.5,-403.7"/>
<text text-anchor="start" x="205.5" y="-412.3" font-family="Helvetica,sans-Serif" font-weight="bold" font-size="11.00" fill="#000000">case_note_type_recorded_event_type</text>
<text text-anchor="start" x="455.0219" y="-411.8" font-family="Helvetica,sans-Serif" font-size="11.00" fill="#000000">[table]</text>
<polygon fill="none" stroke="#000000" points="200.5,-384.7 200.5,-403.7 489.5,-403.7 489.5,-384.7 200.5,-384.7"/>
<text text-anchor="start" x="203.5" y="-390.8" font-family="Helvetica,sans-Serif" font-size="11.00" fill="#000000">...</text>
<polygon fill="#ffffff" stroke="transparent" points="200.5,-365.7 200.5,-384.7 343.5,-384.7 343.5,-365.7 200.5,-365.7"/>
<polygon fill="none" stroke="#000000" points="200.5,-365.7 200.5,-384.7 343.5,-384.7 343.5,-365.7 200.5,-365.7"/>
<text text-anchor="start" x="203.5" y="-371.8" font-family="Helvetica,sans-Serif" font-size="11.00" fill="#000000">&lt; 1</text>
<polygon fill="#ffffff" stroke="transparent" points="343.5,-365.7 343.5,-384.7 416.5,-384.7 416.5,-365.7 343.5,-365.7"/>
<polygon fill="none" stroke="#000000" points="343.5,-365.7 343.5,-384.7 416.5,-384.7 416.5,-365.7 343.5,-365.7"/>
<text text-anchor="start" x="407.3862" y="-371.8" font-family="Helvetica,sans-Serif" font-size="11.00" fill="#000000"> &#160;</text>
<polygon fill="#ffffff" stroke="transparent" points="416.5,-365.7 416.5,-384.7 489.5,-384.7 489.5,-365.7 416.5,-365.7"/>
<polygon fill="none" stroke="#000000" points="416.5,-365.7 416.5,-384.7 489.5,-384.7 489.5,-365.7 416.5,-365.7"/>
<text text-anchor="start" x="480.3862" y="-371.8" font-family="Helvetica,sans-Serif" font-size="11.00" fill="#000000"> &#160;</text>
</a>
</g>
</g>
<!-- case_note_type_recorded_event_type&#45;&gt;policy -->
<g id="edge5" class="edge">
<title>case_note_type_recorded_event_type:w&#45;&gt;policy:e</title>
<path fill="none" stroke="#000000" stroke-dasharray="5,2" d="M186.0666,-396.0184C132.335,-415.9517 202.5068,-557.7 128.5,-557.7"/>
<polygon fill="#000000" stroke="#000000" points="192.6012,-394.9688 201.071,-397.2544 196.5506,-394.3344 200.5,-393.7 200.5,-393.7 200.5,-393.7 196.5506,-394.3344 199.929,-390.1456 192.6012,-394.9688 192.6012,-394.9688"/>
<ellipse fill="none" stroke="#000000" cx="189.4417" cy="-395.4763" rx="3.2" ry="3.2"/>
</g>
<!-- prison_configuration -->
<g id="node6" class="node">
<title>prison_configuration</title>
<g id="a_node6"><a xlink:href="../../tables/prison_configuration.html" xlink:title="prison_configuration" target="_top">
<polygon fill="#ffffff" stroke="transparent" points="255.5,-284.2 255.5,-345.2 433.5,-345.2 433.5,-284.2 255.5,-284.2"/>
<polygon fill="#f5f5f5" stroke="transparent" points="255.5,-321.7 255.5,-344.7 433.5,-344.7 433.5,-321.7 255.5,-321.7"/>
<polygon fill="none" stroke="#000000" points="255.5,-321.7 255.5,-344.7 433.5,-344.7 433.5,-321.7 255.5,-321.7"/>
<text text-anchor="start" x="260.5" y="-330.3" font-family="Helvetica,sans-Serif" font-weight="bold" font-size="11.00" fill="#000000">prison_configuration</text>
<text text-anchor="start" x="399.0219" y="-329.8" font-family="Helvetica,sans-Serif" font-size="11.00" fill="#000000">[table]</text>
<polygon fill="none" stroke="#000000" points="255.5,-302.7 255.5,-321.7 433.5,-321.7 433.5,-302.7 255.5,-302.7"/>
<text text-anchor="start" x="258.5" y="-308.8" font-family="Helvetica,sans-Serif" font-size="11.00" fill="#000000">...</text>
<polygon fill="#ffffff" stroke="transparent" points="255.5,-283.7 255.5,-302.7 326.5,-302.7 326.5,-283.7 255.5,-283.7"/>
<polygon fill="none" stroke="#000000" points="255.5,-283.7 255.5,-302.7 326.5,-302.7 326.5,-283.7 255.5,-283.7"/>
<text text-anchor="start" x="258.5" y="-289.8" font-family="Helvetica,sans-Serif" font-size="11.00" fill="#000000">&lt; 1</text>
<polygon fill="#ffffff" stroke="transparent" points="326.5,-283.7 326.5,-302.7 395.5,-302.7 395.5,-283.7 326.5,-283.7"/>
<polygon fill="none" stroke="#000000" points="326.5,-283.7 326.5,-302.7 395.5,-302.7 395.5,-283.7 326.5,-283.7"/>
<text text-anchor="start" x="353.9956" y="-289.8" font-family="Helvetica,sans-Serif" font-size="11.00" fill="#000000">12 rows</text>
<polygon fill="#ffffff" stroke="transparent" points="395.5,-283.7 395.5,-302.7 433.5,-302.7 433.5,-283.7 395.5,-283.7"/>
<polygon fill="none" stroke="#000000" points="395.5,-283.7 395.5,-302.7 433.5,-302.7 433.5,-283.7 395.5,-283.7"/>
<text text-anchor="start" x="424.3862" y="-289.8" font-family="Helvetica,sans-Serif" font-size="11.00" fill="#000000"> &#160;</text>
</a>
</g>
</g>
<!-- prison_configuration&#45;&gt;policy -->
<g id="edge6" class="edge">
<title>prison_configuration:w&#45;&gt;policy:e</title>
<path fill="none" stroke="#000000" d="M241.1337,-312.8783C218.1308,-317.0857 209.1778,-332.3717 192,-355.7 136.1986,-431.4809 222.6092,-557.7 128.5,-557.7"/>
<polygon fill="#000000" stroke="#000000" points="247.5268,-312.354 255.7943,-315.288 251.5134,-312.027 255.5,-311.7 255.5,-311.7 255.5,-311.7 251.5134,-312.027 255.2057,-308.112 247.5268,-312.354 247.5268,-312.354"/>
<ellipse fill="none" stroke="#000000" cx="244.3375" cy="-312.6156" rx="3.2" ry="3.2"/>
</g>
<!-- prison_configuration_audit -->
<g id="node7" class="node">
<title>prison_configuration_audit</title>
<g id="a_node7"><a xlink:href="../../tables/prison_configuration_audit.html" xlink:title="prison_configuration_audit" target="_top">
<polygon fill="#ffffff" stroke="transparent" points="235,-202.2 235,-263.2 454,-263.2 454,-202.2 235,-202.2"/>
<polygon fill="#f5f5f5" stroke="transparent" points="235.5,-239.7 235.5,-262.7 454.5,-262.7 454.5,-239.7 235.5,-239.7"/>
<polygon fill="none" stroke="#000000" points="235.5,-239.7 235.5,-262.7 454.5,-262.7 454.5,-239.7 235.5,-239.7"/>
<text text-anchor="start" x="240.5" y="-248.3" font-family="Helvetica,sans-Serif" font-weight="bold" font-size="11.00" fill="#000000">prison_configuration_audit</text>
<text text-anchor="start" x="420.0219" y="-247.8" font-family="Helvetica,sans-Serif" font-size="11.00" fill="#000000">[table]</text>
<polygon fill="none" stroke="#000000" points="235.5,-220.7 235.5,-239.7 454.5,-239.7 454.5,-220.7 235.5,-220.7"/>
<text text-anchor="start" x="238.5" y="-226.8" font-family="Helvetica,sans-Serif" font-size="11.00" fill="#000000">...</text>
<polygon fill="#ffffff" stroke="transparent" points="235.5,-201.7 235.5,-220.7 343.5,-220.7 343.5,-201.7 235.5,-201.7"/>
<polygon fill="none" stroke="#000000" points="235.5,-201.7 235.5,-220.7 343.5,-220.7 343.5,-201.7 235.5,-201.7"/>
<text text-anchor="start" x="238.5" y="-207.8" font-family="Helvetica,sans-Serif" font-size="11.00" fill="#000000">&lt; 3</text>
<polygon fill="#ffffff" stroke="transparent" points="343.5,-201.7 343.5,-220.7 398.5,-220.7 398.5,-201.7 343.5,-201.7"/>
<polygon fill="none" stroke="#000000" points="343.5,-201.7 343.5,-220.7 398.5,-220.7 398.5,-201.7 343.5,-201.7"/>
<text text-anchor="start" x="389.3862" y="-207.8" font-family="Helvetica,sans-Serif" font-size="11.00" fill="#000000"> &#160;</text>
<polygon fill="#ffffff" stroke="transparent" points="398.5,-201.7 398.5,-220.7 454.5,-220.7 454.5,-201.7 398.5,-201.7"/>
<polygon fill="none" stroke="#000000" points="398.5,-201.7 398.5,-220.7 454.5,-220.7 454.5,-201.7 398.5,-201.7"/>
<text text-anchor="start" x="445.3862" y="-207.8" font-family="Helvetica,sans-Serif" font-size="11.00" fill="#000000"> &#160;</text>
</a>
</g>
</g>
<!-- prison_configuration_audit&#45;&gt;policy -->
<g id="edge7" class="edge">
<title>prison_configuration_audit:w&#45;&gt;policy:e</title>
<path fill="none" stroke="#000000" stroke-dasharray="5,2" d="M220.9859,-230.8234C95.3989,-251.7387 276.5974,-557.7 128.5,-557.7"/>
<polygon fill="#000000" stroke="#000000" points="227.5239,-230.3174 235.7778,-233.2893 231.5119,-230.0087 235.5,-229.7 235.5,-229.7 235.5,-229.7 231.5119,-230.0087 235.2222,-226.1107 227.5239,-230.3174 227.5239,-230.3174"/>
<ellipse fill="none" stroke="#000000" cx="224.3334" cy="-230.5643" rx="3.2" ry="3.2"/>
</g>
<!-- prison_statistic -->
<g id="node8" class="node">
<title>prison_statistic</title>
<g id="a_node8"><a xlink:href="../../tables/prison_statistic.html" xlink:title="prison_statistic" target="_top">
<polygon fill="#ffffff" stroke="transparent" points="273.5,-120.2 273.5,-181.2 415.5,-181.2 415.5,-120.2 273.5,-120.2"/>
<polygon fill="#f5f5f5" stroke="transparent" points="273.5,-157.7 273.5,-180.7 415.5,-180.7 415.5,-157.7 273.5,-157.7"/>
<polygon fill="none" stroke="#000000" points="273.5,-157.7 273.5,-180.7 415.5,-180.7 415.5,-157.7 273.5,-157.7"/>
<text text-anchor="start" x="278.5" y="-166.3" font-family="Helvetica,sans-Serif" font-weight="bold" font-size="11.00" fill="#000000">prison_statistic</text>
<text text-anchor="start" x="381.0219" y="-165.8" font-family="Helvetica,sans-Serif" font-size="11.00" fill="#000000">[table]</text>
<polygon fill="none" stroke="#000000" points="273.5,-138.7 273.5,-157.7 415.5,-157.7 415.5,-138.7 273.5,-138.7"/>
<text text-anchor="start" x="276.5" y="-144.8" font-family="Helvetica,sans-Serif" font-size="11.00" fill="#000000">...</text>
<polygon fill="#ffffff" stroke="transparent" points="273.5,-119.7 273.5,-138.7 342.5,-138.7 342.5,-119.7 273.5,-119.7"/>
<polygon fill="none" stroke="#000000" points="273.5,-119.7 273.5,-138.7 342.5,-138.7 342.5,-119.7 273.5,-119.7"/>
<text text-anchor="start" x="276.5" y="-125.8" font-family="Helvetica,sans-Serif" font-size="11.00" fill="#000000">&lt; 1</text>
<polygon fill="#ffffff" stroke="transparent" points="342.5,-119.7 342.5,-138.7 378.5,-138.7 378.5,-119.7 342.5,-119.7"/>
<polygon fill="none" stroke="#000000" points="342.5,-119.7 342.5,-138.7 378.5,-138.7 378.5,-119.7 342.5,-119.7"/>
<text text-anchor="start" x="369.3862" y="-125.8" font-family="Helvetica,sans-Serif" font-size="11.00" fill="#000000"> &#160;</text>
<polygon fill="#ffffff" stroke="transparent" points="378.5,-119.7 378.5,-138.7 415.5,-138.7 415.5,-119.7 378.5,-119.7"/>
<polygon fill="none" stroke="#000000" points="378.5,-119.7 378.5,-138.7 415.5,-138.7 415.5,-119.7 378.5,-119.7"/>
<text text-anchor="start" x="406.3862" y="-125.8" font-family="Helvetica,sans-Serif" font-size="11.00" fill="#000000"> &#160;</text>
</a>
</g>
</g>
<!-- prison_statistic&#45;&gt;policy -->
<g id="edge8" class="edge">
<title>prison_statistic:w&#45;&gt;policy:e</title>
<path fill="none" stroke="#000000" d="M258.7511,-148.254C228.0069,-150.809 212.9445,-162.595 192,-191.7 143.7834,-258.7029 211.0484,-557.7 128.5,-557.7"/>
<polygon fill="#000000" stroke="#000000" points="265.5056,-148.0004 273.6352,-151.2975 269.5028,-147.8502 273.5,-147.7 273.5,-147.7 273.5,-147.7 269.5028,-147.8502 273.3648,-144.1025 265.5056,-148.0004 265.5056,-148.0004"/>
<ellipse fill="none" stroke="#000000" cx="262.3079" cy="-148.1205" rx="3.2" ry="3.2"/>
</g>
<!-- recorded_event -->
<g id="node9" class="node">
<title>recorded_event</title>
<g id="a_node9"><a xlink:href="../../tables/recorded_event.html" xlink:title="recorded_event" target="_top">
<polygon fill="#ffffff" stroke="transparent" points="272.5,-992.2 272.5,-1053.2 416.5,-1053.2 416.5,-992.2 272.5,-992.2"/>
<polygon fill="#f5f5f5" stroke="transparent" points="272.5,-1029.7 272.5,-1052.7 416.5,-1052.7 416.5,-1029.7 272.5,-1029.7"/>
<polygon fill="none" stroke="#000000" points="272.5,-1029.7 272.5,-1052.7 416.5,-1052.7 416.5,-1029.7 272.5,-1029.7"/>
<text text-anchor="start" x="277.5" y="-1038.3" font-family="Helvetica,sans-Serif" font-weight="bold" font-size="11.00" fill="#000000">recorded_event</text>
<text text-anchor="start" x="382.0219" y="-1037.8" font-family="Helvetica,sans-Serif" font-size="11.00" fill="#000000">[table]</text>
<polygon fill="none" stroke="#000000" points="272.5,-1010.7 272.5,-1029.7 416.5,-1029.7 416.5,-1010.7 272.5,-1010.7"/>
<text text-anchor="start" x="275.5" y="-1016.8" font-family="Helvetica,sans-Serif" font-size="11.00" fill="#000000">...</text>
<polygon fill="#ffffff" stroke="transparent" points="272.5,-991.7 272.5,-1010.7 342.5,-1010.7 342.5,-991.7 272.5,-991.7"/>
<polygon fill="none" stroke="#000000" points="272.5,-991.7 272.5,-1010.7 342.5,-1010.7 342.5,-991.7 272.5,-991.7"/>
<text text-anchor="start" x="275.5" y="-997.8" font-family="Helvetica,sans-Serif" font-size="11.00" fill="#000000">&lt; 2</text>
<polygon fill="#ffffff" stroke="transparent" points="342.5,-991.7 342.5,-1010.7 379.5,-1010.7 379.5,-991.7 342.5,-991.7"/>
<polygon fill="none" stroke="#000000" points="342.5,-991.7 342.5,-1010.7 379.5,-1010.7 379.5,-991.7 342.5,-991.7"/>
<text text-anchor="start" x="370.3862" y="-997.8" font-family="Helvetica,sans-Serif" font-size="11.00" fill="#000000"> &#160;</text>
<polygon fill="#ffffff" stroke="transparent" points="379.5,-991.7 379.5,-1010.7 416.5,-1010.7 416.5,-991.7 379.5,-991.7"/>
<polygon fill="none" stroke="#000000" points="379.5,-991.7 379.5,-1010.7 416.5,-1010.7 416.5,-991.7 379.5,-991.7"/>
<text text-anchor="start" x="407.3862" y="-997.8" font-family="Helvetica,sans-Serif" font-size="11.00" fill="#000000"> &#160;</text>
</a>
</g>
</g>
<!-- recorded_event&#45;&gt;reference_data -->
<g id="edge10" class="edge">
<title>recorded_event:w&#45;&gt;reference_data:e</title>
<path fill="none" stroke="#000000" d="M258.0974,-1019.7C215.7795,-1019.7 200.1311,-1019.7 151.5,-1019.7"/>
<polygon fill="#000000" stroke="#000000" points="264.5,-1019.7001 272.5,-1023.3 268.5,-1019.7 272.5,-1019.7 272.5,-1019.7 272.5,-1019.7 268.5,-1019.7 272.5,-1016.1 264.5,-1019.7001 264.5,-1019.7001"/>
<ellipse fill="none" stroke="#000000" cx="261.3" cy="-1019.7001" rx="3.2" ry="3.2"/>
</g>
<!-- recorded_event&#45;&gt;policy -->
<g id="edge9" class="edge">
<title>recorded_event:w&#45;&gt;policy:e</title>
<path fill="none" stroke="#000000" d="M257.8459,-1019.3243C228.2214,-1017.5906 212.4675,-1009.2354 192,-981.7 135.1639,-905.2369 223.773,-557.7 128.5,-557.7"/>
<polygon fill="#000000" stroke="#000000" points="264.5026,-1019.4949 272.4077,-1023.2988 268.5013,-1019.5975 272.5,-1019.7 272.5,-1019.7 272.5,-1019.7 268.5013,-1019.5975 272.5923,-1016.1012 264.5026,-1019.4949 264.5026,-1019.4949"/>
<ellipse fill="none" stroke="#000000" cx="261.3037" cy="-1019.4129" rx="3.2" ry="3.2"/>
</g>
<!-- recorded_event_audit -->
<g id="node10" class="node">
<title>recorded_event_audit</title>
<g id="a_node10"><a xlink:href="../../tables/recorded_event_audit.html" xlink:title="recorded_event_audit" target="_top">
<polygon fill="#ffffff" stroke="transparent" points="252,-38.2 252,-99.2 437,-99.2 437,-38.2 252,-38.2"/>
<polygon fill="#f5f5f5" stroke="transparent" points="252.5,-75.7 252.5,-98.7 437.5,-98.7 437.5,-75.7 252.5,-75.7"/>
<polygon fill="none" stroke="#000000" points="252.5,-75.7 252.5,-98.7 437.5,-98.7 437.5,-75.7 252.5,-75.7"/>
<text text-anchor="start" x="257.5" y="-84.3" font-family="Helvetica,sans-Serif" font-weight="bold" font-size="11.00" fill="#000000">recorded_event_audit</text>
<text text-anchor="start" x="403.0219" y="-83.8" font-family="Helvetica,sans-Serif" font-size="11.00" fill="#000000">[table]</text>
<polygon fill="none" stroke="#000000" points="252.5,-56.7 252.5,-75.7 437.5,-75.7 437.5,-56.7 252.5,-56.7"/>
<text text-anchor="start" x="255.5" y="-62.8" font-family="Helvetica,sans-Serif" font-size="11.00" fill="#000000">...</text>
<polygon fill="#ffffff" stroke="transparent" points="252.5,-37.7 252.5,-56.7 343.5,-56.7 343.5,-37.7 252.5,-37.7"/>
<polygon fill="none" stroke="#000000" points="252.5,-37.7 252.5,-56.7 343.5,-56.7 343.5,-37.7 252.5,-37.7"/>
<text text-anchor="start" x="255.5" y="-43.8" font-family="Helvetica,sans-Serif" font-size="11.00" fill="#000000">&lt; 2</text>
<polygon fill="#ffffff" stroke="transparent" points="343.5,-37.7 343.5,-56.7 390.5,-56.7 390.5,-37.7 343.5,-37.7"/>
<polygon fill="none" stroke="#000000" points="343.5,-37.7 343.5,-56.7 390.5,-56.7 390.5,-37.7 343.5,-37.7"/>
<text text-anchor="start" x="381.3862" y="-43.8" font-family="Helvetica,sans-Serif" font-size="11.00" fill="#000000"> &#160;</text>
<polygon fill="#ffffff" stroke="transparent" points="390.5,-37.7 390.5,-56.7 437.5,-56.7 437.5,-37.7 390.5,-37.7"/>
<polygon fill="none" stroke="#000000" points="390.5,-37.7 390.5,-56.7 437.5,-56.7 437.5,-37.7 390.5,-37.7"/>
<text text-anchor="start" x="428.3862" y="-43.8" font-family="Helvetica,sans-Serif" font-size="11.00" fill="#000000"> &#160;</text>
</a>
</g>
</g>
<!-- recorded_event_audit&#45;&gt;policy -->
<g id="edge11" class="edge">
<title>recorded_event_audit:w&#45;&gt;policy:e</title>
<path fill="none" stroke="#000000" d="M237.8703,-66.941C215.7431,-71.1377 206.3229,-85.8815 192,-109.7 140.1825,-195.8706 229.0506,-557.7 128.5,-557.7"/>
<polygon fill="#000000" stroke="#000000" points="244.5286,-66.3763 252.8043,-69.2871 248.5143,-66.0381 252.5,-65.7 252.5,-65.7 252.5,-65.7 248.5143,-66.0381 252.1957,-62.1129 244.5286,-66.3763 244.5286,-66.3763"/>
<ellipse fill="none" stroke="#000000" cx="241.3401" cy="-66.6468" rx="3.2" ry="3.2"/>
</g>
<!-- reference_data_policy -->
<g id="node11" class="node">
<title>reference_data_policy</title>
<g id="a_node11"><a xlink:href="../../tables/reference_data_policy.html" xlink:title="reference_data_policy" target="_top">
<polygon fill="#ffffff" stroke="transparent" points="225,-858.7 225,-970.7 464,-970.7 464,-858.7 225,-858.7"/>
<polygon fill="#f5f5f5" stroke="transparent" points="227.5,-945.7 227.5,-968.7 462.5,-968.7 462.5,-945.7 227.5,-945.7"/>
<polygon fill="none" stroke="#000000" points="227.5,-945.7 227.5,-968.7 462.5,-968.7 462.5,-945.7 227.5,-945.7"/>
<text text-anchor="start" x="232.5" y="-954.3" font-family="Helvetica,sans-Serif" font-weight="bold" font-size="11.00" fill="#000000">reference_data_policy</text>
<text text-anchor="start" x="427.5437" y="-953.8" font-family="Helvetica,sans-Serif" font-size="11.00" fill="#000000">[table]</text>
<polygon fill="#ffffff" stroke="transparent" points="227.5,-923.7 227.5,-945.7 395.5,-945.7 395.5,-923.7 227.5,-923.7"/>
<polygon fill="none" stroke="#000000" points="227.5,-923.7 227.5,-945.7 395.5,-945.7 395.5,-923.7 227.5,-923.7"/>
<image xlink:href="../../images/foreignKeys.png" width="11px" height="12px" preserveAspectRatio="xMinYMin meet" x="232.5" y="-940.7"/>
<text text-anchor="start" x="247.5" y="-930.8" font-family="Helvetica,sans-Serif" font-size="11.00" fill="#000000">id</text>
<polygon fill="none" stroke="#000000" points="395.5,-923.7 395.5,-945.7 462.5,-945.7 462.5,-923.7 395.5,-923.7"/>
<text text-anchor="start" x="398.5" y="-931.4" font-family="Helvetica,sans-Serif" font-size="11.00" fill="#000000">int8[19]</text>
<polygon fill="#ffffff" stroke="transparent" points="227.5,-901.7 227.5,-923.7 395.5,-923.7 395.5,-901.7 227.5,-901.7"/>
<polygon fill="none" stroke="#000000" points="227.5,-901.7 227.5,-923.7 395.5,-923.7 395.5,-901.7 227.5,-901.7"/>
<image xlink:href="../../images/foreignKeys.png" width="11px" height="12px" preserveAspectRatio="xMinYMin meet" x="232.5" y="-918.7"/>
<text text-anchor="start" x="247.5" y="-908.8" font-family="Helvetica,sans-Serif" font-size="11.00" fill="#000000">policy_code</text>
<polygon fill="none" stroke="#000000" points="395.5,-901.7 395.5,-923.7 462.5,-923.7 462.5,-901.7 395.5,-901.7"/>
<text text-anchor="start" x="398.5" y="-909.4" font-family="Helvetica,sans-Serif" font-size="11.00" fill="#000000">varchar[16]</text>
<polygon fill="none" stroke="#000000" points="227.5,-879.7 227.5,-901.7 395.5,-901.7 395.5,-879.7 227.5,-879.7"/>
<text text-anchor="start" x="247.5" y="-886.8" font-family="Helvetica,sans-Serif" font-size="11.00" fill="#000000">description_override</text>
<polygon fill="none" stroke="#000000" points="395.5,-879.7 395.5,-901.7 462.5,-901.7 462.5,-879.7 395.5,-879.7"/>
<text text-anchor="start" x="398.4365" y="-887.4" font-family="Helvetica,sans-Serif" font-size="11.00" fill="#000000">varchar[128]</text>
<polygon fill="#ffffff" stroke="transparent" points="227.5,-860.7 227.5,-879.7 299.5,-879.7 299.5,-860.7 227.5,-860.7"/>
<polygon fill="none" stroke="#000000" points="227.5,-860.7 227.5,-879.7 299.5,-879.7 299.5,-860.7 227.5,-860.7"/>
<text text-anchor="start" x="230.5" y="-866.8" font-family="Helvetica,sans-Serif" font-size="11.00" fill="#000000">&lt; 2</text>
<polygon fill="#ffffff" stroke="transparent" points="299.5,-860.7 299.5,-879.7 395.5,-879.7 395.5,-860.7 299.5,-860.7"/>
<polygon fill="none" stroke="#000000" points="299.5,-860.7 299.5,-879.7 395.5,-879.7 395.5,-860.7 299.5,-860.7"/>
<text text-anchor="start" x="353.9956" y="-866.8" font-family="Helvetica,sans-Serif" font-size="11.00" fill="#000000">84 rows</text>
<polygon fill="#ffffff" stroke="transparent" points="395.5,-860.7 395.5,-879.7 462.5,-879.7 462.5,-860.7 395.5,-860.7"/>
<polygon fill="none" stroke="#000000" points="395.5,-860.7 395.5,-879.7 462.5,-879.7 462.5,-860.7 395.5,-860.7"/>
<text text-anchor="start" x="443.9053" y="-866.8" font-family="Helvetica,sans-Serif" font-size="11.00" fill="#000000">0 &gt;</text>
<polygon fill="none" stroke="#000000" stroke-width="2" points="226,-859.7 226,-969.7 463,-969.7 463,-859.7 226,-859.7"/>
</a>
</g>
</g>
<!-- reference_data_policy&#45;&gt;reference_data -->
<g id="edge12" class="edge">
<title>reference_data_policy:w&#45;&gt;reference_data:e</title>
<path fill="none" stroke="#000000" d="M212.9839,-937.7252C181.5919,-952.867 196.4357,-1019.7 151.5,-1019.7"/>
<polygon fill="#000000" stroke="#000000" points="219.6683,-936.3322 228.2345,-938.2243 223.5841,-935.5161 227.5,-934.7 227.5,-934.7 227.5,-934.7 223.5841,-935.5161 226.7655,-931.1757 219.6683,-936.3322 219.6683,-936.3322"/>
<ellipse fill="none" stroke="#000000" cx="216.5356" cy="-936.9851" rx="3.2" ry="3.2"/>
</g>
<!-- reference_data_policy&#45;&gt;policy -->
<g id="edge13" class="edge">
<title>reference_data_policy:w&#45;&gt;policy:e</title>
<path fill="none" stroke="#000000" d="M212.8603,-911.6177C78.0281,-890.1878 287.0195,-557.7 128.5,-557.7"/>
<polygon fill="#000000" stroke="#000000" points="219.5218,-912.1101 227.2346,-916.2902 223.5109,-912.4051 227.5,-912.7 227.5,-912.7 227.5,-912.7 223.5109,-912.4051 227.7654,-909.1098 219.5218,-912.1101 219.5218,-912.1101"/>
<ellipse fill="none" stroke="#000000" cx="216.3305" cy="-911.8742" rx="3.2" ry="3.2"/>
</g>
<!-- staff_configuration -->
<g id="node12" class="node">
<title>staff_configuration</title>
<g id="a_node12"><a xlink:href="../../tables/staff_configuration.html" xlink:title="staff_configuration" target="_top">
<polygon fill="#ffffff" stroke="transparent" points="261,-776.2 261,-837.2 428,-837.2 428,-776.2 261,-776.2"/>
<polygon fill="#f5f5f5" stroke="transparent" points="261.5,-813.7 261.5,-836.7 428.5,-836.7 428.5,-813.7 261.5,-813.7"/>
<polygon fill="none" stroke="#000000" points="261.5,-813.7 261.5,-836.7 428.5,-836.7 428.5,-813.7 261.5,-813.7"/>
<text text-anchor="start" x="266.5" y="-822.3" font-family="Helvetica,sans-Serif" font-weight="bold" font-size="11.00" fill="#000000">staff_configuration</text>
<text text-anchor="start" x="394.0219" y="-821.8" font-family="Helvetica,sans-Serif" font-size="11.00" fill="#000000">[table]</text>
<polygon fill="none" stroke="#000000" points="261.5,-794.7 261.5,-813.7 428.5,-813.7 428.5,-794.7 261.5,-794.7"/>
<text text-anchor="start" x="264.5" y="-800.8" font-family="Helvetica,sans-Serif" font-size="11.00" fill="#000000">...</text>
<polygon fill="#ffffff" stroke="transparent" points="261.5,-775.7 261.5,-794.7 343.5,-794.7 343.5,-775.7 261.5,-775.7"/>
<polygon fill="none" stroke="#000000" points="261.5,-775.7 261.5,-794.7 343.5,-794.7 343.5,-775.7 261.5,-775.7"/>
<text text-anchor="start" x="264.5" y="-781.8" font-family="Helvetica,sans-Serif" font-size="11.00" fill="#000000">&lt; 2</text>
<polygon fill="#ffffff" stroke="transparent" points="343.5,-775.7 343.5,-794.7 385.5,-794.7 385.5,-775.7 343.5,-775.7"/>
<polygon fill="none" stroke="#000000" points="343.5,-775.7 343.5,-794.7 385.5,-794.7 385.5,-775.7 343.5,-775.7"/>
<text text-anchor="start" x="376.3862" y="-781.8" font-family="Helvetica,sans-Serif" font-size="11.00" fill="#000000"> &#160;</text>
<polygon fill="#ffffff" stroke="transparent" points="385.5,-775.7 385.5,-794.7 428.5,-794.7 428.5,-775.7 385.5,-775.7"/>
<polygon fill="none" stroke="#000000" points="385.5,-775.7 385.5,-794.7 428.5,-794.7 428.5,-775.7 385.5,-775.7"/>
<text text-anchor="start" x="419.3862" y="-781.8" font-family="Helvetica,sans-Serif" font-size="11.00" fill="#000000"> &#160;</text>
</a>
</g>
</g>
<!-- staff_configuration&#45;&gt;reference_data -->
<g id="edge15" class="edge">
<title>staff_configuration:w&#45;&gt;reference_data:e</title>
<path fill="none" stroke="#000000" d="M247.0247,-804.6363C221.1774,-808.3322 210.1465,-822.9767 192,-848.7 146.978,-912.5202 229.6025,-1019.7 151.5,-1019.7"/>
<polygon fill="#000000" stroke="#000000" points="253.5167,-804.2164 261.7324,-807.2925 257.5083,-803.9582 261.5,-803.7 261.5,-803.7 261.5,-803.7 257.5083,-803.9582 261.2676,-800.1075 253.5167,-804.2164 253.5167,-804.2164"/>
<ellipse fill="none" stroke="#000000" cx="250.3234" cy="-804.423" rx="3.2" ry="3.2"/>
</g>
<!-- staff_configuration&#45;&gt;policy -->
<g id="edge14" class="edge">
<title>staff_configuration:w&#45;&gt;policy:e</title>
<path fill="none" stroke="#000000" d="M246.9037,-802.9341C222.383,-800.0544 210.8422,-788.8404 192,-765.7 130.97,-690.7479 225.1564,-557.7 128.5,-557.7"/>
<polygon fill="#000000" stroke="#000000" points="253.511,-803.2807 261.3113,-807.2951 257.5055,-803.4904 261.5,-803.7 261.5,-803.7 261.5,-803.7 257.5055,-803.4904 261.6887,-800.1049 253.511,-803.2807 253.511,-803.2807"/>
<ellipse fill="none" stroke="#000000" cx="250.3154" cy="-803.113" rx="3.2" ry="3.2"/>
</g>
<!-- staff_configuration_audit -->
<g id="node13" class="node">
<title>staff_configuration_audit</title>
<g id="a_node13"><a xlink:href="../../tables/staff_configuration_audit.html" xlink:title="staff_configuration_audit" target="_top">
<polygon fill="#ffffff" stroke="transparent" points="240.5,-694.2 240.5,-755.2 448.5,-755.2 448.5,-694.2 240.5,-694.2"/>
<polygon fill="#f5f5f5" stroke="transparent" points="240.5,-731.7 240.5,-754.7 448.5,-754.7 448.5,-731.7 240.5,-731.7"/>
<polygon fill="none" stroke="#000000" points="240.5,-731.7 240.5,-754.7 448.5,-754.7 448.5,-731.7 240.5,-731.7"/>
<text text-anchor="start" x="245.5" y="-740.3" font-family="Helvetica,sans-Serif" font-weight="bold" font-size="11.00" fill="#000000">staff_configuration_audit</text>
<text text-anchor="start" x="414.0219" y="-739.8" font-family="Helvetica,sans-Serif" font-size="11.00" fill="#000000">[table]</text>
<polygon fill="none" stroke="#000000" points="240.5,-712.7 240.5,-731.7 448.5,-731.7 448.5,-712.7 240.5,-712.7"/>
<text text-anchor="start" x="243.5" y="-718.8" font-family="Helvetica,sans-Serif" font-size="11.00" fill="#000000">...</text>
<polygon fill="#ffffff" stroke="transparent" points="240.5,-693.7 240.5,-712.7 342.5,-712.7 342.5,-693.7 240.5,-693.7"/>
<polygon fill="none" stroke="#000000" points="240.5,-693.7 240.5,-712.7 342.5,-712.7 342.5,-693.7 240.5,-693.7"/>
<text text-anchor="start" x="243.5" y="-699.8" font-family="Helvetica,sans-Serif" font-size="11.00" fill="#000000">&lt; 2</text>
<polygon fill="#ffffff" stroke="transparent" points="342.5,-693.7 342.5,-712.7 395.5,-712.7 395.5,-693.7 342.5,-693.7"/>
<polygon fill="none" stroke="#000000" points="342.5,-693.7 342.5,-712.7 395.5,-712.7 395.5,-693.7 342.5,-693.7"/>
<text text-anchor="start" x="386.3862" y="-699.8" font-family="Helvetica,sans-Serif" font-size="11.00" fill="#000000"> &#160;</text>
<polygon fill="#ffffff" stroke="transparent" points="395.5,-693.7 395.5,-712.7 448.5,-712.7 448.5,-693.7 395.5,-693.7"/>
<polygon fill="none" stroke="#000000" points="395.5,-693.7 395.5,-712.7 448.5,-712.7 448.5,-693.7 395.5,-693.7"/>
<text text-anchor="start" x="439.3862" y="-699.8" font-family="Helvetica,sans-Serif" font-size="11.00" fill="#000000"> &#160;</text>
</a>
</g>
</g>
<!-- staff_configuration_audit&#45;&gt;policy -->
<g id="edge16" class="edge">
<title>staff_configuration_audit:w&#45;&gt;policy:e</title>
<path fill="none" stroke="#000000" stroke-dasharray="5,2" d="M225.9753,-719.5718C210.9252,-714.4102 205.6957,-700.4127 192,-683.7 152.2522,-635.1963 191.2096,-557.7 128.5,-557.7"/>
<polygon fill="#000000" stroke="#000000" points="232.5845,-720.5402 239.9781,-725.262 236.5423,-721.1201 240.5,-721.7 240.5,-721.7 240.5,-721.7 236.5423,-721.1201 241.0219,-718.138 232.5845,-720.5402 232.5845,-720.5402"/>
<ellipse fill="none" stroke="#000000" cx="229.4183" cy="-720.0762" rx="3.2" ry="3.2"/>
</g>
<!-- staff_role -->
<g id="node14" class="node">
<title>staff_role</title>
<g id="a_node14"><a xlink:href="../../tables/staff_role.html" xlink:title="staff_role" target="_top">
<polygon fill="#ffffff" stroke="transparent" points="293.5,-612.2 293.5,-673.2 395.5,-673.2 395.5,-612.2 293.5,-612.2"/>
<polygon fill="#f5f5f5" stroke="transparent" points="293.5,-649.7 293.5,-672.7 395.5,-672.7 395.5,-649.7 293.5,-649.7"/>
<polygon fill="none" stroke="#000000" points="293.5,-649.7 293.5,-672.7 395.5,-672.7 395.5,-649.7 293.5,-649.7"/>
<text text-anchor="start" x="298.5" y="-658.3" font-family="Helvetica,sans-Serif" font-weight="bold" font-size="11.00" fill="#000000">staff_role</text>
<text text-anchor="start" x="361.0219" y="-657.8" font-family="Helvetica,sans-Serif" font-size="11.00" fill="#000000">[table]</text>
<polygon fill="none" stroke="#000000" points="293.5,-630.7 293.5,-649.7 395.5,-649.7 395.5,-630.7 293.5,-630.7"/>
<text text-anchor="start" x="296.5" y="-636.8" font-family="Helvetica,sans-Serif" font-size="11.00" fill="#000000">...</text>
<polygon fill="#ffffff" stroke="transparent" points="293.5,-611.7 293.5,-630.7 342.5,-630.7 342.5,-611.7 293.5,-611.7"/>
<polygon fill="none" stroke="#000000" points="293.5,-611.7 293.5,-630.7 342.5,-630.7 342.5,-611.7 293.5,-611.7"/>
<text text-anchor="start" x="296.5" y="-617.8" font-family="Helvetica,sans-Serif" font-size="11.00" fill="#000000">&lt; 2</text>
<polygon fill="#ffffff" stroke="transparent" points="342.5,-611.7 342.5,-630.7 368.5,-630.7 368.5,-611.7 342.5,-611.7"/>
<polygon fill="none" stroke="#000000" points="342.5,-611.7 342.5,-630.7 368.5,-630.7 368.5,-611.7 342.5,-611.7"/>
<text text-anchor="start" x="359.3862" y="-617.8" font-family="Helvetica,sans-Serif" font-size="11.00" fill="#000000"> &#160;</text>
<polygon fill="#ffffff" stroke="transparent" points="368.5,-611.7 368.5,-630.7 395.5,-630.7 395.5,-611.7 368.5,-611.7"/>
<polygon fill="none" stroke="#000000" points="368.5,-611.7 368.5,-630.7 395.5,-630.7 395.5,-611.7 368.5,-611.7"/>
<text text-anchor="start" x="386.3862" y="-617.8" font-family="Helvetica,sans-Serif" font-size="11.00" fill="#000000"> &#160;</text>
</a>
</g>
</g>
<!-- staff_role&#45;&gt;policy -->
<g id="edge17" class="edge">
<title>staff_role:w&#45;&gt;policy:e</title>
<path fill="none" stroke="#000000" stroke-dasharray="5,2" d="M278.95,-639.1495C242.6178,-636.1931 230.011,-621.5901 192,-601.7 161.578,-585.781 162.8353,-557.7 128.5,-557.7"/>
<polygon fill="#000000" stroke="#000000" points="285.5057,-639.3975 293.3639,-643.2974 289.5029,-639.5487 293.5,-639.7 293.5,-639.7 293.5,-639.7 289.5029,-639.5487 293.6361,-636.1026 285.5057,-639.3975 285.5057,-639.3975"/>
<ellipse fill="none" stroke="#000000" cx="282.308" cy="-639.2765" rx="3.2" ry="3.2"/>
</g>
<!-- staff_role_audit -->
<g id="node15" class="node">
<title>staff_role_audit</title>
<g id="a_node15"><a xlink:href="../../tables/staff_role_audit.html" xlink:title="staff_role_audit" target="_top">
<polygon fill="#ffffff" stroke="transparent" points="273,-530.2 273,-591.2 416,-591.2 416,-530.2 273,-530.2"/>
<polygon fill="#f5f5f5" stroke="transparent" points="273.5,-567.7 273.5,-590.7 416.5,-590.7 416.5,-567.7 273.5,-567.7"/>
<polygon fill="none" stroke="#000000" points="273.5,-567.7 273.5,-590.7 416.5,-590.7 416.5,-567.7 273.5,-567.7"/>
<text text-anchor="start" x="278.5" y="-576.3" font-family="Helvetica,sans-Serif" font-weight="bold" font-size="11.00" fill="#000000">staff_role_audit</text>
<text text-anchor="start" x="382.0219" y="-575.8" font-family="Helvetica,sans-Serif" font-size="11.00" fill="#000000">[table]</text>
<polygon fill="none" stroke="#000000" points="273.5,-548.7 273.5,-567.7 416.5,-567.7 416.5,-548.7 273.5,-548.7"/>
<text text-anchor="start" x="276.5" y="-554.8" font-family="Helvetica,sans-Serif" font-size="11.00" fill="#000000">...</text>
<polygon fill="#ffffff" stroke="transparent" points="273.5,-529.7 273.5,-548.7 343.5,-548.7 343.5,-529.7 273.5,-529.7"/>
<polygon fill="none" stroke="#000000" points="273.5,-529.7 273.5,-548.7 343.5,-548.7 343.5,-529.7 273.5,-529.7"/>
<text text-anchor="start" x="276.5" y="-535.8" font-family="Helvetica,sans-Serif" font-size="11.00" fill="#000000">&lt; 3</text>
<polygon fill="#ffffff" stroke="transparent" points="343.5,-529.7 343.5,-548.7 379.5,-548.7 379.5,-529.7 343.5,-529.7"/>
<polygon fill="none" stroke="#000000" points="343.5,-529.7 343.5,-548.7 379.5,-548.7 379.5,-529.7 343.5,-529.7"/>
<text text-anchor="start" x="370.3862" y="-535.8" font-family="Helvetica,sans-Serif" font-size="11.00" fill="#000000"> &#160;</text>
<polygon fill="#ffffff" stroke="transparent" points="379.5,-529.7 379.5,-548.7 416.5,-548.7 416.5,-529.7 379.5,-529.7"/>
<polygon fill="none" stroke="#000000" points="379.5,-529.7 379.5,-548.7 416.5,-548.7 416.5,-529.7 379.5,-529.7"/>
<text text-anchor="start" x="407.3862" y="-535.8" font-family="Helvetica,sans-Serif" font-size="11.00" fill="#000000"> &#160;</text>
</a>
</g>
</g>
<!-- staff_role_audit&#45;&gt;policy -->
<g id="edge18" class="edge">
<title>staff_role_audit:w&#45;&gt;policy:e</title>
<path fill="none" stroke="#000000" stroke-dasharray="5,2" d="M258.8984,-557.7C206.1653,-557.7 187.7839,-557.7 128.5,-557.7"/>
<polygon fill="#000000" stroke="#000000" points="265.5,-557.7001 273.5,-561.3 269.5,-557.7 273.5,-557.7 273.5,-557.7 273.5,-557.7 269.5,-557.7 273.5,-554.1 265.5,-557.7001 265.5,-557.7001"/>
<ellipse fill="none" stroke="#000000" cx="262.3" cy="-557.7001" rx="3.2" ry="3.2"/>
</g>
</g>
</svg>
