<?xml version="1.0" encoding="UTF-8" standalone="no"?>
<!DOCTYPE svg PUBLIC "-//W3C//DTD SVG 1.1//EN"
 "http://www.w3.org/Graphics/SVG/1.1/DTD/svg11.dtd">
<!-- Generated by graphviz version 2.40.1 (20161225.0304)
 -->
<!-- Title: twoDegreesRelationshipsDiagram Pages: 1 -->
<svg width="603pt" height="1011pt"
 viewBox="0.00 0.00 603.00 1011.20" xmlns="http://www.w3.org/2000/svg" xmlns:xlink="http://www.w3.org/1999/xlink">
<g id="graph0" class="graph" transform="scale(1 1) rotate(0) translate(4 1007.2)">
<title>twoDegreesRelationshipsDiagram</title>
<polygon fill="#ffffff" stroke="transparent" points="-4,4 -4,-1007.2 599,-1007.2 599,4 -4,4"/>
<text text-anchor="middle" x="72.4936" y="-7.3" font-family="Helvetica,sans-Serif" font-size="11.00" fill="#000000">Generated by SchemaSpy</text>
<!-- allocation -->
<g id="node1" class="node">
<title>allocation</title>
<g id="a_node1"><a xlink:href="../../tables/allocation.html" xlink:title="allocation" target="_top">
<polygon fill="#ffffff" stroke="transparent" points="342,-526.2 342,-763.2 516,-763.2 516,-526.2 342,-526.2"/>
<polygon fill="#f5f5f5" stroke="transparent" points="342,-739.7 342,-762.7 516,-762.7 516,-739.7 342,-739.7"/>
<polygon fill="none" stroke="#000000" points="342,-739.7 342,-762.7 516,-762.7 516,-739.7 342,-739.7"/>
<text text-anchor="start" x="347" y="-748.3" font-family="Helvetica,sans-Serif" font-weight="bold" font-size="11.00" fill="#000000">allocation</text>
<text text-anchor="start" x="481.0437" y="-747.8" font-family="Helvetica,sans-Serif" font-size="11.00" fill="#000000">[table]</text>
<polygon fill="none" stroke="#000000" points="342,-717.7 342,-739.7 516,-739.7 516,-717.7 342,-717.7"/>
<image xlink:href="../../images/primaryKeys.png" width="11px" height="12px" preserveAspectRatio="xMinYMin meet" x="347" y="-734.7"/>
<text text-anchor="start" x="362" y="-724.8" font-family="Helvetica,sans-Serif" font-size="11.00" fill="#000000">id</text>
<polygon fill="#ffffff" stroke="transparent" points="342,-695.7 342,-717.7 516,-717.7 516,-695.7 342,-695.7"/>
<polygon fill="none" stroke="#000000" points="342,-695.7 342,-717.7 516,-717.7 516,-695.7 342,-695.7"/>
<image xlink:href="../../images/foreignKeys.png" width="11px" height="12px" preserveAspectRatio="xMinYMin meet" x="347" y="-712.7"/>
<text text-anchor="start" x="362" y="-702.8" font-family="Helvetica,sans-Serif" font-size="11.00" fill="#000000">prison_code</text>
<polygon fill="#ffffff" stroke="transparent" points="342,-673.7 342,-695.7 516,-695.7 516,-673.7 342,-673.7"/>
<polygon fill="none" stroke="#000000" points="342,-673.7 342,-695.7 516,-695.7 516,-673.7 342,-673.7"/>
<text text-anchor="start" x="362" y="-680.8" font-family="Helvetica,sans-Serif" font-size="11.00" fill="#000000">staff_id</text>
<polygon fill="#ffffff" stroke="transparent" points="342,-651.7 342,-673.7 516,-673.7 516,-651.7 342,-651.7"/>
<polygon fill="none" stroke="#000000" points="342,-651.7 342,-673.7 516,-673.7 516,-651.7 342,-651.7"/>
<text text-anchor="start" x="362" y="-658.8" font-family="Helvetica,sans-Serif" font-size="11.00" fill="#000000">person_identifier</text>
<polygon fill="#ffffff" stroke="transparent" points="342,-629.7 342,-651.7 516,-651.7 516,-629.7 342,-629.7"/>
<polygon fill="none" stroke="#000000" points="342,-629.7 342,-651.7 516,-651.7 516,-629.7 342,-629.7"/>
<text text-anchor="start" x="362" y="-636.8" font-family="Helvetica,sans-Serif" font-size="11.00" fill="#000000">allocated_at</text>
<polygon fill="none" stroke="#000000" points="342,-607.7 342,-629.7 516,-629.7 516,-607.7 342,-607.7"/>
<image xlink:href="../../images/foreignKeys.png" width="11px" height="12px" preserveAspectRatio="xMinYMin meet" x="347" y="-624.7"/>
<text text-anchor="start" x="362" y="-614.8" font-family="Helvetica,sans-Serif" font-size="11.00" fill="#000000">allocation_reason_id</text>
<polygon fill="none" stroke="#000000" points="342,-585.7 342,-607.7 516,-607.7 516,-585.7 342,-585.7"/>
<image xlink:href="../../images/foreignKeys.png" width="11px" height="12px" preserveAspectRatio="xMinYMin meet" x="347" y="-602.7"/>
<text text-anchor="start" x="362" y="-592.8" font-family="Helvetica,sans-Serif" font-size="11.00" fill="#000000">deallocation_reason_id</text>
<polygon fill="#ffffff" stroke="transparent" points="342,-563.7 342,-585.7 516,-585.7 516,-563.7 342,-563.7"/>
<polygon fill="none" stroke="#000000" points="342,-563.7 342,-585.7 516,-585.7 516,-563.7 342,-563.7"/>
<image xlink:href="../../images/foreignKeys.png" width="11px" height="12px" preserveAspectRatio="xMinYMin meet" x="347" y="-580.7"/>
<text text-anchor="start" x="362" y="-570.8" font-family="Helvetica,sans-Serif" font-size="11.00" fill="#000000">policy_code</text>
<polygon fill="none" stroke="#000000" points="342,-544.7 342,-563.7 516,-563.7 516,-544.7 342,-544.7"/>
<text text-anchor="start" x="345" y="-550.8" font-family="Helvetica,sans-Serif" font-size="11.00" fill="#000000">...</text>
<polygon fill="#ffffff" stroke="transparent" points="342,-525.7 342,-544.7 427,-544.7 427,-525.7 342,-525.7"/>
<polygon fill="none" stroke="#000000" points="342,-525.7 342,-544.7 427,-544.7 427,-525.7 342,-525.7"/>
<text text-anchor="start" x="345" y="-531.8" font-family="Helvetica,sans-Serif" font-size="11.00" fill="#000000">&lt; 3</text>
<polygon fill="#ffffff" stroke="transparent" points="427,-525.7 427,-544.7 471,-544.7 471,-525.7 427,-525.7"/>
<polygon fill="none" stroke="#000000" points="427,-525.7 427,-544.7 471,-544.7 471,-525.7 427,-525.7"/>
<text text-anchor="start" x="461.8862" y="-531.8" font-family="Helvetica,sans-Serif" font-size="11.00" fill="#000000"> &#160;</text>
<polygon fill="#ffffff" stroke="transparent" points="471,-525.7 471,-544.7 516,-544.7 516,-525.7 471,-525.7"/>
<polygon fill="none" stroke="#000000" points="471,-525.7 471,-544.7 516,-544.7 516,-525.7 471,-525.7"/>
<text text-anchor="start" x="506.8862" y="-531.8" font-family="Helvetica,sans-Serif" font-size="11.00" fill="#000000"> &#160;</text>
</a>
</g>
</g>
<!-- reference_data -->
<g id="node2" class="node">
<title>reference_data</title>
<g id="a_node2"><a xlink:href="../../tables/reference_data.html" xlink:title="reference_data" target="_top">
<polygon fill="#ffffff" stroke="transparent" points="8,-476.7 8,-632.7 222,-632.7 222,-476.7 8,-476.7"/>
<polygon fill="#f5f5f5" stroke="transparent" points="10,-607.7 10,-630.7 220,-630.7 220,-607.7 10,-607.7"/>
<polygon fill="none" stroke="#000000" points="10,-607.7 10,-630.7 220,-630.7 220,-607.7 10,-607.7"/>
<text text-anchor="start" x="15" y="-616.3" font-family="Helvetica,sans-Serif" font-weight="bold" font-size="11.00" fill="#000000">reference_data</text>
<text text-anchor="start" x="185.0437" y="-615.8" font-family="Helvetica,sans-Serif" font-size="11.00" fill="#000000">[table]</text>
<polygon fill="none" stroke="#000000" points="10,-585.7 10,-607.7 153,-607.7 153,-585.7 10,-585.7"/>
<image xlink:href="../../images/primaryKeys.png" width="11px" height="12px" preserveAspectRatio="xMinYMin meet" x="15" y="-602.7"/>
<text text-anchor="start" x="30" y="-592.8" font-family="Helvetica,sans-Serif" font-size="11.00" fill="#000000">id</text>
<polygon fill="none" stroke="#000000" points="153,-585.7 153,-607.7 220,-607.7 220,-585.7 153,-585.7"/>
<text text-anchor="start" x="156" y="-593.4" font-family="Helvetica,sans-Serif" font-size="11.00" fill="#000000">bigserial[19]</text>
<polygon fill="#ffffff" stroke="transparent" points="10,-563.7 10,-585.7 153,-585.7 153,-563.7 10,-563.7"/>
<polygon fill="none" stroke="#000000" points="10,-563.7 10,-585.7 153,-585.7 153,-563.7 10,-563.7"/>
<text text-anchor="start" x="30" y="-570.8" font-family="Helvetica,sans-Serif" font-size="11.00" fill="#000000">domain</text>
<polygon fill="none" stroke="#000000" points="153,-563.7 153,-585.7 220,-585.7 220,-563.7 153,-563.7"/>
<text text-anchor="start" x="156" y="-571.4" font-family="Helvetica,sans-Serif" font-size="11.00" fill="#000000">varchar[32]</text>
<polygon fill="#ffffff" stroke="transparent" points="10,-541.7 10,-563.7 153,-563.7 153,-541.7 10,-541.7"/>
<polygon fill="none" stroke="#000000" points="10,-541.7 10,-563.7 153,-563.7 153,-541.7 10,-541.7"/>
<text text-anchor="start" x="30" y="-548.8" font-family="Helvetica,sans-Serif" font-size="11.00" fill="#000000">code</text>
<polygon fill="none" stroke="#000000" points="153,-541.7 153,-563.7 220,-563.7 220,-541.7 153,-541.7"/>
<text text-anchor="start" x="156" y="-549.4" font-family="Helvetica,sans-Serif" font-size="11.00" fill="#000000">varchar[32]</text>
<polygon fill="none" stroke="#000000" points="10,-519.7 10,-541.7 153,-541.7 153,-519.7 10,-519.7"/>
<text text-anchor="start" x="30" y="-526.8" font-family="Helvetica,sans-Serif" font-size="11.00" fill="#000000">description</text>
<polygon fill="none" stroke="#000000" points="153,-519.7 153,-541.7 220,-541.7 220,-519.7 153,-519.7"/>
<text text-anchor="start" x="155.9365" y="-527.4" font-family="Helvetica,sans-Serif" font-size="11.00" fill="#000000">varchar[128]</text>
<polygon fill="#ffffff" stroke="transparent" points="10,-497.7 10,-519.7 153,-519.7 153,-497.7 10,-497.7"/>
<polygon fill="none" stroke="#000000" points="10,-497.7 10,-519.7 153,-519.7 153,-497.7 10,-497.7"/>
<text text-anchor="start" x="30" y="-504.8" font-family="Helvetica,sans-Serif" font-size="11.00" fill="#000000">sequence_number</text>
<polygon fill="none" stroke="#000000" points="153,-497.7 153,-519.7 220,-519.7 220,-497.7 153,-497.7"/>
<text text-anchor="start" x="156" y="-505.4" font-family="Helvetica,sans-Serif" font-size="11.00" fill="#000000">int4[10]</text>
<polygon fill="#ffffff" stroke="transparent" points="10,-478.7 10,-497.7 86,-497.7 86,-478.7 10,-478.7"/>
<polygon fill="none" stroke="#000000" points="10,-478.7 10,-497.7 86,-497.7 86,-478.7 10,-478.7"/>
<text text-anchor="start" x="13" y="-484.8" font-family="Helvetica,sans-Serif" font-size="11.00" fill="#000000">&lt; 0</text>
<polygon fill="#ffffff" stroke="transparent" points="86,-478.7 86,-497.7 153,-497.7 153,-478.7 86,-478.7"/>
<polygon fill="none" stroke="#000000" points="86,-478.7 86,-497.7 153,-497.7 153,-478.7 86,-478.7"/>
<text text-anchor="start" x="143.8862" y="-484.8" font-family="Helvetica,sans-Serif" font-size="11.00" fill="#000000"> &#160;</text>
<polygon fill="#ffffff" stroke="transparent" points="153,-478.7 153,-497.7 220,-497.7 220,-478.7 153,-478.7"/>
<polygon fill="none" stroke="#000000" points="153,-478.7 153,-497.7 220,-497.7 220,-478.7 153,-478.7"/>
<text text-anchor="start" x="201.4053" y="-484.8" font-family="Helvetica,sans-Serif" font-size="11.00" fill="#000000">7 &gt;</text>
<polygon fill="none" stroke="#000000" stroke-width="2" points="9,-477.7 9,-631.7 221,-631.7 221,-477.7 9,-477.7"/>
</a>
</g>
</g>
<!-- allocation&#45;&gt;reference_data -->
<g id="edge1" class="edge">
<title>allocation:w&#45;&gt;reference_data:e</title>
<path fill="none" stroke="#000000" d="M327.5741,-618.1562C284.309,-614.7684 269.9314,-596.7 220,-596.7"/>
<polygon fill="#000000" stroke="#000000" points="334.0057,-618.3986 341.8644,-622.2974 338.0028,-618.5493 342,-618.7 342,-618.7 342,-618.7 338.0028,-618.5493 342.1356,-615.1026 334.0057,-618.3986 334.0057,-618.3986"/>
<ellipse fill="none" stroke="#000000" cx="330.8079" cy="-618.278" rx="3.2" ry="3.2"/>
</g>
<!-- allocation&#45;&gt;reference_data -->
<g id="edge2" class="edge">
<title>allocation:w&#45;&gt;reference_data:e</title>
<path fill="none" stroke="#000000" d="M327.4784,-596.7C284.8107,-596.7 269.033,-596.7 220,-596.7"/>
<polygon fill="#000000" stroke="#000000" points="334,-596.7001 342,-600.3 338,-596.7 342,-596.7 342,-596.7 342,-596.7 338,-596.7 342,-593.1 334,-596.7001 334,-596.7001"/>
<ellipse fill="none" stroke="#000000" cx="330.8" cy="-596.7001" rx="3.2" ry="3.2"/>
</g>
<!-- policy -->
<g id="node3" class="node">
<title>policy</title>
<g id="a_node3"><a xlink:href="../../tables/policy.html" xlink:title="policy" target="_top">
<polygon fill="#ffffff" stroke="transparent" points="76,-303.2 76,-364.2 154,-364.2 154,-303.2 76,-303.2"/>
<polygon fill="#f5f5f5" stroke="transparent" points="76,-340.7 76,-363.7 154,-363.7 154,-340.7 76,-340.7"/>
<polygon fill="none" stroke="#000000" points="76,-340.7 76,-363.7 154,-363.7 154,-340.7 76,-340.7"/>
<text text-anchor="start" x="81" y="-349.3" font-family="Helvetica,sans-Serif" font-weight="bold" font-size="11.00" fill="#000000">policy</text>
<text text-anchor="start" x="119.5219" y="-348.8" font-family="Helvetica,sans-Serif" font-size="11.00" fill="#000000">[table]</text>
<polygon fill="none" stroke="#000000" points="76,-321.7 76,-340.7 154,-340.7 154,-321.7 76,-321.7"/>
<text text-anchor="start" x="79" y="-327.8" font-family="Helvetica,sans-Serif" font-size="11.00" fill="#000000">...</text>
<polygon fill="#ffffff" stroke="transparent" points="76,-302.7 76,-321.7 104,-321.7 104,-302.7 76,-302.7"/>
<polygon fill="none" stroke="#000000" points="76,-302.7 76,-321.7 104,-321.7 104,-302.7 76,-302.7"/>
<text text-anchor="start" x="79" y="-308.8" font-family="Helvetica,sans-Serif" font-size="11.00" fill="#000000"> &#160;</text>
<polygon fill="#ffffff" stroke="transparent" points="104,-302.7 104,-321.7 124,-321.7 124,-302.7 104,-302.7"/>
<polygon fill="none" stroke="#000000" points="104,-302.7 104,-321.7 124,-321.7 124,-302.7 104,-302.7"/>
<text text-anchor="start" x="114.8862" y="-308.8" font-family="Helvetica,sans-Serif" font-size="11.00" fill="#000000"> &#160;</text>
<polygon fill="#ffffff" stroke="transparent" points="124,-302.7 124,-321.7 154,-321.7 154,-302.7 124,-302.7"/>
<polygon fill="none" stroke="#000000" points="124,-302.7 124,-321.7 154,-321.7 154,-302.7 124,-302.7"/>
<text text-anchor="start" x="135.4053" y="-308.8" font-family="Helvetica,sans-Serif" font-size="11.00" fill="#000000">7 &gt;</text>
</a>
</g>
</g>
<!-- allocation&#45;&gt;policy -->
<g id="edge3" class="edge">
<title>allocation:w&#45;&gt;policy:e</title>
<path fill="none" stroke="#000000" d="M327.6386,-573.5756C296.4006,-568.2216 288.7101,-544.3784 263,-515.7 199.2966,-444.6421 249.4325,-330.7 154,-330.7"/>
<polygon fill="#000000" stroke="#000000" points="334.0244,-574.0755 341.719,-578.289 338.0122,-574.3878 342,-574.7 342,-574.7 342,-574.7 338.0122,-574.3878 342.281,-571.111 334.0244,-574.0755 334.0244,-574.0755"/>
<ellipse fill="none" stroke="#000000" cx="330.8342" cy="-573.8258" rx="3.2" ry="3.2"/>
</g>
<!-- recorded_event -->
<g id="node4" class="node">
<title>recorded_event</title>
<g id="a_node4"><a xlink:href="../../tables/recorded_event.html" xlink:title="recorded_event" target="_top">
<polygon fill="#ffffff" stroke="transparent" points="357,-334.2 357,-505.2 501,-505.2 501,-334.2 357,-334.2"/>
<polygon fill="#f5f5f5" stroke="transparent" points="357,-481.7 357,-504.7 501,-504.7 501,-481.7 357,-481.7"/>
<polygon fill="none" stroke="#000000" points="357,-481.7 357,-504.7 501,-504.7 501,-481.7 357,-481.7"/>
<text text-anchor="start" x="362" y="-490.3" font-family="Helvetica,sans-Serif" font-weight="bold" font-size="11.00" fill="#000000">recorded_event</text>
<text text-anchor="start" x="466.5219" y="-489.8" font-family="Helvetica,sans-Serif" font-size="11.00" fill="#000000">[table]</text>
<polygon fill="none" stroke="#000000" points="357,-459.7 357,-481.7 501,-481.7 501,-459.7 357,-459.7"/>
<image xlink:href="../../images/primaryKeys.png" width="11px" height="12px" preserveAspectRatio="xMinYMin meet" x="362" y="-476.7"/>
<text text-anchor="start" x="381" y="-466.8" font-family="Helvetica,sans-Serif" font-size="11.00" fill="#000000">id</text>
<polygon fill="none" stroke="#000000" points="357,-437.7 357,-459.7 501,-459.7 501,-437.7 357,-437.7"/>
<image xlink:href="../../images/foreignKeys.png" width="11px" height="12px" preserveAspectRatio="xMinYMin meet" x="362" y="-454.7"/>
<text text-anchor="start" x="381" y="-444.8" font-family="Helvetica,sans-Serif" font-size="11.00" fill="#000000">prison_code</text>
<polygon fill="#ffffff" stroke="transparent" points="357,-415.7 357,-437.7 501,-437.7 501,-415.7 357,-415.7"/>
<polygon fill="none" stroke="#000000" points="357,-415.7 357,-437.7 501,-437.7 501,-415.7 357,-415.7"/>
<text text-anchor="start" x="381" y="-422.8" font-family="Helvetica,sans-Serif" font-size="11.00" fill="#000000">person_identifier</text>
<polygon fill="none" stroke="#000000" points="357,-393.7 357,-415.7 501,-415.7 501,-393.7 357,-393.7"/>
<image xlink:href="../../images/foreignKeys.png" width="11px" height="12px" preserveAspectRatio="xMinYMin meet" x="362" y="-410.7"/>
<text text-anchor="start" x="381" y="-400.8" font-family="Helvetica,sans-Serif" font-size="11.00" fill="#000000">policy_code</text>
<polygon fill="#ffffff" stroke="transparent" points="357,-371.7 357,-393.7 501,-393.7 501,-371.7 357,-371.7"/>
<polygon fill="none" stroke="#000000" points="357,-371.7 357,-393.7 501,-393.7 501,-371.7 357,-371.7"/>
<image xlink:href="../../images/foreignKeys.png" width="11px" height="12px" preserveAspectRatio="xMinYMin meet" x="362" y="-388.7"/>
<text text-anchor="start" x="381" y="-378.8" font-family="Helvetica,sans-Serif" font-size="11.00" fill="#000000">type_id</text>
<polygon fill="none" stroke="#000000" points="357,-352.7 357,-371.7 501,-371.7 501,-352.7 357,-352.7"/>
<text text-anchor="start" x="360" y="-358.8" font-family="Helvetica,sans-Serif" font-size="11.00" fill="#000000">...</text>
<polygon fill="#ffffff" stroke="transparent" points="357,-333.7 357,-352.7 427,-352.7 427,-333.7 357,-333.7"/>
<polygon fill="none" stroke="#000000" points="357,-333.7 357,-352.7 427,-352.7 427,-333.7 357,-333.7"/>
<text text-anchor="start" x="360" y="-339.8" font-family="Helvetica,sans-Serif" font-size="11.00" fill="#000000">&lt; 2</text>
<polygon fill="#ffffff" stroke="transparent" points="427,-333.7 427,-352.7 464,-352.7 464,-333.7 427,-333.7"/>
<polygon fill="none" stroke="#000000" points="427,-333.7 427,-352.7 464,-352.7 464,-333.7 427,-333.7"/>
<text text-anchor="start" x="454.8862" y="-339.8" font-family="Helvetica,sans-Serif" font-size="11.00" fill="#000000"> &#160;</text>
<polygon fill="#ffffff" stroke="transparent" points="464,-333.7 464,-352.7 501,-352.7 501,-333.7 464,-333.7"/>
<polygon fill="none" stroke="#000000" points="464,-333.7 464,-352.7 501,-352.7 501,-333.7 464,-333.7"/>
<text text-anchor="start" x="491.8862" y="-339.8" font-family="Helvetica,sans-Serif" font-size="11.00" fill="#000000"> &#160;</text>
</a>
</g>
</g>
<!-- recorded_event&#45;&gt;reference_data -->
<g id="edge5" class="edge">
<title>recorded_event:w&#45;&gt;reference_data:e</title>
<path fill="none" stroke="#000000" d="M342.2906,-383.846C286.7392,-393.238 298.1202,-458.6281 263,-515.7 241.6391,-550.4124 260.7582,-596.7 220,-596.7"/>
<polygon fill="#000000" stroke="#000000" points="349.0242,-383.3214 357.2796,-386.2891 353.0121,-383.0107 357,-382.7 357,-382.7 357,-382.7 353.0121,-383.0107 356.7204,-379.1109 349.0242,-383.3214 349.0242,-383.3214"/>
<ellipse fill="none" stroke="#000000" cx="345.8338" cy="-383.57" rx="3.2" ry="3.2"/>
</g>
<!-- recorded_event&#45;&gt;policy -->
<g id="edge4" class="edge">
<title>recorded_event:w&#45;&gt;policy:e</title>
<path fill="none" stroke="#000000" d="M342.4927,-404.1043C259.5797,-397.1011 244.9658,-330.7 154,-330.7"/>
<polygon fill="#000000" stroke="#000000" points="349.0067,-404.3717 356.8523,-408.297 353.0034,-404.5359 357,-404.7 357,-404.7 357,-404.7 353.0034,-404.5359 357.1477,-401.103 349.0067,-404.3717 349.0067,-404.3717"/>
<ellipse fill="none" stroke="#000000" cx="345.8094" cy="-404.2404" rx="3.2" ry="3.2"/>
</g>
<!-- reference_data_policy -->
<g id="node5" class="node">
<title>reference_data_policy</title>
<g id="a_node5"><a xlink:href="../../tables/reference_data_policy.html" xlink:title="reference_data_policy" target="_top">
<polygon fill="#ffffff" stroke="transparent" points="336,-208.2 336,-313.2 522,-313.2 522,-208.2 336,-208.2"/>
<polygon fill="#f5f5f5" stroke="transparent" points="336,-289.7 336,-312.7 522,-312.7 522,-289.7 336,-289.7"/>
<polygon fill="none" stroke="#000000" points="336,-289.7 336,-312.7 522,-312.7 522,-289.7 336,-289.7"/>
<text text-anchor="start" x="341" y="-298.3" font-family="Helvetica,sans-Serif" font-weight="bold" font-size="11.00" fill="#000000">reference_data_policy</text>
<text text-anchor="start" x="487.5219" y="-297.8" font-family="Helvetica,sans-Serif" font-size="11.00" fill="#000000">[table]</text>
<polygon fill="#ffffff" stroke="transparent" points="336,-267.7 336,-289.7 522,-289.7 522,-267.7 336,-267.7"/>
<polygon fill="none" stroke="#000000" points="336,-267.7 336,-289.7 522,-289.7 522,-267.7 336,-267.7"/>
<image xlink:href="../../images/foreignKeys.png" width="11px" height="12px" preserveAspectRatio="xMinYMin meet" x="341" y="-284.7"/>
<text text-anchor="start" x="365" y="-274.8" font-family="Helvetica,sans-Serif" font-size="11.00" fill="#000000">id</text>
<polygon fill="#ffffff" stroke="transparent" points="336,-245.7 336,-267.7 522,-267.7 522,-245.7 336,-245.7"/>
<polygon fill="none" stroke="#000000" points="336,-245.7 336,-267.7 522,-267.7 522,-245.7 336,-245.7"/>
<image xlink:href="../../images/foreignKeys.png" width="11px" height="12px" preserveAspectRatio="xMinYMin meet" x="341" y="-262.7"/>
<text text-anchor="start" x="365" y="-252.8" font-family="Helvetica,sans-Serif" font-size="11.00" fill="#000000">policy_code</text>
<polygon fill="none" stroke="#000000" points="336,-226.7 336,-245.7 522,-245.7 522,-226.7 336,-226.7"/>
<text text-anchor="start" x="339" y="-232.8" font-family="Helvetica,sans-Serif" font-size="11.00" fill="#000000">...</text>
<polygon fill="#ffffff" stroke="transparent" points="336,-207.7 336,-226.7 427,-226.7 427,-207.7 336,-207.7"/>
<polygon fill="none" stroke="#000000" points="336,-207.7 336,-226.7 427,-226.7 427,-207.7 336,-207.7"/>
<text text-anchor="start" x="339" y="-213.8" font-family="Helvetica,sans-Serif" font-size="11.00" fill="#000000">&lt; 2</text>
<polygon fill="#ffffff" stroke="transparent" points="427,-207.7 427,-226.7 474,-226.7 474,-207.7 427,-207.7"/>
<polygon fill="none" stroke="#000000" points="427,-207.7 427,-226.7 474,-226.7 474,-207.7 427,-207.7"/>
<text text-anchor="start" x="464.8862" y="-213.8" font-family="Helvetica,sans-Serif" font-size="11.00" fill="#000000"> &#160;</text>
<polygon fill="#ffffff" stroke="transparent" points="474,-207.7 474,-226.7 522,-226.7 522,-207.7 474,-207.7"/>
<polygon fill="none" stroke="#000000" points="474,-207.7 474,-226.7 522,-226.7 522,-207.7 474,-207.7"/>
<text text-anchor="start" x="512.8862" y="-213.8" font-family="Helvetica,sans-Serif" font-size="11.00" fill="#000000"> &#160;</text>
</a>
</g>
</g>
<!-- reference_data_policy&#45;&gt;reference_data -->
<g id="edge6" class="edge">
<title>reference_data_policy:w&#45;&gt;reference_data:e</title>
<path fill="none" stroke="#000000" d="M321.2771,-279.5018C293.8691,-282.7979 281.1494,-296.4344 263,-323.7 228.9691,-374.8239 281.4146,-596.7 220,-596.7"/>
<polygon fill="#000000" stroke="#000000" points="328.0118,-279.1351 336.1958,-282.2947 332.0059,-278.9175 336,-278.7 336,-278.7 336,-278.7 332.0059,-278.9175 335.8042,-275.1053 328.0118,-279.1351 328.0118,-279.1351"/>
<ellipse fill="none" stroke="#000000" cx="324.8166" cy="-279.3091" rx="3.2" ry="3.2"/>
</g>
<!-- reference_data_policy&#45;&gt;policy -->
<g id="edge7" class="edge">
<title>reference_data_policy:w&#45;&gt;policy:e</title>
<path fill="none" stroke="#000000" d="M321.4422,-257.4324C247.5434,-265.1178 236.2031,-330.7 154,-330.7"/>
<polygon fill="#000000" stroke="#000000" points="328.0101,-257.102 336.1809,-260.2955 332.0051,-256.901 336,-256.7 336,-256.7 336,-256.7 332.0051,-256.901 335.8191,-253.1045 328.0101,-257.102 328.0101,-257.102"/>
<ellipse fill="none" stroke="#000000" cx="324.8141" cy="-257.2628" rx="3.2" ry="3.2"/>
</g>
<!-- staff_configuration -->
<g id="node6" class="node">
<title>staff_configuration</title>
<g id="a_node6"><a xlink:href="../../tables/staff_configuration.html" xlink:title="staff_configuration" target="_top">
<polygon fill="#ffffff" stroke="transparent" points="345.5,-38.2 345.5,-187.2 512.5,-187.2 512.5,-38.2 345.5,-38.2"/>
<polygon fill="#f5f5f5" stroke="transparent" points="346,-163.7 346,-186.7 513,-186.7 513,-163.7 346,-163.7"/>
<polygon fill="none" stroke="#000000" points="346,-163.7 346,-186.7 513,-186.7 513,-163.7 346,-163.7"/>
<text text-anchor="start" x="351" y="-172.3" font-family="Helvetica,sans-Serif" font-weight="bold" font-size="11.00" fill="#000000">staff_configuration</text>
<text text-anchor="start" x="478.5219" y="-171.8" font-family="Helvetica,sans-Serif" font-size="11.00" fill="#000000">[table]</text>
<polygon fill="#ffffff" stroke="transparent" points="346,-141.7 346,-163.7 513,-163.7 513,-141.7 346,-141.7"/>
<polygon fill="none" stroke="#000000" points="346,-141.7 346,-163.7 513,-163.7 513,-141.7 346,-141.7"/>
<text text-anchor="start" x="367" y="-148.8" font-family="Helvetica,sans-Serif" font-size="11.00" fill="#000000">staff_id</text>
<polygon fill="none" stroke="#000000" points="346,-119.7 346,-141.7 513,-141.7 513,-119.7 346,-119.7"/>
<image xlink:href="../../images/foreignKeys.png" width="11px" height="12px" preserveAspectRatio="xMinYMin meet" x="351" y="-136.7"/>
<text text-anchor="start" x="367" y="-126.8" font-family="Helvetica,sans-Serif" font-size="11.00" fill="#000000">status_id</text>
<polygon fill="#ffffff" stroke="transparent" points="346,-97.7 346,-119.7 513,-119.7 513,-97.7 346,-97.7"/>
<polygon fill="none" stroke="#000000" points="346,-97.7 346,-119.7 513,-119.7 513,-97.7 346,-97.7"/>
<image xlink:href="../../images/foreignKeys.png" width="11px" height="12px" preserveAspectRatio="xMinYMin meet" x="351" y="-114.7"/>
<text text-anchor="start" x="367" y="-104.8" font-family="Helvetica,sans-Serif" font-size="11.00" fill="#000000">policy_code</text>
<polygon fill="none" stroke="#000000" points="346,-75.7 346,-97.7 513,-97.7 513,-75.7 346,-75.7"/>
<image xlink:href="../../images/primaryKeys.png" width="11px" height="12px" preserveAspectRatio="xMinYMin meet" x="351" y="-92.7"/>
<text text-anchor="start" x="367" y="-82.8" font-family="Helvetica,sans-Serif" font-size="11.00" fill="#000000">id</text>
<polygon fill="none" stroke="#000000" points="346,-56.7 346,-75.7 513,-75.7 513,-56.7 346,-56.7"/>
<text text-anchor="start" x="349" y="-62.8" font-family="Helvetica,sans-Serif" font-size="11.00" fill="#000000">...</text>
<polygon fill="#ffffff" stroke="transparent" points="346,-37.7 346,-56.7 428,-56.7 428,-37.7 346,-37.7"/>
<polygon fill="none" stroke="#000000" points="346,-37.7 346,-56.7 428,-56.7 428,-37.7 346,-37.7"/>
<text text-anchor="start" x="349" y="-43.8" font-family="Helvetica,sans-Serif" font-size="11.00" fill="#000000">&lt; 2</text>
<polygon fill="#ffffff" stroke="transparent" points="428,-37.7 428,-56.7 470,-56.7 470,-37.7 428,-37.7"/>
<polygon fill="none" stroke="#000000" points="428,-37.7 428,-56.7 470,-56.7 470,-37.7 428,-37.7"/>
<text text-anchor="start" x="460.8862" y="-43.8" font-family="Helvetica,sans-Serif" font-size="11.00" fill="#000000"> &#160;</text>
<polygon fill="#ffffff" stroke="transparent" points="470,-37.7 470,-56.7 513,-56.7 513,-37.7 470,-37.7"/>
<polygon fill="none" stroke="#000000" points="470,-37.7 470,-56.7 513,-56.7 513,-37.7 470,-37.7"/>
<text text-anchor="start" x="503.8862" y="-43.8" font-family="Helvetica,sans-Serif" font-size="11.00" fill="#000000"> &#160;</text>
</a>
</g>
</g>
<!-- staff_configuration&#45;&gt;reference_data -->
<g id="edge9" class="edge">
<title>staff_configuration:w&#45;&gt;reference_data:e</title>
<path fill="none" stroke="#000000" d="M331.6253,-131.599C295.6562,-136.447 283.2244,-160.6362 263,-197.7 220.2832,-275.9839 309.1801,-596.7 220,-596.7"/>
<polygon fill="#000000" stroke="#000000" points="338.0156,-131.1994 346.2247,-134.293 342.0078,-130.9497 346,-130.7 346,-130.7 346,-130.7 342.0078,-130.9497 345.7753,-127.107 338.0156,-131.1994 338.0156,-131.1994"/>
<ellipse fill="none" stroke="#000000" cx="334.8218" cy="-131.3992" rx="3.2" ry="3.2"/>
</g>
<!-- staff_configuration&#45;&gt;policy -->
<g id="edge8" class="edge">
<title>staff_configuration:w&#45;&gt;policy:e</title>
<path fill="none" stroke="#000000" d="M331.6018,-109.6898C220.6296,-125.705 279.3531,-330.7 154,-330.7"/>
<polygon fill="#000000" stroke="#000000" points="338.0188,-109.2487 346.2469,-112.2915 342.0094,-108.9743 346,-108.7 346,-108.7 346,-108.7 342.0094,-108.9743 345.7531,-105.1085 338.0188,-109.2487 338.0188,-109.2487"/>
<ellipse fill="none" stroke="#000000" cx="334.8264" cy="-109.4682" rx="3.2" ry="3.2"/>
</g>
<!-- zz_archived_legacy_keyworker_allocation -->
<g id="node7" class="node">
<title>zz_archived_legacy_keyworker_allocation</title>
<g id="a_node7"><a xlink:href="../../tables/zz_archived_legacy_keyworker_allocation.html" xlink:title="zz_archived_legacy_keyworker_allocation" target="_top">
<polygon fill="#ffffff" stroke="transparent" points="271,-784.2 271,-999.2 587,-999.2 587,-784.2 271,-784.2"/>
<polygon fill="#f5f5f5" stroke="transparent" points="271,-975.7 271,-998.7 587,-998.7 587,-975.7 271,-975.7"/>
<polygon fill="none" stroke="#000000" points="271,-975.7 271,-998.7 587,-998.7 587,-975.7 271,-975.7"/>
<text text-anchor="start" x="276" y="-984.3" font-family="Helvetica,sans-Serif" font-weight="bold" font-size="11.00" fill="#000000">zz_archived_legacy_keyworker_allocation</text>
<text text-anchor="start" x="552.5219" y="-983.8" font-family="Helvetica,sans-Serif" font-size="11.00" fill="#000000">[table]</text>
<polygon fill="none" stroke="#000000" points="271,-953.7 271,-975.7 587,-975.7 587,-953.7 271,-953.7"/>
<image xlink:href="../../images/primaryKeys.png" width="11px" height="12px" preserveAspectRatio="xMinYMin meet" x="276" y="-970.7"/>
<text text-anchor="start" x="300" y="-960.8" font-family="Helvetica,sans-Serif" font-size="11.00" fill="#000000">offender_keyworker_id</text>
<polygon fill="#ffffff" stroke="transparent" points="271,-931.7 271,-953.7 587,-953.7 587,-931.7 271,-931.7"/>
<polygon fill="none" stroke="#000000" points="271,-931.7 271,-953.7 587,-953.7 587,-931.7 271,-931.7"/>
<text text-anchor="start" x="300" y="-938.8" font-family="Helvetica,sans-Serif" font-size="11.00" fill="#000000">offender_no</text>
<polygon fill="#ffffff" stroke="transparent" points="271,-909.7 271,-931.7 587,-931.7 587,-909.7 271,-909.7"/>
<polygon fill="none" stroke="#000000" points="271,-909.7 271,-931.7 587,-931.7 587,-909.7 271,-909.7"/>
<text text-anchor="start" x="300" y="-916.8" font-family="Helvetica,sans-Serif" font-size="11.00" fill="#000000">staff_id</text>
<polygon fill="#ffffff" stroke="transparent" points="271,-887.7 271,-909.7 587,-909.7 587,-887.7 271,-887.7"/>
<polygon fill="none" stroke="#000000" points="271,-887.7 271,-909.7 587,-909.7 587,-887.7 271,-887.7"/>
<text text-anchor="start" x="300" y="-894.8" font-family="Helvetica,sans-Serif" font-size="11.00" fill="#000000">assigned_date_time</text>
<polygon fill="#ffffff" stroke="transparent" points="271,-865.7 271,-887.7 587,-887.7 587,-865.7 271,-865.7"/>
<polygon fill="none" stroke="#000000" points="271,-865.7 271,-887.7 587,-887.7 587,-865.7 271,-865.7"/>
<text text-anchor="start" x="300" y="-872.8" font-family="Helvetica,sans-Serif" font-size="11.00" fill="#000000">prison_id</text>
<polygon fill="none" stroke="#000000" points="271,-843.7 271,-865.7 587,-865.7 587,-843.7 271,-843.7"/>
<image xlink:href="../../images/foreignKeys.png" width="11px" height="12px" preserveAspectRatio="xMinYMin meet" x="276" y="-860.7"/>
<text text-anchor="start" x="300" y="-850.8" font-family="Helvetica,sans-Serif" font-size="11.00" fill="#000000">allocation_reason_id</text>
<polygon fill="none" stroke="#000000" points="271,-821.7 271,-843.7 587,-843.7 587,-821.7 271,-821.7"/>
<image xlink:href="../../images/foreignKeys.png" width="11px" height="12px" preserveAspectRatio="xMinYMin meet" x="276" y="-838.7"/>
<text text-anchor="start" x="300" y="-828.8" font-family="Helvetica,sans-Serif" font-size="11.00" fill="#000000">deallocation_reason_id</text>
<polygon fill="none" stroke="#000000" points="271,-802.7 271,-821.7 587,-821.7 587,-802.7 271,-802.7"/>
<text text-anchor="start" x="274" y="-808.8" font-family="Helvetica,sans-Serif" font-size="11.00" fill="#000000">...</text>
<polygon fill="#ffffff" stroke="transparent" points="271,-783.7 271,-802.7 427,-802.7 427,-783.7 271,-783.7"/>
<polygon fill="none" stroke="#000000" points="271,-783.7 271,-802.7 427,-802.7 427,-783.7 271,-783.7"/>
<text text-anchor="start" x="274" y="-789.8" font-family="Helvetica,sans-Serif" font-size="11.00" fill="#000000">&lt; 2</text>
<polygon fill="#ffffff" stroke="transparent" points="427,-783.7 427,-802.7 507,-802.7 507,-783.7 427,-783.7"/>
<polygon fill="none" stroke="#000000" points="427,-783.7 427,-802.7 507,-802.7 507,-783.7 427,-783.7"/>
<text text-anchor="start" x="497.8862" y="-789.8" font-family="Helvetica,sans-Serif" font-size="11.00" fill="#000000"> &#160;</text>
<polygon fill="#ffffff" stroke="transparent" points="507,-783.7 507,-802.7 587,-802.7 587,-783.7 507,-783.7"/>
<polygon fill="none" stroke="#000000" points="507,-783.7 507,-802.7 587,-802.7 587,-783.7 507,-783.7"/>
<text text-anchor="start" x="577.8862" y="-789.8" font-family="Helvetica,sans-Serif" font-size="11.00" fill="#000000"> &#160;</text>
</a>
</g>
</g>
<!-- zz_archived_legacy_keyworker_allocation&#45;&gt;reference_data -->
<g id="edge10" class="edge">
<title>zz_archived_legacy_keyworker_allocation:w&#45;&gt;reference_data:e</title>
<path fill="none" stroke="#000000" d="M256.4765,-853.0525C170.5908,-831.0794 331.4065,-596.7 220,-596.7"/>
<polygon fill="#000000" stroke="#000000" points="263.051,-853.7982 270.5942,-858.2771 267.0255,-854.2491 271,-854.7 271,-854.7 271,-854.7 267.0255,-854.2491 271.4058,-851.1229 263.051,-853.7982 263.051,-853.7982"/>
<ellipse fill="none" stroke="#000000" cx="259.8714" cy="-853.4375" rx="3.2" ry="3.2"/>
</g>
<!-- zz_archived_legacy_keyworker_allocation&#45;&gt;reference_data -->
<g id="edge11" class="edge">
<title>zz_archived_legacy_keyworker_allocation:w&#45;&gt;reference_data:e</title>
<path fill="none" stroke="#000000" d="M256.677,-830.9361C179.6089,-809.3398 321.8608,-596.7 220,-596.7"/>
<polygon fill="#000000" stroke="#000000" points="263.06,-831.7221 270.5599,-836.273 267.03,-832.2111 271,-832.7 271,-832.7 271,-832.7 267.03,-832.2111 271.4401,-829.127 263.06,-831.7221 263.06,-831.7221"/>
<ellipse fill="none" stroke="#000000" cx="259.884" cy="-831.3309" rx="3.2" ry="3.2"/>
</g>
</g>
</svg>
