<?xml version="1.0" encoding="UTF-8" standalone="no"?>
<!DOCTYPE svg PUBLIC "-//W3C//DTD SVG 1.1//EN"
 "http://www.w3.org/Graphics/SVG/1.1/DTD/svg11.dtd">
<!-- Generated by graphviz version 2.40.1 (20161225.0304)
 -->
<!-- Title: oneDegreeRelationshipsDiagram Pages: 1 -->
<svg width="467pt" height="435pt"
 viewBox="0.00 0.00 467.00 435.20" xmlns="http://www.w3.org/2000/svg" xmlns:xlink="http://www.w3.org/1999/xlink">
<g id="graph0" class="graph" transform="scale(1 1) rotate(0) translate(4 431.2)">
<title>oneDegreeRelationshipsDiagram</title>
<polygon fill="#ffffff" stroke="transparent" points="-4,4 -4,-431.2 463,-431.2 463,4 -4,4"/>
<text text-anchor="middle" x="72.4936" y="-7.3" font-family="Helvetica,sans-Serif" font-size="11.00" fill="#000000">Generated by SchemaSpy</text>
<!-- offender_key_worker -->
<g id="node1" class="node">
<title>offender_key_worker</title>
<g id="a_node1"><a xlink:href="../../tables/offender_key_worker.html" xlink:title="offender_key_worker" target="_top">
<polygon fill="#ffffff" stroke="transparent" points="271,-208.2 271,-423.2 451,-423.2 451,-208.2 271,-208.2"/>
<polygon fill="#f5f5f5" stroke="transparent" points="271,-399.7 271,-422.7 451,-422.7 451,-399.7 271,-399.7"/>
<polygon fill="none" stroke="#000000" points="271,-399.7 271,-422.7 451,-422.7 451,-399.7 271,-399.7"/>
<text text-anchor="start" x="276" y="-408.3" font-family="Helvetica,sans-Serif" font-weight="bold" font-size="11.00" fill="#000000">offender_key_worker</text>
<text text-anchor="start" x="416.5219" y="-407.8" font-family="Helvetica,sans-Serif" font-size="11.00" fill="#000000">[table]</text>
<polygon fill="none" stroke="#000000" points="271,-377.7 271,-399.7 451,-399.7 451,-377.7 271,-377.7"/>
<image xlink:href="../../images/primaryKeys.png" width="11px" height="12px" preserveAspectRatio="xMinYMin meet" x="276" y="-394.7"/>
<text text-anchor="start" x="294" y="-384.8" font-family="Helvetica,sans-Serif" font-size="11.00" fill="#000000">offender_keyworker_id</text>
<polygon fill="#ffffff" stroke="transparent" points="271,-355.7 271,-377.7 451,-377.7 451,-355.7 271,-355.7"/>
<polygon fill="none" stroke="#000000" points="271,-355.7 271,-377.7 451,-377.7 451,-355.7 271,-355.7"/>
<text text-anchor="start" x="294" y="-362.8" font-family="Helvetica,sans-Serif" font-size="11.00" fill="#000000">offender_no</text>
<polygon fill="#ffffff" stroke="transparent" points="271,-333.7 271,-355.7 451,-355.7 451,-333.7 271,-333.7"/>
<polygon fill="none" stroke="#000000" points="271,-333.7 271,-355.7 451,-355.7 451,-333.7 271,-333.7"/>
<text text-anchor="start" x="294" y="-340.8" font-family="Helvetica,sans-Serif" font-size="11.00" fill="#000000">staff_id</text>
<polygon fill="#ffffff" stroke="transparent" points="271,-311.7 271,-333.7 451,-333.7 451,-311.7 271,-311.7"/>
<polygon fill="none" stroke="#000000" points="271,-311.7 271,-333.7 451,-333.7 451,-311.7 271,-311.7"/>
<text text-anchor="start" x="294" y="-318.8" font-family="Helvetica,sans-Serif" font-size="11.00" fill="#000000">assigned_date_time</text>
<polygon fill="#ffffff" stroke="transparent" points="271,-289.7 271,-311.7 451,-311.7 451,-289.7 271,-289.7"/>
<polygon fill="none" stroke="#000000" points="271,-289.7 271,-311.7 451,-311.7 451,-289.7 271,-289.7"/>
<text text-anchor="start" x="294" y="-296.8" font-family="Helvetica,sans-Serif" font-size="11.00" fill="#000000">prison_id</text>
<polygon fill="none" stroke="#000000" points="271,-267.7 271,-289.7 451,-289.7 451,-267.7 271,-267.7"/>
<image xlink:href="../../images/foreignKeys.png" width="11px" height="12px" preserveAspectRatio="xMinYMin meet" x="276" y="-284.7"/>
<text text-anchor="start" x="294" y="-274.8" font-family="Helvetica,sans-Serif" font-size="11.00" fill="#000000">allocation_reason_id</text>
<polygon fill="none" stroke="#000000" points="271,-245.7 271,-267.7 451,-267.7 451,-245.7 271,-245.7"/>
<image xlink:href="../../images/foreignKeys.png" width="11px" height="12px" preserveAspectRatio="xMinYMin meet" x="276" y="-262.7"/>
<text text-anchor="start" x="294" y="-252.8" font-family="Helvetica,sans-Serif" font-size="11.00" fill="#000000">deallocation_reason_id</text>
<polygon fill="none" stroke="#000000" points="271,-226.7 271,-245.7 451,-245.7 451,-226.7 271,-226.7"/>
<text text-anchor="start" x="274" y="-232.8" font-family="Helvetica,sans-Serif" font-size="11.00" fill="#000000">...</text>
<polygon fill="#ffffff" stroke="transparent" points="271,-207.7 271,-226.7 359,-226.7 359,-207.7 271,-207.7"/>
<polygon fill="none" stroke="#000000" points="271,-207.7 271,-226.7 359,-226.7 359,-207.7 271,-207.7"/>
<text text-anchor="start" x="274" y="-213.8" font-family="Helvetica,sans-Serif" font-size="11.00" fill="#000000">&lt; 2</text>
<polygon fill="#ffffff" stroke="transparent" points="359,-207.7 359,-226.7 405,-226.7 405,-207.7 359,-207.7"/>
<polygon fill="none" stroke="#000000" points="359,-207.7 359,-226.7 405,-226.7 405,-207.7 359,-207.7"/>
<text text-anchor="start" x="395.8862" y="-213.8" font-family="Helvetica,sans-Serif" font-size="11.00" fill="#000000"> &#160;</text>
<polygon fill="#ffffff" stroke="transparent" points="405,-207.7 405,-226.7 451,-226.7 451,-207.7 405,-207.7"/>
<polygon fill="none" stroke="#000000" points="405,-207.7 405,-226.7 451,-226.7 451,-207.7 405,-207.7"/>
<text text-anchor="start" x="441.8862" y="-213.8" font-family="Helvetica,sans-Serif" font-size="11.00" fill="#000000"> &#160;</text>
</a>
</g>
</g>
<!-- reference_data -->
<g id="node2" class="node">
<title>reference_data</title>
<g id="a_node2"><a xlink:href="../../tables/reference_data.html" xlink:title="reference_data" target="_top">
<polygon fill="#ffffff" stroke="transparent" points="8,-136.7 8,-292.7 222,-292.7 222,-136.7 8,-136.7"/>
<polygon fill="#f5f5f5" stroke="transparent" points="10,-267.7 10,-290.7 220,-290.7 220,-267.7 10,-267.7"/>
<polygon fill="none" stroke="#000000" points="10,-267.7 10,-290.7 220,-290.7 220,-267.7 10,-267.7"/>
<text text-anchor="start" x="15" y="-276.3" font-family="Helvetica,sans-Serif" font-weight="bold" font-size="11.00" fill="#000000">reference_data</text>
<text text-anchor="start" x="185.0437" y="-275.8" font-family="Helvetica,sans-Serif" font-size="11.00" fill="#000000">[table]</text>
<polygon fill="none" stroke="#000000" points="10,-245.7 10,-267.7 153,-267.7 153,-245.7 10,-245.7"/>
<image xlink:href="../../images/primaryKeys.png" width="11px" height="12px" preserveAspectRatio="xMinYMin meet" x="15" y="-262.7"/>
<text text-anchor="start" x="30" y="-252.8" font-family="Helvetica,sans-Serif" font-size="11.00" fill="#000000">id</text>
<polygon fill="none" stroke="#000000" points="153,-245.7 153,-267.7 220,-267.7 220,-245.7 153,-245.7"/>
<text text-anchor="start" x="156" y="-253.4" font-family="Helvetica,sans-Serif" font-size="11.00" fill="#000000">bigserial[19]</text>
<polygon fill="#ffffff" stroke="transparent" points="10,-223.7 10,-245.7 153,-245.7 153,-223.7 10,-223.7"/>
<polygon fill="none" stroke="#000000" points="10,-223.7 10,-245.7 153,-245.7 153,-223.7 10,-223.7"/>
<text text-anchor="start" x="30" y="-230.8" font-family="Helvetica,sans-Serif" font-size="11.00" fill="#000000">domain</text>
<polygon fill="none" stroke="#000000" points="153,-223.7 153,-245.7 220,-245.7 220,-223.7 153,-223.7"/>
<text text-anchor="start" x="156" y="-231.4" font-family="Helvetica,sans-Serif" font-size="11.00" fill="#000000">varchar[32]</text>
<polygon fill="#ffffff" stroke="transparent" points="10,-201.7 10,-223.7 153,-223.7 153,-201.7 10,-201.7"/>
<polygon fill="none" stroke="#000000" points="10,-201.7 10,-223.7 153,-223.7 153,-201.7 10,-201.7"/>
<text text-anchor="start" x="30" y="-208.8" font-family="Helvetica,sans-Serif" font-size="11.00" fill="#000000">code</text>
<polygon fill="none" stroke="#000000" points="153,-201.7 153,-223.7 220,-223.7 220,-201.7 153,-201.7"/>
<text text-anchor="start" x="156" y="-209.4" font-family="Helvetica,sans-Serif" font-size="11.00" fill="#000000">varchar[32]</text>
<polygon fill="none" stroke="#000000" points="10,-179.7 10,-201.7 153,-201.7 153,-179.7 10,-179.7"/>
<text text-anchor="start" x="30" y="-186.8" font-family="Helvetica,sans-Serif" font-size="11.00" fill="#000000">description</text>
<polygon fill="none" stroke="#000000" points="153,-179.7 153,-201.7 220,-201.7 220,-179.7 153,-179.7"/>
<text text-anchor="start" x="155.9365" y="-187.4" font-family="Helvetica,sans-Serif" font-size="11.00" fill="#000000">varchar[128]</text>
<polygon fill="#ffffff" stroke="transparent" points="10,-157.7 10,-179.7 153,-179.7 153,-157.7 10,-157.7"/>
<polygon fill="none" stroke="#000000" points="10,-157.7 10,-179.7 153,-179.7 153,-157.7 10,-157.7"/>
<text text-anchor="start" x="30" y="-164.8" font-family="Helvetica,sans-Serif" font-size="11.00" fill="#000000">sequence_number</text>
<polygon fill="none" stroke="#000000" points="153,-157.7 153,-179.7 220,-179.7 220,-157.7 153,-157.7"/>
<text text-anchor="start" x="156" y="-165.4" font-family="Helvetica,sans-Serif" font-size="11.00" fill="#000000">int4[10]</text>
<polygon fill="#ffffff" stroke="transparent" points="10,-138.7 10,-157.7 86,-157.7 86,-138.7 10,-138.7"/>
<polygon fill="none" stroke="#000000" points="10,-138.7 10,-157.7 86,-157.7 86,-138.7 10,-138.7"/>
<text text-anchor="start" x="13" y="-144.8" font-family="Helvetica,sans-Serif" font-size="11.00" fill="#000000">&lt; 0</text>
<polygon fill="#ffffff" stroke="transparent" points="86,-138.7 86,-157.7 153,-157.7 153,-138.7 86,-138.7"/>
<polygon fill="none" stroke="#000000" points="86,-138.7 86,-157.7 153,-157.7 153,-138.7 86,-138.7"/>
<text text-anchor="start" x="143.8862" y="-144.8" font-family="Helvetica,sans-Serif" font-size="11.00" fill="#000000"> &#160;</text>
<polygon fill="#ffffff" stroke="transparent" points="153,-138.7 153,-157.7 220,-157.7 220,-138.7 153,-138.7"/>
<polygon fill="none" stroke="#000000" points="153,-138.7 153,-157.7 220,-157.7 220,-138.7 153,-138.7"/>
<text text-anchor="start" x="201.4053" y="-144.8" font-family="Helvetica,sans-Serif" font-size="11.00" fill="#000000">3 &gt;</text>
<polygon fill="none" stroke="#000000" stroke-width="2" points="9,-137.7 9,-291.7 221,-291.7 221,-137.7 9,-137.7"/>
</a>
</g>
</g>
<!-- offender_key_worker&#45;&gt;reference_data -->
<g id="edge1" class="edge">
<title>offender_key_worker:w&#45;&gt;reference_data:e</title>
<path fill="none" stroke="#000000" d="M256.8489,-275.641C244.2843,-269.596 238.9,-256.7 220,-256.7"/>
<polygon fill="#000000" stroke="#000000" points="263.1806,-277.0097 270.2393,-282.2187 267.0903,-277.8548 271,-278.7 271,-278.7 271,-278.7 267.0903,-277.8548 271.7607,-275.1813 263.1806,-277.0097 263.1806,-277.0097"/>
<ellipse fill="none" stroke="#000000" cx="260.0528" cy="-276.3335" rx="3.2" ry="3.2"/>
</g>
<!-- offender_key_worker&#45;&gt;reference_data -->
<g id="edge2" class="edge">
<title>offender_key_worker:w&#45;&gt;reference_data:e</title>
<path fill="none" stroke="#000000" d="M256.276,-256.7C244.2815,-256.7 236.8229,-256.7 220,-256.7"/>
<polygon fill="#000000" stroke="#000000" points="263,-256.7001 271,-260.3 267,-256.7 271,-256.7 271,-256.7 271,-256.7 267,-256.7 271,-253.1 263,-256.7001 263,-256.7001"/>
<ellipse fill="none" stroke="#000000" cx="259.8" cy="-256.7001" rx="3.2" ry="3.2"/>
</g>
<!-- staff_configuration -->
<g id="node3" class="node">
<title>staff_configuration</title>
<g id="a_node3"><a xlink:href="../../tables/staff_configuration.html" xlink:title="staff_configuration" target="_top">
<polygon fill="#ffffff" stroke="transparent" points="277.5,-38.2 277.5,-187.2 444.5,-187.2 444.5,-38.2 277.5,-38.2"/>
<polygon fill="#f5f5f5" stroke="transparent" points="278,-163.7 278,-186.7 445,-186.7 445,-163.7 278,-163.7"/>
<polygon fill="none" stroke="#000000" points="278,-163.7 278,-186.7 445,-186.7 445,-163.7 278,-163.7"/>
<text text-anchor="start" x="283" y="-172.3" font-family="Helvetica,sans-Serif" font-weight="bold" font-size="11.00" fill="#000000">staff_configuration</text>
<text text-anchor="start" x="410.5219" y="-171.8" font-family="Helvetica,sans-Serif" font-size="11.00" fill="#000000">[table]</text>
<polygon fill="#ffffff" stroke="transparent" points="278,-141.7 278,-163.7 445,-163.7 445,-141.7 278,-141.7"/>
<polygon fill="none" stroke="#000000" points="278,-141.7 278,-163.7 445,-163.7 445,-141.7 278,-141.7"/>
<text text-anchor="start" x="299" y="-148.8" font-family="Helvetica,sans-Serif" font-size="11.00" fill="#000000">staff_id</text>
<polygon fill="none" stroke="#000000" points="278,-119.7 278,-141.7 445,-141.7 445,-119.7 278,-119.7"/>
<image xlink:href="../../images/foreignKeys.png" width="11px" height="12px" preserveAspectRatio="xMinYMin meet" x="283" y="-136.7"/>
<text text-anchor="start" x="299" y="-126.8" font-family="Helvetica,sans-Serif" font-size="11.00" fill="#000000">status_id</text>
<polygon fill="#ffffff" stroke="transparent" points="278,-97.7 278,-119.7 445,-119.7 445,-97.7 278,-97.7"/>
<polygon fill="none" stroke="#000000" points="278,-97.7 278,-119.7 445,-119.7 445,-97.7 278,-97.7"/>
<image xlink:href="../../images/foreignKeys.png" width="11px" height="12px" preserveAspectRatio="xMinYMin meet" x="283" y="-114.7"/>
<text text-anchor="start" x="299" y="-104.8" font-family="Helvetica,sans-Serif" font-size="11.00" fill="#000000">policy_code</text>
<polygon fill="none" stroke="#000000" points="278,-75.7 278,-97.7 445,-97.7 445,-75.7 278,-75.7"/>
<image xlink:href="../../images/primaryKeys.png" width="11px" height="12px" preserveAspectRatio="xMinYMin meet" x="283" y="-92.7"/>
<text text-anchor="start" x="299" y="-82.8" font-family="Helvetica,sans-Serif" font-size="11.00" fill="#000000">id</text>
<polygon fill="none" stroke="#000000" points="278,-56.7 278,-75.7 445,-75.7 445,-56.7 278,-56.7"/>
<text text-anchor="start" x="281" y="-62.8" font-family="Helvetica,sans-Serif" font-size="11.00" fill="#000000">...</text>
<polygon fill="#ffffff" stroke="transparent" points="278,-37.7 278,-56.7 360,-56.7 360,-37.7 278,-37.7"/>
<polygon fill="none" stroke="#000000" points="278,-37.7 278,-56.7 360,-56.7 360,-37.7 278,-37.7"/>
<text text-anchor="start" x="281" y="-43.8" font-family="Helvetica,sans-Serif" font-size="11.00" fill="#000000">&lt; 2</text>
<polygon fill="#ffffff" stroke="transparent" points="360,-37.7 360,-56.7 402,-56.7 402,-37.7 360,-37.7"/>
<polygon fill="none" stroke="#000000" points="360,-37.7 360,-56.7 402,-56.7 402,-37.7 360,-37.7"/>
<text text-anchor="start" x="392.8862" y="-43.8" font-family="Helvetica,sans-Serif" font-size="11.00" fill="#000000"> &#160;</text>
<polygon fill="#ffffff" stroke="transparent" points="402,-37.7 402,-56.7 445,-56.7 445,-37.7 402,-37.7"/>
<polygon fill="none" stroke="#000000" points="402,-37.7 402,-56.7 445,-56.7 445,-37.7 402,-37.7"/>
<text text-anchor="start" x="435.8862" y="-43.8" font-family="Helvetica,sans-Serif" font-size="11.00" fill="#000000"> &#160;</text>
</a>
</g>
</g>
<!-- staff_configuration&#45;&gt;reference_data -->
<g id="edge3" class="edge">
<title>staff_configuration:w&#45;&gt;reference_data:e</title>
<path fill="none" stroke="#000000" d="M263.7994,-133.8146C227.4792,-153.2176 275.8686,-256.7 220,-256.7"/>
<polygon fill="#000000" stroke="#000000" points="270.1857,-132.414 278.7713,-134.2164 274.0929,-131.557 278,-130.7 278,-130.7 278,-130.7 274.0929,-131.557 277.2287,-127.1836 270.1857,-132.414 270.1857,-132.414"/>
<ellipse fill="none" stroke="#000000" cx="267.06" cy="-133.0995" rx="3.2" ry="3.2"/>
</g>
</g>
</svg>
