<?xml version="1.0" encoding="UTF-8" standalone="no"?>
<!DOCTYPE svg PUBLIC "-//W3C//DTD SVG 1.1//EN"
 "http://www.w3.org/Graphics/SVG/1.1/DTD/svg11.dtd">
<!-- Generated by graphviz version 2.40.1 (20161225.0304)
 -->
<!-- Title: twoDegreesRelationshipsDiagram Pages: 1 -->
<svg width="603pt" height="693pt"
 viewBox="0.00 0.00 603.00 693.20" xmlns="http://www.w3.org/2000/svg" xmlns:xlink="http://www.w3.org/1999/xlink">
<g id="graph0" class="graph" transform="scale(1 1) rotate(0) translate(4 689.2)">
<title>twoDegreesRelationshipsDiagram</title>
<polygon fill="#ffffff" stroke="transparent" points="-4,4 -4,-689.2 599,-689.2 599,4 -4,4"/>
<text text-anchor="middle" x="72.4936" y="-7.3" font-family="Helvetica,sans-Serif" font-size="11.00" fill="#000000">Generated by SchemaSpy</text>
<!-- allocation -->
<g id="node1" class="node">
<title>allocation</title>
<g id="a_node1"><a xlink:href="../../tables/allocation.html" xlink:title="allocation" target="_top">
<polygon fill="#ffffff" stroke="transparent" points="342,-208.2 342,-445.2 516,-445.2 516,-208.2 342,-208.2"/>
<polygon fill="#f5f5f5" stroke="transparent" points="342,-421.7 342,-444.7 516,-444.7 516,-421.7 342,-421.7"/>
<polygon fill="none" stroke="#000000" points="342,-421.7 342,-444.7 516,-444.7 516,-421.7 342,-421.7"/>
<text text-anchor="start" x="347" y="-430.3" font-family="Helvetica,sans-Serif" font-weight="bold" font-size="11.00" fill="#000000">allocation</text>
<text text-anchor="start" x="481.0437" y="-429.8" font-family="Helvetica,sans-Serif" font-size="11.00" fill="#000000">[table]</text>
<polygon fill="none" stroke="#000000" points="342,-399.7 342,-421.7 516,-421.7 516,-399.7 342,-399.7"/>
<image xlink:href="../../images/primaryKeys.png" width="11px" height="12px" preserveAspectRatio="xMinYMin meet" x="347" y="-416.7"/>
<text text-anchor="start" x="362" y="-406.8" font-family="Helvetica,sans-Serif" font-size="11.00" fill="#000000">id</text>
<polygon fill="#ffffff" stroke="transparent" points="342,-377.7 342,-399.7 516,-399.7 516,-377.7 342,-377.7"/>
<polygon fill="none" stroke="#000000" points="342,-377.7 342,-399.7 516,-399.7 516,-377.7 342,-377.7"/>
<image xlink:href="../../images/foreignKeys.png" width="11px" height="12px" preserveAspectRatio="xMinYMin meet" x="347" y="-394.7"/>
<text text-anchor="start" x="362" y="-384.8" font-family="Helvetica,sans-Serif" font-size="11.00" fill="#000000">prison_code</text>
<polygon fill="#ffffff" stroke="transparent" points="342,-355.7 342,-377.7 516,-377.7 516,-355.7 342,-355.7"/>
<polygon fill="none" stroke="#000000" points="342,-355.7 342,-377.7 516,-377.7 516,-355.7 342,-355.7"/>
<text text-anchor="start" x="362" y="-362.8" font-family="Helvetica,sans-Serif" font-size="11.00" fill="#000000">staff_id</text>
<polygon fill="#ffffff" stroke="transparent" points="342,-333.7 342,-355.7 516,-355.7 516,-333.7 342,-333.7"/>
<polygon fill="none" stroke="#000000" points="342,-333.7 342,-355.7 516,-355.7 516,-333.7 342,-333.7"/>
<text text-anchor="start" x="362" y="-340.8" font-family="Helvetica,sans-Serif" font-size="11.00" fill="#000000">person_identifier</text>
<polygon fill="#ffffff" stroke="transparent" points="342,-311.7 342,-333.7 516,-333.7 516,-311.7 342,-311.7"/>
<polygon fill="none" stroke="#000000" points="342,-311.7 342,-333.7 516,-333.7 516,-311.7 342,-311.7"/>
<text text-anchor="start" x="362" y="-318.8" font-family="Helvetica,sans-Serif" font-size="11.00" fill="#000000">allocated_at</text>
<polygon fill="none" stroke="#000000" points="342,-289.7 342,-311.7 516,-311.7 516,-289.7 342,-289.7"/>
<image xlink:href="../../images/foreignKeys.png" width="11px" height="12px" preserveAspectRatio="xMinYMin meet" x="347" y="-306.7"/>
<text text-anchor="start" x="362" y="-296.8" font-family="Helvetica,sans-Serif" font-size="11.00" fill="#000000">allocation_reason_id</text>
<polygon fill="none" stroke="#000000" points="342,-267.7 342,-289.7 516,-289.7 516,-267.7 342,-267.7"/>
<image xlink:href="../../images/foreignKeys.png" width="11px" height="12px" preserveAspectRatio="xMinYMin meet" x="347" y="-284.7"/>
<text text-anchor="start" x="362" y="-274.8" font-family="Helvetica,sans-Serif" font-size="11.00" fill="#000000">deallocation_reason_id</text>
<polygon fill="#ffffff" stroke="transparent" points="342,-245.7 342,-267.7 516,-267.7 516,-245.7 342,-245.7"/>
<polygon fill="none" stroke="#000000" points="342,-245.7 342,-267.7 516,-267.7 516,-245.7 342,-245.7"/>
<image xlink:href="../../images/foreignKeys.png" width="11px" height="12px" preserveAspectRatio="xMinYMin meet" x="347" y="-262.7"/>
<text text-anchor="start" x="362" y="-252.8" font-family="Helvetica,sans-Serif" font-size="11.00" fill="#000000">policy_code</text>
<polygon fill="none" stroke="#000000" points="342,-226.7 342,-245.7 516,-245.7 516,-226.7 342,-226.7"/>
<text text-anchor="start" x="345" y="-232.8" font-family="Helvetica,sans-Serif" font-size="11.00" fill="#000000">...</text>
<polygon fill="#ffffff" stroke="transparent" points="342,-207.7 342,-226.7 427,-226.7 427,-207.7 342,-207.7"/>
<polygon fill="none" stroke="#000000" points="342,-207.7 342,-226.7 427,-226.7 427,-207.7 342,-207.7"/>
<text text-anchor="start" x="345" y="-213.8" font-family="Helvetica,sans-Serif" font-size="11.00" fill="#000000">&lt; 3</text>
<polygon fill="#ffffff" stroke="transparent" points="427,-207.7 427,-226.7 471,-226.7 471,-207.7 427,-207.7"/>
<polygon fill="none" stroke="#000000" points="427,-207.7 427,-226.7 471,-226.7 471,-207.7 427,-207.7"/>
<text text-anchor="start" x="461.8862" y="-213.8" font-family="Helvetica,sans-Serif" font-size="11.00" fill="#000000"> &#160;</text>
<polygon fill="#ffffff" stroke="transparent" points="471,-207.7 471,-226.7 516,-226.7 516,-207.7 471,-207.7"/>
<polygon fill="none" stroke="#000000" points="471,-207.7 471,-226.7 516,-226.7 516,-207.7 471,-207.7"/>
<text text-anchor="start" x="506.8862" y="-213.8" font-family="Helvetica,sans-Serif" font-size="11.00" fill="#000000"> &#160;</text>
</a>
</g>
</g>
<!-- reference_data -->
<g id="node2" class="node">
<title>reference_data</title>
<g id="a_node2"><a xlink:href="../../tables/reference_data.html" xlink:title="reference_data" target="_top">
<polygon fill="#ffffff" stroke="transparent" points="8,-180.7 8,-336.7 222,-336.7 222,-180.7 8,-180.7"/>
<polygon fill="#f5f5f5" stroke="transparent" points="10,-311.7 10,-334.7 220,-334.7 220,-311.7 10,-311.7"/>
<polygon fill="none" stroke="#000000" points="10,-311.7 10,-334.7 220,-334.7 220,-311.7 10,-311.7"/>
<text text-anchor="start" x="15" y="-320.3" font-family="Helvetica,sans-Serif" font-weight="bold" font-size="11.00" fill="#000000">reference_data</text>
<text text-anchor="start" x="185.0437" y="-319.8" font-family="Helvetica,sans-Serif" font-size="11.00" fill="#000000">[table]</text>
<polygon fill="none" stroke="#000000" points="10,-289.7 10,-311.7 153,-311.7 153,-289.7 10,-289.7"/>
<image xlink:href="../../images/primaryKeys.png" width="11px" height="12px" preserveAspectRatio="xMinYMin meet" x="15" y="-306.7"/>
<text text-anchor="start" x="30" y="-296.8" font-family="Helvetica,sans-Serif" font-size="11.00" fill="#000000">id</text>
<polygon fill="none" stroke="#000000" points="153,-289.7 153,-311.7 220,-311.7 220,-289.7 153,-289.7"/>
<text text-anchor="start" x="156" y="-297.4" font-family="Helvetica,sans-Serif" font-size="11.00" fill="#000000">bigserial[19]</text>
<polygon fill="#ffffff" stroke="transparent" points="10,-267.7 10,-289.7 153,-289.7 153,-267.7 10,-267.7"/>
<polygon fill="none" stroke="#000000" points="10,-267.7 10,-289.7 153,-289.7 153,-267.7 10,-267.7"/>
<text text-anchor="start" x="30" y="-274.8" font-family="Helvetica,sans-Serif" font-size="11.00" fill="#000000">domain</text>
<polygon fill="none" stroke="#000000" points="153,-267.7 153,-289.7 220,-289.7 220,-267.7 153,-267.7"/>
<text text-anchor="start" x="156" y="-275.4" font-family="Helvetica,sans-Serif" font-size="11.00" fill="#000000">varchar[32]</text>
<polygon fill="#ffffff" stroke="transparent" points="10,-245.7 10,-267.7 153,-267.7 153,-245.7 10,-245.7"/>
<polygon fill="none" stroke="#000000" points="10,-245.7 10,-267.7 153,-267.7 153,-245.7 10,-245.7"/>
<text text-anchor="start" x="30" y="-252.8" font-family="Helvetica,sans-Serif" font-size="11.00" fill="#000000">code</text>
<polygon fill="none" stroke="#000000" points="153,-245.7 153,-267.7 220,-267.7 220,-245.7 153,-245.7"/>
<text text-anchor="start" x="156" y="-253.4" font-family="Helvetica,sans-Serif" font-size="11.00" fill="#000000">varchar[32]</text>
<polygon fill="none" stroke="#000000" points="10,-223.7 10,-245.7 153,-245.7 153,-223.7 10,-223.7"/>
<text text-anchor="start" x="30" y="-230.8" font-family="Helvetica,sans-Serif" font-size="11.00" fill="#000000">description</text>
<polygon fill="none" stroke="#000000" points="153,-223.7 153,-245.7 220,-245.7 220,-223.7 153,-223.7"/>
<text text-anchor="start" x="155.9365" y="-231.4" font-family="Helvetica,sans-Serif" font-size="11.00" fill="#000000">varchar[128]</text>
<polygon fill="#ffffff" stroke="transparent" points="10,-201.7 10,-223.7 153,-223.7 153,-201.7 10,-201.7"/>
<polygon fill="none" stroke="#000000" points="10,-201.7 10,-223.7 153,-223.7 153,-201.7 10,-201.7"/>
<text text-anchor="start" x="30" y="-208.8" font-family="Helvetica,sans-Serif" font-size="11.00" fill="#000000">sequence_number</text>
<polygon fill="none" stroke="#000000" points="153,-201.7 153,-223.7 220,-223.7 220,-201.7 153,-201.7"/>
<text text-anchor="start" x="156" y="-209.4" font-family="Helvetica,sans-Serif" font-size="11.00" fill="#000000">int4[10]</text>
<polygon fill="#ffffff" stroke="transparent" points="10,-182.7 10,-201.7 70,-201.7 70,-182.7 10,-182.7"/>
<polygon fill="none" stroke="#000000" points="10,-182.7 10,-201.7 70,-201.7 70,-182.7 10,-182.7"/>
<text text-anchor="start" x="13" y="-188.8" font-family="Helvetica,sans-Serif" font-size="11.00" fill="#000000">&lt; 0</text>
<polygon fill="#ffffff" stroke="transparent" points="70,-182.7 70,-201.7 153,-201.7 153,-182.7 70,-182.7"/>
<polygon fill="none" stroke="#000000" points="70,-182.7 70,-201.7 153,-201.7 153,-182.7 70,-182.7"/>
<text text-anchor="start" x="111.4956" y="-188.8" font-family="Helvetica,sans-Serif" font-size="11.00" fill="#000000">54 rows</text>
<polygon fill="#ffffff" stroke="transparent" points="153,-182.7 153,-201.7 220,-201.7 220,-182.7 153,-182.7"/>
<polygon fill="none" stroke="#000000" points="153,-182.7 153,-201.7 220,-201.7 220,-182.7 153,-182.7"/>
<text text-anchor="start" x="201.4053" y="-188.8" font-family="Helvetica,sans-Serif" font-size="11.00" fill="#000000">5 &gt;</text>
<polygon fill="none" stroke="#000000" stroke-width="2" points="9,-181.7 9,-335.7 221,-335.7 221,-181.7 9,-181.7"/>
</a>
</g>
</g>
<!-- allocation&#45;&gt;reference_data -->
<g id="edge1" class="edge">
<title>allocation:w&#45;&gt;reference_data:e</title>
<path fill="none" stroke="#000000" d="M327.4784,-300.7C284.8107,-300.7 269.033,-300.7 220,-300.7"/>
<polygon fill="#000000" stroke="#000000" points="334,-300.7001 342,-304.3 338,-300.7 342,-300.7 342,-300.7 342,-300.7 338,-300.7 342,-297.1 334,-300.7001 334,-300.7001"/>
<ellipse fill="none" stroke="#000000" cx="330.8" cy="-300.7001" rx="3.2" ry="3.2"/>
</g>
<!-- allocation&#45;&gt;reference_data -->
<g id="edge2" class="edge">
<title>allocation:w&#45;&gt;reference_data:e</title>
<path fill="none" stroke="#000000" d="M327.5741,-279.2438C284.309,-282.6316 269.9314,-300.7 220,-300.7"/>
<polygon fill="#000000" stroke="#000000" points="334.0057,-279.0014 342.1356,-282.2974 338.0028,-278.8507 342,-278.7 342,-278.7 342,-278.7 338.0028,-278.8507 341.8644,-275.1026 334.0057,-279.0014 334.0057,-279.0014"/>
<ellipse fill="none" stroke="#000000" cx="330.8079" cy="-279.122" rx="3.2" ry="3.2"/>
</g>
<!-- policy -->
<g id="node3" class="node">
<title>policy</title>
<g id="a_node3"><a xlink:href="../../tables/policy.html" xlink:title="policy" target="_top">
<polygon fill="#ffffff" stroke="transparent" points="76,-90.2 76,-151.2 154,-151.2 154,-90.2 76,-90.2"/>
<polygon fill="#f5f5f5" stroke="transparent" points="76,-127.7 76,-150.7 154,-150.7 154,-127.7 76,-127.7"/>
<polygon fill="none" stroke="#000000" points="76,-127.7 76,-150.7 154,-150.7 154,-127.7 76,-127.7"/>
<text text-anchor="start" x="81" y="-136.3" font-family="Helvetica,sans-Serif" font-weight="bold" font-size="11.00" fill="#000000">policy</text>
<text text-anchor="start" x="119.5219" y="-135.8" font-family="Helvetica,sans-Serif" font-size="11.00" fill="#000000">[table]</text>
<polygon fill="none" stroke="#000000" points="76,-108.7 76,-127.7 154,-127.7 154,-108.7 76,-108.7"/>
<text text-anchor="start" x="79" y="-114.8" font-family="Helvetica,sans-Serif" font-size="11.00" fill="#000000">...</text>
<polygon fill="#ffffff" stroke="transparent" points="76,-89.7 76,-108.7 104,-108.7 104,-89.7 76,-89.7"/>
<polygon fill="none" stroke="#000000" points="76,-89.7 76,-108.7 104,-108.7 104,-89.7 76,-89.7"/>
<text text-anchor="start" x="79" y="-95.8" font-family="Helvetica,sans-Serif" font-size="11.00" fill="#000000"> &#160;</text>
<polygon fill="#ffffff" stroke="transparent" points="104,-89.7 104,-108.7 124,-108.7 124,-89.7 104,-89.7"/>
<polygon fill="none" stroke="#000000" points="104,-89.7 104,-108.7 124,-108.7 124,-89.7 104,-89.7"/>
<text text-anchor="start" x="114.8862" y="-95.8" font-family="Helvetica,sans-Serif" font-size="11.00" fill="#000000"> &#160;</text>
<polygon fill="#ffffff" stroke="transparent" points="124,-89.7 124,-108.7 154,-108.7 154,-89.7 124,-89.7"/>
<polygon fill="none" stroke="#000000" points="124,-89.7 124,-108.7 154,-108.7 154,-89.7 124,-89.7"/>
<text text-anchor="start" x="135.4053" y="-95.8" font-family="Helvetica,sans-Serif" font-size="11.00" fill="#000000">3 &gt;</text>
</a>
</g>
</g>
<!-- allocation&#45;&gt;policy -->
<g id="edge3" class="edge">
<title>allocation:w&#45;&gt;policy:e</title>
<path fill="none" stroke="#000000" d="M327.3641,-255.7C239.7545,-243.1991 252.7382,-117.7 154,-117.7"/>
<polygon fill="#000000" stroke="#000000" points="334.0186,-256.1546 341.7546,-260.2916 338.0093,-256.4273 342,-256.7 342,-256.7 342,-256.7 338.0093,-256.4273 342.2454,-253.1084 334.0186,-256.1546 334.0186,-256.1546"/>
<ellipse fill="none" stroke="#000000" cx="330.8261" cy="-255.9364" rx="3.2" ry="3.2"/>
</g>
<!-- staff_configuration -->
<g id="node4" class="node">
<title>staff_configuration</title>
<g id="a_node4"><a xlink:href="../../tables/staff_configuration.html" xlink:title="staff_configuration" target="_top">
<polygon fill="#ffffff" stroke="transparent" points="345.5,-38.2 345.5,-187.2 512.5,-187.2 512.5,-38.2 345.5,-38.2"/>
<polygon fill="#f5f5f5" stroke="transparent" points="346,-163.7 346,-186.7 513,-186.7 513,-163.7 346,-163.7"/>
<polygon fill="none" stroke="#000000" points="346,-163.7 346,-186.7 513,-186.7 513,-163.7 346,-163.7"/>
<text text-anchor="start" x="351" y="-172.3" font-family="Helvetica,sans-Serif" font-weight="bold" font-size="11.00" fill="#000000">staff_configuration</text>
<text text-anchor="start" x="478.5219" y="-171.8" font-family="Helvetica,sans-Serif" font-size="11.00" fill="#000000">[table]</text>
<polygon fill="#ffffff" stroke="transparent" points="346,-141.7 346,-163.7 513,-163.7 513,-141.7 346,-141.7"/>
<polygon fill="none" stroke="#000000" points="346,-141.7 346,-163.7 513,-163.7 513,-141.7 346,-141.7"/>
<text text-anchor="start" x="367" y="-148.8" font-family="Helvetica,sans-Serif" font-size="11.00" fill="#000000">staff_id</text>
<polygon fill="none" stroke="#000000" points="346,-119.7 346,-141.7 513,-141.7 513,-119.7 346,-119.7"/>
<image xlink:href="../../images/foreignKeys.png" width="11px" height="12px" preserveAspectRatio="xMinYMin meet" x="351" y="-136.7"/>
<text text-anchor="start" x="367" y="-126.8" font-family="Helvetica,sans-Serif" font-size="11.00" fill="#000000">status_id</text>
<polygon fill="#ffffff" stroke="transparent" points="346,-97.7 346,-119.7 513,-119.7 513,-97.7 346,-97.7"/>
<polygon fill="none" stroke="#000000" points="346,-97.7 346,-119.7 513,-119.7 513,-97.7 346,-97.7"/>
<image xlink:href="../../images/foreignKeys.png" width="11px" height="12px" preserveAspectRatio="xMinYMin meet" x="351" y="-114.7"/>
<text text-anchor="start" x="367" y="-104.8" font-family="Helvetica,sans-Serif" font-size="11.00" fill="#000000">policy_code</text>
<polygon fill="none" stroke="#000000" points="346,-75.7 346,-97.7 513,-97.7 513,-75.7 346,-75.7"/>
<image xlink:href="../../images/primaryKeys.png" width="11px" height="12px" preserveAspectRatio="xMinYMin meet" x="351" y="-92.7"/>
<text text-anchor="start" x="367" y="-82.8" font-family="Helvetica,sans-Serif" font-size="11.00" fill="#000000">id</text>
<polygon fill="none" stroke="#000000" points="346,-56.7 346,-75.7 513,-75.7 513,-56.7 346,-56.7"/>
<text text-anchor="start" x="349" y="-62.8" font-family="Helvetica,sans-Serif" font-size="11.00" fill="#000000">...</text>
<polygon fill="#ffffff" stroke="transparent" points="346,-37.7 346,-56.7 428,-56.7 428,-37.7 346,-37.7"/>
<polygon fill="none" stroke="#000000" points="346,-37.7 346,-56.7 428,-56.7 428,-37.7 346,-37.7"/>
<text text-anchor="start" x="349" y="-43.8" font-family="Helvetica,sans-Serif" font-size="11.00" fill="#000000">&lt; 2</text>
<polygon fill="#ffffff" stroke="transparent" points="428,-37.7 428,-56.7 470,-56.7 470,-37.7 428,-37.7"/>
<polygon fill="none" stroke="#000000" points="428,-37.7 428,-56.7 470,-56.7 470,-37.7 428,-37.7"/>
<text text-anchor="start" x="460.8862" y="-43.8" font-family="Helvetica,sans-Serif" font-size="11.00" fill="#000000"> &#160;</text>
<polygon fill="#ffffff" stroke="transparent" points="470,-37.7 470,-56.7 513,-56.7 513,-37.7 470,-37.7"/>
<polygon fill="none" stroke="#000000" points="470,-37.7 470,-56.7 513,-56.7 513,-37.7 470,-37.7"/>
<text text-anchor="start" x="503.8862" y="-43.8" font-family="Helvetica,sans-Serif" font-size="11.00" fill="#000000"> &#160;</text>
</a>
</g>
</g>
<!-- staff_configuration&#45;&gt;reference_data -->
<g id="edge5" class="edge">
<title>staff_configuration:w&#45;&gt;reference_data:e</title>
<path fill="none" stroke="#000000" d="M331.3493,-131.79C296.7,-137.401 288.2248,-164.0718 263,-197.7 233.2331,-237.3834 269.6068,-300.7 220,-300.7"/>
<polygon fill="#000000" stroke="#000000" points="338.022,-131.2936 346.2671,-134.2901 342.011,-130.9968 346,-130.7 346,-130.7 346,-130.7 342.011,-130.9968 345.7329,-127.1099 338.022,-131.2936 338.022,-131.2936"/>
<ellipse fill="none" stroke="#000000" cx="334.8309" cy="-131.531" rx="3.2" ry="3.2"/>
</g>
<!-- staff_configuration&#45;&gt;policy -->
<g id="edge4" class="edge">
<title>staff_configuration:w&#45;&gt;policy:e</title>
<path fill="none" stroke="#000000" d="M331.1614,-108.795C257.7767,-109.7569 234.2547,-117.7 154,-117.7"/>
<polygon fill="#000000" stroke="#000000" points="338.0002,-108.7513 346.0231,-112.2999 342.0001,-108.7256 346,-108.7 346,-108.7 346,-108.7 342.0001,-108.7256 345.9769,-105.1001 338.0002,-108.7513 338.0002,-108.7513"/>
<ellipse fill="none" stroke="#000000" cx="334.8002" cy="-108.7718" rx="3.2" ry="3.2"/>
</g>
<!-- zz_archived_legacy_keyworker_allocation -->
<g id="node5" class="node">
<title>zz_archived_legacy_keyworker_allocation</title>
<g id="a_node5"><a xlink:href="../../tables/zz_archived_legacy_keyworker_allocation.html" xlink:title="zz_archived_legacy_keyworker_allocation" target="_top">
<polygon fill="#ffffff" stroke="transparent" points="271,-466.2 271,-681.2 587,-681.2 587,-466.2 271,-466.2"/>
<polygon fill="#f5f5f5" stroke="transparent" points="271,-657.7 271,-680.7 587,-680.7 587,-657.7 271,-657.7"/>
<polygon fill="none" stroke="#000000" points="271,-657.7 271,-680.7 587,-680.7 587,-657.7 271,-657.7"/>
<text text-anchor="start" x="276" y="-666.3" font-family="Helvetica,sans-Serif" font-weight="bold" font-size="11.00" fill="#000000">zz_archived_legacy_keyworker_allocation</text>
<text text-anchor="start" x="552.5219" y="-665.8" font-family="Helvetica,sans-Serif" font-size="11.00" fill="#000000">[table]</text>
<polygon fill="none" stroke="#000000" points="271,-635.7 271,-657.7 587,-657.7 587,-635.7 271,-635.7"/>
<image xlink:href="../../images/primaryKeys.png" width="11px" height="12px" preserveAspectRatio="xMinYMin meet" x="276" y="-652.7"/>
<text text-anchor="start" x="300" y="-642.8" font-family="Helvetica,sans-Serif" font-size="11.00" fill="#000000">offender_keyworker_id</text>
<polygon fill="#ffffff" stroke="transparent" points="271,-613.7 271,-635.7 587,-635.7 587,-613.7 271,-613.7"/>
<polygon fill="none" stroke="#000000" points="271,-613.7 271,-635.7 587,-635.7 587,-613.7 271,-613.7"/>
<text text-anchor="start" x="300" y="-620.8" font-family="Helvetica,sans-Serif" font-size="11.00" fill="#000000">offender_no</text>
<polygon fill="#ffffff" stroke="transparent" points="271,-591.7 271,-613.7 587,-613.7 587,-591.7 271,-591.7"/>
<polygon fill="none" stroke="#000000" points="271,-591.7 271,-613.7 587,-613.7 587,-591.7 271,-591.7"/>
<text text-anchor="start" x="300" y="-598.8" font-family="Helvetica,sans-Serif" font-size="11.00" fill="#000000">staff_id</text>
<polygon fill="#ffffff" stroke="transparent" points="271,-569.7 271,-591.7 587,-591.7 587,-569.7 271,-569.7"/>
<polygon fill="none" stroke="#000000" points="271,-569.7 271,-591.7 587,-591.7 587,-569.7 271,-569.7"/>
<text text-anchor="start" x="300" y="-576.8" font-family="Helvetica,sans-Serif" font-size="11.00" fill="#000000">assigned_date_time</text>
<polygon fill="#ffffff" stroke="transparent" points="271,-547.7 271,-569.7 587,-569.7 587,-547.7 271,-547.7"/>
<polygon fill="none" stroke="#000000" points="271,-547.7 271,-569.7 587,-569.7 587,-547.7 271,-547.7"/>
<text text-anchor="start" x="300" y="-554.8" font-family="Helvetica,sans-Serif" font-size="11.00" fill="#000000">prison_id</text>
<polygon fill="none" stroke="#000000" points="271,-525.7 271,-547.7 587,-547.7 587,-525.7 271,-525.7"/>
<image xlink:href="../../images/foreignKeys.png" width="11px" height="12px" preserveAspectRatio="xMinYMin meet" x="276" y="-542.7"/>
<text text-anchor="start" x="300" y="-532.8" font-family="Helvetica,sans-Serif" font-size="11.00" fill="#000000">allocation_reason_id</text>
<polygon fill="none" stroke="#000000" points="271,-503.7 271,-525.7 587,-525.7 587,-503.7 271,-503.7"/>
<image xlink:href="../../images/foreignKeys.png" width="11px" height="12px" preserveAspectRatio="xMinYMin meet" x="276" y="-520.7"/>
<text text-anchor="start" x="300" y="-510.8" font-family="Helvetica,sans-Serif" font-size="11.00" fill="#000000">deallocation_reason_id</text>
<polygon fill="none" stroke="#000000" points="271,-484.7 271,-503.7 587,-503.7 587,-484.7 271,-484.7"/>
<text text-anchor="start" x="274" y="-490.8" font-family="Helvetica,sans-Serif" font-size="11.00" fill="#000000">...</text>
<polygon fill="#ffffff" stroke="transparent" points="271,-465.7 271,-484.7 427,-484.7 427,-465.7 271,-465.7"/>
<polygon fill="none" stroke="#000000" points="271,-465.7 271,-484.7 427,-484.7 427,-465.7 271,-465.7"/>
<text text-anchor="start" x="274" y="-471.8" font-family="Helvetica,sans-Serif" font-size="11.00" fill="#000000">&lt; 2</text>
<polygon fill="#ffffff" stroke="transparent" points="427,-465.7 427,-484.7 507,-484.7 507,-465.7 427,-465.7"/>
<polygon fill="none" stroke="#000000" points="427,-465.7 427,-484.7 507,-484.7 507,-465.7 427,-465.7"/>
<text text-anchor="start" x="497.8862" y="-471.8" font-family="Helvetica,sans-Serif" font-size="11.00" fill="#000000"> &#160;</text>
<polygon fill="#ffffff" stroke="transparent" points="507,-465.7 507,-484.7 587,-484.7 587,-465.7 507,-465.7"/>
<polygon fill="none" stroke="#000000" points="507,-465.7 507,-484.7 587,-484.7 587,-465.7 507,-465.7"/>
<text text-anchor="start" x="577.8862" y="-471.8" font-family="Helvetica,sans-Serif" font-size="11.00" fill="#000000"> &#160;</text>
</a>
</g>
</g>
<!-- zz_archived_legacy_keyworker_allocation&#45;&gt;reference_data -->
<g id="edge6" class="edge">
<title>zz_archived_legacy_keyworker_allocation:w&#45;&gt;reference_data:e</title>
<path fill="none" stroke="#000000" d="M256.677,-534.9361C179.6089,-513.3398 321.8608,-300.7 220,-300.7"/>
<polygon fill="#000000" stroke="#000000" points="263.06,-535.7221 270.5599,-540.273 267.03,-536.2111 271,-536.7 271,-536.7 271,-536.7 267.03,-536.2111 271.4401,-533.127 263.06,-535.7221 263.06,-535.7221"/>
<ellipse fill="none" stroke="#000000" cx="259.884" cy="-535.3309" rx="3.2" ry="3.2"/>
</g>
<!-- zz_archived_legacy_keyworker_allocation&#45;&gt;reference_data -->
<g id="edge7" class="edge">
<title>zz_archived_legacy_keyworker_allocation:w&#45;&gt;reference_data:e</title>
<path fill="none" stroke="#000000" d="M256.6301,-512.7181C188.8226,-491.1444 312.2367,-300.7 220,-300.7"/>
<polygon fill="#000000" stroke="#000000" points="263.075,-513.607 270.5081,-518.2662 267.0375,-514.1535 271,-514.7 271,-514.7 271,-514.7 267.0375,-514.1535 271.4919,-511.1338 263.075,-513.607 263.075,-513.607"/>
<ellipse fill="none" stroke="#000000" cx="259.905" cy="-513.1697" rx="3.2" ry="3.2"/>
</g>
</g>
</svg>
