<?xml version="1.0" encoding="UTF-8" standalone="no"?>
<!DOCTYPE svg PUBLIC "-//W3C//DTD SVG 1.1//EN"
 "http://www.w3.org/Graphics/SVG/1.1/DTD/svg11.dtd">
<!-- Generated by graphviz version 2.40.1 (20161225.0304)
 -->
<!-- Title: twoDegreesRelationshipsDiagram Pages: 1 -->
<svg width="532pt" height="551pt"
 viewBox="0.00 0.00 532.00 551.20" xmlns="http://www.w3.org/2000/svg" xmlns:xlink="http://www.w3.org/1999/xlink">
<g id="graph0" class="graph" transform="scale(1 1) rotate(0) translate(4 547.2)">
<title>twoDegreesRelationshipsDiagram</title>
<polygon fill="#ffffff" stroke="transparent" points="-4,4 -4,-547.2 528,-547.2 528,4 -4,4"/>
<text text-anchor="middle" x="72.4936" y="-7.3" font-family="Helvetica,sans-Serif" font-size="11.00" fill="#000000">Generated by SchemaSpy</text>
<!-- allocation -->
<g id="node1" class="node">
<title>allocation</title>
<g id="a_node1"><a xlink:href="../../tables/allocation.html" xlink:title="allocation" target="_top">
<polygon fill="#ffffff" stroke="transparent" points="305.5,-396.2 305.5,-457.2 410.5,-457.2 410.5,-396.2 305.5,-396.2"/>
<polygon fill="#f5f5f5" stroke="transparent" points="306,-433.7 306,-456.7 411,-456.7 411,-433.7 306,-433.7"/>
<polygon fill="none" stroke="#000000" points="306,-433.7 306,-456.7 411,-456.7 411,-433.7 306,-433.7"/>
<text text-anchor="start" x="311" y="-442.3" font-family="Helvetica,sans-Serif" font-weight="bold" font-size="11.00" fill="#000000">allocation</text>
<text text-anchor="start" x="376.5219" y="-441.8" font-family="Helvetica,sans-Serif" font-size="11.00" fill="#000000">[table]</text>
<polygon fill="none" stroke="#000000" points="306,-414.7 306,-433.7 411,-433.7 411,-414.7 306,-414.7"/>
<text text-anchor="start" x="309" y="-420.8" font-family="Helvetica,sans-Serif" font-size="11.00" fill="#000000">...</text>
<polygon fill="#ffffff" stroke="transparent" points="306,-395.7 306,-414.7 357,-414.7 357,-395.7 306,-395.7"/>
<polygon fill="none" stroke="#000000" points="306,-395.7 306,-414.7 357,-414.7 357,-395.7 306,-395.7"/>
<text text-anchor="start" x="309" y="-401.8" font-family="Helvetica,sans-Serif" font-size="11.00" fill="#000000">&lt; 3</text>
<polygon fill="#ffffff" stroke="transparent" points="357,-395.7 357,-414.7 384,-414.7 384,-395.7 357,-395.7"/>
<polygon fill="none" stroke="#000000" points="357,-395.7 357,-414.7 384,-414.7 384,-395.7 357,-395.7"/>
<text text-anchor="start" x="374.8862" y="-401.8" font-family="Helvetica,sans-Serif" font-size="11.00" fill="#000000"> &#160;</text>
<polygon fill="#ffffff" stroke="transparent" points="384,-395.7 384,-414.7 411,-414.7 411,-395.7 384,-395.7"/>
<polygon fill="none" stroke="#000000" points="384,-395.7 384,-414.7 411,-414.7 411,-395.7 384,-395.7"/>
<text text-anchor="start" x="401.8862" y="-401.8" font-family="Helvetica,sans-Serif" font-size="11.00" fill="#000000"> &#160;</text>
</a>
</g>
</g>
<!-- reference_data -->
<g id="node2" class="node">
<title>reference_data</title>
<g id="a_node2"><a xlink:href="../../tables/reference_data.html" xlink:title="reference_data" target="_top">
<polygon fill="#ffffff" stroke="transparent" points="8,-309.2 8,-458.2 151,-458.2 151,-309.2 8,-309.2"/>
<polygon fill="#f5f5f5" stroke="transparent" points="8.5,-434.7 8.5,-457.7 151.5,-457.7 151.5,-434.7 8.5,-434.7"/>
<polygon fill="none" stroke="#000000" points="8.5,-434.7 8.5,-457.7 151.5,-457.7 151.5,-434.7 8.5,-434.7"/>
<text text-anchor="start" x="13.5" y="-443.3" font-family="Helvetica,sans-Serif" font-weight="bold" font-size="11.00" fill="#000000">reference_data</text>
<text text-anchor="start" x="116.5437" y="-442.8" font-family="Helvetica,sans-Serif" font-size="11.00" fill="#000000">[table]</text>
<polygon fill="none" stroke="#000000" points="8.5,-412.7 8.5,-434.7 151.5,-434.7 151.5,-412.7 8.5,-412.7"/>
<image xlink:href="../../images/primaryKeys.png" width="11px" height="12px" preserveAspectRatio="xMinYMin meet" x="13.5" y="-429.7"/>
<text text-anchor="start" x="28.5" y="-419.8" font-family="Helvetica,sans-Serif" font-size="11.00" fill="#000000">id</text>
<polygon fill="#ffffff" stroke="transparent" points="8.5,-390.7 8.5,-412.7 151.5,-412.7 151.5,-390.7 8.5,-390.7"/>
<polygon fill="none" stroke="#000000" points="8.5,-390.7 8.5,-412.7 151.5,-412.7 151.5,-390.7 8.5,-390.7"/>
<text text-anchor="start" x="28.5" y="-397.8" font-family="Helvetica,sans-Serif" font-size="11.00" fill="#000000">domain</text>
<polygon fill="#ffffff" stroke="transparent" points="8.5,-368.7 8.5,-390.7 151.5,-390.7 151.5,-368.7 8.5,-368.7"/>
<polygon fill="none" stroke="#000000" points="8.5,-368.7 8.5,-390.7 151.5,-390.7 151.5,-368.7 8.5,-368.7"/>
<text text-anchor="start" x="28.5" y="-375.8" font-family="Helvetica,sans-Serif" font-size="11.00" fill="#000000">code</text>
<polygon fill="#ffffff" stroke="transparent" points="8.5,-346.7 8.5,-368.7 151.5,-368.7 151.5,-346.7 8.5,-346.7"/>
<polygon fill="none" stroke="#000000" points="8.5,-346.7 8.5,-368.7 151.5,-368.7 151.5,-346.7 8.5,-346.7"/>
<text text-anchor="start" x="28.5" y="-353.8" font-family="Helvetica,sans-Serif" font-size="11.00" fill="#000000">sequence_number</text>
<polygon fill="none" stroke="#000000" points="8.5,-327.7 8.5,-346.7 151.5,-346.7 151.5,-327.7 8.5,-327.7"/>
<text text-anchor="start" x="11.5" y="-333.8" font-family="Helvetica,sans-Serif" font-size="11.00" fill="#000000">...</text>
<polygon fill="#ffffff" stroke="transparent" points="8.5,-308.7 8.5,-327.7 69.5,-327.7 69.5,-308.7 8.5,-308.7"/>
<polygon fill="none" stroke="#000000" points="8.5,-308.7 8.5,-327.7 69.5,-327.7 69.5,-308.7 8.5,-308.7"/>
<text text-anchor="start" x="11.5" y="-314.8" font-family="Helvetica,sans-Serif" font-size="11.00" fill="#000000"> &#160;</text>
<polygon fill="#ffffff" stroke="transparent" points="69.5,-308.7 69.5,-327.7 105.5,-327.7 105.5,-308.7 69.5,-308.7"/>
<polygon fill="none" stroke="#000000" points="69.5,-308.7 69.5,-327.7 105.5,-327.7 105.5,-308.7 69.5,-308.7"/>
<text text-anchor="start" x="96.3862" y="-314.8" font-family="Helvetica,sans-Serif" font-size="11.00" fill="#000000"> &#160;</text>
<polygon fill="#ffffff" stroke="transparent" points="105.5,-308.7 105.5,-327.7 151.5,-327.7 151.5,-308.7 105.5,-308.7"/>
<polygon fill="none" stroke="#000000" points="105.5,-308.7 105.5,-327.7 151.5,-327.7 151.5,-308.7 105.5,-308.7"/>
<text text-anchor="start" x="132.9053" y="-314.8" font-family="Helvetica,sans-Serif" font-size="11.00" fill="#000000">6 &gt;</text>
</a>
</g>
</g>
<!-- allocation&#45;&gt;reference_data -->
<g id="edge1" class="edge">
<title>allocation:w&#45;&gt;reference_data:e</title>
<path fill="none" stroke="#000000" d="M291.5199,-422.4632C234.5015,-417.7331 215.0703,-418.1453 151.5,-423.7"/>
<polygon fill="#000000" stroke="#000000" points="298.029,-423.0191 305.6936,-427.2869 302.0145,-423.3596 306,-423.7 306,-423.7 306,-423.7 302.0145,-423.3596 306.3064,-420.1131 298.029,-423.0191 298.029,-423.0191"/>
<ellipse fill="none" stroke="#000000" cx="294.8406" cy="-422.7468" rx="3.2" ry="3.2"/>
</g>
<!-- allocation&#45;&gt;reference_data -->
<g id="edge2" class="edge">
<title>allocation:w&#45;&gt;reference_data:e</title>
<path fill="none" stroke="#000000" d="M291.5199,-425.1429C234.5015,-430.6614 215.0703,-430.1805 151.5,-423.7"/>
<polygon fill="#000000" stroke="#000000" points="298.0394,-424.4933 306.357,-427.2823 302.0197,-424.0967 306,-423.7 306,-423.7 306,-423.7 302.0197,-424.0967 305.643,-420.1177 298.0394,-424.4933 298.0394,-424.4933"/>
<ellipse fill="none" stroke="#000000" cx="294.8552" cy="-424.8106" rx="3.2" ry="3.2"/>
</g>
<!-- policy -->
<g id="node3" class="node">
<title>policy</title>
<g id="a_node3"><a xlink:href="../../tables/policy.html" xlink:title="policy" target="_top">
<polygon fill="#ffffff" stroke="transparent" points="31,-181.2 31,-264.2 128,-264.2 128,-181.2 31,-181.2"/>
<polygon fill="#f5f5f5" stroke="transparent" points="31.5,-240.7 31.5,-263.7 128.5,-263.7 128.5,-240.7 31.5,-240.7"/>
<polygon fill="none" stroke="#000000" points="31.5,-240.7 31.5,-263.7 128.5,-263.7 128.5,-240.7 31.5,-240.7"/>
<text text-anchor="start" x="36.5" y="-249.3" font-family="Helvetica,sans-Serif" font-weight="bold" font-size="11.00" fill="#000000">policy</text>
<text text-anchor="start" x="93.5437" y="-248.8" font-family="Helvetica,sans-Serif" font-size="11.00" fill="#000000">[table]</text>
<polygon fill="none" stroke="#000000" points="31.5,-218.7 31.5,-240.7 128.5,-240.7 128.5,-218.7 31.5,-218.7"/>
<image xlink:href="../../images/primaryKeys.png" width="11px" height="12px" preserveAspectRatio="xMinYMin meet" x="36.5" y="-235.7"/>
<text text-anchor="start" x="51.5" y="-225.8" font-family="Helvetica,sans-Serif" font-size="11.00" fill="#000000">code</text>
<polygon fill="none" stroke="#000000" points="31.5,-199.7 31.5,-218.7 128.5,-218.7 128.5,-199.7 31.5,-199.7"/>
<text text-anchor="start" x="34.5" y="-205.8" font-family="Helvetica,sans-Serif" font-size="11.00" fill="#000000">...</text>
<polygon fill="#ffffff" stroke="transparent" points="31.5,-180.7 31.5,-199.7 69.5,-199.7 69.5,-180.7 31.5,-180.7"/>
<polygon fill="none" stroke="#000000" points="31.5,-180.7 31.5,-199.7 69.5,-199.7 69.5,-180.7 31.5,-180.7"/>
<text text-anchor="start" x="34.5" y="-186.8" font-family="Helvetica,sans-Serif" font-size="11.00" fill="#000000"> &#160;</text>
<polygon fill="#ffffff" stroke="transparent" points="69.5,-180.7 69.5,-199.7 94.5,-199.7 94.5,-180.7 69.5,-180.7"/>
<polygon fill="none" stroke="#000000" points="69.5,-180.7 69.5,-199.7 94.5,-199.7 94.5,-180.7 69.5,-180.7"/>
<text text-anchor="start" x="85.3862" y="-186.8" font-family="Helvetica,sans-Serif" font-size="11.00" fill="#000000"> &#160;</text>
<polygon fill="#ffffff" stroke="transparent" points="94.5,-180.7 94.5,-199.7 128.5,-199.7 128.5,-180.7 94.5,-180.7"/>
<polygon fill="none" stroke="#000000" points="94.5,-180.7 94.5,-199.7 128.5,-199.7 128.5,-180.7 94.5,-180.7"/>
<text text-anchor="start" x="109.9053" y="-186.8" font-family="Helvetica,sans-Serif" font-size="11.00" fill="#000000">5 &gt;</text>
</a>
</g>
</g>
<!-- allocation&#45;&gt;policy -->
<g id="edge3" class="edge">
<title>allocation:w&#45;&gt;policy:e</title>
<path fill="none" stroke="#000000" d="M291.4855,-423.6415C248.2184,-423.1766 226.8399,-419.1469 192,-385.7 137.9994,-333.8585 203.3572,-229.7 128.5,-229.7"/>
<polygon fill="#000000" stroke="#000000" points="298.0001,-423.6677 305.9855,-427.3 302,-423.6839 306,-423.7 306,-423.7 306,-423.7 302,-423.6839 306.0145,-420.1 298.0001,-423.6677 298.0001,-423.6677"/>
<ellipse fill="none" stroke="#000000" cx="294.8001" cy="-423.6548" rx="3.2" ry="3.2"/>
</g>
<!-- prison_configuration -->
<g id="node4" class="node">
<title>prison_configuration</title>
<g id="a_node4"><a xlink:href="../../tables/prison_configuration.html" xlink:title="prison_configuration" target="_top">
<polygon fill="#ffffff" stroke="transparent" points="269,-120.2 269,-181.2 447,-181.2 447,-120.2 269,-120.2"/>
<polygon fill="#f5f5f5" stroke="transparent" points="269,-157.7 269,-180.7 447,-180.7 447,-157.7 269,-157.7"/>
<polygon fill="none" stroke="#000000" points="269,-157.7 269,-180.7 447,-180.7 447,-157.7 269,-157.7"/>
<text text-anchor="start" x="274" y="-166.3" font-family="Helvetica,sans-Serif" font-weight="bold" font-size="11.00" fill="#000000">prison_configuration</text>
<text text-anchor="start" x="412.5219" y="-165.8" font-family="Helvetica,sans-Serif" font-size="11.00" fill="#000000">[table]</text>
<polygon fill="none" stroke="#000000" points="269,-138.7 269,-157.7 447,-157.7 447,-138.7 269,-138.7"/>
<text text-anchor="start" x="272" y="-144.8" font-family="Helvetica,sans-Serif" font-size="11.00" fill="#000000">...</text>
<polygon fill="#ffffff" stroke="transparent" points="269,-119.7 269,-138.7 340,-138.7 340,-119.7 269,-119.7"/>
<polygon fill="none" stroke="#000000" points="269,-119.7 269,-138.7 340,-138.7 340,-119.7 269,-119.7"/>
<text text-anchor="start" x="272" y="-125.8" font-family="Helvetica,sans-Serif" font-size="11.00" fill="#000000">&lt; 1</text>
<polygon fill="#ffffff" stroke="transparent" points="340,-119.7 340,-138.7 409,-138.7 409,-119.7 340,-119.7"/>
<polygon fill="none" stroke="#000000" points="340,-119.7 340,-138.7 409,-138.7 409,-119.7 340,-119.7"/>
<text text-anchor="start" x="367.4956" y="-125.8" font-family="Helvetica,sans-Serif" font-size="11.00" fill="#000000">12 rows</text>
<polygon fill="#ffffff" stroke="transparent" points="409,-119.7 409,-138.7 447,-138.7 447,-119.7 409,-119.7"/>
<polygon fill="none" stroke="#000000" points="409,-119.7 409,-138.7 447,-138.7 447,-119.7 409,-119.7"/>
<text text-anchor="start" x="437.8862" y="-125.8" font-family="Helvetica,sans-Serif" font-size="11.00" fill="#000000"> &#160;</text>
</a>
</g>
</g>
<!-- prison_configuration&#45;&gt;policy -->
<g id="edge4" class="edge">
<title>prison_configuration:w&#45;&gt;policy:e</title>
<path fill="none" stroke="#000000" d="M254.3143,-149.0511C227.9807,-154.3954 221.2392,-174.5995 192,-191.7 163.6094,-208.3042 161.3896,-229.7 128.5,-229.7"/>
<polygon fill="#000000" stroke="#000000" points="261.0336,-148.433 269.3298,-151.2849 265.0168,-148.0665 269,-147.7 269,-147.7 269,-147.7 265.0168,-148.0665 268.6702,-144.1151 261.0336,-148.433 261.0336,-148.433"/>
<ellipse fill="none" stroke="#000000" cx="257.8471" cy="-148.7262" rx="3.2" ry="3.2"/>
</g>
<!-- prison_statistic -->
<g id="node5" class="node">
<title>prison_statistic</title>
<g id="a_node5"><a xlink:href="../../tables/prison_statistic.html" xlink:title="prison_statistic" target="_top">
<polygon fill="#ffffff" stroke="transparent" points="287,-38.2 287,-99.2 429,-99.2 429,-38.2 287,-38.2"/>
<polygon fill="#f5f5f5" stroke="transparent" points="287,-75.7 287,-98.7 429,-98.7 429,-75.7 287,-75.7"/>
<polygon fill="none" stroke="#000000" points="287,-75.7 287,-98.7 429,-98.7 429,-75.7 287,-75.7"/>
<text text-anchor="start" x="292" y="-84.3" font-family="Helvetica,sans-Serif" font-weight="bold" font-size="11.00" fill="#000000">prison_statistic</text>
<text text-anchor="start" x="394.5219" y="-83.8" font-family="Helvetica,sans-Serif" font-size="11.00" fill="#000000">[table]</text>
<polygon fill="none" stroke="#000000" points="287,-56.7 287,-75.7 429,-75.7 429,-56.7 287,-56.7"/>
<text text-anchor="start" x="290" y="-62.8" font-family="Helvetica,sans-Serif" font-size="11.00" fill="#000000">...</text>
<polygon fill="#ffffff" stroke="transparent" points="287,-37.7 287,-56.7 356,-56.7 356,-37.7 287,-37.7"/>
<polygon fill="none" stroke="#000000" points="287,-37.7 287,-56.7 356,-56.7 356,-37.7 287,-37.7"/>
<text text-anchor="start" x="290" y="-43.8" font-family="Helvetica,sans-Serif" font-size="11.00" fill="#000000">&lt; 1</text>
<polygon fill="#ffffff" stroke="transparent" points="356,-37.7 356,-56.7 392,-56.7 392,-37.7 356,-37.7"/>
<polygon fill="none" stroke="#000000" points="356,-37.7 356,-56.7 392,-56.7 392,-37.7 356,-37.7"/>
<text text-anchor="start" x="382.8862" y="-43.8" font-family="Helvetica,sans-Serif" font-size="11.00" fill="#000000"> &#160;</text>
<polygon fill="#ffffff" stroke="transparent" points="392,-37.7 392,-56.7 429,-56.7 429,-37.7 392,-37.7"/>
<polygon fill="none" stroke="#000000" points="392,-37.7 392,-56.7 429,-56.7 429,-37.7 392,-37.7"/>
<text text-anchor="start" x="419.8862" y="-43.8" font-family="Helvetica,sans-Serif" font-size="11.00" fill="#000000"> &#160;</text>
</a>
</g>
</g>
<!-- prison_statistic&#45;&gt;policy -->
<g id="edge5" class="edge">
<title>prison_statistic:w&#45;&gt;policy:e</title>
<path fill="none" stroke="#000000" d="M272.3379,-66.1729C236.8924,-68.6715 221.9375,-81.3076 192,-109.7 148.2182,-151.2222 188.8402,-229.7 128.5,-229.7"/>
<polygon fill="#000000" stroke="#000000" points="279.0042,-65.958 287.1161,-69.2981 283.0021,-65.829 287,-65.7 287,-65.7 287,-65.7 283.0021,-65.829 286.8839,-62.1019 279.0042,-65.958 279.0042,-65.958"/>
<ellipse fill="none" stroke="#000000" cx="275.8058" cy="-66.0611" rx="3.2" ry="3.2"/>
</g>
<!-- reference_data_policy -->
<g id="node6" class="node">
<title>reference_data_policy</title>
<g id="a_node6"><a xlink:href="../../tables/reference_data_policy.html" xlink:title="reference_data_policy" target="_top">
<polygon fill="#ffffff" stroke="transparent" points="241.5,-284.7 241.5,-374.7 474.5,-374.7 474.5,-284.7 241.5,-284.7"/>
<polygon fill="#f5f5f5" stroke="transparent" points="244,-349.7 244,-372.7 473,-372.7 473,-349.7 244,-349.7"/>
<polygon fill="none" stroke="#000000" points="244,-349.7 244,-372.7 473,-372.7 473,-349.7 244,-349.7"/>
<text text-anchor="start" x="249" y="-358.3" font-family="Helvetica,sans-Serif" font-weight="bold" font-size="11.00" fill="#000000">reference_data_policy</text>
<text text-anchor="start" x="438.0437" y="-357.8" font-family="Helvetica,sans-Serif" font-size="11.00" fill="#000000">[table]</text>
<polygon fill="#ffffff" stroke="transparent" points="244,-327.7 244,-349.7 412,-349.7 412,-327.7 244,-327.7"/>
<polygon fill="none" stroke="#000000" points="244,-327.7 244,-349.7 412,-349.7 412,-327.7 244,-327.7"/>
<image xlink:href="../../images/foreignKeys.png" width="11px" height="12px" preserveAspectRatio="xMinYMin meet" x="249" y="-344.7"/>
<text text-anchor="start" x="264" y="-334.8" font-family="Helvetica,sans-Serif" font-size="11.00" fill="#000000">id</text>
<polygon fill="none" stroke="#000000" points="412,-327.7 412,-349.7 473,-349.7 473,-327.7 412,-327.7"/>
<text text-anchor="start" x="415" y="-335.4" font-family="Helvetica,sans-Serif" font-size="11.00" fill="#000000">int8[19]</text>
<polygon fill="#ffffff" stroke="transparent" points="244,-305.7 244,-327.7 412,-327.7 412,-305.7 244,-305.7"/>
<polygon fill="none" stroke="#000000" points="244,-305.7 244,-327.7 412,-327.7 412,-305.7 244,-305.7"/>
<image xlink:href="../../images/foreignKeys.png" width="11px" height="12px" preserveAspectRatio="xMinYMin meet" x="249" y="-322.7"/>
<text text-anchor="start" x="264" y="-312.8" font-family="Helvetica,sans-Serif" font-size="11.00" fill="#000000">policy_code</text>
<polygon fill="none" stroke="#000000" points="412,-305.7 412,-327.7 473,-327.7 473,-305.7 412,-305.7"/>
<text text-anchor="start" x="414.994" y="-313.4" font-family="Helvetica,sans-Serif" font-size="11.00" fill="#000000">varchar[16]</text>
<polygon fill="#ffffff" stroke="transparent" points="244,-286.7 244,-305.7 332,-305.7 332,-286.7 244,-286.7"/>
<polygon fill="none" stroke="#000000" points="244,-286.7 244,-305.7 332,-305.7 332,-286.7 244,-286.7"/>
<text text-anchor="start" x="247" y="-292.8" font-family="Helvetica,sans-Serif" font-size="11.00" fill="#000000">&lt; 2</text>
<polygon fill="#ffffff" stroke="transparent" points="332,-286.7 332,-305.7 412,-305.7 412,-286.7 332,-286.7"/>
<polygon fill="none" stroke="#000000" points="332,-286.7 332,-305.7 412,-305.7 412,-286.7 332,-286.7"/>
<text text-anchor="start" x="402.8862" y="-292.8" font-family="Helvetica,sans-Serif" font-size="11.00" fill="#000000"> &#160;</text>
<polygon fill="#ffffff" stroke="transparent" points="412,-286.7 412,-305.7 473,-305.7 473,-286.7 412,-286.7"/>
<polygon fill="none" stroke="#000000" points="412,-286.7 412,-305.7 473,-305.7 473,-286.7 412,-286.7"/>
<text text-anchor="start" x="454.4053" y="-292.8" font-family="Helvetica,sans-Serif" font-size="11.00" fill="#000000">0 &gt;</text>
<polygon fill="none" stroke="#000000" stroke-width="2" points="242.5,-285.7 242.5,-373.7 473.5,-373.7 473.5,-285.7 242.5,-285.7"/>
</a>
</g>
</g>
<!-- reference_data_policy&#45;&gt;reference_data -->
<g id="edge6" class="edge">
<title>reference_data_policy:w&#45;&gt;reference_data:e</title>
<path fill="none" stroke="#000000" d="M229.5968,-341.229C212.7448,-348.2428 210.6189,-368.5536 192,-385.7 173.8435,-402.4205 176.1827,-423.7 151.5,-423.7"/>
<polygon fill="#000000" stroke="#000000" points="236.1205,-340.0836 244.6226,-342.2458 240.0603,-339.3918 244,-338.7 244,-338.7 244,-338.7 240.0603,-339.3918 243.3774,-335.1542 236.1205,-340.0836 236.1205,-340.0836"/>
<ellipse fill="none" stroke="#000000" cx="232.9688" cy="-340.637" rx="3.2" ry="3.2"/>
</g>
<!-- reference_data_policy&#45;&gt;policy -->
<g id="edge7" class="edge">
<title>reference_data_policy:w&#45;&gt;policy:e</title>
<path fill="none" stroke="#000000" d="M229.6595,-315.0397C181.3514,-303.012 187.4949,-229.7 128.5,-229.7"/>
<polygon fill="#000000" stroke="#000000" points="236.0531,-315.7799 243.586,-320.2761 240.0265,-316.24 244,-316.7 244,-316.7 244,-316.7 240.0265,-316.24 244.414,-313.1239 236.0531,-315.7799 236.0531,-315.7799"/>
<ellipse fill="none" stroke="#000000" cx="232.8743" cy="-315.4119" rx="3.2" ry="3.2"/>
</g>
<!-- staff_configuration -->
<g id="node7" class="node">
<title>staff_configuration</title>
<g id="a_node7"><a xlink:href="../../tables/staff_configuration.html" xlink:title="staff_configuration" target="_top">
<polygon fill="#ffffff" stroke="transparent" points="274.5,-202.2 274.5,-263.2 441.5,-263.2 441.5,-202.2 274.5,-202.2"/>
<polygon fill="#f5f5f5" stroke="transparent" points="275,-239.7 275,-262.7 442,-262.7 442,-239.7 275,-239.7"/>
<polygon fill="none" stroke="#000000" points="275,-239.7 275,-262.7 442,-262.7 442,-239.7 275,-239.7"/>
<text text-anchor="start" x="280" y="-248.3" font-family="Helvetica,sans-Serif" font-weight="bold" font-size="11.00" fill="#000000">staff_configuration</text>
<text text-anchor="start" x="407.5219" y="-247.8" font-family="Helvetica,sans-Serif" font-size="11.00" fill="#000000">[table]</text>
<polygon fill="none" stroke="#000000" points="275,-220.7 275,-239.7 442,-239.7 442,-220.7 275,-220.7"/>
<text text-anchor="start" x="278" y="-226.8" font-family="Helvetica,sans-Serif" font-size="11.00" fill="#000000">...</text>
<polygon fill="#ffffff" stroke="transparent" points="275,-201.7 275,-220.7 357,-220.7 357,-201.7 275,-201.7"/>
<polygon fill="none" stroke="#000000" points="275,-201.7 275,-220.7 357,-220.7 357,-201.7 275,-201.7"/>
<text text-anchor="start" x="278" y="-207.8" font-family="Helvetica,sans-Serif" font-size="11.00" fill="#000000">&lt; 2</text>
<polygon fill="#ffffff" stroke="transparent" points="357,-201.7 357,-220.7 399,-220.7 399,-201.7 357,-201.7"/>
<polygon fill="none" stroke="#000000" points="357,-201.7 357,-220.7 399,-220.7 399,-201.7 357,-201.7"/>
<text text-anchor="start" x="389.8862" y="-207.8" font-family="Helvetica,sans-Serif" font-size="11.00" fill="#000000"> &#160;</text>
<polygon fill="#ffffff" stroke="transparent" points="399,-201.7 399,-220.7 442,-220.7 442,-201.7 399,-201.7"/>
<polygon fill="none" stroke="#000000" points="399,-201.7 399,-220.7 442,-220.7 442,-201.7 399,-201.7"/>
<text text-anchor="start" x="432.8862" y="-207.8" font-family="Helvetica,sans-Serif" font-size="11.00" fill="#000000"> &#160;</text>
</a>
</g>
</g>
<!-- staff_configuration&#45;&gt;reference_data -->
<g id="edge9" class="edge">
<title>staff_configuration:w&#45;&gt;reference_data:e</title>
<path fill="none" stroke="#000000" d="M260.4543,-230.2842C229.1178,-233.0503 214.7916,-245.9138 192,-274.7 149.4014,-328.5028 220.1249,-423.7 151.5,-423.7"/>
<polygon fill="#000000" stroke="#000000" points="267.0064,-230.0211 275.1445,-233.2971 271.0032,-229.8606 275,-229.7 275,-229.7 275,-229.7 271.0032,-229.8606 274.8555,-226.1029 267.0064,-230.0211 267.0064,-230.0211"/>
<ellipse fill="none" stroke="#000000" cx="263.809" cy="-230.1496" rx="3.2" ry="3.2"/>
</g>
<!-- staff_configuration&#45;&gt;policy -->
<g id="edge8" class="edge">
<title>staff_configuration:w&#45;&gt;policy:e</title>
<path fill="none" stroke="#000000" d="M260.5872,-229.7C207.0474,-229.7 188.5243,-229.7 128.5,-229.7"/>
<polygon fill="#000000" stroke="#000000" points="267,-229.7001 275,-233.3 271,-229.7 275,-229.7 275,-229.7 275,-229.7 271,-229.7 275,-226.1 267,-229.7001 267,-229.7001"/>
<ellipse fill="none" stroke="#000000" cx="263.8" cy="-229.7001" rx="3.2" ry="3.2"/>
</g>
<!-- zz_archived_legacy_keyworker_allocation -->
<g id="node8" class="node">
<title>zz_archived_legacy_keyworker_allocation</title>
<g id="a_node8"><a xlink:href="../../tables/zz_archived_legacy_keyworker_allocation.html" xlink:title="zz_archived_legacy_keyworker_allocation" target="_top">
<polygon fill="#ffffff" stroke="transparent" points="200,-478.2 200,-539.2 516,-539.2 516,-478.2 200,-478.2"/>
<polygon fill="#f5f5f5" stroke="transparent" points="200,-515.7 200,-538.7 516,-538.7 516,-515.7 200,-515.7"/>
<polygon fill="none" stroke="#000000" points="200,-515.7 200,-538.7 516,-538.7 516,-515.7 200,-515.7"/>
<text text-anchor="start" x="205" y="-524.3" font-family="Helvetica,sans-Serif" font-weight="bold" font-size="11.00" fill="#000000">zz_archived_legacy_keyworker_allocation</text>
<text text-anchor="start" x="481.5219" y="-523.8" font-family="Helvetica,sans-Serif" font-size="11.00" fill="#000000">[table]</text>
<polygon fill="none" stroke="#000000" points="200,-496.7 200,-515.7 516,-515.7 516,-496.7 200,-496.7"/>
<text text-anchor="start" x="203" y="-502.8" font-family="Helvetica,sans-Serif" font-size="11.00" fill="#000000">...</text>
<polygon fill="#ffffff" stroke="transparent" points="200,-477.7 200,-496.7 356,-496.7 356,-477.7 200,-477.7"/>
<polygon fill="none" stroke="#000000" points="200,-477.7 200,-496.7 356,-496.7 356,-477.7 200,-477.7"/>
<text text-anchor="start" x="203" y="-483.8" font-family="Helvetica,sans-Serif" font-size="11.00" fill="#000000">&lt; 2</text>
<polygon fill="#ffffff" stroke="transparent" points="356,-477.7 356,-496.7 436,-496.7 436,-477.7 356,-477.7"/>
<polygon fill="none" stroke="#000000" points="356,-477.7 356,-496.7 436,-496.7 436,-477.7 356,-477.7"/>
<text text-anchor="start" x="426.8862" y="-483.8" font-family="Helvetica,sans-Serif" font-size="11.00" fill="#000000"> &#160;</text>
<polygon fill="#ffffff" stroke="transparent" points="436,-477.7 436,-496.7 516,-496.7 516,-477.7 436,-477.7"/>
<polygon fill="none" stroke="#000000" points="436,-477.7 436,-496.7 516,-496.7 516,-477.7 436,-477.7"/>
<text text-anchor="start" x="506.8862" y="-483.8" font-family="Helvetica,sans-Serif" font-size="11.00" fill="#000000"> &#160;</text>
</a>
</g>
</g>
<!-- zz_archived_legacy_keyworker_allocation&#45;&gt;reference_data -->
<g id="edge10" class="edge">
<title>zz_archived_legacy_keyworker_allocation:w&#45;&gt;reference_data:e</title>
<path fill="none" stroke="#000000" d="M186.9168,-499.6718C165.8843,-479.471 188.2184,-418.4969 151.5,-423.7"/>
<polygon fill="#000000" stroke="#000000" points="192.7342,-502.3522 198.4935,-508.9696 196.3671,-504.0261 200,-505.7 200,-505.7 200,-505.7 196.3671,-504.0261 201.5065,-502.4304 192.7342,-502.3522 192.7342,-502.3522"/>
<ellipse fill="none" stroke="#000000" cx="189.8278" cy="-501.0131" rx="3.2" ry="3.2"/>
</g>
<!-- zz_archived_legacy_keyworker_allocation&#45;&gt;reference_data -->
<g id="edge11" class="edge">
<title>zz_archived_legacy_keyworker_allocation:w&#45;&gt;reference_data:e</title>
<path fill="none" stroke="#000000" d="M185.5606,-503.2824C166.8604,-489.4563 187.3914,-429.6336 151.5,-423.7"/>
<polygon fill="#000000" stroke="#000000" points="192.1098,-504.3789 199.4055,-509.2506 196.0549,-505.0394 200,-505.7 200,-505.7 200,-505.7 196.0549,-505.0394 200.5945,-502.1494 192.1098,-504.3789 192.1098,-504.3789"/>
<ellipse fill="none" stroke="#000000" cx="188.9538" cy="-503.8504" rx="3.2" ry="3.2"/>
</g>
</g>
</svg>
