<?xml version="1.0" encoding="UTF-8" standalone="no"?>
<!DOCTYPE svg PUBLIC "-//W3C//DTD SVG 1.1//EN"
 "http://www.w3.org/Graphics/SVG/1.1/DTD/svg11.dtd">
<!-- Generated by graphviz version 2.40.1 (20161225.0304)
 -->
<!-- Title: twoDegreesRelationshipsDiagram Pages: 1 -->
<svg width="467pt" height="715pt"
 viewBox="0.00 0.00 467.00 715.20" xmlns="http://www.w3.org/2000/svg" xmlns:xlink="http://www.w3.org/1999/xlink">
<g id="graph0" class="graph" transform="scale(1 1) rotate(0) translate(4 711.2)">
<title>twoDegreesRelationshipsDiagram</title>
<polygon fill="#ffffff" stroke="transparent" points="-4,4 -4,-711.2 463,-711.2 463,4 -4,4"/>
<text text-anchor="middle" x="72.4936" y="-7.3" font-family="Helvetica,sans-Serif" font-size="11.00" fill="#000000">Generated by SchemaSpy</text>
<!-- allocation -->
<g id="node1" class="node">
<title>allocation</title>
<g id="a_node1"><a xlink:href="../../tables/allocation.html" xlink:title="allocation" target="_top">
<polygon fill="#ffffff" stroke="transparent" points="274,-208.2 274,-467.2 448,-467.2 448,-208.2 274,-208.2"/>
<polygon fill="#f5f5f5" stroke="transparent" points="274,-443.7 274,-466.7 448,-466.7 448,-443.7 274,-443.7"/>
<polygon fill="none" stroke="#000000" points="274,-443.7 274,-466.7 448,-466.7 448,-443.7 274,-443.7"/>
<text text-anchor="start" x="279" y="-452.3" font-family="Helvetica,sans-Serif" font-weight="bold" font-size="11.00" fill="#000000">allocation</text>
<text text-anchor="start" x="413.0437" y="-451.8" font-family="Helvetica,sans-Serif" font-size="11.00" fill="#000000">[table]</text>
<polygon fill="none" stroke="#000000" points="274,-421.7 274,-443.7 448,-443.7 448,-421.7 274,-421.7"/>
<image xlink:href="../../images/primaryKeys.png" width="11px" height="12px" preserveAspectRatio="xMinYMin meet" x="279" y="-438.7"/>
<text text-anchor="start" x="294" y="-428.8" font-family="Helvetica,sans-Serif" font-size="11.00" fill="#000000">id</text>
<polygon fill="none" stroke="#000000" points="274,-399.7 274,-421.7 448,-421.7 448,-399.7 274,-399.7"/>
<image xlink:href="../../images/foreignKeys.png" width="11px" height="12px" preserveAspectRatio="xMinYMin meet" x="279" y="-416.7"/>
<text text-anchor="start" x="294" y="-406.8" font-family="Helvetica,sans-Serif" font-size="11.00" fill="#000000">prison_code</text>
<polygon fill="#ffffff" stroke="transparent" points="274,-377.7 274,-399.7 448,-399.7 448,-377.7 274,-377.7"/>
<polygon fill="none" stroke="#000000" points="274,-377.7 274,-399.7 448,-399.7 448,-377.7 274,-377.7"/>
<text text-anchor="start" x="294" y="-384.8" font-family="Helvetica,sans-Serif" font-size="11.00" fill="#000000">staff_id</text>
<polygon fill="#ffffff" stroke="transparent" points="274,-355.7 274,-377.7 448,-377.7 448,-355.7 274,-355.7"/>
<polygon fill="none" stroke="#000000" points="274,-355.7 274,-377.7 448,-377.7 448,-355.7 274,-355.7"/>
<text text-anchor="start" x="294" y="-362.8" font-family="Helvetica,sans-Serif" font-size="11.00" fill="#000000">person_identifier</text>
<polygon fill="#ffffff" stroke="transparent" points="274,-333.7 274,-355.7 448,-355.7 448,-333.7 274,-333.7"/>
<polygon fill="none" stroke="#000000" points="274,-333.7 274,-355.7 448,-355.7 448,-333.7 274,-333.7"/>
<text text-anchor="start" x="294" y="-340.8" font-family="Helvetica,sans-Serif" font-size="11.00" fill="#000000">allocated_at</text>
<polygon fill="none" stroke="#000000" points="274,-311.7 274,-333.7 448,-333.7 448,-311.7 274,-311.7"/>
<image xlink:href="../../images/foreignKeys.png" width="11px" height="12px" preserveAspectRatio="xMinYMin meet" x="279" y="-328.7"/>
<text text-anchor="start" x="294" y="-318.8" font-family="Helvetica,sans-Serif" font-size="11.00" fill="#000000">allocation_reason_id</text>
<polygon fill="none" stroke="#000000" points="274,-289.7 274,-311.7 448,-311.7 448,-289.7 274,-289.7"/>
<image xlink:href="../../images/foreignKeys.png" width="11px" height="12px" preserveAspectRatio="xMinYMin meet" x="279" y="-306.7"/>
<text text-anchor="start" x="294" y="-296.8" font-family="Helvetica,sans-Serif" font-size="11.00" fill="#000000">deallocation_reason_id</text>
<polygon fill="#ffffff" stroke="transparent" points="274,-267.7 274,-289.7 448,-289.7 448,-267.7 274,-267.7"/>
<polygon fill="none" stroke="#000000" points="274,-267.7 274,-289.7 448,-289.7 448,-267.7 274,-267.7"/>
<image xlink:href="../../images/foreignKeys.png" width="11px" height="12px" preserveAspectRatio="xMinYMin meet" x="279" y="-284.7"/>
<text text-anchor="start" x="294" y="-274.8" font-family="Helvetica,sans-Serif" font-size="11.00" fill="#000000">policy_code</text>
<polygon fill="#ffffff" stroke="transparent" points="274,-245.7 274,-267.7 448,-267.7 448,-245.7 274,-245.7"/>
<polygon fill="none" stroke="#000000" points="274,-245.7 274,-267.7 448,-267.7 448,-245.7 274,-245.7"/>
<text text-anchor="start" x="294" y="-252.8" font-family="Helvetica,sans-Serif" font-size="11.00" fill="#000000">legacy_id</text>
<polygon fill="none" stroke="#000000" points="274,-226.7 274,-245.7 448,-245.7 448,-226.7 274,-226.7"/>
<text text-anchor="start" x="277" y="-232.8" font-family="Helvetica,sans-Serif" font-size="11.00" fill="#000000">...</text>
<polygon fill="#ffffff" stroke="transparent" points="274,-207.7 274,-226.7 359,-226.7 359,-207.7 274,-207.7"/>
<polygon fill="none" stroke="#000000" points="274,-207.7 274,-226.7 359,-226.7 359,-207.7 274,-207.7"/>
<text text-anchor="start" x="277" y="-213.8" font-family="Helvetica,sans-Serif" font-size="11.00" fill="#000000">&lt; 3</text>
<polygon fill="#ffffff" stroke="transparent" points="359,-207.7 359,-226.7 403,-226.7 403,-207.7 359,-207.7"/>
<polygon fill="none" stroke="#000000" points="359,-207.7 359,-226.7 403,-226.7 403,-207.7 359,-207.7"/>
<text text-anchor="start" x="393.8862" y="-213.8" font-family="Helvetica,sans-Serif" font-size="11.00" fill="#000000"> &#160;</text>
<polygon fill="#ffffff" stroke="transparent" points="403,-207.7 403,-226.7 448,-226.7 448,-207.7 403,-207.7"/>
<polygon fill="none" stroke="#000000" points="403,-207.7 403,-226.7 448,-226.7 448,-207.7 403,-207.7"/>
<text text-anchor="start" x="438.8862" y="-213.8" font-family="Helvetica,sans-Serif" font-size="11.00" fill="#000000"> &#160;</text>
</a>
</g>
</g>
<!-- reference_data -->
<g id="node2" class="node">
<title>reference_data</title>
<g id="a_node2"><a xlink:href="../../tables/reference_data.html" xlink:title="reference_data" target="_top">
<polygon fill="#ffffff" stroke="transparent" points="8,-202.7 8,-358.7 222,-358.7 222,-202.7 8,-202.7"/>
<polygon fill="#f5f5f5" stroke="transparent" points="10,-333.7 10,-356.7 220,-356.7 220,-333.7 10,-333.7"/>
<polygon fill="none" stroke="#000000" points="10,-333.7 10,-356.7 220,-356.7 220,-333.7 10,-333.7"/>
<text text-anchor="start" x="15" y="-342.3" font-family="Helvetica,sans-Serif" font-weight="bold" font-size="11.00" fill="#000000">reference_data</text>
<text text-anchor="start" x="185.0437" y="-341.8" font-family="Helvetica,sans-Serif" font-size="11.00" fill="#000000">[table]</text>
<polygon fill="none" stroke="#000000" points="10,-311.7 10,-333.7 153,-333.7 153,-311.7 10,-311.7"/>
<image xlink:href="../../images/primaryKeys.png" width="11px" height="12px" preserveAspectRatio="xMinYMin meet" x="15" y="-328.7"/>
<text text-anchor="start" x="30" y="-318.8" font-family="Helvetica,sans-Serif" font-size="11.00" fill="#000000">id</text>
<polygon fill="none" stroke="#000000" points="153,-311.7 153,-333.7 220,-333.7 220,-311.7 153,-311.7"/>
<text text-anchor="start" x="156" y="-319.4" font-family="Helvetica,sans-Serif" font-size="11.00" fill="#000000">bigserial[19]</text>
<polygon fill="#ffffff" stroke="transparent" points="10,-289.7 10,-311.7 153,-311.7 153,-289.7 10,-289.7"/>
<polygon fill="none" stroke="#000000" points="10,-289.7 10,-311.7 153,-311.7 153,-289.7 10,-289.7"/>
<text text-anchor="start" x="30" y="-296.8" font-family="Helvetica,sans-Serif" font-size="11.00" fill="#000000">domain</text>
<polygon fill="none" stroke="#000000" points="153,-289.7 153,-311.7 220,-311.7 220,-289.7 153,-289.7"/>
<text text-anchor="start" x="156" y="-297.4" font-family="Helvetica,sans-Serif" font-size="11.00" fill="#000000">varchar[32]</text>
<polygon fill="#ffffff" stroke="transparent" points="10,-267.7 10,-289.7 153,-289.7 153,-267.7 10,-267.7"/>
<polygon fill="none" stroke="#000000" points="10,-267.7 10,-289.7 153,-289.7 153,-267.7 10,-267.7"/>
<text text-anchor="start" x="30" y="-274.8" font-family="Helvetica,sans-Serif" font-size="11.00" fill="#000000">code</text>
<polygon fill="none" stroke="#000000" points="153,-267.7 153,-289.7 220,-289.7 220,-267.7 153,-267.7"/>
<text text-anchor="start" x="156" y="-275.4" font-family="Helvetica,sans-Serif" font-size="11.00" fill="#000000">varchar[32]</text>
<polygon fill="none" stroke="#000000" points="10,-245.7 10,-267.7 153,-267.7 153,-245.7 10,-245.7"/>
<text text-anchor="start" x="30" y="-252.8" font-family="Helvetica,sans-Serif" font-size="11.00" fill="#000000">description</text>
<polygon fill="none" stroke="#000000" points="153,-245.7 153,-267.7 220,-267.7 220,-245.7 153,-245.7"/>
<text text-anchor="start" x="155.9365" y="-253.4" font-family="Helvetica,sans-Serif" font-size="11.00" fill="#000000">varchar[128]</text>
<polygon fill="#ffffff" stroke="transparent" points="10,-223.7 10,-245.7 153,-245.7 153,-223.7 10,-223.7"/>
<polygon fill="none" stroke="#000000" points="10,-223.7 10,-245.7 153,-245.7 153,-223.7 10,-223.7"/>
<text text-anchor="start" x="30" y="-230.8" font-family="Helvetica,sans-Serif" font-size="11.00" fill="#000000">sequence_number</text>
<polygon fill="none" stroke="#000000" points="153,-223.7 153,-245.7 220,-245.7 220,-223.7 153,-223.7"/>
<text text-anchor="start" x="156" y="-231.4" font-family="Helvetica,sans-Serif" font-size="11.00" fill="#000000">int4[10]</text>
<polygon fill="#ffffff" stroke="transparent" points="10,-204.7 10,-223.7 86,-223.7 86,-204.7 10,-204.7"/>
<polygon fill="none" stroke="#000000" points="10,-204.7 10,-223.7 86,-223.7 86,-204.7 10,-204.7"/>
<text text-anchor="start" x="13" y="-210.8" font-family="Helvetica,sans-Serif" font-size="11.00" fill="#000000">&lt; 0</text>
<polygon fill="#ffffff" stroke="transparent" points="86,-204.7 86,-223.7 153,-223.7 153,-204.7 86,-204.7"/>
<polygon fill="none" stroke="#000000" points="86,-204.7 86,-223.7 153,-223.7 153,-204.7 86,-204.7"/>
<text text-anchor="start" x="143.8862" y="-210.8" font-family="Helvetica,sans-Serif" font-size="11.00" fill="#000000"> &#160;</text>
<polygon fill="#ffffff" stroke="transparent" points="153,-204.7 153,-223.7 220,-223.7 220,-204.7 153,-204.7"/>
<polygon fill="none" stroke="#000000" points="153,-204.7 153,-223.7 220,-223.7 220,-204.7 153,-204.7"/>
<text text-anchor="start" x="201.4053" y="-210.8" font-family="Helvetica,sans-Serif" font-size="11.00" fill="#000000">5 &gt;</text>
<polygon fill="none" stroke="#000000" stroke-width="2" points="9,-203.7 9,-357.7 221,-357.7 221,-203.7 9,-203.7"/>
</a>
</g>
</g>
<!-- allocation&#45;&gt;reference_data -->
<g id="edge1" class="edge">
<title>allocation:w&#45;&gt;reference_data:e</title>
<path fill="none" stroke="#000000" d="M259.2185,-322.7C246.038,-322.7 238.1875,-322.7 220,-322.7"/>
<polygon fill="#000000" stroke="#000000" points="266,-322.7001 274,-326.3 270,-322.7 274,-322.7 274,-322.7 274,-322.7 270,-322.7 274,-319.1 266,-322.7001 266,-322.7001"/>
<ellipse fill="none" stroke="#000000" cx="262.8" cy="-322.7001" rx="3.2" ry="3.2"/>
</g>
<!-- allocation&#45;&gt;reference_data -->
<g id="edge2" class="edge">
<title>allocation:w&#45;&gt;reference_data:e</title>
<path fill="none" stroke="#000000" d="M259.49,-303.5761C245.8828,-309.5395 240.0439,-322.7 220,-322.7"/>
<polygon fill="#000000" stroke="#000000" points="266.1527,-302.2555 274.7,-304.2313 270.0763,-301.4778 274,-300.7 274,-300.7 274,-300.7 270.0763,-301.4778 273.3,-297.1687 266.1527,-302.2555 266.1527,-302.2555"/>
<ellipse fill="none" stroke="#000000" cx="263.0137" cy="-302.8777" rx="3.2" ry="3.2"/>
</g>
<!-- policy -->
<g id="node3" class="node">
<title>policy</title>
<g id="a_node3"><a xlink:href="../../tables/policy.html" xlink:title="policy" target="_top">
<polygon fill="#ffffff" stroke="transparent" points="76,-101.2 76,-162.2 154,-162.2 154,-101.2 76,-101.2"/>
<polygon fill="#f5f5f5" stroke="transparent" points="76,-138.7 76,-161.7 154,-161.7 154,-138.7 76,-138.7"/>
<polygon fill="none" stroke="#000000" points="76,-138.7 76,-161.7 154,-161.7 154,-138.7 76,-138.7"/>
<text text-anchor="start" x="81" y="-147.3" font-family="Helvetica,sans-Serif" font-weight="bold" font-size="11.00" fill="#000000">policy</text>
<text text-anchor="start" x="119.5219" y="-146.8" font-family="Helvetica,sans-Serif" font-size="11.00" fill="#000000">[table]</text>
<polygon fill="none" stroke="#000000" points="76,-119.7 76,-138.7 154,-138.7 154,-119.7 76,-119.7"/>
<text text-anchor="start" x="79" y="-125.8" font-family="Helvetica,sans-Serif" font-size="11.00" fill="#000000">...</text>
<polygon fill="#ffffff" stroke="transparent" points="76,-100.7 76,-119.7 104,-119.7 104,-100.7 76,-100.7"/>
<polygon fill="none" stroke="#000000" points="76,-100.7 76,-119.7 104,-119.7 104,-100.7 76,-100.7"/>
<text text-anchor="start" x="79" y="-106.8" font-family="Helvetica,sans-Serif" font-size="11.00" fill="#000000"> &#160;</text>
<polygon fill="#ffffff" stroke="transparent" points="104,-100.7 104,-119.7 124,-119.7 124,-100.7 104,-100.7"/>
<polygon fill="none" stroke="#000000" points="104,-100.7 104,-119.7 124,-119.7 124,-100.7 104,-100.7"/>
<text text-anchor="start" x="114.8862" y="-106.8" font-family="Helvetica,sans-Serif" font-size="11.00" fill="#000000"> &#160;</text>
<polygon fill="#ffffff" stroke="transparent" points="124,-100.7 124,-119.7 154,-119.7 154,-100.7 124,-100.7"/>
<polygon fill="none" stroke="#000000" points="124,-100.7 124,-119.7 154,-119.7 154,-100.7 124,-100.7"/>
<text text-anchor="start" x="135.4053" y="-106.8" font-family="Helvetica,sans-Serif" font-size="11.00" fill="#000000">3 &gt;</text>
</a>
</g>
</g>
<!-- allocation&#45;&gt;policy -->
<g id="edge3" class="edge">
<title>allocation:w&#45;&gt;policy:e</title>
<path fill="none" stroke="#000000" d="M259.6201,-275.7894C237.2466,-264.3348 252.9674,-221.5767 230,-192.7 202.5119,-158.1395 198.1591,-128.7 154,-128.7"/>
<polygon fill="#000000" stroke="#000000" points="266.159,-277.1129 273.2858,-282.2284 270.0795,-277.9064 274,-278.7 274,-278.7 274,-278.7 270.0795,-277.9064 274.7142,-275.1716 266.159,-277.1129 266.159,-277.1129"/>
<ellipse fill="none" stroke="#000000" cx="263.0226" cy="-276.478" rx="3.2" ry="3.2"/>
</g>
<!-- offender_key_worker -->
<g id="node4" class="node">
<title>offender_key_worker</title>
<g id="a_node4"><a xlink:href="../../tables/offender_key_worker.html" xlink:title="offender_key_worker" target="_top">
<polygon fill="#ffffff" stroke="transparent" points="271,-488.2 271,-703.2 451,-703.2 451,-488.2 271,-488.2"/>
<polygon fill="#f5f5f5" stroke="transparent" points="271,-679.7 271,-702.7 451,-702.7 451,-679.7 271,-679.7"/>
<polygon fill="none" stroke="#000000" points="271,-679.7 271,-702.7 451,-702.7 451,-679.7 271,-679.7"/>
<text text-anchor="start" x="276" y="-688.3" font-family="Helvetica,sans-Serif" font-weight="bold" font-size="11.00" fill="#000000">offender_key_worker</text>
<text text-anchor="start" x="416.5219" y="-687.8" font-family="Helvetica,sans-Serif" font-size="11.00" fill="#000000">[table]</text>
<polygon fill="none" stroke="#000000" points="271,-657.7 271,-679.7 451,-679.7 451,-657.7 271,-657.7"/>
<image xlink:href="../../images/primaryKeys.png" width="11px" height="12px" preserveAspectRatio="xMinYMin meet" x="276" y="-674.7"/>
<text text-anchor="start" x="294" y="-664.8" font-family="Helvetica,sans-Serif" font-size="11.00" fill="#000000">offender_keyworker_id</text>
<polygon fill="#ffffff" stroke="transparent" points="271,-635.7 271,-657.7 451,-657.7 451,-635.7 271,-635.7"/>
<polygon fill="none" stroke="#000000" points="271,-635.7 271,-657.7 451,-657.7 451,-635.7 271,-635.7"/>
<text text-anchor="start" x="294" y="-642.8" font-family="Helvetica,sans-Serif" font-size="11.00" fill="#000000">offender_no</text>
<polygon fill="#ffffff" stroke="transparent" points="271,-613.7 271,-635.7 451,-635.7 451,-613.7 271,-613.7"/>
<polygon fill="none" stroke="#000000" points="271,-613.7 271,-635.7 451,-635.7 451,-613.7 271,-613.7"/>
<text text-anchor="start" x="294" y="-620.8" font-family="Helvetica,sans-Serif" font-size="11.00" fill="#000000">staff_id</text>
<polygon fill="#ffffff" stroke="transparent" points="271,-591.7 271,-613.7 451,-613.7 451,-591.7 271,-591.7"/>
<polygon fill="none" stroke="#000000" points="271,-591.7 271,-613.7 451,-613.7 451,-591.7 271,-591.7"/>
<text text-anchor="start" x="294" y="-598.8" font-family="Helvetica,sans-Serif" font-size="11.00" fill="#000000">assigned_date_time</text>
<polygon fill="#ffffff" stroke="transparent" points="271,-569.7 271,-591.7 451,-591.7 451,-569.7 271,-569.7"/>
<polygon fill="none" stroke="#000000" points="271,-569.7 271,-591.7 451,-591.7 451,-569.7 271,-569.7"/>
<text text-anchor="start" x="294" y="-576.8" font-family="Helvetica,sans-Serif" font-size="11.00" fill="#000000">prison_id</text>
<polygon fill="none" stroke="#000000" points="271,-547.7 271,-569.7 451,-569.7 451,-547.7 271,-547.7"/>
<image xlink:href="../../images/foreignKeys.png" width="11px" height="12px" preserveAspectRatio="xMinYMin meet" x="276" y="-564.7"/>
<text text-anchor="start" x="294" y="-554.8" font-family="Helvetica,sans-Serif" font-size="11.00" fill="#000000">allocation_reason_id</text>
<polygon fill="none" stroke="#000000" points="271,-525.7 271,-547.7 451,-547.7 451,-525.7 271,-525.7"/>
<image xlink:href="../../images/foreignKeys.png" width="11px" height="12px" preserveAspectRatio="xMinYMin meet" x="276" y="-542.7"/>
<text text-anchor="start" x="294" y="-532.8" font-family="Helvetica,sans-Serif" font-size="11.00" fill="#000000">deallocation_reason_id</text>
<polygon fill="none" stroke="#000000" points="271,-506.7 271,-525.7 451,-525.7 451,-506.7 271,-506.7"/>
<text text-anchor="start" x="274" y="-512.8" font-family="Helvetica,sans-Serif" font-size="11.00" fill="#000000">...</text>
<polygon fill="#ffffff" stroke="transparent" points="271,-487.7 271,-506.7 359,-506.7 359,-487.7 271,-487.7"/>
<polygon fill="none" stroke="#000000" points="271,-487.7 271,-506.7 359,-506.7 359,-487.7 271,-487.7"/>
<text text-anchor="start" x="274" y="-493.8" font-family="Helvetica,sans-Serif" font-size="11.00" fill="#000000">&lt; 2</text>
<polygon fill="#ffffff" stroke="transparent" points="359,-487.7 359,-506.7 405,-506.7 405,-487.7 359,-487.7"/>
<polygon fill="none" stroke="#000000" points="359,-487.7 359,-506.7 405,-506.7 405,-487.7 359,-487.7"/>
<text text-anchor="start" x="395.8862" y="-493.8" font-family="Helvetica,sans-Serif" font-size="11.00" fill="#000000"> &#160;</text>
<polygon fill="#ffffff" stroke="transparent" points="405,-487.7 405,-506.7 451,-506.7 451,-487.7 405,-487.7"/>
<polygon fill="none" stroke="#000000" points="405,-487.7 405,-506.7 451,-506.7 451,-487.7 405,-487.7"/>
<text text-anchor="start" x="441.8862" y="-493.8" font-family="Helvetica,sans-Serif" font-size="11.00" fill="#000000"> &#160;</text>
</a>
</g>
</g>
<!-- offender_key_worker&#45;&gt;reference_data -->
<g id="edge4" class="edge">
<title>offender_key_worker:w&#45;&gt;reference_data:e</title>
<path fill="none" stroke="#000000" d="M256.677,-556.9361C179.6089,-535.3398 321.8608,-322.7 220,-322.7"/>
<polygon fill="#000000" stroke="#000000" points="263.06,-557.7221 270.5599,-562.273 267.03,-558.2111 271,-558.7 271,-558.7 271,-558.7 267.03,-558.2111 271.4401,-555.127 263.06,-557.7221 263.06,-557.7221"/>
<ellipse fill="none" stroke="#000000" cx="259.884" cy="-557.3309" rx="3.2" ry="3.2"/>
</g>
<!-- offender_key_worker&#45;&gt;reference_data -->
<g id="edge5" class="edge">
<title>offender_key_worker:w&#45;&gt;reference_data:e</title>
<path fill="none" stroke="#000000" d="M256.6301,-534.7181C188.8226,-513.1444 312.2367,-322.7 220,-322.7"/>
<polygon fill="#000000" stroke="#000000" points="263.075,-535.607 270.5081,-540.2662 267.0375,-536.1535 271,-536.7 271,-536.7 271,-536.7 267.0375,-536.1535 271.4919,-533.1338 263.075,-535.607 263.075,-535.607"/>
<ellipse fill="none" stroke="#000000" cx="259.905" cy="-535.1697" rx="3.2" ry="3.2"/>
</g>
<!-- staff_configuration -->
<g id="node5" class="node">
<title>staff_configuration</title>
<g id="a_node5"><a xlink:href="../../tables/staff_configuration.html" xlink:title="staff_configuration" target="_top">
<polygon fill="#ffffff" stroke="transparent" points="277.5,-38.2 277.5,-187.2 444.5,-187.2 444.5,-38.2 277.5,-38.2"/>
<polygon fill="#f5f5f5" stroke="transparent" points="278,-163.7 278,-186.7 445,-186.7 445,-163.7 278,-163.7"/>
<polygon fill="none" stroke="#000000" points="278,-163.7 278,-186.7 445,-186.7 445,-163.7 278,-163.7"/>
<text text-anchor="start" x="283" y="-172.3" font-family="Helvetica,sans-Serif" font-weight="bold" font-size="11.00" fill="#000000">staff_configuration</text>
<text text-anchor="start" x="410.5219" y="-171.8" font-family="Helvetica,sans-Serif" font-size="11.00" fill="#000000">[table]</text>
<polygon fill="#ffffff" stroke="transparent" points="278,-141.7 278,-163.7 445,-163.7 445,-141.7 278,-141.7"/>
<polygon fill="none" stroke="#000000" points="278,-141.7 278,-163.7 445,-163.7 445,-141.7 278,-141.7"/>
<text text-anchor="start" x="299" y="-148.8" font-family="Helvetica,sans-Serif" font-size="11.00" fill="#000000">staff_id</text>
<polygon fill="none" stroke="#000000" points="278,-119.7 278,-141.7 445,-141.7 445,-119.7 278,-119.7"/>
<image xlink:href="../../images/foreignKeys.png" width="11px" height="12px" preserveAspectRatio="xMinYMin meet" x="283" y="-136.7"/>
<text text-anchor="start" x="299" y="-126.8" font-family="Helvetica,sans-Serif" font-size="11.00" fill="#000000">status_id</text>
<polygon fill="#ffffff" stroke="transparent" points="278,-97.7 278,-119.7 445,-119.7 445,-97.7 278,-97.7"/>
<polygon fill="none" stroke="#000000" points="278,-97.7 278,-119.7 445,-119.7 445,-97.7 278,-97.7"/>
<image xlink:href="../../images/foreignKeys.png" width="11px" height="12px" preserveAspectRatio="xMinYMin meet" x="283" y="-114.7"/>
<text text-anchor="start" x="299" y="-104.8" font-family="Helvetica,sans-Serif" font-size="11.00" fill="#000000">policy_code</text>
<polygon fill="none" stroke="#000000" points="278,-75.7 278,-97.7 445,-97.7 445,-75.7 278,-75.7"/>
<image xlink:href="../../images/primaryKeys.png" width="11px" height="12px" preserveAspectRatio="xMinYMin meet" x="283" y="-92.7"/>
<text text-anchor="start" x="299" y="-82.8" font-family="Helvetica,sans-Serif" font-size="11.00" fill="#000000">id</text>
<polygon fill="none" stroke="#000000" points="278,-56.7 278,-75.7 445,-75.7 445,-56.7 278,-56.7"/>
<text text-anchor="start" x="281" y="-62.8" font-family="Helvetica,sans-Serif" font-size="11.00" fill="#000000">...</text>
<polygon fill="#ffffff" stroke="transparent" points="278,-37.7 278,-56.7 360,-56.7 360,-37.7 278,-37.7"/>
<polygon fill="none" stroke="#000000" points="278,-37.7 278,-56.7 360,-56.7 360,-37.7 278,-37.7"/>
<text text-anchor="start" x="281" y="-43.8" font-family="Helvetica,sans-Serif" font-size="11.00" fill="#000000">&lt; 2</text>
<polygon fill="#ffffff" stroke="transparent" points="360,-37.7 360,-56.7 402,-56.7 402,-37.7 360,-37.7"/>
<polygon fill="none" stroke="#000000" points="360,-37.7 360,-56.7 402,-56.7 402,-37.7 360,-37.7"/>
<text text-anchor="start" x="392.8862" y="-43.8" font-family="Helvetica,sans-Serif" font-size="11.00" fill="#000000"> &#160;</text>
<polygon fill="#ffffff" stroke="transparent" points="402,-37.7 402,-56.7 445,-56.7 445,-37.7 402,-37.7"/>
<polygon fill="none" stroke="#000000" points="402,-37.7 402,-56.7 445,-56.7 445,-37.7 402,-37.7"/>
<text text-anchor="start" x="435.8862" y="-43.8" font-family="Helvetica,sans-Serif" font-size="11.00" fill="#000000"> &#160;</text>
</a>
</g>
</g>
<!-- staff_configuration&#45;&gt;reference_data -->
<g id="edge7" class="edge">
<title>staff_configuration:w&#45;&gt;reference_data:e</title>
<path fill="none" stroke="#000000" d="M263.6378,-132.8563C203.0755,-153.95 303.5705,-322.7 220,-322.7"/>
<polygon fill="#000000" stroke="#000000" points="270.0887,-131.8878 278.5345,-134.2601 274.0443,-131.2939 278,-130.7 278,-130.7 278,-130.7 274.0443,-131.2939 277.4655,-127.1399 270.0887,-131.8878 270.0887,-131.8878"/>
<ellipse fill="none" stroke="#000000" cx="266.9241" cy="-132.3629" rx="3.2" ry="3.2"/>
</g>
<!-- staff_configuration&#45;&gt;policy -->
<g id="edge6" class="edge">
<title>staff_configuration:w&#45;&gt;policy:e</title>
<path fill="none" stroke="#000000" d="M263.3742,-109.1944C219.4783,-112.2742 204.5899,-128.7 154,-128.7"/>
<polygon fill="#000000" stroke="#000000" points="270.0046,-108.9703 278.1216,-112.2979 274.0023,-108.8352 278,-108.7 278,-108.7 278,-108.7 274.0023,-108.8352 277.8784,-105.1021 270.0046,-108.9703 270.0046,-108.9703"/>
<ellipse fill="none" stroke="#000000" cx="266.8064" cy="-109.0784" rx="3.2" ry="3.2"/>
</g>
</g>
</svg>
