<?xml version="1.0" encoding="UTF-8" standalone="no"?>
<!DOCTYPE svg PUBLIC "-//W3C//DTD SVG 1.1//EN"
 "http://www.w3.org/Graphics/SVG/1.1/DTD/svg11.dtd">
<!-- Generated by graphviz version 2.40.1 (20161225.0304)
 -->
<!-- Title: twoDegreesRelationshipsDiagramImplied Pages: 1 -->
<svg width="502pt" height="863pt"
 viewBox="0.00 0.00 502.00 863.20" xmlns="http://www.w3.org/2000/svg" xmlns:xlink="http://www.w3.org/1999/xlink">
<g id="graph0" class="graph" transform="scale(1 1) rotate(0) translate(4 859.2)">
<title>twoDegreesRelationshipsDiagramImplied</title>
<polygon fill="#ffffff" stroke="transparent" points="-4,4 -4,-859.2 498,-859.2 498,4 -4,4"/>
<text text-anchor="middle" x="72.4936" y="-7.3" font-family="Helvetica,sans-Serif" font-size="11.00" fill="#000000">Generated by SchemaSpy</text>
<!-- allocation -->
<g id="node1" class="node">
<title>allocation</title>
<g id="a_node1"><a xlink:href="../../tables/allocation.html" xlink:title="allocation" target="_top">
<polygon fill="#ffffff" stroke="transparent" points="306,-592.2 306,-851.2 480,-851.2 480,-592.2 306,-592.2"/>
<polygon fill="#f5f5f5" stroke="transparent" points="306,-827.7 306,-850.7 480,-850.7 480,-827.7 306,-827.7"/>
<polygon fill="none" stroke="#000000" points="306,-827.7 306,-850.7 480,-850.7 480,-827.7 306,-827.7"/>
<text text-anchor="start" x="311" y="-836.3" font-family="Helvetica,sans-Serif" font-weight="bold" font-size="11.00" fill="#000000">allocation</text>
<text text-anchor="start" x="445.0437" y="-835.8" font-family="Helvetica,sans-Serif" font-size="11.00" fill="#000000">[table]</text>
<polygon fill="none" stroke="#000000" points="306,-805.7 306,-827.7 480,-827.7 480,-805.7 306,-805.7"/>
<image xlink:href="../../images/primaryKeys.png" width="11px" height="12px" preserveAspectRatio="xMinYMin meet" x="311" y="-822.7"/>
<text text-anchor="start" x="326" y="-812.8" font-family="Helvetica,sans-Serif" font-size="11.00" fill="#000000">id</text>
<polygon fill="#ffffff" stroke="transparent" points="306,-783.7 306,-805.7 480,-805.7 480,-783.7 306,-783.7"/>
<polygon fill="none" stroke="#000000" points="306,-783.7 306,-805.7 480,-805.7 480,-783.7 306,-783.7"/>
<image xlink:href="../../images/foreignKeys.png" width="11px" height="12px" preserveAspectRatio="xMinYMin meet" x="311" y="-800.7"/>
<text text-anchor="start" x="326" y="-790.8" font-family="Helvetica,sans-Serif" font-size="11.00" fill="#000000">prison_code</text>
<polygon fill="#ffffff" stroke="transparent" points="306,-761.7 306,-783.7 480,-783.7 480,-761.7 306,-761.7"/>
<polygon fill="none" stroke="#000000" points="306,-761.7 306,-783.7 480,-783.7 480,-761.7 306,-761.7"/>
<text text-anchor="start" x="326" y="-768.8" font-family="Helvetica,sans-Serif" font-size="11.00" fill="#000000">staff_id</text>
<polygon fill="#ffffff" stroke="transparent" points="306,-739.7 306,-761.7 480,-761.7 480,-739.7 306,-739.7"/>
<polygon fill="none" stroke="#000000" points="306,-739.7 306,-761.7 480,-761.7 480,-739.7 306,-739.7"/>
<text text-anchor="start" x="326" y="-746.8" font-family="Helvetica,sans-Serif" font-size="11.00" fill="#000000">person_identifier</text>
<polygon fill="#ffffff" stroke="transparent" points="306,-717.7 306,-739.7 480,-739.7 480,-717.7 306,-717.7"/>
<polygon fill="none" stroke="#000000" points="306,-717.7 306,-739.7 480,-739.7 480,-717.7 306,-717.7"/>
<text text-anchor="start" x="326" y="-724.8" font-family="Helvetica,sans-Serif" font-size="11.00" fill="#000000">allocated_at</text>
<polygon fill="none" stroke="#000000" points="306,-695.7 306,-717.7 480,-717.7 480,-695.7 306,-695.7"/>
<image xlink:href="../../images/foreignKeys.png" width="11px" height="12px" preserveAspectRatio="xMinYMin meet" x="311" y="-712.7"/>
<text text-anchor="start" x="326" y="-702.8" font-family="Helvetica,sans-Serif" font-size="11.00" fill="#000000">allocation_reason_id</text>
<polygon fill="#ffffff" stroke="transparent" points="306,-673.7 306,-695.7 480,-695.7 480,-673.7 306,-673.7"/>
<polygon fill="none" stroke="#000000" points="306,-673.7 306,-695.7 480,-695.7 480,-673.7 306,-673.7"/>
<text text-anchor="start" x="326" y="-680.8" font-family="Helvetica,sans-Serif" font-size="11.00" fill="#000000">deallocated_at</text>
<polygon fill="none" stroke="#000000" points="306,-651.7 306,-673.7 480,-673.7 480,-651.7 306,-651.7"/>
<image xlink:href="../../images/foreignKeys.png" width="11px" height="12px" preserveAspectRatio="xMinYMin meet" x="311" y="-668.7"/>
<text text-anchor="start" x="326" y="-658.8" font-family="Helvetica,sans-Serif" font-size="11.00" fill="#000000">deallocation_reason_id</text>
<polygon fill="#ffffff" stroke="transparent" points="306,-629.7 306,-651.7 480,-651.7 480,-629.7 306,-629.7"/>
<polygon fill="none" stroke="#000000" points="306,-629.7 306,-651.7 480,-651.7 480,-629.7 306,-629.7"/>
<image xlink:href="../../images/foreignKeys.png" width="11px" height="12px" preserveAspectRatio="xMinYMin meet" x="311" y="-646.7"/>
<text text-anchor="start" x="326" y="-636.8" font-family="Helvetica,sans-Serif" font-size="11.00" fill="#000000">policy_code</text>
<polygon fill="none" stroke="#000000" points="306,-610.7 306,-629.7 480,-629.7 480,-610.7 306,-610.7"/>
<text text-anchor="start" x="309" y="-616.8" font-family="Helvetica,sans-Serif" font-size="11.00" fill="#000000">...</text>
<polygon fill="#ffffff" stroke="transparent" points="306,-591.7 306,-610.7 391,-610.7 391,-591.7 306,-591.7"/>
<polygon fill="none" stroke="#000000" points="306,-591.7 306,-610.7 391,-610.7 391,-591.7 306,-591.7"/>
<text text-anchor="start" x="309" y="-597.8" font-family="Helvetica,sans-Serif" font-size="11.00" fill="#000000">&lt; 4</text>
<polygon fill="#ffffff" stroke="transparent" points="391,-591.7 391,-610.7 435,-610.7 435,-591.7 391,-591.7"/>
<polygon fill="none" stroke="#000000" points="391,-591.7 391,-610.7 435,-610.7 435,-591.7 391,-591.7"/>
<text text-anchor="start" x="425.8862" y="-597.8" font-family="Helvetica,sans-Serif" font-size="11.00" fill="#000000"> &#160;</text>
<polygon fill="#ffffff" stroke="transparent" points="435,-591.7 435,-610.7 480,-610.7 480,-591.7 435,-591.7"/>
<polygon fill="none" stroke="#000000" points="435,-591.7 435,-610.7 480,-610.7 480,-591.7 435,-591.7"/>
<text text-anchor="start" x="470.8862" y="-597.8" font-family="Helvetica,sans-Serif" font-size="11.00" fill="#000000"> &#160;</text>
</a>
</g>
</g>
<!-- reference_data -->
<g id="node2" class="node">
<title>reference_data</title>
<g id="a_node2"><a xlink:href="../../tables/reference_data.html" xlink:title="reference_data" target="_top">
<polygon fill="#ffffff" stroke="transparent" points="22.5,-311.7 22.5,-467.7 236.5,-467.7 236.5,-311.7 22.5,-311.7"/>
<polygon fill="#f5f5f5" stroke="transparent" points="24.5,-442.7 24.5,-465.7 234.5,-465.7 234.5,-442.7 24.5,-442.7"/>
<polygon fill="none" stroke="#000000" points="24.5,-442.7 24.5,-465.7 234.5,-465.7 234.5,-442.7 24.5,-442.7"/>
<text text-anchor="start" x="29.5" y="-451.3" font-family="Helvetica,sans-Serif" font-weight="bold" font-size="11.00" fill="#000000">reference_data</text>
<text text-anchor="start" x="199.5437" y="-450.8" font-family="Helvetica,sans-Serif" font-size="11.00" fill="#000000">[table]</text>
<polygon fill="none" stroke="#000000" points="24.5,-420.7 24.5,-442.7 167.5,-442.7 167.5,-420.7 24.5,-420.7"/>
<image xlink:href="../../images/primaryKeys.png" width="11px" height="12px" preserveAspectRatio="xMinYMin meet" x="29.5" y="-437.7"/>
<text text-anchor="start" x="44.5" y="-427.8" font-family="Helvetica,sans-Serif" font-size="11.00" fill="#000000">id</text>
<polygon fill="none" stroke="#000000" points="167.5,-420.7 167.5,-442.7 234.5,-442.7 234.5,-420.7 167.5,-420.7"/>
<text text-anchor="start" x="170.5" y="-428.4" font-family="Helvetica,sans-Serif" font-size="11.00" fill="#000000">bigserial[19]</text>
<polygon fill="#ffffff" stroke="transparent" points="24.5,-398.7 24.5,-420.7 167.5,-420.7 167.5,-398.7 24.5,-398.7"/>
<polygon fill="none" stroke="#000000" points="24.5,-398.7 24.5,-420.7 167.5,-420.7 167.5,-398.7 24.5,-398.7"/>
<text text-anchor="start" x="44.5" y="-405.8" font-family="Helvetica,sans-Serif" font-size="11.00" fill="#000000">domain</text>
<polygon fill="none" stroke="#000000" points="167.5,-398.7 167.5,-420.7 234.5,-420.7 234.5,-398.7 167.5,-398.7"/>
<text text-anchor="start" x="170.5" y="-406.4" font-family="Helvetica,sans-Serif" font-size="11.00" fill="#000000">varchar[32]</text>
<polygon fill="#ffffff" stroke="transparent" points="24.5,-376.7 24.5,-398.7 167.5,-398.7 167.5,-376.7 24.5,-376.7"/>
<polygon fill="none" stroke="#000000" points="24.5,-376.7 24.5,-398.7 167.5,-398.7 167.5,-376.7 24.5,-376.7"/>
<text text-anchor="start" x="44.5" y="-383.8" font-family="Helvetica,sans-Serif" font-size="11.00" fill="#000000">code</text>
<polygon fill="none" stroke="#000000" points="167.5,-376.7 167.5,-398.7 234.5,-398.7 234.5,-376.7 167.5,-376.7"/>
<text text-anchor="start" x="170.5" y="-384.4" font-family="Helvetica,sans-Serif" font-size="11.00" fill="#000000">varchar[32]</text>
<polygon fill="none" stroke="#000000" points="24.5,-354.7 24.5,-376.7 167.5,-376.7 167.5,-354.7 24.5,-354.7"/>
<text text-anchor="start" x="44.5" y="-361.8" font-family="Helvetica,sans-Serif" font-size="11.00" fill="#000000">description</text>
<polygon fill="none" stroke="#000000" points="167.5,-354.7 167.5,-376.7 234.5,-376.7 234.5,-354.7 167.5,-354.7"/>
<text text-anchor="start" x="170.4365" y="-362.4" font-family="Helvetica,sans-Serif" font-size="11.00" fill="#000000">varchar[128]</text>
<polygon fill="#ffffff" stroke="transparent" points="24.5,-332.7 24.5,-354.7 167.5,-354.7 167.5,-332.7 24.5,-332.7"/>
<polygon fill="none" stroke="#000000" points="24.5,-332.7 24.5,-354.7 167.5,-354.7 167.5,-332.7 24.5,-332.7"/>
<text text-anchor="start" x="44.5" y="-339.8" font-family="Helvetica,sans-Serif" font-size="11.00" fill="#000000">sequence_number</text>
<polygon fill="none" stroke="#000000" points="167.5,-332.7 167.5,-354.7 234.5,-354.7 234.5,-332.7 167.5,-332.7"/>
<text text-anchor="start" x="170.5" y="-340.4" font-family="Helvetica,sans-Serif" font-size="11.00" fill="#000000">int4[10]</text>
<polygon fill="#ffffff" stroke="transparent" points="24.5,-313.7 24.5,-332.7 84.5,-332.7 84.5,-313.7 24.5,-313.7"/>
<polygon fill="none" stroke="#000000" points="24.5,-313.7 24.5,-332.7 84.5,-332.7 84.5,-313.7 24.5,-313.7"/>
<text text-anchor="start" x="27.5" y="-319.8" font-family="Helvetica,sans-Serif" font-size="11.00" fill="#000000">&lt; 0</text>
<polygon fill="#ffffff" stroke="transparent" points="84.5,-313.7 84.5,-332.7 167.5,-332.7 167.5,-313.7 84.5,-313.7"/>
<polygon fill="none" stroke="#000000" points="84.5,-313.7 84.5,-332.7 167.5,-332.7 167.5,-313.7 84.5,-313.7"/>
<text text-anchor="start" x="125.9956" y="-319.8" font-family="Helvetica,sans-Serif" font-size="11.00" fill="#000000">60 rows</text>
<polygon fill="#ffffff" stroke="transparent" points="167.5,-313.7 167.5,-332.7 234.5,-332.7 234.5,-313.7 167.5,-313.7"/>
<polygon fill="none" stroke="#000000" points="167.5,-313.7 167.5,-332.7 234.5,-332.7 234.5,-313.7 167.5,-313.7"/>
<text text-anchor="start" x="215.9053" y="-319.8" font-family="Helvetica,sans-Serif" font-size="11.00" fill="#000000">5 &gt;</text>
<polygon fill="none" stroke="#000000" stroke-width="2" points="23.5,-312.7 23.5,-466.7 235.5,-466.7 235.5,-312.7 23.5,-312.7"/>
</a>
</g>
</g>
<!-- allocation&#45;&gt;reference_data -->
<g id="edge1" class="edge">
<title>allocation:w&#45;&gt;reference_data:e</title>
<path fill="none" stroke="#000000" d="M292.4466,-701.2068C251.2276,-662.4483 292.3399,-431.7 234.5,-431.7"/>
<polygon fill="#000000" stroke="#000000" points="298.5858,-703.695 304.6477,-710.0364 302.2929,-705.1975 306,-706.7 306,-706.7 306,-706.7 302.2929,-705.1975 307.3523,-703.3636 298.5858,-703.695 298.5858,-703.695"/>
<ellipse fill="none" stroke="#000000" cx="295.6201" cy="-702.493" rx="3.2" ry="3.2"/>
</g>
<!-- allocation&#45;&gt;reference_data -->
<g id="edge2" class="edge">
<title>allocation:w&#45;&gt;reference_data:e</title>
<path fill="none" stroke="#000000" d="M291.5027,-660.9734C212.4493,-639.8348 336.5146,-431.7 234.5,-431.7"/>
<polygon fill="#000000" stroke="#000000" points="298.0561,-661.7539 305.5742,-666.2747 302.0281,-662.2269 306,-662.7 306,-662.7 306,-662.7 302.0281,-662.2269 306.4258,-659.1253 298.0561,-661.7539 298.0561,-661.7539"/>
<ellipse fill="none" stroke="#000000" cx="294.8786" cy="-661.3754" rx="3.2" ry="3.2"/>
</g>
<!-- policy -->
<g id="node3" class="node">
<title>policy</title>
<g id="a_node3"><a xlink:href="../../tables/policy.html" xlink:title="policy" target="_top">
<polygon fill="#ffffff" stroke="transparent" points="90.5,-229.2 90.5,-290.2 168.5,-290.2 168.5,-229.2 90.5,-229.2"/>
<polygon fill="#f5f5f5" stroke="transparent" points="90.5,-266.7 90.5,-289.7 168.5,-289.7 168.5,-266.7 90.5,-266.7"/>
<polygon fill="none" stroke="#000000" points="90.5,-266.7 90.5,-289.7 168.5,-289.7 168.5,-266.7 90.5,-266.7"/>
<text text-anchor="start" x="95.5" y="-275.3" font-family="Helvetica,sans-Serif" font-weight="bold" font-size="11.00" fill="#000000">policy</text>
<text text-anchor="start" x="134.0219" y="-274.8" font-family="Helvetica,sans-Serif" font-size="11.00" fill="#000000">[table]</text>
<polygon fill="none" stroke="#000000" points="90.5,-247.7 90.5,-266.7 168.5,-266.7 168.5,-247.7 90.5,-247.7"/>
<text text-anchor="start" x="93.5" y="-253.8" font-family="Helvetica,sans-Serif" font-size="11.00" fill="#000000">...</text>
<polygon fill="#ffffff" stroke="transparent" points="90.5,-228.7 90.5,-247.7 118.5,-247.7 118.5,-228.7 90.5,-228.7"/>
<polygon fill="none" stroke="#000000" points="90.5,-228.7 90.5,-247.7 118.5,-247.7 118.5,-228.7 90.5,-228.7"/>
<text text-anchor="start" x="93.5" y="-234.8" font-family="Helvetica,sans-Serif" font-size="11.00" fill="#000000"> &#160;</text>
<polygon fill="#ffffff" stroke="transparent" points="118.5,-228.7 118.5,-247.7 138.5,-247.7 138.5,-228.7 118.5,-228.7"/>
<polygon fill="none" stroke="#000000" points="118.5,-228.7 118.5,-247.7 138.5,-247.7 138.5,-228.7 118.5,-228.7"/>
<text text-anchor="start" x="129.3862" y="-234.8" font-family="Helvetica,sans-Serif" font-size="11.00" fill="#000000"> &#160;</text>
<polygon fill="#ffffff" stroke="transparent" points="138.5,-228.7 138.5,-247.7 168.5,-247.7 168.5,-228.7 138.5,-228.7"/>
<polygon fill="none" stroke="#000000" points="138.5,-228.7 138.5,-247.7 168.5,-247.7 168.5,-228.7 138.5,-228.7"/>
<text text-anchor="start" x="149.9053" y="-234.8" font-family="Helvetica,sans-Serif" font-size="11.00" fill="#000000">7 &gt;</text>
</a>
</g>
</g>
<!-- allocation&#45;&gt;policy -->
<g id="edge3" class="edge">
<title>allocation:w&#45;&gt;policy:e</title>
<path fill="none" stroke="#000000" d="M292.0733,-636.7653C239.6114,-602.8349 299.6986,-359.5188 259,-301.7 233.1439,-264.9673 213.4202,-256.7 168.5,-256.7"/>
<polygon fill="#000000" stroke="#000000" points="298.3014,-638.5249 305.0212,-644.1644 302.1507,-639.6124 306,-640.7 306,-640.7 306,-640.7 302.1507,-639.6124 306.9788,-637.2356 298.3014,-638.5249 298.3014,-638.5249"/>
<ellipse fill="none" stroke="#000000" cx="295.2219" cy="-637.6548" rx="3.2" ry="3.2"/>
</g>
<!-- prison_migration_date_history -->
<g id="node4" class="node">
<title>prison_migration_date_history</title>
<g id="a_node4"><a xlink:href="../../tables/prison_migration_date_history.html" xlink:title="prison_migration_date_history" target="_top">
<polygon fill="#ffffff" stroke="transparent" points="8,-628.2 8,-689.2 251,-689.2 251,-628.2 8,-628.2"/>
<polygon fill="#f5f5f5" stroke="transparent" points="8.5,-665.7 8.5,-688.7 251.5,-688.7 251.5,-665.7 8.5,-665.7"/>
<polygon fill="none" stroke="#000000" points="8.5,-665.7 8.5,-688.7 251.5,-688.7 251.5,-665.7 8.5,-665.7"/>
<text text-anchor="start" x="13.5" y="-674.3" font-family="Helvetica,sans-Serif" font-weight="bold" font-size="11.00" fill="#000000">prison_migration_date_history</text>
<text text-anchor="start" x="217.0219" y="-673.8" font-family="Helvetica,sans-Serif" font-size="11.00" fill="#000000">[table]</text>
<polygon fill="none" stroke="#000000" points="8.5,-646.7 8.5,-665.7 251.5,-665.7 251.5,-646.7 8.5,-646.7"/>
<text text-anchor="start" x="11.5" y="-652.8" font-family="Helvetica,sans-Serif" font-size="11.00" fill="#000000">...</text>
<polygon fill="#ffffff" stroke="transparent" points="8.5,-627.7 8.5,-646.7 119.5,-646.7 119.5,-627.7 8.5,-627.7"/>
<polygon fill="none" stroke="#000000" points="8.5,-627.7 8.5,-646.7 119.5,-646.7 119.5,-627.7 8.5,-627.7"/>
<text text-anchor="start" x="11.5" y="-633.8" font-family="Helvetica,sans-Serif" font-size="11.00" fill="#000000"> &#160;</text>
<polygon fill="#ffffff" stroke="transparent" points="119.5,-627.7 119.5,-646.7 180.5,-646.7 180.5,-627.7 119.5,-627.7"/>
<polygon fill="none" stroke="#000000" points="119.5,-627.7 119.5,-646.7 180.5,-646.7 180.5,-627.7 119.5,-627.7"/>
<text text-anchor="start" x="171.3862" y="-633.8" font-family="Helvetica,sans-Serif" font-size="11.00" fill="#000000"> &#160;</text>
<polygon fill="#ffffff" stroke="transparent" points="180.5,-627.7 180.5,-646.7 251.5,-646.7 251.5,-627.7 180.5,-627.7"/>
<polygon fill="none" stroke="#000000" points="180.5,-627.7 180.5,-646.7 251.5,-646.7 251.5,-627.7 180.5,-627.7"/>
<text text-anchor="start" x="232.9053" y="-633.8" font-family="Helvetica,sans-Serif" font-size="11.00" fill="#000000">9 &gt;</text>
</a>
</g>
</g>
<!-- allocation&#45;&gt;prison_migration_date_history -->
<g id="edge4" class="edge">
<title>allocation:w&#45;&gt;prison_migration_date_history:e</title>
<path fill="none" stroke="#000000" stroke-dasharray="5,2" d="M291.6576,-791.6675C252.275,-771.3401 312.0246,-655.7 251.5,-655.7"/>
<polygon fill="#000000" stroke="#000000" points="298.173,-793.0451 305.2553,-798.2221 302.0865,-793.8725 306,-794.7 306,-794.7 306,-794.7 302.0865,-793.8725 306.7447,-791.1779 298.173,-793.0451 298.173,-793.0451"/>
<ellipse fill="none" stroke="#000000" cx="295.0423" cy="-792.3831" rx="3.2" ry="3.2"/>
</g>
<!-- recorded_event -->
<g id="node5" class="node">
<title>recorded_event</title>
<g id="a_node5"><a xlink:href="../../tables/recorded_event.html" xlink:title="recorded_event" target="_top">
<polygon fill="#ffffff" stroke="transparent" points="321,-334.2 321,-571.2 465,-571.2 465,-334.2 321,-334.2"/>
<polygon fill="#f5f5f5" stroke="transparent" points="321,-547.7 321,-570.7 465,-570.7 465,-547.7 321,-547.7"/>
<polygon fill="none" stroke="#000000" points="321,-547.7 321,-570.7 465,-570.7 465,-547.7 321,-547.7"/>
<text text-anchor="start" x="326" y="-556.3" font-family="Helvetica,sans-Serif" font-weight="bold" font-size="11.00" fill="#000000">recorded_event</text>
<text text-anchor="start" x="430.5219" y="-555.8" font-family="Helvetica,sans-Serif" font-size="11.00" fill="#000000">[table]</text>
<polygon fill="none" stroke="#000000" points="321,-525.7 321,-547.7 465,-547.7 465,-525.7 321,-525.7"/>
<image xlink:href="../../images/primaryKeys.png" width="11px" height="12px" preserveAspectRatio="xMinYMin meet" x="326" y="-542.7"/>
<text text-anchor="start" x="345" y="-532.8" font-family="Helvetica,sans-Serif" font-size="11.00" fill="#000000">id</text>
<polygon fill="#ffffff" stroke="transparent" points="321,-503.7 321,-525.7 465,-525.7 465,-503.7 321,-503.7"/>
<polygon fill="none" stroke="#000000" points="321,-503.7 321,-525.7 465,-525.7 465,-503.7 321,-503.7"/>
<image xlink:href="../../images/foreignKeys.png" width="11px" height="12px" preserveAspectRatio="xMinYMin meet" x="326" y="-520.7"/>
<text text-anchor="start" x="345" y="-510.8" font-family="Helvetica,sans-Serif" font-size="11.00" fill="#000000">prison_code</text>
<polygon fill="#ffffff" stroke="transparent" points="321,-481.7 321,-503.7 465,-503.7 465,-481.7 321,-481.7"/>
<polygon fill="none" stroke="#000000" points="321,-481.7 321,-503.7 465,-503.7 465,-481.7 321,-481.7"/>
<text text-anchor="start" x="345" y="-488.8" font-family="Helvetica,sans-Serif" font-size="11.00" fill="#000000">person_identifier</text>
<polygon fill="#ffffff" stroke="transparent" points="321,-459.7 321,-481.7 465,-481.7 465,-459.7 321,-459.7"/>
<polygon fill="none" stroke="#000000" points="321,-459.7 321,-481.7 465,-481.7 465,-459.7 321,-459.7"/>
<text text-anchor="start" x="345" y="-466.8" font-family="Helvetica,sans-Serif" font-size="11.00" fill="#000000">staff_id</text>
<polygon fill="#ffffff" stroke="transparent" points="321,-437.7 321,-459.7 465,-459.7 465,-437.7 321,-437.7"/>
<polygon fill="none" stroke="#000000" points="321,-437.7 321,-459.7 465,-459.7 465,-437.7 321,-437.7"/>
<text text-anchor="start" x="345" y="-444.8" font-family="Helvetica,sans-Serif" font-size="11.00" fill="#000000">occurred_at</text>
<polygon fill="#ffffff" stroke="transparent" points="321,-415.7 321,-437.7 465,-437.7 465,-415.7 321,-415.7"/>
<polygon fill="none" stroke="#000000" points="321,-415.7 321,-437.7 465,-437.7 465,-415.7 321,-415.7"/>
<text text-anchor="start" x="345" y="-422.8" font-family="Helvetica,sans-Serif" font-size="11.00" fill="#000000">created_at</text>
<polygon fill="#ffffff" stroke="transparent" points="321,-393.7 321,-415.7 465,-415.7 465,-393.7 321,-393.7"/>
<polygon fill="none" stroke="#000000" points="321,-393.7 321,-415.7 465,-415.7 465,-393.7 321,-393.7"/>
<image xlink:href="../../images/foreignKeys.png" width="11px" height="12px" preserveAspectRatio="xMinYMin meet" x="326" y="-410.7"/>
<text text-anchor="start" x="345" y="-400.8" font-family="Helvetica,sans-Serif" font-size="11.00" fill="#000000">policy_code</text>
<polygon fill="#ffffff" stroke="transparent" points="321,-371.7 321,-393.7 465,-393.7 465,-371.7 321,-371.7"/>
<polygon fill="none" stroke="#000000" points="321,-371.7 321,-393.7 465,-393.7 465,-371.7 321,-371.7"/>
<image xlink:href="../../images/foreignKeys.png" width="11px" height="12px" preserveAspectRatio="xMinYMin meet" x="326" y="-388.7"/>
<text text-anchor="start" x="345" y="-378.8" font-family="Helvetica,sans-Serif" font-size="11.00" fill="#000000">type_id</text>
<polygon fill="none" stroke="#000000" points="321,-352.7 321,-371.7 465,-371.7 465,-352.7 321,-352.7"/>
<text text-anchor="start" x="324" y="-358.8" font-family="Helvetica,sans-Serif" font-size="11.00" fill="#000000">...</text>
<polygon fill="#ffffff" stroke="transparent" points="321,-333.7 321,-352.7 391,-352.7 391,-333.7 321,-333.7"/>
<polygon fill="none" stroke="#000000" points="321,-333.7 321,-352.7 391,-352.7 391,-333.7 321,-333.7"/>
<text text-anchor="start" x="324" y="-339.8" font-family="Helvetica,sans-Serif" font-size="11.00" fill="#000000">&lt; 3</text>
<polygon fill="#ffffff" stroke="transparent" points="391,-333.7 391,-352.7 428,-352.7 428,-333.7 391,-333.7"/>
<polygon fill="none" stroke="#000000" points="391,-333.7 391,-352.7 428,-352.7 428,-333.7 391,-333.7"/>
<text text-anchor="start" x="418.8862" y="-339.8" font-family="Helvetica,sans-Serif" font-size="11.00" fill="#000000"> &#160;</text>
<polygon fill="#ffffff" stroke="transparent" points="428,-333.7 428,-352.7 465,-352.7 465,-333.7 428,-333.7"/>
<polygon fill="none" stroke="#000000" points="428,-333.7 428,-352.7 465,-352.7 465,-333.7 428,-333.7"/>
<text text-anchor="start" x="455.8862" y="-339.8" font-family="Helvetica,sans-Serif" font-size="11.00" fill="#000000"> &#160;</text>
</a>
</g>
</g>
<!-- recorded_event&#45;&gt;reference_data -->
<g id="edge7" class="edge">
<title>recorded_event:w&#45;&gt;reference_data:e</title>
<path fill="none" stroke="#000000" d="M306.4097,-384.8055C276.5633,-394.1844 273.1612,-431.7 234.5,-431.7"/>
<polygon fill="#000000" stroke="#000000" points="313.082,-383.8427 321.5142,-386.2631 317.041,-383.2713 321,-382.7 321,-382.7 321,-382.7 317.041,-383.2713 320.4858,-379.1369 313.082,-383.8427 313.082,-383.8427"/>
<ellipse fill="none" stroke="#000000" cx="309.9148" cy="-384.2997" rx="3.2" ry="3.2"/>
</g>
<!-- recorded_event&#45;&gt;policy -->
<g id="edge5" class="edge">
<title>recorded_event:w&#45;&gt;policy:e</title>
<path fill="none" stroke="#000000" d="M306.7208,-402.5861C273.2663,-390.9559 294.1281,-334.1111 259,-301.7 225.9856,-271.239 213.4202,-256.7 168.5,-256.7"/>
<polygon fill="#000000" stroke="#000000" points="313.0863,-403.5284 320.4728,-408.2612 317.0431,-404.1142 321,-404.7 321,-404.7 321,-404.7 317.0431,-404.1142 321.5272,-401.1388 313.0863,-403.5284 313.0863,-403.5284"/>
<ellipse fill="none" stroke="#000000" cx="309.9208" cy="-403.0597" rx="3.2" ry="3.2"/>
</g>
<!-- recorded_event&#45;&gt;prison_migration_date_history -->
<g id="edge6" class="edge">
<title>recorded_event:w&#45;&gt;prison_migration_date_history:e</title>
<path fill="none" stroke="#000000" stroke-dasharray="5,2" d="M306.7671,-517.2677C261.4838,-536.3779 315.7711,-655.7 251.5,-655.7"/>
<polygon fill="#000000" stroke="#000000" points="313.1271,-516.1204 321.6392,-518.2428 317.0635,-515.4102 321,-514.7 321,-514.7 321,-514.7 317.0635,-515.4102 320.3608,-511.1572 313.1271,-516.1204 313.1271,-516.1204"/>
<ellipse fill="none" stroke="#000000" cx="309.9779" cy="-516.6885" rx="3.2" ry="3.2"/>
</g>
<!-- reference_data_policy -->
<g id="node6" class="node">
<title>reference_data_policy</title>
<g id="a_node6"><a xlink:href="../../tables/reference_data_policy.html" xlink:title="reference_data_policy" target="_top">
<polygon fill="#ffffff" stroke="transparent" points="300,-208.2 300,-313.2 486,-313.2 486,-208.2 300,-208.2"/>
<polygon fill="#f5f5f5" stroke="transparent" points="300,-289.7 300,-312.7 486,-312.7 486,-289.7 300,-289.7"/>
<polygon fill="none" stroke="#000000" points="300,-289.7 300,-312.7 486,-312.7 486,-289.7 300,-289.7"/>
<text text-anchor="start" x="305" y="-298.3" font-family="Helvetica,sans-Serif" font-weight="bold" font-size="11.00" fill="#000000">reference_data_policy</text>
<text text-anchor="start" x="451.5219" y="-297.8" font-family="Helvetica,sans-Serif" font-size="11.00" fill="#000000">[table]</text>
<polygon fill="#ffffff" stroke="transparent" points="300,-267.7 300,-289.7 486,-289.7 486,-267.7 300,-267.7"/>
<polygon fill="none" stroke="#000000" points="300,-267.7 300,-289.7 486,-289.7 486,-267.7 300,-267.7"/>
<image xlink:href="../../images/foreignKeys.png" width="11px" height="12px" preserveAspectRatio="xMinYMin meet" x="305" y="-284.7"/>
<text text-anchor="start" x="329" y="-274.8" font-family="Helvetica,sans-Serif" font-size="11.00" fill="#000000">id</text>
<polygon fill="#ffffff" stroke="transparent" points="300,-245.7 300,-267.7 486,-267.7 486,-245.7 300,-245.7"/>
<polygon fill="none" stroke="#000000" points="300,-245.7 300,-267.7 486,-267.7 486,-245.7 300,-245.7"/>
<image xlink:href="../../images/foreignKeys.png" width="11px" height="12px" preserveAspectRatio="xMinYMin meet" x="305" y="-262.7"/>
<text text-anchor="start" x="329" y="-252.8" font-family="Helvetica,sans-Serif" font-size="11.00" fill="#000000">policy_code</text>
<polygon fill="none" stroke="#000000" points="300,-226.7 300,-245.7 486,-245.7 486,-226.7 300,-226.7"/>
<text text-anchor="start" x="303" y="-232.8" font-family="Helvetica,sans-Serif" font-size="11.00" fill="#000000">...</text>
<polygon fill="#ffffff" stroke="transparent" points="300,-207.7 300,-226.7 375,-226.7 375,-207.7 300,-207.7"/>
<polygon fill="none" stroke="#000000" points="300,-207.7 300,-226.7 375,-226.7 375,-207.7 300,-207.7"/>
<text text-anchor="start" x="303" y="-213.8" font-family="Helvetica,sans-Serif" font-size="11.00" fill="#000000">&lt; 2</text>
<polygon fill="#ffffff" stroke="transparent" points="375,-207.7 375,-226.7 446,-226.7 446,-207.7 375,-207.7"/>
<polygon fill="none" stroke="#000000" points="375,-207.7 375,-226.7 446,-226.7 446,-207.7 375,-207.7"/>
<text text-anchor="start" x="404.4956" y="-213.8" font-family="Helvetica,sans-Serif" font-size="11.00" fill="#000000">84 rows</text>
<polygon fill="#ffffff" stroke="transparent" points="446,-207.7 446,-226.7 486,-226.7 486,-207.7 446,-207.7"/>
<polygon fill="none" stroke="#000000" points="446,-207.7 446,-226.7 486,-226.7 486,-207.7 446,-207.7"/>
<text text-anchor="start" x="476.8862" y="-213.8" font-family="Helvetica,sans-Serif" font-size="11.00" fill="#000000"> &#160;</text>
</a>
</g>
</g>
<!-- reference_data_policy&#45;&gt;reference_data -->
<g id="edge8" class="edge">
<title>reference_data_policy:w&#45;&gt;reference_data:e</title>
<path fill="none" stroke="#000000" d="M285.6811,-281.2279C237.6822,-301.1209 302.8349,-431.7 234.5,-431.7"/>
<polygon fill="#000000" stroke="#000000" points="292.1218,-280.0909 300.6259,-282.2452 296.0609,-279.3955 300,-278.7 300,-278.7 300,-278.7 296.0609,-279.3955 299.3741,-275.1548 292.1218,-280.0909 292.1218,-280.0909"/>
<ellipse fill="none" stroke="#000000" cx="288.9706" cy="-280.6473" rx="3.2" ry="3.2"/>
</g>
<!-- reference_data_policy&#45;&gt;policy -->
<g id="edge9" class="edge">
<title>reference_data_policy:w&#45;&gt;policy:e</title>
<path fill="none" stroke="#000000" d="M285.5461,-256.7C238.6486,-256.7 221.8077,-256.7 168.5,-256.7"/>
<polygon fill="#000000" stroke="#000000" points="292,-256.7001 300,-260.3 296,-256.7 300,-256.7 300,-256.7 300,-256.7 296,-256.7 300,-253.1 292,-256.7001 292,-256.7001"/>
<ellipse fill="none" stroke="#000000" cx="288.8" cy="-256.7001" rx="3.2" ry="3.2"/>
</g>
<!-- staff_configuration -->
<g id="node7" class="node">
<title>staff_configuration</title>
<g id="a_node7"><a xlink:href="../../tables/staff_configuration.html" xlink:title="staff_configuration" target="_top">
<polygon fill="#ffffff" stroke="transparent" points="309.5,-38.2 309.5,-187.2 476.5,-187.2 476.5,-38.2 309.5,-38.2"/>
<polygon fill="#f5f5f5" stroke="transparent" points="310,-163.7 310,-186.7 477,-186.7 477,-163.7 310,-163.7"/>
<polygon fill="none" stroke="#000000" points="310,-163.7 310,-186.7 477,-186.7 477,-163.7 310,-163.7"/>
<text text-anchor="start" x="315" y="-172.3" font-family="Helvetica,sans-Serif" font-weight="bold" font-size="11.00" fill="#000000">staff_configuration</text>
<text text-anchor="start" x="442.5219" y="-171.8" font-family="Helvetica,sans-Serif" font-size="11.00" fill="#000000">[table]</text>
<polygon fill="#ffffff" stroke="transparent" points="310,-141.7 310,-163.7 477,-163.7 477,-141.7 310,-141.7"/>
<polygon fill="none" stroke="#000000" points="310,-141.7 310,-163.7 477,-163.7 477,-141.7 310,-141.7"/>
<text text-anchor="start" x="339" y="-148.8" font-family="Helvetica,sans-Serif" font-size="11.00" fill="#000000">staff_id</text>
<polygon fill="none" stroke="#000000" points="310,-119.7 310,-141.7 477,-141.7 477,-119.7 310,-119.7"/>
<image xlink:href="../../images/foreignKeys.png" width="11px" height="12px" preserveAspectRatio="xMinYMin meet" x="315" y="-136.7"/>
<text text-anchor="start" x="339" y="-126.8" font-family="Helvetica,sans-Serif" font-size="11.00" fill="#000000">status_id</text>
<polygon fill="#ffffff" stroke="transparent" points="310,-97.7 310,-119.7 477,-119.7 477,-97.7 310,-97.7"/>
<polygon fill="none" stroke="#000000" points="310,-97.7 310,-119.7 477,-119.7 477,-97.7 310,-97.7"/>
<image xlink:href="../../images/foreignKeys.png" width="11px" height="12px" preserveAspectRatio="xMinYMin meet" x="315" y="-114.7"/>
<text text-anchor="start" x="339" y="-104.8" font-family="Helvetica,sans-Serif" font-size="11.00" fill="#000000">policy_code</text>
<polygon fill="none" stroke="#000000" points="310,-75.7 310,-97.7 477,-97.7 477,-75.7 310,-75.7"/>
<image xlink:href="../../images/primaryKeys.png" width="11px" height="12px" preserveAspectRatio="xMinYMin meet" x="315" y="-92.7"/>
<text text-anchor="start" x="339" y="-82.8" font-family="Helvetica,sans-Serif" font-size="11.00" fill="#000000">id</text>
<polygon fill="none" stroke="#000000" points="310,-56.7 310,-75.7 477,-75.7 477,-56.7 310,-56.7"/>
<text text-anchor="start" x="313" y="-62.8" font-family="Helvetica,sans-Serif" font-size="11.00" fill="#000000">...</text>
<polygon fill="#ffffff" stroke="transparent" points="310,-37.7 310,-56.7 392,-56.7 392,-37.7 310,-37.7"/>
<polygon fill="none" stroke="#000000" points="310,-37.7 310,-56.7 392,-56.7 392,-37.7 310,-37.7"/>
<text text-anchor="start" x="313" y="-43.8" font-family="Helvetica,sans-Serif" font-size="11.00" fill="#000000">&lt; 2</text>
<polygon fill="#ffffff" stroke="transparent" points="392,-37.7 392,-56.7 434,-56.7 434,-37.7 392,-37.7"/>
<polygon fill="none" stroke="#000000" points="392,-37.7 392,-56.7 434,-56.7 434,-37.7 392,-37.7"/>
<text text-anchor="start" x="424.8862" y="-43.8" font-family="Helvetica,sans-Serif" font-size="11.00" fill="#000000"> &#160;</text>
<polygon fill="#ffffff" stroke="transparent" points="434,-37.7 434,-56.7 477,-56.7 477,-37.7 434,-37.7"/>
<polygon fill="none" stroke="#000000" points="434,-37.7 434,-56.7 477,-56.7 477,-37.7 434,-37.7"/>
<text text-anchor="start" x="467.8862" y="-43.8" font-family="Helvetica,sans-Serif" font-size="11.00" fill="#000000"> &#160;</text>
</a>
</g>
</g>
<!-- staff_configuration&#45;&gt;reference_data -->
<g id="edge11" class="edge">
<title>staff_configuration:w&#45;&gt;reference_data:e</title>
<path fill="none" stroke="#000000" d="M296.4121,-135.6733C249.7863,-174.809 298.2081,-431.7 234.5,-431.7"/>
<polygon fill="#000000" stroke="#000000" points="302.4874,-133.4497 311.2374,-134.0807 306.2437,-132.0749 310,-130.7 310,-130.7 310,-130.7 306.2437,-132.0749 308.7626,-127.3193 302.4874,-133.4497 302.4874,-133.4497"/>
<ellipse fill="none" stroke="#000000" cx="299.4823" cy="-134.5496" rx="3.2" ry="3.2"/>
</g>
<!-- staff_configuration&#45;&gt;policy -->
<g id="edge10" class="edge">
<title>staff_configuration:w&#45;&gt;policy:e</title>
<path fill="none" stroke="#000000" d="M295.3048,-110.1648C223.2915,-125.5356 254.1717,-256.7 168.5,-256.7"/>
<polygon fill="#000000" stroke="#000000" points="302.0395,-109.4936 310.3571,-112.2822 306.0197,-109.0968 310,-108.7 310,-108.7 310,-108.7 306.0197,-109.0968 309.6429,-105.1178 302.0395,-109.4936 302.0395,-109.4936"/>
<ellipse fill="none" stroke="#000000" cx="298.8552" cy="-109.811" rx="3.2" ry="3.2"/>
</g>
</g>
</svg>
