<?xml version="1.0" encoding="UTF-8" standalone="no"?>
<!DOCTYPE svg PUBLIC "-//W3C//DTD SVG 1.1//EN"
 "http://www.w3.org/Graphics/SVG/1.1/DTD/svg11.dtd">
<!-- Generated by graphviz version 2.40.1 (20161225.0304)
 -->
<!-- Title: twoDegreesRelationshipsDiagramImplied Pages: 1 -->
<svg width="467pt" height="391pt"
 viewBox="0.00 0.00 467.00 391.20" xmlns="http://www.w3.org/2000/svg" xmlns:xlink="http://www.w3.org/1999/xlink">
<g id="graph0" class="graph" transform="scale(1 1) rotate(0) translate(4 387.2)">
<title>twoDegreesRelationshipsDiagramImplied</title>
<polygon fill="#ffffff" stroke="transparent" points="-4,4 -4,-387.2 463,-387.2 463,4 -4,4"/>
<text text-anchor="middle" x="72.4936" y="-7.3" font-family="Helvetica,sans-Serif" font-size="11.00" fill="#000000">Generated by SchemaSpy</text>
<!-- key_worker -->
<g id="node1" class="node">
<title>key_worker</title>
<g id="a_node1"><a xlink:href="../../tables/key_worker.html" xlink:title="key_worker" target="_top">
<polygon fill="#ffffff" stroke="transparent" points="283,-38.2 283,-143.2 439,-143.2 439,-38.2 283,-38.2"/>
<polygon fill="#f5f5f5" stroke="transparent" points="283,-119.7 283,-142.7 439,-142.7 439,-119.7 283,-119.7"/>
<polygon fill="none" stroke="#000000" points="283,-119.7 283,-142.7 439,-142.7 439,-119.7 283,-119.7"/>
<text text-anchor="start" x="288" y="-128.3" font-family="Helvetica,sans-Serif" font-weight="bold" font-size="11.00" fill="#000000">key_worker</text>
<text text-anchor="start" x="404.0437" y="-127.8" font-family="Helvetica,sans-Serif" font-size="11.00" fill="#000000">[table]</text>
<polygon fill="none" stroke="#000000" points="283,-97.7 283,-119.7 439,-119.7 439,-97.7 283,-97.7"/>
<image xlink:href="../../images/primaryKeys.png" width="11px" height="12px" preserveAspectRatio="xMinYMin meet" x="288" y="-114.7"/>
<text text-anchor="start" x="303" y="-104.8" font-family="Helvetica,sans-Serif" font-size="11.00" fill="#000000">staff_id</text>
<polygon fill="none" stroke="#000000" points="283,-75.7 283,-97.7 439,-97.7 439,-75.7 283,-75.7"/>
<image xlink:href="../../images/foreignKeys.png" width="11px" height="12px" preserveAspectRatio="xMinYMin meet" x="288" y="-92.7"/>
<text text-anchor="start" x="303" y="-82.8" font-family="Helvetica,sans-Serif" font-size="11.00" fill="#000000">status_id</text>
<polygon fill="none" stroke="#000000" points="283,-56.7 283,-75.7 439,-75.7 439,-56.7 283,-56.7"/>
<text text-anchor="start" x="286" y="-62.8" font-family="Helvetica,sans-Serif" font-size="11.00" fill="#000000">...</text>
<polygon fill="#ffffff" stroke="transparent" points="283,-37.7 283,-56.7 359,-56.7 359,-37.7 283,-37.7"/>
<polygon fill="none" stroke="#000000" points="283,-37.7 283,-56.7 359,-56.7 359,-37.7 283,-37.7"/>
<text text-anchor="start" x="286" y="-43.8" font-family="Helvetica,sans-Serif" font-size="11.00" fill="#000000">&lt; 1</text>
<polygon fill="#ffffff" stroke="transparent" points="359,-37.7 359,-56.7 399,-56.7 399,-37.7 359,-37.7"/>
<polygon fill="none" stroke="#000000" points="359,-37.7 359,-56.7 399,-56.7 399,-37.7 359,-37.7"/>
<text text-anchor="start" x="389.8862" y="-43.8" font-family="Helvetica,sans-Serif" font-size="11.00" fill="#000000"> &#160;</text>
<polygon fill="#ffffff" stroke="transparent" points="399,-37.7 399,-56.7 439,-56.7 439,-37.7 399,-37.7"/>
<polygon fill="none" stroke="#000000" points="399,-37.7 399,-56.7 439,-56.7 439,-37.7 399,-37.7"/>
<text text-anchor="start" x="429.8862" y="-43.8" font-family="Helvetica,sans-Serif" font-size="11.00" fill="#000000"> &#160;</text>
</a>
</g>
</g>
<!-- reference_data -->
<g id="node2" class="node">
<title>reference_data</title>
<g id="a_node2"><a xlink:href="../../tables/reference_data.html" xlink:title="reference_data" target="_top">
<polygon fill="#ffffff" stroke="transparent" points="8,-71.7 8,-227.7 222,-227.7 222,-71.7 8,-71.7"/>
<polygon fill="#f5f5f5" stroke="transparent" points="10,-202.7 10,-225.7 220,-225.7 220,-202.7 10,-202.7"/>
<polygon fill="none" stroke="#000000" points="10,-202.7 10,-225.7 220,-225.7 220,-202.7 10,-202.7"/>
<text text-anchor="start" x="15" y="-211.3" font-family="Helvetica,sans-Serif" font-weight="bold" font-size="11.00" fill="#000000">reference_data</text>
<text text-anchor="start" x="185.0437" y="-210.8" font-family="Helvetica,sans-Serif" font-size="11.00" fill="#000000">[table]</text>
<polygon fill="none" stroke="#000000" points="10,-180.7 10,-202.7 153,-202.7 153,-180.7 10,-180.7"/>
<image xlink:href="../../images/primaryKeys.png" width="11px" height="12px" preserveAspectRatio="xMinYMin meet" x="15" y="-197.7"/>
<text text-anchor="start" x="30" y="-187.8" font-family="Helvetica,sans-Serif" font-size="11.00" fill="#000000">id</text>
<polygon fill="none" stroke="#000000" points="153,-180.7 153,-202.7 220,-202.7 220,-180.7 153,-180.7"/>
<text text-anchor="start" x="156" y="-188.4" font-family="Helvetica,sans-Serif" font-size="11.00" fill="#000000">bigserial[19]</text>
<polygon fill="#ffffff" stroke="transparent" points="10,-158.7 10,-180.7 153,-180.7 153,-158.7 10,-158.7"/>
<polygon fill="none" stroke="#000000" points="10,-158.7 10,-180.7 153,-180.7 153,-158.7 10,-158.7"/>
<text text-anchor="start" x="30" y="-165.8" font-family="Helvetica,sans-Serif" font-size="11.00" fill="#000000">domain</text>
<polygon fill="none" stroke="#000000" points="153,-158.7 153,-180.7 220,-180.7 220,-158.7 153,-158.7"/>
<text text-anchor="start" x="156" y="-166.4" font-family="Helvetica,sans-Serif" font-size="11.00" fill="#000000">varchar[32]</text>
<polygon fill="#ffffff" stroke="transparent" points="10,-136.7 10,-158.7 153,-158.7 153,-136.7 10,-136.7"/>
<polygon fill="none" stroke="#000000" points="10,-136.7 10,-158.7 153,-158.7 153,-136.7 10,-136.7"/>
<text text-anchor="start" x="30" y="-143.8" font-family="Helvetica,sans-Serif" font-size="11.00" fill="#000000">code</text>
<polygon fill="none" stroke="#000000" points="153,-136.7 153,-158.7 220,-158.7 220,-136.7 153,-136.7"/>
<text text-anchor="start" x="156" y="-144.4" font-family="Helvetica,sans-Serif" font-size="11.00" fill="#000000">varchar[32]</text>
<polygon fill="none" stroke="#000000" points="10,-114.7 10,-136.7 153,-136.7 153,-114.7 10,-114.7"/>
<text text-anchor="start" x="30" y="-121.8" font-family="Helvetica,sans-Serif" font-size="11.00" fill="#000000">description</text>
<polygon fill="none" stroke="#000000" points="153,-114.7 153,-136.7 220,-136.7 220,-114.7 153,-114.7"/>
<text text-anchor="start" x="155.9365" y="-122.4" font-family="Helvetica,sans-Serif" font-size="11.00" fill="#000000">varchar[128]</text>
<polygon fill="#ffffff" stroke="transparent" points="10,-92.7 10,-114.7 153,-114.7 153,-92.7 10,-92.7"/>
<polygon fill="none" stroke="#000000" points="10,-92.7 10,-114.7 153,-114.7 153,-92.7 10,-92.7"/>
<text text-anchor="start" x="30" y="-99.8" font-family="Helvetica,sans-Serif" font-size="11.00" fill="#000000">sequence_number</text>
<polygon fill="none" stroke="#000000" points="153,-92.7 153,-114.7 220,-114.7 220,-92.7 153,-92.7"/>
<text text-anchor="start" x="156" y="-100.4" font-family="Helvetica,sans-Serif" font-size="11.00" fill="#000000">int4[10]</text>
<polygon fill="#ffffff" stroke="transparent" points="10,-73.7 10,-92.7 86,-92.7 86,-73.7 10,-73.7"/>
<polygon fill="none" stroke="#000000" points="10,-73.7 10,-92.7 86,-92.7 86,-73.7 10,-73.7"/>
<text text-anchor="start" x="13" y="-79.8" font-family="Helvetica,sans-Serif" font-size="11.00" fill="#000000">&lt; 0</text>
<polygon fill="#ffffff" stroke="transparent" points="86,-73.7 86,-92.7 153,-92.7 153,-73.7 86,-73.7"/>
<polygon fill="none" stroke="#000000" points="86,-73.7 86,-92.7 153,-92.7 153,-73.7 86,-73.7"/>
<text text-anchor="start" x="143.8862" y="-79.8" font-family="Helvetica,sans-Serif" font-size="11.00" fill="#000000"> &#160;</text>
<polygon fill="#ffffff" stroke="transparent" points="153,-73.7 153,-92.7 220,-92.7 220,-73.7 153,-73.7"/>
<polygon fill="none" stroke="#000000" points="153,-73.7 153,-92.7 220,-92.7 220,-73.7 153,-73.7"/>
<text text-anchor="start" x="201.4053" y="-79.8" font-family="Helvetica,sans-Serif" font-size="11.00" fill="#000000">3 &gt;</text>
<polygon fill="none" stroke="#000000" stroke-width="2" points="9,-72.7 9,-226.7 221,-226.7 221,-72.7 9,-72.7"/>
</a>
</g>
</g>
<!-- key_worker&#45;&gt;reference_data -->
<g id="edge1" class="edge">
<title>key_worker:w&#45;&gt;reference_data:e</title>
<path fill="none" stroke="#000000" d="M268.8912,-89.9576C237.1328,-107.6805 268.6824,-191.7 220,-191.7"/>
<polygon fill="#000000" stroke="#000000" points="275.2051,-88.4998 283.8099,-90.2077 279.1025,-87.5999 283,-86.7 283,-86.7 283,-86.7 279.1025,-87.5999 282.1901,-83.1923 275.2051,-88.4998 275.2051,-88.4998"/>
<ellipse fill="none" stroke="#000000" cx="272.0871" cy="-89.2197" rx="3.2" ry="3.2"/>
</g>
<!-- offender_key_worker -->
<g id="node3" class="node">
<title>offender_key_worker</title>
<g id="a_node3"><a xlink:href="../../tables/offender_key_worker.html" xlink:title="offender_key_worker" target="_top">
<polygon fill="#ffffff" stroke="transparent" points="271,-164.2 271,-379.2 451,-379.2 451,-164.2 271,-164.2"/>
<polygon fill="#f5f5f5" stroke="transparent" points="271,-355.7 271,-378.7 451,-378.7 451,-355.7 271,-355.7"/>
<polygon fill="none" stroke="#000000" points="271,-355.7 271,-378.7 451,-378.7 451,-355.7 271,-355.7"/>
<text text-anchor="start" x="276" y="-364.3" font-family="Helvetica,sans-Serif" font-weight="bold" font-size="11.00" fill="#000000">offender_key_worker</text>
<text text-anchor="start" x="416.5219" y="-363.8" font-family="Helvetica,sans-Serif" font-size="11.00" fill="#000000">[table]</text>
<polygon fill="none" stroke="#000000" points="271,-333.7 271,-355.7 451,-355.7 451,-333.7 271,-333.7"/>
<image xlink:href="../../images/primaryKeys.png" width="11px" height="12px" preserveAspectRatio="xMinYMin meet" x="276" y="-350.7"/>
<text text-anchor="start" x="294" y="-340.8" font-family="Helvetica,sans-Serif" font-size="11.00" fill="#000000">offender_keyworker_id</text>
<polygon fill="#ffffff" stroke="transparent" points="271,-311.7 271,-333.7 451,-333.7 451,-311.7 271,-311.7"/>
<polygon fill="none" stroke="#000000" points="271,-311.7 271,-333.7 451,-333.7 451,-311.7 271,-311.7"/>
<text text-anchor="start" x="294" y="-318.8" font-family="Helvetica,sans-Serif" font-size="11.00" fill="#000000">offender_no</text>
<polygon fill="#ffffff" stroke="transparent" points="271,-289.7 271,-311.7 451,-311.7 451,-289.7 271,-289.7"/>
<polygon fill="none" stroke="#000000" points="271,-289.7 271,-311.7 451,-311.7 451,-289.7 271,-289.7"/>
<text text-anchor="start" x="294" y="-296.8" font-family="Helvetica,sans-Serif" font-size="11.00" fill="#000000">staff_id</text>
<polygon fill="#ffffff" stroke="transparent" points="271,-267.7 271,-289.7 451,-289.7 451,-267.7 271,-267.7"/>
<polygon fill="none" stroke="#000000" points="271,-267.7 271,-289.7 451,-289.7 451,-267.7 271,-267.7"/>
<text text-anchor="start" x="294" y="-274.8" font-family="Helvetica,sans-Serif" font-size="11.00" fill="#000000">assigned_date_time</text>
<polygon fill="#ffffff" stroke="transparent" points="271,-245.7 271,-267.7 451,-267.7 451,-245.7 271,-245.7"/>
<polygon fill="none" stroke="#000000" points="271,-245.7 271,-267.7 451,-267.7 451,-245.7 271,-245.7"/>
<image xlink:href="../../images/foreignKeys.png" width="11px" height="12px" preserveAspectRatio="xMinYMin meet" x="276" y="-262.7"/>
<text text-anchor="start" x="294" y="-252.8" font-family="Helvetica,sans-Serif" font-size="11.00" fill="#000000">prison_id</text>
<polygon fill="none" stroke="#000000" points="271,-223.7 271,-245.7 451,-245.7 451,-223.7 271,-223.7"/>
<image xlink:href="../../images/foreignKeys.png" width="11px" height="12px" preserveAspectRatio="xMinYMin meet" x="276" y="-240.7"/>
<text text-anchor="start" x="294" y="-230.8" font-family="Helvetica,sans-Serif" font-size="11.00" fill="#000000">allocation_reason_id</text>
<polygon fill="none" stroke="#000000" points="271,-201.7 271,-223.7 451,-223.7 451,-201.7 271,-201.7"/>
<image xlink:href="../../images/foreignKeys.png" width="11px" height="12px" preserveAspectRatio="xMinYMin meet" x="276" y="-218.7"/>
<text text-anchor="start" x="294" y="-208.8" font-family="Helvetica,sans-Serif" font-size="11.00" fill="#000000">deallocation_reason_id</text>
<polygon fill="none" stroke="#000000" points="271,-182.7 271,-201.7 451,-201.7 451,-182.7 271,-182.7"/>
<text text-anchor="start" x="274" y="-188.8" font-family="Helvetica,sans-Serif" font-size="11.00" fill="#000000">...</text>
<polygon fill="#ffffff" stroke="transparent" points="271,-163.7 271,-182.7 359,-182.7 359,-163.7 271,-163.7"/>
<polygon fill="none" stroke="#000000" points="271,-163.7 271,-182.7 359,-182.7 359,-163.7 271,-163.7"/>
<text text-anchor="start" x="274" y="-169.8" font-family="Helvetica,sans-Serif" font-size="11.00" fill="#000000">&lt; 3</text>
<polygon fill="#ffffff" stroke="transparent" points="359,-163.7 359,-182.7 405,-182.7 405,-163.7 359,-163.7"/>
<polygon fill="none" stroke="#000000" points="359,-163.7 359,-182.7 405,-182.7 405,-163.7 359,-163.7"/>
<text text-anchor="start" x="395.8862" y="-169.8" font-family="Helvetica,sans-Serif" font-size="11.00" fill="#000000"> &#160;</text>
<polygon fill="#ffffff" stroke="transparent" points="405,-163.7 405,-182.7 451,-182.7 451,-163.7 405,-163.7"/>
<polygon fill="none" stroke="#000000" points="405,-163.7 405,-182.7 451,-182.7 451,-163.7 405,-163.7"/>
<text text-anchor="start" x="441.8862" y="-169.8" font-family="Helvetica,sans-Serif" font-size="11.00" fill="#000000"> &#160;</text>
</a>
</g>
</g>
<!-- offender_key_worker&#45;&gt;reference_data -->
<g id="edge2" class="edge">
<title>offender_key_worker:w&#45;&gt;reference_data:e</title>
<path fill="none" stroke="#000000" d="M256.9939,-230.0982C243.1566,-219.0054 243.6259,-191.7 220,-191.7"/>
<polygon fill="#000000" stroke="#000000" points="263.3997,-232.2029 269.8763,-238.1201 267.1999,-233.4514 271,-234.7 271,-234.7 271,-234.7 267.1999,-233.4514 272.1237,-231.2799 263.3997,-232.2029 263.3997,-232.2029"/>
<ellipse fill="none" stroke="#000000" cx="260.3596" cy="-231.204" rx="3.2" ry="3.2"/>
</g>
<!-- offender_key_worker&#45;&gt;reference_data -->
<g id="edge3" class="edge">
<title>offender_key_worker:w&#45;&gt;reference_data:e</title>
<path fill="none" stroke="#000000" d="M256.8982,-209.78C244.3236,-204.0098 238.7678,-191.7 220,-191.7"/>
<polygon fill="#000000" stroke="#000000" points="263.1662,-211.0779 270.27,-216.2252 267.0831,-211.8889 271,-212.7 271,-212.7 271,-212.7 267.0831,-211.8889 271.73,-209.1748 263.1662,-211.0779 263.1662,-211.0779"/>
<ellipse fill="none" stroke="#000000" cx="260.0326" cy="-210.429" rx="3.2" ry="3.2"/>
</g>
<!-- prison_supported -->
<g id="node4" class="node">
<title>prison_supported</title>
<g id="a_node4"><a xlink:href="../../tables/prison_supported.html" xlink:title="prison_supported" target="_top">
<polygon fill="#ffffff" stroke="transparent" points="36.5,-249.2 36.5,-310.2 193.5,-310.2 193.5,-249.2 36.5,-249.2"/>
<polygon fill="#f5f5f5" stroke="transparent" points="37,-286.7 37,-309.7 194,-309.7 194,-286.7 37,-286.7"/>
<polygon fill="none" stroke="#000000" points="37,-286.7 37,-309.7 194,-309.7 194,-286.7 37,-286.7"/>
<text text-anchor="start" x="42" y="-295.3" font-family="Helvetica,sans-Serif" font-weight="bold" font-size="11.00" fill="#000000">prison_supported</text>
<text text-anchor="start" x="159.5219" y="-294.8" font-family="Helvetica,sans-Serif" font-size="11.00" fill="#000000">[table]</text>
<polygon fill="none" stroke="#000000" points="37,-267.7 37,-286.7 194,-286.7 194,-267.7 37,-267.7"/>
<text text-anchor="start" x="40" y="-273.8" font-family="Helvetica,sans-Serif" font-size="11.00" fill="#000000">...</text>
<polygon fill="#ffffff" stroke="transparent" points="37,-248.7 37,-267.7 105,-267.7 105,-248.7 37,-248.7"/>
<polygon fill="none" stroke="#000000" points="37,-248.7 37,-267.7 105,-267.7 105,-248.7 37,-248.7"/>
<text text-anchor="start" x="40" y="-254.8" font-family="Helvetica,sans-Serif" font-size="11.00" fill="#000000"> &#160;</text>
<polygon fill="#ffffff" stroke="transparent" points="105,-248.7 105,-267.7 145,-267.7 145,-248.7 105,-248.7"/>
<polygon fill="none" stroke="#000000" points="105,-248.7 105,-267.7 145,-267.7 145,-248.7 105,-248.7"/>
<text text-anchor="start" x="135.8862" y="-254.8" font-family="Helvetica,sans-Serif" font-size="11.00" fill="#000000"> &#160;</text>
<polygon fill="#ffffff" stroke="transparent" points="145,-248.7 145,-267.7 194,-267.7 194,-248.7 145,-248.7"/>
<polygon fill="none" stroke="#000000" points="145,-248.7 145,-267.7 194,-267.7 194,-248.7 145,-248.7"/>
<text text-anchor="start" x="175.4053" y="-254.8" font-family="Helvetica,sans-Serif" font-size="11.00" fill="#000000">2 &gt;</text>
</a>
</g>
</g>
<!-- offender_key_worker&#45;&gt;prison_supported -->
<g id="edge4" class="edge">
<title>offender_key_worker:w&#45;&gt;prison_supported:e</title>
<path fill="none" stroke="#000000" stroke-dasharray="5,2" d="M256.3336,-258.0123C232.9685,-262.4617 223.8331,-276.7 194,-276.7"/>
<polygon fill="#000000" stroke="#000000" points="263.0318,-257.413 271.3208,-260.2857 267.0159,-257.0565 271,-256.7 271,-256.7 271,-256.7 267.0159,-257.0565 270.6792,-253.1143 263.0318,-257.413 263.0318,-257.413"/>
<ellipse fill="none" stroke="#000000" cx="259.8446" cy="-257.6982" rx="3.2" ry="3.2"/>
</g>
</g>
</svg>
