<?xml version="1.0" encoding="UTF-8" standalone="no"?>
<!DOCTYPE svg PUBLIC "-//W3C//DTD SVG 1.1//EN"
 "http://www.w3.org/Graphics/SVG/1.1/DTD/svg11.dtd">
<!-- Generated by graphviz version 2.40.1 (20161225.0304)
 -->
<!-- Title: twoDegreesRelationshipsDiagramImplied Pages: 1 -->
<svg width="496pt" height="715pt"
 viewBox="0.00 0.00 496.00 715.20" xmlns="http://www.w3.org/2000/svg" xmlns:xlink="http://www.w3.org/1999/xlink">
<g id="graph0" class="graph" transform="scale(1 1) rotate(0) translate(4 711.2)">
<title>twoDegreesRelationshipsDiagramImplied</title>
<polygon fill="#ffffff" stroke="transparent" points="-4,4 -4,-711.2 492,-711.2 492,4 -4,4"/>
<text text-anchor="middle" x="72.4936" y="-7.3" font-family="Helvetica,sans-Serif" font-size="11.00" fill="#000000">Generated by SchemaSpy</text>
<!-- allocation -->
<g id="node1" class="node">
<title>allocation</title>
<g id="a_node1"><a xlink:href="../../tables/allocation.html" xlink:title="allocation" target="_top">
<polygon fill="#ffffff" stroke="transparent" points="303,-208.2 303,-467.2 477,-467.2 477,-208.2 303,-208.2"/>
<polygon fill="#f5f5f5" stroke="transparent" points="303,-443.7 303,-466.7 477,-466.7 477,-443.7 303,-443.7"/>
<polygon fill="none" stroke="#000000" points="303,-443.7 303,-466.7 477,-466.7 477,-443.7 303,-443.7"/>
<text text-anchor="start" x="308" y="-452.3" font-family="Helvetica,sans-Serif" font-weight="bold" font-size="11.00" fill="#000000">allocation</text>
<text text-anchor="start" x="442.0437" y="-451.8" font-family="Helvetica,sans-Serif" font-size="11.00" fill="#000000">[table]</text>
<polygon fill="none" stroke="#000000" points="303,-421.7 303,-443.7 477,-443.7 477,-421.7 303,-421.7"/>
<image xlink:href="../../images/primaryKeys.png" width="11px" height="12px" preserveAspectRatio="xMinYMin meet" x="308" y="-438.7"/>
<text text-anchor="start" x="323" y="-428.8" font-family="Helvetica,sans-Serif" font-size="11.00" fill="#000000">id</text>
<polygon fill="none" stroke="#000000" points="303,-399.7 303,-421.7 477,-421.7 477,-399.7 303,-399.7"/>
<image xlink:href="../../images/foreignKeys.png" width="11px" height="12px" preserveAspectRatio="xMinYMin meet" x="308" y="-416.7"/>
<text text-anchor="start" x="323" y="-406.8" font-family="Helvetica,sans-Serif" font-size="11.00" fill="#000000">prison_code</text>
<polygon fill="#ffffff" stroke="transparent" points="303,-377.7 303,-399.7 477,-399.7 477,-377.7 303,-377.7"/>
<polygon fill="none" stroke="#000000" points="303,-377.7 303,-399.7 477,-399.7 477,-377.7 303,-377.7"/>
<text text-anchor="start" x="323" y="-384.8" font-family="Helvetica,sans-Serif" font-size="11.00" fill="#000000">staff_id</text>
<polygon fill="#ffffff" stroke="transparent" points="303,-355.7 303,-377.7 477,-377.7 477,-355.7 303,-355.7"/>
<polygon fill="none" stroke="#000000" points="303,-355.7 303,-377.7 477,-377.7 477,-355.7 303,-355.7"/>
<text text-anchor="start" x="323" y="-362.8" font-family="Helvetica,sans-Serif" font-size="11.00" fill="#000000">person_identifier</text>
<polygon fill="#ffffff" stroke="transparent" points="303,-333.7 303,-355.7 477,-355.7 477,-333.7 303,-333.7"/>
<polygon fill="none" stroke="#000000" points="303,-333.7 303,-355.7 477,-355.7 477,-333.7 303,-333.7"/>
<text text-anchor="start" x="323" y="-340.8" font-family="Helvetica,sans-Serif" font-size="11.00" fill="#000000">allocated_at</text>
<polygon fill="none" stroke="#000000" points="303,-311.7 303,-333.7 477,-333.7 477,-311.7 303,-311.7"/>
<image xlink:href="../../images/foreignKeys.png" width="11px" height="12px" preserveAspectRatio="xMinYMin meet" x="308" y="-328.7"/>
<text text-anchor="start" x="323" y="-318.8" font-family="Helvetica,sans-Serif" font-size="11.00" fill="#000000">allocation_reason_id</text>
<polygon fill="none" stroke="#000000" points="303,-289.7 303,-311.7 477,-311.7 477,-289.7 303,-289.7"/>
<image xlink:href="../../images/foreignKeys.png" width="11px" height="12px" preserveAspectRatio="xMinYMin meet" x="308" y="-306.7"/>
<text text-anchor="start" x="323" y="-296.8" font-family="Helvetica,sans-Serif" font-size="11.00" fill="#000000">deallocation_reason_id</text>
<polygon fill="#ffffff" stroke="transparent" points="303,-267.7 303,-289.7 477,-289.7 477,-267.7 303,-267.7"/>
<polygon fill="none" stroke="#000000" points="303,-267.7 303,-289.7 477,-289.7 477,-267.7 303,-267.7"/>
<image xlink:href="../../images/foreignKeys.png" width="11px" height="12px" preserveAspectRatio="xMinYMin meet" x="308" y="-284.7"/>
<text text-anchor="start" x="323" y="-274.8" font-family="Helvetica,sans-Serif" font-size="11.00" fill="#000000">policy_code</text>
<polygon fill="#ffffff" stroke="transparent" points="303,-245.7 303,-267.7 477,-267.7 477,-245.7 303,-245.7"/>
<polygon fill="none" stroke="#000000" points="303,-245.7 303,-267.7 477,-267.7 477,-245.7 303,-245.7"/>
<text text-anchor="start" x="323" y="-252.8" font-family="Helvetica,sans-Serif" font-size="11.00" fill="#000000">legacy_id</text>
<polygon fill="none" stroke="#000000" points="303,-226.7 303,-245.7 477,-245.7 477,-226.7 303,-226.7"/>
<text text-anchor="start" x="306" y="-232.8" font-family="Helvetica,sans-Serif" font-size="11.00" fill="#000000">...</text>
<polygon fill="#ffffff" stroke="transparent" points="303,-207.7 303,-226.7 388,-226.7 388,-207.7 303,-207.7"/>
<polygon fill="none" stroke="#000000" points="303,-207.7 303,-226.7 388,-226.7 388,-207.7 303,-207.7"/>
<text text-anchor="start" x="306" y="-213.8" font-family="Helvetica,sans-Serif" font-size="11.00" fill="#000000">&lt; 4</text>
<polygon fill="#ffffff" stroke="transparent" points="388,-207.7 388,-226.7 432,-226.7 432,-207.7 388,-207.7"/>
<polygon fill="none" stroke="#000000" points="388,-207.7 388,-226.7 432,-226.7 432,-207.7 388,-207.7"/>
<text text-anchor="start" x="422.8862" y="-213.8" font-family="Helvetica,sans-Serif" font-size="11.00" fill="#000000"> &#160;</text>
<polygon fill="#ffffff" stroke="transparent" points="432,-207.7 432,-226.7 477,-226.7 477,-207.7 432,-207.7"/>
<polygon fill="none" stroke="#000000" points="432,-207.7 432,-226.7 477,-226.7 477,-207.7 432,-207.7"/>
<text text-anchor="start" x="467.8862" y="-213.8" font-family="Helvetica,sans-Serif" font-size="11.00" fill="#000000"> &#160;</text>
</a>
</g>
</g>
<!-- reference_data -->
<g id="node2" class="node">
<title>reference_data</title>
<g id="a_node2"><a xlink:href="../../tables/reference_data.html" xlink:title="reference_data" target="_top">
<polygon fill="#ffffff" stroke="transparent" points="22.5,-202.7 22.5,-358.7 236.5,-358.7 236.5,-202.7 22.5,-202.7"/>
<polygon fill="#f5f5f5" stroke="transparent" points="24.5,-333.7 24.5,-356.7 234.5,-356.7 234.5,-333.7 24.5,-333.7"/>
<polygon fill="none" stroke="#000000" points="24.5,-333.7 24.5,-356.7 234.5,-356.7 234.5,-333.7 24.5,-333.7"/>
<text text-anchor="start" x="29.5" y="-342.3" font-family="Helvetica,sans-Serif" font-weight="bold" font-size="11.00" fill="#000000">reference_data</text>
<text text-anchor="start" x="199.5437" y="-341.8" font-family="Helvetica,sans-Serif" font-size="11.00" fill="#000000">[table]</text>
<polygon fill="none" stroke="#000000" points="24.5,-311.7 24.5,-333.7 167.5,-333.7 167.5,-311.7 24.5,-311.7"/>
<image xlink:href="../../images/primaryKeys.png" width="11px" height="12px" preserveAspectRatio="xMinYMin meet" x="29.5" y="-328.7"/>
<text text-anchor="start" x="44.5" y="-318.8" font-family="Helvetica,sans-Serif" font-size="11.00" fill="#000000">id</text>
<polygon fill="none" stroke="#000000" points="167.5,-311.7 167.5,-333.7 234.5,-333.7 234.5,-311.7 167.5,-311.7"/>
<text text-anchor="start" x="170.5" y="-319.4" font-family="Helvetica,sans-Serif" font-size="11.00" fill="#000000">bigserial[19]</text>
<polygon fill="#ffffff" stroke="transparent" points="24.5,-289.7 24.5,-311.7 167.5,-311.7 167.5,-289.7 24.5,-289.7"/>
<polygon fill="none" stroke="#000000" points="24.5,-289.7 24.5,-311.7 167.5,-311.7 167.5,-289.7 24.5,-289.7"/>
<text text-anchor="start" x="44.5" y="-296.8" font-family="Helvetica,sans-Serif" font-size="11.00" fill="#000000">domain</text>
<polygon fill="none" stroke="#000000" points="167.5,-289.7 167.5,-311.7 234.5,-311.7 234.5,-289.7 167.5,-289.7"/>
<text text-anchor="start" x="170.5" y="-297.4" font-family="Helvetica,sans-Serif" font-size="11.00" fill="#000000">varchar[32]</text>
<polygon fill="#ffffff" stroke="transparent" points="24.5,-267.7 24.5,-289.7 167.5,-289.7 167.5,-267.7 24.5,-267.7"/>
<polygon fill="none" stroke="#000000" points="24.5,-267.7 24.5,-289.7 167.5,-289.7 167.5,-267.7 24.5,-267.7"/>
<text text-anchor="start" x="44.5" y="-274.8" font-family="Helvetica,sans-Serif" font-size="11.00" fill="#000000">code</text>
<polygon fill="none" stroke="#000000" points="167.5,-267.7 167.5,-289.7 234.5,-289.7 234.5,-267.7 167.5,-267.7"/>
<text text-anchor="start" x="170.5" y="-275.4" font-family="Helvetica,sans-Serif" font-size="11.00" fill="#000000">varchar[32]</text>
<polygon fill="none" stroke="#000000" points="24.5,-245.7 24.5,-267.7 167.5,-267.7 167.5,-245.7 24.5,-245.7"/>
<text text-anchor="start" x="44.5" y="-252.8" font-family="Helvetica,sans-Serif" font-size="11.00" fill="#000000">description</text>
<polygon fill="none" stroke="#000000" points="167.5,-245.7 167.5,-267.7 234.5,-267.7 234.5,-245.7 167.5,-245.7"/>
<text text-anchor="start" x="170.4365" y="-253.4" font-family="Helvetica,sans-Serif" font-size="11.00" fill="#000000">varchar[128]</text>
<polygon fill="#ffffff" stroke="transparent" points="24.5,-223.7 24.5,-245.7 167.5,-245.7 167.5,-223.7 24.5,-223.7"/>
<polygon fill="none" stroke="#000000" points="24.5,-223.7 24.5,-245.7 167.5,-245.7 167.5,-223.7 24.5,-223.7"/>
<text text-anchor="start" x="44.5" y="-230.8" font-family="Helvetica,sans-Serif" font-size="11.00" fill="#000000">sequence_number</text>
<polygon fill="none" stroke="#000000" points="167.5,-223.7 167.5,-245.7 234.5,-245.7 234.5,-223.7 167.5,-223.7"/>
<text text-anchor="start" x="170.5" y="-231.4" font-family="Helvetica,sans-Serif" font-size="11.00" fill="#000000">int4[10]</text>
<polygon fill="#ffffff" stroke="transparent" points="24.5,-204.7 24.5,-223.7 100.5,-223.7 100.5,-204.7 24.5,-204.7"/>
<polygon fill="none" stroke="#000000" points="24.5,-204.7 24.5,-223.7 100.5,-223.7 100.5,-204.7 24.5,-204.7"/>
<text text-anchor="start" x="27.5" y="-210.8" font-family="Helvetica,sans-Serif" font-size="11.00" fill="#000000">&lt; 0</text>
<polygon fill="#ffffff" stroke="transparent" points="100.5,-204.7 100.5,-223.7 167.5,-223.7 167.5,-204.7 100.5,-204.7"/>
<polygon fill="none" stroke="#000000" points="100.5,-204.7 100.5,-223.7 167.5,-223.7 167.5,-204.7 100.5,-204.7"/>
<text text-anchor="start" x="158.3862" y="-210.8" font-family="Helvetica,sans-Serif" font-size="11.00" fill="#000000"> &#160;</text>
<polygon fill="#ffffff" stroke="transparent" points="167.5,-204.7 167.5,-223.7 234.5,-223.7 234.5,-204.7 167.5,-204.7"/>
<polygon fill="none" stroke="#000000" points="167.5,-204.7 167.5,-223.7 234.5,-223.7 234.5,-204.7 167.5,-204.7"/>
<text text-anchor="start" x="215.9053" y="-210.8" font-family="Helvetica,sans-Serif" font-size="11.00" fill="#000000">5 &gt;</text>
<polygon fill="none" stroke="#000000" stroke-width="2" points="23.5,-203.7 23.5,-357.7 235.5,-357.7 235.5,-203.7 23.5,-203.7"/>
</a>
</g>
</g>
<!-- allocation&#45;&gt;reference_data -->
<g id="edge1" class="edge">
<title>allocation:w&#45;&gt;reference_data:e</title>
<path fill="none" stroke="#000000" d="M288.5353,-322.7C269.0831,-322.7 259.474,-322.7 234.5,-322.7"/>
<polygon fill="#000000" stroke="#000000" points="295,-322.7001 303,-326.3 299,-322.7 303,-322.7 303,-322.7 303,-322.7 299,-322.7 303,-319.1 295,-322.7001 295,-322.7001"/>
<ellipse fill="none" stroke="#000000" cx="291.8" cy="-322.7001" rx="3.2" ry="3.2"/>
</g>
<!-- allocation&#45;&gt;reference_data -->
<g id="edge2" class="edge">
<title>allocation:w&#45;&gt;reference_data:e</title>
<path fill="none" stroke="#000000" d="M288.6646,-302.4263C268.6503,-307.6126 260.9802,-322.7 234.5,-322.7"/>
<polygon fill="#000000" stroke="#000000" points="295.0574,-301.6565 303.4304,-304.2742 299.0287,-301.1783 303,-300.7 303,-300.7 303,-300.7 299.0287,-301.1783 302.5696,-297.1258 295.0574,-301.6565 295.0574,-301.6565"/>
<ellipse fill="none" stroke="#000000" cx="291.8803" cy="-302.0391" rx="3.2" ry="3.2"/>
</g>
<!-- policy -->
<g id="node3" class="node">
<title>policy</title>
<g id="a_node3"><a xlink:href="../../tables/policy.html" xlink:title="policy" target="_top">
<polygon fill="#ffffff" stroke="transparent" points="90.5,-101.2 90.5,-162.2 168.5,-162.2 168.5,-101.2 90.5,-101.2"/>
<polygon fill="#f5f5f5" stroke="transparent" points="90.5,-138.7 90.5,-161.7 168.5,-161.7 168.5,-138.7 90.5,-138.7"/>
<polygon fill="none" stroke="#000000" points="90.5,-138.7 90.5,-161.7 168.5,-161.7 168.5,-138.7 90.5,-138.7"/>
<text text-anchor="start" x="95.5" y="-147.3" font-family="Helvetica,sans-Serif" font-weight="bold" font-size="11.00" fill="#000000">policy</text>
<text text-anchor="start" x="134.0219" y="-146.8" font-family="Helvetica,sans-Serif" font-size="11.00" fill="#000000">[table]</text>
<polygon fill="none" stroke="#000000" points="90.5,-119.7 90.5,-138.7 168.5,-138.7 168.5,-119.7 90.5,-119.7"/>
<text text-anchor="start" x="93.5" y="-125.8" font-family="Helvetica,sans-Serif" font-size="11.00" fill="#000000">...</text>
<polygon fill="#ffffff" stroke="transparent" points="90.5,-100.7 90.5,-119.7 118.5,-119.7 118.5,-100.7 90.5,-100.7"/>
<polygon fill="none" stroke="#000000" points="90.5,-100.7 90.5,-119.7 118.5,-119.7 118.5,-100.7 90.5,-100.7"/>
<text text-anchor="start" x="93.5" y="-106.8" font-family="Helvetica,sans-Serif" font-size="11.00" fill="#000000"> &#160;</text>
<polygon fill="#ffffff" stroke="transparent" points="118.5,-100.7 118.5,-119.7 138.5,-119.7 138.5,-100.7 118.5,-100.7"/>
<polygon fill="none" stroke="#000000" points="118.5,-100.7 118.5,-119.7 138.5,-119.7 138.5,-100.7 118.5,-100.7"/>
<text text-anchor="start" x="129.3862" y="-106.8" font-family="Helvetica,sans-Serif" font-size="11.00" fill="#000000"> &#160;</text>
<polygon fill="#ffffff" stroke="transparent" points="138.5,-100.7 138.5,-119.7 168.5,-119.7 168.5,-100.7 138.5,-100.7"/>
<polygon fill="none" stroke="#000000" points="138.5,-100.7 138.5,-119.7 168.5,-119.7 168.5,-100.7 138.5,-100.7"/>
<text text-anchor="start" x="149.9053" y="-106.8" font-family="Helvetica,sans-Serif" font-size="11.00" fill="#000000">3 &gt;</text>
</a>
</g>
</g>
<!-- allocation&#45;&gt;policy -->
<g id="edge3" class="edge">
<title>allocation:w&#45;&gt;policy:e</title>
<path fill="none" stroke="#000000" d="M288.6911,-275.7304C266.5833,-264.0551 283.1647,-220.5825 259,-192.7 226.7358,-155.4718 217.7637,-128.7 168.5,-128.7"/>
<polygon fill="#000000" stroke="#000000" points="295.1669,-277.0743 302.2684,-282.2249 299.0835,-277.8872 303,-278.7 303,-278.7 303,-278.7 299.0835,-277.8872 303.7316,-275.1751 295.1669,-277.0743 295.1669,-277.0743"/>
<ellipse fill="none" stroke="#000000" cx="292.0337" cy="-276.4241" rx="3.2" ry="3.2"/>
</g>
<!-- prison_migration_date_history -->
<g id="node4" class="node">
<title>prison_migration_date_history</title>
<g id="a_node4"><a xlink:href="../../tables/prison_migration_date_history.html" xlink:title="prison_migration_date_history" target="_top">
<polygon fill="#ffffff" stroke="transparent" points="8,-383.2 8,-444.2 251,-444.2 251,-383.2 8,-383.2"/>
<polygon fill="#f5f5f5" stroke="transparent" points="8.5,-420.7 8.5,-443.7 251.5,-443.7 251.5,-420.7 8.5,-420.7"/>
<polygon fill="none" stroke="#000000" points="8.5,-420.7 8.5,-443.7 251.5,-443.7 251.5,-420.7 8.5,-420.7"/>
<text text-anchor="start" x="13.5" y="-429.3" font-family="Helvetica,sans-Serif" font-weight="bold" font-size="11.00" fill="#000000">prison_migration_date_history</text>
<text text-anchor="start" x="217.0219" y="-428.8" font-family="Helvetica,sans-Serif" font-size="11.00" fill="#000000">[table]</text>
<polygon fill="none" stroke="#000000" points="8.5,-401.7 8.5,-420.7 251.5,-420.7 251.5,-401.7 8.5,-401.7"/>
<text text-anchor="start" x="11.5" y="-407.8" font-family="Helvetica,sans-Serif" font-size="11.00" fill="#000000">...</text>
<polygon fill="#ffffff" stroke="transparent" points="8.5,-382.7 8.5,-401.7 119.5,-401.7 119.5,-382.7 8.5,-382.7"/>
<polygon fill="none" stroke="#000000" points="8.5,-382.7 8.5,-401.7 119.5,-401.7 119.5,-382.7 8.5,-382.7"/>
<text text-anchor="start" x="11.5" y="-388.8" font-family="Helvetica,sans-Serif" font-size="11.00" fill="#000000"> &#160;</text>
<polygon fill="#ffffff" stroke="transparent" points="119.5,-382.7 119.5,-401.7 180.5,-401.7 180.5,-382.7 119.5,-382.7"/>
<polygon fill="none" stroke="#000000" points="119.5,-382.7 119.5,-401.7 180.5,-401.7 180.5,-382.7 119.5,-382.7"/>
<text text-anchor="start" x="171.3862" y="-388.8" font-family="Helvetica,sans-Serif" font-size="11.00" fill="#000000"> &#160;</text>
<polygon fill="#ffffff" stroke="transparent" points="180.5,-382.7 180.5,-401.7 251.5,-401.7 251.5,-382.7 180.5,-382.7"/>
<polygon fill="none" stroke="#000000" points="180.5,-382.7 180.5,-401.7 251.5,-401.7 251.5,-382.7 180.5,-382.7"/>
<text text-anchor="start" x="232.9053" y="-388.8" font-family="Helvetica,sans-Serif" font-size="11.00" fill="#000000">8 &gt;</text>
</a>
</g>
</g>
<!-- allocation&#45;&gt;prison_migration_date_history -->
<g id="edge4" class="edge">
<title>allocation:w&#45;&gt;prison_migration_date_history:e</title>
<path fill="none" stroke="#000000" stroke-dasharray="5,2" d="M288.5156,-410.7C276.1771,-410.7 268.6667,-410.7 251.5,-410.7"/>
<polygon fill="#000000" stroke="#000000" points="295,-410.7001 303,-414.3 299,-410.7 303,-410.7 303,-410.7 303,-410.7 299,-410.7 303,-407.1 295,-410.7001 295,-410.7001"/>
<ellipse fill="none" stroke="#000000" cx="291.8" cy="-410.7001" rx="3.2" ry="3.2"/>
</g>
<!-- offender_key_worker -->
<g id="node5" class="node">
<title>offender_key_worker</title>
<g id="a_node5"><a xlink:href="../../tables/offender_key_worker.html" xlink:title="offender_key_worker" target="_top">
<polygon fill="#ffffff" stroke="transparent" points="300,-488.2 300,-703.2 480,-703.2 480,-488.2 300,-488.2"/>
<polygon fill="#f5f5f5" stroke="transparent" points="300,-679.7 300,-702.7 480,-702.7 480,-679.7 300,-679.7"/>
<polygon fill="none" stroke="#000000" points="300,-679.7 300,-702.7 480,-702.7 480,-679.7 300,-679.7"/>
<text text-anchor="start" x="305" y="-688.3" font-family="Helvetica,sans-Serif" font-weight="bold" font-size="11.00" fill="#000000">offender_key_worker</text>
<text text-anchor="start" x="445.5219" y="-687.8" font-family="Helvetica,sans-Serif" font-size="11.00" fill="#000000">[table]</text>
<polygon fill="none" stroke="#000000" points="300,-657.7 300,-679.7 480,-679.7 480,-657.7 300,-657.7"/>
<image xlink:href="../../images/primaryKeys.png" width="11px" height="12px" preserveAspectRatio="xMinYMin meet" x="305" y="-674.7"/>
<text text-anchor="start" x="323" y="-664.8" font-family="Helvetica,sans-Serif" font-size="11.00" fill="#000000">offender_keyworker_id</text>
<polygon fill="#ffffff" stroke="transparent" points="300,-635.7 300,-657.7 480,-657.7 480,-635.7 300,-635.7"/>
<polygon fill="none" stroke="#000000" points="300,-635.7 300,-657.7 480,-657.7 480,-635.7 300,-635.7"/>
<text text-anchor="start" x="323" y="-642.8" font-family="Helvetica,sans-Serif" font-size="11.00" fill="#000000">offender_no</text>
<polygon fill="#ffffff" stroke="transparent" points="300,-613.7 300,-635.7 480,-635.7 480,-613.7 300,-613.7"/>
<polygon fill="none" stroke="#000000" points="300,-613.7 300,-635.7 480,-635.7 480,-613.7 300,-613.7"/>
<text text-anchor="start" x="323" y="-620.8" font-family="Helvetica,sans-Serif" font-size="11.00" fill="#000000">staff_id</text>
<polygon fill="#ffffff" stroke="transparent" points="300,-591.7 300,-613.7 480,-613.7 480,-591.7 300,-591.7"/>
<polygon fill="none" stroke="#000000" points="300,-591.7 300,-613.7 480,-613.7 480,-591.7 300,-591.7"/>
<text text-anchor="start" x="323" y="-598.8" font-family="Helvetica,sans-Serif" font-size="11.00" fill="#000000">assigned_date_time</text>
<polygon fill="#ffffff" stroke="transparent" points="300,-569.7 300,-591.7 480,-591.7 480,-569.7 300,-569.7"/>
<polygon fill="none" stroke="#000000" points="300,-569.7 300,-591.7 480,-591.7 480,-569.7 300,-569.7"/>
<text text-anchor="start" x="323" y="-576.8" font-family="Helvetica,sans-Serif" font-size="11.00" fill="#000000">prison_id</text>
<polygon fill="none" stroke="#000000" points="300,-547.7 300,-569.7 480,-569.7 480,-547.7 300,-547.7"/>
<image xlink:href="../../images/foreignKeys.png" width="11px" height="12px" preserveAspectRatio="xMinYMin meet" x="305" y="-564.7"/>
<text text-anchor="start" x="323" y="-554.8" font-family="Helvetica,sans-Serif" font-size="11.00" fill="#000000">allocation_reason_id</text>
<polygon fill="none" stroke="#000000" points="300,-525.7 300,-547.7 480,-547.7 480,-525.7 300,-525.7"/>
<image xlink:href="../../images/foreignKeys.png" width="11px" height="12px" preserveAspectRatio="xMinYMin meet" x="305" y="-542.7"/>
<text text-anchor="start" x="323" y="-532.8" font-family="Helvetica,sans-Serif" font-size="11.00" fill="#000000">deallocation_reason_id</text>
<polygon fill="none" stroke="#000000" points="300,-506.7 300,-525.7 480,-525.7 480,-506.7 300,-506.7"/>
<text text-anchor="start" x="303" y="-512.8" font-family="Helvetica,sans-Serif" font-size="11.00" fill="#000000">...</text>
<polygon fill="#ffffff" stroke="transparent" points="300,-487.7 300,-506.7 388,-506.7 388,-487.7 300,-487.7"/>
<polygon fill="none" stroke="#000000" points="300,-487.7 300,-506.7 388,-506.7 388,-487.7 300,-487.7"/>
<text text-anchor="start" x="303" y="-493.8" font-family="Helvetica,sans-Serif" font-size="11.00" fill="#000000">&lt; 2</text>
<polygon fill="#ffffff" stroke="transparent" points="388,-487.7 388,-506.7 434,-506.7 434,-487.7 388,-487.7"/>
<polygon fill="none" stroke="#000000" points="388,-487.7 388,-506.7 434,-506.7 434,-487.7 388,-487.7"/>
<text text-anchor="start" x="424.8862" y="-493.8" font-family="Helvetica,sans-Serif" font-size="11.00" fill="#000000"> &#160;</text>
<polygon fill="#ffffff" stroke="transparent" points="434,-487.7 434,-506.7 480,-506.7 480,-487.7 434,-487.7"/>
<polygon fill="none" stroke="#000000" points="434,-487.7 434,-506.7 480,-506.7 480,-487.7 434,-487.7"/>
<text text-anchor="start" x="470.8862" y="-493.8" font-family="Helvetica,sans-Serif" font-size="11.00" fill="#000000"> &#160;</text>
</a>
</g>
</g>
<!-- offender_key_worker&#45;&gt;reference_data -->
<g id="edge5" class="edge">
<title>offender_key_worker:w&#45;&gt;reference_data:e</title>
<path fill="none" stroke="#000000" d="M286.67,-552.3876C253.1082,-514.8569 283.6117,-322.7 234.5,-322.7"/>
<polygon fill="#000000" stroke="#000000" points="292.7697,-555.2761 298.4592,-561.9536 296.3849,-556.988 300,-558.7 300,-558.7 300,-558.7 296.3849,-556.988 301.5408,-555.4464 292.7697,-555.2761 292.7697,-555.2761"/>
<ellipse fill="none" stroke="#000000" cx="289.8776" cy="-553.9065" rx="3.2" ry="3.2"/>
</g>
<!-- offender_key_worker&#45;&gt;reference_data -->
<g id="edge6" class="edge">
<title>offender_key_worker:w&#45;&gt;reference_data:e</title>
<path fill="none" stroke="#000000" d="M285.6947,-534.85C214.4312,-513.9338 328.5269,-322.7 234.5,-322.7"/>
<polygon fill="#000000" stroke="#000000" points="292.0661,-535.6739 299.5383,-540.2703 296.033,-536.1869 300,-536.7 300,-536.7 300,-536.7 296.033,-536.1869 300.4617,-533.1297 292.0661,-535.6739 292.0661,-535.6739"/>
<ellipse fill="none" stroke="#000000" cx="288.8925" cy="-535.2634" rx="3.2" ry="3.2"/>
</g>
<!-- staff_configuration -->
<g id="node6" class="node">
<title>staff_configuration</title>
<g id="a_node6"><a xlink:href="../../tables/staff_configuration.html" xlink:title="staff_configuration" target="_top">
<polygon fill="#ffffff" stroke="transparent" points="306.5,-38.2 306.5,-187.2 473.5,-187.2 473.5,-38.2 306.5,-38.2"/>
<polygon fill="#f5f5f5" stroke="transparent" points="307,-163.7 307,-186.7 474,-186.7 474,-163.7 307,-163.7"/>
<polygon fill="none" stroke="#000000" points="307,-163.7 307,-186.7 474,-186.7 474,-163.7 307,-163.7"/>
<text text-anchor="start" x="312" y="-172.3" font-family="Helvetica,sans-Serif" font-weight="bold" font-size="11.00" fill="#000000">staff_configuration</text>
<text text-anchor="start" x="439.5219" y="-171.8" font-family="Helvetica,sans-Serif" font-size="11.00" fill="#000000">[table]</text>
<polygon fill="#ffffff" stroke="transparent" points="307,-141.7 307,-163.7 474,-163.7 474,-141.7 307,-141.7"/>
<polygon fill="none" stroke="#000000" points="307,-141.7 307,-163.7 474,-163.7 474,-141.7 307,-141.7"/>
<text text-anchor="start" x="328" y="-148.8" font-family="Helvetica,sans-Serif" font-size="11.00" fill="#000000">staff_id</text>
<polygon fill="none" stroke="#000000" points="307,-119.7 307,-141.7 474,-141.7 474,-119.7 307,-119.7"/>
<image xlink:href="../../images/foreignKeys.png" width="11px" height="12px" preserveAspectRatio="xMinYMin meet" x="312" y="-136.7"/>
<text text-anchor="start" x="328" y="-126.8" font-family="Helvetica,sans-Serif" font-size="11.00" fill="#000000">status_id</text>
<polygon fill="#ffffff" stroke="transparent" points="307,-97.7 307,-119.7 474,-119.7 474,-97.7 307,-97.7"/>
<polygon fill="none" stroke="#000000" points="307,-97.7 307,-119.7 474,-119.7 474,-97.7 307,-97.7"/>
<image xlink:href="../../images/foreignKeys.png" width="11px" height="12px" preserveAspectRatio="xMinYMin meet" x="312" y="-114.7"/>
<text text-anchor="start" x="328" y="-104.8" font-family="Helvetica,sans-Serif" font-size="11.00" fill="#000000">policy_code</text>
<polygon fill="none" stroke="#000000" points="307,-75.7 307,-97.7 474,-97.7 474,-75.7 307,-75.7"/>
<image xlink:href="../../images/primaryKeys.png" width="11px" height="12px" preserveAspectRatio="xMinYMin meet" x="312" y="-92.7"/>
<text text-anchor="start" x="328" y="-82.8" font-family="Helvetica,sans-Serif" font-size="11.00" fill="#000000">id</text>
<polygon fill="none" stroke="#000000" points="307,-56.7 307,-75.7 474,-75.7 474,-56.7 307,-56.7"/>
<text text-anchor="start" x="310" y="-62.8" font-family="Helvetica,sans-Serif" font-size="11.00" fill="#000000">...</text>
<polygon fill="#ffffff" stroke="transparent" points="307,-37.7 307,-56.7 389,-56.7 389,-37.7 307,-37.7"/>
<polygon fill="none" stroke="#000000" points="307,-37.7 307,-56.7 389,-56.7 389,-37.7 307,-37.7"/>
<text text-anchor="start" x="310" y="-43.8" font-family="Helvetica,sans-Serif" font-size="11.00" fill="#000000">&lt; 2</text>
<polygon fill="#ffffff" stroke="transparent" points="389,-37.7 389,-56.7 431,-56.7 431,-37.7 389,-37.7"/>
<polygon fill="none" stroke="#000000" points="389,-37.7 389,-56.7 431,-56.7 431,-37.7 389,-37.7"/>
<text text-anchor="start" x="421.8862" y="-43.8" font-family="Helvetica,sans-Serif" font-size="11.00" fill="#000000"> &#160;</text>
<polygon fill="#ffffff" stroke="transparent" points="431,-37.7 431,-56.7 474,-56.7 474,-37.7 431,-37.7"/>
<polygon fill="none" stroke="#000000" points="431,-37.7 431,-56.7 474,-56.7 474,-37.7 431,-37.7"/>
<text text-anchor="start" x="464.8862" y="-43.8" font-family="Helvetica,sans-Serif" font-size="11.00" fill="#000000"> &#160;</text>
</a>
</g>
</g>
<!-- staff_configuration&#45;&gt;reference_data -->
<g id="edge8" class="edge">
<title>staff_configuration:w&#45;&gt;reference_data:e</title>
<path fill="none" stroke="#000000" d="M292.5546,-132.7263C228.36,-153.2461 320.1916,-322.7 234.5,-322.7"/>
<polygon fill="#000000" stroke="#000000" points="299.0776,-131.8114 307.5001,-134.2651 303.0388,-131.2557 307,-130.7 307,-130.7 307,-130.7 303.0388,-131.2557 306.4999,-127.1349 299.0776,-131.8114 299.0776,-131.8114"/>
<ellipse fill="none" stroke="#000000" cx="295.9086" cy="-132.2559" rx="3.2" ry="3.2"/>
</g>
<!-- staff_configuration&#45;&gt;policy -->
<g id="edge7" class="edge">
<title>staff_configuration:w&#45;&gt;policy:e</title>
<path fill="none" stroke="#000000" d="M292.2905,-109.0995C242.0965,-111.9183 225.4707,-128.7 168.5,-128.7"/>
<polygon fill="#000000" stroke="#000000" points="299.0029,-108.9173 307.0978,-112.2987 303.0015,-108.8086 307,-108.7 307,-108.7 307,-108.7 303.0015,-108.8086 306.9022,-105.1013 299.0029,-108.9173 299.0029,-108.9173"/>
<ellipse fill="none" stroke="#000000" cx="295.8041" cy="-109.0042" rx="3.2" ry="3.2"/>
</g>
</g>
</svg>
