<?xml version="1.0" encoding="UTF-8" standalone="no"?>
<!DOCTYPE svg PUBLIC "-//W3C//DTD SVG 1.1//EN"
 "http://www.w3.org/Graphics/SVG/1.1/DTD/svg11.dtd">
<!-- Generated by graphviz version 2.40.1 (20161225.0304)
 -->
<!-- Title: oneDegreeRelationshipsDiagramImplied Pages: 1 -->
<svg width="467pt" height="441pt"
 viewBox="0.00 0.00 467.00 440.70" xmlns="http://www.w3.org/2000/svg" xmlns:xlink="http://www.w3.org/1999/xlink">
<g id="graph0" class="graph" transform="scale(1 1) rotate(0) translate(4 436.7)">
<title>oneDegreeRelationshipsDiagramImplied</title>
<polygon fill="#ffffff" stroke="transparent" points="-4,4 -4,-436.7 463,-436.7 463,4 -4,4"/>
<text text-anchor="middle" x="72.4936" y="-7.3" font-family="Helvetica,sans-Serif" font-size="11.00" fill="#000000">Generated by SchemaSpy</text>
<!-- key_worker -->
<g id="node1" class="node">
<title>key_worker</title>
<g id="a_node1"><a xlink:href="../../tables/key_worker.html" xlink:title="key_worker" target="_top">
<polygon fill="#ffffff" stroke="transparent" points="283,-323.7 283,-428.7 439,-428.7 439,-323.7 283,-323.7"/>
<polygon fill="#f5f5f5" stroke="transparent" points="283,-405.2 283,-428.2 439,-428.2 439,-405.2 283,-405.2"/>
<polygon fill="none" stroke="#000000" points="283,-405.2 283,-428.2 439,-428.2 439,-405.2 283,-405.2"/>
<text text-anchor="start" x="288" y="-413.8" font-family="Helvetica,sans-Serif" font-weight="bold" font-size="11.00" fill="#000000">key_worker</text>
<text text-anchor="start" x="404.0437" y="-413.3" font-family="Helvetica,sans-Serif" font-size="11.00" fill="#000000">[table]</text>
<polygon fill="none" stroke="#000000" points="283,-383.2 283,-405.2 439,-405.2 439,-383.2 283,-383.2"/>
<image xlink:href="../../images/primaryKeys.png" width="11px" height="12px" preserveAspectRatio="xMinYMin meet" x="288" y="-400.2"/>
<text text-anchor="start" x="303" y="-390.3" font-family="Helvetica,sans-Serif" font-size="11.00" fill="#000000">staff_id</text>
<polygon fill="none" stroke="#000000" points="283,-361.2 283,-383.2 439,-383.2 439,-361.2 283,-361.2"/>
<image xlink:href="../../images/foreignKeys.png" width="11px" height="12px" preserveAspectRatio="xMinYMin meet" x="288" y="-378.2"/>
<text text-anchor="start" x="303" y="-368.3" font-family="Helvetica,sans-Serif" font-size="11.00" fill="#000000">status_id</text>
<polygon fill="none" stroke="#000000" points="283,-342.2 283,-361.2 439,-361.2 439,-342.2 283,-342.2"/>
<text text-anchor="start" x="286" y="-348.3" font-family="Helvetica,sans-Serif" font-size="11.00" fill="#000000">...</text>
<polygon fill="#ffffff" stroke="transparent" points="283,-323.2 283,-342.2 359,-342.2 359,-323.2 283,-323.2"/>
<polygon fill="none" stroke="#000000" points="283,-323.2 283,-342.2 359,-342.2 359,-323.2 283,-323.2"/>
<text text-anchor="start" x="286" y="-329.3" font-family="Helvetica,sans-Serif" font-size="11.00" fill="#000000">&lt; 1</text>
<polygon fill="#ffffff" stroke="transparent" points="359,-323.2 359,-342.2 399,-342.2 399,-323.2 359,-323.2"/>
<polygon fill="none" stroke="#000000" points="359,-323.2 359,-342.2 399,-342.2 399,-323.2 359,-323.2"/>
<text text-anchor="start" x="389.8862" y="-329.3" font-family="Helvetica,sans-Serif" font-size="11.00" fill="#000000"> &#160;</text>
<polygon fill="#ffffff" stroke="transparent" points="399,-323.2 399,-342.2 439,-342.2 439,-323.2 399,-323.2"/>
<polygon fill="none" stroke="#000000" points="399,-323.2 399,-342.2 439,-342.2 439,-323.2 399,-323.2"/>
<text text-anchor="start" x="429.8862" y="-329.3" font-family="Helvetica,sans-Serif" font-size="11.00" fill="#000000"> &#160;</text>
</a>
</g>
</g>
<!-- reference_data -->
<g id="node2" class="node">
<title>reference_data</title>
<g id="a_node2"><a xlink:href="../../tables/reference_data.html" xlink:title="reference_data" target="_top">
<polygon fill="#ffffff" stroke="transparent" points="8,-38.2 8,-194.2 222,-194.2 222,-38.2 8,-38.2"/>
<polygon fill="#f5f5f5" stroke="transparent" points="10,-169.2 10,-192.2 220,-192.2 220,-169.2 10,-169.2"/>
<polygon fill="none" stroke="#000000" points="10,-169.2 10,-192.2 220,-192.2 220,-169.2 10,-169.2"/>
<text text-anchor="start" x="15" y="-177.8" font-family="Helvetica,sans-Serif" font-weight="bold" font-size="11.00" fill="#000000">reference_data</text>
<text text-anchor="start" x="185.0437" y="-177.3" font-family="Helvetica,sans-Serif" font-size="11.00" fill="#000000">[table]</text>
<polygon fill="none" stroke="#000000" points="10,-147.2 10,-169.2 153,-169.2 153,-147.2 10,-147.2"/>
<image xlink:href="../../images/primaryKeys.png" width="11px" height="12px" preserveAspectRatio="xMinYMin meet" x="15" y="-164.2"/>
<text text-anchor="start" x="30" y="-154.3" font-family="Helvetica,sans-Serif" font-size="11.00" fill="#000000">id</text>
<polygon fill="none" stroke="#000000" points="153,-147.2 153,-169.2 220,-169.2 220,-147.2 153,-147.2"/>
<text text-anchor="start" x="156" y="-154.9" font-family="Helvetica,sans-Serif" font-size="11.00" fill="#000000">bigserial[19]</text>
<polygon fill="#ffffff" stroke="transparent" points="10,-125.2 10,-147.2 153,-147.2 153,-125.2 10,-125.2"/>
<polygon fill="none" stroke="#000000" points="10,-125.2 10,-147.2 153,-147.2 153,-125.2 10,-125.2"/>
<text text-anchor="start" x="30" y="-132.3" font-family="Helvetica,sans-Serif" font-size="11.00" fill="#000000">domain</text>
<polygon fill="none" stroke="#000000" points="153,-125.2 153,-147.2 220,-147.2 220,-125.2 153,-125.2"/>
<text text-anchor="start" x="156" y="-132.9" font-family="Helvetica,sans-Serif" font-size="11.00" fill="#000000">varchar[32]</text>
<polygon fill="#ffffff" stroke="transparent" points="10,-103.2 10,-125.2 153,-125.2 153,-103.2 10,-103.2"/>
<polygon fill="none" stroke="#000000" points="10,-103.2 10,-125.2 153,-125.2 153,-103.2 10,-103.2"/>
<text text-anchor="start" x="30" y="-110.3" font-family="Helvetica,sans-Serif" font-size="11.00" fill="#000000">code</text>
<polygon fill="none" stroke="#000000" points="153,-103.2 153,-125.2 220,-125.2 220,-103.2 153,-103.2"/>
<text text-anchor="start" x="156" y="-110.9" font-family="Helvetica,sans-Serif" font-size="11.00" fill="#000000">varchar[32]</text>
<polygon fill="none" stroke="#000000" points="10,-81.2 10,-103.2 153,-103.2 153,-81.2 10,-81.2"/>
<text text-anchor="start" x="30" y="-88.3" font-family="Helvetica,sans-Serif" font-size="11.00" fill="#000000">description</text>
<polygon fill="none" stroke="#000000" points="153,-81.2 153,-103.2 220,-103.2 220,-81.2 153,-81.2"/>
<text text-anchor="start" x="155.9365" y="-88.9" font-family="Helvetica,sans-Serif" font-size="11.00" fill="#000000">varchar[128]</text>
<polygon fill="#ffffff" stroke="transparent" points="10,-59.2 10,-81.2 153,-81.2 153,-59.2 10,-59.2"/>
<polygon fill="none" stroke="#000000" points="10,-59.2 10,-81.2 153,-81.2 153,-59.2 10,-59.2"/>
<text text-anchor="start" x="30" y="-66.3" font-family="Helvetica,sans-Serif" font-size="11.00" fill="#000000">sequence_number</text>
<polygon fill="none" stroke="#000000" points="153,-59.2 153,-81.2 220,-81.2 220,-59.2 153,-59.2"/>
<text text-anchor="start" x="156" y="-66.9" font-family="Helvetica,sans-Serif" font-size="11.00" fill="#000000">int4[10]</text>
<polygon fill="#ffffff" stroke="transparent" points="10,-40.2 10,-59.2 86,-59.2 86,-40.2 10,-40.2"/>
<polygon fill="none" stroke="#000000" points="10,-40.2 10,-59.2 86,-59.2 86,-40.2 10,-40.2"/>
<text text-anchor="start" x="13" y="-46.3" font-family="Helvetica,sans-Serif" font-size="11.00" fill="#000000">&lt; 0</text>
<polygon fill="#ffffff" stroke="transparent" points="86,-40.2 86,-59.2 153,-59.2 153,-40.2 86,-40.2"/>
<polygon fill="none" stroke="#000000" points="86,-40.2 86,-59.2 153,-59.2 153,-40.2 86,-40.2"/>
<text text-anchor="start" x="143.8862" y="-46.3" font-family="Helvetica,sans-Serif" font-size="11.00" fill="#000000"> &#160;</text>
<polygon fill="#ffffff" stroke="transparent" points="153,-40.2 153,-59.2 220,-59.2 220,-40.2 153,-40.2"/>
<polygon fill="none" stroke="#000000" points="153,-40.2 153,-59.2 220,-59.2 220,-40.2 153,-40.2"/>
<text text-anchor="start" x="201.4053" y="-46.3" font-family="Helvetica,sans-Serif" font-size="11.00" fill="#000000">3 &gt;</text>
<polygon fill="none" stroke="#000000" stroke-width="2" points="9,-39.2 9,-193.2 221,-193.2 221,-39.2 9,-39.2"/>
</a>
</g>
</g>
<!-- key_worker&#45;&gt;reference_data -->
<g id="edge1" class="edge">
<title>key_worker:w&#45;&gt;reference_data:e</title>
<path fill="none" stroke="#000000" d="M268.3239,-370.2181C198.4272,-348.6444 313.5312,-158.2 220,-158.2"/>
<polygon fill="#000000" stroke="#000000" points="275.072,-371.1293 282.5182,-375.7676 279.036,-371.6647 283,-372.2 283,-372.2 283,-372.2 279.036,-371.6647 283.4818,-368.6324 275.072,-371.1293 275.072,-371.1293"/>
<ellipse fill="none" stroke="#000000" cx="271.9007" cy="-370.7011" rx="3.2" ry="3.2"/>
</g>
<!-- offender_key_worker -->
<g id="node3" class="node">
<title>offender_key_worker</title>
<g id="a_node3"><a xlink:href="../../tables/offender_key_worker.html" xlink:title="offender_key_worker" target="_top">
<polygon fill="#ffffff" stroke="transparent" points="271,-87.7 271,-302.7 451,-302.7 451,-87.7 271,-87.7"/>
<polygon fill="#f5f5f5" stroke="transparent" points="271,-279.2 271,-302.2 451,-302.2 451,-279.2 271,-279.2"/>
<polygon fill="none" stroke="#000000" points="271,-279.2 271,-302.2 451,-302.2 451,-279.2 271,-279.2"/>
<text text-anchor="start" x="276" y="-287.8" font-family="Helvetica,sans-Serif" font-weight="bold" font-size="11.00" fill="#000000">offender_key_worker</text>
<text text-anchor="start" x="416.5219" y="-287.3" font-family="Helvetica,sans-Serif" font-size="11.00" fill="#000000">[table]</text>
<polygon fill="none" stroke="#000000" points="271,-257.2 271,-279.2 451,-279.2 451,-257.2 271,-257.2"/>
<image xlink:href="../../images/primaryKeys.png" width="11px" height="12px" preserveAspectRatio="xMinYMin meet" x="276" y="-274.2"/>
<text text-anchor="start" x="294" y="-264.3" font-family="Helvetica,sans-Serif" font-size="11.00" fill="#000000">offender_keyworker_id</text>
<polygon fill="#ffffff" stroke="transparent" points="271,-235.2 271,-257.2 451,-257.2 451,-235.2 271,-235.2"/>
<polygon fill="none" stroke="#000000" points="271,-235.2 271,-257.2 451,-257.2 451,-235.2 271,-235.2"/>
<text text-anchor="start" x="294" y="-242.3" font-family="Helvetica,sans-Serif" font-size="11.00" fill="#000000">offender_no</text>
<polygon fill="#ffffff" stroke="transparent" points="271,-213.2 271,-235.2 451,-235.2 451,-213.2 271,-213.2"/>
<polygon fill="none" stroke="#000000" points="271,-213.2 271,-235.2 451,-235.2 451,-213.2 271,-213.2"/>
<text text-anchor="start" x="294" y="-220.3" font-family="Helvetica,sans-Serif" font-size="11.00" fill="#000000">staff_id</text>
<polygon fill="#ffffff" stroke="transparent" points="271,-191.2 271,-213.2 451,-213.2 451,-191.2 271,-191.2"/>
<polygon fill="none" stroke="#000000" points="271,-191.2 271,-213.2 451,-213.2 451,-191.2 271,-191.2"/>
<text text-anchor="start" x="294" y="-198.3" font-family="Helvetica,sans-Serif" font-size="11.00" fill="#000000">assigned_date_time</text>
<polygon fill="#ffffff" stroke="transparent" points="271,-169.2 271,-191.2 451,-191.2 451,-169.2 271,-169.2"/>
<polygon fill="none" stroke="#000000" points="271,-169.2 271,-191.2 451,-191.2 451,-169.2 271,-169.2"/>
<image xlink:href="../../images/foreignKeys.png" width="11px" height="12px" preserveAspectRatio="xMinYMin meet" x="276" y="-186.2"/>
<text text-anchor="start" x="294" y="-176.3" font-family="Helvetica,sans-Serif" font-size="11.00" fill="#000000">prison_id</text>
<polygon fill="none" stroke="#000000" points="271,-147.2 271,-169.2 451,-169.2 451,-147.2 271,-147.2"/>
<image xlink:href="../../images/foreignKeys.png" width="11px" height="12px" preserveAspectRatio="xMinYMin meet" x="276" y="-164.2"/>
<text text-anchor="start" x="294" y="-154.3" font-family="Helvetica,sans-Serif" font-size="11.00" fill="#000000">allocation_reason_id</text>
<polygon fill="none" stroke="#000000" points="271,-125.2 271,-147.2 451,-147.2 451,-125.2 271,-125.2"/>
<image xlink:href="../../images/foreignKeys.png" width="11px" height="12px" preserveAspectRatio="xMinYMin meet" x="276" y="-142.2"/>
<text text-anchor="start" x="294" y="-132.3" font-family="Helvetica,sans-Serif" font-size="11.00" fill="#000000">deallocation_reason_id</text>
<polygon fill="none" stroke="#000000" points="271,-106.2 271,-125.2 451,-125.2 451,-106.2 271,-106.2"/>
<text text-anchor="start" x="274" y="-112.3" font-family="Helvetica,sans-Serif" font-size="11.00" fill="#000000">...</text>
<polygon fill="#ffffff" stroke="transparent" points="271,-87.2 271,-106.2 359,-106.2 359,-87.2 271,-87.2"/>
<polygon fill="none" stroke="#000000" points="271,-87.2 271,-106.2 359,-106.2 359,-87.2 271,-87.2"/>
<text text-anchor="start" x="274" y="-93.3" font-family="Helvetica,sans-Serif" font-size="11.00" fill="#000000">&lt; 2</text>
<polygon fill="#ffffff" stroke="transparent" points="359,-87.2 359,-106.2 405,-106.2 405,-87.2 359,-87.2"/>
<polygon fill="none" stroke="#000000" points="359,-87.2 359,-106.2 405,-106.2 405,-87.2 359,-87.2"/>
<text text-anchor="start" x="395.8862" y="-93.3" font-family="Helvetica,sans-Serif" font-size="11.00" fill="#000000"> &#160;</text>
<polygon fill="#ffffff" stroke="transparent" points="405,-87.2 405,-106.2 451,-106.2 451,-87.2 405,-87.2"/>
<polygon fill="none" stroke="#000000" points="405,-87.2 405,-106.2 451,-106.2 451,-87.2 405,-87.2"/>
<text text-anchor="start" x="441.8862" y="-93.3" font-family="Helvetica,sans-Serif" font-size="11.00" fill="#000000"> &#160;</text>
</a>
</g>
</g>
<!-- offender_key_worker&#45;&gt;reference_data -->
<g id="edge2" class="edge">
<title>offender_key_worker:w&#45;&gt;reference_data:e</title>
<path fill="none" stroke="#000000" d="M256.276,-158.2C244.2815,-158.2 236.8229,-158.2 220,-158.2"/>
<polygon fill="#000000" stroke="#000000" points="263,-158.2001 271,-161.8 267,-158.2 271,-158.2 271,-158.2 271,-158.2 267,-158.2 271,-154.6 263,-158.2001 263,-158.2001"/>
<ellipse fill="none" stroke="#000000" cx="259.8" cy="-158.2001" rx="3.2" ry="3.2"/>
</g>
<!-- offender_key_worker&#45;&gt;reference_data -->
<g id="edge3" class="edge">
<title>offender_key_worker:w&#45;&gt;reference_data:e</title>
<path fill="none" stroke="#000000" d="M256.8489,-139.259C244.2843,-145.304 238.9,-158.2 220,-158.2"/>
<polygon fill="#000000" stroke="#000000" points="263.1806,-137.8903 271.7607,-139.7187 267.0903,-137.0452 271,-136.2 271,-136.2 271,-136.2 267.0903,-137.0452 270.2393,-132.6813 263.1806,-137.8903 263.1806,-137.8903"/>
<ellipse fill="none" stroke="#000000" cx="260.0528" cy="-138.5665" rx="3.2" ry="3.2"/>
</g>
</g>
</svg>
