<?xml version="1.0" encoding="UTF-8" standalone="no"?>
<!DOCTYPE svg PUBLIC "-//W3C//DTD SVG 1.1//EN"
 "http://www.w3.org/Graphics/SVG/1.1/DTD/svg11.dtd">
<!-- Generated by graphviz version 2.40.1 (20161225.0304)
 -->
<!-- Title: twoDegreesRelationshipsDiagramImplied Pages: 1 -->
<svg width="532pt" height="961pt"
 viewBox="0.00 0.00 532.00 961.20" xmlns="http://www.w3.org/2000/svg" xmlns:xlink="http://www.w3.org/1999/xlink">
<g id="graph0" class="graph" transform="scale(1 1) rotate(0) translate(4 957.2)">
<title>twoDegreesRelationshipsDiagramImplied</title>
<polygon fill="#ffffff" stroke="transparent" points="-4,4 -4,-957.2 528,-957.2 528,4 -4,4"/>
<text text-anchor="middle" x="72.4936" y="-7.3" font-family="Helvetica,sans-Serif" font-size="11.00" fill="#000000">Generated by SchemaSpy</text>
<!-- allocation -->
<g id="node1" class="node">
<title>allocation</title>
<g id="a_node1"><a xlink:href="../../tables/allocation.html" xlink:title="allocation" target="_top">
<polygon fill="#ffffff" stroke="transparent" points="305.5,-806.2 305.5,-867.2 410.5,-867.2 410.5,-806.2 305.5,-806.2"/>
<polygon fill="#f5f5f5" stroke="transparent" points="306,-843.7 306,-866.7 411,-866.7 411,-843.7 306,-843.7"/>
<polygon fill="none" stroke="#000000" points="306,-843.7 306,-866.7 411,-866.7 411,-843.7 306,-843.7"/>
<text text-anchor="start" x="311" y="-852.3" font-family="Helvetica,sans-Serif" font-weight="bold" font-size="11.00" fill="#000000">allocation</text>
<text text-anchor="start" x="376.5219" y="-851.8" font-family="Helvetica,sans-Serif" font-size="11.00" fill="#000000">[table]</text>
<polygon fill="none" stroke="#000000" points="306,-824.7 306,-843.7 411,-843.7 411,-824.7 306,-824.7"/>
<text text-anchor="start" x="309" y="-830.8" font-family="Helvetica,sans-Serif" font-size="11.00" fill="#000000">...</text>
<polygon fill="#ffffff" stroke="transparent" points="306,-805.7 306,-824.7 357,-824.7 357,-805.7 306,-805.7"/>
<polygon fill="none" stroke="#000000" points="306,-805.7 306,-824.7 357,-824.7 357,-805.7 306,-805.7"/>
<text text-anchor="start" x="309" y="-811.8" font-family="Helvetica,sans-Serif" font-size="11.00" fill="#000000">&lt; 3</text>
<polygon fill="#ffffff" stroke="transparent" points="357,-805.7 357,-824.7 384,-824.7 384,-805.7 357,-805.7"/>
<polygon fill="none" stroke="#000000" points="357,-805.7 357,-824.7 384,-824.7 384,-805.7 357,-805.7"/>
<text text-anchor="start" x="374.8862" y="-811.8" font-family="Helvetica,sans-Serif" font-size="11.00" fill="#000000"> &#160;</text>
<polygon fill="#ffffff" stroke="transparent" points="384,-805.7 384,-824.7 411,-824.7 411,-805.7 384,-805.7"/>
<polygon fill="none" stroke="#000000" points="384,-805.7 384,-824.7 411,-824.7 411,-805.7 384,-805.7"/>
<text text-anchor="start" x="401.8862" y="-811.8" font-family="Helvetica,sans-Serif" font-size="11.00" fill="#000000"> &#160;</text>
</a>
</g>
</g>
<!-- reference_data -->
<g id="node2" class="node">
<title>reference_data</title>
<g id="a_node2"><a xlink:href="../../tables/reference_data.html" xlink:title="reference_data" target="_top">
<polygon fill="#ffffff" stroke="transparent" points="8,-719.2 8,-868.2 151,-868.2 151,-719.2 8,-719.2"/>
<polygon fill="#f5f5f5" stroke="transparent" points="8.5,-844.7 8.5,-867.7 151.5,-867.7 151.5,-844.7 8.5,-844.7"/>
<polygon fill="none" stroke="#000000" points="8.5,-844.7 8.5,-867.7 151.5,-867.7 151.5,-844.7 8.5,-844.7"/>
<text text-anchor="start" x="13.5" y="-853.3" font-family="Helvetica,sans-Serif" font-weight="bold" font-size="11.00" fill="#000000">reference_data</text>
<text text-anchor="start" x="116.5437" y="-852.8" font-family="Helvetica,sans-Serif" font-size="11.00" fill="#000000">[table]</text>
<polygon fill="none" stroke="#000000" points="8.5,-822.7 8.5,-844.7 151.5,-844.7 151.5,-822.7 8.5,-822.7"/>
<image xlink:href="../../images/primaryKeys.png" width="11px" height="12px" preserveAspectRatio="xMinYMin meet" x="13.5" y="-839.7"/>
<text text-anchor="start" x="28.5" y="-829.8" font-family="Helvetica,sans-Serif" font-size="11.00" fill="#000000">id</text>
<polygon fill="#ffffff" stroke="transparent" points="8.5,-800.7 8.5,-822.7 151.5,-822.7 151.5,-800.7 8.5,-800.7"/>
<polygon fill="none" stroke="#000000" points="8.5,-800.7 8.5,-822.7 151.5,-822.7 151.5,-800.7 8.5,-800.7"/>
<text text-anchor="start" x="28.5" y="-807.8" font-family="Helvetica,sans-Serif" font-size="11.00" fill="#000000">domain</text>
<polygon fill="#ffffff" stroke="transparent" points="8.5,-778.7 8.5,-800.7 151.5,-800.7 151.5,-778.7 8.5,-778.7"/>
<polygon fill="none" stroke="#000000" points="8.5,-778.7 8.5,-800.7 151.5,-800.7 151.5,-778.7 8.5,-778.7"/>
<text text-anchor="start" x="28.5" y="-785.8" font-family="Helvetica,sans-Serif" font-size="11.00" fill="#000000">code</text>
<polygon fill="#ffffff" stroke="transparent" points="8.5,-756.7 8.5,-778.7 151.5,-778.7 151.5,-756.7 8.5,-756.7"/>
<polygon fill="none" stroke="#000000" points="8.5,-756.7 8.5,-778.7 151.5,-778.7 151.5,-756.7 8.5,-756.7"/>
<text text-anchor="start" x="28.5" y="-763.8" font-family="Helvetica,sans-Serif" font-size="11.00" fill="#000000">sequence_number</text>
<polygon fill="none" stroke="#000000" points="8.5,-737.7 8.5,-756.7 151.5,-756.7 151.5,-737.7 8.5,-737.7"/>
<text text-anchor="start" x="11.5" y="-743.8" font-family="Helvetica,sans-Serif" font-size="11.00" fill="#000000">...</text>
<polygon fill="#ffffff" stroke="transparent" points="8.5,-718.7 8.5,-737.7 69.5,-737.7 69.5,-718.7 8.5,-718.7"/>
<polygon fill="none" stroke="#000000" points="8.5,-718.7 8.5,-737.7 69.5,-737.7 69.5,-718.7 8.5,-718.7"/>
<text text-anchor="start" x="11.5" y="-724.8" font-family="Helvetica,sans-Serif" font-size="11.00" fill="#000000"> &#160;</text>
<polygon fill="#ffffff" stroke="transparent" points="69.5,-718.7 69.5,-737.7 105.5,-737.7 105.5,-718.7 69.5,-718.7"/>
<polygon fill="none" stroke="#000000" points="69.5,-718.7 69.5,-737.7 105.5,-737.7 105.5,-718.7 69.5,-718.7"/>
<text text-anchor="start" x="96.3862" y="-724.8" font-family="Helvetica,sans-Serif" font-size="11.00" fill="#000000"> &#160;</text>
<polygon fill="#ffffff" stroke="transparent" points="105.5,-718.7 105.5,-737.7 151.5,-737.7 151.5,-718.7 105.5,-718.7"/>
<polygon fill="none" stroke="#000000" points="105.5,-718.7 105.5,-737.7 151.5,-737.7 151.5,-718.7 105.5,-718.7"/>
<text text-anchor="start" x="132.9053" y="-724.8" font-family="Helvetica,sans-Serif" font-size="11.00" fill="#000000">6 &gt;</text>
</a>
</g>
</g>
<!-- allocation&#45;&gt;reference_data -->
<g id="edge1" class="edge">
<title>allocation:w&#45;&gt;reference_data:e</title>
<path fill="none" stroke="#000000" d="M291.5199,-832.4632C234.5015,-827.7331 215.0703,-828.1453 151.5,-833.7"/>
<polygon fill="#000000" stroke="#000000" points="298.029,-833.0191 305.6936,-837.2869 302.0145,-833.3596 306,-833.7 306,-833.7 306,-833.7 302.0145,-833.3596 306.3064,-830.1131 298.029,-833.0191 298.029,-833.0191"/>
<ellipse fill="none" stroke="#000000" cx="294.8406" cy="-832.7468" rx="3.2" ry="3.2"/>
</g>
<!-- allocation&#45;&gt;reference_data -->
<g id="edge2" class="edge">
<title>allocation:w&#45;&gt;reference_data:e</title>
<path fill="none" stroke="#000000" d="M291.5199,-835.1429C234.5015,-840.6614 215.0703,-840.1805 151.5,-833.7"/>
<polygon fill="#000000" stroke="#000000" points="298.0394,-834.4933 306.357,-837.2823 302.0197,-834.0967 306,-833.7 306,-833.7 306,-833.7 302.0197,-834.0967 305.643,-830.1177 298.0394,-834.4933 298.0394,-834.4933"/>
<ellipse fill="none" stroke="#000000" cx="294.8552" cy="-834.8106" rx="3.2" ry="3.2"/>
</g>
<!-- policy -->
<g id="node3" class="node">
<title>policy</title>
<g id="a_node3"><a xlink:href="../../tables/policy.html" xlink:title="policy" target="_top">
<polygon fill="#ffffff" stroke="transparent" points="31,-386.2 31,-469.2 128,-469.2 128,-386.2 31,-386.2"/>
<polygon fill="#f5f5f5" stroke="transparent" points="31.5,-445.7 31.5,-468.7 128.5,-468.7 128.5,-445.7 31.5,-445.7"/>
<polygon fill="none" stroke="#000000" points="31.5,-445.7 31.5,-468.7 128.5,-468.7 128.5,-445.7 31.5,-445.7"/>
<text text-anchor="start" x="36.5" y="-454.3" font-family="Helvetica,sans-Serif" font-weight="bold" font-size="11.00" fill="#000000">policy</text>
<text text-anchor="start" x="93.5437" y="-453.8" font-family="Helvetica,sans-Serif" font-size="11.00" fill="#000000">[table]</text>
<polygon fill="none" stroke="#000000" points="31.5,-423.7 31.5,-445.7 128.5,-445.7 128.5,-423.7 31.5,-423.7"/>
<image xlink:href="../../images/primaryKeys.png" width="11px" height="12px" preserveAspectRatio="xMinYMin meet" x="36.5" y="-440.7"/>
<text text-anchor="start" x="51.5" y="-430.8" font-family="Helvetica,sans-Serif" font-size="11.00" fill="#000000">code</text>
<polygon fill="none" stroke="#000000" points="31.5,-404.7 31.5,-423.7 128.5,-423.7 128.5,-404.7 31.5,-404.7"/>
<text text-anchor="start" x="34.5" y="-410.8" font-family="Helvetica,sans-Serif" font-size="11.00" fill="#000000">...</text>
<polygon fill="#ffffff" stroke="transparent" points="31.5,-385.7 31.5,-404.7 66.5,-404.7 66.5,-385.7 31.5,-385.7"/>
<polygon fill="none" stroke="#000000" points="31.5,-385.7 31.5,-404.7 66.5,-404.7 66.5,-385.7 31.5,-385.7"/>
<text text-anchor="start" x="34.5" y="-391.8" font-family="Helvetica,sans-Serif" font-size="11.00" fill="#000000"> &#160;</text>
<polygon fill="#ffffff" stroke="transparent" points="66.5,-385.7 66.5,-404.7 89.5,-404.7 89.5,-385.7 66.5,-385.7"/>
<polygon fill="none" stroke="#000000" points="66.5,-385.7 66.5,-404.7 89.5,-404.7 89.5,-385.7 66.5,-385.7"/>
<text text-anchor="start" x="80.3862" y="-391.8" font-family="Helvetica,sans-Serif" font-size="11.00" fill="#000000"> &#160;</text>
<polygon fill="#ffffff" stroke="transparent" points="89.5,-385.7 89.5,-404.7 128.5,-404.7 128.5,-385.7 89.5,-385.7"/>
<polygon fill="none" stroke="#000000" points="89.5,-385.7 89.5,-404.7 128.5,-404.7 128.5,-385.7 89.5,-385.7"/>
<text text-anchor="start" x="103.7904" y="-391.8" font-family="Helvetica,sans-Serif" font-size="11.00" fill="#000000">10 &gt;</text>
</a>
</g>
</g>
<!-- allocation&#45;&gt;policy -->
<g id="edge3" class="edge">
<title>allocation:w&#45;&gt;policy:e</title>
<path fill="none" stroke="#000000" d="M291.3948,-833.7275C247.5866,-833.7755 223.539,-832.2761 192,-795.7 138.808,-734.0126 209.9538,-434.7 128.5,-434.7"/>
<polygon fill="#000000" stroke="#000000" points="298,-833.7151 306.0068,-837.3 302,-833.7076 306,-833.7 306,-833.7 306,-833.7 302,-833.7076 305.9932,-830.1 298,-833.7151 298,-833.7151"/>
<ellipse fill="none" stroke="#000000" cx="294.8" cy="-833.7212" rx="3.2" ry="3.2"/>
</g>
<!-- allocation_audit -->
<g id="node4" class="node">
<title>allocation_audit</title>
<g id="a_node4"><a xlink:href="../../tables/allocation_audit.html" xlink:title="allocation_audit" target="_top">
<polygon fill="#ffffff" stroke="transparent" points="285,-120.2 285,-181.2 431,-181.2 431,-120.2 285,-120.2"/>
<polygon fill="#f5f5f5" stroke="transparent" points="285,-157.7 285,-180.7 431,-180.7 431,-157.7 285,-157.7"/>
<polygon fill="none" stroke="#000000" points="285,-157.7 285,-180.7 431,-180.7 431,-157.7 285,-157.7"/>
<text text-anchor="start" x="290" y="-166.3" font-family="Helvetica,sans-Serif" font-weight="bold" font-size="11.00" fill="#000000">allocation_audit</text>
<text text-anchor="start" x="396.5219" y="-165.8" font-family="Helvetica,sans-Serif" font-size="11.00" fill="#000000">[table]</text>
<polygon fill="none" stroke="#000000" points="285,-138.7 285,-157.7 431,-157.7 431,-138.7 285,-138.7"/>
<text text-anchor="start" x="288" y="-144.8" font-family="Helvetica,sans-Serif" font-size="11.00" fill="#000000">...</text>
<polygon fill="#ffffff" stroke="transparent" points="285,-119.7 285,-138.7 356,-138.7 356,-119.7 285,-119.7"/>
<polygon fill="none" stroke="#000000" points="285,-119.7 285,-138.7 356,-138.7 356,-119.7 285,-119.7"/>
<text text-anchor="start" x="288" y="-125.8" font-family="Helvetica,sans-Serif" font-size="11.00" fill="#000000">&lt; 3</text>
<polygon fill="#ffffff" stroke="transparent" points="356,-119.7 356,-138.7 393,-138.7 393,-119.7 356,-119.7"/>
<polygon fill="none" stroke="#000000" points="356,-119.7 356,-138.7 393,-138.7 393,-119.7 356,-119.7"/>
<text text-anchor="start" x="383.8862" y="-125.8" font-family="Helvetica,sans-Serif" font-size="11.00" fill="#000000"> &#160;</text>
<polygon fill="#ffffff" stroke="transparent" points="393,-119.7 393,-138.7 431,-138.7 431,-119.7 393,-119.7"/>
<polygon fill="none" stroke="#000000" points="393,-119.7 393,-138.7 431,-138.7 431,-119.7 393,-119.7"/>
<text text-anchor="start" x="421.8862" y="-125.8" font-family="Helvetica,sans-Serif" font-size="11.00" fill="#000000"> &#160;</text>
</a>
</g>
</g>
<!-- allocation_audit&#45;&gt;policy -->
<g id="edge4" class="edge">
<title>allocation_audit:w&#45;&gt;policy:e</title>
<path fill="none" stroke="#000000" stroke-dasharray="5,2" d="M270.468,-148.0643C235.0334,-150.0324 217.8792,-160.487 192,-191.7 120.7526,-277.632 240.1266,-434.7 128.5,-434.7"/>
<polygon fill="#000000" stroke="#000000" points="277.0025,-147.9006 285.0903,-151.2989 281.0013,-147.8003 285,-147.7 285,-147.7 285,-147.7 281.0013,-147.8003 284.9097,-144.1011 277.0025,-147.9006 277.0025,-147.9006"/>
<ellipse fill="none" stroke="#000000" cx="273.8035" cy="-147.9808" rx="3.2" ry="3.2"/>
</g>
<!-- prison_configuration -->
<g id="node5" class="node">
<title>prison_configuration</title>
<g id="a_node5"><a xlink:href="../../tables/prison_configuration.html" xlink:title="prison_configuration" target="_top">
<polygon fill="#ffffff" stroke="transparent" points="269,-38.2 269,-99.2 447,-99.2 447,-38.2 269,-38.2"/>
<polygon fill="#f5f5f5" stroke="transparent" points="269,-75.7 269,-98.7 447,-98.7 447,-75.7 269,-75.7"/>
<polygon fill="none" stroke="#000000" points="269,-75.7 269,-98.7 447,-98.7 447,-75.7 269,-75.7"/>
<text text-anchor="start" x="274" y="-84.3" font-family="Helvetica,sans-Serif" font-weight="bold" font-size="11.00" fill="#000000">prison_configuration</text>
<text text-anchor="start" x="412.5219" y="-83.8" font-family="Helvetica,sans-Serif" font-size="11.00" fill="#000000">[table]</text>
<polygon fill="none" stroke="#000000" points="269,-56.7 269,-75.7 447,-75.7 447,-56.7 269,-56.7"/>
<text text-anchor="start" x="272" y="-62.8" font-family="Helvetica,sans-Serif" font-size="11.00" fill="#000000">...</text>
<polygon fill="#ffffff" stroke="transparent" points="269,-37.7 269,-56.7 340,-56.7 340,-37.7 269,-37.7"/>
<polygon fill="none" stroke="#000000" points="269,-37.7 269,-56.7 340,-56.7 340,-37.7 269,-37.7"/>
<text text-anchor="start" x="272" y="-43.8" font-family="Helvetica,sans-Serif" font-size="11.00" fill="#000000">&lt; 1</text>
<polygon fill="#ffffff" stroke="transparent" points="340,-37.7 340,-56.7 409,-56.7 409,-37.7 340,-37.7"/>
<polygon fill="none" stroke="#000000" points="340,-37.7 340,-56.7 409,-56.7 409,-37.7 340,-37.7"/>
<text text-anchor="start" x="367.4956" y="-43.8" font-family="Helvetica,sans-Serif" font-size="11.00" fill="#000000">12 rows</text>
<polygon fill="#ffffff" stroke="transparent" points="409,-37.7 409,-56.7 447,-56.7 447,-37.7 409,-37.7"/>
<polygon fill="none" stroke="#000000" points="409,-37.7 409,-56.7 447,-56.7 447,-37.7 409,-37.7"/>
<text text-anchor="start" x="437.8862" y="-43.8" font-family="Helvetica,sans-Serif" font-size="11.00" fill="#000000"> &#160;</text>
</a>
</g>
</g>
<!-- prison_configuration&#45;&gt;policy -->
<g id="edge5" class="edge">
<title>prison_configuration:w&#45;&gt;policy:e</title>
<path fill="none" stroke="#000000" d="M254.5304,-66.3525C225.5564,-69.2342 211.9241,-81.9269 192,-109.7 106.2102,-229.286 275.6757,-434.7 128.5,-434.7"/>
<polygon fill="#000000" stroke="#000000" points="261.0081,-66.0605 269.1622,-69.2963 265.0041,-65.8802 269,-65.7 269,-65.7 269,-65.7 265.0041,-65.8802 268.8378,-62.1037 261.0081,-66.0605 261.0081,-66.0605"/>
<ellipse fill="none" stroke="#000000" cx="257.8114" cy="-66.2046" rx="3.2" ry="3.2"/>
</g>
<!-- prison_configuration_audit -->
<g id="node6" class="node">
<title>prison_configuration_audit</title>
<g id="a_node6"><a xlink:href="../../tables/prison_configuration_audit.html" xlink:title="prison_configuration_audit" target="_top">
<polygon fill="#ffffff" stroke="transparent" points="248.5,-530.2 248.5,-591.2 467.5,-591.2 467.5,-530.2 248.5,-530.2"/>
<polygon fill="#f5f5f5" stroke="transparent" points="249,-567.7 249,-590.7 468,-590.7 468,-567.7 249,-567.7"/>
<polygon fill="none" stroke="#000000" points="249,-567.7 249,-590.7 468,-590.7 468,-567.7 249,-567.7"/>
<text text-anchor="start" x="254" y="-576.3" font-family="Helvetica,sans-Serif" font-weight="bold" font-size="11.00" fill="#000000">prison_configuration_audit</text>
<text text-anchor="start" x="433.5219" y="-575.8" font-family="Helvetica,sans-Serif" font-size="11.00" fill="#000000">[table]</text>
<polygon fill="none" stroke="#000000" points="249,-548.7 249,-567.7 468,-567.7 468,-548.7 249,-548.7"/>
<text text-anchor="start" x="252" y="-554.8" font-family="Helvetica,sans-Serif" font-size="11.00" fill="#000000">...</text>
<polygon fill="#ffffff" stroke="transparent" points="249,-529.7 249,-548.7 357,-548.7 357,-529.7 249,-529.7"/>
<polygon fill="none" stroke="#000000" points="249,-529.7 249,-548.7 357,-548.7 357,-529.7 249,-529.7"/>
<text text-anchor="start" x="252" y="-535.8" font-family="Helvetica,sans-Serif" font-size="11.00" fill="#000000">&lt; 3</text>
<polygon fill="#ffffff" stroke="transparent" points="357,-529.7 357,-548.7 412,-548.7 412,-529.7 357,-529.7"/>
<polygon fill="none" stroke="#000000" points="357,-529.7 357,-548.7 412,-548.7 412,-529.7 357,-529.7"/>
<text text-anchor="start" x="402.8862" y="-535.8" font-family="Helvetica,sans-Serif" font-size="11.00" fill="#000000"> &#160;</text>
<polygon fill="#ffffff" stroke="transparent" points="412,-529.7 412,-548.7 468,-548.7 468,-529.7 412,-529.7"/>
<polygon fill="none" stroke="#000000" points="412,-529.7 412,-548.7 468,-548.7 468,-529.7 412,-529.7"/>
<text text-anchor="start" x="458.8862" y="-535.8" font-family="Helvetica,sans-Serif" font-size="11.00" fill="#000000"> &#160;</text>
</a>
</g>
</g>
<!-- prison_configuration_audit&#45;&gt;policy -->
<g id="edge6" class="edge">
<title>prison_configuration_audit:w&#45;&gt;policy:e</title>
<path fill="none" stroke="#000000" stroke-dasharray="5,2" d="M234.5887,-556.0568C216.3227,-551.3063 210.0414,-536.7991 192,-519.7 157.7742,-487.2616 175.6556,-434.7 128.5,-434.7"/>
<polygon fill="#000000" stroke="#000000" points="241.0515,-556.7937 248.5921,-561.2768 245.0258,-557.2468 249,-557.7 249,-557.7 249,-557.7 245.0258,-557.2468 249.4079,-554.1232 241.0515,-556.7937 241.0515,-556.7937"/>
<ellipse fill="none" stroke="#000000" cx="237.8721" cy="-556.4311" rx="3.2" ry="3.2"/>
</g>
<!-- prison_statistic -->
<g id="node7" class="node">
<title>prison_statistic</title>
<g id="a_node7"><a xlink:href="../../tables/prison_statistic.html" xlink:title="prison_statistic" target="_top">
<polygon fill="#ffffff" stroke="transparent" points="287,-448.2 287,-509.2 429,-509.2 429,-448.2 287,-448.2"/>
<polygon fill="#f5f5f5" stroke="transparent" points="287,-485.7 287,-508.7 429,-508.7 429,-485.7 287,-485.7"/>
<polygon fill="none" stroke="#000000" points="287,-485.7 287,-508.7 429,-508.7 429,-485.7 287,-485.7"/>
<text text-anchor="start" x="292" y="-494.3" font-family="Helvetica,sans-Serif" font-weight="bold" font-size="11.00" fill="#000000">prison_statistic</text>
<text text-anchor="start" x="394.5219" y="-493.8" font-family="Helvetica,sans-Serif" font-size="11.00" fill="#000000">[table]</text>
<polygon fill="none" stroke="#000000" points="287,-466.7 287,-485.7 429,-485.7 429,-466.7 287,-466.7"/>
<text text-anchor="start" x="290" y="-472.8" font-family="Helvetica,sans-Serif" font-size="11.00" fill="#000000">...</text>
<polygon fill="#ffffff" stroke="transparent" points="287,-447.7 287,-466.7 356,-466.7 356,-447.7 287,-447.7"/>
<polygon fill="none" stroke="#000000" points="287,-447.7 287,-466.7 356,-466.7 356,-447.7 287,-447.7"/>
<text text-anchor="start" x="290" y="-453.8" font-family="Helvetica,sans-Serif" font-size="11.00" fill="#000000">&lt; 1</text>
<polygon fill="#ffffff" stroke="transparent" points="356,-447.7 356,-466.7 392,-466.7 392,-447.7 356,-447.7"/>
<polygon fill="none" stroke="#000000" points="356,-447.7 356,-466.7 392,-466.7 392,-447.7 356,-447.7"/>
<text text-anchor="start" x="382.8862" y="-453.8" font-family="Helvetica,sans-Serif" font-size="11.00" fill="#000000"> &#160;</text>
<polygon fill="#ffffff" stroke="transparent" points="392,-447.7 392,-466.7 429,-466.7 429,-447.7 392,-447.7"/>
<polygon fill="none" stroke="#000000" points="392,-447.7 392,-466.7 429,-466.7 429,-447.7 392,-447.7"/>
<text text-anchor="start" x="419.8862" y="-453.8" font-family="Helvetica,sans-Serif" font-size="11.00" fill="#000000"> &#160;</text>
</a>
</g>
</g>
<!-- prison_statistic&#45;&gt;policy -->
<g id="edge7" class="edge">
<title>prison_statistic:w&#45;&gt;policy:e</title>
<path fill="none" stroke="#000000" d="M272.4967,-475.1204C212.1169,-470.1371 196.1469,-434.7 128.5,-434.7"/>
<polygon fill="#000000" stroke="#000000" points="279.0064,-475.3805 286.8562,-479.2971 283.0032,-475.5403 287,-475.7 287,-475.7 287,-475.7 283.0032,-475.5403 287.1438,-472.1029 279.0064,-475.3805 279.0064,-475.3805"/>
<ellipse fill="none" stroke="#000000" cx="275.8089" cy="-475.2527" rx="3.2" ry="3.2"/>
</g>
<!-- reference_data_policy -->
<g id="node8" class="node">
<title>reference_data_policy</title>
<g id="a_node8"><a xlink:href="../../tables/reference_data_policy.html" xlink:title="reference_data_policy" target="_top">
<polygon fill="#ffffff" stroke="transparent" points="241.5,-694.7 241.5,-784.7 474.5,-784.7 474.5,-694.7 241.5,-694.7"/>
<polygon fill="#f5f5f5" stroke="transparent" points="244,-759.7 244,-782.7 473,-782.7 473,-759.7 244,-759.7"/>
<polygon fill="none" stroke="#000000" points="244,-759.7 244,-782.7 473,-782.7 473,-759.7 244,-759.7"/>
<text text-anchor="start" x="249" y="-768.3" font-family="Helvetica,sans-Serif" font-weight="bold" font-size="11.00" fill="#000000">reference_data_policy</text>
<text text-anchor="start" x="438.0437" y="-767.8" font-family="Helvetica,sans-Serif" font-size="11.00" fill="#000000">[table]</text>
<polygon fill="#ffffff" stroke="transparent" points="244,-737.7 244,-759.7 412,-759.7 412,-737.7 244,-737.7"/>
<polygon fill="none" stroke="#000000" points="244,-737.7 244,-759.7 412,-759.7 412,-737.7 244,-737.7"/>
<image xlink:href="../../images/foreignKeys.png" width="11px" height="12px" preserveAspectRatio="xMinYMin meet" x="249" y="-754.7"/>
<text text-anchor="start" x="264" y="-744.8" font-family="Helvetica,sans-Serif" font-size="11.00" fill="#000000">id</text>
<polygon fill="none" stroke="#000000" points="412,-737.7 412,-759.7 473,-759.7 473,-737.7 412,-737.7"/>
<text text-anchor="start" x="415" y="-745.4" font-family="Helvetica,sans-Serif" font-size="11.00" fill="#000000">int8[19]</text>
<polygon fill="#ffffff" stroke="transparent" points="244,-715.7 244,-737.7 412,-737.7 412,-715.7 244,-715.7"/>
<polygon fill="none" stroke="#000000" points="244,-715.7 244,-737.7 412,-737.7 412,-715.7 244,-715.7"/>
<image xlink:href="../../images/foreignKeys.png" width="11px" height="12px" preserveAspectRatio="xMinYMin meet" x="249" y="-732.7"/>
<text text-anchor="start" x="264" y="-722.8" font-family="Helvetica,sans-Serif" font-size="11.00" fill="#000000">policy_code</text>
<polygon fill="none" stroke="#000000" points="412,-715.7 412,-737.7 473,-737.7 473,-715.7 412,-715.7"/>
<text text-anchor="start" x="414.994" y="-723.4" font-family="Helvetica,sans-Serif" font-size="11.00" fill="#000000">varchar[16]</text>
<polygon fill="#ffffff" stroke="transparent" points="244,-696.7 244,-715.7 332,-715.7 332,-696.7 244,-696.7"/>
<polygon fill="none" stroke="#000000" points="244,-696.7 244,-715.7 332,-715.7 332,-696.7 244,-696.7"/>
<text text-anchor="start" x="247" y="-702.8" font-family="Helvetica,sans-Serif" font-size="11.00" fill="#000000">&lt; 2</text>
<polygon fill="#ffffff" stroke="transparent" points="332,-696.7 332,-715.7 412,-715.7 412,-696.7 332,-696.7"/>
<polygon fill="none" stroke="#000000" points="332,-696.7 332,-715.7 412,-715.7 412,-696.7 332,-696.7"/>
<text text-anchor="start" x="402.8862" y="-702.8" font-family="Helvetica,sans-Serif" font-size="11.00" fill="#000000"> &#160;</text>
<polygon fill="#ffffff" stroke="transparent" points="412,-696.7 412,-715.7 473,-715.7 473,-696.7 412,-696.7"/>
<polygon fill="none" stroke="#000000" points="412,-696.7 412,-715.7 473,-715.7 473,-696.7 412,-696.7"/>
<text text-anchor="start" x="454.4053" y="-702.8" font-family="Helvetica,sans-Serif" font-size="11.00" fill="#000000">0 &gt;</text>
<polygon fill="none" stroke="#000000" stroke-width="2" points="242.5,-695.7 242.5,-783.7 473.5,-783.7 473.5,-695.7 242.5,-695.7"/>
</a>
</g>
</g>
<!-- reference_data_policy&#45;&gt;reference_data -->
<g id="edge8" class="edge">
<title>reference_data_policy:w&#45;&gt;reference_data:e</title>
<path fill="none" stroke="#000000" d="M229.5968,-751.229C212.7448,-758.2428 210.6189,-778.5536 192,-795.7 173.8435,-812.4205 176.1827,-833.7 151.5,-833.7"/>
<polygon fill="#000000" stroke="#000000" points="236.1205,-750.0836 244.6226,-752.2458 240.0603,-749.3918 244,-748.7 244,-748.7 244,-748.7 240.0603,-749.3918 243.3774,-745.1542 236.1205,-750.0836 236.1205,-750.0836"/>
<ellipse fill="none" stroke="#000000" cx="232.9688" cy="-750.637" rx="3.2" ry="3.2"/>
</g>
<!-- reference_data_policy&#45;&gt;policy -->
<g id="edge9" class="edge">
<title>reference_data_policy:w&#45;&gt;policy:e</title>
<path fill="none" stroke="#000000" d="M229.3399,-725.4616C116.4623,-704.8814 262.7461,-434.7 128.5,-434.7"/>
<polygon fill="#000000" stroke="#000000" points="236.0284,-726.0266 243.6969,-730.2872 240.0142,-726.3633 244,-726.7 244,-726.7 244,-726.7 240.0142,-726.3633 244.3031,-723.1128 236.0284,-726.0266 236.0284,-726.0266"/>
<ellipse fill="none" stroke="#000000" cx="232.8397" cy="-725.7572" rx="3.2" ry="3.2"/>
</g>
<!-- staff_configuration -->
<g id="node9" class="node">
<title>staff_configuration</title>
<g id="a_node9"><a xlink:href="../../tables/staff_configuration.html" xlink:title="staff_configuration" target="_top">
<polygon fill="#ffffff" stroke="transparent" points="274.5,-612.2 274.5,-673.2 441.5,-673.2 441.5,-612.2 274.5,-612.2"/>
<polygon fill="#f5f5f5" stroke="transparent" points="275,-649.7 275,-672.7 442,-672.7 442,-649.7 275,-649.7"/>
<polygon fill="none" stroke="#000000" points="275,-649.7 275,-672.7 442,-672.7 442,-649.7 275,-649.7"/>
<text text-anchor="start" x="280" y="-658.3" font-family="Helvetica,sans-Serif" font-weight="bold" font-size="11.00" fill="#000000">staff_configuration</text>
<text text-anchor="start" x="407.5219" y="-657.8" font-family="Helvetica,sans-Serif" font-size="11.00" fill="#000000">[table]</text>
<polygon fill="none" stroke="#000000" points="275,-630.7 275,-649.7 442,-649.7 442,-630.7 275,-630.7"/>
<text text-anchor="start" x="278" y="-636.8" font-family="Helvetica,sans-Serif" font-size="11.00" fill="#000000">...</text>
<polygon fill="#ffffff" stroke="transparent" points="275,-611.7 275,-630.7 357,-630.7 357,-611.7 275,-611.7"/>
<polygon fill="none" stroke="#000000" points="275,-611.7 275,-630.7 357,-630.7 357,-611.7 275,-611.7"/>
<text text-anchor="start" x="278" y="-617.8" font-family="Helvetica,sans-Serif" font-size="11.00" fill="#000000">&lt; 2</text>
<polygon fill="#ffffff" stroke="transparent" points="357,-611.7 357,-630.7 399,-630.7 399,-611.7 357,-611.7"/>
<polygon fill="none" stroke="#000000" points="357,-611.7 357,-630.7 399,-630.7 399,-611.7 357,-611.7"/>
<text text-anchor="start" x="389.8862" y="-617.8" font-family="Helvetica,sans-Serif" font-size="11.00" fill="#000000"> &#160;</text>
<polygon fill="#ffffff" stroke="transparent" points="399,-611.7 399,-630.7 442,-630.7 442,-611.7 399,-611.7"/>
<polygon fill="none" stroke="#000000" points="399,-611.7 399,-630.7 442,-630.7 442,-611.7 399,-611.7"/>
<text text-anchor="start" x="432.8862" y="-617.8" font-family="Helvetica,sans-Serif" font-size="11.00" fill="#000000"> &#160;</text>
</a>
</g>
</g>
<!-- staff_configuration&#45;&gt;reference_data -->
<g id="edge11" class="edge">
<title>staff_configuration:w&#45;&gt;reference_data:e</title>
<path fill="none" stroke="#000000" d="M260.4543,-640.2842C229.1178,-643.0503 214.7916,-655.9138 192,-684.7 149.4014,-738.5028 220.1249,-833.7 151.5,-833.7"/>
<polygon fill="#000000" stroke="#000000" points="267.0064,-640.0211 275.1445,-643.2971 271.0032,-639.8606 275,-639.7 275,-639.7 275,-639.7 271.0032,-639.8606 274.8555,-636.1029 267.0064,-640.0211 267.0064,-640.0211"/>
<ellipse fill="none" stroke="#000000" cx="263.809" cy="-640.1496" rx="3.2" ry="3.2"/>
</g>
<!-- staff_configuration&#45;&gt;policy -->
<g id="edge10" class="edge">
<title>staff_configuration:w&#45;&gt;policy:e</title>
<path fill="none" stroke="#000000" d="M260.5166,-639.2547C230.4218,-637.1864 216.1521,-627.5009 192,-601.7 137.7338,-543.7292 207.9068,-434.7 128.5,-434.7"/>
<polygon fill="#000000" stroke="#000000" points="267.0038,-639.4541 274.8893,-643.2983 271.0019,-639.577 275,-639.7 275,-639.7 275,-639.7 271.0019,-639.577 275.1107,-636.1017 267.0038,-639.4541 267.0038,-639.4541"/>
<ellipse fill="none" stroke="#000000" cx="263.8053" cy="-639.3557" rx="3.2" ry="3.2"/>
</g>
<!-- staff_configuration_audit -->
<g id="node10" class="node">
<title>staff_configuration_audit</title>
<g id="a_node10"><a xlink:href="../../tables/staff_configuration_audit.html" xlink:title="staff_configuration_audit" target="_top">
<polygon fill="#ffffff" stroke="transparent" points="254,-366.2 254,-427.2 462,-427.2 462,-366.2 254,-366.2"/>
<polygon fill="#f5f5f5" stroke="transparent" points="254,-403.7 254,-426.7 462,-426.7 462,-403.7 254,-403.7"/>
<polygon fill="none" stroke="#000000" points="254,-403.7 254,-426.7 462,-426.7 462,-403.7 254,-403.7"/>
<text text-anchor="start" x="259" y="-412.3" font-family="Helvetica,sans-Serif" font-weight="bold" font-size="11.00" fill="#000000">staff_configuration_audit</text>
<text text-anchor="start" x="427.5219" y="-411.8" font-family="Helvetica,sans-Serif" font-size="11.00" fill="#000000">[table]</text>
<polygon fill="none" stroke="#000000" points="254,-384.7 254,-403.7 462,-403.7 462,-384.7 254,-384.7"/>
<text text-anchor="start" x="257" y="-390.8" font-family="Helvetica,sans-Serif" font-size="11.00" fill="#000000">...</text>
<polygon fill="#ffffff" stroke="transparent" points="254,-365.7 254,-384.7 356,-384.7 356,-365.7 254,-365.7"/>
<polygon fill="none" stroke="#000000" points="254,-365.7 254,-384.7 356,-384.7 356,-365.7 254,-365.7"/>
<text text-anchor="start" x="257" y="-371.8" font-family="Helvetica,sans-Serif" font-size="11.00" fill="#000000">&lt; 2</text>
<polygon fill="#ffffff" stroke="transparent" points="356,-365.7 356,-384.7 409,-384.7 409,-365.7 356,-365.7"/>
<polygon fill="none" stroke="#000000" points="356,-365.7 356,-384.7 409,-384.7 409,-365.7 356,-365.7"/>
<text text-anchor="start" x="399.8862" y="-371.8" font-family="Helvetica,sans-Serif" font-size="11.00" fill="#000000"> &#160;</text>
<polygon fill="#ffffff" stroke="transparent" points="409,-365.7 409,-384.7 462,-384.7 462,-365.7 409,-365.7"/>
<polygon fill="none" stroke="#000000" points="409,-365.7 409,-384.7 462,-384.7 462,-365.7 409,-365.7"/>
<text text-anchor="start" x="452.8862" y="-371.8" font-family="Helvetica,sans-Serif" font-size="11.00" fill="#000000"> &#160;</text>
</a>
</g>
</g>
<!-- staff_configuration_audit&#45;&gt;policy -->
<g id="edge12" class="edge">
<title>staff_configuration_audit:w&#45;&gt;policy:e</title>
<path fill="none" stroke="#000000" stroke-dasharray="5,2" d="M239.3347,-394.6334C193.4501,-400.7362 181.9069,-434.7 128.5,-434.7"/>
<polygon fill="#000000" stroke="#000000" points="246.0162,-394.2082 254.2287,-397.2927 250.0081,-393.9541 254,-393.7 254,-393.7 254,-393.7 250.0081,-393.9541 253.7713,-390.1073 246.0162,-394.2082 246.0162,-394.2082"/>
<ellipse fill="none" stroke="#000000" cx="242.8226" cy="-394.4115" rx="3.2" ry="3.2"/>
</g>
<!-- staff_role -->
<g id="node11" class="node">
<title>staff_role</title>
<g id="a_node11"><a xlink:href="../../tables/staff_role.html" xlink:title="staff_role" target="_top">
<polygon fill="#ffffff" stroke="transparent" points="307,-284.2 307,-345.2 409,-345.2 409,-284.2 307,-284.2"/>
<polygon fill="#f5f5f5" stroke="transparent" points="307,-321.7 307,-344.7 409,-344.7 409,-321.7 307,-321.7"/>
<polygon fill="none" stroke="#000000" points="307,-321.7 307,-344.7 409,-344.7 409,-321.7 307,-321.7"/>
<text text-anchor="start" x="312" y="-330.3" font-family="Helvetica,sans-Serif" font-weight="bold" font-size="11.00" fill="#000000">staff_role</text>
<text text-anchor="start" x="374.5219" y="-329.8" font-family="Helvetica,sans-Serif" font-size="11.00" fill="#000000">[table]</text>
<polygon fill="none" stroke="#000000" points="307,-302.7 307,-321.7 409,-321.7 409,-302.7 307,-302.7"/>
<text text-anchor="start" x="310" y="-308.8" font-family="Helvetica,sans-Serif" font-size="11.00" fill="#000000">...</text>
<polygon fill="#ffffff" stroke="transparent" points="307,-283.7 307,-302.7 356,-302.7 356,-283.7 307,-283.7"/>
<polygon fill="none" stroke="#000000" points="307,-283.7 307,-302.7 356,-302.7 356,-283.7 307,-283.7"/>
<text text-anchor="start" x="310" y="-289.8" font-family="Helvetica,sans-Serif" font-size="11.00" fill="#000000">&lt; 2</text>
<polygon fill="#ffffff" stroke="transparent" points="356,-283.7 356,-302.7 382,-302.7 382,-283.7 356,-283.7"/>
<polygon fill="none" stroke="#000000" points="356,-283.7 356,-302.7 382,-302.7 382,-283.7 356,-283.7"/>
<text text-anchor="start" x="372.8862" y="-289.8" font-family="Helvetica,sans-Serif" font-size="11.00" fill="#000000"> &#160;</text>
<polygon fill="#ffffff" stroke="transparent" points="382,-283.7 382,-302.7 409,-302.7 409,-283.7 382,-283.7"/>
<polygon fill="none" stroke="#000000" points="382,-283.7 382,-302.7 409,-302.7 409,-283.7 382,-283.7"/>
<text text-anchor="start" x="399.8862" y="-289.8" font-family="Helvetica,sans-Serif" font-size="11.00" fill="#000000"> &#160;</text>
</a>
</g>
</g>
<!-- staff_role&#45;&gt;policy -->
<g id="edge13" class="edge">
<title>staff_role:w&#45;&gt;policy:e</title>
<path fill="none" stroke="#000000" stroke-dasharray="5,2" d="M292.5736,-312.0177C249.0197,-314.088 232.0855,-326.4986 192,-355.7 155.5893,-382.2244 173.5476,-434.7 128.5,-434.7"/>
<polygon fill="#000000" stroke="#000000" points="299.0019,-311.8762 307.0793,-315.2991 303.001,-311.7881 307,-311.7 307,-311.7 307,-311.7 303.001,-311.7881 306.9207,-308.1009 299.0019,-311.8762 299.0019,-311.8762"/>
<ellipse fill="none" stroke="#000000" cx="295.8027" cy="-311.9467" rx="3.2" ry="3.2"/>
</g>
<!-- staff_role_audit -->
<g id="node12" class="node">
<title>staff_role_audit</title>
<g id="a_node12"><a xlink:href="../../tables/staff_role_audit.html" xlink:title="staff_role_audit" target="_top">
<polygon fill="#ffffff" stroke="transparent" points="286.5,-202.2 286.5,-263.2 429.5,-263.2 429.5,-202.2 286.5,-202.2"/>
<polygon fill="#f5f5f5" stroke="transparent" points="287,-239.7 287,-262.7 430,-262.7 430,-239.7 287,-239.7"/>
<polygon fill="none" stroke="#000000" points="287,-239.7 287,-262.7 430,-262.7 430,-239.7 287,-239.7"/>
<text text-anchor="start" x="292" y="-248.3" font-family="Helvetica,sans-Serif" font-weight="bold" font-size="11.00" fill="#000000">staff_role_audit</text>
<text text-anchor="start" x="395.5219" y="-247.8" font-family="Helvetica,sans-Serif" font-size="11.00" fill="#000000">[table]</text>
<polygon fill="none" stroke="#000000" points="287,-220.7 287,-239.7 430,-239.7 430,-220.7 287,-220.7"/>
<text text-anchor="start" x="290" y="-226.8" font-family="Helvetica,sans-Serif" font-size="11.00" fill="#000000">...</text>
<polygon fill="#ffffff" stroke="transparent" points="287,-201.7 287,-220.7 357,-220.7 357,-201.7 287,-201.7"/>
<polygon fill="none" stroke="#000000" points="287,-201.7 287,-220.7 357,-220.7 357,-201.7 287,-201.7"/>
<text text-anchor="start" x="290" y="-207.8" font-family="Helvetica,sans-Serif" font-size="11.00" fill="#000000">&lt; 3</text>
<polygon fill="#ffffff" stroke="transparent" points="357,-201.7 357,-220.7 393,-220.7 393,-201.7 357,-201.7"/>
<polygon fill="none" stroke="#000000" points="357,-201.7 357,-220.7 393,-220.7 393,-201.7 357,-201.7"/>
<text text-anchor="start" x="383.8862" y="-207.8" font-family="Helvetica,sans-Serif" font-size="11.00" fill="#000000"> &#160;</text>
<polygon fill="#ffffff" stroke="transparent" points="393,-201.7 393,-220.7 430,-220.7 430,-201.7 393,-201.7"/>
<polygon fill="none" stroke="#000000" points="393,-201.7 393,-220.7 430,-220.7 430,-201.7 393,-201.7"/>
<text text-anchor="start" x="420.8862" y="-207.8" font-family="Helvetica,sans-Serif" font-size="11.00" fill="#000000"> &#160;</text>
</a>
</g>
</g>
<!-- staff_role_audit&#45;&gt;policy -->
<g id="edge14" class="edge">
<title>staff_role_audit:w&#45;&gt;policy:e</title>
<path fill="none" stroke="#000000" stroke-dasharray="5,2" d="M272.2755,-230.1107C236.5251,-232.305 220.316,-243.6902 192,-273.7 139.2111,-329.6466 205.42,-434.7 128.5,-434.7"/>
<polygon fill="#000000" stroke="#000000" points="279.0031,-229.9231 287.1004,-233.2986 283.0016,-229.8115 287,-229.7 287,-229.7 287,-229.7 283.0016,-229.8115 286.8996,-226.1014 279.0031,-229.9231 279.0031,-229.9231"/>
<ellipse fill="none" stroke="#000000" cx="275.8044" cy="-230.0123" rx="3.2" ry="3.2"/>
</g>
<!-- zz_archived_legacy_keyworker_allocation -->
<g id="node13" class="node">
<title>zz_archived_legacy_keyworker_allocation</title>
<g id="a_node13"><a xlink:href="../../tables/zz_archived_legacy_keyworker_allocation.html" xlink:title="zz_archived_legacy_keyworker_allocation" target="_top">
<polygon fill="#ffffff" stroke="transparent" points="200,-888.2 200,-949.2 516,-949.2 516,-888.2 200,-888.2"/>
<polygon fill="#f5f5f5" stroke="transparent" points="200,-925.7 200,-948.7 516,-948.7 516,-925.7 200,-925.7"/>
<polygon fill="none" stroke="#000000" points="200,-925.7 200,-948.7 516,-948.7 516,-925.7 200,-925.7"/>
<text text-anchor="start" x="205" y="-934.3" font-family="Helvetica,sans-Serif" font-weight="bold" font-size="11.00" fill="#000000">zz_archived_legacy_keyworker_allocation</text>
<text text-anchor="start" x="481.5219" y="-933.8" font-family="Helvetica,sans-Serif" font-size="11.00" fill="#000000">[table]</text>
<polygon fill="none" stroke="#000000" points="200,-906.7 200,-925.7 516,-925.7 516,-906.7 200,-906.7"/>
<text text-anchor="start" x="203" y="-912.8" font-family="Helvetica,sans-Serif" font-size="11.00" fill="#000000">...</text>
<polygon fill="#ffffff" stroke="transparent" points="200,-887.7 200,-906.7 356,-906.7 356,-887.7 200,-887.7"/>
<polygon fill="none" stroke="#000000" points="200,-887.7 200,-906.7 356,-906.7 356,-887.7 200,-887.7"/>
<text text-anchor="start" x="203" y="-893.8" font-family="Helvetica,sans-Serif" font-size="11.00" fill="#000000">&lt; 2</text>
<polygon fill="#ffffff" stroke="transparent" points="356,-887.7 356,-906.7 436,-906.7 436,-887.7 356,-887.7"/>
<polygon fill="none" stroke="#000000" points="356,-887.7 356,-906.7 436,-906.7 436,-887.7 356,-887.7"/>
<text text-anchor="start" x="426.8862" y="-893.8" font-family="Helvetica,sans-Serif" font-size="11.00" fill="#000000"> &#160;</text>
<polygon fill="#ffffff" stroke="transparent" points="436,-887.7 436,-906.7 516,-906.7 516,-887.7 436,-887.7"/>
<polygon fill="none" stroke="#000000" points="436,-887.7 436,-906.7 516,-906.7 516,-887.7 436,-887.7"/>
<text text-anchor="start" x="506.8862" y="-893.8" font-family="Helvetica,sans-Serif" font-size="11.00" fill="#000000"> &#160;</text>
</a>
</g>
</g>
<!-- zz_archived_legacy_keyworker_allocation&#45;&gt;reference_data -->
<g id="edge15" class="edge">
<title>zz_archived_legacy_keyworker_allocation:w&#45;&gt;reference_data:e</title>
<path fill="none" stroke="#000000" d="M186.9168,-909.6718C165.8843,-889.471 188.2184,-828.4969 151.5,-833.7"/>
<polygon fill="#000000" stroke="#000000" points="192.7342,-912.3522 198.4935,-918.9696 196.3671,-914.0261 200,-915.7 200,-915.7 200,-915.7 196.3671,-914.0261 201.5065,-912.4304 192.7342,-912.3522 192.7342,-912.3522"/>
<ellipse fill="none" stroke="#000000" cx="189.8278" cy="-911.0131" rx="3.2" ry="3.2"/>
</g>
<!-- zz_archived_legacy_keyworker_allocation&#45;&gt;reference_data -->
<g id="edge16" class="edge">
<title>zz_archived_legacy_keyworker_allocation:w&#45;&gt;reference_data:e</title>
<path fill="none" stroke="#000000" d="M185.5606,-913.2824C166.8604,-899.4563 187.3914,-839.6336 151.5,-833.7"/>
<polygon fill="#000000" stroke="#000000" points="192.1098,-914.3789 199.4055,-919.2506 196.0549,-915.0394 200,-915.7 200,-915.7 200,-915.7 196.0549,-915.0394 200.5945,-912.1494 192.1098,-914.3789 192.1098,-914.3789"/>
<ellipse fill="none" stroke="#000000" cx="188.9538" cy="-913.8504" rx="3.2" ry="3.2"/>
</g>
</g>
</svg>
