<?xml version="1.0" encoding="UTF-8" standalone="no"?>
<!DOCTYPE svg PUBLIC "-//W3C//DTD SVG 1.1//EN"
 "http://www.w3.org/Graphics/SVG/1.1/DTD/svg11.dtd">
<!-- Generated by graphviz version 2.40.1 (20161225.0304)
 -->
<!-- Title: twoDegreesRelationshipsDiagram Pages: 1 -->
<svg width="473pt" height="863pt"
 viewBox="0.00 0.00 473.00 863.20" xmlns="http://www.w3.org/2000/svg" xmlns:xlink="http://www.w3.org/1999/xlink">
<g id="graph0" class="graph" transform="scale(1 1) rotate(0) translate(4 859.2)">
<title>twoDegreesRelationshipsDiagram</title>
<polygon fill="#ffffff" stroke="transparent" points="-4,4 -4,-859.2 469,-859.2 469,4 -4,4"/>
<text text-anchor="middle" x="72.4936" y="-7.3" font-family="Helvetica,sans-Serif" font-size="11.00" fill="#000000">Generated by SchemaSpy</text>
<!-- allocation -->
<g id="node1" class="node">
<title>allocation</title>
<g id="a_node1"><a xlink:href="../../tables/allocation.html" xlink:title="allocation" target="_top">
<polygon fill="#ffffff" stroke="transparent" points="277,-592.2 277,-851.2 451,-851.2 451,-592.2 277,-592.2"/>
<polygon fill="#f5f5f5" stroke="transparent" points="277,-827.7 277,-850.7 451,-850.7 451,-827.7 277,-827.7"/>
<polygon fill="none" stroke="#000000" points="277,-827.7 277,-850.7 451,-850.7 451,-827.7 277,-827.7"/>
<text text-anchor="start" x="282" y="-836.3" font-family="Helvetica,sans-Serif" font-weight="bold" font-size="11.00" fill="#000000">allocation</text>
<text text-anchor="start" x="416.0437" y="-835.8" font-family="Helvetica,sans-Serif" font-size="11.00" fill="#000000">[table]</text>
<polygon fill="none" stroke="#000000" points="277,-805.7 277,-827.7 451,-827.7 451,-805.7 277,-805.7"/>
<image xlink:href="../../images/primaryKeys.png" width="11px" height="12px" preserveAspectRatio="xMinYMin meet" x="282" y="-822.7"/>
<text text-anchor="start" x="297" y="-812.8" font-family="Helvetica,sans-Serif" font-size="11.00" fill="#000000">id</text>
<polygon fill="#ffffff" stroke="transparent" points="277,-783.7 277,-805.7 451,-805.7 451,-783.7 277,-783.7"/>
<polygon fill="none" stroke="#000000" points="277,-783.7 277,-805.7 451,-805.7 451,-783.7 277,-783.7"/>
<text text-anchor="start" x="297" y="-790.8" font-family="Helvetica,sans-Serif" font-size="11.00" fill="#000000">prison_code</text>
<polygon fill="#ffffff" stroke="transparent" points="277,-761.7 277,-783.7 451,-783.7 451,-761.7 277,-761.7"/>
<polygon fill="none" stroke="#000000" points="277,-761.7 277,-783.7 451,-783.7 451,-761.7 277,-761.7"/>
<text text-anchor="start" x="297" y="-768.8" font-family="Helvetica,sans-Serif" font-size="11.00" fill="#000000">staff_id</text>
<polygon fill="#ffffff" stroke="transparent" points="277,-739.7 277,-761.7 451,-761.7 451,-739.7 277,-739.7"/>
<polygon fill="none" stroke="#000000" points="277,-739.7 277,-761.7 451,-761.7 451,-739.7 277,-739.7"/>
<text text-anchor="start" x="297" y="-746.8" font-family="Helvetica,sans-Serif" font-size="11.00" fill="#000000">person_identifier</text>
<polygon fill="#ffffff" stroke="transparent" points="277,-717.7 277,-739.7 451,-739.7 451,-717.7 277,-717.7"/>
<polygon fill="none" stroke="#000000" points="277,-717.7 277,-739.7 451,-739.7 451,-717.7 277,-717.7"/>
<text text-anchor="start" x="297" y="-724.8" font-family="Helvetica,sans-Serif" font-size="11.00" fill="#000000">allocated_at</text>
<polygon fill="none" stroke="#000000" points="277,-695.7 277,-717.7 451,-717.7 451,-695.7 277,-695.7"/>
<image xlink:href="../../images/foreignKeys.png" width="11px" height="12px" preserveAspectRatio="xMinYMin meet" x="282" y="-712.7"/>
<text text-anchor="start" x="297" y="-702.8" font-family="Helvetica,sans-Serif" font-size="11.00" fill="#000000">allocation_reason_id</text>
<polygon fill="#ffffff" stroke="transparent" points="277,-673.7 277,-695.7 451,-695.7 451,-673.7 277,-673.7"/>
<polygon fill="none" stroke="#000000" points="277,-673.7 277,-695.7 451,-695.7 451,-673.7 277,-673.7"/>
<text text-anchor="start" x="297" y="-680.8" font-family="Helvetica,sans-Serif" font-size="11.00" fill="#000000">deallocated_at</text>
<polygon fill="none" stroke="#000000" points="277,-651.7 277,-673.7 451,-673.7 451,-651.7 277,-651.7"/>
<image xlink:href="../../images/foreignKeys.png" width="11px" height="12px" preserveAspectRatio="xMinYMin meet" x="282" y="-668.7"/>
<text text-anchor="start" x="297" y="-658.8" font-family="Helvetica,sans-Serif" font-size="11.00" fill="#000000">deallocation_reason_id</text>
<polygon fill="#ffffff" stroke="transparent" points="277,-629.7 277,-651.7 451,-651.7 451,-629.7 277,-629.7"/>
<polygon fill="none" stroke="#000000" points="277,-629.7 277,-651.7 451,-651.7 451,-629.7 277,-629.7"/>
<image xlink:href="../../images/foreignKeys.png" width="11px" height="12px" preserveAspectRatio="xMinYMin meet" x="282" y="-646.7"/>
<text text-anchor="start" x="297" y="-636.8" font-family="Helvetica,sans-Serif" font-size="11.00" fill="#000000">policy_code</text>
<polygon fill="none" stroke="#000000" points="277,-610.7 277,-629.7 451,-629.7 451,-610.7 277,-610.7"/>
<text text-anchor="start" x="280" y="-616.8" font-family="Helvetica,sans-Serif" font-size="11.00" fill="#000000">...</text>
<polygon fill="#ffffff" stroke="transparent" points="277,-591.7 277,-610.7 362,-610.7 362,-591.7 277,-591.7"/>
<polygon fill="none" stroke="#000000" points="277,-591.7 277,-610.7 362,-610.7 362,-591.7 277,-591.7"/>
<text text-anchor="start" x="280" y="-597.8" font-family="Helvetica,sans-Serif" font-size="11.00" fill="#000000">&lt; 3</text>
<polygon fill="#ffffff" stroke="transparent" points="362,-591.7 362,-610.7 406,-610.7 406,-591.7 362,-591.7"/>
<polygon fill="none" stroke="#000000" points="362,-591.7 362,-610.7 406,-610.7 406,-591.7 362,-591.7"/>
<text text-anchor="start" x="396.8862" y="-597.8" font-family="Helvetica,sans-Serif" font-size="11.00" fill="#000000"> &#160;</text>
<polygon fill="#ffffff" stroke="transparent" points="406,-591.7 406,-610.7 451,-610.7 451,-591.7 406,-591.7"/>
<polygon fill="none" stroke="#000000" points="406,-591.7 406,-610.7 451,-610.7 451,-591.7 406,-591.7"/>
<text text-anchor="start" x="441.8862" y="-597.8" font-family="Helvetica,sans-Serif" font-size="11.00" fill="#000000"> &#160;</text>
</a>
</g>
</g>
<!-- reference_data -->
<g id="node2" class="node">
<title>reference_data</title>
<g id="a_node2"><a xlink:href="../../tables/reference_data.html" xlink:title="reference_data" target="_top">
<polygon fill="#ffffff" stroke="transparent" points="8,-311.7 8,-467.7 222,-467.7 222,-311.7 8,-311.7"/>
<polygon fill="#f5f5f5" stroke="transparent" points="10,-442.7 10,-465.7 220,-465.7 220,-442.7 10,-442.7"/>
<polygon fill="none" stroke="#000000" points="10,-442.7 10,-465.7 220,-465.7 220,-442.7 10,-442.7"/>
<text text-anchor="start" x="15" y="-451.3" font-family="Helvetica,sans-Serif" font-weight="bold" font-size="11.00" fill="#000000">reference_data</text>
<text text-anchor="start" x="185.0437" y="-450.8" font-family="Helvetica,sans-Serif" font-size="11.00" fill="#000000">[table]</text>
<polygon fill="none" stroke="#000000" points="10,-420.7 10,-442.7 153,-442.7 153,-420.7 10,-420.7"/>
<image xlink:href="../../images/primaryKeys.png" width="11px" height="12px" preserveAspectRatio="xMinYMin meet" x="15" y="-437.7"/>
<text text-anchor="start" x="30" y="-427.8" font-family="Helvetica,sans-Serif" font-size="11.00" fill="#000000">id</text>
<polygon fill="none" stroke="#000000" points="153,-420.7 153,-442.7 220,-442.7 220,-420.7 153,-420.7"/>
<text text-anchor="start" x="156" y="-428.4" font-family="Helvetica,sans-Serif" font-size="11.00" fill="#000000">bigserial[19]</text>
<polygon fill="#ffffff" stroke="transparent" points="10,-398.7 10,-420.7 153,-420.7 153,-398.7 10,-398.7"/>
<polygon fill="none" stroke="#000000" points="10,-398.7 10,-420.7 153,-420.7 153,-398.7 10,-398.7"/>
<text text-anchor="start" x="30" y="-405.8" font-family="Helvetica,sans-Serif" font-size="11.00" fill="#000000">domain</text>
<polygon fill="none" stroke="#000000" points="153,-398.7 153,-420.7 220,-420.7 220,-398.7 153,-398.7"/>
<text text-anchor="start" x="156" y="-406.4" font-family="Helvetica,sans-Serif" font-size="11.00" fill="#000000">varchar[32]</text>
<polygon fill="#ffffff" stroke="transparent" points="10,-376.7 10,-398.7 153,-398.7 153,-376.7 10,-376.7"/>
<polygon fill="none" stroke="#000000" points="10,-376.7 10,-398.7 153,-398.7 153,-376.7 10,-376.7"/>
<text text-anchor="start" x="30" y="-383.8" font-family="Helvetica,sans-Serif" font-size="11.00" fill="#000000">code</text>
<polygon fill="none" stroke="#000000" points="153,-376.7 153,-398.7 220,-398.7 220,-376.7 153,-376.7"/>
<text text-anchor="start" x="156" y="-384.4" font-family="Helvetica,sans-Serif" font-size="11.00" fill="#000000">varchar[32]</text>
<polygon fill="none" stroke="#000000" points="10,-354.7 10,-376.7 153,-376.7 153,-354.7 10,-354.7"/>
<text text-anchor="start" x="30" y="-361.8" font-family="Helvetica,sans-Serif" font-size="11.00" fill="#000000">description</text>
<polygon fill="none" stroke="#000000" points="153,-354.7 153,-376.7 220,-376.7 220,-354.7 153,-354.7"/>
<text text-anchor="start" x="155.9365" y="-362.4" font-family="Helvetica,sans-Serif" font-size="11.00" fill="#000000">varchar[128]</text>
<polygon fill="#ffffff" stroke="transparent" points="10,-332.7 10,-354.7 153,-354.7 153,-332.7 10,-332.7"/>
<polygon fill="none" stroke="#000000" points="10,-332.7 10,-354.7 153,-354.7 153,-332.7 10,-332.7"/>
<text text-anchor="start" x="30" y="-339.8" font-family="Helvetica,sans-Serif" font-size="11.00" fill="#000000">sequence_number</text>
<polygon fill="none" stroke="#000000" points="153,-332.7 153,-354.7 220,-354.7 220,-332.7 153,-332.7"/>
<text text-anchor="start" x="156" y="-340.4" font-family="Helvetica,sans-Serif" font-size="11.00" fill="#000000">int4[10]</text>
<polygon fill="#ffffff" stroke="transparent" points="10,-313.7 10,-332.7 70,-332.7 70,-313.7 10,-313.7"/>
<polygon fill="none" stroke="#000000" points="10,-313.7 10,-332.7 70,-332.7 70,-313.7 10,-313.7"/>
<text text-anchor="start" x="13" y="-319.8" font-family="Helvetica,sans-Serif" font-size="11.00" fill="#000000">&lt; 0</text>
<polygon fill="#ffffff" stroke="transparent" points="70,-313.7 70,-332.7 153,-332.7 153,-313.7 70,-313.7"/>
<polygon fill="none" stroke="#000000" points="70,-313.7 70,-332.7 153,-332.7 153,-313.7 70,-313.7"/>
<text text-anchor="start" x="111.4956" y="-319.8" font-family="Helvetica,sans-Serif" font-size="11.00" fill="#000000">60 rows</text>
<polygon fill="#ffffff" stroke="transparent" points="153,-313.7 153,-332.7 220,-332.7 220,-313.7 153,-313.7"/>
<polygon fill="none" stroke="#000000" points="153,-313.7 153,-332.7 220,-332.7 220,-313.7 153,-313.7"/>
<text text-anchor="start" x="201.4053" y="-319.8" font-family="Helvetica,sans-Serif" font-size="11.00" fill="#000000">5 &gt;</text>
<polygon fill="none" stroke="#000000" stroke-width="2" points="9,-312.7 9,-466.7 221,-466.7 221,-312.7 9,-312.7"/>
</a>
</g>
</g>
<!-- allocation&#45;&gt;reference_data -->
<g id="edge1" class="edge">
<title>allocation:w&#45;&gt;reference_data:e</title>
<path fill="none" stroke="#000000" d="M263.63,-700.9562C225.2848,-661.4653 277.0467,-431.7 220,-431.7"/>
<polygon fill="#000000" stroke="#000000" points="269.6496,-703.5422 275.579,-710.0077 273.3248,-705.1211 277,-706.7 277,-706.7 277,-706.7 273.3248,-705.1211 278.421,-703.3923 269.6496,-703.5422 269.6496,-703.5422"/>
<ellipse fill="none" stroke="#000000" cx="266.7094" cy="-702.2791" rx="3.2" ry="3.2"/>
</g>
<!-- allocation&#45;&gt;reference_data -->
<g id="edge2" class="edge">
<title>allocation:w&#45;&gt;reference_data:e</title>
<path fill="none" stroke="#000000" d="M262.3654,-660.8406C186.8244,-638.9791 320.1696,-431.7 220,-431.7"/>
<polygon fill="#000000" stroke="#000000" points="269.0638,-661.6916 276.5462,-666.2713 273.0319,-662.1958 277,-662.7 277,-662.7 277,-662.7 273.0319,-662.1958 277.4538,-659.1287 269.0638,-661.6916 269.0638,-661.6916"/>
<ellipse fill="none" stroke="#000000" cx="265.8893" cy="-661.2882" rx="3.2" ry="3.2"/>
</g>
<!-- policy -->
<g id="node3" class="node">
<title>policy</title>
<g id="a_node3"><a xlink:href="../../tables/policy.html" xlink:title="policy" target="_top">
<polygon fill="#ffffff" stroke="transparent" points="76,-229.2 76,-290.2 154,-290.2 154,-229.2 76,-229.2"/>
<polygon fill="#f5f5f5" stroke="transparent" points="76,-266.7 76,-289.7 154,-289.7 154,-266.7 76,-266.7"/>
<polygon fill="none" stroke="#000000" points="76,-266.7 76,-289.7 154,-289.7 154,-266.7 76,-266.7"/>
<text text-anchor="start" x="81" y="-275.3" font-family="Helvetica,sans-Serif" font-weight="bold" font-size="11.00" fill="#000000">policy</text>
<text text-anchor="start" x="119.5219" y="-274.8" font-family="Helvetica,sans-Serif" font-size="11.00" fill="#000000">[table]</text>
<polygon fill="none" stroke="#000000" points="76,-247.7 76,-266.7 154,-266.7 154,-247.7 76,-247.7"/>
<text text-anchor="start" x="79" y="-253.8" font-family="Helvetica,sans-Serif" font-size="11.00" fill="#000000">...</text>
<polygon fill="#ffffff" stroke="transparent" points="76,-228.7 76,-247.7 104,-247.7 104,-228.7 76,-228.7"/>
<polygon fill="none" stroke="#000000" points="76,-228.7 76,-247.7 104,-247.7 104,-228.7 76,-228.7"/>
<text text-anchor="start" x="79" y="-234.8" font-family="Helvetica,sans-Serif" font-size="11.00" fill="#000000"> &#160;</text>
<polygon fill="#ffffff" stroke="transparent" points="104,-228.7 104,-247.7 124,-247.7 124,-228.7 104,-228.7"/>
<polygon fill="none" stroke="#000000" points="104,-228.7 104,-247.7 124,-247.7 124,-228.7 104,-228.7"/>
<text text-anchor="start" x="114.8862" y="-234.8" font-family="Helvetica,sans-Serif" font-size="11.00" fill="#000000"> &#160;</text>
<polygon fill="#ffffff" stroke="transparent" points="124,-228.7 124,-247.7 154,-247.7 154,-228.7 124,-228.7"/>
<polygon fill="none" stroke="#000000" points="124,-228.7 124,-247.7 154,-247.7 154,-228.7 124,-228.7"/>
<text text-anchor="start" x="135.4053" y="-234.8" font-family="Helvetica,sans-Serif" font-size="11.00" fill="#000000">8 &gt;</text>
</a>
</g>
</g>
<!-- allocation&#45;&gt;policy -->
<g id="edge3" class="edge">
<title>allocation:w&#45;&gt;policy:e</title>
<path fill="none" stroke="#000000" d="M263.0415,-636.7868C210.3102,-603.0387 268.5569,-360.9685 230,-301.7 208.594,-268.7953 193.2548,-256.7 154,-256.7"/>
<polygon fill="#000000" stroke="#000000" points="269.297,-638.5405 276.0282,-644.1664 273.1485,-639.6202 277,-640.7 277,-640.7 277,-640.7 273.1485,-639.6202 277.9718,-637.2336 269.297,-638.5405 269.297,-638.5405"/>
<ellipse fill="none" stroke="#000000" cx="266.2158" cy="-637.6767" rx="3.2" ry="3.2"/>
</g>
<!-- recorded_event -->
<g id="node4" class="node">
<title>recorded_event</title>
<g id="a_node4"><a xlink:href="../../tables/recorded_event.html" xlink:title="recorded_event" target="_top">
<polygon fill="#ffffff" stroke="transparent" points="292,-334.2 292,-571.2 436,-571.2 436,-334.2 292,-334.2"/>
<polygon fill="#f5f5f5" stroke="transparent" points="292,-547.7 292,-570.7 436,-570.7 436,-547.7 292,-547.7"/>
<polygon fill="none" stroke="#000000" points="292,-547.7 292,-570.7 436,-570.7 436,-547.7 292,-547.7"/>
<text text-anchor="start" x="297" y="-556.3" font-family="Helvetica,sans-Serif" font-weight="bold" font-size="11.00" fill="#000000">recorded_event</text>
<text text-anchor="start" x="401.5219" y="-555.8" font-family="Helvetica,sans-Serif" font-size="11.00" fill="#000000">[table]</text>
<polygon fill="none" stroke="#000000" points="292,-525.7 292,-547.7 436,-547.7 436,-525.7 292,-525.7"/>
<image xlink:href="../../images/primaryKeys.png" width="11px" height="12px" preserveAspectRatio="xMinYMin meet" x="297" y="-542.7"/>
<text text-anchor="start" x="316" y="-532.8" font-family="Helvetica,sans-Serif" font-size="11.00" fill="#000000">id</text>
<polygon fill="#ffffff" stroke="transparent" points="292,-503.7 292,-525.7 436,-525.7 436,-503.7 292,-503.7"/>
<polygon fill="none" stroke="#000000" points="292,-503.7 292,-525.7 436,-525.7 436,-503.7 292,-503.7"/>
<text text-anchor="start" x="316" y="-510.8" font-family="Helvetica,sans-Serif" font-size="11.00" fill="#000000">prison_code</text>
<polygon fill="#ffffff" stroke="transparent" points="292,-481.7 292,-503.7 436,-503.7 436,-481.7 292,-481.7"/>
<polygon fill="none" stroke="#000000" points="292,-481.7 292,-503.7 436,-503.7 436,-481.7 292,-481.7"/>
<text text-anchor="start" x="316" y="-488.8" font-family="Helvetica,sans-Serif" font-size="11.00" fill="#000000">person_identifier</text>
<polygon fill="#ffffff" stroke="transparent" points="292,-459.7 292,-481.7 436,-481.7 436,-459.7 292,-459.7"/>
<polygon fill="none" stroke="#000000" points="292,-459.7 292,-481.7 436,-481.7 436,-459.7 292,-459.7"/>
<text text-anchor="start" x="316" y="-466.8" font-family="Helvetica,sans-Serif" font-size="11.00" fill="#000000">staff_id</text>
<polygon fill="#ffffff" stroke="transparent" points="292,-437.7 292,-459.7 436,-459.7 436,-437.7 292,-437.7"/>
<polygon fill="none" stroke="#000000" points="292,-437.7 292,-459.7 436,-459.7 436,-437.7 292,-437.7"/>
<text text-anchor="start" x="316" y="-444.8" font-family="Helvetica,sans-Serif" font-size="11.00" fill="#000000">occurred_at</text>
<polygon fill="#ffffff" stroke="transparent" points="292,-415.7 292,-437.7 436,-437.7 436,-415.7 292,-415.7"/>
<polygon fill="none" stroke="#000000" points="292,-415.7 292,-437.7 436,-437.7 436,-415.7 292,-415.7"/>
<text text-anchor="start" x="316" y="-422.8" font-family="Helvetica,sans-Serif" font-size="11.00" fill="#000000">created_at</text>
<polygon fill="#ffffff" stroke="transparent" points="292,-393.7 292,-415.7 436,-415.7 436,-393.7 292,-393.7"/>
<polygon fill="none" stroke="#000000" points="292,-393.7 292,-415.7 436,-415.7 436,-393.7 292,-393.7"/>
<image xlink:href="../../images/foreignKeys.png" width="11px" height="12px" preserveAspectRatio="xMinYMin meet" x="297" y="-410.7"/>
<text text-anchor="start" x="316" y="-400.8" font-family="Helvetica,sans-Serif" font-size="11.00" fill="#000000">policy_code</text>
<polygon fill="#ffffff" stroke="transparent" points="292,-371.7 292,-393.7 436,-393.7 436,-371.7 292,-371.7"/>
<polygon fill="none" stroke="#000000" points="292,-371.7 292,-393.7 436,-393.7 436,-371.7 292,-371.7"/>
<image xlink:href="../../images/foreignKeys.png" width="11px" height="12px" preserveAspectRatio="xMinYMin meet" x="297" y="-388.7"/>
<text text-anchor="start" x="316" y="-378.8" font-family="Helvetica,sans-Serif" font-size="11.00" fill="#000000">type_id</text>
<polygon fill="none" stroke="#000000" points="292,-352.7 292,-371.7 436,-371.7 436,-352.7 292,-352.7"/>
<text text-anchor="start" x="295" y="-358.8" font-family="Helvetica,sans-Serif" font-size="11.00" fill="#000000">...</text>
<polygon fill="#ffffff" stroke="transparent" points="292,-333.7 292,-352.7 362,-352.7 362,-333.7 292,-333.7"/>
<polygon fill="none" stroke="#000000" points="292,-333.7 292,-352.7 362,-352.7 362,-333.7 292,-333.7"/>
<text text-anchor="start" x="295" y="-339.8" font-family="Helvetica,sans-Serif" font-size="11.00" fill="#000000">&lt; 2</text>
<polygon fill="#ffffff" stroke="transparent" points="362,-333.7 362,-352.7 399,-352.7 399,-333.7 362,-333.7"/>
<polygon fill="none" stroke="#000000" points="362,-333.7 362,-352.7 399,-352.7 399,-333.7 362,-333.7"/>
<text text-anchor="start" x="389.8862" y="-339.8" font-family="Helvetica,sans-Serif" font-size="11.00" fill="#000000"> &#160;</text>
<polygon fill="#ffffff" stroke="transparent" points="399,-333.7 399,-352.7 436,-352.7 436,-333.7 399,-333.7"/>
<polygon fill="none" stroke="#000000" points="399,-333.7 399,-352.7 436,-352.7 436,-333.7 399,-333.7"/>
<text text-anchor="start" x="426.8862" y="-339.8" font-family="Helvetica,sans-Serif" font-size="11.00" fill="#000000"> &#160;</text>
</a>
</g>
</g>
<!-- recorded_event&#45;&gt;reference_data -->
<g id="edge5" class="edge">
<title>recorded_event:w&#45;&gt;reference_data:e</title>
<path fill="none" stroke="#000000" d="M277.7153,-385.4748C253.9361,-395.8405 253.1131,-431.7 220,-431.7"/>
<polygon fill="#000000" stroke="#000000" points="284.1468,-384.2256 292.6865,-386.2339 288.0734,-383.4628 292,-382.7 292,-382.7 292,-382.7 288.0734,-383.4628 291.3135,-379.1661 284.1468,-384.2256 284.1468,-384.2256"/>
<ellipse fill="none" stroke="#000000" cx="281.0055" cy="-384.8358" rx="3.2" ry="3.2"/>
</g>
<!-- recorded_event&#45;&gt;policy -->
<g id="edge4" class="edge">
<title>recorded_event:w&#45;&gt;policy:e</title>
<path fill="none" stroke="#000000" d="M277.6804,-402.6282C244.0113,-391.2223 263.9192,-335.3741 230,-301.7 202.1422,-274.0435 193.2548,-256.7 154,-256.7"/>
<polygon fill="#000000" stroke="#000000" points="284.0824,-403.5544 291.4845,-408.2629 288.0412,-404.1272 292,-404.7 292,-404.7 292,-404.7 288.0412,-404.1272 292.5155,-401.1371 284.0824,-403.5544 284.0824,-403.5544"/>
<ellipse fill="none" stroke="#000000" cx="280.9154" cy="-403.0962" rx="3.2" ry="3.2"/>
</g>
<!-- reference_data_policy -->
<g id="node5" class="node">
<title>reference_data_policy</title>
<g id="a_node5"><a xlink:href="../../tables/reference_data_policy.html" xlink:title="reference_data_policy" target="_top">
<polygon fill="#ffffff" stroke="transparent" points="271,-208.2 271,-313.2 457,-313.2 457,-208.2 271,-208.2"/>
<polygon fill="#f5f5f5" stroke="transparent" points="271,-289.7 271,-312.7 457,-312.7 457,-289.7 271,-289.7"/>
<polygon fill="none" stroke="#000000" points="271,-289.7 271,-312.7 457,-312.7 457,-289.7 271,-289.7"/>
<text text-anchor="start" x="276" y="-298.3" font-family="Helvetica,sans-Serif" font-weight="bold" font-size="11.00" fill="#000000">reference_data_policy</text>
<text text-anchor="start" x="422.5219" y="-297.8" font-family="Helvetica,sans-Serif" font-size="11.00" fill="#000000">[table]</text>
<polygon fill="#ffffff" stroke="transparent" points="271,-267.7 271,-289.7 457,-289.7 457,-267.7 271,-267.7"/>
<polygon fill="none" stroke="#000000" points="271,-267.7 271,-289.7 457,-289.7 457,-267.7 271,-267.7"/>
<image xlink:href="../../images/foreignKeys.png" width="11px" height="12px" preserveAspectRatio="xMinYMin meet" x="276" y="-284.7"/>
<text text-anchor="start" x="300" y="-274.8" font-family="Helvetica,sans-Serif" font-size="11.00" fill="#000000">id</text>
<polygon fill="#ffffff" stroke="transparent" points="271,-245.7 271,-267.7 457,-267.7 457,-245.7 271,-245.7"/>
<polygon fill="none" stroke="#000000" points="271,-245.7 271,-267.7 457,-267.7 457,-245.7 271,-245.7"/>
<image xlink:href="../../images/foreignKeys.png" width="11px" height="12px" preserveAspectRatio="xMinYMin meet" x="276" y="-262.7"/>
<text text-anchor="start" x="300" y="-252.8" font-family="Helvetica,sans-Serif" font-size="11.00" fill="#000000">policy_code</text>
<polygon fill="none" stroke="#000000" points="271,-226.7 271,-245.7 457,-245.7 457,-226.7 271,-226.7"/>
<text text-anchor="start" x="274" y="-232.8" font-family="Helvetica,sans-Serif" font-size="11.00" fill="#000000">...</text>
<polygon fill="#ffffff" stroke="transparent" points="271,-207.7 271,-226.7 346,-226.7 346,-207.7 271,-207.7"/>
<polygon fill="none" stroke="#000000" points="271,-207.7 271,-226.7 346,-226.7 346,-207.7 271,-207.7"/>
<text text-anchor="start" x="274" y="-213.8" font-family="Helvetica,sans-Serif" font-size="11.00" fill="#000000">&lt; 2</text>
<polygon fill="#ffffff" stroke="transparent" points="346,-207.7 346,-226.7 417,-226.7 417,-207.7 346,-207.7"/>
<polygon fill="none" stroke="#000000" points="346,-207.7 346,-226.7 417,-226.7 417,-207.7 346,-207.7"/>
<text text-anchor="start" x="375.4956" y="-213.8" font-family="Helvetica,sans-Serif" font-size="11.00" fill="#000000">84 rows</text>
<polygon fill="#ffffff" stroke="transparent" points="417,-207.7 417,-226.7 457,-226.7 457,-207.7 417,-207.7"/>
<polygon fill="none" stroke="#000000" points="417,-207.7 417,-226.7 457,-226.7 457,-207.7 417,-207.7"/>
<text text-anchor="start" x="447.8862" y="-213.8" font-family="Helvetica,sans-Serif" font-size="11.00" fill="#000000"> &#160;</text>
</a>
</g>
</g>
<!-- reference_data_policy&#45;&gt;reference_data -->
<g id="edge6" class="edge">
<title>reference_data_policy:w&#45;&gt;reference_data:e</title>
<path fill="none" stroke="#000000" d="M256.7676,-281.4862C213.0613,-302.2228 285.9384,-431.7 220,-431.7"/>
<polygon fill="#000000" stroke="#000000" points="263.149,-280.237 271.6916,-282.2329 267.0745,-279.4685 271,-278.7 271,-278.7 271,-278.7 267.0745,-279.4685 270.3084,-275.1671 263.149,-280.237 263.149,-280.237"/>
<ellipse fill="none" stroke="#000000" cx="260.0086" cy="-280.8518" rx="3.2" ry="3.2"/>
</g>
<!-- reference_data_policy&#45;&gt;policy -->
<g id="edge7" class="edge">
<title>reference_data_policy:w&#45;&gt;policy:e</title>
<path fill="none" stroke="#000000" d="M256.5447,-256.7C216.0232,-256.7 200.8203,-256.7 154,-256.7"/>
<polygon fill="#000000" stroke="#000000" points="263,-256.7001 271,-260.3 267,-256.7 271,-256.7 271,-256.7 271,-256.7 267,-256.7 271,-253.1 263,-256.7001 263,-256.7001"/>
<ellipse fill="none" stroke="#000000" cx="259.8" cy="-256.7001" rx="3.2" ry="3.2"/>
</g>
<!-- staff_configuration -->
<g id="node6" class="node">
<title>staff_configuration</title>
<g id="a_node6"><a xlink:href="../../tables/staff_configuration.html" xlink:title="staff_configuration" target="_top">
<polygon fill="#ffffff" stroke="transparent" points="280.5,-38.2 280.5,-187.2 447.5,-187.2 447.5,-38.2 280.5,-38.2"/>
<polygon fill="#f5f5f5" stroke="transparent" points="281,-163.7 281,-186.7 448,-186.7 448,-163.7 281,-163.7"/>
<polygon fill="none" stroke="#000000" points="281,-163.7 281,-186.7 448,-186.7 448,-163.7 281,-163.7"/>
<text text-anchor="start" x="286" y="-172.3" font-family="Helvetica,sans-Serif" font-weight="bold" font-size="11.00" fill="#000000">staff_configuration</text>
<text text-anchor="start" x="413.5219" y="-171.8" font-family="Helvetica,sans-Serif" font-size="11.00" fill="#000000">[table]</text>
<polygon fill="#ffffff" stroke="transparent" points="281,-141.7 281,-163.7 448,-163.7 448,-141.7 281,-141.7"/>
<polygon fill="none" stroke="#000000" points="281,-141.7 281,-163.7 448,-163.7 448,-141.7 281,-141.7"/>
<text text-anchor="start" x="310" y="-148.8" font-family="Helvetica,sans-Serif" font-size="11.00" fill="#000000">staff_id</text>
<polygon fill="none" stroke="#000000" points="281,-119.7 281,-141.7 448,-141.7 448,-119.7 281,-119.7"/>
<image xlink:href="../../images/foreignKeys.png" width="11px" height="12px" preserveAspectRatio="xMinYMin meet" x="286" y="-136.7"/>
<text text-anchor="start" x="310" y="-126.8" font-family="Helvetica,sans-Serif" font-size="11.00" fill="#000000">status_id</text>
<polygon fill="#ffffff" stroke="transparent" points="281,-97.7 281,-119.7 448,-119.7 448,-97.7 281,-97.7"/>
<polygon fill="none" stroke="#000000" points="281,-97.7 281,-119.7 448,-119.7 448,-97.7 281,-97.7"/>
<image xlink:href="../../images/foreignKeys.png" width="11px" height="12px" preserveAspectRatio="xMinYMin meet" x="286" y="-114.7"/>
<text text-anchor="start" x="310" y="-104.8" font-family="Helvetica,sans-Serif" font-size="11.00" fill="#000000">policy_code</text>
<polygon fill="none" stroke="#000000" points="281,-75.7 281,-97.7 448,-97.7 448,-75.7 281,-75.7"/>
<image xlink:href="../../images/primaryKeys.png" width="11px" height="12px" preserveAspectRatio="xMinYMin meet" x="286" y="-92.7"/>
<text text-anchor="start" x="310" y="-82.8" font-family="Helvetica,sans-Serif" font-size="11.00" fill="#000000">id</text>
<polygon fill="none" stroke="#000000" points="281,-56.7 281,-75.7 448,-75.7 448,-56.7 281,-56.7"/>
<text text-anchor="start" x="284" y="-62.8" font-family="Helvetica,sans-Serif" font-size="11.00" fill="#000000">...</text>
<polygon fill="#ffffff" stroke="transparent" points="281,-37.7 281,-56.7 363,-56.7 363,-37.7 281,-37.7"/>
<polygon fill="none" stroke="#000000" points="281,-37.7 281,-56.7 363,-56.7 363,-37.7 281,-37.7"/>
<text text-anchor="start" x="284" y="-43.8" font-family="Helvetica,sans-Serif" font-size="11.00" fill="#000000">&lt; 2</text>
<polygon fill="#ffffff" stroke="transparent" points="363,-37.7 363,-56.7 405,-56.7 405,-37.7 363,-37.7"/>
<polygon fill="none" stroke="#000000" points="363,-37.7 363,-56.7 405,-56.7 405,-37.7 363,-37.7"/>
<text text-anchor="start" x="395.8862" y="-43.8" font-family="Helvetica,sans-Serif" font-size="11.00" fill="#000000"> &#160;</text>
<polygon fill="#ffffff" stroke="transparent" points="405,-37.7 405,-56.7 448,-56.7 448,-37.7 405,-37.7"/>
<polygon fill="none" stroke="#000000" points="405,-37.7 405,-56.7 448,-56.7 448,-37.7 405,-37.7"/>
<text text-anchor="start" x="438.8862" y="-43.8" font-family="Helvetica,sans-Serif" font-size="11.00" fill="#000000"> &#160;</text>
</a>
</g>
</g>
<!-- staff_configuration&#45;&gt;reference_data -->
<g id="edge9" class="edge">
<title>staff_configuration:w&#45;&gt;reference_data:e</title>
<path fill="none" stroke="#000000" d="M267.4992,-135.9244C223.6705,-175.8941 282.9167,-431.7 220,-431.7"/>
<polygon fill="#000000" stroke="#000000" points="273.5391,-133.5872 282.2992,-134.0574 277.2696,-132.1436 281,-130.7 281,-130.7 281,-130.7 277.2696,-132.1436 279.7008,-127.3426 273.5391,-133.5872 273.5391,-133.5872"/>
<ellipse fill="none" stroke="#000000" cx="270.5548" cy="-134.742" rx="3.2" ry="3.2"/>
</g>
<!-- staff_configuration&#45;&gt;policy -->
<g id="edge8" class="edge">
<title>staff_configuration:w&#45;&gt;policy:e</title>
<path fill="none" stroke="#000000" d="M266.6601,-110.262C199.4494,-126.0793 235.4278,-256.7 154,-256.7"/>
<polygon fill="#000000" stroke="#000000" points="273.047,-109.5663 281.3898,-112.2788 277.0235,-109.1332 281,-108.7 281,-108.7 281,-108.7 277.0235,-109.1332 280.6102,-105.1212 273.047,-109.5663 273.047,-109.5663"/>
<ellipse fill="none" stroke="#000000" cx="269.8659" cy="-109.9129" rx="3.2" ry="3.2"/>
</g>
</g>
</svg>
