<?xml version="1.0" encoding="UTF-8" standalone="no"?>
<!DOCTYPE svg PUBLIC "-//W3C//DTD SVG 1.1//EN"
 "http://www.w3.org/Graphics/SVG/1.1/DTD/svg11.dtd">
<!-- Generated by graphviz version 2.40.1 (20161225.0304)
 -->
<!-- Title: oneDegreeRelationshipsDiagram Pages: 1 -->
<svg width="499pt" height="448pt"
 viewBox="0.00 0.00 499.00 448.20" xmlns="http://www.w3.org/2000/svg" xmlns:xlink="http://www.w3.org/1999/xlink">
<g id="graph0" class="graph" transform="scale(1 1) rotate(0) translate(4 444.2)">
<title>oneDegreeRelationshipsDiagram</title>
<polygon fill="#ffffff" stroke="transparent" points="-4,4 -4,-444.2 495,-444.2 495,4 -4,4"/>
<text text-anchor="middle" x="72.4936" y="-7.3" font-family="Helvetica,sans-Serif" font-size="11.00" fill="#000000">Generated by SchemaSpy</text>
<!-- staff_role_audit -->
<g id="node1" class="node">
<title>staff_role_audit</title>
<g id="a_node1"><a xlink:href="../../tables/staff_role_audit.html" xlink:title="staff_role_audit" target="_top">
<polygon fill="#ffffff" stroke="transparent" points="191,-38.2 191,-436.2 483,-436.2 483,-38.2 191,-38.2"/>
<polygon fill="#f5f5f5" stroke="transparent" points="193,-411.2 193,-434.2 481,-434.2 481,-411.2 193,-411.2"/>
<polygon fill="none" stroke="#000000" points="193,-411.2 193,-434.2 481,-434.2 481,-411.2 193,-411.2"/>
<text text-anchor="start" x="198" y="-419.8" font-family="Helvetica,sans-Serif" font-weight="bold" font-size="11.00" fill="#000000">staff_role_audit</text>
<text text-anchor="start" x="446.0437" y="-419.3" font-family="Helvetica,sans-Serif" font-size="11.00" fill="#000000">[table]</text>
<polygon fill="none" stroke="#000000" points="193,-389.2 193,-411.2 387,-411.2 387,-389.2 193,-389.2"/>
<image xlink:href="../../images/primaryKeys.png" width="11px" height="12px" preserveAspectRatio="xMinYMin meet" x="198" y="-406.2"/>
<text text-anchor="start" x="213" y="-396.3" font-family="Helvetica,sans-Serif" font-size="11.00" fill="#000000">rev_id</text>
<polygon fill="none" stroke="#000000" points="387,-389.2 387,-411.2 481,-411.2 481,-389.2 387,-389.2"/>
<text text-anchor="start" x="390" y="-396.9" font-family="Helvetica,sans-Serif" font-size="11.00" fill="#000000">int8[19]</text>
<polygon fill="none" stroke="#000000" points="193,-367.2 193,-389.2 387,-389.2 387,-367.2 193,-367.2"/>
<text text-anchor="start" x="213" y="-374.3" font-family="Helvetica,sans-Serif" font-size="11.00" fill="#000000">rev_type</text>
<polygon fill="none" stroke="#000000" points="387,-367.2 387,-389.2 481,-389.2 481,-367.2 387,-367.2"/>
<text text-anchor="start" x="390" y="-374.9" font-family="Helvetica,sans-Serif" font-size="11.00" fill="#000000">int2[5]</text>
<polygon fill="none" stroke="#000000" points="193,-345.2 193,-367.2 387,-367.2 387,-345.2 193,-345.2"/>
<image xlink:href="../../images/primaryKeys.png" width="11px" height="12px" preserveAspectRatio="xMinYMin meet" x="198" y="-362.2"/>
<text text-anchor="start" x="213" y="-352.3" font-family="Helvetica,sans-Serif" font-size="11.00" fill="#000000">id</text>
<polygon fill="none" stroke="#000000" points="387,-345.2 387,-367.2 481,-367.2 481,-345.2 387,-345.2"/>
<text text-anchor="start" x="389.9758" y="-352.9" font-family="Helvetica,sans-Serif" font-size="11.00" fill="#000000">uuid[2147483647]</text>
<polygon fill="none" stroke="#000000" points="193,-323.2 193,-345.2 387,-345.2 387,-323.2 193,-323.2"/>
<image xlink:href="../../images/foreignKeys.png" width="11px" height="12px" preserveAspectRatio="xMinYMin meet" x="198" y="-340.2"/>
<text text-anchor="start" x="213" y="-330.3" font-family="Helvetica,sans-Serif" font-size="11.00" fill="#000000">policy_code</text>
<polygon fill="none" stroke="#000000" points="387,-323.2 387,-345.2 481,-345.2 481,-323.2 387,-323.2"/>
<text text-anchor="start" x="390" y="-330.9" font-family="Helvetica,sans-Serif" font-size="11.00" fill="#000000">varchar[16]</text>
<polygon fill="none" stroke="#000000" points="193,-301.2 193,-323.2 387,-323.2 387,-301.2 193,-301.2"/>
<image xlink:href="../../images/foreignKeys.png" width="11px" height="12px" preserveAspectRatio="xMinYMin meet" x="198" y="-318.2"/>
<text text-anchor="start" x="213" y="-308.3" font-family="Helvetica,sans-Serif" font-size="11.00" fill="#000000">prison_code</text>
<polygon fill="none" stroke="#000000" points="387,-301.2 387,-323.2 481,-323.2 481,-301.2 387,-301.2"/>
<text text-anchor="start" x="390" y="-308.9" font-family="Helvetica,sans-Serif" font-size="11.00" fill="#000000">varchar[6]</text>
<polygon fill="none" stroke="#000000" points="193,-279.2 193,-301.2 387,-301.2 387,-279.2 193,-279.2"/>
<text text-anchor="start" x="213" y="-286.3" font-family="Helvetica,sans-Serif" font-size="11.00" fill="#000000">staff_id</text>
<polygon fill="none" stroke="#000000" points="387,-279.2 387,-301.2 481,-301.2 481,-279.2 387,-279.2"/>
<text text-anchor="start" x="390" y="-286.9" font-family="Helvetica,sans-Serif" font-size="11.00" fill="#000000">int8[19]</text>
<polygon fill="none" stroke="#000000" points="193,-257.2 193,-279.2 387,-279.2 387,-257.2 193,-257.2"/>
<text text-anchor="start" x="213" y="-264.3" font-family="Helvetica,sans-Serif" font-size="11.00" fill="#000000">position_id</text>
<polygon fill="none" stroke="#000000" points="387,-257.2 387,-279.2 481,-279.2 481,-257.2 387,-257.2"/>
<text text-anchor="start" x="390" y="-264.9" font-family="Helvetica,sans-Serif" font-size="11.00" fill="#000000">int8[19]</text>
<polygon fill="none" stroke="#000000" points="193,-235.2 193,-257.2 387,-257.2 387,-235.2 193,-235.2"/>
<text text-anchor="start" x="213" y="-242.3" font-family="Helvetica,sans-Serif" font-size="11.00" fill="#000000">schedule_type_id</text>
<polygon fill="none" stroke="#000000" points="387,-235.2 387,-257.2 481,-257.2 481,-235.2 387,-235.2"/>
<text text-anchor="start" x="390" y="-242.9" font-family="Helvetica,sans-Serif" font-size="11.00" fill="#000000">int8[19]</text>
<polygon fill="none" stroke="#000000" points="193,-213.2 193,-235.2 387,-235.2 387,-213.2 193,-213.2"/>
<text text-anchor="start" x="213" y="-220.3" font-family="Helvetica,sans-Serif" font-size="11.00" fill="#000000">hours_per_week</text>
<polygon fill="none" stroke="#000000" points="387,-213.2 387,-235.2 481,-235.2 481,-213.2 387,-213.2"/>
<text text-anchor="start" x="390" y="-220.9" font-family="Helvetica,sans-Serif" font-size="11.00" fill="#000000">int4[10]</text>
<polygon fill="none" stroke="#000000" points="193,-191.2 193,-213.2 387,-213.2 387,-191.2 193,-191.2"/>
<text text-anchor="start" x="213" y="-198.3" font-family="Helvetica,sans-Serif" font-size="11.00" fill="#000000">from_date</text>
<polygon fill="none" stroke="#000000" points="387,-191.2 387,-213.2 481,-213.2 481,-191.2 387,-191.2"/>
<text text-anchor="start" x="390" y="-198.9" font-family="Helvetica,sans-Serif" font-size="11.00" fill="#000000">date[13]</text>
<polygon fill="none" stroke="#000000" points="193,-169.2 193,-191.2 387,-191.2 387,-169.2 193,-169.2"/>
<text text-anchor="start" x="213" y="-176.3" font-family="Helvetica,sans-Serif" font-size="11.00" fill="#000000">to_date</text>
<polygon fill="none" stroke="#000000" points="387,-169.2 387,-191.2 481,-191.2 481,-169.2 387,-169.2"/>
<text text-anchor="start" x="390" y="-176.9" font-family="Helvetica,sans-Serif" font-size="11.00" fill="#000000">date[13]</text>
<polygon fill="none" stroke="#000000" points="193,-147.2 193,-169.2 387,-169.2 387,-147.2 193,-147.2"/>
<text text-anchor="start" x="213" y="-154.3" font-family="Helvetica,sans-Serif" font-size="11.00" fill="#000000">position_modified</text>
<polygon fill="none" stroke="#000000" points="387,-147.2 387,-169.2 481,-169.2 481,-147.2 387,-147.2"/>
<text text-anchor="start" x="390" y="-154.9" font-family="Helvetica,sans-Serif" font-size="11.00" fill="#000000">bool[1]</text>
<polygon fill="none" stroke="#000000" points="193,-125.2 193,-147.2 387,-147.2 387,-125.2 193,-125.2"/>
<text text-anchor="start" x="213" y="-132.3" font-family="Helvetica,sans-Serif" font-size="11.00" fill="#000000">schedule_type_modified</text>
<polygon fill="none" stroke="#000000" points="387,-125.2 387,-147.2 481,-147.2 481,-125.2 387,-125.2"/>
<text text-anchor="start" x="390" y="-132.9" font-family="Helvetica,sans-Serif" font-size="11.00" fill="#000000">bool[1]</text>
<polygon fill="none" stroke="#000000" points="193,-103.2 193,-125.2 387,-125.2 387,-103.2 193,-103.2"/>
<text text-anchor="start" x="213" y="-110.3" font-family="Helvetica,sans-Serif" font-size="11.00" fill="#000000">hours_per_week_modified</text>
<polygon fill="none" stroke="#000000" points="387,-103.2 387,-125.2 481,-125.2 481,-103.2 387,-103.2"/>
<text text-anchor="start" x="390" y="-110.9" font-family="Helvetica,sans-Serif" font-size="11.00" fill="#000000">bool[1]</text>
<polygon fill="none" stroke="#000000" points="193,-81.2 193,-103.2 387,-103.2 387,-81.2 193,-81.2"/>
<text text-anchor="start" x="213" y="-88.3" font-family="Helvetica,sans-Serif" font-size="11.00" fill="#000000">from_date_modified</text>
<polygon fill="none" stroke="#000000" points="387,-81.2 387,-103.2 481,-103.2 481,-81.2 387,-81.2"/>
<text text-anchor="start" x="390" y="-88.9" font-family="Helvetica,sans-Serif" font-size="11.00" fill="#000000">bool[1]</text>
<polygon fill="none" stroke="#000000" points="193,-59.2 193,-81.2 387,-81.2 387,-59.2 193,-59.2"/>
<text text-anchor="start" x="213" y="-66.3" font-family="Helvetica,sans-Serif" font-size="11.00" fill="#000000">to_date_modified</text>
<polygon fill="none" stroke="#000000" points="387,-59.2 387,-81.2 481,-81.2 481,-59.2 387,-59.2"/>
<text text-anchor="start" x="390" y="-66.9" font-family="Helvetica,sans-Serif" font-size="11.00" fill="#000000">bool[1]</text>
<polygon fill="#ffffff" stroke="transparent" points="193,-40.2 193,-59.2 294,-59.2 294,-40.2 193,-40.2"/>
<polygon fill="none" stroke="#000000" points="193,-40.2 193,-59.2 294,-59.2 294,-40.2 193,-40.2"/>
<text text-anchor="start" x="196" y="-46.3" font-family="Helvetica,sans-Serif" font-size="11.00" fill="#000000">&lt; 1</text>
<polygon fill="#ffffff" stroke="transparent" points="294,-40.2 294,-59.2 387,-59.2 387,-40.2 294,-40.2"/>
<polygon fill="none" stroke="#000000" points="294,-40.2 294,-59.2 387,-59.2 387,-40.2 294,-40.2"/>
<text text-anchor="start" x="377.8862" y="-46.3" font-family="Helvetica,sans-Serif" font-size="11.00" fill="#000000"> &#160;</text>
<polygon fill="#ffffff" stroke="transparent" points="387,-40.2 387,-59.2 481,-59.2 481,-40.2 387,-40.2"/>
<polygon fill="none" stroke="#000000" points="387,-40.2 387,-59.2 481,-59.2 481,-40.2 387,-40.2"/>
<text text-anchor="start" x="462.4053" y="-46.3" font-family="Helvetica,sans-Serif" font-size="11.00" fill="#000000">0 &gt;</text>
<polygon fill="none" stroke="#000000" stroke-width="2" points="192,-39.2 192,-435.2 482,-435.2 482,-39.2 192,-39.2"/>
</a>
</g>
</g>
<!-- audit_revision -->
<g id="node2" class="node">
<title>audit_revision</title>
<g id="a_node2"><a xlink:href="../../tables/audit_revision.html" xlink:title="audit_revision" target="_top">
<polygon fill="#ffffff" stroke="transparent" points="8,-351.7 8,-434.7 142,-434.7 142,-351.7 8,-351.7"/>
<polygon fill="#f5f5f5" stroke="transparent" points="8,-411.2 8,-434.2 142,-434.2 142,-411.2 8,-411.2"/>
<polygon fill="none" stroke="#000000" points="8,-411.2 8,-434.2 142,-434.2 142,-411.2 8,-411.2"/>
<text text-anchor="start" x="13" y="-419.8" font-family="Helvetica,sans-Serif" font-weight="bold" font-size="11.00" fill="#000000">audit_revision</text>
<text text-anchor="start" x="107.5219" y="-419.3" font-family="Helvetica,sans-Serif" font-size="11.00" fill="#000000">[table]</text>
<polygon fill="none" stroke="#000000" points="8,-389.2 8,-411.2 142,-411.2 142,-389.2 8,-389.2"/>
<image xlink:href="../../images/primaryKeys.png" width="11px" height="12px" preserveAspectRatio="xMinYMin meet" x="13" y="-406.2"/>
<text text-anchor="start" x="28" y="-396.3" font-family="Helvetica,sans-Serif" font-size="11.00" fill="#000000">id</text>
<polygon fill="none" stroke="#000000" points="8,-370.2 8,-389.2 142,-389.2 142,-370.2 8,-370.2"/>
<text text-anchor="start" x="11" y="-376.3" font-family="Helvetica,sans-Serif" font-size="11.00" fill="#000000">...</text>
<polygon fill="#ffffff" stroke="transparent" points="8,-351.2 8,-370.2 64,-370.2 64,-351.2 8,-351.2"/>
<polygon fill="none" stroke="#000000" points="8,-351.2 8,-370.2 64,-370.2 64,-351.2 8,-351.2"/>
<text text-anchor="start" x="11" y="-357.3" font-family="Helvetica,sans-Serif" font-size="11.00" fill="#000000"> &#160;</text>
<polygon fill="#ffffff" stroke="transparent" points="64,-351.2 64,-370.2 98,-370.2 98,-351.2 64,-351.2"/>
<polygon fill="none" stroke="#000000" points="64,-351.2 64,-370.2 98,-370.2 98,-351.2 64,-351.2"/>
<text text-anchor="start" x="88.8862" y="-357.3" font-family="Helvetica,sans-Serif" font-size="11.00" fill="#000000"> &#160;</text>
<polygon fill="#ffffff" stroke="transparent" points="98,-351.2 98,-370.2 142,-370.2 142,-351.2 98,-351.2"/>
<polygon fill="none" stroke="#000000" points="98,-351.2 98,-370.2 142,-370.2 142,-351.2 98,-351.2"/>
<text text-anchor="start" x="123.4053" y="-357.3" font-family="Helvetica,sans-Serif" font-size="11.00" fill="#000000">3 &gt;</text>
</a>
</g>
</g>
<!-- staff_role_audit&#45;&gt;audit_revision -->
<g id="edge1" class="edge">
<title>staff_role_audit:w&#45;&gt;audit_revision:e</title>
<path fill="none" stroke="#000000" d="M178.276,-400.2C166.2815,-400.2 158.8229,-400.2 142,-400.2"/>
<polygon fill="#000000" stroke="#000000" points="185,-400.2001 193,-403.8 189,-400.2 193,-400.2 193,-400.2 193,-400.2 189,-400.2 193,-396.6 185,-400.2001 185,-400.2001"/>
<ellipse fill="none" stroke="#000000" cx="181.8" cy="-400.2001" rx="3.2" ry="3.2"/>
</g>
</g>
</svg>
