<?xml version="1.0" encoding="UTF-8" standalone="no"?>
<!DOCTYPE svg PUBLIC "-//W3C//DTD SVG 1.1//EN"
 "http://www.w3.org/Graphics/SVG/1.1/DTD/svg11.dtd">
<!-- Generated by graphviz version 2.40.1 (20161225.0304)
 -->
<!-- Title: twoDegreesRelationshipsDiagram Pages: 1 -->
<svg width="499pt" height="695pt"
 viewBox="0.00 0.00 499.00 694.70" xmlns="http://www.w3.org/2000/svg" xmlns:xlink="http://www.w3.org/1999/xlink">
<g id="graph0" class="graph" transform="scale(1 1) rotate(0) translate(4 690.7)">
<title>twoDegreesRelationshipsDiagram</title>
<polygon fill="#ffffff" stroke="transparent" points="-4,4 -4,-690.7 495,-690.7 495,4 -4,4"/>
<text text-anchor="middle" x="72.4936" y="-7.3" font-family="Helvetica,sans-Serif" font-size="11.00" fill="#000000">Generated by SchemaSpy</text>
<!-- allocation_audit -->
<g id="node1" class="node">
<title>allocation_audit</title>
<g id="a_node1"><a xlink:href="../../tables/allocation_audit.html" xlink:title="allocation_audit" target="_top">
<polygon fill="#ffffff" stroke="transparent" points="264,-621.7 264,-682.7 410,-682.7 410,-621.7 264,-621.7"/>
<polygon fill="#f5f5f5" stroke="transparent" points="264,-659.2 264,-682.2 410,-682.2 410,-659.2 264,-659.2"/>
<polygon fill="none" stroke="#000000" points="264,-659.2 264,-682.2 410,-682.2 410,-659.2 264,-659.2"/>
<text text-anchor="start" x="269" y="-667.8" font-family="Helvetica,sans-Serif" font-weight="bold" font-size="11.00" fill="#000000">allocation_audit</text>
<text text-anchor="start" x="375.5219" y="-667.3" font-family="Helvetica,sans-Serif" font-size="11.00" fill="#000000">[table]</text>
<polygon fill="none" stroke="#000000" points="264,-640.2 264,-659.2 410,-659.2 410,-640.2 264,-640.2"/>
<text text-anchor="start" x="267" y="-646.3" font-family="Helvetica,sans-Serif" font-size="11.00" fill="#000000">...</text>
<polygon fill="#ffffff" stroke="transparent" points="264,-621.2 264,-640.2 335,-640.2 335,-621.2 264,-621.2"/>
<polygon fill="none" stroke="#000000" points="264,-621.2 264,-640.2 335,-640.2 335,-621.2 264,-621.2"/>
<text text-anchor="start" x="267" y="-627.3" font-family="Helvetica,sans-Serif" font-size="11.00" fill="#000000">&lt; 1</text>
<polygon fill="#ffffff" stroke="transparent" points="335,-621.2 335,-640.2 372,-640.2 372,-621.2 335,-621.2"/>
<polygon fill="none" stroke="#000000" points="335,-621.2 335,-640.2 372,-640.2 372,-621.2 335,-621.2"/>
<text text-anchor="start" x="362.8862" y="-627.3" font-family="Helvetica,sans-Serif" font-size="11.00" fill="#000000"> &#160;</text>
<polygon fill="#ffffff" stroke="transparent" points="372,-621.2 372,-640.2 410,-640.2 410,-621.2 372,-621.2"/>
<polygon fill="none" stroke="#000000" points="372,-621.2 372,-640.2 410,-640.2 410,-621.2 372,-621.2"/>
<text text-anchor="start" x="400.8862" y="-627.3" font-family="Helvetica,sans-Serif" font-size="11.00" fill="#000000"> &#160;</text>
</a>
</g>
</g>
<!-- audit_revision -->
<g id="node2" class="node">
<title>audit_revision</title>
<g id="a_node2"><a xlink:href="../../tables/audit_revision.html" xlink:title="audit_revision" target="_top">
<polygon fill="#ffffff" stroke="transparent" points="8,-477.7 8,-560.7 142,-560.7 142,-477.7 8,-477.7"/>
<polygon fill="#f5f5f5" stroke="transparent" points="8,-537.2 8,-560.2 142,-560.2 142,-537.2 8,-537.2"/>
<polygon fill="none" stroke="#000000" points="8,-537.2 8,-560.2 142,-560.2 142,-537.2 8,-537.2"/>
<text text-anchor="start" x="13" y="-545.8" font-family="Helvetica,sans-Serif" font-weight="bold" font-size="11.00" fill="#000000">audit_revision</text>
<text text-anchor="start" x="107.5219" y="-545.3" font-family="Helvetica,sans-Serif" font-size="11.00" fill="#000000">[table]</text>
<polygon fill="none" stroke="#000000" points="8,-515.2 8,-537.2 142,-537.2 142,-515.2 8,-515.2"/>
<image xlink:href="../../images/primaryKeys.png" width="11px" height="12px" preserveAspectRatio="xMinYMin meet" x="13" y="-532.2"/>
<text text-anchor="start" x="28" y="-522.3" font-family="Helvetica,sans-Serif" font-size="11.00" fill="#000000">id</text>
<polygon fill="none" stroke="#000000" points="8,-496.2 8,-515.2 142,-515.2 142,-496.2 8,-496.2"/>
<text text-anchor="start" x="11" y="-502.3" font-family="Helvetica,sans-Serif" font-size="11.00" fill="#000000">...</text>
<polygon fill="#ffffff" stroke="transparent" points="8,-477.2 8,-496.2 64,-496.2 64,-477.2 8,-477.2"/>
<polygon fill="none" stroke="#000000" points="8,-477.2 8,-496.2 64,-496.2 64,-477.2 8,-477.2"/>
<text text-anchor="start" x="11" y="-483.3" font-family="Helvetica,sans-Serif" font-size="11.00" fill="#000000"> &#160;</text>
<polygon fill="#ffffff" stroke="transparent" points="64,-477.2 64,-496.2 98,-496.2 98,-477.2 64,-477.2"/>
<polygon fill="none" stroke="#000000" points="64,-477.2 64,-496.2 98,-496.2 98,-477.2 64,-477.2"/>
<text text-anchor="start" x="88.8862" y="-483.3" font-family="Helvetica,sans-Serif" font-size="11.00" fill="#000000"> &#160;</text>
<polygon fill="#ffffff" stroke="transparent" points="98,-477.2 98,-496.2 142,-496.2 142,-477.2 98,-477.2"/>
<polygon fill="none" stroke="#000000" points="98,-477.2 98,-496.2 142,-496.2 142,-477.2 98,-477.2"/>
<text text-anchor="start" x="123.4053" y="-483.3" font-family="Helvetica,sans-Serif" font-size="11.00" fill="#000000">4 &gt;</text>
</a>
</g>
</g>
<!-- allocation_audit&#45;&gt;audit_revision -->
<g id="edge1" class="edge">
<title>allocation_audit:w&#45;&gt;audit_revision:e</title>
<path fill="none" stroke="#000000" d="M249.4757,-648.6505C220.5212,-646.2184 207.5146,-635.4518 183,-611.2 153.1825,-581.7021 183.9429,-526.2 142,-526.2"/>
<polygon fill="#000000" stroke="#000000" points="256.0057,-648.8975 263.8639,-652.7974 260.0029,-649.0488 264,-649.2 264,-649.2 264,-649.2 260.0029,-649.0488 264.1361,-645.6026 256.0057,-648.8975 256.0057,-648.8975"/>
<ellipse fill="none" stroke="#000000" cx="252.808" cy="-648.7765" rx="3.2" ry="3.2"/>
</g>
<!-- prison_configuration_audit -->
<g id="node3" class="node">
<title>prison_configuration_audit</title>
<g id="a_node3"><a xlink:href="../../tables/prison_configuration_audit.html" xlink:title="prison_configuration_audit" target="_top">
<polygon fill="#ffffff" stroke="transparent" points="227.5,-539.7 227.5,-600.7 446.5,-600.7 446.5,-539.7 227.5,-539.7"/>
<polygon fill="#f5f5f5" stroke="transparent" points="228,-577.2 228,-600.2 447,-600.2 447,-577.2 228,-577.2"/>
<polygon fill="none" stroke="#000000" points="228,-577.2 228,-600.2 447,-600.2 447,-577.2 228,-577.2"/>
<text text-anchor="start" x="233" y="-585.8" font-family="Helvetica,sans-Serif" font-weight="bold" font-size="11.00" fill="#000000">prison_configuration_audit</text>
<text text-anchor="start" x="412.5219" y="-585.3" font-family="Helvetica,sans-Serif" font-size="11.00" fill="#000000">[table]</text>
<polygon fill="none" stroke="#000000" points="228,-558.2 228,-577.2 447,-577.2 447,-558.2 228,-558.2"/>
<text text-anchor="start" x="231" y="-564.3" font-family="Helvetica,sans-Serif" font-size="11.00" fill="#000000">...</text>
<polygon fill="#ffffff" stroke="transparent" points="228,-539.2 228,-558.2 336,-558.2 336,-539.2 228,-539.2"/>
<polygon fill="none" stroke="#000000" points="228,-539.2 228,-558.2 336,-558.2 336,-539.2 228,-539.2"/>
<text text-anchor="start" x="231" y="-545.3" font-family="Helvetica,sans-Serif" font-size="11.00" fill="#000000">&lt; 1</text>
<polygon fill="#ffffff" stroke="transparent" points="336,-539.2 336,-558.2 391,-558.2 391,-539.2 336,-539.2"/>
<polygon fill="none" stroke="#000000" points="336,-539.2 336,-558.2 391,-558.2 391,-539.2 336,-539.2"/>
<text text-anchor="start" x="381.8862" y="-545.3" font-family="Helvetica,sans-Serif" font-size="11.00" fill="#000000"> &#160;</text>
<polygon fill="#ffffff" stroke="transparent" points="391,-539.2 391,-558.2 447,-558.2 447,-539.2 391,-539.2"/>
<polygon fill="none" stroke="#000000" points="391,-539.2 391,-558.2 447,-558.2 447,-539.2 391,-539.2"/>
<text text-anchor="start" x="437.8862" y="-545.3" font-family="Helvetica,sans-Serif" font-size="11.00" fill="#000000"> &#160;</text>
</a>
</g>
</g>
<!-- prison_configuration_audit&#45;&gt;audit_revision -->
<g id="edge2" class="edge">
<title>prison_configuration_audit:w&#45;&gt;audit_revision:e</title>
<path fill="none" stroke="#000000" d="M213.4945,-565.3318C184.6361,-557.311 178.8853,-526.2 142,-526.2"/>
<polygon fill="#000000" stroke="#000000" points="220.0655,-566.178 227.5401,-570.7705 224.0328,-566.689 228,-567.2 228,-567.2 228,-567.2 224.0328,-566.689 228.4599,-563.6295 220.0655,-566.178 220.0655,-566.178"/>
<ellipse fill="none" stroke="#000000" cx="216.8918" cy="-565.7693" rx="3.2" ry="3.2"/>
</g>
<!-- staff_configuration_audit -->
<g id="node4" class="node">
<title>staff_configuration_audit</title>
<g id="a_node4"><a xlink:href="../../tables/staff_configuration_audit.html" xlink:title="staff_configuration_audit" target="_top">
<polygon fill="#ffffff" stroke="transparent" points="233,-457.7 233,-518.7 441,-518.7 441,-457.7 233,-457.7"/>
<polygon fill="#f5f5f5" stroke="transparent" points="233,-495.2 233,-518.2 441,-518.2 441,-495.2 233,-495.2"/>
<polygon fill="none" stroke="#000000" points="233,-495.2 233,-518.2 441,-518.2 441,-495.2 233,-495.2"/>
<text text-anchor="start" x="238" y="-503.8" font-family="Helvetica,sans-Serif" font-weight="bold" font-size="11.00" fill="#000000">staff_configuration_audit</text>
<text text-anchor="start" x="406.5219" y="-503.3" font-family="Helvetica,sans-Serif" font-size="11.00" fill="#000000">[table]</text>
<polygon fill="none" stroke="#000000" points="233,-476.2 233,-495.2 441,-495.2 441,-476.2 233,-476.2"/>
<text text-anchor="start" x="236" y="-482.3" font-family="Helvetica,sans-Serif" font-size="11.00" fill="#000000">...</text>
<polygon fill="#ffffff" stroke="transparent" points="233,-457.2 233,-476.2 335,-476.2 335,-457.2 233,-457.2"/>
<polygon fill="none" stroke="#000000" points="233,-457.2 233,-476.2 335,-476.2 335,-457.2 233,-457.2"/>
<text text-anchor="start" x="236" y="-463.3" font-family="Helvetica,sans-Serif" font-size="11.00" fill="#000000">&lt; 1</text>
<polygon fill="#ffffff" stroke="transparent" points="335,-457.2 335,-476.2 388,-476.2 388,-457.2 335,-457.2"/>
<polygon fill="none" stroke="#000000" points="335,-457.2 335,-476.2 388,-476.2 388,-457.2 335,-457.2"/>
<text text-anchor="start" x="378.8862" y="-463.3" font-family="Helvetica,sans-Serif" font-size="11.00" fill="#000000"> &#160;</text>
<polygon fill="#ffffff" stroke="transparent" points="388,-457.2 388,-476.2 441,-476.2 441,-457.2 388,-457.2"/>
<polygon fill="none" stroke="#000000" points="388,-457.2 388,-476.2 441,-476.2 441,-457.2 388,-457.2"/>
<text text-anchor="start" x="431.8862" y="-463.3" font-family="Helvetica,sans-Serif" font-size="11.00" fill="#000000"> &#160;</text>
</a>
</g>
</g>
<!-- staff_configuration_audit&#45;&gt;audit_revision -->
<g id="edge3" class="edge">
<title>staff_configuration_audit:w&#45;&gt;audit_revision:e</title>
<path fill="none" stroke="#000000" d="M218.5866,-486.858C187.4708,-494.5285 180.9882,-526.2 142,-526.2"/>
<polygon fill="#000000" stroke="#000000" points="225.0524,-486.1143 233.4114,-488.7764 229.0262,-485.6571 233,-485.2 233,-485.2 233,-485.2 229.0262,-485.6571 232.5886,-481.6236 225.0524,-486.1143 225.0524,-486.1143"/>
<ellipse fill="none" stroke="#000000" cx="221.8734" cy="-486.48" rx="3.2" ry="3.2"/>
</g>
<!-- staff_role_audit -->
<g id="node5" class="node">
<title>staff_role_audit</title>
<g id="a_node5"><a xlink:href="../../tables/staff_role_audit.html" xlink:title="staff_role_audit" target="_top">
<polygon fill="#ffffff" stroke="transparent" points="191,-38.2 191,-436.2 483,-436.2 483,-38.2 191,-38.2"/>
<polygon fill="#f5f5f5" stroke="transparent" points="193,-411.2 193,-434.2 481,-434.2 481,-411.2 193,-411.2"/>
<polygon fill="none" stroke="#000000" points="193,-411.2 193,-434.2 481,-434.2 481,-411.2 193,-411.2"/>
<text text-anchor="start" x="198" y="-419.8" font-family="Helvetica,sans-Serif" font-weight="bold" font-size="11.00" fill="#000000">staff_role_audit</text>
<text text-anchor="start" x="446.0437" y="-419.3" font-family="Helvetica,sans-Serif" font-size="11.00" fill="#000000">[table]</text>
<polygon fill="none" stroke="#000000" points="193,-389.2 193,-411.2 387,-411.2 387,-389.2 193,-389.2"/>
<image xlink:href="../../images/primaryKeys.png" width="11px" height="12px" preserveAspectRatio="xMinYMin meet" x="198" y="-406.2"/>
<text text-anchor="start" x="213" y="-396.3" font-family="Helvetica,sans-Serif" font-size="11.00" fill="#000000">rev_id</text>
<polygon fill="none" stroke="#000000" points="387,-389.2 387,-411.2 481,-411.2 481,-389.2 387,-389.2"/>
<text text-anchor="start" x="390" y="-396.9" font-family="Helvetica,sans-Serif" font-size="11.00" fill="#000000">int8[19]</text>
<polygon fill="none" stroke="#000000" points="193,-367.2 193,-389.2 387,-389.2 387,-367.2 193,-367.2"/>
<text text-anchor="start" x="213" y="-374.3" font-family="Helvetica,sans-Serif" font-size="11.00" fill="#000000">rev_type</text>
<polygon fill="none" stroke="#000000" points="387,-367.2 387,-389.2 481,-389.2 481,-367.2 387,-367.2"/>
<text text-anchor="start" x="390" y="-374.9" font-family="Helvetica,sans-Serif" font-size="11.00" fill="#000000">int2[5]</text>
<polygon fill="none" stroke="#000000" points="193,-345.2 193,-367.2 387,-367.2 387,-345.2 193,-345.2"/>
<image xlink:href="../../images/primaryKeys.png" width="11px" height="12px" preserveAspectRatio="xMinYMin meet" x="198" y="-362.2"/>
<text text-anchor="start" x="213" y="-352.3" font-family="Helvetica,sans-Serif" font-size="11.00" fill="#000000">id</text>
<polygon fill="none" stroke="#000000" points="387,-345.2 387,-367.2 481,-367.2 481,-345.2 387,-345.2"/>
<text text-anchor="start" x="389.9758" y="-352.9" font-family="Helvetica,sans-Serif" font-size="11.00" fill="#000000">uuid[2147483647]</text>
<polygon fill="none" stroke="#000000" points="193,-323.2 193,-345.2 387,-345.2 387,-323.2 193,-323.2"/>
<image xlink:href="../../images/foreignKeys.png" width="11px" height="12px" preserveAspectRatio="xMinYMin meet" x="198" y="-340.2"/>
<text text-anchor="start" x="213" y="-330.3" font-family="Helvetica,sans-Serif" font-size="11.00" fill="#000000">policy_code</text>
<polygon fill="none" stroke="#000000" points="387,-323.2 387,-345.2 481,-345.2 481,-323.2 387,-323.2"/>
<text text-anchor="start" x="390" y="-330.9" font-family="Helvetica,sans-Serif" font-size="11.00" fill="#000000">varchar[16]</text>
<polygon fill="none" stroke="#000000" points="193,-301.2 193,-323.2 387,-323.2 387,-301.2 193,-301.2"/>
<image xlink:href="../../images/foreignKeys.png" width="11px" height="12px" preserveAspectRatio="xMinYMin meet" x="198" y="-318.2"/>
<text text-anchor="start" x="213" y="-308.3" font-family="Helvetica,sans-Serif" font-size="11.00" fill="#000000">prison_code</text>
<polygon fill="none" stroke="#000000" points="387,-301.2 387,-323.2 481,-323.2 481,-301.2 387,-301.2"/>
<text text-anchor="start" x="390" y="-308.9" font-family="Helvetica,sans-Serif" font-size="11.00" fill="#000000">varchar[6]</text>
<polygon fill="none" stroke="#000000" points="193,-279.2 193,-301.2 387,-301.2 387,-279.2 193,-279.2"/>
<text text-anchor="start" x="213" y="-286.3" font-family="Helvetica,sans-Serif" font-size="11.00" fill="#000000">staff_id</text>
<polygon fill="none" stroke="#000000" points="387,-279.2 387,-301.2 481,-301.2 481,-279.2 387,-279.2"/>
<text text-anchor="start" x="390" y="-286.9" font-family="Helvetica,sans-Serif" font-size="11.00" fill="#000000">int8[19]</text>
<polygon fill="none" stroke="#000000" points="193,-257.2 193,-279.2 387,-279.2 387,-257.2 193,-257.2"/>
<text text-anchor="start" x="213" y="-264.3" font-family="Helvetica,sans-Serif" font-size="11.00" fill="#000000">position_id</text>
<polygon fill="none" stroke="#000000" points="387,-257.2 387,-279.2 481,-279.2 481,-257.2 387,-257.2"/>
<text text-anchor="start" x="390" y="-264.9" font-family="Helvetica,sans-Serif" font-size="11.00" fill="#000000">int8[19]</text>
<polygon fill="none" stroke="#000000" points="193,-235.2 193,-257.2 387,-257.2 387,-235.2 193,-235.2"/>
<text text-anchor="start" x="213" y="-242.3" font-family="Helvetica,sans-Serif" font-size="11.00" fill="#000000">schedule_type_id</text>
<polygon fill="none" stroke="#000000" points="387,-235.2 387,-257.2 481,-257.2 481,-235.2 387,-235.2"/>
<text text-anchor="start" x="390" y="-242.9" font-family="Helvetica,sans-Serif" font-size="11.00" fill="#000000">int8[19]</text>
<polygon fill="none" stroke="#000000" points="193,-213.2 193,-235.2 387,-235.2 387,-213.2 193,-213.2"/>
<text text-anchor="start" x="213" y="-220.3" font-family="Helvetica,sans-Serif" font-size="11.00" fill="#000000">hours_per_week</text>
<polygon fill="none" stroke="#000000" points="387,-213.2 387,-235.2 481,-235.2 481,-213.2 387,-213.2"/>
<text text-anchor="start" x="390" y="-220.9" font-family="Helvetica,sans-Serif" font-size="11.00" fill="#000000">int4[10]</text>
<polygon fill="none" stroke="#000000" points="193,-191.2 193,-213.2 387,-213.2 387,-191.2 193,-191.2"/>
<text text-anchor="start" x="213" y="-198.3" font-family="Helvetica,sans-Serif" font-size="11.00" fill="#000000">from_date</text>
<polygon fill="none" stroke="#000000" points="387,-191.2 387,-213.2 481,-213.2 481,-191.2 387,-191.2"/>
<text text-anchor="start" x="390" y="-198.9" font-family="Helvetica,sans-Serif" font-size="11.00" fill="#000000">date[13]</text>
<polygon fill="none" stroke="#000000" points="193,-169.2 193,-191.2 387,-191.2 387,-169.2 193,-169.2"/>
<text text-anchor="start" x="213" y="-176.3" font-family="Helvetica,sans-Serif" font-size="11.00" fill="#000000">to_date</text>
<polygon fill="none" stroke="#000000" points="387,-169.2 387,-191.2 481,-191.2 481,-169.2 387,-169.2"/>
<text text-anchor="start" x="390" y="-176.9" font-family="Helvetica,sans-Serif" font-size="11.00" fill="#000000">date[13]</text>
<polygon fill="none" stroke="#000000" points="193,-147.2 193,-169.2 387,-169.2 387,-147.2 193,-147.2"/>
<text text-anchor="start" x="213" y="-154.3" font-family="Helvetica,sans-Serif" font-size="11.00" fill="#000000">position_modified</text>
<polygon fill="none" stroke="#000000" points="387,-147.2 387,-169.2 481,-169.2 481,-147.2 387,-147.2"/>
<text text-anchor="start" x="390" y="-154.9" font-family="Helvetica,sans-Serif" font-size="11.00" fill="#000000">bool[1]</text>
<polygon fill="none" stroke="#000000" points="193,-125.2 193,-147.2 387,-147.2 387,-125.2 193,-125.2"/>
<text text-anchor="start" x="213" y="-132.3" font-family="Helvetica,sans-Serif" font-size="11.00" fill="#000000">schedule_type_modified</text>
<polygon fill="none" stroke="#000000" points="387,-125.2 387,-147.2 481,-147.2 481,-125.2 387,-125.2"/>
<text text-anchor="start" x="390" y="-132.9" font-family="Helvetica,sans-Serif" font-size="11.00" fill="#000000">bool[1]</text>
<polygon fill="none" stroke="#000000" points="193,-103.2 193,-125.2 387,-125.2 387,-103.2 193,-103.2"/>
<text text-anchor="start" x="213" y="-110.3" font-family="Helvetica,sans-Serif" font-size="11.00" fill="#000000">hours_per_week_modified</text>
<polygon fill="none" stroke="#000000" points="387,-103.2 387,-125.2 481,-125.2 481,-103.2 387,-103.2"/>
<text text-anchor="start" x="390" y="-110.9" font-family="Helvetica,sans-Serif" font-size="11.00" fill="#000000">bool[1]</text>
<polygon fill="none" stroke="#000000" points="193,-81.2 193,-103.2 387,-103.2 387,-81.2 193,-81.2"/>
<text text-anchor="start" x="213" y="-88.3" font-family="Helvetica,sans-Serif" font-size="11.00" fill="#000000">from_date_modified</text>
<polygon fill="none" stroke="#000000" points="387,-81.2 387,-103.2 481,-103.2 481,-81.2 387,-81.2"/>
<text text-anchor="start" x="390" y="-88.9" font-family="Helvetica,sans-Serif" font-size="11.00" fill="#000000">bool[1]</text>
<polygon fill="none" stroke="#000000" points="193,-59.2 193,-81.2 387,-81.2 387,-59.2 193,-59.2"/>
<text text-anchor="start" x="213" y="-66.3" font-family="Helvetica,sans-Serif" font-size="11.00" fill="#000000">to_date_modified</text>
<polygon fill="none" stroke="#000000" points="387,-59.2 387,-81.2 481,-81.2 481,-59.2 387,-59.2"/>
<text text-anchor="start" x="390" y="-66.9" font-family="Helvetica,sans-Serif" font-size="11.00" fill="#000000">bool[1]</text>
<polygon fill="#ffffff" stroke="transparent" points="193,-40.2 193,-59.2 294,-59.2 294,-40.2 193,-40.2"/>
<polygon fill="none" stroke="#000000" points="193,-40.2 193,-59.2 294,-59.2 294,-40.2 193,-40.2"/>
<text text-anchor="start" x="196" y="-46.3" font-family="Helvetica,sans-Serif" font-size="11.00" fill="#000000">&lt; 1</text>
<polygon fill="#ffffff" stroke="transparent" points="294,-40.2 294,-59.2 387,-59.2 387,-40.2 294,-40.2"/>
<polygon fill="none" stroke="#000000" points="294,-40.2 294,-59.2 387,-59.2 387,-40.2 294,-40.2"/>
<text text-anchor="start" x="377.8862" y="-46.3" font-family="Helvetica,sans-Serif" font-size="11.00" fill="#000000"> &#160;</text>
<polygon fill="#ffffff" stroke="transparent" points="387,-40.2 387,-59.2 481,-59.2 481,-40.2 387,-40.2"/>
<polygon fill="none" stroke="#000000" points="387,-40.2 387,-59.2 481,-59.2 481,-40.2 387,-40.2"/>
<text text-anchor="start" x="462.4053" y="-46.3" font-family="Helvetica,sans-Serif" font-size="11.00" fill="#000000">0 &gt;</text>
<polygon fill="none" stroke="#000000" stroke-width="2" points="192,-39.2 192,-435.2 482,-435.2 482,-39.2 192,-39.2"/>
</a>
</g>
</g>
<!-- staff_role_audit&#45;&gt;audit_revision -->
<g id="edge4" class="edge">
<title>staff_role_audit:w&#45;&gt;audit_revision:e</title>
<path fill="none" stroke="#000000" d="M178.7844,-403.5702C144.9826,-423.6077 196.5136,-526.2 142,-526.2"/>
<polygon fill="#000000" stroke="#000000" points="185.2158,-402.0455 193.8305,-403.7029 189.1079,-401.1228 193,-400.2 193,-400.2 193,-400.2 189.1079,-401.1228 192.1695,-396.6971 185.2158,-402.0455 185.2158,-402.0455"/>
<ellipse fill="none" stroke="#000000" cx="182.1021" cy="-402.7837" rx="3.2" ry="3.2"/>
</g>
</g>
</svg>
