<?xml version="1.0" encoding="UTF-8" standalone="no"?>
<!DOCTYPE svg PUBLIC "-//W3C//DTD SVG 1.1//EN"
 "http://www.w3.org/Graphics/SVG/1.1/DTD/svg11.dtd">
<!-- Generated by graphviz version 2.40.1 (20161225.0304)
 -->
<!-- Title: twoDegreesRelationshipsDiagram Pages: 1 -->
<svg width="463pt" height="721pt"
 viewBox="0.00 0.00 463.00 721.20" xmlns="http://www.w3.org/2000/svg" xmlns:xlink="http://www.w3.org/1999/xlink">
<g id="graph0" class="graph" transform="scale(1 1) rotate(0) translate(4 717.2)">
<title>twoDegreesRelationshipsDiagram</title>
<polygon fill="#ffffff" stroke="transparent" points="-4,4 -4,-717.2 459,-717.2 459,4 -4,4"/>
<text text-anchor="middle" x="72.4936" y="-7.3" font-family="Helvetica,sans-Serif" font-size="11.00" fill="#000000">Generated by SchemaSpy</text>
<!-- allocation -->
<g id="node1" class="node">
<title>allocation</title>
<g id="a_node1"><a xlink:href="../../tables/allocation.html" xlink:title="allocation" target="_top">
<polygon fill="#ffffff" stroke="transparent" points="271,-648.2 271,-709.2 376,-709.2 376,-648.2 271,-648.2"/>
<polygon fill="#f5f5f5" stroke="transparent" points="271.5,-685.7 271.5,-708.7 376.5,-708.7 376.5,-685.7 271.5,-685.7"/>
<polygon fill="none" stroke="#000000" points="271.5,-685.7 271.5,-708.7 376.5,-708.7 376.5,-685.7 271.5,-685.7"/>
<text text-anchor="start" x="276.5" y="-694.3" font-family="Helvetica,sans-Serif" font-weight="bold" font-size="11.00" fill="#000000">allocation</text>
<text text-anchor="start" x="342.0219" y="-693.8" font-family="Helvetica,sans-Serif" font-size="11.00" fill="#000000">[table]</text>
<polygon fill="none" stroke="#000000" points="271.5,-666.7 271.5,-685.7 376.5,-685.7 376.5,-666.7 271.5,-666.7"/>
<text text-anchor="start" x="274.5" y="-672.8" font-family="Helvetica,sans-Serif" font-size="11.00" fill="#000000">...</text>
<polygon fill="#ffffff" stroke="transparent" points="271.5,-647.7 271.5,-666.7 322.5,-666.7 322.5,-647.7 271.5,-647.7"/>
<polygon fill="none" stroke="#000000" points="271.5,-647.7 271.5,-666.7 322.5,-666.7 322.5,-647.7 271.5,-647.7"/>
<text text-anchor="start" x="274.5" y="-653.8" font-family="Helvetica,sans-Serif" font-size="11.00" fill="#000000">&lt; 3</text>
<polygon fill="#ffffff" stroke="transparent" points="322.5,-647.7 322.5,-666.7 349.5,-666.7 349.5,-647.7 322.5,-647.7"/>
<polygon fill="none" stroke="#000000" points="322.5,-647.7 322.5,-666.7 349.5,-666.7 349.5,-647.7 322.5,-647.7"/>
<text text-anchor="start" x="340.3862" y="-653.8" font-family="Helvetica,sans-Serif" font-size="11.00" fill="#000000"> &#160;</text>
<polygon fill="#ffffff" stroke="transparent" points="349.5,-647.7 349.5,-666.7 376.5,-666.7 376.5,-647.7 349.5,-647.7"/>
<polygon fill="none" stroke="#000000" points="349.5,-647.7 349.5,-666.7 376.5,-666.7 376.5,-647.7 349.5,-647.7"/>
<text text-anchor="start" x="367.3862" y="-653.8" font-family="Helvetica,sans-Serif" font-size="11.00" fill="#000000"> &#160;</text>
</a>
</g>
</g>
<!-- reference_data -->
<g id="node2" class="node">
<title>reference_data</title>
<g id="a_node2"><a xlink:href="../../tables/reference_data.html" xlink:title="reference_data" target="_top">
<polygon fill="#ffffff" stroke="transparent" points="8,-479.2 8,-628.2 151,-628.2 151,-479.2 8,-479.2"/>
<polygon fill="#f5f5f5" stroke="transparent" points="8.5,-604.7 8.5,-627.7 151.5,-627.7 151.5,-604.7 8.5,-604.7"/>
<polygon fill="none" stroke="#000000" points="8.5,-604.7 8.5,-627.7 151.5,-627.7 151.5,-604.7 8.5,-604.7"/>
<text text-anchor="start" x="13.5" y="-613.3" font-family="Helvetica,sans-Serif" font-weight="bold" font-size="11.00" fill="#000000">reference_data</text>
<text text-anchor="start" x="116.5437" y="-612.8" font-family="Helvetica,sans-Serif" font-size="11.00" fill="#000000">[table]</text>
<polygon fill="none" stroke="#000000" points="8.5,-582.7 8.5,-604.7 151.5,-604.7 151.5,-582.7 8.5,-582.7"/>
<image xlink:href="../../images/primaryKeys.png" width="11px" height="12px" preserveAspectRatio="xMinYMin meet" x="13.5" y="-599.7"/>
<text text-anchor="start" x="28.5" y="-589.8" font-family="Helvetica,sans-Serif" font-size="11.00" fill="#000000">id</text>
<polygon fill="#ffffff" stroke="transparent" points="8.5,-560.7 8.5,-582.7 151.5,-582.7 151.5,-560.7 8.5,-560.7"/>
<polygon fill="none" stroke="#000000" points="8.5,-560.7 8.5,-582.7 151.5,-582.7 151.5,-560.7 8.5,-560.7"/>
<text text-anchor="start" x="28.5" y="-567.8" font-family="Helvetica,sans-Serif" font-size="11.00" fill="#000000">domain</text>
<polygon fill="#ffffff" stroke="transparent" points="8.5,-538.7 8.5,-560.7 151.5,-560.7 151.5,-538.7 8.5,-538.7"/>
<polygon fill="none" stroke="#000000" points="8.5,-538.7 8.5,-560.7 151.5,-560.7 151.5,-538.7 8.5,-538.7"/>
<text text-anchor="start" x="28.5" y="-545.8" font-family="Helvetica,sans-Serif" font-size="11.00" fill="#000000">code</text>
<polygon fill="#ffffff" stroke="transparent" points="8.5,-516.7 8.5,-538.7 151.5,-538.7 151.5,-516.7 8.5,-516.7"/>
<polygon fill="none" stroke="#000000" points="8.5,-516.7 8.5,-538.7 151.5,-538.7 151.5,-516.7 8.5,-516.7"/>
<text text-anchor="start" x="28.5" y="-523.8" font-family="Helvetica,sans-Serif" font-size="11.00" fill="#000000">sequence_number</text>
<polygon fill="none" stroke="#000000" points="8.5,-497.7 8.5,-516.7 151.5,-516.7 151.5,-497.7 8.5,-497.7"/>
<text text-anchor="start" x="11.5" y="-503.8" font-family="Helvetica,sans-Serif" font-size="11.00" fill="#000000">...</text>
<polygon fill="#ffffff" stroke="transparent" points="8.5,-478.7 8.5,-497.7 53.5,-497.7 53.5,-478.7 8.5,-478.7"/>
<polygon fill="none" stroke="#000000" points="8.5,-478.7 8.5,-497.7 53.5,-497.7 53.5,-478.7 8.5,-478.7"/>
<text text-anchor="start" x="11.5" y="-484.8" font-family="Helvetica,sans-Serif" font-size="11.00" fill="#000000"> &#160;</text>
<polygon fill="#ffffff" stroke="transparent" points="53.5,-478.7 53.5,-497.7 113.5,-497.7 113.5,-478.7 53.5,-478.7"/>
<polygon fill="none" stroke="#000000" points="53.5,-478.7 53.5,-497.7 113.5,-497.7 113.5,-478.7 53.5,-478.7"/>
<text text-anchor="start" x="71.9956" y="-484.8" font-family="Helvetica,sans-Serif" font-size="11.00" fill="#000000">60 rows</text>
<polygon fill="#ffffff" stroke="transparent" points="113.5,-478.7 113.5,-497.7 151.5,-497.7 151.5,-478.7 113.5,-478.7"/>
<polygon fill="none" stroke="#000000" points="113.5,-478.7 113.5,-497.7 151.5,-497.7 151.5,-478.7 113.5,-478.7"/>
<text text-anchor="start" x="132.9053" y="-484.8" font-family="Helvetica,sans-Serif" font-size="11.00" fill="#000000">5 &gt;</text>
</a>
</g>
</g>
<!-- allocation&#45;&gt;reference_data -->
<g id="edge1" class="edge">
<title>allocation:w&#45;&gt;reference_data:e</title>
<path fill="none" stroke="#000000" d="M257.3767,-672.848C229.5899,-665.6372 219.314,-651.8815 192,-631.7 170.6235,-615.9056 178.0786,-587.7 151.5,-593.7"/>
<polygon fill="#000000" stroke="#000000" points="263.6583,-674.1164 270.7874,-679.2288 267.5791,-674.9082 271.5,-675.7 271.5,-675.7 271.5,-675.7 267.5791,-674.9082 272.2126,-672.1712 263.6583,-674.1164 263.6583,-674.1164"/>
<ellipse fill="none" stroke="#000000" cx="260.5216" cy="-673.483" rx="3.2" ry="3.2"/>
</g>
<!-- allocation&#45;&gt;reference_data -->
<g id="edge2" class="edge">
<title>allocation:w&#45;&gt;reference_data:e</title>
<path fill="none" stroke="#000000" d="M257.0023,-677.3864C229.497,-678.5132 219.191,-664.7906 192,-644.7 170.6235,-628.9056 178.0786,-600.7 151.5,-593.7"/>
<polygon fill="#000000" stroke="#000000" points="263.5536,-676.6244 271.916,-679.2759 267.5268,-676.1622 271.5,-675.7 271.5,-675.7 271.5,-675.7 267.5268,-676.1622 271.084,-672.1241 263.5536,-676.6244 263.5536,-676.6244"/>
<ellipse fill="none" stroke="#000000" cx="260.375" cy="-676.9941" rx="3.2" ry="3.2"/>
</g>
<!-- policy -->
<g id="node3" class="node">
<title>policy</title>
<g id="a_node3"><a xlink:href="../../tables/policy.html" xlink:title="policy" target="_top">
<polygon fill="#ffffff" stroke="transparent" points="31,-290.2 31,-373.2 128,-373.2 128,-290.2 31,-290.2"/>
<polygon fill="#f5f5f5" stroke="transparent" points="31.5,-349.7 31.5,-372.7 128.5,-372.7 128.5,-349.7 31.5,-349.7"/>
<polygon fill="none" stroke="#000000" points="31.5,-349.7 31.5,-372.7 128.5,-372.7 128.5,-349.7 31.5,-349.7"/>
<text text-anchor="start" x="36.5" y="-358.3" font-family="Helvetica,sans-Serif" font-weight="bold" font-size="11.00" fill="#000000">policy</text>
<text text-anchor="start" x="93.5437" y="-357.8" font-family="Helvetica,sans-Serif" font-size="11.00" fill="#000000">[table]</text>
<polygon fill="none" stroke="#000000" points="31.5,-327.7 31.5,-349.7 128.5,-349.7 128.5,-327.7 31.5,-327.7"/>
<image xlink:href="../../images/primaryKeys.png" width="11px" height="12px" preserveAspectRatio="xMinYMin meet" x="36.5" y="-344.7"/>
<text text-anchor="start" x="51.5" y="-334.8" font-family="Helvetica,sans-Serif" font-size="11.00" fill="#000000">code</text>
<polygon fill="none" stroke="#000000" points="31.5,-308.7 31.5,-327.7 128.5,-327.7 128.5,-308.7 31.5,-308.7"/>
<text text-anchor="start" x="34.5" y="-314.8" font-family="Helvetica,sans-Serif" font-size="11.00" fill="#000000">...</text>
<polygon fill="#ffffff" stroke="transparent" points="31.5,-289.7 31.5,-308.7 69.5,-308.7 69.5,-289.7 31.5,-289.7"/>
<polygon fill="none" stroke="#000000" points="31.5,-289.7 31.5,-308.7 69.5,-308.7 69.5,-289.7 31.5,-289.7"/>
<text text-anchor="start" x="34.5" y="-295.8" font-family="Helvetica,sans-Serif" font-size="11.00" fill="#000000"> &#160;</text>
<polygon fill="#ffffff" stroke="transparent" points="69.5,-289.7 69.5,-308.7 94.5,-308.7 94.5,-289.7 69.5,-289.7"/>
<polygon fill="none" stroke="#000000" points="69.5,-289.7 69.5,-308.7 94.5,-308.7 94.5,-289.7 69.5,-289.7"/>
<text text-anchor="start" x="85.3862" y="-295.8" font-family="Helvetica,sans-Serif" font-size="11.00" fill="#000000"> &#160;</text>
<polygon fill="#ffffff" stroke="transparent" points="94.5,-289.7 94.5,-308.7 128.5,-308.7 128.5,-289.7 94.5,-289.7"/>
<polygon fill="none" stroke="#000000" points="94.5,-289.7 94.5,-308.7 128.5,-308.7 128.5,-289.7 94.5,-289.7"/>
<text text-anchor="start" x="109.9053" y="-295.8" font-family="Helvetica,sans-Serif" font-size="11.00" fill="#000000">7 &gt;</text>
</a>
</g>
</g>
<!-- allocation&#45;&gt;policy -->
<g id="edge3" class="edge">
<title>allocation:w&#45;&gt;policy:e</title>
<path fill="none" stroke="#000000" d="M257.0316,-675.2881C227.8574,-673.4092 212.7919,-664.5523 192,-637.7 108.8271,-530.2839 264.3527,-338.7 128.5,-338.7"/>
<polygon fill="#000000" stroke="#000000" points="263.5032,-675.4723 271.3975,-679.2985 267.5016,-675.5862 271.5,-675.7 271.5,-675.7 271.5,-675.7 267.5016,-675.5862 271.6025,-672.1015 263.5032,-675.4723 263.5032,-675.4723"/>
<ellipse fill="none" stroke="#000000" cx="260.3045" cy="-675.3812" rx="3.2" ry="3.2"/>
</g>
<!-- prison_configuration -->
<g id="node4" class="node">
<title>prison_configuration</title>
<g id="a_node4"><a xlink:href="../../tables/prison_configuration.html" xlink:title="prison_configuration" target="_top">
<polygon fill="#ffffff" stroke="transparent" points="234.5,-202.2 234.5,-263.2 412.5,-263.2 412.5,-202.2 234.5,-202.2"/>
<polygon fill="#f5f5f5" stroke="transparent" points="234.5,-239.7 234.5,-262.7 412.5,-262.7 412.5,-239.7 234.5,-239.7"/>
<polygon fill="none" stroke="#000000" points="234.5,-239.7 234.5,-262.7 412.5,-262.7 412.5,-239.7 234.5,-239.7"/>
<text text-anchor="start" x="239.5" y="-248.3" font-family="Helvetica,sans-Serif" font-weight="bold" font-size="11.00" fill="#000000">prison_configuration</text>
<text text-anchor="start" x="378.0219" y="-247.8" font-family="Helvetica,sans-Serif" font-size="11.00" fill="#000000">[table]</text>
<polygon fill="none" stroke="#000000" points="234.5,-220.7 234.5,-239.7 412.5,-239.7 412.5,-220.7 234.5,-220.7"/>
<text text-anchor="start" x="237.5" y="-226.8" font-family="Helvetica,sans-Serif" font-size="11.00" fill="#000000">...</text>
<polygon fill="#ffffff" stroke="transparent" points="234.5,-201.7 234.5,-220.7 305.5,-220.7 305.5,-201.7 234.5,-201.7"/>
<polygon fill="none" stroke="#000000" points="234.5,-201.7 234.5,-220.7 305.5,-220.7 305.5,-201.7 234.5,-201.7"/>
<text text-anchor="start" x="237.5" y="-207.8" font-family="Helvetica,sans-Serif" font-size="11.00" fill="#000000">&lt; 1</text>
<polygon fill="#ffffff" stroke="transparent" points="305.5,-201.7 305.5,-220.7 374.5,-220.7 374.5,-201.7 305.5,-201.7"/>
<polygon fill="none" stroke="#000000" points="305.5,-201.7 305.5,-220.7 374.5,-220.7 374.5,-201.7 305.5,-201.7"/>
<text text-anchor="start" x="332.9956" y="-207.8" font-family="Helvetica,sans-Serif" font-size="11.00" fill="#000000">12 rows</text>
<polygon fill="#ffffff" stroke="transparent" points="374.5,-201.7 374.5,-220.7 412.5,-220.7 412.5,-201.7 374.5,-201.7"/>
<polygon fill="none" stroke="#000000" points="374.5,-201.7 374.5,-220.7 412.5,-220.7 412.5,-201.7 374.5,-201.7"/>
<text text-anchor="start" x="403.3862" y="-207.8" font-family="Helvetica,sans-Serif" font-size="11.00" fill="#000000"> &#160;</text>
</a>
</g>
</g>
<!-- prison_configuration&#45;&gt;policy -->
<g id="edge4" class="edge">
<title>prison_configuration:w&#45;&gt;policy:e</title>
<path fill="none" stroke="#000000" d="M220.0277,-231.6849C170.9736,-246.4581 190.6633,-338.7 128.5,-338.7"/>
<polygon fill="#000000" stroke="#000000" points="226.5742,-230.7871 234.9892,-233.2666 230.5371,-230.2436 234.5,-229.7 234.5,-229.7 234.5,-229.7 230.5371,-230.2436 234.0108,-226.1334 226.5742,-230.7871 226.5742,-230.7871"/>
<ellipse fill="none" stroke="#000000" cx="223.4039" cy="-231.2219" rx="3.2" ry="3.2"/>
</g>
<!-- prison_statistic -->
<g id="node5" class="node">
<title>prison_statistic</title>
<g id="a_node5"><a xlink:href="../../tables/prison_statistic.html" xlink:title="prison_statistic" target="_top">
<polygon fill="#ffffff" stroke="transparent" points="252.5,-120.2 252.5,-181.2 394.5,-181.2 394.5,-120.2 252.5,-120.2"/>
<polygon fill="#f5f5f5" stroke="transparent" points="252.5,-157.7 252.5,-180.7 394.5,-180.7 394.5,-157.7 252.5,-157.7"/>
<polygon fill="none" stroke="#000000" points="252.5,-157.7 252.5,-180.7 394.5,-180.7 394.5,-157.7 252.5,-157.7"/>
<text text-anchor="start" x="257.5" y="-166.3" font-family="Helvetica,sans-Serif" font-weight="bold" font-size="11.00" fill="#000000">prison_statistic</text>
<text text-anchor="start" x="360.0219" y="-165.8" font-family="Helvetica,sans-Serif" font-size="11.00" fill="#000000">[table]</text>
<polygon fill="none" stroke="#000000" points="252.5,-138.7 252.5,-157.7 394.5,-157.7 394.5,-138.7 252.5,-138.7"/>
<text text-anchor="start" x="255.5" y="-144.8" font-family="Helvetica,sans-Serif" font-size="11.00" fill="#000000">...</text>
<polygon fill="#ffffff" stroke="transparent" points="252.5,-119.7 252.5,-138.7 321.5,-138.7 321.5,-119.7 252.5,-119.7"/>
<polygon fill="none" stroke="#000000" points="252.5,-119.7 252.5,-138.7 321.5,-138.7 321.5,-119.7 252.5,-119.7"/>
<text text-anchor="start" x="255.5" y="-125.8" font-family="Helvetica,sans-Serif" font-size="11.00" fill="#000000">&lt; 1</text>
<polygon fill="#ffffff" stroke="transparent" points="321.5,-119.7 321.5,-138.7 357.5,-138.7 357.5,-119.7 321.5,-119.7"/>
<polygon fill="none" stroke="#000000" points="321.5,-119.7 321.5,-138.7 357.5,-138.7 357.5,-119.7 321.5,-119.7"/>
<text text-anchor="start" x="348.3862" y="-125.8" font-family="Helvetica,sans-Serif" font-size="11.00" fill="#000000"> &#160;</text>
<polygon fill="#ffffff" stroke="transparent" points="357.5,-119.7 357.5,-138.7 394.5,-138.7 394.5,-119.7 357.5,-119.7"/>
<polygon fill="none" stroke="#000000" points="357.5,-119.7 357.5,-138.7 394.5,-138.7 394.5,-119.7 357.5,-119.7"/>
<text text-anchor="start" x="385.3862" y="-125.8" font-family="Helvetica,sans-Serif" font-size="11.00" fill="#000000"> &#160;</text>
</a>
</g>
</g>
<!-- prison_statistic&#45;&gt;policy -->
<g id="edge5" class="edge">
<title>prison_statistic:w&#45;&gt;policy:e</title>
<path fill="none" stroke="#000000" d="M238.116,-149.1121C216.7414,-153.8327 209.3654,-169.9995 192,-191.7 147.5337,-247.2669 199.6684,-338.7 128.5,-338.7"/>
<polygon fill="#000000" stroke="#000000" points="244.5383,-148.4816 252.8517,-151.2828 248.5191,-148.0908 252.5,-147.7 252.5,-147.7 252.5,-147.7 248.5191,-148.0908 252.1483,-144.1172 244.5383,-148.4816 244.5383,-148.4816"/>
<ellipse fill="none" stroke="#000000" cx="241.3536" cy="-148.7943" rx="3.2" ry="3.2"/>
</g>
<!-- recorded_event -->
<g id="node6" class="node">
<title>recorded_event</title>
<g id="a_node6"><a xlink:href="../../tables/recorded_event.html" xlink:title="recorded_event" target="_top">
<polygon fill="#ffffff" stroke="transparent" points="251.5,-566.2 251.5,-627.2 395.5,-627.2 395.5,-566.2 251.5,-566.2"/>
<polygon fill="#f5f5f5" stroke="transparent" points="251.5,-603.7 251.5,-626.7 395.5,-626.7 395.5,-603.7 251.5,-603.7"/>
<polygon fill="none" stroke="#000000" points="251.5,-603.7 251.5,-626.7 395.5,-626.7 395.5,-603.7 251.5,-603.7"/>
<text text-anchor="start" x="256.5" y="-612.3" font-family="Helvetica,sans-Serif" font-weight="bold" font-size="11.00" fill="#000000">recorded_event</text>
<text text-anchor="start" x="361.0219" y="-611.8" font-family="Helvetica,sans-Serif" font-size="11.00" fill="#000000">[table]</text>
<polygon fill="none" stroke="#000000" points="251.5,-584.7 251.5,-603.7 395.5,-603.7 395.5,-584.7 251.5,-584.7"/>
<text text-anchor="start" x="254.5" y="-590.8" font-family="Helvetica,sans-Serif" font-size="11.00" fill="#000000">...</text>
<polygon fill="#ffffff" stroke="transparent" points="251.5,-565.7 251.5,-584.7 321.5,-584.7 321.5,-565.7 251.5,-565.7"/>
<polygon fill="none" stroke="#000000" points="251.5,-565.7 251.5,-584.7 321.5,-584.7 321.5,-565.7 251.5,-565.7"/>
<text text-anchor="start" x="254.5" y="-571.8" font-family="Helvetica,sans-Serif" font-size="11.00" fill="#000000">&lt; 2</text>
<polygon fill="#ffffff" stroke="transparent" points="321.5,-565.7 321.5,-584.7 358.5,-584.7 358.5,-565.7 321.5,-565.7"/>
<polygon fill="none" stroke="#000000" points="321.5,-565.7 321.5,-584.7 358.5,-584.7 358.5,-565.7 321.5,-565.7"/>
<text text-anchor="start" x="349.3862" y="-571.8" font-family="Helvetica,sans-Serif" font-size="11.00" fill="#000000"> &#160;</text>
<polygon fill="#ffffff" stroke="transparent" points="358.5,-565.7 358.5,-584.7 395.5,-584.7 395.5,-565.7 358.5,-565.7"/>
<polygon fill="none" stroke="#000000" points="358.5,-565.7 358.5,-584.7 395.5,-584.7 395.5,-565.7 358.5,-565.7"/>
<text text-anchor="start" x="386.3862" y="-571.8" font-family="Helvetica,sans-Serif" font-size="11.00" fill="#000000"> &#160;</text>
</a>
</g>
</g>
<!-- recorded_event&#45;&gt;reference_data -->
<g id="edge7" class="edge">
<title>recorded_event:w&#45;&gt;reference_data:e</title>
<path fill="none" stroke="#000000" d="M236.7022,-593.7C203.8758,-593.7 190.5625,-593.7 151.5,-593.7"/>
<polygon fill="#000000" stroke="#000000" points="243.5,-593.7001 251.5,-597.3 247.5,-593.7 251.5,-593.7 251.5,-593.7 251.5,-593.7 247.5,-593.7 251.5,-590.1 243.5,-593.7001 243.5,-593.7001"/>
<ellipse fill="none" stroke="#000000" cx="240.3" cy="-593.7001" rx="3.2" ry="3.2"/>
</g>
<!-- recorded_event&#45;&gt;policy -->
<g id="edge6" class="edge">
<title>recorded_event:w&#45;&gt;policy:e</title>
<path fill="none" stroke="#000000" d="M237.1175,-592.5604C216.6459,-588.9055 207.5918,-576.4867 192,-555.7 131.7021,-475.3123 228.9889,-338.7 128.5,-338.7"/>
<polygon fill="#000000" stroke="#000000" points="243.525,-593.068 251.2156,-597.2888 247.5125,-593.384 251.5,-593.7 251.5,-593.7 251.5,-593.7 247.5125,-593.384 251.7844,-590.1112 243.525,-593.068 243.525,-593.068"/>
<ellipse fill="none" stroke="#000000" cx="240.335" cy="-592.8153" rx="3.2" ry="3.2"/>
</g>
<!-- recorded_event_audit -->
<g id="node7" class="node">
<title>recorded_event_audit</title>
<g id="a_node7"><a xlink:href="../../tables/recorded_event_audit.html" xlink:title="recorded_event_audit" target="_top">
<polygon fill="#ffffff" stroke="transparent" points="231,-38.2 231,-99.2 416,-99.2 416,-38.2 231,-38.2"/>
<polygon fill="#f5f5f5" stroke="transparent" points="231.5,-75.7 231.5,-98.7 416.5,-98.7 416.5,-75.7 231.5,-75.7"/>
<polygon fill="none" stroke="#000000" points="231.5,-75.7 231.5,-98.7 416.5,-98.7 416.5,-75.7 231.5,-75.7"/>
<text text-anchor="start" x="236.5" y="-84.3" font-family="Helvetica,sans-Serif" font-weight="bold" font-size="11.00" fill="#000000">recorded_event_audit</text>
<text text-anchor="start" x="382.0219" y="-83.8" font-family="Helvetica,sans-Serif" font-size="11.00" fill="#000000">[table]</text>
<polygon fill="none" stroke="#000000" points="231.5,-56.7 231.5,-75.7 416.5,-75.7 416.5,-56.7 231.5,-56.7"/>
<text text-anchor="start" x="234.5" y="-62.8" font-family="Helvetica,sans-Serif" font-size="11.00" fill="#000000">...</text>
<polygon fill="#ffffff" stroke="transparent" points="231.5,-37.7 231.5,-56.7 322.5,-56.7 322.5,-37.7 231.5,-37.7"/>
<polygon fill="none" stroke="#000000" points="231.5,-37.7 231.5,-56.7 322.5,-56.7 322.5,-37.7 231.5,-37.7"/>
<text text-anchor="start" x="234.5" y="-43.8" font-family="Helvetica,sans-Serif" font-size="11.00" fill="#000000">&lt; 2</text>
<polygon fill="#ffffff" stroke="transparent" points="322.5,-37.7 322.5,-56.7 369.5,-56.7 369.5,-37.7 322.5,-37.7"/>
<polygon fill="none" stroke="#000000" points="322.5,-37.7 322.5,-56.7 369.5,-56.7 369.5,-37.7 322.5,-37.7"/>
<text text-anchor="start" x="360.3862" y="-43.8" font-family="Helvetica,sans-Serif" font-size="11.00" fill="#000000"> &#160;</text>
<polygon fill="#ffffff" stroke="transparent" points="369.5,-37.7 369.5,-56.7 416.5,-56.7 416.5,-37.7 369.5,-37.7"/>
<polygon fill="none" stroke="#000000" points="369.5,-37.7 369.5,-56.7 416.5,-56.7 416.5,-37.7 369.5,-37.7"/>
<text text-anchor="start" x="407.3862" y="-43.8" font-family="Helvetica,sans-Serif" font-size="11.00" fill="#000000"> &#160;</text>
</a>
</g>
</g>
<!-- recorded_event_audit&#45;&gt;policy -->
<g id="edge8" class="edge">
<title>recorded_event_audit:w&#45;&gt;policy:e</title>
<path fill="none" stroke="#000000" d="M216.9472,-67.0401C114.1636,-87.6353 252.8629,-338.7 128.5,-338.7"/>
<polygon fill="#000000" stroke="#000000" points="223.5337,-66.4336 231.8301,-69.2848 227.5169,-66.0668 231.5,-65.7 231.5,-65.7 231.5,-65.7 227.5169,-66.0668 231.1699,-62.1152 223.5337,-66.4336 223.5337,-66.4336"/>
<ellipse fill="none" stroke="#000000" cx="220.3472" cy="-66.7271" rx="3.2" ry="3.2"/>
</g>
<!-- reference_data_policy -->
<g id="node8" class="node">
<title>reference_data_policy</title>
<g id="a_node8"><a xlink:href="../../tables/reference_data_policy.html" xlink:title="reference_data_policy" target="_top">
<polygon fill="#ffffff" stroke="transparent" points="230.5,-484.2 230.5,-545.2 416.5,-545.2 416.5,-484.2 230.5,-484.2"/>
<polygon fill="#f5f5f5" stroke="transparent" points="230.5,-521.7 230.5,-544.7 416.5,-544.7 416.5,-521.7 230.5,-521.7"/>
<polygon fill="none" stroke="#000000" points="230.5,-521.7 230.5,-544.7 416.5,-544.7 416.5,-521.7 230.5,-521.7"/>
<text text-anchor="start" x="235.5" y="-530.3" font-family="Helvetica,sans-Serif" font-weight="bold" font-size="11.00" fill="#000000">reference_data_policy</text>
<text text-anchor="start" x="382.0219" y="-529.8" font-family="Helvetica,sans-Serif" font-size="11.00" fill="#000000">[table]</text>
<polygon fill="none" stroke="#000000" points="230.5,-502.7 230.5,-521.7 416.5,-521.7 416.5,-502.7 230.5,-502.7"/>
<text text-anchor="start" x="233.5" y="-508.8" font-family="Helvetica,sans-Serif" font-size="11.00" fill="#000000">...</text>
<polygon fill="#ffffff" stroke="transparent" points="230.5,-483.7 230.5,-502.7 305.5,-502.7 305.5,-483.7 230.5,-483.7"/>
<polygon fill="none" stroke="#000000" points="230.5,-483.7 230.5,-502.7 305.5,-502.7 305.5,-483.7 230.5,-483.7"/>
<text text-anchor="start" x="233.5" y="-489.8" font-family="Helvetica,sans-Serif" font-size="11.00" fill="#000000">&lt; 2</text>
<polygon fill="#ffffff" stroke="transparent" points="305.5,-483.7 305.5,-502.7 376.5,-502.7 376.5,-483.7 305.5,-483.7"/>
<polygon fill="none" stroke="#000000" points="305.5,-483.7 305.5,-502.7 376.5,-502.7 376.5,-483.7 305.5,-483.7"/>
<text text-anchor="start" x="334.9956" y="-489.8" font-family="Helvetica,sans-Serif" font-size="11.00" fill="#000000">84 rows</text>
<polygon fill="#ffffff" stroke="transparent" points="376.5,-483.7 376.5,-502.7 416.5,-502.7 416.5,-483.7 376.5,-483.7"/>
<polygon fill="none" stroke="#000000" points="376.5,-483.7 376.5,-502.7 416.5,-502.7 416.5,-483.7 376.5,-483.7"/>
<text text-anchor="start" x="407.3862" y="-489.8" font-family="Helvetica,sans-Serif" font-size="11.00" fill="#000000"> &#160;</text>
</a>
</g>
</g>
<!-- reference_data_policy&#45;&gt;reference_data -->
<g id="edge9" class="edge">
<title>reference_data_policy:w&#45;&gt;reference_data:e</title>
<path fill="none" stroke="#000000" d="M216.3176,-514.4283C183.8816,-528.6565 196.5711,-593.7 151.5,-593.7"/>
<polygon fill="#000000" stroke="#000000" points="222.644,-513.2113 231.1801,-515.2352 226.572,-512.4557 230.5,-511.7 230.5,-511.7 230.5,-511.7 226.572,-512.4557 229.8199,-508.1648 222.644,-513.2113 222.644,-513.2113"/>
<ellipse fill="none" stroke="#000000" cx="219.5017" cy="-513.8158" rx="3.2" ry="3.2"/>
</g>
<!-- reference_data_policy&#45;&gt;policy -->
<g id="edge10" class="edge">
<title>reference_data_policy:w&#45;&gt;policy:e</title>
<path fill="none" stroke="#000000" d="M216.0367,-509.8742C149.8998,-491.385 212.3538,-338.7 128.5,-338.7"/>
<polygon fill="#000000" stroke="#000000" points="222.563,-510.698 230.0491,-515.2717 226.5315,-511.199 230.5,-511.7 230.5,-511.7 230.5,-511.7 226.5315,-511.199 230.9509,-508.1283 222.563,-510.698 222.563,-510.698"/>
<ellipse fill="none" stroke="#000000" cx="219.3882" cy="-510.2972" rx="3.2" ry="3.2"/>
</g>
<!-- staff_configuration -->
<g id="node9" class="node">
<title>staff_configuration</title>
<g id="a_node9"><a xlink:href="../../tables/staff_configuration.html" xlink:title="staff_configuration" target="_top">
<polygon fill="#ffffff" stroke="transparent" points="200,-284.7 200,-462.7 447,-462.7 447,-284.7 200,-284.7"/>
<polygon fill="#f5f5f5" stroke="transparent" points="202.5,-437.7 202.5,-460.7 445.5,-460.7 445.5,-437.7 202.5,-437.7"/>
<polygon fill="none" stroke="#000000" points="202.5,-437.7 202.5,-460.7 445.5,-460.7 445.5,-437.7 202.5,-437.7"/>
<text text-anchor="start" x="207.5" y="-446.3" font-family="Helvetica,sans-Serif" font-weight="bold" font-size="11.00" fill="#000000">staff_configuration</text>
<text text-anchor="start" x="410.5437" y="-445.8" font-family="Helvetica,sans-Serif" font-size="11.00" fill="#000000">[table]</text>
<polygon fill="#ffffff" stroke="transparent" points="202.5,-415.7 202.5,-437.7 351.5,-437.7 351.5,-415.7 202.5,-415.7"/>
<polygon fill="none" stroke="#000000" points="202.5,-415.7 202.5,-437.7 351.5,-437.7 351.5,-415.7 202.5,-415.7"/>
<text text-anchor="start" x="222.5" y="-422.8" font-family="Helvetica,sans-Serif" font-size="11.00" fill="#000000">staff_id</text>
<polygon fill="none" stroke="#000000" points="351.5,-415.7 351.5,-437.7 445.5,-437.7 445.5,-415.7 351.5,-415.7"/>
<text text-anchor="start" x="354.5" y="-423.4" font-family="Helvetica,sans-Serif" font-size="11.00" fill="#000000">int8[19]</text>
<polygon fill="none" stroke="#000000" points="202.5,-393.7 202.5,-415.7 351.5,-415.7 351.5,-393.7 202.5,-393.7"/>
<text text-anchor="start" x="222.5" y="-400.8" font-family="Helvetica,sans-Serif" font-size="11.00" fill="#000000">capacity</text>
<polygon fill="none" stroke="#000000" points="351.5,-393.7 351.5,-415.7 445.5,-415.7 445.5,-393.7 351.5,-393.7"/>
<text text-anchor="start" x="354.5" y="-401.4" font-family="Helvetica,sans-Serif" font-size="11.00" fill="#000000">int4[10]</text>
<polygon fill="none" stroke="#000000" points="202.5,-371.7 202.5,-393.7 351.5,-393.7 351.5,-371.7 202.5,-371.7"/>
<image xlink:href="../../images/foreignKeys.png" width="11px" height="12px" preserveAspectRatio="xMinYMin meet" x="207.5" y="-388.7"/>
<text text-anchor="start" x="222.5" y="-378.8" font-family="Helvetica,sans-Serif" font-size="11.00" fill="#000000">status_id</text>
<polygon fill="none" stroke="#000000" points="351.5,-371.7 351.5,-393.7 445.5,-393.7 445.5,-371.7 351.5,-371.7"/>
<text text-anchor="start" x="354.5" y="-379.4" font-family="Helvetica,sans-Serif" font-size="11.00" fill="#000000">int8[19]</text>
<polygon fill="none" stroke="#000000" points="202.5,-349.7 202.5,-371.7 351.5,-371.7 351.5,-349.7 202.5,-349.7"/>
<text text-anchor="start" x="222.5" y="-356.8" font-family="Helvetica,sans-Serif" font-size="11.00" fill="#000000">reactivate_on</text>
<polygon fill="none" stroke="#000000" points="351.5,-349.7 351.5,-371.7 445.5,-371.7 445.5,-349.7 351.5,-349.7"/>
<text text-anchor="start" x="354.5" y="-357.4" font-family="Helvetica,sans-Serif" font-size="11.00" fill="#000000">date[13]</text>
<polygon fill="#ffffff" stroke="transparent" points="202.5,-327.7 202.5,-349.7 351.5,-349.7 351.5,-327.7 202.5,-327.7"/>
<polygon fill="none" stroke="#000000" points="202.5,-327.7 202.5,-349.7 351.5,-349.7 351.5,-327.7 202.5,-327.7"/>
<image xlink:href="../../images/foreignKeys.png" width="11px" height="12px" preserveAspectRatio="xMinYMin meet" x="207.5" y="-344.7"/>
<text text-anchor="start" x="222.5" y="-334.8" font-family="Helvetica,sans-Serif" font-size="11.00" fill="#000000">policy_code</text>
<polygon fill="none" stroke="#000000" points="351.5,-327.7 351.5,-349.7 445.5,-349.7 445.5,-327.7 351.5,-327.7"/>
<text text-anchor="start" x="354.5" y="-335.4" font-family="Helvetica,sans-Serif" font-size="11.00" fill="#000000">varchar[16]</text>
<polygon fill="none" stroke="#000000" points="202.5,-305.7 202.5,-327.7 351.5,-327.7 351.5,-305.7 202.5,-305.7"/>
<image xlink:href="../../images/primaryKeys.png" width="11px" height="12px" preserveAspectRatio="xMinYMin meet" x="207.5" y="-322.7"/>
<text text-anchor="start" x="222.5" y="-312.8" font-family="Helvetica,sans-Serif" font-size="11.00" fill="#000000">id</text>
<polygon fill="none" stroke="#000000" points="351.5,-305.7 351.5,-327.7 445.5,-327.7 445.5,-305.7 351.5,-305.7"/>
<text text-anchor="start" x="354.4758" y="-313.4" font-family="Helvetica,sans-Serif" font-size="11.00" fill="#000000">uuid[2147483647]</text>
<polygon fill="#ffffff" stroke="transparent" points="202.5,-286.7 202.5,-305.7 281.5,-305.7 281.5,-286.7 202.5,-286.7"/>
<polygon fill="none" stroke="#000000" points="202.5,-286.7 202.5,-305.7 281.5,-305.7 281.5,-286.7 202.5,-286.7"/>
<text text-anchor="start" x="205.5" y="-292.8" font-family="Helvetica,sans-Serif" font-size="11.00" fill="#000000">&lt; 2</text>
<polygon fill="#ffffff" stroke="transparent" points="281.5,-286.7 281.5,-305.7 351.5,-305.7 351.5,-286.7 281.5,-286.7"/>
<polygon fill="none" stroke="#000000" points="281.5,-286.7 281.5,-305.7 351.5,-305.7 351.5,-286.7 281.5,-286.7"/>
<text text-anchor="start" x="342.3862" y="-292.8" font-family="Helvetica,sans-Serif" font-size="11.00" fill="#000000"> &#160;</text>
<polygon fill="#ffffff" stroke="transparent" points="351.5,-286.7 351.5,-305.7 445.5,-305.7 445.5,-286.7 351.5,-286.7"/>
<polygon fill="none" stroke="#000000" points="351.5,-286.7 351.5,-305.7 445.5,-305.7 445.5,-286.7 351.5,-286.7"/>
<text text-anchor="start" x="426.9053" y="-292.8" font-family="Helvetica,sans-Serif" font-size="11.00" fill="#000000">0 &gt;</text>
<polygon fill="none" stroke="#000000" stroke-width="2" points="201,-285.7 201,-461.7 446,-461.7 446,-285.7 201,-285.7"/>
</a>
</g>
</g>
<!-- staff_configuration&#45;&gt;reference_data -->
<g id="edge12" class="edge">
<title>staff_configuration:w&#45;&gt;reference_data:e</title>
<path fill="none" stroke="#000000" d="M187.9008,-384.7883C121.8387,-406.7022 242.3252,-593.7 151.5,-593.7"/>
<polygon fill="#000000" stroke="#000000" points="194.5806,-383.8329 203.0098,-386.2637 198.5403,-383.2664 202.5,-382.7 202.5,-382.7 202.5,-382.7 198.5403,-383.2664 201.9902,-379.1363 194.5806,-383.8329 194.5806,-383.8329"/>
<ellipse fill="none" stroke="#000000" cx="191.4129" cy="-384.286" rx="3.2" ry="3.2"/>
</g>
<!-- staff_configuration&#45;&gt;policy -->
<g id="edge11" class="edge">
<title>staff_configuration:w&#45;&gt;policy:e</title>
<path fill="none" stroke="#000000" d="M188.0865,-338.7C166.2493,-338.7 155.9931,-338.7 128.5,-338.7"/>
<polygon fill="#000000" stroke="#000000" points="194.5,-338.7001 202.5,-342.3 198.5,-338.7 202.5,-338.7 202.5,-338.7 202.5,-338.7 198.5,-338.7 202.5,-335.1 194.5,-338.7001 194.5,-338.7001"/>
<ellipse fill="none" stroke="#000000" cx="191.3" cy="-338.7001" rx="3.2" ry="3.2"/>
</g>
</g>
</svg>
