<?xml version="1.0" encoding="UTF-8" standalone="no"?>
<!DOCTYPE svg PUBLIC "-//W3C//DTD SVG 1.1//EN"
 "http://www.w3.org/Graphics/SVG/1.1/DTD/svg11.dtd">
<!-- Generated by graphviz version 2.40.1 (20161225.0304)
 -->
<!-- Title: twoDegreesRelationshipsDiagramImplied Pages: 1 -->
<svg width="536pt" height="1121pt"
 viewBox="0.00 0.00 536.00 1121.20" xmlns="http://www.w3.org/2000/svg" xmlns:xlink="http://www.w3.org/1999/xlink">
<g id="graph0" class="graph" transform="scale(1 1) rotate(0) translate(4 1117.2)">
<title>twoDegreesRelationshipsDiagramImplied</title>
<polygon fill="#ffffff" stroke="transparent" points="-4,4 -4,-1117.2 532,-1117.2 532,4 -4,4"/>
<text text-anchor="middle" x="72.4936" y="-7.3" font-family="Helvetica,sans-Serif" font-size="11.00" fill="#000000">Generated by SchemaSpy</text>
<!-- allocation -->
<g id="node1" class="node">
<title>allocation</title>
<g id="a_node1"><a xlink:href="../../tables/allocation.html" xlink:title="allocation" target="_top">
<polygon fill="#ffffff" stroke="transparent" points="303,-366.2 303,-427.2 408,-427.2 408,-366.2 303,-366.2"/>
<polygon fill="#f5f5f5" stroke="transparent" points="303.5,-403.7 303.5,-426.7 408.5,-426.7 408.5,-403.7 303.5,-403.7"/>
<polygon fill="none" stroke="#000000" points="303.5,-403.7 303.5,-426.7 408.5,-426.7 408.5,-403.7 303.5,-403.7"/>
<text text-anchor="start" x="308.5" y="-412.3" font-family="Helvetica,sans-Serif" font-weight="bold" font-size="11.00" fill="#000000">allocation</text>
<text text-anchor="start" x="374.0219" y="-411.8" font-family="Helvetica,sans-Serif" font-size="11.00" fill="#000000">[table]</text>
<polygon fill="none" stroke="#000000" points="303.5,-384.7 303.5,-403.7 408.5,-403.7 408.5,-384.7 303.5,-384.7"/>
<text text-anchor="start" x="306.5" y="-390.8" font-family="Helvetica,sans-Serif" font-size="11.00" fill="#000000">...</text>
<polygon fill="#ffffff" stroke="transparent" points="303.5,-365.7 303.5,-384.7 354.5,-384.7 354.5,-365.7 303.5,-365.7"/>
<polygon fill="none" stroke="#000000" points="303.5,-365.7 303.5,-384.7 354.5,-384.7 354.5,-365.7 303.5,-365.7"/>
<text text-anchor="start" x="306.5" y="-371.8" font-family="Helvetica,sans-Serif" font-size="11.00" fill="#000000">&lt; 3</text>
<polygon fill="#ffffff" stroke="transparent" points="354.5,-365.7 354.5,-384.7 381.5,-384.7 381.5,-365.7 354.5,-365.7"/>
<polygon fill="none" stroke="#000000" points="354.5,-365.7 354.5,-384.7 381.5,-384.7 381.5,-365.7 354.5,-365.7"/>
<text text-anchor="start" x="372.3862" y="-371.8" font-family="Helvetica,sans-Serif" font-size="11.00" fill="#000000"> &#160;</text>
<polygon fill="#ffffff" stroke="transparent" points="381.5,-365.7 381.5,-384.7 408.5,-384.7 408.5,-365.7 381.5,-365.7"/>
<polygon fill="none" stroke="#000000" points="381.5,-365.7 381.5,-384.7 408.5,-384.7 408.5,-365.7 381.5,-365.7"/>
<text text-anchor="start" x="399.3862" y="-371.8" font-family="Helvetica,sans-Serif" font-size="11.00" fill="#000000"> &#160;</text>
</a>
</g>
</g>
<!-- policy -->
<g id="node2" class="node">
<title>policy</title>
<g id="a_node2"><a xlink:href="../../tables/policy.html" xlink:title="policy" target="_top">
<polygon fill="#ffffff" stroke="transparent" points="26.5,-345.2 26.5,-428.2 123.5,-428.2 123.5,-345.2 26.5,-345.2"/>
<polygon fill="#f5f5f5" stroke="transparent" points="27,-404.7 27,-427.7 124,-427.7 124,-404.7 27,-404.7"/>
<polygon fill="none" stroke="#000000" points="27,-404.7 27,-427.7 124,-427.7 124,-404.7 27,-404.7"/>
<text text-anchor="start" x="32" y="-413.3" font-family="Helvetica,sans-Serif" font-weight="bold" font-size="11.00" fill="#000000">policy</text>
<text text-anchor="start" x="89.0437" y="-412.8" font-family="Helvetica,sans-Serif" font-size="11.00" fill="#000000">[table]</text>
<polygon fill="none" stroke="#000000" points="27,-382.7 27,-404.7 124,-404.7 124,-382.7 27,-382.7"/>
<image xlink:href="../../images/primaryKeys.png" width="11px" height="12px" preserveAspectRatio="xMinYMin meet" x="32" y="-399.7"/>
<text text-anchor="start" x="47" y="-389.8" font-family="Helvetica,sans-Serif" font-size="11.00" fill="#000000">code</text>
<polygon fill="none" stroke="#000000" points="27,-363.7 27,-382.7 124,-382.7 124,-363.7 27,-363.7"/>
<text text-anchor="start" x="30" y="-369.8" font-family="Helvetica,sans-Serif" font-size="11.00" fill="#000000">...</text>
<polygon fill="#ffffff" stroke="transparent" points="27,-344.7 27,-363.7 65,-363.7 65,-344.7 27,-344.7"/>
<polygon fill="none" stroke="#000000" points="27,-344.7 27,-363.7 65,-363.7 65,-344.7 27,-344.7"/>
<text text-anchor="start" x="30" y="-350.8" font-family="Helvetica,sans-Serif" font-size="11.00" fill="#000000"> &#160;</text>
<polygon fill="#ffffff" stroke="transparent" points="65,-344.7 65,-363.7 90,-363.7 90,-344.7 65,-344.7"/>
<polygon fill="none" stroke="#000000" points="65,-344.7 65,-363.7 90,-363.7 90,-344.7 65,-344.7"/>
<text text-anchor="start" x="80.8862" y="-350.8" font-family="Helvetica,sans-Serif" font-size="11.00" fill="#000000"> &#160;</text>
<polygon fill="#ffffff" stroke="transparent" points="90,-344.7 90,-363.7 124,-363.7 124,-344.7 90,-344.7"/>
<polygon fill="none" stroke="#000000" points="90,-344.7 90,-363.7 124,-363.7 124,-344.7 90,-344.7"/>
<text text-anchor="start" x="105.4053" y="-350.8" font-family="Helvetica,sans-Serif" font-size="11.00" fill="#000000">9 &gt;</text>
</a>
</g>
</g>
<!-- allocation&#45;&gt;policy -->
<g id="edge1" class="edge">
<title>allocation:w&#45;&gt;policy:e</title>
<path fill="none" stroke="#000000" d="M288.7879,-393.7C220.9027,-393.7 198.6359,-393.7 124,-393.7"/>
<polygon fill="#000000" stroke="#000000" points="295.5,-393.7001 303.5,-397.3 299.5,-393.7 303.5,-393.7 303.5,-393.7 303.5,-393.7 299.5,-393.7 303.5,-390.1 295.5,-393.7001 295.5,-393.7001"/>
<ellipse fill="none" stroke="#000000" cx="292.3" cy="-393.7001" rx="3.2" ry="3.2"/>
</g>
<!-- allocation_audit -->
<g id="node3" class="node">
<title>allocation_audit</title>
<g id="a_node3"><a xlink:href="../../tables/allocation_audit.html" xlink:title="allocation_audit" target="_top">
<polygon fill="#ffffff" stroke="transparent" points="282.5,-966.2 282.5,-1027.2 428.5,-1027.2 428.5,-966.2 282.5,-966.2"/>
<polygon fill="#f5f5f5" stroke="transparent" points="282.5,-1003.7 282.5,-1026.7 428.5,-1026.7 428.5,-1003.7 282.5,-1003.7"/>
<polygon fill="none" stroke="#000000" points="282.5,-1003.7 282.5,-1026.7 428.5,-1026.7 428.5,-1003.7 282.5,-1003.7"/>
<text text-anchor="start" x="287.5" y="-1012.3" font-family="Helvetica,sans-Serif" font-weight="bold" font-size="11.00" fill="#000000">allocation_audit</text>
<text text-anchor="start" x="394.0219" y="-1011.8" font-family="Helvetica,sans-Serif" font-size="11.00" fill="#000000">[table]</text>
<polygon fill="none" stroke="#000000" points="282.5,-984.7 282.5,-1003.7 428.5,-1003.7 428.5,-984.7 282.5,-984.7"/>
<text text-anchor="start" x="285.5" y="-990.8" font-family="Helvetica,sans-Serif" font-size="11.00" fill="#000000">...</text>
<polygon fill="#ffffff" stroke="transparent" points="282.5,-965.7 282.5,-984.7 353.5,-984.7 353.5,-965.7 282.5,-965.7"/>
<polygon fill="none" stroke="#000000" points="282.5,-965.7 282.5,-984.7 353.5,-984.7 353.5,-965.7 282.5,-965.7"/>
<text text-anchor="start" x="285.5" y="-971.8" font-family="Helvetica,sans-Serif" font-size="11.00" fill="#000000">&lt; 3</text>
<polygon fill="#ffffff" stroke="transparent" points="353.5,-965.7 353.5,-984.7 390.5,-984.7 390.5,-965.7 353.5,-965.7"/>
<polygon fill="none" stroke="#000000" points="353.5,-965.7 353.5,-984.7 390.5,-984.7 390.5,-965.7 353.5,-965.7"/>
<text text-anchor="start" x="381.3862" y="-971.8" font-family="Helvetica,sans-Serif" font-size="11.00" fill="#000000"> &#160;</text>
<polygon fill="#ffffff" stroke="transparent" points="390.5,-965.7 390.5,-984.7 428.5,-984.7 428.5,-965.7 390.5,-965.7"/>
<polygon fill="none" stroke="#000000" points="390.5,-965.7 390.5,-984.7 428.5,-984.7 428.5,-965.7 390.5,-965.7"/>
<text text-anchor="start" x="419.3862" y="-971.8" font-family="Helvetica,sans-Serif" font-size="11.00" fill="#000000"> &#160;</text>
</a>
</g>
</g>
<!-- allocation_audit&#45;&gt;policy -->
<g id="edge2" class="edge">
<title>allocation_audit:w&#45;&gt;policy:e</title>
<path fill="none" stroke="#000000" stroke-dasharray="5,2" d="M268.0397,-993.6385C230.0895,-993.1719 208.7482,-989.2007 183,-955.7 106.4758,-856.1351 249.5752,-393.7 124,-393.7"/>
<polygon fill="#000000" stroke="#000000" points="274.5001,-993.6659 282.4847,-997.3 278.5,-993.6829 282.5,-993.7 282.5,-993.7 282.5,-993.7 278.5,-993.6829 282.5153,-990.1 274.5001,-993.6659 274.5001,-993.6659"/>
<ellipse fill="none" stroke="#000000" cx="271.3001" cy="-993.6523" rx="3.2" ry="3.2"/>
</g>
<!-- audit_revision -->
<g id="node4" class="node">
<title>audit_revision</title>
<g id="a_node4"><a xlink:href="../../tables/audit_revision.html" xlink:title="audit_revision" target="_top">
<polygon fill="#ffffff" stroke="transparent" points="8,-863.2 8,-946.2 142,-946.2 142,-863.2 8,-863.2"/>
<polygon fill="#f5f5f5" stroke="transparent" points="8,-922.7 8,-945.7 142,-945.7 142,-922.7 8,-922.7"/>
<polygon fill="none" stroke="#000000" points="8,-922.7 8,-945.7 142,-945.7 142,-922.7 8,-922.7"/>
<text text-anchor="start" x="13" y="-931.3" font-family="Helvetica,sans-Serif" font-weight="bold" font-size="11.00" fill="#000000">audit_revision</text>
<text text-anchor="start" x="107.5219" y="-930.8" font-family="Helvetica,sans-Serif" font-size="11.00" fill="#000000">[table]</text>
<polygon fill="none" stroke="#000000" points="8,-900.7 8,-922.7 142,-922.7 142,-900.7 8,-900.7"/>
<image xlink:href="../../images/primaryKeys.png" width="11px" height="12px" preserveAspectRatio="xMinYMin meet" x="13" y="-917.7"/>
<text text-anchor="start" x="28" y="-907.8" font-family="Helvetica,sans-Serif" font-size="11.00" fill="#000000">id</text>
<polygon fill="none" stroke="#000000" points="8,-881.7 8,-900.7 142,-900.7 142,-881.7 8,-881.7"/>
<text text-anchor="start" x="11" y="-887.8" font-family="Helvetica,sans-Serif" font-size="11.00" fill="#000000">...</text>
<polygon fill="#ffffff" stroke="transparent" points="8,-862.7 8,-881.7 64,-881.7 64,-862.7 8,-862.7"/>
<polygon fill="none" stroke="#000000" points="8,-862.7 8,-881.7 64,-881.7 64,-862.7 8,-862.7"/>
<text text-anchor="start" x="11" y="-868.8" font-family="Helvetica,sans-Serif" font-size="11.00" fill="#000000"> &#160;</text>
<polygon fill="#ffffff" stroke="transparent" points="64,-862.7 64,-881.7 98,-881.7 98,-862.7 64,-862.7"/>
<polygon fill="none" stroke="#000000" points="64,-862.7 64,-881.7 98,-881.7 98,-862.7 64,-862.7"/>
<text text-anchor="start" x="88.8862" y="-868.8" font-family="Helvetica,sans-Serif" font-size="11.00" fill="#000000"> &#160;</text>
<polygon fill="#ffffff" stroke="transparent" points="98,-862.7 98,-881.7 142,-881.7 142,-862.7 98,-862.7"/>
<polygon fill="none" stroke="#000000" points="98,-862.7 98,-881.7 142,-881.7 142,-862.7 98,-862.7"/>
<text text-anchor="start" x="123.4053" y="-868.8" font-family="Helvetica,sans-Serif" font-size="11.00" fill="#000000">5 &gt;</text>
</a>
</g>
</g>
<!-- allocation_audit&#45;&gt;audit_revision -->
<g id="edge3" class="edge">
<title>allocation_audit:w&#45;&gt;audit_revision:e</title>
<path fill="none" stroke="#000000" d="M267.65,-993.2503C231.9015,-990.8909 217.8145,-979.149 183,-955.7 160.8302,-940.7678 168.7296,-911.7 142,-911.7"/>
<polygon fill="#000000" stroke="#000000" points="274.5037,-993.4578 282.391,-997.2984 278.5018,-993.5789 282.5,-993.7 282.5,-993.7 282.5,-993.7 278.5018,-993.5789 282.609,-990.1016 274.5037,-993.4578 274.5037,-993.4578"/>
<ellipse fill="none" stroke="#000000" cx="271.3051" cy="-993.3609" rx="3.2" ry="3.2"/>
</g>
<!-- allocation_case_note_audit -->
<g id="node5" class="node">
<title>allocation_case_note_audit</title>
<g id="a_node5"><a xlink:href="../../tables/allocation_case_note_audit.html" xlink:title="allocation_case_note_audit" target="_top">
<polygon fill="#ffffff" stroke="transparent" points="246,-1048.2 246,-1109.2 465,-1109.2 465,-1048.2 246,-1048.2"/>
<polygon fill="#f5f5f5" stroke="transparent" points="246.5,-1085.7 246.5,-1108.7 465.5,-1108.7 465.5,-1085.7 246.5,-1085.7"/>
<polygon fill="none" stroke="#000000" points="246.5,-1085.7 246.5,-1108.7 465.5,-1108.7 465.5,-1085.7 246.5,-1085.7"/>
<text text-anchor="start" x="251.5" y="-1094.3" font-family="Helvetica,sans-Serif" font-weight="bold" font-size="11.00" fill="#000000">allocation_case_note_audit</text>
<text text-anchor="start" x="431.0219" y="-1093.8" font-family="Helvetica,sans-Serif" font-size="11.00" fill="#000000">[table]</text>
<polygon fill="none" stroke="#000000" points="246.5,-1066.7 246.5,-1085.7 465.5,-1085.7 465.5,-1066.7 246.5,-1066.7"/>
<text text-anchor="start" x="249.5" y="-1072.8" font-family="Helvetica,sans-Serif" font-size="11.00" fill="#000000">...</text>
<polygon fill="#ffffff" stroke="transparent" points="246.5,-1047.7 246.5,-1066.7 354.5,-1066.7 354.5,-1047.7 246.5,-1047.7"/>
<polygon fill="none" stroke="#000000" points="246.5,-1047.7 246.5,-1066.7 354.5,-1066.7 354.5,-1047.7 246.5,-1047.7"/>
<text text-anchor="start" x="249.5" y="-1053.8" font-family="Helvetica,sans-Serif" font-size="11.00" fill="#000000">&lt; 1</text>
<polygon fill="#ffffff" stroke="transparent" points="354.5,-1047.7 354.5,-1066.7 409.5,-1066.7 409.5,-1047.7 354.5,-1047.7"/>
<polygon fill="none" stroke="#000000" points="354.5,-1047.7 354.5,-1066.7 409.5,-1066.7 409.5,-1047.7 354.5,-1047.7"/>
<text text-anchor="start" x="400.3862" y="-1053.8" font-family="Helvetica,sans-Serif" font-size="11.00" fill="#000000"> &#160;</text>
<polygon fill="#ffffff" stroke="transparent" points="409.5,-1047.7 409.5,-1066.7 465.5,-1066.7 465.5,-1047.7 409.5,-1047.7"/>
<polygon fill="none" stroke="#000000" points="409.5,-1047.7 409.5,-1066.7 465.5,-1066.7 465.5,-1047.7 409.5,-1047.7"/>
<text text-anchor="start" x="456.3862" y="-1053.8" font-family="Helvetica,sans-Serif" font-size="11.00" fill="#000000"> &#160;</text>
</a>
</g>
</g>
<!-- allocation_case_note_audit&#45;&gt;audit_revision -->
<g id="edge4" class="edge">
<title>allocation_case_note_audit:w&#45;&gt;audit_revision:e</title>
<path fill="none" stroke="#000000" d="M232.0053,-1074.7031C210.014,-1071.308 200.1391,-1059.1977 183,-1037.7 146.2888,-991.6529 200.8901,-911.7 142,-911.7"/>
<polygon fill="#000000" stroke="#000000" points="238.5189,-1075.151 246.253,-1079.2915 242.5094,-1075.4255 246.5,-1075.7 246.5,-1075.7 246.5,-1075.7 242.5094,-1075.4255 246.747,-1072.1085 238.5189,-1075.151 238.5189,-1075.151"/>
<ellipse fill="none" stroke="#000000" cx="235.3264" cy="-1074.9314" rx="3.2" ry="3.2"/>
</g>
<!-- prison_configuration -->
<g id="node6" class="node">
<title>prison_configuration</title>
<g id="a_node6"><a xlink:href="../../tables/prison_configuration.html" xlink:title="prison_configuration" target="_top">
<polygon fill="#ffffff" stroke="transparent" points="266.5,-284.2 266.5,-345.2 444.5,-345.2 444.5,-284.2 266.5,-284.2"/>
<polygon fill="#f5f5f5" stroke="transparent" points="266.5,-321.7 266.5,-344.7 444.5,-344.7 444.5,-321.7 266.5,-321.7"/>
<polygon fill="none" stroke="#000000" points="266.5,-321.7 266.5,-344.7 444.5,-344.7 444.5,-321.7 266.5,-321.7"/>
<text text-anchor="start" x="271.5" y="-330.3" font-family="Helvetica,sans-Serif" font-weight="bold" font-size="11.00" fill="#000000">prison_configuration</text>
<text text-anchor="start" x="410.0219" y="-329.8" font-family="Helvetica,sans-Serif" font-size="11.00" fill="#000000">[table]</text>
<polygon fill="none" stroke="#000000" points="266.5,-302.7 266.5,-321.7 444.5,-321.7 444.5,-302.7 266.5,-302.7"/>
<text text-anchor="start" x="269.5" y="-308.8" font-family="Helvetica,sans-Serif" font-size="11.00" fill="#000000">...</text>
<polygon fill="#ffffff" stroke="transparent" points="266.5,-283.7 266.5,-302.7 337.5,-302.7 337.5,-283.7 266.5,-283.7"/>
<polygon fill="none" stroke="#000000" points="266.5,-283.7 266.5,-302.7 337.5,-302.7 337.5,-283.7 266.5,-283.7"/>
<text text-anchor="start" x="269.5" y="-289.8" font-family="Helvetica,sans-Serif" font-size="11.00" fill="#000000">&lt; 1</text>
<polygon fill="#ffffff" stroke="transparent" points="337.5,-283.7 337.5,-302.7 406.5,-302.7 406.5,-283.7 337.5,-283.7"/>
<polygon fill="none" stroke="#000000" points="337.5,-283.7 337.5,-302.7 406.5,-302.7 406.5,-283.7 337.5,-283.7"/>
<text text-anchor="start" x="364.9956" y="-289.8" font-family="Helvetica,sans-Serif" font-size="11.00" fill="#000000">12 rows</text>
<polygon fill="#ffffff" stroke="transparent" points="406.5,-283.7 406.5,-302.7 444.5,-302.7 444.5,-283.7 406.5,-283.7"/>
<polygon fill="none" stroke="#000000" points="406.5,-283.7 406.5,-302.7 444.5,-302.7 444.5,-283.7 406.5,-283.7"/>
<text text-anchor="start" x="435.3862" y="-289.8" font-family="Helvetica,sans-Serif" font-size="11.00" fill="#000000"> &#160;</text>
</a>
</g>
</g>
<!-- prison_configuration&#45;&gt;policy -->
<g id="edge5" class="edge">
<title>prison_configuration:w&#45;&gt;policy:e</title>
<path fill="none" stroke="#000000" d="M251.9587,-312.7863C222.6646,-317.5617 214.5539,-337.2721 183,-355.7 156.0664,-371.4296 155.1904,-393.7 124,-393.7"/>
<polygon fill="#000000" stroke="#000000" points="258.5222,-312.296 266.7682,-315.29 262.5111,-311.998 266.5,-311.7 266.5,-311.7 266.5,-311.7 262.5111,-311.998 266.2318,-308.11 258.5222,-312.296 258.5222,-312.296"/>
<ellipse fill="none" stroke="#000000" cx="255.3311" cy="-312.5344" rx="3.2" ry="3.2"/>
</g>
<!-- prison_configuration_audit -->
<g id="node7" class="node">
<title>prison_configuration_audit</title>
<g id="a_node7"><a xlink:href="../../tables/prison_configuration_audit.html" xlink:title="prison_configuration_audit" target="_top">
<polygon fill="#ffffff" stroke="transparent" points="246,-884.2 246,-945.2 465,-945.2 465,-884.2 246,-884.2"/>
<polygon fill="#f5f5f5" stroke="transparent" points="246.5,-921.7 246.5,-944.7 465.5,-944.7 465.5,-921.7 246.5,-921.7"/>
<polygon fill="none" stroke="#000000" points="246.5,-921.7 246.5,-944.7 465.5,-944.7 465.5,-921.7 246.5,-921.7"/>
<text text-anchor="start" x="251.5" y="-930.3" font-family="Helvetica,sans-Serif" font-weight="bold" font-size="11.00" fill="#000000">prison_configuration_audit</text>
<text text-anchor="start" x="431.0219" y="-929.8" font-family="Helvetica,sans-Serif" font-size="11.00" fill="#000000">[table]</text>
<polygon fill="none" stroke="#000000" points="246.5,-902.7 246.5,-921.7 465.5,-921.7 465.5,-902.7 246.5,-902.7"/>
<text text-anchor="start" x="249.5" y="-908.8" font-family="Helvetica,sans-Serif" font-size="11.00" fill="#000000">...</text>
<polygon fill="#ffffff" stroke="transparent" points="246.5,-883.7 246.5,-902.7 354.5,-902.7 354.5,-883.7 246.5,-883.7"/>
<polygon fill="none" stroke="#000000" points="246.5,-883.7 246.5,-902.7 354.5,-902.7 354.5,-883.7 246.5,-883.7"/>
<text text-anchor="start" x="249.5" y="-889.8" font-family="Helvetica,sans-Serif" font-size="11.00" fill="#000000">&lt; 3</text>
<polygon fill="#ffffff" stroke="transparent" points="354.5,-883.7 354.5,-902.7 409.5,-902.7 409.5,-883.7 354.5,-883.7"/>
<polygon fill="none" stroke="#000000" points="354.5,-883.7 354.5,-902.7 409.5,-902.7 409.5,-883.7 354.5,-883.7"/>
<text text-anchor="start" x="400.3862" y="-889.8" font-family="Helvetica,sans-Serif" font-size="11.00" fill="#000000"> &#160;</text>
<polygon fill="#ffffff" stroke="transparent" points="409.5,-883.7 409.5,-902.7 465.5,-902.7 465.5,-883.7 409.5,-883.7"/>
<polygon fill="none" stroke="#000000" points="409.5,-883.7 409.5,-902.7 465.5,-902.7 465.5,-883.7 409.5,-883.7"/>
<text text-anchor="start" x="456.3862" y="-889.8" font-family="Helvetica,sans-Serif" font-size="11.00" fill="#000000"> &#160;</text>
</a>
</g>
</g>
<!-- prison_configuration_audit&#45;&gt;policy -->
<g id="edge6" class="edge">
<title>prison_configuration_audit:w&#45;&gt;policy:e</title>
<path fill="none" stroke="#000000" stroke-dasharray="5,2" d="M231.8322,-910.8279C209.3109,-907.8153 197.9963,-896.7437 183,-873.7 124.3814,-783.6248 231.4694,-393.7 124,-393.7"/>
<polygon fill="#000000" stroke="#000000" points="238.5141,-911.2251 246.2863,-915.2937 242.5071,-911.4626 246.5,-911.7 246.5,-911.7 246.5,-911.7 242.5071,-911.4626 246.7137,-908.1063 238.5141,-911.2251 238.5141,-911.2251"/>
<ellipse fill="none" stroke="#000000" cx="235.3197" cy="-911.0352" rx="3.2" ry="3.2"/>
</g>
<!-- prison_configuration_audit&#45;&gt;audit_revision -->
<g id="edge7" class="edge">
<title>prison_configuration_audit:w&#45;&gt;audit_revision:e</title>
<path fill="none" stroke="#000000" d="M231.9559,-911.7C196.9779,-911.7 183.1832,-911.7 142,-911.7"/>
<polygon fill="#000000" stroke="#000000" points="238.5,-911.7001 246.5,-915.3 242.5,-911.7 246.5,-911.7 246.5,-911.7 246.5,-911.7 242.5,-911.7 246.5,-908.1 238.5,-911.7001 238.5,-911.7001"/>
<ellipse fill="none" stroke="#000000" cx="235.3" cy="-911.7001" rx="3.2" ry="3.2"/>
</g>
<!-- prison_statistic -->
<g id="node8" class="node">
<title>prison_statistic</title>
<g id="a_node8"><a xlink:href="../../tables/prison_statistic.html" xlink:title="prison_statistic" target="_top">
<polygon fill="#ffffff" stroke="transparent" points="284.5,-202.2 284.5,-263.2 426.5,-263.2 426.5,-202.2 284.5,-202.2"/>
<polygon fill="#f5f5f5" stroke="transparent" points="284.5,-239.7 284.5,-262.7 426.5,-262.7 426.5,-239.7 284.5,-239.7"/>
<polygon fill="none" stroke="#000000" points="284.5,-239.7 284.5,-262.7 426.5,-262.7 426.5,-239.7 284.5,-239.7"/>
<text text-anchor="start" x="289.5" y="-248.3" font-family="Helvetica,sans-Serif" font-weight="bold" font-size="11.00" fill="#000000">prison_statistic</text>
<text text-anchor="start" x="392.0219" y="-247.8" font-family="Helvetica,sans-Serif" font-size="11.00" fill="#000000">[table]</text>
<polygon fill="none" stroke="#000000" points="284.5,-220.7 284.5,-239.7 426.5,-239.7 426.5,-220.7 284.5,-220.7"/>
<text text-anchor="start" x="287.5" y="-226.8" font-family="Helvetica,sans-Serif" font-size="11.00" fill="#000000">...</text>
<polygon fill="#ffffff" stroke="transparent" points="284.5,-201.7 284.5,-220.7 353.5,-220.7 353.5,-201.7 284.5,-201.7"/>
<polygon fill="none" stroke="#000000" points="284.5,-201.7 284.5,-220.7 353.5,-220.7 353.5,-201.7 284.5,-201.7"/>
<text text-anchor="start" x="287.5" y="-207.8" font-family="Helvetica,sans-Serif" font-size="11.00" fill="#000000">&lt; 1</text>
<polygon fill="#ffffff" stroke="transparent" points="353.5,-201.7 353.5,-220.7 389.5,-220.7 389.5,-201.7 353.5,-201.7"/>
<polygon fill="none" stroke="#000000" points="353.5,-201.7 353.5,-220.7 389.5,-220.7 389.5,-201.7 353.5,-201.7"/>
<text text-anchor="start" x="380.3862" y="-207.8" font-family="Helvetica,sans-Serif" font-size="11.00" fill="#000000"> &#160;</text>
<polygon fill="#ffffff" stroke="transparent" points="389.5,-201.7 389.5,-220.7 426.5,-220.7 426.5,-201.7 389.5,-201.7"/>
<polygon fill="none" stroke="#000000" points="389.5,-201.7 389.5,-220.7 426.5,-220.7 426.5,-201.7 389.5,-201.7"/>
<text text-anchor="start" x="417.3862" y="-207.8" font-family="Helvetica,sans-Serif" font-size="11.00" fill="#000000"> &#160;</text>
</a>
</g>
</g>
<!-- prison_statistic&#45;&gt;policy -->
<g id="edge8" class="edge">
<title>prison_statistic:w&#45;&gt;policy:e</title>
<path fill="none" stroke="#000000" d="M269.965,-230.0524C231.5912,-232.0907 214.8358,-243.3541 183,-273.7 139.9813,-314.7054 183.431,-393.7 124,-393.7"/>
<polygon fill="#000000" stroke="#000000" points="276.5024,-229.894 284.5873,-233.2989 280.5012,-229.797 284.5,-229.7 284.5,-229.7 284.5,-229.7 280.5012,-229.797 284.4127,-226.1011 276.5024,-229.894 276.5024,-229.894"/>
<ellipse fill="none" stroke="#000000" cx="273.3033" cy="-229.9715" rx="3.2" ry="3.2"/>
</g>
<!-- staff_configuration -->
<g id="node9" class="node">
<title>staff_configuration</title>
<g id="a_node9"><a xlink:href="../../tables/staff_configuration.html" xlink:title="staff_configuration" target="_top">
<polygon fill="#ffffff" stroke="transparent" points="272,-120.2 272,-181.2 439,-181.2 439,-120.2 272,-120.2"/>
<polygon fill="#f5f5f5" stroke="transparent" points="272.5,-157.7 272.5,-180.7 439.5,-180.7 439.5,-157.7 272.5,-157.7"/>
<polygon fill="none" stroke="#000000" points="272.5,-157.7 272.5,-180.7 439.5,-180.7 439.5,-157.7 272.5,-157.7"/>
<text text-anchor="start" x="277.5" y="-166.3" font-family="Helvetica,sans-Serif" font-weight="bold" font-size="11.00" fill="#000000">staff_configuration</text>
<text text-anchor="start" x="405.0219" y="-165.8" font-family="Helvetica,sans-Serif" font-size="11.00" fill="#000000">[table]</text>
<polygon fill="none" stroke="#000000" points="272.5,-138.7 272.5,-157.7 439.5,-157.7 439.5,-138.7 272.5,-138.7"/>
<text text-anchor="start" x="275.5" y="-144.8" font-family="Helvetica,sans-Serif" font-size="11.00" fill="#000000">...</text>
<polygon fill="#ffffff" stroke="transparent" points="272.5,-119.7 272.5,-138.7 354.5,-138.7 354.5,-119.7 272.5,-119.7"/>
<polygon fill="none" stroke="#000000" points="272.5,-119.7 272.5,-138.7 354.5,-138.7 354.5,-119.7 272.5,-119.7"/>
<text text-anchor="start" x="275.5" y="-125.8" font-family="Helvetica,sans-Serif" font-size="11.00" fill="#000000">&lt; 2</text>
<polygon fill="#ffffff" stroke="transparent" points="354.5,-119.7 354.5,-138.7 396.5,-138.7 396.5,-119.7 354.5,-119.7"/>
<polygon fill="none" stroke="#000000" points="354.5,-119.7 354.5,-138.7 396.5,-138.7 396.5,-119.7 354.5,-119.7"/>
<text text-anchor="start" x="387.3862" y="-125.8" font-family="Helvetica,sans-Serif" font-size="11.00" fill="#000000"> &#160;</text>
<polygon fill="#ffffff" stroke="transparent" points="396.5,-119.7 396.5,-138.7 439.5,-138.7 439.5,-119.7 396.5,-119.7"/>
<polygon fill="none" stroke="#000000" points="396.5,-119.7 396.5,-138.7 439.5,-138.7 439.5,-119.7 396.5,-119.7"/>
<text text-anchor="start" x="430.3862" y="-125.8" font-family="Helvetica,sans-Serif" font-size="11.00" fill="#000000"> &#160;</text>
</a>
</g>
</g>
<!-- staff_configuration&#45;&gt;policy -->
<g id="edge9" class="edge">
<title>staff_configuration:w&#45;&gt;policy:e</title>
<path fill="none" stroke="#000000" d="M257.9934,-148.1371C224.109,-150.388 208.1794,-161.7468 183,-191.7 122.8168,-263.2936 217.5289,-393.7 124,-393.7"/>
<polygon fill="#000000" stroke="#000000" points="264.5036,-147.941 272.6084,-151.2984 268.5018,-147.8205 272.5,-147.7 272.5,-147.7 272.5,-147.7 268.5018,-147.8205 272.3916,-144.1016 264.5036,-147.941 264.5036,-147.941"/>
<ellipse fill="none" stroke="#000000" cx="261.3051" cy="-148.0374" rx="3.2" ry="3.2"/>
</g>
<!-- staff_configuration_audit -->
<g id="node10" class="node">
<title>staff_configuration_audit</title>
<g id="a_node10"><a xlink:href="../../tables/staff_configuration_audit.html" xlink:title="staff_configuration_audit" target="_top">
<polygon fill="#ffffff" stroke="transparent" points="191,-530.7 191,-862.7 520,-862.7 520,-530.7 191,-530.7"/>
<polygon fill="#f5f5f5" stroke="transparent" points="193.5,-837.7 193.5,-860.7 518.5,-860.7 518.5,-837.7 193.5,-837.7"/>
<polygon fill="none" stroke="#000000" points="193.5,-837.7 193.5,-860.7 518.5,-860.7 518.5,-837.7 193.5,-837.7"/>
<text text-anchor="start" x="198.5" y="-846.3" font-family="Helvetica,sans-Serif" font-weight="bold" font-size="11.00" fill="#000000">staff_configuration_audit</text>
<text text-anchor="start" x="483.5437" y="-845.8" font-family="Helvetica,sans-Serif" font-size="11.00" fill="#000000">[table]</text>
<polygon fill="none" stroke="#000000" points="193.5,-815.7 193.5,-837.7 424.5,-837.7 424.5,-815.7 193.5,-815.7"/>
<image xlink:href="../../images/primaryKeys.png" width="11px" height="12px" preserveAspectRatio="xMinYMin meet" x="198.5" y="-832.7"/>
<text text-anchor="start" x="213.5" y="-822.8" font-family="Helvetica,sans-Serif" font-size="11.00" fill="#000000">rev_id</text>
<polygon fill="none" stroke="#000000" points="424.5,-815.7 424.5,-837.7 518.5,-837.7 518.5,-815.7 424.5,-815.7"/>
<text text-anchor="start" x="427.5" y="-823.4" font-family="Helvetica,sans-Serif" font-size="11.00" fill="#000000">int8[19]</text>
<polygon fill="none" stroke="#000000" points="193.5,-793.7 193.5,-815.7 424.5,-815.7 424.5,-793.7 193.5,-793.7"/>
<text text-anchor="start" x="213.5" y="-800.8" font-family="Helvetica,sans-Serif" font-size="11.00" fill="#000000">rev_type</text>
<polygon fill="none" stroke="#000000" points="424.5,-793.7 424.5,-815.7 518.5,-815.7 518.5,-793.7 424.5,-793.7"/>
<text text-anchor="start" x="427.5" y="-801.4" font-family="Helvetica,sans-Serif" font-size="11.00" fill="#000000">int2[5]</text>
<polygon fill="none" stroke="#000000" points="193.5,-771.7 193.5,-793.7 424.5,-793.7 424.5,-771.7 193.5,-771.7"/>
<image xlink:href="../../images/primaryKeys.png" width="11px" height="12px" preserveAspectRatio="xMinYMin meet" x="198.5" y="-788.7"/>
<text text-anchor="start" x="213.5" y="-778.8" font-family="Helvetica,sans-Serif" font-size="11.00" fill="#000000">id</text>
<polygon fill="none" stroke="#000000" points="424.5,-771.7 424.5,-793.7 518.5,-793.7 518.5,-771.7 424.5,-771.7"/>
<text text-anchor="start" x="427.4758" y="-779.4" font-family="Helvetica,sans-Serif" font-size="11.00" fill="#000000">uuid[2147483647]</text>
<polygon fill="none" stroke="#000000" points="193.5,-749.7 193.5,-771.7 424.5,-771.7 424.5,-749.7 193.5,-749.7"/>
<text text-anchor="start" x="213.5" y="-756.8" font-family="Helvetica,sans-Serif" font-size="11.00" fill="#000000">staff_id</text>
<polygon fill="none" stroke="#000000" points="424.5,-749.7 424.5,-771.7 518.5,-771.7 518.5,-749.7 424.5,-749.7"/>
<text text-anchor="start" x="427.5" y="-757.4" font-family="Helvetica,sans-Serif" font-size="11.00" fill="#000000">int8[19]</text>
<polygon fill="none" stroke="#000000" points="193.5,-727.7 193.5,-749.7 424.5,-749.7 424.5,-727.7 193.5,-727.7"/>
<text text-anchor="start" x="213.5" y="-734.8" font-family="Helvetica,sans-Serif" font-size="11.00" fill="#000000">capacity</text>
<polygon fill="none" stroke="#000000" points="424.5,-727.7 424.5,-749.7 518.5,-749.7 518.5,-727.7 424.5,-727.7"/>
<text text-anchor="start" x="427.5" y="-735.4" font-family="Helvetica,sans-Serif" font-size="11.00" fill="#000000">int4[10]</text>
<polygon fill="none" stroke="#000000" points="193.5,-705.7 193.5,-727.7 424.5,-727.7 424.5,-705.7 193.5,-705.7"/>
<text text-anchor="start" x="213.5" y="-712.8" font-family="Helvetica,sans-Serif" font-size="11.00" fill="#000000">reactivate_on</text>
<polygon fill="none" stroke="#000000" points="424.5,-705.7 424.5,-727.7 518.5,-727.7 518.5,-705.7 424.5,-705.7"/>
<text text-anchor="start" x="427.5" y="-713.4" font-family="Helvetica,sans-Serif" font-size="11.00" fill="#000000">date[13]</text>
<polygon fill="none" stroke="#000000" points="193.5,-683.7 193.5,-705.7 424.5,-705.7 424.5,-683.7 193.5,-683.7"/>
<text text-anchor="start" x="213.5" y="-690.8" font-family="Helvetica,sans-Serif" font-size="11.00" fill="#000000">status_id</text>
<polygon fill="none" stroke="#000000" points="424.5,-683.7 424.5,-705.7 518.5,-705.7 518.5,-683.7 424.5,-683.7"/>
<text text-anchor="start" x="427.5" y="-691.4" font-family="Helvetica,sans-Serif" font-size="11.00" fill="#000000">int8[19]</text>
<polygon fill="none" stroke="#000000" points="193.5,-661.7 193.5,-683.7 424.5,-683.7 424.5,-661.7 193.5,-661.7"/>
<text text-anchor="start" x="213.5" y="-668.8" font-family="Helvetica,sans-Serif" font-size="11.00" fill="#000000">allow_auto_allocation</text>
<polygon fill="none" stroke="#000000" points="424.5,-661.7 424.5,-683.7 518.5,-683.7 518.5,-661.7 424.5,-661.7"/>
<text text-anchor="start" x="427.5" y="-669.4" font-family="Helvetica,sans-Serif" font-size="11.00" fill="#000000">bool[1]</text>
<polygon fill="none" stroke="#000000" points="193.5,-639.7 193.5,-661.7 424.5,-661.7 424.5,-639.7 193.5,-639.7"/>
<image xlink:href="../../images/foreignKeys.png" width="11px" height="12px" preserveAspectRatio="xMinYMin meet" x="198.5" y="-656.7"/>
<text text-anchor="start" x="213.5" y="-646.8" font-family="Helvetica,sans-Serif" font-size="11.00" fill="#000000">policy_code</text>
<polygon fill="none" stroke="#000000" points="424.5,-639.7 424.5,-661.7 518.5,-661.7 518.5,-639.7 424.5,-639.7"/>
<text text-anchor="start" x="427.5" y="-647.4" font-family="Helvetica,sans-Serif" font-size="11.00" fill="#000000">varchar[16]</text>
<polygon fill="none" stroke="#000000" points="193.5,-617.7 193.5,-639.7 424.5,-639.7 424.5,-617.7 193.5,-617.7"/>
<text text-anchor="start" x="213.5" y="-624.8" font-family="Helvetica,sans-Serif" font-size="11.00" fill="#000000">capacity_modified</text>
<polygon fill="none" stroke="#000000" points="424.5,-617.7 424.5,-639.7 518.5,-639.7 518.5,-617.7 424.5,-617.7"/>
<text text-anchor="start" x="427.5" y="-625.4" font-family="Helvetica,sans-Serif" font-size="11.00" fill="#000000">bool[1]</text>
<polygon fill="none" stroke="#000000" points="193.5,-595.7 193.5,-617.7 424.5,-617.7 424.5,-595.7 193.5,-595.7"/>
<text text-anchor="start" x="213.5" y="-602.8" font-family="Helvetica,sans-Serif" font-size="11.00" fill="#000000">reactivate_on_modified</text>
<polygon fill="none" stroke="#000000" points="424.5,-595.7 424.5,-617.7 518.5,-617.7 518.5,-595.7 424.5,-595.7"/>
<text text-anchor="start" x="427.5" y="-603.4" font-family="Helvetica,sans-Serif" font-size="11.00" fill="#000000">bool[1]</text>
<polygon fill="none" stroke="#000000" points="193.5,-573.7 193.5,-595.7 424.5,-595.7 424.5,-573.7 193.5,-573.7"/>
<text text-anchor="start" x="213.5" y="-580.8" font-family="Helvetica,sans-Serif" font-size="11.00" fill="#000000">status_modified</text>
<polygon fill="none" stroke="#000000" points="424.5,-573.7 424.5,-595.7 518.5,-595.7 518.5,-573.7 424.5,-573.7"/>
<text text-anchor="start" x="427.5" y="-581.4" font-family="Helvetica,sans-Serif" font-size="11.00" fill="#000000">bool[1]</text>
<polygon fill="none" stroke="#000000" points="193.5,-551.7 193.5,-573.7 424.5,-573.7 424.5,-551.7 193.5,-551.7"/>
<text text-anchor="start" x="213.5" y="-558.8" font-family="Helvetica,sans-Serif" font-size="11.00" fill="#000000">allow_auto_allocation_modified</text>
<polygon fill="none" stroke="#000000" points="424.5,-551.7 424.5,-573.7 518.5,-573.7 518.5,-551.7 424.5,-551.7"/>
<text text-anchor="start" x="427.5" y="-559.4" font-family="Helvetica,sans-Serif" font-size="11.00" fill="#000000">bool[1]</text>
<polygon fill="#ffffff" stroke="transparent" points="193.5,-532.7 193.5,-551.7 313.5,-551.7 313.5,-532.7 193.5,-532.7"/>
<polygon fill="none" stroke="#000000" points="193.5,-532.7 193.5,-551.7 313.5,-551.7 313.5,-532.7 193.5,-532.7"/>
<text text-anchor="start" x="196.5" y="-538.8" font-family="Helvetica,sans-Serif" font-size="11.00" fill="#000000">&lt; 2</text>
<polygon fill="#ffffff" stroke="transparent" points="313.5,-532.7 313.5,-551.7 424.5,-551.7 424.5,-532.7 313.5,-532.7"/>
<polygon fill="none" stroke="#000000" points="313.5,-532.7 313.5,-551.7 424.5,-551.7 424.5,-532.7 313.5,-532.7"/>
<text text-anchor="start" x="415.3862" y="-538.8" font-family="Helvetica,sans-Serif" font-size="11.00" fill="#000000"> &#160;</text>
<polygon fill="#ffffff" stroke="transparent" points="424.5,-532.7 424.5,-551.7 518.5,-551.7 518.5,-532.7 424.5,-532.7"/>
<polygon fill="none" stroke="#000000" points="424.5,-532.7 424.5,-551.7 518.5,-551.7 518.5,-532.7 424.5,-532.7"/>
<text text-anchor="start" x="499.9053" y="-538.8" font-family="Helvetica,sans-Serif" font-size="11.00" fill="#000000">0 &gt;</text>
<polygon fill="none" stroke="#000000" stroke-width="2" points="192,-531.7 192,-861.7 519,-861.7 519,-531.7 192,-531.7"/>
</a>
</g>
</g>
<!-- staff_configuration_audit&#45;&gt;policy -->
<g id="edge10" class="edge">
<title>staff_configuration_audit:w&#45;&gt;policy:e</title>
<path fill="none" stroke="#000000" stroke-dasharray="5,2" d="M178.9562,-649.1255C89.9173,-627.6496 236.8942,-393.7 124,-393.7"/>
<polygon fill="#000000" stroke="#000000" points="185.5465,-649.8389 193.1125,-654.2791 189.5232,-650.2694 193.5,-650.7 193.5,-650.7 193.5,-650.7 189.5232,-650.2694 193.8875,-647.1209 185.5465,-649.8389 185.5465,-649.8389"/>
<ellipse fill="none" stroke="#000000" cx="182.3651" cy="-649.4944" rx="3.2" ry="3.2"/>
</g>
<!-- staff_configuration_audit&#45;&gt;audit_revision -->
<g id="edge11" class="edge">
<title>staff_configuration_audit:w&#45;&gt;audit_revision:e</title>
<path fill="none" stroke="#000000" d="M179.5119,-831.032C157.8888,-848.3534 180.1318,-911.7 142,-911.7"/>
<polygon fill="#000000" stroke="#000000" points="185.8581,-829.0667 194.565,-830.1389 189.679,-827.8833 193.5,-826.7 193.5,-826.7 193.5,-826.7 189.679,-827.8833 192.435,-823.2611 185.8581,-829.0667 185.8581,-829.0667"/>
<ellipse fill="none" stroke="#000000" cx="182.8013" cy="-830.0134" rx="3.2" ry="3.2"/>
</g>
<!-- staff_role -->
<g id="node11" class="node">
<title>staff_role</title>
<g id="a_node11"><a xlink:href="../../tables/staff_role.html" xlink:title="staff_role" target="_top">
<polygon fill="#ffffff" stroke="transparent" points="304.5,-38.2 304.5,-99.2 406.5,-99.2 406.5,-38.2 304.5,-38.2"/>
<polygon fill="#f5f5f5" stroke="transparent" points="304.5,-75.7 304.5,-98.7 406.5,-98.7 406.5,-75.7 304.5,-75.7"/>
<polygon fill="none" stroke="#000000" points="304.5,-75.7 304.5,-98.7 406.5,-98.7 406.5,-75.7 304.5,-75.7"/>
<text text-anchor="start" x="309.5" y="-84.3" font-family="Helvetica,sans-Serif" font-weight="bold" font-size="11.00" fill="#000000">staff_role</text>
<text text-anchor="start" x="372.0219" y="-83.8" font-family="Helvetica,sans-Serif" font-size="11.00" fill="#000000">[table]</text>
<polygon fill="none" stroke="#000000" points="304.5,-56.7 304.5,-75.7 406.5,-75.7 406.5,-56.7 304.5,-56.7"/>
<text text-anchor="start" x="307.5" y="-62.8" font-family="Helvetica,sans-Serif" font-size="11.00" fill="#000000">...</text>
<polygon fill="#ffffff" stroke="transparent" points="304.5,-37.7 304.5,-56.7 353.5,-56.7 353.5,-37.7 304.5,-37.7"/>
<polygon fill="none" stroke="#000000" points="304.5,-37.7 304.5,-56.7 353.5,-56.7 353.5,-37.7 304.5,-37.7"/>
<text text-anchor="start" x="307.5" y="-43.8" font-family="Helvetica,sans-Serif" font-size="11.00" fill="#000000">&lt; 2</text>
<polygon fill="#ffffff" stroke="transparent" points="353.5,-37.7 353.5,-56.7 379.5,-56.7 379.5,-37.7 353.5,-37.7"/>
<polygon fill="none" stroke="#000000" points="353.5,-37.7 353.5,-56.7 379.5,-56.7 379.5,-37.7 353.5,-37.7"/>
<text text-anchor="start" x="370.3862" y="-43.8" font-family="Helvetica,sans-Serif" font-size="11.00" fill="#000000"> &#160;</text>
<polygon fill="#ffffff" stroke="transparent" points="379.5,-37.7 379.5,-56.7 406.5,-56.7 406.5,-37.7 379.5,-37.7"/>
<polygon fill="none" stroke="#000000" points="379.5,-37.7 379.5,-56.7 406.5,-56.7 406.5,-37.7 379.5,-37.7"/>
<text text-anchor="start" x="397.3862" y="-43.8" font-family="Helvetica,sans-Serif" font-size="11.00" fill="#000000"> &#160;</text>
</a>
</g>
</g>
<!-- staff_role&#45;&gt;policy -->
<g id="edge12" class="edge">
<title>staff_role:w&#45;&gt;policy:e</title>
<path fill="none" stroke="#000000" stroke-dasharray="5,2" d="M290.0461,-65.7425C242.3318,-66.136 217.308,-70.1139 183,-109.7 98.5682,-207.1214 252.9172,-393.7 124,-393.7"/>
<polygon fill="#000000" stroke="#000000" points="296.5,-65.7236 304.5106,-69.3 300.5,-65.7118 304.5,-65.7 304.5,-65.7 304.5,-65.7 300.5,-65.7118 304.4894,-62.1 296.5,-65.7236 296.5,-65.7236"/>
<ellipse fill="none" stroke="#000000" cx="293.3" cy="-65.733" rx="3.2" ry="3.2"/>
</g>
<!-- staff_role_audit -->
<g id="node12" class="node">
<title>staff_role_audit</title>
<g id="a_node12"><a xlink:href="../../tables/staff_role_audit.html" xlink:title="staff_role_audit" target="_top">
<polygon fill="#ffffff" stroke="transparent" points="284,-448.2 284,-509.2 427,-509.2 427,-448.2 284,-448.2"/>
<polygon fill="#f5f5f5" stroke="transparent" points="284.5,-485.7 284.5,-508.7 427.5,-508.7 427.5,-485.7 284.5,-485.7"/>
<polygon fill="none" stroke="#000000" points="284.5,-485.7 284.5,-508.7 427.5,-508.7 427.5,-485.7 284.5,-485.7"/>
<text text-anchor="start" x="289.5" y="-494.3" font-family="Helvetica,sans-Serif" font-weight="bold" font-size="11.00" fill="#000000">staff_role_audit</text>
<text text-anchor="start" x="393.0219" y="-493.8" font-family="Helvetica,sans-Serif" font-size="11.00" fill="#000000">[table]</text>
<polygon fill="none" stroke="#000000" points="284.5,-466.7 284.5,-485.7 427.5,-485.7 427.5,-466.7 284.5,-466.7"/>
<text text-anchor="start" x="287.5" y="-472.8" font-family="Helvetica,sans-Serif" font-size="11.00" fill="#000000">...</text>
<polygon fill="#ffffff" stroke="transparent" points="284.5,-447.7 284.5,-466.7 354.5,-466.7 354.5,-447.7 284.5,-447.7"/>
<polygon fill="none" stroke="#000000" points="284.5,-447.7 284.5,-466.7 354.5,-466.7 354.5,-447.7 284.5,-447.7"/>
<text text-anchor="start" x="287.5" y="-453.8" font-family="Helvetica,sans-Serif" font-size="11.00" fill="#000000">&lt; 3</text>
<polygon fill="#ffffff" stroke="transparent" points="354.5,-447.7 354.5,-466.7 390.5,-466.7 390.5,-447.7 354.5,-447.7"/>
<polygon fill="none" stroke="#000000" points="354.5,-447.7 354.5,-466.7 390.5,-466.7 390.5,-447.7 354.5,-447.7"/>
<text text-anchor="start" x="381.3862" y="-453.8" font-family="Helvetica,sans-Serif" font-size="11.00" fill="#000000"> &#160;</text>
<polygon fill="#ffffff" stroke="transparent" points="390.5,-447.7 390.5,-466.7 427.5,-466.7 427.5,-447.7 390.5,-447.7"/>
<polygon fill="none" stroke="#000000" points="390.5,-447.7 390.5,-466.7 427.5,-466.7 427.5,-447.7 390.5,-447.7"/>
<text text-anchor="start" x="418.3862" y="-453.8" font-family="Helvetica,sans-Serif" font-size="11.00" fill="#000000"> &#160;</text>
</a>
</g>
</g>
<!-- staff_role_audit&#45;&gt;policy -->
<g id="edge13" class="edge">
<title>staff_role_audit:w&#45;&gt;policy:e</title>
<path fill="none" stroke="#000000" stroke-dasharray="5,2" d="M269.9374,-475.1731C233.5408,-472.3372 220.6588,-458.249 183,-437.7 154.2855,-422.0315 156.7112,-393.7 124,-393.7"/>
<polygon fill="#000000" stroke="#000000" points="276.5052,-475.4107 284.3698,-479.2976 280.5026,-475.5554 284.5,-475.7 284.5,-475.7 284.5,-475.7 280.5026,-475.5554 284.6302,-472.1024 276.5052,-475.4107 276.5052,-475.4107"/>
<ellipse fill="none" stroke="#000000" cx="273.3073" cy="-475.295" rx="3.2" ry="3.2"/>
</g>
<!-- staff_role_audit&#45;&gt;audit_revision -->
<g id="edge14" class="edge">
<title>staff_role_audit:w&#45;&gt;audit_revision:e</title>
<path fill="none" stroke="#000000" d="M269.9831,-475.8968C230.3037,-477.1283 209.0261,-484.9281 183,-520.7 131.6011,-591.3459 229.3653,-911.7 142,-911.7"/>
<polygon fill="#000000" stroke="#000000" points="276.5007,-475.8085 284.5488,-479.2997 280.5004,-475.7543 284.5,-475.7 284.5,-475.7 284.5,-475.7 280.5004,-475.7543 284.4512,-472.1003 276.5007,-475.8085 276.5007,-475.8085"/>
<ellipse fill="none" stroke="#000000" cx="273.301" cy="-475.8519" rx="3.2" ry="3.2"/>
</g>
</g>
</svg>
