<?xml version="1.0" encoding="UTF-8" standalone="no"?>
<!DOCTYPE svg PUBLIC "-//W3C//DTD SVG 1.1//EN"
 "http://www.w3.org/Graphics/SVG/1.1/DTD/svg11.dtd">
<!-- Generated by graphviz version 2.40.1 (20161225.0304)
 -->
<!-- Title: oneDegreeRelationshipsDiagram Pages: 1 -->
<svg width="495pt" height="338pt"
 viewBox="0.00 0.00 495.00 338.20" xmlns="http://www.w3.org/2000/svg" xmlns:xlink="http://www.w3.org/1999/xlink">
<g id="graph0" class="graph" transform="scale(1 1) rotate(0) translate(4 334.2)">
<title>oneDegreeRelationshipsDiagram</title>
<polygon fill="#ffffff" stroke="transparent" points="-4,4 -4,-334.2 491,-334.2 491,4 -4,4"/>
<text text-anchor="middle" x="72.4936" y="-7.3" font-family="Helvetica,sans-Serif" font-size="11.00" fill="#000000">Generated by SchemaSpy</text>
<!-- staff_configuration_audit -->
<g id="node1" class="node">
<title>staff_configuration_audit</title>
<g id="a_node1"><a xlink:href="../../tables/staff_configuration_audit.html" xlink:title="staff_configuration_audit" target="_top">
<polygon fill="#ffffff" stroke="transparent" points="191,-38.2 191,-326.2 479,-326.2 479,-38.2 191,-38.2"/>
<polygon fill="#f5f5f5" stroke="transparent" points="193,-301.2 193,-324.2 477,-324.2 477,-301.2 193,-301.2"/>
<polygon fill="none" stroke="#000000" points="193,-301.2 193,-324.2 477,-324.2 477,-301.2 193,-301.2"/>
<text text-anchor="start" x="198" y="-309.8" font-family="Helvetica,sans-Serif" font-weight="bold" font-size="11.00" fill="#000000">staff_configuration_audit</text>
<text text-anchor="start" x="442.0437" y="-309.3" font-family="Helvetica,sans-Serif" font-size="11.00" fill="#000000">[table]</text>
<polygon fill="none" stroke="#000000" points="193,-279.2 193,-301.2 383,-301.2 383,-279.2 193,-279.2"/>
<image xlink:href="../../images/primaryKeys.png" width="11px" height="12px" preserveAspectRatio="xMinYMin meet" x="198" y="-296.2"/>
<text text-anchor="start" x="213" y="-286.3" font-family="Helvetica,sans-Serif" font-size="11.00" fill="#000000">rev_id</text>
<polygon fill="none" stroke="#000000" points="383,-279.2 383,-301.2 477,-301.2 477,-279.2 383,-279.2"/>
<text text-anchor="start" x="386" y="-286.9" font-family="Helvetica,sans-Serif" font-size="11.00" fill="#000000">int8[19]</text>
<polygon fill="none" stroke="#000000" points="193,-257.2 193,-279.2 383,-279.2 383,-257.2 193,-257.2"/>
<text text-anchor="start" x="213" y="-264.3" font-family="Helvetica,sans-Serif" font-size="11.00" fill="#000000">rev_type</text>
<polygon fill="none" stroke="#000000" points="383,-257.2 383,-279.2 477,-279.2 477,-257.2 383,-257.2"/>
<text text-anchor="start" x="386" y="-264.9" font-family="Helvetica,sans-Serif" font-size="11.00" fill="#000000">int2[5]</text>
<polygon fill="none" stroke="#000000" points="193,-235.2 193,-257.2 383,-257.2 383,-235.2 193,-235.2"/>
<image xlink:href="../../images/primaryKeys.png" width="11px" height="12px" preserveAspectRatio="xMinYMin meet" x="198" y="-252.2"/>
<text text-anchor="start" x="213" y="-242.3" font-family="Helvetica,sans-Serif" font-size="11.00" fill="#000000">id</text>
<polygon fill="none" stroke="#000000" points="383,-235.2 383,-257.2 477,-257.2 477,-235.2 383,-235.2"/>
<text text-anchor="start" x="385.9758" y="-242.9" font-family="Helvetica,sans-Serif" font-size="11.00" fill="#000000">uuid[2147483647]</text>
<polygon fill="none" stroke="#000000" points="193,-213.2 193,-235.2 383,-235.2 383,-213.2 193,-213.2"/>
<text text-anchor="start" x="213" y="-220.3" font-family="Helvetica,sans-Serif" font-size="11.00" fill="#000000">staff_id</text>
<polygon fill="none" stroke="#000000" points="383,-213.2 383,-235.2 477,-235.2 477,-213.2 383,-213.2"/>
<text text-anchor="start" x="386" y="-220.9" font-family="Helvetica,sans-Serif" font-size="11.00" fill="#000000">int8[19]</text>
<polygon fill="none" stroke="#000000" points="193,-191.2 193,-213.2 383,-213.2 383,-191.2 193,-191.2"/>
<text text-anchor="start" x="213" y="-198.3" font-family="Helvetica,sans-Serif" font-size="11.00" fill="#000000">capacity</text>
<polygon fill="none" stroke="#000000" points="383,-191.2 383,-213.2 477,-213.2 477,-191.2 383,-191.2"/>
<text text-anchor="start" x="386" y="-198.9" font-family="Helvetica,sans-Serif" font-size="11.00" fill="#000000">int4[10]</text>
<polygon fill="none" stroke="#000000" points="193,-169.2 193,-191.2 383,-191.2 383,-169.2 193,-169.2"/>
<text text-anchor="start" x="213" y="-176.3" font-family="Helvetica,sans-Serif" font-size="11.00" fill="#000000">reactivate_on</text>
<polygon fill="none" stroke="#000000" points="383,-169.2 383,-191.2 477,-191.2 477,-169.2 383,-169.2"/>
<text text-anchor="start" x="386" y="-176.9" font-family="Helvetica,sans-Serif" font-size="11.00" fill="#000000">date[13]</text>
<polygon fill="none" stroke="#000000" points="193,-147.2 193,-169.2 383,-169.2 383,-147.2 193,-147.2"/>
<text text-anchor="start" x="213" y="-154.3" font-family="Helvetica,sans-Serif" font-size="11.00" fill="#000000">status_id</text>
<polygon fill="none" stroke="#000000" points="383,-147.2 383,-169.2 477,-169.2 477,-147.2 383,-147.2"/>
<text text-anchor="start" x="386" y="-154.9" font-family="Helvetica,sans-Serif" font-size="11.00" fill="#000000">int8[19]</text>
<polygon fill="none" stroke="#000000" points="193,-125.2 193,-147.2 383,-147.2 383,-125.2 193,-125.2"/>
<image xlink:href="../../images/foreignKeys.png" width="11px" height="12px" preserveAspectRatio="xMinYMin meet" x="198" y="-142.2"/>
<text text-anchor="start" x="213" y="-132.3" font-family="Helvetica,sans-Serif" font-size="11.00" fill="#000000">policy_code</text>
<polygon fill="none" stroke="#000000" points="383,-125.2 383,-147.2 477,-147.2 477,-125.2 383,-125.2"/>
<text text-anchor="start" x="386" y="-132.9" font-family="Helvetica,sans-Serif" font-size="11.00" fill="#000000">varchar[16]</text>
<polygon fill="none" stroke="#000000" points="193,-103.2 193,-125.2 383,-125.2 383,-103.2 193,-103.2"/>
<text text-anchor="start" x="213" y="-110.3" font-family="Helvetica,sans-Serif" font-size="11.00" fill="#000000">capacity_modified</text>
<polygon fill="none" stroke="#000000" points="383,-103.2 383,-125.2 477,-125.2 477,-103.2 383,-103.2"/>
<text text-anchor="start" x="386" y="-110.9" font-family="Helvetica,sans-Serif" font-size="11.00" fill="#000000">bool[1]</text>
<polygon fill="none" stroke="#000000" points="193,-81.2 193,-103.2 383,-103.2 383,-81.2 193,-81.2"/>
<text text-anchor="start" x="213" y="-88.3" font-family="Helvetica,sans-Serif" font-size="11.00" fill="#000000">reactivate_on_modified</text>
<polygon fill="none" stroke="#000000" points="383,-81.2 383,-103.2 477,-103.2 477,-81.2 383,-81.2"/>
<text text-anchor="start" x="386" y="-88.9" font-family="Helvetica,sans-Serif" font-size="11.00" fill="#000000">bool[1]</text>
<polygon fill="none" stroke="#000000" points="193,-59.2 193,-81.2 383,-81.2 383,-59.2 193,-59.2"/>
<text text-anchor="start" x="213" y="-66.3" font-family="Helvetica,sans-Serif" font-size="11.00" fill="#000000">status_modified</text>
<polygon fill="none" stroke="#000000" points="383,-59.2 383,-81.2 477,-81.2 477,-59.2 383,-59.2"/>
<text text-anchor="start" x="386" y="-66.9" font-family="Helvetica,sans-Serif" font-size="11.00" fill="#000000">bool[1]</text>
<polygon fill="#ffffff" stroke="transparent" points="193,-40.2 193,-59.2 292,-59.2 292,-40.2 193,-40.2"/>
<polygon fill="none" stroke="#000000" points="193,-40.2 193,-59.2 292,-59.2 292,-40.2 193,-40.2"/>
<text text-anchor="start" x="196" y="-46.3" font-family="Helvetica,sans-Serif" font-size="11.00" fill="#000000">&lt; 1</text>
<polygon fill="#ffffff" stroke="transparent" points="292,-40.2 292,-59.2 383,-59.2 383,-40.2 292,-40.2"/>
<polygon fill="none" stroke="#000000" points="292,-40.2 292,-59.2 383,-59.2 383,-40.2 292,-40.2"/>
<text text-anchor="start" x="373.8862" y="-46.3" font-family="Helvetica,sans-Serif" font-size="11.00" fill="#000000"> &#160;</text>
<polygon fill="#ffffff" stroke="transparent" points="383,-40.2 383,-59.2 477,-59.2 477,-40.2 383,-40.2"/>
<polygon fill="none" stroke="#000000" points="383,-40.2 383,-59.2 477,-59.2 477,-40.2 383,-40.2"/>
<text text-anchor="start" x="458.4053" y="-46.3" font-family="Helvetica,sans-Serif" font-size="11.00" fill="#000000">0 &gt;</text>
<polygon fill="none" stroke="#000000" stroke-width="2" points="192,-39.2 192,-325.2 478,-325.2 478,-39.2 192,-39.2"/>
</a>
</g>
</g>
<!-- audit_revision -->
<g id="node2" class="node">
<title>audit_revision</title>
<g id="a_node2"><a xlink:href="../../tables/audit_revision.html" xlink:title="audit_revision" target="_top">
<polygon fill="#ffffff" stroke="transparent" points="8,-241.7 8,-324.7 142,-324.7 142,-241.7 8,-241.7"/>
<polygon fill="#f5f5f5" stroke="transparent" points="8,-301.2 8,-324.2 142,-324.2 142,-301.2 8,-301.2"/>
<polygon fill="none" stroke="#000000" points="8,-301.2 8,-324.2 142,-324.2 142,-301.2 8,-301.2"/>
<text text-anchor="start" x="13" y="-309.8" font-family="Helvetica,sans-Serif" font-weight="bold" font-size="11.00" fill="#000000">audit_revision</text>
<text text-anchor="start" x="107.5219" y="-309.3" font-family="Helvetica,sans-Serif" font-size="11.00" fill="#000000">[table]</text>
<polygon fill="none" stroke="#000000" points="8,-279.2 8,-301.2 142,-301.2 142,-279.2 8,-279.2"/>
<image xlink:href="../../images/primaryKeys.png" width="11px" height="12px" preserveAspectRatio="xMinYMin meet" x="13" y="-296.2"/>
<text text-anchor="start" x="28" y="-286.3" font-family="Helvetica,sans-Serif" font-size="11.00" fill="#000000">id</text>
<polygon fill="none" stroke="#000000" points="8,-260.2 8,-279.2 142,-279.2 142,-260.2 8,-260.2"/>
<text text-anchor="start" x="11" y="-266.3" font-family="Helvetica,sans-Serif" font-size="11.00" fill="#000000">...</text>
<polygon fill="#ffffff" stroke="transparent" points="8,-241.2 8,-260.2 64,-260.2 64,-241.2 8,-241.2"/>
<polygon fill="none" stroke="#000000" points="8,-241.2 8,-260.2 64,-260.2 64,-241.2 8,-241.2"/>
<text text-anchor="start" x="11" y="-247.3" font-family="Helvetica,sans-Serif" font-size="11.00" fill="#000000"> &#160;</text>
<polygon fill="#ffffff" stroke="transparent" points="64,-241.2 64,-260.2 98,-260.2 98,-241.2 64,-241.2"/>
<polygon fill="none" stroke="#000000" points="64,-241.2 64,-260.2 98,-260.2 98,-241.2 64,-241.2"/>
<text text-anchor="start" x="88.8862" y="-247.3" font-family="Helvetica,sans-Serif" font-size="11.00" fill="#000000"> &#160;</text>
<polygon fill="#ffffff" stroke="transparent" points="98,-241.2 98,-260.2 142,-260.2 142,-241.2 98,-241.2"/>
<polygon fill="none" stroke="#000000" points="98,-241.2 98,-260.2 142,-260.2 142,-241.2 98,-241.2"/>
<text text-anchor="start" x="123.4053" y="-247.3" font-family="Helvetica,sans-Serif" font-size="11.00" fill="#000000">5 &gt;</text>
</a>
</g>
</g>
<!-- staff_configuration_audit&#45;&gt;audit_revision -->
<g id="edge1" class="edge">
<title>staff_configuration_audit:w&#45;&gt;audit_revision:e</title>
<path fill="none" stroke="#000000" d="M178.276,-290.2C166.2815,-290.2 158.8229,-290.2 142,-290.2"/>
<polygon fill="#000000" stroke="#000000" points="185,-290.2001 193,-293.8 189,-290.2 193,-290.2 193,-290.2 193,-290.2 189,-290.2 193,-286.6 185,-290.2001 185,-290.2001"/>
<ellipse fill="none" stroke="#000000" cx="181.8" cy="-290.2001" rx="3.2" ry="3.2"/>
</g>
</g>
</svg>
