<?xml version="1.0" encoding="UTF-8" standalone="no"?>
<!DOCTYPE svg PUBLIC "-//W3C//DTD SVG 1.1//EN"
 "http://www.w3.org/Graphics/SVG/1.1/DTD/svg11.dtd">
<!-- Generated by graphviz version 2.40.1 (20161225.0304)
 -->
<!-- Title: twoDegreesRelationshipsDiagramImplied Pages: 1 -->
<svg width="536pt" height="793pt"
 viewBox="0.00 0.00 536.00 793.20" xmlns="http://www.w3.org/2000/svg" xmlns:xlink="http://www.w3.org/1999/xlink">
<g id="graph0" class="graph" transform="scale(1 1) rotate(0) translate(4 789.2)">
<title>twoDegreesRelationshipsDiagramImplied</title>
<polygon fill="#ffffff" stroke="transparent" points="-4,4 -4,-789.2 532,-789.2 532,4 -4,4"/>
<text text-anchor="middle" x="72.4936" y="-7.3" font-family="Helvetica,sans-Serif" font-size="11.00" fill="#000000">Generated by SchemaSpy</text>
<!-- prison_configuration -->
<g id="node1" class="node">
<title>prison_configuration</title>
<g id="a_node1"><a xlink:href="../../tables/prison_configuration.html" xlink:title="prison_configuration" target="_top">
<polygon fill="#ffffff" stroke="transparent" points="266.5,-720.2 266.5,-781.2 444.5,-781.2 444.5,-720.2 266.5,-720.2"/>
<polygon fill="#f5f5f5" stroke="transparent" points="266.5,-757.7 266.5,-780.7 444.5,-780.7 444.5,-757.7 266.5,-757.7"/>
<polygon fill="none" stroke="#000000" points="266.5,-757.7 266.5,-780.7 444.5,-780.7 444.5,-757.7 266.5,-757.7"/>
<text text-anchor="start" x="271.5" y="-766.3" font-family="Helvetica,sans-Serif" font-weight="bold" font-size="11.00" fill="#000000">prison_configuration</text>
<text text-anchor="start" x="410.0219" y="-765.8" font-family="Helvetica,sans-Serif" font-size="11.00" fill="#000000">[table]</text>
<polygon fill="none" stroke="#000000" points="266.5,-738.7 266.5,-757.7 444.5,-757.7 444.5,-738.7 266.5,-738.7"/>
<text text-anchor="start" x="269.5" y="-744.8" font-family="Helvetica,sans-Serif" font-size="11.00" fill="#000000">...</text>
<polygon fill="#ffffff" stroke="transparent" points="266.5,-719.7 266.5,-738.7 337.5,-738.7 337.5,-719.7 266.5,-719.7"/>
<polygon fill="none" stroke="#000000" points="266.5,-719.7 266.5,-738.7 337.5,-738.7 337.5,-719.7 266.5,-719.7"/>
<text text-anchor="start" x="269.5" y="-725.8" font-family="Helvetica,sans-Serif" font-size="11.00" fill="#000000">&lt; 1</text>
<polygon fill="#ffffff" stroke="transparent" points="337.5,-719.7 337.5,-738.7 406.5,-738.7 406.5,-719.7 337.5,-719.7"/>
<polygon fill="none" stroke="#000000" points="337.5,-719.7 337.5,-738.7 406.5,-738.7 406.5,-719.7 337.5,-719.7"/>
<text text-anchor="start" x="364.9956" y="-725.8" font-family="Helvetica,sans-Serif" font-size="11.00" fill="#000000">12 rows</text>
<polygon fill="#ffffff" stroke="transparent" points="406.5,-719.7 406.5,-738.7 444.5,-738.7 444.5,-719.7 406.5,-719.7"/>
<polygon fill="none" stroke="#000000" points="406.5,-719.7 406.5,-738.7 444.5,-738.7 444.5,-719.7 406.5,-719.7"/>
<text text-anchor="start" x="435.3862" y="-725.8" font-family="Helvetica,sans-Serif" font-size="11.00" fill="#000000"> &#160;</text>
</a>
</g>
</g>
<!-- policy -->
<g id="node2" class="node">
<title>policy</title>
<g id="a_node2"><a xlink:href="../../tables/policy.html" xlink:title="policy" target="_top">
<polygon fill="#ffffff" stroke="transparent" points="26.5,-503.2 26.5,-586.2 123.5,-586.2 123.5,-503.2 26.5,-503.2"/>
<polygon fill="#f5f5f5" stroke="transparent" points="27,-562.7 27,-585.7 124,-585.7 124,-562.7 27,-562.7"/>
<polygon fill="none" stroke="#000000" points="27,-562.7 27,-585.7 124,-585.7 124,-562.7 27,-562.7"/>
<text text-anchor="start" x="32" y="-571.3" font-family="Helvetica,sans-Serif" font-weight="bold" font-size="11.00" fill="#000000">policy</text>
<text text-anchor="start" x="89.0437" y="-570.8" font-family="Helvetica,sans-Serif" font-size="11.00" fill="#000000">[table]</text>
<polygon fill="none" stroke="#000000" points="27,-540.7 27,-562.7 124,-562.7 124,-540.7 27,-540.7"/>
<image xlink:href="../../images/primaryKeys.png" width="11px" height="12px" preserveAspectRatio="xMinYMin meet" x="32" y="-557.7"/>
<text text-anchor="start" x="47" y="-547.8" font-family="Helvetica,sans-Serif" font-size="11.00" fill="#000000">code</text>
<polygon fill="none" stroke="#000000" points="27,-521.7 27,-540.7 124,-540.7 124,-521.7 27,-521.7"/>
<text text-anchor="start" x="30" y="-527.8" font-family="Helvetica,sans-Serif" font-size="11.00" fill="#000000">...</text>
<polygon fill="#ffffff" stroke="transparent" points="27,-502.7 27,-521.7 65,-521.7 65,-502.7 27,-502.7"/>
<polygon fill="none" stroke="#000000" points="27,-502.7 27,-521.7 65,-521.7 65,-502.7 27,-502.7"/>
<text text-anchor="start" x="30" y="-508.8" font-family="Helvetica,sans-Serif" font-size="11.00" fill="#000000"> &#160;</text>
<polygon fill="#ffffff" stroke="transparent" points="65,-502.7 65,-521.7 90,-521.7 90,-502.7 65,-502.7"/>
<polygon fill="none" stroke="#000000" points="65,-502.7 65,-521.7 90,-521.7 90,-502.7 65,-502.7"/>
<text text-anchor="start" x="80.8862" y="-508.8" font-family="Helvetica,sans-Serif" font-size="11.00" fill="#000000"> &#160;</text>
<polygon fill="#ffffff" stroke="transparent" points="90,-502.7 90,-521.7 124,-521.7 124,-502.7 90,-502.7"/>
<polygon fill="none" stroke="#000000" points="90,-502.7 90,-521.7 124,-521.7 124,-502.7 90,-502.7"/>
<text text-anchor="start" x="105.4053" y="-508.8" font-family="Helvetica,sans-Serif" font-size="11.00" fill="#000000">6 &gt;</text>
</a>
</g>
</g>
<!-- prison_configuration&#45;&gt;policy -->
<g id="edge1" class="edge">
<title>prison_configuration:w&#45;&gt;policy:e</title>
<path fill="none" stroke="#000000" d="M251.9381,-747.2633C221.6665,-745.2311 207.2244,-735.6744 183,-709.7 131.8753,-654.8819 198.9584,-551.7 124,-551.7"/>
<polygon fill="#000000" stroke="#000000" points="258.5036,-747.4601 266.3921,-751.2984 262.5018,-747.5801 266.5,-747.7 266.5,-747.7 266.5,-747.7 262.5018,-747.5801 266.6079,-744.1016 258.5036,-747.4601 258.5036,-747.4601"/>
<ellipse fill="none" stroke="#000000" cx="255.305" cy="-747.3642" rx="3.2" ry="3.2"/>
</g>
<!-- prison_configuration_audit -->
<g id="node3" class="node">
<title>prison_configuration_audit</title>
<g id="a_node3"><a xlink:href="../../tables/prison_configuration_audit.html" xlink:title="prison_configuration_audit" target="_top">
<polygon fill="#ffffff" stroke="transparent" points="246,-474.2 246,-535.2 465,-535.2 465,-474.2 246,-474.2"/>
<polygon fill="#f5f5f5" stroke="transparent" points="246.5,-511.7 246.5,-534.7 465.5,-534.7 465.5,-511.7 246.5,-511.7"/>
<polygon fill="none" stroke="#000000" points="246.5,-511.7 246.5,-534.7 465.5,-534.7 465.5,-511.7 246.5,-511.7"/>
<text text-anchor="start" x="251.5" y="-520.3" font-family="Helvetica,sans-Serif" font-weight="bold" font-size="11.00" fill="#000000">prison_configuration_audit</text>
<text text-anchor="start" x="431.0219" y="-519.8" font-family="Helvetica,sans-Serif" font-size="11.00" fill="#000000">[table]</text>
<polygon fill="none" stroke="#000000" points="246.5,-492.7 246.5,-511.7 465.5,-511.7 465.5,-492.7 246.5,-492.7"/>
<text text-anchor="start" x="249.5" y="-498.8" font-family="Helvetica,sans-Serif" font-size="11.00" fill="#000000">...</text>
<polygon fill="#ffffff" stroke="transparent" points="246.5,-473.7 246.5,-492.7 354.5,-492.7 354.5,-473.7 246.5,-473.7"/>
<polygon fill="none" stroke="#000000" points="246.5,-473.7 246.5,-492.7 354.5,-492.7 354.5,-473.7 246.5,-473.7"/>
<text text-anchor="start" x="249.5" y="-479.8" font-family="Helvetica,sans-Serif" font-size="11.00" fill="#000000">&lt; 3</text>
<polygon fill="#ffffff" stroke="transparent" points="354.5,-473.7 354.5,-492.7 409.5,-492.7 409.5,-473.7 354.5,-473.7"/>
<polygon fill="none" stroke="#000000" points="354.5,-473.7 354.5,-492.7 409.5,-492.7 409.5,-473.7 354.5,-473.7"/>
<text text-anchor="start" x="400.3862" y="-479.8" font-family="Helvetica,sans-Serif" font-size="11.00" fill="#000000"> &#160;</text>
<polygon fill="#ffffff" stroke="transparent" points="409.5,-473.7 409.5,-492.7 465.5,-492.7 465.5,-473.7 409.5,-473.7"/>
<polygon fill="none" stroke="#000000" points="409.5,-473.7 409.5,-492.7 465.5,-492.7 465.5,-473.7 409.5,-473.7"/>
<text text-anchor="start" x="456.3862" y="-479.8" font-family="Helvetica,sans-Serif" font-size="11.00" fill="#000000"> &#160;</text>
</a>
</g>
</g>
<!-- prison_configuration_audit&#45;&gt;policy -->
<g id="edge2" class="edge">
<title>prison_configuration_audit:w&#45;&gt;policy:e</title>
<path fill="none" stroke="#000000" stroke-dasharray="5,2" d="M231.8776,-502.8383C186.3812,-510.2808 177.5217,-551.7 124,-551.7"/>
<polygon fill="#000000" stroke="#000000" points="238.5241,-502.3209 246.7794,-505.2891 242.5121,-502.0105 246.5,-501.7 246.5,-501.7 246.5,-501.7 242.5121,-502.0105 246.2206,-498.1109 238.5241,-502.3209 238.5241,-502.3209"/>
<ellipse fill="none" stroke="#000000" cx="235.3338" cy="-502.5693" rx="3.2" ry="3.2"/>
</g>
<!-- audit_revision -->
<g id="node4" class="node">
<title>audit_revision</title>
<g id="a_node4"><a xlink:href="../../tables/audit_revision.html" xlink:title="audit_revision" target="_top">
<polygon fill="#ffffff" stroke="transparent" points="8,-368.2 8,-451.2 142,-451.2 142,-368.2 8,-368.2"/>
<polygon fill="#f5f5f5" stroke="transparent" points="8,-427.7 8,-450.7 142,-450.7 142,-427.7 8,-427.7"/>
<polygon fill="none" stroke="#000000" points="8,-427.7 8,-450.7 142,-450.7 142,-427.7 8,-427.7"/>
<text text-anchor="start" x="13" y="-436.3" font-family="Helvetica,sans-Serif" font-weight="bold" font-size="11.00" fill="#000000">audit_revision</text>
<text text-anchor="start" x="107.5219" y="-435.8" font-family="Helvetica,sans-Serif" font-size="11.00" fill="#000000">[table]</text>
<polygon fill="none" stroke="#000000" points="8,-405.7 8,-427.7 142,-427.7 142,-405.7 8,-405.7"/>
<image xlink:href="../../images/primaryKeys.png" width="11px" height="12px" preserveAspectRatio="xMinYMin meet" x="13" y="-422.7"/>
<text text-anchor="start" x="28" y="-412.8" font-family="Helvetica,sans-Serif" font-size="11.00" fill="#000000">id</text>
<polygon fill="none" stroke="#000000" points="8,-386.7 8,-405.7 142,-405.7 142,-386.7 8,-386.7"/>
<text text-anchor="start" x="11" y="-392.8" font-family="Helvetica,sans-Serif" font-size="11.00" fill="#000000">...</text>
<polygon fill="#ffffff" stroke="transparent" points="8,-367.7 8,-386.7 64,-386.7 64,-367.7 8,-367.7"/>
<polygon fill="none" stroke="#000000" points="8,-367.7 8,-386.7 64,-386.7 64,-367.7 8,-367.7"/>
<text text-anchor="start" x="11" y="-373.8" font-family="Helvetica,sans-Serif" font-size="11.00" fill="#000000"> &#160;</text>
<polygon fill="#ffffff" stroke="transparent" points="64,-367.7 64,-386.7 98,-386.7 98,-367.7 64,-367.7"/>
<polygon fill="none" stroke="#000000" points="64,-367.7 64,-386.7 98,-386.7 98,-367.7 64,-367.7"/>
<text text-anchor="start" x="88.8862" y="-373.8" font-family="Helvetica,sans-Serif" font-size="11.00" fill="#000000"> &#160;</text>
<polygon fill="#ffffff" stroke="transparent" points="98,-367.7 98,-386.7 142,-386.7 142,-367.7 98,-367.7"/>
<polygon fill="none" stroke="#000000" points="98,-367.7 98,-386.7 142,-386.7 142,-367.7 98,-367.7"/>
<text text-anchor="start" x="123.4053" y="-373.8" font-family="Helvetica,sans-Serif" font-size="11.00" fill="#000000">3 &gt;</text>
</a>
</g>
</g>
<!-- prison_configuration_audit&#45;&gt;audit_revision -->
<g id="edge3" class="edge">
<title>prison_configuration_audit:w&#45;&gt;audit_revision:e</title>
<path fill="none" stroke="#000000" d="M231.9623,-500.2655C211.1309,-495.6398 204.1336,-480.3849 183,-462.7 161.9971,-445.1244 169.3866,-416.7 142,-416.7"/>
<polygon fill="#000000" stroke="#000000" points="238.5387,-500.9144 246.1465,-505.2826 242.5193,-501.3072 246.5,-501.7 246.5,-501.7 246.5,-501.7 242.5193,-501.3072 246.8535,-498.1174 238.5387,-500.9144 238.5387,-500.9144"/>
<ellipse fill="none" stroke="#000000" cx="235.3541" cy="-500.6001" rx="3.2" ry="3.2"/>
</g>
<!-- staff_configuration -->
<g id="node5" class="node">
<title>staff_configuration</title>
<g id="a_node5"><a xlink:href="../../tables/staff_configuration.html" xlink:title="staff_configuration" target="_top">
<polygon fill="#ffffff" stroke="transparent" points="272,-638.2 272,-699.2 439,-699.2 439,-638.2 272,-638.2"/>
<polygon fill="#f5f5f5" stroke="transparent" points="272.5,-675.7 272.5,-698.7 439.5,-698.7 439.5,-675.7 272.5,-675.7"/>
<polygon fill="none" stroke="#000000" points="272.5,-675.7 272.5,-698.7 439.5,-698.7 439.5,-675.7 272.5,-675.7"/>
<text text-anchor="start" x="277.5" y="-684.3" font-family="Helvetica,sans-Serif" font-weight="bold" font-size="11.00" fill="#000000">staff_configuration</text>
<text text-anchor="start" x="405.0219" y="-683.8" font-family="Helvetica,sans-Serif" font-size="11.00" fill="#000000">[table]</text>
<polygon fill="none" stroke="#000000" points="272.5,-656.7 272.5,-675.7 439.5,-675.7 439.5,-656.7 272.5,-656.7"/>
<text text-anchor="start" x="275.5" y="-662.8" font-family="Helvetica,sans-Serif" font-size="11.00" fill="#000000">...</text>
<polygon fill="#ffffff" stroke="transparent" points="272.5,-637.7 272.5,-656.7 354.5,-656.7 354.5,-637.7 272.5,-637.7"/>
<polygon fill="none" stroke="#000000" points="272.5,-637.7 272.5,-656.7 354.5,-656.7 354.5,-637.7 272.5,-637.7"/>
<text text-anchor="start" x="275.5" y="-643.8" font-family="Helvetica,sans-Serif" font-size="11.00" fill="#000000">&lt; 2</text>
<polygon fill="#ffffff" stroke="transparent" points="354.5,-637.7 354.5,-656.7 396.5,-656.7 396.5,-637.7 354.5,-637.7"/>
<polygon fill="none" stroke="#000000" points="354.5,-637.7 354.5,-656.7 396.5,-656.7 396.5,-637.7 354.5,-637.7"/>
<text text-anchor="start" x="387.3862" y="-643.8" font-family="Helvetica,sans-Serif" font-size="11.00" fill="#000000"> &#160;</text>
<polygon fill="#ffffff" stroke="transparent" points="396.5,-637.7 396.5,-656.7 439.5,-656.7 439.5,-637.7 396.5,-637.7"/>
<polygon fill="none" stroke="#000000" points="396.5,-637.7 396.5,-656.7 439.5,-656.7 439.5,-637.7 396.5,-637.7"/>
<text text-anchor="start" x="430.3862" y="-643.8" font-family="Helvetica,sans-Serif" font-size="11.00" fill="#000000"> &#160;</text>
</a>
</g>
</g>
<!-- staff_configuration&#45;&gt;policy -->
<g id="edge4" class="edge">
<title>staff_configuration:w&#45;&gt;policy:e</title>
<path fill="none" stroke="#000000" d="M258.0774,-665.1826C226.0432,-662.6655 213.096,-650.8697 183,-627.7 149.1165,-601.6145 166.7615,-551.7 124,-551.7"/>
<polygon fill="#000000" stroke="#000000" points="264.5051,-665.4131 272.3709,-669.2977 268.5026,-665.5566 272.5,-665.7 272.5,-665.7 272.5,-665.7 268.5026,-665.5566 272.6291,-662.1023 264.5051,-665.4131 264.5051,-665.4131"/>
<ellipse fill="none" stroke="#000000" cx="261.3072" cy="-665.2984" rx="3.2" ry="3.2"/>
</g>
<!-- staff_configuration_audit -->
<g id="node6" class="node">
<title>staff_configuration_audit</title>
<g id="a_node6"><a xlink:href="../../tables/staff_configuration_audit.html" xlink:title="staff_configuration_audit" target="_top">
<polygon fill="#ffffff" stroke="transparent" points="191,-120.7 191,-452.7 520,-452.7 520,-120.7 191,-120.7"/>
<polygon fill="#f5f5f5" stroke="transparent" points="193.5,-427.7 193.5,-450.7 518.5,-450.7 518.5,-427.7 193.5,-427.7"/>
<polygon fill="none" stroke="#000000" points="193.5,-427.7 193.5,-450.7 518.5,-450.7 518.5,-427.7 193.5,-427.7"/>
<text text-anchor="start" x="198.5" y="-436.3" font-family="Helvetica,sans-Serif" font-weight="bold" font-size="11.00" fill="#000000">staff_configuration_audit</text>
<text text-anchor="start" x="483.5437" y="-435.8" font-family="Helvetica,sans-Serif" font-size="11.00" fill="#000000">[table]</text>
<polygon fill="none" stroke="#000000" points="193.5,-405.7 193.5,-427.7 424.5,-427.7 424.5,-405.7 193.5,-405.7"/>
<image xlink:href="../../images/primaryKeys.png" width="11px" height="12px" preserveAspectRatio="xMinYMin meet" x="198.5" y="-422.7"/>
<text text-anchor="start" x="213.5" y="-412.8" font-family="Helvetica,sans-Serif" font-size="11.00" fill="#000000">rev_id</text>
<polygon fill="none" stroke="#000000" points="424.5,-405.7 424.5,-427.7 518.5,-427.7 518.5,-405.7 424.5,-405.7"/>
<text text-anchor="start" x="427.5" y="-413.4" font-family="Helvetica,sans-Serif" font-size="11.00" fill="#000000">int8[19]</text>
<polygon fill="none" stroke="#000000" points="193.5,-383.7 193.5,-405.7 424.5,-405.7 424.5,-383.7 193.5,-383.7"/>
<text text-anchor="start" x="213.5" y="-390.8" font-family="Helvetica,sans-Serif" font-size="11.00" fill="#000000">rev_type</text>
<polygon fill="none" stroke="#000000" points="424.5,-383.7 424.5,-405.7 518.5,-405.7 518.5,-383.7 424.5,-383.7"/>
<text text-anchor="start" x="427.5" y="-391.4" font-family="Helvetica,sans-Serif" font-size="11.00" fill="#000000">int2[5]</text>
<polygon fill="none" stroke="#000000" points="193.5,-361.7 193.5,-383.7 424.5,-383.7 424.5,-361.7 193.5,-361.7"/>
<image xlink:href="../../images/primaryKeys.png" width="11px" height="12px" preserveAspectRatio="xMinYMin meet" x="198.5" y="-378.7"/>
<text text-anchor="start" x="213.5" y="-368.8" font-family="Helvetica,sans-Serif" font-size="11.00" fill="#000000">id</text>
<polygon fill="none" stroke="#000000" points="424.5,-361.7 424.5,-383.7 518.5,-383.7 518.5,-361.7 424.5,-361.7"/>
<text text-anchor="start" x="427.4758" y="-369.4" font-family="Helvetica,sans-Serif" font-size="11.00" fill="#000000">uuid[2147483647]</text>
<polygon fill="none" stroke="#000000" points="193.5,-339.7 193.5,-361.7 424.5,-361.7 424.5,-339.7 193.5,-339.7"/>
<text text-anchor="start" x="213.5" y="-346.8" font-family="Helvetica,sans-Serif" font-size="11.00" fill="#000000">staff_id</text>
<polygon fill="none" stroke="#000000" points="424.5,-339.7 424.5,-361.7 518.5,-361.7 518.5,-339.7 424.5,-339.7"/>
<text text-anchor="start" x="427.5" y="-347.4" font-family="Helvetica,sans-Serif" font-size="11.00" fill="#000000">int8[19]</text>
<polygon fill="none" stroke="#000000" points="193.5,-317.7 193.5,-339.7 424.5,-339.7 424.5,-317.7 193.5,-317.7"/>
<text text-anchor="start" x="213.5" y="-324.8" font-family="Helvetica,sans-Serif" font-size="11.00" fill="#000000">capacity</text>
<polygon fill="none" stroke="#000000" points="424.5,-317.7 424.5,-339.7 518.5,-339.7 518.5,-317.7 424.5,-317.7"/>
<text text-anchor="start" x="427.5" y="-325.4" font-family="Helvetica,sans-Serif" font-size="11.00" fill="#000000">int4[10]</text>
<polygon fill="none" stroke="#000000" points="193.5,-295.7 193.5,-317.7 424.5,-317.7 424.5,-295.7 193.5,-295.7"/>
<text text-anchor="start" x="213.5" y="-302.8" font-family="Helvetica,sans-Serif" font-size="11.00" fill="#000000">reactivate_on</text>
<polygon fill="none" stroke="#000000" points="424.5,-295.7 424.5,-317.7 518.5,-317.7 518.5,-295.7 424.5,-295.7"/>
<text text-anchor="start" x="427.5" y="-303.4" font-family="Helvetica,sans-Serif" font-size="11.00" fill="#000000">date[13]</text>
<polygon fill="none" stroke="#000000" points="193.5,-273.7 193.5,-295.7 424.5,-295.7 424.5,-273.7 193.5,-273.7"/>
<text text-anchor="start" x="213.5" y="-280.8" font-family="Helvetica,sans-Serif" font-size="11.00" fill="#000000">status_id</text>
<polygon fill="none" stroke="#000000" points="424.5,-273.7 424.5,-295.7 518.5,-295.7 518.5,-273.7 424.5,-273.7"/>
<text text-anchor="start" x="427.5" y="-281.4" font-family="Helvetica,sans-Serif" font-size="11.00" fill="#000000">int8[19]</text>
<polygon fill="none" stroke="#000000" points="193.5,-251.7 193.5,-273.7 424.5,-273.7 424.5,-251.7 193.5,-251.7"/>
<text text-anchor="start" x="213.5" y="-258.8" font-family="Helvetica,sans-Serif" font-size="11.00" fill="#000000">allow_auto_allocation</text>
<polygon fill="none" stroke="#000000" points="424.5,-251.7 424.5,-273.7 518.5,-273.7 518.5,-251.7 424.5,-251.7"/>
<text text-anchor="start" x="427.5" y="-259.4" font-family="Helvetica,sans-Serif" font-size="11.00" fill="#000000">bool[1]</text>
<polygon fill="none" stroke="#000000" points="193.5,-229.7 193.5,-251.7 424.5,-251.7 424.5,-229.7 193.5,-229.7"/>
<image xlink:href="../../images/foreignKeys.png" width="11px" height="12px" preserveAspectRatio="xMinYMin meet" x="198.5" y="-246.7"/>
<text text-anchor="start" x="213.5" y="-236.8" font-family="Helvetica,sans-Serif" font-size="11.00" fill="#000000">policy_code</text>
<polygon fill="none" stroke="#000000" points="424.5,-229.7 424.5,-251.7 518.5,-251.7 518.5,-229.7 424.5,-229.7"/>
<text text-anchor="start" x="427.5" y="-237.4" font-family="Helvetica,sans-Serif" font-size="11.00" fill="#000000">varchar[16]</text>
<polygon fill="none" stroke="#000000" points="193.5,-207.7 193.5,-229.7 424.5,-229.7 424.5,-207.7 193.5,-207.7"/>
<text text-anchor="start" x="213.5" y="-214.8" font-family="Helvetica,sans-Serif" font-size="11.00" fill="#000000">capacity_modified</text>
<polygon fill="none" stroke="#000000" points="424.5,-207.7 424.5,-229.7 518.5,-229.7 518.5,-207.7 424.5,-207.7"/>
<text text-anchor="start" x="427.5" y="-215.4" font-family="Helvetica,sans-Serif" font-size="11.00" fill="#000000">bool[1]</text>
<polygon fill="none" stroke="#000000" points="193.5,-185.7 193.5,-207.7 424.5,-207.7 424.5,-185.7 193.5,-185.7"/>
<text text-anchor="start" x="213.5" y="-192.8" font-family="Helvetica,sans-Serif" font-size="11.00" fill="#000000">reactivate_on_modified</text>
<polygon fill="none" stroke="#000000" points="424.5,-185.7 424.5,-207.7 518.5,-207.7 518.5,-185.7 424.5,-185.7"/>
<text text-anchor="start" x="427.5" y="-193.4" font-family="Helvetica,sans-Serif" font-size="11.00" fill="#000000">bool[1]</text>
<polygon fill="none" stroke="#000000" points="193.5,-163.7 193.5,-185.7 424.5,-185.7 424.5,-163.7 193.5,-163.7"/>
<text text-anchor="start" x="213.5" y="-170.8" font-family="Helvetica,sans-Serif" font-size="11.00" fill="#000000">status_modified</text>
<polygon fill="none" stroke="#000000" points="424.5,-163.7 424.5,-185.7 518.5,-185.7 518.5,-163.7 424.5,-163.7"/>
<text text-anchor="start" x="427.5" y="-171.4" font-family="Helvetica,sans-Serif" font-size="11.00" fill="#000000">bool[1]</text>
<polygon fill="none" stroke="#000000" points="193.5,-141.7 193.5,-163.7 424.5,-163.7 424.5,-141.7 193.5,-141.7"/>
<text text-anchor="start" x="213.5" y="-148.8" font-family="Helvetica,sans-Serif" font-size="11.00" fill="#000000">allow_auto_allocation_modified</text>
<polygon fill="none" stroke="#000000" points="424.5,-141.7 424.5,-163.7 518.5,-163.7 518.5,-141.7 424.5,-141.7"/>
<text text-anchor="start" x="427.5" y="-149.4" font-family="Helvetica,sans-Serif" font-size="11.00" fill="#000000">bool[1]</text>
<polygon fill="#ffffff" stroke="transparent" points="193.5,-122.7 193.5,-141.7 313.5,-141.7 313.5,-122.7 193.5,-122.7"/>
<polygon fill="none" stroke="#000000" points="193.5,-122.7 193.5,-141.7 313.5,-141.7 313.5,-122.7 193.5,-122.7"/>
<text text-anchor="start" x="196.5" y="-128.8" font-family="Helvetica,sans-Serif" font-size="11.00" fill="#000000">&lt; 2</text>
<polygon fill="#ffffff" stroke="transparent" points="313.5,-122.7 313.5,-141.7 424.5,-141.7 424.5,-122.7 313.5,-122.7"/>
<polygon fill="none" stroke="#000000" points="313.5,-122.7 313.5,-141.7 424.5,-141.7 424.5,-122.7 313.5,-122.7"/>
<text text-anchor="start" x="415.3862" y="-128.8" font-family="Helvetica,sans-Serif" font-size="11.00" fill="#000000"> &#160;</text>
<polygon fill="#ffffff" stroke="transparent" points="424.5,-122.7 424.5,-141.7 518.5,-141.7 518.5,-122.7 424.5,-122.7"/>
<polygon fill="none" stroke="#000000" points="424.5,-122.7 424.5,-141.7 518.5,-141.7 518.5,-122.7 424.5,-122.7"/>
<text text-anchor="start" x="499.9053" y="-128.8" font-family="Helvetica,sans-Serif" font-size="11.00" fill="#000000">0 &gt;</text>
<polygon fill="none" stroke="#000000" stroke-width="2" points="192,-121.7 192,-451.7 519,-451.7 519,-121.7 192,-121.7"/>
</a>
</g>
</g>
<!-- staff_configuration_audit&#45;&gt;policy -->
<g id="edge5" class="edge">
<title>staff_configuration_audit:w&#45;&gt;policy:e</title>
<path fill="none" stroke="#000000" stroke-dasharray="5,2" d="M179.6793,-245.8385C132.8436,-286.2744 189.4216,-551.7 124,-551.7"/>
<polygon fill="#000000" stroke="#000000" points="186.0015,-243.488 194.7546,-244.0743 189.7508,-242.094 193.5,-240.7 193.5,-240.7 193.5,-240.7 189.7508,-242.094 192.2454,-237.3257 186.0015,-243.488 186.0015,-243.488"/>
<ellipse fill="none" stroke="#000000" cx="183.0021" cy="-244.6032" rx="3.2" ry="3.2"/>
</g>
<!-- staff_configuration_audit&#45;&gt;audit_revision -->
<g id="edge6" class="edge">
<title>staff_configuration_audit:w&#45;&gt;audit_revision:e</title>
<path fill="none" stroke="#000000" d="M179.0156,-416.7C166.6771,-416.7 159.1667,-416.7 142,-416.7"/>
<polygon fill="#000000" stroke="#000000" points="185.5,-416.7001 193.5,-420.3 189.5,-416.7 193.5,-416.7 193.5,-416.7 193.5,-416.7 189.5,-416.7 193.5,-413.1 185.5,-416.7001 185.5,-416.7001"/>
<ellipse fill="none" stroke="#000000" cx="182.3" cy="-416.7001" rx="3.2" ry="3.2"/>
</g>
<!-- staff_role -->
<g id="node7" class="node">
<title>staff_role</title>
<g id="a_node7"><a xlink:href="../../tables/staff_role.html" xlink:title="staff_role" target="_top">
<polygon fill="#ffffff" stroke="transparent" points="304.5,-556.2 304.5,-617.2 406.5,-617.2 406.5,-556.2 304.5,-556.2"/>
<polygon fill="#f5f5f5" stroke="transparent" points="304.5,-593.7 304.5,-616.7 406.5,-616.7 406.5,-593.7 304.5,-593.7"/>
<polygon fill="none" stroke="#000000" points="304.5,-593.7 304.5,-616.7 406.5,-616.7 406.5,-593.7 304.5,-593.7"/>
<text text-anchor="start" x="309.5" y="-602.3" font-family="Helvetica,sans-Serif" font-weight="bold" font-size="11.00" fill="#000000">staff_role</text>
<text text-anchor="start" x="372.0219" y="-601.8" font-family="Helvetica,sans-Serif" font-size="11.00" fill="#000000">[table]</text>
<polygon fill="none" stroke="#000000" points="304.5,-574.7 304.5,-593.7 406.5,-593.7 406.5,-574.7 304.5,-574.7"/>
<text text-anchor="start" x="307.5" y="-580.8" font-family="Helvetica,sans-Serif" font-size="11.00" fill="#000000">...</text>
<polygon fill="#ffffff" stroke="transparent" points="304.5,-555.7 304.5,-574.7 353.5,-574.7 353.5,-555.7 304.5,-555.7"/>
<polygon fill="none" stroke="#000000" points="304.5,-555.7 304.5,-574.7 353.5,-574.7 353.5,-555.7 304.5,-555.7"/>
<text text-anchor="start" x="307.5" y="-561.8" font-family="Helvetica,sans-Serif" font-size="11.00" fill="#000000">&lt; 2</text>
<polygon fill="#ffffff" stroke="transparent" points="353.5,-555.7 353.5,-574.7 379.5,-574.7 379.5,-555.7 353.5,-555.7"/>
<polygon fill="none" stroke="#000000" points="353.5,-555.7 353.5,-574.7 379.5,-574.7 379.5,-555.7 353.5,-555.7"/>
<text text-anchor="start" x="370.3862" y="-561.8" font-family="Helvetica,sans-Serif" font-size="11.00" fill="#000000"> &#160;</text>
<polygon fill="#ffffff" stroke="transparent" points="379.5,-555.7 379.5,-574.7 406.5,-574.7 406.5,-555.7 379.5,-555.7"/>
<polygon fill="none" stroke="#000000" points="379.5,-555.7 379.5,-574.7 406.5,-574.7 406.5,-555.7 379.5,-555.7"/>
<text text-anchor="start" x="397.3862" y="-561.8" font-family="Helvetica,sans-Serif" font-size="11.00" fill="#000000"> &#160;</text>
</a>
</g>
</g>
<!-- staff_role&#45;&gt;policy -->
<g id="edge7" class="edge">
<title>staff_role:w&#45;&gt;policy:e</title>
<path fill="none" stroke="#000000" stroke-dasharray="5,2" d="M289.9416,-583.3406C220.5829,-579.825 200.3811,-551.7 124,-551.7"/>
<polygon fill="#000000" stroke="#000000" points="296.5024,-583.5025 304.4111,-587.2989 300.5012,-583.6013 304.5,-583.7 304.5,-583.7 304.5,-583.7 300.5012,-583.6013 304.5889,-580.1011 296.5024,-583.5025 296.5024,-583.5025"/>
<ellipse fill="none" stroke="#000000" cx="293.3034" cy="-583.4235" rx="3.2" ry="3.2"/>
</g>
<!-- staff_role_audit -->
<g id="node8" class="node">
<title>staff_role_audit</title>
<g id="a_node8"><a xlink:href="../../tables/staff_role_audit.html" xlink:title="staff_role_audit" target="_top">
<polygon fill="#ffffff" stroke="transparent" points="284,-38.2 284,-99.2 427,-99.2 427,-38.2 284,-38.2"/>
<polygon fill="#f5f5f5" stroke="transparent" points="284.5,-75.7 284.5,-98.7 427.5,-98.7 427.5,-75.7 284.5,-75.7"/>
<polygon fill="none" stroke="#000000" points="284.5,-75.7 284.5,-98.7 427.5,-98.7 427.5,-75.7 284.5,-75.7"/>
<text text-anchor="start" x="289.5" y="-84.3" font-family="Helvetica,sans-Serif" font-weight="bold" font-size="11.00" fill="#000000">staff_role_audit</text>
<text text-anchor="start" x="393.0219" y="-83.8" font-family="Helvetica,sans-Serif" font-size="11.00" fill="#000000">[table]</text>
<polygon fill="none" stroke="#000000" points="284.5,-56.7 284.5,-75.7 427.5,-75.7 427.5,-56.7 284.5,-56.7"/>
<text text-anchor="start" x="287.5" y="-62.8" font-family="Helvetica,sans-Serif" font-size="11.00" fill="#000000">...</text>
<polygon fill="#ffffff" stroke="transparent" points="284.5,-37.7 284.5,-56.7 354.5,-56.7 354.5,-37.7 284.5,-37.7"/>
<polygon fill="none" stroke="#000000" points="284.5,-37.7 284.5,-56.7 354.5,-56.7 354.5,-37.7 284.5,-37.7"/>
<text text-anchor="start" x="287.5" y="-43.8" font-family="Helvetica,sans-Serif" font-size="11.00" fill="#000000">&lt; 3</text>
<polygon fill="#ffffff" stroke="transparent" points="354.5,-37.7 354.5,-56.7 390.5,-56.7 390.5,-37.7 354.5,-37.7"/>
<polygon fill="none" stroke="#000000" points="354.5,-37.7 354.5,-56.7 390.5,-56.7 390.5,-37.7 354.5,-37.7"/>
<text text-anchor="start" x="381.3862" y="-43.8" font-family="Helvetica,sans-Serif" font-size="11.00" fill="#000000"> &#160;</text>
<polygon fill="#ffffff" stroke="transparent" points="390.5,-37.7 390.5,-56.7 427.5,-56.7 427.5,-37.7 390.5,-37.7"/>
<polygon fill="none" stroke="#000000" points="390.5,-37.7 390.5,-56.7 427.5,-56.7 427.5,-37.7 390.5,-37.7"/>
<text text-anchor="start" x="418.3862" y="-43.8" font-family="Helvetica,sans-Serif" font-size="11.00" fill="#000000"> &#160;</text>
</a>
</g>
</g>
<!-- staff_role_audit&#45;&gt;policy -->
<g id="edge8" class="edge">
<title>staff_role_audit:w&#45;&gt;policy:e</title>
<path fill="none" stroke="#000000" stroke-dasharray="5,2" d="M270.0231,-65.8699C230.4175,-66.9514 208.8831,-74.0221 183,-109.7 124.8109,-189.9093 223.0934,-551.7 124,-551.7"/>
<polygon fill="#000000" stroke="#000000" points="276.5006,-65.7939 284.5423,-69.2998 280.5003,-65.747 284.5,-65.7 284.5,-65.7 284.5,-65.7 280.5003,-65.747 284.4577,-62.1002 276.5006,-65.7939 276.5006,-65.7939"/>
<ellipse fill="none" stroke="#000000" cx="273.3008" cy="-65.8315" rx="3.2" ry="3.2"/>
</g>
<!-- staff_role_audit&#45;&gt;audit_revision -->
<g id="edge9" class="edge">
<title>staff_role_audit:w&#45;&gt;audit_revision:e</title>
<path fill="none" stroke="#000000" d="M270.0454,-65.8865C230.5616,-67.0581 209.579,-74.5374 183,-109.7 141.4967,-164.6068 210.8279,-416.7 142,-416.7"/>
<polygon fill="#000000" stroke="#000000" points="276.5007,-65.8033 284.5465,-69.2997 280.5003,-65.7516 284.5,-65.7 284.5,-65.7 284.5,-65.7 280.5003,-65.7516 284.4535,-62.1003 276.5007,-65.8033 276.5007,-65.8033"/>
<ellipse fill="none" stroke="#000000" cx="273.3009" cy="-65.8446" rx="3.2" ry="3.2"/>
</g>
</g>
</svg>
