<?xml version="1.0" encoding="UTF-8" standalone="no"?>
<!DOCTYPE svg PUBLIC "-//W3C//DTD SVG 1.1//EN"
 "http://www.w3.org/Graphics/SVG/1.1/DTD/svg11.dtd">
<!-- Generated by graphviz version 2.40.1 (20161225.0304)
 -->
<!-- Title: twoDegreesRelationshipsDiagramImplied Pages: 1 -->
<svg width="664pt" height="1329pt"
 viewBox="0.00 0.00 664.00 1329.20" xmlns="http://www.w3.org/2000/svg" xmlns:xlink="http://www.w3.org/1999/xlink">
<g id="graph0" class="graph" transform="scale(1 1) rotate(0) translate(4 1325.2)">
<title>twoDegreesRelationshipsDiagramImplied</title>
<polygon fill="#ffffff" stroke="transparent" points="-4,4 -4,-1325.2 660,-1325.2 660,4 -4,4"/>
<text text-anchor="middle" x="72.4936" y="-7.3" font-family="Helvetica,sans-Serif" font-size="11.00" fill="#000000">Generated by SchemaSpy</text>
<!-- allocation -->
<g id="node1" class="node">
<title>allocation</title>
<g id="a_node1"><a xlink:href="../../tables/allocation.html" xlink:title="allocation" target="_top">
<polygon fill="#ffffff" stroke="transparent" points="246,-1256.2 246,-1317.2 351,-1317.2 351,-1256.2 246,-1256.2"/>
<polygon fill="#f5f5f5" stroke="transparent" points="246.5,-1293.7 246.5,-1316.7 351.5,-1316.7 351.5,-1293.7 246.5,-1293.7"/>
<polygon fill="none" stroke="#000000" points="246.5,-1293.7 246.5,-1316.7 351.5,-1316.7 351.5,-1293.7 246.5,-1293.7"/>
<text text-anchor="start" x="251.5" y="-1302.3" font-family="Helvetica,sans-Serif" font-weight="bold" font-size="11.00" fill="#000000">allocation</text>
<text text-anchor="start" x="317.0219" y="-1301.8" font-family="Helvetica,sans-Serif" font-size="11.00" fill="#000000">[table]</text>
<polygon fill="none" stroke="#000000" points="246.5,-1274.7 246.5,-1293.7 351.5,-1293.7 351.5,-1274.7 246.5,-1274.7"/>
<text text-anchor="start" x="249.5" y="-1280.8" font-family="Helvetica,sans-Serif" font-size="11.00" fill="#000000">...</text>
<polygon fill="#ffffff" stroke="transparent" points="246.5,-1255.7 246.5,-1274.7 297.5,-1274.7 297.5,-1255.7 246.5,-1255.7"/>
<polygon fill="none" stroke="#000000" points="246.5,-1255.7 246.5,-1274.7 297.5,-1274.7 297.5,-1255.7 246.5,-1255.7"/>
<text text-anchor="start" x="249.5" y="-1261.8" font-family="Helvetica,sans-Serif" font-size="11.00" fill="#000000">&lt; 3</text>
<polygon fill="#ffffff" stroke="transparent" points="297.5,-1255.7 297.5,-1274.7 324.5,-1274.7 324.5,-1255.7 297.5,-1255.7"/>
<polygon fill="none" stroke="#000000" points="297.5,-1255.7 297.5,-1274.7 324.5,-1274.7 324.5,-1255.7 297.5,-1255.7"/>
<text text-anchor="start" x="315.3862" y="-1261.8" font-family="Helvetica,sans-Serif" font-size="11.00" fill="#000000"> &#160;</text>
<polygon fill="#ffffff" stroke="transparent" points="324.5,-1255.7 324.5,-1274.7 351.5,-1274.7 351.5,-1255.7 324.5,-1255.7"/>
<polygon fill="none" stroke="#000000" points="324.5,-1255.7 324.5,-1274.7 351.5,-1274.7 351.5,-1255.7 324.5,-1255.7"/>
<text text-anchor="start" x="342.3862" y="-1261.8" font-family="Helvetica,sans-Serif" font-size="11.00" fill="#000000"> &#160;</text>
</a>
</g>
</g>
<!-- policy -->
<g id="node2" class="node">
<title>policy</title>
<g id="a_node2"><a xlink:href="../../tables/policy.html" xlink:title="policy" target="_top">
<polygon fill="#ffffff" stroke="transparent" points="8,-756.2 8,-839.2 105,-839.2 105,-756.2 8,-756.2"/>
<polygon fill="#f5f5f5" stroke="transparent" points="8.5,-815.7 8.5,-838.7 105.5,-838.7 105.5,-815.7 8.5,-815.7"/>
<polygon fill="none" stroke="#000000" points="8.5,-815.7 8.5,-838.7 105.5,-838.7 105.5,-815.7 8.5,-815.7"/>
<text text-anchor="start" x="13.5" y="-824.3" font-family="Helvetica,sans-Serif" font-weight="bold" font-size="11.00" fill="#000000">policy</text>
<text text-anchor="start" x="70.5437" y="-823.8" font-family="Helvetica,sans-Serif" font-size="11.00" fill="#000000">[table]</text>
<polygon fill="none" stroke="#000000" points="8.5,-793.7 8.5,-815.7 105.5,-815.7 105.5,-793.7 8.5,-793.7"/>
<image xlink:href="../../images/primaryKeys.png" width="11px" height="12px" preserveAspectRatio="xMinYMin meet" x="13.5" y="-810.7"/>
<text text-anchor="start" x="28.5" y="-800.8" font-family="Helvetica,sans-Serif" font-size="11.00" fill="#000000">code</text>
<polygon fill="none" stroke="#000000" points="8.5,-774.7 8.5,-793.7 105.5,-793.7 105.5,-774.7 8.5,-774.7"/>
<text text-anchor="start" x="11.5" y="-780.8" font-family="Helvetica,sans-Serif" font-size="11.00" fill="#000000">...</text>
<polygon fill="#ffffff" stroke="transparent" points="8.5,-755.7 8.5,-774.7 43.5,-774.7 43.5,-755.7 8.5,-755.7"/>
<polygon fill="none" stroke="#000000" points="8.5,-755.7 8.5,-774.7 43.5,-774.7 43.5,-755.7 8.5,-755.7"/>
<text text-anchor="start" x="11.5" y="-761.8" font-family="Helvetica,sans-Serif" font-size="11.00" fill="#000000"> &#160;</text>
<polygon fill="#ffffff" stroke="transparent" points="43.5,-755.7 43.5,-774.7 66.5,-774.7 66.5,-755.7 43.5,-755.7"/>
<polygon fill="none" stroke="#000000" points="43.5,-755.7 43.5,-774.7 66.5,-774.7 66.5,-755.7 43.5,-755.7"/>
<text text-anchor="start" x="57.3862" y="-761.8" font-family="Helvetica,sans-Serif" font-size="11.00" fill="#000000"> &#160;</text>
<polygon fill="#ffffff" stroke="transparent" points="66.5,-755.7 66.5,-774.7 105.5,-774.7 105.5,-755.7 66.5,-755.7"/>
<polygon fill="none" stroke="#000000" points="66.5,-755.7 66.5,-774.7 105.5,-774.7 105.5,-755.7 66.5,-755.7"/>
<text text-anchor="start" x="80.7904" y="-761.8" font-family="Helvetica,sans-Serif" font-size="11.00" fill="#000000">14 &gt;</text>
</a>
</g>
</g>
<!-- allocation&#45;&gt;policy -->
<g id="edge1" class="edge">
<title>allocation:w&#45;&gt;policy:e</title>
<path fill="none" stroke="#000000" d="M231.903,-1283.653C193.5684,-1283.262 171.81,-1279.6203 146,-1245.7 116.2038,-1206.5409 154.7062,-804.7 105.5,-804.7"/>
<polygon fill="#000000" stroke="#000000" points="238.5,-1283.6742 246.4884,-1287.3 242.5,-1283.6871 246.5,-1283.7 246.5,-1283.7 246.5,-1283.7 242.5,-1283.6871 246.5116,-1280.1 238.5,-1283.6742 238.5,-1283.6742"/>
<ellipse fill="none" stroke="#000000" cx="235.3001" cy="-1283.6638" rx="3.2" ry="3.2"/>
</g>
<!-- allocation_audit -->
<g id="node3" class="node">
<title>allocation_audit</title>
<g id="a_node3"><a xlink:href="../../tables/allocation_audit.html" xlink:title="allocation_audit" target="_top">
<polygon fill="#ffffff" stroke="transparent" points="225.5,-1174.2 225.5,-1235.2 371.5,-1235.2 371.5,-1174.2 225.5,-1174.2"/>
<polygon fill="#f5f5f5" stroke="transparent" points="225.5,-1211.7 225.5,-1234.7 371.5,-1234.7 371.5,-1211.7 225.5,-1211.7"/>
<polygon fill="none" stroke="#000000" points="225.5,-1211.7 225.5,-1234.7 371.5,-1234.7 371.5,-1211.7 225.5,-1211.7"/>
<text text-anchor="start" x="230.5" y="-1220.3" font-family="Helvetica,sans-Serif" font-weight="bold" font-size="11.00" fill="#000000">allocation_audit</text>
<text text-anchor="start" x="337.0219" y="-1219.8" font-family="Helvetica,sans-Serif" font-size="11.00" fill="#000000">[table]</text>
<polygon fill="none" stroke="#000000" points="225.5,-1192.7 225.5,-1211.7 371.5,-1211.7 371.5,-1192.7 225.5,-1192.7"/>
<text text-anchor="start" x="228.5" y="-1198.8" font-family="Helvetica,sans-Serif" font-size="11.00" fill="#000000">...</text>
<polygon fill="#ffffff" stroke="transparent" points="225.5,-1173.7 225.5,-1192.7 296.5,-1192.7 296.5,-1173.7 225.5,-1173.7"/>
<polygon fill="none" stroke="#000000" points="225.5,-1173.7 225.5,-1192.7 296.5,-1192.7 296.5,-1173.7 225.5,-1173.7"/>
<text text-anchor="start" x="228.5" y="-1179.8" font-family="Helvetica,sans-Serif" font-size="11.00" fill="#000000">&lt; 2</text>
<polygon fill="#ffffff" stroke="transparent" points="296.5,-1173.7 296.5,-1192.7 333.5,-1192.7 333.5,-1173.7 296.5,-1173.7"/>
<polygon fill="none" stroke="#000000" points="296.5,-1173.7 296.5,-1192.7 333.5,-1192.7 333.5,-1173.7 296.5,-1173.7"/>
<text text-anchor="start" x="324.3862" y="-1179.8" font-family="Helvetica,sans-Serif" font-size="11.00" fill="#000000"> &#160;</text>
<polygon fill="#ffffff" stroke="transparent" points="333.5,-1173.7 333.5,-1192.7 371.5,-1192.7 371.5,-1173.7 333.5,-1173.7"/>
<polygon fill="none" stroke="#000000" points="333.5,-1173.7 333.5,-1192.7 371.5,-1192.7 371.5,-1173.7 333.5,-1173.7"/>
<text text-anchor="start" x="362.3862" y="-1179.8" font-family="Helvetica,sans-Serif" font-size="11.00" fill="#000000"> &#160;</text>
</a>
</g>
</g>
<!-- allocation_audit&#45;&gt;policy -->
<g id="edge2" class="edge">
<title>allocation_audit:w&#45;&gt;policy:e</title>
<path fill="none" stroke="#000000" stroke-dasharray="5,2" d="M210.9735,-1201.3313C181.5659,-1199.6256 165.6945,-1191.3672 146,-1163.7 99.4421,-1098.2947 185.7838,-804.7 105.5,-804.7"/>
<polygon fill="#000000" stroke="#000000" points="217.5026,-1201.4969 225.4086,-1205.2988 221.5013,-1201.5985 225.5,-1201.7 225.5,-1201.7 225.5,-1201.7 221.5013,-1201.5985 225.5914,-1198.1012 217.5026,-1201.4969 217.5026,-1201.4969"/>
<ellipse fill="none" stroke="#000000" cx="214.3036" cy="-1201.4157" rx="3.2" ry="3.2"/>
</g>
<!-- case_note_type_recorded_event_type -->
<g id="node4" class="node">
<title>case_note_type_recorded_event_type</title>
<g id="a_node4"><a xlink:href="../../tables/case_note_type_recorded_event_type.html" xlink:title="case_note_type_recorded_event_type" target="_top">
<polygon fill="#ffffff" stroke="transparent" points="154,-1092.2 154,-1153.2 443,-1153.2 443,-1092.2 154,-1092.2"/>
<polygon fill="#f5f5f5" stroke="transparent" points="154.5,-1129.7 154.5,-1152.7 443.5,-1152.7 443.5,-1129.7 154.5,-1129.7"/>
<polygon fill="none" stroke="#000000" points="154.5,-1129.7 154.5,-1152.7 443.5,-1152.7 443.5,-1129.7 154.5,-1129.7"/>
<text text-anchor="start" x="159.5" y="-1138.3" font-family="Helvetica,sans-Serif" font-weight="bold" font-size="11.00" fill="#000000">case_note_type_recorded_event_type</text>
<text text-anchor="start" x="409.0219" y="-1137.8" font-family="Helvetica,sans-Serif" font-size="11.00" fill="#000000">[table]</text>
<polygon fill="none" stroke="#000000" points="154.5,-1110.7 154.5,-1129.7 443.5,-1129.7 443.5,-1110.7 154.5,-1110.7"/>
<text text-anchor="start" x="157.5" y="-1116.8" font-family="Helvetica,sans-Serif" font-size="11.00" fill="#000000">...</text>
<polygon fill="#ffffff" stroke="transparent" points="154.5,-1091.7 154.5,-1110.7 297.5,-1110.7 297.5,-1091.7 154.5,-1091.7"/>
<polygon fill="none" stroke="#000000" points="154.5,-1091.7 154.5,-1110.7 297.5,-1110.7 297.5,-1091.7 154.5,-1091.7"/>
<text text-anchor="start" x="157.5" y="-1097.8" font-family="Helvetica,sans-Serif" font-size="11.00" fill="#000000">&lt; 1</text>
<polygon fill="#ffffff" stroke="transparent" points="297.5,-1091.7 297.5,-1110.7 370.5,-1110.7 370.5,-1091.7 297.5,-1091.7"/>
<polygon fill="none" stroke="#000000" points="297.5,-1091.7 297.5,-1110.7 370.5,-1110.7 370.5,-1091.7 297.5,-1091.7"/>
<text text-anchor="start" x="361.3862" y="-1097.8" font-family="Helvetica,sans-Serif" font-size="11.00" fill="#000000"> &#160;</text>
<polygon fill="#ffffff" stroke="transparent" points="370.5,-1091.7 370.5,-1110.7 443.5,-1110.7 443.5,-1091.7 370.5,-1091.7"/>
<polygon fill="none" stroke="#000000" points="370.5,-1091.7 370.5,-1110.7 443.5,-1110.7 443.5,-1091.7 370.5,-1091.7"/>
<text text-anchor="start" x="434.3862" y="-1097.8" font-family="Helvetica,sans-Serif" font-size="11.00" fill="#000000"> &#160;</text>
</a>
</g>
</g>
<!-- case_note_type_recorded_event_type&#45;&gt;policy -->
<g id="edge3" class="edge">
<title>case_note_type_recorded_event_type:w&#45;&gt;policy:e</title>
<path fill="none" stroke="#000000" stroke-dasharray="5,2" d="M141.0134,-1114.4954C96.8291,-1073.5394 170.9457,-804.7 105.5,-804.7"/>
<polygon fill="#000000" stroke="#000000" points="147.0365,-1116.8197 153.2039,-1123.0586 150.7682,-1118.2599 154.5,-1119.7 154.5,-1119.7 154.5,-1119.7 150.7682,-1118.2599 155.7961,-1116.3414 147.0365,-1116.8197 147.0365,-1116.8197"/>
<ellipse fill="none" stroke="#000000" cx="144.0511" cy="-1115.6676" rx="3.2" ry="3.2"/>
</g>
<!-- prison_configuration -->
<g id="node5" class="node">
<title>prison_configuration</title>
<g id="a_node5"><a xlink:href="../../tables/prison_configuration.html" xlink:title="prison_configuration" target="_top">
<polygon fill="#ffffff" stroke="transparent" points="209.5,-1010.2 209.5,-1071.2 387.5,-1071.2 387.5,-1010.2 209.5,-1010.2"/>
<polygon fill="#f5f5f5" stroke="transparent" points="209.5,-1047.7 209.5,-1070.7 387.5,-1070.7 387.5,-1047.7 209.5,-1047.7"/>
<polygon fill="none" stroke="#000000" points="209.5,-1047.7 209.5,-1070.7 387.5,-1070.7 387.5,-1047.7 209.5,-1047.7"/>
<text text-anchor="start" x="214.5" y="-1056.3" font-family="Helvetica,sans-Serif" font-weight="bold" font-size="11.00" fill="#000000">prison_configuration</text>
<text text-anchor="start" x="353.0219" y="-1055.8" font-family="Helvetica,sans-Serif" font-size="11.00" fill="#000000">[table]</text>
<polygon fill="none" stroke="#000000" points="209.5,-1028.7 209.5,-1047.7 387.5,-1047.7 387.5,-1028.7 209.5,-1028.7"/>
<text text-anchor="start" x="212.5" y="-1034.8" font-family="Helvetica,sans-Serif" font-size="11.00" fill="#000000">...</text>
<polygon fill="#ffffff" stroke="transparent" points="209.5,-1009.7 209.5,-1028.7 280.5,-1028.7 280.5,-1009.7 209.5,-1009.7"/>
<polygon fill="none" stroke="#000000" points="209.5,-1009.7 209.5,-1028.7 280.5,-1028.7 280.5,-1009.7 209.5,-1009.7"/>
<text text-anchor="start" x="212.5" y="-1015.8" font-family="Helvetica,sans-Serif" font-size="11.00" fill="#000000">&lt; 1</text>
<polygon fill="#ffffff" stroke="transparent" points="280.5,-1009.7 280.5,-1028.7 349.5,-1028.7 349.5,-1009.7 280.5,-1009.7"/>
<polygon fill="none" stroke="#000000" points="280.5,-1009.7 280.5,-1028.7 349.5,-1028.7 349.5,-1009.7 280.5,-1009.7"/>
<text text-anchor="start" x="307.9956" y="-1015.8" font-family="Helvetica,sans-Serif" font-size="11.00" fill="#000000">12 rows</text>
<polygon fill="#ffffff" stroke="transparent" points="349.5,-1009.7 349.5,-1028.7 387.5,-1028.7 387.5,-1009.7 349.5,-1009.7"/>
<polygon fill="none" stroke="#000000" points="349.5,-1009.7 349.5,-1028.7 387.5,-1028.7 387.5,-1009.7 349.5,-1009.7"/>
<text text-anchor="start" x="378.3862" y="-1015.8" font-family="Helvetica,sans-Serif" font-size="11.00" fill="#000000"> &#160;</text>
</a>
</g>
</g>
<!-- prison_configuration&#45;&gt;policy -->
<g id="edge4" class="edge">
<title>prison_configuration:w&#45;&gt;policy:e</title>
<path fill="none" stroke="#000000" d="M194.9079,-1036.7764C172.6185,-1033.606 161.9336,-1022.1059 146,-999.7 94.7018,-927.564 194.0162,-804.7 105.5,-804.7"/>
<polygon fill="#000000" stroke="#000000" points="201.516,-1037.1946 209.2726,-1041.2928 205.508,-1037.4473 209.5,-1037.7 209.5,-1037.7 209.5,-1037.7 205.508,-1037.4473 209.7274,-1034.1072 201.516,-1037.1946 201.516,-1037.1946"/>
<ellipse fill="none" stroke="#000000" cx="198.3224" cy="-1036.9924" rx="3.2" ry="3.2"/>
</g>
<!-- prison_configuration_audit -->
<g id="node6" class="node">
<title>prison_configuration_audit</title>
<g id="a_node6"><a xlink:href="../../tables/prison_configuration_audit.html" xlink:title="prison_configuration_audit" target="_top">
<polygon fill="#ffffff" stroke="transparent" points="189,-928.2 189,-989.2 408,-989.2 408,-928.2 189,-928.2"/>
<polygon fill="#f5f5f5" stroke="transparent" points="189.5,-965.7 189.5,-988.7 408.5,-988.7 408.5,-965.7 189.5,-965.7"/>
<polygon fill="none" stroke="#000000" points="189.5,-965.7 189.5,-988.7 408.5,-988.7 408.5,-965.7 189.5,-965.7"/>
<text text-anchor="start" x="194.5" y="-974.3" font-family="Helvetica,sans-Serif" font-weight="bold" font-size="11.00" fill="#000000">prison_configuration_audit</text>
<text text-anchor="start" x="374.0219" y="-973.8" font-family="Helvetica,sans-Serif" font-size="11.00" fill="#000000">[table]</text>
<polygon fill="none" stroke="#000000" points="189.5,-946.7 189.5,-965.7 408.5,-965.7 408.5,-946.7 189.5,-946.7"/>
<text text-anchor="start" x="192.5" y="-952.8" font-family="Helvetica,sans-Serif" font-size="11.00" fill="#000000">...</text>
<polygon fill="#ffffff" stroke="transparent" points="189.5,-927.7 189.5,-946.7 297.5,-946.7 297.5,-927.7 189.5,-927.7"/>
<polygon fill="none" stroke="#000000" points="189.5,-927.7 189.5,-946.7 297.5,-946.7 297.5,-927.7 189.5,-927.7"/>
<text text-anchor="start" x="192.5" y="-933.8" font-family="Helvetica,sans-Serif" font-size="11.00" fill="#000000">&lt; 2</text>
<polygon fill="#ffffff" stroke="transparent" points="297.5,-927.7 297.5,-946.7 352.5,-946.7 352.5,-927.7 297.5,-927.7"/>
<polygon fill="none" stroke="#000000" points="297.5,-927.7 297.5,-946.7 352.5,-946.7 352.5,-927.7 297.5,-927.7"/>
<text text-anchor="start" x="343.3862" y="-933.8" font-family="Helvetica,sans-Serif" font-size="11.00" fill="#000000"> &#160;</text>
<polygon fill="#ffffff" stroke="transparent" points="352.5,-927.7 352.5,-946.7 408.5,-946.7 408.5,-927.7 352.5,-927.7"/>
<polygon fill="none" stroke="#000000" points="352.5,-927.7 352.5,-946.7 408.5,-946.7 408.5,-927.7 352.5,-927.7"/>
<text text-anchor="start" x="399.3862" y="-933.8" font-family="Helvetica,sans-Serif" font-size="11.00" fill="#000000"> &#160;</text>
</a>
</g>
</g>
<!-- prison_configuration_audit&#45;&gt;policy -->
<g id="edge5" class="edge">
<title>prison_configuration_audit:w&#45;&gt;policy:e</title>
<path fill="none" stroke="#000000" stroke-dasharray="5,2" d="M175.0519,-953.0722C161.1764,-947.0214 157.4945,-931.2694 146,-913.7 117.7062,-870.4527 157.1804,-804.7 105.5,-804.7"/>
<polygon fill="#000000" stroke="#000000" points="181.6291,-954.2684 188.8558,-959.2419 185.5646,-954.9842 189.5,-955.7 189.5,-955.7 189.5,-955.7 185.5646,-954.9842 190.1442,-952.1581 181.6291,-954.2684 181.6291,-954.2684"/>
<ellipse fill="none" stroke="#000000" cx="178.4808" cy="-953.6957" rx="3.2" ry="3.2"/>
</g>
<!-- prison_statistic -->
<g id="node7" class="node">
<title>prison_statistic</title>
<g id="a_node7"><a xlink:href="../../tables/prison_statistic.html" xlink:title="prison_statistic" target="_top">
<polygon fill="#ffffff" stroke="transparent" points="227.5,-818.2 227.5,-879.2 369.5,-879.2 369.5,-818.2 227.5,-818.2"/>
<polygon fill="#f5f5f5" stroke="transparent" points="227.5,-855.7 227.5,-878.7 369.5,-878.7 369.5,-855.7 227.5,-855.7"/>
<polygon fill="none" stroke="#000000" points="227.5,-855.7 227.5,-878.7 369.5,-878.7 369.5,-855.7 227.5,-855.7"/>
<text text-anchor="start" x="232.5" y="-864.3" font-family="Helvetica,sans-Serif" font-weight="bold" font-size="11.00" fill="#000000">prison_statistic</text>
<text text-anchor="start" x="335.0219" y="-863.8" font-family="Helvetica,sans-Serif" font-size="11.00" fill="#000000">[table]</text>
<polygon fill="none" stroke="#000000" points="227.5,-836.7 227.5,-855.7 369.5,-855.7 369.5,-836.7 227.5,-836.7"/>
<text text-anchor="start" x="230.5" y="-842.8" font-family="Helvetica,sans-Serif" font-size="11.00" fill="#000000">...</text>
<polygon fill="#ffffff" stroke="transparent" points="227.5,-817.7 227.5,-836.7 292.5,-836.7 292.5,-817.7 227.5,-817.7"/>
<polygon fill="none" stroke="#000000" points="227.5,-817.7 227.5,-836.7 292.5,-836.7 292.5,-817.7 227.5,-817.7"/>
<text text-anchor="start" x="230.5" y="-823.8" font-family="Helvetica,sans-Serif" font-size="11.00" fill="#000000">&lt; 1</text>
<polygon fill="#ffffff" stroke="transparent" points="292.5,-817.7 292.5,-836.7 326.5,-836.7 326.5,-817.7 292.5,-817.7"/>
<polygon fill="none" stroke="#000000" points="292.5,-817.7 292.5,-836.7 326.5,-836.7 326.5,-817.7 292.5,-817.7"/>
<text text-anchor="start" x="317.3862" y="-823.8" font-family="Helvetica,sans-Serif" font-size="11.00" fill="#000000"> &#160;</text>
<polygon fill="#ffffff" stroke="transparent" points="326.5,-817.7 326.5,-836.7 369.5,-836.7 369.5,-817.7 326.5,-817.7"/>
<polygon fill="none" stroke="#000000" points="326.5,-817.7 326.5,-836.7 369.5,-836.7 369.5,-817.7 326.5,-817.7"/>
<text text-anchor="start" x="350.9053" y="-823.8" font-family="Helvetica,sans-Serif" font-size="11.00" fill="#000000">1 &gt;</text>
</a>
</g>
</g>
<!-- prison_statistic&#45;&gt;policy -->
<g id="edge6" class="edge">
<title>prison_statistic:w&#45;&gt;policy:e</title>
<path fill="none" stroke="#000000" d="M212.9243,-844.727C168.4852,-838.5181 157.4513,-804.7 105.5,-804.7"/>
<polygon fill="#000000" stroke="#000000" points="219.5178,-845.1671 227.2602,-849.292 223.5089,-845.4335 227.5,-845.7 227.5,-845.7 227.5,-845.7 223.5089,-845.4335 227.7398,-842.108 219.5178,-845.1671 219.5178,-845.1671"/>
<ellipse fill="none" stroke="#000000" cx="216.3249" cy="-844.9539" rx="3.2" ry="3.2"/>
</g>
<!-- prisoner_statistic -->
<g id="node8" class="node">
<title>prisoner_statistic</title>
<g id="a_node8"><a xlink:href="../../tables/prisoner_statistic.html" xlink:title="prisoner_statistic" target="_top">
<polygon fill="#ffffff" stroke="transparent" points="492,-847.2 492,-908.2 648,-908.2 648,-847.2 492,-847.2"/>
<polygon fill="#f5f5f5" stroke="transparent" points="492,-884.7 492,-907.7 648,-907.7 648,-884.7 492,-884.7"/>
<polygon fill="none" stroke="#000000" points="492,-884.7 492,-907.7 648,-907.7 648,-884.7 492,-884.7"/>
<text text-anchor="start" x="497" y="-893.3" font-family="Helvetica,sans-Serif" font-weight="bold" font-size="11.00" fill="#000000">prisoner_statistic</text>
<text text-anchor="start" x="613.5219" y="-892.8" font-family="Helvetica,sans-Serif" font-size="11.00" fill="#000000">[table]</text>
<polygon fill="none" stroke="#000000" points="492,-865.7 492,-884.7 648,-884.7 648,-865.7 492,-865.7"/>
<text text-anchor="start" x="495" y="-871.8" font-family="Helvetica,sans-Serif" font-size="11.00" fill="#000000">...</text>
<polygon fill="#ffffff" stroke="transparent" points="492,-846.7 492,-865.7 568,-865.7 568,-846.7 492,-846.7"/>
<polygon fill="none" stroke="#000000" points="492,-846.7 492,-865.7 568,-865.7 568,-846.7 492,-846.7"/>
<text text-anchor="start" x="495" y="-852.8" font-family="Helvetica,sans-Serif" font-size="11.00" fill="#000000">&lt; 2</text>
<polygon fill="#ffffff" stroke="transparent" points="568,-846.7 568,-865.7 608,-865.7 608,-846.7 568,-846.7"/>
<polygon fill="none" stroke="#000000" points="568,-846.7 568,-865.7 608,-865.7 608,-846.7 568,-846.7"/>
<text text-anchor="start" x="598.8862" y="-852.8" font-family="Helvetica,sans-Serif" font-size="11.00" fill="#000000"> &#160;</text>
<polygon fill="#ffffff" stroke="transparent" points="608,-846.7 608,-865.7 648,-865.7 648,-846.7 608,-846.7"/>
<polygon fill="none" stroke="#000000" points="608,-846.7 608,-865.7 648,-865.7 648,-846.7 608,-846.7"/>
<text text-anchor="start" x="638.8862" y="-852.8" font-family="Helvetica,sans-Serif" font-size="11.00" fill="#000000"> &#160;</text>
</a>
</g>
</g>
<!-- prisoner_statistic&#45;&gt;policy -->
<g id="edge7" class="edge">
<title>prisoner_statistic:w&#45;&gt;policy:e</title>
<path fill="none" stroke="#000000" d="M477.741,-877.4972C469.4173,-881.1556 464.1353,-887.3726 451,-889.7 384.2617,-901.525 203.3141,-925.879 146,-889.7 110.6135,-867.3626 147.3469,-804.7 105.5,-804.7"/>
<polygon fill="#000000" stroke="#000000" points="484.1496,-876.24 492.693,-878.2327 488.0748,-875.47 492,-874.7 492,-874.7 492,-874.7 488.0748,-875.47 491.307,-871.1673 484.1496,-876.24 484.1496,-876.24"/>
<ellipse fill="none" stroke="#000000" cx="481.0095" cy="-876.8561" rx="3.2" ry="3.2"/>
</g>
<!-- prisoner_statistic&#45;&gt;prison_statistic -->
<g id="edge8" class="edge">
<title>prisoner_statistic:w&#45;&gt;prison_statistic:e</title>
<path fill="none" stroke="#000000" d="M477.3852,-873.9831C433.6644,-869.5174 420.204,-845.7 369.5,-845.7"/>
<polygon fill="#000000" stroke="#000000" points="484.0096,-874.308 491.8236,-878.2957 488.0048,-874.504 492,-874.7 492,-874.7 492,-874.7 488.0048,-874.504 492.1764,-871.1043 484.0096,-874.308 484.0096,-874.308"/>
<ellipse fill="none" stroke="#000000" cx="480.8134" cy="-874.1512" rx="3.2" ry="3.2"/>
</g>
<!-- recorded_event -->
<g id="node9" class="node">
<title>recorded_event</title>
<g id="a_node9"><a xlink:href="../../tables/recorded_event.html" xlink:title="recorded_event" target="_top">
<polygon fill="#ffffff" stroke="transparent" points="226.5,-736.2 226.5,-797.2 370.5,-797.2 370.5,-736.2 226.5,-736.2"/>
<polygon fill="#f5f5f5" stroke="transparent" points="226.5,-773.7 226.5,-796.7 370.5,-796.7 370.5,-773.7 226.5,-773.7"/>
<polygon fill="none" stroke="#000000" points="226.5,-773.7 226.5,-796.7 370.5,-796.7 370.5,-773.7 226.5,-773.7"/>
<text text-anchor="start" x="231.5" y="-782.3" font-family="Helvetica,sans-Serif" font-weight="bold" font-size="11.00" fill="#000000">recorded_event</text>
<text text-anchor="start" x="336.0219" y="-781.8" font-family="Helvetica,sans-Serif" font-size="11.00" fill="#000000">[table]</text>
<polygon fill="none" stroke="#000000" points="226.5,-754.7 226.5,-773.7 370.5,-773.7 370.5,-754.7 226.5,-754.7"/>
<text text-anchor="start" x="229.5" y="-760.8" font-family="Helvetica,sans-Serif" font-size="11.00" fill="#000000">...</text>
<polygon fill="#ffffff" stroke="transparent" points="226.5,-735.7 226.5,-754.7 296.5,-754.7 296.5,-735.7 226.5,-735.7"/>
<polygon fill="none" stroke="#000000" points="226.5,-735.7 226.5,-754.7 296.5,-754.7 296.5,-735.7 226.5,-735.7"/>
<text text-anchor="start" x="229.5" y="-741.8" font-family="Helvetica,sans-Serif" font-size="11.00" fill="#000000">&lt; 2</text>
<polygon fill="#ffffff" stroke="transparent" points="296.5,-735.7 296.5,-754.7 333.5,-754.7 333.5,-735.7 296.5,-735.7"/>
<polygon fill="none" stroke="#000000" points="296.5,-735.7 296.5,-754.7 333.5,-754.7 333.5,-735.7 296.5,-735.7"/>
<text text-anchor="start" x="324.3862" y="-741.8" font-family="Helvetica,sans-Serif" font-size="11.00" fill="#000000"> &#160;</text>
<polygon fill="#ffffff" stroke="transparent" points="333.5,-735.7 333.5,-754.7 370.5,-754.7 370.5,-735.7 333.5,-735.7"/>
<polygon fill="none" stroke="#000000" points="333.5,-735.7 333.5,-754.7 370.5,-754.7 370.5,-735.7 333.5,-735.7"/>
<text text-anchor="start" x="361.3862" y="-741.8" font-family="Helvetica,sans-Serif" font-size="11.00" fill="#000000"> &#160;</text>
</a>
</g>
</g>
<!-- recorded_event&#45;&gt;policy -->
<g id="edge9" class="edge">
<title>recorded_event:w&#45;&gt;policy:e</title>
<path fill="none" stroke="#000000" d="M212.0341,-764.673C167.9375,-770.8819 157.0688,-804.7 105.5,-804.7"/>
<polygon fill="#000000" stroke="#000000" points="218.518,-764.237 226.7416,-767.2919 222.509,-763.9685 226.5,-763.7 226.5,-763.7 226.5,-763.7 222.509,-763.9685 226.2584,-760.1081 218.518,-764.237 218.518,-764.237"/>
<ellipse fill="none" stroke="#000000" cx="215.3253" cy="-764.4517" rx="3.2" ry="3.2"/>
</g>
<!-- recorded_event_audit -->
<g id="node10" class="node">
<title>recorded_event_audit</title>
<g id="a_node10"><a xlink:href="../../tables/recorded_event_audit.html" xlink:title="recorded_event_audit" target="_top">
<polygon fill="#ffffff" stroke="transparent" points="206,-654.2 206,-715.2 391,-715.2 391,-654.2 206,-654.2"/>
<polygon fill="#f5f5f5" stroke="transparent" points="206.5,-691.7 206.5,-714.7 391.5,-714.7 391.5,-691.7 206.5,-691.7"/>
<polygon fill="none" stroke="#000000" points="206.5,-691.7 206.5,-714.7 391.5,-714.7 391.5,-691.7 206.5,-691.7"/>
<text text-anchor="start" x="211.5" y="-700.3" font-family="Helvetica,sans-Serif" font-weight="bold" font-size="11.00" fill="#000000">recorded_event_audit</text>
<text text-anchor="start" x="357.0219" y="-699.8" font-family="Helvetica,sans-Serif" font-size="11.00" fill="#000000">[table]</text>
<polygon fill="none" stroke="#000000" points="206.5,-672.7 206.5,-691.7 391.5,-691.7 391.5,-672.7 206.5,-672.7"/>
<text text-anchor="start" x="209.5" y="-678.8" font-family="Helvetica,sans-Serif" font-size="11.00" fill="#000000">...</text>
<polygon fill="#ffffff" stroke="transparent" points="206.5,-653.7 206.5,-672.7 297.5,-672.7 297.5,-653.7 206.5,-653.7"/>
<polygon fill="none" stroke="#000000" points="206.5,-653.7 206.5,-672.7 297.5,-672.7 297.5,-653.7 206.5,-653.7"/>
<text text-anchor="start" x="209.5" y="-659.8" font-family="Helvetica,sans-Serif" font-size="11.00" fill="#000000">&lt; 2</text>
<polygon fill="#ffffff" stroke="transparent" points="297.5,-653.7 297.5,-672.7 344.5,-672.7 344.5,-653.7 297.5,-653.7"/>
<polygon fill="none" stroke="#000000" points="297.5,-653.7 297.5,-672.7 344.5,-672.7 344.5,-653.7 297.5,-653.7"/>
<text text-anchor="start" x="335.3862" y="-659.8" font-family="Helvetica,sans-Serif" font-size="11.00" fill="#000000"> &#160;</text>
<polygon fill="#ffffff" stroke="transparent" points="344.5,-653.7 344.5,-672.7 391.5,-672.7 391.5,-653.7 344.5,-653.7"/>
<polygon fill="none" stroke="#000000" points="344.5,-653.7 344.5,-672.7 391.5,-672.7 391.5,-653.7 344.5,-653.7"/>
<text text-anchor="start" x="382.3862" y="-659.8" font-family="Helvetica,sans-Serif" font-size="11.00" fill="#000000"> &#160;</text>
</a>
</g>
</g>
<!-- recorded_event_audit&#45;&gt;policy -->
<g id="edge10" class="edge">
<title>recorded_event_audit:w&#45;&gt;policy:e</title>
<path fill="none" stroke="#000000" d="M192.173,-683.1593C170.9731,-688.0245 164.0715,-704.5839 146,-725.7 120.3452,-755.677 144.9562,-804.7 105.5,-804.7"/>
<polygon fill="#000000" stroke="#000000" points="198.5412,-682.5107 206.8648,-685.2815 202.5206,-682.1053 206.5,-681.7 206.5,-681.7 206.5,-681.7 202.5206,-682.1053 206.1352,-678.1185 198.5412,-682.5107 198.5412,-682.5107"/>
<ellipse fill="none" stroke="#000000" cx="195.3576" cy="-682.835" rx="3.2" ry="3.2"/>
</g>
<!-- reference_data_policy -->
<g id="node11" class="node">
<title>reference_data_policy</title>
<g id="a_node11"><a xlink:href="../../tables/reference_data_policy.html" xlink:title="reference_data_policy" target="_top">
<polygon fill="#ffffff" stroke="transparent" points="205.5,-572.2 205.5,-633.2 391.5,-633.2 391.5,-572.2 205.5,-572.2"/>
<polygon fill="#f5f5f5" stroke="transparent" points="205.5,-609.7 205.5,-632.7 391.5,-632.7 391.5,-609.7 205.5,-609.7"/>
<polygon fill="none" stroke="#000000" points="205.5,-609.7 205.5,-632.7 391.5,-632.7 391.5,-609.7 205.5,-609.7"/>
<text text-anchor="start" x="210.5" y="-618.3" font-family="Helvetica,sans-Serif" font-weight="bold" font-size="11.00" fill="#000000">reference_data_policy</text>
<text text-anchor="start" x="357.0219" y="-617.8" font-family="Helvetica,sans-Serif" font-size="11.00" fill="#000000">[table]</text>
<polygon fill="none" stroke="#000000" points="205.5,-590.7 205.5,-609.7 391.5,-609.7 391.5,-590.7 205.5,-590.7"/>
<text text-anchor="start" x="208.5" y="-596.8" font-family="Helvetica,sans-Serif" font-size="11.00" fill="#000000">...</text>
<polygon fill="#ffffff" stroke="transparent" points="205.5,-571.7 205.5,-590.7 280.5,-590.7 280.5,-571.7 205.5,-571.7"/>
<polygon fill="none" stroke="#000000" points="205.5,-571.7 205.5,-590.7 280.5,-590.7 280.5,-571.7 205.5,-571.7"/>
<text text-anchor="start" x="208.5" y="-577.8" font-family="Helvetica,sans-Serif" font-size="11.00" fill="#000000">&lt; 2</text>
<polygon fill="#ffffff" stroke="transparent" points="280.5,-571.7 280.5,-590.7 351.5,-590.7 351.5,-571.7 280.5,-571.7"/>
<polygon fill="none" stroke="#000000" points="280.5,-571.7 280.5,-590.7 351.5,-590.7 351.5,-571.7 280.5,-571.7"/>
<text text-anchor="start" x="309.9956" y="-577.8" font-family="Helvetica,sans-Serif" font-size="11.00" fill="#000000">84 rows</text>
<polygon fill="#ffffff" stroke="transparent" points="351.5,-571.7 351.5,-590.7 391.5,-590.7 391.5,-571.7 351.5,-571.7"/>
<polygon fill="none" stroke="#000000" points="351.5,-571.7 351.5,-590.7 391.5,-590.7 391.5,-571.7 351.5,-571.7"/>
<text text-anchor="start" x="382.3862" y="-577.8" font-family="Helvetica,sans-Serif" font-size="11.00" fill="#000000"> &#160;</text>
</a>
</g>
</g>
<!-- reference_data_policy&#45;&gt;policy -->
<g id="edge11" class="edge">
<title>reference_data_policy:w&#45;&gt;policy:e</title>
<path fill="none" stroke="#000000" d="M191.1446,-601.0199C169.6161,-605.4582 161.302,-620.8581 146,-643.7 104.9339,-705.0007 179.2848,-804.7 105.5,-804.7"/>
<polygon fill="#000000" stroke="#000000" points="197.5336,-600.4325 205.8296,-603.2849 201.5168,-600.0663 205.5,-599.7 205.5,-599.7 205.5,-599.7 201.5168,-600.0663 205.1704,-596.1151 197.5336,-600.4325 197.5336,-600.4325"/>
<ellipse fill="none" stroke="#000000" cx="194.347" cy="-600.7255" rx="3.2" ry="3.2"/>
</g>
<!-- staff_configuration -->
<g id="node12" class="node">
<title>staff_configuration</title>
<g id="a_node12"><a xlink:href="../../tables/staff_configuration.html" xlink:title="staff_configuration" target="_top">
<polygon fill="#ffffff" stroke="transparent" points="215,-490.2 215,-551.2 382,-551.2 382,-490.2 215,-490.2"/>
<polygon fill="#f5f5f5" stroke="transparent" points="215.5,-527.7 215.5,-550.7 382.5,-550.7 382.5,-527.7 215.5,-527.7"/>
<polygon fill="none" stroke="#000000" points="215.5,-527.7 215.5,-550.7 382.5,-550.7 382.5,-527.7 215.5,-527.7"/>
<text text-anchor="start" x="220.5" y="-536.3" font-family="Helvetica,sans-Serif" font-weight="bold" font-size="11.00" fill="#000000">staff_configuration</text>
<text text-anchor="start" x="348.0219" y="-535.8" font-family="Helvetica,sans-Serif" font-size="11.00" fill="#000000">[table]</text>
<polygon fill="none" stroke="#000000" points="215.5,-508.7 215.5,-527.7 382.5,-527.7 382.5,-508.7 215.5,-508.7"/>
<text text-anchor="start" x="218.5" y="-514.8" font-family="Helvetica,sans-Serif" font-size="11.00" fill="#000000">...</text>
<polygon fill="#ffffff" stroke="transparent" points="215.5,-489.7 215.5,-508.7 297.5,-508.7 297.5,-489.7 215.5,-489.7"/>
<polygon fill="none" stroke="#000000" points="215.5,-489.7 215.5,-508.7 297.5,-508.7 297.5,-489.7 215.5,-489.7"/>
<text text-anchor="start" x="218.5" y="-495.8" font-family="Helvetica,sans-Serif" font-size="11.00" fill="#000000">&lt; 2</text>
<polygon fill="#ffffff" stroke="transparent" points="297.5,-489.7 297.5,-508.7 339.5,-508.7 339.5,-489.7 297.5,-489.7"/>
<polygon fill="none" stroke="#000000" points="297.5,-489.7 297.5,-508.7 339.5,-508.7 339.5,-489.7 297.5,-489.7"/>
<text text-anchor="start" x="330.3862" y="-495.8" font-family="Helvetica,sans-Serif" font-size="11.00" fill="#000000"> &#160;</text>
<polygon fill="#ffffff" stroke="transparent" points="339.5,-489.7 339.5,-508.7 382.5,-508.7 382.5,-489.7 339.5,-489.7"/>
<polygon fill="none" stroke="#000000" points="339.5,-489.7 339.5,-508.7 382.5,-508.7 382.5,-489.7 339.5,-489.7"/>
<text text-anchor="start" x="373.3862" y="-495.8" font-family="Helvetica,sans-Serif" font-size="11.00" fill="#000000"> &#160;</text>
</a>
</g>
</g>
<!-- staff_configuration&#45;&gt;policy -->
<g id="edge12" class="edge">
<title>staff_configuration:w&#45;&gt;policy:e</title>
<path fill="none" stroke="#000000" d="M201.0471,-518.5585C175.1052,-521.9664 163.2901,-535.6391 146,-561.7 115.7346,-607.3181 160.2449,-804.7 105.5,-804.7"/>
<polygon fill="#000000" stroke="#000000" points="207.5141,-518.1744 215.7135,-521.2937 211.507,-517.9372 215.5,-517.7 215.5,-517.7 215.5,-517.7 211.507,-517.9372 215.2865,-514.1063 207.5141,-518.1744 207.5141,-518.1744"/>
<ellipse fill="none" stroke="#000000" cx="204.3197" cy="-518.3642" rx="3.2" ry="3.2"/>
</g>
<!-- staff_configuration_audit -->
<g id="node13" class="node">
<title>staff_configuration_audit</title>
<g id="a_node13"><a xlink:href="../../tables/staff_configuration_audit.html" xlink:title="staff_configuration_audit" target="_top">
<polygon fill="#ffffff" stroke="transparent" points="194.5,-408.2 194.5,-469.2 402.5,-469.2 402.5,-408.2 194.5,-408.2"/>
<polygon fill="#f5f5f5" stroke="transparent" points="194.5,-445.7 194.5,-468.7 402.5,-468.7 402.5,-445.7 194.5,-445.7"/>
<polygon fill="none" stroke="#000000" points="194.5,-445.7 194.5,-468.7 402.5,-468.7 402.5,-445.7 194.5,-445.7"/>
<text text-anchor="start" x="199.5" y="-454.3" font-family="Helvetica,sans-Serif" font-weight="bold" font-size="11.00" fill="#000000">staff_configuration_audit</text>
<text text-anchor="start" x="368.0219" y="-453.8" font-family="Helvetica,sans-Serif" font-size="11.00" fill="#000000">[table]</text>
<polygon fill="none" stroke="#000000" points="194.5,-426.7 194.5,-445.7 402.5,-445.7 402.5,-426.7 194.5,-426.7"/>
<text text-anchor="start" x="197.5" y="-432.8" font-family="Helvetica,sans-Serif" font-size="11.00" fill="#000000">...</text>
<polygon fill="#ffffff" stroke="transparent" points="194.5,-407.7 194.5,-426.7 296.5,-426.7 296.5,-407.7 194.5,-407.7"/>
<polygon fill="none" stroke="#000000" points="194.5,-407.7 194.5,-426.7 296.5,-426.7 296.5,-407.7 194.5,-407.7"/>
<text text-anchor="start" x="197.5" y="-413.8" font-family="Helvetica,sans-Serif" font-size="11.00" fill="#000000">&lt; 2</text>
<polygon fill="#ffffff" stroke="transparent" points="296.5,-407.7 296.5,-426.7 349.5,-426.7 349.5,-407.7 296.5,-407.7"/>
<polygon fill="none" stroke="#000000" points="296.5,-407.7 296.5,-426.7 349.5,-426.7 349.5,-407.7 296.5,-407.7"/>
<text text-anchor="start" x="340.3862" y="-413.8" font-family="Helvetica,sans-Serif" font-size="11.00" fill="#000000"> &#160;</text>
<polygon fill="#ffffff" stroke="transparent" points="349.5,-407.7 349.5,-426.7 402.5,-426.7 402.5,-407.7 349.5,-407.7"/>
<polygon fill="none" stroke="#000000" points="349.5,-407.7 349.5,-426.7 402.5,-426.7 402.5,-407.7 349.5,-407.7"/>
<text text-anchor="start" x="393.3862" y="-413.8" font-family="Helvetica,sans-Serif" font-size="11.00" fill="#000000"> &#160;</text>
</a>
</g>
</g>
<!-- staff_configuration_audit&#45;&gt;policy -->
<g id="edge13" class="edge">
<title>staff_configuration_audit:w&#45;&gt;policy:e</title>
<path fill="none" stroke="#000000" stroke-dasharray="5,2" d="M179.8652,-437.7012C162.7755,-443.0902 156.7939,-458.9158 146,-479.7 112.4564,-544.2901 178.2808,-804.7 105.5,-804.7"/>
<polygon fill="#000000" stroke="#000000" points="186.5738,-436.7839 194.9878,-439.2668 190.5369,-436.2419 194.5,-435.7 194.5,-435.7 194.5,-435.7 190.5369,-436.2419 194.0122,-432.1332 186.5738,-436.7839 186.5738,-436.7839"/>
<ellipse fill="none" stroke="#000000" cx="183.4033" cy="-437.2174" rx="3.2" ry="3.2"/>
</g>
<!-- staff_role -->
<g id="node14" class="node">
<title>staff_role</title>
<g id="a_node14"><a xlink:href="../../tables/staff_role.html" xlink:title="staff_role" target="_top">
<polygon fill="#ffffff" stroke="transparent" points="181.5,-120.7 181.5,-386.7 415.5,-386.7 415.5,-120.7 181.5,-120.7"/>
<polygon fill="#f5f5f5" stroke="transparent" points="183.5,-361.7 183.5,-384.7 413.5,-384.7 413.5,-361.7 183.5,-361.7"/>
<polygon fill="none" stroke="#000000" points="183.5,-361.7 183.5,-384.7 413.5,-384.7 413.5,-361.7 183.5,-361.7"/>
<text text-anchor="start" x="188.5" y="-370.3" font-family="Helvetica,sans-Serif" font-weight="bold" font-size="11.00" fill="#000000">staff_role</text>
<text text-anchor="start" x="378.5437" y="-369.8" font-family="Helvetica,sans-Serif" font-size="11.00" fill="#000000">[table]</text>
<polygon fill="none" stroke="#000000" points="183.5,-339.7 183.5,-361.7 319.5,-361.7 319.5,-339.7 183.5,-339.7"/>
<image xlink:href="../../images/primaryKeys.png" width="11px" height="12px" preserveAspectRatio="xMinYMin meet" x="188.5" y="-356.7"/>
<text text-anchor="start" x="203.5" y="-346.8" font-family="Helvetica,sans-Serif" font-size="11.00" fill="#000000">id</text>
<polygon fill="none" stroke="#000000" points="319.5,-339.7 319.5,-361.7 413.5,-361.7 413.5,-339.7 319.5,-339.7"/>
<text text-anchor="start" x="322.4758" y="-347.4" font-family="Helvetica,sans-Serif" font-size="11.00" fill="#000000">uuid[2147483647]</text>
<polygon fill="#ffffff" stroke="transparent" points="183.5,-317.7 183.5,-339.7 319.5,-339.7 319.5,-317.7 183.5,-317.7"/>
<polygon fill="none" stroke="#000000" points="183.5,-317.7 183.5,-339.7 319.5,-339.7 319.5,-317.7 183.5,-317.7"/>
<image xlink:href="../../images/foreignKeys.png" width="11px" height="12px" preserveAspectRatio="xMinYMin meet" x="188.5" y="-334.7"/>
<text text-anchor="start" x="203.5" y="-324.8" font-family="Helvetica,sans-Serif" font-size="11.00" fill="#000000">policy_code</text>
<polygon fill="none" stroke="#000000" points="319.5,-317.7 319.5,-339.7 413.5,-339.7 413.5,-317.7 319.5,-317.7"/>
<text text-anchor="start" x="322.5" y="-325.4" font-family="Helvetica,sans-Serif" font-size="11.00" fill="#000000">varchar[16]</text>
<polygon fill="#ffffff" stroke="transparent" points="183.5,-295.7 183.5,-317.7 319.5,-317.7 319.5,-295.7 183.5,-295.7"/>
<polygon fill="none" stroke="#000000" points="183.5,-295.7 183.5,-317.7 319.5,-317.7 319.5,-295.7 183.5,-295.7"/>
<text text-anchor="start" x="203.5" y="-302.8" font-family="Helvetica,sans-Serif" font-size="11.00" fill="#000000">prison_code</text>
<polygon fill="none" stroke="#000000" points="319.5,-295.7 319.5,-317.7 413.5,-317.7 413.5,-295.7 319.5,-295.7"/>
<text text-anchor="start" x="322.5" y="-303.4" font-family="Helvetica,sans-Serif" font-size="11.00" fill="#000000">varchar[6]</text>
<polygon fill="#ffffff" stroke="transparent" points="183.5,-273.7 183.5,-295.7 319.5,-295.7 319.5,-273.7 183.5,-273.7"/>
<polygon fill="none" stroke="#000000" points="183.5,-273.7 183.5,-295.7 319.5,-295.7 319.5,-273.7 183.5,-273.7"/>
<text text-anchor="start" x="203.5" y="-280.8" font-family="Helvetica,sans-Serif" font-size="11.00" fill="#000000">staff_id</text>
<polygon fill="none" stroke="#000000" points="319.5,-273.7 319.5,-295.7 413.5,-295.7 413.5,-273.7 319.5,-273.7"/>
<text text-anchor="start" x="322.5" y="-281.4" font-family="Helvetica,sans-Serif" font-size="11.00" fill="#000000">int8[19]</text>
<polygon fill="none" stroke="#000000" points="183.5,-251.7 183.5,-273.7 319.5,-273.7 319.5,-251.7 183.5,-251.7"/>
<text text-anchor="start" x="203.5" y="-258.8" font-family="Helvetica,sans-Serif" font-size="11.00" fill="#000000">position_id</text>
<polygon fill="none" stroke="#000000" points="319.5,-251.7 319.5,-273.7 413.5,-273.7 413.5,-251.7 319.5,-251.7"/>
<text text-anchor="start" x="322.5" y="-259.4" font-family="Helvetica,sans-Serif" font-size="11.00" fill="#000000">int8[19]</text>
<polygon fill="none" stroke="#000000" points="183.5,-229.7 183.5,-251.7 319.5,-251.7 319.5,-229.7 183.5,-229.7"/>
<text text-anchor="start" x="203.5" y="-236.8" font-family="Helvetica,sans-Serif" font-size="11.00" fill="#000000">schedule_type_id</text>
<polygon fill="none" stroke="#000000" points="319.5,-229.7 319.5,-251.7 413.5,-251.7 413.5,-229.7 319.5,-229.7"/>
<text text-anchor="start" x="322.5" y="-237.4" font-family="Helvetica,sans-Serif" font-size="11.00" fill="#000000">int8[19]</text>
<polygon fill="none" stroke="#000000" points="183.5,-207.7 183.5,-229.7 319.5,-229.7 319.5,-207.7 183.5,-207.7"/>
<text text-anchor="start" x="203.5" y="-214.8" font-family="Helvetica,sans-Serif" font-size="11.00" fill="#000000">hours_per_week</text>
<polygon fill="none" stroke="#000000" points="319.5,-207.7 319.5,-229.7 413.5,-229.7 413.5,-207.7 319.5,-207.7"/>
<text text-anchor="start" x="322.5" y="-215.4" font-family="Helvetica,sans-Serif" font-size="11.00" fill="#000000">numeric[0]</text>
<polygon fill="none" stroke="#000000" points="183.5,-185.7 183.5,-207.7 319.5,-207.7 319.5,-185.7 183.5,-185.7"/>
<text text-anchor="start" x="203.5" y="-192.8" font-family="Helvetica,sans-Serif" font-size="11.00" fill="#000000">from_date</text>
<polygon fill="none" stroke="#000000" points="319.5,-185.7 319.5,-207.7 413.5,-207.7 413.5,-185.7 319.5,-185.7"/>
<text text-anchor="start" x="322.5" y="-193.4" font-family="Helvetica,sans-Serif" font-size="11.00" fill="#000000">date[13]</text>
<polygon fill="none" stroke="#000000" points="183.5,-163.7 183.5,-185.7 319.5,-185.7 319.5,-163.7 183.5,-163.7"/>
<text text-anchor="start" x="203.5" y="-170.8" font-family="Helvetica,sans-Serif" font-size="11.00" fill="#000000">to_date</text>
<polygon fill="none" stroke="#000000" points="319.5,-163.7 319.5,-185.7 413.5,-185.7 413.5,-163.7 319.5,-163.7"/>
<text text-anchor="start" x="322.5" y="-171.4" font-family="Helvetica,sans-Serif" font-size="11.00" fill="#000000">date[13]</text>
<polygon fill="none" stroke="#000000" points="183.5,-141.7 183.5,-163.7 319.5,-163.7 319.5,-141.7 183.5,-141.7"/>
<text text-anchor="start" x="203.5" y="-148.8" font-family="Helvetica,sans-Serif" font-size="11.00" fill="#000000">version</text>
<polygon fill="none" stroke="#000000" points="319.5,-141.7 319.5,-163.7 413.5,-163.7 413.5,-141.7 319.5,-141.7"/>
<text text-anchor="start" x="322.5" y="-149.4" font-family="Helvetica,sans-Serif" font-size="11.00" fill="#000000">int4[10]</text>
<polygon fill="#ffffff" stroke="transparent" points="183.5,-122.7 183.5,-141.7 255.5,-141.7 255.5,-122.7 183.5,-122.7"/>
<polygon fill="none" stroke="#000000" points="183.5,-122.7 183.5,-141.7 255.5,-141.7 255.5,-122.7 183.5,-122.7"/>
<text text-anchor="start" x="186.5" y="-128.8" font-family="Helvetica,sans-Serif" font-size="11.00" fill="#000000">&lt; 1</text>
<polygon fill="#ffffff" stroke="transparent" points="255.5,-122.7 255.5,-141.7 319.5,-141.7 319.5,-122.7 255.5,-122.7"/>
<polygon fill="none" stroke="#000000" points="255.5,-122.7 255.5,-141.7 319.5,-141.7 319.5,-122.7 255.5,-122.7"/>
<text text-anchor="start" x="310.3862" y="-128.8" font-family="Helvetica,sans-Serif" font-size="11.00" fill="#000000"> &#160;</text>
<polygon fill="#ffffff" stroke="transparent" points="319.5,-122.7 319.5,-141.7 413.5,-141.7 413.5,-122.7 319.5,-122.7"/>
<polygon fill="none" stroke="#000000" points="319.5,-122.7 319.5,-141.7 413.5,-141.7 413.5,-122.7 319.5,-122.7"/>
<text text-anchor="start" x="394.9053" y="-128.8" font-family="Helvetica,sans-Serif" font-size="11.00" fill="#000000">0 &gt;</text>
<polygon fill="none" stroke="#000000" stroke-width="2" points="182.5,-121.7 182.5,-385.7 414.5,-385.7 414.5,-121.7 182.5,-121.7"/>
</a>
</g>
</g>
<!-- staff_role&#45;&gt;policy -->
<g id="edge14" class="edge">
<title>staff_role:w&#45;&gt;policy:e</title>
<path fill="none" stroke="#000000" stroke-dasharray="5,2" d="M169.2286,-331.5369C150.6669,-340.6086 154.5405,-369.9438 146,-397.7 132.635,-441.1359 150.9456,-804.7 105.5,-804.7"/>
<polygon fill="#000000" stroke="#000000" points="175.6535,-330.2598 184.2019,-332.2309 179.5768,-329.4799 183.5,-328.7 183.5,-328.7 183.5,-328.7 179.5768,-329.4799 182.7981,-325.1691 175.6535,-330.2598 175.6535,-330.2598"/>
<ellipse fill="none" stroke="#000000" cx="172.5149" cy="-330.8837" rx="3.2" ry="3.2"/>
</g>
<!-- staff_role_audit -->
<g id="node15" class="node">
<title>staff_role_audit</title>
<g id="a_node15"><a xlink:href="../../tables/staff_role_audit.html" xlink:title="staff_role_audit" target="_top">
<polygon fill="#ffffff" stroke="transparent" points="227,-38.2 227,-99.2 370,-99.2 370,-38.2 227,-38.2"/>
<polygon fill="#f5f5f5" stroke="transparent" points="227.5,-75.7 227.5,-98.7 370.5,-98.7 370.5,-75.7 227.5,-75.7"/>
<polygon fill="none" stroke="#000000" points="227.5,-75.7 227.5,-98.7 370.5,-98.7 370.5,-75.7 227.5,-75.7"/>
<text text-anchor="start" x="232.5" y="-84.3" font-family="Helvetica,sans-Serif" font-weight="bold" font-size="11.00" fill="#000000">staff_role_audit</text>
<text text-anchor="start" x="336.0219" y="-83.8" font-family="Helvetica,sans-Serif" font-size="11.00" fill="#000000">[table]</text>
<polygon fill="none" stroke="#000000" points="227.5,-56.7 227.5,-75.7 370.5,-75.7 370.5,-56.7 227.5,-56.7"/>
<text text-anchor="start" x="230.5" y="-62.8" font-family="Helvetica,sans-Serif" font-size="11.00" fill="#000000">...</text>
<polygon fill="#ffffff" stroke="transparent" points="227.5,-37.7 227.5,-56.7 297.5,-56.7 297.5,-37.7 227.5,-37.7"/>
<polygon fill="none" stroke="#000000" points="227.5,-37.7 227.5,-56.7 297.5,-56.7 297.5,-37.7 227.5,-37.7"/>
<text text-anchor="start" x="230.5" y="-43.8" font-family="Helvetica,sans-Serif" font-size="11.00" fill="#000000">&lt; 2</text>
<polygon fill="#ffffff" stroke="transparent" points="297.5,-37.7 297.5,-56.7 333.5,-56.7 333.5,-37.7 297.5,-37.7"/>
<polygon fill="none" stroke="#000000" points="297.5,-37.7 297.5,-56.7 333.5,-56.7 333.5,-37.7 297.5,-37.7"/>
<text text-anchor="start" x="324.3862" y="-43.8" font-family="Helvetica,sans-Serif" font-size="11.00" fill="#000000"> &#160;</text>
<polygon fill="#ffffff" stroke="transparent" points="333.5,-37.7 333.5,-56.7 370.5,-56.7 370.5,-37.7 333.5,-37.7"/>
<polygon fill="none" stroke="#000000" points="333.5,-37.7 333.5,-56.7 370.5,-56.7 370.5,-37.7 333.5,-37.7"/>
<text text-anchor="start" x="361.3862" y="-43.8" font-family="Helvetica,sans-Serif" font-size="11.00" fill="#000000"> &#160;</text>
</a>
</g>
</g>
<!-- staff_role_audit&#45;&gt;policy -->
<g id="edge15" class="edge">
<title>staff_role_audit:w&#45;&gt;policy:e</title>
<path fill="none" stroke="#000000" stroke-dasharray="5,2" d="M213.0231,-66.1978C181.5447,-68.5893 165.302,-80.0696 146,-110.7 104.8196,-176.0495 182.7423,-804.7 105.5,-804.7"/>
<polygon fill="#000000" stroke="#000000" points="219.5047,-65.975 227.6237,-69.2979 223.5024,-65.8375 227.5,-65.7 227.5,-65.7 227.5,-65.7 223.5024,-65.8375 227.3763,-62.1021 219.5047,-65.975 219.5047,-65.975"/>
<ellipse fill="none" stroke="#000000" cx="216.3066" cy="-66.085" rx="3.2" ry="3.2"/>
</g>
</g>
</svg>
