<?xml version="1.0" encoding="UTF-8" standalone="no"?>
<!DOCTYPE svg PUBLIC "-//W3C//DTD SVG 1.1//EN"
 "http://www.w3.org/Graphics/SVG/1.1/DTD/svg11.dtd">
<!-- Generated by graphviz version 2.40.1 (20161225.0304)
 -->
<!-- Title: twoDegreesRelationshipsDiagramImplied Pages: 1 -->
<svg width="536pt" height="957pt"
 viewBox="0.00 0.00 536.00 956.70" xmlns="http://www.w3.org/2000/svg" xmlns:xlink="http://www.w3.org/1999/xlink">
<g id="graph0" class="graph" transform="scale(1 1) rotate(0) translate(4 952.7)">
<title>twoDegreesRelationshipsDiagramImplied</title>
<polygon fill="#ffffff" stroke="transparent" points="-4,4 -4,-952.7 532,-952.7 532,4 -4,4"/>
<text text-anchor="middle" x="72.4936" y="-7.3" font-family="Helvetica,sans-Serif" font-size="11.00" fill="#000000">Generated by SchemaSpy</text>
<!-- allocation -->
<g id="node1" class="node">
<title>allocation</title>
<g id="a_node1"><a xlink:href="../../tables/allocation.html" xlink:title="allocation" target="_top">
<polygon fill="#ffffff" stroke="transparent" points="303,-284.2 303,-345.2 408,-345.2 408,-284.2 303,-284.2"/>
<polygon fill="#f5f5f5" stroke="transparent" points="303.5,-321.7 303.5,-344.7 408.5,-344.7 408.5,-321.7 303.5,-321.7"/>
<polygon fill="none" stroke="#000000" points="303.5,-321.7 303.5,-344.7 408.5,-344.7 408.5,-321.7 303.5,-321.7"/>
<text text-anchor="start" x="308.5" y="-330.3" font-family="Helvetica,sans-Serif" font-weight="bold" font-size="11.00" fill="#000000">allocation</text>
<text text-anchor="start" x="374.0219" y="-329.8" font-family="Helvetica,sans-Serif" font-size="11.00" fill="#000000">[table]</text>
<polygon fill="none" stroke="#000000" points="303.5,-302.7 303.5,-321.7 408.5,-321.7 408.5,-302.7 303.5,-302.7"/>
<text text-anchor="start" x="306.5" y="-308.8" font-family="Helvetica,sans-Serif" font-size="11.00" fill="#000000">...</text>
<polygon fill="#ffffff" stroke="transparent" points="303.5,-283.7 303.5,-302.7 354.5,-302.7 354.5,-283.7 303.5,-283.7"/>
<polygon fill="none" stroke="#000000" points="303.5,-283.7 303.5,-302.7 354.5,-302.7 354.5,-283.7 303.5,-283.7"/>
<text text-anchor="start" x="306.5" y="-289.8" font-family="Helvetica,sans-Serif" font-size="11.00" fill="#000000">&lt; 3</text>
<polygon fill="#ffffff" stroke="transparent" points="354.5,-283.7 354.5,-302.7 381.5,-302.7 381.5,-283.7 354.5,-283.7"/>
<polygon fill="none" stroke="#000000" points="354.5,-283.7 354.5,-302.7 381.5,-302.7 381.5,-283.7 354.5,-283.7"/>
<text text-anchor="start" x="372.3862" y="-289.8" font-family="Helvetica,sans-Serif" font-size="11.00" fill="#000000"> &#160;</text>
<polygon fill="#ffffff" stroke="transparent" points="381.5,-283.7 381.5,-302.7 408.5,-302.7 408.5,-283.7 381.5,-283.7"/>
<polygon fill="none" stroke="#000000" points="381.5,-283.7 381.5,-302.7 408.5,-302.7 408.5,-283.7 381.5,-283.7"/>
<text text-anchor="start" x="399.3862" y="-289.8" font-family="Helvetica,sans-Serif" font-size="11.00" fill="#000000"> &#160;</text>
</a>
</g>
</g>
<!-- policy -->
<g id="node2" class="node">
<title>policy</title>
<g id="a_node2"><a xlink:href="../../tables/policy.html" xlink:title="policy" target="_top">
<polygon fill="#ffffff" stroke="transparent" points="26.5,-319.2 26.5,-402.2 123.5,-402.2 123.5,-319.2 26.5,-319.2"/>
<polygon fill="#f5f5f5" stroke="transparent" points="27,-378.7 27,-401.7 124,-401.7 124,-378.7 27,-378.7"/>
<polygon fill="none" stroke="#000000" points="27,-378.7 27,-401.7 124,-401.7 124,-378.7 27,-378.7"/>
<text text-anchor="start" x="32" y="-387.3" font-family="Helvetica,sans-Serif" font-weight="bold" font-size="11.00" fill="#000000">policy</text>
<text text-anchor="start" x="89.0437" y="-386.8" font-family="Helvetica,sans-Serif" font-size="11.00" fill="#000000">[table]</text>
<polygon fill="none" stroke="#000000" points="27,-356.7 27,-378.7 124,-378.7 124,-356.7 27,-356.7"/>
<image xlink:href="../../images/primaryKeys.png" width="11px" height="12px" preserveAspectRatio="xMinYMin meet" x="32" y="-373.7"/>
<text text-anchor="start" x="47" y="-363.8" font-family="Helvetica,sans-Serif" font-size="11.00" fill="#000000">code</text>
<polygon fill="none" stroke="#000000" points="27,-337.7 27,-356.7 124,-356.7 124,-337.7 27,-337.7"/>
<text text-anchor="start" x="30" y="-343.8" font-family="Helvetica,sans-Serif" font-size="11.00" fill="#000000">...</text>
<polygon fill="#ffffff" stroke="transparent" points="27,-318.7 27,-337.7 65,-337.7 65,-318.7 27,-318.7"/>
<polygon fill="none" stroke="#000000" points="27,-318.7 27,-337.7 65,-337.7 65,-318.7 27,-318.7"/>
<text text-anchor="start" x="30" y="-324.8" font-family="Helvetica,sans-Serif" font-size="11.00" fill="#000000"> &#160;</text>
<polygon fill="#ffffff" stroke="transparent" points="65,-318.7 65,-337.7 90,-337.7 90,-318.7 65,-318.7"/>
<polygon fill="none" stroke="#000000" points="65,-318.7 65,-337.7 90,-337.7 90,-318.7 65,-318.7"/>
<text text-anchor="start" x="80.8862" y="-324.8" font-family="Helvetica,sans-Serif" font-size="11.00" fill="#000000"> &#160;</text>
<polygon fill="#ffffff" stroke="transparent" points="90,-318.7 90,-337.7 124,-337.7 124,-318.7 90,-318.7"/>
<polygon fill="none" stroke="#000000" points="90,-318.7 90,-337.7 124,-337.7 124,-318.7 90,-318.7"/>
<text text-anchor="start" x="105.4053" y="-324.8" font-family="Helvetica,sans-Serif" font-size="11.00" fill="#000000">8 &gt;</text>
</a>
</g>
</g>
<!-- allocation&#45;&gt;policy -->
<g id="edge1" class="edge">
<title>allocation:w&#45;&gt;policy:e</title>
<path fill="none" stroke="#000000" d="M288.9033,-313.376C242.4347,-322.6937 161.4596,-367.7 124,-367.7"/>
<polygon fill="#000000" stroke="#000000" points="295.5522,-312.6126 303.9107,-315.2765 299.5261,-312.1563 303.5,-311.7 303.5,-311.7 303.5,-311.7 299.5261,-312.1563 303.0893,-308.1235 295.5522,-312.6126 295.5522,-312.6126"/>
<ellipse fill="none" stroke="#000000" cx="292.3731" cy="-312.9776" rx="3.2" ry="3.2"/>
</g>
<!-- allocation_audit -->
<g id="node3" class="node">
<title>allocation_audit</title>
<g id="a_node3"><a xlink:href="../../tables/allocation_audit.html" xlink:title="allocation_audit" target="_top">
<polygon fill="#ffffff" stroke="transparent" points="282.5,-448.2 282.5,-509.2 428.5,-509.2 428.5,-448.2 282.5,-448.2"/>
<polygon fill="#f5f5f5" stroke="transparent" points="282.5,-485.7 282.5,-508.7 428.5,-508.7 428.5,-485.7 282.5,-485.7"/>
<polygon fill="none" stroke="#000000" points="282.5,-485.7 282.5,-508.7 428.5,-508.7 428.5,-485.7 282.5,-485.7"/>
<text text-anchor="start" x="287.5" y="-494.3" font-family="Helvetica,sans-Serif" font-weight="bold" font-size="11.00" fill="#000000">allocation_audit</text>
<text text-anchor="start" x="394.0219" y="-493.8" font-family="Helvetica,sans-Serif" font-size="11.00" fill="#000000">[table]</text>
<polygon fill="none" stroke="#000000" points="282.5,-466.7 282.5,-485.7 428.5,-485.7 428.5,-466.7 282.5,-466.7"/>
<text text-anchor="start" x="285.5" y="-472.8" font-family="Helvetica,sans-Serif" font-size="11.00" fill="#000000">...</text>
<polygon fill="#ffffff" stroke="transparent" points="282.5,-447.7 282.5,-466.7 353.5,-466.7 353.5,-447.7 282.5,-447.7"/>
<polygon fill="none" stroke="#000000" points="282.5,-447.7 282.5,-466.7 353.5,-466.7 353.5,-447.7 282.5,-447.7"/>
<text text-anchor="start" x="285.5" y="-453.8" font-family="Helvetica,sans-Serif" font-size="11.00" fill="#000000">&lt; 3</text>
<polygon fill="#ffffff" stroke="transparent" points="353.5,-447.7 353.5,-466.7 390.5,-466.7 390.5,-447.7 353.5,-447.7"/>
<polygon fill="none" stroke="#000000" points="353.5,-447.7 353.5,-466.7 390.5,-466.7 390.5,-447.7 353.5,-447.7"/>
<text text-anchor="start" x="381.3862" y="-453.8" font-family="Helvetica,sans-Serif" font-size="11.00" fill="#000000"> &#160;</text>
<polygon fill="#ffffff" stroke="transparent" points="390.5,-447.7 390.5,-466.7 428.5,-466.7 428.5,-447.7 390.5,-447.7"/>
<polygon fill="none" stroke="#000000" points="390.5,-447.7 390.5,-466.7 428.5,-466.7 428.5,-447.7 390.5,-447.7"/>
<text text-anchor="start" x="419.3862" y="-453.8" font-family="Helvetica,sans-Serif" font-size="11.00" fill="#000000"> &#160;</text>
</a>
</g>
</g>
<!-- allocation_audit&#45;&gt;policy -->
<g id="edge2" class="edge">
<title>allocation_audit:w&#45;&gt;policy:e</title>
<path fill="none" stroke="#000000" stroke-dasharray="5,2" d="M268.1023,-475.3119C231.8946,-473.1829 217.3708,-462.1153 183,-437.7 149.8293,-414.1371 164.6879,-367.7 124,-367.7"/>
<polygon fill="#000000" stroke="#000000" points="274.5029,-475.4844 282.403,-479.2987 278.5015,-475.5922 282.5,-475.7 282.5,-475.7 282.5,-475.7 278.5015,-475.5922 282.597,-472.1013 274.5029,-475.4844 274.5029,-475.4844"/>
<ellipse fill="none" stroke="#000000" cx="271.3041" cy="-475.3981" rx="3.2" ry="3.2"/>
</g>
<!-- audit_revision -->
<g id="node4" class="node">
<title>audit_revision</title>
<g id="a_node4"><a xlink:href="../../tables/audit_revision.html" xlink:title="audit_revision" target="_top">
<polygon fill="#ffffff" stroke="transparent" points="8,-453.2 8,-536.2 142,-536.2 142,-453.2 8,-453.2"/>
<polygon fill="#f5f5f5" stroke="transparent" points="8,-512.7 8,-535.7 142,-535.7 142,-512.7 8,-512.7"/>
<polygon fill="none" stroke="#000000" points="8,-512.7 8,-535.7 142,-535.7 142,-512.7 8,-512.7"/>
<text text-anchor="start" x="13" y="-521.3" font-family="Helvetica,sans-Serif" font-weight="bold" font-size="11.00" fill="#000000">audit_revision</text>
<text text-anchor="start" x="107.5219" y="-520.8" font-family="Helvetica,sans-Serif" font-size="11.00" fill="#000000">[table]</text>
<polygon fill="none" stroke="#000000" points="8,-490.7 8,-512.7 142,-512.7 142,-490.7 8,-490.7"/>
<image xlink:href="../../images/primaryKeys.png" width="11px" height="12px" preserveAspectRatio="xMinYMin meet" x="13" y="-507.7"/>
<text text-anchor="start" x="28" y="-497.8" font-family="Helvetica,sans-Serif" font-size="11.00" fill="#000000">id</text>
<polygon fill="none" stroke="#000000" points="8,-471.7 8,-490.7 142,-490.7 142,-471.7 8,-471.7"/>
<text text-anchor="start" x="11" y="-477.8" font-family="Helvetica,sans-Serif" font-size="11.00" fill="#000000">...</text>
<polygon fill="#ffffff" stroke="transparent" points="8,-452.7 8,-471.7 64,-471.7 64,-452.7 8,-452.7"/>
<polygon fill="none" stroke="#000000" points="8,-452.7 8,-471.7 64,-471.7 64,-452.7 8,-452.7"/>
<text text-anchor="start" x="11" y="-458.8" font-family="Helvetica,sans-Serif" font-size="11.00" fill="#000000"> &#160;</text>
<polygon fill="#ffffff" stroke="transparent" points="64,-452.7 64,-471.7 98,-471.7 98,-452.7 64,-452.7"/>
<polygon fill="none" stroke="#000000" points="64,-452.7 64,-471.7 98,-471.7 98,-452.7 64,-452.7"/>
<text text-anchor="start" x="88.8862" y="-458.8" font-family="Helvetica,sans-Serif" font-size="11.00" fill="#000000"> &#160;</text>
<polygon fill="#ffffff" stroke="transparent" points="98,-452.7 98,-471.7 142,-471.7 142,-452.7 98,-452.7"/>
<polygon fill="none" stroke="#000000" points="98,-452.7 98,-471.7 142,-471.7 142,-452.7 98,-452.7"/>
<text text-anchor="start" x="123.4053" y="-458.8" font-family="Helvetica,sans-Serif" font-size="11.00" fill="#000000">4 &gt;</text>
</a>
</g>
</g>
<!-- allocation_audit&#45;&gt;audit_revision -->
<g id="edge3" class="edge">
<title>allocation_audit:w&#45;&gt;audit_revision:e</title>
<path fill="none" stroke="#000000" d="M267.8263,-476.1962C216.4455,-479.7907 200.2953,-501.7 142,-501.7"/>
<polygon fill="#000000" stroke="#000000" points="274.5046,-475.9704 282.6217,-479.2979 278.5023,-475.8352 282.5,-475.7 282.5,-475.7 282.5,-475.7 278.5023,-475.8352 282.3783,-472.1021 274.5046,-475.9704 274.5046,-475.9704"/>
<ellipse fill="none" stroke="#000000" cx="271.3064" cy="-476.0786" rx="3.2" ry="3.2"/>
</g>
<!-- prison_configuration -->
<g id="node5" class="node">
<title>prison_configuration</title>
<g id="a_node5"><a xlink:href="../../tables/prison_configuration.html" xlink:title="prison_configuration" target="_top">
<polygon fill="#ffffff" stroke="transparent" points="266.5,-202.2 266.5,-263.2 444.5,-263.2 444.5,-202.2 266.5,-202.2"/>
<polygon fill="#f5f5f5" stroke="transparent" points="266.5,-239.7 266.5,-262.7 444.5,-262.7 444.5,-239.7 266.5,-239.7"/>
<polygon fill="none" stroke="#000000" points="266.5,-239.7 266.5,-262.7 444.5,-262.7 444.5,-239.7 266.5,-239.7"/>
<text text-anchor="start" x="271.5" y="-248.3" font-family="Helvetica,sans-Serif" font-weight="bold" font-size="11.00" fill="#000000">prison_configuration</text>
<text text-anchor="start" x="410.0219" y="-247.8" font-family="Helvetica,sans-Serif" font-size="11.00" fill="#000000">[table]</text>
<polygon fill="none" stroke="#000000" points="266.5,-220.7 266.5,-239.7 444.5,-239.7 444.5,-220.7 266.5,-220.7"/>
<text text-anchor="start" x="269.5" y="-226.8" font-family="Helvetica,sans-Serif" font-size="11.00" fill="#000000">...</text>
<polygon fill="#ffffff" stroke="transparent" points="266.5,-201.7 266.5,-220.7 337.5,-220.7 337.5,-201.7 266.5,-201.7"/>
<polygon fill="none" stroke="#000000" points="266.5,-201.7 266.5,-220.7 337.5,-220.7 337.5,-201.7 266.5,-201.7"/>
<text text-anchor="start" x="269.5" y="-207.8" font-family="Helvetica,sans-Serif" font-size="11.00" fill="#000000">&lt; 1</text>
<polygon fill="#ffffff" stroke="transparent" points="337.5,-201.7 337.5,-220.7 406.5,-220.7 406.5,-201.7 337.5,-201.7"/>
<polygon fill="none" stroke="#000000" points="337.5,-201.7 337.5,-220.7 406.5,-220.7 406.5,-201.7 337.5,-201.7"/>
<text text-anchor="start" x="364.9956" y="-207.8" font-family="Helvetica,sans-Serif" font-size="11.00" fill="#000000">12 rows</text>
<polygon fill="#ffffff" stroke="transparent" points="406.5,-201.7 406.5,-220.7 444.5,-220.7 444.5,-201.7 406.5,-201.7"/>
<polygon fill="none" stroke="#000000" points="406.5,-201.7 406.5,-220.7 444.5,-220.7 444.5,-201.7 406.5,-201.7"/>
<text text-anchor="start" x="435.3862" y="-207.8" font-family="Helvetica,sans-Serif" font-size="11.00" fill="#000000"> &#160;</text>
</a>
</g>
</g>
<!-- prison_configuration&#45;&gt;policy -->
<g id="edge4" class="edge">
<title>prison_configuration:w&#45;&gt;policy:e</title>
<path fill="none" stroke="#000000" d="M251.7215,-230.4664C221.4379,-233.9075 209.7955,-248.8558 183,-273.7 146.8296,-307.2364 173.3253,-367.7 124,-367.7"/>
<polygon fill="#000000" stroke="#000000" points="258.5107,-230.1144 266.6865,-233.2952 262.5054,-229.9072 266.5,-229.7 266.5,-229.7 266.5,-229.7 262.5054,-229.9072 266.3135,-226.1048 258.5107,-230.1144 258.5107,-230.1144"/>
<ellipse fill="none" stroke="#000000" cx="255.315" cy="-230.2801" rx="3.2" ry="3.2"/>
</g>
<!-- prison_configuration_audit -->
<g id="node6" class="node">
<title>prison_configuration_audit</title>
<g id="a_node6"><a xlink:href="../../tables/prison_configuration_audit.html" xlink:title="prison_configuration_audit" target="_top">
<polygon fill="#ffffff" stroke="transparent" points="246,-366.2 246,-427.2 465,-427.2 465,-366.2 246,-366.2"/>
<polygon fill="#f5f5f5" stroke="transparent" points="246.5,-403.7 246.5,-426.7 465.5,-426.7 465.5,-403.7 246.5,-403.7"/>
<polygon fill="none" stroke="#000000" points="246.5,-403.7 246.5,-426.7 465.5,-426.7 465.5,-403.7 246.5,-403.7"/>
<text text-anchor="start" x="251.5" y="-412.3" font-family="Helvetica,sans-Serif" font-weight="bold" font-size="11.00" fill="#000000">prison_configuration_audit</text>
<text text-anchor="start" x="431.0219" y="-411.8" font-family="Helvetica,sans-Serif" font-size="11.00" fill="#000000">[table]</text>
<polygon fill="none" stroke="#000000" points="246.5,-384.7 246.5,-403.7 465.5,-403.7 465.5,-384.7 246.5,-384.7"/>
<text text-anchor="start" x="249.5" y="-390.8" font-family="Helvetica,sans-Serif" font-size="11.00" fill="#000000">...</text>
<polygon fill="#ffffff" stroke="transparent" points="246.5,-365.7 246.5,-384.7 354.5,-384.7 354.5,-365.7 246.5,-365.7"/>
<polygon fill="none" stroke="#000000" points="246.5,-365.7 246.5,-384.7 354.5,-384.7 354.5,-365.7 246.5,-365.7"/>
<text text-anchor="start" x="249.5" y="-371.8" font-family="Helvetica,sans-Serif" font-size="11.00" fill="#000000">&lt; 3</text>
<polygon fill="#ffffff" stroke="transparent" points="354.5,-365.7 354.5,-384.7 409.5,-384.7 409.5,-365.7 354.5,-365.7"/>
<polygon fill="none" stroke="#000000" points="354.5,-365.7 354.5,-384.7 409.5,-384.7 409.5,-365.7 354.5,-365.7"/>
<text text-anchor="start" x="400.3862" y="-371.8" font-family="Helvetica,sans-Serif" font-size="11.00" fill="#000000"> &#160;</text>
<polygon fill="#ffffff" stroke="transparent" points="409.5,-365.7 409.5,-384.7 465.5,-384.7 465.5,-365.7 409.5,-365.7"/>
<polygon fill="none" stroke="#000000" points="409.5,-365.7 409.5,-384.7 465.5,-384.7 465.5,-365.7 409.5,-365.7"/>
<text text-anchor="start" x="456.3862" y="-371.8" font-family="Helvetica,sans-Serif" font-size="11.00" fill="#000000"> &#160;</text>
</a>
</g>
</g>
<!-- prison_configuration_audit&#45;&gt;policy -->
<g id="edge5" class="edge">
<title>prison_configuration_audit:w&#45;&gt;policy:e</title>
<path fill="none" stroke="#000000" stroke-dasharray="5,2" d="M231.9457,-393.0573C188.3546,-389.0535 174.4394,-367.7 124,-367.7"/>
<polygon fill="#000000" stroke="#000000" points="238.5078,-393.347 246.3412,-397.2965 242.5039,-393.5235 246.5,-393.7 246.5,-393.7 246.5,-393.7 242.5039,-393.5235 246.6588,-390.1035 238.5078,-393.347 238.5078,-393.347"/>
<ellipse fill="none" stroke="#000000" cx="235.3109" cy="-393.2058" rx="3.2" ry="3.2"/>
</g>
<!-- prison_configuration_audit&#45;&gt;audit_revision -->
<g id="edge6" class="edge">
<title>prison_configuration_audit:w&#45;&gt;audit_revision:e</title>
<path fill="none" stroke="#000000" d="M232.0398,-395.1271C209.983,-400.0167 203.018,-416.944 183,-437.7 159.5496,-462.0149 175.7807,-501.7 142,-501.7"/>
<polygon fill="#000000" stroke="#000000" points="238.5387,-394.4858 246.8536,-397.2826 242.5193,-394.0929 246.5,-393.7 246.5,-393.7 246.5,-393.7 242.5193,-394.0929 246.1464,-390.1174 238.5387,-394.4858 238.5387,-394.4858"/>
<ellipse fill="none" stroke="#000000" cx="235.3542" cy="-394.8001" rx="3.2" ry="3.2"/>
</g>
<!-- staff_configuration -->
<g id="node7" class="node">
<title>staff_configuration</title>
<g id="a_node7"><a xlink:href="../../tables/staff_configuration.html" xlink:title="staff_configuration" target="_top">
<polygon fill="#ffffff" stroke="transparent" points="272,-120.2 272,-181.2 439,-181.2 439,-120.2 272,-120.2"/>
<polygon fill="#f5f5f5" stroke="transparent" points="272.5,-157.7 272.5,-180.7 439.5,-180.7 439.5,-157.7 272.5,-157.7"/>
<polygon fill="none" stroke="#000000" points="272.5,-157.7 272.5,-180.7 439.5,-180.7 439.5,-157.7 272.5,-157.7"/>
<text text-anchor="start" x="277.5" y="-166.3" font-family="Helvetica,sans-Serif" font-weight="bold" font-size="11.00" fill="#000000">staff_configuration</text>
<text text-anchor="start" x="405.0219" y="-165.8" font-family="Helvetica,sans-Serif" font-size="11.00" fill="#000000">[table]</text>
<polygon fill="none" stroke="#000000" points="272.5,-138.7 272.5,-157.7 439.5,-157.7 439.5,-138.7 272.5,-138.7"/>
<text text-anchor="start" x="275.5" y="-144.8" font-family="Helvetica,sans-Serif" font-size="11.00" fill="#000000">...</text>
<polygon fill="#ffffff" stroke="transparent" points="272.5,-119.7 272.5,-138.7 354.5,-138.7 354.5,-119.7 272.5,-119.7"/>
<polygon fill="none" stroke="#000000" points="272.5,-119.7 272.5,-138.7 354.5,-138.7 354.5,-119.7 272.5,-119.7"/>
<text text-anchor="start" x="275.5" y="-125.8" font-family="Helvetica,sans-Serif" font-size="11.00" fill="#000000">&lt; 2</text>
<polygon fill="#ffffff" stroke="transparent" points="354.5,-119.7 354.5,-138.7 396.5,-138.7 396.5,-119.7 354.5,-119.7"/>
<polygon fill="none" stroke="#000000" points="354.5,-119.7 354.5,-138.7 396.5,-138.7 396.5,-119.7 354.5,-119.7"/>
<text text-anchor="start" x="387.3862" y="-125.8" font-family="Helvetica,sans-Serif" font-size="11.00" fill="#000000"> &#160;</text>
<polygon fill="#ffffff" stroke="transparent" points="396.5,-119.7 396.5,-138.7 439.5,-138.7 439.5,-119.7 396.5,-119.7"/>
<polygon fill="none" stroke="#000000" points="396.5,-119.7 396.5,-138.7 439.5,-138.7 439.5,-119.7 396.5,-119.7"/>
<text text-anchor="start" x="430.3862" y="-125.8" font-family="Helvetica,sans-Serif" font-size="11.00" fill="#000000"> &#160;</text>
</a>
</g>
</g>
<!-- staff_configuration&#45;&gt;policy -->
<g id="edge7" class="edge">
<title>staff_configuration:w&#45;&gt;policy:e</title>
<path fill="none" stroke="#000000" d="M258.0175,-148.1577C224.2458,-150.5052 208.7628,-162.247 183,-191.7 128.6834,-253.7969 206.5004,-367.7 124,-367.7"/>
<polygon fill="#000000" stroke="#000000" points="264.504,-147.9528 272.6137,-151.2982 268.502,-147.8264 272.5,-147.7 272.5,-147.7 272.5,-147.7 268.502,-147.8264 272.3863,-144.1018 264.504,-147.9528 264.504,-147.9528"/>
<ellipse fill="none" stroke="#000000" cx="261.3056" cy="-148.0539" rx="3.2" ry="3.2"/>
</g>
<!-- staff_configuration_audit -->
<g id="node8" class="node">
<title>staff_configuration_audit</title>
<g id="a_node8"><a xlink:href="../../tables/staff_configuration_audit.html" xlink:title="staff_configuration_audit" target="_top">
<polygon fill="#ffffff" stroke="transparent" points="191,-612.7 191,-944.7 520,-944.7 520,-612.7 191,-612.7"/>
<polygon fill="#f5f5f5" stroke="transparent" points="193.5,-919.7 193.5,-942.7 518.5,-942.7 518.5,-919.7 193.5,-919.7"/>
<polygon fill="none" stroke="#000000" points="193.5,-919.7 193.5,-942.7 518.5,-942.7 518.5,-919.7 193.5,-919.7"/>
<text text-anchor="start" x="198.5" y="-928.3" font-family="Helvetica,sans-Serif" font-weight="bold" font-size="11.00" fill="#000000">staff_configuration_audit</text>
<text text-anchor="start" x="483.5437" y="-927.8" font-family="Helvetica,sans-Serif" font-size="11.00" fill="#000000">[table]</text>
<polygon fill="none" stroke="#000000" points="193.5,-897.7 193.5,-919.7 424.5,-919.7 424.5,-897.7 193.5,-897.7"/>
<image xlink:href="../../images/primaryKeys.png" width="11px" height="12px" preserveAspectRatio="xMinYMin meet" x="198.5" y="-914.7"/>
<text text-anchor="start" x="213.5" y="-904.8" font-family="Helvetica,sans-Serif" font-size="11.00" fill="#000000">rev_id</text>
<polygon fill="none" stroke="#000000" points="424.5,-897.7 424.5,-919.7 518.5,-919.7 518.5,-897.7 424.5,-897.7"/>
<text text-anchor="start" x="427.5" y="-905.4" font-family="Helvetica,sans-Serif" font-size="11.00" fill="#000000">int8[19]</text>
<polygon fill="none" stroke="#000000" points="193.5,-875.7 193.5,-897.7 424.5,-897.7 424.5,-875.7 193.5,-875.7"/>
<text text-anchor="start" x="213.5" y="-882.8" font-family="Helvetica,sans-Serif" font-size="11.00" fill="#000000">rev_type</text>
<polygon fill="none" stroke="#000000" points="424.5,-875.7 424.5,-897.7 518.5,-897.7 518.5,-875.7 424.5,-875.7"/>
<text text-anchor="start" x="427.5" y="-883.4" font-family="Helvetica,sans-Serif" font-size="11.00" fill="#000000">int2[5]</text>
<polygon fill="none" stroke="#000000" points="193.5,-853.7 193.5,-875.7 424.5,-875.7 424.5,-853.7 193.5,-853.7"/>
<image xlink:href="../../images/primaryKeys.png" width="11px" height="12px" preserveAspectRatio="xMinYMin meet" x="198.5" y="-870.7"/>
<text text-anchor="start" x="213.5" y="-860.8" font-family="Helvetica,sans-Serif" font-size="11.00" fill="#000000">id</text>
<polygon fill="none" stroke="#000000" points="424.5,-853.7 424.5,-875.7 518.5,-875.7 518.5,-853.7 424.5,-853.7"/>
<text text-anchor="start" x="427.4758" y="-861.4" font-family="Helvetica,sans-Serif" font-size="11.00" fill="#000000">uuid[2147483647]</text>
<polygon fill="none" stroke="#000000" points="193.5,-831.7 193.5,-853.7 424.5,-853.7 424.5,-831.7 193.5,-831.7"/>
<text text-anchor="start" x="213.5" y="-838.8" font-family="Helvetica,sans-Serif" font-size="11.00" fill="#000000">staff_id</text>
<polygon fill="none" stroke="#000000" points="424.5,-831.7 424.5,-853.7 518.5,-853.7 518.5,-831.7 424.5,-831.7"/>
<text text-anchor="start" x="427.5" y="-839.4" font-family="Helvetica,sans-Serif" font-size="11.00" fill="#000000">int8[19]</text>
<polygon fill="none" stroke="#000000" points="193.5,-809.7 193.5,-831.7 424.5,-831.7 424.5,-809.7 193.5,-809.7"/>
<text text-anchor="start" x="213.5" y="-816.8" font-family="Helvetica,sans-Serif" font-size="11.00" fill="#000000">capacity</text>
<polygon fill="none" stroke="#000000" points="424.5,-809.7 424.5,-831.7 518.5,-831.7 518.5,-809.7 424.5,-809.7"/>
<text text-anchor="start" x="427.5" y="-817.4" font-family="Helvetica,sans-Serif" font-size="11.00" fill="#000000">int4[10]</text>
<polygon fill="none" stroke="#000000" points="193.5,-787.7 193.5,-809.7 424.5,-809.7 424.5,-787.7 193.5,-787.7"/>
<text text-anchor="start" x="213.5" y="-794.8" font-family="Helvetica,sans-Serif" font-size="11.00" fill="#000000">reactivate_on</text>
<polygon fill="none" stroke="#000000" points="424.5,-787.7 424.5,-809.7 518.5,-809.7 518.5,-787.7 424.5,-787.7"/>
<text text-anchor="start" x="427.5" y="-795.4" font-family="Helvetica,sans-Serif" font-size="11.00" fill="#000000">date[13]</text>
<polygon fill="none" stroke="#000000" points="193.5,-765.7 193.5,-787.7 424.5,-787.7 424.5,-765.7 193.5,-765.7"/>
<text text-anchor="start" x="213.5" y="-772.8" font-family="Helvetica,sans-Serif" font-size="11.00" fill="#000000">status_id</text>
<polygon fill="none" stroke="#000000" points="424.5,-765.7 424.5,-787.7 518.5,-787.7 518.5,-765.7 424.5,-765.7"/>
<text text-anchor="start" x="427.5" y="-773.4" font-family="Helvetica,sans-Serif" font-size="11.00" fill="#000000">int8[19]</text>
<polygon fill="none" stroke="#000000" points="193.5,-743.7 193.5,-765.7 424.5,-765.7 424.5,-743.7 193.5,-743.7"/>
<text text-anchor="start" x="213.5" y="-750.8" font-family="Helvetica,sans-Serif" font-size="11.00" fill="#000000">allow_auto_allocation</text>
<polygon fill="none" stroke="#000000" points="424.5,-743.7 424.5,-765.7 518.5,-765.7 518.5,-743.7 424.5,-743.7"/>
<text text-anchor="start" x="427.5" y="-751.4" font-family="Helvetica,sans-Serif" font-size="11.00" fill="#000000">bool[1]</text>
<polygon fill="none" stroke="#000000" points="193.5,-721.7 193.5,-743.7 424.5,-743.7 424.5,-721.7 193.5,-721.7"/>
<image xlink:href="../../images/foreignKeys.png" width="11px" height="12px" preserveAspectRatio="xMinYMin meet" x="198.5" y="-738.7"/>
<text text-anchor="start" x="213.5" y="-728.8" font-family="Helvetica,sans-Serif" font-size="11.00" fill="#000000">policy_code</text>
<polygon fill="none" stroke="#000000" points="424.5,-721.7 424.5,-743.7 518.5,-743.7 518.5,-721.7 424.5,-721.7"/>
<text text-anchor="start" x="427.5" y="-729.4" font-family="Helvetica,sans-Serif" font-size="11.00" fill="#000000">varchar[16]</text>
<polygon fill="none" stroke="#000000" points="193.5,-699.7 193.5,-721.7 424.5,-721.7 424.5,-699.7 193.5,-699.7"/>
<text text-anchor="start" x="213.5" y="-706.8" font-family="Helvetica,sans-Serif" font-size="11.00" fill="#000000">capacity_modified</text>
<polygon fill="none" stroke="#000000" points="424.5,-699.7 424.5,-721.7 518.5,-721.7 518.5,-699.7 424.5,-699.7"/>
<text text-anchor="start" x="427.5" y="-707.4" font-family="Helvetica,sans-Serif" font-size="11.00" fill="#000000">bool[1]</text>
<polygon fill="none" stroke="#000000" points="193.5,-677.7 193.5,-699.7 424.5,-699.7 424.5,-677.7 193.5,-677.7"/>
<text text-anchor="start" x="213.5" y="-684.8" font-family="Helvetica,sans-Serif" font-size="11.00" fill="#000000">reactivate_on_modified</text>
<polygon fill="none" stroke="#000000" points="424.5,-677.7 424.5,-699.7 518.5,-699.7 518.5,-677.7 424.5,-677.7"/>
<text text-anchor="start" x="427.5" y="-685.4" font-family="Helvetica,sans-Serif" font-size="11.00" fill="#000000">bool[1]</text>
<polygon fill="none" stroke="#000000" points="193.5,-655.7 193.5,-677.7 424.5,-677.7 424.5,-655.7 193.5,-655.7"/>
<text text-anchor="start" x="213.5" y="-662.8" font-family="Helvetica,sans-Serif" font-size="11.00" fill="#000000">status_modified</text>
<polygon fill="none" stroke="#000000" points="424.5,-655.7 424.5,-677.7 518.5,-677.7 518.5,-655.7 424.5,-655.7"/>
<text text-anchor="start" x="427.5" y="-663.4" font-family="Helvetica,sans-Serif" font-size="11.00" fill="#000000">bool[1]</text>
<polygon fill="none" stroke="#000000" points="193.5,-633.7 193.5,-655.7 424.5,-655.7 424.5,-633.7 193.5,-633.7"/>
<text text-anchor="start" x="213.5" y="-640.8" font-family="Helvetica,sans-Serif" font-size="11.00" fill="#000000">allow_auto_allocation_modified</text>
<polygon fill="none" stroke="#000000" points="424.5,-633.7 424.5,-655.7 518.5,-655.7 518.5,-633.7 424.5,-633.7"/>
<text text-anchor="start" x="427.5" y="-641.4" font-family="Helvetica,sans-Serif" font-size="11.00" fill="#000000">bool[1]</text>
<polygon fill="#ffffff" stroke="transparent" points="193.5,-614.7 193.5,-633.7 313.5,-633.7 313.5,-614.7 193.5,-614.7"/>
<polygon fill="none" stroke="#000000" points="193.5,-614.7 193.5,-633.7 313.5,-633.7 313.5,-614.7 193.5,-614.7"/>
<text text-anchor="start" x="196.5" y="-620.8" font-family="Helvetica,sans-Serif" font-size="11.00" fill="#000000">&lt; 2</text>
<polygon fill="#ffffff" stroke="transparent" points="313.5,-614.7 313.5,-633.7 424.5,-633.7 424.5,-614.7 313.5,-614.7"/>
<polygon fill="none" stroke="#000000" points="313.5,-614.7 313.5,-633.7 424.5,-633.7 424.5,-614.7 313.5,-614.7"/>
<text text-anchor="start" x="415.3862" y="-620.8" font-family="Helvetica,sans-Serif" font-size="11.00" fill="#000000"> &#160;</text>
<polygon fill="#ffffff" stroke="transparent" points="424.5,-614.7 424.5,-633.7 518.5,-633.7 518.5,-614.7 424.5,-614.7"/>
<polygon fill="none" stroke="#000000" points="424.5,-614.7 424.5,-633.7 518.5,-633.7 518.5,-614.7 424.5,-614.7"/>
<text text-anchor="start" x="499.9053" y="-620.8" font-family="Helvetica,sans-Serif" font-size="11.00" fill="#000000">0 &gt;</text>
<polygon fill="none" stroke="#000000" stroke-width="2" points="192,-613.7 192,-943.7 519,-943.7 519,-613.7 192,-613.7"/>
</a>
</g>
</g>
<!-- staff_configuration_audit&#45;&gt;policy -->
<g id="edge8" class="edge">
<title>staff_configuration_audit:w&#45;&gt;policy:e</title>
<path fill="none" stroke="#000000" stroke-dasharray="5,2" d="M179.6601,-728.3466C122.5195,-687.1655 201.2466,-367.7 124,-367.7"/>
<polygon fill="#000000" stroke="#000000" points="185.8686,-730.2995 192.4198,-736.1341 189.6843,-731.4997 193.5,-732.7 193.5,-732.7 193.5,-732.7 189.6843,-731.4997 194.5802,-729.2659 185.8686,-730.2995 185.8686,-730.2995"/>
<ellipse fill="none" stroke="#000000" cx="182.8161" cy="-729.3393" rx="3.2" ry="3.2"/>
</g>
<!-- staff_configuration_audit&#45;&gt;audit_revision -->
<g id="edge9" class="edge">
<title>staff_configuration_audit:w&#45;&gt;audit_revision:e</title>
<path fill="none" stroke="#000000" d="M179.672,-904.6718C116.904,-862.402 227.8239,-501.7 142,-501.7"/>
<polygon fill="#000000" stroke="#000000" points="185.8193,-906.4625 192.4931,-912.1563 189.6596,-907.5812 193.5,-908.7 193.5,-908.7 193.5,-908.7 189.6596,-907.5812 194.5069,-905.2437 185.8193,-906.4625 185.8193,-906.4625"/>
<ellipse fill="none" stroke="#000000" cx="182.747" cy="-905.5675" rx="3.2" ry="3.2"/>
</g>
<!-- staff_role -->
<g id="node9" class="node">
<title>staff_role</title>
<g id="a_node9"><a xlink:href="../../tables/staff_role.html" xlink:title="staff_role" target="_top">
<polygon fill="#ffffff" stroke="transparent" points="304.5,-38.2 304.5,-99.2 406.5,-99.2 406.5,-38.2 304.5,-38.2"/>
<polygon fill="#f5f5f5" stroke="transparent" points="304.5,-75.7 304.5,-98.7 406.5,-98.7 406.5,-75.7 304.5,-75.7"/>
<polygon fill="none" stroke="#000000" points="304.5,-75.7 304.5,-98.7 406.5,-98.7 406.5,-75.7 304.5,-75.7"/>
<text text-anchor="start" x="309.5" y="-84.3" font-family="Helvetica,sans-Serif" font-weight="bold" font-size="11.00" fill="#000000">staff_role</text>
<text text-anchor="start" x="372.0219" y="-83.8" font-family="Helvetica,sans-Serif" font-size="11.00" fill="#000000">[table]</text>
<polygon fill="none" stroke="#000000" points="304.5,-56.7 304.5,-75.7 406.5,-75.7 406.5,-56.7 304.5,-56.7"/>
<text text-anchor="start" x="307.5" y="-62.8" font-family="Helvetica,sans-Serif" font-size="11.00" fill="#000000">...</text>
<polygon fill="#ffffff" stroke="transparent" points="304.5,-37.7 304.5,-56.7 353.5,-56.7 353.5,-37.7 304.5,-37.7"/>
<polygon fill="none" stroke="#000000" points="304.5,-37.7 304.5,-56.7 353.5,-56.7 353.5,-37.7 304.5,-37.7"/>
<text text-anchor="start" x="307.5" y="-43.8" font-family="Helvetica,sans-Serif" font-size="11.00" fill="#000000">&lt; 2</text>
<polygon fill="#ffffff" stroke="transparent" points="353.5,-37.7 353.5,-56.7 379.5,-56.7 379.5,-37.7 353.5,-37.7"/>
<polygon fill="none" stroke="#000000" points="353.5,-37.7 353.5,-56.7 379.5,-56.7 379.5,-37.7 353.5,-37.7"/>
<text text-anchor="start" x="370.3862" y="-43.8" font-family="Helvetica,sans-Serif" font-size="11.00" fill="#000000"> &#160;</text>
<polygon fill="#ffffff" stroke="transparent" points="379.5,-37.7 379.5,-56.7 406.5,-56.7 406.5,-37.7 379.5,-37.7"/>
<polygon fill="none" stroke="#000000" points="379.5,-37.7 379.5,-56.7 406.5,-56.7 406.5,-37.7 379.5,-37.7"/>
<text text-anchor="start" x="397.3862" y="-43.8" font-family="Helvetica,sans-Serif" font-size="11.00" fill="#000000"> &#160;</text>
</a>
</g>
</g>
<!-- staff_role&#45;&gt;policy -->
<g id="edge10" class="edge">
<title>staff_role:w&#45;&gt;policy:e</title>
<path fill="none" stroke="#000000" stroke-dasharray="5,2" d="M290.0552,-65.7505C242.401,-66.1966 217.7018,-70.4586 183,-109.7 105.0784,-197.8151 241.6267,-367.7 124,-367.7"/>
<polygon fill="#000000" stroke="#000000" points="296.5,-65.728 304.5126,-69.3 300.5,-65.714 304.5,-65.7 304.5,-65.7 304.5,-65.7 300.5,-65.714 304.4874,-62.1 296.5,-65.728 296.5,-65.728"/>
<ellipse fill="none" stroke="#000000" cx="293.3001" cy="-65.7393" rx="3.2" ry="3.2"/>
</g>
<!-- staff_role_audit -->
<g id="node10" class="node">
<title>staff_role_audit</title>
<g id="a_node10"><a xlink:href="../../tables/staff_role_audit.html" xlink:title="staff_role_audit" target="_top">
<polygon fill="#ffffff" stroke="transparent" points="284,-530.2 284,-591.2 427,-591.2 427,-530.2 284,-530.2"/>
<polygon fill="#f5f5f5" stroke="transparent" points="284.5,-567.7 284.5,-590.7 427.5,-590.7 427.5,-567.7 284.5,-567.7"/>
<polygon fill="none" stroke="#000000" points="284.5,-567.7 284.5,-590.7 427.5,-590.7 427.5,-567.7 284.5,-567.7"/>
<text text-anchor="start" x="289.5" y="-576.3" font-family="Helvetica,sans-Serif" font-weight="bold" font-size="11.00" fill="#000000">staff_role_audit</text>
<text text-anchor="start" x="393.0219" y="-575.8" font-family="Helvetica,sans-Serif" font-size="11.00" fill="#000000">[table]</text>
<polygon fill="none" stroke="#000000" points="284.5,-548.7 284.5,-567.7 427.5,-567.7 427.5,-548.7 284.5,-548.7"/>
<text text-anchor="start" x="287.5" y="-554.8" font-family="Helvetica,sans-Serif" font-size="11.00" fill="#000000">...</text>
<polygon fill="#ffffff" stroke="transparent" points="284.5,-529.7 284.5,-548.7 354.5,-548.7 354.5,-529.7 284.5,-529.7"/>
<polygon fill="none" stroke="#000000" points="284.5,-529.7 284.5,-548.7 354.5,-548.7 354.5,-529.7 284.5,-529.7"/>
<text text-anchor="start" x="287.5" y="-535.8" font-family="Helvetica,sans-Serif" font-size="11.00" fill="#000000">&lt; 3</text>
<polygon fill="#ffffff" stroke="transparent" points="354.5,-529.7 354.5,-548.7 390.5,-548.7 390.5,-529.7 354.5,-529.7"/>
<polygon fill="none" stroke="#000000" points="354.5,-529.7 354.5,-548.7 390.5,-548.7 390.5,-529.7 354.5,-529.7"/>
<text text-anchor="start" x="381.3862" y="-535.8" font-family="Helvetica,sans-Serif" font-size="11.00" fill="#000000"> &#160;</text>
<polygon fill="#ffffff" stroke="transparent" points="390.5,-529.7 390.5,-548.7 427.5,-548.7 427.5,-529.7 390.5,-529.7"/>
<polygon fill="none" stroke="#000000" points="390.5,-529.7 390.5,-548.7 427.5,-548.7 427.5,-529.7 390.5,-529.7"/>
<text text-anchor="start" x="418.3862" y="-535.8" font-family="Helvetica,sans-Serif" font-size="11.00" fill="#000000"> &#160;</text>
</a>
</g>
</g>
<!-- staff_role_audit&#45;&gt;policy -->
<g id="edge11" class="edge">
<title>staff_role_audit:w&#45;&gt;policy:e</title>
<path fill="none" stroke="#000000" stroke-dasharray="5,2" d="M269.6811,-557.5178C231.9785,-556.4379 213.5171,-549.8523 183,-519.7 131.4514,-468.7676 196.4663,-367.7 124,-367.7"/>
<polygon fill="#000000" stroke="#000000" points="276.5006,-557.6016 284.4557,-561.2997 280.5003,-557.6508 284.5,-557.7 284.5,-557.7 284.5,-557.7 280.5003,-557.6508 284.5443,-554.1003 276.5006,-557.6016 276.5006,-557.6016"/>
<ellipse fill="none" stroke="#000000" cx="273.3008" cy="-557.5622" rx="3.2" ry="3.2"/>
</g>
<!-- staff_role_audit&#45;&gt;audit_revision -->
<g id="edge12" class="edge">
<title>staff_role_audit:w&#45;&gt;audit_revision:e</title>
<path fill="none" stroke="#000000" d="M270.0122,-557.0153C233.997,-553.3749 222.7446,-535.8498 183,-519.7 164.563,-512.2083 161.901,-501.7 142,-501.7"/>
<polygon fill="#000000" stroke="#000000" points="276.5089,-557.3223 284.33,-561.296 280.5045,-557.5111 284.5,-557.7 284.5,-557.7 284.5,-557.7 280.5045,-557.5111 284.67,-554.104 276.5089,-557.3223 276.5089,-557.3223"/>
<ellipse fill="none" stroke="#000000" cx="273.3125" cy="-557.1712" rx="3.2" ry="3.2"/>
</g>
</g>
</svg>
