<?xml version="1.0" encoding="UTF-8" standalone="no"?>
<!DOCTYPE svg PUBLIC "-//W3C//DTD SVG 1.1//EN"
 "http://www.w3.org/Graphics/SVG/1.1/DTD/svg11.dtd">
<!-- Generated by graphviz version 2.40.1 (20161225.0304)
 -->
<!-- Title: twoDegreesRelationshipsDiagram Pages: 1 -->
<svg width="532pt" height="661pt"
 viewBox="0.00 0.00 532.00 661.20" xmlns="http://www.w3.org/2000/svg" xmlns:xlink="http://www.w3.org/1999/xlink">
<g id="graph0" class="graph" transform="scale(1 1) rotate(0) translate(4 657.2)">
<title>twoDegreesRelationshipsDiagram</title>
<polygon fill="#ffffff" stroke="transparent" points="-4,4 -4,-657.2 528,-657.2 528,4 -4,4"/>
<text text-anchor="middle" x="72.4936" y="-7.3" font-family="Helvetica,sans-Serif" font-size="11.00" fill="#000000">Generated by SchemaSpy</text>
<!-- allocation -->
<g id="node1" class="node">
<title>allocation</title>
<g id="a_node1"><a xlink:href="../../tables/allocation.html" xlink:title="allocation" target="_top">
<polygon fill="#ffffff" stroke="transparent" points="305.5,-506.2 305.5,-567.2 410.5,-567.2 410.5,-506.2 305.5,-506.2"/>
<polygon fill="#f5f5f5" stroke="transparent" points="306,-543.7 306,-566.7 411,-566.7 411,-543.7 306,-543.7"/>
<polygon fill="none" stroke="#000000" points="306,-543.7 306,-566.7 411,-566.7 411,-543.7 306,-543.7"/>
<text text-anchor="start" x="311" y="-552.3" font-family="Helvetica,sans-Serif" font-weight="bold" font-size="11.00" fill="#000000">allocation</text>
<text text-anchor="start" x="376.5219" y="-551.8" font-family="Helvetica,sans-Serif" font-size="11.00" fill="#000000">[table]</text>
<polygon fill="none" stroke="#000000" points="306,-524.7 306,-543.7 411,-543.7 411,-524.7 306,-524.7"/>
<text text-anchor="start" x="309" y="-530.8" font-family="Helvetica,sans-Serif" font-size="11.00" fill="#000000">...</text>
<polygon fill="#ffffff" stroke="transparent" points="306,-505.7 306,-524.7 357,-524.7 357,-505.7 306,-505.7"/>
<polygon fill="none" stroke="#000000" points="306,-505.7 306,-524.7 357,-524.7 357,-505.7 306,-505.7"/>
<text text-anchor="start" x="309" y="-511.8" font-family="Helvetica,sans-Serif" font-size="11.00" fill="#000000">&lt; 3</text>
<polygon fill="#ffffff" stroke="transparent" points="357,-505.7 357,-524.7 384,-524.7 384,-505.7 357,-505.7"/>
<polygon fill="none" stroke="#000000" points="357,-505.7 357,-524.7 384,-524.7 384,-505.7 357,-505.7"/>
<text text-anchor="start" x="374.8862" y="-511.8" font-family="Helvetica,sans-Serif" font-size="11.00" fill="#000000"> &#160;</text>
<polygon fill="#ffffff" stroke="transparent" points="384,-505.7 384,-524.7 411,-524.7 411,-505.7 384,-505.7"/>
<polygon fill="none" stroke="#000000" points="384,-505.7 384,-524.7 411,-524.7 411,-505.7 384,-505.7"/>
<text text-anchor="start" x="401.8862" y="-511.8" font-family="Helvetica,sans-Serif" font-size="11.00" fill="#000000"> &#160;</text>
</a>
</g>
</g>
<!-- reference_data -->
<g id="node2" class="node">
<title>reference_data</title>
<g id="a_node2"><a xlink:href="../../tables/reference_data.html" xlink:title="reference_data" target="_top">
<polygon fill="#ffffff" stroke="transparent" points="8,-419.2 8,-568.2 151,-568.2 151,-419.2 8,-419.2"/>
<polygon fill="#f5f5f5" stroke="transparent" points="8.5,-544.7 8.5,-567.7 151.5,-567.7 151.5,-544.7 8.5,-544.7"/>
<polygon fill="none" stroke="#000000" points="8.5,-544.7 8.5,-567.7 151.5,-567.7 151.5,-544.7 8.5,-544.7"/>
<text text-anchor="start" x="13.5" y="-553.3" font-family="Helvetica,sans-Serif" font-weight="bold" font-size="11.00" fill="#000000">reference_data</text>
<text text-anchor="start" x="116.5437" y="-552.8" font-family="Helvetica,sans-Serif" font-size="11.00" fill="#000000">[table]</text>
<polygon fill="none" stroke="#000000" points="8.5,-522.7 8.5,-544.7 151.5,-544.7 151.5,-522.7 8.5,-522.7"/>
<image xlink:href="../../images/primaryKeys.png" width="11px" height="12px" preserveAspectRatio="xMinYMin meet" x="13.5" y="-539.7"/>
<text text-anchor="start" x="28.5" y="-529.8" font-family="Helvetica,sans-Serif" font-size="11.00" fill="#000000">id</text>
<polygon fill="#ffffff" stroke="transparent" points="8.5,-500.7 8.5,-522.7 151.5,-522.7 151.5,-500.7 8.5,-500.7"/>
<polygon fill="none" stroke="#000000" points="8.5,-500.7 8.5,-522.7 151.5,-522.7 151.5,-500.7 8.5,-500.7"/>
<text text-anchor="start" x="28.5" y="-507.8" font-family="Helvetica,sans-Serif" font-size="11.00" fill="#000000">domain</text>
<polygon fill="#ffffff" stroke="transparent" points="8.5,-478.7 8.5,-500.7 151.5,-500.7 151.5,-478.7 8.5,-478.7"/>
<polygon fill="none" stroke="#000000" points="8.5,-478.7 8.5,-500.7 151.5,-500.7 151.5,-478.7 8.5,-478.7"/>
<text text-anchor="start" x="28.5" y="-485.8" font-family="Helvetica,sans-Serif" font-size="11.00" fill="#000000">code</text>
<polygon fill="#ffffff" stroke="transparent" points="8.5,-456.7 8.5,-478.7 151.5,-478.7 151.5,-456.7 8.5,-456.7"/>
<polygon fill="none" stroke="#000000" points="8.5,-456.7 8.5,-478.7 151.5,-478.7 151.5,-456.7 8.5,-456.7"/>
<text text-anchor="start" x="28.5" y="-463.8" font-family="Helvetica,sans-Serif" font-size="11.00" fill="#000000">sequence_number</text>
<polygon fill="none" stroke="#000000" points="8.5,-437.7 8.5,-456.7 151.5,-456.7 151.5,-437.7 8.5,-437.7"/>
<text text-anchor="start" x="11.5" y="-443.8" font-family="Helvetica,sans-Serif" font-size="11.00" fill="#000000">...</text>
<polygon fill="#ffffff" stroke="transparent" points="8.5,-418.7 8.5,-437.7 69.5,-437.7 69.5,-418.7 8.5,-418.7"/>
<polygon fill="none" stroke="#000000" points="8.5,-418.7 8.5,-437.7 69.5,-437.7 69.5,-418.7 8.5,-418.7"/>
<text text-anchor="start" x="11.5" y="-424.8" font-family="Helvetica,sans-Serif" font-size="11.00" fill="#000000"> &#160;</text>
<polygon fill="#ffffff" stroke="transparent" points="69.5,-418.7 69.5,-437.7 105.5,-437.7 105.5,-418.7 69.5,-418.7"/>
<polygon fill="none" stroke="#000000" points="69.5,-418.7 69.5,-437.7 105.5,-437.7 105.5,-418.7 69.5,-418.7"/>
<text text-anchor="start" x="96.3862" y="-424.8" font-family="Helvetica,sans-Serif" font-size="11.00" fill="#000000"> &#160;</text>
<polygon fill="#ffffff" stroke="transparent" points="105.5,-418.7 105.5,-437.7 151.5,-437.7 151.5,-418.7 105.5,-418.7"/>
<polygon fill="none" stroke="#000000" points="105.5,-418.7 105.5,-437.7 151.5,-437.7 151.5,-418.7 105.5,-418.7"/>
<text text-anchor="start" x="132.9053" y="-424.8" font-family="Helvetica,sans-Serif" font-size="11.00" fill="#000000">6 &gt;</text>
</a>
</g>
</g>
<!-- allocation&#45;&gt;reference_data -->
<g id="edge1" class="edge">
<title>allocation:w&#45;&gt;reference_data:e</title>
<path fill="none" stroke="#000000" d="M291.5199,-532.4632C234.5015,-527.7331 215.0703,-528.1453 151.5,-533.7"/>
<polygon fill="#000000" stroke="#000000" points="298.029,-533.0191 305.6936,-537.2869 302.0145,-533.3596 306,-533.7 306,-533.7 306,-533.7 302.0145,-533.3596 306.3064,-530.1131 298.029,-533.0191 298.029,-533.0191"/>
<ellipse fill="none" stroke="#000000" cx="294.8406" cy="-532.7468" rx="3.2" ry="3.2"/>
</g>
<!-- allocation&#45;&gt;reference_data -->
<g id="edge2" class="edge">
<title>allocation:w&#45;&gt;reference_data:e</title>
<path fill="none" stroke="#000000" d="M291.5199,-535.1429C234.5015,-540.6614 215.0703,-540.1805 151.5,-533.7"/>
<polygon fill="#000000" stroke="#000000" points="298.0394,-534.4933 306.357,-537.2823 302.0197,-534.0967 306,-533.7 306,-533.7 306,-533.7 302.0197,-534.0967 305.643,-530.1177 298.0394,-534.4933 298.0394,-534.4933"/>
<ellipse fill="none" stroke="#000000" cx="294.8552" cy="-534.8106" rx="3.2" ry="3.2"/>
</g>
<!-- policy -->
<g id="node3" class="node">
<title>policy</title>
<g id="a_node3"><a xlink:href="../../tables/policy.html" xlink:title="policy" target="_top">
<polygon fill="#ffffff" stroke="transparent" points="31,-208.2 31,-291.2 128,-291.2 128,-208.2 31,-208.2"/>
<polygon fill="#f5f5f5" stroke="transparent" points="31.5,-267.7 31.5,-290.7 128.5,-290.7 128.5,-267.7 31.5,-267.7"/>
<polygon fill="none" stroke="#000000" points="31.5,-267.7 31.5,-290.7 128.5,-290.7 128.5,-267.7 31.5,-267.7"/>
<text text-anchor="start" x="36.5" y="-276.3" font-family="Helvetica,sans-Serif" font-weight="bold" font-size="11.00" fill="#000000">policy</text>
<text text-anchor="start" x="93.5437" y="-275.8" font-family="Helvetica,sans-Serif" font-size="11.00" fill="#000000">[table]</text>
<polygon fill="none" stroke="#000000" points="31.5,-245.7 31.5,-267.7 128.5,-267.7 128.5,-245.7 31.5,-245.7"/>
<image xlink:href="../../images/primaryKeys.png" width="11px" height="12px" preserveAspectRatio="xMinYMin meet" x="36.5" y="-262.7"/>
<text text-anchor="start" x="51.5" y="-252.8" font-family="Helvetica,sans-Serif" font-size="11.00" fill="#000000">code</text>
<polygon fill="none" stroke="#000000" points="31.5,-226.7 31.5,-245.7 128.5,-245.7 128.5,-226.7 31.5,-226.7"/>
<text text-anchor="start" x="34.5" y="-232.8" font-family="Helvetica,sans-Serif" font-size="11.00" fill="#000000">...</text>
<polygon fill="#ffffff" stroke="transparent" points="31.5,-207.7 31.5,-226.7 69.5,-226.7 69.5,-207.7 31.5,-207.7"/>
<polygon fill="none" stroke="#000000" points="31.5,-207.7 31.5,-226.7 69.5,-226.7 69.5,-207.7 31.5,-207.7"/>
<text text-anchor="start" x="34.5" y="-213.8" font-family="Helvetica,sans-Serif" font-size="11.00" fill="#000000"> &#160;</text>
<polygon fill="#ffffff" stroke="transparent" points="69.5,-207.7 69.5,-226.7 94.5,-226.7 94.5,-207.7 69.5,-207.7"/>
<polygon fill="none" stroke="#000000" points="69.5,-207.7 69.5,-226.7 94.5,-226.7 94.5,-207.7 69.5,-207.7"/>
<text text-anchor="start" x="85.3862" y="-213.8" font-family="Helvetica,sans-Serif" font-size="11.00" fill="#000000"> &#160;</text>
<polygon fill="#ffffff" stroke="transparent" points="94.5,-207.7 94.5,-226.7 128.5,-226.7 128.5,-207.7 94.5,-207.7"/>
<polygon fill="none" stroke="#000000" points="94.5,-207.7 94.5,-226.7 128.5,-226.7 128.5,-207.7 94.5,-207.7"/>
<text text-anchor="start" x="109.9053" y="-213.8" font-family="Helvetica,sans-Serif" font-size="11.00" fill="#000000">5 &gt;</text>
</a>
</g>
</g>
<!-- allocation&#45;&gt;policy -->
<g id="edge3" class="edge">
<title>allocation:w&#45;&gt;policy:e</title>
<path fill="none" stroke="#000000" d="M291.437,-533.6895C247.8805,-533.5109 225.0745,-530.8936 192,-495.7 116.7322,-415.6099 238.4075,-256.7 128.5,-256.7"/>
<polygon fill="#000000" stroke="#000000" points="298,-533.6942 305.9974,-537.3 302,-533.6971 306,-533.7 306,-533.7 306,-533.7 302,-533.6971 306.0026,-530.1 298,-533.6942 298,-533.6942"/>
<ellipse fill="none" stroke="#000000" cx="294.8" cy="-533.6919" rx="3.2" ry="3.2"/>
</g>
<!-- prison_configuration -->
<g id="node4" class="node">
<title>prison_configuration</title>
<g id="a_node4"><a xlink:href="../../tables/prison_configuration.html" xlink:title="prison_configuration" target="_top">
<polygon fill="#ffffff" stroke="transparent" points="269,-120.2 269,-181.2 447,-181.2 447,-120.2 269,-120.2"/>
<polygon fill="#f5f5f5" stroke="transparent" points="269,-157.7 269,-180.7 447,-180.7 447,-157.7 269,-157.7"/>
<polygon fill="none" stroke="#000000" points="269,-157.7 269,-180.7 447,-180.7 447,-157.7 269,-157.7"/>
<text text-anchor="start" x="274" y="-166.3" font-family="Helvetica,sans-Serif" font-weight="bold" font-size="11.00" fill="#000000">prison_configuration</text>
<text text-anchor="start" x="412.5219" y="-165.8" font-family="Helvetica,sans-Serif" font-size="11.00" fill="#000000">[table]</text>
<polygon fill="none" stroke="#000000" points="269,-138.7 269,-157.7 447,-157.7 447,-138.7 269,-138.7"/>
<text text-anchor="start" x="272" y="-144.8" font-family="Helvetica,sans-Serif" font-size="11.00" fill="#000000">...</text>
<polygon fill="#ffffff" stroke="transparent" points="269,-119.7 269,-138.7 340,-138.7 340,-119.7 269,-119.7"/>
<polygon fill="none" stroke="#000000" points="269,-119.7 269,-138.7 340,-138.7 340,-119.7 269,-119.7"/>
<text text-anchor="start" x="272" y="-125.8" font-family="Helvetica,sans-Serif" font-size="11.00" fill="#000000">&lt; 1</text>
<polygon fill="#ffffff" stroke="transparent" points="340,-119.7 340,-138.7 409,-138.7 409,-119.7 340,-119.7"/>
<polygon fill="none" stroke="#000000" points="340,-119.7 340,-138.7 409,-138.7 409,-119.7 340,-119.7"/>
<text text-anchor="start" x="367.4956" y="-125.8" font-family="Helvetica,sans-Serif" font-size="11.00" fill="#000000">12 rows</text>
<polygon fill="#ffffff" stroke="transparent" points="409,-119.7 409,-138.7 447,-138.7 447,-119.7 409,-119.7"/>
<polygon fill="none" stroke="#000000" points="409,-119.7 409,-138.7 447,-138.7 447,-119.7 409,-119.7"/>
<text text-anchor="start" x="437.8862" y="-125.8" font-family="Helvetica,sans-Serif" font-size="11.00" fill="#000000"> &#160;</text>
</a>
</g>
</g>
<!-- prison_configuration&#45;&gt;policy -->
<g id="edge4" class="edge">
<title>prison_configuration:w&#45;&gt;policy:e</title>
<path fill="none" stroke="#000000" d="M254.5371,-148.7754C227.371,-153.2182 218.9202,-170.8886 192,-191.7 160.0483,-216.4012 168.8864,-256.7 128.5,-256.7"/>
<polygon fill="#000000" stroke="#000000" points="261.022,-148.2933 269.267,-151.2901 265.011,-147.9966 269,-147.7 269,-147.7 269,-147.7 265.011,-147.9966 268.733,-144.1099 261.022,-148.2933 261.022,-148.2933"/>
<ellipse fill="none" stroke="#000000" cx="257.8308" cy="-148.5306" rx="3.2" ry="3.2"/>
</g>
<!-- prison_statistic -->
<g id="node5" class="node">
<title>prison_statistic</title>
<g id="a_node5"><a xlink:href="../../tables/prison_statistic.html" xlink:title="prison_statistic" target="_top">
<polygon fill="#ffffff" stroke="transparent" points="287,-38.2 287,-99.2 429,-99.2 429,-38.2 287,-38.2"/>
<polygon fill="#f5f5f5" stroke="transparent" points="287,-75.7 287,-98.7 429,-98.7 429,-75.7 287,-75.7"/>
<polygon fill="none" stroke="#000000" points="287,-75.7 287,-98.7 429,-98.7 429,-75.7 287,-75.7"/>
<text text-anchor="start" x="292" y="-84.3" font-family="Helvetica,sans-Serif" font-weight="bold" font-size="11.00" fill="#000000">prison_statistic</text>
<text text-anchor="start" x="394.5219" y="-83.8" font-family="Helvetica,sans-Serif" font-size="11.00" fill="#000000">[table]</text>
<polygon fill="none" stroke="#000000" points="287,-56.7 287,-75.7 429,-75.7 429,-56.7 287,-56.7"/>
<text text-anchor="start" x="290" y="-62.8" font-family="Helvetica,sans-Serif" font-size="11.00" fill="#000000">...</text>
<polygon fill="#ffffff" stroke="transparent" points="287,-37.7 287,-56.7 356,-56.7 356,-37.7 287,-37.7"/>
<polygon fill="none" stroke="#000000" points="287,-37.7 287,-56.7 356,-56.7 356,-37.7 287,-37.7"/>
<text text-anchor="start" x="290" y="-43.8" font-family="Helvetica,sans-Serif" font-size="11.00" fill="#000000">&lt; 1</text>
<polygon fill="#ffffff" stroke="transparent" points="356,-37.7 356,-56.7 392,-56.7 392,-37.7 356,-37.7"/>
<polygon fill="none" stroke="#000000" points="356,-37.7 356,-56.7 392,-56.7 392,-37.7 356,-37.7"/>
<text text-anchor="start" x="382.8862" y="-43.8" font-family="Helvetica,sans-Serif" font-size="11.00" fill="#000000"> &#160;</text>
<polygon fill="#ffffff" stroke="transparent" points="392,-37.7 392,-56.7 429,-56.7 429,-37.7 392,-37.7"/>
<polygon fill="none" stroke="#000000" points="392,-37.7 392,-56.7 429,-56.7 429,-37.7 392,-37.7"/>
<text text-anchor="start" x="419.8862" y="-43.8" font-family="Helvetica,sans-Serif" font-size="11.00" fill="#000000"> &#160;</text>
</a>
</g>
</g>
<!-- prison_statistic&#45;&gt;policy -->
<g id="edge5" class="edge">
<title>prison_statistic:w&#45;&gt;policy:e</title>
<path fill="none" stroke="#000000" d="M272.2939,-66.1283C236.6333,-68.4088 220.7937,-80.1483 192,-109.7 142.3343,-160.6731 199.6684,-256.7 128.5,-256.7"/>
<polygon fill="#000000" stroke="#000000" points="279.0034,-65.9329 287.1048,-69.2985 283.0017,-65.8165 287,-65.7 287,-65.7 287,-65.7 283.0017,-65.8165 286.8952,-62.1015 279.0034,-65.9329 279.0034,-65.9329"/>
<ellipse fill="none" stroke="#000000" cx="275.8047" cy="-66.0261" rx="3.2" ry="3.2"/>
</g>
<!-- reference_data_policy -->
<g id="node6" class="node">
<title>reference_data_policy</title>
<g id="a_node6"><a xlink:href="../../tables/reference_data_policy.html" xlink:title="reference_data_policy" target="_top">
<polygon fill="#ffffff" stroke="transparent" points="265,-424.2 265,-485.2 451,-485.2 451,-424.2 265,-424.2"/>
<polygon fill="#f5f5f5" stroke="transparent" points="265,-461.7 265,-484.7 451,-484.7 451,-461.7 265,-461.7"/>
<polygon fill="none" stroke="#000000" points="265,-461.7 265,-484.7 451,-484.7 451,-461.7 265,-461.7"/>
<text text-anchor="start" x="270" y="-470.3" font-family="Helvetica,sans-Serif" font-weight="bold" font-size="11.00" fill="#000000">reference_data_policy</text>
<text text-anchor="start" x="416.5219" y="-469.8" font-family="Helvetica,sans-Serif" font-size="11.00" fill="#000000">[table]</text>
<polygon fill="none" stroke="#000000" points="265,-442.7 265,-461.7 451,-461.7 451,-442.7 265,-442.7"/>
<text text-anchor="start" x="268" y="-448.8" font-family="Helvetica,sans-Serif" font-size="11.00" fill="#000000">...</text>
<polygon fill="#ffffff" stroke="transparent" points="265,-423.7 265,-442.7 356,-442.7 356,-423.7 265,-423.7"/>
<polygon fill="none" stroke="#000000" points="265,-423.7 265,-442.7 356,-442.7 356,-423.7 265,-423.7"/>
<text text-anchor="start" x="268" y="-429.8" font-family="Helvetica,sans-Serif" font-size="11.00" fill="#000000">&lt; 2</text>
<polygon fill="#ffffff" stroke="transparent" points="356,-423.7 356,-442.7 403,-442.7 403,-423.7 356,-423.7"/>
<polygon fill="none" stroke="#000000" points="356,-423.7 356,-442.7 403,-442.7 403,-423.7 356,-423.7"/>
<text text-anchor="start" x="393.8862" y="-429.8" font-family="Helvetica,sans-Serif" font-size="11.00" fill="#000000"> &#160;</text>
<polygon fill="#ffffff" stroke="transparent" points="403,-423.7 403,-442.7 451,-442.7 451,-423.7 403,-423.7"/>
<polygon fill="none" stroke="#000000" points="403,-423.7 403,-442.7 451,-442.7 451,-423.7 403,-423.7"/>
<text text-anchor="start" x="441.8862" y="-429.8" font-family="Helvetica,sans-Serif" font-size="11.00" fill="#000000"> &#160;</text>
</a>
</g>
</g>
<!-- reference_data_policy&#45;&gt;reference_data -->
<g id="edge6" class="edge">
<title>reference_data_policy:w&#45;&gt;reference_data:e</title>
<path fill="none" stroke="#000000" d="M250.4646,-452.9659C225.1689,-457.8454 217.838,-476.1394 192,-495.7 172.3206,-510.5982 176.1827,-533.7 151.5,-533.7"/>
<polygon fill="#000000" stroke="#000000" points="257.0302,-452.3941 265.3124,-455.2864 261.0151,-452.0471 265,-451.7 265,-451.7 265,-451.7 261.0151,-452.0471 264.6876,-448.1136 257.0302,-452.3941 257.0302,-452.3941"/>
<ellipse fill="none" stroke="#000000" cx="253.8422" cy="-452.6718" rx="3.2" ry="3.2"/>
</g>
<!-- reference_data_policy&#45;&gt;policy -->
<g id="edge7" class="edge">
<title>reference_data_policy:w&#45;&gt;policy:e</title>
<path fill="none" stroke="#000000" d="M250.5783,-450.9993C224.7381,-448.2034 213.0432,-436.8577 192,-413.7 141.3808,-357.9943 203.7691,-256.7 128.5,-256.7"/>
<polygon fill="#000000" stroke="#000000" points="257.0094,-451.3117 264.8253,-455.2958 261.0047,-451.5059 265,-451.7 265,-451.7 265,-451.7 261.0047,-451.5059 265.1747,-448.1042 257.0094,-451.3117 257.0094,-451.3117"/>
<ellipse fill="none" stroke="#000000" cx="253.8132" cy="-451.1564" rx="3.2" ry="3.2"/>
</g>
<!-- staff_configuration -->
<g id="node7" class="node">
<title>staff_configuration</title>
<g id="a_node7"><a xlink:href="../../tables/staff_configuration.html" xlink:title="staff_configuration" target="_top">
<polygon fill="#ffffff" stroke="transparent" points="226.5,-202.7 226.5,-402.7 489.5,-402.7 489.5,-202.7 226.5,-202.7"/>
<polygon fill="#f5f5f5" stroke="transparent" points="229,-377.7 229,-400.7 488,-400.7 488,-377.7 229,-377.7"/>
<polygon fill="none" stroke="#000000" points="229,-377.7 229,-400.7 488,-400.7 488,-377.7 229,-377.7"/>
<text text-anchor="start" x="234" y="-386.3" font-family="Helvetica,sans-Serif" font-weight="bold" font-size="11.00" fill="#000000">staff_configuration</text>
<text text-anchor="start" x="453.0437" y="-385.8" font-family="Helvetica,sans-Serif" font-size="11.00" fill="#000000">[table]</text>
<polygon fill="#ffffff" stroke="transparent" points="229,-355.7 229,-377.7 394,-377.7 394,-355.7 229,-355.7"/>
<polygon fill="none" stroke="#000000" points="229,-355.7 229,-377.7 394,-377.7 394,-355.7 229,-355.7"/>
<text text-anchor="start" x="249" y="-362.8" font-family="Helvetica,sans-Serif" font-size="11.00" fill="#000000">staff_id</text>
<polygon fill="none" stroke="#000000" points="394,-355.7 394,-377.7 488,-377.7 488,-355.7 394,-355.7"/>
<text text-anchor="start" x="397" y="-363.4" font-family="Helvetica,sans-Serif" font-size="11.00" fill="#000000">int8[19]</text>
<polygon fill="none" stroke="#000000" points="229,-333.7 229,-355.7 394,-355.7 394,-333.7 229,-333.7"/>
<text text-anchor="start" x="249" y="-340.8" font-family="Helvetica,sans-Serif" font-size="11.00" fill="#000000">capacity</text>
<polygon fill="none" stroke="#000000" points="394,-333.7 394,-355.7 488,-355.7 488,-333.7 394,-333.7"/>
<text text-anchor="start" x="397" y="-341.4" font-family="Helvetica,sans-Serif" font-size="11.00" fill="#000000">int4[10]</text>
<polygon fill="none" stroke="#000000" points="229,-311.7 229,-333.7 394,-333.7 394,-311.7 229,-311.7"/>
<image xlink:href="../../images/foreignKeys.png" width="11px" height="12px" preserveAspectRatio="xMinYMin meet" x="234" y="-328.7"/>
<text text-anchor="start" x="249" y="-318.8" font-family="Helvetica,sans-Serif" font-size="11.00" fill="#000000">status_id</text>
<polygon fill="none" stroke="#000000" points="394,-311.7 394,-333.7 488,-333.7 488,-311.7 394,-311.7"/>
<text text-anchor="start" x="397" y="-319.4" font-family="Helvetica,sans-Serif" font-size="11.00" fill="#000000">int8[19]</text>
<polygon fill="none" stroke="#000000" points="229,-289.7 229,-311.7 394,-311.7 394,-289.7 229,-289.7"/>
<text text-anchor="start" x="249" y="-296.8" font-family="Helvetica,sans-Serif" font-size="11.00" fill="#000000">allow_auto_allocation</text>
<polygon fill="none" stroke="#000000" points="394,-289.7 394,-311.7 488,-311.7 488,-289.7 394,-289.7"/>
<text text-anchor="start" x="397" y="-297.4" font-family="Helvetica,sans-Serif" font-size="11.00" fill="#000000">bool[1]</text>
<polygon fill="none" stroke="#000000" points="229,-267.7 229,-289.7 394,-289.7 394,-267.7 229,-267.7"/>
<text text-anchor="start" x="249" y="-274.8" font-family="Helvetica,sans-Serif" font-size="11.00" fill="#000000">reactivate_on</text>
<polygon fill="none" stroke="#000000" points="394,-267.7 394,-289.7 488,-289.7 488,-267.7 394,-267.7"/>
<text text-anchor="start" x="397" y="-275.4" font-family="Helvetica,sans-Serif" font-size="11.00" fill="#000000">date[13]</text>
<polygon fill="#ffffff" stroke="transparent" points="229,-245.7 229,-267.7 394,-267.7 394,-245.7 229,-245.7"/>
<polygon fill="none" stroke="#000000" points="229,-245.7 229,-267.7 394,-267.7 394,-245.7 229,-245.7"/>
<image xlink:href="../../images/foreignKeys.png" width="11px" height="12px" preserveAspectRatio="xMinYMin meet" x="234" y="-262.7"/>
<text text-anchor="start" x="249" y="-252.8" font-family="Helvetica,sans-Serif" font-size="11.00" fill="#000000">policy_code</text>
<polygon fill="none" stroke="#000000" points="394,-245.7 394,-267.7 488,-267.7 488,-245.7 394,-245.7"/>
<text text-anchor="start" x="397" y="-253.4" font-family="Helvetica,sans-Serif" font-size="11.00" fill="#000000">varchar[16]</text>
<polygon fill="none" stroke="#000000" points="229,-223.7 229,-245.7 394,-245.7 394,-223.7 229,-223.7"/>
<image xlink:href="../../images/primaryKeys.png" width="11px" height="12px" preserveAspectRatio="xMinYMin meet" x="234" y="-240.7"/>
<text text-anchor="start" x="249" y="-230.8" font-family="Helvetica,sans-Serif" font-size="11.00" fill="#000000">id</text>
<polygon fill="none" stroke="#000000" points="394,-223.7 394,-245.7 488,-245.7 488,-223.7 394,-223.7"/>
<text text-anchor="start" x="396.9758" y="-231.4" font-family="Helvetica,sans-Serif" font-size="11.00" fill="#000000">uuid[2147483647]</text>
<polygon fill="#ffffff" stroke="transparent" points="229,-204.7 229,-223.7 316,-223.7 316,-204.7 229,-204.7"/>
<polygon fill="none" stroke="#000000" points="229,-204.7 229,-223.7 316,-223.7 316,-204.7 229,-204.7"/>
<text text-anchor="start" x="232" y="-210.8" font-family="Helvetica,sans-Serif" font-size="11.00" fill="#000000">&lt; 2</text>
<polygon fill="#ffffff" stroke="transparent" points="316,-204.7 316,-223.7 394,-223.7 394,-204.7 316,-204.7"/>
<polygon fill="none" stroke="#000000" points="316,-204.7 316,-223.7 394,-223.7 394,-204.7 316,-204.7"/>
<text text-anchor="start" x="384.8862" y="-210.8" font-family="Helvetica,sans-Serif" font-size="11.00" fill="#000000"> &#160;</text>
<polygon fill="#ffffff" stroke="transparent" points="394,-204.7 394,-223.7 488,-223.7 488,-204.7 394,-204.7"/>
<polygon fill="none" stroke="#000000" points="394,-204.7 394,-223.7 488,-223.7 488,-204.7 394,-204.7"/>
<text text-anchor="start" x="469.4053" y="-210.8" font-family="Helvetica,sans-Serif" font-size="11.00" fill="#000000">0 &gt;</text>
<polygon fill="none" stroke="#000000" stroke-width="2" points="227.5,-203.7 227.5,-401.7 488.5,-401.7 488.5,-203.7 227.5,-203.7"/>
</a>
</g>
</g>
<!-- staff_configuration&#45;&gt;reference_data -->
<g id="edge9" class="edge">
<title>staff_configuration:w&#45;&gt;reference_data:e</title>
<path fill="none" stroke="#000000" d="M214.5051,-325.3567C190.6272,-336.2214 205.1305,-378.3705 192,-413.7 172.3904,-466.4627 207.7889,-533.7 151.5,-533.7"/>
<polygon fill="#000000" stroke="#000000" points="221.1311,-324.1423 229.649,-326.241 225.0655,-323.4211 229,-322.7 229,-322.7 229,-322.7 225.0655,-323.4211 228.351,-319.159 221.1311,-324.1423 221.1311,-324.1423"/>
<ellipse fill="none" stroke="#000000" cx="217.9835" cy="-324.7192" rx="3.2" ry="3.2"/>
</g>
<!-- staff_configuration&#45;&gt;policy -->
<g id="edge8" class="edge">
<title>staff_configuration:w&#45;&gt;policy:e</title>
<path fill="none" stroke="#000000" d="M214.5692,-256.7C181.2561,-256.7 167.9323,-256.7 128.5,-256.7"/>
<polygon fill="#000000" stroke="#000000" points="221,-256.7001 229,-260.3 225,-256.7 229,-256.7 229,-256.7 229,-256.7 225,-256.7 229,-253.1 221,-256.7001 221,-256.7001"/>
<ellipse fill="none" stroke="#000000" cx="217.8" cy="-256.7001" rx="3.2" ry="3.2"/>
</g>
<!-- zz_archived_legacy_keyworker_allocation -->
<g id="node8" class="node">
<title>zz_archived_legacy_keyworker_allocation</title>
<g id="a_node8"><a xlink:href="../../tables/zz_archived_legacy_keyworker_allocation.html" xlink:title="zz_archived_legacy_keyworker_allocation" target="_top">
<polygon fill="#ffffff" stroke="transparent" points="200,-588.2 200,-649.2 516,-649.2 516,-588.2 200,-588.2"/>
<polygon fill="#f5f5f5" stroke="transparent" points="200,-625.7 200,-648.7 516,-648.7 516,-625.7 200,-625.7"/>
<polygon fill="none" stroke="#000000" points="200,-625.7 200,-648.7 516,-648.7 516,-625.7 200,-625.7"/>
<text text-anchor="start" x="205" y="-634.3" font-family="Helvetica,sans-Serif" font-weight="bold" font-size="11.00" fill="#000000">zz_archived_legacy_keyworker_allocation</text>
<text text-anchor="start" x="481.5219" y="-633.8" font-family="Helvetica,sans-Serif" font-size="11.00" fill="#000000">[table]</text>
<polygon fill="none" stroke="#000000" points="200,-606.7 200,-625.7 516,-625.7 516,-606.7 200,-606.7"/>
<text text-anchor="start" x="203" y="-612.8" font-family="Helvetica,sans-Serif" font-size="11.00" fill="#000000">...</text>
<polygon fill="#ffffff" stroke="transparent" points="200,-587.7 200,-606.7 356,-606.7 356,-587.7 200,-587.7"/>
<polygon fill="none" stroke="#000000" points="200,-587.7 200,-606.7 356,-606.7 356,-587.7 200,-587.7"/>
<text text-anchor="start" x="203" y="-593.8" font-family="Helvetica,sans-Serif" font-size="11.00" fill="#000000">&lt; 2</text>
<polygon fill="#ffffff" stroke="transparent" points="356,-587.7 356,-606.7 436,-606.7 436,-587.7 356,-587.7"/>
<polygon fill="none" stroke="#000000" points="356,-587.7 356,-606.7 436,-606.7 436,-587.7 356,-587.7"/>
<text text-anchor="start" x="426.8862" y="-593.8" font-family="Helvetica,sans-Serif" font-size="11.00" fill="#000000"> &#160;</text>
<polygon fill="#ffffff" stroke="transparent" points="436,-587.7 436,-606.7 516,-606.7 516,-587.7 436,-587.7"/>
<polygon fill="none" stroke="#000000" points="436,-587.7 436,-606.7 516,-606.7 516,-587.7 436,-587.7"/>
<text text-anchor="start" x="506.8862" y="-593.8" font-family="Helvetica,sans-Serif" font-size="11.00" fill="#000000"> &#160;</text>
</a>
</g>
</g>
<!-- zz_archived_legacy_keyworker_allocation&#45;&gt;reference_data -->
<g id="edge10" class="edge">
<title>zz_archived_legacy_keyworker_allocation:w&#45;&gt;reference_data:e</title>
<path fill="none" stroke="#000000" d="M186.9168,-609.6718C165.8843,-589.471 188.2184,-528.4969 151.5,-533.7"/>
<polygon fill="#000000" stroke="#000000" points="192.7342,-612.3522 198.4935,-618.9696 196.3671,-614.0261 200,-615.7 200,-615.7 200,-615.7 196.3671,-614.0261 201.5065,-612.4304 192.7342,-612.3522 192.7342,-612.3522"/>
<ellipse fill="none" stroke="#000000" cx="189.8278" cy="-611.0131" rx="3.2" ry="3.2"/>
</g>
<!-- zz_archived_legacy_keyworker_allocation&#45;&gt;reference_data -->
<g id="edge11" class="edge">
<title>zz_archived_legacy_keyworker_allocation:w&#45;&gt;reference_data:e</title>
<path fill="none" stroke="#000000" d="M185.5606,-613.2824C166.8604,-599.4563 187.3914,-539.6336 151.5,-533.7"/>
<polygon fill="#000000" stroke="#000000" points="192.1098,-614.3789 199.4055,-619.2506 196.0549,-615.0394 200,-615.7 200,-615.7 200,-615.7 196.0549,-615.0394 200.5945,-612.1494 192.1098,-614.3789 192.1098,-614.3789"/>
<ellipse fill="none" stroke="#000000" cx="188.9538" cy="-613.8504" rx="3.2" ry="3.2"/>
</g>
</g>
</svg>
