<?xml version="1.0" encoding="UTF-8" standalone="no"?>
<!DOCTYPE svg PUBLIC "-//W3C//DTD SVG 1.1//EN"
 "http://www.w3.org/Graphics/SVG/1.1/DTD/svg11.dtd">
<!-- Generated by graphviz version 2.40.1 (20161225.0304)
 -->
<!-- Title: oneDegreeRelationshipsDiagramImplied Pages: 1 -->
<svg width="550pt" height="312pt"
 viewBox="0.00 0.00 550.00 311.70" xmlns="http://www.w3.org/2000/svg" xmlns:xlink="http://www.w3.org/1999/xlink">
<g id="graph0" class="graph" transform="scale(1 1) rotate(0) translate(4 307.7)">
<title>oneDegreeRelationshipsDiagramImplied</title>
<polygon fill="#ffffff" stroke="transparent" points="-4,4 -4,-307.7 546,-307.7 546,4 -4,4"/>
<text text-anchor="middle" x="72.4936" y="-7.3" font-family="Helvetica,sans-Serif" font-size="11.00" fill="#000000">Generated by SchemaSpy</text>
<!-- staff_role -->
<g id="node1" class="node">
<title>staff_role</title>
<g id="a_node1"><a xlink:href="../../tables/staff_role.html" xlink:title="staff_role" target="_top">
<polygon fill="#ffffff" stroke="transparent" points="300,-38.2 300,-282.2 534,-282.2 534,-38.2 300,-38.2"/>
<polygon fill="#f5f5f5" stroke="transparent" points="302,-257.2 302,-280.2 532,-280.2 532,-257.2 302,-257.2"/>
<polygon fill="none" stroke="#000000" points="302,-257.2 302,-280.2 532,-280.2 532,-257.2 302,-257.2"/>
<text text-anchor="start" x="307" y="-265.8" font-family="Helvetica,sans-Serif" font-weight="bold" font-size="11.00" fill="#000000">staff_role</text>
<text text-anchor="start" x="497.0437" y="-265.3" font-family="Helvetica,sans-Serif" font-size="11.00" fill="#000000">[table]</text>
<polygon fill="none" stroke="#000000" points="302,-235.2 302,-257.2 438,-257.2 438,-235.2 302,-235.2"/>
<image xlink:href="../../images/primaryKeys.png" width="11px" height="12px" preserveAspectRatio="xMinYMin meet" x="307" y="-252.2"/>
<text text-anchor="start" x="322" y="-242.3" font-family="Helvetica,sans-Serif" font-size="11.00" fill="#000000">id</text>
<polygon fill="none" stroke="#000000" points="438,-235.2 438,-257.2 532,-257.2 532,-235.2 438,-235.2"/>
<text text-anchor="start" x="440.9758" y="-242.9" font-family="Helvetica,sans-Serif" font-size="11.00" fill="#000000">uuid[2147483647]</text>
<polygon fill="#ffffff" stroke="transparent" points="302,-213.2 302,-235.2 438,-235.2 438,-213.2 302,-213.2"/>
<polygon fill="none" stroke="#000000" points="302,-213.2 302,-235.2 438,-235.2 438,-213.2 302,-213.2"/>
<image xlink:href="../../images/foreignKeys.png" width="11px" height="12px" preserveAspectRatio="xMinYMin meet" x="307" y="-230.2"/>
<text text-anchor="start" x="322" y="-220.3" font-family="Helvetica,sans-Serif" font-size="11.00" fill="#000000">policy_code</text>
<polygon fill="none" stroke="#000000" points="438,-213.2 438,-235.2 532,-235.2 532,-213.2 438,-213.2"/>
<text text-anchor="start" x="441" y="-220.9" font-family="Helvetica,sans-Serif" font-size="11.00" fill="#000000">varchar[16]</text>
<polygon fill="#ffffff" stroke="transparent" points="302,-191.2 302,-213.2 438,-213.2 438,-191.2 302,-191.2"/>
<polygon fill="none" stroke="#000000" points="302,-191.2 302,-213.2 438,-213.2 438,-191.2 302,-191.2"/>
<image xlink:href="../../images/foreignKeys.png" width="11px" height="12px" preserveAspectRatio="xMinYMin meet" x="307" y="-208.2"/>
<text text-anchor="start" x="322" y="-198.3" font-family="Helvetica,sans-Serif" font-size="11.00" fill="#000000">prison_code</text>
<polygon fill="none" stroke="#000000" points="438,-191.2 438,-213.2 532,-213.2 532,-191.2 438,-191.2"/>
<text text-anchor="start" x="441" y="-198.9" font-family="Helvetica,sans-Serif" font-size="11.00" fill="#000000">varchar[6]</text>
<polygon fill="#ffffff" stroke="transparent" points="302,-169.2 302,-191.2 438,-191.2 438,-169.2 302,-169.2"/>
<polygon fill="none" stroke="#000000" points="302,-169.2 302,-191.2 438,-191.2 438,-169.2 302,-169.2"/>
<text text-anchor="start" x="322" y="-176.3" font-family="Helvetica,sans-Serif" font-size="11.00" fill="#000000">staff_id</text>
<polygon fill="none" stroke="#000000" points="438,-169.2 438,-191.2 532,-191.2 532,-169.2 438,-169.2"/>
<text text-anchor="start" x="441" y="-176.9" font-family="Helvetica,sans-Serif" font-size="11.00" fill="#000000">int8[19]</text>
<polygon fill="none" stroke="#000000" points="302,-147.2 302,-169.2 438,-169.2 438,-147.2 302,-147.2"/>
<text text-anchor="start" x="322" y="-154.3" font-family="Helvetica,sans-Serif" font-size="11.00" fill="#000000">position_id</text>
<polygon fill="none" stroke="#000000" points="438,-147.2 438,-169.2 532,-169.2 532,-147.2 438,-147.2"/>
<text text-anchor="start" x="441" y="-154.9" font-family="Helvetica,sans-Serif" font-size="11.00" fill="#000000">int8[19]</text>
<polygon fill="none" stroke="#000000" points="302,-125.2 302,-147.2 438,-147.2 438,-125.2 302,-125.2"/>
<text text-anchor="start" x="322" y="-132.3" font-family="Helvetica,sans-Serif" font-size="11.00" fill="#000000">schedule_type_id</text>
<polygon fill="none" stroke="#000000" points="438,-125.2 438,-147.2 532,-147.2 532,-125.2 438,-125.2"/>
<text text-anchor="start" x="441" y="-132.9" font-family="Helvetica,sans-Serif" font-size="11.00" fill="#000000">int8[19]</text>
<polygon fill="none" stroke="#000000" points="302,-103.2 302,-125.2 438,-125.2 438,-103.2 302,-103.2"/>
<text text-anchor="start" x="322" y="-110.3" font-family="Helvetica,sans-Serif" font-size="11.00" fill="#000000">hours_per_week</text>
<polygon fill="none" stroke="#000000" points="438,-103.2 438,-125.2 532,-125.2 532,-103.2 438,-103.2"/>
<text text-anchor="start" x="441" y="-110.9" font-family="Helvetica,sans-Serif" font-size="11.00" fill="#000000">numeric[0]</text>
<polygon fill="none" stroke="#000000" points="302,-81.2 302,-103.2 438,-103.2 438,-81.2 302,-81.2"/>
<text text-anchor="start" x="322" y="-88.3" font-family="Helvetica,sans-Serif" font-size="11.00" fill="#000000">from_date</text>
<polygon fill="none" stroke="#000000" points="438,-81.2 438,-103.2 532,-103.2 532,-81.2 438,-81.2"/>
<text text-anchor="start" x="441" y="-88.9" font-family="Helvetica,sans-Serif" font-size="11.00" fill="#000000">date[13]</text>
<polygon fill="none" stroke="#000000" points="302,-59.2 302,-81.2 438,-81.2 438,-59.2 302,-59.2"/>
<text text-anchor="start" x="322" y="-66.3" font-family="Helvetica,sans-Serif" font-size="11.00" fill="#000000">to_date</text>
<polygon fill="none" stroke="#000000" points="438,-59.2 438,-81.2 532,-81.2 532,-59.2 438,-59.2"/>
<text text-anchor="start" x="441" y="-66.9" font-family="Helvetica,sans-Serif" font-size="11.00" fill="#000000">date[13]</text>
<polygon fill="#ffffff" stroke="transparent" points="302,-40.2 302,-59.2 374,-59.2 374,-40.2 302,-40.2"/>
<polygon fill="none" stroke="#000000" points="302,-40.2 302,-59.2 374,-59.2 374,-40.2 302,-40.2"/>
<text text-anchor="start" x="305" y="-46.3" font-family="Helvetica,sans-Serif" font-size="11.00" fill="#000000">&lt; 2</text>
<polygon fill="#ffffff" stroke="transparent" points="374,-40.2 374,-59.2 438,-59.2 438,-40.2 374,-40.2"/>
<polygon fill="none" stroke="#000000" points="374,-40.2 374,-59.2 438,-59.2 438,-40.2 374,-40.2"/>
<text text-anchor="start" x="428.8862" y="-46.3" font-family="Helvetica,sans-Serif" font-size="11.00" fill="#000000"> &#160;</text>
<polygon fill="#ffffff" stroke="transparent" points="438,-40.2 438,-59.2 532,-59.2 532,-40.2 438,-40.2"/>
<polygon fill="none" stroke="#000000" points="438,-40.2 438,-59.2 532,-59.2 532,-40.2 438,-40.2"/>
<text text-anchor="start" x="513.4053" y="-46.3" font-family="Helvetica,sans-Serif" font-size="11.00" fill="#000000">0 &gt;</text>
<polygon fill="none" stroke="#000000" stroke-width="2" points="301,-39.2 301,-281.2 533,-281.2 533,-39.2 301,-39.2"/>
</a>
</g>
</g>
<!-- policy -->
<g id="node2" class="node">
<title>policy</title>
<g id="a_node2"><a xlink:href="../../tables/policy.html" xlink:title="policy" target="_top">
<polygon fill="#ffffff" stroke="transparent" points="81,-216.7 81,-299.7 178,-299.7 178,-216.7 81,-216.7"/>
<polygon fill="#f5f5f5" stroke="transparent" points="81.5,-276.2 81.5,-299.2 178.5,-299.2 178.5,-276.2 81.5,-276.2"/>
<polygon fill="none" stroke="#000000" points="81.5,-276.2 81.5,-299.2 178.5,-299.2 178.5,-276.2 81.5,-276.2"/>
<text text-anchor="start" x="86.5" y="-284.8" font-family="Helvetica,sans-Serif" font-weight="bold" font-size="11.00" fill="#000000">policy</text>
<text text-anchor="start" x="143.5437" y="-284.3" font-family="Helvetica,sans-Serif" font-size="11.00" fill="#000000">[table]</text>
<polygon fill="none" stroke="#000000" points="81.5,-254.2 81.5,-276.2 178.5,-276.2 178.5,-254.2 81.5,-254.2"/>
<image xlink:href="../../images/primaryKeys.png" width="11px" height="12px" preserveAspectRatio="xMinYMin meet" x="86.5" y="-271.2"/>
<text text-anchor="start" x="101.5" y="-261.3" font-family="Helvetica,sans-Serif" font-size="11.00" fill="#000000">code</text>
<polygon fill="none" stroke="#000000" points="81.5,-235.2 81.5,-254.2 178.5,-254.2 178.5,-235.2 81.5,-235.2"/>
<text text-anchor="start" x="84.5" y="-241.3" font-family="Helvetica,sans-Serif" font-size="11.00" fill="#000000">...</text>
<polygon fill="#ffffff" stroke="transparent" points="81.5,-216.2 81.5,-235.2 119.5,-235.2 119.5,-216.2 81.5,-216.2"/>
<polygon fill="none" stroke="#000000" points="81.5,-216.2 81.5,-235.2 119.5,-235.2 119.5,-216.2 81.5,-216.2"/>
<text text-anchor="start" x="84.5" y="-222.3" font-family="Helvetica,sans-Serif" font-size="11.00" fill="#000000"> &#160;</text>
<polygon fill="#ffffff" stroke="transparent" points="119.5,-216.2 119.5,-235.2 144.5,-235.2 144.5,-216.2 119.5,-216.2"/>
<polygon fill="none" stroke="#000000" points="119.5,-216.2 119.5,-235.2 144.5,-235.2 144.5,-216.2 119.5,-216.2"/>
<text text-anchor="start" x="135.3862" y="-222.3" font-family="Helvetica,sans-Serif" font-size="11.00" fill="#000000"> &#160;</text>
<polygon fill="#ffffff" stroke="transparent" points="144.5,-216.2 144.5,-235.2 178.5,-235.2 178.5,-216.2 144.5,-216.2"/>
<polygon fill="none" stroke="#000000" points="144.5,-216.2 144.5,-235.2 178.5,-235.2 178.5,-216.2 144.5,-216.2"/>
<text text-anchor="start" x="159.9053" y="-222.3" font-family="Helvetica,sans-Serif" font-size="11.00" fill="#000000">8 &gt;</text>
</a>
</g>
</g>
<!-- staff_role&#45;&gt;policy -->
<g id="edge1" class="edge">
<title>staff_role:w&#45;&gt;policy:e</title>
<path fill="none" stroke="#000000" stroke-dasharray="5,2" d="M287.5501,-225.1334C242.3547,-231.2362 231.1385,-265.2 178.5,-265.2"/>
<polygon fill="#000000" stroke="#000000" points="294.0166,-224.7157 302.2321,-227.7925 298.0083,-224.4579 302,-224.2 302,-224.2 302,-224.2 298.0083,-224.4579 301.7679,-220.6075 294.0166,-224.7157 294.0166,-224.7157"/>
<ellipse fill="none" stroke="#000000" cx="290.8233" cy="-224.922" rx="3.2" ry="3.2"/>
</g>
<!-- prison_migration_date_history -->
<g id="node3" class="node">
<title>prison_migration_date_history</title>
<g id="a_node3"><a xlink:href="../../tables/prison_migration_date_history.html" xlink:title="prison_migration_date_history" target="_top">
<polygon fill="#ffffff" stroke="transparent" points="8,-112.7 8,-195.7 251,-195.7 251,-112.7 8,-112.7"/>
<polygon fill="#f5f5f5" stroke="transparent" points="8.5,-172.2 8.5,-195.2 251.5,-195.2 251.5,-172.2 8.5,-172.2"/>
<polygon fill="none" stroke="#000000" points="8.5,-172.2 8.5,-195.2 251.5,-195.2 251.5,-172.2 8.5,-172.2"/>
<text text-anchor="start" x="13.5" y="-180.8" font-family="Helvetica,sans-Serif" font-weight="bold" font-size="11.00" fill="#000000">prison_migration_date_history</text>
<text text-anchor="start" x="217.0219" y="-180.3" font-family="Helvetica,sans-Serif" font-size="11.00" fill="#000000">[table]</text>
<polygon fill="none" stroke="#000000" points="8.5,-150.2 8.5,-172.2 251.5,-172.2 251.5,-150.2 8.5,-150.2"/>
<image xlink:href="../../images/primaryKeys.png" width="11px" height="12px" preserveAspectRatio="xMinYMin meet" x="13.5" y="-167.2"/>
<text text-anchor="start" x="37.5" y="-157.3" font-family="Helvetica,sans-Serif" font-size="11.00" fill="#000000">prison_code</text>
<polygon fill="none" stroke="#000000" points="8.5,-131.2 8.5,-150.2 251.5,-150.2 251.5,-131.2 8.5,-131.2"/>
<text text-anchor="start" x="11.5" y="-137.3" font-family="Helvetica,sans-Serif" font-size="11.00" fill="#000000">...</text>
<polygon fill="#ffffff" stroke="transparent" points="8.5,-112.2 8.5,-131.2 119.5,-131.2 119.5,-112.2 8.5,-112.2"/>
<polygon fill="none" stroke="#000000" points="8.5,-112.2 8.5,-131.2 119.5,-131.2 119.5,-112.2 8.5,-112.2"/>
<text text-anchor="start" x="11.5" y="-118.3" font-family="Helvetica,sans-Serif" font-size="11.00" fill="#000000"> &#160;</text>
<polygon fill="#ffffff" stroke="transparent" points="119.5,-112.2 119.5,-131.2 180.5,-131.2 180.5,-112.2 119.5,-112.2"/>
<polygon fill="none" stroke="#000000" points="119.5,-112.2 119.5,-131.2 180.5,-131.2 180.5,-112.2 119.5,-112.2"/>
<text text-anchor="start" x="171.3862" y="-118.3" font-family="Helvetica,sans-Serif" font-size="11.00" fill="#000000"> &#160;</text>
<polygon fill="#ffffff" stroke="transparent" points="180.5,-112.2 180.5,-131.2 251.5,-131.2 251.5,-112.2 180.5,-112.2"/>
<polygon fill="none" stroke="#000000" points="180.5,-112.2 180.5,-131.2 251.5,-131.2 251.5,-112.2 180.5,-112.2"/>
<text text-anchor="start" x="232.9053" y="-118.3" font-family="Helvetica,sans-Serif" font-size="11.00" fill="#000000">8 &gt;</text>
</a>
</g>
</g>
<!-- staff_role&#45;&gt;prison_migration_date_history -->
<g id="edge2" class="edge">
<title>staff_role:w&#45;&gt;prison_migration_date_history:e</title>
<path fill="none" stroke="#000000" stroke-dasharray="5,2" d="M288.2601,-197.8123C274.5688,-187.2354 274.5379,-161.2 251.5,-161.2"/>
<polygon fill="#000000" stroke="#000000" points="294.3792,-199.7663 300.9048,-205.6294 298.1896,-200.9832 302,-202.2 302,-202.2 302,-202.2 298.1896,-200.9832 303.0952,-198.7706 294.3792,-199.7663 294.3792,-199.7663"/>
<ellipse fill="none" stroke="#000000" cx="291.3308" cy="-198.7928" rx="3.2" ry="3.2"/>
</g>
</g>
</svg>
