<?xml version="1.0" encoding="UTF-8" standalone="no"?>
<!DOCTYPE svg PUBLIC "-//W3C//DTD SVG 1.1//EN"
 "http://www.w3.org/Graphics/SVG/1.1/DTD/svg11.dtd">
<!-- Generated by graphviz version 2.40.1 (20161225.0304)
 -->
<!-- Title: oneDegreeRelationshipsDiagramImplied Pages: 1 -->
<svg width="499pt" height="466pt"
 viewBox="0.00 0.00 499.00 465.70" xmlns="http://www.w3.org/2000/svg" xmlns:xlink="http://www.w3.org/1999/xlink">
<g id="graph0" class="graph" transform="scale(1 1) rotate(0) translate(4 461.7)">
<title>oneDegreeRelationshipsDiagramImplied</title>
<polygon fill="#ffffff" stroke="transparent" points="-4,4 -4,-461.7 495,-461.7 495,4 -4,4"/>
<text text-anchor="middle" x="72.4936" y="-7.3" font-family="Helvetica,sans-Serif" font-size="11.00" fill="#000000">Generated by SchemaSpy</text>
<!-- staff_role_audit -->
<g id="node1" class="node">
<title>staff_role_audit</title>
<g id="a_node1"><a xlink:href="../../tables/staff_role_audit.html" xlink:title="staff_role_audit" target="_top">
<polygon fill="#ffffff" stroke="transparent" points="191,-38.2 191,-436.2 483,-436.2 483,-38.2 191,-38.2"/>
<polygon fill="#f5f5f5" stroke="transparent" points="193,-411.2 193,-434.2 481,-434.2 481,-411.2 193,-411.2"/>
<polygon fill="none" stroke="#000000" points="193,-411.2 193,-434.2 481,-434.2 481,-411.2 193,-411.2"/>
<text text-anchor="start" x="198" y="-419.8" font-family="Helvetica,sans-Serif" font-weight="bold" font-size="11.00" fill="#000000">staff_role_audit</text>
<text text-anchor="start" x="446.0437" y="-419.3" font-family="Helvetica,sans-Serif" font-size="11.00" fill="#000000">[table]</text>
<polygon fill="none" stroke="#000000" points="193,-389.2 193,-411.2 387,-411.2 387,-389.2 193,-389.2"/>
<image xlink:href="../../images/primaryKeys.png" width="11px" height="12px" preserveAspectRatio="xMinYMin meet" x="198" y="-406.2"/>
<text text-anchor="start" x="213" y="-396.3" font-family="Helvetica,sans-Serif" font-size="11.00" fill="#000000">rev_id</text>
<polygon fill="none" stroke="#000000" points="387,-389.2 387,-411.2 481,-411.2 481,-389.2 387,-389.2"/>
<text text-anchor="start" x="390" y="-396.9" font-family="Helvetica,sans-Serif" font-size="11.00" fill="#000000">int8[19]</text>
<polygon fill="none" stroke="#000000" points="193,-367.2 193,-389.2 387,-389.2 387,-367.2 193,-367.2"/>
<text text-anchor="start" x="213" y="-374.3" font-family="Helvetica,sans-Serif" font-size="11.00" fill="#000000">rev_type</text>
<polygon fill="none" stroke="#000000" points="387,-367.2 387,-389.2 481,-389.2 481,-367.2 387,-367.2"/>
<text text-anchor="start" x="390" y="-374.9" font-family="Helvetica,sans-Serif" font-size="11.00" fill="#000000">int2[5]</text>
<polygon fill="none" stroke="#000000" points="193,-345.2 193,-367.2 387,-367.2 387,-345.2 193,-345.2"/>
<image xlink:href="../../images/primaryKeys.png" width="11px" height="12px" preserveAspectRatio="xMinYMin meet" x="198" y="-362.2"/>
<text text-anchor="start" x="213" y="-352.3" font-family="Helvetica,sans-Serif" font-size="11.00" fill="#000000">id</text>
<polygon fill="none" stroke="#000000" points="387,-345.2 387,-367.2 481,-367.2 481,-345.2 387,-345.2"/>
<text text-anchor="start" x="389.9758" y="-352.9" font-family="Helvetica,sans-Serif" font-size="11.00" fill="#000000">uuid[2147483647]</text>
<polygon fill="none" stroke="#000000" points="193,-323.2 193,-345.2 387,-345.2 387,-323.2 193,-323.2"/>
<image xlink:href="../../images/foreignKeys.png" width="11px" height="12px" preserveAspectRatio="xMinYMin meet" x="198" y="-340.2"/>
<text text-anchor="start" x="213" y="-330.3" font-family="Helvetica,sans-Serif" font-size="11.00" fill="#000000">policy_code</text>
<polygon fill="none" stroke="#000000" points="387,-323.2 387,-345.2 481,-345.2 481,-323.2 387,-323.2"/>
<text text-anchor="start" x="390" y="-330.9" font-family="Helvetica,sans-Serif" font-size="11.00" fill="#000000">varchar[16]</text>
<polygon fill="none" stroke="#000000" points="193,-301.2 193,-323.2 387,-323.2 387,-301.2 193,-301.2"/>
<text text-anchor="start" x="213" y="-308.3" font-family="Helvetica,sans-Serif" font-size="11.00" fill="#000000">prison_code</text>
<polygon fill="none" stroke="#000000" points="387,-301.2 387,-323.2 481,-323.2 481,-301.2 387,-301.2"/>
<text text-anchor="start" x="390" y="-308.9" font-family="Helvetica,sans-Serif" font-size="11.00" fill="#000000">varchar[6]</text>
<polygon fill="none" stroke="#000000" points="193,-279.2 193,-301.2 387,-301.2 387,-279.2 193,-279.2"/>
<text text-anchor="start" x="213" y="-286.3" font-family="Helvetica,sans-Serif" font-size="11.00" fill="#000000">staff_id</text>
<polygon fill="none" stroke="#000000" points="387,-279.2 387,-301.2 481,-301.2 481,-279.2 387,-279.2"/>
<text text-anchor="start" x="390" y="-286.9" font-family="Helvetica,sans-Serif" font-size="11.00" fill="#000000">int8[19]</text>
<polygon fill="none" stroke="#000000" points="193,-257.2 193,-279.2 387,-279.2 387,-257.2 193,-257.2"/>
<text text-anchor="start" x="213" y="-264.3" font-family="Helvetica,sans-Serif" font-size="11.00" fill="#000000">position_id</text>
<polygon fill="none" stroke="#000000" points="387,-257.2 387,-279.2 481,-279.2 481,-257.2 387,-257.2"/>
<text text-anchor="start" x="390" y="-264.9" font-family="Helvetica,sans-Serif" font-size="11.00" fill="#000000">int8[19]</text>
<polygon fill="none" stroke="#000000" points="193,-235.2 193,-257.2 387,-257.2 387,-235.2 193,-235.2"/>
<text text-anchor="start" x="213" y="-242.3" font-family="Helvetica,sans-Serif" font-size="11.00" fill="#000000">schedule_type_id</text>
<polygon fill="none" stroke="#000000" points="387,-235.2 387,-257.2 481,-257.2 481,-235.2 387,-235.2"/>
<text text-anchor="start" x="390" y="-242.9" font-family="Helvetica,sans-Serif" font-size="11.00" fill="#000000">int8[19]</text>
<polygon fill="none" stroke="#000000" points="193,-213.2 193,-235.2 387,-235.2 387,-213.2 193,-213.2"/>
<text text-anchor="start" x="213" y="-220.3" font-family="Helvetica,sans-Serif" font-size="11.00" fill="#000000">hours_per_week</text>
<polygon fill="none" stroke="#000000" points="387,-213.2 387,-235.2 481,-235.2 481,-213.2 387,-213.2"/>
<text text-anchor="start" x="390" y="-220.9" font-family="Helvetica,sans-Serif" font-size="11.00" fill="#000000">numeric[0]</text>
<polygon fill="none" stroke="#000000" points="193,-191.2 193,-213.2 387,-213.2 387,-191.2 193,-191.2"/>
<text text-anchor="start" x="213" y="-198.3" font-family="Helvetica,sans-Serif" font-size="11.00" fill="#000000">from_date</text>
<polygon fill="none" stroke="#000000" points="387,-191.2 387,-213.2 481,-213.2 481,-191.2 387,-191.2"/>
<text text-anchor="start" x="390" y="-198.9" font-family="Helvetica,sans-Serif" font-size="11.00" fill="#000000">date[13]</text>
<polygon fill="none" stroke="#000000" points="193,-169.2 193,-191.2 387,-191.2 387,-169.2 193,-169.2"/>
<text text-anchor="start" x="213" y="-176.3" font-family="Helvetica,sans-Serif" font-size="11.00" fill="#000000">to_date</text>
<polygon fill="none" stroke="#000000" points="387,-169.2 387,-191.2 481,-191.2 481,-169.2 387,-169.2"/>
<text text-anchor="start" x="390" y="-176.9" font-family="Helvetica,sans-Serif" font-size="11.00" fill="#000000">date[13]</text>
<polygon fill="none" stroke="#000000" points="193,-147.2 193,-169.2 387,-169.2 387,-147.2 193,-147.2"/>
<text text-anchor="start" x="213" y="-154.3" font-family="Helvetica,sans-Serif" font-size="11.00" fill="#000000">position_modified</text>
<polygon fill="none" stroke="#000000" points="387,-147.2 387,-169.2 481,-169.2 481,-147.2 387,-147.2"/>
<text text-anchor="start" x="390" y="-154.9" font-family="Helvetica,sans-Serif" font-size="11.00" fill="#000000">bool[1]</text>
<polygon fill="none" stroke="#000000" points="193,-125.2 193,-147.2 387,-147.2 387,-125.2 193,-125.2"/>
<text text-anchor="start" x="213" y="-132.3" font-family="Helvetica,sans-Serif" font-size="11.00" fill="#000000">schedule_type_modified</text>
<polygon fill="none" stroke="#000000" points="387,-125.2 387,-147.2 481,-147.2 481,-125.2 387,-125.2"/>
<text text-anchor="start" x="390" y="-132.9" font-family="Helvetica,sans-Serif" font-size="11.00" fill="#000000">bool[1]</text>
<polygon fill="none" stroke="#000000" points="193,-103.2 193,-125.2 387,-125.2 387,-103.2 193,-103.2"/>
<text text-anchor="start" x="213" y="-110.3" font-family="Helvetica,sans-Serif" font-size="11.00" fill="#000000">hours_per_week_modified</text>
<polygon fill="none" stroke="#000000" points="387,-103.2 387,-125.2 481,-125.2 481,-103.2 387,-103.2"/>
<text text-anchor="start" x="390" y="-110.9" font-family="Helvetica,sans-Serif" font-size="11.00" fill="#000000">bool[1]</text>
<polygon fill="none" stroke="#000000" points="193,-81.2 193,-103.2 387,-103.2 387,-81.2 193,-81.2"/>
<text text-anchor="start" x="213" y="-88.3" font-family="Helvetica,sans-Serif" font-size="11.00" fill="#000000">from_date_modified</text>
<polygon fill="none" stroke="#000000" points="387,-81.2 387,-103.2 481,-103.2 481,-81.2 387,-81.2"/>
<text text-anchor="start" x="390" y="-88.9" font-family="Helvetica,sans-Serif" font-size="11.00" fill="#000000">bool[1]</text>
<polygon fill="none" stroke="#000000" points="193,-59.2 193,-81.2 387,-81.2 387,-59.2 193,-59.2"/>
<text text-anchor="start" x="213" y="-66.3" font-family="Helvetica,sans-Serif" font-size="11.00" fill="#000000">to_date_modified</text>
<polygon fill="none" stroke="#000000" points="387,-59.2 387,-81.2 481,-81.2 481,-59.2 387,-59.2"/>
<text text-anchor="start" x="390" y="-66.9" font-family="Helvetica,sans-Serif" font-size="11.00" fill="#000000">bool[1]</text>
<polygon fill="#ffffff" stroke="transparent" points="193,-40.2 193,-59.2 294,-59.2 294,-40.2 193,-40.2"/>
<polygon fill="none" stroke="#000000" points="193,-40.2 193,-59.2 294,-59.2 294,-40.2 193,-40.2"/>
<text text-anchor="start" x="196" y="-46.3" font-family="Helvetica,sans-Serif" font-size="11.00" fill="#000000">&lt; 2</text>
<polygon fill="#ffffff" stroke="transparent" points="294,-40.2 294,-59.2 387,-59.2 387,-40.2 294,-40.2"/>
<polygon fill="none" stroke="#000000" points="294,-40.2 294,-59.2 387,-59.2 387,-40.2 294,-40.2"/>
<text text-anchor="start" x="377.8862" y="-46.3" font-family="Helvetica,sans-Serif" font-size="11.00" fill="#000000"> &#160;</text>
<polygon fill="#ffffff" stroke="transparent" points="387,-40.2 387,-59.2 481,-59.2 481,-40.2 387,-40.2"/>
<polygon fill="none" stroke="#000000" points="387,-40.2 387,-59.2 481,-59.2 481,-40.2 387,-40.2"/>
<text text-anchor="start" x="462.4053" y="-46.3" font-family="Helvetica,sans-Serif" font-size="11.00" fill="#000000">0 &gt;</text>
<polygon fill="none" stroke="#000000" stroke-width="2" points="192,-39.2 192,-435.2 482,-435.2 482,-39.2 192,-39.2"/>
</a>
</g>
</g>
<!-- policy -->
<g id="node2" class="node">
<title>policy</title>
<g id="a_node2"><a xlink:href="../../tables/policy.html" xlink:title="policy" target="_top">
<polygon fill="#ffffff" stroke="transparent" points="26.5,-266.7 26.5,-349.7 123.5,-349.7 123.5,-266.7 26.5,-266.7"/>
<polygon fill="#f5f5f5" stroke="transparent" points="27,-326.2 27,-349.2 124,-349.2 124,-326.2 27,-326.2"/>
<polygon fill="none" stroke="#000000" points="27,-326.2 27,-349.2 124,-349.2 124,-326.2 27,-326.2"/>
<text text-anchor="start" x="32" y="-334.8" font-family="Helvetica,sans-Serif" font-weight="bold" font-size="11.00" fill="#000000">policy</text>
<text text-anchor="start" x="89.0437" y="-334.3" font-family="Helvetica,sans-Serif" font-size="11.00" fill="#000000">[table]</text>
<polygon fill="none" stroke="#000000" points="27,-304.2 27,-326.2 124,-326.2 124,-304.2 27,-304.2"/>
<image xlink:href="../../images/primaryKeys.png" width="11px" height="12px" preserveAspectRatio="xMinYMin meet" x="32" y="-321.2"/>
<text text-anchor="start" x="47" y="-311.3" font-family="Helvetica,sans-Serif" font-size="11.00" fill="#000000">code</text>
<polygon fill="none" stroke="#000000" points="27,-285.2 27,-304.2 124,-304.2 124,-285.2 27,-285.2"/>
<text text-anchor="start" x="30" y="-291.3" font-family="Helvetica,sans-Serif" font-size="11.00" fill="#000000">...</text>
<polygon fill="#ffffff" stroke="transparent" points="27,-266.2 27,-285.2 62,-285.2 62,-266.2 27,-266.2"/>
<polygon fill="none" stroke="#000000" points="27,-266.2 27,-285.2 62,-285.2 62,-266.2 27,-266.2"/>
<text text-anchor="start" x="30" y="-272.3" font-family="Helvetica,sans-Serif" font-size="11.00" fill="#000000"> &#160;</text>
<polygon fill="#ffffff" stroke="transparent" points="62,-266.2 62,-285.2 85,-285.2 85,-266.2 62,-266.2"/>
<polygon fill="none" stroke="#000000" points="62,-266.2 62,-285.2 85,-285.2 85,-266.2 62,-266.2"/>
<text text-anchor="start" x="75.8862" y="-272.3" font-family="Helvetica,sans-Serif" font-size="11.00" fill="#000000"> &#160;</text>
<polygon fill="#ffffff" stroke="transparent" points="85,-266.2 85,-285.2 124,-285.2 124,-266.2 85,-266.2"/>
<polygon fill="none" stroke="#000000" points="85,-266.2 85,-285.2 124,-285.2 124,-266.2 85,-266.2"/>
<text text-anchor="start" x="99.2904" y="-272.3" font-family="Helvetica,sans-Serif" font-size="11.00" fill="#000000">14 &gt;</text>
</a>
</g>
</g>
<!-- staff_role_audit&#45;&gt;policy -->
<g id="edge1" class="edge">
<title>staff_role_audit:w&#45;&gt;policy:e</title>
<path fill="none" stroke="#000000" stroke-dasharray="5,2" d="M178.6724,-332.7091C158.5606,-328.23 150.3411,-315.2 124,-315.2"/>
<polygon fill="#000000" stroke="#000000" points="185.043,-333.372 192.6274,-337.7807 189.0215,-333.786 193,-334.2 193,-334.2 193,-334.2 189.0215,-333.786 193.3726,-330.6193 185.043,-333.372 185.043,-333.372"/>
<ellipse fill="none" stroke="#000000" cx="181.8601" cy="-333.0407" rx="3.2" ry="3.2"/>
</g>
<!-- audit_revision -->
<g id="node3" class="node">
<title>audit_revision</title>
<g id="a_node3"><a xlink:href="../../tables/audit_revision.html" xlink:title="audit_revision" target="_top">
<polygon fill="#ffffff" stroke="transparent" points="8,-370.7 8,-453.7 142,-453.7 142,-370.7 8,-370.7"/>
<polygon fill="#f5f5f5" stroke="transparent" points="8,-430.2 8,-453.2 142,-453.2 142,-430.2 8,-430.2"/>
<polygon fill="none" stroke="#000000" points="8,-430.2 8,-453.2 142,-453.2 142,-430.2 8,-430.2"/>
<text text-anchor="start" x="13" y="-438.8" font-family="Helvetica,sans-Serif" font-weight="bold" font-size="11.00" fill="#000000">audit_revision</text>
<text text-anchor="start" x="107.5219" y="-438.3" font-family="Helvetica,sans-Serif" font-size="11.00" fill="#000000">[table]</text>
<polygon fill="none" stroke="#000000" points="8,-408.2 8,-430.2 142,-430.2 142,-408.2 8,-408.2"/>
<image xlink:href="../../images/primaryKeys.png" width="11px" height="12px" preserveAspectRatio="xMinYMin meet" x="13" y="-425.2"/>
<text text-anchor="start" x="28" y="-415.3" font-family="Helvetica,sans-Serif" font-size="11.00" fill="#000000">id</text>
<polygon fill="none" stroke="#000000" points="8,-389.2 8,-408.2 142,-408.2 142,-389.2 8,-389.2"/>
<text text-anchor="start" x="11" y="-395.3" font-family="Helvetica,sans-Serif" font-size="11.00" fill="#000000">...</text>
<polygon fill="#ffffff" stroke="transparent" points="8,-370.2 8,-389.2 64,-389.2 64,-370.2 8,-370.2"/>
<polygon fill="none" stroke="#000000" points="8,-370.2 8,-389.2 64,-389.2 64,-370.2 8,-370.2"/>
<text text-anchor="start" x="11" y="-376.3" font-family="Helvetica,sans-Serif" font-size="11.00" fill="#000000"> &#160;</text>
<polygon fill="#ffffff" stroke="transparent" points="64,-370.2 64,-389.2 98,-389.2 98,-370.2 64,-370.2"/>
<polygon fill="none" stroke="#000000" points="64,-370.2 64,-389.2 98,-389.2 98,-370.2 64,-370.2"/>
<text text-anchor="start" x="88.8862" y="-376.3" font-family="Helvetica,sans-Serif" font-size="11.00" fill="#000000"> &#160;</text>
<polygon fill="#ffffff" stroke="transparent" points="98,-370.2 98,-389.2 142,-389.2 142,-370.2 98,-370.2"/>
<polygon fill="none" stroke="#000000" points="98,-370.2 98,-389.2 142,-389.2 142,-370.2 98,-370.2"/>
<text text-anchor="start" x="123.4053" y="-376.3" font-family="Helvetica,sans-Serif" font-size="11.00" fill="#000000">5 &gt;</text>
</a>
</g>
</g>
<!-- staff_role_audit&#45;&gt;audit_revision -->
<g id="edge2" class="edge">
<title>staff_role_audit:w&#45;&gt;audit_revision:e</title>
<path fill="none" stroke="#000000" d="M178.6076,-403.0035C166.2761,-408.2887 160.3304,-419.2 142,-419.2"/>
<polygon fill="#000000" stroke="#000000" points="185.1476,-401.7296 193.6883,-403.7336 189.0738,-400.9648 193,-400.2 193,-400.2 193,-400.2 189.0738,-400.9648 192.3117,-396.6664 185.1476,-401.7296 185.1476,-401.7296"/>
<ellipse fill="none" stroke="#000000" cx="182.0066" cy="-402.3415" rx="3.2" ry="3.2"/>
</g>
</g>
</svg>
