<?xml version="1.0" encoding="UTF-8" standalone="no"?>
<!DOCTYPE svg PUBLIC "-//W3C//DTD SVG 1.1//EN"
 "http://www.w3.org/Graphics/SVG/1.1/DTD/svg11.dtd">
<!-- Generated by graphviz version 2.40.1 (20161225.0304)
 -->
<!-- Title: oneDegreeRelationshipsDiagramImplied Pages: 1 -->
<svg width="463pt" height="303pt"
 viewBox="0.00 0.00 463.00 303.20" xmlns="http://www.w3.org/2000/svg" xmlns:xlink="http://www.w3.org/1999/xlink">
<g id="graph0" class="graph" transform="scale(1 1) rotate(0) translate(4 299.2)">
<title>oneDegreeRelationshipsDiagramImplied</title>
<polygon fill="#ffffff" stroke="transparent" points="-4,4 -4,-299.2 459,-299.2 459,4 -4,4"/>
<text text-anchor="middle" x="72.4936" y="-7.3" font-family="Helvetica,sans-Serif" font-size="11.00" fill="#000000">Generated by SchemaSpy</text>
<!-- staff_configuration -->
<g id="node1" class="node">
<title>staff_configuration</title>
<g id="a_node1"><a xlink:href="../../tables/staff_configuration.html" xlink:title="staff_configuration" target="_top">
<polygon fill="#ffffff" stroke="transparent" points="200,-73.7 200,-273.7 447,-273.7 447,-73.7 200,-73.7"/>
<polygon fill="#f5f5f5" stroke="transparent" points="202.5,-248.7 202.5,-271.7 445.5,-271.7 445.5,-248.7 202.5,-248.7"/>
<polygon fill="none" stroke="#000000" points="202.5,-248.7 202.5,-271.7 445.5,-271.7 445.5,-248.7 202.5,-248.7"/>
<text text-anchor="start" x="207.5" y="-257.3" font-family="Helvetica,sans-Serif" font-weight="bold" font-size="11.00" fill="#000000">staff_configuration</text>
<text text-anchor="start" x="410.5437" y="-256.8" font-family="Helvetica,sans-Serif" font-size="11.00" fill="#000000">[table]</text>
<polygon fill="#ffffff" stroke="transparent" points="202.5,-226.7 202.5,-248.7 351.5,-248.7 351.5,-226.7 202.5,-226.7"/>
<polygon fill="none" stroke="#000000" points="202.5,-226.7 202.5,-248.7 351.5,-248.7 351.5,-226.7 202.5,-226.7"/>
<text text-anchor="start" x="222.5" y="-233.8" font-family="Helvetica,sans-Serif" font-size="11.00" fill="#000000">staff_id</text>
<polygon fill="none" stroke="#000000" points="351.5,-226.7 351.5,-248.7 445.5,-248.7 445.5,-226.7 351.5,-226.7"/>
<text text-anchor="start" x="354.5" y="-234.4" font-family="Helvetica,sans-Serif" font-size="11.00" fill="#000000">int8[19]</text>
<polygon fill="none" stroke="#000000" points="202.5,-204.7 202.5,-226.7 351.5,-226.7 351.5,-204.7 202.5,-204.7"/>
<text text-anchor="start" x="222.5" y="-211.8" font-family="Helvetica,sans-Serif" font-size="11.00" fill="#000000">capacity</text>
<polygon fill="none" stroke="#000000" points="351.5,-204.7 351.5,-226.7 445.5,-226.7 445.5,-204.7 351.5,-204.7"/>
<text text-anchor="start" x="354.5" y="-212.4" font-family="Helvetica,sans-Serif" font-size="11.00" fill="#000000">int4[10]</text>
<polygon fill="none" stroke="#000000" points="202.5,-182.7 202.5,-204.7 351.5,-204.7 351.5,-182.7 202.5,-182.7"/>
<image xlink:href="../../images/foreignKeys.png" width="11px" height="12px" preserveAspectRatio="xMinYMin meet" x="207.5" y="-199.7"/>
<text text-anchor="start" x="222.5" y="-189.8" font-family="Helvetica,sans-Serif" font-size="11.00" fill="#000000">status_id</text>
<polygon fill="none" stroke="#000000" points="351.5,-182.7 351.5,-204.7 445.5,-204.7 445.5,-182.7 351.5,-182.7"/>
<text text-anchor="start" x="354.5" y="-190.4" font-family="Helvetica,sans-Serif" font-size="11.00" fill="#000000">int8[19]</text>
<polygon fill="none" stroke="#000000" points="202.5,-160.7 202.5,-182.7 351.5,-182.7 351.5,-160.7 202.5,-160.7"/>
<text text-anchor="start" x="222.5" y="-167.8" font-family="Helvetica,sans-Serif" font-size="11.00" fill="#000000">reactivate_on</text>
<polygon fill="none" stroke="#000000" points="351.5,-160.7 351.5,-182.7 445.5,-182.7 445.5,-160.7 351.5,-160.7"/>
<text text-anchor="start" x="354.5" y="-168.4" font-family="Helvetica,sans-Serif" font-size="11.00" fill="#000000">date[13]</text>
<polygon fill="#ffffff" stroke="transparent" points="202.5,-138.7 202.5,-160.7 351.5,-160.7 351.5,-138.7 202.5,-138.7"/>
<polygon fill="none" stroke="#000000" points="202.5,-138.7 202.5,-160.7 351.5,-160.7 351.5,-138.7 202.5,-138.7"/>
<image xlink:href="../../images/foreignKeys.png" width="11px" height="12px" preserveAspectRatio="xMinYMin meet" x="207.5" y="-155.7"/>
<text text-anchor="start" x="222.5" y="-145.8" font-family="Helvetica,sans-Serif" font-size="11.00" fill="#000000">policy_code</text>
<polygon fill="none" stroke="#000000" points="351.5,-138.7 351.5,-160.7 445.5,-160.7 445.5,-138.7 351.5,-138.7"/>
<text text-anchor="start" x="354.5" y="-146.4" font-family="Helvetica,sans-Serif" font-size="11.00" fill="#000000">varchar[16]</text>
<polygon fill="none" stroke="#000000" points="202.5,-116.7 202.5,-138.7 351.5,-138.7 351.5,-116.7 202.5,-116.7"/>
<image xlink:href="../../images/primaryKeys.png" width="11px" height="12px" preserveAspectRatio="xMinYMin meet" x="207.5" y="-133.7"/>
<text text-anchor="start" x="222.5" y="-123.8" font-family="Helvetica,sans-Serif" font-size="11.00" fill="#000000">id</text>
<polygon fill="none" stroke="#000000" points="351.5,-116.7 351.5,-138.7 445.5,-138.7 445.5,-116.7 351.5,-116.7"/>
<text text-anchor="start" x="354.4758" y="-124.4" font-family="Helvetica,sans-Serif" font-size="11.00" fill="#000000">uuid[2147483647]</text>
<polygon fill="none" stroke="#000000" points="202.5,-94.7 202.5,-116.7 351.5,-116.7 351.5,-94.7 202.5,-94.7"/>
<text text-anchor="start" x="222.5" y="-101.8" font-family="Helvetica,sans-Serif" font-size="11.00" fill="#000000">version</text>
<polygon fill="none" stroke="#000000" points="351.5,-94.7 351.5,-116.7 445.5,-116.7 445.5,-94.7 351.5,-94.7"/>
<text text-anchor="start" x="354.5" y="-102.4" font-family="Helvetica,sans-Serif" font-size="11.00" fill="#000000">int4[10]</text>
<polygon fill="#ffffff" stroke="transparent" points="202.5,-75.7 202.5,-94.7 281.5,-94.7 281.5,-75.7 202.5,-75.7"/>
<polygon fill="none" stroke="#000000" points="202.5,-75.7 202.5,-94.7 281.5,-94.7 281.5,-75.7 202.5,-75.7"/>
<text text-anchor="start" x="205.5" y="-81.8" font-family="Helvetica,sans-Serif" font-size="11.00" fill="#000000">&lt; 2</text>
<polygon fill="#ffffff" stroke="transparent" points="281.5,-75.7 281.5,-94.7 351.5,-94.7 351.5,-75.7 281.5,-75.7"/>
<polygon fill="none" stroke="#000000" points="281.5,-75.7 281.5,-94.7 351.5,-94.7 351.5,-75.7 281.5,-75.7"/>
<text text-anchor="start" x="342.3862" y="-81.8" font-family="Helvetica,sans-Serif" font-size="11.00" fill="#000000"> &#160;</text>
<polygon fill="#ffffff" stroke="transparent" points="351.5,-75.7 351.5,-94.7 445.5,-94.7 445.5,-75.7 351.5,-75.7"/>
<polygon fill="none" stroke="#000000" points="351.5,-75.7 351.5,-94.7 445.5,-94.7 445.5,-75.7 351.5,-75.7"/>
<text text-anchor="start" x="426.9053" y="-81.8" font-family="Helvetica,sans-Serif" font-size="11.00" fill="#000000">0 &gt;</text>
<polygon fill="none" stroke="#000000" stroke-width="2" points="201,-74.7 201,-272.7 446,-272.7 446,-74.7 201,-74.7"/>
</a>
</g>
</g>
<!-- policy -->
<g id="node2" class="node">
<title>policy</title>
<g id="a_node2"><a xlink:href="../../tables/policy.html" xlink:title="policy" target="_top">
<polygon fill="#ffffff" stroke="transparent" points="31,-38.2 31,-121.2 128,-121.2 128,-38.2 31,-38.2"/>
<polygon fill="#f5f5f5" stroke="transparent" points="31.5,-97.7 31.5,-120.7 128.5,-120.7 128.5,-97.7 31.5,-97.7"/>
<polygon fill="none" stroke="#000000" points="31.5,-97.7 31.5,-120.7 128.5,-120.7 128.5,-97.7 31.5,-97.7"/>
<text text-anchor="start" x="36.5" y="-106.3" font-family="Helvetica,sans-Serif" font-weight="bold" font-size="11.00" fill="#000000">policy</text>
<text text-anchor="start" x="93.5437" y="-105.8" font-family="Helvetica,sans-Serif" font-size="11.00" fill="#000000">[table]</text>
<polygon fill="none" stroke="#000000" points="31.5,-75.7 31.5,-97.7 128.5,-97.7 128.5,-75.7 31.5,-75.7"/>
<image xlink:href="../../images/primaryKeys.png" width="11px" height="12px" preserveAspectRatio="xMinYMin meet" x="36.5" y="-92.7"/>
<text text-anchor="start" x="51.5" y="-82.8" font-family="Helvetica,sans-Serif" font-size="11.00" fill="#000000">code</text>
<polygon fill="none" stroke="#000000" points="31.5,-56.7 31.5,-75.7 128.5,-75.7 128.5,-56.7 31.5,-56.7"/>
<text text-anchor="start" x="34.5" y="-62.8" font-family="Helvetica,sans-Serif" font-size="11.00" fill="#000000">...</text>
<polygon fill="#ffffff" stroke="transparent" points="31.5,-37.7 31.5,-56.7 69.5,-56.7 69.5,-37.7 31.5,-37.7"/>
<polygon fill="none" stroke="#000000" points="31.5,-37.7 31.5,-56.7 69.5,-56.7 69.5,-37.7 31.5,-37.7"/>
<text text-anchor="start" x="34.5" y="-43.8" font-family="Helvetica,sans-Serif" font-size="11.00" fill="#000000"> &#160;</text>
<polygon fill="#ffffff" stroke="transparent" points="69.5,-37.7 69.5,-56.7 94.5,-56.7 94.5,-37.7 69.5,-37.7"/>
<polygon fill="none" stroke="#000000" points="69.5,-37.7 69.5,-56.7 94.5,-56.7 94.5,-37.7 69.5,-37.7"/>
<text text-anchor="start" x="85.3862" y="-43.8" font-family="Helvetica,sans-Serif" font-size="11.00" fill="#000000"> &#160;</text>
<polygon fill="#ffffff" stroke="transparent" points="94.5,-37.7 94.5,-56.7 128.5,-56.7 128.5,-37.7 94.5,-37.7"/>
<polygon fill="none" stroke="#000000" points="94.5,-37.7 94.5,-56.7 128.5,-56.7 128.5,-37.7 94.5,-37.7"/>
<text text-anchor="start" x="109.9053" y="-43.8" font-family="Helvetica,sans-Serif" font-size="11.00" fill="#000000">8 &gt;</text>
</a>
</g>
</g>
<!-- staff_configuration&#45;&gt;policy -->
<g id="edge1" class="edge">
<title>staff_configuration:w&#45;&gt;policy:e</title>
<path fill="none" stroke="#000000" d="M188.3289,-146.8293C161.5764,-134.5047 166.1256,-86.7 128.5,-86.7"/>
<polygon fill="#000000" stroke="#000000" points="194.6593,-148.1116 201.7852,-153.2283 198.5796,-148.9058 202.5,-149.7 202.5,-149.7 202.5,-149.7 198.5796,-148.9058 203.2148,-146.1717 194.6593,-148.1116 194.6593,-148.1116"/>
<ellipse fill="none" stroke="#000000" cx="191.523" cy="-147.4763" rx="3.2" ry="3.2"/>
</g>
<!-- reference_data -->
<g id="node3" class="node">
<title>reference_data</title>
<g id="a_node3"><a xlink:href="../../tables/reference_data.html" xlink:title="reference_data" target="_top">
<polygon fill="#ffffff" stroke="transparent" points="8,-142.2 8,-291.2 151,-291.2 151,-142.2 8,-142.2"/>
<polygon fill="#f5f5f5" stroke="transparent" points="8.5,-267.7 8.5,-290.7 151.5,-290.7 151.5,-267.7 8.5,-267.7"/>
<polygon fill="none" stroke="#000000" points="8.5,-267.7 8.5,-290.7 151.5,-290.7 151.5,-267.7 8.5,-267.7"/>
<text text-anchor="start" x="13.5" y="-276.3" font-family="Helvetica,sans-Serif" font-weight="bold" font-size="11.00" fill="#000000">reference_data</text>
<text text-anchor="start" x="116.5437" y="-275.8" font-family="Helvetica,sans-Serif" font-size="11.00" fill="#000000">[table]</text>
<polygon fill="none" stroke="#000000" points="8.5,-245.7 8.5,-267.7 151.5,-267.7 151.5,-245.7 8.5,-245.7"/>
<image xlink:href="../../images/primaryKeys.png" width="11px" height="12px" preserveAspectRatio="xMinYMin meet" x="13.5" y="-262.7"/>
<text text-anchor="start" x="28.5" y="-252.8" font-family="Helvetica,sans-Serif" font-size="11.00" fill="#000000">id</text>
<polygon fill="#ffffff" stroke="transparent" points="8.5,-223.7 8.5,-245.7 151.5,-245.7 151.5,-223.7 8.5,-223.7"/>
<polygon fill="none" stroke="#000000" points="8.5,-223.7 8.5,-245.7 151.5,-245.7 151.5,-223.7 8.5,-223.7"/>
<text text-anchor="start" x="28.5" y="-230.8" font-family="Helvetica,sans-Serif" font-size="11.00" fill="#000000">domain</text>
<polygon fill="#ffffff" stroke="transparent" points="8.5,-201.7 8.5,-223.7 151.5,-223.7 151.5,-201.7 8.5,-201.7"/>
<polygon fill="none" stroke="#000000" points="8.5,-201.7 8.5,-223.7 151.5,-223.7 151.5,-201.7 8.5,-201.7"/>
<text text-anchor="start" x="28.5" y="-208.8" font-family="Helvetica,sans-Serif" font-size="11.00" fill="#000000">code</text>
<polygon fill="#ffffff" stroke="transparent" points="8.5,-179.7 8.5,-201.7 151.5,-201.7 151.5,-179.7 8.5,-179.7"/>
<polygon fill="none" stroke="#000000" points="8.5,-179.7 8.5,-201.7 151.5,-201.7 151.5,-179.7 8.5,-179.7"/>
<text text-anchor="start" x="28.5" y="-186.8" font-family="Helvetica,sans-Serif" font-size="11.00" fill="#000000">sequence_number</text>
<polygon fill="none" stroke="#000000" points="8.5,-160.7 8.5,-179.7 151.5,-179.7 151.5,-160.7 8.5,-160.7"/>
<text text-anchor="start" x="11.5" y="-166.8" font-family="Helvetica,sans-Serif" font-size="11.00" fill="#000000">...</text>
<polygon fill="#ffffff" stroke="transparent" points="8.5,-141.7 8.5,-160.7 69.5,-160.7 69.5,-141.7 8.5,-141.7"/>
<polygon fill="none" stroke="#000000" points="8.5,-141.7 8.5,-160.7 69.5,-160.7 69.5,-141.7 8.5,-141.7"/>
<text text-anchor="start" x="11.5" y="-147.8" font-family="Helvetica,sans-Serif" font-size="11.00" fill="#000000"> &#160;</text>
<polygon fill="#ffffff" stroke="transparent" points="69.5,-141.7 69.5,-160.7 105.5,-160.7 105.5,-141.7 69.5,-141.7"/>
<polygon fill="none" stroke="#000000" points="69.5,-141.7 69.5,-160.7 105.5,-160.7 105.5,-141.7 69.5,-141.7"/>
<text text-anchor="start" x="96.3862" y="-147.8" font-family="Helvetica,sans-Serif" font-size="11.00" fill="#000000"> &#160;</text>
<polygon fill="#ffffff" stroke="transparent" points="105.5,-141.7 105.5,-160.7 151.5,-160.7 151.5,-141.7 105.5,-141.7"/>
<polygon fill="none" stroke="#000000" points="105.5,-141.7 105.5,-160.7 151.5,-160.7 151.5,-141.7 105.5,-141.7"/>
<text text-anchor="start" x="132.9053" y="-147.8" font-family="Helvetica,sans-Serif" font-size="11.00" fill="#000000">5 &gt;</text>
</a>
</g>
</g>
<!-- staff_configuration&#45;&gt;reference_data -->
<g id="edge2" class="edge">
<title>staff_configuration:w&#45;&gt;reference_data:e</title>
<path fill="none" stroke="#000000" d="M188.4033,-198.6435C172.025,-213.4952 181.3329,-256.7 151.5,-256.7"/>
<polygon fill="#000000" stroke="#000000" points="194.9507,-196.3474 203.6913,-197.0972 198.7254,-195.0237 202.5,-193.7 202.5,-193.7 202.5,-193.7 198.7254,-195.0237 201.3087,-190.3028 194.9507,-196.3474 194.9507,-196.3474"/>
<ellipse fill="none" stroke="#000000" cx="191.931" cy="-197.4064" rx="3.2" ry="3.2"/>
</g>
</g>
</svg>
