<?xml version="1.0" encoding="UTF-8" standalone="no"?>
<!DOCTYPE svg PUBLIC "-//W3C//DTD SVG 1.1//EN"
 "http://www.w3.org/Graphics/SVG/1.1/DTD/svg11.dtd">
<!-- Generated by graphviz version 2.40.1 (20161225.0304)
 -->
<!-- Title: twoDegreesRelationshipsDiagram Pages: 1 -->
<svg width="532pt" height="803pt"
 viewBox="0.00 0.00 532.00 803.20" xmlns="http://www.w3.org/2000/svg" xmlns:xlink="http://www.w3.org/1999/xlink">
<g id="graph0" class="graph" transform="scale(1 1) rotate(0) translate(4 799.2)">
<title>twoDegreesRelationshipsDiagram</title>
<polygon fill="#ffffff" stroke="transparent" points="-4,4 -4,-799.2 528,-799.2 528,4 -4,4"/>
<text text-anchor="middle" x="72.4936" y="-7.3" font-family="Helvetica,sans-Serif" font-size="11.00" fill="#000000">Generated by SchemaSpy</text>
<!-- allocation -->
<g id="node1" class="node">
<title>allocation</title>
<g id="a_node1"><a xlink:href="../../tables/allocation.html" xlink:title="allocation" target="_top">
<polygon fill="#ffffff" stroke="transparent" points="305.5,-648.2 305.5,-709.2 410.5,-709.2 410.5,-648.2 305.5,-648.2"/>
<polygon fill="#f5f5f5" stroke="transparent" points="306,-685.7 306,-708.7 411,-708.7 411,-685.7 306,-685.7"/>
<polygon fill="none" stroke="#000000" points="306,-685.7 306,-708.7 411,-708.7 411,-685.7 306,-685.7"/>
<text text-anchor="start" x="311" y="-694.3" font-family="Helvetica,sans-Serif" font-weight="bold" font-size="11.00" fill="#000000">allocation</text>
<text text-anchor="start" x="376.5219" y="-693.8" font-family="Helvetica,sans-Serif" font-size="11.00" fill="#000000">[table]</text>
<polygon fill="none" stroke="#000000" points="306,-666.7 306,-685.7 411,-685.7 411,-666.7 306,-666.7"/>
<text text-anchor="start" x="309" y="-672.8" font-family="Helvetica,sans-Serif" font-size="11.00" fill="#000000">...</text>
<polygon fill="#ffffff" stroke="transparent" points="306,-647.7 306,-666.7 357,-666.7 357,-647.7 306,-647.7"/>
<polygon fill="none" stroke="#000000" points="306,-647.7 306,-666.7 357,-666.7 357,-647.7 306,-647.7"/>
<text text-anchor="start" x="309" y="-653.8" font-family="Helvetica,sans-Serif" font-size="11.00" fill="#000000">&lt; 3</text>
<polygon fill="#ffffff" stroke="transparent" points="357,-647.7 357,-666.7 384,-666.7 384,-647.7 357,-647.7"/>
<polygon fill="none" stroke="#000000" points="357,-647.7 357,-666.7 384,-666.7 384,-647.7 357,-647.7"/>
<text text-anchor="start" x="374.8862" y="-653.8" font-family="Helvetica,sans-Serif" font-size="11.00" fill="#000000"> &#160;</text>
<polygon fill="#ffffff" stroke="transparent" points="384,-647.7 384,-666.7 411,-666.7 411,-647.7 384,-647.7"/>
<polygon fill="none" stroke="#000000" points="384,-647.7 384,-666.7 411,-666.7 411,-647.7 384,-647.7"/>
<text text-anchor="start" x="401.8862" y="-653.8" font-family="Helvetica,sans-Serif" font-size="11.00" fill="#000000"> &#160;</text>
</a>
</g>
</g>
<!-- reference_data -->
<g id="node2" class="node">
<title>reference_data</title>
<g id="a_node2"><a xlink:href="../../tables/reference_data.html" xlink:title="reference_data" target="_top">
<polygon fill="#ffffff" stroke="transparent" points="8,-561.2 8,-710.2 151,-710.2 151,-561.2 8,-561.2"/>
<polygon fill="#f5f5f5" stroke="transparent" points="8.5,-686.7 8.5,-709.7 151.5,-709.7 151.5,-686.7 8.5,-686.7"/>
<polygon fill="none" stroke="#000000" points="8.5,-686.7 8.5,-709.7 151.5,-709.7 151.5,-686.7 8.5,-686.7"/>
<text text-anchor="start" x="13.5" y="-695.3" font-family="Helvetica,sans-Serif" font-weight="bold" font-size="11.00" fill="#000000">reference_data</text>
<text text-anchor="start" x="116.5437" y="-694.8" font-family="Helvetica,sans-Serif" font-size="11.00" fill="#000000">[table]</text>
<polygon fill="none" stroke="#000000" points="8.5,-664.7 8.5,-686.7 151.5,-686.7 151.5,-664.7 8.5,-664.7"/>
<image xlink:href="../../images/primaryKeys.png" width="11px" height="12px" preserveAspectRatio="xMinYMin meet" x="13.5" y="-681.7"/>
<text text-anchor="start" x="28.5" y="-671.8" font-family="Helvetica,sans-Serif" font-size="11.00" fill="#000000">id</text>
<polygon fill="#ffffff" stroke="transparent" points="8.5,-642.7 8.5,-664.7 151.5,-664.7 151.5,-642.7 8.5,-642.7"/>
<polygon fill="none" stroke="#000000" points="8.5,-642.7 8.5,-664.7 151.5,-664.7 151.5,-642.7 8.5,-642.7"/>
<text text-anchor="start" x="28.5" y="-649.8" font-family="Helvetica,sans-Serif" font-size="11.00" fill="#000000">domain</text>
<polygon fill="#ffffff" stroke="transparent" points="8.5,-620.7 8.5,-642.7 151.5,-642.7 151.5,-620.7 8.5,-620.7"/>
<polygon fill="none" stroke="#000000" points="8.5,-620.7 8.5,-642.7 151.5,-642.7 151.5,-620.7 8.5,-620.7"/>
<text text-anchor="start" x="28.5" y="-627.8" font-family="Helvetica,sans-Serif" font-size="11.00" fill="#000000">code</text>
<polygon fill="#ffffff" stroke="transparent" points="8.5,-598.7 8.5,-620.7 151.5,-620.7 151.5,-598.7 8.5,-598.7"/>
<polygon fill="none" stroke="#000000" points="8.5,-598.7 8.5,-620.7 151.5,-620.7 151.5,-598.7 8.5,-598.7"/>
<text text-anchor="start" x="28.5" y="-605.8" font-family="Helvetica,sans-Serif" font-size="11.00" fill="#000000">sequence_number</text>
<polygon fill="none" stroke="#000000" points="8.5,-579.7 8.5,-598.7 151.5,-598.7 151.5,-579.7 8.5,-579.7"/>
<text text-anchor="start" x="11.5" y="-585.8" font-family="Helvetica,sans-Serif" font-size="11.00" fill="#000000">...</text>
<polygon fill="#ffffff" stroke="transparent" points="8.5,-560.7 8.5,-579.7 53.5,-579.7 53.5,-560.7 8.5,-560.7"/>
<polygon fill="none" stroke="#000000" points="8.5,-560.7 8.5,-579.7 53.5,-579.7 53.5,-560.7 8.5,-560.7"/>
<text text-anchor="start" x="11.5" y="-566.8" font-family="Helvetica,sans-Serif" font-size="11.00" fill="#000000"> &#160;</text>
<polygon fill="#ffffff" stroke="transparent" points="53.5,-560.7 53.5,-579.7 113.5,-579.7 113.5,-560.7 53.5,-560.7"/>
<polygon fill="none" stroke="#000000" points="53.5,-560.7 53.5,-579.7 113.5,-579.7 113.5,-560.7 53.5,-560.7"/>
<text text-anchor="start" x="71.9956" y="-566.8" font-family="Helvetica,sans-Serif" font-size="11.00" fill="#000000">60 rows</text>
<polygon fill="#ffffff" stroke="transparent" points="113.5,-560.7 113.5,-579.7 151.5,-579.7 151.5,-560.7 113.5,-560.7"/>
<polygon fill="none" stroke="#000000" points="113.5,-560.7 113.5,-579.7 151.5,-579.7 151.5,-560.7 113.5,-560.7"/>
<text text-anchor="start" x="132.9053" y="-566.8" font-family="Helvetica,sans-Serif" font-size="11.00" fill="#000000">7 &gt;</text>
</a>
</g>
</g>
<!-- allocation&#45;&gt;reference_data -->
<g id="edge1" class="edge">
<title>allocation:w&#45;&gt;reference_data:e</title>
<path fill="none" stroke="#000000" d="M291.5199,-674.4632C234.5015,-669.7331 215.0703,-670.1453 151.5,-675.7"/>
<polygon fill="#000000" stroke="#000000" points="298.029,-675.0191 305.6936,-679.2869 302.0145,-675.3596 306,-675.7 306,-675.7 306,-675.7 302.0145,-675.3596 306.3064,-672.1131 298.029,-675.0191 298.029,-675.0191"/>
<ellipse fill="none" stroke="#000000" cx="294.8406" cy="-674.7468" rx="3.2" ry="3.2"/>
</g>
<!-- allocation&#45;&gt;reference_data -->
<g id="edge2" class="edge">
<title>allocation:w&#45;&gt;reference_data:e</title>
<path fill="none" stroke="#000000" d="M291.5199,-677.1429C234.5015,-682.6614 215.0703,-682.1805 151.5,-675.7"/>
<polygon fill="#000000" stroke="#000000" points="298.0394,-676.4933 306.357,-679.2823 302.0197,-676.0967 306,-675.7 306,-675.7 306,-675.7 302.0197,-676.0967 305.643,-672.1177 298.0394,-676.4933 298.0394,-676.4933"/>
<ellipse fill="none" stroke="#000000" cx="294.8552" cy="-676.8106" rx="3.2" ry="3.2"/>
</g>
<!-- policy -->
<g id="node3" class="node">
<title>policy</title>
<g id="a_node3"><a xlink:href="../../tables/policy.html" xlink:title="policy" target="_top">
<polygon fill="#ffffff" stroke="transparent" points="31,-290.2 31,-373.2 128,-373.2 128,-290.2 31,-290.2"/>
<polygon fill="#f5f5f5" stroke="transparent" points="31.5,-349.7 31.5,-372.7 128.5,-372.7 128.5,-349.7 31.5,-349.7"/>
<polygon fill="none" stroke="#000000" points="31.5,-349.7 31.5,-372.7 128.5,-372.7 128.5,-349.7 31.5,-349.7"/>
<text text-anchor="start" x="36.5" y="-358.3" font-family="Helvetica,sans-Serif" font-weight="bold" font-size="11.00" fill="#000000">policy</text>
<text text-anchor="start" x="93.5437" y="-357.8" font-family="Helvetica,sans-Serif" font-size="11.00" fill="#000000">[table]</text>
<polygon fill="none" stroke="#000000" points="31.5,-327.7 31.5,-349.7 128.5,-349.7 128.5,-327.7 31.5,-327.7"/>
<image xlink:href="../../images/primaryKeys.png" width="11px" height="12px" preserveAspectRatio="xMinYMin meet" x="36.5" y="-344.7"/>
<text text-anchor="start" x="51.5" y="-334.8" font-family="Helvetica,sans-Serif" font-size="11.00" fill="#000000">code</text>
<polygon fill="none" stroke="#000000" points="31.5,-308.7 31.5,-327.7 128.5,-327.7 128.5,-308.7 31.5,-308.7"/>
<text text-anchor="start" x="34.5" y="-314.8" font-family="Helvetica,sans-Serif" font-size="11.00" fill="#000000">...</text>
<polygon fill="#ffffff" stroke="transparent" points="31.5,-289.7 31.5,-308.7 69.5,-308.7 69.5,-289.7 31.5,-289.7"/>
<polygon fill="none" stroke="#000000" points="31.5,-289.7 31.5,-308.7 69.5,-308.7 69.5,-289.7 31.5,-289.7"/>
<text text-anchor="start" x="34.5" y="-295.8" font-family="Helvetica,sans-Serif" font-size="11.00" fill="#000000"> &#160;</text>
<polygon fill="#ffffff" stroke="transparent" points="69.5,-289.7 69.5,-308.7 94.5,-308.7 94.5,-289.7 69.5,-289.7"/>
<polygon fill="none" stroke="#000000" points="69.5,-289.7 69.5,-308.7 94.5,-308.7 94.5,-289.7 69.5,-289.7"/>
<text text-anchor="start" x="85.3862" y="-295.8" font-family="Helvetica,sans-Serif" font-size="11.00" fill="#000000"> &#160;</text>
<polygon fill="#ffffff" stroke="transparent" points="94.5,-289.7 94.5,-308.7 128.5,-308.7 128.5,-289.7 94.5,-289.7"/>
<polygon fill="none" stroke="#000000" points="94.5,-289.7 94.5,-308.7 128.5,-308.7 128.5,-289.7 94.5,-289.7"/>
<text text-anchor="start" x="109.9053" y="-295.8" font-family="Helvetica,sans-Serif" font-size="11.00" fill="#000000">7 &gt;</text>
</a>
</g>
</g>
<!-- allocation&#45;&gt;policy -->
<g id="edge3" class="edge">
<title>allocation:w&#45;&gt;policy:e</title>
<path fill="none" stroke="#000000" d="M291.4124,-675.7121C247.7086,-675.6683 224.1768,-673.7162 192,-637.7 101.4895,-536.3896 264.3527,-338.7 128.5,-338.7"/>
<polygon fill="#000000" stroke="#000000" points="298,-675.7067 306.003,-679.3 302,-675.7033 306,-675.7 306,-675.7 306,-675.7 302,-675.7033 305.997,-672.1 298,-675.7067 298,-675.7067"/>
<ellipse fill="none" stroke="#000000" cx="294.8" cy="-675.7094" rx="3.2" ry="3.2"/>
</g>
<!-- prison_configuration -->
<g id="node4" class="node">
<title>prison_configuration</title>
<g id="a_node4"><a xlink:href="../../tables/prison_configuration.html" xlink:title="prison_configuration" target="_top">
<polygon fill="#ffffff" stroke="transparent" points="269,-202.2 269,-263.2 447,-263.2 447,-202.2 269,-202.2"/>
<polygon fill="#f5f5f5" stroke="transparent" points="269,-239.7 269,-262.7 447,-262.7 447,-239.7 269,-239.7"/>
<polygon fill="none" stroke="#000000" points="269,-239.7 269,-262.7 447,-262.7 447,-239.7 269,-239.7"/>
<text text-anchor="start" x="274" y="-248.3" font-family="Helvetica,sans-Serif" font-weight="bold" font-size="11.00" fill="#000000">prison_configuration</text>
<text text-anchor="start" x="412.5219" y="-247.8" font-family="Helvetica,sans-Serif" font-size="11.00" fill="#000000">[table]</text>
<polygon fill="none" stroke="#000000" points="269,-220.7 269,-239.7 447,-239.7 447,-220.7 269,-220.7"/>
<text text-anchor="start" x="272" y="-226.8" font-family="Helvetica,sans-Serif" font-size="11.00" fill="#000000">...</text>
<polygon fill="#ffffff" stroke="transparent" points="269,-201.7 269,-220.7 340,-220.7 340,-201.7 269,-201.7"/>
<polygon fill="none" stroke="#000000" points="269,-201.7 269,-220.7 340,-220.7 340,-201.7 269,-201.7"/>
<text text-anchor="start" x="272" y="-207.8" font-family="Helvetica,sans-Serif" font-size="11.00" fill="#000000">&lt; 1</text>
<polygon fill="#ffffff" stroke="transparent" points="340,-201.7 340,-220.7 409,-220.7 409,-201.7 340,-201.7"/>
<polygon fill="none" stroke="#000000" points="340,-201.7 340,-220.7 409,-220.7 409,-201.7 340,-201.7"/>
<text text-anchor="start" x="367.4956" y="-207.8" font-family="Helvetica,sans-Serif" font-size="11.00" fill="#000000">12 rows</text>
<polygon fill="#ffffff" stroke="transparent" points="409,-201.7 409,-220.7 447,-220.7 447,-201.7 409,-201.7"/>
<polygon fill="none" stroke="#000000" points="409,-201.7 409,-220.7 447,-220.7 447,-201.7 409,-201.7"/>
<text text-anchor="start" x="437.8862" y="-207.8" font-family="Helvetica,sans-Serif" font-size="11.00" fill="#000000"> &#160;</text>
</a>
</g>
</g>
<!-- prison_configuration&#45;&gt;policy -->
<g id="edge4" class="edge">
<title>prison_configuration:w&#45;&gt;policy:e</title>
<path fill="none" stroke="#000000" d="M254.5371,-230.7754C227.371,-235.2182 218.9202,-252.8886 192,-273.7 160.0483,-298.4012 168.8864,-338.7 128.5,-338.7"/>
<polygon fill="#000000" stroke="#000000" points="261.022,-230.2933 269.267,-233.2901 265.011,-229.9966 269,-229.7 269,-229.7 269,-229.7 265.011,-229.9966 268.733,-226.1099 261.022,-230.2933 261.022,-230.2933"/>
<ellipse fill="none" stroke="#000000" cx="257.8308" cy="-230.5306" rx="3.2" ry="3.2"/>
</g>
<!-- prison_statistic -->
<g id="node5" class="node">
<title>prison_statistic</title>
<g id="a_node5"><a xlink:href="../../tables/prison_statistic.html" xlink:title="prison_statistic" target="_top">
<polygon fill="#ffffff" stroke="transparent" points="287,-120.2 287,-181.2 429,-181.2 429,-120.2 287,-120.2"/>
<polygon fill="#f5f5f5" stroke="transparent" points="287,-157.7 287,-180.7 429,-180.7 429,-157.7 287,-157.7"/>
<polygon fill="none" stroke="#000000" points="287,-157.7 287,-180.7 429,-180.7 429,-157.7 287,-157.7"/>
<text text-anchor="start" x="292" y="-166.3" font-family="Helvetica,sans-Serif" font-weight="bold" font-size="11.00" fill="#000000">prison_statistic</text>
<text text-anchor="start" x="394.5219" y="-165.8" font-family="Helvetica,sans-Serif" font-size="11.00" fill="#000000">[table]</text>
<polygon fill="none" stroke="#000000" points="287,-138.7 287,-157.7 429,-157.7 429,-138.7 287,-138.7"/>
<text text-anchor="start" x="290" y="-144.8" font-family="Helvetica,sans-Serif" font-size="11.00" fill="#000000">...</text>
<polygon fill="#ffffff" stroke="transparent" points="287,-119.7 287,-138.7 356,-138.7 356,-119.7 287,-119.7"/>
<polygon fill="none" stroke="#000000" points="287,-119.7 287,-138.7 356,-138.7 356,-119.7 287,-119.7"/>
<text text-anchor="start" x="290" y="-125.8" font-family="Helvetica,sans-Serif" font-size="11.00" fill="#000000">&lt; 1</text>
<polygon fill="#ffffff" stroke="transparent" points="356,-119.7 356,-138.7 392,-138.7 392,-119.7 356,-119.7"/>
<polygon fill="none" stroke="#000000" points="356,-119.7 356,-138.7 392,-138.7 392,-119.7 356,-119.7"/>
<text text-anchor="start" x="382.8862" y="-125.8" font-family="Helvetica,sans-Serif" font-size="11.00" fill="#000000"> &#160;</text>
<polygon fill="#ffffff" stroke="transparent" points="392,-119.7 392,-138.7 429,-138.7 429,-119.7 392,-119.7"/>
<polygon fill="none" stroke="#000000" points="392,-119.7 392,-138.7 429,-138.7 429,-119.7 392,-119.7"/>
<text text-anchor="start" x="419.8862" y="-125.8" font-family="Helvetica,sans-Serif" font-size="11.00" fill="#000000"> &#160;</text>
</a>
</g>
</g>
<!-- prison_statistic&#45;&gt;policy -->
<g id="edge5" class="edge">
<title>prison_statistic:w&#45;&gt;policy:e</title>
<path fill="none" stroke="#000000" d="M272.2939,-148.1283C236.6333,-150.4088 220.7937,-162.1483 192,-191.7 142.3343,-242.6731 199.6684,-338.7 128.5,-338.7"/>
<polygon fill="#000000" stroke="#000000" points="279.0034,-147.9329 287.1048,-151.2985 283.0017,-147.8165 287,-147.7 287,-147.7 287,-147.7 283.0017,-147.8165 286.8952,-144.1015 279.0034,-147.9329 279.0034,-147.9329"/>
<ellipse fill="none" stroke="#000000" cx="275.8047" cy="-148.0261" rx="3.2" ry="3.2"/>
</g>
<!-- recorded_event -->
<g id="node6" class="node">
<title>recorded_event</title>
<g id="a_node6"><a xlink:href="../../tables/recorded_event.html" xlink:title="recorded_event" target="_top">
<polygon fill="#ffffff" stroke="transparent" points="286,-566.2 286,-627.2 430,-627.2 430,-566.2 286,-566.2"/>
<polygon fill="#f5f5f5" stroke="transparent" points="286,-603.7 286,-626.7 430,-626.7 430,-603.7 286,-603.7"/>
<polygon fill="none" stroke="#000000" points="286,-603.7 286,-626.7 430,-626.7 430,-603.7 286,-603.7"/>
<text text-anchor="start" x="291" y="-612.3" font-family="Helvetica,sans-Serif" font-weight="bold" font-size="11.00" fill="#000000">recorded_event</text>
<text text-anchor="start" x="395.5219" y="-611.8" font-family="Helvetica,sans-Serif" font-size="11.00" fill="#000000">[table]</text>
<polygon fill="none" stroke="#000000" points="286,-584.7 286,-603.7 430,-603.7 430,-584.7 286,-584.7"/>
<text text-anchor="start" x="289" y="-590.8" font-family="Helvetica,sans-Serif" font-size="11.00" fill="#000000">...</text>
<polygon fill="#ffffff" stroke="transparent" points="286,-565.7 286,-584.7 356,-584.7 356,-565.7 286,-565.7"/>
<polygon fill="none" stroke="#000000" points="286,-565.7 286,-584.7 356,-584.7 356,-565.7 286,-565.7"/>
<text text-anchor="start" x="289" y="-571.8" font-family="Helvetica,sans-Serif" font-size="11.00" fill="#000000">&lt; 2</text>
<polygon fill="#ffffff" stroke="transparent" points="356,-565.7 356,-584.7 393,-584.7 393,-565.7 356,-565.7"/>
<polygon fill="none" stroke="#000000" points="356,-565.7 356,-584.7 393,-584.7 393,-565.7 356,-565.7"/>
<text text-anchor="start" x="383.8862" y="-571.8" font-family="Helvetica,sans-Serif" font-size="11.00" fill="#000000"> &#160;</text>
<polygon fill="#ffffff" stroke="transparent" points="393,-565.7 393,-584.7 430,-584.7 430,-565.7 393,-565.7"/>
<polygon fill="none" stroke="#000000" points="393,-565.7 393,-584.7 430,-584.7 430,-565.7 393,-565.7"/>
<text text-anchor="start" x="420.8862" y="-571.8" font-family="Helvetica,sans-Serif" font-size="11.00" fill="#000000"> &#160;</text>
</a>
</g>
</g>
<!-- recorded_event&#45;&gt;reference_data -->
<g id="edge7" class="edge">
<title>recorded_event:w&#45;&gt;reference_data:e</title>
<path fill="none" stroke="#000000" d="M271.1799,-594.4298C237.2098,-598.0532 225.7088,-614.8519 192,-637.7 171.5684,-651.5487 176.1827,-675.7 151.5,-675.7"/>
<polygon fill="#000000" stroke="#000000" points="278.0097,-594.0935 286.1771,-597.2956 282.0048,-593.8968 286,-593.7 286,-593.7 286,-593.7 282.0048,-593.8968 285.8229,-590.1044 278.0097,-594.0935 278.0097,-594.0935"/>
<ellipse fill="none" stroke="#000000" cx="274.8136" cy="-594.2509" rx="3.2" ry="3.2"/>
</g>
<!-- recorded_event&#45;&gt;policy -->
<g id="edge6" class="edge">
<title>recorded_event:w&#45;&gt;policy:e</title>
<path fill="none" stroke="#000000" d="M271.183,-593.4719C236.3969,-592.2282 218.6963,-585.1938 192,-555.7 124.5648,-481.1982 228.9889,-338.7 128.5,-338.7"/>
<polygon fill="#000000" stroke="#000000" points="278.0009,-593.5768 285.9446,-597.2996 282.0005,-593.6384 286,-593.7 286,-593.7 286,-593.7 282.0005,-593.6384 286.0554,-590.1004 278.0009,-593.5768 278.0009,-593.5768"/>
<ellipse fill="none" stroke="#000000" cx="274.8013" cy="-593.5275" rx="3.2" ry="3.2"/>
</g>
<!-- recorded_event_audit -->
<g id="node7" class="node">
<title>recorded_event_audit</title>
<g id="a_node7"><a xlink:href="../../tables/recorded_event_audit.html" xlink:title="recorded_event_audit" target="_top">
<polygon fill="#ffffff" stroke="transparent" points="265.5,-38.2 265.5,-99.2 450.5,-99.2 450.5,-38.2 265.5,-38.2"/>
<polygon fill="#f5f5f5" stroke="transparent" points="266,-75.7 266,-98.7 451,-98.7 451,-75.7 266,-75.7"/>
<polygon fill="none" stroke="#000000" points="266,-75.7 266,-98.7 451,-98.7 451,-75.7 266,-75.7"/>
<text text-anchor="start" x="271" y="-84.3" font-family="Helvetica,sans-Serif" font-weight="bold" font-size="11.00" fill="#000000">recorded_event_audit</text>
<text text-anchor="start" x="416.5219" y="-83.8" font-family="Helvetica,sans-Serif" font-size="11.00" fill="#000000">[table]</text>
<polygon fill="none" stroke="#000000" points="266,-56.7 266,-75.7 451,-75.7 451,-56.7 266,-56.7"/>
<text text-anchor="start" x="269" y="-62.8" font-family="Helvetica,sans-Serif" font-size="11.00" fill="#000000">...</text>
<polygon fill="#ffffff" stroke="transparent" points="266,-37.7 266,-56.7 357,-56.7 357,-37.7 266,-37.7"/>
<polygon fill="none" stroke="#000000" points="266,-37.7 266,-56.7 357,-56.7 357,-37.7 266,-37.7"/>
<text text-anchor="start" x="269" y="-43.8" font-family="Helvetica,sans-Serif" font-size="11.00" fill="#000000">&lt; 2</text>
<polygon fill="#ffffff" stroke="transparent" points="357,-37.7 357,-56.7 404,-56.7 404,-37.7 357,-37.7"/>
<polygon fill="none" stroke="#000000" points="357,-37.7 357,-56.7 404,-56.7 404,-37.7 357,-37.7"/>
<text text-anchor="start" x="394.8862" y="-43.8" font-family="Helvetica,sans-Serif" font-size="11.00" fill="#000000"> &#160;</text>
<polygon fill="#ffffff" stroke="transparent" points="404,-37.7 404,-56.7 451,-56.7 451,-37.7 404,-37.7"/>
<polygon fill="none" stroke="#000000" points="404,-37.7 404,-56.7 451,-56.7 451,-37.7 404,-37.7"/>
<text text-anchor="start" x="441.8862" y="-43.8" font-family="Helvetica,sans-Serif" font-size="11.00" fill="#000000"> &#160;</text>
</a>
</g>
</g>
<!-- recorded_event_audit&#45;&gt;policy -->
<g id="edge8" class="edge">
<title>recorded_event_audit:w&#45;&gt;policy:e</title>
<path fill="none" stroke="#000000" d="M251.2842,-66.5155C224.0071,-69.8561 211.9637,-83.571 192,-109.7 127.8773,-193.6255 234.1182,-338.7 128.5,-338.7"/>
<polygon fill="#000000" stroke="#000000" points="258.0123,-66.1427 266.1992,-69.2945 262.0061,-65.9214 266,-65.7 266,-65.7 266,-65.7 262.0061,-65.9214 265.8008,-62.1055 258.0123,-66.1427 258.0123,-66.1427"/>
<ellipse fill="none" stroke="#000000" cx="254.8172" cy="-66.3198" rx="3.2" ry="3.2"/>
</g>
<!-- reference_data_policy -->
<g id="node8" class="node">
<title>reference_data_policy</title>
<g id="a_node8"><a xlink:href="../../tables/reference_data_policy.html" xlink:title="reference_data_policy" target="_top">
<polygon fill="#ffffff" stroke="transparent" points="265,-484.2 265,-545.2 451,-545.2 451,-484.2 265,-484.2"/>
<polygon fill="#f5f5f5" stroke="transparent" points="265,-521.7 265,-544.7 451,-544.7 451,-521.7 265,-521.7"/>
<polygon fill="none" stroke="#000000" points="265,-521.7 265,-544.7 451,-544.7 451,-521.7 265,-521.7"/>
<text text-anchor="start" x="270" y="-530.3" font-family="Helvetica,sans-Serif" font-weight="bold" font-size="11.00" fill="#000000">reference_data_policy</text>
<text text-anchor="start" x="416.5219" y="-529.8" font-family="Helvetica,sans-Serif" font-size="11.00" fill="#000000">[table]</text>
<polygon fill="none" stroke="#000000" points="265,-502.7 265,-521.7 451,-521.7 451,-502.7 265,-502.7"/>
<text text-anchor="start" x="268" y="-508.8" font-family="Helvetica,sans-Serif" font-size="11.00" fill="#000000">...</text>
<polygon fill="#ffffff" stroke="transparent" points="265,-483.7 265,-502.7 340,-502.7 340,-483.7 265,-483.7"/>
<polygon fill="none" stroke="#000000" points="265,-483.7 265,-502.7 340,-502.7 340,-483.7 265,-483.7"/>
<text text-anchor="start" x="268" y="-489.8" font-family="Helvetica,sans-Serif" font-size="11.00" fill="#000000">&lt; 2</text>
<polygon fill="#ffffff" stroke="transparent" points="340,-483.7 340,-502.7 411,-502.7 411,-483.7 340,-483.7"/>
<polygon fill="none" stroke="#000000" points="340,-483.7 340,-502.7 411,-502.7 411,-483.7 340,-483.7"/>
<text text-anchor="start" x="369.4956" y="-489.8" font-family="Helvetica,sans-Serif" font-size="11.00" fill="#000000">84 rows</text>
<polygon fill="#ffffff" stroke="transparent" points="411,-483.7 411,-502.7 451,-502.7 451,-483.7 411,-483.7"/>
<polygon fill="none" stroke="#000000" points="411,-483.7 411,-502.7 451,-502.7 451,-483.7 411,-483.7"/>
<text text-anchor="start" x="441.8862" y="-489.8" font-family="Helvetica,sans-Serif" font-size="11.00" fill="#000000"> &#160;</text>
</a>
</g>
</g>
<!-- reference_data_policy&#45;&gt;reference_data -->
<g id="edge9" class="edge">
<title>reference_data_policy:w&#45;&gt;reference_data:e</title>
<path fill="none" stroke="#000000" d="M250.4822,-512.5601C223.6708,-516.0677 212.3926,-530.3234 192,-555.7 156.7404,-599.5772 207.7889,-675.7 151.5,-675.7"/>
<polygon fill="#000000" stroke="#000000" points="257.014,-512.1732 265.2129,-515.2937 261.007,-511.9366 265,-511.7 265,-511.7 265,-511.7 261.007,-511.9366 264.7871,-508.1063 257.014,-512.1732 257.014,-512.1732"/>
<ellipse fill="none" stroke="#000000" cx="253.8196" cy="-512.3625" rx="3.2" ry="3.2"/>
</g>
<!-- reference_data_policy&#45;&gt;policy -->
<g id="edge10" class="edge">
<title>reference_data_policy:w&#45;&gt;policy:e</title>
<path fill="none" stroke="#000000" d="M250.5543,-510.919C224.7789,-507.8261 213.7092,-495.4801 192,-472.7 146.5337,-424.9908 194.4042,-338.7 128.5,-338.7"/>
<polygon fill="#000000" stroke="#000000" points="257.0117,-511.2681 264.8056,-515.2948 261.0058,-511.484 265,-511.7 265,-511.7 265,-511.7 261.0058,-511.484 265.1944,-508.1052 257.0117,-511.2681 257.0117,-511.2681"/>
<ellipse fill="none" stroke="#000000" cx="253.8163" cy="-511.0953" rx="3.2" ry="3.2"/>
</g>
<!-- staff_configuration -->
<g id="node9" class="node">
<title>staff_configuration</title>
<g id="a_node9"><a xlink:href="../../tables/staff_configuration.html" xlink:title="staff_configuration" target="_top">
<polygon fill="#ffffff" stroke="transparent" points="234.5,-284.7 234.5,-462.7 481.5,-462.7 481.5,-284.7 234.5,-284.7"/>
<polygon fill="#f5f5f5" stroke="transparent" points="237,-437.7 237,-460.7 480,-460.7 480,-437.7 237,-437.7"/>
<polygon fill="none" stroke="#000000" points="237,-437.7 237,-460.7 480,-460.7 480,-437.7 237,-437.7"/>
<text text-anchor="start" x="242" y="-446.3" font-family="Helvetica,sans-Serif" font-weight="bold" font-size="11.00" fill="#000000">staff_configuration</text>
<text text-anchor="start" x="445.0437" y="-445.8" font-family="Helvetica,sans-Serif" font-size="11.00" fill="#000000">[table]</text>
<polygon fill="#ffffff" stroke="transparent" points="237,-415.7 237,-437.7 386,-437.7 386,-415.7 237,-415.7"/>
<polygon fill="none" stroke="#000000" points="237,-415.7 237,-437.7 386,-437.7 386,-415.7 237,-415.7"/>
<text text-anchor="start" x="257" y="-422.8" font-family="Helvetica,sans-Serif" font-size="11.00" fill="#000000">staff_id</text>
<polygon fill="none" stroke="#000000" points="386,-415.7 386,-437.7 480,-437.7 480,-415.7 386,-415.7"/>
<text text-anchor="start" x="389" y="-423.4" font-family="Helvetica,sans-Serif" font-size="11.00" fill="#000000">int8[19]</text>
<polygon fill="none" stroke="#000000" points="237,-393.7 237,-415.7 386,-415.7 386,-393.7 237,-393.7"/>
<text text-anchor="start" x="257" y="-400.8" font-family="Helvetica,sans-Serif" font-size="11.00" fill="#000000">capacity</text>
<polygon fill="none" stroke="#000000" points="386,-393.7 386,-415.7 480,-415.7 480,-393.7 386,-393.7"/>
<text text-anchor="start" x="389" y="-401.4" font-family="Helvetica,sans-Serif" font-size="11.00" fill="#000000">int4[10]</text>
<polygon fill="none" stroke="#000000" points="237,-371.7 237,-393.7 386,-393.7 386,-371.7 237,-371.7"/>
<image xlink:href="../../images/foreignKeys.png" width="11px" height="12px" preserveAspectRatio="xMinYMin meet" x="242" y="-388.7"/>
<text text-anchor="start" x="257" y="-378.8" font-family="Helvetica,sans-Serif" font-size="11.00" fill="#000000">status_id</text>
<polygon fill="none" stroke="#000000" points="386,-371.7 386,-393.7 480,-393.7 480,-371.7 386,-371.7"/>
<text text-anchor="start" x="389" y="-379.4" font-family="Helvetica,sans-Serif" font-size="11.00" fill="#000000">int8[19]</text>
<polygon fill="none" stroke="#000000" points="237,-349.7 237,-371.7 386,-371.7 386,-349.7 237,-349.7"/>
<text text-anchor="start" x="257" y="-356.8" font-family="Helvetica,sans-Serif" font-size="11.00" fill="#000000">reactivate_on</text>
<polygon fill="none" stroke="#000000" points="386,-349.7 386,-371.7 480,-371.7 480,-349.7 386,-349.7"/>
<text text-anchor="start" x="389" y="-357.4" font-family="Helvetica,sans-Serif" font-size="11.00" fill="#000000">date[13]</text>
<polygon fill="#ffffff" stroke="transparent" points="237,-327.7 237,-349.7 386,-349.7 386,-327.7 237,-327.7"/>
<polygon fill="none" stroke="#000000" points="237,-327.7 237,-349.7 386,-349.7 386,-327.7 237,-327.7"/>
<image xlink:href="../../images/foreignKeys.png" width="11px" height="12px" preserveAspectRatio="xMinYMin meet" x="242" y="-344.7"/>
<text text-anchor="start" x="257" y="-334.8" font-family="Helvetica,sans-Serif" font-size="11.00" fill="#000000">policy_code</text>
<polygon fill="none" stroke="#000000" points="386,-327.7 386,-349.7 480,-349.7 480,-327.7 386,-327.7"/>
<text text-anchor="start" x="389" y="-335.4" font-family="Helvetica,sans-Serif" font-size="11.00" fill="#000000">varchar[16]</text>
<polygon fill="none" stroke="#000000" points="237,-305.7 237,-327.7 386,-327.7 386,-305.7 237,-305.7"/>
<image xlink:href="../../images/primaryKeys.png" width="11px" height="12px" preserveAspectRatio="xMinYMin meet" x="242" y="-322.7"/>
<text text-anchor="start" x="257" y="-312.8" font-family="Helvetica,sans-Serif" font-size="11.00" fill="#000000">id</text>
<polygon fill="none" stroke="#000000" points="386,-305.7 386,-327.7 480,-327.7 480,-305.7 386,-305.7"/>
<text text-anchor="start" x="388.9758" y="-313.4" font-family="Helvetica,sans-Serif" font-size="11.00" fill="#000000">uuid[2147483647]</text>
<polygon fill="#ffffff" stroke="transparent" points="237,-286.7 237,-305.7 316,-305.7 316,-286.7 237,-286.7"/>
<polygon fill="none" stroke="#000000" points="237,-286.7 237,-305.7 316,-305.7 316,-286.7 237,-286.7"/>
<text text-anchor="start" x="240" y="-292.8" font-family="Helvetica,sans-Serif" font-size="11.00" fill="#000000">&lt; 2</text>
<polygon fill="#ffffff" stroke="transparent" points="316,-286.7 316,-305.7 386,-305.7 386,-286.7 316,-286.7"/>
<polygon fill="none" stroke="#000000" points="316,-286.7 316,-305.7 386,-305.7 386,-286.7 316,-286.7"/>
<text text-anchor="start" x="376.8862" y="-292.8" font-family="Helvetica,sans-Serif" font-size="11.00" fill="#000000"> &#160;</text>
<polygon fill="#ffffff" stroke="transparent" points="386,-286.7 386,-305.7 480,-305.7 480,-286.7 386,-286.7"/>
<polygon fill="none" stroke="#000000" points="386,-286.7 386,-305.7 480,-305.7 480,-286.7 386,-286.7"/>
<text text-anchor="start" x="461.4053" y="-292.8" font-family="Helvetica,sans-Serif" font-size="11.00" fill="#000000">0 &gt;</text>
<polygon fill="none" stroke="#000000" stroke-width="2" points="235.5,-285.7 235.5,-461.7 480.5,-461.7 480.5,-285.7 235.5,-285.7"/>
</a>
</g>
</g>
<!-- staff_configuration&#45;&gt;reference_data -->
<g id="edge12" class="edge">
<title>staff_configuration:w&#45;&gt;reference_data:e</title>
<path fill="none" stroke="#000000" d="M222.7094,-384.8585C195.0934,-394.6862 204.7391,-436.3324 192,-473.7 177.2271,-517.0333 197.2822,-675.7 151.5,-675.7"/>
<polygon fill="#000000" stroke="#000000" points="229.0897,-383.8949 237.5377,-386.2596 233.0449,-383.2974 237,-382.7 237,-382.7 237,-382.7 233.0449,-383.2974 236.4623,-379.1404 229.0897,-383.8949 229.0897,-383.8949"/>
<ellipse fill="none" stroke="#000000" cx="225.9256" cy="-384.3728" rx="3.2" ry="3.2"/>
</g>
<!-- staff_configuration&#45;&gt;policy -->
<g id="edge11" class="edge">
<title>staff_configuration:w&#45;&gt;policy:e</title>
<path fill="none" stroke="#000000" d="M222.3804,-338.7C185.708,-338.7 171.4479,-338.7 128.5,-338.7"/>
<polygon fill="#000000" stroke="#000000" points="229,-338.7001 237,-342.3 233,-338.7 237,-338.7 237,-338.7 237,-338.7 233,-338.7 237,-335.1 229,-338.7001 229,-338.7001"/>
<ellipse fill="none" stroke="#000000" cx="225.8" cy="-338.7001" rx="3.2" ry="3.2"/>
</g>
<!-- zz_archived_legacy_keyworker_allocation -->
<g id="node10" class="node">
<title>zz_archived_legacy_keyworker_allocation</title>
<g id="a_node10"><a xlink:href="../../tables/zz_archived_legacy_keyworker_allocation.html" xlink:title="zz_archived_legacy_keyworker_allocation" target="_top">
<polygon fill="#ffffff" stroke="transparent" points="200,-730.2 200,-791.2 516,-791.2 516,-730.2 200,-730.2"/>
<polygon fill="#f5f5f5" stroke="transparent" points="200,-767.7 200,-790.7 516,-790.7 516,-767.7 200,-767.7"/>
<polygon fill="none" stroke="#000000" points="200,-767.7 200,-790.7 516,-790.7 516,-767.7 200,-767.7"/>
<text text-anchor="start" x="205" y="-776.3" font-family="Helvetica,sans-Serif" font-weight="bold" font-size="11.00" fill="#000000">zz_archived_legacy_keyworker_allocation</text>
<text text-anchor="start" x="481.5219" y="-775.8" font-family="Helvetica,sans-Serif" font-size="11.00" fill="#000000">[table]</text>
<polygon fill="none" stroke="#000000" points="200,-748.7 200,-767.7 516,-767.7 516,-748.7 200,-748.7"/>
<text text-anchor="start" x="203" y="-754.8" font-family="Helvetica,sans-Serif" font-size="11.00" fill="#000000">...</text>
<polygon fill="#ffffff" stroke="transparent" points="200,-729.7 200,-748.7 356,-748.7 356,-729.7 200,-729.7"/>
<polygon fill="none" stroke="#000000" points="200,-729.7 200,-748.7 356,-748.7 356,-729.7 200,-729.7"/>
<text text-anchor="start" x="203" y="-735.8" font-family="Helvetica,sans-Serif" font-size="11.00" fill="#000000">&lt; 2</text>
<polygon fill="#ffffff" stroke="transparent" points="356,-729.7 356,-748.7 436,-748.7 436,-729.7 356,-729.7"/>
<polygon fill="none" stroke="#000000" points="356,-729.7 356,-748.7 436,-748.7 436,-729.7 356,-729.7"/>
<text text-anchor="start" x="426.8862" y="-735.8" font-family="Helvetica,sans-Serif" font-size="11.00" fill="#000000"> &#160;</text>
<polygon fill="#ffffff" stroke="transparent" points="436,-729.7 436,-748.7 516,-748.7 516,-729.7 436,-729.7"/>
<polygon fill="none" stroke="#000000" points="436,-729.7 436,-748.7 516,-748.7 516,-729.7 436,-729.7"/>
<text text-anchor="start" x="506.8862" y="-735.8" font-family="Helvetica,sans-Serif" font-size="11.00" fill="#000000"> &#160;</text>
</a>
</g>
</g>
<!-- zz_archived_legacy_keyworker_allocation&#45;&gt;reference_data -->
<g id="edge13" class="edge">
<title>zz_archived_legacy_keyworker_allocation:w&#45;&gt;reference_data:e</title>
<path fill="none" stroke="#000000" d="M186.9168,-751.6718C165.8843,-731.471 188.2184,-670.4969 151.5,-675.7"/>
<polygon fill="#000000" stroke="#000000" points="192.7342,-754.3522 198.4935,-760.9696 196.3671,-756.0261 200,-757.7 200,-757.7 200,-757.7 196.3671,-756.0261 201.5065,-754.4304 192.7342,-754.3522 192.7342,-754.3522"/>
<ellipse fill="none" stroke="#000000" cx="189.8278" cy="-753.0131" rx="3.2" ry="3.2"/>
</g>
<!-- zz_archived_legacy_keyworker_allocation&#45;&gt;reference_data -->
<g id="edge14" class="edge">
<title>zz_archived_legacy_keyworker_allocation:w&#45;&gt;reference_data:e</title>
<path fill="none" stroke="#000000" d="M185.5606,-755.2824C166.8604,-741.4563 187.3914,-681.6336 151.5,-675.7"/>
<polygon fill="#000000" stroke="#000000" points="192.1098,-756.3789 199.4055,-761.2506 196.0549,-757.0394 200,-757.7 200,-757.7 200,-757.7 196.0549,-757.0394 200.5945,-754.1494 192.1098,-756.3789 192.1098,-756.3789"/>
<ellipse fill="none" stroke="#000000" cx="188.9538" cy="-755.8504" rx="3.2" ry="3.2"/>
</g>
</g>
</svg>
