<?xml version="1.0" encoding="UTF-8" standalone="no"?>
<!DOCTYPE svg PUBLIC "-//W3C//DTD SVG 1.1//EN"
 "http://www.w3.org/Graphics/SVG/1.1/DTD/svg11.dtd">
<!-- Generated by graphviz version 2.40.1 (20161225.0304)
 -->
<!-- Title: twoDegreesRelationshipsDiagram Pages: 1 -->
<svg width="536pt" height="547pt"
 viewBox="0.00 0.00 536.00 547.20" xmlns="http://www.w3.org/2000/svg" xmlns:xlink="http://www.w3.org/1999/xlink">
<g id="graph0" class="graph" transform="scale(1 1) rotate(0) translate(4 543.2)">
<title>twoDegreesRelationshipsDiagram</title>
<polygon fill="#ffffff" stroke="transparent" points="-4,4 -4,-543.2 532,-543.2 532,4 -4,4"/>
<text text-anchor="middle" x="72.4936" y="-7.3" font-family="Helvetica,sans-Serif" font-size="11.00" fill="#000000">Generated by SchemaSpy</text>
<!-- prison_configuration_audit -->
<g id="node1" class="node">
<title>prison_configuration_audit</title>
<g id="a_node1"><a xlink:href="../../tables/prison_configuration_audit.html" xlink:title="prison_configuration_audit" target="_top">
<polygon fill="#ffffff" stroke="transparent" points="246,-474.2 246,-535.2 465,-535.2 465,-474.2 246,-474.2"/>
<polygon fill="#f5f5f5" stroke="transparent" points="246.5,-511.7 246.5,-534.7 465.5,-534.7 465.5,-511.7 246.5,-511.7"/>
<polygon fill="none" stroke="#000000" points="246.5,-511.7 246.5,-534.7 465.5,-534.7 465.5,-511.7 246.5,-511.7"/>
<text text-anchor="start" x="251.5" y="-520.3" font-family="Helvetica,sans-Serif" font-weight="bold" font-size="11.00" fill="#000000">prison_configuration_audit</text>
<text text-anchor="start" x="431.0219" y="-519.8" font-family="Helvetica,sans-Serif" font-size="11.00" fill="#000000">[table]</text>
<polygon fill="none" stroke="#000000" points="246.5,-492.7 246.5,-511.7 465.5,-511.7 465.5,-492.7 246.5,-492.7"/>
<text text-anchor="start" x="249.5" y="-498.8" font-family="Helvetica,sans-Serif" font-size="11.00" fill="#000000">...</text>
<polygon fill="#ffffff" stroke="transparent" points="246.5,-473.7 246.5,-492.7 354.5,-492.7 354.5,-473.7 246.5,-473.7"/>
<polygon fill="none" stroke="#000000" points="246.5,-473.7 246.5,-492.7 354.5,-492.7 354.5,-473.7 246.5,-473.7"/>
<text text-anchor="start" x="249.5" y="-479.8" font-family="Helvetica,sans-Serif" font-size="11.00" fill="#000000">&lt; 1</text>
<polygon fill="#ffffff" stroke="transparent" points="354.5,-473.7 354.5,-492.7 409.5,-492.7 409.5,-473.7 354.5,-473.7"/>
<polygon fill="none" stroke="#000000" points="354.5,-473.7 354.5,-492.7 409.5,-492.7 409.5,-473.7 354.5,-473.7"/>
<text text-anchor="start" x="400.3862" y="-479.8" font-family="Helvetica,sans-Serif" font-size="11.00" fill="#000000"> &#160;</text>
<polygon fill="#ffffff" stroke="transparent" points="409.5,-473.7 409.5,-492.7 465.5,-492.7 465.5,-473.7 409.5,-473.7"/>
<polygon fill="none" stroke="#000000" points="409.5,-473.7 409.5,-492.7 465.5,-492.7 465.5,-473.7 409.5,-473.7"/>
<text text-anchor="start" x="456.3862" y="-479.8" font-family="Helvetica,sans-Serif" font-size="11.00" fill="#000000"> &#160;</text>
</a>
</g>
</g>
<!-- audit_revision -->
<g id="node2" class="node">
<title>audit_revision</title>
<g id="a_node2"><a xlink:href="../../tables/audit_revision.html" xlink:title="audit_revision" target="_top">
<polygon fill="#ffffff" stroke="transparent" points="8,-368.2 8,-451.2 142,-451.2 142,-368.2 8,-368.2"/>
<polygon fill="#f5f5f5" stroke="transparent" points="8,-427.7 8,-450.7 142,-450.7 142,-427.7 8,-427.7"/>
<polygon fill="none" stroke="#000000" points="8,-427.7 8,-450.7 142,-450.7 142,-427.7 8,-427.7"/>
<text text-anchor="start" x="13" y="-436.3" font-family="Helvetica,sans-Serif" font-weight="bold" font-size="11.00" fill="#000000">audit_revision</text>
<text text-anchor="start" x="107.5219" y="-435.8" font-family="Helvetica,sans-Serif" font-size="11.00" fill="#000000">[table]</text>
<polygon fill="none" stroke="#000000" points="8,-405.7 8,-427.7 142,-427.7 142,-405.7 8,-405.7"/>
<image xlink:href="../../images/primaryKeys.png" width="11px" height="12px" preserveAspectRatio="xMinYMin meet" x="13" y="-422.7"/>
<text text-anchor="start" x="28" y="-412.8" font-family="Helvetica,sans-Serif" font-size="11.00" fill="#000000">id</text>
<polygon fill="none" stroke="#000000" points="8,-386.7 8,-405.7 142,-405.7 142,-386.7 8,-386.7"/>
<text text-anchor="start" x="11" y="-392.8" font-family="Helvetica,sans-Serif" font-size="11.00" fill="#000000">...</text>
<polygon fill="#ffffff" stroke="transparent" points="8,-367.7 8,-386.7 64,-386.7 64,-367.7 8,-367.7"/>
<polygon fill="none" stroke="#000000" points="8,-367.7 8,-386.7 64,-386.7 64,-367.7 8,-367.7"/>
<text text-anchor="start" x="11" y="-373.8" font-family="Helvetica,sans-Serif" font-size="11.00" fill="#000000"> &#160;</text>
<polygon fill="#ffffff" stroke="transparent" points="64,-367.7 64,-386.7 98,-386.7 98,-367.7 64,-367.7"/>
<polygon fill="none" stroke="#000000" points="64,-367.7 64,-386.7 98,-386.7 98,-367.7 64,-367.7"/>
<text text-anchor="start" x="88.8862" y="-373.8" font-family="Helvetica,sans-Serif" font-size="11.00" fill="#000000"> &#160;</text>
<polygon fill="#ffffff" stroke="transparent" points="98,-367.7 98,-386.7 142,-386.7 142,-367.7 98,-367.7"/>
<polygon fill="none" stroke="#000000" points="98,-367.7 98,-386.7 142,-386.7 142,-367.7 98,-367.7"/>
<text text-anchor="start" x="123.4053" y="-373.8" font-family="Helvetica,sans-Serif" font-size="11.00" fill="#000000">3 &gt;</text>
</a>
</g>
</g>
<!-- prison_configuration_audit&#45;&gt;audit_revision -->
<g id="edge1" class="edge">
<title>prison_configuration_audit:w&#45;&gt;audit_revision:e</title>
<path fill="none" stroke="#000000" d="M232.0308,-500.3295C211.2435,-495.9032 203.994,-481.253 183,-463.7 161.7339,-445.9195 169.7199,-416.7 142,-416.7"/>
<polygon fill="#000000" stroke="#000000" points="238.5356,-500.9456 246.1605,-505.284 242.5178,-501.3228 246.5,-501.7 246.5,-501.7 246.5,-501.7 242.5178,-501.3228 246.8395,-498.116 238.5356,-500.9456 238.5356,-500.9456"/>
<ellipse fill="none" stroke="#000000" cx="235.3499" cy="-500.6438" rx="3.2" ry="3.2"/>
</g>
<!-- staff_configuration_audit -->
<g id="node3" class="node">
<title>staff_configuration_audit</title>
<g id="a_node3"><a xlink:href="../../tables/staff_configuration_audit.html" xlink:title="staff_configuration_audit" target="_top">
<polygon fill="#ffffff" stroke="transparent" points="191,-120.7 191,-452.7 520,-452.7 520,-120.7 191,-120.7"/>
<polygon fill="#f5f5f5" stroke="transparent" points="193.5,-427.7 193.5,-450.7 518.5,-450.7 518.5,-427.7 193.5,-427.7"/>
<polygon fill="none" stroke="#000000" points="193.5,-427.7 193.5,-450.7 518.5,-450.7 518.5,-427.7 193.5,-427.7"/>
<text text-anchor="start" x="198.5" y="-436.3" font-family="Helvetica,sans-Serif" font-weight="bold" font-size="11.00" fill="#000000">staff_configuration_audit</text>
<text text-anchor="start" x="483.5437" y="-435.8" font-family="Helvetica,sans-Serif" font-size="11.00" fill="#000000">[table]</text>
<polygon fill="none" stroke="#000000" points="193.5,-405.7 193.5,-427.7 424.5,-427.7 424.5,-405.7 193.5,-405.7"/>
<image xlink:href="../../images/primaryKeys.png" width="11px" height="12px" preserveAspectRatio="xMinYMin meet" x="198.5" y="-422.7"/>
<text text-anchor="start" x="213.5" y="-412.8" font-family="Helvetica,sans-Serif" font-size="11.00" fill="#000000">rev_id</text>
<polygon fill="none" stroke="#000000" points="424.5,-405.7 424.5,-427.7 518.5,-427.7 518.5,-405.7 424.5,-405.7"/>
<text text-anchor="start" x="427.5" y="-413.4" font-family="Helvetica,sans-Serif" font-size="11.00" fill="#000000">int8[19]</text>
<polygon fill="none" stroke="#000000" points="193.5,-383.7 193.5,-405.7 424.5,-405.7 424.5,-383.7 193.5,-383.7"/>
<text text-anchor="start" x="213.5" y="-390.8" font-family="Helvetica,sans-Serif" font-size="11.00" fill="#000000">rev_type</text>
<polygon fill="none" stroke="#000000" points="424.5,-383.7 424.5,-405.7 518.5,-405.7 518.5,-383.7 424.5,-383.7"/>
<text text-anchor="start" x="427.5" y="-391.4" font-family="Helvetica,sans-Serif" font-size="11.00" fill="#000000">int2[5]</text>
<polygon fill="none" stroke="#000000" points="193.5,-361.7 193.5,-383.7 424.5,-383.7 424.5,-361.7 193.5,-361.7"/>
<image xlink:href="../../images/primaryKeys.png" width="11px" height="12px" preserveAspectRatio="xMinYMin meet" x="198.5" y="-378.7"/>
<text text-anchor="start" x="213.5" y="-368.8" font-family="Helvetica,sans-Serif" font-size="11.00" fill="#000000">id</text>
<polygon fill="none" stroke="#000000" points="424.5,-361.7 424.5,-383.7 518.5,-383.7 518.5,-361.7 424.5,-361.7"/>
<text text-anchor="start" x="427.4758" y="-369.4" font-family="Helvetica,sans-Serif" font-size="11.00" fill="#000000">uuid[2147483647]</text>
<polygon fill="none" stroke="#000000" points="193.5,-339.7 193.5,-361.7 424.5,-361.7 424.5,-339.7 193.5,-339.7"/>
<text text-anchor="start" x="213.5" y="-346.8" font-family="Helvetica,sans-Serif" font-size="11.00" fill="#000000">staff_id</text>
<polygon fill="none" stroke="#000000" points="424.5,-339.7 424.5,-361.7 518.5,-361.7 518.5,-339.7 424.5,-339.7"/>
<text text-anchor="start" x="427.5" y="-347.4" font-family="Helvetica,sans-Serif" font-size="11.00" fill="#000000">int8[19]</text>
<polygon fill="none" stroke="#000000" points="193.5,-317.7 193.5,-339.7 424.5,-339.7 424.5,-317.7 193.5,-317.7"/>
<text text-anchor="start" x="213.5" y="-324.8" font-family="Helvetica,sans-Serif" font-size="11.00" fill="#000000">capacity</text>
<polygon fill="none" stroke="#000000" points="424.5,-317.7 424.5,-339.7 518.5,-339.7 518.5,-317.7 424.5,-317.7"/>
<text text-anchor="start" x="427.5" y="-325.4" font-family="Helvetica,sans-Serif" font-size="11.00" fill="#000000">int4[10]</text>
<polygon fill="none" stroke="#000000" points="193.5,-295.7 193.5,-317.7 424.5,-317.7 424.5,-295.7 193.5,-295.7"/>
<text text-anchor="start" x="213.5" y="-302.8" font-family="Helvetica,sans-Serif" font-size="11.00" fill="#000000">reactivate_on</text>
<polygon fill="none" stroke="#000000" points="424.5,-295.7 424.5,-317.7 518.5,-317.7 518.5,-295.7 424.5,-295.7"/>
<text text-anchor="start" x="427.5" y="-303.4" font-family="Helvetica,sans-Serif" font-size="11.00" fill="#000000">date[13]</text>
<polygon fill="none" stroke="#000000" points="193.5,-273.7 193.5,-295.7 424.5,-295.7 424.5,-273.7 193.5,-273.7"/>
<text text-anchor="start" x="213.5" y="-280.8" font-family="Helvetica,sans-Serif" font-size="11.00" fill="#000000">status_id</text>
<polygon fill="none" stroke="#000000" points="424.5,-273.7 424.5,-295.7 518.5,-295.7 518.5,-273.7 424.5,-273.7"/>
<text text-anchor="start" x="427.5" y="-281.4" font-family="Helvetica,sans-Serif" font-size="11.00" fill="#000000">int8[19]</text>
<polygon fill="none" stroke="#000000" points="193.5,-251.7 193.5,-273.7 424.5,-273.7 424.5,-251.7 193.5,-251.7"/>
<text text-anchor="start" x="213.5" y="-258.8" font-family="Helvetica,sans-Serif" font-size="11.00" fill="#000000">allow_auto_allocation</text>
<polygon fill="none" stroke="#000000" points="424.5,-251.7 424.5,-273.7 518.5,-273.7 518.5,-251.7 424.5,-251.7"/>
<text text-anchor="start" x="427.5" y="-259.4" font-family="Helvetica,sans-Serif" font-size="11.00" fill="#000000">bool[1]</text>
<polygon fill="none" stroke="#000000" points="193.5,-229.7 193.5,-251.7 424.5,-251.7 424.5,-229.7 193.5,-229.7"/>
<image xlink:href="../../images/foreignKeys.png" width="11px" height="12px" preserveAspectRatio="xMinYMin meet" x="198.5" y="-246.7"/>
<text text-anchor="start" x="213.5" y="-236.8" font-family="Helvetica,sans-Serif" font-size="11.00" fill="#000000">policy_code</text>
<polygon fill="none" stroke="#000000" points="424.5,-229.7 424.5,-251.7 518.5,-251.7 518.5,-229.7 424.5,-229.7"/>
<text text-anchor="start" x="427.5" y="-237.4" font-family="Helvetica,sans-Serif" font-size="11.00" fill="#000000">varchar[16]</text>
<polygon fill="none" stroke="#000000" points="193.5,-207.7 193.5,-229.7 424.5,-229.7 424.5,-207.7 193.5,-207.7"/>
<text text-anchor="start" x="213.5" y="-214.8" font-family="Helvetica,sans-Serif" font-size="11.00" fill="#000000">capacity_modified</text>
<polygon fill="none" stroke="#000000" points="424.5,-207.7 424.5,-229.7 518.5,-229.7 518.5,-207.7 424.5,-207.7"/>
<text text-anchor="start" x="427.5" y="-215.4" font-family="Helvetica,sans-Serif" font-size="11.00" fill="#000000">bool[1]</text>
<polygon fill="none" stroke="#000000" points="193.5,-185.7 193.5,-207.7 424.5,-207.7 424.5,-185.7 193.5,-185.7"/>
<text text-anchor="start" x="213.5" y="-192.8" font-family="Helvetica,sans-Serif" font-size="11.00" fill="#000000">reactivate_on_modified</text>
<polygon fill="none" stroke="#000000" points="424.5,-185.7 424.5,-207.7 518.5,-207.7 518.5,-185.7 424.5,-185.7"/>
<text text-anchor="start" x="427.5" y="-193.4" font-family="Helvetica,sans-Serif" font-size="11.00" fill="#000000">bool[1]</text>
<polygon fill="none" stroke="#000000" points="193.5,-163.7 193.5,-185.7 424.5,-185.7 424.5,-163.7 193.5,-163.7"/>
<text text-anchor="start" x="213.5" y="-170.8" font-family="Helvetica,sans-Serif" font-size="11.00" fill="#000000">status_modified</text>
<polygon fill="none" stroke="#000000" points="424.5,-163.7 424.5,-185.7 518.5,-185.7 518.5,-163.7 424.5,-163.7"/>
<text text-anchor="start" x="427.5" y="-171.4" font-family="Helvetica,sans-Serif" font-size="11.00" fill="#000000">bool[1]</text>
<polygon fill="none" stroke="#000000" points="193.5,-141.7 193.5,-163.7 424.5,-163.7 424.5,-141.7 193.5,-141.7"/>
<text text-anchor="start" x="213.5" y="-148.8" font-family="Helvetica,sans-Serif" font-size="11.00" fill="#000000">allow_auto_allocation_modified</text>
<polygon fill="none" stroke="#000000" points="424.5,-141.7 424.5,-163.7 518.5,-163.7 518.5,-141.7 424.5,-141.7"/>
<text text-anchor="start" x="427.5" y="-149.4" font-family="Helvetica,sans-Serif" font-size="11.00" fill="#000000">bool[1]</text>
<polygon fill="#ffffff" stroke="transparent" points="193.5,-122.7 193.5,-141.7 313.5,-141.7 313.5,-122.7 193.5,-122.7"/>
<polygon fill="none" stroke="#000000" points="193.5,-122.7 193.5,-141.7 313.5,-141.7 313.5,-122.7 193.5,-122.7"/>
<text text-anchor="start" x="196.5" y="-128.8" font-family="Helvetica,sans-Serif" font-size="11.00" fill="#000000">&lt; 1</text>
<polygon fill="#ffffff" stroke="transparent" points="313.5,-122.7 313.5,-141.7 424.5,-141.7 424.5,-122.7 313.5,-122.7"/>
<polygon fill="none" stroke="#000000" points="313.5,-122.7 313.5,-141.7 424.5,-141.7 424.5,-122.7 313.5,-122.7"/>
<text text-anchor="start" x="415.3862" y="-128.8" font-family="Helvetica,sans-Serif" font-size="11.00" fill="#000000"> &#160;</text>
<polygon fill="#ffffff" stroke="transparent" points="424.5,-122.7 424.5,-141.7 518.5,-141.7 518.5,-122.7 424.5,-122.7"/>
<polygon fill="none" stroke="#000000" points="424.5,-122.7 424.5,-141.7 518.5,-141.7 518.5,-122.7 424.5,-122.7"/>
<text text-anchor="start" x="499.9053" y="-128.8" font-family="Helvetica,sans-Serif" font-size="11.00" fill="#000000">0 &gt;</text>
<polygon fill="none" stroke="#000000" stroke-width="2" points="192,-121.7 192,-451.7 519,-451.7 519,-121.7 192,-121.7"/>
</a>
</g>
</g>
<!-- staff_configuration_audit&#45;&gt;audit_revision -->
<g id="edge2" class="edge">
<title>staff_configuration_audit:w&#45;&gt;audit_revision:e</title>
<path fill="none" stroke="#000000" d="M179.0156,-416.7C166.6771,-416.7 159.1667,-416.7 142,-416.7"/>
<polygon fill="#000000" stroke="#000000" points="185.5,-416.7001 193.5,-420.3 189.5,-416.7 193.5,-416.7 193.5,-416.7 193.5,-416.7 189.5,-416.7 193.5,-413.1 185.5,-416.7001 185.5,-416.7001"/>
<ellipse fill="none" stroke="#000000" cx="182.3" cy="-416.7001" rx="3.2" ry="3.2"/>
</g>
<!-- staff_role_audit -->
<g id="node4" class="node">
<title>staff_role_audit</title>
<g id="a_node4"><a xlink:href="../../tables/staff_role_audit.html" xlink:title="staff_role_audit" target="_top">
<polygon fill="#ffffff" stroke="transparent" points="284,-38.2 284,-99.2 427,-99.2 427,-38.2 284,-38.2"/>
<polygon fill="#f5f5f5" stroke="transparent" points="284.5,-75.7 284.5,-98.7 427.5,-98.7 427.5,-75.7 284.5,-75.7"/>
<polygon fill="none" stroke="#000000" points="284.5,-75.7 284.5,-98.7 427.5,-98.7 427.5,-75.7 284.5,-75.7"/>
<text text-anchor="start" x="289.5" y="-84.3" font-family="Helvetica,sans-Serif" font-weight="bold" font-size="11.00" fill="#000000">staff_role_audit</text>
<text text-anchor="start" x="393.0219" y="-83.8" font-family="Helvetica,sans-Serif" font-size="11.00" fill="#000000">[table]</text>
<polygon fill="none" stroke="#000000" points="284.5,-56.7 284.5,-75.7 427.5,-75.7 427.5,-56.7 284.5,-56.7"/>
<text text-anchor="start" x="287.5" y="-62.8" font-family="Helvetica,sans-Serif" font-size="11.00" fill="#000000">...</text>
<polygon fill="#ffffff" stroke="transparent" points="284.5,-37.7 284.5,-56.7 354.5,-56.7 354.5,-37.7 284.5,-37.7"/>
<polygon fill="none" stroke="#000000" points="284.5,-37.7 284.5,-56.7 354.5,-56.7 354.5,-37.7 284.5,-37.7"/>
<text text-anchor="start" x="287.5" y="-43.8" font-family="Helvetica,sans-Serif" font-size="11.00" fill="#000000">&lt; 1</text>
<polygon fill="#ffffff" stroke="transparent" points="354.5,-37.7 354.5,-56.7 390.5,-56.7 390.5,-37.7 354.5,-37.7"/>
<polygon fill="none" stroke="#000000" points="354.5,-37.7 354.5,-56.7 390.5,-56.7 390.5,-37.7 354.5,-37.7"/>
<text text-anchor="start" x="381.3862" y="-43.8" font-family="Helvetica,sans-Serif" font-size="11.00" fill="#000000"> &#160;</text>
<polygon fill="#ffffff" stroke="transparent" points="390.5,-37.7 390.5,-56.7 427.5,-56.7 427.5,-37.7 390.5,-37.7"/>
<polygon fill="none" stroke="#000000" points="390.5,-37.7 390.5,-56.7 427.5,-56.7 427.5,-37.7 390.5,-37.7"/>
<text text-anchor="start" x="418.3862" y="-43.8" font-family="Helvetica,sans-Serif" font-size="11.00" fill="#000000"> &#160;</text>
</a>
</g>
</g>
<!-- staff_role_audit&#45;&gt;audit_revision -->
<g id="edge3" class="edge">
<title>staff_role_audit:w&#45;&gt;audit_revision:e</title>
<path fill="none" stroke="#000000" d="M269.9996,-65.909C230.4095,-67.2064 209.537,-75.3055 183,-110.7 141.8442,-165.5928 210.6077,-416.7 142,-416.7"/>
<polygon fill="#000000" stroke="#000000" points="276.5008,-65.8153 284.5519,-69.2996 280.5004,-65.7577 284.5,-65.7 284.5,-65.7 284.5,-65.7 280.5004,-65.7577 284.4481,-62.1004 276.5008,-65.8153 276.5008,-65.8153"/>
<ellipse fill="none" stroke="#000000" cx="273.3012" cy="-65.8615" rx="3.2" ry="3.2"/>
</g>
</g>
</svg>
