<?xml version="1.0" encoding="UTF-8" standalone="no"?>
<!DOCTYPE svg PUBLIC "-//W3C//DTD SVG 1.1//EN"
 "http://www.w3.org/Graphics/SVG/1.1/DTD/svg11.dtd">
<!-- Generated by graphviz version 2.40.1 (20161225.0304)
 -->
<!-- Title: twoDegreesRelationshipsDiagram Pages: 1 -->
<svg width="479pt" height="416pt"
 viewBox="0.00 0.00 479.00 416.20" xmlns="http://www.w3.org/2000/svg" xmlns:xlink="http://www.w3.org/1999/xlink">
<g id="graph0" class="graph" transform="scale(1 1) rotate(0) translate(4 412.2)">
<title>twoDegreesRelationshipsDiagram</title>
<polygon fill="#ffffff" stroke="transparent" points="-4,4 -4,-412.2 475,-412.2 475,4 -4,4"/>
<text text-anchor="middle" x="72.4936" y="-7.3" font-family="Helvetica,sans-Serif" font-size="11.00" fill="#000000">Generated by SchemaSpy</text>
<!-- offender_key_worker -->
<g id="node1" class="node">
<title>offender_key_worker</title>
<g id="a_node1"><a xlink:href="../../tables/offender_key_worker.html" xlink:title="offender_key_worker" target="_top">
<polygon fill="#ffffff" stroke="transparent" points="241.5,-342.2 241.5,-403.2 421.5,-403.2 421.5,-342.2 241.5,-342.2"/>
<polygon fill="#f5f5f5" stroke="transparent" points="241.5,-379.7 241.5,-402.7 421.5,-402.7 421.5,-379.7 241.5,-379.7"/>
<polygon fill="none" stroke="#000000" points="241.5,-379.7 241.5,-402.7 421.5,-402.7 421.5,-379.7 241.5,-379.7"/>
<text text-anchor="start" x="246.5" y="-388.3" font-family="Helvetica,sans-Serif" font-weight="bold" font-size="11.00" fill="#000000">offender_key_worker</text>
<text text-anchor="start" x="387.0219" y="-387.8" font-family="Helvetica,sans-Serif" font-size="11.00" fill="#000000">[table]</text>
<polygon fill="none" stroke="#000000" points="241.5,-360.7 241.5,-379.7 421.5,-379.7 421.5,-360.7 241.5,-360.7"/>
<text text-anchor="start" x="244.5" y="-366.8" font-family="Helvetica,sans-Serif" font-size="11.00" fill="#000000">...</text>
<polygon fill="#ffffff" stroke="transparent" points="241.5,-341.7 241.5,-360.7 329.5,-360.7 329.5,-341.7 241.5,-341.7"/>
<polygon fill="none" stroke="#000000" points="241.5,-341.7 241.5,-360.7 329.5,-360.7 329.5,-341.7 241.5,-341.7"/>
<text text-anchor="start" x="244.5" y="-347.8" font-family="Helvetica,sans-Serif" font-size="11.00" fill="#000000">&lt; 2</text>
<polygon fill="#ffffff" stroke="transparent" points="329.5,-341.7 329.5,-360.7 375.5,-360.7 375.5,-341.7 329.5,-341.7"/>
<polygon fill="none" stroke="#000000" points="329.5,-341.7 329.5,-360.7 375.5,-360.7 375.5,-341.7 329.5,-341.7"/>
<text text-anchor="start" x="366.3862" y="-347.8" font-family="Helvetica,sans-Serif" font-size="11.00" fill="#000000"> &#160;</text>
<polygon fill="#ffffff" stroke="transparent" points="375.5,-341.7 375.5,-360.7 421.5,-360.7 421.5,-341.7 375.5,-341.7"/>
<polygon fill="none" stroke="#000000" points="375.5,-341.7 375.5,-360.7 421.5,-360.7 421.5,-341.7 375.5,-341.7"/>
<text text-anchor="start" x="412.3862" y="-347.8" font-family="Helvetica,sans-Serif" font-size="11.00" fill="#000000"> &#160;</text>
</a>
</g>
</g>
<!-- reference_data -->
<g id="node2" class="node">
<title>reference_data</title>
<g id="a_node2"><a xlink:href="../../tables/reference_data.html" xlink:title="reference_data" target="_top">
<polygon fill="#ffffff" stroke="transparent" points="8,-255.2 8,-404.2 151,-404.2 151,-255.2 8,-255.2"/>
<polygon fill="#f5f5f5" stroke="transparent" points="8.5,-380.7 8.5,-403.7 151.5,-403.7 151.5,-380.7 8.5,-380.7"/>
<polygon fill="none" stroke="#000000" points="8.5,-380.7 8.5,-403.7 151.5,-403.7 151.5,-380.7 8.5,-380.7"/>
<text text-anchor="start" x="13.5" y="-389.3" font-family="Helvetica,sans-Serif" font-weight="bold" font-size="11.00" fill="#000000">reference_data</text>
<text text-anchor="start" x="116.5437" y="-388.8" font-family="Helvetica,sans-Serif" font-size="11.00" fill="#000000">[table]</text>
<polygon fill="none" stroke="#000000" points="8.5,-358.7 8.5,-380.7 151.5,-380.7 151.5,-358.7 8.5,-358.7"/>
<image xlink:href="../../images/primaryKeys.png" width="11px" height="12px" preserveAspectRatio="xMinYMin meet" x="13.5" y="-375.7"/>
<text text-anchor="start" x="28.5" y="-365.8" font-family="Helvetica,sans-Serif" font-size="11.00" fill="#000000">id</text>
<polygon fill="#ffffff" stroke="transparent" points="8.5,-336.7 8.5,-358.7 151.5,-358.7 151.5,-336.7 8.5,-336.7"/>
<polygon fill="none" stroke="#000000" points="8.5,-336.7 8.5,-358.7 151.5,-358.7 151.5,-336.7 8.5,-336.7"/>
<text text-anchor="start" x="28.5" y="-343.8" font-family="Helvetica,sans-Serif" font-size="11.00" fill="#000000">domain</text>
<polygon fill="#ffffff" stroke="transparent" points="8.5,-314.7 8.5,-336.7 151.5,-336.7 151.5,-314.7 8.5,-314.7"/>
<polygon fill="none" stroke="#000000" points="8.5,-314.7 8.5,-336.7 151.5,-336.7 151.5,-314.7 8.5,-314.7"/>
<text text-anchor="start" x="28.5" y="-321.8" font-family="Helvetica,sans-Serif" font-size="11.00" fill="#000000">code</text>
<polygon fill="#ffffff" stroke="transparent" points="8.5,-292.7 8.5,-314.7 151.5,-314.7 151.5,-292.7 8.5,-292.7"/>
<polygon fill="none" stroke="#000000" points="8.5,-292.7 8.5,-314.7 151.5,-314.7 151.5,-292.7 8.5,-292.7"/>
<text text-anchor="start" x="28.5" y="-299.8" font-family="Helvetica,sans-Serif" font-size="11.00" fill="#000000">sequence_number</text>
<polygon fill="none" stroke="#000000" points="8.5,-273.7 8.5,-292.7 151.5,-292.7 151.5,-273.7 8.5,-273.7"/>
<text text-anchor="start" x="11.5" y="-279.8" font-family="Helvetica,sans-Serif" font-size="11.00" fill="#000000">...</text>
<polygon fill="#ffffff" stroke="transparent" points="8.5,-254.7 8.5,-273.7 69.5,-273.7 69.5,-254.7 8.5,-254.7"/>
<polygon fill="none" stroke="#000000" points="8.5,-254.7 8.5,-273.7 69.5,-273.7 69.5,-254.7 8.5,-254.7"/>
<text text-anchor="start" x="11.5" y="-260.8" font-family="Helvetica,sans-Serif" font-size="11.00" fill="#000000"> &#160;</text>
<polygon fill="#ffffff" stroke="transparent" points="69.5,-254.7 69.5,-273.7 105.5,-273.7 105.5,-254.7 69.5,-254.7"/>
<polygon fill="none" stroke="#000000" points="69.5,-254.7 69.5,-273.7 105.5,-273.7 105.5,-254.7 69.5,-254.7"/>
<text text-anchor="start" x="96.3862" y="-260.8" font-family="Helvetica,sans-Serif" font-size="11.00" fill="#000000"> &#160;</text>
<polygon fill="#ffffff" stroke="transparent" points="105.5,-254.7 105.5,-273.7 151.5,-273.7 151.5,-254.7 105.5,-254.7"/>
<polygon fill="none" stroke="#000000" points="105.5,-254.7 105.5,-273.7 151.5,-273.7 151.5,-254.7 105.5,-254.7"/>
<text text-anchor="start" x="132.9053" y="-260.8" font-family="Helvetica,sans-Serif" font-size="11.00" fill="#000000">3 &gt;</text>
</a>
</g>
</g>
<!-- offender_key_worker&#45;&gt;reference_data -->
<g id="edge1" class="edge">
<title>offender_key_worker:w&#45;&gt;reference_data:e</title>
<path fill="none" stroke="#000000" d="M227.0095,-367.6269C198.3146,-363.8058 186.1875,-364.4969 151.5,-369.7"/>
<polygon fill="#000000" stroke="#000000" points="233.5806,-368.567 240.9901,-373.2637 237.5403,-369.1335 241.5,-369.7 241.5,-369.7 241.5,-369.7 237.5403,-369.1335 242.0099,-366.1363 233.5806,-368.567 233.5806,-368.567"/>
<ellipse fill="none" stroke="#000000" cx="230.4129" cy="-368.1137" rx="3.2" ry="3.2"/>
</g>
<!-- offender_key_worker&#45;&gt;reference_data -->
<g id="edge2" class="edge">
<title>offender_key_worker:w&#45;&gt;reference_data:e</title>
<path fill="none" stroke="#000000" d="M227.0095,-372.1186C198.3146,-376.5765 186.1875,-375.7703 151.5,-369.7"/>
<polygon fill="#000000" stroke="#000000" points="233.6092,-371.0171 242.0927,-373.2509 237.5546,-370.3586 241.5,-369.7 241.5,-369.7 241.5,-369.7 237.5546,-370.3586 240.9073,-366.1491 233.6092,-371.0171 233.6092,-371.0171"/>
<ellipse fill="none" stroke="#000000" cx="230.4528" cy="-371.544" rx="3.2" ry="3.2"/>
</g>
<!-- prison_configuration -->
<g id="node3" class="node">
<title>prison_configuration</title>
<g id="a_node3"><a xlink:href="../../tables/prison_configuration.html" xlink:title="prison_configuration" target="_top">
<polygon fill="#ffffff" stroke="transparent" points="242.5,-38.2 242.5,-99.2 420.5,-99.2 420.5,-38.2 242.5,-38.2"/>
<polygon fill="#f5f5f5" stroke="transparent" points="242.5,-75.7 242.5,-98.7 420.5,-98.7 420.5,-75.7 242.5,-75.7"/>
<polygon fill="none" stroke="#000000" points="242.5,-75.7 242.5,-98.7 420.5,-98.7 420.5,-75.7 242.5,-75.7"/>
<text text-anchor="start" x="247.5" y="-84.3" font-family="Helvetica,sans-Serif" font-weight="bold" font-size="11.00" fill="#000000">prison_configuration</text>
<text text-anchor="start" x="386.0219" y="-83.8" font-family="Helvetica,sans-Serif" font-size="11.00" fill="#000000">[table]</text>
<polygon fill="none" stroke="#000000" points="242.5,-56.7 242.5,-75.7 420.5,-75.7 420.5,-56.7 242.5,-56.7"/>
<text text-anchor="start" x="245.5" y="-62.8" font-family="Helvetica,sans-Serif" font-size="11.00" fill="#000000">...</text>
<polygon fill="#ffffff" stroke="transparent" points="242.5,-37.7 242.5,-56.7 313.5,-56.7 313.5,-37.7 242.5,-37.7"/>
<polygon fill="none" stroke="#000000" points="242.5,-37.7 242.5,-56.7 313.5,-56.7 313.5,-37.7 242.5,-37.7"/>
<text text-anchor="start" x="245.5" y="-43.8" font-family="Helvetica,sans-Serif" font-size="11.00" fill="#000000">&lt; 1</text>
<polygon fill="#ffffff" stroke="transparent" points="313.5,-37.7 313.5,-56.7 382.5,-56.7 382.5,-37.7 313.5,-37.7"/>
<polygon fill="none" stroke="#000000" points="313.5,-37.7 313.5,-56.7 382.5,-56.7 382.5,-37.7 313.5,-37.7"/>
<text text-anchor="start" x="340.9956" y="-43.8" font-family="Helvetica,sans-Serif" font-size="11.00" fill="#000000">12 rows</text>
<polygon fill="#ffffff" stroke="transparent" points="382.5,-37.7 382.5,-56.7 420.5,-56.7 420.5,-37.7 382.5,-37.7"/>
<polygon fill="none" stroke="#000000" points="382.5,-37.7 382.5,-56.7 420.5,-56.7 420.5,-37.7 382.5,-37.7"/>
<text text-anchor="start" x="411.3862" y="-43.8" font-family="Helvetica,sans-Serif" font-size="11.00" fill="#000000"> &#160;</text>
</a>
</g>
</g>
<!-- policy -->
<g id="node4" class="node">
<title>policy</title>
<g id="a_node4"><a xlink:href="../../tables/policy.html" xlink:title="policy" target="_top">
<polygon fill="#ffffff" stroke="transparent" points="31,-72.2 31,-155.2 128,-155.2 128,-72.2 31,-72.2"/>
<polygon fill="#f5f5f5" stroke="transparent" points="31.5,-131.7 31.5,-154.7 128.5,-154.7 128.5,-131.7 31.5,-131.7"/>
<polygon fill="none" stroke="#000000" points="31.5,-131.7 31.5,-154.7 128.5,-154.7 128.5,-131.7 31.5,-131.7"/>
<text text-anchor="start" x="36.5" y="-140.3" font-family="Helvetica,sans-Serif" font-weight="bold" font-size="11.00" fill="#000000">policy</text>
<text text-anchor="start" x="93.5437" y="-139.8" font-family="Helvetica,sans-Serif" font-size="11.00" fill="#000000">[table]</text>
<polygon fill="none" stroke="#000000" points="31.5,-109.7 31.5,-131.7 128.5,-131.7 128.5,-109.7 31.5,-109.7"/>
<image xlink:href="../../images/primaryKeys.png" width="11px" height="12px" preserveAspectRatio="xMinYMin meet" x="36.5" y="-126.7"/>
<text text-anchor="start" x="51.5" y="-116.8" font-family="Helvetica,sans-Serif" font-size="11.00" fill="#000000">code</text>
<polygon fill="none" stroke="#000000" points="31.5,-90.7 31.5,-109.7 128.5,-109.7 128.5,-90.7 31.5,-90.7"/>
<text text-anchor="start" x="34.5" y="-96.8" font-family="Helvetica,sans-Serif" font-size="11.00" fill="#000000">...</text>
<polygon fill="#ffffff" stroke="transparent" points="31.5,-71.7 31.5,-90.7 69.5,-90.7 69.5,-71.7 31.5,-71.7"/>
<polygon fill="none" stroke="#000000" points="31.5,-71.7 31.5,-90.7 69.5,-90.7 69.5,-71.7 31.5,-71.7"/>
<text text-anchor="start" x="34.5" y="-77.8" font-family="Helvetica,sans-Serif" font-size="11.00" fill="#000000"> &#160;</text>
<polygon fill="#ffffff" stroke="transparent" points="69.5,-71.7 69.5,-90.7 94.5,-90.7 94.5,-71.7 69.5,-71.7"/>
<polygon fill="none" stroke="#000000" points="69.5,-71.7 69.5,-90.7 94.5,-90.7 94.5,-71.7 69.5,-71.7"/>
<text text-anchor="start" x="85.3862" y="-77.8" font-family="Helvetica,sans-Serif" font-size="11.00" fill="#000000"> &#160;</text>
<polygon fill="#ffffff" stroke="transparent" points="94.5,-71.7 94.5,-90.7 128.5,-90.7 128.5,-71.7 94.5,-71.7"/>
<polygon fill="none" stroke="#000000" points="94.5,-71.7 94.5,-90.7 128.5,-90.7 128.5,-71.7 94.5,-71.7"/>
<text text-anchor="start" x="109.9053" y="-77.8" font-family="Helvetica,sans-Serif" font-size="11.00" fill="#000000">2 &gt;</text>
</a>
</g>
</g>
<!-- prison_configuration&#45;&gt;policy -->
<g id="edge3" class="edge">
<title>prison_configuration:w&#45;&gt;policy:e</title>
<path fill="none" stroke="#000000" d="M228.032,-67.0596C185.4842,-75.5291 179.4812,-120.7 128.5,-120.7"/>
<polygon fill="#000000" stroke="#000000" points="234.5351,-66.4485 242.8368,-69.2842 238.5175,-66.0743 242.5,-65.7 242.5,-65.7 242.5,-65.7 238.5175,-66.0743 242.1632,-62.1158 234.5351,-66.4485 234.5351,-66.4485"/>
<ellipse fill="none" stroke="#000000" cx="231.3491" cy="-66.7479" rx="3.2" ry="3.2"/>
</g>
<!-- staff_configuration -->
<g id="node5" class="node">
<title>staff_configuration</title>
<g id="a_node5"><a xlink:href="../../tables/staff_configuration.html" xlink:title="staff_configuration" target="_top">
<polygon fill="#ffffff" stroke="transparent" points="200,-120.7 200,-320.7 463,-320.7 463,-120.7 200,-120.7"/>
<polygon fill="#f5f5f5" stroke="transparent" points="202.5,-295.7 202.5,-318.7 461.5,-318.7 461.5,-295.7 202.5,-295.7"/>
<polygon fill="none" stroke="#000000" points="202.5,-295.7 202.5,-318.7 461.5,-318.7 461.5,-295.7 202.5,-295.7"/>
<text text-anchor="start" x="207.5" y="-304.3" font-family="Helvetica,sans-Serif" font-weight="bold" font-size="11.00" fill="#000000">staff_configuration</text>
<text text-anchor="start" x="426.5437" y="-303.8" font-family="Helvetica,sans-Serif" font-size="11.00" fill="#000000">[table]</text>
<polygon fill="#ffffff" stroke="transparent" points="202.5,-273.7 202.5,-295.7 367.5,-295.7 367.5,-273.7 202.5,-273.7"/>
<polygon fill="none" stroke="#000000" points="202.5,-273.7 202.5,-295.7 367.5,-295.7 367.5,-273.7 202.5,-273.7"/>
<text text-anchor="start" x="222.5" y="-280.8" font-family="Helvetica,sans-Serif" font-size="11.00" fill="#000000">staff_id</text>
<polygon fill="none" stroke="#000000" points="367.5,-273.7 367.5,-295.7 461.5,-295.7 461.5,-273.7 367.5,-273.7"/>
<text text-anchor="start" x="370.5" y="-281.4" font-family="Helvetica,sans-Serif" font-size="11.00" fill="#000000">int8[19]</text>
<polygon fill="none" stroke="#000000" points="202.5,-251.7 202.5,-273.7 367.5,-273.7 367.5,-251.7 202.5,-251.7"/>
<text text-anchor="start" x="222.5" y="-258.8" font-family="Helvetica,sans-Serif" font-size="11.00" fill="#000000">capacity</text>
<polygon fill="none" stroke="#000000" points="367.5,-251.7 367.5,-273.7 461.5,-273.7 461.5,-251.7 367.5,-251.7"/>
<text text-anchor="start" x="370.5" y="-259.4" font-family="Helvetica,sans-Serif" font-size="11.00" fill="#000000">int4[10]</text>
<polygon fill="none" stroke="#000000" points="202.5,-229.7 202.5,-251.7 367.5,-251.7 367.5,-229.7 202.5,-229.7"/>
<image xlink:href="../../images/foreignKeys.png" width="11px" height="12px" preserveAspectRatio="xMinYMin meet" x="207.5" y="-246.7"/>
<text text-anchor="start" x="222.5" y="-236.8" font-family="Helvetica,sans-Serif" font-size="11.00" fill="#000000">status_id</text>
<polygon fill="none" stroke="#000000" points="367.5,-229.7 367.5,-251.7 461.5,-251.7 461.5,-229.7 367.5,-229.7"/>
<text text-anchor="start" x="370.5" y="-237.4" font-family="Helvetica,sans-Serif" font-size="11.00" fill="#000000">int8[19]</text>
<polygon fill="none" stroke="#000000" points="202.5,-207.7 202.5,-229.7 367.5,-229.7 367.5,-207.7 202.5,-207.7"/>
<text text-anchor="start" x="222.5" y="-214.8" font-family="Helvetica,sans-Serif" font-size="11.00" fill="#000000">allow_auto_allocation</text>
<polygon fill="none" stroke="#000000" points="367.5,-207.7 367.5,-229.7 461.5,-229.7 461.5,-207.7 367.5,-207.7"/>
<text text-anchor="start" x="370.5" y="-215.4" font-family="Helvetica,sans-Serif" font-size="11.00" fill="#000000">bool[1]</text>
<polygon fill="none" stroke="#000000" points="202.5,-185.7 202.5,-207.7 367.5,-207.7 367.5,-185.7 202.5,-185.7"/>
<text text-anchor="start" x="222.5" y="-192.8" font-family="Helvetica,sans-Serif" font-size="11.00" fill="#000000">reactivate_on</text>
<polygon fill="none" stroke="#000000" points="367.5,-185.7 367.5,-207.7 461.5,-207.7 461.5,-185.7 367.5,-185.7"/>
<text text-anchor="start" x="370.5" y="-193.4" font-family="Helvetica,sans-Serif" font-size="11.00" fill="#000000">date[13]</text>
<polygon fill="#ffffff" stroke="transparent" points="202.5,-163.7 202.5,-185.7 367.5,-185.7 367.5,-163.7 202.5,-163.7"/>
<polygon fill="none" stroke="#000000" points="202.5,-163.7 202.5,-185.7 367.5,-185.7 367.5,-163.7 202.5,-163.7"/>
<image xlink:href="../../images/foreignKeys.png" width="11px" height="12px" preserveAspectRatio="xMinYMin meet" x="207.5" y="-180.7"/>
<text text-anchor="start" x="222.5" y="-170.8" font-family="Helvetica,sans-Serif" font-size="11.00" fill="#000000">policy_code</text>
<polygon fill="none" stroke="#000000" points="367.5,-163.7 367.5,-185.7 461.5,-185.7 461.5,-163.7 367.5,-163.7"/>
<text text-anchor="start" x="370.5" y="-171.4" font-family="Helvetica,sans-Serif" font-size="11.00" fill="#000000">varchar[16]</text>
<polygon fill="none" stroke="#000000" points="202.5,-141.7 202.5,-163.7 367.5,-163.7 367.5,-141.7 202.5,-141.7"/>
<image xlink:href="../../images/primaryKeys.png" width="11px" height="12px" preserveAspectRatio="xMinYMin meet" x="207.5" y="-158.7"/>
<text text-anchor="start" x="222.5" y="-148.8" font-family="Helvetica,sans-Serif" font-size="11.00" fill="#000000">id</text>
<polygon fill="none" stroke="#000000" points="367.5,-141.7 367.5,-163.7 461.5,-163.7 461.5,-141.7 367.5,-141.7"/>
<text text-anchor="start" x="370.4758" y="-149.4" font-family="Helvetica,sans-Serif" font-size="11.00" fill="#000000">uuid[2147483647]</text>
<polygon fill="#ffffff" stroke="transparent" points="202.5,-122.7 202.5,-141.7 289.5,-141.7 289.5,-122.7 202.5,-122.7"/>
<polygon fill="none" stroke="#000000" points="202.5,-122.7 202.5,-141.7 289.5,-141.7 289.5,-122.7 202.5,-122.7"/>
<text text-anchor="start" x="205.5" y="-128.8" font-family="Helvetica,sans-Serif" font-size="11.00" fill="#000000">&lt; 2</text>
<polygon fill="#ffffff" stroke="transparent" points="289.5,-122.7 289.5,-141.7 367.5,-141.7 367.5,-122.7 289.5,-122.7"/>
<polygon fill="none" stroke="#000000" points="289.5,-122.7 289.5,-141.7 367.5,-141.7 367.5,-122.7 289.5,-122.7"/>
<text text-anchor="start" x="358.3862" y="-128.8" font-family="Helvetica,sans-Serif" font-size="11.00" fill="#000000"> &#160;</text>
<polygon fill="#ffffff" stroke="transparent" points="367.5,-122.7 367.5,-141.7 461.5,-141.7 461.5,-122.7 367.5,-122.7"/>
<polygon fill="none" stroke="#000000" points="367.5,-122.7 367.5,-141.7 461.5,-141.7 461.5,-122.7 367.5,-122.7"/>
<text text-anchor="start" x="442.9053" y="-128.8" font-family="Helvetica,sans-Serif" font-size="11.00" fill="#000000">0 &gt;</text>
<polygon fill="none" stroke="#000000" stroke-width="2" points="201,-121.7 201,-319.7 462,-319.7 462,-121.7 201,-121.7"/>
</a>
</g>
</g>
<!-- staff_configuration&#45;&gt;reference_data -->
<g id="edge5" class="edge">
<title>staff_configuration:w&#45;&gt;reference_data:e</title>
<path fill="none" stroke="#000000" d="M188.021,-244.1504C153.6928,-264.6651 207.1307,-369.7 151.5,-369.7"/>
<polygon fill="#000000" stroke="#000000" points="194.7179,-242.5546 203.3346,-244.2019 198.609,-241.6273 202.5,-240.7 202.5,-240.7 202.5,-240.7 198.609,-241.6273 201.6654,-237.1981 194.7179,-242.5546 194.7179,-242.5546"/>
<ellipse fill="none" stroke="#000000" cx="191.6051" cy="-243.2964" rx="3.2" ry="3.2"/>
</g>
<!-- staff_configuration&#45;&gt;policy -->
<g id="edge4" class="edge">
<title>staff_configuration:w&#45;&gt;policy:e</title>
<path fill="none" stroke="#000000" d="M188.2543,-171.9479C162.9169,-160.9437 163.6482,-120.7 128.5,-120.7"/>
<polygon fill="#000000" stroke="#000000" points="194.6452,-173.1825 201.8171,-178.2346 198.5726,-173.9413 202.5,-174.7 202.5,-174.7 202.5,-174.7 198.5726,-173.9413 203.1829,-171.1654 194.6452,-173.1825 194.6452,-173.1825"/>
<ellipse fill="none" stroke="#000000" cx="191.5033" cy="-172.5755" rx="3.2" ry="3.2"/>
</g>
</g>
</svg>
