<?xml version="1.0" encoding="UTF-8" standalone="no"?>
<!DOCTYPE svg PUBLIC "-//W3C//DTD SVG 1.1//EN"
 "http://www.w3.org/Graphics/SVG/1.1/DTD/svg11.dtd">
<!-- Generated by graphviz version 2.40.1 (20161225.0304)
 -->
<!-- Title: twoDegreesRelationshipsDiagram Pages: 1 -->
<svg width="668pt" height="749pt"
 viewBox="0.00 0.00 668.00 749.20" xmlns="http://www.w3.org/2000/svg" xmlns:xlink="http://www.w3.org/1999/xlink">
<g id="graph0" class="graph" transform="scale(1 1) rotate(0) translate(4 745.2)">
<title>twoDegreesRelationshipsDiagram</title>
<polygon fill="#ffffff" stroke="transparent" points="-4,4 -4,-745.2 664,-745.2 664,4 -4,4"/>
<text text-anchor="middle" x="72.4936" y="-7.3" font-family="Helvetica,sans-Serif" font-size="11.00" fill="#000000">Generated by SchemaSpy</text>
<!-- allocation -->
<g id="node1" class="node">
<title>allocation</title>
<g id="a_node1"><a xlink:href="../../tables/allocation.html" xlink:title="allocation" target="_top">
<polygon fill="#ffffff" stroke="transparent" points="271,-676.2 271,-737.2 376,-737.2 376,-676.2 271,-676.2"/>
<polygon fill="#f5f5f5" stroke="transparent" points="271.5,-713.7 271.5,-736.7 376.5,-736.7 376.5,-713.7 271.5,-713.7"/>
<polygon fill="none" stroke="#000000" points="271.5,-713.7 271.5,-736.7 376.5,-736.7 376.5,-713.7 271.5,-713.7"/>
<text text-anchor="start" x="276.5" y="-722.3" font-family="Helvetica,sans-Serif" font-weight="bold" font-size="11.00" fill="#000000">allocation</text>
<text text-anchor="start" x="342.0219" y="-721.8" font-family="Helvetica,sans-Serif" font-size="11.00" fill="#000000">[table]</text>
<polygon fill="none" stroke="#000000" points="271.5,-694.7 271.5,-713.7 376.5,-713.7 376.5,-694.7 271.5,-694.7"/>
<text text-anchor="start" x="274.5" y="-700.8" font-family="Helvetica,sans-Serif" font-size="11.00" fill="#000000">...</text>
<polygon fill="#ffffff" stroke="transparent" points="271.5,-675.7 271.5,-694.7 322.5,-694.7 322.5,-675.7 271.5,-675.7"/>
<polygon fill="none" stroke="#000000" points="271.5,-675.7 271.5,-694.7 322.5,-694.7 322.5,-675.7 271.5,-675.7"/>
<text text-anchor="start" x="274.5" y="-681.8" font-family="Helvetica,sans-Serif" font-size="11.00" fill="#000000">&lt; 3</text>
<polygon fill="#ffffff" stroke="transparent" points="322.5,-675.7 322.5,-694.7 349.5,-694.7 349.5,-675.7 322.5,-675.7"/>
<polygon fill="none" stroke="#000000" points="322.5,-675.7 322.5,-694.7 349.5,-694.7 349.5,-675.7 322.5,-675.7"/>
<text text-anchor="start" x="340.3862" y="-681.8" font-family="Helvetica,sans-Serif" font-size="11.00" fill="#000000"> &#160;</text>
<polygon fill="#ffffff" stroke="transparent" points="349.5,-675.7 349.5,-694.7 376.5,-694.7 376.5,-675.7 349.5,-675.7"/>
<polygon fill="none" stroke="#000000" points="349.5,-675.7 349.5,-694.7 376.5,-694.7 376.5,-675.7 349.5,-675.7"/>
<text text-anchor="start" x="367.3862" y="-681.8" font-family="Helvetica,sans-Serif" font-size="11.00" fill="#000000"> &#160;</text>
</a>
</g>
</g>
<!-- reference_data -->
<g id="node2" class="node">
<title>reference_data</title>
<g id="a_node2"><a xlink:href="../../tables/reference_data.html" xlink:title="reference_data" target="_top">
<polygon fill="#ffffff" stroke="transparent" points="8,-507.2 8,-656.2 151,-656.2 151,-507.2 8,-507.2"/>
<polygon fill="#f5f5f5" stroke="transparent" points="8.5,-632.7 8.5,-655.7 151.5,-655.7 151.5,-632.7 8.5,-632.7"/>
<polygon fill="none" stroke="#000000" points="8.5,-632.7 8.5,-655.7 151.5,-655.7 151.5,-632.7 8.5,-632.7"/>
<text text-anchor="start" x="13.5" y="-641.3" font-family="Helvetica,sans-Serif" font-weight="bold" font-size="11.00" fill="#000000">reference_data</text>
<text text-anchor="start" x="116.5437" y="-640.8" font-family="Helvetica,sans-Serif" font-size="11.00" fill="#000000">[table]</text>
<polygon fill="none" stroke="#000000" points="8.5,-610.7 8.5,-632.7 151.5,-632.7 151.5,-610.7 8.5,-610.7"/>
<image xlink:href="../../images/primaryKeys.png" width="11px" height="12px" preserveAspectRatio="xMinYMin meet" x="13.5" y="-627.7"/>
<text text-anchor="start" x="28.5" y="-617.8" font-family="Helvetica,sans-Serif" font-size="11.00" fill="#000000">id</text>
<polygon fill="#ffffff" stroke="transparent" points="8.5,-588.7 8.5,-610.7 151.5,-610.7 151.5,-588.7 8.5,-588.7"/>
<polygon fill="none" stroke="#000000" points="8.5,-588.7 8.5,-610.7 151.5,-610.7 151.5,-588.7 8.5,-588.7"/>
<text text-anchor="start" x="28.5" y="-595.8" font-family="Helvetica,sans-Serif" font-size="11.00" fill="#000000">domain</text>
<polygon fill="#ffffff" stroke="transparent" points="8.5,-566.7 8.5,-588.7 151.5,-588.7 151.5,-566.7 8.5,-566.7"/>
<polygon fill="none" stroke="#000000" points="8.5,-566.7 8.5,-588.7 151.5,-588.7 151.5,-566.7 8.5,-566.7"/>
<text text-anchor="start" x="28.5" y="-573.8" font-family="Helvetica,sans-Serif" font-size="11.00" fill="#000000">code</text>
<polygon fill="#ffffff" stroke="transparent" points="8.5,-544.7 8.5,-566.7 151.5,-566.7 151.5,-544.7 8.5,-544.7"/>
<polygon fill="none" stroke="#000000" points="8.5,-544.7 8.5,-566.7 151.5,-566.7 151.5,-544.7 8.5,-544.7"/>
<text text-anchor="start" x="28.5" y="-551.8" font-family="Helvetica,sans-Serif" font-size="11.00" fill="#000000">sequence_number</text>
<polygon fill="none" stroke="#000000" points="8.5,-525.7 8.5,-544.7 151.5,-544.7 151.5,-525.7 8.5,-525.7"/>
<text text-anchor="start" x="11.5" y="-531.8" font-family="Helvetica,sans-Serif" font-size="11.00" fill="#000000">...</text>
<polygon fill="#ffffff" stroke="transparent" points="8.5,-506.7 8.5,-525.7 53.5,-525.7 53.5,-506.7 8.5,-506.7"/>
<polygon fill="none" stroke="#000000" points="8.5,-506.7 8.5,-525.7 53.5,-525.7 53.5,-506.7 8.5,-506.7"/>
<text text-anchor="start" x="11.5" y="-512.8" font-family="Helvetica,sans-Serif" font-size="11.00" fill="#000000"> &#160;</text>
<polygon fill="#ffffff" stroke="transparent" points="53.5,-506.7 53.5,-525.7 113.5,-525.7 113.5,-506.7 53.5,-506.7"/>
<polygon fill="none" stroke="#000000" points="53.5,-506.7 53.5,-525.7 113.5,-525.7 113.5,-506.7 53.5,-506.7"/>
<text text-anchor="start" x="71.9956" y="-512.8" font-family="Helvetica,sans-Serif" font-size="11.00" fill="#000000">60 rows</text>
<polygon fill="#ffffff" stroke="transparent" points="113.5,-506.7 113.5,-525.7 151.5,-525.7 151.5,-506.7 113.5,-506.7"/>
<polygon fill="none" stroke="#000000" points="113.5,-506.7 113.5,-525.7 151.5,-525.7 151.5,-506.7 113.5,-506.7"/>
<text text-anchor="start" x="132.9053" y="-512.8" font-family="Helvetica,sans-Serif" font-size="11.00" fill="#000000">5 &gt;</text>
</a>
</g>
</g>
<!-- allocation&#45;&gt;reference_data -->
<g id="edge1" class="edge">
<title>allocation:w&#45;&gt;reference_data:e</title>
<path fill="none" stroke="#000000" d="M257.3767,-700.848C229.5899,-693.6372 219.314,-679.8815 192,-659.7 170.6235,-643.9056 178.0786,-615.7 151.5,-621.7"/>
<polygon fill="#000000" stroke="#000000" points="263.6583,-702.1164 270.7874,-707.2288 267.5791,-702.9082 271.5,-703.7 271.5,-703.7 271.5,-703.7 267.5791,-702.9082 272.2126,-700.1712 263.6583,-702.1164 263.6583,-702.1164"/>
<ellipse fill="none" stroke="#000000" cx="260.5216" cy="-701.483" rx="3.2" ry="3.2"/>
</g>
<!-- allocation&#45;&gt;reference_data -->
<g id="edge2" class="edge">
<title>allocation:w&#45;&gt;reference_data:e</title>
<path fill="none" stroke="#000000" d="M257.0023,-705.3864C229.497,-706.5132 219.191,-692.7906 192,-672.7 170.6235,-656.9056 178.0786,-628.7 151.5,-621.7"/>
<polygon fill="#000000" stroke="#000000" points="263.5536,-704.6244 271.916,-707.2759 267.5268,-704.1622 271.5,-703.7 271.5,-703.7 271.5,-703.7 267.5268,-704.1622 271.084,-700.1241 263.5536,-704.6244 263.5536,-704.6244"/>
<ellipse fill="none" stroke="#000000" cx="260.375" cy="-704.9941" rx="3.2" ry="3.2"/>
</g>
<!-- policy -->
<g id="node3" class="node">
<title>policy</title>
<g id="a_node3"><a xlink:href="../../tables/policy.html" xlink:title="policy" target="_top">
<polygon fill="#ffffff" stroke="transparent" points="31,-264.2 31,-347.2 128,-347.2 128,-264.2 31,-264.2"/>
<polygon fill="#f5f5f5" stroke="transparent" points="31.5,-323.7 31.5,-346.7 128.5,-346.7 128.5,-323.7 31.5,-323.7"/>
<polygon fill="none" stroke="#000000" points="31.5,-323.7 31.5,-346.7 128.5,-346.7 128.5,-323.7 31.5,-323.7"/>
<text text-anchor="start" x="36.5" y="-332.3" font-family="Helvetica,sans-Serif" font-weight="bold" font-size="11.00" fill="#000000">policy</text>
<text text-anchor="start" x="93.5437" y="-331.8" font-family="Helvetica,sans-Serif" font-size="11.00" fill="#000000">[table]</text>
<polygon fill="none" stroke="#000000" points="31.5,-301.7 31.5,-323.7 128.5,-323.7 128.5,-301.7 31.5,-301.7"/>
<image xlink:href="../../images/primaryKeys.png" width="11px" height="12px" preserveAspectRatio="xMinYMin meet" x="36.5" y="-318.7"/>
<text text-anchor="start" x="51.5" y="-308.8" font-family="Helvetica,sans-Serif" font-size="11.00" fill="#000000">code</text>
<polygon fill="none" stroke="#000000" points="31.5,-282.7 31.5,-301.7 128.5,-301.7 128.5,-282.7 31.5,-282.7"/>
<text text-anchor="start" x="34.5" y="-288.8" font-family="Helvetica,sans-Serif" font-size="11.00" fill="#000000">...</text>
<polygon fill="#ffffff" stroke="transparent" points="31.5,-263.7 31.5,-282.7 69.5,-282.7 69.5,-263.7 31.5,-263.7"/>
<polygon fill="none" stroke="#000000" points="31.5,-263.7 31.5,-282.7 69.5,-282.7 69.5,-263.7 31.5,-263.7"/>
<text text-anchor="start" x="34.5" y="-269.8" font-family="Helvetica,sans-Serif" font-size="11.00" fill="#000000"> &#160;</text>
<polygon fill="#ffffff" stroke="transparent" points="69.5,-263.7 69.5,-282.7 94.5,-282.7 94.5,-263.7 69.5,-263.7"/>
<polygon fill="none" stroke="#000000" points="69.5,-263.7 69.5,-282.7 94.5,-282.7 94.5,-263.7 69.5,-263.7"/>
<text text-anchor="start" x="85.3862" y="-269.8" font-family="Helvetica,sans-Serif" font-size="11.00" fill="#000000"> &#160;</text>
<polygon fill="#ffffff" stroke="transparent" points="94.5,-263.7 94.5,-282.7 128.5,-282.7 128.5,-263.7 94.5,-263.7"/>
<polygon fill="none" stroke="#000000" points="94.5,-263.7 94.5,-282.7 128.5,-282.7 128.5,-263.7 94.5,-263.7"/>
<text text-anchor="start" x="109.9053" y="-269.8" font-family="Helvetica,sans-Serif" font-size="11.00" fill="#000000">8 &gt;</text>
</a>
</g>
</g>
<!-- allocation&#45;&gt;policy -->
<g id="edge3" class="edge">
<title>allocation:w&#45;&gt;policy:e</title>
<path fill="none" stroke="#000000" d="M257.021,-703.2963C227.8043,-701.45 212.5919,-692.706 192,-665.7 143.6727,-602.3192 208.2035,-312.7 128.5,-312.7"/>
<polygon fill="#000000" stroke="#000000" points="263.5031,-703.477 271.3996,-707.2986 267.5016,-703.5885 271.5,-703.7 271.5,-703.7 271.5,-703.7 267.5016,-703.5885 271.6004,-700.1014 263.5031,-703.477 263.5031,-703.477"/>
<ellipse fill="none" stroke="#000000" cx="260.3044" cy="-703.3877" rx="3.2" ry="3.2"/>
</g>
<!-- prison_configuration -->
<g id="node4" class="node">
<title>prison_configuration</title>
<g id="a_node4"><a xlink:href="../../tables/prison_configuration.html" xlink:title="prison_configuration" target="_top">
<polygon fill="#ffffff" stroke="transparent" points="234.5,-230.2 234.5,-291.2 412.5,-291.2 412.5,-230.2 234.5,-230.2"/>
<polygon fill="#f5f5f5" stroke="transparent" points="234.5,-267.7 234.5,-290.7 412.5,-290.7 412.5,-267.7 234.5,-267.7"/>
<polygon fill="none" stroke="#000000" points="234.5,-267.7 234.5,-290.7 412.5,-290.7 412.5,-267.7 234.5,-267.7"/>
<text text-anchor="start" x="239.5" y="-276.3" font-family="Helvetica,sans-Serif" font-weight="bold" font-size="11.00" fill="#000000">prison_configuration</text>
<text text-anchor="start" x="378.0219" y="-275.8" font-family="Helvetica,sans-Serif" font-size="11.00" fill="#000000">[table]</text>
<polygon fill="none" stroke="#000000" points="234.5,-248.7 234.5,-267.7 412.5,-267.7 412.5,-248.7 234.5,-248.7"/>
<text text-anchor="start" x="237.5" y="-254.8" font-family="Helvetica,sans-Serif" font-size="11.00" fill="#000000">...</text>
<polygon fill="#ffffff" stroke="transparent" points="234.5,-229.7 234.5,-248.7 305.5,-248.7 305.5,-229.7 234.5,-229.7"/>
<polygon fill="none" stroke="#000000" points="234.5,-229.7 234.5,-248.7 305.5,-248.7 305.5,-229.7 234.5,-229.7"/>
<text text-anchor="start" x="237.5" y="-235.8" font-family="Helvetica,sans-Serif" font-size="11.00" fill="#000000">&lt; 1</text>
<polygon fill="#ffffff" stroke="transparent" points="305.5,-229.7 305.5,-248.7 374.5,-248.7 374.5,-229.7 305.5,-229.7"/>
<polygon fill="none" stroke="#000000" points="305.5,-229.7 305.5,-248.7 374.5,-248.7 374.5,-229.7 305.5,-229.7"/>
<text text-anchor="start" x="332.9956" y="-235.8" font-family="Helvetica,sans-Serif" font-size="11.00" fill="#000000">12 rows</text>
<polygon fill="#ffffff" stroke="transparent" points="374.5,-229.7 374.5,-248.7 412.5,-248.7 412.5,-229.7 374.5,-229.7"/>
<polygon fill="none" stroke="#000000" points="374.5,-229.7 374.5,-248.7 412.5,-248.7 412.5,-229.7 374.5,-229.7"/>
<text text-anchor="start" x="403.3862" y="-235.8" font-family="Helvetica,sans-Serif" font-size="11.00" fill="#000000"> &#160;</text>
</a>
</g>
</g>
<!-- prison_configuration&#45;&gt;policy -->
<g id="edge4" class="edge">
<title>prison_configuration:w&#45;&gt;policy:e</title>
<path fill="none" stroke="#000000" d="M220.1187,-259.2284C180.9266,-268.1113 176.2885,-312.7 128.5,-312.7"/>
<polygon fill="#000000" stroke="#000000" points="226.5448,-258.5455 234.8805,-261.2798 230.5224,-258.1228 234.5,-257.7 234.5,-257.7 234.5,-257.7 230.5224,-258.1228 234.1195,-254.1202 226.5448,-258.5455 226.5448,-258.5455"/>
<ellipse fill="none" stroke="#000000" cx="223.3627" cy="-258.8837" rx="3.2" ry="3.2"/>
</g>
<!-- prison_statistic -->
<g id="node5" class="node">
<title>prison_statistic</title>
<g id="a_node5"><a xlink:href="../../tables/prison_statistic.html" xlink:title="prison_statistic" target="_top">
<polygon fill="#ffffff" stroke="transparent" points="252.5,-148.2 252.5,-209.2 394.5,-209.2 394.5,-148.2 252.5,-148.2"/>
<polygon fill="#f5f5f5" stroke="transparent" points="252.5,-185.7 252.5,-208.7 394.5,-208.7 394.5,-185.7 252.5,-185.7"/>
<polygon fill="none" stroke="#000000" points="252.5,-185.7 252.5,-208.7 394.5,-208.7 394.5,-185.7 252.5,-185.7"/>
<text text-anchor="start" x="257.5" y="-194.3" font-family="Helvetica,sans-Serif" font-weight="bold" font-size="11.00" fill="#000000">prison_statistic</text>
<text text-anchor="start" x="360.0219" y="-193.8" font-family="Helvetica,sans-Serif" font-size="11.00" fill="#000000">[table]</text>
<polygon fill="none" stroke="#000000" points="252.5,-166.7 252.5,-185.7 394.5,-185.7 394.5,-166.7 252.5,-166.7"/>
<text text-anchor="start" x="255.5" y="-172.8" font-family="Helvetica,sans-Serif" font-size="11.00" fill="#000000">...</text>
<polygon fill="#ffffff" stroke="transparent" points="252.5,-147.7 252.5,-166.7 317.5,-166.7 317.5,-147.7 252.5,-147.7"/>
<polygon fill="none" stroke="#000000" points="252.5,-147.7 252.5,-166.7 317.5,-166.7 317.5,-147.7 252.5,-147.7"/>
<text text-anchor="start" x="255.5" y="-153.8" font-family="Helvetica,sans-Serif" font-size="11.00" fill="#000000">&lt; 1</text>
<polygon fill="#ffffff" stroke="transparent" points="317.5,-147.7 317.5,-166.7 351.5,-166.7 351.5,-147.7 317.5,-147.7"/>
<polygon fill="none" stroke="#000000" points="317.5,-147.7 317.5,-166.7 351.5,-166.7 351.5,-147.7 317.5,-147.7"/>
<text text-anchor="start" x="342.3862" y="-153.8" font-family="Helvetica,sans-Serif" font-size="11.00" fill="#000000"> &#160;</text>
<polygon fill="#ffffff" stroke="transparent" points="351.5,-147.7 351.5,-166.7 394.5,-166.7 394.5,-147.7 351.5,-147.7"/>
<polygon fill="none" stroke="#000000" points="351.5,-147.7 351.5,-166.7 394.5,-166.7 394.5,-147.7 351.5,-147.7"/>
<text text-anchor="start" x="375.9053" y="-153.8" font-family="Helvetica,sans-Serif" font-size="11.00" fill="#000000">1 &gt;</text>
</a>
</g>
</g>
<!-- prison_statistic&#45;&gt;policy -->
<g id="edge5" class="edge">
<title>prison_statistic:w&#45;&gt;policy:e</title>
<path fill="none" stroke="#000000" d="M237.9852,-177.3271C217.3388,-182.5717 211.2683,-199.8506 192,-219.7 157.1394,-255.612 178.5494,-312.7 128.5,-312.7"/>
<polygon fill="#000000" stroke="#000000" points="244.5498,-176.5913 252.9011,-179.2776 248.5249,-176.1456 252.5,-175.7 252.5,-175.7 252.5,-175.7 248.5249,-176.1456 252.0989,-172.1224 244.5498,-176.5913 244.5498,-176.5913"/>
<ellipse fill="none" stroke="#000000" cx="241.3697" cy="-176.9478" rx="3.2" ry="3.2"/>
</g>
<!-- prisoner_statistic -->
<g id="node6" class="node">
<title>prisoner_statistic</title>
<g id="a_node6"><a xlink:href="../../tables/prisoner_statistic.html" xlink:title="prisoner_statistic" target="_top">
<polygon fill="#ffffff" stroke="transparent" points="496,-122.2 496,-183.2 652,-183.2 652,-122.2 496,-122.2"/>
<polygon fill="#f5f5f5" stroke="transparent" points="496,-159.7 496,-182.7 652,-182.7 652,-159.7 496,-159.7"/>
<polygon fill="none" stroke="#000000" points="496,-159.7 496,-182.7 652,-182.7 652,-159.7 496,-159.7"/>
<text text-anchor="start" x="501" y="-168.3" font-family="Helvetica,sans-Serif" font-weight="bold" font-size="11.00" fill="#000000">prisoner_statistic</text>
<text text-anchor="start" x="617.5219" y="-167.8" font-family="Helvetica,sans-Serif" font-size="11.00" fill="#000000">[table]</text>
<polygon fill="none" stroke="#000000" points="496,-140.7 496,-159.7 652,-159.7 652,-140.7 496,-140.7"/>
<text text-anchor="start" x="499" y="-146.8" font-family="Helvetica,sans-Serif" font-size="11.00" fill="#000000">...</text>
<polygon fill="#ffffff" stroke="transparent" points="496,-121.7 496,-140.7 572,-140.7 572,-121.7 496,-121.7"/>
<polygon fill="none" stroke="#000000" points="496,-121.7 496,-140.7 572,-140.7 572,-121.7 496,-121.7"/>
<text text-anchor="start" x="499" y="-127.8" font-family="Helvetica,sans-Serif" font-size="11.00" fill="#000000">&lt; 2</text>
<polygon fill="#ffffff" stroke="transparent" points="572,-121.7 572,-140.7 612,-140.7 612,-121.7 572,-121.7"/>
<polygon fill="none" stroke="#000000" points="572,-121.7 572,-140.7 612,-140.7 612,-121.7 572,-121.7"/>
<text text-anchor="start" x="602.8862" y="-127.8" font-family="Helvetica,sans-Serif" font-size="11.00" fill="#000000"> &#160;</text>
<polygon fill="#ffffff" stroke="transparent" points="612,-121.7 612,-140.7 652,-140.7 652,-121.7 612,-121.7"/>
<polygon fill="none" stroke="#000000" points="612,-121.7 612,-140.7 652,-140.7 652,-121.7 612,-121.7"/>
<text text-anchor="start" x="642.8862" y="-127.8" font-family="Helvetica,sans-Serif" font-size="11.00" fill="#000000"> &#160;</text>
</a>
</g>
</g>
<!-- prisoner_statistic&#45;&gt;policy -->
<g id="edge6" class="edge">
<title>prisoner_statistic:w&#45;&gt;policy:e</title>
<path fill="none" stroke="#000000" d="M481.5783,-147.3587C473.3532,-144.4167 467.7744,-139.531 455,-137.7 397.1468,-129.4076 239.8584,-104.1541 192,-137.7 124.2469,-185.1909 211.2398,-312.7 128.5,-312.7"/>
<polygon fill="#000000" stroke="#000000" points="488.1034,-148.418 495.4231,-153.2535 492.0517,-149.059 496,-149.7 496,-149.7 496,-149.7 492.0517,-149.059 496.5769,-146.1465 488.1034,-148.418 488.1034,-148.418"/>
<ellipse fill="none" stroke="#000000" cx="484.9447" cy="-147.9052" rx="3.2" ry="3.2"/>
</g>
<!-- prisoner_statistic&#45;&gt;prison_statistic -->
<g id="edge7" class="edge">
<title>prisoner_statistic:w&#45;&gt;prison_statistic:e</title>
<path fill="none" stroke="#000000" d="M481.5339,-150.6254C447.047,-155.257 435.7924,-175.7 394.5,-175.7"/>
<polygon fill="#000000" stroke="#000000" points="488.0163,-150.2107 496.2298,-153.2927 492.0082,-149.9554 496,-149.7 496,-149.7 496,-149.7 492.0082,-149.9554 495.7702,-146.1073 488.0163,-150.2107 488.0163,-150.2107"/>
<ellipse fill="none" stroke="#000000" cx="484.8228" cy="-150.415" rx="3.2" ry="3.2"/>
</g>
<!-- recorded_event -->
<g id="node7" class="node">
<title>recorded_event</title>
<g id="a_node7"><a xlink:href="../../tables/recorded_event.html" xlink:title="recorded_event" target="_top">
<polygon fill="#ffffff" stroke="transparent" points="251.5,-594.2 251.5,-655.2 395.5,-655.2 395.5,-594.2 251.5,-594.2"/>
<polygon fill="#f5f5f5" stroke="transparent" points="251.5,-631.7 251.5,-654.7 395.5,-654.7 395.5,-631.7 251.5,-631.7"/>
<polygon fill="none" stroke="#000000" points="251.5,-631.7 251.5,-654.7 395.5,-654.7 395.5,-631.7 251.5,-631.7"/>
<text text-anchor="start" x="256.5" y="-640.3" font-family="Helvetica,sans-Serif" font-weight="bold" font-size="11.00" fill="#000000">recorded_event</text>
<text text-anchor="start" x="361.0219" y="-639.8" font-family="Helvetica,sans-Serif" font-size="11.00" fill="#000000">[table]</text>
<polygon fill="none" stroke="#000000" points="251.5,-612.7 251.5,-631.7 395.5,-631.7 395.5,-612.7 251.5,-612.7"/>
<text text-anchor="start" x="254.5" y="-618.8" font-family="Helvetica,sans-Serif" font-size="11.00" fill="#000000">...</text>
<polygon fill="#ffffff" stroke="transparent" points="251.5,-593.7 251.5,-612.7 321.5,-612.7 321.5,-593.7 251.5,-593.7"/>
<polygon fill="none" stroke="#000000" points="251.5,-593.7 251.5,-612.7 321.5,-612.7 321.5,-593.7 251.5,-593.7"/>
<text text-anchor="start" x="254.5" y="-599.8" font-family="Helvetica,sans-Serif" font-size="11.00" fill="#000000">&lt; 2</text>
<polygon fill="#ffffff" stroke="transparent" points="321.5,-593.7 321.5,-612.7 358.5,-612.7 358.5,-593.7 321.5,-593.7"/>
<polygon fill="none" stroke="#000000" points="321.5,-593.7 321.5,-612.7 358.5,-612.7 358.5,-593.7 321.5,-593.7"/>
<text text-anchor="start" x="349.3862" y="-599.8" font-family="Helvetica,sans-Serif" font-size="11.00" fill="#000000"> &#160;</text>
<polygon fill="#ffffff" stroke="transparent" points="358.5,-593.7 358.5,-612.7 395.5,-612.7 395.5,-593.7 358.5,-593.7"/>
<polygon fill="none" stroke="#000000" points="358.5,-593.7 358.5,-612.7 395.5,-612.7 395.5,-593.7 358.5,-593.7"/>
<text text-anchor="start" x="386.3862" y="-599.8" font-family="Helvetica,sans-Serif" font-size="11.00" fill="#000000"> &#160;</text>
</a>
</g>
</g>
<!-- recorded_event&#45;&gt;reference_data -->
<g id="edge9" class="edge">
<title>recorded_event:w&#45;&gt;reference_data:e</title>
<path fill="none" stroke="#000000" d="M236.7022,-621.7C203.8758,-621.7 190.5625,-621.7 151.5,-621.7"/>
<polygon fill="#000000" stroke="#000000" points="243.5,-621.7001 251.5,-625.3 247.5,-621.7 251.5,-621.7 251.5,-621.7 251.5,-621.7 247.5,-621.7 251.5,-618.1 243.5,-621.7001 243.5,-621.7001"/>
<ellipse fill="none" stroke="#000000" cx="240.3" cy="-621.7001" rx="3.2" ry="3.2"/>
</g>
<!-- recorded_event&#45;&gt;policy -->
<g id="edge8" class="edge">
<title>recorded_event:w&#45;&gt;policy:e</title>
<path fill="none" stroke="#000000" d="M237.0668,-620.5974C216.4492,-617.0489 207.0195,-604.9039 192,-583.7 120.4949,-482.7526 252.2067,-312.7 128.5,-312.7"/>
<polygon fill="#000000" stroke="#000000" points="243.5232,-621.0906 251.2257,-625.2895 247.5116,-621.3953 251.5,-621.7 251.5,-621.7 251.5,-621.7 247.5116,-621.3953 251.7743,-618.1105 243.5232,-621.0906 243.5232,-621.0906"/>
<ellipse fill="none" stroke="#000000" cx="240.3325" cy="-620.8468" rx="3.2" ry="3.2"/>
</g>
<!-- recorded_event_audit -->
<g id="node8" class="node">
<title>recorded_event_audit</title>
<g id="a_node8"><a xlink:href="../../tables/recorded_event_audit.html" xlink:title="recorded_event_audit" target="_top">
<polygon fill="#ffffff" stroke="transparent" points="231,-38.2 231,-99.2 416,-99.2 416,-38.2 231,-38.2"/>
<polygon fill="#f5f5f5" stroke="transparent" points="231.5,-75.7 231.5,-98.7 416.5,-98.7 416.5,-75.7 231.5,-75.7"/>
<polygon fill="none" stroke="#000000" points="231.5,-75.7 231.5,-98.7 416.5,-98.7 416.5,-75.7 231.5,-75.7"/>
<text text-anchor="start" x="236.5" y="-84.3" font-family="Helvetica,sans-Serif" font-weight="bold" font-size="11.00" fill="#000000">recorded_event_audit</text>
<text text-anchor="start" x="382.0219" y="-83.8" font-family="Helvetica,sans-Serif" font-size="11.00" fill="#000000">[table]</text>
<polygon fill="none" stroke="#000000" points="231.5,-56.7 231.5,-75.7 416.5,-75.7 416.5,-56.7 231.5,-56.7"/>
<text text-anchor="start" x="234.5" y="-62.8" font-family="Helvetica,sans-Serif" font-size="11.00" fill="#000000">...</text>
<polygon fill="#ffffff" stroke="transparent" points="231.5,-37.7 231.5,-56.7 322.5,-56.7 322.5,-37.7 231.5,-37.7"/>
<polygon fill="none" stroke="#000000" points="231.5,-37.7 231.5,-56.7 322.5,-56.7 322.5,-37.7 231.5,-37.7"/>
<text text-anchor="start" x="234.5" y="-43.8" font-family="Helvetica,sans-Serif" font-size="11.00" fill="#000000">&lt; 2</text>
<polygon fill="#ffffff" stroke="transparent" points="322.5,-37.7 322.5,-56.7 369.5,-56.7 369.5,-37.7 322.5,-37.7"/>
<polygon fill="none" stroke="#000000" points="322.5,-37.7 322.5,-56.7 369.5,-56.7 369.5,-37.7 322.5,-37.7"/>
<text text-anchor="start" x="360.3862" y="-43.8" font-family="Helvetica,sans-Serif" font-size="11.00" fill="#000000"> &#160;</text>
<polygon fill="#ffffff" stroke="transparent" points="369.5,-37.7 369.5,-56.7 416.5,-56.7 416.5,-37.7 369.5,-37.7"/>
<polygon fill="none" stroke="#000000" points="369.5,-37.7 369.5,-56.7 416.5,-56.7 416.5,-37.7 369.5,-37.7"/>
<text text-anchor="start" x="407.3862" y="-43.8" font-family="Helvetica,sans-Serif" font-size="11.00" fill="#000000"> &#160;</text>
</a>
</g>
</g>
<!-- recorded_event_audit&#45;&gt;policy -->
<g id="edge10" class="edge">
<title>recorded_event_audit:w&#45;&gt;policy:e</title>
<path fill="none" stroke="#000000" d="M216.9615,-67.1505C124.1658,-87.393 242.0972,-312.7 128.5,-312.7"/>
<polygon fill="#000000" stroke="#000000" points="223.5395,-66.4943 231.8574,-69.2822 227.5198,-66.0971 231.5,-65.7 231.5,-65.7 231.5,-65.7 227.5198,-66.0971 231.1426,-62.1178 223.5395,-66.4943 223.5395,-66.4943"/>
<ellipse fill="none" stroke="#000000" cx="220.3553" cy="-66.812" rx="3.2" ry="3.2"/>
</g>
<!-- reference_data_policy -->
<g id="node9" class="node">
<title>reference_data_policy</title>
<g id="a_node9"><a xlink:href="../../tables/reference_data_policy.html" xlink:title="reference_data_policy" target="_top">
<polygon fill="#ffffff" stroke="transparent" points="230.5,-512.2 230.5,-573.2 416.5,-573.2 416.5,-512.2 230.5,-512.2"/>
<polygon fill="#f5f5f5" stroke="transparent" points="230.5,-549.7 230.5,-572.7 416.5,-572.7 416.5,-549.7 230.5,-549.7"/>
<polygon fill="none" stroke="#000000" points="230.5,-549.7 230.5,-572.7 416.5,-572.7 416.5,-549.7 230.5,-549.7"/>
<text text-anchor="start" x="235.5" y="-558.3" font-family="Helvetica,sans-Serif" font-weight="bold" font-size="11.00" fill="#000000">reference_data_policy</text>
<text text-anchor="start" x="382.0219" y="-557.8" font-family="Helvetica,sans-Serif" font-size="11.00" fill="#000000">[table]</text>
<polygon fill="none" stroke="#000000" points="230.5,-530.7 230.5,-549.7 416.5,-549.7 416.5,-530.7 230.5,-530.7"/>
<text text-anchor="start" x="233.5" y="-536.8" font-family="Helvetica,sans-Serif" font-size="11.00" fill="#000000">...</text>
<polygon fill="#ffffff" stroke="transparent" points="230.5,-511.7 230.5,-530.7 305.5,-530.7 305.5,-511.7 230.5,-511.7"/>
<polygon fill="none" stroke="#000000" points="230.5,-511.7 230.5,-530.7 305.5,-530.7 305.5,-511.7 230.5,-511.7"/>
<text text-anchor="start" x="233.5" y="-517.8" font-family="Helvetica,sans-Serif" font-size="11.00" fill="#000000">&lt; 2</text>
<polygon fill="#ffffff" stroke="transparent" points="305.5,-511.7 305.5,-530.7 376.5,-530.7 376.5,-511.7 305.5,-511.7"/>
<polygon fill="none" stroke="#000000" points="305.5,-511.7 305.5,-530.7 376.5,-530.7 376.5,-511.7 305.5,-511.7"/>
<text text-anchor="start" x="334.9956" y="-517.8" font-family="Helvetica,sans-Serif" font-size="11.00" fill="#000000">84 rows</text>
<polygon fill="#ffffff" stroke="transparent" points="376.5,-511.7 376.5,-530.7 416.5,-530.7 416.5,-511.7 376.5,-511.7"/>
<polygon fill="none" stroke="#000000" points="376.5,-511.7 376.5,-530.7 416.5,-530.7 416.5,-511.7 376.5,-511.7"/>
<text text-anchor="start" x="407.3862" y="-517.8" font-family="Helvetica,sans-Serif" font-size="11.00" fill="#000000"> &#160;</text>
</a>
</g>
</g>
<!-- reference_data_policy&#45;&gt;reference_data -->
<g id="edge11" class="edge">
<title>reference_data_policy:w&#45;&gt;reference_data:e</title>
<path fill="none" stroke="#000000" d="M216.3176,-542.4283C183.8816,-556.6565 196.5711,-621.7 151.5,-621.7"/>
<polygon fill="#000000" stroke="#000000" points="222.644,-541.2113 231.1801,-543.2352 226.572,-540.4557 230.5,-539.7 230.5,-539.7 230.5,-539.7 226.572,-540.4557 229.8199,-536.1648 222.644,-541.2113 222.644,-541.2113"/>
<ellipse fill="none" stroke="#000000" cx="219.5017" cy="-541.8158" rx="3.2" ry="3.2"/>
</g>
<!-- reference_data_policy&#45;&gt;policy -->
<g id="edge12" class="edge">
<title>reference_data_policy:w&#45;&gt;policy:e</title>
<path fill="none" stroke="#000000" d="M216.1503,-538.1904C130.7768,-518.4952 233.8133,-312.7 128.5,-312.7"/>
<polygon fill="#000000" stroke="#000000" points="222.5439,-538.863 230.1233,-543.2802 226.522,-539.2815 230.5,-539.7 230.5,-539.7 230.5,-539.7 226.522,-539.2815 230.8767,-536.1198 222.5439,-538.863 222.5439,-538.863"/>
<ellipse fill="none" stroke="#000000" cx="219.3615" cy="-538.5282" rx="3.2" ry="3.2"/>
</g>
<!-- staff_configuration -->
<g id="node10" class="node">
<title>staff_configuration</title>
<g id="a_node10"><a xlink:href="../../tables/staff_configuration.html" xlink:title="staff_configuration" target="_top">
<polygon fill="#ffffff" stroke="transparent" points="200,-312.7 200,-490.7 447,-490.7 447,-312.7 200,-312.7"/>
<polygon fill="#f5f5f5" stroke="transparent" points="202.5,-465.7 202.5,-488.7 445.5,-488.7 445.5,-465.7 202.5,-465.7"/>
<polygon fill="none" stroke="#000000" points="202.5,-465.7 202.5,-488.7 445.5,-488.7 445.5,-465.7 202.5,-465.7"/>
<text text-anchor="start" x="207.5" y="-474.3" font-family="Helvetica,sans-Serif" font-weight="bold" font-size="11.00" fill="#000000">staff_configuration</text>
<text text-anchor="start" x="410.5437" y="-473.8" font-family="Helvetica,sans-Serif" font-size="11.00" fill="#000000">[table]</text>
<polygon fill="#ffffff" stroke="transparent" points="202.5,-443.7 202.5,-465.7 351.5,-465.7 351.5,-443.7 202.5,-443.7"/>
<polygon fill="none" stroke="#000000" points="202.5,-443.7 202.5,-465.7 351.5,-465.7 351.5,-443.7 202.5,-443.7"/>
<text text-anchor="start" x="222.5" y="-450.8" font-family="Helvetica,sans-Serif" font-size="11.00" fill="#000000">staff_id</text>
<polygon fill="none" stroke="#000000" points="351.5,-443.7 351.5,-465.7 445.5,-465.7 445.5,-443.7 351.5,-443.7"/>
<text text-anchor="start" x="354.5" y="-451.4" font-family="Helvetica,sans-Serif" font-size="11.00" fill="#000000">int8[19]</text>
<polygon fill="none" stroke="#000000" points="202.5,-421.7 202.5,-443.7 351.5,-443.7 351.5,-421.7 202.5,-421.7"/>
<text text-anchor="start" x="222.5" y="-428.8" font-family="Helvetica,sans-Serif" font-size="11.00" fill="#000000">capacity</text>
<polygon fill="none" stroke="#000000" points="351.5,-421.7 351.5,-443.7 445.5,-443.7 445.5,-421.7 351.5,-421.7"/>
<text text-anchor="start" x="354.5" y="-429.4" font-family="Helvetica,sans-Serif" font-size="11.00" fill="#000000">int4[10]</text>
<polygon fill="none" stroke="#000000" points="202.5,-399.7 202.5,-421.7 351.5,-421.7 351.5,-399.7 202.5,-399.7"/>
<image xlink:href="../../images/foreignKeys.png" width="11px" height="12px" preserveAspectRatio="xMinYMin meet" x="207.5" y="-416.7"/>
<text text-anchor="start" x="222.5" y="-406.8" font-family="Helvetica,sans-Serif" font-size="11.00" fill="#000000">status_id</text>
<polygon fill="none" stroke="#000000" points="351.5,-399.7 351.5,-421.7 445.5,-421.7 445.5,-399.7 351.5,-399.7"/>
<text text-anchor="start" x="354.5" y="-407.4" font-family="Helvetica,sans-Serif" font-size="11.00" fill="#000000">int8[19]</text>
<polygon fill="none" stroke="#000000" points="202.5,-377.7 202.5,-399.7 351.5,-399.7 351.5,-377.7 202.5,-377.7"/>
<text text-anchor="start" x="222.5" y="-384.8" font-family="Helvetica,sans-Serif" font-size="11.00" fill="#000000">reactivate_on</text>
<polygon fill="none" stroke="#000000" points="351.5,-377.7 351.5,-399.7 445.5,-399.7 445.5,-377.7 351.5,-377.7"/>
<text text-anchor="start" x="354.5" y="-385.4" font-family="Helvetica,sans-Serif" font-size="11.00" fill="#000000">date[13]</text>
<polygon fill="#ffffff" stroke="transparent" points="202.5,-355.7 202.5,-377.7 351.5,-377.7 351.5,-355.7 202.5,-355.7"/>
<polygon fill="none" stroke="#000000" points="202.5,-355.7 202.5,-377.7 351.5,-377.7 351.5,-355.7 202.5,-355.7"/>
<image xlink:href="../../images/foreignKeys.png" width="11px" height="12px" preserveAspectRatio="xMinYMin meet" x="207.5" y="-372.7"/>
<text text-anchor="start" x="222.5" y="-362.8" font-family="Helvetica,sans-Serif" font-size="11.00" fill="#000000">policy_code</text>
<polygon fill="none" stroke="#000000" points="351.5,-355.7 351.5,-377.7 445.5,-377.7 445.5,-355.7 351.5,-355.7"/>
<text text-anchor="start" x="354.5" y="-363.4" font-family="Helvetica,sans-Serif" font-size="11.00" fill="#000000">varchar[16]</text>
<polygon fill="none" stroke="#000000" points="202.5,-333.7 202.5,-355.7 351.5,-355.7 351.5,-333.7 202.5,-333.7"/>
<image xlink:href="../../images/primaryKeys.png" width="11px" height="12px" preserveAspectRatio="xMinYMin meet" x="207.5" y="-350.7"/>
<text text-anchor="start" x="222.5" y="-340.8" font-family="Helvetica,sans-Serif" font-size="11.00" fill="#000000">id</text>
<polygon fill="none" stroke="#000000" points="351.5,-333.7 351.5,-355.7 445.5,-355.7 445.5,-333.7 351.5,-333.7"/>
<text text-anchor="start" x="354.4758" y="-341.4" font-family="Helvetica,sans-Serif" font-size="11.00" fill="#000000">uuid[2147483647]</text>
<polygon fill="#ffffff" stroke="transparent" points="202.5,-314.7 202.5,-333.7 281.5,-333.7 281.5,-314.7 202.5,-314.7"/>
<polygon fill="none" stroke="#000000" points="202.5,-314.7 202.5,-333.7 281.5,-333.7 281.5,-314.7 202.5,-314.7"/>
<text text-anchor="start" x="205.5" y="-320.8" font-family="Helvetica,sans-Serif" font-size="11.00" fill="#000000">&lt; 2</text>
<polygon fill="#ffffff" stroke="transparent" points="281.5,-314.7 281.5,-333.7 351.5,-333.7 351.5,-314.7 281.5,-314.7"/>
<polygon fill="none" stroke="#000000" points="281.5,-314.7 281.5,-333.7 351.5,-333.7 351.5,-314.7 281.5,-314.7"/>
<text text-anchor="start" x="342.3862" y="-320.8" font-family="Helvetica,sans-Serif" font-size="11.00" fill="#000000"> &#160;</text>
<polygon fill="#ffffff" stroke="transparent" points="351.5,-314.7 351.5,-333.7 445.5,-333.7 445.5,-314.7 351.5,-314.7"/>
<polygon fill="none" stroke="#000000" points="351.5,-314.7 351.5,-333.7 445.5,-333.7 445.5,-314.7 351.5,-314.7"/>
<text text-anchor="start" x="426.9053" y="-320.8" font-family="Helvetica,sans-Serif" font-size="11.00" fill="#000000">0 &gt;</text>
<polygon fill="none" stroke="#000000" stroke-width="2" points="201,-313.7 201,-489.7 446,-489.7 446,-313.7 201,-313.7"/>
</a>
</g>
</g>
<!-- staff_configuration&#45;&gt;reference_data -->
<g id="edge14" class="edge">
<title>staff_configuration:w&#45;&gt;reference_data:e</title>
<path fill="none" stroke="#000000" d="M187.9008,-412.7883C121.8387,-434.7022 242.3252,-621.7 151.5,-621.7"/>
<polygon fill="#000000" stroke="#000000" points="194.5806,-411.8329 203.0098,-414.2637 198.5403,-411.2664 202.5,-410.7 202.5,-410.7 202.5,-410.7 198.5403,-411.2664 201.9902,-407.1363 194.5806,-411.8329 194.5806,-411.8329"/>
<ellipse fill="none" stroke="#000000" cx="191.4129" cy="-412.286" rx="3.2" ry="3.2"/>
</g>
<!-- staff_configuration&#45;&gt;policy -->
<g id="edge13" class="edge">
<title>staff_configuration:w&#45;&gt;policy:e</title>
<path fill="none" stroke="#000000" d="M188.2543,-363.9479C162.9169,-352.9437 163.6482,-312.7 128.5,-312.7"/>
<polygon fill="#000000" stroke="#000000" points="194.6452,-365.1825 201.8171,-370.2346 198.5726,-365.9413 202.5,-366.7 202.5,-366.7 202.5,-366.7 198.5726,-365.9413 203.1829,-363.1654 194.6452,-365.1825 194.6452,-365.1825"/>
<ellipse fill="none" stroke="#000000" cx="191.5033" cy="-364.5755" rx="3.2" ry="3.2"/>
</g>
</g>
</svg>
