<?xml version="1.0" encoding="UTF-8" standalone="no"?>
<!DOCTYPE svg PUBLIC "-//W3C//DTD SVG 1.1//EN"
 "http://www.w3.org/Graphics/SVG/1.1/DTD/svg11.dtd">
<!-- Generated by graphviz version 2.40.1 (20161225.0304)
 -->
<!-- Title: oneDegreeRelationshipsDiagram Pages: 1 -->
<svg width="602pt" height="498pt"
 viewBox="0.00 0.00 602.00 497.70" xmlns="http://www.w3.org/2000/svg" xmlns:xlink="http://www.w3.org/1999/xlink">
<g id="graph0" class="graph" transform="scale(1 1) rotate(0) translate(4 493.7)">
<title>oneDegreeRelationshipsDiagram</title>
<polygon fill="#ffffff" stroke="transparent" points="-4,4 -4,-493.7 598,-493.7 598,4 -4,4"/>
<text text-anchor="middle" x="72.4936" y="-7.3" font-family="Helvetica,sans-Serif" font-size="11.00" fill="#000000">Generated by SchemaSpy</text>
<!-- zz_archived_legacy_keyworker_allocation -->
<g id="node1" class="node">
<title>zz_archived_legacy_keyworker_allocation</title>
<g id="a_node1"><a xlink:href="../../tables/zz_archived_legacy_keyworker_allocation.html" xlink:title="zz_archived_legacy_keyworker_allocation" target="_top">
<polygon fill="#ffffff" stroke="transparent" points="200,-109.7 200,-485.7 586,-485.7 586,-109.7 200,-109.7"/>
<polygon fill="#f5f5f5" stroke="transparent" points="202,-460.7 202,-483.7 584,-483.7 584,-460.7 202,-460.7"/>
<polygon fill="none" stroke="#000000" points="202,-460.7 202,-483.7 584,-483.7 584,-460.7 202,-460.7"/>
<text text-anchor="start" x="207" y="-469.3" font-family="Helvetica,sans-Serif" font-weight="bold" font-size="11.00" fill="#000000">zz_archived_legacy_keyworker_allocation</text>
<text text-anchor="start" x="549.0437" y="-468.8" font-family="Helvetica,sans-Serif" font-size="11.00" fill="#000000">[table]</text>
<polygon fill="none" stroke="#000000" points="202,-438.7 202,-460.7 500,-460.7 500,-438.7 202,-438.7"/>
<image xlink:href="../../images/primaryKeys.png" width="11px" height="12px" preserveAspectRatio="xMinYMin meet" x="207" y="-455.7"/>
<text text-anchor="start" x="222" y="-445.8" font-family="Helvetica,sans-Serif" font-size="11.00" fill="#000000">offender_keyworker_id</text>
<polygon fill="none" stroke="#000000" points="500,-438.7 500,-460.7 584,-460.7 584,-438.7 500,-438.7"/>
<text text-anchor="start" x="503" y="-446.4" font-family="Helvetica,sans-Serif" font-size="11.00" fill="#000000">bigserial[19]</text>
<polygon fill="#ffffff" stroke="transparent" points="202,-416.7 202,-438.7 500,-438.7 500,-416.7 202,-416.7"/>
<polygon fill="none" stroke="#000000" points="202,-416.7 202,-438.7 500,-438.7 500,-416.7 202,-416.7"/>
<text text-anchor="start" x="222" y="-423.8" font-family="Helvetica,sans-Serif" font-size="11.00" fill="#000000">offender_no</text>
<polygon fill="none" stroke="#000000" points="500,-416.7 500,-438.7 584,-438.7 584,-416.7 500,-416.7"/>
<text text-anchor="start" x="503" y="-424.4" font-family="Helvetica,sans-Serif" font-size="11.00" fill="#000000">varchar[10]</text>
<polygon fill="#ffffff" stroke="transparent" points="202,-394.7 202,-416.7 500,-416.7 500,-394.7 202,-394.7"/>
<polygon fill="none" stroke="#000000" points="202,-394.7 202,-416.7 500,-416.7 500,-394.7 202,-394.7"/>
<text text-anchor="start" x="222" y="-401.8" font-family="Helvetica,sans-Serif" font-size="11.00" fill="#000000">staff_id</text>
<polygon fill="none" stroke="#000000" points="500,-394.7 500,-416.7 584,-416.7 584,-394.7 500,-394.7"/>
<text text-anchor="start" x="503" y="-402.4" font-family="Helvetica,sans-Serif" font-size="11.00" fill="#000000">int8[19]</text>
<polygon fill="#ffffff" stroke="transparent" points="202,-372.7 202,-394.7 500,-394.7 500,-372.7 202,-372.7"/>
<polygon fill="none" stroke="#000000" points="202,-372.7 202,-394.7 500,-394.7 500,-372.7 202,-372.7"/>
<text text-anchor="start" x="222" y="-379.8" font-family="Helvetica,sans-Serif" font-size="11.00" fill="#000000">assigned_date_time</text>
<polygon fill="none" stroke="#000000" points="500,-372.7 500,-394.7 584,-394.7 584,-372.7 500,-372.7"/>
<text text-anchor="start" x="502.8807" y="-380.4" font-family="Helvetica,sans-Serif" font-size="11.00" fill="#000000">timestamp[29,6]</text>
<polygon fill="none" stroke="#000000" points="202,-350.7 202,-372.7 500,-372.7 500,-350.7 202,-350.7"/>
<text text-anchor="start" x="222" y="-357.8" font-family="Helvetica,sans-Serif" font-size="11.00" fill="#000000">active_flag</text>
<polygon fill="none" stroke="#000000" points="500,-350.7 500,-372.7 584,-372.7 584,-350.7 500,-350.7"/>
<text text-anchor="start" x="503" y="-358.4" font-family="Helvetica,sans-Serif" font-size="11.00" fill="#000000">bpchar[1]</text>
<polygon fill="none" stroke="#000000" points="202,-328.7 202,-350.7 500,-350.7 500,-328.7 202,-328.7"/>
<text text-anchor="start" x="222" y="-335.8" font-family="Helvetica,sans-Serif" font-size="11.00" fill="#000000">alloc_type</text>
<polygon fill="none" stroke="#000000" points="500,-328.7 500,-350.7 584,-350.7 584,-328.7 500,-328.7"/>
<text text-anchor="start" x="503" y="-336.4" font-family="Helvetica,sans-Serif" font-size="11.00" fill="#000000">bpchar[1]</text>
<polygon fill="none" stroke="#000000" points="202,-306.7 202,-328.7 500,-328.7 500,-306.7 202,-306.7"/>
<text text-anchor="start" x="222" y="-313.8" font-family="Helvetica,sans-Serif" font-size="11.00" fill="#000000">user_id</text>
<polygon fill="none" stroke="#000000" points="500,-306.7 500,-328.7 584,-328.7 584,-306.7 500,-306.7"/>
<text text-anchor="start" x="503" y="-314.4" font-family="Helvetica,sans-Serif" font-size="11.00" fill="#000000">varchar[32]</text>
<polygon fill="#ffffff" stroke="transparent" points="202,-284.7 202,-306.7 500,-306.7 500,-284.7 202,-284.7"/>
<polygon fill="none" stroke="#000000" points="202,-284.7 202,-306.7 500,-306.7 500,-284.7 202,-284.7"/>
<text text-anchor="start" x="222" y="-291.8" font-family="Helvetica,sans-Serif" font-size="11.00" fill="#000000">prison_id</text>
<polygon fill="none" stroke="#000000" points="500,-284.7 500,-306.7 584,-306.7 584,-284.7 500,-284.7"/>
<text text-anchor="start" x="503" y="-292.4" font-family="Helvetica,sans-Serif" font-size="11.00" fill="#000000">varchar[6]</text>
<polygon fill="none" stroke="#000000" points="202,-262.7 202,-284.7 500,-284.7 500,-262.7 202,-262.7"/>
<text text-anchor="start" x="222" y="-269.8" font-family="Helvetica,sans-Serif" font-size="11.00" fill="#000000">expiry_date_time</text>
<polygon fill="none" stroke="#000000" points="500,-262.7 500,-284.7 584,-284.7 584,-262.7 500,-262.7"/>
<text text-anchor="start" x="502.8807" y="-270.4" font-family="Helvetica,sans-Serif" font-size="11.00" fill="#000000">timestamp[29,6]</text>
<polygon fill="none" stroke="#000000" points="202,-240.7 202,-262.7 500,-262.7 500,-240.7 202,-240.7"/>
<text text-anchor="start" x="222" y="-247.8" font-family="Helvetica,sans-Serif" font-size="11.00" fill="#000000">create_datetime</text>
<polygon fill="none" stroke="#000000" points="500,-240.7 500,-262.7 584,-262.7 584,-240.7 500,-240.7"/>
<text text-anchor="start" x="502.8807" y="-248.4" font-family="Helvetica,sans-Serif" font-size="11.00" fill="#000000">timestamp[29,6]</text>
<polygon fill="none" stroke="#000000" points="202,-218.7 202,-240.7 500,-240.7 500,-218.7 202,-218.7"/>
<text text-anchor="start" x="222" y="-225.8" font-family="Helvetica,sans-Serif" font-size="11.00" fill="#000000">create_user_id</text>
<polygon fill="none" stroke="#000000" points="500,-218.7 500,-240.7 584,-240.7 584,-218.7 500,-218.7"/>
<text text-anchor="start" x="503" y="-226.4" font-family="Helvetica,sans-Serif" font-size="11.00" fill="#000000">varchar[32]</text>
<polygon fill="none" stroke="#000000" points="202,-196.7 202,-218.7 500,-218.7 500,-196.7 202,-196.7"/>
<text text-anchor="start" x="222" y="-203.8" font-family="Helvetica,sans-Serif" font-size="11.00" fill="#000000">modify_datetime</text>
<polygon fill="none" stroke="#000000" points="500,-196.7 500,-218.7 584,-218.7 584,-196.7 500,-196.7"/>
<text text-anchor="start" x="502.8807" y="-204.4" font-family="Helvetica,sans-Serif" font-size="11.00" fill="#000000">timestamp[29,6]</text>
<polygon fill="none" stroke="#000000" points="202,-174.7 202,-196.7 500,-196.7 500,-174.7 202,-174.7"/>
<text text-anchor="start" x="222" y="-181.8" font-family="Helvetica,sans-Serif" font-size="11.00" fill="#000000">modify_user_id</text>
<polygon fill="none" stroke="#000000" points="500,-174.7 500,-196.7 584,-196.7 584,-174.7 500,-174.7"/>
<text text-anchor="start" x="503" y="-182.4" font-family="Helvetica,sans-Serif" font-size="11.00" fill="#000000">varchar[32]</text>
<polygon fill="none" stroke="#000000" points="202,-152.7 202,-174.7 500,-174.7 500,-152.7 202,-152.7"/>
<image xlink:href="../../images/foreignKeys.png" width="11px" height="12px" preserveAspectRatio="xMinYMin meet" x="207" y="-169.7"/>
<text text-anchor="start" x="222" y="-159.8" font-family="Helvetica,sans-Serif" font-size="11.00" fill="#000000">allocation_reason_id</text>
<polygon fill="none" stroke="#000000" points="500,-152.7 500,-174.7 584,-174.7 584,-152.7 500,-152.7"/>
<text text-anchor="start" x="503" y="-160.4" font-family="Helvetica,sans-Serif" font-size="11.00" fill="#000000">int8[19]</text>
<polygon fill="none" stroke="#000000" points="202,-130.7 202,-152.7 500,-152.7 500,-130.7 202,-130.7"/>
<image xlink:href="../../images/foreignKeys.png" width="11px" height="12px" preserveAspectRatio="xMinYMin meet" x="207" y="-147.7"/>
<text text-anchor="start" x="222" y="-137.8" font-family="Helvetica,sans-Serif" font-size="11.00" fill="#000000">deallocation_reason_id</text>
<polygon fill="none" stroke="#000000" points="500,-130.7 500,-152.7 584,-152.7 584,-130.7 500,-130.7"/>
<text text-anchor="start" x="503" y="-138.4" font-family="Helvetica,sans-Serif" font-size="11.00" fill="#000000">int8[19]</text>
<polygon fill="#ffffff" stroke="transparent" points="202,-111.7 202,-130.7 355,-130.7 355,-111.7 202,-111.7"/>
<polygon fill="none" stroke="#000000" points="202,-111.7 202,-130.7 355,-130.7 355,-111.7 202,-111.7"/>
<text text-anchor="start" x="205" y="-117.8" font-family="Helvetica,sans-Serif" font-size="11.00" fill="#000000">&lt; 2</text>
<polygon fill="#ffffff" stroke="transparent" points="355,-111.7 355,-130.7 500,-130.7 500,-111.7 355,-111.7"/>
<polygon fill="none" stroke="#000000" points="355,-111.7 355,-130.7 500,-130.7 500,-111.7 355,-111.7"/>
<text text-anchor="start" x="490.8862" y="-117.8" font-family="Helvetica,sans-Serif" font-size="11.00" fill="#000000"> &#160;</text>
<polygon fill="#ffffff" stroke="transparent" points="500,-111.7 500,-130.7 584,-130.7 584,-111.7 500,-111.7"/>
<polygon fill="none" stroke="#000000" points="500,-111.7 500,-130.7 584,-130.7 584,-111.7 500,-111.7"/>
<text text-anchor="start" x="565.4053" y="-117.8" font-family="Helvetica,sans-Serif" font-size="11.00" fill="#000000">0 &gt;</text>
<polygon fill="none" stroke="#000000" stroke-width="2" points="201,-110.7 201,-484.7 585,-484.7 585,-110.7 201,-110.7"/>
</a>
</g>
</g>
<!-- reference_data -->
<g id="node2" class="node">
<title>reference_data</title>
<g id="a_node2"><a xlink:href="../../tables/reference_data.html" xlink:title="reference_data" target="_top">
<polygon fill="#ffffff" stroke="transparent" points="8,-38.2 8,-187.2 151,-187.2 151,-38.2 8,-38.2"/>
<polygon fill="#f5f5f5" stroke="transparent" points="8.5,-163.7 8.5,-186.7 151.5,-186.7 151.5,-163.7 8.5,-163.7"/>
<polygon fill="none" stroke="#000000" points="8.5,-163.7 8.5,-186.7 151.5,-186.7 151.5,-163.7 8.5,-163.7"/>
<text text-anchor="start" x="13.5" y="-172.3" font-family="Helvetica,sans-Serif" font-weight="bold" font-size="11.00" fill="#000000">reference_data</text>
<text text-anchor="start" x="116.5437" y="-171.8" font-family="Helvetica,sans-Serif" font-size="11.00" fill="#000000">[table]</text>
<polygon fill="none" stroke="#000000" points="8.5,-141.7 8.5,-163.7 151.5,-163.7 151.5,-141.7 8.5,-141.7"/>
<image xlink:href="../../images/primaryKeys.png" width="11px" height="12px" preserveAspectRatio="xMinYMin meet" x="13.5" y="-158.7"/>
<text text-anchor="start" x="28.5" y="-148.8" font-family="Helvetica,sans-Serif" font-size="11.00" fill="#000000">id</text>
<polygon fill="#ffffff" stroke="transparent" points="8.5,-119.7 8.5,-141.7 151.5,-141.7 151.5,-119.7 8.5,-119.7"/>
<polygon fill="none" stroke="#000000" points="8.5,-119.7 8.5,-141.7 151.5,-141.7 151.5,-119.7 8.5,-119.7"/>
<text text-anchor="start" x="28.5" y="-126.8" font-family="Helvetica,sans-Serif" font-size="11.00" fill="#000000">domain</text>
<polygon fill="#ffffff" stroke="transparent" points="8.5,-97.7 8.5,-119.7 151.5,-119.7 151.5,-97.7 8.5,-97.7"/>
<polygon fill="none" stroke="#000000" points="8.5,-97.7 8.5,-119.7 151.5,-119.7 151.5,-97.7 8.5,-97.7"/>
<text text-anchor="start" x="28.5" y="-104.8" font-family="Helvetica,sans-Serif" font-size="11.00" fill="#000000">code</text>
<polygon fill="#ffffff" stroke="transparent" points="8.5,-75.7 8.5,-97.7 151.5,-97.7 151.5,-75.7 8.5,-75.7"/>
<polygon fill="none" stroke="#000000" points="8.5,-75.7 8.5,-97.7 151.5,-97.7 151.5,-75.7 8.5,-75.7"/>
<text text-anchor="start" x="28.5" y="-82.8" font-family="Helvetica,sans-Serif" font-size="11.00" fill="#000000">sequence_number</text>
<polygon fill="none" stroke="#000000" points="8.5,-56.7 8.5,-75.7 151.5,-75.7 151.5,-56.7 8.5,-56.7"/>
<text text-anchor="start" x="11.5" y="-62.8" font-family="Helvetica,sans-Serif" font-size="11.00" fill="#000000">...</text>
<polygon fill="#ffffff" stroke="transparent" points="8.5,-37.7 8.5,-56.7 53.5,-56.7 53.5,-37.7 8.5,-37.7"/>
<polygon fill="none" stroke="#000000" points="8.5,-37.7 8.5,-56.7 53.5,-56.7 53.5,-37.7 8.5,-37.7"/>
<text text-anchor="start" x="11.5" y="-43.8" font-family="Helvetica,sans-Serif" font-size="11.00" fill="#000000"> &#160;</text>
<polygon fill="#ffffff" stroke="transparent" points="53.5,-37.7 53.5,-56.7 113.5,-56.7 113.5,-37.7 53.5,-37.7"/>
<polygon fill="none" stroke="#000000" points="53.5,-37.7 53.5,-56.7 113.5,-56.7 113.5,-37.7 53.5,-37.7"/>
<text text-anchor="start" x="71.9956" y="-43.8" font-family="Helvetica,sans-Serif" font-size="11.00" fill="#000000">59 rows</text>
<polygon fill="#ffffff" stroke="transparent" points="113.5,-37.7 113.5,-56.7 151.5,-56.7 151.5,-37.7 113.5,-37.7"/>
<polygon fill="none" stroke="#000000" points="113.5,-37.7 113.5,-56.7 151.5,-56.7 151.5,-37.7 113.5,-37.7"/>
<text text-anchor="start" x="132.9053" y="-43.8" font-family="Helvetica,sans-Serif" font-size="11.00" fill="#000000">7 &gt;</text>
</a>
</g>
</g>
<!-- zz_archived_legacy_keyworker_allocation&#45;&gt;reference_data -->
<g id="edge1" class="edge">
<title>zz_archived_legacy_keyworker_allocation:w&#45;&gt;reference_data:e</title>
<path fill="none" stroke="#000000" d="M187.6489,-161.9813C175.5992,-158.8875 168.728,-152.7 151.5,-152.7"/>
<polygon fill="#000000" stroke="#000000" points="194.0568,-162.7486 201.5719,-167.2745 198.0284,-163.2243 202,-163.7 202,-163.7 202,-163.7 198.0284,-163.2243 202.4281,-160.1255 194.0568,-162.7486 194.0568,-162.7486"/>
<ellipse fill="none" stroke="#000000" cx="190.8795" cy="-162.3681" rx="3.2" ry="3.2"/>
</g>
<!-- zz_archived_legacy_keyworker_allocation&#45;&gt;reference_data -->
<g id="edge2" class="edge">
<title>zz_archived_legacy_keyworker_allocation:w&#45;&gt;reference_data:e</title>
<path fill="none" stroke="#000000" d="M187.6489,-143.4188C175.5992,-146.5125 168.728,-152.7 151.5,-152.7"/>
<polygon fill="#000000" stroke="#000000" points="194.0568,-142.6514 202.4281,-145.2745 198.0284,-142.1757 202,-141.7 202,-141.7 202,-141.7 198.0284,-142.1757 201.5719,-138.1255 194.0568,-142.6514 194.0568,-142.6514"/>
<ellipse fill="none" stroke="#000000" cx="190.8795" cy="-143.0319" rx="3.2" ry="3.2"/>
</g>
</g>
</svg>
